<?xml version="1.0" encoding="UTF-8" standalone="no"?>
<!DOCTYPE svg PUBLIC "-//W3C//DTD SVG 1.1//EN"
 "http://www.w3.org/Graphics/SVG/1.1/DTD/svg11.dtd">
<!-- Generated by graphviz version 2.43.0 (0)
 -->
<!-- Title: Map::loadMap Pages: 1 -->
<svg width="483pt" height="113pt"
 viewBox="0.00 0.00 483.00 113.00" xmlns="http://www.w3.org/2000/svg" xmlns:xlink="http://www.w3.org/1999/xlink">
<g id="graph0" class="graph" transform="scale(1 1) rotate(0) translate(4 109)">
<title>Map::loadMap</title>
<polygon fill="white" stroke="transparent" points="-4,4 -4,-109 479,-109 479,4 -4,4"/>
<!-- Node1 -->
<g id="node1" class="node">
<title>Node1</title>
<g id="a_node1"><a xlink:title="Loads the map from a file.">
<polygon fill="#bfbfbf" stroke="black" points="389,-28.5 389,-47.5 475,-47.5 475,-28.5 389,-28.5"/>
<text text-anchor="middle" x="432" y="-35.5" font-family="Helvetica,sans-Serif" font-size="10.00">Map::loadMap</text>
</a>
</g>
</g>
<!-- Node2 -->
<g id="node2" class="node">
<title>Node2</title>
<g id="a_node2"><a xlink:href="classGame.html#a4c2a7ead717a4c13f1ffddafd11e17c8" target="_top" xlink:title="Initializes the game, loading config, and the map.">
<polygon fill="white" stroke="black" points="230,-66.5 230,-85.5 353,-85.5 353,-66.5 230,-66.5"/>
<text text-anchor="middle" x="291.5" y="-73.5" font-family="Helvetica,sans-Serif" font-size="10.00">Game::initializeGame</text>
</a>
</g>
</g>
<!-- Node1&#45;&gt;Node2 -->
<g id="edge1" class="edge">
<title>Node1&#45;&gt;Node2</title>
<path fill="none" stroke="midnightblue" d="M386.37,-50.25C367.28,-55.48 345.32,-61.51 327.44,-66.41"/>
<polygon fill="midnightblue" stroke="midnightblue" points="387.33,-53.61 396.05,-47.59 385.48,-46.86 387.33,-53.61"/>
</g>
<!-- Node5 -->
<g id="node5" class="node">
<title>Node5</title>
<g id="a_node5"><a xlink:href="classConfig.html#ab8b24da021cd9ad9ca092749292ca6ed" target="_top" xlink:title="Loads the config from a file.">
<polygon fill="white" stroke="black" points="239,-28.5 239,-47.5 344,-47.5 344,-28.5 239,-28.5"/>
<text text-anchor="middle" x="291.5" y="-35.5" font-family="Helvetica,sans-Serif" font-size="10.00">Config::loadConfig</text>
</a>
</g>
</g>
<!-- Node1&#45;&gt;Node5 -->
<g id="edge4" class="edge">
<title>Node1&#45;&gt;Node5</title>
<path fill="none" stroke="midnightblue" d="M378.6,-38C367.37,-38 355.52,-38 344.32,-38"/>
<polygon fill="midnightblue" stroke="midnightblue" points="378.69,-41.5 388.69,-38 378.69,-34.5 378.69,-41.5"/>
</g>
<!-- Node6 -->
<g id="node6" class="node">
<title>Node6</title>
<g id="a_node6"><a xlink:href="classGameManager.html#a8460b2f4f44c19dd405e4163fe6cb5cf" target="_top" xlink:title=" ">
<polygon fill="white" stroke="black" points="77,-0.5 77,-19.5 194,-19.5 194,-0.5 77,-0.5"/>
<text text-anchor="middle" x="135.5" y="-7.5" font-family="Helvetica,sans-Serif" font-size="10.00">GameManager::start</text>
</a>
</g>
</g>
<!-- Node1&#45;&gt;Node6 -->
<g id="edge7" class="edge">
<title>Node1&#45;&gt;Node6</title>
<path fill="none" stroke="midnightblue" d="M387.85,-25.88C376.59,-23.16 364.41,-20.61 353,-19 299.55,-11.45 237.99,-9.54 194.21,-9.31"/>
<polygon fill="midnightblue" stroke="midnightblue" points="387.33,-29.36 397.88,-28.4 389.03,-22.57 387.33,-29.36"/>
</g>
<!-- Node3 -->
<g id="node3" class="node">
<title>Node3</title>
<g id="a_node3"><a xlink:href="classGame.html#a2a30c89761624ee64cd7acb147aaf89c" target="_top" xlink:title="Starts the game.">
<polygon fill="white" stroke="black" points="98.5,-85.5 98.5,-104.5 172.5,-104.5 172.5,-85.5 98.5,-85.5"/>
<text text-anchor="middle" x="135.5" y="-92.5" font-family="Helvetica,sans-Serif" font-size="10.00">Game::start</text>
</a>
</g>
</g>
<!-- Node2&#45;&gt;Node3 -->
<g id="edge2" class="edge">
<title>Node2&#45;&gt;Node3</title>
<path fill="none" stroke="midnightblue" d="M219.56,-84.75C203.27,-86.76 186.62,-88.82 172.54,-90.55"/>
<polygon fill="midnightblue" stroke="midnightblue" points="220.14,-88.21 229.64,-83.51 219.28,-81.26 220.14,-88.21"/>
</g>
<!-- Node4 -->
<g id="node4" class="node">
<title>Node4</title>
<g id="a_node4"><a xlink:href="classGame.html#a1118c369ae5b2fe433aac540cb32d187" target="_top" xlink:title="Starts the game with a new map.">
<polygon fill="white" stroke="black" points="87.5,-47.5 87.5,-66.5 183.5,-66.5 183.5,-47.5 87.5,-47.5"/>
<text text-anchor="middle" x="135.5" y="-54.5" font-family="Helvetica,sans-Serif" font-size="10.00">Game::startNew</text>
</a>
</g>
</g>
<!-- Node2&#45;&gt;Node4 -->
<g id="edge3" class="edge">
<title>Node2&#45;&gt;Node4</title>
<path fill="none" stroke="midnightblue" d="M219.49,-67.24C207.33,-65.74 194.97,-64.21 183.63,-62.81"/>
<polygon fill="midnightblue" stroke="midnightblue" points="219.28,-70.74 229.64,-68.49 220.14,-63.79 219.28,-70.74"/>
</g>
<!-- Node5&#45;&gt;Node6 -->
<g id="edge5" class="edge">
<title>Node5&#45;&gt;Node6</title>
<path fill="none" stroke="midnightblue" d="M228.82,-26.78C215.58,-24.38 201.71,-21.86 188.86,-19.52"/>
<polygon fill="midnightblue" stroke="midnightblue" points="228.33,-30.25 238.79,-28.6 229.58,-23.37 228.33,-30.25"/>
</g>
<!-- Node7 -->
<g id="node7" class="node">
<title>Node7</title>
<g id="a_node7"><a xlink:href="main_8cpp.html#ae66f6b31b5ad750f1fe042a706a4e3d4" target="_top" xlink:title=" ">
<polygon fill="white" stroke="black" points="0,-0.5 0,-19.5 41,-19.5 41,-0.5 0,-0.5"/>
<text text-anchor="middle" x="20.5" y="-7.5" font-family="Helvetica,sans-Serif" font-size="10.00">main</text>
</a>
</g>
</g>
<!-- Node6&#45;&gt;Node7 -->
<g id="edge6" class="edge">
<title>Node6&#45;&gt;Node7</title>
<path fill="none" stroke="midnightblue" d="M66.53,-10C57.29,-10 48.48,-10 41.14,-10"/>
<polygon fill="midnightblue" stroke="midnightblue" points="66.68,-13.5 76.68,-10 66.68,-6.5 66.68,-13.5"/>
</g>
</g>
</svg>
