<?xml version="1.0" encoding="UTF-8" standalone="no"?>
<!DOCTYPE svg PUBLIC "-//W3C//DTD SVG 1.1//EN"
 "http://www.w3.org/Graphics/SVG/1.1/DTD/svg11.dtd">
<!-- Generated by graphviz version 2.43.0 (0)
 -->
<!-- Title: GamePhase::setPhase Pages: 1 -->
<svg width="444pt" height="366pt"
 viewBox="0.00 0.00 444.00 366.18" xmlns="http://www.w3.org/2000/svg" xmlns:xlink="http://www.w3.org/1999/xlink">
<g id="graph0" class="graph" transform="scale(1 1) rotate(0) translate(4 362.18)">
<title>GamePhase::setPhase</title>
<polygon fill="white" stroke="transparent" points="-4,4 -4,-362.18 440,-362.18 440,4 -4,4"/>
<!-- Node1 -->
<g id="node1" class="node">
<title>Node1</title>
<g id="a_node1"><a xlink:title="Sets the current game phase.">
<polygon fill="#bfbfbf" stroke="black" points="311,-171.5 311,-190.5 436,-190.5 436,-171.5 311,-171.5"/>
<text text-anchor="middle" x="373.5" y="-178.5" font-family="Helvetica,sans-Serif" font-size="10.00">GamePhase::setPhase</text>
</a>
</g>
</g>
<!-- Node2 -->
<g id="node2" class="node">
<title>Node2</title>
<g id="a_node2"><a xlink:href="classGame.html#a4c2a7ead717a4c13f1ffddafd11e17c8" target="_top" xlink:title="Initializes the game, loading config, and the map.">
<polygon fill="white" stroke="black" points="142,-304.5 142,-323.5 265,-323.5 265,-304.5 142,-304.5"/>
<text text-anchor="middle" x="203.5" y="-311.5" font-family="Helvetica,sans-Serif" font-size="10.00">Game::initializeGame</text>
</a>
</g>
</g>
<!-- Node1&#45;&gt;Node2 -->
<g id="edge1" class="edge">
<title>Node1&#45;&gt;Node2</title>
<path fill="none" stroke="midnightblue" d="M360.71,-199.19C344.26,-223.22 312.2,-265.39 275,-290 265.73,-296.14 254.73,-300.86 244.21,-304.42"/>
<polygon fill="midnightblue" stroke="midnightblue" points="363.77,-200.92 366.42,-190.66 357.95,-197.02 363.77,-200.92"/>
</g>
<!-- Node3 -->
<g id="node3" class="node">
<title>Node3</title>
<g id="a_node3"><a xlink:href="classGame.html#a2a30c89761624ee64cd7acb147aaf89c" target="_top" xlink:title="Starts the game.">
<polygon fill="white" stroke="black" points="11,-332.5 11,-351.5 85,-351.5 85,-332.5 11,-332.5"/>
<text text-anchor="middle" x="48" y="-339.5" font-family="Helvetica,sans-Serif" font-size="10.00">Game::start</text>
</a>
</g>
</g>
<!-- Node1&#45;&gt;Node3 -->
<g id="edge9" class="edge">
<title>Node1&#45;&gt;Node3</title>
<path fill="none" stroke="midnightblue" d="M366.62,-200.47C355.21,-234.38 326.55,-303.47 275,-333 215.54,-367.05 132.13,-358.86 85.05,-350.2"/>
<polygon fill="midnightblue" stroke="midnightblue" points="370,-201.38 369.72,-190.79 363.33,-199.24 370,-201.38"/>
</g>
<!-- Node4 -->
<g id="node4" class="node">
<title>Node4</title>
<g id="a_node4"><a xlink:href="classGame.html#a1118c369ae5b2fe433aac540cb32d187" target="_top" xlink:title="Starts the game with a new map.">
<polygon fill="white" stroke="black" points="0,-285.5 0,-304.5 96,-304.5 96,-285.5 0,-285.5"/>
<text text-anchor="middle" x="48" y="-292.5" font-family="Helvetica,sans-Serif" font-size="10.00">Game::startNew</text>
</a>
</g>
</g>
<!-- Node1&#45;&gt;Node4 -->
<g id="edge10" class="edge">
<title>Node1&#45;&gt;Node4</title>
<path fill="none" stroke="midnightblue" d="M356.22,-197.93C338.13,-215.66 307.2,-242.84 275,-257 216.91,-282.55 143.48,-291.01 96.37,-293.76"/>
<polygon fill="midnightblue" stroke="midnightblue" points="359.01,-200.09 363.59,-190.54 354.05,-195.15 359.01,-200.09"/>
</g>
<!-- Node5 -->
<g id="node5" class="node">
<title>Node5</title>
<g id="a_node5"><a xlink:href="classCherry.html#aaf41373bb1fe88172648ce26bb54c5ec" target="_top" xlink:title="Interacts with another object.">
<polygon fill="white" stroke="black" points="146.5,-228.5 146.5,-247.5 260.5,-247.5 260.5,-228.5 146.5,-228.5"/>
<text text-anchor="middle" x="203.5" y="-235.5" font-family="Helvetica,sans-Serif" font-size="10.00">Cherry::interactWith</text>
</a>
</g>
</g>
<!-- Node1&#45;&gt;Node5 -->
<g id="edge4" class="edge">
<title>Node1&#45;&gt;Node5</title>
<path fill="none" stroke="midnightblue" d="M340.58,-194.45C321.69,-202.15 297.19,-211.71 275,-219 264.64,-222.4 253.29,-225.66 242.78,-228.49"/>
<polygon fill="midnightblue" stroke="midnightblue" points="341.99,-197.66 349.9,-190.61 339.32,-191.18 341.99,-197.66"/>
</g>
<!-- Node6 -->
<g id="node6" class="node">
<title>Node6</title>
<g id="a_node6"><a xlink:href="classGhost.html#a835ab7beec9ae0515085e479fcd2b1c6" target="_top" xlink:title="Interacts with another object.">
<polygon fill="white" stroke="black" points="148,-190.5 148,-209.5 259,-209.5 259,-190.5 148,-190.5"/>
<text text-anchor="middle" x="203.5" y="-197.5" font-family="Helvetica,sans-Serif" font-size="10.00">Ghost::interactWith</text>
</a>
</g>
</g>
<!-- Node1&#45;&gt;Node6 -->
<g id="edge5" class="edge">
<title>Node1&#45;&gt;Node6</title>
<path fill="none" stroke="midnightblue" d="M300.84,-189.1C286.88,-190.68 272.46,-192.31 259.16,-193.82"/>
<polygon fill="midnightblue" stroke="midnightblue" points="301.35,-192.57 310.9,-187.97 300.57,-185.61 301.35,-192.57"/>
</g>
<!-- Node7 -->
<g id="node7" class="node">
<title>Node7</title>
<g id="a_node7"><a xlink:href="classGame.html#a58272899c822e102edfee50a5547612f" target="_top" xlink:title="Moves the player in given direction.">
<polygon fill="white" stroke="black" points="148.5,-152.5 148.5,-171.5 258.5,-171.5 258.5,-152.5 148.5,-152.5"/>
<text text-anchor="middle" x="203.5" y="-159.5" font-family="Helvetica,sans-Serif" font-size="10.00">Game::movePlayer</text>
</a>
</g>
</g>
<!-- Node1&#45;&gt;Node7 -->
<g id="edge6" class="edge">
<title>Node1&#45;&gt;Node7</title>
<path fill="none" stroke="midnightblue" d="M300.73,-172.88C286.61,-171.29 272.02,-169.64 258.61,-168.12"/>
<polygon fill="midnightblue" stroke="midnightblue" points="300.57,-176.39 310.9,-174.03 301.35,-169.43 300.57,-176.39"/>
</g>
<!-- Node8 -->
<g id="node8" class="node">
<title>Node8</title>
<g id="a_node8"><a xlink:href="classGamePhase.html#a6ebc97f0a4514c9d0689009a0e7bd48c" target="_top" xlink:title="Removes an item from the remaining items.">
<polygon fill="white" stroke="black" points="133,-114.5 133,-133.5 274,-133.5 274,-114.5 133,-114.5"/>
<text text-anchor="middle" x="203.5" y="-121.5" font-family="Helvetica,sans-Serif" font-size="10.00">GamePhase::removeItem</text>
</a>
</g>
</g>
<!-- Node1&#45;&gt;Node8 -->
<g id="edge7" class="edge">
<title>Node1&#45;&gt;Node8</title>
<path fill="none" stroke="midnightblue" d="M340.58,-167.55C321.69,-159.85 297.19,-150.29 275,-143 264.64,-139.6 253.29,-136.34 242.78,-133.51"/>
<polygon fill="midnightblue" stroke="midnightblue" points="339.32,-170.82 349.9,-171.39 341.99,-164.34 339.32,-170.82"/>
</g>
<!-- Node9 -->
<g id="node9" class="node">
<title>Node9</title>
<g id="a_node9"><a xlink:href="classGame.html#aef7682b8bf084aac3c8f929a6fd2f673" target="_top" xlink:title="Updates the game state.">
<polygon fill="white" stroke="black" points="5,-76.5 5,-95.5 91,-95.5 91,-76.5 5,-76.5"/>
<text text-anchor="middle" x="48" y="-83.5" font-family="Helvetica,sans-Serif" font-size="10.00">Game::update</text>
</a>
</g>
</g>
<!-- Node1&#45;&gt;Node9 -->
<g id="edge12" class="edge">
<title>Node1&#45;&gt;Node9</title>
<path fill="none" stroke="midnightblue" d="M356.72,-163.83C338.86,-145.67 307.93,-117.89 275,-105 214.32,-81.25 137.64,-80.27 91.01,-82.54"/>
<polygon fill="midnightblue" stroke="midnightblue" points="354.53,-166.6 363.97,-171.41 359.59,-161.77 354.53,-166.6"/>
</g>
<!-- Node10 -->
<g id="node10" class="node">
<title>Node10</title>
<g id="a_node10"><a xlink:href="classPlayer.html#abc005b0707ae63f395b33d79a876a453" target="_top" xlink:title="Updates the object.">
<polygon fill="white" stroke="black" points="160,-38.5 160,-57.5 247,-57.5 247,-38.5 160,-38.5"/>
<text text-anchor="middle" x="203.5" y="-45.5" font-family="Helvetica,sans-Serif" font-size="10.00">Player::update</text>
</a>
</g>
</g>
<!-- Node1&#45;&gt;Node10 -->
<g id="edge11" class="edge">
<title>Node1&#45;&gt;Node10</title>
<path fill="none" stroke="midnightblue" d="M360.71,-162.81C344.26,-138.78 312.2,-96.61 275,-72 265.73,-65.86 254.73,-61.14 244.21,-57.58"/>
<polygon fill="midnightblue" stroke="midnightblue" points="357.95,-164.98 366.42,-171.34 363.77,-161.08 357.95,-164.98"/>
</g>
<!-- Node11 -->
<g id="node11" class="node">
<title>Node11</title>
<g id="a_node11"><a xlink:href="classGame.html#a9f8150e56d9f2c53d172ef0443630de7" target="_top" xlink:title="Updates the game phase timer.">
<polygon fill="white" stroke="black" points="132,-0.5 132,-19.5 275,-19.5 275,-0.5 132,-0.5"/>
<text text-anchor="middle" x="203.5" y="-7.5" font-family="Helvetica,sans-Serif" font-size="10.00">Game::updatePhaseTimer</text>
</a>
</g>
</g>
<!-- Node1&#45;&gt;Node11 -->
<g id="edge13" class="edge">
<title>Node1&#45;&gt;Node11</title>
<path fill="none" stroke="midnightblue" d="M365.54,-161.78C352.78,-129.31 322.5,-63.77 275,-29 269.68,-25.11 263.61,-22.01 257.32,-19.55"/>
<polygon fill="midnightblue" stroke="midnightblue" points="362.38,-163.31 369.19,-171.42 368.92,-160.83 362.38,-163.31"/>
</g>
<!-- Node2&#45;&gt;Node3 -->
<g id="edge2" class="edge">
<title>Node2&#45;&gt;Node3</title>
<path fill="none" stroke="midnightblue" d="M140.17,-325.37C121.48,-328.78 101.62,-332.4 85.21,-335.39"/>
<polygon fill="midnightblue" stroke="midnightblue" points="140.89,-328.8 150.1,-323.56 139.64,-321.91 140.89,-328.8"/>
</g>
<!-- Node2&#45;&gt;Node4 -->
<g id="edge3" class="edge">
<title>Node2&#45;&gt;Node4</title>
<path fill="none" stroke="midnightblue" d="M131.84,-305.25C119.85,-303.77 107.66,-302.26 96.45,-300.87"/>
<polygon fill="midnightblue" stroke="midnightblue" points="131.48,-308.74 141.83,-306.49 132.34,-301.79 131.48,-308.74"/>
</g>
<!-- Node8&#45;&gt;Node9 -->
<g id="edge8" class="edge">
<title>Node8&#45;&gt;Node9</title>
<path fill="none" stroke="midnightblue" d="M153.86,-111.96C132.42,-106.65 107.58,-100.5 87.46,-95.52"/>
<polygon fill="midnightblue" stroke="midnightblue" points="153.22,-115.41 163.77,-114.41 154.9,-108.61 153.22,-115.41"/>
</g>
<!-- Node11&#45;&gt;Node9 -->
<g id="edge14" class="edge">
<title>Node11&#45;&gt;Node9</title>
<path fill="none" stroke="midnightblue" d="M148.51,-22.51C142.83,-24.43 137.23,-26.58 132,-29 104.23,-41.82 75.64,-63.75 60.33,-76.34"/>
<polygon fill="midnightblue" stroke="midnightblue" points="149.57,-25.85 158.06,-19.52 147.47,-19.17 149.57,-25.85"/>
</g>
</g>
</svg>
