<?xml version="1.0" encoding="UTF-8" standalone="no"?>
<!DOCTYPE svg PUBLIC "-//W3C//DTD SVG 1.1//EN"
 "http://www.w3.org/Graphics/SVG/1.1/DTD/svg11.dtd">
<!-- Generated by graphviz version 2.43.0 (0)
 -->
<!-- Title: Game::draw Pages: 1 -->
<svg width="380pt" height="113pt"
 viewBox="0.00 0.00 380.00 113.00" xmlns="http://www.w3.org/2000/svg" xmlns:xlink="http://www.w3.org/1999/xlink">
<g id="graph0" class="graph" transform="scale(1 1) rotate(0) translate(4 109)">
<title>Game::draw</title>
<polygon fill="white" stroke="transparent" points="-4,4 -4,-109 376,-109 376,4 -4,4"/>
<!-- Node1 -->
<g id="node1" class="node">
<title>Node1</title>
<g id="a_node1"><a xlink:title="Draws the game.">
<polygon fill="#bfbfbf" stroke="black" points="296,-28.5 296,-47.5 372,-47.5 372,-28.5 296,-28.5"/>
<text text-anchor="middle" x="334" y="-35.5" font-family="Helvetica,sans-Serif" font-size="10.00">Game::draw</text>
</a>
</g>
</g>
<!-- Node2 -->
<g id="node2" class="node">
<title>Node2</title>
<g id="a_node2"><a xlink:href="classGame.html#a4c2a7ead717a4c13f1ffddafd11e17c8" target="_top" xlink:title="Initializes the game, loading config, and the map.">
<polygon fill="white" stroke="black" points="134.5,-66.5 134.5,-85.5 257.5,-85.5 257.5,-66.5 134.5,-66.5"/>
<text text-anchor="middle" x="196" y="-73.5" font-family="Helvetica,sans-Serif" font-size="10.00">Game::initializeGame</text>
</a>
</g>
</g>
<!-- Node1&#45;&gt;Node2 -->
<g id="edge1" class="edge">
<title>Node1&#45;&gt;Node2</title>
<path fill="none" stroke="midnightblue" d="M288.91,-50.32C270.23,-55.54 248.78,-61.53 231.31,-66.41"/>
<polygon fill="midnightblue" stroke="midnightblue" points="289.99,-53.65 298.68,-47.59 288.11,-46.91 289.99,-53.65"/>
</g>
<!-- Node5 -->
<g id="node5" class="node">
<title>Node5</title>
<g id="a_node5"><a xlink:href="classGame.html#a127294d56e1c963bf1a12d2b95a7a0c3" target="_top" xlink:title="Returns all moving objects to their starting positions.">
<polygon fill="white" stroke="black" points="132,-28.5 132,-47.5 260,-47.5 260,-28.5 132,-28.5"/>
<text text-anchor="middle" x="196" y="-35.5" font-family="Helvetica,sans-Serif" font-size="10.00">Game::returnAllToStart</text>
</a>
</g>
</g>
<!-- Node1&#45;&gt;Node5 -->
<g id="edge4" class="edge">
<title>Node1&#45;&gt;Node5</title>
<path fill="none" stroke="midnightblue" d="M285.64,-38C277.36,-38 268.63,-38 260.01,-38"/>
<polygon fill="midnightblue" stroke="midnightblue" points="285.84,-41.5 295.84,-38 285.84,-34.5 285.84,-41.5"/>
</g>
<!-- Node6 -->
<g id="node6" class="node">
<title>Node6</title>
<g id="a_node6"><a xlink:href="classGame.html#aef7682b8bf084aac3c8f929a6fd2f673" target="_top" xlink:title="Updates the game state.">
<polygon fill="white" stroke="black" points="5,-0.5 5,-19.5 91,-19.5 91,-0.5 5,-0.5"/>
<text text-anchor="middle" x="48" y="-7.5" font-family="Helvetica,sans-Serif" font-size="10.00">Game::update</text>
</a>
</g>
</g>
<!-- Node1&#45;&gt;Node6 -->
<g id="edge6" class="edge">
<title>Node1&#45;&gt;Node6</title>
<path fill="none" stroke="midnightblue" d="M292.62,-25.86C282.09,-23.15 270.7,-20.6 260,-19 201.98,-10.31 134.06,-8.97 91.29,-9.18"/>
<polygon fill="midnightblue" stroke="midnightblue" points="291.83,-29.27 302.4,-28.49 293.65,-22.51 291.83,-29.27"/>
</g>
<!-- Node3 -->
<g id="node3" class="node">
<title>Node3</title>
<g id="a_node3"><a xlink:href="classGame.html#a2a30c89761624ee64cd7acb147aaf89c" target="_top" xlink:title="Starts the game.">
<polygon fill="white" stroke="black" points="11,-85.5 11,-104.5 85,-104.5 85,-85.5 11,-85.5"/>
<text text-anchor="middle" x="48" y="-92.5" font-family="Helvetica,sans-Serif" font-size="10.00">Game::start</text>
</a>
</g>
</g>
<!-- Node2&#45;&gt;Node3 -->
<g id="edge2" class="edge">
<title>Node2&#45;&gt;Node3</title>
<path fill="none" stroke="midnightblue" d="M124.05,-85.23C110.52,-86.99 96.9,-88.77 85.04,-90.31"/>
<polygon fill="midnightblue" stroke="midnightblue" points="124.89,-88.65 134.35,-83.89 123.98,-81.71 124.89,-88.65"/>
</g>
<!-- Node4 -->
<g id="node4" class="node">
<title>Node4</title>
<g id="a_node4"><a xlink:href="classGame.html#a1118c369ae5b2fe433aac540cb32d187" target="_top" xlink:title="Starts the game with a new map.">
<polygon fill="white" stroke="black" points="0,-47.5 0,-66.5 96,-66.5 96,-47.5 0,-47.5"/>
<text text-anchor="middle" x="48" y="-54.5" font-family="Helvetica,sans-Serif" font-size="10.00">Game::startNew</text>
</a>
</g>
</g>
<!-- Node2&#45;&gt;Node4 -->
<g id="edge3" class="edge">
<title>Node2&#45;&gt;Node4</title>
<path fill="none" stroke="midnightblue" d="M124.16,-66.78C114.72,-65.55 105.23,-64.32 96.33,-63.16"/>
<polygon fill="midnightblue" stroke="midnightblue" points="123.98,-70.29 134.35,-68.11 124.89,-63.35 123.98,-70.29"/>
</g>
<!-- Node5&#45;&gt;Node6 -->
<g id="edge5" class="edge">
<title>Node5&#45;&gt;Node6</title>
<path fill="none" stroke="midnightblue" d="M135.13,-26.52C120.43,-23.7 105,-20.74 91.32,-18.12"/>
<polygon fill="midnightblue" stroke="midnightblue" points="134.68,-30 145.16,-28.44 136,-23.12 134.68,-30"/>
</g>
</g>
</svg>
