<?xml version="1.0" encoding="UTF-8" standalone="no"?>
<!DOCTYPE svg PUBLIC "-//W3C//DTD SVG 1.1//EN"
 "http://www.w3.org/Graphics/SVG/1.1/DTD/svg11.dtd">
<!-- Generated by graphviz version 2.43.0 (0)
 -->
<!-- Title: Ghost::tryMove Pages: 1 -->
<svg width="306pt" height="180pt"
 viewBox="0.00 0.00 306.00 180.00" xmlns="http://www.w3.org/2000/svg" xmlns:xlink="http://www.w3.org/1999/xlink">
<g id="graph0" class="graph" transform="scale(1 1) rotate(0) translate(4 176)">
<title>Ghost::tryMove</title>
<polygon fill="white" stroke="transparent" points="-4,4 -4,-176 302,-176 302,4 -4,4"/>
<!-- Node1 -->
<g id="node1" class="node">
<title>Node1</title>
<g id="a_node1"><a xlink:title=" ">
<polygon fill="#bfbfbf" stroke="black" points="0,-76.5 0,-95.5 92,-95.5 92,-76.5 0,-76.5"/>
<text text-anchor="middle" x="46" y="-83.5" font-family="Helvetica,sans-Serif" font-size="10.00">Ghost::tryMove</text>
</a>
</g>
</g>
<!-- Node2 -->
<g id="node2" class="node">
<title>Node2</title>
<g id="a_node2"><a xlink:href="Helpers_8cpp.html#a98742d5d9d01be6137fb4e7005f89248" target="_top" xlink:title=" ">
<polygon fill="white" stroke="black" points="142.5,-152.5 142.5,-171.5 283.5,-171.5 283.5,-152.5 142.5,-152.5"/>
<text text-anchor="middle" x="213" y="-159.5" font-family="Helvetica,sans-Serif" font-size="10.00">calculateNewCoordinates</text>
</a>
</g>
</g>
<!-- Node1&#45;&gt;Node2 -->
<g id="edge1" class="edge">
<title>Node1&#45;&gt;Node2</title>
<path fill="none" stroke="midnightblue" d="M57.68,-95.62C72.43,-108.38 100.34,-130.72 128,-143 133.65,-145.51 139.67,-147.7 145.78,-149.62"/>
<polygon fill="midnightblue" stroke="midnightblue" points="144.86,-152.99 155.44,-152.4 146.8,-146.27 144.86,-152.99"/>
</g>
<!-- Node3 -->
<g id="node3" class="node">
<title>Node3</title>
<g id="a_node3"><a xlink:href="classMap.html#a3b01db567592d31b0f862e84bf687c75" target="_top" xlink:title="Gets the nearest ghost cage exit.">
<polygon fill="white" stroke="black" points="128,-114.5 128,-133.5 298,-133.5 298,-114.5 128,-114.5"/>
<text text-anchor="middle" x="213" y="-121.5" font-family="Helvetica,sans-Serif" font-size="10.00">Map::getNearestGhostCageExit</text>
</a>
</g>
</g>
<!-- Node1&#45;&gt;Node3 -->
<g id="edge2" class="edge">
<title>Node1&#45;&gt;Node3</title>
<path fill="none" stroke="midnightblue" d="M87.36,-95.53C100.33,-98.58 114.77,-101.95 128,-105 138.27,-107.37 149.25,-109.87 159.77,-112.25"/>
<polygon fill="midnightblue" stroke="midnightblue" points="159.16,-115.7 169.68,-114.5 160.7,-108.88 159.16,-115.7"/>
</g>
<!-- Node4 -->
<g id="node4" class="node">
<title>Node4</title>
<g id="a_node4"><a xlink:href="classMap.html#a3fa542ef9ff897893adc5a290b224114" target="_top" xlink:title="Gets the map size.">
<polygon fill="white" stroke="black" points="173,-76.5 173,-95.5 253,-95.5 253,-76.5 173,-76.5"/>
<text text-anchor="middle" x="213" y="-83.5" font-family="Helvetica,sans-Serif" font-size="10.00">Map::getSize</text>
</a>
</g>
</g>
<!-- Node1&#45;&gt;Node4 -->
<g id="edge3" class="edge">
<title>Node1&#45;&gt;Node4</title>
<path fill="none" stroke="midnightblue" d="M92.09,-86C114.01,-86 140.42,-86 162.86,-86"/>
<polygon fill="midnightblue" stroke="midnightblue" points="162.86,-89.5 172.86,-86 162.86,-82.5 162.86,-89.5"/>
</g>
<!-- Node5 -->
<g id="node5" class="node">
<title>Node5</title>
<g id="a_node5"><a xlink:href="classMap.html#a9daf0b81095fe118f2e52fd783ea1bf8" target="_top" xlink:title="Checks if there is a wall at the given coordinates.">
<polygon fill="white" stroke="black" points="171.5,-38.5 171.5,-57.5 254.5,-57.5 254.5,-38.5 171.5,-38.5"/>
<text text-anchor="middle" x="213" y="-45.5" font-family="Helvetica,sans-Serif" font-size="10.00">Map::isWallAt</text>
</a>
</g>
</g>
<!-- Node1&#45;&gt;Node5 -->
<g id="edge4" class="edge">
<title>Node1&#45;&gt;Node5</title>
<path fill="none" stroke="midnightblue" d="M87.36,-76.47C100.33,-73.42 114.77,-70.05 128,-67 138.82,-64.51 150.43,-61.86 161.47,-59.36"/>
<polygon fill="midnightblue" stroke="midnightblue" points="162.41,-62.74 171.4,-57.12 160.87,-55.91 162.41,-62.74"/>
</g>
<!-- Node6 -->
<g id="node6" class="node">
<title>Node6</title>
<g id="a_node6"><a xlink:href="classGhost.html#aa6cee6d5199e728031a07f703b116a67" target="_top" xlink:title="Moves the object in the given direction.">
<polygon fill="white" stroke="black" points="173.5,-0.5 173.5,-19.5 252.5,-19.5 252.5,-0.5 173.5,-0.5"/>
<text text-anchor="middle" x="213" y="-7.5" font-family="Helvetica,sans-Serif" font-size="10.00">Ghost::move</text>
</a>
</g>
</g>
<!-- Node1&#45;&gt;Node6 -->
<g id="edge5" class="edge">
<title>Node1&#45;&gt;Node6</title>
<path fill="none" stroke="midnightblue" d="M57.68,-76.38C72.43,-63.62 100.34,-41.28 128,-29 139.1,-24.07 151.62,-20.36 163.53,-17.58"/>
<polygon fill="midnightblue" stroke="midnightblue" points="164.32,-20.99 173.36,-15.47 162.84,-14.15 164.32,-20.99"/>
</g>
</g>
</svg>
