<?xml version="1.0" encoding="UTF-8" standalone="no"?>
<!DOCTYPE svg PUBLIC "-//W3C//DTD SVG 1.1//EN"
 "http://www.w3.org/Graphics/SVG/1.1/DTD/svg11.dtd">
<!-- Generated by graphviz version 2.43.0 (0)
 -->
<!-- Title: Map::isWallAt Pages: 1 -->
<svg width="408pt" height="142pt"
 viewBox="0.00 0.00 408.00 142.00" xmlns="http://www.w3.org/2000/svg" xmlns:xlink="http://www.w3.org/1999/xlink">
<g id="graph0" class="graph" transform="scale(1 1) rotate(0) translate(4 138)">
<title>Map::isWallAt</title>
<polygon fill="white" stroke="transparent" points="-4,4 -4,-138 404,-138 404,4 -4,4"/>
<!-- Node1 -->
<g id="node1" class="node">
<title>Node1</title>
<g id="a_node1"><a xlink:title="Checks if there is a wall at the given coordinates.">
<polygon fill="#bfbfbf" stroke="black" points="317,-57.5 317,-76.5 400,-76.5 400,-57.5 317,-57.5"/>
<text text-anchor="middle" x="358.5" y="-64.5" font-family="Helvetica,sans-Serif" font-size="10.00">Map::isWallAt</text>
</a>
</g>
</g>
<!-- Node2 -->
<g id="node2" class="node">
<title>Node2</title>
<g id="a_node2"><a xlink:href="classPlayer.html#aa4002becf320cc56377ecda8622a1ba3" target="_top" xlink:title="Returns the calculated next move of the object.">
<polygon fill="white" stroke="black" points="157.5,-114.5 157.5,-133.5 276.5,-133.5 276.5,-114.5 157.5,-114.5"/>
<text text-anchor="middle" x="217" y="-121.5" font-family="Helvetica,sans-Serif" font-size="10.00">Player::getNextMove</text>
</a>
</g>
</g>
<!-- Node1&#45;&gt;Node2 -->
<g id="edge1" class="edge">
<title>Node1&#45;&gt;Node2</title>
<path fill="none" stroke="midnightblue" d="M331.34,-81.36C316.79,-89 298.19,-98.19 281,-105 272.18,-108.49 262.46,-111.71 253.35,-114.48"/>
<polygon fill="midnightblue" stroke="midnightblue" points="333.08,-84.4 340.26,-76.61 329.79,-78.22 333.08,-84.4"/>
</g>
<!-- Node3 -->
<g id="node3" class="node">
<title>Node3</title>
<g id="a_node3"><a xlink:href="structChaseBehavior.html#a2352bad80fc83366546accdba99f7d33" target="_top" xlink:title="Gets the ideal direction to move the enemy.">
<polygon fill="white" stroke="black" points="155,-76.5 155,-95.5 279,-95.5 279,-76.5 155,-76.5"/>
<text text-anchor="middle" x="217" y="-83.5" font-family="Helvetica,sans-Serif" font-size="10.00">ChaseBehavior::move</text>
</a>
</g>
</g>
<!-- Node1&#45;&gt;Node3 -->
<g id="edge2" class="edge">
<title>Node1&#45;&gt;Node3</title>
<path fill="none" stroke="midnightblue" d="M306.81,-73.9C297.78,-75.13 288.28,-76.43 279,-77.69"/>
<polygon fill="midnightblue" stroke="midnightblue" points="307.34,-77.36 316.78,-72.55 306.39,-70.43 307.34,-77.36"/>
</g>
<!-- Node4 -->
<g id="node4" class="node">
<title>Node4</title>
<g id="a_node4"><a xlink:href="structScatterBehavior.html#abf893e24e51acddd4c3e1cd57e262762" target="_top" xlink:title="Gets the ideal direction to move the enemy.">
<polygon fill="white" stroke="black" points="153,-38.5 153,-57.5 281,-57.5 281,-38.5 153,-38.5"/>
<text text-anchor="middle" x="217" y="-45.5" font-family="Helvetica,sans-Serif" font-size="10.00">ScatterBehavior::move</text>
</a>
</g>
</g>
<!-- Node1&#45;&gt;Node4 -->
<g id="edge3" class="edge">
<title>Node1&#45;&gt;Node4</title>
<path fill="none" stroke="midnightblue" d="M306.81,-60.1C298.46,-58.96 289.71,-57.77 281.09,-56.59"/>
<polygon fill="midnightblue" stroke="midnightblue" points="306.39,-63.57 316.78,-61.45 307.34,-56.64 306.39,-63.57"/>
</g>
<!-- Node5 -->
<g id="node5" class="node">
<title>Node5</title>
<g id="a_node5"><a xlink:href="classGhost.html#a148ba3ee3c09025057a85025e2b74f81" target="_top" xlink:title=" ">
<polygon fill="white" stroke="black" points="171,-0.5 171,-19.5 263,-19.5 263,-0.5 171,-0.5"/>
<text text-anchor="middle" x="217" y="-7.5" font-family="Helvetica,sans-Serif" font-size="10.00">Ghost::tryMove</text>
</a>
</g>
</g>
<!-- Node1&#45;&gt;Node5 -->
<g id="edge4" class="edge">
<title>Node1&#45;&gt;Node5</title>
<path fill="none" stroke="midnightblue" d="M331.34,-52.64C316.79,-45 298.19,-35.81 281,-29 272.18,-25.51 262.46,-22.29 253.35,-19.52"/>
<polygon fill="midnightblue" stroke="midnightblue" points="329.79,-55.78 340.26,-57.39 333.08,-49.6 329.79,-55.78"/>
</g>
<!-- Node6 -->
<g id="node6" class="node">
<title>Node6</title>
<g id="a_node6"><a xlink:href="classGhost.html#a8f00182b9e19aec6cab0f795ee8dd5ae" target="_top" xlink:title="Returns the calculated next move of the object.">
<polygon fill="white" stroke="black" points="0,-0.5 0,-19.5 117,-19.5 117,-0.5 0,-0.5"/>
<text text-anchor="middle" x="58.5" y="-7.5" font-family="Helvetica,sans-Serif" font-size="10.00">Ghost::getNextMove</text>
</a>
</g>
</g>
<!-- Node5&#45;&gt;Node6 -->
<g id="edge5" class="edge">
<title>Node5&#45;&gt;Node6</title>
<path fill="none" stroke="midnightblue" d="M160.7,-10C146.61,-10 131.43,-10 117.22,-10"/>
<polygon fill="midnightblue" stroke="midnightblue" points="160.73,-13.5 170.73,-10 160.73,-6.5 160.73,-13.5"/>
</g>
</g>
</svg>
