<?xml version="1.0" encoding="UTF-8" standalone="no"?>
<!DOCTYPE svg PUBLIC "-//W3C//DTD SVG 1.1//EN"
 "http://www.w3.org/Graphics/SVG/1.1/DTD/svg11.dtd">
<!-- Generated by graphviz version 2.43.0 (0)
 -->
<!-- Title: Window::printMessage Pages: 1 -->
<svg width="548pt" height="202pt"
 viewBox="0.00 0.00 548.00 202.13" xmlns="http://www.w3.org/2000/svg" xmlns:xlink="http://www.w3.org/1999/xlink">
<g id="graph0" class="graph" transform="scale(1 1) rotate(0) translate(4 198.13)">
<title>Window::printMessage</title>
<polygon fill="white" stroke="transparent" points="-4,4 -4,-198.13 544,-198.13 544,4 -4,4"/>
<!-- Node1 -->
<g id="node1" class="node">
<title>Node1</title>
<g id="a_node1"><a xlink:title="Prints the message to the current window.">
<polygon fill="#bfbfbf" stroke="black" points="413,-95.5 413,-114.5 540,-114.5 540,-95.5 413,-95.5"/>
<text text-anchor="middle" x="476.5" y="-102.5" font-family="Helvetica,sans-Serif" font-size="10.00">Window::printMessage</text>
</a>
</g>
</g>
<!-- Node2 -->
<g id="node2" class="node">
<title>Node2</title>
<g id="a_node2"><a xlink:href="classGame.html#aa2d938aa918268060e63980c7efd86f8" target="_top" xlink:title="Ends the game.">
<polygon fill="white" stroke="black" points="135,-171.5 135,-190.5 205,-190.5 205,-171.5 135,-171.5"/>
<text text-anchor="middle" x="170" y="-178.5" font-family="Helvetica,sans-Serif" font-size="10.00">Game::end</text>
</a>
</g>
</g>
<!-- Node1&#45;&gt;Node2 -->
<g id="edge1" class="edge">
<title>Node1&#45;&gt;Node2</title>
<path fill="none" stroke="midnightblue" d="M460.24,-122.16C442.42,-140.78 411.01,-169.4 377,-181 319.28,-200.68 247.07,-194.14 205.27,-187.58"/>
<polygon fill="midnightblue" stroke="midnightblue" points="462.99,-124.35 467.23,-114.64 457.86,-119.58 462.99,-124.35"/>
</g>
<!-- Node4 -->
<g id="node4" class="node">
<title>Node4</title>
<g id="a_node4"><a xlink:href="classGame.html#a66e2ecb02f046b0c17922a4255720e5a" target="_top" xlink:title="Ends the game on error.">
<polygon fill="white" stroke="black" points="267,-152.5 267,-171.5 364,-171.5 364,-152.5 267,-152.5"/>
<text text-anchor="middle" x="315.5" y="-159.5" font-family="Helvetica,sans-Serif" font-size="10.00">Game::endOnErr</text>
</a>
</g>
</g>
<!-- Node1&#45;&gt;Node4 -->
<g id="edge3" class="edge">
<title>Node1&#45;&gt;Node4</title>
<path fill="none" stroke="midnightblue" d="M439.44,-117.93C410.18,-128.42 369.6,-142.96 343.2,-152.43"/>
<polygon fill="midnightblue" stroke="midnightblue" points="440.65,-121.21 448.89,-114.54 438.29,-114.62 440.65,-121.21"/>
</g>
<!-- Node5 -->
<g id="node5" class="node">
<title>Node5</title>
<g id="a_node5"><a xlink:href="classGame.html#a2a30c89761624ee64cd7acb147aaf89c" target="_top" xlink:title="Starts the game.">
<polygon fill="white" stroke="black" points="133,-114.5 133,-133.5 207,-133.5 207,-114.5 133,-114.5"/>
<text text-anchor="middle" x="170" y="-121.5" font-family="Helvetica,sans-Serif" font-size="10.00">Game::start</text>
</a>
</g>
</g>
<!-- Node1&#45;&gt;Node5 -->
<g id="edge12" class="edge">
<title>Node1&#45;&gt;Node5</title>
<path fill="none" stroke="midnightblue" d="M402.73,-109.54C341.14,-113.38 255.44,-118.73 207.4,-121.73"/>
<polygon fill="midnightblue" stroke="midnightblue" points="403.01,-113.03 412.78,-108.91 402.58,-106.04 403.01,-113.03"/>
</g>
<!-- Node6 -->
<g id="node6" class="node">
<title>Node6</title>
<g id="a_node6"><a xlink:href="classGame.html#a1118c369ae5b2fe433aac540cb32d187" target="_top" xlink:title="Starts the game with a new map.">
<polygon fill="white" stroke="black" points="122,-76.5 122,-95.5 218,-95.5 218,-76.5 122,-76.5"/>
<text text-anchor="middle" x="170" y="-83.5" font-family="Helvetica,sans-Serif" font-size="10.00">Game::startNew</text>
</a>
</g>
</g>
<!-- Node1&#45;&gt;Node6 -->
<g id="edge13" class="edge">
<title>Node1&#45;&gt;Node6</title>
<path fill="none" stroke="midnightblue" d="M447.75,-91.12C428.44,-82.27 401.82,-71.62 377,-67 323.26,-56.99 308.32,-60.86 254,-67 237.55,-68.86 219.61,-72.73 204.62,-76.49"/>
<polygon fill="midnightblue" stroke="midnightblue" points="446.32,-94.32 456.86,-95.42 449.31,-87.99 446.32,-94.32"/>
</g>
<!-- Node7 -->
<g id="node7" class="node">
<title>Node7</title>
<g id="a_node7"><a xlink:href="classGame.html#a4c2a7ead717a4c13f1ffddafd11e17c8" target="_top" xlink:title="Initializes the game, loading config, and the map.">
<polygon fill="white" stroke="black" points="254,-76.5 254,-95.5 377,-95.5 377,-76.5 254,-76.5"/>
<text text-anchor="middle" x="315.5" y="-83.5" font-family="Helvetica,sans-Serif" font-size="10.00">Game::initializeGame</text>
</a>
</g>
</g>
<!-- Node1&#45;&gt;Node7 -->
<g id="edge7" class="edge">
<title>Node1&#45;&gt;Node7</title>
<path fill="none" stroke="midnightblue" d="M402.68,-96.3C394.11,-95.27 385.44,-94.24 377.07,-93.24"/>
<polygon fill="midnightblue" stroke="midnightblue" points="402.31,-99.78 412.66,-97.49 403.14,-92.83 402.31,-99.78"/>
</g>
<!-- Node8 -->
<g id="node8" class="node">
<title>Node8</title>
<g id="a_node8"><a xlink:href="classGameManager.html#a8460b2f4f44c19dd405e4163fe6cb5cf" target="_top" xlink:title=" ">
<polygon fill="white" stroke="black" points="257,-0.5 257,-19.5 374,-19.5 374,-0.5 257,-0.5"/>
<text text-anchor="middle" x="315.5" y="-7.5" font-family="Helvetica,sans-Serif" font-size="10.00">GameManager::start</text>
</a>
</g>
</g>
<!-- Node1&#45;&gt;Node8 -->
<g id="edge10" class="edge">
<title>Node1&#45;&gt;Node8</title>
<path fill="none" stroke="midnightblue" d="M456.34,-88.99C437.16,-73.5 406.34,-50.07 377,-34 366.89,-28.46 355.23,-23.53 344.87,-19.59"/>
<polygon fill="midnightblue" stroke="midnightblue" points="454.34,-91.87 464.29,-95.49 458.77,-86.45 454.34,-91.87"/>
</g>
<!-- Node3 -->
<g id="node3" class="node">
<title>Node3</title>
<g id="a_node3"><a xlink:href="classGame.html#aef7682b8bf084aac3c8f929a6fd2f673" target="_top" xlink:title="Updates the game state.">
<polygon fill="white" stroke="black" points="0,-171.5 0,-190.5 86,-190.5 86,-171.5 0,-171.5"/>
<text text-anchor="middle" x="43" y="-178.5" font-family="Helvetica,sans-Serif" font-size="10.00">Game::update</text>
</a>
</g>
</g>
<!-- Node2&#45;&gt;Node3 -->
<g id="edge2" class="edge">
<title>Node2&#45;&gt;Node3</title>
<path fill="none" stroke="midnightblue" d="M124.63,-181C112.11,-181 98.53,-181 86.15,-181"/>
<polygon fill="midnightblue" stroke="midnightblue" points="124.84,-184.5 134.84,-181 124.84,-177.5 124.84,-184.5"/>
</g>
<!-- Node4&#45;&gt;Node2 -->
<g id="edge4" class="edge">
<title>Node4&#45;&gt;Node2</title>
<path fill="none" stroke="midnightblue" d="M256.65,-169.66C239.27,-171.96 220.77,-174.41 205.42,-176.44"/>
<polygon fill="midnightblue" stroke="midnightblue" points="257.26,-173.11 266.72,-168.33 256.34,-166.17 257.26,-173.11"/>
</g>
<!-- Node4&#45;&gt;Node5 -->
<g id="edge5" class="edge">
<title>Node4&#45;&gt;Node5</title>
<path fill="none" stroke="midnightblue" d="M268.53,-149.83C248.68,-144.57 225.81,-138.51 207.2,-133.59"/>
<polygon fill="midnightblue" stroke="midnightblue" points="267.73,-153.23 278.29,-152.41 269.52,-146.47 267.73,-153.23"/>
</g>
<!-- Node4&#45;&gt;Node6 -->
<g id="edge6" class="edge">
<title>Node4&#45;&gt;Node6</title>
<path fill="none" stroke="midnightblue" d="M291.18,-146.89C271.97,-134.77 243.79,-117.74 218,-105 211.21,-101.65 203.68,-98.4 196.67,-95.57"/>
<polygon fill="midnightblue" stroke="midnightblue" points="289.53,-149.99 299.84,-152.4 293.29,-144.08 289.53,-149.99"/>
</g>
<!-- Node7&#45;&gt;Node5 -->
<g id="edge8" class="edge">
<title>Node7&#45;&gt;Node5</title>
<path fill="none" stroke="midnightblue" d="M268.53,-98.17C248.68,-103.43 225.81,-109.49 207.2,-114.41"/>
<polygon fill="midnightblue" stroke="midnightblue" points="269.52,-101.53 278.29,-95.59 267.73,-94.77 269.52,-101.53"/>
</g>
<!-- Node7&#45;&gt;Node6 -->
<g id="edge9" class="edge">
<title>Node7&#45;&gt;Node6</title>
<path fill="none" stroke="midnightblue" d="M243.52,-86C234.87,-86 226.2,-86 218.02,-86"/>
<polygon fill="midnightblue" stroke="midnightblue" points="243.64,-89.5 253.64,-86 243.64,-82.5 243.64,-89.5"/>
</g>
<!-- Node9 -->
<g id="node9" class="node">
<title>Node9</title>
<g id="a_node9"><a xlink:href="main_8cpp.html#ae66f6b31b5ad750f1fe042a706a4e3d4" target="_top" xlink:title=" ">
<polygon fill="white" stroke="black" points="149.5,-0.5 149.5,-19.5 190.5,-19.5 190.5,-0.5 149.5,-0.5"/>
<text text-anchor="middle" x="170" y="-7.5" font-family="Helvetica,sans-Serif" font-size="10.00">main</text>
</a>
</g>
</g>
<!-- Node8&#45;&gt;Node9 -->
<g id="edge11" class="edge">
<title>Node8&#45;&gt;Node9</title>
<path fill="none" stroke="midnightblue" d="M246.93,-10C226.36,-10 205.33,-10 190.64,-10"/>
<polygon fill="midnightblue" stroke="midnightblue" points="246.96,-13.5 256.96,-10 246.96,-6.5 246.96,-13.5"/>
</g>
</g>
</svg>
