<?xml version="1.0" encoding="UTF-8" standalone="no"?>
<!DOCTYPE svg PUBLIC "-//W3C//DTD SVG 1.1//EN"
 "http://www.w3.org/Graphics/SVG/1.1/DTD/svg11.dtd">
<!-- Generated by graphviz version 2.43.0 (0)
 -->
<!-- Title: Game Pages: 1 -->
<svg width="441pt" height="162pt"
 viewBox="0.00 0.00 440.50 162.00" xmlns="http://www.w3.org/2000/svg" xmlns:xlink="http://www.w3.org/1999/xlink">
<g id="graph0" class="graph" transform="scale(1 1) rotate(0) translate(4 158)">
<title>Game</title>
<polygon fill="white" stroke="transparent" points="-4,4 -4,-158 436.5,-158 436.5,4 -4,4"/>
<!-- Node1 -->
<g id="node1" class="node">
<title>Node1</title>
<g id="a_node1"><a xlink:title=" ">
<polygon fill="#bfbfbf" stroke="black" points="160.5,-0.5 160.5,-19.5 206.5,-19.5 206.5,-0.5 160.5,-0.5"/>
<text text-anchor="middle" x="183.5" y="-7.5" font-family="Helvetica,sans-Serif" font-size="10.00">Game</text>
</a>
</g>
</g>
<!-- Node2 -->
<g id="node2" class="node">
<title>Node2</title>
<g id="a_node2"><a xlink:href="classConfig.html" target="_top" xlink:title=" ">
<polygon fill="white" stroke="black" points="0,-67.5 0,-86.5 47,-86.5 47,-67.5 0,-67.5"/>
<text text-anchor="middle" x="23.5" y="-74.5" font-family="Helvetica,sans-Serif" font-size="10.00">Config</text>
</a>
</g>
</g>
<!-- Node2&#45;&gt;Node1 -->
<g id="edge1" class="edge">
<title>Node2&#45;&gt;Node1</title>
<path fill="none" stroke="#9a32cd" stroke-dasharray="5,2" d="M33.44,-58.53C38.52,-51.11 45.36,-43.03 53.5,-38 86.64,-17.52 132.68,-12.31 160.14,-11.14"/>
<polygon fill="#9a32cd" stroke="#9a32cd" points="30.3,-56.95 27.98,-67.29 36.24,-60.65 30.3,-56.95"/>
<text text-anchor="middle" x="84.5" y="-41" font-family="Helvetica,sans-Serif" font-size="10.00"> gameConfig</text>
</g>
<!-- Node3 -->
<g id="node3" class="node">
<title>Node3</title>
<g id="a_node3"><a xlink:href="classMap.html" target="_top" xlink:title=" ">
<polygon fill="white" stroke="black" points="88.5,-67.5 88.5,-86.5 126.5,-86.5 126.5,-67.5 88.5,-67.5"/>
<text text-anchor="middle" x="107.5" y="-74.5" font-family="Helvetica,sans-Serif" font-size="10.00">Map</text>
</a>
</g>
</g>
<!-- Node3&#45;&gt;Node1 -->
<g id="edge2" class="edge">
<title>Node3&#45;&gt;Node1</title>
<path fill="none" stroke="#9a32cd" stroke-dasharray="5,2" d="M114.06,-58.09C117.28,-51.16 121.73,-43.57 127.5,-38 136.74,-29.08 149.49,-22.62 160.49,-18.26"/>
<polygon fill="#9a32cd" stroke="#9a32cd" points="110.77,-56.89 110.21,-67.47 117.25,-59.55 110.77,-56.89"/>
<text text-anchor="middle" x="153.5" y="-41" font-family="Helvetica,sans-Serif" font-size="10.00"> gameMap</text>
</g>
<!-- Node4 -->
<g id="node4" class="node">
<title>Node4</title>
<g id="a_node4"><a xlink:href="structMap_1_1Bounds.html" target="_top" xlink:title=" ">
<polygon fill="white" stroke="black" points="67.5,-134.5 67.5,-153.5 147.5,-153.5 147.5,-134.5 67.5,-134.5"/>
<text text-anchor="middle" x="107.5" y="-141.5" font-family="Helvetica,sans-Serif" font-size="10.00">Map::Bounds</text>
</a>
</g>
</g>
<!-- Node4&#45;&gt;Node3 -->
<g id="edge3" class="edge">
<title>Node4&#45;&gt;Node3</title>
<path fill="none" stroke="#9a32cd" stroke-dasharray="5,2" d="M107.5,-124.04C107.5,-111.67 107.5,-96.12 107.5,-86.63"/>
<polygon fill="#9a32cd" stroke="#9a32cd" points="104,-124.23 107.5,-134.23 111,-124.23 104,-124.23"/>
<text text-anchor="middle" x="153" y="-108" font-family="Helvetica,sans-Serif" font-size="10.00"> ghostCageBounds</text>
</g>
<!-- Node5 -->
<g id="node5" class="node">
<title>Node5</title>
<g id="a_node5"><a xlink:href="classLeaderboard.html" target="_top" xlink:title=" ">
<polygon fill="white" stroke="black" points="145,-67.5 145,-86.5 222,-86.5 222,-67.5 145,-67.5"/>
<text text-anchor="middle" x="183.5" y="-74.5" font-family="Helvetica,sans-Serif" font-size="10.00">Leaderboard</text>
</a>
</g>
</g>
<!-- Node5&#45;&gt;Node1 -->
<g id="edge4" class="edge">
<title>Node5&#45;&gt;Node1</title>
<path fill="none" stroke="#9a32cd" stroke-dasharray="5,2" d="M183.5,-57.04C183.5,-44.67 183.5,-29.12 183.5,-19.63"/>
<polygon fill="#9a32cd" stroke="#9a32cd" points="180,-57.23 183.5,-67.23 187,-57.23 180,-57.23"/>
<text text-anchor="middle" x="229.5" y="-41" font-family="Helvetica,sans-Serif" font-size="10.00"> gameLeaderboard</text>
</g>
<!-- Node6 -->
<g id="node6" class="node">
<title>Node6</title>
<g id="a_node6"><a xlink:href="classGamePhase.html" target="_top" xlink:title=" ">
<polygon fill="white" stroke="black" points="261,-67.5 261,-86.5 336,-86.5 336,-67.5 261,-67.5"/>
<text text-anchor="middle" x="298.5" y="-74.5" font-family="Helvetica,sans-Serif" font-size="10.00">GamePhase</text>
</a>
</g>
</g>
<!-- Node6&#45;&gt;Node1 -->
<g id="edge5" class="edge">
<title>Node6&#45;&gt;Node1</title>
<path fill="none" stroke="#9a32cd" stroke-dasharray="5,2" d="M291.53,-57.84C287.99,-50.75 283.03,-43.12 276.5,-38 256.25,-22.14 226.98,-15.59 206.71,-12.89"/>
<polygon fill="#9a32cd" stroke="#9a32cd" points="288.52,-59.7 295.71,-67.47 294.94,-56.91 288.52,-59.7"/>
<text text-anchor="middle" x="316" y="-41" font-family="Helvetica,sans-Serif" font-size="10.00"> gamePhase</text>
</g>
<!-- Node7 -->
<g id="node7" class="node">
<title>Node7</title>
<g id="a_node7"><a xlink:href="classWindow.html" target="_top" xlink:title=" ">
<polygon fill="white" stroke="black" points="354.5,-67.5 354.5,-86.5 410.5,-86.5 410.5,-67.5 354.5,-67.5"/>
<text text-anchor="middle" x="382.5" y="-74.5" font-family="Helvetica,sans-Serif" font-size="10.00">Window</text>
</a>
</g>
</g>
<!-- Node7&#45;&gt;Node1 -->
<g id="edge6" class="edge">
<title>Node7&#45;&gt;Node1</title>
<path fill="none" stroke="#9a32cd" stroke-dasharray="5,2" d="M371.77,-58.35C366.32,-50.9 359.05,-42.84 350.5,-38 326.29,-24.28 246.42,-16.08 206.55,-12.74"/>
<polygon fill="#9a32cd" stroke="#9a32cd" points="369.19,-60.79 377.64,-67.18 375.02,-56.91 369.19,-60.79"/>
<text text-anchor="middle" x="397.5" y="-41" font-family="Helvetica,sans-Serif" font-size="10.00"> gameWindow</text>
</g>
</g>
</svg>
