<?xml version="1.0" encoding="UTF-8" standalone="no"?>
<!DOCTYPE svg PUBLIC "-//W3C//DTD SVG 1.1//EN"
 "http://www.w3.org/Graphics/SVG/1.1/DTD/svg11.dtd">
<!-- Generated by graphviz version 2.43.0 (0)
 -->
<!-- Title: Map::loadFromString Pages: 1 -->
<svg width="554pt" height="104pt"
 viewBox="0.00 0.00 554.00 104.00" xmlns="http://www.w3.org/2000/svg" xmlns:xlink="http://www.w3.org/1999/xlink">
<g id="graph0" class="graph" transform="scale(1 1) rotate(0) translate(4 100)">
<title>Map::loadFromString</title>
<polygon fill="white" stroke="transparent" points="-4,4 -4,-100 550,-100 550,4 -4,4"/>
<!-- Node1 -->
<g id="node1" class="node">
<title>Node1</title>
<g id="a_node1"><a xlink:title="Loads the map from a string.">
<polygon fill="#bfbfbf" stroke="black" points="0,-38.5 0,-57.5 118,-57.5 118,-38.5 0,-38.5"/>
<text text-anchor="middle" x="59" y="-45.5" font-family="Helvetica,sans-Serif" font-size="10.00">Map::loadFromString</text>
</a>
</g>
</g>
<!-- Node2 -->
<g id="node2" class="node">
<title>Node2</title>
<g id="a_node2"><a xlink:href="classMap.html#ab1c2595a555457c0a764a0530b57c0f9" target="_top" xlink:title="Helper function for validating map string.">
<polygon fill="white" stroke="black" points="154,-38.5 154,-57.5 256,-57.5 256,-38.5 154,-38.5"/>
<text text-anchor="middle" x="205" y="-45.5" font-family="Helvetica,sans-Serif" font-size="10.00">Map::processMap</text>
</a>
</g>
</g>
<!-- Node1&#45;&gt;Node2 -->
<g id="edge1" class="edge">
<title>Node1&#45;&gt;Node2</title>
<path fill="none" stroke="midnightblue" d="M118.16,-48C126.59,-48 135.29,-48 143.76,-48"/>
<polygon fill="midnightblue" stroke="midnightblue" points="143.96,-51.5 153.96,-48 143.96,-44.5 143.96,-51.5"/>
</g>
<!-- Node3 -->
<g id="node3" class="node">
<title>Node3</title>
<g id="a_node3"><a xlink:href="classMap.html#a41b623a0d503b94bf8412ca06296ae1f" target="_top" xlink:title="Helper function for finding crossroads.">
<polygon fill="white" stroke="black" points="292.5,-76.5 292.5,-95.5 408.5,-95.5 408.5,-76.5 292.5,-76.5"/>
<text text-anchor="middle" x="350.5" y="-83.5" font-family="Helvetica,sans-Serif" font-size="10.00">Map::findCrossroads</text>
</a>
</g>
</g>
<!-- Node2&#45;&gt;Node3 -->
<g id="edge2" class="edge">
<title>Node2&#45;&gt;Node3</title>
<path fill="none" stroke="midnightblue" d="M242.21,-57.59C260.82,-62.52 283.7,-68.57 303.54,-73.83"/>
<polygon fill="midnightblue" stroke="midnightblue" points="302.74,-77.24 313.3,-76.41 304.53,-70.47 302.74,-77.24"/>
</g>
<!-- Node5 -->
<g id="node5" class="node">
<title>Node5</title>
<g id="a_node5"><a xlink:href="classMap.html#ae96ad32d3b1600cd41e4a1c3b6a30906" target="_top" xlink:title="Checks if the map is traversable from the given position.">
<polygon fill="white" stroke="black" points="292,-38.5 292,-57.5 409,-57.5 409,-38.5 292,-38.5"/>
<text text-anchor="middle" x="350.5" y="-45.5" font-family="Helvetica,sans-Serif" font-size="10.00">Map::traversableBFS</text>
</a>
</g>
</g>
<!-- Node2&#45;&gt;Node5 -->
<g id="edge4" class="edge">
<title>Node2&#45;&gt;Node5</title>
<path fill="none" stroke="midnightblue" d="M256.19,-48C264.44,-48 273.11,-48 281.7,-48"/>
<polygon fill="midnightblue" stroke="midnightblue" points="281.72,-51.5 291.72,-48 281.72,-44.5 281.72,-51.5"/>
</g>
<!-- Node6 -->
<g id="node6" class="node">
<title>Node6</title>
<g id="a_node6"><a xlink:href="classMap.html#ad35b3432f383ea258d0ed06fe937c3b9" target="_top" xlink:title="Helper function for validating the map borders.">
<polygon fill="white" stroke="black" points="292.5,-0.5 292.5,-19.5 408.5,-19.5 408.5,-0.5 292.5,-0.5"/>
<text text-anchor="middle" x="350.5" y="-7.5" font-family="Helvetica,sans-Serif" font-size="10.00">Map::validateBorder</text>
</a>
</g>
</g>
<!-- Node2&#45;&gt;Node6 -->
<g id="edge5" class="edge">
<title>Node2&#45;&gt;Node6</title>
<path fill="none" stroke="midnightblue" d="M242.21,-38.41C260.82,-33.48 283.7,-27.43 303.54,-22.17"/>
<polygon fill="midnightblue" stroke="midnightblue" points="304.53,-25.53 313.3,-19.59 302.74,-18.76 304.53,-25.53"/>
</g>
<!-- Node4 -->
<g id="node4" class="node">
<title>Node4</title>
<g id="a_node4"><a xlink:href="classMap.html#a7d8219ae1c1ff2f45f7e11c5d03dcdb7" target="_top" xlink:title="Checks if given coordinates are a crossroad.">
<polygon fill="white" stroke="black" points="445,-76.5 445,-95.5 546,-95.5 546,-76.5 445,-76.5"/>
<text text-anchor="middle" x="495.5" y="-83.5" font-family="Helvetica,sans-Serif" font-size="10.00">Map::isCrossroad</text>
</a>
</g>
</g>
<!-- Node3&#45;&gt;Node4 -->
<g id="edge3" class="edge">
<title>Node3&#45;&gt;Node4</title>
<path fill="none" stroke="midnightblue" d="M408.84,-86C417.44,-86 426.33,-86 434.97,-86"/>
<polygon fill="midnightblue" stroke="midnightblue" points="434.98,-89.5 444.98,-86 434.98,-82.5 434.98,-89.5"/>
</g>
</g>
</svg>
