<?xml version="1.0" encoding="UTF-8" standalone="no"?>
<!DOCTYPE svg PUBLIC "-//W3C//DTD SVG 1.1//EN"
 "http://www.w3.org/Graphics/SVG/1.1/DTD/svg11.dtd">
<!-- Generated by graphviz version 2.43.0 (0)
 -->
<!-- Title: GamePhase::getPhase Pages: 1 -->
<svg width="435pt" height="180pt"
 viewBox="0.00 0.00 435.00 180.00" xmlns="http://www.w3.org/2000/svg" xmlns:xlink="http://www.w3.org/1999/xlink">
<g id="graph0" class="graph" transform="scale(1 1) rotate(0) translate(4 176)">
<title>GamePhase::getPhase</title>
<polygon fill="white" stroke="transparent" points="-4,4 -4,-176 431,-176 431,4 -4,4"/>
<!-- Node1 -->
<g id="node1" class="node">
<title>Node1</title>
<g id="a_node1"><a xlink:title="Returns the current game phase.">
<polygon fill="#bfbfbf" stroke="black" points="301,-76.5 301,-95.5 427,-95.5 427,-76.5 301,-76.5"/>
<text text-anchor="middle" x="364" y="-83.5" font-family="Helvetica,sans-Serif" font-size="10.00">GamePhase::getPhase</text>
</a>
</g>
</g>
<!-- Node2 -->
<g id="node2" class="node">
<title>Node2</title>
<g id="a_node2"><a xlink:href="classGame.html#a58272899c822e102edfee50a5547612f" target="_top" xlink:title="Moves the player in given direction.">
<polygon fill="white" stroke="black" points="138.5,-152.5 138.5,-171.5 248.5,-171.5 248.5,-152.5 138.5,-152.5"/>
<text text-anchor="middle" x="193.5" y="-159.5" font-family="Helvetica,sans-Serif" font-size="10.00">Game::movePlayer</text>
</a>
</g>
</g>
<!-- Node1&#45;&gt;Node2 -->
<g id="edge1" class="edge">
<title>Node1&#45;&gt;Node2</title>
<path fill="none" stroke="midnightblue" d="M340.94,-101.11C321.63,-113.77 292.45,-131.56 265,-143 256.22,-146.66 246.54,-149.8 237.23,-152.42"/>
<polygon fill="midnightblue" stroke="midnightblue" points="342.94,-103.98 349.32,-95.53 339.06,-98.16 342.94,-103.98"/>
</g>
<!-- Node3 -->
<g id="node3" class="node">
<title>Node3</title>
<g id="a_node3"><a xlink:href="classGhost.html#a16b4f0601026b19a1f4b06e68059372a" target="_top" xlink:title="Updates the object.">
<polygon fill="white" stroke="black" points="151,-114.5 151,-133.5 236,-133.5 236,-114.5 151,-114.5"/>
<text text-anchor="middle" x="193.5" y="-121.5" font-family="Helvetica,sans-Serif" font-size="10.00">Ghost::update</text>
</a>
</g>
</g>
<!-- Node1&#45;&gt;Node3 -->
<g id="edge2" class="edge">
<title>Node1&#45;&gt;Node3</title>
<path fill="none" stroke="midnightblue" d="M310.49,-97.84C286.55,-103.24 258.6,-109.55 236.13,-114.61"/>
<polygon fill="midnightblue" stroke="midnightblue" points="311.5,-101.2 320.48,-95.59 309.96,-94.37 311.5,-101.2"/>
</g>
<!-- Node4 -->
<g id="node4" class="node">
<title>Node4</title>
<g id="a_node4"><a xlink:href="classPlayer.html#abc005b0707ae63f395b33d79a876a453" target="_top" xlink:title="Updates the object.">
<polygon fill="white" stroke="black" points="150,-76.5 150,-95.5 237,-95.5 237,-76.5 150,-76.5"/>
<text text-anchor="middle" x="193.5" y="-83.5" font-family="Helvetica,sans-Serif" font-size="10.00">Player::update</text>
</a>
</g>
</g>
<!-- Node1&#45;&gt;Node4 -->
<g id="edge3" class="edge">
<title>Node1&#45;&gt;Node4</title>
<path fill="none" stroke="midnightblue" d="M290.68,-86C272.4,-86 253.35,-86 237.08,-86"/>
<polygon fill="midnightblue" stroke="midnightblue" points="290.74,-89.5 300.74,-86 290.74,-82.5 290.74,-89.5"/>
</g>
<!-- Node5 -->
<g id="node5" class="node">
<title>Node5</title>
<g id="a_node5"><a xlink:href="classGame.html#aef7682b8bf084aac3c8f929a6fd2f673" target="_top" xlink:title="Updates the game state.">
<polygon fill="white" stroke="black" points="0,-19.5 0,-38.5 86,-38.5 86,-19.5 0,-19.5"/>
<text text-anchor="middle" x="43" y="-26.5" font-family="Helvetica,sans-Serif" font-size="10.00">Game::update</text>
</a>
</g>
</g>
<!-- Node1&#45;&gt;Node5 -->
<g id="edge4" class="edge">
<title>Node1&#45;&gt;Node5</title>
<path fill="none" stroke="midnightblue" d="M305.05,-74.55C291.89,-72.01 277.97,-69.37 265,-67 202.77,-55.62 130.5,-43.37 86,-35.95"/>
<polygon fill="midnightblue" stroke="midnightblue" points="304.45,-78 314.94,-76.47 305.79,-71.13 304.45,-78"/>
</g>
<!-- Node6 -->
<g id="node6" class="node">
<title>Node6</title>
<g id="a_node6"><a xlink:href="classGame.html#a9f8150e56d9f2c53d172ef0443630de7" target="_top" xlink:title="Updates the game phase timer.">
<polygon fill="white" stroke="black" points="122,-0.5 122,-19.5 265,-19.5 265,-0.5 122,-0.5"/>
<text text-anchor="middle" x="193.5" y="-7.5" font-family="Helvetica,sans-Serif" font-size="10.00">Game::updatePhaseTimer</text>
</a>
</g>
</g>
<!-- Node1&#45;&gt;Node6 -->
<g id="edge5" class="edge">
<title>Node1&#45;&gt;Node6</title>
<path fill="none" stroke="midnightblue" d="M337.91,-71.25C318.43,-60.16 290.53,-45.03 265,-34 252.54,-28.61 238.44,-23.61 226.14,-19.58"/>
<polygon fill="midnightblue" stroke="midnightblue" points="336.34,-74.39 346.75,-76.34 339.83,-68.32 336.34,-74.39"/>
</g>
<!-- Node6&#45;&gt;Node5 -->
<g id="edge6" class="edge">
<title>Node6&#45;&gt;Node5</title>
<path fill="none" stroke="midnightblue" d="M111.8,-20.33C103.03,-21.45 94.38,-22.55 86.34,-23.58"/>
<polygon fill="midnightblue" stroke="midnightblue" points="112.25,-23.8 121.73,-19.05 111.37,-16.85 112.25,-23.8"/>
</g>
</g>
</svg>
