<?xml version="1.0" encoding="UTF-8" standalone="no"?>
<!DOCTYPE svg PUBLIC "-//W3C//DTD SVG 1.1//EN"
 "http://www.w3.org/Graphics/SVG/1.1/DTD/svg11.dtd">
<!-- Generated by graphviz version 2.43.0 (0)
 -->
<!-- Title: Config::getPath Pages: 1 -->
<svg width="389pt" height="104pt"
 viewBox="0.00 0.00 389.00 104.00" xmlns="http://www.w3.org/2000/svg" xmlns:xlink="http://www.w3.org/1999/xlink">
<g id="graph0" class="graph" transform="scale(1 1) rotate(0) translate(4 100)">
<title>Config::getPath</title>
<polygon fill="white" stroke="transparent" points="-4,4 -4,-100 385,-100 385,4 -4,4"/>
<!-- Node1 -->
<g id="node1" class="node">
<title>Node1</title>
<g id="a_node1"><a xlink:title="Gets the map file path.">
<polygon fill="#bfbfbf" stroke="black" points="291,-38.5 291,-57.5 381,-57.5 381,-38.5 291,-38.5"/>
<text text-anchor="middle" x="336" y="-45.5" font-family="Helvetica,sans-Serif" font-size="10.00">Config::getPath</text>
</a>
</g>
</g>
<!-- Node2 -->
<g id="node2" class="node">
<title>Node2</title>
<g id="a_node2"><a xlink:href="classGame.html#aa2d938aa918268060e63980c7efd86f8" target="_top" xlink:title="Ends the game.">
<polygon fill="white" stroke="black" points="158.5,-76.5 158.5,-95.5 228.5,-95.5 228.5,-76.5 158.5,-76.5"/>
<text text-anchor="middle" x="193.5" y="-83.5" font-family="Helvetica,sans-Serif" font-size="10.00">Game::end</text>
</a>
</g>
</g>
<!-- Node1&#45;&gt;Node2 -->
<g id="edge1" class="edge">
<title>Node1&#45;&gt;Node2</title>
<path fill="none" stroke="midnightblue" d="M289.84,-60.21C270.1,-65.55 247.31,-71.72 228.97,-76.68"/>
<polygon fill="midnightblue" stroke="midnightblue" points="290.81,-63.58 299.55,-57.59 288.98,-56.82 290.81,-63.58"/>
</g>
<!-- Node4 -->
<g id="node4" class="node">
<title>Node4</title>
<g id="a_node4"><a xlink:href="classGame.html#a4c2a7ead717a4c13f1ffddafd11e17c8" target="_top" xlink:title="Initializes the game, loading config, and the map.">
<polygon fill="white" stroke="black" points="132,-38.5 132,-57.5 255,-57.5 255,-38.5 132,-38.5"/>
<text text-anchor="middle" x="193.5" y="-45.5" font-family="Helvetica,sans-Serif" font-size="10.00">Game::initializeGame</text>
</a>
</g>
</g>
<!-- Node1&#45;&gt;Node4 -->
<g id="edge3" class="edge">
<title>Node1&#45;&gt;Node4</title>
<path fill="none" stroke="midnightblue" d="M280.86,-48C272.44,-48 263.7,-48 255.14,-48"/>
<polygon fill="midnightblue" stroke="midnightblue" points="280.93,-51.5 290.93,-48 280.93,-44.5 280.93,-51.5"/>
</g>
<!-- Node6 -->
<g id="node6" class="node">
<title>Node6</title>
<g id="a_node6"><a xlink:href="classGame.html#a1118c369ae5b2fe433aac540cb32d187" target="_top" xlink:title="Starts the game with a new map.">
<polygon fill="white" stroke="black" points="0,-0.5 0,-19.5 96,-19.5 96,-0.5 0,-0.5"/>
<text text-anchor="middle" x="48" y="-7.5" font-family="Helvetica,sans-Serif" font-size="10.00">Game::startNew</text>
</a>
</g>
</g>
<!-- Node1&#45;&gt;Node6 -->
<g id="edge6" class="edge">
<title>Node1&#45;&gt;Node6</title>
<path fill="none" stroke="midnightblue" d="M290.04,-36.15C278.67,-33.47 266.44,-30.88 255,-29 200.95,-20.13 138.19,-15.09 96.28,-12.46"/>
<polygon fill="midnightblue" stroke="midnightblue" points="289.23,-39.55 299.77,-38.5 290.88,-32.75 289.23,-39.55"/>
</g>
<!-- Node3 -->
<g id="node3" class="node">
<title>Node3</title>
<g id="a_node3"><a xlink:href="classGame.html#aef7682b8bf084aac3c8f929a6fd2f673" target="_top" xlink:title="Updates the game state.">
<polygon fill="white" stroke="black" points="5,-76.5 5,-95.5 91,-95.5 91,-76.5 5,-76.5"/>
<text text-anchor="middle" x="48" y="-83.5" font-family="Helvetica,sans-Serif" font-size="10.00">Game::update</text>
</a>
</g>
</g>
<!-- Node2&#45;&gt;Node3 -->
<g id="edge2" class="edge">
<title>Node2&#45;&gt;Node3</title>
<path fill="none" stroke="midnightblue" d="M148.43,-86C130.23,-86 109.23,-86 91.23,-86"/>
<polygon fill="midnightblue" stroke="midnightblue" points="148.49,-89.5 158.49,-86 148.49,-82.5 148.49,-89.5"/>
</g>
<!-- Node5 -->
<g id="node5" class="node">
<title>Node5</title>
<g id="a_node5"><a xlink:href="classGame.html#a2a30c89761624ee64cd7acb147aaf89c" target="_top" xlink:title="Starts the game.">
<polygon fill="white" stroke="black" points="11,-38.5 11,-57.5 85,-57.5 85,-38.5 11,-38.5"/>
<text text-anchor="middle" x="48" y="-45.5" font-family="Helvetica,sans-Serif" font-size="10.00">Game::start</text>
</a>
</g>
</g>
<!-- Node4&#45;&gt;Node5 -->
<g id="edge4" class="edge">
<title>Node4&#45;&gt;Node5</title>
<path fill="none" stroke="midnightblue" d="M121.52,-48C108.85,-48 96.15,-48 85,-48"/>
<polygon fill="midnightblue" stroke="midnightblue" points="121.64,-51.5 131.64,-48 121.64,-44.5 121.64,-51.5"/>
</g>
<!-- Node4&#45;&gt;Node6 -->
<g id="edge5" class="edge">
<title>Node4&#45;&gt;Node6</title>
<path fill="none" stroke="midnightblue" d="M146.53,-35.83C126.68,-30.57 103.81,-24.51 85.2,-19.59"/>
<polygon fill="midnightblue" stroke="midnightblue" points="145.73,-39.23 156.29,-38.41 147.52,-32.47 145.73,-39.23"/>
</g>
</g>
</svg>
