<?xml version="1.0" encoding="UTF-8" standalone="no"?>
<!DOCTYPE svg PUBLIC "-//W3C//DTD SVG 1.1//EN"
 "http://www.w3.org/Graphics/SVG/1.1/DTD/svg11.dtd">
<!-- Generated by graphviz version 2.43.0 (0)
 -->
<!-- Title: Game::startNew Pages: 1 -->
<svg width="956pt" height="666pt"
 viewBox="0.00 0.00 956.00 665.50" xmlns="http://www.w3.org/2000/svg" xmlns:xlink="http://www.w3.org/1999/xlink">
<g id="graph0" class="graph" transform="scale(1 1) rotate(0) translate(4 661.5)">
<title>Game::startNew</title>
<polygon fill="white" stroke="transparent" points="-4,4 -4,-661.5 952,-661.5 952,4 -4,4"/>
<!-- Node1 -->
<g id="node1" class="node">
<title>Node1</title>
<g id="a_node1"><a xlink:title="Starts the game with a new map.">
<polygon fill="#bfbfbf" stroke="black" points="0,-294.5 0,-313.5 96,-313.5 96,-294.5 0,-294.5"/>
<text text-anchor="middle" x="48" y="-301.5" font-family="Helvetica,sans-Serif" font-size="10.00">Game::startNew</text>
</a>
</g>
</g>
<!-- Node2 -->
<g id="node2" class="node">
<title>Node2</title>
<g id="a_node2"><a xlink:href="classWindow.html#a07c2b4d065cbcb397eafc1a27a337bb7" target="_top" xlink:title="Clears the current window.">
<polygon fill="white" stroke="black" points="499.5,-513.5 499.5,-532.5 639.5,-532.5 639.5,-513.5 499.5,-513.5"/>
<text text-anchor="middle" x="569.5" y="-520.5" font-family="Helvetica,sans-Serif" font-size="10.00">Window::clearCurrentWin</text>
</a>
</g>
</g>
<!-- Node1&#45;&gt;Node2 -->
<g id="edge1" class="edge">
<title>Node1&#45;&gt;Node2</title>
<path fill="none" stroke="midnightblue" d="M50.34,-313.76C56.91,-359.99 87.14,-556.32 132,-595 237.65,-686.07 312.94,-662.92 445,-618 490.16,-602.64 531.71,-563.36 553.19,-540.41"/>
<polygon fill="midnightblue" stroke="midnightblue" points="556.01,-542.51 560.16,-532.76 550.84,-537.79 556.01,-542.51"/>
</g>
<!-- Node3 -->
<g id="node3" class="node">
<title>Node3</title>
<g id="a_node3"><a xlink:href="classMap.html#a7ded655c7db0e9d72816430b4f2c83a5" target="_top" xlink:title="Clears the map.">
<polygon fill="white" stroke="black" points="332,-589.5 332,-608.5 421,-608.5 421,-589.5 332,-589.5"/>
<text text-anchor="middle" x="376.5" y="-596.5" font-family="Helvetica,sans-Serif" font-size="10.00">Map::clearMap</text>
</a>
</g>
</g>
<!-- Node1&#45;&gt;Node3 -->
<g id="edge2" class="edge">
<title>Node1&#45;&gt;Node3</title>
<path fill="none" stroke="midnightblue" d="M48.85,-313.75C48.85,-351.91 54.29,-492.28 132,-559 184.37,-603.96 267.27,-608.17 321.53,-605.12"/>
<polygon fill="midnightblue" stroke="midnightblue" points="321.9,-608.6 331.64,-604.45 321.43,-601.62 321.9,-608.6"/>
</g>
<!-- Node4 -->
<g id="node4" class="node">
<title>Node4</title>
<g id="a_node4"><a xlink:href="classGame.html#a66e2ecb02f046b0c17922a4255720e5a" target="_top" xlink:title="Ends the game on error.">
<polygon fill="white" stroke="black" points="153.5,-530.5 153.5,-549.5 250.5,-549.5 250.5,-530.5 153.5,-530.5"/>
<text text-anchor="middle" x="202" y="-537.5" font-family="Helvetica,sans-Serif" font-size="10.00">Game::endOnErr</text>
</a>
</g>
</g>
<!-- Node1&#45;&gt;Node4 -->
<g id="edge3" class="edge">
<title>Node1&#45;&gt;Node4</title>
<path fill="none" stroke="midnightblue" d="M51.51,-313.7C59.38,-342.7 85.83,-430.24 132,-488 143.83,-502.8 160.79,-515.66 174.93,-524.88"/>
<polygon fill="midnightblue" stroke="midnightblue" points="173.41,-528.06 183.74,-530.41 177.12,-522.13 173.41,-528.06"/>
</g>
<!-- Node5 -->
<g id="node5" class="node">
<title>Node5</title>
<g id="a_node5"><a xlink:href="classWindow.html#aba37c5e32e43d21a46968fd8ada1d327" target="_top" xlink:title="Prints the message to the current window.">
<polygon fill="white" stroke="black" points="313,-513.5 313,-532.5 440,-532.5 440,-513.5 313,-513.5"/>
<text text-anchor="middle" x="376.5" y="-520.5" font-family="Helvetica,sans-Serif" font-size="10.00">Window::printMessage</text>
</a>
</g>
</g>
<!-- Node1&#45;&gt;Node5 -->
<g id="edge44" class="edge">
<title>Node1&#45;&gt;Node5</title>
<path fill="none" stroke="midnightblue" d="M54.23,-313.79C65.82,-334.72 95.51,-384.36 132,-415 190.73,-464.31 275.53,-495.05 328,-510.59"/>
<polygon fill="midnightblue" stroke="midnightblue" points="327.14,-513.99 337.72,-513.41 329.09,-507.26 327.14,-513.99"/>
</g>
<!-- Node6 -->
<g id="node6" class="node">
<title>Node6</title>
<g id="a_node6"><a xlink:href="classConfig.html#a61ee9aeb497a96e3f7a49f8d8315b4f6" target="_top" xlink:title="Exports the config to a file.">
<polygon fill="white" stroke="black" points="144,-152.5 144,-171.5 260,-171.5 260,-152.5 144,-152.5"/>
<text text-anchor="middle" x="202" y="-159.5" font-family="Helvetica,sans-Serif" font-size="10.00">Config::exportConfig</text>
</a>
</g>
</g>
<!-- Node1&#45;&gt;Node6 -->
<g id="edge8" class="edge">
<title>Node1&#45;&gt;Node6</title>
<path fill="none" stroke="midnightblue" d="M52.74,-294.29C62.22,-270.98 89.53,-211.51 132,-181 134.72,-179.04 137.64,-177.29 140.68,-175.71"/>
<polygon fill="midnightblue" stroke="midnightblue" points="142.39,-178.78 150.09,-171.51 139.54,-172.39 142.39,-178.78"/>
</g>
<!-- Node7 -->
<g id="node7" class="node">
<title>Node7</title>
<g id="a_node7"><a xlink:href="Helpers_8cpp.html#aff67a1d7716f148acfbd9ac7731d8237" target="_top" xlink:title=" ">
<polygon fill="white" stroke="black" points="132,-114.5 132,-133.5 272,-133.5 272,-114.5 132,-114.5"/>
<text text-anchor="middle" x="202" y="-121.5" font-family="Helvetica,sans-Serif" font-size="10.00">generateRandomNumber</text>
</a>
</g>
</g>
<!-- Node1&#45;&gt;Node7 -->
<g id="edge9" class="edge">
<title>Node1&#45;&gt;Node7</title>
<path fill="none" stroke="midnightblue" d="M51.11,-294.3C57.72,-266.29 80.72,-184.61 132,-143 134.26,-141.16 136.69,-139.51 139.23,-138.01"/>
<polygon fill="midnightblue" stroke="midnightblue" points="140.86,-141.11 148.24,-133.5 137.73,-134.84 140.86,-141.11"/>
</g>
<!-- Node8 -->
<g id="node8" class="node">
<title>Node8</title>
<g id="a_node8"><a xlink:href="classConfig.html#a683f3adeacbde8622e8c46cc2f9dee25" target="_top" xlink:title="Gets the map file path.">
<polygon fill="white" stroke="black" points="331.5,-475.5 331.5,-494.5 421.5,-494.5 421.5,-475.5 331.5,-475.5"/>
<text text-anchor="middle" x="376.5" y="-482.5" font-family="Helvetica,sans-Serif" font-size="10.00">Config::getPath</text>
</a>
</g>
</g>
<!-- Node1&#45;&gt;Node8 -->
<g id="edge10" class="edge">
<title>Node1&#45;&gt;Node8</title>
<path fill="none" stroke="midnightblue" d="M62.48,-313.54C99.97,-339.76 209.2,-414.09 308,-461 316.5,-465.04 325.87,-468.78 334.85,-472.06"/>
<polygon fill="midnightblue" stroke="midnightblue" points="333.79,-475.39 344.39,-475.42 336.12,-468.79 333.79,-475.39"/>
</g>
<!-- Node9 -->
<g id="node9" class="node">
<title>Node9</title>
<g id="a_node9"><a xlink:href="classConfig.html#a62c7c2d485cb30374271dba0eafe63c8" target="_top" xlink:title="Gets any value from the config map.">
<polygon fill="white" stroke="black" points="521.5,-285.5 521.5,-304.5 617.5,-304.5 617.5,-285.5 521.5,-285.5"/>
<text text-anchor="middle" x="569.5" y="-292.5" font-family="Helvetica,sans-Serif" font-size="10.00">Config::getValue</text>
</a>
</g>
</g>
<!-- Node1&#45;&gt;Node9 -->
<g id="edge11" class="edge">
<title>Node1&#45;&gt;Node9</title>
<path fill="none" stroke="midnightblue" d="M96.26,-302.45C148.17,-300.81 234.02,-298.28 308,-297 377.95,-295.79 458.48,-295.31 511.26,-295.12"/>
<polygon fill="midnightblue" stroke="midnightblue" points="511.45,-298.62 521.44,-295.09 511.42,-291.62 511.45,-298.62"/>
</g>
<!-- Node10 -->
<g id="node10" class="node">
<title>Node10</title>
<g id="a_node10"><a xlink:href="classGame.html#a4c2a7ead717a4c13f1ffddafd11e17c8" target="_top" xlink:title="Initializes the game, loading config, and the map.">
<polygon fill="white" stroke="black" points="140.5,-323.5 140.5,-342.5 263.5,-342.5 263.5,-323.5 140.5,-323.5"/>
<text text-anchor="middle" x="202" y="-330.5" font-family="Helvetica,sans-Serif" font-size="10.00">Game::initializeGame</text>
</a>
</g>
</g>
<!-- Node1&#45;&gt;Node10 -->
<g id="edge12" class="edge">
<title>Node1&#45;&gt;Node10</title>
<path fill="none" stroke="midnightblue" d="M96.26,-313.02C110.42,-315.72 126.15,-318.72 141.01,-321.55"/>
<polygon fill="midnightblue" stroke="midnightblue" points="140.66,-325.05 151.14,-323.49 141.97,-318.17 140.66,-325.05"/>
</g>
<!-- Node31 -->
<g id="node31" class="node">
<title>Node31</title>
<g id="a_node31"><a xlink:href="classGamePhase.html#af152a5e182080af728f34e66b29079c5" target="_top" xlink:title="Sets the current game phase.">
<polygon fill="white" stroke="black" points="314,-133.5 314,-152.5 439,-152.5 439,-133.5 314,-133.5"/>
<text text-anchor="middle" x="376.5" y="-140.5" font-family="Helvetica,sans-Serif" font-size="10.00">GamePhase::setPhase</text>
</a>
</g>
</g>
<!-- Node1&#45;&gt;Node31 -->
<g id="edge46" class="edge">
<title>Node1&#45;&gt;Node31</title>
<path fill="none" stroke="midnightblue" d="M65.77,-294.44C82.26,-285.3 108.33,-271.54 132,-262 192.37,-237.66 220.29,-258.53 272,-219 295.8,-200.8 283.98,-179.92 308,-162 310.51,-160.13 313.19,-158.45 315.98,-156.93"/>
<polygon fill="midnightblue" stroke="midnightblue" points="317.65,-160.01 325.24,-152.62 314.69,-153.67 317.65,-160.01"/>
</g>
<!-- Node33 -->
<g id="node33" class="node">
<title>Node33</title>
<g id="a_node33"><a xlink:href="classMap.html#ab5b009bf7edded05f4461b62de5eff49" target="_top" xlink:title="Loads the map from a string.">
<polygon fill="white" stroke="black" points="143,-190.5 143,-209.5 261,-209.5 261,-190.5 143,-190.5"/>
<text text-anchor="middle" x="202" y="-197.5" font-family="Helvetica,sans-Serif" font-size="10.00">Map::loadFromString</text>
</a>
</g>
</g>
<!-- Node1&#45;&gt;Node33 -->
<g id="edge42" class="edge">
<title>Node1&#45;&gt;Node33</title>
<path fill="none" stroke="midnightblue" d="M56.46,-294.5C69.89,-277.97 99.77,-243.8 132,-224 138.99,-219.71 146.86,-216.05 154.71,-212.98"/>
<polygon fill="midnightblue" stroke="midnightblue" points="156.01,-216.23 164.21,-209.53 153.62,-209.65 156.01,-216.23"/>
</g>
<!-- Node34 -->
<g id="node34" class="node">
<title>Node34</title>
<g id="a_node34"><a xlink:href="classMap.html#a273496375c910340e3d76d777052b274" target="_top" xlink:title="Saves the map to a file.">
<polygon fill="white" stroke="black" points="158,-76.5 158,-95.5 246,-95.5 246,-76.5 158,-76.5"/>
<text text-anchor="middle" x="202" y="-83.5" font-family="Helvetica,sans-Serif" font-size="10.00">Map::saveMap</text>
</a>
</g>
</g>
<!-- Node1&#45;&gt;Node34 -->
<g id="edge45" class="edge">
<title>Node1&#45;&gt;Node34</title>
<path fill="none" stroke="midnightblue" d="M50.06,-294.42C54.11,-262.4 71.61,-158.2 132,-105 136.77,-100.8 142.39,-97.51 148.34,-94.95"/>
<polygon fill="midnightblue" stroke="midnightblue" points="149.66,-98.2 157.86,-91.49 147.27,-91.62 149.66,-98.2"/>
</g>
<!-- Node4&#45;&gt;Node2 -->
<g id="edge4" class="edge">
<title>Node4&#45;&gt;Node2</title>
<path fill="none" stroke="midnightblue" d="M250.56,-541.1C268.56,-541.46 289.22,-541.82 308,-542 368.89,-542.58 384.29,-546.64 445,-542 465.72,-540.42 488.24,-537.36 508.29,-534.15"/>
<polygon fill="midnightblue" stroke="midnightblue" points="508.93,-537.59 518.23,-532.51 507.79,-530.68 508.93,-537.59"/>
</g>
<!-- Node4&#45;&gt;Node3 -->
<g id="edge5" class="edge">
<title>Node4&#45;&gt;Node3</title>
<path fill="none" stroke="midnightblue" d="M231.1,-549.61C260.26,-559.58 306.01,-575.23 338.18,-586.24"/>
<polygon fill="midnightblue" stroke="midnightblue" points="337.1,-589.57 347.7,-589.49 339.37,-582.94 337.1,-589.57"/>
</g>
<!-- Node4&#45;&gt;Node5 -->
<g id="edge6" class="edge">
<title>Node4&#45;&gt;Node5</title>
<path fill="none" stroke="midnightblue" d="M250.59,-535.31C266.68,-533.72 285.03,-531.92 302.63,-530.18"/>
<polygon fill="midnightblue" stroke="midnightblue" points="303.26,-533.64 312.87,-529.17 302.58,-526.67 303.26,-533.64"/>
</g>
<!-- Node5&#45;&gt;Node2 -->
<g id="edge7" class="edge">
<title>Node5&#45;&gt;Node2</title>
<path fill="none" stroke="midnightblue" d="M440.04,-523C455.72,-523 472.74,-523 489.12,-523"/>
<polygon fill="midnightblue" stroke="midnightblue" points="489.22,-526.5 499.22,-523 489.22,-519.5 489.22,-526.5"/>
</g>
<!-- Node10&#45;&gt;Node2 -->
<g id="edge13" class="edge">
<title>Node10&#45;&gt;Node2</title>
<path fill="none" stroke="midnightblue" d="M248.77,-342.61C257.14,-345.86 265.32,-350.21 272,-356 299.03,-379.44 280.38,-405.26 308,-428 356.78,-468.17 385.68,-444.24 445,-466 478.86,-478.42 516.28,-496.31 540.95,-508.72"/>
<polygon fill="midnightblue" stroke="midnightblue" points="539.57,-511.94 550.07,-513.35 542.74,-505.7 539.57,-511.94"/>
</g>
<!-- Node10&#45;&gt;Node5 -->
<g id="edge39" class="edge">
<title>Node10&#45;&gt;Node5</title>
<path fill="none" stroke="midnightblue" d="M207.69,-342.56C223.87,-375.17 277.99,-481.31 308,-504 310.49,-505.88 313.17,-507.58 315.95,-509.11"/>
<polygon fill="midnightblue" stroke="midnightblue" points="314.65,-512.37 325.19,-513.45 317.63,-506.03 314.65,-512.37"/>
</g>
<!-- Node10&#45;&gt;Node8 -->
<g id="edge24" class="edge">
<title>Node10&#45;&gt;Node8</title>
<path fill="none" stroke="midnightblue" d="M236.5,-342.51C249.02,-347.49 262.48,-354.74 272,-365 302.98,-398.41 275.5,-429.06 308,-461 312.05,-464.98 316.8,-468.3 321.87,-471.07"/>
<polygon fill="midnightblue" stroke="midnightblue" points="320.72,-474.4 331.26,-475.5 323.71,-468.07 320.72,-474.4"/>
</g>
<!-- Node10&#45;&gt;Node9 -->
<g id="edge25" class="edge">
<title>Node10&#45;&gt;Node9</title>
<path fill="none" stroke="midnightblue" d="M249.62,-323.47C267.77,-320.04 288.79,-316.43 308,-314 377.59,-305.19 458.19,-300.09 511.09,-297.43"/>
<polygon fill="midnightblue" stroke="midnightblue" points="511.47,-300.92 521.29,-296.93 511.13,-293.93 511.47,-300.92"/>
</g>
<!-- Node11 -->
<g id="node11" class="node">
<title>Node11</title>
<g id="a_node11"><a xlink:href="classGame.html#a6d54497ce3a66f6dd45eacfdccc8d0bd" target="_top" xlink:title="Draws the game.">
<polygon fill="white" stroke="black" points="338.5,-209.5 338.5,-228.5 414.5,-228.5 414.5,-209.5 338.5,-209.5"/>
<text text-anchor="middle" x="376.5" y="-216.5" font-family="Helvetica,sans-Serif" font-size="10.00">Game::draw</text>
</a>
</g>
</g>
<!-- Node10&#45;&gt;Node11 -->
<g id="edge14" class="edge">
<title>Node10&#45;&gt;Node11</title>
<path fill="none" stroke="midnightblue" d="M217.41,-323.48C247.27,-303.74 316.12,-258.24 352.31,-234.32"/>
<polygon fill="midnightblue" stroke="midnightblue" points="354.35,-237.17 360.76,-228.74 350.49,-231.33 354.35,-237.17"/>
</g>
<!-- Node18 -->
<g id="node18" class="node">
<title>Node18</title>
<g id="a_node18"><a xlink:href="classWindow.html#a2238e5489102fe2a77e7898a07dc37b5" target="_top" xlink:title="Gets text input from the user.">
<polygon fill="white" stroke="black" points="326,-399.5 326,-418.5 427,-418.5 427,-399.5 326,-399.5"/>
<text text-anchor="middle" x="376.5" y="-406.5" font-family="Helvetica,sans-Serif" font-size="10.00">Window::getInput</text>
</a>
</g>
</g>
<!-- Node10&#45;&gt;Node18 -->
<g id="edge22" class="edge">
<title>Node10&#45;&gt;Node18</title>
<path fill="none" stroke="midnightblue" d="M226.19,-342.56C239.82,-348.47 257.22,-356.53 272,-365 288.9,-374.69 290.38,-381.69 308,-390 312.95,-392.34 318.25,-394.44 323.62,-396.32"/>
<polygon fill="midnightblue" stroke="midnightblue" points="322.71,-399.7 333.3,-399.46 324.87,-393.04 322.71,-399.7"/>
</g>
<!-- Node19 -->
<g id="node19" class="node">
<title>Node19</title>
<g id="a_node19"><a xlink:href="classMap.html#a2657d897204aaedba0e8e4f01b2e1efc" target="_top" xlink:title="Loads the map from a file.">
<polygon fill="white" stroke="black" points="333.5,-171.5 333.5,-190.5 419.5,-190.5 419.5,-171.5 333.5,-171.5"/>
<text text-anchor="middle" x="376.5" y="-178.5" font-family="Helvetica,sans-Serif" font-size="10.00">Map::loadMap</text>
</a>
</g>
</g>
<!-- Node10&#45;&gt;Node19 -->
<g id="edge26" class="edge">
<title>Node10&#45;&gt;Node19</title>
<path fill="none" stroke="midnightblue" d="M211.83,-323.29C225.28,-308.35 251.5,-278.65 272,-252 289.14,-229.72 285.12,-216.33 308,-200 312.82,-196.56 318.26,-193.74 323.89,-191.43"/>
<polygon fill="midnightblue" stroke="midnightblue" points="325.24,-194.66 333.49,-188 322.89,-188.07 325.24,-194.66"/>
</g>
<!-- Node25 -->
<g id="node25" class="node">
<title>Node25</title>
<g id="a_node25"><a xlink:href="classGame.html#a1290bdc979d75815efe4d21e83a806cb" target="_top" xlink:title="Loads the object from the map.">
<polygon fill="white" stroke="black" points="321.5,-323.5 321.5,-342.5 431.5,-342.5 431.5,-323.5 321.5,-323.5"/>
<text text-anchor="middle" x="376.5" y="-330.5" font-family="Helvetica,sans-Serif" font-size="10.00">Game::loadObjects</text>
</a>
</g>
</g>
<!-- Node10&#45;&gt;Node25 -->
<g id="edge32" class="edge">
<title>Node10&#45;&gt;Node25</title>
<path fill="none" stroke="midnightblue" d="M263.82,-333C279.17,-333 295.71,-333 311.23,-333"/>
<polygon fill="midnightblue" stroke="midnightblue" points="311.26,-336.5 321.26,-333 311.26,-329.5 311.26,-336.5"/>
</g>
<!-- Node28 -->
<g id="node28" class="node">
<title>Node28</title>
<g id="a_node28"><a xlink:href="classLeaderboard.html#a43ac1b937341b8e5b3bd8b33200034d1" target="_top" xlink:title="Loads the scores from a file.">
<polygon fill="white" stroke="black" points="308,-361.5 308,-380.5 445,-380.5 445,-361.5 308,-361.5"/>
<text text-anchor="middle" x="376.5" y="-368.5" font-family="Helvetica,sans-Serif" font-size="10.00">Leaderboard::loadScores</text>
</a>
</g>
</g>
<!-- Node10&#45;&gt;Node28 -->
<g id="edge36" class="edge">
<title>Node10&#45;&gt;Node28</title>
<path fill="none" stroke="midnightblue" d="M246.53,-342.59C269.6,-347.67 298.13,-353.96 322.48,-359.32"/>
<polygon fill="midnightblue" stroke="midnightblue" points="321.77,-362.75 332.28,-361.48 323.27,-355.91 321.77,-362.75"/>
</g>
<!-- Node10&#45;&gt;Node31 -->
<g id="edge40" class="edge">
<title>Node10&#45;&gt;Node31</title>
<path fill="none" stroke="midnightblue" d="M213.09,-323.35C227.69,-308.95 254.82,-280.47 272,-252 294.26,-215.12 275.96,-190.8 308,-162 309.77,-160.41 311.65,-158.96 313.64,-157.62"/>
<polygon fill="midnightblue" stroke="midnightblue" points="315.79,-160.43 322.84,-152.51 312.39,-154.31 315.79,-160.43"/>
</g>
<!-- Node12 -->
<g id="node12" class="node">
<title>Node12</title>
<g id="a_node12"><a xlink:href="classGamePhase.html#a337c0a04d2c1d159ff9a98e99e11116a" target="_top" xlink:title="Returns the current level.">
<polygon fill="white" stroke="black" points="508,-247.5 508,-266.5 631,-266.5 631,-247.5 508,-247.5"/>
<text text-anchor="middle" x="569.5" y="-254.5" font-family="Helvetica,sans-Serif" font-size="10.00">GamePhase::getLevel</text>
</a>
</g>
</g>
<!-- Node11&#45;&gt;Node12 -->
<g id="edge15" class="edge">
<title>Node11&#45;&gt;Node12</title>
<path fill="none" stroke="midnightblue" d="M414.78,-226.42C442.01,-231.84 479.46,-239.29 510.58,-245.48"/>
<polygon fill="midnightblue" stroke="midnightblue" points="509.94,-248.92 520.44,-247.44 511.31,-242.05 509.94,-248.92"/>
</g>
<!-- Node13 -->
<g id="node13" class="node">
<title>Node13</title>
<g id="a_node13"><a xlink:href="classGamePhase.html#a1e01dd9cbefce12ad832102c3a9ed3a2" target="_top" xlink:title="Returns the number of remaining items.">
<polygon fill="white" stroke="black" points="481,-209.5 481,-228.5 658,-228.5 658,-209.5 481,-209.5"/>
<text text-anchor="middle" x="569.5" y="-216.5" font-family="Helvetica,sans-Serif" font-size="10.00">GamePhase::getRemainingItems</text>
</a>
</g>
</g>
<!-- Node11&#45;&gt;Node13 -->
<g id="edge16" class="edge">
<title>Node11&#45;&gt;Node13</title>
<path fill="none" stroke="midnightblue" d="M414.78,-219C430.94,-219 450.7,-219 470.59,-219"/>
<polygon fill="midnightblue" stroke="midnightblue" points="470.67,-222.5 480.67,-219 470.67,-215.5 470.67,-222.5"/>
</g>
<!-- Node14 -->
<g id="node14" class="node">
<title>Node14</title>
<g id="a_node14"><a xlink:href="classWindow.html#aaa279ff498c917ba2535b26e5f396c7c" target="_top" xlink:title="Prints character at given position, default color.">
<polygon fill="white" stroke="black" points="511.5,-171.5 511.5,-190.5 627.5,-190.5 627.5,-171.5 511.5,-171.5"/>
<text text-anchor="middle" x="569.5" y="-178.5" font-family="Helvetica,sans-Serif" font-size="10.00">Window::printCharAt</text>
</a>
</g>
</g>
<!-- Node11&#45;&gt;Node14 -->
<g id="edge17" class="edge">
<title>Node11&#45;&gt;Node14</title>
<path fill="none" stroke="midnightblue" d="M414.78,-211.58C442.01,-206.16 479.46,-198.71 510.58,-192.52"/>
<polygon fill="midnightblue" stroke="midnightblue" points="511.31,-195.95 520.44,-190.56 509.94,-189.08 511.31,-195.95"/>
</g>
<!-- Node15 -->
<g id="node15" class="node">
<title>Node15</title>
<g id="a_node15"><a xlink:href="classWindow.html#a7f8803b32163553cf314fa01b703c9a8" target="_top" xlink:title="Prints the game UI.">
<polygon fill="white" stroke="black" points="522.5,-133.5 522.5,-152.5 616.5,-152.5 616.5,-133.5 522.5,-133.5"/>
<text text-anchor="middle" x="569.5" y="-140.5" font-family="Helvetica,sans-Serif" font-size="10.00">Window::printUI</text>
</a>
</g>
</g>
<!-- Node11&#45;&gt;Node15 -->
<g id="edge18" class="edge">
<title>Node11&#45;&gt;Node15</title>
<path fill="none" stroke="midnightblue" d="M414.71,-212.35C424.99,-209.52 435.83,-205.54 445,-200 464.91,-187.97 460.73,-173.42 481,-162 490.54,-156.62 501.45,-152.77 512.26,-150"/>
<polygon fill="midnightblue" stroke="midnightblue" points="513.15,-153.39 522.12,-147.76 511.59,-146.57 513.15,-153.39"/>
</g>
<!-- Node17 -->
<g id="node17" class="node">
<title>Node17</title>
<g id="a_node17"><a xlink:href="classWindow.html#a3c38bfdaf7cb6ebcfdbcb40916a72bf7" target="_top" xlink:title="Refreshes the current window.">
<polygon fill="white" stroke="black" points="695.5,-114.5 695.5,-133.5 809.5,-133.5 809.5,-114.5 695.5,-114.5"/>
<text text-anchor="middle" x="752.5" y="-121.5" font-family="Helvetica,sans-Serif" font-size="10.00">Window::refreshWin</text>
</a>
</g>
</g>
<!-- Node11&#45;&gt;Node17 -->
<g id="edge21" class="edge">
<title>Node11&#45;&gt;Node17</title>
<path fill="none" stroke="midnightblue" d="M414.58,-214.5C425.32,-211.71 436.44,-207.23 445,-200 473.55,-175.88 449.42,-143.99 481,-124 551.98,-79.08 655.83,-96.93 711.96,-111.77"/>
<polygon fill="midnightblue" stroke="midnightblue" points="711.3,-115.21 721.87,-114.49 713.15,-108.46 711.3,-115.21"/>
</g>
<!-- Node16 -->
<g id="node16" class="node">
<title>Node16</title>
<g id="a_node16"><a xlink:href="classWindow.html#aad6d9b11314512a7fbc775a3fef9ca1c" target="_top" xlink:title="Helper function for printing lives.">
<polygon fill="white" stroke="black" points="698,-152.5 698,-171.5 807,-171.5 807,-152.5 698,-152.5"/>
<text text-anchor="middle" x="752.5" y="-159.5" font-family="Helvetica,sans-Serif" font-size="10.00">Window::printLives</text>
</a>
</g>
</g>
<!-- Node15&#45;&gt;Node16 -->
<g id="edge19" class="edge">
<title>Node15&#45;&gt;Node16</title>
<path fill="none" stroke="midnightblue" d="M616.64,-147.84C638.17,-150.1 664.16,-152.83 687.54,-155.29"/>
<polygon fill="midnightblue" stroke="midnightblue" points="687.42,-158.79 697.73,-156.36 688.15,-151.83 687.42,-158.79"/>
</g>
<!-- Node15&#45;&gt;Node17 -->
<g id="edge20" class="edge">
<title>Node15&#45;&gt;Node17</title>
<path fill="none" stroke="midnightblue" d="M616.64,-138.16C637.54,-135.96 662.62,-133.33 685.46,-130.93"/>
<polygon fill="midnightblue" stroke="midnightblue" points="685.85,-134.41 695.43,-129.89 685.12,-127.45 685.85,-134.41"/>
</g>
<!-- Node18&#45;&gt;Node2 -->
<g id="edge23" class="edge">
<title>Node18&#45;&gt;Node2</title>
<path fill="none" stroke="midnightblue" d="M412.69,-418.54C423.47,-422.24 435.09,-427.04 445,-433 463.6,-444.19 463.85,-452.7 481,-466 501.13,-481.61 525.52,-497.26 543.43,-508.2"/>
<polygon fill="midnightblue" stroke="midnightblue" points="541.78,-511.29 552.15,-513.46 545.4,-505.3 541.78,-511.29"/>
</g>
<!-- Node20 -->
<g id="node20" class="node">
<title>Node20</title>
<g id="a_node20"><a xlink:href="classMap.html#ab1c2595a555457c0a764a0530b57c0f9" target="_top" xlink:title="Helper function for validating map string.">
<polygon fill="white" stroke="black" points="518.5,-57.5 518.5,-76.5 620.5,-76.5 620.5,-57.5 518.5,-57.5"/>
<text text-anchor="middle" x="569.5" y="-64.5" font-family="Helvetica,sans-Serif" font-size="10.00">Map::processMap</text>
</a>
</g>
</g>
<!-- Node19&#45;&gt;Node20 -->
<g id="edge27" class="edge">
<title>Node19&#45;&gt;Node20</title>
<path fill="none" stroke="midnightblue" d="M419.73,-174.85C428.77,-172.04 437.76,-167.95 445,-162 472.33,-139.54 453.59,-113.37 481,-91 489.05,-84.43 498.75,-79.66 508.73,-76.18"/>
<polygon fill="midnightblue" stroke="midnightblue" points="509.79,-79.52 518.33,-73.24 507.74,-72.82 509.79,-79.52"/>
</g>
<!-- Node21 -->
<g id="node21" class="node">
<title>Node21</title>
<g id="a_node21"><a xlink:href="classMap.html#a41b623a0d503b94bf8412ca06296ae1f" target="_top" xlink:title="Helper function for finding crossroads.">
<polygon fill="white" stroke="black" points="694.5,-76.5 694.5,-95.5 810.5,-95.5 810.5,-76.5 694.5,-76.5"/>
<text text-anchor="middle" x="752.5" y="-83.5" font-family="Helvetica,sans-Serif" font-size="10.00">Map::findCrossroads</text>
</a>
</g>
</g>
<!-- Node20&#45;&gt;Node21 -->
<g id="edge28" class="edge">
<title>Node20&#45;&gt;Node21</title>
<path fill="none" stroke="midnightblue" d="M620.92,-72.29C640.52,-74.35 663.25,-76.74 684.21,-78.94"/>
<polygon fill="midnightblue" stroke="midnightblue" points="684.02,-82.44 694.34,-80 684.76,-75.47 684.02,-82.44"/>
</g>
<!-- Node23 -->
<g id="node23" class="node">
<title>Node23</title>
<g id="a_node23"><a xlink:href="classMap.html#ae96ad32d3b1600cd41e4a1c3b6a30906" target="_top" xlink:title="Checks if the map is traversable from the given position.">
<polygon fill="white" stroke="black" points="694,-38.5 694,-57.5 811,-57.5 811,-38.5 694,-38.5"/>
<text text-anchor="middle" x="752.5" y="-45.5" font-family="Helvetica,sans-Serif" font-size="10.00">Map::traversableBFS</text>
</a>
</g>
</g>
<!-- Node20&#45;&gt;Node23 -->
<g id="edge30" class="edge">
<title>Node20&#45;&gt;Node23</title>
<path fill="none" stroke="midnightblue" d="M620.92,-61.71C640.34,-59.67 662.84,-57.31 683.63,-55.12"/>
<polygon fill="midnightblue" stroke="midnightblue" points="684.11,-58.59 693.69,-54.07 683.38,-51.63 684.11,-58.59"/>
</g>
<!-- Node24 -->
<g id="node24" class="node">
<title>Node24</title>
<g id="a_node24"><a xlink:href="classMap.html#ad35b3432f383ea258d0ed06fe937c3b9" target="_top" xlink:title="Helper function for validating the map borders.">
<polygon fill="white" stroke="black" points="694.5,-0.5 694.5,-19.5 810.5,-19.5 810.5,-0.5 694.5,-0.5"/>
<text text-anchor="middle" x="752.5" y="-7.5" font-family="Helvetica,sans-Serif" font-size="10.00">Map::validateBorder</text>
</a>
</g>
</g>
<!-- Node20&#45;&gt;Node24 -->
<g id="edge31" class="edge">
<title>Node20&#45;&gt;Node24</title>
<path fill="none" stroke="midnightblue" d="M620.68,-58.55C633.07,-55.8 646.17,-52.31 658,-48 675,-41.8 677.35,-36.08 694,-29 699.08,-26.84 704.49,-24.76 709.89,-22.83"/>
<polygon fill="midnightblue" stroke="midnightblue" points="711.2,-26.08 719.51,-19.52 708.92,-19.47 711.2,-26.08"/>
</g>
<!-- Node22 -->
<g id="node22" class="node">
<title>Node22</title>
<g id="a_node22"><a xlink:href="classMap.html#a7d8219ae1c1ff2f45f7e11c5d03dcdb7" target="_top" xlink:title="Checks if given coordinates are a crossroad.">
<polygon fill="white" stroke="black" points="847,-76.5 847,-95.5 948,-95.5 948,-76.5 847,-76.5"/>
<text text-anchor="middle" x="897.5" y="-83.5" font-family="Helvetica,sans-Serif" font-size="10.00">Map::isCrossroad</text>
</a>
</g>
</g>
<!-- Node21&#45;&gt;Node22 -->
<g id="edge29" class="edge">
<title>Node21&#45;&gt;Node22</title>
<path fill="none" stroke="midnightblue" d="M810.84,-86C819.44,-86 828.33,-86 836.97,-86"/>
<polygon fill="midnightblue" stroke="midnightblue" points="836.98,-89.5 846.98,-86 836.98,-82.5 836.98,-89.5"/>
</g>
<!-- Node25&#45;&gt;Node9 -->
<g id="edge35" class="edge">
<title>Node25&#45;&gt;Node9</title>
<path fill="none" stroke="midnightblue" d="M425.7,-323.41C451.78,-318.22 484.16,-311.78 511.49,-306.34"/>
<polygon fill="midnightblue" stroke="midnightblue" points="512.18,-309.77 521.31,-304.39 510.82,-302.91 512.18,-309.77"/>
</g>
<!-- Node26 -->
<g id="node26" class="node">
<title>Node26</title>
<g id="a_node26"><a xlink:href="classGamePhase.html#a2597fc4aa3837ecc9146f29b18840855" target="_top" xlink:title="Adds an item to the remaining items.">
<polygon fill="white" stroke="black" points="508.5,-361.5 508.5,-380.5 630.5,-380.5 630.5,-361.5 508.5,-361.5"/>
<text text-anchor="middle" x="569.5" y="-368.5" font-family="Helvetica,sans-Serif" font-size="10.00">GamePhase::addItem</text>
</a>
</g>
</g>
<!-- Node25&#45;&gt;Node26 -->
<g id="edge33" class="edge">
<title>Node25&#45;&gt;Node26</title>
<path fill="none" stroke="midnightblue" d="M425.7,-342.59C451.47,-347.72 483.39,-354.07 510.51,-359.46"/>
<polygon fill="midnightblue" stroke="midnightblue" points="510.16,-362.96 520.65,-361.48 511.52,-356.1 510.16,-362.96"/>
</g>
<!-- Node27 -->
<g id="node27" class="node">
<title>Node27</title>
<g id="a_node27"><a xlink:href="classMap.html#ad1c83970b8e220d3ba55b755e84453d7" target="_top" xlink:title="Gets the map.">
<polygon fill="white" stroke="black" points="529.5,-323.5 529.5,-342.5 609.5,-342.5 609.5,-323.5 529.5,-323.5"/>
<text text-anchor="middle" x="569.5" y="-330.5" font-family="Helvetica,sans-Serif" font-size="10.00">Map::getMap</text>
</a>
</g>
</g>
<!-- Node25&#45;&gt;Node27 -->
<g id="edge34" class="edge">
<title>Node25&#45;&gt;Node27</title>
<path fill="none" stroke="midnightblue" d="M431.72,-333C459.18,-333 492.27,-333 519.03,-333"/>
<polygon fill="midnightblue" stroke="midnightblue" points="519.32,-336.5 529.32,-333 519.32,-329.5 519.32,-336.5"/>
</g>
<!-- Node29 -->
<g id="node29" class="node">
<title>Node29</title>
<g id="a_node29"><a xlink:href="classLeaderboard.html#aaf22ea54d8b0e7e5d2bf5c3b9dcbdee2" target="_top" xlink:title="Creates a save file.">
<polygon fill="white" stroke="black" points="500.5,-399.5 500.5,-418.5 638.5,-418.5 638.5,-399.5 500.5,-399.5"/>
<text text-anchor="middle" x="569.5" y="-406.5" font-family="Helvetica,sans-Serif" font-size="10.00">Leaderboard::createSave</text>
</a>
</g>
</g>
<!-- Node28&#45;&gt;Node29 -->
<g id="edge37" class="edge">
<title>Node28&#45;&gt;Node29</title>
<path fill="none" stroke="midnightblue" d="M425.7,-380.59C451.47,-385.72 483.39,-392.07 510.51,-397.46"/>
<polygon fill="midnightblue" stroke="midnightblue" points="510.16,-400.96 520.65,-399.48 511.52,-394.1 510.16,-400.96"/>
</g>
<!-- Node30 -->
<g id="node30" class="node">
<title>Node30</title>
<g id="a_node30"><a xlink:href="classLeaderboard.html#a9d9d83737bf8412fa71cb1c238c059f6" target="_top" xlink:title="Reads a value from binary save file.">
<polygon fill="white" stroke="black" points="517,-437.5 517,-456.5 622,-456.5 622,-437.5 517,-437.5"/>
<text text-anchor="middle" x="569.5" y="-444.5" font-family="Helvetica,sans-Serif" font-size="10.00">Leaderboard::read</text>
</a>
</g>
</g>
<!-- Node28&#45;&gt;Node30 -->
<g id="edge38" class="edge">
<title>Node28&#45;&gt;Node30</title>
<path fill="none" stroke="midnightblue" d="M424.26,-380.59C431.48,-383.07 438.64,-386.16 445,-390 464.91,-402.03 460.73,-416.58 481,-428 488.96,-432.48 497.87,-435.91 506.88,-438.53"/>
<polygon fill="midnightblue" stroke="midnightblue" points="506.1,-441.94 516.66,-441.06 507.86,-435.16 506.1,-441.94"/>
</g>
<!-- Node32 -->
<g id="node32" class="node">
<title>Node32</title>
<g id="a_node32"><a xlink:href="classGamePhase.html#a097fcd119e1cce98533b731f7e6ae53d" target="_top" xlink:title="Sets the time of the current phase.">
<polygon fill="white" stroke="black" points="494.5,-19.5 494.5,-38.5 644.5,-38.5 644.5,-19.5 494.5,-19.5"/>
<text text-anchor="middle" x="569.5" y="-26.5" font-family="Helvetica,sans-Serif" font-size="10.00">GamePhase::setPhaseTime</text>
</a>
</g>
</g>
<!-- Node31&#45;&gt;Node32 -->
<g id="edge41" class="edge">
<title>Node31&#45;&gt;Node32</title>
<path fill="none" stroke="midnightblue" d="M384.9,-133.42C400.44,-114 438.56,-70 481,-48 485.54,-45.65 490.36,-43.58 495.31,-41.78"/>
<polygon fill="midnightblue" stroke="midnightblue" points="496.55,-45.05 504.96,-38.6 494.36,-38.4 496.55,-45.05"/>
</g>
<!-- Node33&#45;&gt;Node20 -->
<g id="edge43" class="edge">
<title>Node33&#45;&gt;Node20</title>
<path fill="none" stroke="midnightblue" d="M254.73,-190.37C260.88,-187.92 266.81,-184.85 272,-181 296.07,-163.15 283.47,-141.2 308,-124 367.42,-82.34 451.73,-70.33 508.18,-67.28"/>
<polygon fill="midnightblue" stroke="midnightblue" points="508.56,-70.76 518.39,-66.8 508.24,-63.77 508.56,-70.76"/>
</g>
</g>
</svg>
