<?xml version="1.0" encoding="UTF-8" standalone="no"?>
<!DOCTYPE svg PUBLIC "-//W3C//DTD SVG 1.1//EN"
 "http://www.w3.org/Graphics/SVG/1.1/DTD/svg11.dtd">
<!-- Generated by graphviz version 2.43.0 (0)
 -->
<!-- Title: GamePhase::setPhaseTime Pages: 1 -->
<svg width="630pt" height="367pt"
 viewBox="0.00 0.00 630.00 367.18" xmlns="http://www.w3.org/2000/svg" xmlns:xlink="http://www.w3.org/1999/xlink">
<g id="graph0" class="graph" transform="scale(1 1) rotate(0) translate(4 363.18)">
<title>GamePhase::setPhaseTime</title>
<polygon fill="white" stroke="transparent" points="-4,4 -4,-363.18 626,-363.18 626,4 -4,4"/>
<!-- Node1 -->
<g id="node1" class="node">
<title>Node1</title>
<g id="a_node1"><a xlink:title="Sets the time of the current phase.">
<polygon fill="#bfbfbf" stroke="black" points="472,-76.5 472,-95.5 622,-95.5 622,-76.5 472,-76.5"/>
<text text-anchor="middle" x="547" y="-83.5" font-family="Helvetica,sans-Serif" font-size="10.00">GamePhase::setPhaseTime</text>
</a>
</g>
</g>
<!-- Node2 -->
<g id="node2" class="node">
<title>Node2</title>
<g id="a_node2"><a xlink:href="classGamePhase.html#af152a5e182080af728f34e66b29079c5" target="_top" xlink:title="Sets the current game phase.">
<polygon fill="white" stroke="black" points="311,-152.5 311,-171.5 436,-171.5 436,-152.5 311,-152.5"/>
<text text-anchor="middle" x="373.5" y="-159.5" font-family="Helvetica,sans-Serif" font-size="10.00">GamePhase::setPhase</text>
</a>
</g>
</g>
<!-- Node1&#45;&gt;Node2 -->
<g id="edge1" class="edge">
<title>Node1&#45;&gt;Node2</title>
<path fill="none" stroke="midnightblue" d="M514.72,-99.86C480.32,-115.1 425.97,-139.19 396.04,-152.45"/>
<polygon fill="midnightblue" stroke="midnightblue" points="516.55,-102.88 524.28,-95.63 513.72,-96.48 516.55,-102.88"/>
</g>
<!-- Node12 -->
<g id="node12" class="node">
<title>Node12</title>
<g id="a_node12"><a xlink:href="classGame.html#a9f8150e56d9f2c53d172ef0443630de7" target="_top" xlink:title="Updates the game phase timer.">
<polygon fill="white" stroke="black" points="132,-0.5 132,-19.5 275,-19.5 275,-0.5 132,-0.5"/>
<text text-anchor="middle" x="203.5" y="-7.5" font-family="Helvetica,sans-Serif" font-size="10.00">Game::updatePhaseTimer</text>
</a>
</g>
</g>
<!-- Node1&#45;&gt;Node12 -->
<g id="edge16" class="edge">
<title>Node1&#45;&gt;Node12</title>
<path fill="none" stroke="midnightblue" d="M493.07,-74.22C425.41,-59.16 309.58,-33.39 247.23,-19.51"/>
<polygon fill="midnightblue" stroke="midnightblue" points="492.57,-77.7 503.09,-76.45 494.09,-70.86 492.57,-77.7"/>
</g>
<!-- Node3 -->
<g id="node3" class="node">
<title>Node3</title>
<g id="a_node3"><a xlink:href="classGame.html#a4c2a7ead717a4c13f1ffddafd11e17c8" target="_top" xlink:title="Initializes the game, loading config, and the map.">
<polygon fill="white" stroke="black" points="142,-304.5 142,-323.5 265,-323.5 265,-304.5 142,-304.5"/>
<text text-anchor="middle" x="203.5" y="-311.5" font-family="Helvetica,sans-Serif" font-size="10.00">Game::initializeGame</text>
</a>
</g>
</g>
<!-- Node2&#45;&gt;Node3 -->
<g id="edge2" class="edge">
<title>Node2&#45;&gt;Node3</title>
<path fill="none" stroke="midnightblue" d="M363.04,-180.6C348.02,-208.31 316.19,-260.35 275,-290 266.4,-296.19 256.07,-300.88 246.01,-304.39"/>
<polygon fill="midnightblue" stroke="midnightblue" points="366.22,-182.06 367.79,-171.58 360.03,-178.79 366.22,-182.06"/>
</g>
<!-- Node4 -->
<g id="node4" class="node">
<title>Node4</title>
<g id="a_node4"><a xlink:href="classGame.html#a2a30c89761624ee64cd7acb147aaf89c" target="_top" xlink:title="Starts the game.">
<polygon fill="white" stroke="black" points="11,-332.5 11,-351.5 85,-351.5 85,-332.5 11,-332.5"/>
<text text-anchor="middle" x="48" y="-339.5" font-family="Helvetica,sans-Serif" font-size="10.00">Game::start</text>
</a>
</g>
</g>
<!-- Node2&#45;&gt;Node4 -->
<g id="edge10" class="edge">
<title>Node2&#45;&gt;Node4</title>
<path fill="none" stroke="midnightblue" d="M367.94,-181.73C358.16,-218.92 331.37,-298.73 275,-333 216.45,-368.59 132.71,-359.84 85.33,-350.67"/>
<polygon fill="midnightblue" stroke="midnightblue" points="371.43,-182.2 370.44,-171.65 364.63,-180.52 371.43,-182.2"/>
</g>
<!-- Node5 -->
<g id="node5" class="node">
<title>Node5</title>
<g id="a_node5"><a xlink:href="classGame.html#a1118c369ae5b2fe433aac540cb32d187" target="_top" xlink:title="Starts the game with a new map.">
<polygon fill="white" stroke="black" points="0,-285.5 0,-304.5 96,-304.5 96,-285.5 0,-285.5"/>
<text text-anchor="middle" x="48" y="-292.5" font-family="Helvetica,sans-Serif" font-size="10.00">Game::startNew</text>
</a>
</g>
</g>
<!-- Node2&#45;&gt;Node5 -->
<g id="edge11" class="edge">
<title>Node2&#45;&gt;Node5</title>
<path fill="none" stroke="midnightblue" d="M359.68,-179.93C342.9,-201.93 311.31,-238.58 275,-257 218.05,-285.89 143.68,-293.49 96.11,-295.14"/>
<polygon fill="midnightblue" stroke="midnightblue" points="362.6,-181.87 365.75,-171.76 356.98,-177.7 362.6,-181.87"/>
</g>
<!-- Node6 -->
<g id="node6" class="node">
<title>Node6</title>
<g id="a_node6"><a xlink:href="classCherry.html#aaf41373bb1fe88172648ce26bb54c5ec" target="_top" xlink:title="Interacts with another object.">
<polygon fill="white" stroke="black" points="146.5,-228.5 146.5,-247.5 260.5,-247.5 260.5,-228.5 146.5,-228.5"/>
<text text-anchor="middle" x="203.5" y="-235.5" font-family="Helvetica,sans-Serif" font-size="10.00">Cherry::interactWith</text>
</a>
</g>
</g>
<!-- Node2&#45;&gt;Node6 -->
<g id="edge5" class="edge">
<title>Node2&#45;&gt;Node6</title>
<path fill="none" stroke="midnightblue" d="M350.56,-177.12C331.36,-189.78 302.33,-207.57 275,-219 266.23,-222.67 256.55,-225.82 247.24,-228.44"/>
<polygon fill="midnightblue" stroke="midnightblue" points="352.54,-180 358.9,-171.53 348.64,-174.19 352.54,-180"/>
</g>
<!-- Node7 -->
<g id="node7" class="node">
<title>Node7</title>
<g id="a_node7"><a xlink:href="classGhost.html#a835ab7beec9ae0515085e479fcd2b1c6" target="_top" xlink:title="Interacts with another object.">
<polygon fill="white" stroke="black" points="148,-190.5 148,-209.5 259,-209.5 259,-190.5 148,-190.5"/>
<text text-anchor="middle" x="203.5" y="-197.5" font-family="Helvetica,sans-Serif" font-size="10.00">Ghost::interactWith</text>
</a>
</g>
</g>
<!-- Node2&#45;&gt;Node7 -->
<g id="edge6" class="edge">
<title>Node2&#45;&gt;Node7</title>
<path fill="none" stroke="midnightblue" d="M320.22,-173.82C296.54,-179.18 268.91,-185.43 246.59,-190.48"/>
<polygon fill="midnightblue" stroke="midnightblue" points="321.13,-177.21 330.11,-171.59 319.58,-170.38 321.13,-177.21"/>
</g>
<!-- Node8 -->
<g id="node8" class="node">
<title>Node8</title>
<g id="a_node8"><a xlink:href="classGame.html#a58272899c822e102edfee50a5547612f" target="_top" xlink:title="Moves the player in given direction.">
<polygon fill="white" stroke="black" points="148.5,-152.5 148.5,-171.5 258.5,-171.5 258.5,-152.5 148.5,-152.5"/>
<text text-anchor="middle" x="203.5" y="-159.5" font-family="Helvetica,sans-Serif" font-size="10.00">Game::movePlayer</text>
</a>
</g>
</g>
<!-- Node2&#45;&gt;Node8 -->
<g id="edge7" class="edge">
<title>Node2&#45;&gt;Node8</title>
<path fill="none" stroke="midnightblue" d="M300.73,-162C286.61,-162 272.02,-162 258.61,-162"/>
<polygon fill="midnightblue" stroke="midnightblue" points="300.9,-165.5 310.9,-162 300.9,-158.5 300.9,-165.5"/>
</g>
<!-- Node9 -->
<g id="node9" class="node">
<title>Node9</title>
<g id="a_node9"><a xlink:href="classGamePhase.html#a6ebc97f0a4514c9d0689009a0e7bd48c" target="_top" xlink:title="Removes an item from the remaining items.">
<polygon fill="white" stroke="black" points="133,-114.5 133,-133.5 274,-133.5 274,-114.5 133,-114.5"/>
<text text-anchor="middle" x="203.5" y="-121.5" font-family="Helvetica,sans-Serif" font-size="10.00">GamePhase::removeItem</text>
</a>
</g>
</g>
<!-- Node2&#45;&gt;Node9 -->
<g id="edge8" class="edge">
<title>Node2&#45;&gt;Node9</title>
<path fill="none" stroke="midnightblue" d="M320.22,-150.18C296.54,-144.82 268.91,-138.57 246.59,-133.52"/>
<polygon fill="midnightblue" stroke="midnightblue" points="319.58,-153.62 330.11,-152.41 321.13,-146.79 319.58,-153.62"/>
</g>
<!-- Node10 -->
<g id="node10" class="node">
<title>Node10</title>
<g id="a_node10"><a xlink:href="classGame.html#aef7682b8bf084aac3c8f929a6fd2f673" target="_top" xlink:title="Updates the game state.">
<polygon fill="white" stroke="black" points="5,-76.5 5,-95.5 91,-95.5 91,-76.5 5,-76.5"/>
<text text-anchor="middle" x="48" y="-83.5" font-family="Helvetica,sans-Serif" font-size="10.00">Game::update</text>
</a>
</g>
</g>
<!-- Node2&#45;&gt;Node10 -->
<g id="edge13" class="edge">
<title>Node2&#45;&gt;Node10</title>
<path fill="none" stroke="midnightblue" d="M351.99,-146.31C333.1,-132.8 303.73,-114.09 275,-105 213.25,-85.46 137.54,-83.19 91.31,-84.06"/>
<polygon fill="midnightblue" stroke="midnightblue" points="349.99,-149.19 360.13,-152.28 354.13,-143.55 349.99,-149.19"/>
</g>
<!-- Node11 -->
<g id="node11" class="node">
<title>Node11</title>
<g id="a_node11"><a xlink:href="classPlayer.html#abc005b0707ae63f395b33d79a876a453" target="_top" xlink:title="Updates the object.">
<polygon fill="white" stroke="black" points="160,-38.5 160,-57.5 247,-57.5 247,-38.5 160,-38.5"/>
<text text-anchor="middle" x="203.5" y="-45.5" font-family="Helvetica,sans-Serif" font-size="10.00">Player::update</text>
</a>
</g>
</g>
<!-- Node2&#45;&gt;Node11 -->
<g id="edge12" class="edge">
<title>Node2&#45;&gt;Node11</title>
<path fill="none" stroke="midnightblue" d="M357.92,-144.73C340.18,-124.71 308.43,-91.89 275,-72 264.89,-65.98 253.06,-61.21 242.01,-57.56"/>
<polygon fill="midnightblue" stroke="midnightblue" points="355.43,-147.21 364.63,-152.46 360.72,-142.62 355.43,-147.21"/>
</g>
<!-- Node2&#45;&gt;Node12 -->
<g id="edge14" class="edge">
<title>Node2&#45;&gt;Node12</title>
<path fill="none" stroke="midnightblue" d="M358.69,-144.28C346.08,-127.98 327.01,-103.07 311,-81 294.5,-58.25 297.97,-45.2 275,-29 269.51,-25.13 263.27,-22.04 256.83,-19.59"/>
<polygon fill="midnightblue" stroke="midnightblue" points="356.08,-146.62 364.98,-152.38 361.61,-142.33 356.08,-146.62"/>
</g>
<!-- Node3&#45;&gt;Node4 -->
<g id="edge3" class="edge">
<title>Node3&#45;&gt;Node4</title>
<path fill="none" stroke="midnightblue" d="M140.17,-325.37C121.48,-328.78 101.62,-332.4 85.21,-335.39"/>
<polygon fill="midnightblue" stroke="midnightblue" points="140.89,-328.8 150.1,-323.56 139.64,-321.91 140.89,-328.8"/>
</g>
<!-- Node3&#45;&gt;Node5 -->
<g id="edge4" class="edge">
<title>Node3&#45;&gt;Node5</title>
<path fill="none" stroke="midnightblue" d="M131.84,-305.25C119.85,-303.77 107.66,-302.26 96.45,-300.87"/>
<polygon fill="midnightblue" stroke="midnightblue" points="131.48,-308.74 141.83,-306.49 132.34,-301.79 131.48,-308.74"/>
</g>
<!-- Node9&#45;&gt;Node10 -->
<g id="edge9" class="edge">
<title>Node9&#45;&gt;Node10</title>
<path fill="none" stroke="midnightblue" d="M153.86,-111.96C132.42,-106.65 107.58,-100.5 87.46,-95.52"/>
<polygon fill="midnightblue" stroke="midnightblue" points="153.22,-115.41 163.77,-114.41 154.9,-108.61 153.22,-115.41"/>
</g>
<!-- Node12&#45;&gt;Node10 -->
<g id="edge15" class="edge">
<title>Node12&#45;&gt;Node10</title>
<path fill="none" stroke="midnightblue" d="M148.51,-22.51C142.83,-24.43 137.23,-26.58 132,-29 104.23,-41.82 75.64,-63.75 60.33,-76.34"/>
<polygon fill="midnightblue" stroke="midnightblue" points="149.57,-25.85 158.06,-19.52 147.47,-19.17 149.57,-25.85"/>
</g>
</g>
</svg>
