<?xml version="1.0" encoding="UTF-8" standalone="no"?>
<!DOCTYPE svg PUBLIC "-//W3C//DTD SVG 1.1//EN"
 "http://www.w3.org/Graphics/SVG/1.1/DTD/svg11.dtd">
<!-- Generated by graphviz version 2.43.0 (0)
 -->
<!-- Title: Game::endOnErr Pages: 1 -->
<svg width="444pt" height="79pt"
 viewBox="0.00 0.00 444.00 79.41" xmlns="http://www.w3.org/2000/svg" xmlns:xlink="http://www.w3.org/1999/xlink">
<g id="graph0" class="graph" transform="scale(1 1) rotate(0) translate(4 75.41)">
<title>Game::endOnErr</title>
<polygon fill="white" stroke="transparent" points="-4,4 -4,-75.41 440,-75.41 440,4 -4,4"/>
<!-- Node1 -->
<g id="node1" class="node">
<title>Node1</title>
<g id="a_node1"><a xlink:title="Ends the game on error.">
<polygon fill="#bfbfbf" stroke="black" points="0,-38.5 0,-57.5 97,-57.5 97,-38.5 0,-38.5"/>
<text text-anchor="middle" x="48.5" y="-45.5" font-family="Helvetica,sans-Serif" font-size="10.00">Game::endOnErr</text>
</a>
</g>
</g>
<!-- Node2 -->
<g id="node2" class="node">
<title>Node2</title>
<g id="a_node2"><a xlink:href="classWindow.html#a07c2b4d065cbcb397eafc1a27a337bb7" target="_top" xlink:title="Clears the current window.">
<polygon fill="white" stroke="black" points="296,-38.5 296,-57.5 436,-57.5 436,-38.5 296,-38.5"/>
<text text-anchor="middle" x="366" y="-45.5" font-family="Helvetica,sans-Serif" font-size="10.00">Window::clearCurrentWin</text>
</a>
</g>
</g>
<!-- Node1&#45;&gt;Node2 -->
<g id="edge1" class="edge">
<title>Node1&#45;&gt;Node2</title>
<path fill="none" stroke="midnightblue" d="M83.33,-57.51C98.4,-61.27 116.45,-65.14 133,-67 189.09,-73.3 203.78,-72.05 260,-67 277.11,-65.46 295.61,-62.55 312.24,-59.45"/>
<polygon fill="midnightblue" stroke="midnightblue" points="313.16,-62.84 322.32,-57.51 311.84,-55.96 313.16,-62.84"/>
</g>
<!-- Node3 -->
<g id="node3" class="node">
<title>Node3</title>
<g id="a_node3"><a xlink:href="classMap.html#a7ded655c7db0e9d72816430b4f2c83a5" target="_top" xlink:title="Clears the map.">
<polygon fill="white" stroke="black" points="152,-38.5 152,-57.5 241,-57.5 241,-38.5 152,-38.5"/>
<text text-anchor="middle" x="196.5" y="-45.5" font-family="Helvetica,sans-Serif" font-size="10.00">Map::clearMap</text>
</a>
</g>
</g>
<!-- Node1&#45;&gt;Node3 -->
<g id="edge2" class="edge">
<title>Node1&#45;&gt;Node3</title>
<path fill="none" stroke="midnightblue" d="M97.31,-48C111.36,-48 126.83,-48 141.26,-48"/>
<polygon fill="midnightblue" stroke="midnightblue" points="141.54,-51.5 151.54,-48 141.54,-44.5 141.54,-51.5"/>
</g>
<!-- Node4 -->
<g id="node4" class="node">
<title>Node4</title>
<g id="a_node4"><a xlink:href="classWindow.html#aba37c5e32e43d21a46968fd8ada1d327" target="_top" xlink:title="Prints the message to the current window.">
<polygon fill="white" stroke="black" points="133,-0.5 133,-19.5 260,-19.5 260,-0.5 133,-0.5"/>
<text text-anchor="middle" x="196.5" y="-7.5" font-family="Helvetica,sans-Serif" font-size="10.00">Window::printMessage</text>
</a>
</g>
</g>
<!-- Node1&#45;&gt;Node4 -->
<g id="edge3" class="edge">
<title>Node1&#45;&gt;Node4</title>
<path fill="none" stroke="midnightblue" d="M86.34,-38.41C105.35,-33.46 128.73,-27.38 148.97,-22.11"/>
<polygon fill="midnightblue" stroke="midnightblue" points="150.13,-25.43 158.92,-19.52 148.36,-18.65 150.13,-25.43"/>
</g>
<!-- Node4&#45;&gt;Node2 -->
<g id="edge4" class="edge">
<title>Node4&#45;&gt;Node2</title>
<path fill="none" stroke="midnightblue" d="M239.77,-19.59C262.07,-24.65 289.62,-30.9 313.2,-36.25"/>
<polygon fill="midnightblue" stroke="midnightblue" points="312.51,-39.68 323.04,-38.48 314.06,-32.85 312.51,-39.68"/>
</g>
</g>
</svg>
