<?xml version="1.0" encoding="UTF-8" standalone="no"?>
<!DOCTYPE svg PUBLIC "-//W3C//DTD SVG 1.1//EN"
 "http://www.w3.org/Graphics/SVG/1.1/DTD/svg11.dtd">
<!-- Generated by graphviz version 2.43.0 (0)
 -->
<!-- Title: InteractiveObject Pages: 1 -->
<svg width="244pt" height="140pt"
 viewBox="0.00 0.00 243.50 140.00" xmlns="http://www.w3.org/2000/svg" xmlns:xlink="http://www.w3.org/1999/xlink">
<g id="graph0" class="graph" transform="scale(1 1) rotate(0) translate(4 136)">
<title>InteractiveObject</title>
<polygon fill="white" stroke="transparent" points="-4,4 -4,-136 239.5,-136 239.5,4 -4,4"/>
<!-- Node1 -->
<g id="node1" class="node">
<title>Node1</title>
<g id="a_node1"><a xlink:title=" ">
<polygon fill="#bfbfbf" stroke="black" points="68,-56.5 68,-75.5 169,-75.5 169,-56.5 68,-56.5"/>
<text text-anchor="middle" x="118.5" y="-63.5" font-family="Helvetica,sans-Serif" font-size="10.00">InteractiveObject</text>
</a>
</g>
</g>
<!-- Node3 -->
<g id="node3" class="node">
<title>Node3</title>
<g id="a_node3"><a xlink:href="classCherry.html" target="_top" xlink:title=" ">
<polygon fill="white" stroke="black" points="0,-0.5 0,-19.5 49,-19.5 49,-0.5 0,-0.5"/>
<text text-anchor="middle" x="24.5" y="-7.5" font-family="Helvetica,sans-Serif" font-size="10.00">Cherry</text>
</a>
</g>
</g>
<!-- Node1&#45;&gt;Node3 -->
<g id="edge2" class="edge">
<title>Node1&#45;&gt;Node3</title>
<path fill="none" stroke="midnightblue" d="M94.44,-51.18C77.14,-41.24 54.35,-28.15 39.57,-19.65"/>
<polygon fill="midnightblue" stroke="midnightblue" points="92.98,-54.38 103.4,-56.32 96.47,-48.31 92.98,-54.38"/>
</g>
<!-- Node4 -->
<g id="node4" class="node">
<title>Node4</title>
<g id="a_node4"><a xlink:href="classCoin.html" target="_top" xlink:title=" ">
<polygon fill="white" stroke="black" points="67.5,-0.5 67.5,-19.5 105.5,-19.5 105.5,-0.5 67.5,-0.5"/>
<text text-anchor="middle" x="86.5" y="-7.5" font-family="Helvetica,sans-Serif" font-size="10.00">Coin</text>
</a>
</g>
</g>
<!-- Node1&#45;&gt;Node4 -->
<g id="edge3" class="edge">
<title>Node1&#45;&gt;Node4</title>
<path fill="none" stroke="midnightblue" d="M108,-47.27C102.53,-38.05 96.08,-27.17 91.69,-19.75"/>
<polygon fill="midnightblue" stroke="midnightblue" points="105.11,-49.26 113.22,-56.08 111.13,-45.7 105.11,-49.26"/>
</g>
<!-- Node5 -->
<g id="node5" class="node">
<title>Node5</title>
<g id="a_node5"><a xlink:href="classTeleport.html" target="_top" xlink:title=" ">
<polygon fill="white" stroke="black" points="123.5,-0.5 123.5,-19.5 179.5,-19.5 179.5,-0.5 123.5,-0.5"/>
<text text-anchor="middle" x="151.5" y="-7.5" font-family="Helvetica,sans-Serif" font-size="10.00">Teleport</text>
</a>
</g>
</g>
<!-- Node1&#45;&gt;Node5 -->
<g id="edge4" class="edge">
<title>Node1&#45;&gt;Node5</title>
<path fill="none" stroke="midnightblue" d="M129.33,-47.27C134.97,-38.05 141.62,-27.17 146.15,-19.75"/>
<polygon fill="midnightblue" stroke="midnightblue" points="126.18,-45.73 123.95,-56.08 132.15,-49.38 126.18,-45.73"/>
</g>
<!-- Node6 -->
<g id="node6" class="node">
<title>Node6</title>
<g id="a_node6"><a xlink:href="classWall.html" target="_top" xlink:title=" ">
<polygon fill="white" stroke="black" points="197.5,-0.5 197.5,-19.5 235.5,-19.5 235.5,-0.5 197.5,-0.5"/>
<text text-anchor="middle" x="216.5" y="-7.5" font-family="Helvetica,sans-Serif" font-size="10.00">Wall</text>
</a>
</g>
</g>
<!-- Node1&#45;&gt;Node6 -->
<g id="edge5" class="edge">
<title>Node1&#45;&gt;Node6</title>
<path fill="none" stroke="midnightblue" d="M143.09,-51.45C161.18,-41.48 185.23,-28.23 200.79,-19.65"/>
<polygon fill="midnightblue" stroke="midnightblue" points="141.31,-48.43 134.25,-56.32 144.69,-54.56 141.31,-48.43"/>
</g>
<!-- Node2 -->
<g id="node2" class="node">
<title>Node2</title>
<g id="a_node2"><a xlink:href="classGameObject.html" target="_top" xlink:title=" ">
<polygon fill="white" stroke="black" points="80,-112.5 80,-131.5 157,-131.5 157,-112.5 80,-112.5"/>
<text text-anchor="middle" x="118.5" y="-119.5" font-family="Helvetica,sans-Serif" font-size="10.00">GameObject</text>
</a>
</g>
</g>
<!-- Node2&#45;&gt;Node1 -->
<g id="edge1" class="edge">
<title>Node2&#45;&gt;Node1</title>
<path fill="none" stroke="midnightblue" d="M118.5,-101.8C118.5,-92.91 118.5,-82.78 118.5,-75.75"/>
<polygon fill="midnightblue" stroke="midnightblue" points="115,-102.08 118.5,-112.08 122,-102.08 115,-102.08"/>
</g>
</g>
</svg>
