<?xml version="1.0" encoding="UTF-8" standalone="no"?>
<!DOCTYPE svg PUBLIC "-//W3C//DTD SVG 1.1//EN"
 "http://www.w3.org/Graphics/SVG/1.1/DTD/svg11.dtd">
<!-- Generated by graphviz version 2.43.0 (0)
 -->
<!-- Title: Leaderboard::addScore Pages: 1 -->
<svg width="364pt" height="47pt"
 viewBox="0.00 0.00 364.00 47.00" xmlns="http://www.w3.org/2000/svg" xmlns:xlink="http://www.w3.org/1999/xlink">
<g id="graph0" class="graph" transform="scale(1 1) rotate(0) translate(4 43)">
<title>Leaderboard::addScore</title>
<polygon fill="white" stroke="transparent" points="-4,4 -4,-43 360,-43 360,4 -4,4"/>
<!-- Node1 -->
<g id="node1" class="node">
<title>Node1</title>
<g id="a_node1"><a xlink:title="Adds a score to the leaderboard.">
<polygon fill="#bfbfbf" stroke="black" points="228,-0.5 228,-19.5 356,-19.5 356,-0.5 228,-0.5"/>
<text text-anchor="middle" x="292" y="-7.5" font-family="Helvetica,sans-Serif" font-size="10.00">Leaderboard::addScore</text>
</a>
</g>
</g>
<!-- Node2 -->
<g id="node2" class="node">
<title>Node2</title>
<g id="a_node2"><a xlink:href="classGame.html#aa2d938aa918268060e63980c7efd86f8" target="_top" xlink:title="Ends the game.">
<polygon fill="white" stroke="black" points="122,-19.5 122,-38.5 192,-38.5 192,-19.5 122,-19.5"/>
<text text-anchor="middle" x="157" y="-26.5" font-family="Helvetica,sans-Serif" font-size="10.00">Game::end</text>
</a>
</g>
</g>
<!-- Node1&#45;&gt;Node2 -->
<g id="edge1" class="edge">
<title>Node1&#45;&gt;Node2</title>
<path fill="none" stroke="midnightblue" d="M217.63,-20.48C208.82,-21.74 200.16,-22.98 192.3,-24.1"/>
<polygon fill="midnightblue" stroke="midnightblue" points="218.21,-23.93 227.62,-19.05 217.22,-17 218.21,-23.93"/>
</g>
<!-- Node3 -->
<g id="node3" class="node">
<title>Node3</title>
<g id="a_node3"><a xlink:href="classGame.html#aef7682b8bf084aac3c8f929a6fd2f673" target="_top" xlink:title="Updates the game state.">
<polygon fill="white" stroke="black" points="0,-0.5 0,-19.5 86,-19.5 86,-0.5 0,-0.5"/>
<text text-anchor="middle" x="43" y="-7.5" font-family="Helvetica,sans-Serif" font-size="10.00">Game::update</text>
</a>
</g>
</g>
<!-- Node1&#45;&gt;Node3 -->
<g id="edge3" class="edge">
<title>Node1&#45;&gt;Node3</title>
<path fill="none" stroke="midnightblue" d="M217.6,-10C174.72,-10 122.14,-10 86.16,-10"/>
<polygon fill="midnightblue" stroke="midnightblue" points="217.71,-13.5 227.71,-10 217.71,-6.5 217.71,-13.5"/>
</g>
<!-- Node2&#45;&gt;Node3 -->
<g id="edge2" class="edge">
<title>Node2&#45;&gt;Node3</title>
<path fill="none" stroke="midnightblue" d="M111.79,-21.5C103.4,-20.08 94.64,-18.59 86.31,-17.18"/>
<polygon fill="midnightblue" stroke="midnightblue" points="111.34,-24.97 121.79,-23.2 112.51,-18.07 111.34,-24.97"/>
</g>
</g>
</svg>
