<?xml version="1.0" encoding="UTF-8" standalone="no"?>
<!DOCTYPE svg PUBLIC "-//W3C//DTD SVG 1.1//EN"
 "http://www.w3.org/Graphics/SVG/1.1/DTD/svg11.dtd">
<!-- Generated by graphviz version 2.43.0 (0)
 -->
<!-- Title: Ghost::update Pages: 1 -->
<svg width="277pt" height="104pt"
 viewBox="0.00 0.00 277.00 104.00" xmlns="http://www.w3.org/2000/svg" xmlns:xlink="http://www.w3.org/1999/xlink">
<g id="graph0" class="graph" transform="scale(1 1) rotate(0) translate(4 100)">
<title>Ghost::update</title>
<polygon fill="white" stroke="transparent" points="-4,4 -4,-100 273,-100 273,4 -4,4"/>
<!-- Node1 -->
<g id="node1" class="node">
<title>Node1</title>
<g id="a_node1"><a xlink:title="Updates the object.">
<polygon fill="#bfbfbf" stroke="black" points="0,-38.5 0,-57.5 85,-57.5 85,-38.5 0,-38.5"/>
<text text-anchor="middle" x="42.5" y="-45.5" font-family="Helvetica,sans-Serif" font-size="10.00">Ghost::update</text>
</a>
</g>
</g>
<!-- Node2 -->
<g id="node2" class="node">
<title>Node2</title>
<g id="a_node2"><a xlink:href="classGamePhase.html#a4e546a7d0a52cbd70612880d61e5f55c" target="_top" xlink:title="Returns the current game phase.">
<polygon fill="white" stroke="black" points="132,-76.5 132,-95.5 258,-95.5 258,-76.5 132,-76.5"/>
<text text-anchor="middle" x="195" y="-83.5" font-family="Helvetica,sans-Serif" font-size="10.00">GamePhase::getPhase</text>
</a>
</g>
</g>
<!-- Node1&#45;&gt;Node2 -->
<g id="edge1" class="edge">
<title>Node1&#45;&gt;Node2</title>
<path fill="none" stroke="midnightblue" d="M81.48,-57.59C101.16,-62.56 125.39,-68.68 146.32,-73.96"/>
<polygon fill="midnightblue" stroke="midnightblue" points="145.74,-77.43 156.3,-76.48 147.46,-70.64 145.74,-77.43"/>
</g>
<!-- Node3 -->
<g id="node3" class="node">
<title>Node3</title>
<g id="a_node3"><a xlink:href="classGamePhase.html#a704dda3508f76202edc8364d76fa6d22" target="_top" xlink:title="Returns the previous game phase.">
<polygon fill="white" stroke="black" points="121,-38.5 121,-57.5 269,-57.5 269,-38.5 121,-38.5"/>
<text text-anchor="middle" x="195" y="-45.5" font-family="Helvetica,sans-Serif" font-size="10.00">GamePhase::getPrevPhase</text>
</a>
</g>
</g>
<!-- Node1&#45;&gt;Node3 -->
<g id="edge2" class="edge">
<title>Node1&#45;&gt;Node3</title>
<path fill="none" stroke="midnightblue" d="M85.02,-48C93.11,-48 101.86,-48 110.76,-48"/>
<polygon fill="midnightblue" stroke="midnightblue" points="110.84,-51.5 120.84,-48 110.84,-44.5 110.84,-51.5"/>
</g>
<!-- Node4 -->
<g id="node4" class="node">
<title>Node4</title>
<g id="a_node4"><a xlink:href="classGhost.html#aab141ab164930973d98258e7f671dc5a" target="_top" xlink:title=" ">
<polygon fill="white" stroke="black" points="140,-0.5 140,-19.5 250,-19.5 250,-0.5 140,-0.5"/>
<text text-anchor="middle" x="195" y="-7.5" font-family="Helvetica,sans-Serif" font-size="10.00">Ghost::setBehavior</text>
</a>
</g>
</g>
<!-- Node1&#45;&gt;Node4 -->
<g id="edge3" class="edge">
<title>Node1&#45;&gt;Node4</title>
<path fill="none" stroke="midnightblue" d="M81.48,-38.41C101.16,-33.44 125.39,-27.32 146.32,-22.04"/>
<polygon fill="midnightblue" stroke="midnightblue" points="147.46,-25.36 156.3,-19.52 145.74,-18.57 147.46,-25.36"/>
</g>
</g>
</svg>
