<?xml version="1.0" encoding="UTF-8" standalone="no"?>
<!DOCTYPE svg PUBLIC "-//W3C//DTD SVG 1.1//EN"
 "http://www.w3.org/Graphics/SVG/1.1/DTD/svg11.dtd">
<!-- Generated by graphviz version 2.43.0 (0)
 -->
<!-- Title: MovingObject::setInvincible Pages: 1 -->
<svg width="373pt" height="154pt"
 viewBox="0.00 0.00 373.00 154.00" xmlns="http://www.w3.org/2000/svg" xmlns:xlink="http://www.w3.org/1999/xlink">
<g id="graph0" class="graph" transform="scale(1 1) rotate(0) translate(4 150)">
<title>MovingObject::setInvincible</title>
<polygon fill="white" stroke="transparent" points="-4,4 -4,-150 369,-150 369,4 -4,4"/>
<!-- Node1 -->
<g id="node1" class="node">
<title>Node1</title>
<g id="a_node1"><a xlink:title="Sets the invincibility of the object.">
<polygon fill="#bfbfbf" stroke="black" points="213,-60.5 213,-79.5 365,-79.5 365,-60.5 213,-60.5"/>
<text text-anchor="middle" x="289" y="-67.5" font-family="Helvetica,sans-Serif" font-size="10.00">MovingObject::setInvincible</text>
</a>
</g>
</g>
<!-- Node2 -->
<g id="node2" class="node">
<title>Node2</title>
<g id="a_node2"><a xlink:href="structChaseBehavior.html#a8d61f5095bcec808c915637ece4a1f31" target="_top" xlink:title="Handles the behavior of the enemy when changing the game phase.">
<polygon fill="white" stroke="black" points="2,-126.5 2,-145.5 175,-145.5 175,-126.5 2,-126.5"/>
<text text-anchor="middle" x="88.5" y="-133.5" font-family="Helvetica,sans-Serif" font-size="10.00">ChaseBehavior::handleBehavior</text>
</a>
</g>
</g>
<!-- Node1&#45;&gt;Node2 -->
<g id="edge1" class="edge">
<title>Node1&#45;&gt;Node2</title>
<path fill="none" stroke="midnightblue" d="M259.22,-83.94C237.14,-94.21 205.67,-107.91 177,-117 165.59,-120.62 153.13,-123.78 141.28,-126.43"/>
<polygon fill="midnightblue" stroke="midnightblue" points="260.81,-87.06 268.37,-79.64 257.83,-80.73 260.81,-87.06"/>
</g>
<!-- Node3 -->
<g id="node3" class="node">
<title>Node3</title>
<g id="a_node3"><a xlink:href="structFrightenedBehavior.html#ab92da9144a40747698da6f7c8476aabd" target="_top" xlink:title="Handles the behavior of the enemy when changing the game phase.">
<polygon fill="white" stroke="black" points="32.5,-77 32.5,-107 144.5,-107 144.5,-77 32.5,-77"/>
<text text-anchor="start" x="40.5" y="-95" font-family="Helvetica,sans-Serif" font-size="10.00">FrightenedBehavior</text>
<text text-anchor="middle" x="88.5" y="-84" font-family="Helvetica,sans-Serif" font-size="10.00">::handleBehavior</text>
</a>
</g>
</g>
<!-- Node1&#45;&gt;Node3 -->
<g id="edge2" class="edge">
<title>Node1&#45;&gt;Node3</title>
<path fill="none" stroke="midnightblue" d="M203,-79.42C183.21,-81.61 162.64,-83.89 144.54,-85.9"/>
<polygon fill="midnightblue" stroke="midnightblue" points="203.4,-82.9 212.96,-78.32 202.63,-75.94 203.4,-82.9"/>
</g>
<!-- Node4 -->
<g id="node4" class="node">
<title>Node4</title>
<g id="a_node4"><a xlink:href="structScatterBehavior.html#a71bec433e6f46246abc648cc14a0a9af" target="_top" xlink:title="Handles the behavior of the enemy when changing the game phase.">
<polygon fill="white" stroke="black" points="0,-38.5 0,-57.5 177,-57.5 177,-38.5 0,-38.5"/>
<text text-anchor="middle" x="88.5" y="-45.5" font-family="Helvetica,sans-Serif" font-size="10.00">ScatterBehavior::handleBehavior</text>
</a>
</g>
</g>
<!-- Node1&#45;&gt;Node4 -->
<g id="edge3" class="edge">
<title>Node1&#45;&gt;Node4</title>
<path fill="none" stroke="midnightblue" d="M202.77,-60.55C193.67,-59.55 184.41,-58.52 175.3,-57.51"/>
<polygon fill="midnightblue" stroke="midnightblue" points="202.63,-64.06 212.96,-61.68 203.4,-57.1 202.63,-64.06"/>
</g>
<!-- Node5 -->
<g id="node5" class="node">
<title>Node5</title>
<g id="a_node5"><a xlink:href="classPlayer.html#abc005b0707ae63f395b33d79a876a453" target="_top" xlink:title="Updates the object.">
<polygon fill="white" stroke="black" points="45,-0.5 45,-19.5 132,-19.5 132,-0.5 45,-0.5"/>
<text text-anchor="middle" x="88.5" y="-7.5" font-family="Helvetica,sans-Serif" font-size="10.00">Player::update</text>
</a>
</g>
</g>
<!-- Node1&#45;&gt;Node5 -->
<g id="edge4" class="edge">
<title>Node1&#45;&gt;Node5</title>
<path fill="none" stroke="midnightblue" d="M255.45,-56.61C233.54,-47.93 203.85,-36.83 177,-29 162.52,-24.78 146.46,-21.03 132.08,-18"/>
<polygon fill="midnightblue" stroke="midnightblue" points="254.35,-59.93 264.93,-60.4 256.95,-53.43 254.35,-59.93"/>
</g>
</g>
</svg>
