<?xml version="1.0" encoding="UTF-8" standalone="no"?>
<!DOCTYPE svg PUBLIC "-//W3C//DTD SVG 1.1//EN"
 "http://www.w3.org/Graphics/SVG/1.1/DTD/svg11.dtd">
<!-- Generated by graphviz version 2.43.0 (0)
 -->
<!-- Title: Config::getValue Pages: 1 -->
<svg width="574pt" height="218pt"
 viewBox="0.00 0.00 574.00 218.00" xmlns="http://www.w3.org/2000/svg" xmlns:xlink="http://www.w3.org/1999/xlink">
<g id="graph0" class="graph" transform="scale(1 1) rotate(0) translate(4 214)">
<title>Config::getValue</title>
<polygon fill="white" stroke="transparent" points="-4,4 -4,-214 570,-214 570,4 -4,4"/>
<!-- Node1 -->
<g id="node1" class="node">
<title>Node1</title>
<g id="a_node1"><a xlink:title="Gets any value from the config map.">
<polygon fill="#bfbfbf" stroke="black" points="470,-95.5 470,-114.5 566,-114.5 566,-95.5 470,-95.5"/>
<text text-anchor="middle" x="518" y="-102.5" font-family="Helvetica,sans-Serif" font-size="10.00">Config::getValue</text>
</a>
</g>
</g>
<!-- Node2 -->
<g id="node2" class="node">
<title>Node2</title>
<g id="a_node2"><a xlink:href="classGame.html#aa2d938aa918268060e63980c7efd86f8" target="_top" xlink:title="Ends the game.">
<polygon fill="white" stroke="black" points="327.5,-190.5 327.5,-209.5 397.5,-209.5 397.5,-190.5 327.5,-190.5"/>
<text text-anchor="middle" x="362.5" y="-197.5" font-family="Helvetica,sans-Serif" font-size="10.00">Game::end</text>
</a>
</g>
</g>
<!-- Node1&#45;&gt;Node2 -->
<g id="edge1" class="edge">
<title>Node1&#45;&gt;Node2</title>
<path fill="none" stroke="midnightblue" d="M502.5,-122.47C487.2,-139.8 461.52,-165.88 434,-181 422.89,-187.1 409.7,-191.34 397.75,-194.23"/>
<polygon fill="midnightblue" stroke="midnightblue" points="505.27,-124.62 509.14,-114.75 499.96,-120.05 505.27,-124.62"/>
</g>
<!-- Node4 -->
<g id="node4" class="node">
<title>Node4</title>
<g id="a_node4"><a xlink:href="classGame.html#a4c2a7ead717a4c13f1ffddafd11e17c8" target="_top" xlink:title="Initializes the game, loading config, and the map.">
<polygon fill="white" stroke="black" points="132,-76.5 132,-95.5 255,-95.5 255,-76.5 132,-76.5"/>
<text text-anchor="middle" x="193.5" y="-83.5" font-family="Helvetica,sans-Serif" font-size="10.00">Game::initializeGame</text>
</a>
</g>
</g>
<!-- Node1&#45;&gt;Node4 -->
<g id="edge3" class="edge">
<title>Node1&#45;&gt;Node4</title>
<path fill="none" stroke="midnightblue" d="M459.66,-108.06C413.89,-109.77 348.18,-110.58 291,-105 271.97,-103.14 251.12,-99.28 233.68,-95.51"/>
<polygon fill="midnightblue" stroke="midnightblue" points="459.84,-111.56 469.69,-107.66 459.56,-104.57 459.84,-111.56"/>
</g>
<!-- Node6 -->
<g id="node6" class="node">
<title>Node6</title>
<g id="a_node6"><a xlink:href="classGame.html#a1118c369ae5b2fe433aac540cb32d187" target="_top" xlink:title="Starts the game with a new map.">
<polygon fill="white" stroke="black" points="0,-38.5 0,-57.5 96,-57.5 96,-38.5 0,-38.5"/>
<text text-anchor="middle" x="48" y="-45.5" font-family="Helvetica,sans-Serif" font-size="10.00">Game::startNew</text>
</a>
</g>
</g>
<!-- Node1&#45;&gt;Node6 -->
<g id="edge11" class="edge">
<title>Node1&#45;&gt;Node6</title>
<path fill="none" stroke="midnightblue" d="M491.63,-90.32C475.65,-81.86 454.27,-71.95 434,-67 315.02,-37.97 169.41,-40.73 96.04,-44.67"/>
<polygon fill="midnightblue" stroke="midnightblue" points="490.37,-93.62 500.83,-95.34 493.73,-87.47 490.37,-93.62"/>
</g>
<!-- Node7 -->
<g id="node7" class="node">
<title>Node7</title>
<g id="a_node7"><a xlink:href="classConfig.html#ab8b24da021cd9ad9ca092749292ca6ed" target="_top" xlink:title="Loads the config from a file.">
<polygon fill="white" stroke="black" points="310,-0.5 310,-19.5 415,-19.5 415,-0.5 310,-0.5"/>
<text text-anchor="middle" x="362.5" y="-7.5" font-family="Helvetica,sans-Serif" font-size="10.00">Config::loadConfig</text>
</a>
</g>
</g>
<!-- Node1&#45;&gt;Node7 -->
<g id="edge6" class="edge">
<title>Node1&#45;&gt;Node7</title>
<path fill="none" stroke="midnightblue" d="M500.87,-87.88C485.12,-72.01 459.82,-48.71 434,-34 423.55,-28.05 411.39,-23.25 400.14,-19.56"/>
<polygon fill="midnightblue" stroke="midnightblue" points="498.71,-90.67 508.19,-95.41 503.73,-85.8 498.71,-90.67"/>
</g>
<!-- Node10 -->
<g id="node10" class="node">
<title>Node10</title>
<g id="a_node10"><a xlink:href="classGame.html#a1290bdc979d75815efe4d21e83a806cb" target="_top" xlink:title="Loads the object from the map.">
<polygon fill="white" stroke="black" points="307.5,-76.5 307.5,-95.5 417.5,-95.5 417.5,-76.5 307.5,-76.5"/>
<text text-anchor="middle" x="362.5" y="-83.5" font-family="Helvetica,sans-Serif" font-size="10.00">Game::loadObjects</text>
</a>
</g>
</g>
<!-- Node1&#45;&gt;Node10 -->
<g id="edge9" class="edge">
<title>Node1&#45;&gt;Node10</title>
<path fill="none" stroke="midnightblue" d="M459.42,-97.87C445.73,-96.18 431.16,-94.38 417.63,-92.7"/>
<polygon fill="midnightblue" stroke="midnightblue" points="459.34,-101.39 469.69,-99.14 460.2,-94.44 459.34,-101.39"/>
</g>
<!-- Node11 -->
<g id="node11" class="node">
<title>Node11</title>
<g id="a_node11"><a xlink:href="classGame.html#a9f8150e56d9f2c53d172ef0443630de7" target="_top" xlink:title="Updates the game phase timer.">
<polygon fill="white" stroke="black" points="291,-152.5 291,-171.5 434,-171.5 434,-152.5 291,-152.5"/>
<text text-anchor="middle" x="362.5" y="-159.5" font-family="Helvetica,sans-Serif" font-size="10.00">Game::updatePhaseTimer</text>
</a>
</g>
</g>
<!-- Node1&#45;&gt;Node11 -->
<g id="edge12" class="edge">
<title>Node1&#45;&gt;Node11</title>
<path fill="none" stroke="midnightblue" d="M484.36,-118.42C469.13,-124.56 450.71,-131.84 434,-138 420.53,-142.97 405.49,-148.14 392.77,-152.4"/>
<polygon fill="midnightblue" stroke="midnightblue" points="485.92,-121.56 493.87,-114.56 483.28,-115.08 485.92,-121.56"/>
</g>
<!-- Node3 -->
<g id="node3" class="node">
<title>Node3</title>
<g id="a_node3"><a xlink:href="classGame.html#aef7682b8bf084aac3c8f929a6fd2f673" target="_top" xlink:title="Updates the game state.">
<polygon fill="white" stroke="black" points="150.5,-171.5 150.5,-190.5 236.5,-190.5 236.5,-171.5 150.5,-171.5"/>
<text text-anchor="middle" x="193.5" y="-178.5" font-family="Helvetica,sans-Serif" font-size="10.00">Game::update</text>
</a>
</g>
</g>
<!-- Node2&#45;&gt;Node3 -->
<g id="edge2" class="edge">
<title>Node2&#45;&gt;Node3</title>
<path fill="none" stroke="midnightblue" d="M317.36,-194.98C292.38,-192.14 261.3,-188.6 236.65,-185.8"/>
<polygon fill="midnightblue" stroke="midnightblue" points="316.97,-198.46 327.3,-196.11 317.76,-191.5 316.97,-198.46"/>
</g>
<!-- Node5 -->
<g id="node5" class="node">
<title>Node5</title>
<g id="a_node5"><a xlink:href="classGame.html#a2a30c89761624ee64cd7acb147aaf89c" target="_top" xlink:title="Starts the game.">
<polygon fill="white" stroke="black" points="11,-76.5 11,-95.5 85,-95.5 85,-76.5 11,-76.5"/>
<text text-anchor="middle" x="48" y="-83.5" font-family="Helvetica,sans-Serif" font-size="10.00">Game::start</text>
</a>
</g>
</g>
<!-- Node4&#45;&gt;Node5 -->
<g id="edge4" class="edge">
<title>Node4&#45;&gt;Node5</title>
<path fill="none" stroke="midnightblue" d="M121.52,-86C108.85,-86 96.15,-86 85,-86"/>
<polygon fill="midnightblue" stroke="midnightblue" points="121.64,-89.5 131.64,-86 121.64,-82.5 121.64,-89.5"/>
</g>
<!-- Node4&#45;&gt;Node6 -->
<g id="edge5" class="edge">
<title>Node4&#45;&gt;Node6</title>
<path fill="none" stroke="midnightblue" d="M146.53,-73.83C126.68,-68.57 103.81,-62.51 85.2,-57.59"/>
<polygon fill="midnightblue" stroke="midnightblue" points="145.73,-77.23 156.29,-76.41 147.52,-70.47 145.73,-77.23"/>
</g>
<!-- Node8 -->
<g id="node8" class="node">
<title>Node8</title>
<g id="a_node8"><a xlink:href="classGameManager.html#a8460b2f4f44c19dd405e4163fe6cb5cf" target="_top" xlink:title=" ">
<polygon fill="white" stroke="black" points="135,-0.5 135,-19.5 252,-19.5 252,-0.5 135,-0.5"/>
<text text-anchor="middle" x="193.5" y="-7.5" font-family="Helvetica,sans-Serif" font-size="10.00">GameManager::start</text>
</a>
</g>
</g>
<!-- Node7&#45;&gt;Node8 -->
<g id="edge7" class="edge">
<title>Node7&#45;&gt;Node8</title>
<path fill="none" stroke="midnightblue" d="M299.57,-10C284.06,-10 267.5,-10 252.21,-10"/>
<polygon fill="midnightblue" stroke="midnightblue" points="299.58,-13.5 309.58,-10 299.58,-6.5 299.58,-13.5"/>
</g>
<!-- Node9 -->
<g id="node9" class="node">
<title>Node9</title>
<g id="a_node9"><a xlink:href="main_8cpp.html#ae66f6b31b5ad750f1fe042a706a4e3d4" target="_top" xlink:title=" ">
<polygon fill="white" stroke="black" points="27.5,-0.5 27.5,-19.5 68.5,-19.5 68.5,-0.5 27.5,-0.5"/>
<text text-anchor="middle" x="48" y="-7.5" font-family="Helvetica,sans-Serif" font-size="10.00">main</text>
</a>
</g>
</g>
<!-- Node8&#45;&gt;Node9 -->
<g id="edge8" class="edge">
<title>Node8&#45;&gt;Node9</title>
<path fill="none" stroke="midnightblue" d="M124.93,-10C104.36,-10 83.33,-10 68.64,-10"/>
<polygon fill="midnightblue" stroke="midnightblue" points="124.96,-13.5 134.96,-10 124.96,-6.5 124.96,-13.5"/>
</g>
<!-- Node10&#45;&gt;Node4 -->
<g id="edge10" class="edge">
<title>Node10&#45;&gt;Node4</title>
<path fill="none" stroke="midnightblue" d="M296.93,-86C283.18,-86 268.7,-86 255.1,-86"/>
<polygon fill="midnightblue" stroke="midnightblue" points="297.28,-89.5 307.28,-86 297.28,-82.5 297.28,-89.5"/>
</g>
<!-- Node11&#45;&gt;Node3 -->
<g id="edge13" class="edge">
<title>Node11&#45;&gt;Node3</title>
<path fill="none" stroke="midnightblue" d="M280.31,-171.24C265.28,-172.95 250.15,-174.67 236.87,-176.18"/>
<polygon fill="midnightblue" stroke="midnightblue" points="281.14,-174.67 290.68,-170.06 280.35,-167.71 281.14,-174.67"/>
</g>
</g>
</svg>
