<?xml version="1.0" encoding="UTF-8" standalone="no"?>
<!DOCTYPE svg PUBLIC "-//W3C//DTD SVG 1.1//EN"
 "http://www.w3.org/Graphics/SVG/1.1/DTD/svg11.dtd">
<!-- Generated by graphviz version 2.43.0 (0)
 -->
<!-- Title: Window::clearCurrentWin Pages: 1 -->
<svg width="911pt" height="508pt"
 viewBox="0.00 0.00 911.00 508.27" xmlns="http://www.w3.org/2000/svg" xmlns:xlink="http://www.w3.org/1999/xlink">
<g id="graph0" class="graph" transform="scale(1 1) rotate(0) translate(4 504.27)">
<title>Window::clearCurrentWin</title>
<polygon fill="white" stroke="transparent" points="-4,4 -4,-504.27 907,-504.27 907,4 -4,4"/>
<!-- Node1 -->
<g id="node1" class="node">
<title>Node1</title>
<g id="a_node1"><a xlink:title="Clears the current window.">
<polygon fill="#bfbfbf" stroke="black" points="763,-242.77 763,-261.77 903,-261.77 903,-242.77 763,-242.77"/>
<text text-anchor="middle" x="833" y="-249.77" font-family="Helvetica,sans-Serif" font-size="10.00">Window::clearCurrentWin</text>
</a>
</g>
</g>
<!-- Node2 -->
<g id="node2" class="node">
<title>Node2</title>
<g id="a_node2"><a xlink:href="classWindow.html#ac9718717327b190f444c9fe3955477a7" target="_top" xlink:title="Creates the main menu window.">
<polygon fill="white" stroke="black" points="569,-442.77 569,-461.77 727,-461.77 727,-442.77 569,-442.77"/>
<text text-anchor="middle" x="648" y="-449.77" font-family="Helvetica,sans-Serif" font-size="10.00">Window::createMenuWindow</text>
</a>
</g>
</g>
<!-- Node1&#45;&gt;Node2 -->
<g id="edge1" class="edge">
<title>Node1&#45;&gt;Node2</title>
<path fill="none" stroke="midnightblue" d="M825.69,-271.79C812.97,-308.08 780.76,-386.06 727,-428.27 718.98,-434.57 709.3,-439.23 699.53,-442.67"/>
<polygon fill="midnightblue" stroke="midnightblue" points="829.13,-272.55 829.02,-261.96 822.5,-270.31 829.13,-272.55"/>
</g>
<!-- Node8 -->
<g id="node8" class="node">
<title>Node8</title>
<g id="a_node8"><a xlink:href="classWindow.html#a2a15428125d31769c0c68ddcd7874d1d" target="_top" xlink:title="Displays the leaderboard.">
<polygon fill="white" stroke="black" points="376,-62.77 376,-81.77 533,-81.77 533,-62.77 376,-62.77"/>
<text text-anchor="middle" x="454.5" y="-69.77" font-family="Helvetica,sans-Serif" font-size="10.00">Window::displayLeaderboard</text>
</a>
</g>
</g>
<!-- Node1&#45;&gt;Node8 -->
<g id="edge8" class="edge">
<title>Node1&#45;&gt;Node8</title>
<path fill="none" stroke="midnightblue" d="M825.39,-233.01C812.51,-198.76 780.53,-127.87 727,-96.27 665.37,-59.89 581.79,-58.12 523.71,-62.77"/>
<polygon fill="midnightblue" stroke="midnightblue" points="822.22,-234.53 828.91,-242.75 828.81,-232.16 822.22,-234.53"/>
</g>
<!-- Node9 -->
<g id="node9" class="node">
<title>Node9</title>
<g id="a_node9"><a xlink:href="classGame.html#aa2d938aa918268060e63980c7efd86f8" target="_top" xlink:title="Ends the game.">
<polygon fill="white" stroke="black" points="250,-100.77 250,-119.77 320,-119.77 320,-100.77 250,-100.77"/>
<text text-anchor="middle" x="285" y="-107.77" font-family="Helvetica,sans-Serif" font-size="10.00">Game::end</text>
</a>
</g>
</g>
<!-- Node1&#45;&gt;Node9 -->
<g id="edge12" class="edge">
<title>Node1&#45;&gt;Node9</title>
<path fill="none" stroke="midnightblue" d="M803.8,-238.26C782.78,-227.96 753.3,-213.81 727,-202.27 641.9,-164.95 623.7,-144.5 533,-124.27 458.38,-107.63 368.11,-107.36 320.04,-108.75"/>
<polygon fill="midnightblue" stroke="midnightblue" points="802.3,-241.42 812.81,-242.7 805.39,-235.14 802.3,-241.42"/>
</g>
<!-- Node10 -->
<g id="node10" class="node">
<title>Node10</title>
<g id="a_node10"><a xlink:href="classGame.html#aef7682b8bf084aac3c8f929a6fd2f673" target="_top" xlink:title="Updates the game state.">
<polygon fill="white" stroke="black" points="92.5,-62.77 92.5,-81.77 178.5,-81.77 178.5,-62.77 92.5,-62.77"/>
<text text-anchor="middle" x="135.5" y="-69.77" font-family="Helvetica,sans-Serif" font-size="10.00">Game::update</text>
</a>
</g>
</g>
<!-- Node1&#45;&gt;Node10 -->
<g id="edge31" class="edge">
<title>Node1&#45;&gt;Node10</title>
<path fill="none" stroke="midnightblue" d="M828.26,-232.81C819.21,-191.78 791.91,-96.96 727,-57.27 538.23,58.13 248.23,-31.64 161.7,-62.72"/>
<polygon fill="midnightblue" stroke="midnightblue" points="824.84,-233.57 830.3,-242.65 831.69,-232.15 824.84,-233.57"/>
</g>
<!-- Node11 -->
<g id="node11" class="node">
<title>Node11</title>
<g id="a_node11"><a xlink:href="classGame.html#a66e2ecb02f046b0c17922a4255720e5a" target="_top" xlink:title="Ends the game on error.">
<polygon fill="white" stroke="black" points="406,-176.77 406,-195.77 503,-195.77 503,-176.77 406,-176.77"/>
<text text-anchor="middle" x="454.5" y="-183.77" font-family="Helvetica,sans-Serif" font-size="10.00">Game::endOnErr</text>
</a>
</g>
</g>
<!-- Node1&#45;&gt;Node11 -->
<g id="edge13" class="edge">
<title>Node1&#45;&gt;Node11</title>
<path fill="none" stroke="midnightblue" d="M769.85,-240.95C755.77,-238.4 740.87,-235.73 727,-233.27 648.57,-219.39 557.31,-203.68 503.09,-194.4"/>
<polygon fill="midnightblue" stroke="midnightblue" points="769.48,-244.44 779.94,-242.77 770.72,-237.55 769.48,-244.44"/>
</g>
<!-- Node13 -->
<g id="node13" class="node">
<title>Node13</title>
<g id="a_node13"><a xlink:href="classGame.html#a1118c369ae5b2fe433aac540cb32d187" target="_top" xlink:title="Starts the game with a new map.">
<polygon fill="white" stroke="black" points="237,-309.77 237,-328.77 333,-328.77 333,-309.77 237,-309.77"/>
<text text-anchor="middle" x="285" y="-316.77" font-family="Helvetica,sans-Serif" font-size="10.00">Game::startNew</text>
</a>
</g>
</g>
<!-- Node1&#45;&gt;Node13 -->
<g id="edge30" class="edge">
<title>Node1&#45;&gt;Node13</title>
<path fill="none" stroke="midnightblue" d="M820.57,-270.59C803.69,-295.7 769.45,-339.69 727,-357.27 582.87,-416.97 528.9,-388.23 376,-357.27 349.24,-351.86 320.54,-338.22 302.93,-328.85"/>
<polygon fill="midnightblue" stroke="midnightblue" points="823.65,-272.28 826.17,-261.99 817.78,-268.46 823.65,-272.28"/>
</g>
<!-- Node14 -->
<g id="node14" class="node">
<title>Node14</title>
<g id="a_node14"><a xlink:href="classWindow.html#a2238e5489102fe2a77e7898a07dc37b5" target="_top" xlink:title="Gets text input from the user.">
<polygon fill="white" stroke="black" points="597.5,-328.77 597.5,-347.77 698.5,-347.77 698.5,-328.77 597.5,-328.77"/>
<text text-anchor="middle" x="648" y="-335.77" font-family="Helvetica,sans-Serif" font-size="10.00">Window::getInput</text>
</a>
</g>
</g>
<!-- Node1&#45;&gt;Node14 -->
<g id="edge17" class="edge">
<title>Node1&#45;&gt;Node14</title>
<path fill="none" stroke="midnightblue" d="M807.12,-267.08C786.15,-279.24 755.16,-296.47 727,-309.27 710.95,-316.57 692.49,-323.5 677.55,-328.75"/>
<polygon fill="midnightblue" stroke="midnightblue" points="809.13,-269.96 815.99,-261.89 805.6,-263.92 809.13,-269.96"/>
</g>
<!-- Node15 -->
<g id="node15" class="node">
<title>Node15</title>
<g id="a_node15"><a xlink:href="classGame.html#a4c2a7ead717a4c13f1ffddafd11e17c8" target="_top" xlink:title="Initializes the game, loading config, and the map.">
<polygon fill="white" stroke="black" points="393,-328.77 393,-347.77 516,-347.77 516,-328.77 393,-328.77"/>
<text text-anchor="middle" x="454.5" y="-335.77" font-family="Helvetica,sans-Serif" font-size="10.00">Game::initializeGame</text>
</a>
</g>
</g>
<!-- Node1&#45;&gt;Node15 -->
<g id="edge22" class="edge">
<title>Node1&#45;&gt;Node15</title>
<path fill="none" stroke="midnightblue" d="M780.52,-264.03C705.2,-281.24 566.42,-312.94 497.13,-328.76"/>
<polygon fill="midnightblue" stroke="midnightblue" points="781.3,-267.45 790.27,-261.81 779.74,-260.62 781.3,-267.45"/>
</g>
<!-- Node16 -->
<g id="node16" class="node">
<title>Node16</title>
<g id="a_node16"><a xlink:href="classWindow.html#aba37c5e32e43d21a46968fd8ada1d327" target="_top" xlink:title="Prints the message to the current window.">
<polygon fill="white" stroke="black" points="584.5,-242.77 584.5,-261.77 711.5,-261.77 711.5,-242.77 584.5,-242.77"/>
<text text-anchor="middle" x="648" y="-249.77" font-family="Helvetica,sans-Serif" font-size="10.00">Window::printMessage</text>
</a>
</g>
</g>
<!-- Node1&#45;&gt;Node16 -->
<g id="edge23" class="edge">
<title>Node1&#45;&gt;Node16</title>
<path fill="none" stroke="midnightblue" d="M752.47,-252.27C738.81,-252.27 724.8,-252.27 711.66,-252.27"/>
<polygon fill="midnightblue" stroke="midnightblue" points="752.82,-255.77 762.82,-252.27 752.82,-248.77 752.82,-255.77"/>
</g>
<!-- Node3 -->
<g id="node3" class="node">
<title>Node3</title>
<g id="a_node3"><a xlink:href="classWindow.html#a4fbacbbec283653b5500f881c1f7cd7f" target="_top" xlink:title="Draws the main menu.">
<polygon fill="white" stroke="black" points="398.5,-480.77 398.5,-499.77 510.5,-499.77 510.5,-480.77 398.5,-480.77"/>
<text text-anchor="middle" x="454.5" y="-487.77" font-family="Helvetica,sans-Serif" font-size="10.00">Window::drawMenu</text>
</a>
</g>
</g>
<!-- Node2&#45;&gt;Node3 -->
<g id="edge2" class="edge">
<title>Node2&#45;&gt;Node3</title>
<path fill="none" stroke="midnightblue" d="M588.85,-463.81C561.54,-469.23 529.37,-475.62 503.48,-480.75"/>
<polygon fill="midnightblue" stroke="midnightblue" points="589.55,-467.24 598.68,-461.86 588.19,-460.38 589.55,-467.24"/>
</g>
<!-- Node7 -->
<g id="node7" class="node">
<title>Node7</title>
<g id="a_node7"><a xlink:href="classWindow.html#a56e7061bfcf6df5725b61e3f0399e865" target="_top" xlink:title="Gets the user choice from the main menu.">
<polygon fill="white" stroke="black" points="230,-423.77 230,-442.77 340,-442.77 340,-423.77 230,-423.77"/>
<text text-anchor="middle" x="285" y="-430.77" font-family="Helvetica,sans-Serif" font-size="10.00">Window::getChoice</text>
</a>
</g>
</g>
<!-- Node2&#45;&gt;Node7 -->
<g id="edge6" class="edge">
<title>Node2&#45;&gt;Node7</title>
<path fill="none" stroke="midnightblue" d="M558.35,-447.61C490.06,-444.01 397.85,-439.16 340.17,-436.13"/>
<polygon fill="midnightblue" stroke="midnightblue" points="558.5,-451.12 568.67,-448.15 558.87,-444.13 558.5,-451.12"/>
</g>
<!-- Node4 -->
<g id="node4" class="node">
<title>Node4</title>
<g id="a_node4"><a xlink:href="classWindow.html#a4d8c7f316ef9e8a4488d00c430957c16" target="_top" xlink:title="Initializes ncurses window.">
<polygon fill="white" stroke="black" points="246.5,-470.77 246.5,-489.77 323.5,-489.77 323.5,-470.77 246.5,-470.77"/>
<text text-anchor="middle" x="285" y="-477.77" font-family="Helvetica,sans-Serif" font-size="10.00">Window::init</text>
</a>
</g>
</g>
<!-- Node3&#45;&gt;Node4 -->
<g id="edge3" class="edge">
<title>Node3&#45;&gt;Node4</title>
<path fill="none" stroke="midnightblue" d="M387.96,-486.36C366.11,-485.06 342.52,-483.65 323.54,-482.52"/>
<polygon fill="midnightblue" stroke="midnightblue" points="388,-489.87 398.19,-486.97 388.42,-482.88 388,-489.87"/>
</g>
<!-- Node5 -->
<g id="node5" class="node">
<title>Node5</title>
<g id="a_node5"><a xlink:href="classGameManager.html#a8460b2f4f44c19dd405e4163fe6cb5cf" target="_top" xlink:title=" ">
<polygon fill="white" stroke="black" points="77,-385.77 77,-404.77 194,-404.77 194,-385.77 77,-385.77"/>
<text text-anchor="middle" x="135.5" y="-392.77" font-family="Helvetica,sans-Serif" font-size="10.00">GameManager::start</text>
</a>
</g>
</g>
<!-- Node4&#45;&gt;Node5 -->
<g id="edge4" class="edge">
<title>Node4&#45;&gt;Node5</title>
<path fill="none" stroke="midnightblue" d="M255.8,-466.12C247.43,-461.79 238.29,-456.94 230,-452.27 201.84,-436.41 169.85,-416.48 151.53,-404.88"/>
<polygon fill="midnightblue" stroke="midnightblue" points="254.34,-469.3 264.84,-470.74 257.53,-463.07 254.34,-469.3"/>
</g>
<!-- Node6 -->
<g id="node6" class="node">
<title>Node6</title>
<g id="a_node6"><a xlink:href="main_8cpp.html#ae66f6b31b5ad750f1fe042a706a4e3d4" target="_top" xlink:title=" ">
<polygon fill="white" stroke="black" points="0,-385.77 0,-404.77 41,-404.77 41,-385.77 0,-385.77"/>
<text text-anchor="middle" x="20.5" y="-392.77" font-family="Helvetica,sans-Serif" font-size="10.00">main</text>
</a>
</g>
</g>
<!-- Node5&#45;&gt;Node6 -->
<g id="edge5" class="edge">
<title>Node5&#45;&gt;Node6</title>
<path fill="none" stroke="midnightblue" d="M66.53,-395.27C57.29,-395.27 48.48,-395.27 41.14,-395.27"/>
<polygon fill="midnightblue" stroke="midnightblue" points="66.68,-398.77 76.68,-395.27 66.68,-391.77 66.68,-398.77"/>
</g>
<!-- Node7&#45;&gt;Node5 -->
<g id="edge7" class="edge">
<title>Node7&#45;&gt;Node5</title>
<path fill="none" stroke="midnightblue" d="M236.99,-421.16C216.44,-415.87 192.7,-409.75 173.45,-404.79"/>
<polygon fill="midnightblue" stroke="midnightblue" points="236.22,-424.58 246.78,-423.69 237.97,-417.8 236.22,-424.58"/>
</g>
<!-- Node8&#45;&gt;Node9 -->
<g id="edge9" class="edge">
<title>Node8&#45;&gt;Node9</title>
<path fill="none" stroke="midnightblue" d="M401.35,-84.1C374.87,-90.11 343.45,-97.24 320.09,-102.54"/>
<polygon fill="midnightblue" stroke="midnightblue" points="402.25,-87.49 411.23,-81.86 400.71,-80.66 402.25,-87.49"/>
</g>
<!-- Node8&#45;&gt;Node10 -->
<g id="edge11" class="edge">
<title>Node8&#45;&gt;Node10</title>
<path fill="none" stroke="midnightblue" d="M365.94,-72.27C304.97,-72.27 226.34,-72.27 178.76,-72.27"/>
<polygon fill="midnightblue" stroke="midnightblue" points="365.95,-75.77 375.95,-72.27 365.95,-68.77 365.95,-75.77"/>
</g>
<!-- Node9&#45;&gt;Node10 -->
<g id="edge10" class="edge">
<title>Node9&#45;&gt;Node10</title>
<path fill="none" stroke="midnightblue" d="M240.07,-98.96C218.91,-93.51 193.81,-87.04 173.63,-81.84"/>
<polygon fill="midnightblue" stroke="midnightblue" points="239.23,-102.36 249.79,-101.46 240.98,-95.58 239.23,-102.36"/>
</g>
<!-- Node11&#45;&gt;Node9 -->
<g id="edge14" class="edge">
<title>Node11&#45;&gt;Node9</title>
<path fill="none" stroke="midnightblue" d="M406.89,-173.69C396.56,-170.4 385.78,-166.55 376,-162.27 347.89,-149.99 317.43,-131.09 300.13,-119.78"/>
<polygon fill="midnightblue" stroke="midnightblue" points="406.03,-177.09 416.62,-176.68 408.09,-170.4 406.03,-177.09"/>
</g>
<!-- Node12 -->
<g id="node12" class="node">
<title>Node12</title>
<g id="a_node12"><a xlink:href="classGame.html#a2a30c89761624ee64cd7acb147aaf89c" target="_top" xlink:title="Starts the game.">
<polygon fill="white" stroke="black" points="248,-214.77 248,-233.77 322,-233.77 322,-214.77 248,-214.77"/>
<text text-anchor="middle" x="285" y="-221.77" font-family="Helvetica,sans-Serif" font-size="10.00">Game::start</text>
</a>
</g>
</g>
<!-- Node11&#45;&gt;Node12 -->
<g id="edge15" class="edge">
<title>Node11&#45;&gt;Node12</title>
<path fill="none" stroke="midnightblue" d="M401.25,-198.13C375.51,-203.97 345.12,-210.86 322.01,-216.1"/>
<polygon fill="midnightblue" stroke="midnightblue" points="402.25,-201.49 411.23,-195.86 400.71,-194.66 402.25,-201.49"/>
</g>
<!-- Node11&#45;&gt;Node13 -->
<g id="edge16" class="edge">
<title>Node11&#45;&gt;Node13</title>
<path fill="none" stroke="midnightblue" d="M433.37,-202.26C398.32,-230.09 327.08,-286.65 298.39,-309.44"/>
<polygon fill="midnightblue" stroke="midnightblue" points="435.8,-204.8 441.45,-195.84 431.45,-199.32 435.8,-204.8"/>
</g>
<!-- Node14&#45;&gt;Node5 -->
<g id="edge21" class="edge">
<title>Node14&#45;&gt;Node5</title>
<path fill="none" stroke="midnightblue" d="M587.38,-349.02C569.89,-351.95 550.71,-354.95 533,-357.27 412.84,-373.03 271.38,-385.02 194.1,-391.02"/>
<polygon fill="midnightblue" stroke="midnightblue" points="588.18,-352.43 597.45,-347.3 587.01,-345.53 588.18,-352.43"/>
</g>
<!-- Node14&#45;&gt;Node15 -->
<g id="edge18" class="edge">
<title>Node14&#45;&gt;Node15</title>
<path fill="none" stroke="midnightblue" d="M587.08,-338.27C564.56,-338.27 538.95,-338.27 516.34,-338.27"/>
<polygon fill="midnightblue" stroke="midnightblue" points="587.19,-341.77 597.19,-338.27 587.19,-334.77 587.19,-341.77"/>
</g>
<!-- Node15&#45;&gt;Node12 -->
<g id="edge19" class="edge">
<title>Node15&#45;&gt;Node12</title>
<path fill="none" stroke="midnightblue" d="M430.92,-322.9C395.89,-299.06 329.45,-253.85 300.31,-234.01"/>
<polygon fill="midnightblue" stroke="midnightblue" points="429.27,-326.02 439.51,-328.75 433.21,-320.23 429.27,-326.02"/>
</g>
<!-- Node15&#45;&gt;Node13 -->
<g id="edge20" class="edge">
<title>Node15&#45;&gt;Node13</title>
<path fill="none" stroke="midnightblue" d="M382.34,-330.2C365.75,-328.32 348.5,-326.36 333.24,-324.63"/>
<polygon fill="midnightblue" stroke="midnightblue" points="382.22,-333.71 392.55,-331.36 383.01,-326.76 382.22,-333.71"/>
</g>
<!-- Node16&#45;&gt;Node5 -->
<g id="edge27" class="edge">
<title>Node16&#45;&gt;Node5</title>
<path fill="none" stroke="midnightblue" d="M574.39,-254.46C471.24,-258.59 288.31,-270.05 230,-300.27 189.73,-321.14 156.32,-365.74 142.86,-385.5"/>
<polygon fill="midnightblue" stroke="midnightblue" points="574.56,-257.95 584.42,-254.07 574.29,-250.96 574.56,-257.95"/>
</g>
<!-- Node16&#45;&gt;Node9 -->
<g id="edge24" class="edge">
<title>Node16&#45;&gt;Node9</title>
<path fill="none" stroke="midnightblue" d="M629.75,-235.74C608.64,-216.42 570.97,-184.86 533,-167.27 495.26,-149.8 378.62,-127.06 320.15,-116.35"/>
<polygon fill="midnightblue" stroke="midnightblue" points="627.55,-238.47 637.25,-242.73 632.32,-233.35 627.55,-238.47"/>
</g>
<!-- Node16&#45;&gt;Node11 -->
<g id="edge25" class="edge">
<title>Node16&#45;&gt;Node11</title>
<path fill="none" stroke="midnightblue" d="M612.76,-239.12C590.21,-230.59 559.97,-219.41 533,-210.27 518.19,-205.26 501.66,-200.08 487.67,-195.82"/>
<polygon fill="midnightblue" stroke="midnightblue" points="611.64,-242.44 622.23,-242.72 614.12,-235.9 611.64,-242.44"/>
</g>
<!-- Node16&#45;&gt;Node12 -->
<g id="edge28" class="edge">
<title>Node16&#45;&gt;Node12</title>
<path fill="none" stroke="midnightblue" d="M574.09,-246.62C497.76,-240.7 381.02,-231.64 322.34,-227.09"/>
<polygon fill="midnightblue" stroke="midnightblue" points="573.88,-250.11 584.12,-247.4 574.42,-243.13 573.88,-250.11"/>
</g>
<!-- Node16&#45;&gt;Node13 -->
<g id="edge29" class="edge">
<title>Node16&#45;&gt;Node13</title>
<path fill="none" stroke="midnightblue" d="M593.49,-263.94C574.43,-267.99 552.78,-272.47 533,-276.27 463.75,-289.59 383.24,-303.27 333.44,-311.52"/>
<polygon fill="midnightblue" stroke="midnightblue" points="594.45,-267.32 603.49,-261.81 592.98,-260.47 594.45,-267.32"/>
</g>
<!-- Node16&#45;&gt;Node15 -->
<g id="edge26" class="edge">
<title>Node16&#45;&gt;Node15</title>
<path fill="none" stroke="midnightblue" d="M603.17,-265.21C591.64,-269.5 579.5,-274.85 569,-281.27 550.48,-292.6 551.82,-303.47 533,-314.27 522.37,-320.37 510.02,-325.1 498.34,-328.68"/>
<polygon fill="midnightblue" stroke="midnightblue" points="604.41,-268.48 612.67,-261.85 602.07,-261.88 604.41,-268.48"/>
</g>
</g>
</svg>
