<?xml version="1.0" encoding="UTF-8" standalone="no"?>
<!DOCTYPE svg PUBLIC "-//W3C//DTD SVG 1.1//EN"
 "http://www.w3.org/Graphics/SVG/1.1/DTD/svg11.dtd">
<!-- Generated by graphviz version 2.43.0 (0)
 -->
<!-- Title: src/Config.h Pages: 1 -->
<svg width="338pt" height="196pt"
 viewBox="0.00 0.00 338.00 196.00" xmlns="http://www.w3.org/2000/svg" xmlns:xlink="http://www.w3.org/1999/xlink">
<g id="graph0" class="graph" transform="scale(1 1) rotate(0) translate(4 192)">
<title>src/Config.h</title>
<polygon fill="white" stroke="transparent" points="-4,4 -4,-192 334,-192 334,4 -4,4"/>
<!-- Node1 -->
<g id="node1" class="node">
<title>Node1</title>
<g id="a_node1"><a xlink:title="Class for handling the game configuration.">
<polygon fill="#bfbfbf" stroke="black" points="108.5,-168.5 108.5,-187.5 182.5,-187.5 182.5,-168.5 108.5,-168.5"/>
<text text-anchor="middle" x="145.5" y="-175.5" font-family="Helvetica,sans-Serif" font-size="10.00">src/Config.h</text>
</a>
</g>
</g>
<!-- Node2 -->
<g id="node2" class="node">
<title>Node2</title>
<g id="a_node2"><a xlink:href="Config_8cpp.html" target="_top" xlink:title="Class for handling the game configuration.">
<polygon fill="white" stroke="black" points="0,-112.5 0,-131.5 85,-131.5 85,-112.5 0,-112.5"/>
<text text-anchor="middle" x="42.5" y="-119.5" font-family="Helvetica,sans-Serif" font-size="10.00">src/Config.cpp</text>
</a>
</g>
</g>
<!-- Node1&#45;&gt;Node2 -->
<g id="edge1" class="edge">
<title>Node1&#45;&gt;Node2</title>
<path fill="none" stroke="midnightblue" d="M119.92,-163.59C100.88,-153.61 75.44,-140.27 59.01,-131.65"/>
<polygon fill="midnightblue" stroke="midnightblue" points="118.47,-166.78 128.95,-168.32 121.72,-160.58 118.47,-166.78"/>
</g>
<!-- Node3 -->
<g id="node3" class="node">
<title>Node3</title>
<g id="a_node3"><a xlink:href="Game_8cpp.html" target="_top" xlink:title="Class for handling the game logic.">
<polygon fill="white" stroke="black" points="72,-56.5 72,-75.5 155,-75.5 155,-56.5 72,-56.5"/>
<text text-anchor="middle" x="113.5" y="-63.5" font-family="Helvetica,sans-Serif" font-size="10.00">src/Game.cpp</text>
</a>
</g>
</g>
<!-- Node1&#45;&gt;Node3 -->
<g id="edge2" class="edge">
<title>Node1&#45;&gt;Node3</title>
<path fill="none" stroke="midnightblue" d="M140.17,-158.67C133.17,-134.62 121.18,-93.39 116,-75.59"/>
<polygon fill="midnightblue" stroke="midnightblue" points="136.83,-159.74 142.99,-168.37 143.56,-157.79 136.83,-159.74"/>
</g>
<!-- Node4 -->
<g id="node4" class="node">
<title>Node4</title>
<g id="a_node4"><a xlink:href="Game_8h.html" target="_top" xlink:title="Class for handling the game logic.">
<polygon fill="white" stroke="black" points="141.5,-112.5 141.5,-131.5 213.5,-131.5 213.5,-112.5 141.5,-112.5"/>
<text text-anchor="middle" x="177.5" y="-119.5" font-family="Helvetica,sans-Serif" font-size="10.00">src/Game.h</text>
</a>
</g>
</g>
<!-- Node1&#45;&gt;Node4 -->
<g id="edge3" class="edge">
<title>Node1&#45;&gt;Node4</title>
<path fill="none" stroke="midnightblue" d="M156,-159.27C161.47,-150.05 167.92,-139.17 172.31,-131.75"/>
<polygon fill="midnightblue" stroke="midnightblue" points="152.87,-157.7 150.78,-168.08 158.89,-161.26 152.87,-157.7"/>
</g>
<!-- Node8 -->
<g id="node8" class="node">
<title>Node8</title>
<g id="a_node8"><a xlink:href="Window_8cpp.html" target="_top" xlink:title="Class for handling ncurses windows.">
<polygon fill="white" stroke="black" points="231.5,-112.5 231.5,-131.5 323.5,-131.5 323.5,-112.5 231.5,-112.5"/>
<text text-anchor="middle" x="277.5" y="-119.5" font-family="Helvetica,sans-Serif" font-size="10.00">src/Window.cpp</text>
</a>
</g>
</g>
<!-- Node1&#45;&gt;Node8 -->
<g id="edge8" class="edge">
<title>Node1&#45;&gt;Node8</title>
<path fill="none" stroke="midnightblue" d="M175.72,-164.64C200.49,-154.5 234.9,-140.43 256.68,-131.52"/>
<polygon fill="midnightblue" stroke="midnightblue" points="174.35,-161.42 166.42,-168.44 177,-167.9 174.35,-161.42"/>
</g>
<!-- Node4&#45;&gt;Node3 -->
<g id="edge4" class="edge">
<title>Node4&#45;&gt;Node3</title>
<path fill="none" stroke="midnightblue" d="M159.51,-105.82C148.04,-96.15 133.59,-83.95 123.97,-75.83"/>
<polygon fill="midnightblue" stroke="midnightblue" points="157.32,-108.55 167.22,-112.32 161.83,-103.2 157.32,-108.55"/>
</g>
<!-- Node5 -->
<g id="node5" class="node">
<title>Node5</title>
<g id="a_node5"><a xlink:href="GameManager_8h.html" target="_top" xlink:title="Handles the game loop and game states.">
<polygon fill="white" stroke="black" points="173.5,-56.5 173.5,-75.5 287.5,-75.5 287.5,-56.5 173.5,-56.5"/>
<text text-anchor="middle" x="230.5" y="-63.5" font-family="Helvetica,sans-Serif" font-size="10.00">src/GameManager.h</text>
</a>
</g>
</g>
<!-- Node4&#45;&gt;Node5 -->
<g id="edge5" class="edge">
<title>Node4&#45;&gt;Node5</title>
<path fill="none" stroke="midnightblue" d="M193.48,-104.72C202.82,-95.2 214.25,-83.56 221.91,-75.75"/>
<polygon fill="midnightblue" stroke="midnightblue" points="190.76,-102.49 186.25,-112.08 195.75,-107.4 190.76,-102.49"/>
</g>
<!-- Node6 -->
<g id="node6" class="node">
<title>Node6</title>
<g id="a_node6"><a xlink:href="GameManager_8cpp.html" target="_top" xlink:title="Handles the game loop and game states.">
<polygon fill="white" stroke="black" points="108,-0.5 108,-19.5 233,-19.5 233,-0.5 108,-0.5"/>
<text text-anchor="middle" x="170.5" y="-7.5" font-family="Helvetica,sans-Serif" font-size="10.00">src/GameManager.cpp</text>
</a>
</g>
</g>
<!-- Node5&#45;&gt;Node6 -->
<g id="edge6" class="edge">
<title>Node5&#45;&gt;Node6</title>
<path fill="none" stroke="midnightblue" d="M213.32,-49.54C202.62,-39.91 189.24,-27.87 180.32,-19.83"/>
<polygon fill="midnightblue" stroke="midnightblue" points="211.09,-52.24 220.86,-56.32 215.77,-47.03 211.09,-52.24"/>
</g>
<!-- Node7 -->
<g id="node7" class="node">
<title>Node7</title>
<g id="a_node7"><a xlink:href="main_8cpp.html" target="_top" xlink:title="Main function, initializes the game manager.">
<polygon fill="white" stroke="black" points="251,-0.5 251,-19.5 330,-19.5 330,-0.5 251,-0.5"/>
<text text-anchor="middle" x="290.5" y="-7.5" font-family="Helvetica,sans-Serif" font-size="10.00">src/main.cpp</text>
</a>
</g>
</g>
<!-- Node5&#45;&gt;Node7 -->
<g id="edge7" class="edge">
<title>Node5&#45;&gt;Node7</title>
<path fill="none" stroke="midnightblue" d="M247.68,-49.54C258.38,-39.91 271.76,-27.87 280.68,-19.83"/>
<polygon fill="midnightblue" stroke="midnightblue" points="245.23,-47.03 240.14,-56.32 249.91,-52.24 245.23,-47.03"/>
</g>
</g>
</svg>
