<?xml version="1.0" encoding="UTF-8" standalone="no"?>
<!DOCTYPE svg PUBLIC "-//W3C//DTD SVG 1.1//EN"
 "http://www.w3.org/Graphics/SVG/1.1/DTD/svg11.dtd">
<!-- Generated by graphviz version 2.43.0 (0)
 -->
<!-- Title: src/EnemyBehavior.h Pages: 1 -->
<svg width="869pt" height="252pt"
 viewBox="0.00 0.00 869.00 252.00" xmlns="http://www.w3.org/2000/svg" xmlns:xlink="http://www.w3.org/1999/xlink">
<g id="graph0" class="graph" transform="scale(1 1) rotate(0) translate(4 248)">
<title>src/EnemyBehavior.h</title>
<polygon fill="white" stroke="transparent" points="-4,4 -4,-248 865,-248 865,4 -4,4"/>
<!-- Node1 -->
<g id="node1" class="node">
<title>Node1</title>
<g id="a_node1"><a xlink:title="Base class for all enemy behaviors.">
<polygon fill="#bfbfbf" stroke="black" points="447,-224.5 447,-243.5 566,-243.5 566,-224.5 447,-224.5"/>
<text text-anchor="middle" x="506.5" y="-231.5" font-family="Helvetica,sans-Serif" font-size="10.00">src/EnemyBehavior.h</text>
</a>
</g>
</g>
<!-- Node2 -->
<g id="node2" class="node">
<title>Node2</title>
<g id="a_node2"><a xlink:href="ChaseBehavior_8h.html" target="_top" xlink:title="Class for handling the chase behavior of ghosts.">
<polygon fill="white" stroke="black" points="124.5,-168.5 124.5,-187.5 240.5,-187.5 240.5,-168.5 124.5,-168.5"/>
<text text-anchor="middle" x="182.5" y="-175.5" font-family="Helvetica,sans-Serif" font-size="10.00">src/ChaseBehavior.h</text>
</a>
</g>
</g>
<!-- Node1&#45;&gt;Node2 -->
<g id="edge1" class="edge">
<title>Node1&#45;&gt;Node2</title>
<path fill="none" stroke="midnightblue" d="M445.24,-222.79C384.02,-212.59 290.97,-197.08 233.6,-187.52"/>
<polygon fill="midnightblue" stroke="midnightblue" points="444.72,-226.25 455.16,-224.44 445.87,-219.35 444.72,-226.25"/>
</g>
<!-- Node5 -->
<g id="node5" class="node">
<title>Node5</title>
<g id="a_node5"><a xlink:href="EnemyBehavior_8cpp.html" target="_top" xlink:title="Base class for all enemy behaviors.">
<polygon fill="white" stroke="black" points="730,-168.5 730,-187.5 861,-187.5 861,-168.5 730,-168.5"/>
<text text-anchor="middle" x="795.5" y="-175.5" font-family="Helvetica,sans-Serif" font-size="10.00">src/EnemyBehavior.cpp</text>
</a>
</g>
</g>
<!-- Node1&#45;&gt;Node5 -->
<g id="edge4" class="edge">
<title>Node1&#45;&gt;Node5</title>
<path fill="none" stroke="midnightblue" d="M562.16,-222.6C616.77,-212.4 699.07,-197.02 749.92,-187.52"/>
<polygon fill="midnightblue" stroke="midnightblue" points="561.48,-219.17 552.29,-224.44 562.77,-226.05 561.48,-219.17"/>
</g>
<!-- Node6 -->
<g id="node6" class="node">
<title>Node6</title>
<g id="a_node6"><a xlink:href="FrightenedBehavior_8h.html" target="_top" xlink:title="Class representing a frightened ghost behavior.">
<polygon fill="white" stroke="black" points="259,-168.5 259,-187.5 396,-187.5 396,-168.5 259,-168.5"/>
<text text-anchor="middle" x="327.5" y="-175.5" font-family="Helvetica,sans-Serif" font-size="10.00">src/FrightenedBehavior.h</text>
</a>
</g>
</g>
<!-- Node1&#45;&gt;Node6 -->
<g id="edge5" class="edge">
<title>Node1&#45;&gt;Node6</title>
<path fill="none" stroke="midnightblue" d="M468.17,-221.44C434.42,-211.26 386.05,-196.66 355.73,-187.52"/>
<polygon fill="midnightblue" stroke="midnightblue" points="467.55,-224.91 478.14,-224.44 469.57,-218.2 467.55,-224.91"/>
</g>
<!-- Node8 -->
<g id="node8" class="node">
<title>Node8</title>
<g id="a_node8"><a xlink:href="Game_8cpp.html" target="_top" xlink:title="Class for handling the game logic.">
<polygon fill="white" stroke="black" points="498,-56.5 498,-75.5 581,-75.5 581,-56.5 498,-56.5"/>
<text text-anchor="middle" x="539.5" y="-63.5" font-family="Helvetica,sans-Serif" font-size="10.00">src/Game.cpp</text>
</a>
</g>
</g>
<!-- Node1&#45;&gt;Node8 -->
<g id="edge8" class="edge">
<title>Node1&#45;&gt;Node8</title>
<path fill="none" stroke="midnightblue" d="M558.97,-221.78C603.51,-208.9 663.18,-182.65 682.5,-132 699.17,-88.3 629.33,-73.98 581.4,-69.29"/>
<polygon fill="midnightblue" stroke="midnightblue" points="557.86,-218.46 549.14,-224.48 559.71,-225.21 557.86,-218.46"/>
</g>
<!-- Node9 -->
<g id="node9" class="node">
<title>Node9</title>
<g id="a_node9"><a xlink:href="Ghost_8h.html" target="_top" xlink:title="Represents a ghost enemy.">
<polygon fill="white" stroke="black" points="414,-168.5 414,-187.5 485,-187.5 485,-168.5 414,-168.5"/>
<text text-anchor="middle" x="449.5" y="-175.5" font-family="Helvetica,sans-Serif" font-size="10.00">src/Ghost.h</text>
</a>
</g>
</g>
<!-- Node1&#45;&gt;Node9 -->
<g id="edge9" class="edge">
<title>Node1&#45;&gt;Node9</title>
<path fill="none" stroke="midnightblue" d="M489.88,-217.25C479.77,-207.67 467.22,-195.79 458.82,-187.83"/>
<polygon fill="midnightblue" stroke="midnightblue" points="487.68,-219.99 497.34,-224.32 492.49,-214.91 487.68,-219.99"/>
</g>
<!-- Node14 -->
<g id="node14" class="node">
<title>Node14</title>
<g id="a_node14"><a xlink:href="ScatterBehavior_8h.html" target="_top" xlink:title="Class for the scatter behavior of the ghosts.">
<polygon fill="white" stroke="black" points="503.5,-168.5 503.5,-187.5 623.5,-187.5 623.5,-168.5 503.5,-168.5"/>
<text text-anchor="middle" x="563.5" y="-175.5" font-family="Helvetica,sans-Serif" font-size="10.00">src/ScatterBehavior.h</text>
</a>
</g>
</g>
<!-- Node1&#45;&gt;Node14 -->
<g id="edge16" class="edge">
<title>Node1&#45;&gt;Node14</title>
<path fill="none" stroke="midnightblue" d="M523.12,-217.25C533.23,-207.67 545.78,-195.79 554.18,-187.83"/>
<polygon fill="midnightblue" stroke="midnightblue" points="520.51,-214.91 515.66,-224.32 525.32,-219.99 520.51,-214.91"/>
</g>
<!-- Node3 -->
<g id="node3" class="node">
<title>Node3</title>
<g id="a_node3"><a xlink:href="ChaseBehavior_8cpp.html" target="_top" xlink:title="Class for handling the chase behavior of ghosts.">
<polygon fill="white" stroke="black" points="0,-112.5 0,-131.5 127,-131.5 127,-112.5 0,-112.5"/>
<text text-anchor="middle" x="63.5" y="-119.5" font-family="Helvetica,sans-Serif" font-size="10.00">src/ChaseBehavior.cpp</text>
</a>
</g>
</g>
<!-- Node2&#45;&gt;Node3 -->
<g id="edge2" class="edge">
<title>Node2&#45;&gt;Node3</title>
<path fill="none" stroke="midnightblue" d="M154.36,-164.23C132.1,-154.13 101.64,-140.31 82.27,-131.52"/>
<polygon fill="midnightblue" stroke="midnightblue" points="153.09,-167.5 163.64,-168.44 155.98,-161.12 153.09,-167.5"/>
</g>
<!-- Node4 -->
<g id="node4" class="node">
<title>Node4</title>
<g id="a_node4"><a xlink:href="Ghost_8cpp.html" target="_top" xlink:title="Represents a ghost enemy.">
<polygon fill="white" stroke="black" points="312,-112.5 312,-131.5 395,-131.5 395,-112.5 312,-112.5"/>
<text text-anchor="middle" x="353.5" y="-119.5" font-family="Helvetica,sans-Serif" font-size="10.00">src/Ghost.cpp</text>
</a>
</g>
</g>
<!-- Node2&#45;&gt;Node4 -->
<g id="edge3" class="edge">
<title>Node2&#45;&gt;Node4</title>
<path fill="none" stroke="midnightblue" d="M219.54,-165.3C251.76,-155.13 297.69,-140.62 326.53,-131.52"/>
<polygon fill="midnightblue" stroke="midnightblue" points="218.08,-162.09 209.6,-168.44 220.19,-168.77 218.08,-162.09"/>
</g>
<!-- Node6&#45;&gt;Node4 -->
<g id="edge7" class="edge">
<title>Node6&#45;&gt;Node4</title>
<path fill="none" stroke="midnightblue" d="M336.17,-158.98C340.59,-149.82 345.75,-139.09 349.29,-131.75"/>
<polygon fill="midnightblue" stroke="midnightblue" points="332.98,-157.55 331.79,-168.08 339.29,-160.59 332.98,-157.55"/>
</g>
<!-- Node7 -->
<g id="node7" class="node">
<title>Node7</title>
<g id="a_node7"><a xlink:href="FrightenedBehavior_8cpp.html" target="_top" xlink:title="Class representing a frightened ghost behavior.">
<polygon fill="white" stroke="black" points="145,-112.5 145,-131.5 294,-131.5 294,-112.5 145,-112.5"/>
<text text-anchor="middle" x="219.5" y="-119.5" font-family="Helvetica,sans-Serif" font-size="10.00">src/FrightenedBehavior.cpp</text>
</a>
</g>
</g>
<!-- Node6&#45;&gt;Node7 -->
<g id="edge6" class="edge">
<title>Node6&#45;&gt;Node7</title>
<path fill="none" stroke="midnightblue" d="M300.95,-163.73C280.95,-153.73 254.11,-140.31 236.81,-131.65"/>
<polygon fill="midnightblue" stroke="midnightblue" points="299.64,-166.98 310.15,-168.32 302.77,-160.72 299.64,-166.98"/>
</g>
<!-- Node9&#45;&gt;Node4 -->
<g id="edge15" class="edge">
<title>Node9&#45;&gt;Node4</title>
<path fill="none" stroke="midnightblue" d="M424.93,-163.18C407.26,-153.24 383.99,-140.15 368.89,-131.65"/>
<polygon fill="midnightblue" stroke="midnightblue" points="423.64,-166.47 434.08,-168.32 427.08,-160.37 423.64,-166.47"/>
</g>
<!-- Node10 -->
<g id="node10" class="node">
<title>Node10</title>
<g id="a_node10"><a xlink:href="Game_8h.html" target="_top" xlink:title="Class for handling the game logic.">
<polygon fill="white" stroke="black" points="413.5,-112.5 413.5,-131.5 485.5,-131.5 485.5,-112.5 413.5,-112.5"/>
<text text-anchor="middle" x="449.5" y="-119.5" font-family="Helvetica,sans-Serif" font-size="10.00">src/Game.h</text>
</a>
</g>
</g>
<!-- Node9&#45;&gt;Node10 -->
<g id="edge10" class="edge">
<title>Node9&#45;&gt;Node10</title>
<path fill="none" stroke="midnightblue" d="M449.5,-157.8C449.5,-148.91 449.5,-138.78 449.5,-131.75"/>
<polygon fill="midnightblue" stroke="midnightblue" points="446,-158.08 449.5,-168.08 453,-158.08 446,-158.08"/>
</g>
<!-- Node10&#45;&gt;Node8 -->
<g id="edge11" class="edge">
<title>Node10&#45;&gt;Node8</title>
<path fill="none" stroke="midnightblue" d="M472.54,-107.18C489.1,-97.24 510.92,-84.15 525.08,-75.65"/>
<polygon fill="midnightblue" stroke="midnightblue" points="470.73,-104.18 463.96,-112.32 474.34,-110.18 470.73,-104.18"/>
</g>
<!-- Node11 -->
<g id="node11" class="node">
<title>Node11</title>
<g id="a_node11"><a xlink:href="GameManager_8h.html" target="_top" xlink:title="Handles the game loop and game states.">
<polygon fill="white" stroke="black" points="365.5,-56.5 365.5,-75.5 479.5,-75.5 479.5,-56.5 365.5,-56.5"/>
<text text-anchor="middle" x="422.5" y="-63.5" font-family="Helvetica,sans-Serif" font-size="10.00">src/GameManager.h</text>
</a>
</g>
</g>
<!-- Node10&#45;&gt;Node11 -->
<g id="edge12" class="edge">
<title>Node10&#45;&gt;Node11</title>
<path fill="none" stroke="midnightblue" d="M440.49,-102.98C435.91,-93.82 430.55,-83.09 426.88,-75.75"/>
<polygon fill="midnightblue" stroke="midnightblue" points="437.44,-104.7 445.04,-112.08 443.7,-101.57 437.44,-104.7"/>
</g>
<!-- Node12 -->
<g id="node12" class="node">
<title>Node12</title>
<g id="a_node12"><a xlink:href="GameManager_8cpp.html" target="_top" xlink:title="Handles the game loop and game states.">
<polygon fill="white" stroke="black" points="300,-0.5 300,-19.5 425,-19.5 425,-0.5 300,-0.5"/>
<text text-anchor="middle" x="362.5" y="-7.5" font-family="Helvetica,sans-Serif" font-size="10.00">src/GameManager.cpp</text>
</a>
</g>
</g>
<!-- Node11&#45;&gt;Node12 -->
<g id="edge13" class="edge">
<title>Node11&#45;&gt;Node12</title>
<path fill="none" stroke="midnightblue" d="M405.32,-49.54C394.62,-39.91 381.24,-27.87 372.32,-19.83"/>
<polygon fill="midnightblue" stroke="midnightblue" points="403.09,-52.24 412.86,-56.32 407.77,-47.03 403.09,-52.24"/>
</g>
<!-- Node13 -->
<g id="node13" class="node">
<title>Node13</title>
<g id="a_node13"><a xlink:href="main_8cpp.html" target="_top" xlink:title="Main function, initializes the game manager.">
<polygon fill="white" stroke="black" points="443,-0.5 443,-19.5 522,-19.5 522,-0.5 443,-0.5"/>
<text text-anchor="middle" x="482.5" y="-7.5" font-family="Helvetica,sans-Serif" font-size="10.00">src/main.cpp</text>
</a>
</g>
</g>
<!-- Node11&#45;&gt;Node13 -->
<g id="edge14" class="edge">
<title>Node11&#45;&gt;Node13</title>
<path fill="none" stroke="midnightblue" d="M439.68,-49.54C450.38,-39.91 463.76,-27.87 472.68,-19.83"/>
<polygon fill="midnightblue" stroke="midnightblue" points="437.23,-47.03 432.14,-56.32 441.91,-52.24 437.23,-47.03"/>
</g>
<!-- Node14&#45;&gt;Node4 -->
<g id="edge18" class="edge">
<title>Node14&#45;&gt;Node4</title>
<path fill="none" stroke="midnightblue" d="M520.31,-165.89C480.65,-155.7 422.73,-140.8 386.62,-131.52"/>
<polygon fill="midnightblue" stroke="midnightblue" points="519.67,-169.34 530.22,-168.44 521.41,-162.56 519.67,-169.34"/>
</g>
<!-- Node14&#45;&gt;Node8 -->
<g id="edge17" class="edge">
<title>Node14&#45;&gt;Node8</title>
<path fill="none" stroke="midnightblue" d="M548.52,-160.47C542.28,-152.48 535.73,-142.38 532.5,-132 526.43,-112.49 532.36,-88.28 536.41,-75.63"/>
<polygon fill="midnightblue" stroke="midnightblue" points="545.92,-162.81 555.02,-168.23 551.29,-158.32 545.92,-162.81"/>
</g>
<!-- Node15 -->
<g id="node15" class="node">
<title>Node15</title>
<g id="a_node15"><a xlink:href="ScatterBehavior_8cpp.html" target="_top" xlink:title="Class for the scatter behavior of the ghosts.">
<polygon fill="white" stroke="black" points="542,-112.5 542,-131.5 673,-131.5 673,-112.5 542,-112.5"/>
<text text-anchor="middle" x="607.5" y="-119.5" font-family="Helvetica,sans-Serif" font-size="10.00">src/ScatterBehavior.cpp</text>
</a>
</g>
</g>
<!-- Node14&#45;&gt;Node15 -->
<g id="edge19" class="edge">
<title>Node14&#45;&gt;Node15</title>
<path fill="none" stroke="midnightblue" d="M577.23,-160.14C584.9,-150.74 594.13,-139.4 600.37,-131.75"/>
<polygon fill="midnightblue" stroke="midnightblue" points="574.37,-158.12 570.77,-168.08 579.8,-162.54 574.37,-158.12"/>
</g>
</g>
</svg>
