<?xml version="1.0" encoding="UTF-8" standalone="no"?>
<!DOCTYPE svg PUBLIC "-//W3C//DTD SVG 1.1//EN"
 "http://www.w3.org/Graphics/SVG/1.1/DTD/svg11.dtd">
<!-- Generated by graphviz version 2.43.0 (0)
 -->
<!-- Title: src/FrightenedBehavior.cpp Pages: 1 -->
<svg width="846pt" height="476pt"
 viewBox="0.00 0.00 846.00 476.00" xmlns="http://www.w3.org/2000/svg" xmlns:xlink="http://www.w3.org/1999/xlink">
<g id="graph0" class="graph" transform="scale(1 1) rotate(0) translate(4 472)">
<title>src/FrightenedBehavior.cpp</title>
<polygon fill="white" stroke="transparent" points="-4,4 -4,-472 842,-472 842,4 -4,4"/>
<!-- Node1 -->
<g id="node1" class="node">
<title>Node1</title>
<g id="a_node1"><a xlink:title="Class representing a frightened ghost behavior.">
<polygon fill="#bfbfbf" stroke="black" points="626.5,-448.5 626.5,-467.5 775.5,-467.5 775.5,-448.5 626.5,-448.5"/>
<text text-anchor="middle" x="701" y="-455.5" font-family="Helvetica,sans-Serif" font-size="10.00">src/FrightenedBehavior.cpp</text>
</a>
</g>
</g>
<!-- Node2 -->
<g id="node2" class="node">
<title>Node2</title>
<g id="a_node2"><a xlink:href="FrightenedBehavior_8h.html" target="_top" xlink:title="Class representing a frightened ghost behavior.">
<polygon fill="white" stroke="black" points="326,-392.5 326,-411.5 446,-411.5 446,-392.5 326,-392.5"/>
<text text-anchor="middle" x="386" y="-399.5" font-family="Helvetica,sans-Serif" font-size="10.00">FrightenedBehavior.h</text>
</a>
</g>
</g>
<!-- Node1&#45;&gt;Node2 -->
<g id="edge1" class="edge">
<title>Node1&#45;&gt;Node2</title>
<path fill="none" stroke="midnightblue" d="M651.09,-448.44C595.33,-438.89 505.11,-423.42 445.67,-413.23"/>
<polygon fill="midnightblue" stroke="midnightblue" points="446.13,-409.76 435.68,-411.52 444.94,-416.66 446.13,-409.76"/>
</g>
<!-- Node6 -->
<g id="node6" class="node">
<title>Node6</title>
<g id="a_node6"><a xlink:title=" ">
<polygon fill="white" stroke="#bfbfbf" points="587.5,-56.5 587.5,-75.5 634.5,-75.5 634.5,-56.5 587.5,-56.5"/>
<text text-anchor="middle" x="611" y="-63.5" font-family="Helvetica,sans-Serif" font-size="10.00">vector</text>
</a>
</g>
</g>
<!-- Node1&#45;&gt;Node6 -->
<g id="edge32" class="edge">
<title>Node1&#45;&gt;Node6</title>
<path fill="none" stroke="midnightblue" d="M697.36,-448.34C689.99,-430 674,-385.74 674,-347 674,-347 674,-347 674,-177 674,-139.48 646.05,-103.14 627.39,-83.05"/>
<polygon fill="midnightblue" stroke="midnightblue" points="629.76,-80.48 620.3,-75.72 624.73,-85.34 629.76,-80.48"/>
</g>
<!-- Node17 -->
<g id="node17" class="node">
<title>Node17</title>
<g id="a_node17"><a xlink:title=" ">
<polygon fill="white" stroke="#bfbfbf" points="702,-392.5 702,-411.5 756,-411.5 756,-392.5 702,-392.5"/>
<text text-anchor="middle" x="729" y="-399.5" font-family="Helvetica,sans-Serif" font-size="10.00">random</text>
</a>
</g>
</g>
<!-- Node1&#45;&gt;Node17 -->
<g id="edge30" class="edge">
<title>Node1&#45;&gt;Node17</title>
<path fill="none" stroke="midnightblue" d="M705.62,-448.08C709.46,-440.69 715.02,-429.95 719.76,-420.81"/>
<polygon fill="midnightblue" stroke="midnightblue" points="722.97,-422.24 724.46,-411.75 716.75,-419.02 722.97,-422.24"/>
</g>
<!-- Node18 -->
<g id="node18" class="node">
<title>Node18</title>
<g id="a_node18"><a xlink:title=" ">
<polygon fill="white" stroke="#bfbfbf" points="774,-392.5 774,-411.5 838,-411.5 838,-392.5 774,-392.5"/>
<text text-anchor="middle" x="806" y="-399.5" font-family="Helvetica,sans-Serif" font-size="10.00">algorithm</text>
</a>
</g>
</g>
<!-- Node1&#45;&gt;Node18 -->
<g id="edge31" class="edge">
<title>Node1&#45;&gt;Node18</title>
<path fill="none" stroke="midnightblue" d="M717.87,-448.32C734.71,-439.66 760.81,-426.24 780.24,-416.25"/>
<polygon fill="midnightblue" stroke="midnightblue" points="781.88,-419.34 789.17,-411.65 778.68,-413.12 781.88,-419.34"/>
</g>
<!-- Node3 -->
<g id="node3" class="node">
<title>Node3</title>
<g id="a_node3"><a xlink:href="EnemyBehavior_8h.html" target="_top" xlink:title="Base class for all enemy behaviors.">
<polygon fill="white" stroke="black" points="169,-336.5 169,-355.5 271,-355.5 271,-336.5 169,-336.5"/>
<text text-anchor="middle" x="220" y="-343.5" font-family="Helvetica,sans-Serif" font-size="10.00">EnemyBehavior.h</text>
</a>
</g>
</g>
<!-- Node2&#45;&gt;Node3 -->
<g id="edge2" class="edge">
<title>Node2&#45;&gt;Node3</title>
<path fill="none" stroke="midnightblue" d="M359.7,-392.44C331.65,-383.32 287.06,-368.81 255.82,-358.65"/>
<polygon fill="midnightblue" stroke="midnightblue" points="256.77,-355.28 246.18,-355.52 254.61,-361.94 256.77,-355.28"/>
</g>
<!-- Node4 -->
<g id="node4" class="node">
<title>Node4</title>
<g id="a_node4"><a xlink:href="Map_8h.html" target="_top" xlink:title="Class for handling the game map.">
<polygon fill="white" stroke="black" points="397.5,-224.5 397.5,-243.5 444.5,-243.5 444.5,-224.5 397.5,-224.5"/>
<text text-anchor="middle" x="421" y="-231.5" font-family="Helvetica,sans-Serif" font-size="10.00">Map.h</text>
</a>
</g>
</g>
<!-- Node3&#45;&gt;Node4 -->
<g id="edge3" class="edge">
<title>Node3&#45;&gt;Node4</title>
<path fill="none" stroke="midnightblue" d="M235.77,-336.37C270.63,-317.29 354.45,-271.42 396.32,-248.51"/>
<polygon fill="midnightblue" stroke="midnightblue" points="398.21,-251.46 405.3,-243.59 394.85,-245.32 398.21,-251.46"/>
</g>
<!-- Node10 -->
<g id="node10" class="node">
<title>Node10</title>
<g id="a_node10"><a xlink:href="Enums_8h.html" target="_top" xlink:title=" ">
<polygon fill="white" stroke="black" points="160.5,-56.5 160.5,-75.5 219.5,-75.5 219.5,-56.5 160.5,-56.5"/>
<text text-anchor="middle" x="190" y="-63.5" font-family="Helvetica,sans-Serif" font-size="10.00">Enums.h</text>
</a>
</g>
</g>
<!-- Node3&#45;&gt;Node10 -->
<g id="edge17" class="edge">
<title>Node3&#45;&gt;Node10</title>
<path fill="none" stroke="midnightblue" d="M168.97,-341.51C103.98,-333.97 0,-310.16 0,-235 0,-235 0,-235 0,-177 0,-108.11 94.72,-81.66 150.4,-72.07"/>
<polygon fill="midnightblue" stroke="midnightblue" points="151,-75.52 160.31,-70.47 149.88,-68.61 151,-75.52"/>
</g>
<!-- Node13 -->
<g id="node13" class="node">
<title>Node13</title>
<g id="a_node13"><a xlink:title=" ">
<polygon fill="white" stroke="#bfbfbf" points="85,-168.5 85,-187.5 143,-187.5 143,-168.5 85,-168.5"/>
<text text-anchor="middle" x="114" y="-175.5" font-family="Helvetica,sans-Serif" font-size="10.00">memory</text>
</a>
</g>
</g>
<!-- Node3&#45;&gt;Node13 -->
<g id="edge18" class="edge">
<title>Node3&#45;&gt;Node13</title>
<path fill="none" stroke="midnightblue" d="M205.53,-336.38C181.74,-321.22 135.28,-287.28 118,-244 112.16,-229.38 111.49,-211.44 112.09,-198.11"/>
<polygon fill="midnightblue" stroke="midnightblue" points="115.61,-198.02 112.85,-187.79 108.63,-197.5 115.61,-198.02"/>
</g>
<!-- Node14 -->
<g id="node14" class="node">
<title>Node14</title>
<g id="a_node14"><a xlink:href="MovingObject_8h.html" target="_top" xlink:title="Base class for all moving objects.">
<polygon fill="white" stroke="black" points="173.5,-280.5 173.5,-299.5 266.5,-299.5 266.5,-280.5 173.5,-280.5"/>
<text text-anchor="middle" x="220" y="-287.5" font-family="Helvetica,sans-Serif" font-size="10.00">MovingObject.h</text>
</a>
</g>
</g>
<!-- Node3&#45;&gt;Node14 -->
<g id="edge19" class="edge">
<title>Node3&#45;&gt;Node14</title>
<path fill="none" stroke="midnightblue" d="M220,-336.08C220,-329.01 220,-318.86 220,-309.99"/>
<polygon fill="midnightblue" stroke="midnightblue" points="223.5,-309.75 220,-299.75 216.5,-309.75 223.5,-309.75"/>
</g>
<!-- Node5 -->
<g id="node5" class="node">
<title>Node5</title>
<g id="a_node5"><a xlink:title=" ">
<polygon fill="white" stroke="#bfbfbf" points="500,-56.5 500,-75.5 544,-75.5 544,-56.5 500,-56.5"/>
<text text-anchor="middle" x="522" y="-63.5" font-family="Helvetica,sans-Serif" font-size="10.00">string</text>
</a>
</g>
</g>
<!-- Node4&#45;&gt;Node5 -->
<g id="edge4" class="edge">
<title>Node4&#45;&gt;Node5</title>
<path fill="none" stroke="midnightblue" d="M435.19,-224.28C458.54,-208.99 504.25,-174.84 522,-132 528.07,-117.34 527.47,-99.17 525.7,-85.77"/>
<polygon fill="midnightblue" stroke="midnightblue" points="529.14,-85.12 524.06,-75.82 522.23,-86.26 529.14,-85.12"/>
</g>
<!-- Node4&#45;&gt;Node6 -->
<g id="edge5" class="edge">
<title>Node4&#45;&gt;Node6</title>
<path fill="none" stroke="midnightblue" d="M441.31,-224.43C458.89,-216.46 484.5,-203.51 504,-188 543.7,-156.43 580.72,-109.06 599.03,-83.98"/>
<polygon fill="midnightblue" stroke="midnightblue" points="602.1,-85.71 605.09,-75.54 596.41,-81.62 602.1,-85.71"/>
</g>
<!-- Node7 -->
<g id="node7" class="node">
<title>Node7</title>
<g id="a_node7"><a xlink:href="Window_8h.html" target="_top" xlink:title="Class for handling ncurses windows.">
<polygon fill="white" stroke="black" points="389,-168.5 389,-187.5 453,-187.5 453,-168.5 389,-168.5"/>
<text text-anchor="middle" x="421" y="-175.5" font-family="Helvetica,sans-Serif" font-size="10.00">Window.h</text>
</a>
</g>
</g>
<!-- Node4&#45;&gt;Node7 -->
<g id="edge6" class="edge">
<title>Node4&#45;&gt;Node7</title>
<path fill="none" stroke="midnightblue" d="M421,-224.08C421,-217.01 421,-206.86 421,-197.99"/>
<polygon fill="midnightblue" stroke="midnightblue" points="424.5,-197.75 421,-187.75 417.5,-197.75 424.5,-197.75"/>
</g>
<!-- Node7&#45;&gt;Node5 -->
<g id="edge8" class="edge">
<title>Node7&#45;&gt;Node5</title>
<path fill="none" stroke="midnightblue" d="M447.87,-168.42C465.91,-161.35 488.87,-149.6 503,-132 513.69,-118.69 518.36,-99.57 520.41,-85.51"/>
<polygon fill="midnightblue" stroke="midnightblue" points="523.89,-85.86 521.55,-75.53 516.94,-85.07 523.89,-85.86"/>
</g>
<!-- Node7&#45;&gt;Node6 -->
<g id="edge10" class="edge">
<title>Node7&#45;&gt;Node6</title>
<path fill="none" stroke="midnightblue" d="M443.74,-168.48C464.66,-160.26 496.25,-146.91 522,-132 547.8,-117.06 575.17,-96.22 592.64,-82.2"/>
<polygon fill="midnightblue" stroke="midnightblue" points="595.26,-84.58 600.81,-75.56 590.84,-79.15 595.26,-84.58"/>
</g>
<!-- Node8 -->
<g id="node8" class="node">
<title>Node8</title>
<g id="a_node8"><a xlink:title=" ">
<polygon fill="white" stroke="#bfbfbf" points="349.5,-112.5 349.5,-131.5 412.5,-131.5 412.5,-112.5 349.5,-112.5"/>
<text text-anchor="middle" x="381" y="-119.5" font-family="Helvetica,sans-Serif" font-size="10.00">ncurses.h</text>
</a>
</g>
</g>
<!-- Node7&#45;&gt;Node8 -->
<g id="edge7" class="edge">
<title>Node7&#45;&gt;Node8</title>
<path fill="none" stroke="midnightblue" d="M414.39,-168.08C408.74,-160.46 400.46,-149.26 393.55,-139.94"/>
<polygon fill="midnightblue" stroke="midnightblue" points="396.25,-137.7 387.48,-131.75 390.62,-141.87 396.25,-137.7"/>
</g>
<!-- Node9 -->
<g id="node9" class="node">
<title>Node9</title>
<g id="a_node9"><a xlink:title=" ">
<polygon fill="white" stroke="#bfbfbf" points="237,-112.5 237,-131.5 293,-131.5 293,-112.5 237,-112.5"/>
<text text-anchor="middle" x="265" y="-119.5" font-family="Helvetica,sans-Serif" font-size="10.00">optional</text>
</a>
</g>
</g>
<!-- Node7&#45;&gt;Node9 -->
<g id="edge9" class="edge">
<title>Node7&#45;&gt;Node9</title>
<path fill="none" stroke="midnightblue" d="M396.28,-168.44C370.15,-159.4 328.74,-145.06 299.42,-134.92"/>
<polygon fill="midnightblue" stroke="midnightblue" points="300.2,-131.48 289.6,-131.52 297.91,-138.1 300.2,-131.48"/>
</g>
<!-- Node7&#45;&gt;Node10 -->
<g id="edge11" class="edge">
<title>Node7&#45;&gt;Node10</title>
<path fill="none" stroke="midnightblue" d="M405.81,-168.41C378.57,-153.06 322.33,-121.6 302,-112 275.92,-99.69 245.51,-87.61 222.96,-79.07"/>
<polygon fill="midnightblue" stroke="midnightblue" points="224.1,-75.76 213.51,-75.52 221.64,-82.31 224.1,-75.76"/>
</g>
<!-- Node12 -->
<g id="node12" class="node">
<title>Node12</title>
<g id="a_node12"><a xlink:href="Helpers_8h.html" target="_top" xlink:title=" ">
<polygon fill="white" stroke="black" points="430.5,-112.5 430.5,-131.5 493.5,-131.5 493.5,-112.5 430.5,-112.5"/>
<text text-anchor="middle" x="462" y="-119.5" font-family="Helvetica,sans-Serif" font-size="10.00">Helpers.h</text>
</a>
</g>
</g>
<!-- Node7&#45;&gt;Node12 -->
<g id="edge13" class="edge">
<title>Node7&#45;&gt;Node12</title>
<path fill="none" stroke="midnightblue" d="M427.77,-168.08C433.56,-160.46 442.06,-149.26 449.14,-139.94"/>
<polygon fill="midnightblue" stroke="midnightblue" points="452.1,-141.83 455.36,-131.75 446.52,-137.6 452.1,-141.83"/>
</g>
<!-- Node11 -->
<g id="node11" class="node">
<title>Node11</title>
<g id="a_node11"><a xlink:title=" ">
<polygon fill="white" stroke="#bfbfbf" points="167.5,-0.5 167.5,-19.5 212.5,-19.5 212.5,-0.5 167.5,-0.5"/>
<text text-anchor="middle" x="190" y="-7.5" font-family="Helvetica,sans-Serif" font-size="10.00">utility</text>
</a>
</g>
</g>
<!-- Node10&#45;&gt;Node11 -->
<g id="edge12" class="edge">
<title>Node10&#45;&gt;Node11</title>
<path fill="none" stroke="midnightblue" d="M190,-56.08C190,-49.01 190,-38.86 190,-29.99"/>
<polygon fill="midnightblue" stroke="midnightblue" points="193.5,-29.75 190,-19.75 186.5,-29.75 193.5,-29.75"/>
</g>
<!-- Node12&#45;&gt;Node5 -->
<g id="edge15" class="edge">
<title>Node12&#45;&gt;Node5</title>
<path fill="none" stroke="midnightblue" d="M471.64,-112.32C480.51,-104.34 493.87,-92.31 504.61,-82.65"/>
<polygon fill="midnightblue" stroke="midnightblue" points="507.09,-85.13 512.18,-75.83 502.41,-79.92 507.09,-85.13"/>
</g>
<!-- Node12&#45;&gt;Node6 -->
<g id="edge16" class="edge">
<title>Node12&#45;&gt;Node6</title>
<path fill="none" stroke="midnightblue" d="M485.61,-112.44C510.46,-103.44 549.77,-89.19 577.75,-79.05"/>
<polygon fill="midnightblue" stroke="midnightblue" points="579.29,-82.21 587.5,-75.52 576.91,-75.63 579.29,-82.21"/>
</g>
<!-- Node12&#45;&gt;Node10 -->
<g id="edge14" class="edge">
<title>Node12&#45;&gt;Node10</title>
<path fill="none" stroke="midnightblue" d="M430.14,-113.74C427.39,-113.14 424.65,-112.55 422,-112 354.61,-97.89 275.88,-82.94 229.64,-74.32"/>
<polygon fill="midnightblue" stroke="midnightblue" points="230.19,-70.86 219.72,-72.47 228.91,-77.74 230.19,-70.86"/>
</g>
<!-- Node14&#45;&gt;Node4 -->
<g id="edge28" class="edge">
<title>Node14&#45;&gt;Node4</title>
<path fill="none" stroke="midnightblue" d="M251.85,-280.44C288.88,-270.49 349.74,-254.15 387.47,-244.01"/>
<polygon fill="midnightblue" stroke="midnightblue" points="388.72,-247.3 397.46,-241.32 386.9,-240.54 388.72,-247.3"/>
</g>
<!-- Node14&#45;&gt;Node9 -->
<g id="edge27" class="edge">
<title>Node14&#45;&gt;Node9</title>
<path fill="none" stroke="midnightblue" d="M229.14,-280.35C245.56,-264.12 279.47,-227.17 292,-188 297.39,-171.17 288.07,-152.61 278.94,-139.65"/>
<polygon fill="midnightblue" stroke="midnightblue" points="281.69,-137.48 272.84,-131.66 276.13,-141.73 281.69,-137.48"/>
</g>
<!-- Node14&#45;&gt;Node10 -->
<g id="edge25" class="edge">
<title>Node14&#45;&gt;Node10</title>
<path fill="none" stroke="midnightblue" d="M190.14,-280.35C168.55,-273.07 139.52,-261.1 118,-244 93.64,-224.65 85.84,-217.51 76,-188 59.68,-139.03 121.8,-99.43 160.73,-80"/>
<polygon fill="midnightblue" stroke="midnightblue" points="162.57,-83 170.06,-75.51 159.54,-76.69 162.57,-83"/>
</g>
<!-- Node14&#45;&gt;Node13 -->
<g id="edge26" class="edge">
<title>Node14&#45;&gt;Node13</title>
<path fill="none" stroke="midnightblue" d="M190.26,-280.37C171.34,-273.44 147.7,-261.85 133,-244 122.15,-230.82 117.49,-211.69 115.5,-197.59"/>
<polygon fill="midnightblue" stroke="midnightblue" points="118.97,-197.13 114.4,-187.57 112.01,-197.89 118.97,-197.13"/>
</g>
<!-- Node15 -->
<g id="node15" class="node">
<title>Node15</title>
<g id="a_node15"><a xlink:href="GameObject_8h.html" target="_top" xlink:title="Base class for all game objects.">
<polygon fill="white" stroke="black" points="142,-224.5 142,-243.5 228,-243.5 228,-224.5 142,-224.5"/>
<text text-anchor="middle" x="185" y="-231.5" font-family="Helvetica,sans-Serif" font-size="10.00">GameObject.h</text>
</a>
</g>
</g>
<!-- Node14&#45;&gt;Node15 -->
<g id="edge20" class="edge">
<title>Node14&#45;&gt;Node15</title>
<path fill="none" stroke="midnightblue" d="M214.22,-280.08C209.33,-272.53 202.17,-261.49 196.17,-252.23"/>
<polygon fill="midnightblue" stroke="midnightblue" points="199.05,-250.24 190.67,-243.75 193.17,-254.05 199.05,-250.24"/>
</g>
<!-- Node16 -->
<g id="node16" class="node">
<title>Node16</title>
<g id="a_node16"><a xlink:href="GamePhase_8h.html" target="_top" xlink:title="Handles the game phase and level.">
<polygon fill="white" stroke="black" points="199,-168.5 199,-187.5 283,-187.5 283,-168.5 199,-168.5"/>
<text text-anchor="middle" x="241" y="-175.5" font-family="Helvetica,sans-Serif" font-size="10.00">GamePhase.h</text>
</a>
</g>
</g>
<!-- Node14&#45;&gt;Node16 -->
<g id="edge29" class="edge">
<title>Node14&#45;&gt;Node16</title>
<path fill="none" stroke="midnightblue" d="M224.2,-280.27C228.26,-271.38 234.2,-257.06 237,-244 240.3,-228.61 241.2,-210.74 241.32,-197.63"/>
<polygon fill="midnightblue" stroke="midnightblue" points="244.82,-197.51 241.28,-187.52 237.82,-197.54 244.82,-197.51"/>
</g>
<!-- Node15&#45;&gt;Node10 -->
<g id="edge21" class="edge">
<title>Node15&#45;&gt;Node10</title>
<path fill="none" stroke="midnightblue" d="M185.27,-224.08C186.06,-197.95 188.37,-121.21 189.44,-85.58"/>
<polygon fill="midnightblue" stroke="midnightblue" points="192.94,-85.67 189.74,-75.57 185.94,-85.46 192.94,-85.67"/>
</g>
<!-- Node15&#45;&gt;Node13 -->
<g id="edge24" class="edge">
<title>Node15&#45;&gt;Node13</title>
<path fill="none" stroke="midnightblue" d="M173.59,-224.32C162.89,-216.18 146.66,-203.84 133.84,-194.09"/>
<polygon fill="midnightblue" stroke="midnightblue" points="135.69,-191.1 125.61,-187.83 131.46,-196.67 135.69,-191.1"/>
</g>
<!-- Node15&#45;&gt;Node16 -->
<g id="edge22" class="edge">
<title>Node15&#45;&gt;Node16</title>
<path fill="none" stroke="midnightblue" d="M194,-224.32C202.19,-216.42 214.51,-204.55 224.47,-194.94"/>
<polygon fill="midnightblue" stroke="midnightblue" points="227.07,-197.29 231.84,-187.83 222.21,-192.26 227.07,-197.29"/>
</g>
<!-- Node16&#45;&gt;Node10 -->
<g id="edge23" class="edge">
<title>Node16&#45;&gt;Node10</title>
<path fill="none" stroke="midnightblue" d="M237,-168.37C228.69,-150.46 209.44,-108.92 198.32,-84.95"/>
<polygon fill="midnightblue" stroke="midnightblue" points="201.36,-83.19 193.98,-75.59 195.01,-86.14 201.36,-83.19"/>
</g>
</g>
</svg>
