<?xml version="1.0" encoding="UTF-8" standalone="no"?>
<!DOCTYPE svg PUBLIC "-//W3C//DTD SVG 1.1//EN"
 "http://www.w3.org/Graphics/SVG/1.1/DTD/svg11.dtd">
<!-- Generated by graphviz version 2.43.0 (0)
 -->
<!-- Title: src/GameObject.h Pages: 1 -->
<svg width="1261pt" height="364pt"
 viewBox="0.00 0.00 1261.00 364.00" xmlns="http://www.w3.org/2000/svg" xmlns:xlink="http://www.w3.org/1999/xlink">
<g id="graph0" class="graph" transform="scale(1 1) rotate(0) translate(4 360)">
<title>src/GameObject.h</title>
<polygon fill="white" stroke="transparent" points="-4,4 -4,-360 1257,-360 1257,4 -4,4"/>
<!-- Node1 -->
<g id="node1" class="node">
<title>Node1</title>
<g id="a_node1"><a xlink:title="Base class for all game objects.">
<polygon fill="#bfbfbf" stroke="black" points="416.5,-336.5 416.5,-355.5 520.5,-355.5 520.5,-336.5 416.5,-336.5"/>
<text text-anchor="middle" x="468.5" y="-343.5" font-family="Helvetica,sans-Serif" font-size="10.00">src/GameObject.h</text>
</a>
</g>
</g>
<!-- Node2 -->
<g id="node2" class="node">
<title>Node2</title>
<g id="a_node2"><a xlink:href="Game_8h.html" target="_top" xlink:title="Class for handling the game logic.">
<polygon fill="white" stroke="black" points="541.5,-112.5 541.5,-131.5 613.5,-131.5 613.5,-112.5 541.5,-112.5"/>
<text text-anchor="middle" x="577.5" y="-119.5" font-family="Helvetica,sans-Serif" font-size="10.00">src/Game.h</text>
</a>
</g>
</g>
<!-- Node1&#45;&gt;Node2 -->
<g id="edge1" class="edge">
<title>Node1&#45;&gt;Node2</title>
<path fill="none" stroke="midnightblue" d="M456.43,-327.88C434.12,-293.96 391.93,-217.24 428.5,-168 435.39,-158.73 499.55,-141.76 541.41,-131.52"/>
<polygon fill="midnightblue" stroke="midnightblue" points="453.6,-329.95 462.11,-336.26 459.39,-326.02 453.6,-329.95"/>
</g>
<!-- Node7 -->
<g id="node7" class="node">
<title>Node7</title>
<g id="a_node7"><a xlink:href="GameObject_8cpp.html" target="_top" xlink:title="Base class for all game objects.">
<polygon fill="white" stroke="black" points="594,-280.5 594,-299.5 709,-299.5 709,-280.5 594,-280.5"/>
<text text-anchor="middle" x="651.5" y="-287.5" font-family="Helvetica,sans-Serif" font-size="10.00">src/GameObject.cpp</text>
</a>
</g>
</g>
<!-- Node1&#45;&gt;Node7 -->
<g id="edge6" class="edge">
<title>Node1&#45;&gt;Node7</title>
<path fill="none" stroke="midnightblue" d="M507.24,-333.57C541.76,-323.38 591.51,-308.7 622.64,-299.52"/>
<polygon fill="midnightblue" stroke="midnightblue" points="506.1,-330.26 497.5,-336.44 508.08,-336.97 506.1,-330.26"/>
</g>
<!-- Node8 -->
<g id="node8" class="node">
<title>Node8</title>
<g id="a_node8"><a xlink:href="InteractiveObject_8h.html" target="_top" xlink:title="Base class for all interactive objects.">
<polygon fill="white" stroke="black" points="224,-168.5 224,-187.5 351,-187.5 351,-168.5 224,-168.5"/>
<text text-anchor="middle" x="287.5" y="-175.5" font-family="Helvetica,sans-Serif" font-size="10.00">src/InteractiveObject.h</text>
</a>
</g>
</g>
<!-- Node1&#45;&gt;Node8 -->
<g id="edge7" class="edge">
<title>Node1&#45;&gt;Node8</title>
<path fill="none" stroke="midnightblue" d="M451.15,-329.09C413.56,-294.62 325.67,-214.01 296.84,-187.57"/>
<polygon fill="midnightblue" stroke="midnightblue" points="449.03,-331.9 458.77,-336.08 453.76,-326.74 449.03,-331.9"/>
</g>
<!-- Node18 -->
<g id="node18" class="node">
<title>Node18</title>
<g id="a_node18"><a xlink:href="MovingObject_8h.html" target="_top" xlink:title="Base class for all moving objects.">
<polygon fill="white" stroke="black" points="465.5,-280.5 465.5,-299.5 575.5,-299.5 575.5,-280.5 465.5,-280.5"/>
<text text-anchor="middle" x="520.5" y="-287.5" font-family="Helvetica,sans-Serif" font-size="10.00">src/MovingObject.h</text>
</a>
</g>
</g>
<!-- Node1&#45;&gt;Node18 -->
<g id="edge22" class="edge">
<title>Node1&#45;&gt;Node18</title>
<path fill="none" stroke="midnightblue" d="M484.18,-328.72C493.34,-319.2 504.55,-307.56 512.07,-299.75"/>
<polygon fill="midnightblue" stroke="midnightblue" points="481.5,-326.45 477.09,-336.08 486.54,-331.31 481.5,-326.45"/>
</g>
<!-- Node3 -->
<g id="node3" class="node">
<title>Node3</title>
<g id="a_node3"><a xlink:href="Game_8cpp.html" target="_top" xlink:title="Class for handling the game logic.">
<polygon fill="white" stroke="black" points="309,-56.5 309,-75.5 392,-75.5 392,-56.5 309,-56.5"/>
<text text-anchor="middle" x="350.5" y="-63.5" font-family="Helvetica,sans-Serif" font-size="10.00">src/Game.cpp</text>
</a>
</g>
</g>
<!-- Node2&#45;&gt;Node3 -->
<g id="edge2" class="edge">
<title>Node2&#45;&gt;Node3</title>
<path fill="none" stroke="midnightblue" d="M531.63,-110.09C488.75,-99.89 425.58,-84.86 386.3,-75.52"/>
<polygon fill="midnightblue" stroke="midnightblue" points="530.99,-113.53 541.53,-112.44 532.61,-106.72 530.99,-113.53"/>
</g>
<!-- Node4 -->
<g id="node4" class="node">
<title>Node4</title>
<g id="a_node4"><a xlink:href="GameManager_8h.html" target="_top" xlink:title="Handles the game loop and game states.">
<polygon fill="white" stroke="black" points="520.5,-56.5 520.5,-75.5 634.5,-75.5 634.5,-56.5 520.5,-56.5"/>
<text text-anchor="middle" x="577.5" y="-63.5" font-family="Helvetica,sans-Serif" font-size="10.00">src/GameManager.h</text>
</a>
</g>
</g>
<!-- Node2&#45;&gt;Node4 -->
<g id="edge3" class="edge">
<title>Node2&#45;&gt;Node4</title>
<path fill="none" stroke="midnightblue" d="M577.5,-101.8C577.5,-92.91 577.5,-82.78 577.5,-75.75"/>
<polygon fill="midnightblue" stroke="midnightblue" points="574,-102.08 577.5,-112.08 581,-102.08 574,-102.08"/>
</g>
<!-- Node5 -->
<g id="node5" class="node">
<title>Node5</title>
<g id="a_node5"><a xlink:href="GameManager_8cpp.html" target="_top" xlink:title="Handles the game loop and game states.">
<polygon fill="white" stroke="black" points="455,-0.5 455,-19.5 580,-19.5 580,-0.5 455,-0.5"/>
<text text-anchor="middle" x="517.5" y="-7.5" font-family="Helvetica,sans-Serif" font-size="10.00">src/GameManager.cpp</text>
</a>
</g>
</g>
<!-- Node4&#45;&gt;Node5 -->
<g id="edge4" class="edge">
<title>Node4&#45;&gt;Node5</title>
<path fill="none" stroke="midnightblue" d="M560.32,-49.54C549.62,-39.91 536.24,-27.87 527.32,-19.83"/>
<polygon fill="midnightblue" stroke="midnightblue" points="558.09,-52.24 567.86,-56.32 562.77,-47.03 558.09,-52.24"/>
</g>
<!-- Node6 -->
<g id="node6" class="node">
<title>Node6</title>
<g id="a_node6"><a xlink:href="main_8cpp.html" target="_top" xlink:title="Main function, initializes the game manager.">
<polygon fill="white" stroke="black" points="598,-0.5 598,-19.5 677,-19.5 677,-0.5 598,-0.5"/>
<text text-anchor="middle" x="637.5" y="-7.5" font-family="Helvetica,sans-Serif" font-size="10.00">src/main.cpp</text>
</a>
</g>
</g>
<!-- Node4&#45;&gt;Node6 -->
<g id="edge5" class="edge">
<title>Node4&#45;&gt;Node6</title>
<path fill="none" stroke="midnightblue" d="M594.68,-49.54C605.38,-39.91 618.76,-27.87 627.68,-19.83"/>
<polygon fill="midnightblue" stroke="midnightblue" points="592.23,-47.03 587.14,-56.32 596.91,-52.24 592.23,-47.03"/>
</g>
<!-- Node8&#45;&gt;Node2 -->
<g id="edge14" class="edge">
<title>Node8&#45;&gt;Node2</title>
<path fill="none" stroke="midnightblue" d="M345.34,-166.64C395.02,-157.68 468.53,-144.27 532.5,-132 535.32,-131.46 538.23,-130.89 541.16,-130.32"/>
<polygon fill="midnightblue" stroke="midnightblue" points="344.65,-163.21 335.43,-168.43 345.89,-170.1 344.65,-163.21"/>
</g>
<!-- Node9 -->
<g id="node9" class="node">
<title>Node9</title>
<g id="a_node9"><a xlink:href="Cherry_8h.html" target="_top" xlink:title="Class representing a cherry collectible.">
<polygon fill="white" stroke="black" points="27.5,-112.5 27.5,-131.5 101.5,-131.5 101.5,-112.5 27.5,-112.5"/>
<text text-anchor="middle" x="64.5" y="-119.5" font-family="Helvetica,sans-Serif" font-size="10.00">src/Cherry.h</text>
</a>
</g>
</g>
<!-- Node8&#45;&gt;Node9 -->
<g id="edge8" class="edge">
<title>Node8&#45;&gt;Node9</title>
<path fill="none" stroke="midnightblue" d="M242.44,-166.09C200.31,-155.89 138.26,-140.86 99.67,-131.52"/>
<polygon fill="midnightblue" stroke="midnightblue" points="241.62,-169.49 252.16,-168.44 243.27,-162.69 241.62,-169.49"/>
</g>
<!-- Node11 -->
<g id="node11" class="node">
<title>Node11</title>
<g id="a_node11"><a xlink:href="Coin_8h.html" target="_top" xlink:title="Class representing a coin collectible.">
<polygon fill="white" stroke="black" points="120,-112.5 120,-131.5 185,-131.5 185,-112.5 120,-112.5"/>
<text text-anchor="middle" x="152.5" y="-119.5" font-family="Helvetica,sans-Serif" font-size="10.00">src/Coin.h</text>
</a>
</g>
</g>
<!-- Node8&#45;&gt;Node11 -->
<g id="edge11" class="edge">
<title>Node8&#45;&gt;Node11</title>
<path fill="none" stroke="midnightblue" d="M256.59,-164.64C231.26,-154.5 196.07,-140.43 173.79,-131.52"/>
<polygon fill="midnightblue" stroke="midnightblue" points="255.52,-167.98 266.11,-168.44 258.12,-161.48 255.52,-167.98"/>
</g>
<!-- Node13 -->
<g id="node13" class="node">
<title>Node13</title>
<g id="a_node13"><a xlink:href="InteractiveObject_8cpp.html" target="_top" xlink:title="Base class for all interactive objects.">
<polygon fill="white" stroke="black" points="385.5,-112.5 385.5,-131.5 523.5,-131.5 523.5,-112.5 385.5,-112.5"/>
<text text-anchor="middle" x="454.5" y="-119.5" font-family="Helvetica,sans-Serif" font-size="10.00">src/InteractiveObject.cpp</text>
</a>
</g>
</g>
<!-- Node8&#45;&gt;Node13 -->
<g id="edge15" class="edge">
<title>Node8&#45;&gt;Node13</title>
<path fill="none" stroke="midnightblue" d="M323.67,-165.3C355.14,-155.13 399.99,-140.62 428.16,-131.52"/>
<polygon fill="midnightblue" stroke="midnightblue" points="322.4,-162.04 313.96,-168.44 324.55,-168.7 322.4,-162.04"/>
</g>
<!-- Node14 -->
<g id="node14" class="node">
<title>Node14</title>
<g id="a_node14"><a xlink:href="Teleport_8h.html" target="_top" xlink:title="Represents a teleport object.">
<polygon fill="white" stroke="black" points="203.5,-112.5 203.5,-131.5 285.5,-131.5 285.5,-112.5 203.5,-112.5"/>
<text text-anchor="middle" x="244.5" y="-119.5" font-family="Helvetica,sans-Serif" font-size="10.00">src/Teleport.h</text>
</a>
</g>
</g>
<!-- Node8&#45;&gt;Node14 -->
<g id="edge16" class="edge">
<title>Node8&#45;&gt;Node14</title>
<path fill="none" stroke="midnightblue" d="M274.08,-160.14C266.59,-150.74 257.56,-139.4 251.47,-131.75"/>
<polygon fill="midnightblue" stroke="midnightblue" points="271.43,-162.44 280.4,-168.08 276.91,-158.08 271.43,-162.44"/>
</g>
<!-- Node16 -->
<g id="node16" class="node">
<title>Node16</title>
<g id="a_node16"><a xlink:href="Wall_8h.html" target="_top" xlink:title="Represents a wall object.">
<polygon fill="white" stroke="black" points="303.5,-112.5 303.5,-131.5 367.5,-131.5 367.5,-112.5 303.5,-112.5"/>
<text text-anchor="middle" x="335.5" y="-119.5" font-family="Helvetica,sans-Serif" font-size="10.00">src/Wall.h</text>
</a>
</g>
</g>
<!-- Node8&#45;&gt;Node16 -->
<g id="edge19" class="edge">
<title>Node8&#45;&gt;Node16</title>
<path fill="none" stroke="midnightblue" d="M302.23,-160.43C310.64,-150.97 320.85,-139.48 327.72,-131.75"/>
<polygon fill="midnightblue" stroke="midnightblue" points="299.45,-158.28 295.43,-168.08 304.69,-162.93 299.45,-158.28"/>
</g>
<!-- Node9&#45;&gt;Node3 -->
<g id="edge10" class="edge">
<title>Node9&#45;&gt;Node3</title>
<path fill="none" stroke="midnightblue" d="M111.77,-111.77C186.93,-97.39 263.04,-83.21 308.86,-74.71"/>
<polygon fill="midnightblue" stroke="midnightblue" points="110.82,-108.39 101.65,-113.71 112.13,-115.26 110.82,-108.39"/>
</g>
<!-- Node10 -->
<g id="node10" class="node">
<title>Node10</title>
<g id="a_node10"><a xlink:href="Cherry_8cpp.html" target="_top" xlink:title="Class representing a cherry collectible.">
<polygon fill="white" stroke="black" points="0,-56.5 0,-75.5 85,-75.5 85,-56.5 0,-56.5"/>
<text text-anchor="middle" x="42.5" y="-63.5" font-family="Helvetica,sans-Serif" font-size="10.00">src/Cherry.cpp</text>
</a>
</g>
</g>
<!-- Node9&#45;&gt;Node10 -->
<g id="edge9" class="edge">
<title>Node9&#45;&gt;Node10</title>
<path fill="none" stroke="midnightblue" d="M57.04,-102.69C53.33,-93.59 49.02,-83.01 46.07,-75.75"/>
<polygon fill="midnightblue" stroke="midnightblue" points="53.85,-104.14 60.87,-112.08 60.34,-101.5 53.85,-104.14"/>
</g>
<!-- Node11&#45;&gt;Node3 -->
<g id="edge13" class="edge">
<title>Node11&#45;&gt;Node3</title>
<path fill="none" stroke="midnightblue" d="M193.94,-109.7C231.31,-99.51 285.44,-84.74 319.27,-75.52"/>
<polygon fill="midnightblue" stroke="midnightblue" points="192.6,-106.44 183.87,-112.44 194.44,-113.19 192.6,-106.44"/>
</g>
<!-- Node12 -->
<g id="node12" class="node">
<title>Node12</title>
<g id="a_node12"><a xlink:href="Coin_8cpp.html" target="_top" xlink:title="Class representing a coin collectible.">
<polygon fill="white" stroke="black" points="103.5,-56.5 103.5,-75.5 179.5,-75.5 179.5,-56.5 103.5,-56.5"/>
<text text-anchor="middle" x="141.5" y="-63.5" font-family="Helvetica,sans-Serif" font-size="10.00">src/Coin.cpp</text>
</a>
</g>
</g>
<!-- Node11&#45;&gt;Node12 -->
<g id="edge12" class="edge">
<title>Node11&#45;&gt;Node12</title>
<path fill="none" stroke="midnightblue" d="M148.65,-102.1C146.82,-93.14 144.73,-82.86 143.28,-75.75"/>
<polygon fill="midnightblue" stroke="midnightblue" points="145.26,-102.98 150.68,-112.08 152.12,-101.59 145.26,-102.98"/>
</g>
<!-- Node14&#45;&gt;Node3 -->
<g id="edge17" class="edge">
<title>Node14&#45;&gt;Node3</title>
<path fill="none" stroke="midnightblue" d="M270.56,-107.73C290.18,-97.73 316.53,-84.31 333.51,-75.65"/>
<polygon fill="midnightblue" stroke="midnightblue" points="268.85,-104.67 261.53,-112.32 272.03,-110.9 268.85,-104.67"/>
</g>
<!-- Node15 -->
<g id="node15" class="node">
<title>Node15</title>
<g id="a_node15"><a xlink:href="Teleport_8cpp.html" target="_top" xlink:title="Represents a teleport object.">
<polygon fill="white" stroke="black" points="198,-56.5 198,-75.5 291,-75.5 291,-56.5 198,-56.5"/>
<text text-anchor="middle" x="244.5" y="-63.5" font-family="Helvetica,sans-Serif" font-size="10.00">src/Teleport.cpp</text>
</a>
</g>
</g>
<!-- Node14&#45;&gt;Node15 -->
<g id="edge18" class="edge">
<title>Node14&#45;&gt;Node15</title>
<path fill="none" stroke="midnightblue" d="M244.5,-101.8C244.5,-92.91 244.5,-82.78 244.5,-75.75"/>
<polygon fill="midnightblue" stroke="midnightblue" points="241,-102.08 244.5,-112.08 248,-102.08 241,-102.08"/>
</g>
<!-- Node16&#45;&gt;Node3 -->
<g id="edge20" class="edge">
<title>Node16&#45;&gt;Node3</title>
<path fill="none" stroke="midnightblue" d="M340.67,-102.4C343.18,-93.36 346.07,-82.94 348.07,-75.75"/>
<polygon fill="midnightblue" stroke="midnightblue" points="337.28,-101.51 337.98,-112.08 344.03,-103.38 337.28,-101.51"/>
</g>
<!-- Node17 -->
<g id="node17" class="node">
<title>Node17</title>
<g id="a_node17"><a xlink:href="Wall_8cpp.html" target="_top" xlink:title="Represents a wall object.">
<polygon fill="white" stroke="black" points="410,-56.5 410,-75.5 485,-75.5 485,-56.5 410,-56.5"/>
<text text-anchor="middle" x="447.5" y="-63.5" font-family="Helvetica,sans-Serif" font-size="10.00">src/Wall.cpp</text>
</a>
</g>
</g>
<!-- Node16&#45;&gt;Node17 -->
<g id="edge21" class="edge">
<title>Node16&#45;&gt;Node17</title>
<path fill="none" stroke="midnightblue" d="M362.75,-107.86C383.52,-97.85 411.52,-84.35 429.55,-75.65"/>
<polygon fill="midnightblue" stroke="midnightblue" points="360.98,-104.83 353.49,-112.32 364.02,-111.13 360.98,-104.83"/>
</g>
<!-- Node18&#45;&gt;Node8 -->
<g id="edge40" class="edge">
<title>Node18&#45;&gt;Node8</title>
<path fill="none" stroke="midnightblue" d="M502.8,-273.33C485.61,-258.82 458.27,-237.49 431.5,-224 397.82,-207.02 356.47,-194.91 326.73,-187.56"/>
<polygon fill="midnightblue" stroke="midnightblue" points="500.94,-276.35 510.8,-280.23 505.51,-271.05 500.94,-276.35"/>
</g>
<!-- Node19 -->
<g id="node19" class="node">
<title>Node19</title>
<g id="a_node19"><a xlink:href="EnemyBehavior_8h.html" target="_top" xlink:title="Base class for all enemy behaviors.">
<polygon fill="white" stroke="black" points="644,-224.5 644,-243.5 763,-243.5 763,-224.5 644,-224.5"/>
<text text-anchor="middle" x="703.5" y="-231.5" font-family="Helvetica,sans-Serif" font-size="10.00">src/EnemyBehavior.h</text>
</a>
</g>
</g>
<!-- Node18&#45;&gt;Node19 -->
<g id="edge23" class="edge">
<title>Node18&#45;&gt;Node19</title>
<path fill="none" stroke="midnightblue" d="M559.24,-277.57C593.76,-267.38 643.51,-252.7 674.64,-243.52"/>
<polygon fill="midnightblue" stroke="midnightblue" points="558.1,-274.26 549.5,-280.44 560.08,-280.97 558.1,-274.26"/>
</g>
<!-- Node26 -->
<g id="node26" class="node">
<title>Node26</title>
<g id="a_node26"><a xlink:href="Ghost_8h.html" target="_top" xlink:title="Represents a ghost enemy.">
<polygon fill="white" stroke="black" points="548,-168.5 548,-187.5 619,-187.5 619,-168.5 548,-168.5"/>
<text text-anchor="middle" x="583.5" y="-175.5" font-family="Helvetica,sans-Serif" font-size="10.00">src/Ghost.h</text>
</a>
</g>
</g>
<!-- Node18&#45;&gt;Node26 -->
<g id="edge39" class="edge">
<title>Node18&#45;&gt;Node26</title>
<path fill="none" stroke="midnightblue" d="M540.44,-273.79C549.61,-265.84 559.89,-255.39 566.5,-244 577.16,-225.64 581.26,-200.53 582.73,-187.55"/>
<polygon fill="midnightblue" stroke="midnightblue" points="537.97,-271.29 532.47,-280.35 542.42,-276.69 537.97,-271.29"/>
</g>
<!-- Node29 -->
<g id="node29" class="node">
<title>Node29</title>
<g id="a_node29"><a xlink:href="MovingObject_8cpp.html" target="_top" xlink:title="Base class for all moving objects.">
<polygon fill="white" stroke="black" points="781.5,-224.5 781.5,-243.5 903.5,-243.5 903.5,-224.5 781.5,-224.5"/>
<text text-anchor="middle" x="842.5" y="-231.5" font-family="Helvetica,sans-Serif" font-size="10.00">src/MovingObject.cpp</text>
</a>
</g>
</g>
<!-- Node18&#45;&gt;Node29 -->
<g id="edge41" class="edge">
<title>Node18&#45;&gt;Node29</title>
<path fill="none" stroke="midnightblue" d="M581.75,-278.73C642.6,-268.52 734.82,-253.06 791.72,-243.52"/>
<polygon fill="midnightblue" stroke="midnightblue" points="580.81,-275.34 571.52,-280.44 581.96,-282.24 580.81,-275.34"/>
</g>
<!-- Node30 -->
<g id="node30" class="node">
<title>Node30</title>
<g id="a_node30"><a xlink:href="Player_8h.html" target="_top" xlink:title="Represents a player.">
<polygon fill="white" stroke="black" points="484,-224.5 484,-243.5 557,-243.5 557,-224.5 484,-224.5"/>
<text text-anchor="middle" x="520.5" y="-231.5" font-family="Helvetica,sans-Serif" font-size="10.00">src/Player.h</text>
</a>
</g>
</g>
<!-- Node18&#45;&gt;Node30 -->
<g id="edge42" class="edge">
<title>Node18&#45;&gt;Node30</title>
<path fill="none" stroke="midnightblue" d="M520.5,-269.8C520.5,-260.91 520.5,-250.78 520.5,-243.75"/>
<polygon fill="midnightblue" stroke="midnightblue" points="517,-270.08 520.5,-280.08 524,-270.08 517,-270.08"/>
</g>
<!-- Node19&#45;&gt;Node3 -->
<g id="edge31" class="edge">
<title>Node19&#45;&gt;Node3</title>
<path fill="none" stroke="midnightblue" d="M688.9,-216.58C681.8,-208.26 673.35,-197.87 666.5,-188 644.25,-155.93 654.63,-134.16 622.5,-112 540.58,-55.5 499.61,-92.65 401.5,-76 398.49,-75.49 395.37,-74.95 392.24,-74.41"/>
<polygon fill="midnightblue" stroke="midnightblue" points="686.48,-219.12 695.68,-224.37 691.76,-214.53 686.48,-219.12"/>
</g>
<!-- Node20 -->
<g id="node20" class="node">
<title>Node20</title>
<g id="a_node20"><a xlink:href="ChaseBehavior_8h.html" target="_top" xlink:title="Class for handling the chase behavior of ghosts.">
<polygon fill="white" stroke="black" points="675.5,-168.5 675.5,-187.5 791.5,-187.5 791.5,-168.5 675.5,-168.5"/>
<text text-anchor="middle" x="733.5" y="-175.5" font-family="Helvetica,sans-Serif" font-size="10.00">src/ChaseBehavior.h</text>
</a>
</g>
</g>
<!-- Node19&#45;&gt;Node20 -->
<g id="edge24" class="edge">
<title>Node19&#45;&gt;Node20</title>
<path fill="none" stroke="midnightblue" d="M713.35,-215.27C718.47,-206.05 724.52,-195.17 728.64,-187.75"/>
<polygon fill="midnightblue" stroke="midnightblue" points="710.25,-213.64 708.45,-224.08 716.37,-217.04 710.25,-213.64"/>
</g>
<!-- Node23 -->
<g id="node23" class="node">
<title>Node23</title>
<g id="a_node23"><a xlink:href="EnemyBehavior_8cpp.html" target="_top" xlink:title="Base class for all enemy behaviors.">
<polygon fill="white" stroke="black" points="1103,-168.5 1103,-187.5 1234,-187.5 1234,-168.5 1103,-168.5"/>
<text text-anchor="middle" x="1168.5" y="-175.5" font-family="Helvetica,sans-Serif" font-size="10.00">src/EnemyBehavior.cpp</text>
</a>
</g>
</g>
<!-- Node19&#45;&gt;Node23 -->
<g id="edge27" class="edge">
<title>Node19&#45;&gt;Node23</title>
<path fill="none" stroke="midnightblue" d="M773.41,-223.91C917.13,-206.59 954.68,-204.32 1094.5,-188 1097.2,-187.68 1099.95,-187.36 1102.74,-187.03"/>
<polygon fill="midnightblue" stroke="midnightblue" points="772.84,-220.45 763.33,-225.13 773.68,-227.4 772.84,-220.45"/>
</g>
<!-- Node24 -->
<g id="node24" class="node">
<title>Node24</title>
<g id="a_node24"><a xlink:href="FrightenedBehavior_8h.html" target="_top" xlink:title="Class representing a frightened ghost behavior.">
<polygon fill="white" stroke="black" points="948,-168.5 948,-187.5 1085,-187.5 1085,-168.5 948,-168.5"/>
<text text-anchor="middle" x="1016.5" y="-175.5" font-family="Helvetica,sans-Serif" font-size="10.00">src/FrightenedBehavior.h</text>
</a>
</g>
</g>
<!-- Node19&#45;&gt;Node24 -->
<g id="edge28" class="edge">
<title>Node19&#45;&gt;Node24</title>
<path fill="none" stroke="midnightblue" d="M763.04,-222.73C822.19,-212.52 911.83,-197.06 967.14,-187.52"/>
<polygon fill="midnightblue" stroke="midnightblue" points="762.36,-219.29 753.1,-224.44 763.55,-226.19 762.36,-219.29"/>
</g>
<!-- Node19&#45;&gt;Node26 -->
<g id="edge32" class="edge">
<title>Node19&#45;&gt;Node26</title>
<path fill="none" stroke="midnightblue" d="M675.13,-220.23C652.68,-210.13 621.96,-196.31 602.43,-187.52"/>
<polygon fill="midnightblue" stroke="midnightblue" points="673.93,-223.53 684.49,-224.44 676.8,-217.15 673.93,-223.53"/>
</g>
<!-- Node27 -->
<g id="node27" class="node">
<title>Node27</title>
<g id="a_node27"><a xlink:href="ScatterBehavior_8h.html" target="_top" xlink:title="Class for the scatter behavior of the ghosts.">
<polygon fill="white" stroke="black" points="809.5,-168.5 809.5,-187.5 929.5,-187.5 929.5,-168.5 809.5,-168.5"/>
<text text-anchor="middle" x="869.5" y="-175.5" font-family="Helvetica,sans-Serif" font-size="10.00">src/ScatterBehavior.h</text>
</a>
</g>
</g>
<!-- Node19&#45;&gt;Node27 -->
<g id="edge35" class="edge">
<title>Node19&#45;&gt;Node27</title>
<path fill="none" stroke="midnightblue" d="M739.45,-221.3C770.73,-211.13 815.32,-196.62 843.32,-187.52"/>
<polygon fill="midnightblue" stroke="midnightblue" points="738.23,-218.02 729.8,-224.44 740.4,-224.68 738.23,-218.02"/>
</g>
<!-- Node21 -->
<g id="node21" class="node">
<title>Node21</title>
<g id="a_node21"><a xlink:href="ChaseBehavior_8cpp.html" target="_top" xlink:title="Class for handling the chase behavior of ghosts.">
<polygon fill="white" stroke="black" points="670,-112.5 670,-131.5 797,-131.5 797,-112.5 670,-112.5"/>
<text text-anchor="middle" x="733.5" y="-119.5" font-family="Helvetica,sans-Serif" font-size="10.00">src/ChaseBehavior.cpp</text>
</a>
</g>
</g>
<!-- Node20&#45;&gt;Node21 -->
<g id="edge25" class="edge">
<title>Node20&#45;&gt;Node21</title>
<path fill="none" stroke="midnightblue" d="M733.5,-157.8C733.5,-148.91 733.5,-138.78 733.5,-131.75"/>
<polygon fill="midnightblue" stroke="midnightblue" points="730,-158.08 733.5,-168.08 737,-158.08 730,-158.08"/>
</g>
<!-- Node22 -->
<g id="node22" class="node">
<title>Node22</title>
<g id="a_node22"><a xlink:href="Ghost_8cpp.html" target="_top" xlink:title="Represents a ghost enemy.">
<polygon fill="white" stroke="black" points="815,-112.5 815,-131.5 898,-131.5 898,-112.5 815,-112.5"/>
<text text-anchor="middle" x="856.5" y="-119.5" font-family="Helvetica,sans-Serif" font-size="10.00">src/Ghost.cpp</text>
</a>
</g>
</g>
<!-- Node20&#45;&gt;Node22 -->
<g id="edge26" class="edge">
<title>Node20&#45;&gt;Node22</title>
<path fill="none" stroke="midnightblue" d="M762.27,-164.37C785.31,-154.26 816.98,-140.35 837.1,-131.52"/>
<polygon fill="midnightblue" stroke="midnightblue" points="760.74,-161.22 752.99,-168.44 763.55,-167.63 760.74,-161.22"/>
</g>
<!-- Node24&#45;&gt;Node22 -->
<g id="edge30" class="edge">
<title>Node24&#45;&gt;Node22</title>
<path fill="none" stroke="midnightblue" d="M981.45,-165.17C951.33,-155 908.6,-140.59 881.73,-131.52"/>
<polygon fill="midnightblue" stroke="midnightblue" points="980.55,-168.56 991.15,-168.44 982.79,-161.93 980.55,-168.56"/>
</g>
<!-- Node25 -->
<g id="node25" class="node">
<title>Node25</title>
<g id="a_node25"><a xlink:href="FrightenedBehavior_8cpp.html" target="_top" xlink:title="Class representing a frightened ghost behavior.">
<polygon fill="white" stroke="black" points="1104,-112.5 1104,-131.5 1253,-131.5 1253,-112.5 1104,-112.5"/>
<text text-anchor="middle" x="1178.5" y="-119.5" font-family="Helvetica,sans-Serif" font-size="10.00">src/FrightenedBehavior.cpp</text>
</a>
</g>
</g>
<!-- Node24&#45;&gt;Node25 -->
<g id="edge29" class="edge">
<title>Node24&#45;&gt;Node25</title>
<path fill="none" stroke="midnightblue" d="M1051.98,-165.17C1082.49,-155 1125.74,-140.59 1152.95,-131.52"/>
<polygon fill="midnightblue" stroke="midnightblue" points="1050.55,-161.96 1042.17,-168.44 1052.76,-168.6 1050.55,-161.96"/>
</g>
<!-- Node26&#45;&gt;Node2 -->
<g id="edge33" class="edge">
<title>Node26&#45;&gt;Node2</title>
<path fill="none" stroke="midnightblue" d="M581.4,-158.1C580.4,-149.14 579.26,-138.86 578.47,-131.75"/>
<polygon fill="midnightblue" stroke="midnightblue" points="577.93,-158.53 582.51,-168.08 584.88,-157.76 577.93,-158.53"/>
</g>
<!-- Node26&#45;&gt;Node22 -->
<g id="edge34" class="edge">
<title>Node26&#45;&gt;Node22</title>
<path fill="none" stroke="midnightblue" d="M629.11,-167.98C680.97,-157.72 764.91,-141.12 815,-131.21"/>
<polygon fill="midnightblue" stroke="midnightblue" points="628.32,-164.57 619.19,-169.94 629.68,-171.43 628.32,-164.57"/>
</g>
<!-- Node27&#45;&gt;Node3 -->
<g id="edge36" class="edge">
<title>Node27&#45;&gt;Node3</title>
<path fill="none" stroke="midnightblue" d="M888.78,-161.78C904.28,-147.75 921.38,-126.91 907.5,-112 869.08,-70.75 457.44,-82.91 401.5,-76 398.47,-75.63 395.34,-75.19 392.2,-74.72"/>
<polygon fill="midnightblue" stroke="midnightblue" points="886.32,-159.27 880.98,-168.43 890.86,-164.6 886.32,-159.27"/>
</g>
<!-- Node27&#45;&gt;Node22 -->
<g id="edge37" class="edge">
<title>Node27&#45;&gt;Node22</title>
<path fill="none" stroke="midnightblue" d="M864.95,-158.1C862.79,-149.14 860.32,-138.86 858.61,-131.75"/>
<polygon fill="midnightblue" stroke="midnightblue" points="861.61,-159.18 867.35,-168.08 868.42,-157.54 861.61,-159.18"/>
</g>
<!-- Node28 -->
<g id="node28" class="node">
<title>Node28</title>
<g id="a_node28"><a xlink:href="ScatterBehavior_8cpp.html" target="_top" xlink:title="Class for the scatter behavior of the ghosts.">
<polygon fill="white" stroke="black" points="955,-112.5 955,-131.5 1086,-131.5 1086,-112.5 955,-112.5"/>
<text text-anchor="middle" x="1020.5" y="-119.5" font-family="Helvetica,sans-Serif" font-size="10.00">src/ScatterBehavior.cpp</text>
</a>
</g>
</g>
<!-- Node27&#45;&gt;Node28 -->
<g id="edge38" class="edge">
<title>Node27&#45;&gt;Node28</title>
<path fill="none" stroke="midnightblue" d="M902.95,-165.04C931.36,-154.88 971.44,-140.55 996.69,-131.52"/>
<polygon fill="midnightblue" stroke="midnightblue" points="901.66,-161.78 893.43,-168.44 904.02,-168.37 901.66,-161.78"/>
</g>
<!-- Node30&#45;&gt;Node2 -->
<g id="edge43" class="edge">
<title>Node30&#45;&gt;Node2</title>
<path fill="none" stroke="midnightblue" d="M482.41,-220.9C453,-209.48 419.89,-190.74 436.5,-168 443,-159.1 504.07,-141.93 543.68,-131.56"/>
<polygon fill="midnightblue" stroke="midnightblue" points="481.58,-224.33 492.17,-224.49 483.99,-217.76 481.58,-224.33"/>
</g>
<!-- Node30&#45;&gt;Node8 -->
<g id="edge45" class="edge">
<title>Node30&#45;&gt;Node8</title>
<path fill="none" stroke="midnightblue" d="M473.96,-222.21C429.97,-212.02 364.83,-196.92 324.33,-187.54"/>
<polygon fill="midnightblue" stroke="midnightblue" points="473.31,-225.65 483.84,-224.5 474.89,-218.84 473.31,-225.65"/>
</g>
<!-- Node30&#45;&gt;Node26 -->
<g id="edge44" class="edge">
<title>Node30&#45;&gt;Node26</title>
<path fill="none" stroke="midnightblue" d="M538.54,-217.54C549.77,-207.91 563.82,-195.87 573.19,-187.83"/>
<polygon fill="midnightblue" stroke="midnightblue" points="535.94,-215.16 530.62,-224.32 540.49,-220.47 535.94,-215.16"/>
</g>
<!-- Node31 -->
<g id="node31" class="node">
<title>Node31</title>
<g id="a_node31"><a xlink:href="Player_8cpp.html" target="_top" xlink:title="Represents a player.">
<polygon fill="white" stroke="black" points="445.5,-168.5 445.5,-187.5 529.5,-187.5 529.5,-168.5 445.5,-168.5"/>
<text text-anchor="middle" x="487.5" y="-175.5" font-family="Helvetica,sans-Serif" font-size="10.00">src/Player.cpp</text>
</a>
</g>
</g>
<!-- Node30&#45;&gt;Node31 -->
<g id="edge46" class="edge">
<title>Node30&#45;&gt;Node31</title>
<path fill="none" stroke="midnightblue" d="M509.67,-215.27C504.03,-206.05 497.38,-195.17 492.85,-187.75"/>
<polygon fill="midnightblue" stroke="midnightblue" points="506.85,-217.38 515.05,-224.08 512.82,-213.73 506.85,-217.38"/>
</g>
</g>
</svg>
