<?xml version="1.0" encoding="UTF-8" standalone="no"?>
<!DOCTYPE svg PUBLIC "-//W3C//DTD SVG 1.1//EN"
 "http://www.w3.org/Graphics/SVG/1.1/DTD/svg11.dtd">
<!-- Generated by graphviz version 2.43.0 (0)
 -->
<!-- Title: src/GameManager.cpp Pages: 1 -->
<svg width="1286pt" height="588pt"
 viewBox="0.00 0.00 1286.00 588.00" xmlns="http://www.w3.org/2000/svg" xmlns:xlink="http://www.w3.org/1999/xlink">
<g id="graph0" class="graph" transform="scale(1 1) rotate(0) translate(4 584)">
<title>src/GameManager.cpp</title>
<polygon fill="white" stroke="transparent" points="-4,4 -4,-584 1282,-584 1282,4 -4,4"/>
<!-- Node1 -->
<g id="node1" class="node">
<title>Node1</title>
<g id="a_node1"><a xlink:title="Handles the game loop and game states.">
<polygon fill="#bfbfbf" stroke="black" points="977.5,-560.5 977.5,-579.5 1102.5,-579.5 1102.5,-560.5 977.5,-560.5"/>
<text text-anchor="middle" x="1040" y="-567.5" font-family="Helvetica,sans-Serif" font-size="10.00">src/GameManager.cpp</text>
</a>
</g>
</g>
<!-- Node2 -->
<g id="node2" class="node">
<title>Node2</title>
<g id="a_node2"><a xlink:href="GameManager_8h.html" target="_top" xlink:title="Handles the game loop and game states.">
<polygon fill="white" stroke="black" points="781.5,-504.5 781.5,-523.5 878.5,-523.5 878.5,-504.5 781.5,-504.5"/>
<text text-anchor="middle" x="830" y="-511.5" font-family="Helvetica,sans-Serif" font-size="10.00">GameManager.h</text>
</a>
</g>
</g>
<!-- Node1&#45;&gt;Node2 -->
<g id="edge1" class="edge">
<title>Node1&#45;&gt;Node2</title>
<path fill="none" stroke="midnightblue" d="M1006.72,-560.44C970.55,-551.14 912.62,-536.25 873.02,-526.06"/>
<polygon fill="midnightblue" stroke="midnightblue" points="873.68,-522.62 863.12,-523.52 871.93,-529.4 873.68,-522.62"/>
</g>
<!-- Node7 -->
<g id="node7" class="node">
<title>Node7</title>
<g id="a_node7"><a xlink:href="Enums_8h.html" target="_top" xlink:title=" ">
<polygon fill="white" stroke="black" points="264.5,-56.5 264.5,-75.5 323.5,-75.5 323.5,-56.5 264.5,-56.5"/>
<text text-anchor="middle" x="294" y="-63.5" font-family="Helvetica,sans-Serif" font-size="10.00">Enums.h</text>
</a>
</g>
</g>
<!-- Node1&#45;&gt;Node7 -->
<g id="edge65" class="edge">
<title>Node1&#45;&gt;Node7</title>
<path fill="none" stroke="midnightblue" d="M977.29,-568.99C752.44,-568.12 0,-557.84 0,-459 0,-459 0,-459 0,-177 0,-140 20.27,-131.02 52,-112 115.31,-74.06 203.34,-66.83 253.93,-66.14"/>
<polygon fill="midnightblue" stroke="midnightblue" points="254.15,-69.64 264.13,-66.09 254.11,-62.64 254.15,-69.64"/>
</g>
<!-- Node14 -->
<g id="node14" class="node">
<title>Node14</title>
<g id="a_node14"><a xlink:title=" ">
<polygon fill="white" stroke="#bfbfbf" points="852.5,-112.5 852.5,-131.5 915.5,-131.5 915.5,-112.5 852.5,-112.5"/>
<text text-anchor="middle" x="884" y="-119.5" font-family="Helvetica,sans-Serif" font-size="10.00">ncurses.h</text>
</a>
</g>
</g>
<!-- Node1&#45;&gt;Node14 -->
<g id="edge63" class="edge">
<title>Node1&#45;&gt;Node14</title>
<path fill="none" stroke="midnightblue" d="M1030.33,-560.25C1021.51,-551.77 1008.72,-538.16 1001,-524 986.59,-497.58 982,-489.1 982,-459 982,-459 982,-459 982,-345 982,-262.24 924.29,-175.77 897.44,-140.02"/>
<polygon fill="midnightblue" stroke="midnightblue" points="899.91,-137.49 891.05,-131.69 894.36,-141.75 899.91,-137.49"/>
</g>
<!-- Node24 -->
<g id="node24" class="node">
<title>Node24</title>
<g id="a_node24"><a xlink:title=" ">
<polygon fill="white" stroke="#bfbfbf" points="1010,-504.5 1010,-523.5 1070,-523.5 1070,-504.5 1010,-504.5"/>
<text text-anchor="middle" x="1040" y="-511.5" font-family="Helvetica,sans-Serif" font-size="10.00">iostream</text>
</a>
</g>
</g>
<!-- Node1&#45;&gt;Node24 -->
<g id="edge64" class="edge">
<title>Node1&#45;&gt;Node24</title>
<path fill="none" stroke="midnightblue" d="M1040,-560.08C1040,-553.01 1040,-542.86 1040,-533.99"/>
<polygon fill="midnightblue" stroke="midnightblue" points="1043.5,-533.75 1040,-523.75 1036.5,-533.75 1043.5,-533.75"/>
</g>
<!-- Node25 -->
<g id="node25" class="node">
<title>Node25</title>
<g id="a_node25"><a xlink:title=" ">
<polygon fill="white" stroke="#bfbfbf" points="1088,-504.5 1088,-523.5 1138,-523.5 1138,-504.5 1088,-504.5"/>
<text text-anchor="middle" x="1113" y="-511.5" font-family="Helvetica,sans-Serif" font-size="10.00">chrono</text>
</a>
</g>
</g>
<!-- Node1&#45;&gt;Node25 -->
<g id="edge66" class="edge">
<title>Node1&#45;&gt;Node25</title>
<path fill="none" stroke="midnightblue" d="M1051.73,-560.32C1062.84,-552.11 1079.74,-539.6 1092.98,-529.81"/>
<polygon fill="midnightblue" stroke="midnightblue" points="1095.1,-532.59 1101.06,-523.83 1090.94,-526.97 1095.1,-532.59"/>
</g>
<!-- Node26 -->
<g id="node26" class="node">
<title>Node26</title>
<g id="a_node26"><a xlink:title=" ">
<polygon fill="white" stroke="#bfbfbf" points="1156,-504.5 1156,-523.5 1204,-523.5 1204,-504.5 1156,-504.5"/>
<text text-anchor="middle" x="1180" y="-511.5" font-family="Helvetica,sans-Serif" font-size="10.00">thread</text>
</a>
</g>
</g>
<!-- Node1&#45;&gt;Node26 -->
<g id="edge67" class="edge">
<title>Node1&#45;&gt;Node26</title>
<path fill="none" stroke="midnightblue" d="M1062.18,-560.44C1085.43,-551.48 1122.15,-537.31 1148.42,-527.18"/>
<polygon fill="midnightblue" stroke="midnightblue" points="1149.85,-530.38 1157.92,-523.52 1147.33,-523.85 1149.85,-530.38"/>
</g>
<!-- Node27 -->
<g id="node27" class="node">
<title>Node27</title>
<g id="a_node27"><a xlink:title=" ">
<polygon fill="white" stroke="#bfbfbf" points="1222,-504.5 1222,-523.5 1278,-523.5 1278,-504.5 1222,-504.5"/>
<text text-anchor="middle" x="1250" y="-511.5" font-family="Helvetica,sans-Serif" font-size="10.00">unistd.h</text>
</a>
</g>
</g>
<!-- Node1&#45;&gt;Node27 -->
<g id="edge68" class="edge">
<title>Node1&#45;&gt;Node27</title>
<path fill="none" stroke="midnightblue" d="M1073.28,-560.44C1111.04,-550.73 1172.53,-534.92 1212.11,-524.74"/>
<polygon fill="midnightblue" stroke="midnightblue" points="1213.11,-528.1 1221.92,-522.22 1211.36,-521.32 1213.11,-528.1"/>
</g>
<!-- Node3 -->
<g id="node3" class="node">
<title>Node3</title>
<g id="a_node3"><a xlink:href="Game_8h.html" target="_top" xlink:title="Class for handling the game logic.">
<polygon fill="white" stroke="black" points="707.5,-448.5 707.5,-467.5 762.5,-467.5 762.5,-448.5 707.5,-448.5"/>
<text text-anchor="middle" x="735" y="-455.5" font-family="Helvetica,sans-Serif" font-size="10.00">Game.h</text>
</a>
</g>
</g>
<!-- Node2&#45;&gt;Node3 -->
<g id="edge2" class="edge">
<title>Node2&#45;&gt;Node3</title>
<path fill="none" stroke="midnightblue" d="M814.74,-504.32C799.78,-495.82 776.75,-482.73 759.27,-472.8"/>
<polygon fill="midnightblue" stroke="midnightblue" points="760.65,-469.55 750.23,-467.65 757.19,-475.64 760.65,-469.55"/>
</g>
<!-- Node2&#45;&gt;Node7 -->
<g id="edge62" class="edge">
<title>Node2&#45;&gt;Node7</title>
<path fill="none" stroke="midnightblue" d="M781.35,-511.4C609.04,-505.08 38,-478.44 38,-403 38,-403 38,-403 38,-177 38,-83.98 182.44,-68.64 254.33,-66.76"/>
<polygon fill="midnightblue" stroke="midnightblue" points="254.45,-70.26 264.38,-66.58 254.32,-63.26 254.45,-70.26"/>
</g>
<!-- Node13 -->
<g id="node13" class="node">
<title>Node13</title>
<g id="a_node13"><a xlink:href="Window_8h.html" target="_top" xlink:title="Class for handling ncurses windows.">
<polygon fill="white" stroke="black" points="732,-168.5 732,-187.5 796,-187.5 796,-168.5 732,-168.5"/>
<text text-anchor="middle" x="764" y="-175.5" font-family="Helvetica,sans-Serif" font-size="10.00">Window.h</text>
</a>
</g>
</g>
<!-- Node2&#45;&gt;Node13 -->
<g id="edge61" class="edge">
<title>Node2&#45;&gt;Node13</title>
<path fill="none" stroke="midnightblue" d="M841.54,-504.43C862.8,-487.57 906,-447.8 906,-403 906,-403 906,-403 906,-289 906,-237.07 845.91,-206.15 803.91,-190.89"/>
<polygon fill="midnightblue" stroke="midnightblue" points="805.06,-187.58 794.46,-187.6 802.76,-194.19 805.06,-187.58"/>
</g>
<!-- Node4 -->
<g id="node4" class="node">
<title>Node4</title>
<g id="a_node4"><a xlink:title=" ">
<polygon fill="white" stroke="#bfbfbf" points="446,-168.5 446,-187.5 504,-187.5 504,-168.5 446,-168.5"/>
<text text-anchor="middle" x="475" y="-175.5" font-family="Helvetica,sans-Serif" font-size="10.00">memory</text>
</a>
</g>
</g>
<!-- Node3&#45;&gt;Node4 -->
<g id="edge3" class="edge">
<title>Node3&#45;&gt;Node4</title>
<path fill="none" stroke="midnightblue" d="M734.17,-448.23C731.79,-427.04 723.33,-372.12 697,-336 645.24,-264.97 551.35,-214.22 503.99,-191.82"/>
<polygon fill="midnightblue" stroke="midnightblue" points="505.43,-188.63 494.89,-187.59 502.48,-194.98 505.43,-188.63"/>
</g>
<!-- Node5 -->
<g id="node5" class="node">
<title>Node5</title>
<g id="a_node5"><a xlink:title=" ">
<polygon fill="white" stroke="#bfbfbf" points="710.5,-56.5 710.5,-75.5 757.5,-75.5 757.5,-56.5 710.5,-56.5"/>
<text text-anchor="middle" x="734" y="-63.5" font-family="Helvetica,sans-Serif" font-size="10.00">vector</text>
</a>
</g>
</g>
<!-- Node3&#45;&gt;Node5 -->
<g id="edge4" class="edge">
<title>Node3&#45;&gt;Node5</title>
<path fill="none" stroke="midnightblue" d="M738.86,-448.25C742.56,-439.33 747.89,-425.01 750,-412 751.42,-403.23 750.4,-400.88 750,-392 744.82,-275.63 723.21,-248.32 717,-132 716.53,-123.12 715.4,-120.74 717,-112 718.69,-102.76 722.17,-92.95 725.55,-84.85"/>
<polygon fill="midnightblue" stroke="midnightblue" points="728.76,-86.25 729.63,-75.69 722.37,-83.4 728.76,-86.25"/>
</g>
<!-- Node6 -->
<g id="node6" class="node">
<title>Node6</title>
<g id="a_node6"><a xlink:href="GameObject_8h.html" target="_top" xlink:title="Base class for all game objects.">
<polygon fill="white" stroke="black" points="142,-224.5 142,-243.5 228,-243.5 228,-224.5 142,-224.5"/>
<text text-anchor="middle" x="185" y="-231.5" font-family="Helvetica,sans-Serif" font-size="10.00">GameObject.h</text>
</a>
</g>
</g>
<!-- Node3&#45;&gt;Node6 -->
<g id="edge5" class="edge">
<title>Node3&#45;&gt;Node6</title>
<path fill="none" stroke="midnightblue" d="M707.34,-455.89C612.48,-451.89 304.21,-437.05 268,-412 213.36,-374.2 193.75,-290.72 187.55,-253.52"/>
<polygon fill="midnightblue" stroke="midnightblue" points="191,-252.92 186.03,-243.56 184.08,-253.97 191,-252.92"/>
</g>
<!-- Node9 -->
<g id="node9" class="node">
<title>Node9</title>
<g id="a_node9"><a xlink:href="GamePhase_8h.html" target="_top" xlink:title="Handles the game phase and level.">
<polygon fill="white" stroke="black" points="143,-168.5 143,-187.5 227,-187.5 227,-168.5 143,-168.5"/>
<text text-anchor="middle" x="185" y="-175.5" font-family="Helvetica,sans-Serif" font-size="10.00">GamePhase.h</text>
</a>
</g>
</g>
<!-- Node3&#45;&gt;Node9 -->
<g id="edge60" class="edge">
<title>Node3&#45;&gt;Node9</title>
<path fill="none" stroke="midnightblue" d="M707.31,-457.18C631.66,-457.11 415.56,-453.03 242,-412 164.89,-393.77 76,-426.23 76,-347 76,-347 76,-347 76,-289 76,-243.12 124.44,-209.53 156.73,-192.23"/>
<polygon fill="midnightblue" stroke="midnightblue" points="158.47,-195.27 165.76,-187.58 155.27,-189.04 158.47,-195.27"/>
</g>
<!-- Node10 -->
<g id="node10" class="node">
<title>Node10</title>
<g id="a_node10"><a xlink:href="Config_8h.html" target="_top" xlink:title="Class for handling the game configuration.">
<polygon fill="white" stroke="black" points="1114,-112.5 1114,-131.5 1170,-131.5 1170,-112.5 1114,-112.5"/>
<text text-anchor="middle" x="1142" y="-119.5" font-family="Helvetica,sans-Serif" font-size="10.00">Config.h</text>
</a>
</g>
</g>
<!-- Node3&#45;&gt;Node10 -->
<g id="edge11" class="edge">
<title>Node3&#45;&gt;Node10</title>
<path fill="none" stroke="midnightblue" d="M762.94,-449.7C787.61,-442.48 823.92,-429.9 852,-412 977.85,-331.78 1092.34,-188.74 1129.45,-139.89"/>
<polygon fill="midnightblue" stroke="midnightblue" points="1132.43,-141.76 1135.64,-131.66 1126.83,-137.55 1132.43,-141.76"/>
</g>
<!-- Node3&#45;&gt;Node13 -->
<g id="edge15" class="edge">
<title>Node3&#45;&gt;Node13</title>
<path fill="none" stroke="midnightblue" d="M755.64,-448.39C771.4,-440.88 792.61,-428.57 806,-412 825.36,-388.05 830,-377.8 830,-347 830,-347 830,-347 830,-289 830,-250.86 800.46,-214.52 780.91,-194.64"/>
<polygon fill="midnightblue" stroke="midnightblue" points="783.33,-192.12 773.74,-187.63 778.44,-197.12 783.33,-192.12"/>
</g>
<!-- Node17 -->
<g id="node17" class="node">
<title>Node17</title>
<g id="a_node17"><a xlink:href="Player_8h.html" target="_top" xlink:title="Represents a player.">
<polygon fill="white" stroke="black" points="632,-336.5 632,-355.5 688,-355.5 688,-336.5 632,-336.5"/>
<text text-anchor="middle" x="660" y="-343.5" font-family="Helvetica,sans-Serif" font-size="10.00">Player.h</text>
</a>
</g>
</g>
<!-- Node3&#45;&gt;Node17 -->
<g id="edge25" class="edge">
<title>Node3&#45;&gt;Node17</title>
<path fill="none" stroke="midnightblue" d="M728.52,-448.48C721.75,-439.51 710.9,-424.92 702,-412 690.96,-395.97 678.97,-377.27 670.63,-364.06"/>
<polygon fill="midnightblue" stroke="midnightblue" points="673.56,-362.13 665.28,-355.52 667.63,-365.85 673.56,-362.13"/>
</g>
<!-- Node19 -->
<g id="node19" class="node">
<title>Node19</title>
<g id="a_node19"><a xlink:href="Map_8h.html" target="_top" xlink:title="Class for handling the game map.">
<polygon fill="white" stroke="black" points="669.5,-224.5 669.5,-243.5 716.5,-243.5 716.5,-224.5 669.5,-224.5"/>
<text text-anchor="middle" x="693" y="-231.5" font-family="Helvetica,sans-Serif" font-size="10.00">Map.h</text>
</a>
</g>
</g>
<!-- Node3&#45;&gt;Node19 -->
<g id="edge48" class="edge">
<title>Node3&#45;&gt;Node19</title>
<path fill="none" stroke="midnightblue" d="M735.55,-448.38C736.62,-428.4 738.24,-377.45 730,-336 724.01,-305.88 710.45,-272.78 701.51,-252.96"/>
<polygon fill="midnightblue" stroke="midnightblue" points="704.59,-251.26 697.22,-243.65 698.23,-254.2 704.59,-251.26"/>
</g>
<!-- Node20 -->
<g id="node20" class="node">
<title>Node20</title>
<g id="a_node20"><a xlink:href="Ghost_8h.html" target="_top" xlink:title="Represents a ghost enemy.">
<polygon fill="white" stroke="black" points="538,-392.5 538,-411.5 592,-411.5 592,-392.5 538,-392.5"/>
<text text-anchor="middle" x="565" y="-399.5" font-family="Helvetica,sans-Serif" font-size="10.00">Ghost.h</text>
</a>
</g>
</g>
<!-- Node3&#45;&gt;Node20 -->
<g id="edge38" class="edge">
<title>Node3&#45;&gt;Node20</title>
<path fill="none" stroke="midnightblue" d="M708.06,-448.44C679.34,-439.32 633.67,-424.81 601.68,-414.65"/>
<polygon fill="midnightblue" stroke="midnightblue" points="602.4,-411.21 591.81,-411.52 600.28,-417.88 602.4,-411.21"/>
</g>
<!-- Node22 -->
<g id="node22" class="node">
<title>Node22</title>
<g id="a_node22"><a xlink:href="Leaderboard_8h.html" target="_top" xlink:title="Class for handling the game leaderboard.">
<polygon fill="white" stroke="black" points="1010,-112.5 1010,-131.5 1096,-131.5 1096,-112.5 1010,-112.5"/>
<text text-anchor="middle" x="1053" y="-119.5" font-family="Helvetica,sans-Serif" font-size="10.00">Leaderboard.h</text>
</a>
</g>
</g>
<!-- Node3&#45;&gt;Node22 -->
<g id="edge49" class="edge">
<title>Node3&#45;&gt;Node22</title>
<path fill="none" stroke="midnightblue" d="M759.79,-448.42C779.37,-440.85 806.69,-428.46 827,-412 930.24,-328.34 1015.31,-189.1 1043.25,-140.43"/>
<polygon fill="midnightblue" stroke="midnightblue" points="1046.31,-142.14 1048.2,-131.71 1040.22,-138.68 1046.31,-142.14"/>
</g>
<!-- Node23 -->
<g id="node23" class="node">
<title>Node23</title>
<g id="a_node23"><a xlink:href="InteractiveObject_8h.html" target="_top" xlink:title="Base class for all interactive objects.">
<polygon fill="white" stroke="black" points="277,-392.5 277,-411.5 387,-411.5 387,-392.5 277,-392.5"/>
<text text-anchor="middle" x="332" y="-399.5" font-family="Helvetica,sans-Serif" font-size="10.00">InteractiveObject.h</text>
</a>
</g>
</g>
<!-- Node3&#45;&gt;Node23 -->
<g id="edge53" class="edge">
<title>Node3&#45;&gt;Node23</title>
<path fill="none" stroke="midnightblue" d="M707.3,-453.29C643.86,-444.79 486.62,-423.72 397.09,-411.72"/>
<polygon fill="midnightblue" stroke="midnightblue" points="397.43,-408.24 387.05,-410.38 396.5,-415.17 397.43,-408.24"/>
</g>
<!-- Node6&#45;&gt;Node4 -->
<g id="edge10" class="edge">
<title>Node6&#45;&gt;Node4</title>
<path fill="none" stroke="midnightblue" d="M228.1,-224.97C284.28,-214.51 381.73,-196.37 435.87,-186.29"/>
<polygon fill="midnightblue" stroke="midnightblue" points="436.59,-189.71 445.78,-184.44 435.31,-182.83 436.59,-189.71"/>
</g>
<!-- Node6&#45;&gt;Node7 -->
<g id="edge6" class="edge">
<title>Node6&#45;&gt;Node7</title>
<path fill="none" stroke="midnightblue" d="M197.18,-224.49C208.38,-216.19 224.89,-202.69 236,-188 260.84,-155.14 279.04,-109.94 287.92,-85.13"/>
<polygon fill="midnightblue" stroke="midnightblue" points="291.27,-86.16 291.24,-75.56 284.65,-83.86 291.27,-86.16"/>
</g>
<!-- Node6&#45;&gt;Node9 -->
<g id="edge8" class="edge">
<title>Node6&#45;&gt;Node9</title>
<path fill="none" stroke="midnightblue" d="M185,-224.08C185,-217.01 185,-206.86 185,-197.99"/>
<polygon fill="midnightblue" stroke="midnightblue" points="188.5,-197.75 185,-187.75 181.5,-197.75 188.5,-197.75"/>
</g>
<!-- Node8 -->
<g id="node8" class="node">
<title>Node8</title>
<g id="a_node8"><a xlink:title=" ">
<polygon fill="white" stroke="#bfbfbf" points="271.5,-0.5 271.5,-19.5 316.5,-19.5 316.5,-0.5 271.5,-0.5"/>
<text text-anchor="middle" x="294" y="-7.5" font-family="Helvetica,sans-Serif" font-size="10.00">utility</text>
</a>
</g>
</g>
<!-- Node7&#45;&gt;Node8 -->
<g id="edge7" class="edge">
<title>Node7&#45;&gt;Node8</title>
<path fill="none" stroke="midnightblue" d="M294,-56.08C294,-49.01 294,-38.86 294,-29.99"/>
<polygon fill="midnightblue" stroke="midnightblue" points="297.5,-29.75 294,-19.75 290.5,-29.75 297.5,-29.75"/>
</g>
<!-- Node9&#45;&gt;Node7 -->
<g id="edge9" class="edge">
<title>Node9&#45;&gt;Node7</title>
<path fill="none" stroke="midnightblue" d="M192.02,-168.25C202.44,-155.44 222.83,-131.04 242,-112 252.59,-101.48 265.23,-90.51 275.4,-82.03"/>
<polygon fill="midnightblue" stroke="midnightblue" points="277.77,-84.62 283.26,-75.56 273.32,-79.21 277.77,-84.62"/>
</g>
<!-- Node10&#45;&gt;Node5 -->
<g id="edge14" class="edge">
<title>Node10&#45;&gt;Node5</title>
<path fill="none" stroke="midnightblue" d="M1113.79,-113.78C1110.83,-113.13 1107.86,-112.52 1105,-112 981.64,-89.6 833.12,-75.37 767.72,-69.75"/>
<polygon fill="midnightblue" stroke="midnightblue" points="767.84,-66.25 757.58,-68.89 767.25,-73.22 767.84,-66.25"/>
</g>
<!-- Node11 -->
<g id="node11" class="node">
<title>Node11</title>
<g id="a_node11"><a xlink:title=" ">
<polygon fill="white" stroke="#bfbfbf" points="941,-56.5 941,-75.5 985,-75.5 985,-56.5 941,-56.5"/>
<text text-anchor="middle" x="963" y="-63.5" font-family="Helvetica,sans-Serif" font-size="10.00">string</text>
</a>
</g>
</g>
<!-- Node10&#45;&gt;Node11 -->
<g id="edge12" class="edge">
<title>Node10&#45;&gt;Node11</title>
<path fill="none" stroke="midnightblue" d="M1113.64,-112.44C1081.3,-102.69 1028.56,-86.78 994.83,-76.6"/>
<polygon fill="midnightblue" stroke="midnightblue" points="995.61,-73.18 985.02,-73.64 993.59,-79.88 995.61,-73.18"/>
</g>
<!-- Node12 -->
<g id="node12" class="node">
<title>Node12</title>
<g id="a_node12"><a xlink:title=" ">
<polygon fill="white" stroke="#bfbfbf" points="1078,-56.5 1078,-75.5 1116,-75.5 1116,-56.5 1078,-56.5"/>
<text text-anchor="middle" x="1097" y="-63.5" font-family="Helvetica,sans-Serif" font-size="10.00">map</text>
</a>
</g>
</g>
<!-- Node10&#45;&gt;Node12 -->
<g id="edge13" class="edge">
<title>Node10&#45;&gt;Node12</title>
<path fill="none" stroke="midnightblue" d="M1134.57,-112.08C1128.15,-104.38 1118.69,-93.03 1110.88,-83.65"/>
<polygon fill="midnightblue" stroke="midnightblue" points="1113.38,-81.19 1104.29,-75.75 1108.01,-85.67 1113.38,-81.19"/>
</g>
<!-- Node13&#45;&gt;Node5 -->
<g id="edge19" class="edge">
<title>Node13&#45;&gt;Node5</title>
<path fill="none" stroke="midnightblue" d="M752.73,-168.43C743.03,-160.27 729.72,-147.05 724,-132 718.24,-116.84 721.95,-98.5 726.39,-85.16"/>
<polygon fill="midnightblue" stroke="midnightblue" points="729.71,-86.3 729.95,-75.71 723.15,-83.83 729.71,-86.3"/>
</g>
<!-- Node13&#45;&gt;Node7 -->
<g id="edge20" class="edge">
<title>Node13&#45;&gt;Node7</title>
<path fill="none" stroke="midnightblue" d="M741.76,-168.45C705.46,-154.79 631.01,-127.95 566,-112 484.5,-92.01 387.07,-78.29 333.74,-71.63"/>
<polygon fill="midnightblue" stroke="midnightblue" points="334.04,-68.14 323.68,-70.4 333.18,-75.09 334.04,-68.14"/>
</g>
<!-- Node13&#45;&gt;Node11 -->
<g id="edge17" class="edge">
<title>Node13&#45;&gt;Node11</title>
<path fill="none" stroke="midnightblue" d="M772.65,-168.36C786.62,-154.81 815.46,-128.42 844,-112 871.77,-96.03 906.26,-83.71 930.95,-76.04"/>
<polygon fill="midnightblue" stroke="midnightblue" points="932,-79.38 940.56,-73.13 929.97,-72.68 932,-79.38"/>
</g>
<!-- Node13&#45;&gt;Node14 -->
<g id="edge16" class="edge">
<title>Node13&#45;&gt;Node14</title>
<path fill="none" stroke="midnightblue" d="M783.01,-168.44C802.59,-159.64 833.31,-145.81 855.73,-135.72"/>
<polygon fill="midnightblue" stroke="midnightblue" points="857.39,-138.81 865.07,-131.52 854.52,-132.43 857.39,-138.81"/>
</g>
<!-- Node15 -->
<g id="node15" class="node">
<title>Node15</title>
<g id="a_node15"><a xlink:title=" ">
<polygon fill="white" stroke="#bfbfbf" points="433,-112.5 433,-131.5 489,-131.5 489,-112.5 433,-112.5"/>
<text text-anchor="middle" x="461" y="-119.5" font-family="Helvetica,sans-Serif" font-size="10.00">optional</text>
</a>
</g>
</g>
<!-- Node13&#45;&gt;Node15 -->
<g id="edge18" class="edge">
<title>Node13&#45;&gt;Node15</title>
<path fill="none" stroke="midnightblue" d="M731.86,-171.27C675.57,-161.24 559.39,-140.53 499.13,-129.8"/>
<polygon fill="midnightblue" stroke="midnightblue" points="499.71,-126.34 489.26,-128.04 498.49,-133.24 499.71,-126.34"/>
</g>
<!-- Node16 -->
<g id="node16" class="node">
<title>Node16</title>
<g id="a_node16"><a xlink:href="Helpers_8h.html" target="_top" xlink:title=" ">
<polygon fill="white" stroke="black" points="732.5,-112.5 732.5,-131.5 795.5,-131.5 795.5,-112.5 732.5,-112.5"/>
<text text-anchor="middle" x="764" y="-119.5" font-family="Helvetica,sans-Serif" font-size="10.00">Helpers.h</text>
</a>
</g>
</g>
<!-- Node13&#45;&gt;Node16 -->
<g id="edge21" class="edge">
<title>Node13&#45;&gt;Node16</title>
<path fill="none" stroke="midnightblue" d="M764,-168.08C764,-161.01 764,-150.86 764,-141.99"/>
<polygon fill="midnightblue" stroke="midnightblue" points="767.5,-141.75 764,-131.75 760.5,-141.75 767.5,-141.75"/>
</g>
<!-- Node16&#45;&gt;Node5 -->
<g id="edge24" class="edge">
<title>Node16&#45;&gt;Node5</title>
<path fill="none" stroke="midnightblue" d="M759.05,-112.08C754.9,-104.61 748.85,-93.72 743.73,-84.52"/>
<polygon fill="midnightblue" stroke="midnightblue" points="746.78,-82.79 738.86,-75.75 740.66,-86.19 746.78,-82.79"/>
</g>
<!-- Node16&#45;&gt;Node7 -->
<g id="edge22" class="edge">
<title>Node16&#45;&gt;Node7</title>
<path fill="none" stroke="midnightblue" d="M732.43,-117.37C649.39,-107.83 424.99,-82.05 333.57,-71.55"/>
<polygon fill="midnightblue" stroke="midnightblue" points="333.94,-68.07 323.61,-70.4 333.14,-75.02 333.94,-68.07"/>
</g>
<!-- Node16&#45;&gt;Node11 -->
<g id="edge23" class="edge">
<title>Node16&#45;&gt;Node11</title>
<path fill="none" stroke="midnightblue" d="M795.53,-112.44C832.6,-102.39 893.77,-85.79 931.02,-75.68"/>
<polygon fill="midnightblue" stroke="midnightblue" points="932.12,-79.01 940.86,-73.01 930.29,-72.25 932.12,-79.01"/>
</g>
<!-- Node17&#45;&gt;Node11 -->
<g id="edge37" class="edge">
<title>Node17&#45;&gt;Node11</title>
<path fill="none" stroke="midnightblue" d="M679.17,-336.43C730.89,-312.3 874.18,-238.51 946,-132 955.27,-118.25 959.49,-99.72 961.41,-85.96"/>
<polygon fill="midnightblue" stroke="midnightblue" points="964.92,-86.07 962.53,-75.74 957.96,-85.3 964.92,-86.07"/>
</g>
<!-- Node18 -->
<g id="node18" class="node">
<title>Node18</title>
<g id="a_node18"><a xlink:href="MovingObject_8h.html" target="_top" xlink:title="Base class for all moving objects.">
<polygon fill="white" stroke="black" points="361.5,-280.5 361.5,-299.5 454.5,-299.5 454.5,-280.5 361.5,-280.5"/>
<text text-anchor="middle" x="408" y="-287.5" font-family="Helvetica,sans-Serif" font-size="10.00">MovingObject.h</text>
</a>
</g>
</g>
<!-- Node17&#45;&gt;Node18 -->
<g id="edge26" class="edge">
<title>Node17&#45;&gt;Node18</title>
<path fill="none" stroke="midnightblue" d="M631.58,-338.91C589.47,-329.89 509.87,-312.83 457.9,-301.69"/>
<polygon fill="midnightblue" stroke="midnightblue" points="458.41,-298.22 447.89,-299.55 456.94,-305.07 458.41,-298.22"/>
</g>
<!-- Node17&#45;&gt;Node19 -->
<g id="edge36" class="edge">
<title>Node17&#45;&gt;Node19</title>
<path fill="none" stroke="midnightblue" d="M667.18,-336.34C673.87,-327.72 683.47,-313.82 688,-300 692.91,-285.03 693.96,-267.12 693.89,-253.89"/>
<polygon fill="midnightblue" stroke="midnightblue" points="697.38,-253.57 693.62,-243.67 690.39,-253.76 697.38,-253.57"/>
</g>
<!-- Node18&#45;&gt;Node4 -->
<g id="edge29" class="edge">
<title>Node18&#45;&gt;Node4</title>
<path fill="none" stroke="midnightblue" d="M413.26,-280.37C424.27,-262.3 449.92,-220.18 464.46,-196.31"/>
<polygon fill="midnightblue" stroke="midnightblue" points="467.55,-197.95 469.77,-187.59 461.58,-194.31 467.55,-197.95"/>
</g>
<!-- Node18&#45;&gt;Node6 -->
<g id="edge27" class="edge">
<title>Node18&#45;&gt;Node6</title>
<path fill="none" stroke="midnightblue" d="M372.66,-280.44C334.09,-271.1 272.22,-256.12 230.15,-245.93"/>
<polygon fill="midnightblue" stroke="midnightblue" points="230.71,-242.47 220.17,-243.52 229.07,-249.27 230.71,-242.47"/>
</g>
<!-- Node18&#45;&gt;Node7 -->
<g id="edge28" class="edge">
<title>Node18&#45;&gt;Node7</title>
<path fill="none" stroke="midnightblue" d="M403.53,-280.3C386.62,-247.36 326.3,-129.9 303.14,-84.81"/>
<polygon fill="midnightblue" stroke="midnightblue" points="306.24,-83.18 298.56,-75.88 300.02,-86.38 306.24,-83.18"/>
</g>
<!-- Node18&#45;&gt;Node9 -->
<g id="edge35" class="edge">
<title>Node18&#45;&gt;Node9</title>
<path fill="none" stroke="midnightblue" d="M390.5,-280.37C351.58,-261.17 257.66,-214.84 211.5,-192.07"/>
<polygon fill="midnightblue" stroke="midnightblue" points="212.93,-188.88 202.42,-187.59 209.84,-195.15 212.93,-188.88"/>
</g>
<!-- Node18&#45;&gt;Node15 -->
<g id="edge30" class="edge">
<title>Node18&#45;&gt;Node15</title>
<path fill="none" stroke="midnightblue" d="M409.31,-280.27C412.5,-260.04 421.6,-208.6 437,-168 440.57,-158.58 445.71,-148.65 450.31,-140.52"/>
<polygon fill="midnightblue" stroke="midnightblue" points="453.48,-142.04 455.53,-131.65 447.44,-138.5 453.48,-142.04"/>
</g>
<!-- Node18&#45;&gt;Node19 -->
<g id="edge31" class="edge">
<title>Node18&#45;&gt;Node19</title>
<path fill="none" stroke="midnightblue" d="M453.16,-280.44C510.57,-269.56 608.37,-251.03 659.54,-241.34"/>
<polygon fill="midnightblue" stroke="midnightblue" points="660.25,-244.77 669.43,-239.47 658.95,-237.89 660.25,-244.77"/>
</g>
<!-- Node19&#45;&gt;Node5 -->
<g id="edge33" class="edge">
<title>Node19&#45;&gt;Node5</title>
<path fill="none" stroke="midnightblue" d="M685.25,-224.27C667.9,-203.6 629.18,-150.56 652,-112 662.54,-94.2 682.9,-82.97 700.69,-76.18"/>
<polygon fill="midnightblue" stroke="midnightblue" points="701.95,-79.45 710.24,-72.85 699.64,-72.84 701.95,-79.45"/>
</g>
<!-- Node19&#45;&gt;Node11 -->
<g id="edge32" class="edge">
<title>Node19&#45;&gt;Node11</title>
<path fill="none" stroke="midnightblue" d="M716.5,-228.12C761.78,-217.67 862.18,-189.27 925,-132 939.3,-118.96 949.77,-99.26 956.06,-84.97"/>
<polygon fill="midnightblue" stroke="midnightblue" points="959.31,-86.27 959.89,-75.69 952.84,-83.59 959.31,-86.27"/>
</g>
<!-- Node19&#45;&gt;Node13 -->
<g id="edge34" class="edge">
<title>Node19&#45;&gt;Node13</title>
<path fill="none" stroke="midnightblue" d="M704.41,-224.32C715.11,-216.18 731.34,-203.84 744.16,-194.09"/>
<polygon fill="midnightblue" stroke="midnightblue" points="746.54,-196.67 752.39,-187.83 742.31,-191.1 746.54,-196.67"/>
</g>
<!-- Node20&#45;&gt;Node4 -->
<g id="edge45" class="edge">
<title>Node20&#45;&gt;Node4</title>
<path fill="none" stroke="midnightblue" d="M537.61,-396.99C513.87,-391.9 480.92,-380.62 465,-356 460.76,-349.45 469.52,-242.12 473.34,-197.86"/>
<polygon fill="midnightblue" stroke="midnightblue" points="476.85,-197.89 474.23,-187.62 469.88,-197.28 476.85,-197.89"/>
</g>
<!-- Node20&#45;&gt;Node17 -->
<g id="edge46" class="edge">
<title>Node20&#45;&gt;Node17</title>
<path fill="none" stroke="midnightblue" d="M580.26,-392.32C595.22,-383.82 618.25,-370.73 635.73,-360.8"/>
<polygon fill="midnightblue" stroke="midnightblue" points="637.81,-363.64 644.77,-355.65 634.35,-357.55 637.81,-363.64"/>
</g>
<!-- Node20&#45;&gt;Node18 -->
<g id="edge39" class="edge">
<title>Node20&#45;&gt;Node18</title>
<path fill="none" stroke="midnightblue" d="M538,-398.69C508.32,-394.76 461,-384.22 432,-356 419.48,-343.82 413.44,-324.55 410.56,-310.15"/>
<polygon fill="midnightblue" stroke="midnightblue" points="413.95,-309.17 408.86,-299.87 407.04,-310.31 413.95,-309.17"/>
</g>
<!-- Node20&#45;&gt;Node19 -->
<g id="edge47" class="edge">
<title>Node20&#45;&gt;Node19</title>
<path fill="none" stroke="midnightblue" d="M571.88,-392.08C592.38,-365.49 653.26,-286.54 680.07,-251.76"/>
<polygon fill="midnightblue" stroke="midnightblue" points="683.06,-253.62 686.39,-243.57 677.52,-249.35 683.06,-253.62"/>
</g>
<!-- Node21 -->
<g id="node21" class="node">
<title>Node21</title>
<g id="a_node21"><a xlink:href="EnemyBehavior_8h.html" target="_top" xlink:title="Base class for all enemy behaviors.">
<polygon fill="white" stroke="black" points="474,-336.5 474,-355.5 576,-355.5 576,-336.5 474,-336.5"/>
<text text-anchor="middle" x="525" y="-343.5" font-family="Helvetica,sans-Serif" font-size="10.00">EnemyBehavior.h</text>
</a>
</g>
</g>
<!-- Node20&#45;&gt;Node21 -->
<g id="edge40" class="edge">
<title>Node20&#45;&gt;Node21</title>
<path fill="none" stroke="midnightblue" d="M558.39,-392.08C552.74,-384.46 544.46,-373.26 537.55,-363.94"/>
<polygon fill="midnightblue" stroke="midnightblue" points="540.25,-361.7 531.48,-355.75 534.62,-365.87 540.25,-361.7"/>
</g>
<!-- Node21&#45;&gt;Node4 -->
<g id="edge43" class="edge">
<title>Node21&#45;&gt;Node4</title>
<path fill="none" stroke="midnightblue" d="M523.83,-336.28C520.95,-316.08 512.67,-264.7 498,-224 494.62,-214.61 489.7,-204.68 485.28,-196.55"/>
<polygon fill="midnightblue" stroke="midnightblue" points="488.23,-194.66 480.27,-187.67 482.13,-198.1 488.23,-194.66"/>
</g>
<!-- Node21&#45;&gt;Node7 -->
<g id="edge42" class="edge">
<title>Node21&#45;&gt;Node7</title>
<path fill="none" stroke="midnightblue" d="M527.39,-336.15C536.15,-301.49 562.75,-173.92 498,-112 474.78,-89.79 385.97,-76.77 333.5,-70.85"/>
<polygon fill="midnightblue" stroke="midnightblue" points="333.84,-67.37 323.52,-69.77 333.08,-74.33 333.84,-67.37"/>
</g>
<!-- Node21&#45;&gt;Node18 -->
<g id="edge44" class="edge">
<title>Node21&#45;&gt;Node18</title>
<path fill="none" stroke="midnightblue" d="M506.46,-336.44C487.38,-327.64 457.43,-313.81 435.56,-303.72"/>
<polygon fill="midnightblue" stroke="midnightblue" points="437,-300.53 426.45,-299.52 434.07,-306.88 437,-300.53"/>
</g>
<!-- Node21&#45;&gt;Node19 -->
<g id="edge41" class="edge">
<title>Node21&#45;&gt;Node19</title>
<path fill="none" stroke="midnightblue" d="M538.18,-336.37C567.01,-317.49 635.9,-272.38 671.26,-249.24"/>
<polygon fill="midnightblue" stroke="midnightblue" points="673.43,-252 679.88,-243.59 669.6,-246.14 673.43,-252"/>
</g>
<!-- Node22&#45;&gt;Node5 -->
<g id="edge50" class="edge">
<title>Node22&#45;&gt;Node5</title>
<path fill="none" stroke="midnightblue" d="M1009.98,-113.72C945.78,-102.85 826.22,-82.61 767.84,-72.73"/>
<polygon fill="midnightblue" stroke="midnightblue" points="768.12,-69.23 757.67,-71.01 766.95,-76.13 768.12,-69.23"/>
</g>
<!-- Node22&#45;&gt;Node11 -->
<g id="edge51" class="edge">
<title>Node22&#45;&gt;Node11</title>
<path fill="none" stroke="midnightblue" d="M1038.54,-112.32C1024.5,-103.9 1002.95,-90.97 986.46,-81.07"/>
<polygon fill="midnightblue" stroke="midnightblue" points="987.8,-77.8 977.42,-75.65 984.2,-83.8 987.8,-77.8"/>
</g>
<!-- Node22&#45;&gt;Node12 -->
<g id="edge52" class="edge">
<title>Node22&#45;&gt;Node12</title>
<path fill="none" stroke="midnightblue" d="M1060.27,-112.08C1066.54,-104.38 1075.79,-93.03 1083.43,-83.65"/>
<polygon fill="midnightblue" stroke="midnightblue" points="1086.27,-85.71 1089.87,-75.75 1080.84,-81.29 1086.27,-85.71"/>
</g>
<!-- Node23&#45;&gt;Node4 -->
<g id="edge56" class="edge">
<title>Node23&#45;&gt;Node4</title>
<path fill="none" stroke="midnightblue" d="M331.54,-392.4C330.8,-371.59 331.29,-317.44 353,-280 376.05,-240.25 420.99,-209.36 449.43,-192.7"/>
<polygon fill="midnightblue" stroke="midnightblue" points="451.42,-195.59 458.38,-187.6 447.96,-189.51 451.42,-195.59"/>
</g>
<!-- Node23&#45;&gt;Node6 -->
<g id="edge54" class="edge">
<title>Node23&#45;&gt;Node6</title>
<path fill="none" stroke="midnightblue" d="M320.7,-392.27C309.77,-383.59 293.02,-369.65 280,-356 247.14,-321.53 213.96,-276.37 196.85,-252.14"/>
<polygon fill="midnightblue" stroke="midnightblue" points="199.53,-249.86 190.93,-243.67 193.79,-253.87 199.53,-249.86"/>
</g>
<!-- Node23&#45;&gt;Node7 -->
<g id="edge55" class="edge">
<title>Node23&#45;&gt;Node7</title>
<path fill="none" stroke="midnightblue" d="M326.72,-392.23C316.27,-374.04 294,-330.6 294,-291 294,-291 294,-291 294,-177 294,-144.95 294,-107.64 294,-85.75"/>
<polygon fill="midnightblue" stroke="midnightblue" points="297.5,-85.56 294,-75.56 290.5,-85.56 297.5,-85.56"/>
</g>
<!-- Node23&#45;&gt;Node9 -->
<g id="edge59" class="edge">
<title>Node23&#45;&gt;Node9</title>
<path fill="none" stroke="midnightblue" d="M310.77,-392.45C267.07,-373.49 168.2,-323.22 133,-244 124.31,-224.43 143.1,-205.74 160.47,-193.47"/>
<polygon fill="midnightblue" stroke="midnightblue" points="162.85,-196.09 169.27,-187.66 158.99,-190.24 162.85,-196.09"/>
</g>
<!-- Node23&#45;&gt;Node17 -->
<g id="edge58" class="edge">
<title>Node23&#45;&gt;Node17</title>
<path fill="none" stroke="midnightblue" d="M383.97,-392.44C450.09,-381.56 562.74,-363.01 621.61,-353.32"/>
<polygon fill="midnightblue" stroke="midnightblue" points="622.31,-356.75 631.6,-351.67 621.17,-349.85 622.31,-356.75"/>
</g>
<!-- Node23&#45;&gt;Node18 -->
<g id="edge57" class="edge">
<title>Node23&#45;&gt;Node18</title>
<path fill="none" stroke="midnightblue" d="M337.96,-392.37C350.51,-374.22 379.81,-331.8 396.26,-307.99"/>
<polygon fill="midnightblue" stroke="midnightblue" points="399.26,-309.81 402.06,-299.59 393.5,-305.83 399.26,-309.81"/>
</g>
</g>
</svg>
