<?xml version="1.0" encoding="UTF-8" standalone="no"?>
<!DOCTYPE svg PUBLIC "-//W3C//DTD SVG 1.1//EN"
 "http://www.w3.org/Graphics/SVG/1.1/DTD/svg11.dtd">
<!-- Generated by graphviz version 2.43.0 (0)
 -->
<!-- Title: src/GamePhase.h Pages: 1 -->
<svg width="1330pt" height="420pt"
 viewBox="0.00 0.00 1329.55 420.00" xmlns="http://www.w3.org/2000/svg" xmlns:xlink="http://www.w3.org/1999/xlink">
<g id="graph0" class="graph" transform="scale(1 1) rotate(0) translate(4 416)">
<title>src/GamePhase.h</title>
<polygon fill="white" stroke="transparent" points="-4,4 -4,-416 1325.55,-416 1325.55,4 -4,4"/>
<!-- Node1 -->
<g id="node1" class="node">
<title>Node1</title>
<g id="a_node1"><a xlink:title="Handles the game phase and level.">
<polygon fill="#bfbfbf" stroke="black" points="406,-392.5 406,-411.5 507,-411.5 507,-392.5 406,-392.5"/>
<text text-anchor="middle" x="456.5" y="-399.5" font-family="Helvetica,sans-Serif" font-size="10.00">src/GamePhase.h</text>
</a>
</g>
</g>
<!-- Node2 -->
<g id="node2" class="node">
<title>Node2</title>
<g id="a_node2"><a xlink:href="Game_8h.html" target="_top" xlink:title="Class for handling the game logic.">
<polygon fill="white" stroke="black" points="541.5,-112.5 541.5,-131.5 613.5,-131.5 613.5,-112.5 541.5,-112.5"/>
<text text-anchor="middle" x="577.5" y="-119.5" font-family="Helvetica,sans-Serif" font-size="10.00">src/Game.h</text>
</a>
</g>
</g>
<!-- Node1&#45;&gt;Node2 -->
<g id="edge1" class="edge">
<title>Node1&#45;&gt;Node2</title>
<path fill="none" stroke="midnightblue" d="M415.98,-388.54C400.49,-381.57 384.42,-371.16 375.5,-356 370.99,-348.34 372.94,-344.51 375.5,-336 401.26,-250.29 419.4,-227.22 486.5,-168 505.66,-151.09 532.31,-138.9 551.82,-131.51"/>
<polygon fill="midnightblue" stroke="midnightblue" points="414.9,-391.88 425.48,-392.44 417.56,-385.4 414.9,-391.88"/>
</g>
<!-- Node7 -->
<g id="node7" class="node">
<title>Node7</title>
<g id="a_node7"><a xlink:href="GameObject_8h.html" target="_top" xlink:title="Base class for all game objects.">
<polygon fill="white" stroke="black" points="404.5,-336.5 404.5,-355.5 508.5,-355.5 508.5,-336.5 404.5,-336.5"/>
<text text-anchor="middle" x="456.5" y="-343.5" font-family="Helvetica,sans-Serif" font-size="10.00">src/GameObject.h</text>
</a>
</g>
</g>
<!-- Node1&#45;&gt;Node7 -->
<g id="edge6" class="edge">
<title>Node1&#45;&gt;Node7</title>
<path fill="none" stroke="midnightblue" d="M456.5,-381.8C456.5,-372.91 456.5,-362.78 456.5,-355.75"/>
<polygon fill="midnightblue" stroke="midnightblue" points="453,-382.08 456.5,-392.08 460,-382.08 453,-382.08"/>
</g>
<!-- Node9 -->
<g id="node9" class="node">
<title>Node9</title>
<g id="a_node9"><a xlink:href="InteractiveObject_8h.html" target="_top" xlink:title="Base class for all interactive objects.">
<polygon fill="white" stroke="black" points="221,-168.5 221,-187.5 348,-187.5 348,-168.5 221,-168.5"/>
<text text-anchor="middle" x="284.5" y="-175.5" font-family="Helvetica,sans-Serif" font-size="10.00">src/InteractiveObject.h</text>
</a>
</g>
</g>
<!-- Node1&#45;&gt;Node9 -->
<g id="edge50" class="edge">
<title>Node1&#45;&gt;Node9</title>
<path fill="none" stroke="midnightblue" d="M433.28,-386.89C421.14,-378.81 406.55,-367.92 395.5,-356 342.97,-299.35 301.01,-214.44 288.4,-187.51"/>
<polygon fill="midnightblue" stroke="midnightblue" points="431.68,-390.03 441.98,-392.5 435.47,-384.14 431.68,-390.03"/>
</g>
<!-- Node19 -->
<g id="node19" class="node">
<title>Node19</title>
<g id="a_node19"><a xlink:href="MovingObject_8h.html" target="_top" xlink:title="Base class for all moving objects.">
<polygon fill="white" stroke="black" points="614.5,-280.5 614.5,-299.5 724.5,-299.5 724.5,-280.5 614.5,-280.5"/>
<text text-anchor="middle" x="669.5" y="-287.5" font-family="Helvetica,sans-Serif" font-size="10.00">src/MovingObject.h</text>
</a>
</g>
</g>
<!-- Node1&#45;&gt;Node19 -->
<g id="edge51" class="edge">
<title>Node1&#45;&gt;Node19</title>
<path fill="none" stroke="midnightblue" d="M476.21,-386.51C495.89,-372.46 527.32,-351.11 556.5,-336 585.38,-321.05 620.41,-307.8 643.73,-299.62"/>
<polygon fill="midnightblue" stroke="midnightblue" points="474.11,-383.72 468.05,-392.41 478.2,-389.39 474.11,-383.72"/>
</g>
<!-- Node33 -->
<g id="node33" class="node">
<title>Node33</title>
<g id="a_node33"><a xlink:href="GamePhase_8cpp.html" target="_top" xlink:title="Handles the game phase and level.">
<polygon fill="white" stroke="black" points="565,-336.5 565,-355.5 678,-355.5 678,-336.5 565,-336.5"/>
<text text-anchor="middle" x="621.5" y="-343.5" font-family="Helvetica,sans-Serif" font-size="10.00">src/GamePhase.cpp</text>
</a>
</g>
</g>
<!-- Node1&#45;&gt;Node33 -->
<g id="edge49" class="edge">
<title>Node1&#45;&gt;Node33</title>
<path fill="none" stroke="midnightblue" d="M492.24,-389.3C523.33,-379.13 567.65,-364.62 595.48,-355.52"/>
<polygon fill="midnightblue" stroke="midnightblue" points="491.06,-386.01 482.64,-392.44 493.24,-392.66 491.06,-386.01"/>
</g>
<!-- Node3 -->
<g id="node3" class="node">
<title>Node3</title>
<g id="a_node3"><a xlink:href="Game_8cpp.html" target="_top" xlink:title="Class for handling the game logic.">
<polygon fill="white" stroke="black" points="309,-56.5 309,-75.5 392,-75.5 392,-56.5 309,-56.5"/>
<text text-anchor="middle" x="350.5" y="-63.5" font-family="Helvetica,sans-Serif" font-size="10.00">src/Game.cpp</text>
</a>
</g>
</g>
<!-- Node2&#45;&gt;Node3 -->
<g id="edge2" class="edge">
<title>Node2&#45;&gt;Node3</title>
<path fill="none" stroke="midnightblue" d="M531.63,-110.09C488.75,-99.89 425.58,-84.86 386.3,-75.52"/>
<polygon fill="midnightblue" stroke="midnightblue" points="530.99,-113.53 541.53,-112.44 532.61,-106.72 530.99,-113.53"/>
</g>
<!-- Node4 -->
<g id="node4" class="node">
<title>Node4</title>
<g id="a_node4"><a xlink:href="GameManager_8h.html" target="_top" xlink:title="Handles the game loop and game states.">
<polygon fill="white" stroke="black" points="520.5,-56.5 520.5,-75.5 634.5,-75.5 634.5,-56.5 520.5,-56.5"/>
<text text-anchor="middle" x="577.5" y="-63.5" font-family="Helvetica,sans-Serif" font-size="10.00">src/GameManager.h</text>
</a>
</g>
</g>
<!-- Node2&#45;&gt;Node4 -->
<g id="edge3" class="edge">
<title>Node2&#45;&gt;Node4</title>
<path fill="none" stroke="midnightblue" d="M577.5,-101.8C577.5,-92.91 577.5,-82.78 577.5,-75.75"/>
<polygon fill="midnightblue" stroke="midnightblue" points="574,-102.08 577.5,-112.08 581,-102.08 574,-102.08"/>
</g>
<!-- Node5 -->
<g id="node5" class="node">
<title>Node5</title>
<g id="a_node5"><a xlink:href="GameManager_8cpp.html" target="_top" xlink:title="Handles the game loop and game states.">
<polygon fill="white" stroke="black" points="455,-0.5 455,-19.5 580,-19.5 580,-0.5 455,-0.5"/>
<text text-anchor="middle" x="517.5" y="-7.5" font-family="Helvetica,sans-Serif" font-size="10.00">src/GameManager.cpp</text>
</a>
</g>
</g>
<!-- Node4&#45;&gt;Node5 -->
<g id="edge4" class="edge">
<title>Node4&#45;&gt;Node5</title>
<path fill="none" stroke="midnightblue" d="M560.32,-49.54C549.62,-39.91 536.24,-27.87 527.32,-19.83"/>
<polygon fill="midnightblue" stroke="midnightblue" points="558.09,-52.24 567.86,-56.32 562.77,-47.03 558.09,-52.24"/>
</g>
<!-- Node6 -->
<g id="node6" class="node">
<title>Node6</title>
<g id="a_node6"><a xlink:href="main_8cpp.html" target="_top" xlink:title="Main function, initializes the game manager.">
<polygon fill="white" stroke="black" points="598,-0.5 598,-19.5 677,-19.5 677,-0.5 598,-0.5"/>
<text text-anchor="middle" x="637.5" y="-7.5" font-family="Helvetica,sans-Serif" font-size="10.00">src/main.cpp</text>
</a>
</g>
</g>
<!-- Node4&#45;&gt;Node6 -->
<g id="edge5" class="edge">
<title>Node4&#45;&gt;Node6</title>
<path fill="none" stroke="midnightblue" d="M594.68,-49.54C605.38,-39.91 618.76,-27.87 627.68,-19.83"/>
<polygon fill="midnightblue" stroke="midnightblue" points="592.23,-47.03 587.14,-56.32 596.91,-52.24 592.23,-47.03"/>
</g>
<!-- Node7&#45;&gt;Node2 -->
<g id="edge7" class="edge">
<title>Node7&#45;&gt;Node2</title>
<path fill="none" stroke="midnightblue" d="M456.08,-326.12C456.14,-301.73 458.36,-258.31 471.5,-224 482.35,-195.68 488.87,-189.26 510.5,-168 525.89,-152.87 547.01,-139.66 561.39,-131.53"/>
<polygon fill="midnightblue" stroke="midnightblue" points="452.58,-326.49 456.18,-336.45 459.58,-326.42 452.58,-326.49"/>
</g>
<!-- Node8 -->
<g id="node8" class="node">
<title>Node8</title>
<g id="a_node8"><a xlink:href="GameObject_8cpp.html" target="_top" xlink:title="Base class for all game objects.">
<polygon fill="white" stroke="black" points="481,-280.5 481,-299.5 596,-299.5 596,-280.5 481,-280.5"/>
<text text-anchor="middle" x="538.5" y="-287.5" font-family="Helvetica,sans-Serif" font-size="10.00">src/GameObject.cpp</text>
</a>
</g>
</g>
<!-- Node7&#45;&gt;Node8 -->
<g id="edge8" class="edge">
<title>Node7&#45;&gt;Node8</title>
<path fill="none" stroke="midnightblue" d="M478.33,-330.62C493.31,-320.76 512.7,-307.99 525.36,-299.65"/>
<polygon fill="midnightblue" stroke="midnightblue" points="476.1,-327.9 469.67,-336.32 479.95,-333.75 476.1,-327.9"/>
</g>
<!-- Node7&#45;&gt;Node9 -->
<g id="edge9" class="edge">
<title>Node7&#45;&gt;Node9</title>
<path fill="none" stroke="midnightblue" d="M450.85,-326.72C441.94,-300.66 422.3,-252.83 390.5,-224 370.5,-205.87 342.12,-194.35 319.76,-187.51"/>
<polygon fill="midnightblue" stroke="midnightblue" points="447.59,-328.01 454.01,-336.43 454.24,-325.84 447.59,-328.01"/>
</g>
<!-- Node7&#45;&gt;Node19 -->
<g id="edge24" class="edge">
<title>Node7&#45;&gt;Node19</title>
<path fill="none" stroke="midnightblue" d="M500.05,-333.96C540.28,-323.76 599.2,-308.82 635.91,-299.52"/>
<polygon fill="midnightblue" stroke="midnightblue" points="499.08,-330.59 490.25,-336.44 500.8,-337.38 499.08,-330.59"/>
</g>
<!-- Node9&#45;&gt;Node2 -->
<g id="edge16" class="edge">
<title>Node9&#45;&gt;Node2</title>
<path fill="none" stroke="midnightblue" d="M343.06,-166.68C393.35,-157.74 467.76,-144.35 532.5,-132 535.32,-131.46 538.23,-130.9 541.16,-130.33"/>
<polygon fill="midnightblue" stroke="midnightblue" points="342.25,-163.27 333.02,-168.46 343.48,-170.16 342.25,-163.27"/>
</g>
<!-- Node10 -->
<g id="node10" class="node">
<title>Node10</title>
<g id="a_node10"><a xlink:href="Cherry_8h.html" target="_top" xlink:title="Class representing a cherry collectible.">
<polygon fill="white" stroke="black" points="27.5,-112.5 27.5,-131.5 101.5,-131.5 101.5,-112.5 27.5,-112.5"/>
<text text-anchor="middle" x="64.5" y="-119.5" font-family="Helvetica,sans-Serif" font-size="10.00">src/Cherry.h</text>
</a>
</g>
</g>
<!-- Node9&#45;&gt;Node10 -->
<g id="edge10" class="edge">
<title>Node9&#45;&gt;Node10</title>
<path fill="none" stroke="midnightblue" d="M239.78,-166.02C198.22,-155.82 137.19,-140.84 99.2,-131.52"/>
<polygon fill="midnightblue" stroke="midnightblue" points="239.09,-169.46 249.64,-168.44 240.76,-162.66 239.09,-169.46"/>
</g>
<!-- Node12 -->
<g id="node12" class="node">
<title>Node12</title>
<g id="a_node12"><a xlink:href="Coin_8h.html" target="_top" xlink:title="Class representing a coin collectible.">
<polygon fill="white" stroke="black" points="120,-112.5 120,-131.5 185,-131.5 185,-112.5 120,-112.5"/>
<text text-anchor="middle" x="152.5" y="-119.5" font-family="Helvetica,sans-Serif" font-size="10.00">src/Coin.h</text>
</a>
</g>
</g>
<!-- Node9&#45;&gt;Node12 -->
<g id="edge13" class="edge">
<title>Node9&#45;&gt;Node12</title>
<path fill="none" stroke="midnightblue" d="M254.28,-164.64C229.51,-154.5 195.1,-140.43 173.32,-131.52"/>
<polygon fill="midnightblue" stroke="midnightblue" points="253,-167.9 263.58,-168.44 255.65,-161.42 253,-167.9"/>
</g>
<!-- Node14 -->
<g id="node14" class="node">
<title>Node14</title>
<g id="a_node14"><a xlink:href="InteractiveObject_8cpp.html" target="_top" xlink:title="Base class for all interactive objects.">
<polygon fill="white" stroke="black" points="385.5,-112.5 385.5,-131.5 523.5,-131.5 523.5,-112.5 385.5,-112.5"/>
<text text-anchor="middle" x="454.5" y="-119.5" font-family="Helvetica,sans-Serif" font-size="10.00">src/InteractiveObject.cpp</text>
</a>
</g>
</g>
<!-- Node9&#45;&gt;Node14 -->
<g id="edge17" class="edge">
<title>Node9&#45;&gt;Node14</title>
<path fill="none" stroke="midnightblue" d="M321.32,-165.3C353.35,-155.13 399.02,-140.62 427.69,-131.52"/>
<polygon fill="midnightblue" stroke="midnightblue" points="319.91,-162.08 311.44,-168.44 322.03,-168.75 319.91,-162.08"/>
</g>
<!-- Node15 -->
<g id="node15" class="node">
<title>Node15</title>
<g id="a_node15"><a xlink:href="Teleport_8h.html" target="_top" xlink:title="Represents a teleport object.">
<polygon fill="white" stroke="black" points="203.5,-112.5 203.5,-131.5 285.5,-131.5 285.5,-112.5 203.5,-112.5"/>
<text text-anchor="middle" x="244.5" y="-119.5" font-family="Helvetica,sans-Serif" font-size="10.00">src/Teleport.h</text>
</a>
</g>
</g>
<!-- Node9&#45;&gt;Node15 -->
<g id="edge18" class="edge">
<title>Node9&#45;&gt;Node15</title>
<path fill="none" stroke="midnightblue" d="M271.8,-159.86C264.87,-150.5 256.59,-139.33 250.98,-131.75"/>
<polygon fill="midnightblue" stroke="midnightblue" points="269.13,-162.13 277.89,-168.08 274.75,-157.96 269.13,-162.13"/>
</g>
<!-- Node17 -->
<g id="node17" class="node">
<title>Node17</title>
<g id="a_node17"><a xlink:href="Wall_8h.html" target="_top" xlink:title="Represents a wall object.">
<polygon fill="white" stroke="black" points="303.5,-112.5 303.5,-131.5 367.5,-131.5 367.5,-112.5 303.5,-112.5"/>
<text text-anchor="middle" x="335.5" y="-119.5" font-family="Helvetica,sans-Serif" font-size="10.00">src/Wall.h</text>
</a>
</g>
</g>
<!-- Node9&#45;&gt;Node17 -->
<g id="edge21" class="edge">
<title>Node9&#45;&gt;Node17</title>
<path fill="none" stroke="midnightblue" d="M299.88,-160.72C308.87,-151.2 319.86,-139.56 327.24,-131.75"/>
<polygon fill="midnightblue" stroke="midnightblue" points="297.24,-158.41 292.92,-168.08 302.33,-163.22 297.24,-158.41"/>
</g>
<!-- Node10&#45;&gt;Node3 -->
<g id="edge12" class="edge">
<title>Node10&#45;&gt;Node3</title>
<path fill="none" stroke="midnightblue" d="M111.77,-111.77C186.93,-97.39 263.04,-83.21 308.86,-74.71"/>
<polygon fill="midnightblue" stroke="midnightblue" points="110.82,-108.39 101.65,-113.71 112.13,-115.26 110.82,-108.39"/>
</g>
<!-- Node11 -->
<g id="node11" class="node">
<title>Node11</title>
<g id="a_node11"><a xlink:href="Cherry_8cpp.html" target="_top" xlink:title="Class representing a cherry collectible.">
<polygon fill="white" stroke="black" points="0,-56.5 0,-75.5 85,-75.5 85,-56.5 0,-56.5"/>
<text text-anchor="middle" x="42.5" y="-63.5" font-family="Helvetica,sans-Serif" font-size="10.00">src/Cherry.cpp</text>
</a>
</g>
</g>
<!-- Node10&#45;&gt;Node11 -->
<g id="edge11" class="edge">
<title>Node10&#45;&gt;Node11</title>
<path fill="none" stroke="midnightblue" d="M57.04,-102.69C53.33,-93.59 49.02,-83.01 46.07,-75.75"/>
<polygon fill="midnightblue" stroke="midnightblue" points="53.85,-104.14 60.87,-112.08 60.34,-101.5 53.85,-104.14"/>
</g>
<!-- Node12&#45;&gt;Node3 -->
<g id="edge15" class="edge">
<title>Node12&#45;&gt;Node3</title>
<path fill="none" stroke="midnightblue" d="M193.94,-109.7C231.31,-99.51 285.44,-84.74 319.27,-75.52"/>
<polygon fill="midnightblue" stroke="midnightblue" points="192.6,-106.44 183.87,-112.44 194.44,-113.19 192.6,-106.44"/>
</g>
<!-- Node13 -->
<g id="node13" class="node">
<title>Node13</title>
<g id="a_node13"><a xlink:href="Coin_8cpp.html" target="_top" xlink:title="Class representing a coin collectible.">
<polygon fill="white" stroke="black" points="103.5,-56.5 103.5,-75.5 179.5,-75.5 179.5,-56.5 103.5,-56.5"/>
<text text-anchor="middle" x="141.5" y="-63.5" font-family="Helvetica,sans-Serif" font-size="10.00">src/Coin.cpp</text>
</a>
</g>
</g>
<!-- Node12&#45;&gt;Node13 -->
<g id="edge14" class="edge">
<title>Node12&#45;&gt;Node13</title>
<path fill="none" stroke="midnightblue" d="M148.65,-102.1C146.82,-93.14 144.73,-82.86 143.28,-75.75"/>
<polygon fill="midnightblue" stroke="midnightblue" points="145.26,-102.98 150.68,-112.08 152.12,-101.59 145.26,-102.98"/>
</g>
<!-- Node15&#45;&gt;Node3 -->
<g id="edge19" class="edge">
<title>Node15&#45;&gt;Node3</title>
<path fill="none" stroke="midnightblue" d="M270.56,-107.73C290.18,-97.73 316.53,-84.31 333.51,-75.65"/>
<polygon fill="midnightblue" stroke="midnightblue" points="268.85,-104.67 261.53,-112.32 272.03,-110.9 268.85,-104.67"/>
</g>
<!-- Node16 -->
<g id="node16" class="node">
<title>Node16</title>
<g id="a_node16"><a xlink:href="Teleport_8cpp.html" target="_top" xlink:title="Represents a teleport object.">
<polygon fill="white" stroke="black" points="198,-56.5 198,-75.5 291,-75.5 291,-56.5 198,-56.5"/>
<text text-anchor="middle" x="244.5" y="-63.5" font-family="Helvetica,sans-Serif" font-size="10.00">src/Teleport.cpp</text>
</a>
</g>
</g>
<!-- Node15&#45;&gt;Node16 -->
<g id="edge20" class="edge">
<title>Node15&#45;&gt;Node16</title>
<path fill="none" stroke="midnightblue" d="M244.5,-101.8C244.5,-92.91 244.5,-82.78 244.5,-75.75"/>
<polygon fill="midnightblue" stroke="midnightblue" points="241,-102.08 244.5,-112.08 248,-102.08 241,-102.08"/>
</g>
<!-- Node17&#45;&gt;Node3 -->
<g id="edge22" class="edge">
<title>Node17&#45;&gt;Node3</title>
<path fill="none" stroke="midnightblue" d="M340.67,-102.4C343.18,-93.36 346.07,-82.94 348.07,-75.75"/>
<polygon fill="midnightblue" stroke="midnightblue" points="337.28,-101.51 337.98,-112.08 344.03,-103.38 337.28,-101.51"/>
</g>
<!-- Node18 -->
<g id="node18" class="node">
<title>Node18</title>
<g id="a_node18"><a xlink:href="Wall_8cpp.html" target="_top" xlink:title="Represents a wall object.">
<polygon fill="white" stroke="black" points="410,-56.5 410,-75.5 485,-75.5 485,-56.5 410,-56.5"/>
<text text-anchor="middle" x="447.5" y="-63.5" font-family="Helvetica,sans-Serif" font-size="10.00">src/Wall.cpp</text>
</a>
</g>
</g>
<!-- Node17&#45;&gt;Node18 -->
<g id="edge23" class="edge">
<title>Node17&#45;&gt;Node18</title>
<path fill="none" stroke="midnightblue" d="M362.75,-107.86C383.52,-97.85 411.52,-84.35 429.55,-75.65"/>
<polygon fill="midnightblue" stroke="midnightblue" points="360.98,-104.83 353.49,-112.32 364.02,-111.13 360.98,-104.83"/>
</g>
<!-- Node19&#45;&gt;Node9 -->
<g id="edge42" class="edge">
<title>Node19&#45;&gt;Node9</title>
<path fill="none" stroke="midnightblue" d="M659.01,-271.49C648.88,-256.26 632.06,-234.95 611.5,-224 567.12,-200.36 429.91,-187.98 348,-182.54"/>
<polygon fill="midnightblue" stroke="midnightblue" points="656.12,-273.47 664.43,-280.04 662.03,-269.72 656.12,-273.47"/>
</g>
<!-- Node20 -->
<g id="node20" class="node">
<title>Node20</title>
<g id="a_node20"><a xlink:href="EnemyBehavior_8h.html" target="_top" xlink:title="Base class for all enemy behaviors.">
<polygon fill="white" stroke="black" points="884,-224.5 884,-243.5 1003,-243.5 1003,-224.5 884,-224.5"/>
<text text-anchor="middle" x="943.5" y="-231.5" font-family="Helvetica,sans-Serif" font-size="10.00">src/EnemyBehavior.h</text>
</a>
</g>
</g>
<!-- Node19&#45;&gt;Node20 -->
<g id="edge25" class="edge">
<title>Node19&#45;&gt;Node20</title>
<path fill="none" stroke="midnightblue" d="M722.91,-278.47C774.7,-268.27 852.27,-252.98 900.29,-243.52"/>
<polygon fill="midnightblue" stroke="midnightblue" points="722.05,-275.08 712.92,-280.44 723.4,-281.94 722.05,-275.08"/>
</g>
<!-- Node27 -->
<g id="node27" class="node">
<title>Node27</title>
<g id="a_node27"><a xlink:href="Ghost_8h.html" target="_top" xlink:title="Represents a ghost enemy.">
<polygon fill="white" stroke="black" points="660,-168.5 660,-187.5 731,-187.5 731,-168.5 660,-168.5"/>
<text text-anchor="middle" x="695.5" y="-175.5" font-family="Helvetica,sans-Serif" font-size="10.00">src/Ghost.h</text>
</a>
</g>
</g>
<!-- Node19&#45;&gt;Node27 -->
<g id="edge41" class="edge">
<title>Node19&#45;&gt;Node27</title>
<path fill="none" stroke="midnightblue" d="M704.16,-276.24C718.4,-269.08 733.41,-258.59 741.5,-244 753.36,-222.6 726.83,-199.72 709.33,-187.64"/>
<polygon fill="midnightblue" stroke="midnightblue" points="702.61,-273.1 695,-280.47 705.55,-279.45 702.61,-273.1"/>
</g>
<!-- Node30 -->
<g id="node30" class="node">
<title>Node30</title>
<g id="a_node30"><a xlink:href="MovingObject_8cpp.html" target="_top" xlink:title="Base class for all moving objects.">
<polygon fill="white" stroke="black" points="480.5,-224.5 480.5,-243.5 602.5,-243.5 602.5,-224.5 480.5,-224.5"/>
<text text-anchor="middle" x="541.5" y="-231.5" font-family="Helvetica,sans-Serif" font-size="10.00">src/MovingObject.cpp</text>
</a>
</g>
</g>
<!-- Node19&#45;&gt;Node30 -->
<g id="edge43" class="edge">
<title>Node19&#45;&gt;Node30</title>
<path fill="none" stroke="midnightblue" d="M639.88,-276.5C615.88,-266.38 582.72,-252.39 561.69,-243.52"/>
<polygon fill="midnightblue" stroke="midnightblue" points="638.64,-279.78 649.22,-280.44 641.36,-273.33 638.64,-279.78"/>
</g>
<!-- Node31 -->
<g id="node31" class="node">
<title>Node31</title>
<g id="a_node31"><a xlink:href="Player_8h.html" target="_top" xlink:title="Represents a player.">
<polygon fill="white" stroke="black" points="659,-224.5 659,-243.5 732,-243.5 732,-224.5 659,-224.5"/>
<text text-anchor="middle" x="695.5" y="-231.5" font-family="Helvetica,sans-Serif" font-size="10.00">src/Player.h</text>
</a>
</g>
</g>
<!-- Node19&#45;&gt;Node31 -->
<g id="edge44" class="edge">
<title>Node19&#45;&gt;Node31</title>
<path fill="none" stroke="midnightblue" d="M678.17,-270.98C682.59,-261.82 687.75,-251.09 691.29,-243.75"/>
<polygon fill="midnightblue" stroke="midnightblue" points="674.98,-269.55 673.79,-280.08 681.29,-272.59 674.98,-269.55"/>
</g>
<!-- Node20&#45;&gt;Node3 -->
<g id="edge33" class="edge">
<title>Node20&#45;&gt;Node3</title>
<path fill="none" stroke="midnightblue" d="M1013.42,-229.52C1116.09,-223.69 1297.7,-210.32 1317.5,-188 1323.4,-181.35 1321.89,-175.73 1317.5,-168 1293.47,-125.72 1270.09,-125.93 1223.5,-112 1048.32,-59.62 583.25,-95.93 401.5,-76 398.46,-75.67 395.33,-75.26 392.18,-74.81"/>
<polygon fill="midnightblue" stroke="midnightblue" points="1012.92,-226.04 1003.13,-230.1 1013.31,-233.03 1012.92,-226.04"/>
</g>
<!-- Node21 -->
<g id="node21" class="node">
<title>Node21</title>
<g id="a_node21"><a xlink:href="ChaseBehavior_8h.html" target="_top" xlink:title="Class for handling the chase behavior of ghosts.">
<polygon fill="white" stroke="black" points="749.5,-168.5 749.5,-187.5 865.5,-187.5 865.5,-168.5 749.5,-168.5"/>
<text text-anchor="middle" x="807.5" y="-175.5" font-family="Helvetica,sans-Serif" font-size="10.00">src/ChaseBehavior.h</text>
</a>
</g>
</g>
<!-- Node20&#45;&gt;Node21 -->
<g id="edge26" class="edge">
<title>Node20&#45;&gt;Node21</title>
<path fill="none" stroke="midnightblue" d="M912.37,-220.64C886.84,-210.5 851.39,-196.43 828.95,-187.52"/>
<polygon fill="midnightblue" stroke="midnightblue" points="911.36,-224.01 921.95,-224.44 913.95,-217.5 911.36,-224.01"/>
</g>
<!-- Node24 -->
<g id="node24" class="node">
<title>Node24</title>
<g id="a_node24"><a xlink:href="EnemyBehavior_8cpp.html" target="_top" xlink:title="Base class for all enemy behaviors.">
<polygon fill="white" stroke="black" points="1177,-168.5 1177,-187.5 1308,-187.5 1308,-168.5 1177,-168.5"/>
<text text-anchor="middle" x="1242.5" y="-175.5" font-family="Helvetica,sans-Serif" font-size="10.00">src/EnemyBehavior.cpp</text>
</a>
</g>
</g>
<!-- Node20&#45;&gt;Node24 -->
<g id="edge29" class="edge">
<title>Node20&#45;&gt;Node24</title>
<path fill="none" stroke="midnightblue" d="M1000.73,-222.66C1057.24,-212.46 1142.62,-197.04 1195.34,-187.52"/>
<polygon fill="midnightblue" stroke="midnightblue" points="1000.1,-219.22 990.88,-224.44 1001.34,-226.11 1000.1,-219.22"/>
</g>
<!-- Node25 -->
<g id="node25" class="node">
<title>Node25</title>
<g id="a_node25"><a xlink:href="FrightenedBehavior_8h.html" target="_top" xlink:title="Class representing a frightened ghost behavior.">
<polygon fill="white" stroke="black" points="1022,-168.5 1022,-187.5 1159,-187.5 1159,-168.5 1022,-168.5"/>
<text text-anchor="middle" x="1090.5" y="-175.5" font-family="Helvetica,sans-Serif" font-size="10.00">src/FrightenedBehavior.h</text>
</a>
</g>
</g>
<!-- Node20&#45;&gt;Node25 -->
<g id="edge30" class="edge">
<title>Node20&#45;&gt;Node25</title>
<path fill="none" stroke="midnightblue" d="M976.42,-220.91C1004.06,-210.75 1042.84,-196.51 1067.32,-187.52"/>
<polygon fill="midnightblue" stroke="midnightblue" points="974.97,-217.71 966.79,-224.44 977.39,-224.28 974.97,-217.71"/>
</g>
<!-- Node20&#45;&gt;Node27 -->
<g id="edge34" class="edge">
<title>Node20&#45;&gt;Node27</title>
<path fill="none" stroke="midnightblue" d="M894.33,-222.29C846.28,-211.83 774.29,-196.16 731.39,-186.82"/>
<polygon fill="midnightblue" stroke="midnightblue" points="893.69,-225.74 904.2,-224.44 895.18,-218.9 893.69,-225.74"/>
</g>
<!-- Node28 -->
<g id="node28" class="node">
<title>Node28</title>
<g id="a_node28"><a xlink:href="ScatterBehavior_8h.html" target="_top" xlink:title="Class for the scatter behavior of the ghosts.">
<polygon fill="white" stroke="black" points="883.5,-168.5 883.5,-187.5 1003.5,-187.5 1003.5,-168.5 883.5,-168.5"/>
<text text-anchor="middle" x="943.5" y="-175.5" font-family="Helvetica,sans-Serif" font-size="10.00">src/ScatterBehavior.h</text>
</a>
</g>
</g>
<!-- Node20&#45;&gt;Node28 -->
<g id="edge37" class="edge">
<title>Node20&#45;&gt;Node28</title>
<path fill="none" stroke="midnightblue" d="M943.5,-213.8C943.5,-204.91 943.5,-194.78 943.5,-187.75"/>
<polygon fill="midnightblue" stroke="midnightblue" points="940,-214.08 943.5,-224.08 947,-214.08 940,-214.08"/>
</g>
<!-- Node22 -->
<g id="node22" class="node">
<title>Node22</title>
<g id="a_node22"><a xlink:href="ChaseBehavior_8cpp.html" target="_top" xlink:title="Class for handling the chase behavior of ghosts.">
<polygon fill="white" stroke="black" points="632,-112.5 632,-131.5 759,-131.5 759,-112.5 632,-112.5"/>
<text text-anchor="middle" x="695.5" y="-119.5" font-family="Helvetica,sans-Serif" font-size="10.00">src/ChaseBehavior.cpp</text>
</a>
</g>
</g>
<!-- Node21&#45;&gt;Node22 -->
<g id="edge27" class="edge">
<title>Node21&#45;&gt;Node22</title>
<path fill="none" stroke="midnightblue" d="M780.25,-163.86C759.48,-153.85 731.48,-140.35 713.45,-131.65"/>
<polygon fill="midnightblue" stroke="midnightblue" points="778.98,-167.13 789.51,-168.32 782.02,-160.83 778.98,-167.13"/>
</g>
<!-- Node23 -->
<g id="node23" class="node">
<title>Node23</title>
<g id="a_node23"><a xlink:href="Ghost_8cpp.html" target="_top" xlink:title="Represents a ghost enemy.">
<polygon fill="white" stroke="black" points="777,-112.5 777,-131.5 860,-131.5 860,-112.5 777,-112.5"/>
<text text-anchor="middle" x="818.5" y="-119.5" font-family="Helvetica,sans-Serif" font-size="10.00">src/Ghost.cpp</text>
</a>
</g>
</g>
<!-- Node21&#45;&gt;Node23 -->
<g id="edge28" class="edge">
<title>Node21&#45;&gt;Node23</title>
<path fill="none" stroke="midnightblue" d="M811.35,-158.1C813.18,-149.14 815.27,-138.86 816.72,-131.75"/>
<polygon fill="midnightblue" stroke="midnightblue" points="807.88,-157.59 809.32,-168.08 814.74,-158.98 807.88,-157.59"/>
</g>
<!-- Node25&#45;&gt;Node23 -->
<g id="edge32" class="edge">
<title>Node25&#45;&gt;Node23</title>
<path fill="none" stroke="midnightblue" d="M1037.39,-166.46C985.5,-156.15 907.58,-140.69 860.06,-131.25"/>
<polygon fill="midnightblue" stroke="midnightblue" points="1036.91,-169.93 1047.4,-168.44 1038.27,-163.06 1036.91,-169.93"/>
</g>
<!-- Node26 -->
<g id="node26" class="node">
<title>Node26</title>
<g id="a_node26"><a xlink:href="FrightenedBehavior_8cpp.html" target="_top" xlink:title="Class representing a frightened ghost behavior.">
<polygon fill="white" stroke="black" points="1065,-112.5 1065,-131.5 1214,-131.5 1214,-112.5 1065,-112.5"/>
<text text-anchor="middle" x="1139.5" y="-119.5" font-family="Helvetica,sans-Serif" font-size="10.00">src/FrightenedBehavior.cpp</text>
</a>
</g>
</g>
<!-- Node25&#45;&gt;Node26 -->
<g id="edge31" class="edge">
<title>Node25&#45;&gt;Node26</title>
<path fill="none" stroke="midnightblue" d="M1105.53,-160.43C1114.12,-150.97 1124.54,-139.48 1131.56,-131.75"/>
<polygon fill="midnightblue" stroke="midnightblue" points="1102.72,-158.33 1098.59,-168.08 1107.9,-163.03 1102.72,-158.33"/>
</g>
<!-- Node27&#45;&gt;Node2 -->
<g id="edge35" class="edge">
<title>Node27&#45;&gt;Node2</title>
<path fill="none" stroke="midnightblue" d="M667.6,-164.23C645.53,-154.13 615.32,-140.31 596.11,-131.52"/>
<polygon fill="midnightblue" stroke="midnightblue" points="666.25,-167.46 676.8,-168.44 669.17,-161.1 666.25,-167.46"/>
</g>
<!-- Node27&#45;&gt;Node23 -->
<g id="edge36" class="edge">
<title>Node27&#45;&gt;Node23</title>
<path fill="none" stroke="midnightblue" d="M724.27,-164.37C747.31,-154.26 778.98,-140.35 799.1,-131.52"/>
<polygon fill="midnightblue" stroke="midnightblue" points="722.74,-161.22 714.99,-168.44 725.55,-167.63 722.74,-161.22"/>
</g>
<!-- Node28&#45;&gt;Node3 -->
<g id="edge38" class="edge">
<title>Node28&#45;&gt;Node3</title>
<path fill="none" stroke="midnightblue" d="M976.2,-164.45C1004.18,-151.95 1037.2,-131.82 1018.5,-112 971.38,-62.05 469.71,-83.98 401.5,-76 398.46,-75.64 395.33,-75.23 392.19,-74.76"/>
<polygon fill="midnightblue" stroke="midnightblue" points="974.81,-161.24 966.99,-168.39 977.56,-167.68 974.81,-161.24"/>
</g>
<!-- Node28&#45;&gt;Node23 -->
<g id="edge39" class="edge">
<title>Node28&#45;&gt;Node23</title>
<path fill="none" stroke="midnightblue" d="M914.26,-164.37C890.85,-154.26 858.66,-140.35 838.21,-131.52"/>
<polygon fill="midnightblue" stroke="midnightblue" points="913.13,-167.69 923.69,-168.44 915.9,-161.26 913.13,-167.69"/>
</g>
<!-- Node29 -->
<g id="node29" class="node">
<title>Node29</title>
<g id="a_node29"><a xlink:href="ScatterBehavior_8cpp.html" target="_top" xlink:title="Class for the scatter behavior of the ghosts.">
<polygon fill="white" stroke="black" points="878,-112.5 878,-131.5 1009,-131.5 1009,-112.5 878,-112.5"/>
<text text-anchor="middle" x="943.5" y="-119.5" font-family="Helvetica,sans-Serif" font-size="10.00">src/ScatterBehavior.cpp</text>
</a>
</g>
</g>
<!-- Node28&#45;&gt;Node29 -->
<g id="edge40" class="edge">
<title>Node28&#45;&gt;Node29</title>
<path fill="none" stroke="midnightblue" d="M943.5,-157.8C943.5,-148.91 943.5,-138.78 943.5,-131.75"/>
<polygon fill="midnightblue" stroke="midnightblue" points="940,-158.08 943.5,-168.08 947,-158.08 940,-158.08"/>
</g>
<!-- Node31&#45;&gt;Node2 -->
<g id="edge45" class="edge">
<title>Node31&#45;&gt;Node2</title>
<path fill="none" stroke="midnightblue" d="M678.89,-217.51C653.67,-194.01 606.58,-150.11 586.72,-131.59"/>
<polygon fill="midnightblue" stroke="midnightblue" points="676.54,-220.11 686.24,-224.37 681.31,-214.99 676.54,-220.11"/>
</g>
<!-- Node31&#45;&gt;Node9 -->
<g id="edge47" class="edge">
<title>Node31&#45;&gt;Node9</title>
<path fill="none" stroke="midnightblue" d="M648.89,-224.68C647.41,-224.44 645.94,-224.22 644.5,-224 540.95,-208.4 420.07,-194.08 348.04,-185.96"/>
<polygon fill="midnightblue" stroke="midnightblue" points="648.33,-228.13 658.77,-226.29 649.46,-221.22 648.33,-228.13"/>
</g>
<!-- Node31&#45;&gt;Node27 -->
<g id="edge46" class="edge">
<title>Node31&#45;&gt;Node27</title>
<path fill="none" stroke="midnightblue" d="M695.5,-213.8C695.5,-204.91 695.5,-194.78 695.5,-187.75"/>
<polygon fill="midnightblue" stroke="midnightblue" points="692,-214.08 695.5,-224.08 699,-214.08 692,-214.08"/>
</g>
<!-- Node32 -->
<g id="node32" class="node">
<title>Node32</title>
<g id="a_node32"><a xlink:href="Player_8cpp.html" target="_top" xlink:title="Represents a player.">
<polygon fill="white" stroke="black" points="519.5,-168.5 519.5,-187.5 603.5,-187.5 603.5,-168.5 519.5,-168.5"/>
<text text-anchor="middle" x="561.5" y="-175.5" font-family="Helvetica,sans-Serif" font-size="10.00">src/Player.cpp</text>
</a>
</g>
</g>
<!-- Node31&#45;&gt;Node32 -->
<g id="edge48" class="edge">
<title>Node31&#45;&gt;Node32</title>
<path fill="none" stroke="midnightblue" d="M664.82,-220.64C639.68,-210.5 604.75,-196.43 582.63,-187.52"/>
<polygon fill="midnightblue" stroke="midnightblue" points="663.68,-223.95 674.27,-224.44 666.3,-217.46 663.68,-223.95"/>
</g>
</g>
</svg>
