<?xml version="1.0" encoding="UTF-8" standalone="no"?>
<!DOCTYPE svg PUBLIC "-//W3C//DTD SVG 1.1//EN"
 "http://www.w3.org/Graphics/SVG/1.1/DTD/svg11.dtd">
<!-- Generated by graphviz version 2.43.0 (0)
 -->
<!-- Title: src/Ghost.cpp Pages: 1 -->
<svg width="840pt" height="476pt"
 viewBox="0.00 0.00 839.50 476.00" xmlns="http://www.w3.org/2000/svg" xmlns:xlink="http://www.w3.org/1999/xlink">
<g id="graph0" class="graph" transform="scale(1 1) rotate(0) translate(4 472)">
<title>src/Ghost.cpp</title>
<polygon fill="white" stroke="transparent" points="-4,4 -4,-472 835.5,-472 835.5,4 -4,4"/>
<!-- Node1 -->
<g id="node1" class="node">
<title>Node1</title>
<g id="a_node1"><a xlink:title="Represents a ghost enemy.">
<polygon fill="#bfbfbf" stroke="black" points="503,-448.5 503,-467.5 586,-467.5 586,-448.5 503,-448.5"/>
<text text-anchor="middle" x="544.5" y="-455.5" font-family="Helvetica,sans-Serif" font-size="10.00">src/Ghost.cpp</text>
</a>
</g>
</g>
<!-- Node2 -->
<g id="node2" class="node">
<title>Node2</title>
<g id="a_node2"><a xlink:href="Ghost_8h.html" target="_top" xlink:title="Represents a ghost enemy.">
<polygon fill="white" stroke="black" points="375.5,-392.5 375.5,-411.5 429.5,-411.5 429.5,-392.5 375.5,-392.5"/>
<text text-anchor="middle" x="402.5" y="-399.5" font-family="Helvetica,sans-Serif" font-size="10.00">Ghost.h</text>
</a>
</g>
</g>
<!-- Node1&#45;&gt;Node2 -->
<g id="edge1" class="edge">
<title>Node1&#45;&gt;Node2</title>
<path fill="none" stroke="midnightblue" d="M522,-448.44C498.42,-439.48 461.18,-425.31 434.54,-415.18"/>
<polygon fill="midnightblue" stroke="midnightblue" points="435.49,-411.8 424.9,-411.52 433,-418.34 435.49,-411.8"/>
</g>
<!-- Node10 -->
<g id="node10" class="node">
<title>Node10</title>
<g id="a_node10"><a xlink:href="Map_8h.html" target="_top" xlink:title="Class for handling the game map.">
<polygon fill="white" stroke="black" points="483,-224.5 483,-243.5 530,-243.5 530,-224.5 483,-224.5"/>
<text text-anchor="middle" x="506.5" y="-231.5" font-family="Helvetica,sans-Serif" font-size="10.00">Map.h</text>
</a>
</g>
</g>
<!-- Node1&#45;&gt;Node10 -->
<g id="edge37" class="edge">
<title>Node1&#45;&gt;Node10</title>
<path fill="none" stroke="midnightblue" d="M543.01,-448.3C537.42,-415.63 517.6,-299.87 509.74,-253.96"/>
<polygon fill="midnightblue" stroke="midnightblue" points="513.16,-253.15 508.02,-243.88 506.26,-254.33 513.16,-253.15"/>
</g>
<!-- Node15 -->
<g id="node15" class="node">
<title>Node15</title>
<g id="a_node15"><a xlink:href="Helpers_8h.html" target="_top" xlink:title=" ">
<polygon fill="white" stroke="black" points="549,-112.5 549,-131.5 612,-131.5 612,-112.5 549,-112.5"/>
<text text-anchor="middle" x="580.5" y="-119.5" font-family="Helvetica,sans-Serif" font-size="10.00">Helpers.h</text>
</a>
</g>
</g>
<!-- Node1&#45;&gt;Node15 -->
<g id="edge41" class="edge">
<title>Node1&#45;&gt;Node15</title>
<path fill="none" stroke="midnightblue" d="M545.43,-448.41C550.17,-404.38 571.8,-203.74 578.51,-141.48"/>
<polygon fill="midnightblue" stroke="midnightblue" points="581.99,-141.85 579.58,-131.54 575.03,-141.1 581.99,-141.85"/>
</g>
<!-- Node18 -->
<g id="node18" class="node">
<title>Node18</title>
<g id="a_node18"><a xlink:title=" ">
<polygon fill="white" stroke="#bfbfbf" points="627.5,-392.5 627.5,-411.5 691.5,-411.5 691.5,-392.5 627.5,-392.5"/>
<text text-anchor="middle" x="659.5" y="-399.5" font-family="Helvetica,sans-Serif" font-size="10.00">algorithm</text>
</a>
</g>
</g>
<!-- Node1&#45;&gt;Node18 -->
<g id="edge38" class="edge">
<title>Node1&#45;&gt;Node18</title>
<path fill="none" stroke="midnightblue" d="M562.72,-448.44C581.4,-439.68 610.66,-425.94 632.12,-415.86"/>
<polygon fill="midnightblue" stroke="midnightblue" points="633.8,-418.93 641.36,-411.52 630.82,-412.6 633.8,-418.93"/>
</g>
<!-- Node19 -->
<g id="node19" class="node">
<title>Node19</title>
<g id="a_node19"><a xlink:title=" ">
<polygon fill="white" stroke="#bfbfbf" points="709.5,-392.5 709.5,-411.5 769.5,-411.5 769.5,-392.5 709.5,-392.5"/>
<text text-anchor="middle" x="739.5" y="-399.5" font-family="Helvetica,sans-Serif" font-size="10.00">iostream</text>
</a>
</g>
</g>
<!-- Node1&#45;&gt;Node19 -->
<g id="edge39" class="edge">
<title>Node1&#45;&gt;Node19</title>
<path fill="none" stroke="midnightblue" d="M575.4,-448.44C608.97,-439.15 662.72,-424.26 699.5,-414.08"/>
<polygon fill="midnightblue" stroke="midnightblue" points="700.68,-417.38 709.39,-411.34 698.82,-410.63 700.68,-417.38"/>
</g>
<!-- Node20 -->
<g id="node20" class="node">
<title>Node20</title>
<g id="a_node20"><a xlink:title=" ">
<polygon fill="white" stroke="#bfbfbf" points="787.5,-392.5 787.5,-411.5 831.5,-411.5 831.5,-392.5 787.5,-392.5"/>
<text text-anchor="middle" x="809.5" y="-399.5" font-family="Helvetica,sans-Serif" font-size="10.00">cfloat</text>
</a>
</g>
</g>
<!-- Node1&#45;&gt;Node20 -->
<g id="edge40" class="edge">
<title>Node1&#45;&gt;Node20</title>
<path fill="none" stroke="midnightblue" d="M586.17,-450.19C631.15,-442.57 705.04,-429.28 777.47,-412.08"/>
<polygon fill="midnightblue" stroke="midnightblue" points="778.31,-415.48 787.21,-409.74 776.67,-408.67 778.31,-415.48"/>
</g>
<!-- Node21 -->
<g id="node21" class="node">
<title>Node21</title>
<g id="a_node21"><a xlink:href="ScatterBehavior_8h.html" target="_top" xlink:title="Class for the scatter behavior of the ghosts.">
<polygon fill="white" stroke="black" points="0,-392.5 0,-411.5 103,-411.5 103,-392.5 0,-392.5"/>
<text text-anchor="middle" x="51.5" y="-399.5" font-family="Helvetica,sans-Serif" font-size="10.00">ScatterBehavior.h</text>
</a>
</g>
</g>
<!-- Node1&#45;&gt;Node21 -->
<g id="edge42" class="edge">
<title>Node1&#45;&gt;Node21</title>
<path fill="none" stroke="midnightblue" d="M502.73,-453.25C427.27,-446.34 263,-430.7 113.35,-412.06"/>
<polygon fill="midnightblue" stroke="midnightblue" points="113.42,-408.54 103.06,-410.77 112.55,-415.48 113.42,-408.54"/>
</g>
<!-- Node22 -->
<g id="node22" class="node">
<title>Node22</title>
<g id="a_node22"><a xlink:href="ChaseBehavior_8h.html" target="_top" xlink:title="Class for handling the chase behavior of ghosts.">
<polygon fill="white" stroke="black" points="121.5,-392.5 121.5,-411.5 219.5,-411.5 219.5,-392.5 121.5,-392.5"/>
<text text-anchor="middle" x="170.5" y="-399.5" font-family="Helvetica,sans-Serif" font-size="10.00">ChaseBehavior.h</text>
</a>
</g>
</g>
<!-- Node1&#45;&gt;Node22 -->
<g id="edge44" class="edge">
<title>Node1&#45;&gt;Node22</title>
<path fill="none" stroke="midnightblue" d="M502.81,-451.23C444.23,-443.09 333.92,-427.62 229.61,-412.15"/>
<polygon fill="midnightblue" stroke="midnightblue" points="229.95,-408.66 219.54,-410.65 228.92,-415.59 229.95,-408.66"/>
</g>
<!-- Node23 -->
<g id="node23" class="node">
<title>Node23</title>
<g id="a_node23"><a xlink:href="FrightenedBehavior_8h.html" target="_top" xlink:title="Class representing a frightened ghost behavior.">
<polygon fill="white" stroke="black" points="237.5,-392.5 237.5,-411.5 357.5,-411.5 357.5,-392.5 237.5,-392.5"/>
<text text-anchor="middle" x="297.5" y="-399.5" font-family="Helvetica,sans-Serif" font-size="10.00">FrightenedBehavior.h</text>
</a>
</g>
</g>
<!-- Node1&#45;&gt;Node23 -->
<g id="edge46" class="edge">
<title>Node1&#45;&gt;Node23</title>
<path fill="none" stroke="midnightblue" d="M505.36,-448.44C462.27,-439.02 392.94,-423.87 346.33,-413.68"/>
<polygon fill="midnightblue" stroke="midnightblue" points="346.97,-410.23 336.45,-411.52 345.48,-417.07 346.97,-410.23"/>
</g>
<!-- Node3 -->
<g id="node3" class="node">
<title>Node3</title>
<g id="a_node3"><a xlink:href="MovingObject_8h.html" target="_top" xlink:title="Base class for all moving objects.">
<polygon fill="white" stroke="black" points="270,-280.5 270,-299.5 363,-299.5 363,-280.5 270,-280.5"/>
<text text-anchor="middle" x="316.5" y="-287.5" font-family="Helvetica,sans-Serif" font-size="10.00">MovingObject.h</text>
</a>
</g>
</g>
<!-- Node2&#45;&gt;Node3 -->
<g id="edge2" class="edge">
<title>Node2&#45;&gt;Node3</title>
<path fill="none" stroke="midnightblue" d="M393.71,-392.4C384.9,-383.61 371.16,-369.37 360.5,-356 348.2,-340.57 335.73,-321.79 327.22,-308.39"/>
<polygon fill="midnightblue" stroke="midnightblue" points="330.06,-306.33 321.79,-299.71 324.13,-310.05 330.06,-306.33"/>
</g>
<!-- Node8 -->
<g id="node8" class="node">
<title>Node8</title>
<g id="a_node8"><a xlink:title=" ">
<polygon fill="white" stroke="#bfbfbf" points="78.5,-168.5 78.5,-187.5 136.5,-187.5 136.5,-168.5 78.5,-168.5"/>
<text text-anchor="middle" x="107.5" y="-175.5" font-family="Helvetica,sans-Serif" font-size="10.00">memory</text>
</a>
</g>
</g>
<!-- Node2&#45;&gt;Node8 -->
<g id="edge31" class="edge">
<title>Node2&#45;&gt;Node8</title>
<path fill="none" stroke="midnightblue" d="M377.09,-392.44C324.78,-373.62 204.15,-323.85 134.5,-244 122.84,-230.63 115.72,-211.52 111.74,-197.48"/>
<polygon fill="midnightblue" stroke="midnightblue" points="115.06,-196.34 109.2,-187.51 108.28,-198.07 115.06,-196.34"/>
</g>
<!-- Node2&#45;&gt;Node10 -->
<g id="edge36" class="edge">
<title>Node2&#45;&gt;Node10</title>
<path fill="none" stroke="midnightblue" d="M409.07,-392.17C415.68,-383.19 426.07,-368.81 434.5,-356 458.13,-320.08 483.27,-276.41 496.7,-252.58"/>
<polygon fill="midnightblue" stroke="midnightblue" points="499.86,-254.11 501.7,-243.67 493.75,-250.68 499.86,-254.11"/>
</g>
<!-- Node16 -->
<g id="node16" class="node">
<title>Node16</title>
<g id="a_node16"><a xlink:href="EnemyBehavior_8h.html" target="_top" xlink:title="Base class for all enemy behaviors.">
<polygon fill="white" stroke="black" points="9.5,-336.5 9.5,-355.5 111.5,-355.5 111.5,-336.5 9.5,-336.5"/>
<text text-anchor="middle" x="60.5" y="-343.5" font-family="Helvetica,sans-Serif" font-size="10.00">EnemyBehavior.h</text>
</a>
</g>
</g>
<!-- Node2&#45;&gt;Node16 -->
<g id="edge26" class="edge">
<title>Node2&#45;&gt;Node16</title>
<path fill="none" stroke="midnightblue" d="M375.44,-393.93C372.43,-393.24 369.41,-392.58 366.5,-392 343.05,-387.36 204.16,-367.4 121.78,-355.68"/>
<polygon fill="midnightblue" stroke="midnightblue" points="122.17,-352.2 111.78,-354.26 121.19,-359.13 122.17,-352.2"/>
</g>
<!-- Node17 -->
<g id="node17" class="node">
<title>Node17</title>
<g id="a_node17"><a xlink:href="Player_8h.html" target="_top" xlink:title="Represents a player.">
<polygon fill="white" stroke="black" points="369.5,-336.5 369.5,-355.5 425.5,-355.5 425.5,-336.5 369.5,-336.5"/>
<text text-anchor="middle" x="397.5" y="-343.5" font-family="Helvetica,sans-Serif" font-size="10.00">Player.h</text>
</a>
</g>
</g>
<!-- Node2&#45;&gt;Node17 -->
<g id="edge32" class="edge">
<title>Node2&#45;&gt;Node17</title>
<path fill="none" stroke="midnightblue" d="M401.67,-392.08C401.02,-385.01 400.08,-374.86 399.26,-365.99"/>
<polygon fill="midnightblue" stroke="midnightblue" points="402.72,-365.39 398.31,-355.75 395.75,-366.03 402.72,-365.39"/>
</g>
<!-- Node4 -->
<g id="node4" class="node">
<title>Node4</title>
<g id="a_node4"><a xlink:href="GameObject_8h.html" target="_top" xlink:title="Base class for all game objects.">
<polygon fill="white" stroke="black" points="202.5,-224.5 202.5,-243.5 288.5,-243.5 288.5,-224.5 202.5,-224.5"/>
<text text-anchor="middle" x="245.5" y="-231.5" font-family="Helvetica,sans-Serif" font-size="10.00">GameObject.h</text>
</a>
</g>
</g>
<!-- Node3&#45;&gt;Node4 -->
<g id="edge3" class="edge">
<title>Node3&#45;&gt;Node4</title>
<path fill="none" stroke="midnightblue" d="M305.09,-280.32C294.39,-272.18 278.16,-259.84 265.34,-250.09"/>
<polygon fill="midnightblue" stroke="midnightblue" points="267.19,-247.1 257.11,-243.83 262.96,-252.67 267.19,-247.1"/>
</g>
<!-- Node5 -->
<g id="node5" class="node">
<title>Node5</title>
<g id="a_node5"><a xlink:href="Enums_8h.html" target="_top" xlink:title=" ">
<polygon fill="white" stroke="black" points="202,-56.5 202,-75.5 261,-75.5 261,-56.5 202,-56.5"/>
<text text-anchor="middle" x="231.5" y="-63.5" font-family="Helvetica,sans-Serif" font-size="10.00">Enums.h</text>
</a>
</g>
</g>
<!-- Node3&#45;&gt;Node5 -->
<g id="edge9" class="edge">
<title>Node3&#45;&gt;Node5</title>
<path fill="none" stroke="midnightblue" d="M269.98,-284.87C242.86,-279.8 210.7,-268.6 193.5,-244 158.59,-194.06 198.35,-118.25 219.7,-84.39"/>
<polygon fill="midnightblue" stroke="midnightblue" points="222.87,-85.95 225.4,-75.66 217,-82.12 222.87,-85.95"/>
</g>
<!-- Node7 -->
<g id="node7" class="node">
<title>Node7</title>
<g id="a_node7"><a xlink:href="GamePhase_8h.html" target="_top" xlink:title="Handles the game phase and level.">
<polygon fill="white" stroke="black" points="240.5,-168.5 240.5,-187.5 324.5,-187.5 324.5,-168.5 240.5,-168.5"/>
<text text-anchor="middle" x="282.5" y="-175.5" font-family="Helvetica,sans-Serif" font-size="10.00">GamePhase.h</text>
</a>
</g>
</g>
<!-- Node3&#45;&gt;Node7 -->
<g id="edge25" class="edge">
<title>Node3&#45;&gt;Node7</title>
<path fill="none" stroke="midnightblue" d="M314.02,-280.14C310.49,-267.6 303.75,-243.97 297.5,-224 294.73,-215.15 291.5,-205.37 288.74,-197.2"/>
<polygon fill="midnightblue" stroke="midnightblue" points="292.01,-195.94 285.47,-187.6 285.38,-198.19 292.01,-195.94"/>
</g>
<!-- Node3&#45;&gt;Node8 -->
<g id="edge10" class="edge">
<title>Node3&#45;&gt;Node8</title>
<path fill="none" stroke="midnightblue" d="M269.72,-283.05C237,-277.17 193.43,-265.75 160.5,-244 141.96,-231.75 126.7,-211.02 117.39,-196.26"/>
<polygon fill="midnightblue" stroke="midnightblue" points="120.31,-194.33 112.15,-187.57 114.32,-197.95 120.31,-194.33"/>
</g>
<!-- Node9 -->
<g id="node9" class="node">
<title>Node9</title>
<g id="a_node9"><a xlink:title=" ">
<polygon fill="white" stroke="#bfbfbf" points="278.5,-112.5 278.5,-131.5 334.5,-131.5 334.5,-112.5 278.5,-112.5"/>
<text text-anchor="middle" x="306.5" y="-119.5" font-family="Helvetica,sans-Serif" font-size="10.00">optional</text>
</a>
</g>
</g>
<!-- Node3&#45;&gt;Node9 -->
<g id="edge11" class="edge">
<title>Node3&#45;&gt;Node9</title>
<path fill="none" stroke="midnightblue" d="M320.09,-280.33C327.91,-260.25 344.88,-209.09 333.5,-168 330.71,-157.92 324.99,-147.83 319.53,-139.77"/>
<polygon fill="midnightblue" stroke="midnightblue" points="322.35,-137.69 313.65,-131.64 316.68,-141.79 322.35,-137.69"/>
</g>
<!-- Node3&#45;&gt;Node10 -->
<g id="edge12" class="edge">
<title>Node3&#45;&gt;Node10</title>
<path fill="none" stroke="midnightblue" d="M346.61,-280.44C380.99,-270.67 437.09,-254.73 472.87,-244.56"/>
<polygon fill="midnightblue" stroke="midnightblue" points="474.18,-247.83 482.84,-241.73 472.26,-241.09 474.18,-247.83"/>
</g>
<!-- Node4&#45;&gt;Node5 -->
<g id="edge4" class="edge">
<title>Node4&#45;&gt;Node5</title>
<path fill="none" stroke="midnightblue" d="M241.9,-224.22C238.44,-215.28 233.47,-200.94 231.5,-188 226.05,-152.13 227.95,-109.57 229.77,-85.69"/>
<polygon fill="midnightblue" stroke="midnightblue" points="233.27,-85.83 230.62,-75.57 226.29,-85.25 233.27,-85.83"/>
</g>
<!-- Node4&#45;&gt;Node7 -->
<g id="edge6" class="edge">
<title>Node4&#45;&gt;Node7</title>
<path fill="none" stroke="midnightblue" d="M251.61,-224.08C256.78,-216.53 264.35,-205.49 270.69,-196.23"/>
<polygon fill="midnightblue" stroke="midnightblue" points="273.74,-197.98 276.5,-187.75 267.96,-194.02 273.74,-197.98"/>
</g>
<!-- Node4&#45;&gt;Node8 -->
<g id="edge8" class="edge">
<title>Node4&#45;&gt;Node8</title>
<path fill="none" stroke="midnightblue" d="M223.63,-224.44C200.72,-215.48 164.52,-201.31 138.63,-191.18"/>
<polygon fill="midnightblue" stroke="midnightblue" points="139.85,-187.9 129.26,-187.52 137.3,-194.42 139.85,-187.9"/>
</g>
<!-- Node6 -->
<g id="node6" class="node">
<title>Node6</title>
<g id="a_node6"><a xlink:title=" ">
<polygon fill="white" stroke="#bfbfbf" points="209,-0.5 209,-19.5 254,-19.5 254,-0.5 209,-0.5"/>
<text text-anchor="middle" x="231.5" y="-7.5" font-family="Helvetica,sans-Serif" font-size="10.00">utility</text>
</a>
</g>
</g>
<!-- Node5&#45;&gt;Node6 -->
<g id="edge5" class="edge">
<title>Node5&#45;&gt;Node6</title>
<path fill="none" stroke="midnightblue" d="M231.5,-56.08C231.5,-49.01 231.5,-38.86 231.5,-29.99"/>
<polygon fill="midnightblue" stroke="midnightblue" points="235,-29.75 231.5,-19.75 228,-29.75 235,-29.75"/>
</g>
<!-- Node7&#45;&gt;Node5 -->
<g id="edge7" class="edge">
<title>Node7&#45;&gt;Node5</title>
<path fill="none" stroke="midnightblue" d="M278.5,-168.37C270.19,-150.46 250.94,-108.92 239.82,-84.95"/>
<polygon fill="midnightblue" stroke="midnightblue" points="242.86,-83.19 235.48,-75.59 236.51,-86.14 242.86,-83.19"/>
</g>
<!-- Node11 -->
<g id="node11" class="node">
<title>Node11</title>
<g id="a_node11"><a xlink:title=" ">
<polygon fill="white" stroke="#bfbfbf" points="528.5,-56.5 528.5,-75.5 572.5,-75.5 572.5,-56.5 528.5,-56.5"/>
<text text-anchor="middle" x="550.5" y="-63.5" font-family="Helvetica,sans-Serif" font-size="10.00">string</text>
</a>
</g>
</g>
<!-- Node10&#45;&gt;Node11 -->
<g id="edge13" class="edge">
<title>Node10&#45;&gt;Node11</title>
<path fill="none" stroke="midnightblue" d="M523.45,-224.34C550.2,-209.59 601.23,-176.78 621.5,-132 631.9,-109.02 605.35,-90.54 581.8,-79.24"/>
<polygon fill="midnightblue" stroke="midnightblue" points="583.24,-76.05 572.68,-75.13 580.36,-82.43 583.24,-76.05"/>
</g>
<!-- Node12 -->
<g id="node12" class="node">
<title>Node12</title>
<g id="a_node12"><a xlink:title=" ">
<polygon fill="white" stroke="#bfbfbf" points="655,-56.5 655,-75.5 702,-75.5 702,-56.5 655,-56.5"/>
<text text-anchor="middle" x="678.5" y="-63.5" font-family="Helvetica,sans-Serif" font-size="10.00">vector</text>
</a>
</g>
</g>
<!-- Node10&#45;&gt;Node12 -->
<g id="edge14" class="edge">
<title>Node10&#45;&gt;Node12</title>
<path fill="none" stroke="midnightblue" d="M530.16,-225.06C550.23,-217.58 579.09,-204.97 600.5,-188 635.79,-160.03 660.04,-111.49 671.31,-85.2"/>
<polygon fill="midnightblue" stroke="midnightblue" points="674.65,-86.28 675.23,-75.7 668.18,-83.61 674.65,-86.28"/>
</g>
<!-- Node13 -->
<g id="node13" class="node">
<title>Node13</title>
<g id="a_node13"><a xlink:href="Window_8h.html" target="_top" xlink:title="Class for handling ncurses windows.">
<polygon fill="white" stroke="black" points="474.5,-168.5 474.5,-187.5 538.5,-187.5 538.5,-168.5 474.5,-168.5"/>
<text text-anchor="middle" x="506.5" y="-175.5" font-family="Helvetica,sans-Serif" font-size="10.00">Window.h</text>
</a>
</g>
</g>
<!-- Node10&#45;&gt;Node13 -->
<g id="edge15" class="edge">
<title>Node10&#45;&gt;Node13</title>
<path fill="none" stroke="midnightblue" d="M506.5,-224.08C506.5,-217.01 506.5,-206.86 506.5,-197.99"/>
<polygon fill="midnightblue" stroke="midnightblue" points="510,-197.75 506.5,-187.75 503,-197.75 510,-197.75"/>
</g>
<!-- Node13&#45;&gt;Node5 -->
<g id="edge20" class="edge">
<title>Node13&#45;&gt;Node5</title>
<path fill="none" stroke="midnightblue" d="M484.92,-168.37C436.43,-148.97 318.67,-101.87 262.42,-79.37"/>
<polygon fill="midnightblue" stroke="midnightblue" points="263.56,-76.06 252.98,-75.59 260.96,-82.56 263.56,-76.06"/>
</g>
<!-- Node13&#45;&gt;Node9 -->
<g id="edge18" class="edge">
<title>Node13&#45;&gt;Node9</title>
<path fill="none" stroke="midnightblue" d="M474.81,-168.44C439.57,-158.93 382.66,-143.56 344.91,-133.37"/>
<polygon fill="midnightblue" stroke="midnightblue" points="345.38,-129.87 334.81,-130.64 343.55,-136.63 345.38,-129.87"/>
</g>
<!-- Node13&#45;&gt;Node11 -->
<g id="edge17" class="edge">
<title>Node13&#45;&gt;Node11</title>
<path fill="none" stroke="midnightblue" d="M509.95,-168.37C517.12,-150.46 533.73,-108.92 543.32,-84.95"/>
<polygon fill="midnightblue" stroke="midnightblue" points="546.6,-86.18 547.06,-75.59 540.1,-83.58 546.6,-86.18"/>
</g>
<!-- Node13&#45;&gt;Node12 -->
<g id="edge19" class="edge">
<title>Node13&#45;&gt;Node12</title>
<path fill="none" stroke="midnightblue" d="M538.51,-168.95C562.77,-161.84 596.14,-149.8 621.5,-132 640.04,-118.99 656.54,-98.72 666.95,-84.28"/>
<polygon fill="midnightblue" stroke="midnightblue" points="670.03,-85.98 672.87,-75.77 664.29,-81.98 670.03,-85.98"/>
</g>
<!-- Node14 -->
<g id="node14" class="node">
<title>Node14</title>
<g id="a_node14"><a xlink:title=" ">
<polygon fill="white" stroke="#bfbfbf" points="429,-112.5 429,-131.5 492,-131.5 492,-112.5 429,-112.5"/>
<text text-anchor="middle" x="460.5" y="-119.5" font-family="Helvetica,sans-Serif" font-size="10.00">ncurses.h</text>
</a>
</g>
</g>
<!-- Node13&#45;&gt;Node14 -->
<g id="edge16" class="edge">
<title>Node13&#45;&gt;Node14</title>
<path fill="none" stroke="midnightblue" d="M498.9,-168.08C492.27,-160.3 482.48,-148.8 474.44,-139.37"/>
<polygon fill="midnightblue" stroke="midnightblue" points="477.1,-137.09 467.95,-131.75 471.77,-141.63 477.1,-137.09"/>
</g>
<!-- Node13&#45;&gt;Node15 -->
<g id="edge21" class="edge">
<title>Node13&#45;&gt;Node15</title>
<path fill="none" stroke="midnightblue" d="M518.39,-168.32C529.65,-160.11 546.79,-147.6 560.21,-137.81"/>
<polygon fill="midnightblue" stroke="midnightblue" points="562.38,-140.56 568.39,-131.83 558.25,-134.9 562.38,-140.56"/>
</g>
<!-- Node15&#45;&gt;Node5 -->
<g id="edge22" class="edge">
<title>Node15&#45;&gt;Node5</title>
<path fill="none" stroke="midnightblue" d="M548.91,-116.11C485.23,-106.26 341.56,-84.03 271.47,-73.18"/>
<polygon fill="midnightblue" stroke="midnightblue" points="271.69,-69.68 261.28,-71.61 270.62,-76.6 271.69,-69.68"/>
</g>
<!-- Node15&#45;&gt;Node11 -->
<g id="edge23" class="edge">
<title>Node15&#45;&gt;Node11</title>
<path fill="none" stroke="midnightblue" d="M575.55,-112.08C571.4,-104.61 565.35,-93.72 560.23,-84.52"/>
<polygon fill="midnightblue" stroke="midnightblue" points="563.28,-82.79 555.36,-75.75 557.16,-86.19 563.28,-82.79"/>
</g>
<!-- Node15&#45;&gt;Node12 -->
<g id="edge24" class="edge">
<title>Node15&#45;&gt;Node12</title>
<path fill="none" stroke="midnightblue" d="M596.25,-112.32C611.82,-103.74 635.88,-90.49 653.96,-80.52"/>
<polygon fill="midnightblue" stroke="midnightblue" points="655.72,-83.55 662.79,-75.65 652.35,-77.42 655.72,-83.55"/>
</g>
<!-- Node16&#45;&gt;Node3 -->
<g id="edge30" class="edge">
<title>Node16&#45;&gt;Node3</title>
<path fill="none" stroke="midnightblue" d="M101.06,-336.44C145.82,-327 217.88,-311.8 266.2,-301.61"/>
<polygon fill="midnightblue" stroke="midnightblue" points="267.06,-305.01 276.13,-299.52 265.62,-298.16 267.06,-305.01"/>
</g>
<!-- Node16&#45;&gt;Node5 -->
<g id="edge28" class="edge">
<title>Node16&#45;&gt;Node5</title>
<path fill="none" stroke="midnightblue" d="M55.22,-336.23C44.77,-318.04 22.5,-274.6 22.5,-235 22.5,-235 22.5,-235 22.5,-177 22.5,-101.22 131.42,-77.53 192,-70.21"/>
<polygon fill="midnightblue" stroke="midnightblue" points="192.45,-73.68 202,-69.1 191.67,-66.72 192.45,-73.68"/>
</g>
<!-- Node16&#45;&gt;Node8 -->
<g id="edge29" class="edge">
<title>Node16&#45;&gt;Node8</title>
<path fill="none" stroke="midnightblue" d="M61.39,-336.28C63.64,-316.07 70.38,-264.67 84.5,-224 87.77,-214.57 92.68,-204.64 97.12,-196.51"/>
<polygon fill="midnightblue" stroke="midnightblue" points="100.26,-198.07 102.16,-187.64 94.18,-194.6 100.26,-198.07"/>
</g>
<!-- Node16&#45;&gt;Node10 -->
<g id="edge27" class="edge">
<title>Node16&#45;&gt;Node10</title>
<path fill="none" stroke="midnightblue" d="M111.63,-342.38C174.12,-338.1 282.53,-327.15 371.5,-300 412.94,-287.35 457.6,-263.65 483.75,-248.63"/>
<polygon fill="midnightblue" stroke="midnightblue" points="485.63,-251.59 492.5,-243.53 482.1,-245.54 485.63,-251.59"/>
</g>
<!-- Node17&#45;&gt;Node3 -->
<g id="edge33" class="edge">
<title>Node17&#45;&gt;Node3</title>
<path fill="none" stroke="midnightblue" d="M384.49,-336.32C371.97,-327.98 352.82,-315.21 338.03,-305.35"/>
<polygon fill="midnightblue" stroke="midnightblue" points="339.74,-302.29 329.48,-299.65 335.86,-308.11 339.74,-302.29"/>
</g>
<!-- Node17&#45;&gt;Node10 -->
<g id="edge34" class="edge">
<title>Node17&#45;&gt;Node10</title>
<path fill="none" stroke="midnightblue" d="M406.63,-336.49C416.18,-327.53 431.57,-312.95 444.5,-300 460.92,-283.55 479.24,-264.22 491.68,-250.94"/>
<polygon fill="midnightblue" stroke="midnightblue" points="494.33,-253.23 498.59,-243.53 489.21,-248.45 494.33,-253.23"/>
</g>
<!-- Node17&#45;&gt;Node11 -->
<g id="edge35" class="edge">
<title>Node17&#45;&gt;Node11</title>
<path fill="none" stroke="midnightblue" d="M395.3,-336.19C387.49,-302.72 364.45,-181.91 419.5,-112 443.06,-82.09 487.58,-71.96 518.13,-68.59"/>
<polygon fill="midnightblue" stroke="midnightblue" points="518.66,-72.06 528.3,-67.66 518.02,-65.09 518.66,-72.06"/>
</g>
<!-- Node21&#45;&gt;Node16 -->
<g id="edge43" class="edge">
<title>Node21&#45;&gt;Node16</title>
<path fill="none" stroke="midnightblue" d="M52.99,-392.08C54.18,-384.93 55.89,-374.64 57.38,-365.69"/>
<polygon fill="midnightblue" stroke="midnightblue" points="60.85,-366.19 59.04,-355.75 53.95,-365.04 60.85,-366.19"/>
</g>
<!-- Node22&#45;&gt;Node16 -->
<g id="edge45" class="edge">
<title>Node22&#45;&gt;Node16</title>
<path fill="none" stroke="midnightblue" d="M152.83,-392.32C135.11,-383.62 107.6,-370.12 87.21,-360.11"/>
<polygon fill="midnightblue" stroke="midnightblue" points="88.65,-356.92 78.13,-355.65 85.56,-363.2 88.65,-356.92"/>
</g>
<!-- Node23&#45;&gt;Node16 -->
<g id="edge47" class="edge">
<title>Node23&#45;&gt;Node16</title>
<path fill="none" stroke="midnightblue" d="M259.95,-392.44C218.69,-383.04 152.36,-367.93 107.63,-357.74"/>
<polygon fill="midnightblue" stroke="midnightblue" points="108.41,-354.33 97.88,-355.52 106.85,-361.15 108.41,-354.33"/>
</g>
</g>
</svg>
