<?xml version="1.0" encoding="UTF-8" standalone="no"?>
<!DOCTYPE svg PUBLIC "-//W3C//DTD SVG 1.1//EN"
 "http://www.w3.org/Graphics/SVG/1.1/DTD/svg11.dtd">
<!-- Generated by graphviz version 2.43.0 (0)
 -->
<!-- Title: src/Helpers.h Pages: 1 -->
<svg width="1557pt" height="476pt"
 viewBox="0.00 0.00 1557.00 476.00" xmlns="http://www.w3.org/2000/svg" xmlns:xlink="http://www.w3.org/1999/xlink">
<g id="graph0" class="graph" transform="scale(1 1) rotate(0) translate(4 472)">
<title>src/Helpers.h</title>
<polygon fill="white" stroke="transparent" points="-4,4 -4,-472 1553,-472 1553,4 -4,4"/>
<!-- Node1 -->
<g id="node1" class="node">
<title>Node1</title>
<g id="a_node1"><a xlink:title=" ">
<polygon fill="#bfbfbf" stroke="black" points="1278,-448.5 1278,-467.5 1358,-467.5 1358,-448.5 1278,-448.5"/>
<text text-anchor="middle" x="1318" y="-455.5" font-family="Helvetica,sans-Serif" font-size="10.00">src/Helpers.h</text>
</a>
</g>
</g>
<!-- Node2 -->
<g id="node2" class="node">
<title>Node2</title>
<g id="a_node2"><a xlink:href="Game_8cpp.html" target="_top" xlink:title="Class for handling the game logic.">
<polygon fill="white" stroke="black" points="781.5,-56.5 781.5,-75.5 864.5,-75.5 864.5,-56.5 781.5,-56.5"/>
<text text-anchor="middle" x="823" y="-63.5" font-family="Helvetica,sans-Serif" font-size="10.00">src/Game.cpp</text>
</a>
</g>
</g>
<!-- Node1&#45;&gt;Node2 -->
<g id="edge1" class="edge">
<title>Node1&#45;&gt;Node2</title>
<path fill="none" stroke="midnightblue" d="M1267.64,-457.4C1121.51,-457.99 684.9,-455.67 326,-412 179.34,-394.16 0,-494.74 0,-347 0,-347 0,-347 0,-177 0,-134.22 31.54,-128.54 71,-112 211.58,-53.07 604.23,-90.16 756,-76 764.18,-75.24 772.9,-74.22 781.24,-73.14"/>
<polygon fill="midnightblue" stroke="midnightblue" points="1267.68,-460.9 1277.66,-457.35 1267.64,-453.9 1267.68,-460.9"/>
</g>
<!-- Node3 -->
<g id="node3" class="node">
<title>Node3</title>
<g id="a_node3"><a xlink:href="Ghost_8cpp.html" target="_top" xlink:title="Represents a ghost enemy.">
<polygon fill="white" stroke="black" points="253.5,-112.5 253.5,-131.5 336.5,-131.5 336.5,-112.5 253.5,-112.5"/>
<text text-anchor="middle" x="295" y="-119.5" font-family="Helvetica,sans-Serif" font-size="10.00">src/Ghost.cpp</text>
</a>
</g>
</g>
<!-- Node1&#45;&gt;Node3 -->
<g id="edge2" class="edge">
<title>Node1&#45;&gt;Node3</title>
<path fill="none" stroke="midnightblue" d="M1267.53,-457.13C1056.67,-457.04 257,-449.89 257,-347 257,-347 257,-347 257,-233 257,-193.4 279.27,-149.96 289.72,-131.77"/>
<polygon fill="midnightblue" stroke="midnightblue" points="1267.7,-460.63 1277.7,-457.13 1267.7,-453.63 1267.7,-460.63"/>
</g>
<!-- Node4 -->
<g id="node4" class="node">
<title>Node4</title>
<g id="a_node4"><a xlink:href="Helpers_8cpp.html" target="_top" xlink:title=" ">
<polygon fill="white" stroke="black" points="1457,-392.5 1457,-411.5 1549,-411.5 1549,-392.5 1457,-392.5"/>
<text text-anchor="middle" x="1503" y="-399.5" font-family="Helvetica,sans-Serif" font-size="10.00">src/Helpers.cpp</text>
</a>
</g>
</g>
<!-- Node1&#45;&gt;Node4 -->
<g id="edge3" class="edge">
<title>Node1&#45;&gt;Node4</title>
<path fill="none" stroke="midnightblue" d="M1357.17,-445.57C1392.07,-435.38 1442.35,-420.7 1473.82,-411.52"/>
<polygon fill="midnightblue" stroke="midnightblue" points="1355.93,-442.28 1347.31,-448.44 1357.89,-449 1355.93,-442.28"/>
</g>
<!-- Node5 -->
<g id="node5" class="node">
<title>Node5</title>
<g id="a_node5"><a xlink:href="Player_8cpp.html" target="_top" xlink:title="Represents a player.">
<polygon fill="white" stroke="black" points="1068,-168.5 1068,-187.5 1152,-187.5 1152,-168.5 1068,-168.5"/>
<text text-anchor="middle" x="1110" y="-175.5" font-family="Helvetica,sans-Serif" font-size="10.00">src/Player.cpp</text>
</a>
</g>
</g>
<!-- Node1&#45;&gt;Node5 -->
<g id="edge4" class="edge">
<title>Node1&#45;&gt;Node5</title>
<path fill="none" stroke="midnightblue" d="M1342.46,-443.06C1377.45,-421.24 1434.96,-377.24 1410,-336 1353.3,-242.34 1220.31,-201.86 1152.05,-186.75"/>
<polygon fill="midnightblue" stroke="midnightblue" points="1340.44,-440.19 1333.7,-448.36 1344.06,-446.18 1340.44,-440.19"/>
</g>
<!-- Node6 -->
<g id="node6" class="node">
<title>Node6</title>
<g id="a_node6"><a xlink:href="Window_8cpp.html" target="_top" xlink:title="Class for handling ncurses windows.">
<polygon fill="white" stroke="black" points="1309,-336.5 1309,-355.5 1401,-355.5 1401,-336.5 1309,-336.5"/>
<text text-anchor="middle" x="1355" y="-343.5" font-family="Helvetica,sans-Serif" font-size="10.00">src/Window.cpp</text>
</a>
</g>
</g>
<!-- Node1&#45;&gt;Node6 -->
<g id="edge5" class="edge">
<title>Node1&#45;&gt;Node6</title>
<path fill="none" stroke="midnightblue" d="M1324.16,-438.67C1332.25,-414.62 1346.12,-373.39 1352.11,-355.59"/>
<polygon fill="midnightblue" stroke="midnightblue" points="1320.77,-437.77 1320.9,-448.37 1327.41,-440.01 1320.77,-437.77"/>
</g>
<!-- Node7 -->
<g id="node7" class="node">
<title>Node7</title>
<g id="a_node7"><a xlink:href="Window_8h.html" target="_top" xlink:title="Class for handling ncurses windows.">
<polygon fill="white" stroke="black" points="1240.5,-392.5 1240.5,-411.5 1321.5,-411.5 1321.5,-392.5 1240.5,-392.5"/>
<text text-anchor="middle" x="1281" y="-399.5" font-family="Helvetica,sans-Serif" font-size="10.00">src/Window.h</text>
</a>
</g>
</g>
<!-- Node1&#45;&gt;Node7 -->
<g id="edge6" class="edge">
<title>Node1&#45;&gt;Node7</title>
<path fill="none" stroke="midnightblue" d="M1306.05,-439.57C1299.69,-430.27 1292.13,-419.25 1287,-411.75"/>
<polygon fill="midnightblue" stroke="midnightblue" points="1303.35,-441.81 1311.89,-448.08 1309.13,-437.86 1303.35,-441.81"/>
</g>
<!-- Node7&#45;&gt;Node6 -->
<g id="edge60" class="edge">
<title>Node7&#45;&gt;Node6</title>
<path fill="none" stroke="midnightblue" d="M1301.03,-386.38C1314.41,-376.62 1331.56,-364.11 1342.89,-355.83"/>
<polygon fill="midnightblue" stroke="midnightblue" points="1298.9,-383.6 1292.89,-392.32 1303.03,-389.26 1298.9,-383.6"/>
</g>
<!-- Node8 -->
<g id="node8" class="node">
<title>Node8</title>
<g id="a_node8"><a xlink:href="Game_8h.html" target="_top" xlink:title="Class for handling the game logic.">
<polygon fill="white" stroke="black" points="1181,-112.5 1181,-131.5 1253,-131.5 1253,-112.5 1181,-112.5"/>
<text text-anchor="middle" x="1217" y="-119.5" font-family="Helvetica,sans-Serif" font-size="10.00">src/Game.h</text>
</a>
</g>
</g>
<!-- Node7&#45;&gt;Node8 -->
<g id="edge7" class="edge">
<title>Node7&#45;&gt;Node8</title>
<path fill="none" stroke="midnightblue" d="M1270.86,-383.43C1259.6,-362.24 1243,-325.19 1243,-291 1243,-291 1243,-291 1243,-233 1243,-194.34 1227.6,-150.04 1220.51,-131.68"/>
<polygon fill="midnightblue" stroke="midnightblue" points="1267.82,-385.17 1275.72,-392.23 1273.95,-381.78 1267.82,-385.17"/>
</g>
<!-- Node9 -->
<g id="node9" class="node">
<title>Node9</title>
<g id="a_node9"><a xlink:href="GameManager_8h.html" target="_top" xlink:title="Handles the game loop and game states.">
<polygon fill="white" stroke="black" points="1211,-56.5 1211,-75.5 1325,-75.5 1325,-56.5 1211,-56.5"/>
<text text-anchor="middle" x="1268" y="-63.5" font-family="Helvetica,sans-Serif" font-size="10.00">src/GameManager.h</text>
</a>
</g>
</g>
<!-- Node7&#45;&gt;Node9 -->
<g id="edge12" class="edge">
<title>Node7&#45;&gt;Node9</title>
<path fill="none" stroke="midnightblue" d="M1281,-382.25C1281,-360.36 1281,-323.05 1281,-291 1281,-291 1281,-291 1281,-177 1281,-138.92 1273.22,-93.94 1269.7,-75.52"/>
<polygon fill="midnightblue" stroke="midnightblue" points="1277.5,-382.44 1281,-392.44 1284.5,-382.44 1277.5,-382.44"/>
</g>
<!-- Node12 -->
<g id="node12" class="node">
<title>Node12</title>
<g id="a_node12"><a xlink:href="Map_8h.html" target="_top" xlink:title="Class for handling the game map.">
<polygon fill="white" stroke="black" points="801,-336.5 801,-355.5 865,-355.5 865,-336.5 801,-336.5"/>
<text text-anchor="middle" x="833" y="-343.5" font-family="Helvetica,sans-Serif" font-size="10.00">src/Map.h</text>
</a>
</g>
</g>
<!-- Node7&#45;&gt;Node12 -->
<g id="edge13" class="edge">
<title>Node7&#45;&gt;Node12</title>
<path fill="none" stroke="midnightblue" d="M1230.45,-394.91C1137.54,-383.71 942.12,-360.15 865.14,-350.87"/>
<polygon fill="midnightblue" stroke="midnightblue" points="1230.11,-398.39 1240.45,-396.11 1230.94,-391.44 1230.11,-398.39"/>
</g>
<!-- Node8&#45;&gt;Node2 -->
<g id="edge8" class="edge">
<title>Node8&#45;&gt;Node2</title>
<path fill="none" stroke="midnightblue" d="M1170.72,-111.88C1045.62,-91.63 1012.1,-91.99 890,-76 881.85,-74.93 873.15,-73.78 864.81,-72.66"/>
<polygon fill="midnightblue" stroke="midnightblue" points="1170.26,-115.35 1180.69,-113.51 1171.38,-108.45 1170.26,-115.35"/>
</g>
<!-- Node8&#45;&gt;Node9 -->
<g id="edge9" class="edge">
<title>Node8&#45;&gt;Node9</title>
<path fill="none" stroke="midnightblue" d="M1232.38,-104.72C1241.37,-95.2 1252.36,-83.56 1259.74,-75.75"/>
<polygon fill="midnightblue" stroke="midnightblue" points="1229.74,-102.41 1225.42,-112.08 1234.83,-107.22 1229.74,-102.41"/>
</g>
<!-- Node10 -->
<g id="node10" class="node">
<title>Node10</title>
<g id="a_node10"><a xlink:href="GameManager_8cpp.html" target="_top" xlink:title="Handles the game loop and game states.">
<polygon fill="white" stroke="black" points="1145.5,-0.5 1145.5,-19.5 1270.5,-19.5 1270.5,-0.5 1145.5,-0.5"/>
<text text-anchor="middle" x="1208" y="-7.5" font-family="Helvetica,sans-Serif" font-size="10.00">src/GameManager.cpp</text>
</a>
</g>
</g>
<!-- Node9&#45;&gt;Node10 -->
<g id="edge10" class="edge">
<title>Node9&#45;&gt;Node10</title>
<path fill="none" stroke="midnightblue" d="M1250.82,-49.54C1240.12,-39.91 1226.74,-27.87 1217.82,-19.83"/>
<polygon fill="midnightblue" stroke="midnightblue" points="1248.59,-52.24 1258.36,-56.32 1253.27,-47.03 1248.59,-52.24"/>
</g>
<!-- Node11 -->
<g id="node11" class="node">
<title>Node11</title>
<g id="a_node11"><a xlink:href="main_8cpp.html" target="_top" xlink:title="Main function, initializes the game manager.">
<polygon fill="white" stroke="black" points="1288.5,-0.5 1288.5,-19.5 1367.5,-19.5 1367.5,-0.5 1288.5,-0.5"/>
<text text-anchor="middle" x="1328" y="-7.5" font-family="Helvetica,sans-Serif" font-size="10.00">src/main.cpp</text>
</a>
</g>
</g>
<!-- Node9&#45;&gt;Node11 -->
<g id="edge11" class="edge">
<title>Node9&#45;&gt;Node11</title>
<path fill="none" stroke="midnightblue" d="M1285.18,-49.54C1295.88,-39.91 1309.26,-27.87 1318.18,-19.83"/>
<polygon fill="midnightblue" stroke="midnightblue" points="1282.73,-47.03 1277.64,-56.32 1287.41,-52.24 1282.73,-47.03"/>
</g>
<!-- Node12&#45;&gt;Node3 -->
<g id="edge32" class="edge">
<title>Node12&#45;&gt;Node3</title>
<path fill="none" stroke="midnightblue" d="M790.82,-338.59C745.61,-331.24 671.97,-317.85 610,-300 474.84,-261.07 409.54,-291.23 314,-188 299.31,-172.12 295.92,-145.49 295.18,-131.77"/>
<polygon fill="midnightblue" stroke="midnightblue" points="790.42,-342.07 800.85,-340.2 791.53,-335.16 790.42,-342.07"/>
</g>
<!-- Node12&#45;&gt;Node8 -->
<g id="edge31" class="edge">
<title>Node12&#45;&gt;Node8</title>
<path fill="none" stroke="midnightblue" d="M875.44,-341.03C916.31,-335.89 978.97,-324.5 1028,-300 1114.46,-256.8 1189,-161.32 1210.66,-131.84"/>
<polygon fill="midnightblue" stroke="midnightblue" points="874.81,-337.58 865.29,-342.23 875.63,-344.53 874.81,-337.58"/>
</g>
<!-- Node13 -->
<g id="node13" class="node">
<title>Node13</title>
<g id="a_node13"><a xlink:href="Config_8cpp.html" target="_top" xlink:title="Class for handling the game configuration.">
<polygon fill="white" stroke="black" points="692.5,-280.5 692.5,-299.5 777.5,-299.5 777.5,-280.5 692.5,-280.5"/>
<text text-anchor="middle" x="735" y="-287.5" font-family="Helvetica,sans-Serif" font-size="10.00">src/Config.cpp</text>
</a>
</g>
</g>
<!-- Node12&#45;&gt;Node13 -->
<g id="edge14" class="edge">
<title>Node12&#45;&gt;Node13</title>
<path fill="none" stroke="midnightblue" d="M808.41,-331.45C790.32,-321.48 766.27,-308.23 750.71,-299.65"/>
<polygon fill="midnightblue" stroke="midnightblue" points="806.81,-334.56 817.25,-336.32 810.19,-328.43 806.81,-334.56"/>
</g>
<!-- Node14 -->
<g id="node14" class="node">
<title>Node14</title>
<g id="a_node14"><a xlink:href="EnemyBehavior_8h.html" target="_top" xlink:title="Base class for all enemy behaviors.">
<polygon fill="white" stroke="black" points="493.5,-224.5 493.5,-243.5 612.5,-243.5 612.5,-224.5 493.5,-224.5"/>
<text text-anchor="middle" x="553" y="-231.5" font-family="Helvetica,sans-Serif" font-size="10.00">src/EnemyBehavior.h</text>
</a>
</g>
</g>
<!-- Node12&#45;&gt;Node14 -->
<g id="edge15" class="edge">
<title>Node12&#45;&gt;Node14</title>
<path fill="none" stroke="midnightblue" d="M790.62,-338.9C752.63,-332.43 695.96,-320.29 650,-300 615.51,-284.77 579.93,-257.36 563.05,-243.51"/>
<polygon fill="midnightblue" stroke="midnightblue" points="790.38,-342.41 800.82,-340.57 791.52,-335.5 790.38,-342.41"/>
</g>
<!-- Node20 -->
<g id="node20" class="node">
<title>Node20</title>
<g id="a_node20"><a xlink:href="Ghost_8h.html" target="_top" xlink:title="Represents a ghost enemy.">
<polygon fill="white" stroke="black" points="762.5,-168.5 762.5,-187.5 833.5,-187.5 833.5,-168.5 762.5,-168.5"/>
<text text-anchor="middle" x="798" y="-175.5" font-family="Helvetica,sans-Serif" font-size="10.00">src/Ghost.h</text>
</a>
</g>
</g>
<!-- Node12&#45;&gt;Node20 -->
<g id="edge33" class="edge">
<title>Node12&#45;&gt;Node20</title>
<path fill="none" stroke="midnightblue" d="M790.57,-345.03C755.73,-342.51 708.31,-332.73 684,-300 649.84,-254 737.2,-206.59 778.16,-187.61"/>
<polygon fill="midnightblue" stroke="midnightblue" points="790.76,-348.54 800.93,-345.59 791.14,-341.55 790.76,-348.54"/>
</g>
<!-- Node23 -->
<g id="node23" class="node">
<title>Node23</title>
<g id="a_node23"><a xlink:href="Map_8cpp.html" target="_top" xlink:title="Class for handling the game map.">
<polygon fill="white" stroke="black" points="795.5,-280.5 795.5,-299.5 870.5,-299.5 870.5,-280.5 795.5,-280.5"/>
<text text-anchor="middle" x="833" y="-287.5" font-family="Helvetica,sans-Serif" font-size="10.00">src/Map.cpp</text>
</a>
</g>
</g>
<!-- Node12&#45;&gt;Node23 -->
<g id="edge34" class="edge">
<title>Node12&#45;&gt;Node23</title>
<path fill="none" stroke="midnightblue" d="M833,-325.8C833,-316.91 833,-306.78 833,-299.75"/>
<polygon fill="midnightblue" stroke="midnightblue" points="829.5,-326.08 833,-336.08 836.5,-326.08 829.5,-326.08"/>
</g>
<!-- Node24 -->
<g id="node24" class="node">
<title>Node24</title>
<g id="a_node24"><a xlink:href="MovingObject_8h.html" target="_top" xlink:title="Base class for all moving objects.">
<polygon fill="white" stroke="black" points="889,-280.5 889,-299.5 999,-299.5 999,-280.5 889,-280.5"/>
<text text-anchor="middle" x="944" y="-287.5" font-family="Helvetica,sans-Serif" font-size="10.00">src/MovingObject.h</text>
</a>
</g>
</g>
<!-- Node12&#45;&gt;Node24 -->
<g id="edge35" class="edge">
<title>Node12&#45;&gt;Node24</title>
<path fill="none" stroke="midnightblue" d="M860.01,-331.86C880.59,-321.85 908.34,-308.35 926.21,-299.65"/>
<polygon fill="midnightblue" stroke="midnightblue" points="858.3,-328.8 850.83,-336.32 861.36,-335.1 858.3,-328.8"/>
</g>
<!-- Node36 -->
<g id="node36" class="node">
<title>Node36</title>
<g id="a_node36"><a xlink:href="Player_8h.html" target="_top" xlink:title="Represents a player.">
<polygon fill="white" stroke="black" points="990.5,-224.5 990.5,-243.5 1063.5,-243.5 1063.5,-224.5 990.5,-224.5"/>
<text text-anchor="middle" x="1027" y="-231.5" font-family="Helvetica,sans-Serif" font-size="10.00">src/Player.h</text>
</a>
</g>
</g>
<!-- Node12&#45;&gt;Node36 -->
<g id="edge59" class="edge">
<title>Node12&#45;&gt;Node36</title>
<path fill="none" stroke="midnightblue" d="M875.41,-345.38C914.83,-343.41 972.62,-334.25 1008,-300 1023.71,-284.79 1026.62,-257.37 1027.04,-243.51"/>
<polygon fill="midnightblue" stroke="midnightblue" points="875.18,-341.89 865.32,-345.75 875.44,-348.88 875.18,-341.89"/>
</g>
<!-- Node14&#45;&gt;Node2 -->
<g id="edge23" class="edge">
<title>Node14&#45;&gt;Node2</title>
<path fill="none" stroke="midnightblue" d="M482.87,-230.42C362.89,-225.37 128.33,-212.47 100,-188 74.01,-165.55 62.37,-136.93 86,-112 137.28,-57.89 681.77,-82.97 756,-76 764.18,-75.23 772.9,-74.21 781.24,-73.13"/>
<polygon fill="midnightblue" stroke="midnightblue" points="482.93,-233.93 493.06,-230.84 483.22,-226.93 482.93,-233.93"/>
</g>
<!-- Node15 -->
<g id="node15" class="node">
<title>Node15</title>
<g id="a_node15"><a xlink:href="ChaseBehavior_8h.html" target="_top" xlink:title="Class for handling the chase behavior of ghosts.">
<polygon fill="white" stroke="black" points="473,-168.5 473,-187.5 589,-187.5 589,-168.5 473,-168.5"/>
<text text-anchor="middle" x="531" y="-175.5" font-family="Helvetica,sans-Serif" font-size="10.00">src/ChaseBehavior.h</text>
</a>
</g>
</g>
<!-- Node14&#45;&gt;Node15 -->
<g id="edge16" class="edge">
<title>Node14&#45;&gt;Node15</title>
<path fill="none" stroke="midnightblue" d="M545.54,-214.69C541.83,-205.59 537.52,-195.01 534.57,-187.75"/>
<polygon fill="midnightblue" stroke="midnightblue" points="542.35,-216.14 549.37,-224.08 548.84,-213.5 542.35,-216.14"/>
</g>
<!-- Node17 -->
<g id="node17" class="node">
<title>Node17</title>
<g id="a_node17"><a xlink:href="EnemyBehavior_8cpp.html" target="_top" xlink:title="Base class for all enemy behaviors.">
<polygon fill="white" stroke="black" points="323.5,-168.5 323.5,-187.5 454.5,-187.5 454.5,-168.5 323.5,-168.5"/>
<text text-anchor="middle" x="389" y="-175.5" font-family="Helvetica,sans-Serif" font-size="10.00">src/EnemyBehavior.cpp</text>
</a>
</g>
</g>
<!-- Node14&#45;&gt;Node17 -->
<g id="edge19" class="edge">
<title>Node14&#45;&gt;Node17</title>
<path fill="none" stroke="midnightblue" d="M517.48,-221.3C486.58,-211.13 442.53,-196.62 414.86,-187.52"/>
<polygon fill="midnightblue" stroke="midnightblue" points="516.42,-224.64 527.01,-224.44 518.61,-217.99 516.42,-224.64"/>
</g>
<!-- Node18 -->
<g id="node18" class="node">
<title>Node18</title>
<g id="a_node18"><a xlink:href="FrightenedBehavior_8h.html" target="_top" xlink:title="Class representing a frightened ghost behavior.">
<polygon fill="white" stroke="black" points="607.5,-168.5 607.5,-187.5 744.5,-187.5 744.5,-168.5 607.5,-168.5"/>
<text text-anchor="middle" x="676" y="-175.5" font-family="Helvetica,sans-Serif" font-size="10.00">src/FrightenedBehavior.h</text>
</a>
</g>
</g>
<!-- Node14&#45;&gt;Node18 -->
<g id="edge20" class="edge">
<title>Node14&#45;&gt;Node18</title>
<path fill="none" stroke="midnightblue" d="M581.77,-220.37C604.81,-210.26 636.48,-196.35 656.6,-187.52"/>
<polygon fill="midnightblue" stroke="midnightblue" points="580.24,-217.22 572.49,-224.44 583.05,-223.63 580.24,-217.22"/>
</g>
<!-- Node14&#45;&gt;Node20 -->
<g id="edge24" class="edge">
<title>Node14&#45;&gt;Node20</title>
<path fill="none" stroke="midnightblue" d="M601.84,-222.24C649.16,-211.81 719.81,-196.23 762.15,-186.9"/>
<polygon fill="midnightblue" stroke="midnightblue" points="600.83,-218.87 591.82,-224.44 602.34,-225.71 600.83,-218.87"/>
</g>
<!-- Node21 -->
<g id="node21" class="node">
<title>Node21</title>
<g id="a_node21"><a xlink:href="ScatterBehavior_8h.html" target="_top" xlink:title="Class for the scatter behavior of the ghosts.">
<polygon fill="white" stroke="black" points="109,-168.5 109,-187.5 229,-187.5 229,-168.5 109,-168.5"/>
<text text-anchor="middle" x="169" y="-175.5" font-family="Helvetica,sans-Serif" font-size="10.00">src/ScatterBehavior.h</text>
</a>
</g>
</g>
<!-- Node14&#45;&gt;Node21 -->
<g id="edge27" class="edge">
<title>Node14&#45;&gt;Node21</title>
<path fill="none" stroke="midnightblue" d="M483.44,-223.22C410.77,-213 297.94,-197.13 229.04,-187.44"/>
<polygon fill="midnightblue" stroke="midnightblue" points="483.03,-226.7 493.42,-224.62 484.01,-219.76 483.03,-226.7"/>
</g>
<!-- Node15&#45;&gt;Node3 -->
<g id="edge18" class="edge">
<title>Node15&#45;&gt;Node3</title>
<path fill="none" stroke="midnightblue" d="M483.59,-166.15C439,-155.95 373.15,-140.88 332.22,-131.52"/>
<polygon fill="midnightblue" stroke="midnightblue" points="483.08,-169.62 493.61,-168.44 484.64,-162.8 483.08,-169.62"/>
</g>
<!-- Node16 -->
<g id="node16" class="node">
<title>Node16</title>
<g id="a_node16"><a xlink:href="ChaseBehavior_8cpp.html" target="_top" xlink:title="Class for handling the chase behavior of ghosts.">
<polygon fill="white" stroke="black" points="354.5,-112.5 354.5,-131.5 481.5,-131.5 481.5,-112.5 354.5,-112.5"/>
<text text-anchor="middle" x="418" y="-119.5" font-family="Helvetica,sans-Serif" font-size="10.00">src/ChaseBehavior.cpp</text>
</a>
</g>
</g>
<!-- Node15&#45;&gt;Node16 -->
<g id="edge17" class="edge">
<title>Node15&#45;&gt;Node16</title>
<path fill="none" stroke="midnightblue" d="M504,-164.1C482.89,-154.01 454.14,-140.27 435.82,-131.52"/>
<polygon fill="midnightblue" stroke="midnightblue" points="502.56,-167.29 513.09,-168.44 505.58,-160.97 502.56,-167.29"/>
</g>
<!-- Node18&#45;&gt;Node3 -->
<g id="edge22" class="edge">
<title>Node18&#45;&gt;Node3</title>
<path fill="none" stroke="midnightblue" d="M597.33,-167.27C530.17,-158.74 431.09,-145.59 345,-132 342.3,-131.57 339.52,-131.12 336.72,-130.65"/>
<polygon fill="midnightblue" stroke="midnightblue" points="597.05,-170.76 607.41,-168.55 597.93,-163.82 597.05,-170.76"/>
</g>
<!-- Node19 -->
<g id="node19" class="node">
<title>Node19</title>
<g id="a_node19"><a xlink:href="FrightenedBehavior_8cpp.html" target="_top" xlink:title="Class representing a frightened ghost behavior.">
<polygon fill="white" stroke="black" points="499.5,-112.5 499.5,-131.5 648.5,-131.5 648.5,-112.5 499.5,-112.5"/>
<text text-anchor="middle" x="574" y="-119.5" font-family="Helvetica,sans-Serif" font-size="10.00">src/FrightenedBehavior.cpp</text>
</a>
</g>
</g>
<!-- Node18&#45;&gt;Node19 -->
<g id="edge21" class="edge">
<title>Node18&#45;&gt;Node19</title>
<path fill="none" stroke="midnightblue" d="M650.67,-163.59C631.81,-153.61 606.62,-140.27 590.35,-131.65"/>
<polygon fill="midnightblue" stroke="midnightblue" points="649.14,-166.74 659.61,-168.32 652.41,-160.55 649.14,-166.74"/>
</g>
<!-- Node20&#45;&gt;Node3 -->
<g id="edge26" class="edge">
<title>Node20&#45;&gt;Node3</title>
<path fill="none" stroke="midnightblue" d="M751.95,-167.84C571.67,-142.18 522.6,-155.75 345,-132 342.29,-131.64 339.5,-131.23 336.7,-130.8"/>
<polygon fill="midnightblue" stroke="midnightblue" points="751.64,-171.33 762.04,-169.3 752.64,-164.4 751.64,-171.33"/>
</g>
<!-- Node20&#45;&gt;Node8 -->
<g id="edge25" class="edge">
<title>Node20&#45;&gt;Node8</title>
<path fill="none" stroke="midnightblue" d="M843.84,-171.69C936.55,-160.91 1140.25,-137.08 1172,-132 1174.83,-131.55 1177.76,-131.04 1180.69,-130.51"/>
<polygon fill="midnightblue" stroke="midnightblue" points="843.16,-168.24 833.63,-172.87 843.97,-175.2 843.16,-168.24"/>
</g>
<!-- Node21&#45;&gt;Node2 -->
<g id="edge28" class="edge">
<title>Node21&#45;&gt;Node2</title>
<path fill="none" stroke="midnightblue" d="M136.31,-164.21C108.73,-151.64 76.49,-131.55 95,-112 145.58,-58.59 682.77,-82.9 756,-76 764.18,-75.23 772.89,-74.21 781.24,-73.13"/>
<polygon fill="midnightblue" stroke="midnightblue" points="135.21,-167.55 145.77,-168.33 138,-161.13 135.21,-167.55"/>
</g>
<!-- Node21&#45;&gt;Node3 -->
<g id="edge29" class="edge">
<title>Node21&#45;&gt;Node3</title>
<path fill="none" stroke="midnightblue" d="M198.16,-164.5C221.78,-154.38 254.43,-140.39 275.13,-131.52"/>
<polygon fill="midnightblue" stroke="midnightblue" points="196.78,-161.29 188.97,-168.44 199.54,-167.72 196.78,-161.29"/>
</g>
<!-- Node22 -->
<g id="node22" class="node">
<title>Node22</title>
<g id="a_node22"><a xlink:href="ScatterBehavior_8cpp.html" target="_top" xlink:title="Class for the scatter behavior of the ghosts.">
<polygon fill="white" stroke="black" points="104.5,-112.5 104.5,-131.5 235.5,-131.5 235.5,-112.5 104.5,-112.5"/>
<text text-anchor="middle" x="170" y="-119.5" font-family="Helvetica,sans-Serif" font-size="10.00">src/ScatterBehavior.cpp</text>
</a>
</g>
</g>
<!-- Node21&#45;&gt;Node22 -->
<g id="edge30" class="edge">
<title>Node21&#45;&gt;Node22</title>
<path fill="none" stroke="midnightblue" d="M169.36,-157.8C169.52,-148.91 169.71,-138.78 169.84,-131.75"/>
<polygon fill="midnightblue" stroke="midnightblue" points="165.85,-158.02 169.17,-168.08 172.85,-158.15 165.85,-158.02"/>
</g>
<!-- Node24&#45;&gt;Node14 -->
<g id="edge36" class="edge">
<title>Node24&#45;&gt;Node14</title>
<path fill="none" stroke="midnightblue" d="M878.64,-279.81C779.48,-266.03 676.06,-251.84 612.68,-243.16"/>
<polygon fill="midnightblue" stroke="midnightblue" points="878.46,-283.32 888.84,-281.23 879.42,-276.39 878.46,-283.32"/>
</g>
<!-- Node24&#45;&gt;Node20 -->
<g id="edge37" class="edge">
<title>Node24&#45;&gt;Node20</title>
<path fill="none" stroke="midnightblue" d="M889.7,-278.21C854.85,-270.11 814.1,-258.03 803,-244 790.08,-227.67 793.15,-201.23 795.9,-187.66"/>
<polygon fill="midnightblue" stroke="midnightblue" points="889.29,-281.71 899.81,-280.49 890.83,-274.88 889.29,-281.71"/>
</g>
<!-- Node25 -->
<g id="node25" class="node">
<title>Node25</title>
<g id="a_node25"><a xlink:href="InteractiveObject_8h.html" target="_top" xlink:title="Base class for all interactive objects.">
<polygon fill="white" stroke="black" points="884.5,-168.5 884.5,-187.5 1011.5,-187.5 1011.5,-168.5 884.5,-168.5"/>
<text text-anchor="middle" x="948" y="-175.5" font-family="Helvetica,sans-Serif" font-size="10.00">src/InteractiveObject.h</text>
</a>
</g>
</g>
<!-- Node24&#45;&gt;Node25 -->
<g id="edge38" class="edge">
<title>Node24&#45;&gt;Node25</title>
<path fill="none" stroke="midnightblue" d="M944.68,-270.35C945.55,-246.25 947.04,-205.31 947.69,-187.59"/>
<polygon fill="midnightblue" stroke="midnightblue" points="941.18,-270.25 944.31,-280.37 948.18,-270.5 941.18,-270.25"/>
</g>
<!-- Node35 -->
<g id="node35" class="node">
<title>Node35</title>
<g id="a_node35"><a xlink:href="MovingObject_8cpp.html" target="_top" xlink:title="Base class for all moving objects.">
<polygon fill="white" stroke="black" points="812,-224.5 812,-243.5 934,-243.5 934,-224.5 812,-224.5"/>
<text text-anchor="middle" x="873" y="-231.5" font-family="Helvetica,sans-Serif" font-size="10.00">src/MovingObject.cpp</text>
</a>
</g>
</g>
<!-- Node24&#45;&gt;Node35 -->
<g id="edge53" class="edge">
<title>Node24&#45;&gt;Node35</title>
<path fill="none" stroke="midnightblue" d="M924.41,-274.1C911.63,-264.38 895.39,-252.03 884.61,-243.83"/>
<polygon fill="midnightblue" stroke="midnightblue" points="922.51,-277.06 932.59,-280.32 926.75,-271.48 922.51,-277.06"/>
</g>
<!-- Node24&#45;&gt;Node36 -->
<g id="edge54" class="edge">
<title>Node24&#45;&gt;Node36</title>
<path fill="none" stroke="midnightblue" d="M966.1,-274.62C981.26,-264.76 1000.88,-251.99 1013.7,-243.65"/>
<polygon fill="midnightblue" stroke="midnightblue" points="963.81,-271.94 957.34,-280.32 967.63,-277.8 963.81,-271.94"/>
</g>
<!-- Node25&#45;&gt;Node8 -->
<g id="edge45" class="edge">
<title>Node25&#45;&gt;Node8</title>
<path fill="none" stroke="midnightblue" d="M1000.53,-166.46C1053.6,-155.8 1134.2,-139.62 1180.61,-130.3"/>
<polygon fill="midnightblue" stroke="midnightblue" points="999.74,-163.04 990.62,-168.44 1001.12,-169.91 999.74,-163.04"/>
</g>
<!-- Node26 -->
<g id="node26" class="node">
<title>Node26</title>
<g id="a_node26"><a xlink:href="Cherry_8h.html" target="_top" xlink:title="Class representing a cherry collectible.">
<polygon fill="white" stroke="black" points="667,-112.5 667,-131.5 741,-131.5 741,-112.5 667,-112.5"/>
<text text-anchor="middle" x="704" y="-119.5" font-family="Helvetica,sans-Serif" font-size="10.00">src/Cherry.h</text>
</a>
</g>
</g>
<!-- Node25&#45;&gt;Node26 -->
<g id="edge39" class="edge">
<title>Node25&#45;&gt;Node26</title>
<path fill="none" stroke="midnightblue" d="M899.48,-166.26C852.93,-155.96 783.65,-140.63 741.28,-131.25"/>
<polygon fill="midnightblue" stroke="midnightblue" points="898.82,-169.7 909.34,-168.44 900.33,-162.87 898.82,-169.7"/>
</g>
<!-- Node28 -->
<g id="node28" class="node">
<title>Node28</title>
<g id="a_node28"><a xlink:href="Coin_8h.html" target="_top" xlink:title="Class representing a coin collectible.">
<polygon fill="white" stroke="black" points="915.5,-112.5 915.5,-131.5 980.5,-131.5 980.5,-112.5 915.5,-112.5"/>
<text text-anchor="middle" x="948" y="-119.5" font-family="Helvetica,sans-Serif" font-size="10.00">src/Coin.h</text>
</a>
</g>
</g>
<!-- Node25&#45;&gt;Node28 -->
<g id="edge42" class="edge">
<title>Node25&#45;&gt;Node28</title>
<path fill="none" stroke="midnightblue" d="M948,-157.8C948,-148.91 948,-138.78 948,-131.75"/>
<polygon fill="midnightblue" stroke="midnightblue" points="944.5,-158.08 948,-168.08 951.5,-158.08 944.5,-158.08"/>
</g>
<!-- Node30 -->
<g id="node30" class="node">
<title>Node30</title>
<g id="a_node30"><a xlink:href="InteractiveObject_8cpp.html" target="_top" xlink:title="Base class for all interactive objects.">
<polygon fill="white" stroke="black" points="759,-112.5 759,-131.5 897,-131.5 897,-112.5 759,-112.5"/>
<text text-anchor="middle" x="828" y="-119.5" font-family="Helvetica,sans-Serif" font-size="10.00">src/InteractiveObject.cpp</text>
</a>
</g>
</g>
<!-- Node25&#45;&gt;Node30 -->
<g id="edge46" class="edge">
<title>Node25&#45;&gt;Node30</title>
<path fill="none" stroke="midnightblue" d="M919.63,-164.23C897.18,-154.13 866.46,-140.31 846.93,-131.52"/>
<polygon fill="midnightblue" stroke="midnightblue" points="918.43,-167.53 928.99,-168.44 921.3,-161.15 918.43,-167.53"/>
</g>
<!-- Node31 -->
<g id="node31" class="node">
<title>Node31</title>
<g id="a_node31"><a xlink:href="Teleport_8h.html" target="_top" xlink:title="Represents a teleport object.">
<polygon fill="white" stroke="black" points="999,-112.5 999,-131.5 1081,-131.5 1081,-112.5 999,-112.5"/>
<text text-anchor="middle" x="1040" y="-119.5" font-family="Helvetica,sans-Serif" font-size="10.00">src/Teleport.h</text>
</a>
</g>
</g>
<!-- Node25&#45;&gt;Node31 -->
<g id="edge47" class="edge">
<title>Node25&#45;&gt;Node31</title>
<path fill="none" stroke="midnightblue" d="M971.55,-163.18C988.48,-153.24 1010.78,-140.15 1025.26,-131.65"/>
<polygon fill="midnightblue" stroke="midnightblue" points="969.63,-160.24 962.78,-168.32 973.18,-166.28 969.63,-160.24"/>
</g>
<!-- Node33 -->
<g id="node33" class="node">
<title>Node33</title>
<g id="a_node33"><a xlink:href="Wall_8h.html" target="_top" xlink:title="Represents a wall object.">
<polygon fill="white" stroke="black" points="1099,-112.5 1099,-131.5 1163,-131.5 1163,-112.5 1099,-112.5"/>
<text text-anchor="middle" x="1131" y="-119.5" font-family="Helvetica,sans-Serif" font-size="10.00">src/Wall.h</text>
</a>
</g>
</g>
<!-- Node25&#45;&gt;Node33 -->
<g id="edge50" class="edge">
<title>Node25&#45;&gt;Node33</title>
<path fill="none" stroke="midnightblue" d="M986.74,-165.57C1021.26,-155.38 1071.01,-140.7 1102.14,-131.52"/>
<polygon fill="midnightblue" stroke="midnightblue" points="985.6,-162.26 977,-168.44 987.58,-168.97 985.6,-162.26"/>
</g>
<!-- Node26&#45;&gt;Node2 -->
<g id="edge41" class="edge">
<title>Node26&#45;&gt;Node2</title>
<path fill="none" stroke="midnightblue" d="M732.14,-108.23C754.4,-98.13 784.86,-84.31 804.23,-75.52"/>
<polygon fill="midnightblue" stroke="midnightblue" points="730.52,-105.12 722.86,-112.44 733.41,-111.5 730.52,-105.12"/>
</g>
<!-- Node27 -->
<g id="node27" class="node">
<title>Node27</title>
<g id="a_node27"><a xlink:href="Cherry_8cpp.html" target="_top" xlink:title="Class representing a cherry collectible.">
<polygon fill="white" stroke="black" points="661.5,-56.5 661.5,-75.5 746.5,-75.5 746.5,-56.5 661.5,-56.5"/>
<text text-anchor="middle" x="704" y="-63.5" font-family="Helvetica,sans-Serif" font-size="10.00">src/Cherry.cpp</text>
</a>
</g>
</g>
<!-- Node26&#45;&gt;Node27 -->
<g id="edge40" class="edge">
<title>Node26&#45;&gt;Node27</title>
<path fill="none" stroke="midnightblue" d="M704,-101.8C704,-92.91 704,-82.78 704,-75.75"/>
<polygon fill="midnightblue" stroke="midnightblue" points="700.5,-102.08 704,-112.08 707.5,-102.08 700.5,-102.08"/>
</g>
<!-- Node28&#45;&gt;Node2 -->
<g id="edge44" class="edge">
<title>Node28&#45;&gt;Node2</title>
<path fill="none" stroke="midnightblue" d="M918.76,-108.37C895.35,-98.26 863.16,-84.35 842.71,-75.52"/>
<polygon fill="midnightblue" stroke="midnightblue" points="917.63,-111.69 928.19,-112.44 920.4,-105.26 917.63,-111.69"/>
</g>
<!-- Node29 -->
<g id="node29" class="node">
<title>Node29</title>
<g id="a_node29"><a xlink:href="Coin_8cpp.html" target="_top" xlink:title="Class representing a coin collectible.">
<polygon fill="white" stroke="black" points="899,-56.5 899,-75.5 975,-75.5 975,-56.5 899,-56.5"/>
<text text-anchor="middle" x="937" y="-63.5" font-family="Helvetica,sans-Serif" font-size="10.00">src/Coin.cpp</text>
</a>
</g>
</g>
<!-- Node28&#45;&gt;Node29 -->
<g id="edge43" class="edge">
<title>Node28&#45;&gt;Node29</title>
<path fill="none" stroke="midnightblue" d="M944.15,-102.1C942.32,-93.14 940.23,-82.86 938.78,-75.75"/>
<polygon fill="midnightblue" stroke="midnightblue" points="940.76,-102.98 946.18,-112.08 947.62,-101.59 940.76,-102.98"/>
</g>
<!-- Node31&#45;&gt;Node2 -->
<g id="edge48" class="edge">
<title>Node31&#45;&gt;Node2</title>
<path fill="none" stroke="midnightblue" d="M995.89,-110.02C954.9,-99.82 894.7,-84.84 857.22,-75.52"/>
<polygon fill="midnightblue" stroke="midnightblue" points="995.07,-113.43 1005.62,-112.44 996.76,-106.63 995.07,-113.43"/>
</g>
<!-- Node32 -->
<g id="node32" class="node">
<title>Node32</title>
<g id="a_node32"><a xlink:href="Teleport_8cpp.html" target="_top" xlink:title="Represents a teleport object.">
<polygon fill="white" stroke="black" points="993.5,-56.5 993.5,-75.5 1086.5,-75.5 1086.5,-56.5 993.5,-56.5"/>
<text text-anchor="middle" x="1040" y="-63.5" font-family="Helvetica,sans-Serif" font-size="10.00">src/Teleport.cpp</text>
</a>
</g>
</g>
<!-- Node31&#45;&gt;Node32 -->
<g id="edge49" class="edge">
<title>Node31&#45;&gt;Node32</title>
<path fill="none" stroke="midnightblue" d="M1040,-101.8C1040,-92.91 1040,-82.78 1040,-75.75"/>
<polygon fill="midnightblue" stroke="midnightblue" points="1036.5,-102.08 1040,-112.08 1043.5,-102.08 1036.5,-102.08"/>
</g>
<!-- Node33&#45;&gt;Node2 -->
<g id="edge51" class="edge">
<title>Node33&#45;&gt;Node2</title>
<path fill="none" stroke="midnightblue" d="M1088.97,-111.87C1003.76,-95.5 915.43,-81.28 864.74,-73.38"/>
<polygon fill="midnightblue" stroke="midnightblue" points="1088.32,-115.31 1098.8,-113.78 1089.65,-108.44 1088.32,-115.31"/>
</g>
<!-- Node34 -->
<g id="node34" class="node">
<title>Node34</title>
<g id="a_node34"><a xlink:href="Wall_8cpp.html" target="_top" xlink:title="Represents a wall object.">
<polygon fill="white" stroke="black" points="1104.5,-56.5 1104.5,-75.5 1179.5,-75.5 1179.5,-56.5 1104.5,-56.5"/>
<text text-anchor="middle" x="1142" y="-63.5" font-family="Helvetica,sans-Serif" font-size="10.00">src/Wall.cpp</text>
</a>
</g>
</g>
<!-- Node33&#45;&gt;Node34 -->
<g id="edge52" class="edge">
<title>Node33&#45;&gt;Node34</title>
<path fill="none" stroke="midnightblue" d="M1134.85,-102.1C1136.68,-93.14 1138.77,-82.86 1140.22,-75.75"/>
<polygon fill="midnightblue" stroke="midnightblue" points="1131.38,-101.59 1132.82,-112.08 1138.24,-102.98 1131.38,-101.59"/>
</g>
<!-- Node36&#45;&gt;Node5 -->
<g id="edge58" class="edge">
<title>Node36&#45;&gt;Node5</title>
<path fill="none" stroke="midnightblue" d="M1049.1,-218.62C1064.26,-208.76 1083.88,-195.99 1096.7,-187.65"/>
<polygon fill="midnightblue" stroke="midnightblue" points="1046.81,-215.94 1040.34,-224.32 1050.63,-221.8 1046.81,-215.94"/>
</g>
<!-- Node36&#45;&gt;Node8 -->
<g id="edge55" class="edge">
<title>Node36&#45;&gt;Node8</title>
<path fill="none" stroke="midnightblue" d="M1031.63,-214.49C1036.22,-199.85 1044.69,-179.94 1059,-168 1068.5,-160.07 1137.7,-142.22 1181.31,-131.54"/>
<polygon fill="midnightblue" stroke="midnightblue" points="1028.17,-213.87 1028.84,-224.44 1034.91,-215.76 1028.17,-213.87"/>
</g>
<!-- Node36&#45;&gt;Node20 -->
<g id="edge56" class="edge">
<title>Node36&#45;&gt;Node20</title>
<path fill="none" stroke="midnightblue" d="M980.97,-222.15C937.57,-211.91 873.41,-196.78 833.74,-187.43"/>
<polygon fill="midnightblue" stroke="midnightblue" points="980.18,-225.55 990.71,-224.44 981.78,-218.74 980.18,-225.55"/>
</g>
<!-- Node36&#45;&gt;Node25 -->
<g id="edge57" class="edge">
<title>Node36&#45;&gt;Node25</title>
<path fill="none" stroke="midnightblue" d="M1005.97,-218.62C991.53,-208.76 972.86,-195.99 960.66,-187.65"/>
<polygon fill="midnightblue" stroke="midnightblue" points="1004.08,-221.57 1014.31,-224.32 1008.03,-215.79 1004.08,-221.57"/>
</g>
</g>
</svg>
