<?xml version="1.0" encoding="UTF-8" standalone="no"?>
<!DOCTYPE svg PUBLIC "-//W3C//DTD SVG 1.1//EN"
 "http://www.w3.org/Graphics/SVG/1.1/DTD/svg11.dtd">
<!-- Generated by graphviz version 2.43.0 (0)
 -->
<!-- Title: calculateNewCoordinates Pages: 1 -->
<svg width="457pt" height="66pt"
 viewBox="0.00 0.00 457.00 66.00" xmlns="http://www.w3.org/2000/svg" xmlns:xlink="http://www.w3.org/1999/xlink">
<g id="graph0" class="graph" transform="scale(1 1) rotate(0) translate(4 62)">
<title>calculateNewCoordinates</title>
<polygon fill="white" stroke="transparent" points="-4,4 -4,-62 453,-62 453,4 -4,4"/>
<!-- Node1 -->
<g id="node1" class="node">
<title>Node1</title>
<g id="a_node1"><a xlink:title=" ">
<polygon fill="#bfbfbf" stroke="black" points="308,-19.5 308,-38.5 449,-38.5 449,-19.5 308,-19.5"/>
<text text-anchor="middle" x="378.5" y="-26.5" font-family="Helvetica,sans-Serif" font-size="10.00">calculateNewCoordinates</text>
</a>
</g>
</g>
<!-- Node2 -->
<g id="node2" class="node">
<title>Node2</title>
<g id="a_node2"><a xlink:href="classPlayer.html#aa4002becf320cc56377ecda8622a1ba3" target="_top" xlink:title="Returns the calculated next move of the object.">
<polygon fill="white" stroke="black" points="153,-38.5 153,-57.5 272,-57.5 272,-38.5 153,-38.5"/>
<text text-anchor="middle" x="212.5" y="-45.5" font-family="Helvetica,sans-Serif" font-size="10.00">Player::getNextMove</text>
</a>
</g>
</g>
<!-- Node1&#45;&gt;Node2 -->
<g id="edge1" class="edge">
<title>Node1&#45;&gt;Node2</title>
<path fill="none" stroke="midnightblue" d="M297.8,-38.23C289.11,-39.24 280.39,-40.25 272.03,-41.22"/>
<polygon fill="midnightblue" stroke="midnightblue" points="298.42,-41.69 307.95,-37.06 297.61,-34.73 298.42,-41.69"/>
</g>
<!-- Node3 -->
<g id="node3" class="node">
<title>Node3</title>
<g id="a_node3"><a xlink:href="classGhost.html#a148ba3ee3c09025057a85025e2b74f81" target="_top" xlink:title=" ">
<polygon fill="white" stroke="black" points="166.5,-0.5 166.5,-19.5 258.5,-19.5 258.5,-0.5 166.5,-0.5"/>
<text text-anchor="middle" x="212.5" y="-7.5" font-family="Helvetica,sans-Serif" font-size="10.00">Ghost::tryMove</text>
</a>
</g>
</g>
<!-- Node1&#45;&gt;Node3 -->
<g id="edge2" class="edge">
<title>Node1&#45;&gt;Node3</title>
<path fill="none" stroke="midnightblue" d="M297.78,-19.76C284.43,-18.22 271,-16.66 258.9,-15.26"/>
<polygon fill="midnightblue" stroke="midnightblue" points="297.61,-23.27 307.95,-20.94 298.42,-16.31 297.61,-23.27"/>
</g>
<!-- Node4 -->
<g id="node4" class="node">
<title>Node4</title>
<g id="a_node4"><a xlink:href="classGhost.html#a8f00182b9e19aec6cab0f795ee8dd5ae" target="_top" xlink:title="Returns the calculated next move of the object.">
<polygon fill="white" stroke="black" points="0,-0.5 0,-19.5 117,-19.5 117,-0.5 0,-0.5"/>
<text text-anchor="middle" x="58.5" y="-7.5" font-family="Helvetica,sans-Serif" font-size="10.00">Ghost::getNextMove</text>
</a>
</g>
</g>
<!-- Node3&#45;&gt;Node4 -->
<g id="edge3" class="edge">
<title>Node3&#45;&gt;Node4</title>
<path fill="none" stroke="midnightblue" d="M155.94,-10C143.33,-10 129.92,-10 117.22,-10"/>
<polygon fill="midnightblue" stroke="midnightblue" points="156.31,-13.5 166.31,-10 156.31,-6.5 156.31,-13.5"/>
</g>
</g>
</svg>
