<?xml version="1.0" encoding="UTF-8" standalone="no"?>
<!DOCTYPE svg PUBLIC "-//W3C//DTD SVG 1.1//EN"
 "http://www.w3.org/Graphics/SVG/1.1/DTD/svg11.dtd">
<!-- Generated by graphviz version 2.43.0 (0)
 -->
<!-- Title: src/InteractiveObject.h Pages: 1 -->
<svg width="665pt" height="196pt"
 viewBox="0.00 0.00 664.50 196.00" xmlns="http://www.w3.org/2000/svg" xmlns:xlink="http://www.w3.org/1999/xlink">
<g id="graph0" class="graph" transform="scale(1 1) rotate(0) translate(4 192)">
<title>src/InteractiveObject.h</title>
<polygon fill="white" stroke="transparent" points="-4,4 -4,-192 660.5,-192 660.5,4 -4,4"/>
<!-- Node1 -->
<g id="node1" class="node">
<title>Node1</title>
<g id="a_node1"><a xlink:title="Base class for all interactive objects.">
<polygon fill="#bfbfbf" stroke="black" points="266,-168.5 266,-187.5 393,-187.5 393,-168.5 266,-168.5"/>
<text text-anchor="middle" x="329.5" y="-175.5" font-family="Helvetica,sans-Serif" font-size="10.00">src/InteractiveObject.h</text>
</a>
</g>
</g>
<!-- Node2 -->
<g id="node2" class="node">
<title>Node2</title>
<g id="a_node2"><a xlink:href="Cherry_8h.html" target="_top" xlink:title="Class representing a cherry collectible.">
<polygon fill="white" stroke="black" points="70.5,-112.5 70.5,-131.5 144.5,-131.5 144.5,-112.5 70.5,-112.5"/>
<text text-anchor="middle" x="107.5" y="-119.5" font-family="Helvetica,sans-Serif" font-size="10.00">src/Cherry.h</text>
</a>
</g>
</g>
<!-- Node1&#45;&gt;Node2 -->
<g id="edge1" class="edge">
<title>Node1&#45;&gt;Node2</title>
<path fill="none" stroke="midnightblue" d="M284.38,-166.02C242.44,-155.82 180.85,-140.84 142.51,-131.52"/>
<polygon fill="midnightblue" stroke="midnightblue" points="283.78,-169.48 294.32,-168.44 285.43,-162.68 283.78,-169.48"/>
</g>
<!-- Node5 -->
<g id="node5" class="node">
<title>Node5</title>
<g id="a_node5"><a xlink:href="Coin_8h.html" target="_top" xlink:title="Class representing a coin collectible.">
<polygon fill="white" stroke="black" points="163,-112.5 163,-131.5 228,-131.5 228,-112.5 163,-112.5"/>
<text text-anchor="middle" x="195.5" y="-119.5" font-family="Helvetica,sans-Serif" font-size="10.00">src/Coin.h</text>
</a>
</g>
</g>
<!-- Node1&#45;&gt;Node5 -->
<g id="edge4" class="edge">
<title>Node1&#45;&gt;Node5</title>
<path fill="none" stroke="midnightblue" d="M298.82,-164.64C273.68,-154.5 238.75,-140.43 216.63,-131.52"/>
<polygon fill="midnightblue" stroke="midnightblue" points="297.68,-167.95 308.27,-168.44 300.3,-161.46 297.68,-167.95"/>
</g>
<!-- Node7 -->
<g id="node7" class="node">
<title>Node7</title>
<g id="a_node7"><a xlink:href="Game_8h.html" target="_top" xlink:title="Class for handling the game logic.">
<polygon fill="white" stroke="black" points="246.5,-112.5 246.5,-131.5 318.5,-131.5 318.5,-112.5 246.5,-112.5"/>
<text text-anchor="middle" x="282.5" y="-119.5" font-family="Helvetica,sans-Serif" font-size="10.00">src/Game.h</text>
</a>
</g>
</g>
<!-- Node1&#45;&gt;Node7 -->
<g id="edge7" class="edge">
<title>Node1&#45;&gt;Node7</title>
<path fill="none" stroke="midnightblue" d="M315.08,-160.43C306.84,-150.97 296.85,-139.48 290.12,-131.75"/>
<polygon fill="midnightblue" stroke="midnightblue" points="312.53,-162.84 321.74,-168.08 317.81,-158.24 312.53,-162.84"/>
</g>
<!-- Node11 -->
<g id="node11" class="node">
<title>Node11</title>
<g id="a_node11"><a xlink:href="InteractiveObject_8cpp.html" target="_top" xlink:title="Base class for all interactive objects.">
<polygon fill="white" stroke="black" points="518.5,-112.5 518.5,-131.5 656.5,-131.5 656.5,-112.5 518.5,-112.5"/>
<text text-anchor="middle" x="587.5" y="-119.5" font-family="Helvetica,sans-Serif" font-size="10.00">src/InteractiveObject.cpp</text>
</a>
</g>
</g>
<!-- Node1&#45;&gt;Node11 -->
<g id="edge12" class="edge">
<title>Node1&#45;&gt;Node11</title>
<path fill="none" stroke="midnightblue" d="M380.4,-166.35C429.16,-156.14 501.79,-140.94 546.81,-131.52"/>
<polygon fill="midnightblue" stroke="midnightblue" points="379.45,-162.97 370.38,-168.44 380.89,-169.82 379.45,-162.97"/>
</g>
<!-- Node12 -->
<g id="node12" class="node">
<title>Node12</title>
<g id="a_node12"><a xlink:href="Teleport_8h.html" target="_top" xlink:title="Represents a teleport object.">
<polygon fill="white" stroke="black" points="336.5,-112.5 336.5,-131.5 418.5,-131.5 418.5,-112.5 336.5,-112.5"/>
<text text-anchor="middle" x="377.5" y="-119.5" font-family="Helvetica,sans-Serif" font-size="10.00">src/Teleport.h</text>
</a>
</g>
</g>
<!-- Node1&#45;&gt;Node12 -->
<g id="edge13" class="edge">
<title>Node1&#45;&gt;Node12</title>
<path fill="none" stroke="midnightblue" d="M344.23,-160.43C352.64,-150.97 362.85,-139.48 369.72,-131.75"/>
<polygon fill="midnightblue" stroke="midnightblue" points="341.45,-158.28 337.43,-168.08 346.69,-162.93 341.45,-158.28"/>
</g>
<!-- Node14 -->
<g id="node14" class="node">
<title>Node14</title>
<g id="a_node14"><a xlink:href="Wall_8h.html" target="_top" xlink:title="Represents a wall object.">
<polygon fill="white" stroke="black" points="436.5,-112.5 436.5,-131.5 500.5,-131.5 500.5,-112.5 436.5,-112.5"/>
<text text-anchor="middle" x="468.5" y="-119.5" font-family="Helvetica,sans-Serif" font-size="10.00">src/Wall.h</text>
</a>
</g>
</g>
<!-- Node1&#45;&gt;Node14 -->
<g id="edge16" class="edge">
<title>Node1&#45;&gt;Node14</title>
<path fill="none" stroke="midnightblue" d="M360.98,-164.77C387.09,-154.63 423.54,-140.47 446.58,-131.52"/>
<polygon fill="midnightblue" stroke="midnightblue" points="359.58,-161.56 351.52,-168.44 362.11,-168.08 359.58,-161.56"/>
</g>
<!-- Node3 -->
<g id="node3" class="node">
<title>Node3</title>
<g id="a_node3"><a xlink:href="Cherry_8cpp.html" target="_top" xlink:title="Class representing a cherry collectible.">
<polygon fill="white" stroke="black" points="0,-56.5 0,-75.5 85,-75.5 85,-56.5 0,-56.5"/>
<text text-anchor="middle" x="42.5" y="-63.5" font-family="Helvetica,sans-Serif" font-size="10.00">src/Cherry.cpp</text>
</a>
</g>
</g>
<!-- Node2&#45;&gt;Node3 -->
<g id="edge2" class="edge">
<title>Node2&#45;&gt;Node3</title>
<path fill="none" stroke="midnightblue" d="M89.23,-105.82C77.58,-96.15 62.9,-83.95 53.13,-75.83"/>
<polygon fill="midnightblue" stroke="midnightblue" points="87.13,-108.63 97.06,-112.32 91.6,-103.24 87.13,-108.63"/>
</g>
<!-- Node4 -->
<g id="node4" class="node">
<title>Node4</title>
<g id="a_node4"><a xlink:href="Game_8cpp.html" target="_top" xlink:title="Class for handling the game logic.">
<polygon fill="white" stroke="black" points="198,-56.5 198,-75.5 281,-75.5 281,-56.5 198,-56.5"/>
<text text-anchor="middle" x="239.5" y="-63.5" font-family="Helvetica,sans-Serif" font-size="10.00">src/Game.cpp</text>
</a>
</g>
</g>
<!-- Node2&#45;&gt;Node4 -->
<g id="edge3" class="edge">
<title>Node2&#45;&gt;Node4</title>
<path fill="none" stroke="midnightblue" d="M137.72,-108.64C162.49,-98.5 196.9,-84.43 218.68,-75.52"/>
<polygon fill="midnightblue" stroke="midnightblue" points="136.35,-105.42 128.42,-112.44 139,-111.9 136.35,-105.42"/>
</g>
<!-- Node5&#45;&gt;Node4 -->
<g id="edge6" class="edge">
<title>Node5&#45;&gt;Node4</title>
<path fill="none" stroke="midnightblue" d="M209.23,-104.14C216.9,-94.74 226.13,-83.4 232.37,-75.75"/>
<polygon fill="midnightblue" stroke="midnightblue" points="206.37,-102.12 202.77,-112.08 211.8,-106.54 206.37,-102.12"/>
</g>
<!-- Node6 -->
<g id="node6" class="node">
<title>Node6</title>
<g id="a_node6"><a xlink:href="Coin_8cpp.html" target="_top" xlink:title="Class representing a coin collectible.">
<polygon fill="white" stroke="black" points="103.5,-56.5 103.5,-75.5 179.5,-75.5 179.5,-56.5 103.5,-56.5"/>
<text text-anchor="middle" x="141.5" y="-63.5" font-family="Helvetica,sans-Serif" font-size="10.00">src/Coin.cpp</text>
</a>
</g>
</g>
<!-- Node5&#45;&gt;Node6 -->
<g id="edge5" class="edge">
<title>Node5&#45;&gt;Node6</title>
<path fill="none" stroke="midnightblue" d="M179.5,-105C169.93,-95.43 158.14,-83.64 150.25,-75.75"/>
<polygon fill="midnightblue" stroke="midnightblue" points="177.04,-107.49 186.58,-112.08 181.99,-102.54 177.04,-107.49"/>
</g>
<!-- Node7&#45;&gt;Node4 -->
<g id="edge8" class="edge">
<title>Node7&#45;&gt;Node4</title>
<path fill="none" stroke="midnightblue" d="M269.08,-104.14C261.59,-94.74 252.56,-83.4 246.47,-75.75"/>
<polygon fill="midnightblue" stroke="midnightblue" points="266.43,-106.44 275.4,-112.08 271.91,-102.08 266.43,-106.44"/>
</g>
<!-- Node8 -->
<g id="node8" class="node">
<title>Node8</title>
<g id="a_node8"><a xlink:href="GameManager_8h.html" target="_top" xlink:title="Handles the game loop and game states.">
<polygon fill="white" stroke="black" points="299.5,-56.5 299.5,-75.5 413.5,-75.5 413.5,-56.5 299.5,-56.5"/>
<text text-anchor="middle" x="356.5" y="-63.5" font-family="Helvetica,sans-Serif" font-size="10.00">src/GameManager.h</text>
</a>
</g>
</g>
<!-- Node7&#45;&gt;Node8 -->
<g id="edge9" class="edge">
<title>Node7&#45;&gt;Node8</title>
<path fill="none" stroke="midnightblue" d="M302.53,-106.38C315.91,-96.62 333.06,-84.11 344.39,-75.83"/>
<polygon fill="midnightblue" stroke="midnightblue" points="300.4,-103.6 294.39,-112.32 304.53,-109.26 300.4,-103.6"/>
</g>
<!-- Node9 -->
<g id="node9" class="node">
<title>Node9</title>
<g id="a_node9"><a xlink:href="GameManager_8cpp.html" target="_top" xlink:title="Handles the game loop and game states.">
<polygon fill="white" stroke="black" points="234,-0.5 234,-19.5 359,-19.5 359,-0.5 234,-0.5"/>
<text text-anchor="middle" x="296.5" y="-7.5" font-family="Helvetica,sans-Serif" font-size="10.00">src/GameManager.cpp</text>
</a>
</g>
</g>
<!-- Node8&#45;&gt;Node9 -->
<g id="edge10" class="edge">
<title>Node8&#45;&gt;Node9</title>
<path fill="none" stroke="midnightblue" d="M339.32,-49.54C328.62,-39.91 315.24,-27.87 306.32,-19.83"/>
<polygon fill="midnightblue" stroke="midnightblue" points="337.09,-52.24 346.86,-56.32 341.77,-47.03 337.09,-52.24"/>
</g>
<!-- Node10 -->
<g id="node10" class="node">
<title>Node10</title>
<g id="a_node10"><a xlink:href="main_8cpp.html" target="_top" xlink:title="Main function, initializes the game manager.">
<polygon fill="white" stroke="black" points="377,-0.5 377,-19.5 456,-19.5 456,-0.5 377,-0.5"/>
<text text-anchor="middle" x="416.5" y="-7.5" font-family="Helvetica,sans-Serif" font-size="10.00">src/main.cpp</text>
</a>
</g>
</g>
<!-- Node8&#45;&gt;Node10 -->
<g id="edge11" class="edge">
<title>Node8&#45;&gt;Node10</title>
<path fill="none" stroke="midnightblue" d="M373.68,-49.54C384.38,-39.91 397.76,-27.87 406.68,-19.83"/>
<polygon fill="midnightblue" stroke="midnightblue" points="371.23,-47.03 366.14,-56.32 375.91,-52.24 371.23,-47.03"/>
</g>
<!-- Node12&#45;&gt;Node4 -->
<g id="edge14" class="edge">
<title>Node12&#45;&gt;Node4</title>
<path fill="none" stroke="midnightblue" d="M346.25,-108.77C320.33,-98.63 284.14,-84.47 261.26,-75.52"/>
<polygon fill="midnightblue" stroke="midnightblue" points="345.05,-112.06 355.63,-112.44 347.6,-105.54 345.05,-112.06"/>
</g>
<!-- Node13 -->
<g id="node13" class="node">
<title>Node13</title>
<g id="a_node13"><a xlink:href="Teleport_8cpp.html" target="_top" xlink:title="Represents a teleport object.">
<polygon fill="white" stroke="black" points="432,-56.5 432,-75.5 525,-75.5 525,-56.5 432,-56.5"/>
<text text-anchor="middle" x="478.5" y="-63.5" font-family="Helvetica,sans-Serif" font-size="10.00">src/Teleport.cpp</text>
</a>
</g>
</g>
<!-- Node12&#45;&gt;Node13 -->
<g id="edge15" class="edge">
<title>Node12&#45;&gt;Node13</title>
<path fill="none" stroke="midnightblue" d="M402.58,-107.59C421.26,-97.61 446.2,-84.27 462.31,-75.65"/>
<polygon fill="midnightblue" stroke="midnightblue" points="400.9,-104.52 393.73,-112.32 404.2,-110.7 400.9,-104.52"/>
</g>
<!-- Node14&#45;&gt;Node4 -->
<g id="edge17" class="edge">
<title>Node14&#45;&gt;Node4</title>
<path fill="none" stroke="midnightblue" d="M426.26,-111.04C383.08,-100.86 316.71,-85.21 275.82,-75.56"/>
<polygon fill="midnightblue" stroke="midnightblue" points="425.64,-114.49 436.18,-113.38 427.25,-107.68 425.64,-114.49"/>
</g>
<!-- Node15 -->
<g id="node15" class="node">
<title>Node15</title>
<g id="a_node15"><a xlink:href="Wall_8cpp.html" target="_top" xlink:title="Represents a wall object.">
<polygon fill="white" stroke="black" points="543,-56.5 543,-75.5 618,-75.5 618,-56.5 543,-56.5"/>
<text text-anchor="middle" x="580.5" y="-63.5" font-family="Helvetica,sans-Serif" font-size="10.00">src/Wall.cpp</text>
</a>
</g>
</g>
<!-- Node14&#45;&gt;Node15 -->
<g id="edge18" class="edge">
<title>Node14&#45;&gt;Node15</title>
<path fill="none" stroke="midnightblue" d="M495.75,-107.86C516.52,-97.85 544.52,-84.35 562.55,-75.65"/>
<polygon fill="midnightblue" stroke="midnightblue" points="493.98,-104.83 486.49,-112.32 497.02,-111.13 493.98,-104.83"/>
</g>
</g>
</svg>
