<?xml version="1.0" encoding="UTF-8" standalone="no"?>
<!DOCTYPE svg PUBLIC "-//W3C//DTD SVG 1.1//EN"
 "http://www.w3.org/Graphics/SVG/1.1/DTD/svg11.dtd">
<!-- Generated by graphviz version 2.43.0 (0)
 -->
<!-- Title: src/Leaderboard.cpp Pages: 1 -->
<svg width="496pt" height="140pt"
 viewBox="0.00 0.00 496.00 140.00" xmlns="http://www.w3.org/2000/svg" xmlns:xlink="http://www.w3.org/1999/xlink">
<g id="graph0" class="graph" transform="scale(1 1) rotate(0) translate(4 136)">
<title>src/Leaderboard.cpp</title>
<polygon fill="white" stroke="transparent" points="-4,4 -4,-136 492,-136 492,4 -4,4"/>
<!-- Node1 -->
<g id="node1" class="node">
<title>Node1</title>
<g id="a_node1"><a xlink:title="Class for handling the game leaderboard.">
<polygon fill="#bfbfbf" stroke="black" points="161,-112.5 161,-131.5 276,-131.5 276,-112.5 161,-112.5"/>
<text text-anchor="middle" x="218.5" y="-119.5" font-family="Helvetica,sans-Serif" font-size="10.00">src/Leaderboard.cpp</text>
</a>
</g>
</g>
<!-- Node2 -->
<g id="node2" class="node">
<title>Node2</title>
<g id="a_node2"><a xlink:href="Leaderboard_8h.html" target="_top" xlink:title="Class for handling the game leaderboard.">
<polygon fill="white" stroke="black" points="46.5,-56.5 46.5,-75.5 132.5,-75.5 132.5,-56.5 46.5,-56.5"/>
<text text-anchor="middle" x="89.5" y="-63.5" font-family="Helvetica,sans-Serif" font-size="10.00">Leaderboard.h</text>
</a>
</g>
</g>
<!-- Node1&#45;&gt;Node2 -->
<g id="edge1" class="edge">
<title>Node1&#45;&gt;Node2</title>
<path fill="none" stroke="midnightblue" d="M198.06,-112.44C176.83,-103.56 143.4,-89.56 119.25,-79.45"/>
<polygon fill="midnightblue" stroke="midnightblue" points="120.42,-76.15 109.84,-75.52 117.72,-82.61 120.42,-76.15"/>
</g>
<!-- Node3 -->
<g id="node3" class="node">
<title>Node3</title>
<g id="a_node3"><a xlink:title=" ">
<polygon fill="white" stroke="#bfbfbf" points="0,-0.5 0,-19.5 47,-19.5 47,-0.5 0,-0.5"/>
<text text-anchor="middle" x="23.5" y="-7.5" font-family="Helvetica,sans-Serif" font-size="10.00">vector</text>
</a>
</g>
</g>
<!-- Node1&#45;&gt;Node3 -->
<g id="edge8" class="edge">
<title>Node1&#45;&gt;Node3</title>
<path fill="none" stroke="midnightblue" d="M160.72,-113.36C114.43,-106.06 54.51,-93.56 37.5,-76 25.84,-63.96 22.9,-44.67 22.54,-30.23"/>
<polygon fill="midnightblue" stroke="midnightblue" points="26.05,-29.96 22.69,-19.91 19.05,-29.86 26.05,-29.96"/>
</g>
<!-- Node4 -->
<g id="node4" class="node">
<title>Node4</title>
<g id="a_node4"><a xlink:title=" ">
<polygon fill="white" stroke="#bfbfbf" points="132.5,-0.5 132.5,-19.5 176.5,-19.5 176.5,-0.5 132.5,-0.5"/>
<text text-anchor="middle" x="154.5" y="-7.5" font-family="Helvetica,sans-Serif" font-size="10.00">string</text>
</a>
</g>
</g>
<!-- Node1&#45;&gt;Node4 -->
<g id="edge5" class="edge">
<title>Node1&#45;&gt;Node4</title>
<path fill="none" stroke="midnightblue" d="M209.43,-112.42C200.79,-103.86 187.91,-90 179.5,-76 170.75,-61.42 164.07,-43.25 159.82,-29.82"/>
<polygon fill="midnightblue" stroke="midnightblue" points="163.06,-28.43 156.84,-19.85 156.35,-30.43 163.06,-28.43"/>
</g>
<!-- Node6 -->
<g id="node6" class="node">
<title>Node6</title>
<g id="a_node6"><a xlink:title=" ">
<polygon fill="white" stroke="#bfbfbf" points="188.5,-56.5 188.5,-75.5 248.5,-75.5 248.5,-56.5 188.5,-56.5"/>
<text text-anchor="middle" x="218.5" y="-63.5" font-family="Helvetica,sans-Serif" font-size="10.00">iostream</text>
</a>
</g>
</g>
<!-- Node1&#45;&gt;Node6 -->
<g id="edge6" class="edge">
<title>Node1&#45;&gt;Node6</title>
<path fill="none" stroke="midnightblue" d="M218.5,-112.08C218.5,-105.01 218.5,-94.86 218.5,-85.99"/>
<polygon fill="midnightblue" stroke="midnightblue" points="222,-85.75 218.5,-75.75 215,-85.75 222,-85.75"/>
</g>
<!-- Node7 -->
<g id="node7" class="node">
<title>Node7</title>
<g id="a_node7"><a xlink:title=" ">
<polygon fill="white" stroke="#bfbfbf" points="267,-56.5 267,-75.5 322,-75.5 322,-56.5 267,-56.5"/>
<text text-anchor="middle" x="294.5" y="-63.5" font-family="Helvetica,sans-Serif" font-size="10.00">fstream</text>
</a>
</g>
</g>
<!-- Node1&#45;&gt;Node7 -->
<g id="edge7" class="edge">
<title>Node1&#45;&gt;Node7</title>
<path fill="none" stroke="midnightblue" d="M230.71,-112.32C242.28,-104.11 259.88,-91.6 273.66,-81.81"/>
<polygon fill="midnightblue" stroke="midnightblue" points="275.94,-84.48 282.07,-75.83 271.89,-78.77 275.94,-84.48"/>
</g>
<!-- Node8 -->
<g id="node8" class="node">
<title>Node8</title>
<g id="a_node8"><a xlink:title=" ">
<polygon fill="white" stroke="#bfbfbf" points="340.5,-56.5 340.5,-75.5 404.5,-75.5 404.5,-56.5 340.5,-56.5"/>
<text text-anchor="middle" x="372.5" y="-63.5" font-family="Helvetica,sans-Serif" font-size="10.00">algorithm</text>
</a>
</g>
</g>
<!-- Node1&#45;&gt;Node8 -->
<g id="edge9" class="edge">
<title>Node1&#45;&gt;Node8</title>
<path fill="none" stroke="midnightblue" d="M242.9,-112.44C268.7,-103.4 309.58,-89.06 338.52,-78.92"/>
<polygon fill="midnightblue" stroke="midnightblue" points="339.93,-82.13 348.21,-75.52 337.62,-75.52 339.93,-82.13"/>
</g>
<!-- Node9 -->
<g id="node9" class="node">
<title>Node9</title>
<g id="a_node9"><a xlink:title=" ">
<polygon fill="white" stroke="#bfbfbf" points="423,-56.5 423,-75.5 488,-75.5 488,-56.5 423,-56.5"/>
<text text-anchor="middle" x="455.5" y="-63.5" font-family="Helvetica,sans-Serif" font-size="10.00">stdexcept</text>
</a>
</g>
</g>
<!-- Node1&#45;&gt;Node9 -->
<g id="edge10" class="edge">
<title>Node1&#45;&gt;Node9</title>
<path fill="none" stroke="midnightblue" d="M256.05,-112.44C298.68,-102.73 368.07,-86.92 412.74,-76.74"/>
<polygon fill="midnightblue" stroke="midnightblue" points="413.73,-80.11 422.7,-74.47 412.17,-73.28 413.73,-80.11"/>
</g>
<!-- Node2&#45;&gt;Node3 -->
<g id="edge2" class="edge">
<title>Node2&#45;&gt;Node3</title>
<path fill="none" stroke="midnightblue" d="M78.9,-56.32C69.04,-48.26 54.15,-36.08 42.28,-26.37"/>
<polygon fill="midnightblue" stroke="midnightblue" points="44.25,-23.46 34.3,-19.83 39.82,-28.88 44.25,-23.46"/>
</g>
<!-- Node2&#45;&gt;Node4 -->
<g id="edge3" class="edge">
<title>Node2&#45;&gt;Node4</title>
<path fill="none" stroke="midnightblue" d="M99.94,-56.32C109.65,-48.26 124.32,-36.08 136,-26.37"/>
<polygon fill="midnightblue" stroke="midnightblue" points="138.41,-28.92 143.87,-19.83 133.94,-23.53 138.41,-28.92"/>
</g>
<!-- Node5 -->
<g id="node5" class="node">
<title>Node5</title>
<g id="a_node5"><a xlink:title=" ">
<polygon fill="white" stroke="#bfbfbf" points="70.5,-0.5 70.5,-19.5 108.5,-19.5 108.5,-0.5 70.5,-0.5"/>
<text text-anchor="middle" x="89.5" y="-7.5" font-family="Helvetica,sans-Serif" font-size="10.00">map</text>
</a>
</g>
</g>
<!-- Node2&#45;&gt;Node5 -->
<g id="edge4" class="edge">
<title>Node2&#45;&gt;Node5</title>
<path fill="none" stroke="midnightblue" d="M89.5,-56.08C89.5,-49.01 89.5,-38.86 89.5,-29.99"/>
<polygon fill="midnightblue" stroke="midnightblue" points="93,-29.75 89.5,-19.75 86,-29.75 93,-29.75"/>
</g>
</g>
</svg>
