<?xml version="1.0" encoding="UTF-8" standalone="no"?>
<!DOCTYPE svg PUBLIC "-//W3C//DTD SVG 1.1//EN"
 "http://www.w3.org/Graphics/SVG/1.1/DTD/svg11.dtd">
<!-- Generated by graphviz version 2.43.0 (0)
 -->
<!-- Title: src/Map.h Pages: 1 -->
<svg width="368pt" height="252pt"
 viewBox="0.00 0.00 367.50 252.00" xmlns="http://www.w3.org/2000/svg" xmlns:xlink="http://www.w3.org/1999/xlink">
<g id="graph0" class="graph" transform="scale(1 1) rotate(0) translate(4 248)">
<title>src/Map.h</title>
<polygon fill="white" stroke="transparent" points="-4,4 -4,-248 363.5,-248 363.5,4 -4,4"/>
<!-- Node1 -->
<g id="node1" class="node">
<title>Node1</title>
<g id="a_node1"><a xlink:title="Class for handling the game map.">
<polygon fill="#bfbfbf" stroke="black" points="157.5,-224.5 157.5,-243.5 221.5,-243.5 221.5,-224.5 157.5,-224.5"/>
<text text-anchor="middle" x="189.5" y="-231.5" font-family="Helvetica,sans-Serif" font-size="10.00">src/Map.h</text>
</a>
</g>
</g>
<!-- Node2 -->
<g id="node2" class="node">
<title>Node2</title>
<g id="a_node2"><a xlink:title=" ">
<polygon fill="white" stroke="#bfbfbf" points="315.5,-56.5 315.5,-75.5 359.5,-75.5 359.5,-56.5 315.5,-56.5"/>
<text text-anchor="middle" x="337.5" y="-63.5" font-family="Helvetica,sans-Serif" font-size="10.00">string</text>
</a>
</g>
</g>
<!-- Node1&#45;&gt;Node2 -->
<g id="edge1" class="edge">
<title>Node1&#45;&gt;Node2</title>
<path fill="none" stroke="midnightblue" d="M214.56,-224.45C249.5,-211 311.49,-181.24 337.5,-132 344.99,-117.81 344.16,-99.33 341.94,-85.71"/>
<polygon fill="midnightblue" stroke="midnightblue" points="345.31,-84.71 339.9,-75.6 338.45,-86.1 345.31,-84.71"/>
</g>
<!-- Node3 -->
<g id="node3" class="node">
<title>Node3</title>
<g id="a_node3"><a xlink:title=" ">
<polygon fill="white" stroke="#bfbfbf" points="0,-56.5 0,-75.5 47,-75.5 47,-56.5 0,-56.5"/>
<text text-anchor="middle" x="23.5" y="-63.5" font-family="Helvetica,sans-Serif" font-size="10.00">vector</text>
</a>
</g>
</g>
<!-- Node1&#45;&gt;Node3 -->
<g id="edge2" class="edge">
<title>Node1&#45;&gt;Node3</title>
<path fill="none" stroke="midnightblue" d="M161.32,-224.48C123.48,-211.39 57.53,-182.4 27.5,-132 19.27,-118.19 18.95,-99.67 20.29,-85.93"/>
<polygon fill="midnightblue" stroke="midnightblue" points="23.8,-86.1 21.67,-75.72 16.86,-85.16 23.8,-86.1"/>
</g>
<!-- Node4 -->
<g id="node4" class="node">
<title>Node4</title>
<g id="a_node4"><a xlink:href="Window_8h.html" target="_top" xlink:title="Class for handling ncurses windows.">
<polygon fill="white" stroke="black" points="157.5,-168.5 157.5,-187.5 221.5,-187.5 221.5,-168.5 157.5,-168.5"/>
<text text-anchor="middle" x="189.5" y="-175.5" font-family="Helvetica,sans-Serif" font-size="10.00">Window.h</text>
</a>
</g>
</g>
<!-- Node1&#45;&gt;Node4 -->
<g id="edge3" class="edge">
<title>Node1&#45;&gt;Node4</title>
<path fill="none" stroke="midnightblue" d="M189.5,-224.08C189.5,-217.01 189.5,-206.86 189.5,-197.99"/>
<polygon fill="midnightblue" stroke="midnightblue" points="193,-197.75 189.5,-187.75 186,-197.75 193,-197.75"/>
</g>
<!-- Node4&#45;&gt;Node2 -->
<g id="edge5" class="edge">
<title>Node4&#45;&gt;Node2</title>
<path fill="none" stroke="midnightblue" d="M221.51,-174.05C250.69,-169.67 293.01,-158.83 318.5,-132 330.26,-119.62 334.79,-100.38 336.51,-86.04"/>
<polygon fill="midnightblue" stroke="midnightblue" points="340.02,-86.07 337.37,-75.81 333.04,-85.48 340.02,-86.07"/>
</g>
<!-- Node4&#45;&gt;Node3 -->
<g id="edge7" class="edge">
<title>Node4&#45;&gt;Node3</title>
<path fill="none" stroke="midnightblue" d="M157.5,-175.75C124.3,-172.74 73.07,-162.96 42.5,-132 30.51,-119.85 26.01,-100.58 24.36,-86.17"/>
<polygon fill="midnightblue" stroke="midnightblue" points="27.82,-85.58 23.56,-75.88 20.84,-86.12 27.82,-85.58"/>
</g>
<!-- Node5 -->
<g id="node5" class="node">
<title>Node5</title>
<g id="a_node5"><a xlink:title=" ">
<polygon fill="white" stroke="#bfbfbf" points="52,-112.5 52,-131.5 115,-131.5 115,-112.5 52,-112.5"/>
<text text-anchor="middle" x="83.5" y="-119.5" font-family="Helvetica,sans-Serif" font-size="10.00">ncurses.h</text>
</a>
</g>
</g>
<!-- Node4&#45;&gt;Node5 -->
<g id="edge4" class="edge">
<title>Node4&#45;&gt;Node5</title>
<path fill="none" stroke="midnightblue" d="M172.47,-168.32C155.47,-159.66 129.12,-146.24 109.51,-136.25"/>
<polygon fill="midnightblue" stroke="midnightblue" points="110.99,-133.08 100.49,-131.65 107.81,-139.31 110.99,-133.08"/>
</g>
<!-- Node6 -->
<g id="node6" class="node">
<title>Node6</title>
<g id="a_node6"><a xlink:title=" ">
<polygon fill="white" stroke="#bfbfbf" points="133.5,-112.5 133.5,-131.5 189.5,-131.5 189.5,-112.5 133.5,-112.5"/>
<text text-anchor="middle" x="161.5" y="-119.5" font-family="Helvetica,sans-Serif" font-size="10.00">optional</text>
</a>
</g>
</g>
<!-- Node4&#45;&gt;Node6 -->
<g id="edge6" class="edge">
<title>Node4&#45;&gt;Node6</title>
<path fill="none" stroke="midnightblue" d="M184.88,-168.08C181.04,-160.69 175.48,-149.95 170.74,-140.81"/>
<polygon fill="midnightblue" stroke="midnightblue" points="173.75,-139.02 166.04,-131.75 167.53,-142.24 173.75,-139.02"/>
</g>
<!-- Node7 -->
<g id="node7" class="node">
<title>Node7</title>
<g id="a_node7"><a xlink:href="Enums_8h.html" target="_top" xlink:title=" ">
<polygon fill="white" stroke="black" points="213,-56.5 213,-75.5 272,-75.5 272,-56.5 213,-56.5"/>
<text text-anchor="middle" x="242.5" y="-63.5" font-family="Helvetica,sans-Serif" font-size="10.00">Enums.h</text>
</a>
</g>
</g>
<!-- Node4&#45;&gt;Node7 -->
<g id="edge8" class="edge">
<title>Node4&#45;&gt;Node7</title>
<path fill="none" stroke="midnightblue" d="M193.66,-168.37C202.33,-150.38 222.48,-108.55 234.01,-84.63"/>
<polygon fill="midnightblue" stroke="midnightblue" points="237.17,-86.12 238.36,-75.59 230.87,-83.08 237.17,-86.12"/>
</g>
<!-- Node9 -->
<g id="node9" class="node">
<title>Node9</title>
<g id="a_node9"><a xlink:href="Helpers_8h.html" target="_top" xlink:title=" ">
<polygon fill="white" stroke="black" points="246,-112.5 246,-131.5 309,-131.5 309,-112.5 246,-112.5"/>
<text text-anchor="middle" x="277.5" y="-119.5" font-family="Helvetica,sans-Serif" font-size="10.00">Helpers.h</text>
</a>
</g>
</g>
<!-- Node4&#45;&gt;Node9 -->
<g id="edge10" class="edge">
<title>Node4&#45;&gt;Node9</title>
<path fill="none" stroke="midnightblue" d="M203.64,-168.32C217.37,-159.9 238.44,-146.97 254.56,-137.07"/>
<polygon fill="midnightblue" stroke="midnightblue" points="256.7,-139.87 263.4,-131.65 253.04,-133.9 256.7,-139.87"/>
</g>
<!-- Node8 -->
<g id="node8" class="node">
<title>Node8</title>
<g id="a_node8"><a xlink:title=" ">
<polygon fill="white" stroke="#bfbfbf" points="220,-0.5 220,-19.5 265,-19.5 265,-0.5 220,-0.5"/>
<text text-anchor="middle" x="242.5" y="-7.5" font-family="Helvetica,sans-Serif" font-size="10.00">utility</text>
</a>
</g>
</g>
<!-- Node7&#45;&gt;Node8 -->
<g id="edge9" class="edge">
<title>Node7&#45;&gt;Node8</title>
<path fill="none" stroke="midnightblue" d="M242.5,-56.08C242.5,-49.01 242.5,-38.86 242.5,-29.99"/>
<polygon fill="midnightblue" stroke="midnightblue" points="246,-29.75 242.5,-19.75 239,-29.75 246,-29.75"/>
</g>
<!-- Node9&#45;&gt;Node2 -->
<g id="edge12" class="edge">
<title>Node9&#45;&gt;Node2</title>
<path fill="none" stroke="midnightblue" d="M287.14,-112.32C296.01,-104.34 309.37,-92.31 320.11,-82.65"/>
<polygon fill="midnightblue" stroke="midnightblue" points="322.59,-85.13 327.68,-75.83 317.91,-79.92 322.59,-85.13"/>
</g>
<!-- Node9&#45;&gt;Node3 -->
<g id="edge13" class="edge">
<title>Node9&#45;&gt;Node3</title>
<path fill="none" stroke="midnightblue" d="M245.84,-114.27C197.67,-104.03 106.37,-84.62 57.08,-74.14"/>
<polygon fill="midnightblue" stroke="midnightblue" points="57.74,-70.7 47.23,-72.04 56.28,-77.55 57.74,-70.7"/>
</g>
<!-- Node9&#45;&gt;Node7 -->
<g id="edge11" class="edge">
<title>Node9&#45;&gt;Node7</title>
<path fill="none" stroke="midnightblue" d="M271.72,-112.08C266.83,-104.53 259.67,-93.49 253.67,-84.23"/>
<polygon fill="midnightblue" stroke="midnightblue" points="256.55,-82.24 248.17,-75.75 250.67,-86.05 256.55,-82.24"/>
</g>
</g>
</svg>
