<?xml version="1.0" encoding="UTF-8" standalone="no"?>
<!DOCTYPE svg PUBLIC "-//W3C//DTD SVG 1.1//EN"
 "http://www.w3.org/Graphics/SVG/1.1/DTD/svg11.dtd">
<!-- Generated by graphviz version 2.43.0 (0)
 -->
<!-- Title: src/MovingObject.h Pages: 1 -->
<svg width="1230pt" height="308pt"
 viewBox="0.00 0.00 1230.35 308.00" xmlns="http://www.w3.org/2000/svg" xmlns:xlink="http://www.w3.org/1999/xlink">
<g id="graph0" class="graph" transform="scale(1 1) rotate(0) translate(4 304)">
<title>src/MovingObject.h</title>
<polygon fill="white" stroke="transparent" points="-4,4 -4,-304 1226.35,-304 1226.35,4 -4,4"/>
<!-- Node1 -->
<g id="node1" class="node">
<title>Node1</title>
<g id="a_node1"><a xlink:title="Base class for all moving objects.">
<polygon fill="#bfbfbf" stroke="black" points="684.35,-280.5 684.35,-299.5 794.35,-299.5 794.35,-280.5 684.35,-280.5"/>
<text text-anchor="middle" x="739.35" y="-287.5" font-family="Helvetica,sans-Serif" font-size="10.00">src/MovingObject.h</text>
</a>
</g>
</g>
<!-- Node2 -->
<g id="node2" class="node">
<title>Node2</title>
<g id="a_node2"><a xlink:href="EnemyBehavior_8h.html" target="_top" xlink:title="Base class for all enemy behaviors.">
<polygon fill="white" stroke="black" points="316.85,-224.5 316.85,-243.5 435.85,-243.5 435.85,-224.5 316.85,-224.5"/>
<text text-anchor="middle" x="376.35" y="-231.5" font-family="Helvetica,sans-Serif" font-size="10.00">src/EnemyBehavior.h</text>
</a>
</g>
</g>
<!-- Node1&#45;&gt;Node2 -->
<g id="edge1" class="edge">
<title>Node1&#45;&gt;Node2</title>
<path fill="none" stroke="midnightblue" d="M673.97,-279.27C605.43,-269.08 498.79,-253.21 433.5,-243.5"/>
<polygon fill="midnightblue" stroke="midnightblue" points="673.81,-282.79 684.22,-280.8 674.84,-275.87 673.81,-282.79"/>
</g>
<!-- Node10 -->
<g id="node10" class="node">
<title>Node10</title>
<g id="a_node10"><a xlink:href="Ghost_8h.html" target="_top" xlink:title="Represents a ghost enemy.">
<polygon fill="white" stroke="black" points="607.85,-168.5 607.85,-187.5 678.85,-187.5 678.85,-168.5 607.85,-168.5"/>
<text text-anchor="middle" x="643.35" y="-175.5" font-family="Helvetica,sans-Serif" font-size="10.00">src/Ghost.h</text>
</a>
</g>
</g>
<!-- Node1&#45;&gt;Node10 -->
<g id="edge21" class="edge">
<title>Node1&#45;&gt;Node10</title>
<path fill="none" stroke="midnightblue" d="M722.72,-273.31C714.02,-264.87 703.33,-254.13 694.35,-244 677.22,-224.68 658.97,-200.39 649.64,-187.68"/>
<polygon fill="midnightblue" stroke="midnightblue" points="720.42,-275.95 730.06,-280.34 725.26,-270.9 720.42,-275.95"/>
</g>
<!-- Node17 -->
<g id="node17" class="node">
<title>Node17</title>
<g id="a_node17"><a xlink:href="InteractiveObject_8h.html" target="_top" xlink:title="Base class for all interactive objects.">
<polygon fill="white" stroke="black" points="837.85,-168.5 837.85,-187.5 964.85,-187.5 964.85,-168.5 837.85,-168.5"/>
<text text-anchor="middle" x="901.35" y="-175.5" font-family="Helvetica,sans-Serif" font-size="10.00">src/InteractiveObject.h</text>
</a>
</g>
</g>
<!-- Node1&#45;&gt;Node17 -->
<g id="edge22" class="edge">
<title>Node1&#45;&gt;Node17</title>
<path fill="none" stroke="midnightblue" d="M757.45,-273.84C774.12,-260.16 799.75,-239.83 823.35,-224 843.99,-210.15 869.08,-196.15 885.13,-187.52"/>
<polygon fill="midnightblue" stroke="midnightblue" points="755.09,-271.25 749.62,-280.32 759.55,-276.64 755.09,-271.25"/>
</g>
<!-- Node27 -->
<g id="node27" class="node">
<title>Node27</title>
<g id="a_node27"><a xlink:href="MovingObject_8cpp.html" target="_top" xlink:title="Base class for all moving objects.">
<polygon fill="white" stroke="black" points="832.35,-224.5 832.35,-243.5 954.35,-243.5 954.35,-224.5 832.35,-224.5"/>
<text text-anchor="middle" x="893.35" y="-231.5" font-family="Helvetica,sans-Serif" font-size="10.00">src/MovingObject.cpp</text>
</a>
</g>
</g>
<!-- Node1&#45;&gt;Node27 -->
<g id="edge37" class="edge">
<title>Node1&#45;&gt;Node27</title>
<path fill="none" stroke="midnightblue" d="M773.46,-277.04C802.44,-266.88 843.31,-252.55 869.06,-243.52"/>
<polygon fill="midnightblue" stroke="midnightblue" points="772.03,-273.83 763.75,-280.44 774.35,-280.44 772.03,-273.83"/>
</g>
<!-- Node28 -->
<g id="node28" class="node">
<title>Node28</title>
<g id="a_node28"><a xlink:href="Player_8h.html" target="_top" xlink:title="Represents a player.">
<polygon fill="white" stroke="black" points="702.85,-224.5 702.85,-243.5 775.85,-243.5 775.85,-224.5 702.85,-224.5"/>
<text text-anchor="middle" x="739.35" y="-231.5" font-family="Helvetica,sans-Serif" font-size="10.00">src/Player.h</text>
</a>
</g>
</g>
<!-- Node1&#45;&gt;Node28 -->
<g id="edge38" class="edge">
<title>Node1&#45;&gt;Node28</title>
<path fill="none" stroke="midnightblue" d="M739.35,-269.8C739.35,-260.91 739.35,-250.78 739.35,-243.75"/>
<polygon fill="midnightblue" stroke="midnightblue" points="735.85,-270.08 739.35,-280.08 742.85,-270.08 735.85,-270.08"/>
</g>
<!-- Node3 -->
<g id="node3" class="node">
<title>Node3</title>
<g id="a_node3"><a xlink:href="ChaseBehavior_8h.html" target="_top" xlink:title="Class for handling the chase behavior of ghosts.">
<polygon fill="white" stroke="black" points="318.35,-168.5 318.35,-187.5 434.35,-187.5 434.35,-168.5 318.35,-168.5"/>
<text text-anchor="middle" x="376.35" y="-175.5" font-family="Helvetica,sans-Serif" font-size="10.00">src/ChaseBehavior.h</text>
</a>
</g>
</g>
<!-- Node2&#45;&gt;Node3 -->
<g id="edge2" class="edge">
<title>Node2&#45;&gt;Node3</title>
<path fill="none" stroke="midnightblue" d="M376.35,-213.8C376.35,-204.91 376.35,-194.78 376.35,-187.75"/>
<polygon fill="midnightblue" stroke="midnightblue" points="372.85,-214.08 376.35,-224.08 379.85,-214.08 372.85,-214.08"/>
</g>
<!-- Node6 -->
<g id="node6" class="node">
<title>Node6</title>
<g id="a_node6"><a xlink:href="EnemyBehavior_8cpp.html" target="_top" xlink:title="Base class for all enemy behaviors.">
<polygon fill="white" stroke="black" points="168.85,-168.5 168.85,-187.5 299.85,-187.5 299.85,-168.5 168.85,-168.5"/>
<text text-anchor="middle" x="234.35" y="-175.5" font-family="Helvetica,sans-Serif" font-size="10.00">src/EnemyBehavior.cpp</text>
</a>
</g>
</g>
<!-- Node2&#45;&gt;Node6 -->
<g id="edge5" class="edge">
<title>Node2&#45;&gt;Node6</title>
<path fill="none" stroke="midnightblue" d="M344.19,-220.77C317.52,-210.63 280.28,-196.47 256.74,-187.52"/>
<polygon fill="midnightblue" stroke="midnightblue" points="343.26,-224.16 353.85,-224.44 345.75,-217.62 343.26,-224.16"/>
</g>
<!-- Node7 -->
<g id="node7" class="node">
<title>Node7</title>
<g id="a_node7"><a xlink:href="FrightenedBehavior_8h.html" target="_top" xlink:title="Class representing a frightened ghost behavior.">
<polygon fill="white" stroke="black" points="452.85,-168.5 452.85,-187.5 589.85,-187.5 589.85,-168.5 452.85,-168.5"/>
<text text-anchor="middle" x="521.35" y="-175.5" font-family="Helvetica,sans-Serif" font-size="10.00">src/FrightenedBehavior.h</text>
</a>
</g>
</g>
<!-- Node2&#45;&gt;Node7 -->
<g id="edge6" class="edge">
<title>Node2&#45;&gt;Node7</title>
<path fill="none" stroke="midnightblue" d="M408.82,-220.91C436.08,-210.75 474.34,-196.51 498.48,-187.52"/>
<polygon fill="midnightblue" stroke="midnightblue" points="407.47,-217.67 399.32,-224.44 409.92,-224.23 407.47,-217.67"/>
</g>
<!-- Node9 -->
<g id="node9" class="node">
<title>Node9</title>
<g id="a_node9"><a xlink:href="Game_8cpp.html" target="_top" xlink:title="Class for handling the game logic.">
<polygon fill="white" stroke="black" points="667.85,-56.5 667.85,-75.5 750.85,-75.5 750.85,-56.5 667.85,-56.5"/>
<text text-anchor="middle" x="709.35" y="-63.5" font-family="Helvetica,sans-Serif" font-size="10.00">src/Game.cpp</text>
</a>
</g>
</g>
<!-- Node2&#45;&gt;Node9 -->
<g id="edge9" class="edge">
<title>Node2&#45;&gt;Node9</title>
<path fill="none" stroke="midnightblue" d="M306.44,-228.75C208.71,-222.12 40.94,-207.97 21.35,-188 -2.38,-163.81 -7.93,-136.62 15.35,-112 64.51,-60.01 587.27,-84.23 658.35,-76 661.39,-75.65 664.52,-75.23 667.66,-74.77"/>
<polygon fill="midnightblue" stroke="midnightblue" points="306.33,-232.25 316.55,-229.42 306.8,-225.26 306.33,-232.25"/>
</g>
<!-- Node2&#45;&gt;Node10 -->
<g id="edge10" class="edge">
<title>Node2&#45;&gt;Node10</title>
<path fill="none" stroke="midnightblue" d="M428.51,-222.45C481.35,-211.76 561.65,-195.52 607.65,-186.22"/>
<polygon fill="midnightblue" stroke="midnightblue" points="427.76,-219.03 418.66,-224.44 429.15,-225.89 427.76,-219.03"/>
</g>
<!-- Node15 -->
<g id="node15" class="node">
<title>Node15</title>
<g id="a_node15"><a xlink:href="ScatterBehavior_8h.html" target="_top" xlink:title="Class for the scatter behavior of the ghosts.">
<polygon fill="white" stroke="black" points="30.35,-168.5 30.35,-187.5 150.35,-187.5 150.35,-168.5 30.35,-168.5"/>
<text text-anchor="middle" x="90.35" y="-175.5" font-family="Helvetica,sans-Serif" font-size="10.00">src/ScatterBehavior.h</text>
</a>
</g>
</g>
<!-- Node2&#45;&gt;Node15 -->
<g id="edge17" class="edge">
<title>Node2&#45;&gt;Node15</title>
<path fill="none" stroke="midnightblue" d="M320.93,-222.54C266.88,-212.33 185.68,-197 135.45,-187.52"/>
<polygon fill="midnightblue" stroke="midnightblue" points="320.56,-226.03 331.03,-224.44 321.85,-219.15 320.56,-226.03"/>
</g>
<!-- Node4 -->
<g id="node4" class="node">
<title>Node4</title>
<g id="a_node4"><a xlink:href="ChaseBehavior_8cpp.html" target="_top" xlink:title="Class for handling the chase behavior of ghosts.">
<polygon fill="white" stroke="black" points="212.85,-112.5 212.85,-131.5 339.85,-131.5 339.85,-112.5 212.85,-112.5"/>
<text text-anchor="middle" x="276.35" y="-119.5" font-family="Helvetica,sans-Serif" font-size="10.00">src/ChaseBehavior.cpp</text>
</a>
</g>
</g>
<!-- Node3&#45;&gt;Node4 -->
<g id="edge3" class="edge">
<title>Node3&#45;&gt;Node4</title>
<path fill="none" stroke="midnightblue" d="M351.26,-163.45C332.8,-153.48 308.25,-140.23 292.38,-131.65"/>
<polygon fill="midnightblue" stroke="midnightblue" points="349.82,-166.65 360.28,-168.32 353.15,-160.49 349.82,-166.65"/>
</g>
<!-- Node5 -->
<g id="node5" class="node">
<title>Node5</title>
<g id="a_node5"><a xlink:href="Ghost_8cpp.html" target="_top" xlink:title="Represents a ghost enemy.">
<polygon fill="white" stroke="black" points="357.85,-112.5 357.85,-131.5 440.85,-131.5 440.85,-112.5 357.85,-112.5"/>
<text text-anchor="middle" x="399.35" y="-119.5" font-family="Helvetica,sans-Serif" font-size="10.00">src/Ghost.cpp</text>
</a>
</g>
</g>
<!-- Node3&#45;&gt;Node5 -->
<g id="edge4" class="edge">
<title>Node3&#45;&gt;Node5</title>
<path fill="none" stroke="midnightblue" d="M384.15,-158.69C388.02,-149.59 392.53,-139.01 395.62,-131.75"/>
<polygon fill="midnightblue" stroke="midnightblue" points="380.85,-157.51 380.15,-168.08 387.29,-160.25 380.85,-157.51"/>
</g>
<!-- Node7&#45;&gt;Node5 -->
<g id="edge8" class="edge">
<title>Node7&#45;&gt;Node5</title>
<path fill="none" stroke="midnightblue" d="M492.81,-164.37C469.96,-154.26 438.54,-140.35 418.59,-131.52"/>
<polygon fill="midnightblue" stroke="midnightblue" points="491.46,-167.6 502.02,-168.44 494.29,-161.2 491.46,-167.6"/>
</g>
<!-- Node8 -->
<g id="node8" class="node">
<title>Node8</title>
<g id="a_node8"><a xlink:href="FrightenedBehavior_8cpp.html" target="_top" xlink:title="Class representing a frightened ghost behavior.">
<polygon fill="white" stroke="black" points="458.85,-112.5 458.85,-131.5 607.85,-131.5 607.85,-112.5 458.85,-112.5"/>
<text text-anchor="middle" x="533.35" y="-119.5" font-family="Helvetica,sans-Serif" font-size="10.00">src/FrightenedBehavior.cpp</text>
</a>
</g>
</g>
<!-- Node7&#45;&gt;Node8 -->
<g id="edge7" class="edge">
<title>Node7&#45;&gt;Node8</title>
<path fill="none" stroke="midnightblue" d="M525.55,-158.1C527.54,-149.14 529.83,-138.86 531.4,-131.75"/>
<polygon fill="midnightblue" stroke="midnightblue" points="522.08,-157.56 523.33,-168.08 528.92,-159.08 522.08,-157.56"/>
</g>
<!-- Node10&#45;&gt;Node5 -->
<g id="edge16" class="edge">
<title>Node10&#45;&gt;Node5</title>
<path fill="none" stroke="midnightblue" d="M597.6,-166.88C551.56,-156.69 481.35,-141.15 438.01,-131.56"/>
<polygon fill="midnightblue" stroke="midnightblue" points="597.09,-170.35 607.61,-169.09 598.6,-163.51 597.09,-170.35"/>
</g>
<!-- Node11 -->
<g id="node11" class="node">
<title>Node11</title>
<g id="a_node11"><a xlink:href="Game_8h.html" target="_top" xlink:title="Class for handling the game logic.">
<polygon fill="white" stroke="black" points="626.35,-112.5 626.35,-131.5 698.35,-131.5 698.35,-112.5 626.35,-112.5"/>
<text text-anchor="middle" x="662.35" y="-119.5" font-family="Helvetica,sans-Serif" font-size="10.00">src/Game.h</text>
</a>
</g>
</g>
<!-- Node10&#45;&gt;Node11 -->
<g id="edge11" class="edge">
<title>Node10&#45;&gt;Node11</title>
<path fill="none" stroke="midnightblue" d="M649.9,-158.4C653.07,-149.36 656.74,-138.94 659.27,-131.75"/>
<polygon fill="midnightblue" stroke="midnightblue" points="646.5,-157.49 646.49,-168.08 653.11,-159.81 646.5,-157.49"/>
</g>
<!-- Node11&#45;&gt;Node9 -->
<g id="edge12" class="edge">
<title>Node11&#45;&gt;Node9</title>
<path fill="none" stroke="midnightblue" d="M676.77,-104.43C685.01,-94.97 695,-83.48 701.73,-75.75"/>
<polygon fill="midnightblue" stroke="midnightblue" points="674.04,-102.24 670.11,-112.08 679.32,-106.84 674.04,-102.24"/>
</g>
<!-- Node12 -->
<g id="node12" class="node">
<title>Node12</title>
<g id="a_node12"><a xlink:href="GameManager_8h.html" target="_top" xlink:title="Handles the game loop and game states.">
<polygon fill="white" stroke="black" points="535.35,-56.5 535.35,-75.5 649.35,-75.5 649.35,-56.5 535.35,-56.5"/>
<text text-anchor="middle" x="592.35" y="-63.5" font-family="Helvetica,sans-Serif" font-size="10.00">src/GameManager.h</text>
</a>
</g>
</g>
<!-- Node11&#45;&gt;Node12 -->
<g id="edge13" class="edge">
<title>Node11&#45;&gt;Node12</title>
<path fill="none" stroke="midnightblue" d="M643.04,-106.1C630.44,-96.38 614.42,-84.03 603.8,-75.83"/>
<polygon fill="midnightblue" stroke="midnightblue" points="641.05,-108.99 651.1,-112.32 645.32,-103.44 641.05,-108.99"/>
</g>
<!-- Node13 -->
<g id="node13" class="node">
<title>Node13</title>
<g id="a_node13"><a xlink:href="GameManager_8cpp.html" target="_top" xlink:title="Handles the game loop and game states.">
<polygon fill="white" stroke="black" points="469.85,-0.5 469.85,-19.5 594.85,-19.5 594.85,-0.5 469.85,-0.5"/>
<text text-anchor="middle" x="532.35" y="-7.5" font-family="Helvetica,sans-Serif" font-size="10.00">src/GameManager.cpp</text>
</a>
</g>
</g>
<!-- Node12&#45;&gt;Node13 -->
<g id="edge14" class="edge">
<title>Node12&#45;&gt;Node13</title>
<path fill="none" stroke="midnightblue" d="M575.17,-49.54C564.47,-39.91 551.09,-27.87 542.16,-19.83"/>
<polygon fill="midnightblue" stroke="midnightblue" points="572.93,-52.24 582.71,-56.32 577.62,-47.03 572.93,-52.24"/>
</g>
<!-- Node14 -->
<g id="node14" class="node">
<title>Node14</title>
<g id="a_node14"><a xlink:href="main_8cpp.html" target="_top" xlink:title="Main function, initializes the game manager.">
<polygon fill="white" stroke="black" points="612.85,-0.5 612.85,-19.5 691.85,-19.5 691.85,-0.5 612.85,-0.5"/>
<text text-anchor="middle" x="652.35" y="-7.5" font-family="Helvetica,sans-Serif" font-size="10.00">src/main.cpp</text>
</a>
</g>
</g>
<!-- Node12&#45;&gt;Node14 -->
<g id="edge15" class="edge">
<title>Node12&#45;&gt;Node14</title>
<path fill="none" stroke="midnightblue" d="M609.53,-49.54C620.23,-39.91 633.61,-27.87 642.53,-19.83"/>
<polygon fill="midnightblue" stroke="midnightblue" points="607.08,-47.03 601.99,-56.32 611.76,-52.24 607.08,-47.03"/>
</g>
<!-- Node15&#45;&gt;Node5 -->
<g id="edge19" class="edge">
<title>Node15&#45;&gt;Node5</title>
<path fill="none" stroke="midnightblue" d="M149.44,-166.73C201.73,-157.63 280.12,-143.97 348.35,-132 351.36,-131.47 354.47,-130.93 357.6,-130.37"/>
<polygon fill="midnightblue" stroke="midnightblue" points="148.59,-163.32 139.33,-168.49 149.79,-170.22 148.59,-163.32"/>
</g>
<!-- Node15&#45;&gt;Node9 -->
<g id="edge18" class="edge">
<title>Node15&#45;&gt;Node9</title>
<path fill="none" stroke="midnightblue" d="M113.4,-163.01C143.59,-144.81 193.8,-114.96 203.35,-112 397.11,-51.96 457.12,-101.66 658.35,-76 661.38,-75.61 664.51,-75.17 667.65,-74.69"/>
<polygon fill="midnightblue" stroke="midnightblue" points="111.49,-160.08 104.74,-168.24 115.11,-166.07 111.49,-160.08"/>
</g>
<!-- Node16 -->
<g id="node16" class="node">
<title>Node16</title>
<g id="a_node16"><a xlink:href="ScatterBehavior_8cpp.html" target="_top" xlink:title="Class for the scatter behavior of the ghosts.">
<polygon fill="white" stroke="black" points="24.85,-112.5 24.85,-131.5 155.85,-131.5 155.85,-112.5 24.85,-112.5"/>
<text text-anchor="middle" x="90.35" y="-119.5" font-family="Helvetica,sans-Serif" font-size="10.00">src/ScatterBehavior.cpp</text>
</a>
</g>
</g>
<!-- Node15&#45;&gt;Node16 -->
<g id="edge20" class="edge">
<title>Node15&#45;&gt;Node16</title>
<path fill="none" stroke="midnightblue" d="M90.35,-157.8C90.35,-148.91 90.35,-138.78 90.35,-131.75"/>
<polygon fill="midnightblue" stroke="midnightblue" points="86.85,-158.08 90.35,-168.08 93.85,-158.08 86.85,-158.08"/>
</g>
<!-- Node17&#45;&gt;Node11 -->
<g id="edge29" class="edge">
<title>Node17&#45;&gt;Node11</title>
<path fill="none" stroke="midnightblue" d="M853.5,-166.19C807.77,-155.86 739.84,-140.51 698.48,-131.16"/>
<polygon fill="midnightblue" stroke="midnightblue" points="852.95,-169.65 863.48,-168.44 854.5,-162.83 852.95,-169.65"/>
</g>
<!-- Node18 -->
<g id="node18" class="node">
<title>Node18</title>
<g id="a_node18"><a xlink:href="Cherry_8h.html" target="_top" xlink:title="Class representing a cherry collectible.">
<polygon fill="white" stroke="black" points="1054.35,-112.5 1054.35,-131.5 1128.35,-131.5 1128.35,-112.5 1054.35,-112.5"/>
<text text-anchor="middle" x="1091.35" y="-119.5" font-family="Helvetica,sans-Serif" font-size="10.00">src/Cherry.h</text>
</a>
</g>
</g>
<!-- Node17&#45;&gt;Node18 -->
<g id="edge23" class="edge">
<title>Node17&#45;&gt;Node18</title>
<path fill="none" stroke="midnightblue" d="M941.11,-165.7C976.97,-155.51 1028.92,-140.74 1061.38,-131.52"/>
<polygon fill="midnightblue" stroke="midnightblue" points="940.12,-162.34 931.46,-168.44 942.03,-169.08 940.12,-162.34"/>
</g>
<!-- Node20 -->
<g id="node20" class="node">
<title>Node20</title>
<g id="a_node20"><a xlink:href="Coin_8h.html" target="_top" xlink:title="Class representing a coin collectible.">
<polygon fill="white" stroke="black" points="1146.85,-112.5 1146.85,-131.5 1211.85,-131.5 1211.85,-112.5 1146.85,-112.5"/>
<text text-anchor="middle" x="1179.35" y="-119.5" font-family="Helvetica,sans-Serif" font-size="10.00">src/Coin.h</text>
</a>
</g>
</g>
<!-- Node17&#45;&gt;Node20 -->
<g id="edge26" class="edge">
<title>Node17&#45;&gt;Node20</title>
<path fill="none" stroke="midnightblue" d="M957.84,-166.6C1005.69,-157.7 1076.09,-144.4 1137.35,-132 1140.42,-131.38 1143.61,-130.72 1146.8,-130.05"/>
<polygon fill="midnightblue" stroke="midnightblue" points="957.17,-163.16 947.98,-168.43 958.45,-170.05 957.17,-163.16"/>
</g>
<!-- Node22 -->
<g id="node22" class="node">
<title>Node22</title>
<g id="a_node22"><a xlink:href="InteractiveObject_8cpp.html" target="_top" xlink:title="Base class for all interactive objects.">
<polygon fill="white" stroke="black" points="898.35,-112.5 898.35,-131.5 1036.35,-131.5 1036.35,-112.5 898.35,-112.5"/>
<text text-anchor="middle" x="967.35" y="-119.5" font-family="Helvetica,sans-Serif" font-size="10.00">src/InteractiveObject.cpp</text>
</a>
</g>
</g>
<!-- Node17&#45;&gt;Node22 -->
<g id="edge30" class="edge">
<title>Node17&#45;&gt;Node22</title>
<path fill="none" stroke="midnightblue" d="M919.9,-161.82C931.73,-152.15 946.63,-139.95 956.55,-131.83"/>
<polygon fill="midnightblue" stroke="midnightblue" points="917.48,-159.28 911.95,-168.32 921.91,-164.7 917.48,-159.28"/>
</g>
<!-- Node23 -->
<g id="node23" class="node">
<title>Node23</title>
<g id="a_node23"><a xlink:href="Teleport_8h.html" target="_top" xlink:title="Represents a teleport object.">
<polygon fill="white" stroke="black" points="716.35,-112.5 716.35,-131.5 798.35,-131.5 798.35,-112.5 716.35,-112.5"/>
<text text-anchor="middle" x="757.35" y="-119.5" font-family="Helvetica,sans-Serif" font-size="10.00">src/Teleport.h</text>
</a>
</g>
</g>
<!-- Node17&#45;&gt;Node23 -->
<g id="edge31" class="edge">
<title>Node17&#45;&gt;Node23</title>
<path fill="none" stroke="midnightblue" d="M869.1,-164.91C842.03,-154.75 804.03,-140.51 780.06,-131.52"/>
<polygon fill="midnightblue" stroke="midnightblue" points="867.94,-168.21 878.53,-168.44 870.4,-161.66 867.94,-168.21"/>
</g>
<!-- Node25 -->
<g id="node25" class="node">
<title>Node25</title>
<g id="a_node25"><a xlink:href="Wall_8h.html" target="_top" xlink:title="Represents a wall object.">
<polygon fill="white" stroke="black" points="816.35,-112.5 816.35,-131.5 880.35,-131.5 880.35,-112.5 816.35,-112.5"/>
<text text-anchor="middle" x="848.35" y="-119.5" font-family="Helvetica,sans-Serif" font-size="10.00">src/Wall.h</text>
</a>
</g>
</g>
<!-- Node17&#45;&gt;Node25 -->
<g id="edge34" class="edge">
<title>Node17&#45;&gt;Node25</title>
<path fill="none" stroke="midnightblue" d="M885.37,-160.72C876.03,-151.2 864.6,-139.56 856.94,-131.75"/>
<polygon fill="midnightblue" stroke="midnightblue" points="883.09,-163.4 892.6,-168.08 888.09,-158.49 883.09,-163.4"/>
</g>
<!-- Node18&#45;&gt;Node9 -->
<g id="edge25" class="edge">
<title>Node18&#45;&gt;Node9</title>
<path fill="none" stroke="midnightblue" d="M1044.15,-111.9C917.57,-91.89 883.38,-94.61 760.35,-76 757.33,-75.54 754.21,-75.05 751.07,-74.53"/>
<polygon fill="midnightblue" stroke="midnightblue" points="1043.8,-115.39 1054.23,-113.51 1044.91,-108.48 1043.8,-115.39"/>
</g>
<!-- Node19 -->
<g id="node19" class="node">
<title>Node19</title>
<g id="a_node19"><a xlink:href="Cherry_8cpp.html" target="_top" xlink:title="Class representing a cherry collectible.">
<polygon fill="white" stroke="black" points="1042.85,-56.5 1042.85,-75.5 1127.85,-75.5 1127.85,-56.5 1042.85,-56.5"/>
<text text-anchor="middle" x="1085.35" y="-63.5" font-family="Helvetica,sans-Serif" font-size="10.00">src/Cherry.cpp</text>
</a>
</g>
</g>
<!-- Node18&#45;&gt;Node19 -->
<g id="edge24" class="edge">
<title>Node18&#45;&gt;Node19</title>
<path fill="none" stroke="midnightblue" d="M1089.25,-102.1C1088.25,-93.14 1087.11,-82.86 1086.32,-75.75"/>
<polygon fill="midnightblue" stroke="midnightblue" points="1085.78,-102.53 1090.36,-112.08 1092.73,-101.76 1085.78,-102.53"/>
</g>
<!-- Node20&#45;&gt;Node9 -->
<g id="edge28" class="edge">
<title>Node20&#45;&gt;Node9</title>
<path fill="none" stroke="midnightblue" d="M1136.27,-112.01C969.24,-86.79 923.88,-98.2 760.35,-76 757.32,-75.59 754.2,-75.13 751.06,-74.64"/>
<polygon fill="midnightblue" stroke="midnightblue" points="1135.99,-115.51 1146.4,-113.56 1137.05,-108.59 1135.99,-115.51"/>
</g>
<!-- Node21 -->
<g id="node21" class="node">
<title>Node21</title>
<g id="a_node21"><a xlink:href="Coin_8cpp.html" target="_top" xlink:title="Class representing a coin collectible.">
<polygon fill="white" stroke="black" points="1146.35,-56.5 1146.35,-75.5 1222.35,-75.5 1222.35,-56.5 1146.35,-56.5"/>
<text text-anchor="middle" x="1184.35" y="-63.5" font-family="Helvetica,sans-Serif" font-size="10.00">src/Coin.cpp</text>
</a>
</g>
</g>
<!-- Node20&#45;&gt;Node21 -->
<g id="edge27" class="edge">
<title>Node20&#45;&gt;Node21</title>
<path fill="none" stroke="midnightblue" d="M1181.1,-102.1C1181.93,-93.14 1182.88,-82.86 1183.54,-75.75"/>
<polygon fill="midnightblue" stroke="midnightblue" points="1177.61,-101.8 1180.17,-112.08 1184.58,-102.45 1177.61,-101.8"/>
</g>
<!-- Node23&#45;&gt;Node9 -->
<g id="edge32" class="edge">
<title>Node23&#45;&gt;Node9</title>
<path fill="none" stroke="midnightblue" d="M742.62,-104.43C734.21,-94.97 724,-83.48 717.13,-75.75"/>
<polygon fill="midnightblue" stroke="midnightblue" points="740.16,-106.93 749.42,-112.08 745.4,-102.28 740.16,-106.93"/>
</g>
<!-- Node24 -->
<g id="node24" class="node">
<title>Node24</title>
<g id="a_node24"><a xlink:href="Teleport_8cpp.html" target="_top" xlink:title="Represents a teleport object.">
<polygon fill="white" stroke="black" points="768.85,-56.5 768.85,-75.5 861.85,-75.5 861.85,-56.5 768.85,-56.5"/>
<text text-anchor="middle" x="815.35" y="-63.5" font-family="Helvetica,sans-Serif" font-size="10.00">src/Teleport.cpp</text>
</a>
</g>
</g>
<!-- Node23&#45;&gt;Node24 -->
<g id="edge33" class="edge">
<title>Node23&#45;&gt;Node24</title>
<path fill="none" stroke="midnightblue" d="M774.26,-105.25C784.55,-95.67 797.31,-83.79 805.86,-75.83"/>
<polygon fill="midnightblue" stroke="midnightblue" points="771.6,-102.95 766.67,-112.32 776.37,-108.07 771.6,-102.95"/>
</g>
<!-- Node25&#45;&gt;Node9 -->
<g id="edge35" class="edge">
<title>Node25&#45;&gt;Node9</title>
<path fill="none" stroke="midnightblue" d="M816.87,-108.77C790.76,-98.63 754.31,-84.47 731.27,-75.52"/>
<polygon fill="midnightblue" stroke="midnightblue" points="815.74,-112.08 826.32,-112.44 818.27,-105.56 815.74,-112.08"/>
</g>
<!-- Node26 -->
<g id="node26" class="node">
<title>Node26</title>
<g id="a_node26"><a xlink:href="Wall_8cpp.html" target="_top" xlink:title="Represents a wall object.">
<polygon fill="white" stroke="black" points="879.85,-56.5 879.85,-75.5 954.85,-75.5 954.85,-56.5 879.85,-56.5"/>
<text text-anchor="middle" x="917.35" y="-63.5" font-family="Helvetica,sans-Serif" font-size="10.00">src/Wall.cpp</text>
</a>
</g>
</g>
<!-- Node25&#45;&gt;Node26 -->
<g id="edge36" class="edge">
<title>Node25&#45;&gt;Node26</title>
<path fill="none" stroke="midnightblue" d="M867.39,-106.1C879.8,-96.38 895.59,-84.03 906.06,-75.83"/>
<polygon fill="midnightblue" stroke="midnightblue" points="865.15,-103.4 859.44,-112.32 869.47,-108.92 865.15,-103.4"/>
</g>
<!-- Node28&#45;&gt;Node10 -->
<g id="edge40" class="edge">
<title>Node28&#45;&gt;Node10</title>
<path fill="none" stroke="midnightblue" d="M714.78,-219.18C697.11,-209.24 673.84,-196.15 658.73,-187.65"/>
<polygon fill="midnightblue" stroke="midnightblue" points="713.49,-222.47 723.93,-224.32 716.93,-216.37 713.49,-222.47"/>
</g>
<!-- Node28&#45;&gt;Node11 -->
<g id="edge39" class="edge">
<title>Node28&#45;&gt;Node11</title>
<path fill="none" stroke="midnightblue" d="M763.39,-218.77C782.16,-205.8 803.09,-185.99 790.35,-168 779.49,-152.67 732.47,-138.98 698.57,-130.83"/>
<polygon fill="midnightblue" stroke="midnightblue" points="761.25,-215.99 754.78,-224.38 765.07,-221.85 761.25,-215.99"/>
</g>
<!-- Node28&#45;&gt;Node17 -->
<g id="edge41" class="edge">
<title>Node28&#45;&gt;Node17</title>
<path fill="none" stroke="midnightblue" d="M774.83,-221.17C805.34,-211 848.59,-196.59 875.8,-187.52"/>
<polygon fill="midnightblue" stroke="midnightblue" points="773.4,-217.96 765.02,-224.44 775.61,-224.6 773.4,-217.96"/>
</g>
<!-- Node29 -->
<g id="node29" class="node">
<title>Node29</title>
<g id="a_node29"><a xlink:href="Player_8cpp.html" target="_top" xlink:title="Represents a player.">
<polygon fill="white" stroke="black" points="697.35,-168.5 697.35,-187.5 781.35,-187.5 781.35,-168.5 697.35,-168.5"/>
<text text-anchor="middle" x="739.35" y="-175.5" font-family="Helvetica,sans-Serif" font-size="10.00">src/Player.cpp</text>
</a>
</g>
</g>
<!-- Node28&#45;&gt;Node29 -->
<g id="edge42" class="edge">
<title>Node28&#45;&gt;Node29</title>
<path fill="none" stroke="midnightblue" d="M739.35,-213.8C739.35,-204.91 739.35,-194.78 739.35,-187.75"/>
<polygon fill="midnightblue" stroke="midnightblue" points="735.85,-214.08 739.35,-224.08 742.85,-214.08 735.85,-214.08"/>
</g>
</g>
</svg>
