<?xml version="1.0" encoding="UTF-8" standalone="no"?>
<!DOCTYPE svg PUBLIC "-//W3C//DTD SVG 1.1//EN"
 "http://www.w3.org/Graphics/SVG/1.1/DTD/svg11.dtd">
<!-- Generated by graphviz version 2.43.0 (0)
 -->
<!-- Title: src/MovingObject.cpp Pages: 1 -->
<svg width="645pt" height="364pt"
 viewBox="0.00 0.00 644.50 364.00" xmlns="http://www.w3.org/2000/svg" xmlns:xlink="http://www.w3.org/1999/xlink">
<g id="graph0" class="graph" transform="scale(1 1) rotate(0) translate(4 360)">
<title>src/MovingObject.cpp</title>
<polygon fill="white" stroke="transparent" points="-4,4 -4,-360 640.5,-360 640.5,4 -4,4"/>
<!-- Node1 -->
<g id="node1" class="node">
<title>Node1</title>
<g id="a_node1"><a xlink:title="Base class for all moving objects.">
<polygon fill="#bfbfbf" stroke="black" points="193,-336.5 193,-355.5 315,-355.5 315,-336.5 193,-336.5"/>
<text text-anchor="middle" x="254" y="-343.5" font-family="Helvetica,sans-Serif" font-size="10.00">src/MovingObject.cpp</text>
</a>
</g>
</g>
<!-- Node2 -->
<g id="node2" class="node">
<title>Node2</title>
<g id="a_node2"><a xlink:href="MovingObject_8h.html" target="_top" xlink:title="Base class for all moving objects.">
<polygon fill="white" stroke="black" points="160.5,-280.5 160.5,-299.5 253.5,-299.5 253.5,-280.5 160.5,-280.5"/>
<text text-anchor="middle" x="207" y="-287.5" font-family="Helvetica,sans-Serif" font-size="10.00">MovingObject.h</text>
</a>
</g>
</g>
<!-- Node1&#45;&gt;Node2 -->
<g id="edge1" class="edge">
<title>Node1&#45;&gt;Node2</title>
<path fill="none" stroke="midnightblue" d="M246.24,-336.08C239.46,-328.3 229.46,-316.8 221.24,-307.37"/>
<polygon fill="midnightblue" stroke="midnightblue" points="223.82,-305 214.62,-299.75 218.54,-309.59 223.82,-305"/>
</g>
<!-- Node15 -->
<g id="node15" class="node">
<title>Node15</title>
<g id="a_node15"><a xlink:title=" ">
<polygon fill="white" stroke="#bfbfbf" points="272,-280.5 272,-299.5 332,-299.5 332,-280.5 272,-280.5"/>
<text text-anchor="middle" x="302" y="-287.5" font-family="Helvetica,sans-Serif" font-size="10.00">iostream</text>
</a>
</g>
</g>
<!-- Node1&#45;&gt;Node15 -->
<g id="edge25" class="edge">
<title>Node1&#45;&gt;Node15</title>
<path fill="none" stroke="midnightblue" d="M261.93,-336.08C268.85,-328.3 279.07,-316.8 287.45,-307.37"/>
<polygon fill="midnightblue" stroke="midnightblue" points="290.19,-309.55 294.22,-299.75 284.96,-304.9 290.19,-309.55"/>
</g>
<!-- Node3 -->
<g id="node3" class="node">
<title>Node3</title>
<g id="a_node3"><a xlink:href="GameObject_8h.html" target="_top" xlink:title="Base class for all game objects.">
<polygon fill="white" stroke="black" points="73,-224.5 73,-243.5 159,-243.5 159,-224.5 73,-224.5"/>
<text text-anchor="middle" x="116" y="-231.5" font-family="Helvetica,sans-Serif" font-size="10.00">GameObject.h</text>
</a>
</g>
</g>
<!-- Node2&#45;&gt;Node3 -->
<g id="edge2" class="edge">
<title>Node2&#45;&gt;Node3</title>
<path fill="none" stroke="midnightblue" d="M192.38,-280.32C178.05,-271.82 155.99,-258.73 139.25,-248.8"/>
<polygon fill="midnightblue" stroke="midnightblue" points="140.97,-245.75 130.58,-243.65 137.4,-251.77 140.97,-245.75"/>
</g>
<!-- Node4 -->
<g id="node4" class="node">
<title>Node4</title>
<g id="a_node4"><a xlink:href="Enums_8h.html" target="_top" xlink:title=" ">
<polygon fill="white" stroke="black" points="191.5,-56.5 191.5,-75.5 250.5,-75.5 250.5,-56.5 191.5,-56.5"/>
<text text-anchor="middle" x="221" y="-63.5" font-family="Helvetica,sans-Serif" font-size="10.00">Enums.h</text>
</a>
</g>
</g>
<!-- Node2&#45;&gt;Node4 -->
<g id="edge8" class="edge">
<title>Node2&#45;&gt;Node4</title>
<path fill="none" stroke="midnightblue" d="M207.55,-280.3C209.61,-247.63 216.91,-131.87 219.8,-85.96"/>
<polygon fill="midnightblue" stroke="midnightblue" points="223.3,-86.08 220.44,-75.88 216.32,-85.64 223.3,-86.08"/>
</g>
<!-- Node6 -->
<g id="node6" class="node">
<title>Node6</title>
<g id="a_node6"><a xlink:href="GamePhase_8h.html" target="_top" xlink:title="Handles the game phase and level.">
<polygon fill="white" stroke="black" points="0,-168.5 0,-187.5 84,-187.5 84,-168.5 0,-168.5"/>
<text text-anchor="middle" x="42" y="-175.5" font-family="Helvetica,sans-Serif" font-size="10.00">GamePhase.h</text>
</a>
</g>
</g>
<!-- Node2&#45;&gt;Node6 -->
<g id="edge24" class="edge">
<title>Node2&#45;&gt;Node6</title>
<path fill="none" stroke="midnightblue" d="M160.22,-285.14C129.22,-280.24 89.67,-269.12 64,-244 51.64,-231.9 46.22,-212.62 43.85,-198.19"/>
<polygon fill="midnightblue" stroke="midnightblue" points="47.27,-197.37 42.52,-187.89 40.33,-198.26 47.27,-197.37"/>
</g>
<!-- Node7 -->
<g id="node7" class="node">
<title>Node7</title>
<g id="a_node7"><a xlink:title=" ">
<polygon fill="white" stroke="#bfbfbf" points="140,-168.5 140,-187.5 198,-187.5 198,-168.5 140,-168.5"/>
<text text-anchor="middle" x="169" y="-175.5" font-family="Helvetica,sans-Serif" font-size="10.00">memory</text>
</a>
</g>
</g>
<!-- Node2&#45;&gt;Node7 -->
<g id="edge9" class="edge">
<title>Node2&#45;&gt;Node7</title>
<path fill="none" stroke="midnightblue" d="M204.02,-280.37C197.86,-262.54 183.61,-221.3 175.31,-197.27"/>
<polygon fill="midnightblue" stroke="midnightblue" points="178.54,-195.9 171.97,-187.59 171.93,-198.19 178.54,-195.9"/>
</g>
<!-- Node8 -->
<g id="node8" class="node">
<title>Node8</title>
<g id="a_node8"><a xlink:title=" ">
<polygon fill="white" stroke="#bfbfbf" points="249,-112.5 249,-131.5 305,-131.5 305,-112.5 249,-112.5"/>
<text text-anchor="middle" x="277" y="-119.5" font-family="Helvetica,sans-Serif" font-size="10.00">optional</text>
</a>
</g>
</g>
<!-- Node2&#45;&gt;Node8 -->
<g id="edge10" class="edge">
<title>Node2&#45;&gt;Node8</title>
<path fill="none" stroke="midnightblue" d="M214.79,-280.28C222.18,-271.62 233.14,-257.68 240,-244 257.17,-209.76 268.12,-166.02 273.35,-141.61"/>
<polygon fill="midnightblue" stroke="midnightblue" points="276.83,-142.09 275.41,-131.59 269.97,-140.68 276.83,-142.09"/>
</g>
<!-- Node9 -->
<g id="node9" class="node">
<title>Node9</title>
<g id="a_node9"><a xlink:href="Map_8h.html" target="_top" xlink:title="Class for handling the game map.">
<polygon fill="white" stroke="black" points="496.5,-224.5 496.5,-243.5 543.5,-243.5 543.5,-224.5 496.5,-224.5"/>
<text text-anchor="middle" x="520" y="-231.5" font-family="Helvetica,sans-Serif" font-size="10.00">Map.h</text>
</a>
</g>
</g>
<!-- Node2&#45;&gt;Node9 -->
<g id="edge11" class="edge">
<title>Node2&#45;&gt;Node9</title>
<path fill="none" stroke="midnightblue" d="M253.52,-280.97C317.2,-269.99 429.98,-250.53 486.2,-240.83"/>
<polygon fill="midnightblue" stroke="midnightblue" points="487.07,-244.23 496.33,-239.08 485.88,-237.33 487.07,-244.23"/>
</g>
<!-- Node3&#45;&gt;Node4 -->
<g id="edge3" class="edge">
<title>Node3&#45;&gt;Node4</title>
<path fill="none" stroke="midnightblue" d="M116.65,-224.11C117.9,-211.13 121.42,-186.52 131,-168 149.11,-132.98 182.17,-100.46 202.79,-82.22"/>
<polygon fill="midnightblue" stroke="midnightblue" points="205.25,-84.71 210.53,-75.52 200.67,-79.42 205.25,-84.71"/>
</g>
<!-- Node3&#45;&gt;Node6 -->
<g id="edge5" class="edge">
<title>Node3&#45;&gt;Node6</title>
<path fill="none" stroke="midnightblue" d="M104.11,-224.32C92.85,-216.11 75.71,-203.6 62.29,-193.81"/>
<polygon fill="midnightblue" stroke="midnightblue" points="64.25,-190.9 54.11,-187.83 60.12,-196.56 64.25,-190.9"/>
</g>
<!-- Node3&#45;&gt;Node7 -->
<g id="edge7" class="edge">
<title>Node3&#45;&gt;Node7</title>
<path fill="none" stroke="midnightblue" d="M124.75,-224.08C132.47,-216.22 143.9,-204.57 153.22,-195.08"/>
<polygon fill="midnightblue" stroke="midnightblue" points="155.9,-197.34 160.41,-187.75 150.91,-192.44 155.9,-197.34"/>
</g>
<!-- Node5 -->
<g id="node5" class="node">
<title>Node5</title>
<g id="a_node5"><a xlink:title=" ">
<polygon fill="white" stroke="#bfbfbf" points="198.5,-0.5 198.5,-19.5 243.5,-19.5 243.5,-0.5 198.5,-0.5"/>
<text text-anchor="middle" x="221" y="-7.5" font-family="Helvetica,sans-Serif" font-size="10.00">utility</text>
</a>
</g>
</g>
<!-- Node4&#45;&gt;Node5 -->
<g id="edge4" class="edge">
<title>Node4&#45;&gt;Node5</title>
<path fill="none" stroke="midnightblue" d="M221,-56.08C221,-49.01 221,-38.86 221,-29.99"/>
<polygon fill="midnightblue" stroke="midnightblue" points="224.5,-29.75 221,-19.75 217.5,-29.75 224.5,-29.75"/>
</g>
<!-- Node6&#45;&gt;Node4 -->
<g id="edge6" class="edge">
<title>Node6&#45;&gt;Node4</title>
<path fill="none" stroke="midnightblue" d="M47.45,-168.17C56.39,-154.35 75.46,-127.59 98,-112 123.34,-94.47 156.32,-82.89 181.75,-75.87"/>
<polygon fill="midnightblue" stroke="midnightblue" points="182.66,-79.25 191.44,-73.32 180.88,-72.48 182.66,-79.25"/>
</g>
<!-- Node10 -->
<g id="node10" class="node">
<title>Node10</title>
<g id="a_node10"><a xlink:title=" ">
<polygon fill="white" stroke="#bfbfbf" points="409,-56.5 409,-75.5 453,-75.5 453,-56.5 409,-56.5"/>
<text text-anchor="middle" x="431" y="-63.5" font-family="Helvetica,sans-Serif" font-size="10.00">string</text>
</a>
</g>
</g>
<!-- Node9&#45;&gt;Node10 -->
<g id="edge12" class="edge">
<title>Node9&#45;&gt;Node10</title>
<path fill="none" stroke="midnightblue" d="M526.91,-224.25C542.72,-203.1 578.28,-148.26 553,-112 532.88,-83.13 492.04,-72.74 463.16,-69.02"/>
<polygon fill="midnightblue" stroke="midnightblue" points="463.45,-65.53 453.13,-67.93 462.69,-72.49 463.45,-65.53"/>
</g>
<!-- Node11 -->
<g id="node11" class="node">
<title>Node11</title>
<g id="a_node11"><a xlink:title=" ">
<polygon fill="white" stroke="#bfbfbf" points="548.5,-56.5 548.5,-75.5 595.5,-75.5 595.5,-56.5 548.5,-56.5"/>
<text text-anchor="middle" x="572" y="-63.5" font-family="Helvetica,sans-Serif" font-size="10.00">vector</text>
</a>
</g>
</g>
<!-- Node9&#45;&gt;Node11 -->
<g id="edge13" class="edge">
<title>Node9&#45;&gt;Node11</title>
<path fill="none" stroke="midnightblue" d="M543.78,-230.19C568.59,-225.85 606.29,-214.97 624,-188 642.55,-159.77 638.04,-142.72 624,-112 618.22,-99.36 606.95,-88.91 596.37,-81.27"/>
<polygon fill="midnightblue" stroke="midnightblue" points="598.04,-78.18 587.78,-75.53 594.15,-84 598.04,-78.18"/>
</g>
<!-- Node12 -->
<g id="node12" class="node">
<title>Node12</title>
<g id="a_node12"><a xlink:href="Window_8h.html" target="_top" xlink:title="Class for handling ncurses windows.">
<polygon fill="white" stroke="black" points="399,-168.5 399,-187.5 463,-187.5 463,-168.5 399,-168.5"/>
<text text-anchor="middle" x="431" y="-175.5" font-family="Helvetica,sans-Serif" font-size="10.00">Window.h</text>
</a>
</g>
</g>
<!-- Node9&#45;&gt;Node12 -->
<g id="edge14" class="edge">
<title>Node9&#45;&gt;Node12</title>
<path fill="none" stroke="midnightblue" d="M505.7,-224.32C491.82,-215.9 470.51,-202.97 454.2,-193.07"/>
<polygon fill="midnightblue" stroke="midnightblue" points="455.63,-189.85 445.26,-187.65 452,-195.83 455.63,-189.85"/>
</g>
<!-- Node12&#45;&gt;Node4 -->
<g id="edge19" class="edge">
<title>Node12&#45;&gt;Node4</title>
<path fill="none" stroke="midnightblue" d="M416,-168.31C393.88,-155.58 351.12,-131.27 314,-112 292.31,-100.74 267.36,-88.72 248.77,-79.94"/>
<polygon fill="midnightblue" stroke="midnightblue" points="250.22,-76.75 239.68,-75.66 247.24,-83.08 250.22,-76.75"/>
</g>
<!-- Node12&#45;&gt;Node8 -->
<g id="edge17" class="edge">
<title>Node12&#45;&gt;Node8</title>
<path fill="none" stroke="midnightblue" d="M406.6,-168.44C380.8,-159.4 339.92,-145.06 310.98,-134.92"/>
<polygon fill="midnightblue" stroke="midnightblue" points="311.88,-131.52 301.29,-131.52 309.57,-138.13 311.88,-131.52"/>
</g>
<!-- Node12&#45;&gt;Node10 -->
<g id="edge16" class="edge">
<title>Node12&#45;&gt;Node10</title>
<path fill="none" stroke="midnightblue" d="M419.73,-168.43C410.03,-160.27 396.72,-147.05 391,-132 384.07,-113.78 398.32,-95.03 411.69,-82.38"/>
<polygon fill="midnightblue" stroke="midnightblue" points="414.1,-84.92 419.29,-75.69 409.48,-79.67 414.1,-84.92"/>
</g>
<!-- Node12&#45;&gt;Node11 -->
<g id="edge18" class="edge">
<title>Node12&#45;&gt;Node11</title>
<path fill="none" stroke="midnightblue" d="M463.18,-173.22C490.71,-168.32 529.51,-157.17 553,-132 564.65,-119.52 569.19,-100.29 570.95,-85.98"/>
<polygon fill="midnightblue" stroke="midnightblue" points="574.46,-86.05 571.84,-75.78 567.48,-85.44 574.46,-86.05"/>
</g>
<!-- Node13 -->
<g id="node13" class="node">
<title>Node13</title>
<g id="a_node13"><a xlink:title=" ">
<polygon fill="white" stroke="#bfbfbf" points="480.5,-112.5 480.5,-131.5 543.5,-131.5 543.5,-112.5 480.5,-112.5"/>
<text text-anchor="middle" x="512" y="-119.5" font-family="Helvetica,sans-Serif" font-size="10.00">ncurses.h</text>
</a>
</g>
</g>
<!-- Node12&#45;&gt;Node13 -->
<g id="edge15" class="edge">
<title>Node12&#45;&gt;Node13</title>
<path fill="none" stroke="midnightblue" d="M444.01,-168.32C456.53,-159.98 475.68,-147.21 490.47,-137.35"/>
<polygon fill="midnightblue" stroke="midnightblue" points="492.64,-140.11 499.02,-131.65 488.76,-134.29 492.64,-140.11"/>
</g>
<!-- Node14 -->
<g id="node14" class="node">
<title>Node14</title>
<g id="a_node14"><a xlink:href="Helpers_8h.html" target="_top" xlink:title=" ">
<polygon fill="white" stroke="black" points="399.5,-112.5 399.5,-131.5 462.5,-131.5 462.5,-112.5 399.5,-112.5"/>
<text text-anchor="middle" x="431" y="-119.5" font-family="Helvetica,sans-Serif" font-size="10.00">Helpers.h</text>
</a>
</g>
</g>
<!-- Node12&#45;&gt;Node14 -->
<g id="edge20" class="edge">
<title>Node12&#45;&gt;Node14</title>
<path fill="none" stroke="midnightblue" d="M431,-168.08C431,-161.01 431,-150.86 431,-141.99"/>
<polygon fill="midnightblue" stroke="midnightblue" points="434.5,-141.75 431,-131.75 427.5,-141.75 434.5,-141.75"/>
</g>
<!-- Node14&#45;&gt;Node4 -->
<g id="edge21" class="edge">
<title>Node14&#45;&gt;Node4</title>
<path fill="none" stroke="midnightblue" d="M399.11,-112.8C361.98,-103.25 300.64,-87.48 260.53,-77.16"/>
<polygon fill="midnightblue" stroke="midnightblue" points="261.37,-73.77 250.81,-74.67 259.62,-80.55 261.37,-73.77"/>
</g>
<!-- Node14&#45;&gt;Node10 -->
<g id="edge22" class="edge">
<title>Node14&#45;&gt;Node10</title>
<path fill="none" stroke="midnightblue" d="M431,-112.08C431,-105.01 431,-94.86 431,-85.99"/>
<polygon fill="midnightblue" stroke="midnightblue" points="434.5,-85.75 431,-75.75 427.5,-85.75 434.5,-85.75"/>
</g>
<!-- Node14&#45;&gt;Node11 -->
<g id="edge23" class="edge">
<title>Node14&#45;&gt;Node11</title>
<path fill="none" stroke="midnightblue" d="M453.34,-112.44C476.75,-103.48 513.74,-89.31 540.19,-79.18"/>
<polygon fill="midnightblue" stroke="midnightblue" points="541.68,-82.36 549.76,-75.52 539.17,-75.82 541.68,-82.36"/>
</g>
</g>
</svg>
