<?xml version="1.0" encoding="UTF-8" standalone="no"?>
<!DOCTYPE svg PUBLIC "-//W3C//DTD SVG 1.1//EN"
 "http://www.w3.org/Graphics/SVG/1.1/DTD/svg11.dtd">
<!-- Generated by graphviz version 2.43.0 (0)
 -->
<!-- Title: src/Player.h Pages: 1 -->
<svg width="598pt" height="364pt"
 viewBox="0.00 0.00 597.68 364.00" xmlns="http://www.w3.org/2000/svg" xmlns:xlink="http://www.w3.org/1999/xlink">
<g id="graph0" class="graph" transform="scale(1 1) rotate(0) translate(4 360)">
<title>src/Player.h</title>
<polygon fill="white" stroke="transparent" points="-4,4 -4,-360 593.68,-360 593.68,4 -4,4"/>
<!-- Node1 -->
<g id="node1" class="node">
<title>Node1</title>
<g id="a_node1"><a xlink:title="Represents a player.">
<polygon fill="#bfbfbf" stroke="black" points="387.18,-336.5 387.18,-355.5 460.18,-355.5 460.18,-336.5 387.18,-336.5"/>
<text text-anchor="middle" x="423.68" y="-343.5" font-family="Helvetica,sans-Serif" font-size="10.00">src/Player.h</text>
</a>
</g>
</g>
<!-- Node2 -->
<g id="node2" class="node">
<title>Node2</title>
<g id="a_node2"><a xlink:href="MovingObject_8h.html" target="_top" xlink:title="Base class for all moving objects.">
<polygon fill="white" stroke="black" points="150.18,-280.5 150.18,-299.5 243.18,-299.5 243.18,-280.5 150.18,-280.5"/>
<text text-anchor="middle" x="196.68" y="-287.5" font-family="Helvetica,sans-Serif" font-size="10.00">MovingObject.h</text>
</a>
</g>
</g>
<!-- Node1&#45;&gt;Node2 -->
<g id="edge1" class="edge">
<title>Node1&#45;&gt;Node2</title>
<path fill="none" stroke="midnightblue" d="M387.71,-336.44C348.36,-327.08 285.19,-312.06 242.36,-301.87"/>
<polygon fill="midnightblue" stroke="midnightblue" points="243.01,-298.43 232.48,-299.52 241.39,-305.24 243.01,-298.43"/>
</g>
<!-- Node9 -->
<g id="node9" class="node">
<title>Node9</title>
<g id="a_node9"><a xlink:href="Map_8h.html" target="_top" xlink:title="Class for handling the game map.">
<polygon fill="white" stroke="black" points="400.18,-224.5 400.18,-243.5 447.18,-243.5 447.18,-224.5 400.18,-224.5"/>
<text text-anchor="middle" x="423.68" y="-231.5" font-family="Helvetica,sans-Serif" font-size="10.00">Map.h</text>
</a>
</g>
</g>
<!-- Node1&#45;&gt;Node9 -->
<g id="edge25" class="edge">
<title>Node1&#45;&gt;Node9</title>
<path fill="none" stroke="midnightblue" d="M423.68,-336.37C423.68,-318.62 423.68,-277.67 423.68,-253.6"/>
<polygon fill="midnightblue" stroke="midnightblue" points="427.18,-253.59 423.68,-243.59 420.18,-253.59 427.18,-253.59"/>
</g>
<!-- Node10 -->
<g id="node10" class="node">
<title>Node10</title>
<g id="a_node10"><a xlink:title=" ">
<polygon fill="white" stroke="#bfbfbf" points="491.68,-56.5 491.68,-75.5 535.68,-75.5 535.68,-56.5 491.68,-56.5"/>
<text text-anchor="middle" x="513.68" y="-63.5" font-family="Helvetica,sans-Serif" font-size="10.00">string</text>
</a>
</g>
</g>
<!-- Node1&#45;&gt;Node10 -->
<g id="edge26" class="edge">
<title>Node1&#45;&gt;Node10</title>
<path fill="none" stroke="midnightblue" d="M460.52,-337.73C509.42,-325.68 589.68,-296.54 589.68,-235 589.68,-235 589.68,-235 589.68,-177 589.68,-137.28 555.71,-101.5 533.19,-82.15"/>
<polygon fill="midnightblue" stroke="midnightblue" points="535.16,-79.24 525.22,-75.57 530.7,-84.63 535.16,-79.24"/>
</g>
<!-- Node3 -->
<g id="node3" class="node">
<title>Node3</title>
<g id="a_node3"><a xlink:href="GameObject_8h.html" target="_top" xlink:title="Base class for all game objects.">
<polygon fill="white" stroke="black" points="82.68,-224.5 82.68,-243.5 168.68,-243.5 168.68,-224.5 82.68,-224.5"/>
<text text-anchor="middle" x="125.68" y="-231.5" font-family="Helvetica,sans-Serif" font-size="10.00">GameObject.h</text>
</a>
</g>
</g>
<!-- Node2&#45;&gt;Node3 -->
<g id="edge2" class="edge">
<title>Node2&#45;&gt;Node3</title>
<path fill="none" stroke="midnightblue" d="M185.27,-280.32C174.57,-272.18 158.33,-259.84 145.51,-250.09"/>
<polygon fill="midnightblue" stroke="midnightblue" points="147.37,-247.1 137.29,-243.83 143.13,-252.67 147.37,-247.1"/>
</g>
<!-- Node4 -->
<g id="node4" class="node">
<title>Node4</title>
<g id="a_node4"><a xlink:href="Enums_8h.html" target="_top" xlink:title=" ">
<polygon fill="white" stroke="black" points="95.18,-56.5 95.18,-75.5 154.18,-75.5 154.18,-56.5 95.18,-56.5"/>
<text text-anchor="middle" x="124.68" y="-63.5" font-family="Helvetica,sans-Serif" font-size="10.00">Enums.h</text>
</a>
</g>
</g>
<!-- Node2&#45;&gt;Node4 -->
<g id="edge8" class="edge">
<title>Node2&#45;&gt;Node4</title>
<path fill="none" stroke="midnightblue" d="M149.81,-281.68C100.64,-271.02 27.29,-245.76 3.68,-188 -16.51,-138.64 51.11,-99 93.32,-79.73"/>
<polygon fill="midnightblue" stroke="midnightblue" points="94.94,-82.84 102.67,-75.6 92.11,-76.44 94.94,-82.84"/>
</g>
<!-- Node6 -->
<g id="node6" class="node">
<title>Node6</title>
<g id="a_node6"><a xlink:href="GamePhase_8h.html" target="_top" xlink:title="Handles the game phase and level.">
<polygon fill="white" stroke="black" points="12.68,-168.5 12.68,-187.5 96.68,-187.5 96.68,-168.5 12.68,-168.5"/>
<text text-anchor="middle" x="54.68" y="-175.5" font-family="Helvetica,sans-Serif" font-size="10.00">GamePhase.h</text>
</a>
</g>
</g>
<!-- Node2&#45;&gt;Node6 -->
<g id="edge24" class="edge">
<title>Node2&#45;&gt;Node6</title>
<path fill="none" stroke="midnightblue" d="M150.09,-282.44C124.31,-276.5 93.56,-265.25 73.68,-244 62.01,-231.54 57.47,-212.3 55.72,-197.99"/>
<polygon fill="midnightblue" stroke="midnightblue" points="59.18,-197.44 54.83,-187.78 52.21,-198.05 59.18,-197.44"/>
</g>
<!-- Node7 -->
<g id="node7" class="node">
<title>Node7</title>
<g id="a_node7"><a xlink:title=" ">
<polygon fill="white" stroke="#bfbfbf" points="152.68,-168.5 152.68,-187.5 210.68,-187.5 210.68,-168.5 152.68,-168.5"/>
<text text-anchor="middle" x="181.68" y="-175.5" font-family="Helvetica,sans-Serif" font-size="10.00">memory</text>
</a>
</g>
</g>
<!-- Node2&#45;&gt;Node7 -->
<g id="edge9" class="edge">
<title>Node2&#45;&gt;Node7</title>
<path fill="none" stroke="midnightblue" d="M195.5,-280.37C193.08,-262.62 187.49,-221.67 184.21,-197.6"/>
<polygon fill="midnightblue" stroke="midnightblue" points="187.67,-197.03 182.85,-187.59 180.73,-197.97 187.67,-197.03"/>
</g>
<!-- Node8 -->
<g id="node8" class="node">
<title>Node8</title>
<g id="a_node8"><a xlink:title=" ">
<polygon fill="white" stroke="#bfbfbf" points="152.68,-112.5 152.68,-131.5 208.68,-131.5 208.68,-112.5 152.68,-112.5"/>
<text text-anchor="middle" x="180.68" y="-119.5" font-family="Helvetica,sans-Serif" font-size="10.00">optional</text>
</a>
</g>
</g>
<!-- Node2&#45;&gt;Node8 -->
<g id="edge10" class="edge">
<title>Node2&#45;&gt;Node8</title>
<path fill="none" stroke="midnightblue" d="M201.48,-280.22C211.95,-259.9 234.7,-208.27 219.68,-168 215.5,-156.81 207.16,-146.56 199.25,-138.68"/>
<polygon fill="midnightblue" stroke="midnightblue" points="201.38,-135.87 191.67,-131.63 196.61,-141 201.38,-135.87"/>
</g>
<!-- Node2&#45;&gt;Node9 -->
<g id="edge11" class="edge">
<title>Node2&#45;&gt;Node9</title>
<path fill="none" stroke="midnightblue" d="M232.64,-280.44C275.95,-270.14 348.11,-252.97 390.25,-242.95"/>
<polygon fill="midnightblue" stroke="midnightblue" points="391.11,-246.34 400.03,-240.62 389.49,-239.53 391.11,-246.34"/>
</g>
<!-- Node3&#45;&gt;Node4 -->
<g id="edge3" class="edge">
<title>Node3&#45;&gt;Node4</title>
<path fill="none" stroke="midnightblue" d="M125.62,-224.08C125.46,-197.95 125,-121.21 124.79,-85.58"/>
<polygon fill="midnightblue" stroke="midnightblue" points="128.29,-85.55 124.73,-75.57 121.29,-85.59 128.29,-85.55"/>
</g>
<!-- Node3&#45;&gt;Node6 -->
<g id="edge5" class="edge">
<title>Node3&#45;&gt;Node6</title>
<path fill="none" stroke="midnightblue" d="M114.27,-224.32C103.57,-216.18 87.33,-203.84 74.51,-194.09"/>
<polygon fill="midnightblue" stroke="midnightblue" points="76.37,-191.1 66.29,-187.83 72.13,-196.67 76.37,-191.1"/>
</g>
<!-- Node3&#45;&gt;Node7 -->
<g id="edge7" class="edge">
<title>Node3&#45;&gt;Node7</title>
<path fill="none" stroke="midnightblue" d="M134.67,-224.32C142.87,-216.42 155.18,-204.55 165.15,-194.94"/>
<polygon fill="midnightblue" stroke="midnightblue" points="167.75,-197.29 172.51,-187.83 162.89,-192.26 167.75,-197.29"/>
</g>
<!-- Node5 -->
<g id="node5" class="node">
<title>Node5</title>
<g id="a_node5"><a xlink:title=" ">
<polygon fill="white" stroke="#bfbfbf" points="102.18,-0.5 102.18,-19.5 147.18,-19.5 147.18,-0.5 102.18,-0.5"/>
<text text-anchor="middle" x="124.68" y="-7.5" font-family="Helvetica,sans-Serif" font-size="10.00">utility</text>
</a>
</g>
</g>
<!-- Node4&#45;&gt;Node5 -->
<g id="edge4" class="edge">
<title>Node4&#45;&gt;Node5</title>
<path fill="none" stroke="midnightblue" d="M124.68,-56.08C124.68,-49.01 124.68,-38.86 124.68,-29.99"/>
<polygon fill="midnightblue" stroke="midnightblue" points="128.18,-29.75 124.68,-19.75 121.18,-29.75 128.18,-29.75"/>
</g>
<!-- Node6&#45;&gt;Node4 -->
<g id="edge6" class="edge">
<title>Node6&#45;&gt;Node4</title>
<path fill="none" stroke="midnightblue" d="M60.17,-168.37C71.67,-150.3 98.47,-108.18 113.66,-84.31"/>
<polygon fill="midnightblue" stroke="midnightblue" points="116.79,-85.91 119.21,-75.59 110.89,-82.15 116.79,-85.91"/>
</g>
<!-- Node9&#45;&gt;Node10 -->
<g id="edge12" class="edge">
<title>Node9&#45;&gt;Node10</title>
<path fill="none" stroke="midnightblue" d="M435.61,-224.22C446.14,-215.92 461.22,-202.61 470.68,-188 492,-155.05 504.33,-110.2 509.95,-85.4"/>
<polygon fill="midnightblue" stroke="midnightblue" points="513.39,-86.04 512.07,-75.53 506.55,-84.57 513.39,-86.04"/>
</g>
<!-- Node11 -->
<g id="node11" class="node">
<title>Node11</title>
<g id="a_node11"><a xlink:title=" ">
<polygon fill="white" stroke="#bfbfbf" points="311.18,-56.5 311.18,-75.5 358.18,-75.5 358.18,-56.5 311.18,-56.5"/>
<text text-anchor="middle" x="334.68" y="-63.5" font-family="Helvetica,sans-Serif" font-size="10.00">vector</text>
</a>
</g>
</g>
<!-- Node9&#45;&gt;Node11 -->
<g id="edge13" class="edge">
<title>Node9&#45;&gt;Node11</title>
<path fill="none" stroke="midnightblue" d="M430.58,-224.25C446.39,-203.1 481.95,-148.26 456.68,-112 436.9,-83.63 397.11,-73.1 368.33,-69.22"/>
<polygon fill="midnightblue" stroke="midnightblue" points="368.62,-65.73 358.29,-68.07 367.83,-72.68 368.62,-65.73"/>
</g>
<!-- Node12 -->
<g id="node12" class="node">
<title>Node12</title>
<g id="a_node12"><a xlink:href="Window_8h.html" target="_top" xlink:title="Class for handling ncurses windows.">
<polygon fill="white" stroke="black" points="302.68,-168.5 302.68,-187.5 366.68,-187.5 366.68,-168.5 302.68,-168.5"/>
<text text-anchor="middle" x="334.68" y="-175.5" font-family="Helvetica,sans-Serif" font-size="10.00">Window.h</text>
</a>
</g>
</g>
<!-- Node9&#45;&gt;Node12 -->
<g id="edge14" class="edge">
<title>Node9&#45;&gt;Node12</title>
<path fill="none" stroke="midnightblue" d="M409.38,-224.32C395.49,-215.9 374.18,-202.97 357.87,-193.07"/>
<polygon fill="midnightblue" stroke="midnightblue" points="359.3,-189.85 348.94,-187.65 355.67,-195.83 359.3,-189.85"/>
</g>
<!-- Node12&#45;&gt;Node4 -->
<g id="edge19" class="edge">
<title>Node12&#45;&gt;Node4</title>
<path fill="none" stroke="midnightblue" d="M319.68,-168.31C297.56,-155.58 254.8,-131.27 217.68,-112 195.99,-100.74 171.04,-88.72 152.45,-79.94"/>
<polygon fill="midnightblue" stroke="midnightblue" points="153.89,-76.75 143.36,-75.66 150.92,-83.08 153.89,-76.75"/>
</g>
<!-- Node12&#45;&gt;Node8 -->
<g id="edge17" class="edge">
<title>Node12&#45;&gt;Node8</title>
<path fill="none" stroke="midnightblue" d="M310.27,-168.44C284.48,-159.4 243.6,-145.06 214.66,-134.92"/>
<polygon fill="midnightblue" stroke="midnightblue" points="215.56,-131.52 204.96,-131.52 213.24,-138.13 215.56,-131.52"/>
</g>
<!-- Node12&#45;&gt;Node10 -->
<g id="edge16" class="edge">
<title>Node12&#45;&gt;Node10</title>
<path fill="none" stroke="midnightblue" d="M366.79,-169.83C392.67,-163.01 429.14,-150.92 456.68,-132 475.35,-119.17 491.81,-98.87 502.19,-84.37"/>
<polygon fill="midnightblue" stroke="midnightblue" points="505.29,-86.04 508.09,-75.82 499.53,-82.07 505.29,-86.04"/>
</g>
<!-- Node12&#45;&gt;Node11 -->
<g id="edge18" class="edge">
<title>Node12&#45;&gt;Node11</title>
<path fill="none" stroke="midnightblue" d="M323.41,-168.43C313.71,-160.27 300.4,-147.05 294.68,-132 287.75,-113.78 301.99,-95.03 315.37,-82.38"/>
<polygon fill="midnightblue" stroke="midnightblue" points="317.78,-84.92 322.97,-75.69 313.15,-79.67 317.78,-84.92"/>
</g>
<!-- Node13 -->
<g id="node13" class="node">
<title>Node13</title>
<g id="a_node13"><a xlink:title=" ">
<polygon fill="white" stroke="#bfbfbf" points="384.18,-112.5 384.18,-131.5 447.18,-131.5 447.18,-112.5 384.18,-112.5"/>
<text text-anchor="middle" x="415.68" y="-119.5" font-family="Helvetica,sans-Serif" font-size="10.00">ncurses.h</text>
</a>
</g>
</g>
<!-- Node12&#45;&gt;Node13 -->
<g id="edge15" class="edge">
<title>Node12&#45;&gt;Node13</title>
<path fill="none" stroke="midnightblue" d="M347.69,-168.32C360.21,-159.98 379.36,-147.21 394.15,-137.35"/>
<polygon fill="midnightblue" stroke="midnightblue" points="396.31,-140.11 402.69,-131.65 392.43,-134.29 396.31,-140.11"/>
</g>
<!-- Node14 -->
<g id="node14" class="node">
<title>Node14</title>
<g id="a_node14"><a xlink:href="Helpers_8h.html" target="_top" xlink:title=" ">
<polygon fill="white" stroke="black" points="303.18,-112.5 303.18,-131.5 366.18,-131.5 366.18,-112.5 303.18,-112.5"/>
<text text-anchor="middle" x="334.68" y="-119.5" font-family="Helvetica,sans-Serif" font-size="10.00">Helpers.h</text>
</a>
</g>
</g>
<!-- Node12&#45;&gt;Node14 -->
<g id="edge20" class="edge">
<title>Node12&#45;&gt;Node14</title>
<path fill="none" stroke="midnightblue" d="M334.68,-168.08C334.68,-161.01 334.68,-150.86 334.68,-141.99"/>
<polygon fill="midnightblue" stroke="midnightblue" points="338.18,-141.75 334.68,-131.75 331.18,-141.75 338.18,-141.75"/>
</g>
<!-- Node14&#45;&gt;Node4 -->
<g id="edge21" class="edge">
<title>Node14&#45;&gt;Node4</title>
<path fill="none" stroke="midnightblue" d="M302.78,-112.8C265.65,-103.25 204.32,-87.48 164.2,-77.16"/>
<polygon fill="midnightblue" stroke="midnightblue" points="165.04,-73.77 154.49,-74.67 163.3,-80.55 165.04,-73.77"/>
</g>
<!-- Node14&#45;&gt;Node10 -->
<g id="edge22" class="edge">
<title>Node14&#45;&gt;Node10</title>
<path fill="none" stroke="midnightblue" d="M363.04,-112.44C395.38,-102.69 448.12,-86.78 481.84,-76.6"/>
<polygon fill="midnightblue" stroke="midnightblue" points="483.09,-79.88 491.65,-73.64 481.07,-73.18 483.09,-79.88"/>
</g>
<!-- Node14&#45;&gt;Node11 -->
<g id="edge23" class="edge">
<title>Node14&#45;&gt;Node11</title>
<path fill="none" stroke="midnightblue" d="M334.68,-112.08C334.68,-105.01 334.68,-94.86 334.68,-85.99"/>
<polygon fill="midnightblue" stroke="midnightblue" points="338.18,-85.75 334.68,-75.75 331.18,-85.75 338.18,-85.75"/>
</g>
</g>
</svg>
