<?xml version="1.0" encoding="UTF-8" standalone="no"?>
<!DOCTYPE svg PUBLIC "-//W3C//DTD SVG 1.1//EN"
 "http://www.w3.org/Graphics/SVG/1.1/DTD/svg11.dtd">
<!-- Generated by graphviz version 2.43.0 (0)
 -->
<!-- Title: ChaseBehavior::handleBehavior Pages: 1 -->
<svg width="369pt" height="104pt"
 viewBox="0.00 0.00 369.00 104.00" xmlns="http://www.w3.org/2000/svg" xmlns:xlink="http://www.w3.org/1999/xlink">
<g id="graph0" class="graph" transform="scale(1 1) rotate(0) translate(4 100)">
<title>ChaseBehavior::handleBehavior</title>
<polygon fill="white" stroke="transparent" points="-4,4 -4,-100 365,-100 365,4 -4,4"/>
<!-- Node1 -->
<g id="node1" class="node">
<title>Node1</title>
<g id="a_node1"><a xlink:title="Handles the behavior of the enemy when changing the game phase.">
<polygon fill="#bfbfbf" stroke="black" points="0,-38.5 0,-57.5 173,-57.5 173,-38.5 0,-38.5"/>
<text text-anchor="middle" x="86.5" y="-45.5" font-family="Helvetica,sans-Serif" font-size="10.00">ChaseBehavior::handleBehavior</text>
</a>
</g>
</g>
<!-- Node2 -->
<g id="node2" class="node">
<title>Node2</title>
<g id="a_node2"><a xlink:href="classGameObject.html#a1e86160db20ef4c6ccadf5cfd05763bc" target="_top" xlink:title="Resets the object color to default.">
<polygon fill="white" stroke="black" points="218,-76.5 218,-95.5 352,-95.5 352,-76.5 218,-76.5"/>
<text text-anchor="middle" x="285" y="-83.5" font-family="Helvetica,sans-Serif" font-size="10.00">GameObject::resetColor</text>
</a>
</g>
</g>
<!-- Node1&#45;&gt;Node2 -->
<g id="edge1" class="edge">
<title>Node1&#45;&gt;Node2</title>
<path fill="none" stroke="midnightblue" d="M136.83,-57.54C163.46,-62.69 196.53,-69.08 224.57,-74.51"/>
<polygon fill="midnightblue" stroke="midnightblue" points="224.17,-77.99 234.65,-76.46 225.49,-71.12 224.17,-77.99"/>
</g>
<!-- Node3 -->
<g id="node3" class="node">
<title>Node3</title>
<g id="a_node3"><a xlink:href="classMovingObject.html#a6866cb38b81682fc594939196117e2e3" target="_top" xlink:title="Sets the invincibility of the object.">
<polygon fill="white" stroke="black" points="209,-38.5 209,-57.5 361,-57.5 361,-38.5 209,-38.5"/>
<text text-anchor="middle" x="285" y="-45.5" font-family="Helvetica,sans-Serif" font-size="10.00">MovingObject::setInvincible</text>
</a>
</g>
</g>
<!-- Node1&#45;&gt;Node3 -->
<g id="edge2" class="edge">
<title>Node1&#45;&gt;Node3</title>
<path fill="none" stroke="midnightblue" d="M173.12,-48C181.57,-48 190.15,-48 198.61,-48"/>
<polygon fill="midnightblue" stroke="midnightblue" points="198.84,-51.5 208.84,-48 198.84,-44.5 198.84,-51.5"/>
</g>
<!-- Node4 -->
<g id="node4" class="node">
<title>Node4</title>
<g id="a_node4"><a xlink:href="classMovingObject.html#a0fa9f24bfcb0d40d1af3ee26dedfa47d" target="_top" xlink:title="Sets the speed of the object.">
<polygon fill="white" stroke="black" points="217.5,-0.5 217.5,-19.5 352.5,-19.5 352.5,-0.5 217.5,-0.5"/>
<text text-anchor="middle" x="285" y="-7.5" font-family="Helvetica,sans-Serif" font-size="10.00">MovingObject::setSpeed</text>
</a>
</g>
</g>
<!-- Node1&#45;&gt;Node4 -->
<g id="edge3" class="edge">
<title>Node1&#45;&gt;Node4</title>
<path fill="none" stroke="midnightblue" d="M136.83,-38.46C163.46,-33.31 196.53,-26.92 224.57,-21.49"/>
<polygon fill="midnightblue" stroke="midnightblue" points="225.49,-24.88 234.65,-19.54 224.17,-18.01 225.49,-24.88"/>
</g>
</g>
</svg>
