<?xml version="1.0" encoding="UTF-8" standalone="no"?>
<!DOCTYPE svg PUBLIC "-//W3C//DTD SVG 1.1//EN"
 "http://www.w3.org/Graphics/SVG/1.1/DTD/svg11.dtd">
<!-- Generated by graphviz version 2.43.0 (0)
 -->
<!-- Title: FrightenedBehavior::handleBehavior Pages: 1 -->
<svg width="308pt" height="104pt"
 viewBox="0.00 0.00 308.00 104.00" xmlns="http://www.w3.org/2000/svg" xmlns:xlink="http://www.w3.org/1999/xlink">
<g id="graph0" class="graph" transform="scale(1 1) rotate(0) translate(4 100)">
<title>FrightenedBehavior::handleBehavior</title>
<polygon fill="white" stroke="transparent" points="-4,4 -4,-100 304,-100 304,4 -4,4"/>
<!-- Node1 -->
<g id="node1" class="node">
<title>Node1</title>
<g id="a_node1"><a xlink:title="Handles the behavior of the enemy when changing the game phase.">
<polygon fill="#bfbfbf" stroke="black" points="0,-33 0,-63 112,-63 112,-33 0,-33"/>
<text text-anchor="start" x="8" y="-51" font-family="Helvetica,sans-Serif" font-size="10.00">FrightenedBehavior</text>
<text text-anchor="middle" x="56" y="-40" font-family="Helvetica,sans-Serif" font-size="10.00">::handleBehavior</text>
</a>
</g>
</g>
<!-- Node2 -->
<g id="node2" class="node">
<title>Node2</title>
<g id="a_node2"><a xlink:href="classGameObject.html#a5c863188a52395ff7a0d2a508c06c2fa" target="_top" xlink:title="Sets the object color.">
<polygon fill="white" stroke="black" points="162,-76.5 162,-95.5 286,-95.5 286,-76.5 162,-76.5"/>
<text text-anchor="middle" x="224" y="-83.5" font-family="Helvetica,sans-Serif" font-size="10.00">GameObject::setColor</text>
</a>
</g>
</g>
<!-- Node1&#45;&gt;Node2 -->
<g id="edge1" class="edge">
<title>Node1&#45;&gt;Node2</title>
<path fill="none" stroke="midnightblue" d="M112.28,-60.65C131.38,-65.03 152.7,-69.91 171.5,-74.21"/>
<polygon fill="midnightblue" stroke="midnightblue" points="170.83,-77.65 181.36,-76.47 172.39,-70.82 170.83,-77.65"/>
</g>
<!-- Node3 -->
<g id="node3" class="node">
<title>Node3</title>
<g id="a_node3"><a xlink:href="classMovingObject.html#a6866cb38b81682fc594939196117e2e3" target="_top" xlink:title="Sets the invincibility of the object.">
<polygon fill="white" stroke="black" points="148,-38.5 148,-57.5 300,-57.5 300,-38.5 148,-38.5"/>
<text text-anchor="middle" x="224" y="-45.5" font-family="Helvetica,sans-Serif" font-size="10.00">MovingObject::setInvincible</text>
</a>
</g>
</g>
<!-- Node1&#45;&gt;Node3 -->
<g id="edge2" class="edge">
<title>Node1&#45;&gt;Node3</title>
<path fill="none" stroke="midnightblue" d="M112.28,-48C120.48,-48 129.09,-48 137.73,-48"/>
<polygon fill="midnightblue" stroke="midnightblue" points="137.87,-51.5 147.87,-48 137.87,-44.5 137.87,-51.5"/>
</g>
<!-- Node4 -->
<g id="node4" class="node">
<title>Node4</title>
<g id="a_node4"><a xlink:href="classMovingObject.html#a0fa9f24bfcb0d40d1af3ee26dedfa47d" target="_top" xlink:title="Sets the speed of the object.">
<polygon fill="white" stroke="black" points="156.5,-0.5 156.5,-19.5 291.5,-19.5 291.5,-0.5 156.5,-0.5"/>
<text text-anchor="middle" x="224" y="-7.5" font-family="Helvetica,sans-Serif" font-size="10.00">MovingObject::setSpeed</text>
</a>
</g>
</g>
<!-- Node1&#45;&gt;Node4 -->
<g id="edge3" class="edge">
<title>Node1&#45;&gt;Node4</title>
<path fill="none" stroke="midnightblue" d="M112.28,-35.35C131.38,-30.97 152.7,-26.09 171.5,-21.79"/>
<polygon fill="midnightblue" stroke="midnightblue" points="172.39,-25.18 181.36,-19.53 170.83,-18.35 172.39,-25.18"/>
</g>
</g>
</svg>
