<?xml version="1.0" encoding="UTF-8" standalone="no"?>
<!DOCTYPE svg PUBLIC "-//W3C//DTD SVG 1.1//EN"
 "http://www.w3.org/Graphics/SVG/1.1/DTD/svg11.dtd">
<!-- Generated by graphviz version 2.43.0 (0)
 -->
<!-- Title: ChaseBehavior::move Pages: 1 -->
<svg width="340pt" height="142pt"
 viewBox="0.00 0.00 340.00 142.00" xmlns="http://www.w3.org/2000/svg" xmlns:xlink="http://www.w3.org/1999/xlink">
<g id="graph0" class="graph" transform="scale(1 1) rotate(0) translate(4 138)">
<title>ChaseBehavior::move</title>
<polygon fill="white" stroke="transparent" points="-4,4 -4,-138 336,-138 336,4 -4,4"/>
<!-- Node1 -->
<g id="node1" class="node">
<title>Node1</title>
<g id="a_node1"><a xlink:title="Gets the ideal direction to move the enemy.">
<polygon fill="#bfbfbf" stroke="black" points="0,-57.5 0,-76.5 124,-76.5 124,-57.5 0,-57.5"/>
<text text-anchor="middle" x="62" y="-64.5" font-family="Helvetica,sans-Serif" font-size="10.00">ChaseBehavior::move</text>
</a>
</g>
</g>
<!-- Node2 -->
<g id="node2" class="node">
<title>Node2</title>
<g id="a_node2"><a xlink:href="classMovingObject.html#aa5908d2d3540224c20f0a2b0d468b38d" target="_top" xlink:title="Returns the previous direction of the object.">
<polygon fill="white" stroke="black" points="160,-114.5 160,-133.5 332,-133.5 332,-114.5 160,-114.5"/>
<text text-anchor="middle" x="246" y="-121.5" font-family="Helvetica,sans-Serif" font-size="10.00">MovingObject::getPrevDirection</text>
</a>
</g>
</g>
<!-- Node1&#45;&gt;Node2 -->
<g id="edge1" class="edge">
<title>Node1&#45;&gt;Node2</title>
<path fill="none" stroke="midnightblue" d="M84.62,-76.58C104.06,-84.92 133.54,-96.91 160,-105 168.41,-107.57 177.38,-109.95 186.22,-112.1"/>
<polygon fill="midnightblue" stroke="midnightblue" points="185.58,-115.54 196.12,-114.42 187.18,-108.73 185.58,-115.54"/>
</g>
<!-- Node3 -->
<g id="node3" class="node">
<title>Node3</title>
<g id="a_node3"><a xlink:href="classGameObject.html#a642a2dddae915a8155ee76d8ac7770f7" target="_top" xlink:title="Gets the x coordinate.">
<polygon fill="white" stroke="black" points="193,-76.5 193,-95.5 299,-95.5 299,-76.5 193,-76.5"/>
<text text-anchor="middle" x="246" y="-83.5" font-family="Helvetica,sans-Serif" font-size="10.00">GameObject::getX</text>
</a>
</g>
</g>
<!-- Node1&#45;&gt;Node3 -->
<g id="edge2" class="edge">
<title>Node1&#45;&gt;Node3</title>
<path fill="none" stroke="midnightblue" d="M124.11,-73.38C143.02,-75.35 163.86,-77.53 182.84,-79.51"/>
<polygon fill="midnightblue" stroke="midnightblue" points="182.56,-83 192.87,-80.56 183.29,-76.04 182.56,-83"/>
</g>
<!-- Node4 -->
<g id="node4" class="node">
<title>Node4</title>
<g id="a_node4"><a xlink:href="classGameObject.html#a87383d4bc7d63107d8d3507249c8a4ec" target="_top" xlink:title="Gets the y coordinate.">
<polygon fill="white" stroke="black" points="193.5,-38.5 193.5,-57.5 298.5,-57.5 298.5,-38.5 193.5,-38.5"/>
<text text-anchor="middle" x="246" y="-45.5" font-family="Helvetica,sans-Serif" font-size="10.00">GameObject::getY</text>
</a>
</g>
</g>
<!-- Node1&#45;&gt;Node4 -->
<g id="edge3" class="edge">
<title>Node1&#45;&gt;Node4</title>
<path fill="none" stroke="midnightblue" d="M124.11,-60.62C143.19,-58.63 164.25,-56.43 183.37,-54.43"/>
<polygon fill="midnightblue" stroke="midnightblue" points="183.88,-57.9 193.46,-53.38 183.15,-50.94 183.88,-57.9"/>
</g>
<!-- Node5 -->
<g id="node5" class="node">
<title>Node5</title>
<g id="a_node5"><a xlink:href="classMap.html#a9daf0b81095fe118f2e52fd783ea1bf8" target="_top" xlink:title="Checks if there is a wall at the given coordinates.">
<polygon fill="white" stroke="black" points="204.5,-0.5 204.5,-19.5 287.5,-19.5 287.5,-0.5 204.5,-0.5"/>
<text text-anchor="middle" x="246" y="-7.5" font-family="Helvetica,sans-Serif" font-size="10.00">Map::isWallAt</text>
</a>
</g>
</g>
<!-- Node1&#45;&gt;Node5 -->
<g id="edge4" class="edge">
<title>Node1&#45;&gt;Node5</title>
<path fill="none" stroke="midnightblue" d="M84.62,-57.42C104.06,-49.08 133.54,-37.09 160,-29 171.07,-25.62 183.13,-22.56 194.58,-19.93"/>
<polygon fill="midnightblue" stroke="midnightblue" points="195.45,-23.32 204.46,-17.74 193.94,-16.49 195.45,-23.32"/>
</g>
</g>
</svg>
