<?xml version="1.0" encoding="UTF-8" standalone="no"?>
<!DOCTYPE svg PUBLIC "-//W3C//DTD SVG 1.1//EN"
 "http://www.w3.org/Graphics/SVG/1.1/DTD/svg11.dtd">
<!-- Generated by graphviz version 2.43.0 (0)
 -->
<!-- Title: src/Teleport.h Pages: 1 -->
<svg width="767pt" height="476pt"
 viewBox="0.00 0.00 767.00 476.00" xmlns="http://www.w3.org/2000/svg" xmlns:xlink="http://www.w3.org/1999/xlink">
<g id="graph0" class="graph" transform="scale(1 1) rotate(0) translate(4 472)">
<title>src/Teleport.h</title>
<polygon fill="white" stroke="transparent" points="-4,4 -4,-472 763,-472 763,4 -4,4"/>
<!-- Node1 -->
<g id="node1" class="node">
<title>Node1</title>
<g id="a_node1"><a xlink:title="Represents a teleport object.">
<polygon fill="#bfbfbf" stroke="black" points="142,-448.5 142,-467.5 224,-467.5 224,-448.5 142,-448.5"/>
<text text-anchor="middle" x="183" y="-455.5" font-family="Helvetica,sans-Serif" font-size="10.00">src/Teleport.h</text>
</a>
</g>
</g>
<!-- Node2 -->
<g id="node2" class="node">
<title>Node2</title>
<g id="a_node2"><a xlink:href="InteractiveObject_8h.html" target="_top" xlink:title="Base class for all interactive objects.">
<polygon fill="white" stroke="black" points="128,-392.5 128,-411.5 238,-411.5 238,-392.5 128,-392.5"/>
<text text-anchor="middle" x="183" y="-399.5" font-family="Helvetica,sans-Serif" font-size="10.00">InteractiveObject.h</text>
</a>
</g>
</g>
<!-- Node1&#45;&gt;Node2 -->
<g id="edge1" class="edge">
<title>Node1&#45;&gt;Node2</title>
<path fill="none" stroke="midnightblue" d="M183,-448.08C183,-441.01 183,-430.86 183,-421.99"/>
<polygon fill="midnightblue" stroke="midnightblue" points="186.5,-421.75 183,-411.75 179.5,-421.75 186.5,-421.75"/>
</g>
<!-- Node3 -->
<g id="node3" class="node">
<title>Node3</title>
<g id="a_node3"><a xlink:href="GameObject_8h.html" target="_top" xlink:title="Base class for all game objects.">
<polygon fill="white" stroke="black" points="104,-224.5 104,-243.5 190,-243.5 190,-224.5 104,-224.5"/>
<text text-anchor="middle" x="147" y="-231.5" font-family="Helvetica,sans-Serif" font-size="10.00">GameObject.h</text>
</a>
</g>
</g>
<!-- Node2&#45;&gt;Node3 -->
<g id="edge2" class="edge">
<title>Node2&#45;&gt;Node3</title>
<path fill="none" stroke="midnightblue" d="M181.06,-392.08C175.4,-365.95 158.76,-289.21 151.03,-253.58"/>
<polygon fill="midnightblue" stroke="midnightblue" points="154.4,-252.6 148.86,-243.57 147.56,-254.08 154.4,-252.6"/>
</g>
<!-- Node4 -->
<g id="node4" class="node">
<title>Node4</title>
<g id="a_node4"><a xlink:href="Enums_8h.html" target="_top" xlink:title=" ">
<polygon fill="white" stroke="black" points="237.5,-56.5 237.5,-75.5 296.5,-75.5 296.5,-56.5 237.5,-56.5"/>
<text text-anchor="middle" x="267" y="-63.5" font-family="Helvetica,sans-Serif" font-size="10.00">Enums.h</text>
</a>
</g>
</g>
<!-- Node2&#45;&gt;Node4 -->
<g id="edge8" class="edge">
<title>Node2&#45;&gt;Node4</title>
<path fill="none" stroke="midnightblue" d="M130.56,-392.48C76.48,-380.35 0,-352.35 0,-291 0,-291 0,-291 0,-177 0,-80 152.52,-66.79 227.01,-66.12"/>
<polygon fill="midnightblue" stroke="midnightblue" points="227.41,-69.62 237.41,-66.11 227.4,-62.62 227.41,-69.62"/>
</g>
<!-- Node6 -->
<g id="node6" class="node">
<title>Node6</title>
<g id="a_node6"><a xlink:href="GamePhase_8h.html" target="_top" xlink:title="Handles the game phase and level.">
<polygon fill="white" stroke="black" points="179,-168.5 179,-187.5 263,-187.5 263,-168.5 179,-168.5"/>
<text text-anchor="middle" x="221" y="-175.5" font-family="Helvetica,sans-Serif" font-size="10.00">GamePhase.h</text>
</a>
</g>
</g>
<!-- Node2&#45;&gt;Node6 -->
<g id="edge33" class="edge">
<title>Node2&#45;&gt;Node6</title>
<path fill="none" stroke="midnightblue" d="M184.49,-392.3C190.08,-359.63 209.9,-243.87 217.76,-197.96"/>
<polygon fill="midnightblue" stroke="midnightblue" points="221.24,-198.33 219.48,-187.88 214.34,-197.15 221.24,-198.33"/>
</g>
<!-- Node7 -->
<g id="node7" class="node">
<title>Node7</title>
<g id="a_node7"><a xlink:title=" ">
<polygon fill="white" stroke="#bfbfbf" points="47,-168.5 47,-187.5 105,-187.5 105,-168.5 47,-168.5"/>
<text text-anchor="middle" x="76" y="-175.5" font-family="Helvetica,sans-Serif" font-size="10.00">memory</text>
</a>
</g>
</g>
<!-- Node2&#45;&gt;Node7 -->
<g id="edge9" class="edge">
<title>Node2&#45;&gt;Node7</title>
<path fill="none" stroke="midnightblue" d="M174.74,-392.38C153.98,-370.06 99.8,-307.71 79,-244 74.12,-229.05 73.66,-211.14 74.26,-197.9"/>
<polygon fill="midnightblue" stroke="midnightblue" points="77.77,-197.89 74.97,-187.67 70.78,-197.41 77.77,-197.89"/>
</g>
<!-- Node8 -->
<g id="node8" class="node">
<title>Node8</title>
<g id="a_node8"><a xlink:href="MovingObject_8h.html" target="_top" xlink:title="Base class for all moving objects.">
<polygon fill="white" stroke="black" points="247.5,-280.5 247.5,-299.5 340.5,-299.5 340.5,-280.5 247.5,-280.5"/>
<text text-anchor="middle" x="294" y="-287.5" font-family="Helvetica,sans-Serif" font-size="10.00">MovingObject.h</text>
</a>
</g>
</g>
<!-- Node2&#45;&gt;Node8 -->
<g id="edge10" class="edge">
<title>Node2&#45;&gt;Node8</title>
<path fill="none" stroke="midnightblue" d="M192.94,-392.22C202.97,-383.29 218.81,-368.94 232,-356 248.59,-339.72 266.88,-320.36 279.27,-307.03"/>
<polygon fill="midnightblue" stroke="midnightblue" points="281.93,-309.3 286.15,-299.59 276.79,-304.55 281.93,-309.3"/>
</g>
<!-- Node16 -->
<g id="node16" class="node">
<title>Node16</title>
<g id="a_node16"><a xlink:href="Player_8h.html" target="_top" xlink:title="Represents a player.">
<polygon fill="white" stroke="black" points="329,-336.5 329,-355.5 385,-355.5 385,-336.5 329,-336.5"/>
<text text-anchor="middle" x="357" y="-343.5" font-family="Helvetica,sans-Serif" font-size="10.00">Player.h</text>
</a>
</g>
</g>
<!-- Node2&#45;&gt;Node16 -->
<g id="edge29" class="edge">
<title>Node2&#45;&gt;Node16</title>
<path fill="none" stroke="midnightblue" d="M210.57,-392.44C240.1,-383.28 287.12,-368.69 319.88,-358.52"/>
<polygon fill="midnightblue" stroke="midnightblue" points="321.04,-361.82 329.56,-355.52 318.97,-355.14 321.04,-361.82"/>
</g>
<!-- Node3&#45;&gt;Node4 -->
<g id="edge3" class="edge">
<title>Node3&#45;&gt;Node4</title>
<path fill="none" stroke="midnightblue" d="M148.79,-224.49C151.76,-211.57 158.56,-186.54 170,-168 191.52,-133.11 226.77,-100.36 248.33,-82.07"/>
<polygon fill="midnightblue" stroke="midnightblue" points="250.68,-84.67 256.13,-75.58 246.2,-79.29 250.68,-84.67"/>
</g>
<!-- Node3&#45;&gt;Node6 -->
<g id="edge5" class="edge">
<title>Node3&#45;&gt;Node6</title>
<path fill="none" stroke="midnightblue" d="M158.89,-224.32C170.15,-216.11 187.29,-203.6 200.71,-193.81"/>
<polygon fill="midnightblue" stroke="midnightblue" points="202.88,-196.56 208.89,-187.83 198.75,-190.9 202.88,-196.56"/>
</g>
<!-- Node3&#45;&gt;Node7 -->
<g id="edge7" class="edge">
<title>Node3&#45;&gt;Node7</title>
<path fill="none" stroke="midnightblue" d="M135.59,-224.32C124.89,-216.18 108.66,-203.84 95.84,-194.09"/>
<polygon fill="midnightblue" stroke="midnightblue" points="97.69,-191.1 87.61,-187.83 93.46,-196.67 97.69,-191.1"/>
</g>
<!-- Node5 -->
<g id="node5" class="node">
<title>Node5</title>
<g id="a_node5"><a xlink:title=" ">
<polygon fill="white" stroke="#bfbfbf" points="244.5,-0.5 244.5,-19.5 289.5,-19.5 289.5,-0.5 244.5,-0.5"/>
<text text-anchor="middle" x="267" y="-7.5" font-family="Helvetica,sans-Serif" font-size="10.00">utility</text>
</a>
</g>
</g>
<!-- Node4&#45;&gt;Node5 -->
<g id="edge4" class="edge">
<title>Node4&#45;&gt;Node5</title>
<path fill="none" stroke="midnightblue" d="M267,-56.08C267,-49.01 267,-38.86 267,-29.99"/>
<polygon fill="midnightblue" stroke="midnightblue" points="270.5,-29.75 267,-19.75 263.5,-29.75 270.5,-29.75"/>
</g>
<!-- Node6&#45;&gt;Node4 -->
<g id="edge6" class="edge">
<title>Node6&#45;&gt;Node4</title>
<path fill="none" stroke="midnightblue" d="M224.61,-168.37C232.1,-150.46 249.47,-108.92 259.49,-84.95"/>
<polygon fill="midnightblue" stroke="midnightblue" points="262.78,-86.17 263.41,-75.59 256.32,-83.47 262.78,-86.17"/>
</g>
<!-- Node8&#45;&gt;Node3 -->
<g id="edge11" class="edge">
<title>Node8&#45;&gt;Node3</title>
<path fill="none" stroke="midnightblue" d="M270.71,-280.44C246.19,-271.44 207.4,-257.19 179.8,-247.05"/>
<polygon fill="midnightblue" stroke="midnightblue" points="180.78,-243.68 170.18,-243.52 178.36,-250.25 180.78,-243.68"/>
</g>
<!-- Node8&#45;&gt;Node4 -->
<g id="edge12" class="edge">
<title>Node8&#45;&gt;Node4</title>
<path fill="none" stroke="midnightblue" d="M292.94,-280.3C288.97,-247.63 274.89,-131.87 269.31,-85.96"/>
<polygon fill="midnightblue" stroke="midnightblue" points="272.76,-85.39 268.08,-75.88 265.81,-86.23 272.76,-85.39"/>
</g>
<!-- Node8&#45;&gt;Node6 -->
<g id="edge28" class="edge">
<title>Node8&#45;&gt;Node6</title>
<path fill="none" stroke="midnightblue" d="M288.27,-280.37C276.22,-262.22 248.08,-219.8 232.28,-195.99"/>
<polygon fill="midnightblue" stroke="midnightblue" points="235.15,-193.99 226.7,-187.59 229.31,-197.86 235.15,-193.99"/>
</g>
<!-- Node8&#45;&gt;Node7 -->
<g id="edge13" class="edge">
<title>Node8&#45;&gt;Node7</title>
<path fill="none" stroke="midnightblue" d="M247.31,-283.93C195.61,-277.39 116.68,-264.38 95,-244 82.43,-232.18 78.02,-212.55 76.56,-197.95"/>
<polygon fill="midnightblue" stroke="midnightblue" points="80.03,-197.33 75.91,-187.56 73.04,-197.76 80.03,-197.33"/>
</g>
<!-- Node9 -->
<g id="node9" class="node">
<title>Node9</title>
<g id="a_node9"><a xlink:title=" ">
<polygon fill="white" stroke="#bfbfbf" points="360,-112.5 360,-131.5 416,-131.5 416,-112.5 360,-112.5"/>
<text text-anchor="middle" x="388" y="-119.5" font-family="Helvetica,sans-Serif" font-size="10.00">optional</text>
</a>
</g>
</g>
<!-- Node8&#45;&gt;Node9 -->
<g id="edge14" class="edge">
<title>Node8&#45;&gt;Node9</title>
<path fill="none" stroke="midnightblue" d="M299.05,-280.08C313.98,-253.72 358.06,-175.88 378,-140.66"/>
<polygon fill="midnightblue" stroke="midnightblue" points="381.27,-141.99 383.15,-131.57 375.18,-138.55 381.27,-141.99"/>
</g>
<!-- Node10 -->
<g id="node10" class="node">
<title>Node10</title>
<g id="a_node10"><a xlink:href="Map_8h.html" target="_top" xlink:title="Class for handling the game map.">
<polygon fill="white" stroke="black" points="360.5,-224.5 360.5,-243.5 407.5,-243.5 407.5,-224.5 360.5,-224.5"/>
<text text-anchor="middle" x="384" y="-231.5" font-family="Helvetica,sans-Serif" font-size="10.00">Map.h</text>
</a>
</g>
</g>
<!-- Node8&#45;&gt;Node10 -->
<g id="edge15" class="edge">
<title>Node8&#45;&gt;Node10</title>
<path fill="none" stroke="midnightblue" d="M308.46,-280.32C322.5,-271.9 344.05,-258.97 360.54,-249.07"/>
<polygon fill="midnightblue" stroke="midnightblue" points="362.8,-251.8 369.58,-243.65 359.2,-245.8 362.8,-251.8"/>
</g>
<!-- Node11 -->
<g id="node11" class="node">
<title>Node11</title>
<g id="a_node11"><a xlink:title=" ">
<polygon fill="white" stroke="#bfbfbf" points="680,-56.5 680,-75.5 724,-75.5 724,-56.5 680,-56.5"/>
<text text-anchor="middle" x="702" y="-63.5" font-family="Helvetica,sans-Serif" font-size="10.00">string</text>
</a>
</g>
</g>
<!-- Node10&#45;&gt;Node11 -->
<g id="edge16" class="edge">
<title>Node10&#45;&gt;Node11</title>
<path fill="none" stroke="midnightblue" d="M407.78,-230.86C460.98,-224.88 590.92,-203.39 667,-132 680.7,-119.14 690.19,-99.69 695.8,-85.41"/>
<polygon fill="midnightblue" stroke="midnightblue" points="699.2,-86.3 699.33,-75.7 692.62,-83.9 699.2,-86.3"/>
</g>
<!-- Node12 -->
<g id="node12" class="node">
<title>Node12</title>
<g id="a_node12"><a xlink:title=" ">
<polygon fill="white" stroke="#bfbfbf" points="561.5,-56.5 561.5,-75.5 608.5,-75.5 608.5,-56.5 561.5,-56.5"/>
<text text-anchor="middle" x="585" y="-63.5" font-family="Helvetica,sans-Serif" font-size="10.00">vector</text>
</a>
</g>
</g>
<!-- Node10&#45;&gt;Node12 -->
<g id="edge17" class="edge">
<title>Node10&#45;&gt;Node12</title>
<path fill="none" stroke="midnightblue" d="M376.97,-224.29C360.46,-202.75 322.71,-146.25 351,-112 375.99,-81.75 492.43,-71.62 551.07,-68.4"/>
<polygon fill="midnightblue" stroke="midnightblue" points="551.5,-71.89 561.31,-67.88 551.14,-64.9 551.5,-71.89"/>
</g>
<!-- Node13 -->
<g id="node13" class="node">
<title>Node13</title>
<g id="a_node13"><a xlink:href="Window_8h.html" target="_top" xlink:title="Class for handling ncurses windows.">
<polygon fill="white" stroke="black" points="472,-168.5 472,-187.5 536,-187.5 536,-168.5 472,-168.5"/>
<text text-anchor="middle" x="504" y="-175.5" font-family="Helvetica,sans-Serif" font-size="10.00">Window.h</text>
</a>
</g>
</g>
<!-- Node10&#45;&gt;Node13 -->
<g id="edge18" class="edge">
<title>Node10&#45;&gt;Node13</title>
<path fill="none" stroke="midnightblue" d="M403.01,-224.44C422.59,-215.64 453.31,-201.81 475.73,-191.72"/>
<polygon fill="midnightblue" stroke="midnightblue" points="477.39,-194.81 485.07,-187.52 474.52,-188.43 477.39,-194.81"/>
</g>
<!-- Node13&#45;&gt;Node4 -->
<g id="edge23" class="edge">
<title>Node13&#45;&gt;Node4</title>
<path fill="none" stroke="midnightblue" d="M495.64,-168.07C482.09,-154.12 453.94,-127.18 425,-112 387.28,-92.22 339.8,-80.2 306.78,-73.62"/>
<polygon fill="midnightblue" stroke="midnightblue" points="307.08,-70.12 296.6,-71.68 305.77,-76.99 307.08,-70.12"/>
</g>
<!-- Node13&#45;&gt;Node9 -->
<g id="edge21" class="edge">
<title>Node13&#45;&gt;Node9</title>
<path fill="none" stroke="midnightblue" d="M485.62,-168.44C466.78,-159.68 437.27,-145.94 415.62,-135.86"/>
<polygon fill="midnightblue" stroke="midnightblue" points="416.84,-132.56 406.29,-131.52 413.88,-138.91 416.84,-132.56"/>
</g>
<!-- Node13&#45;&gt;Node11 -->
<g id="edge20" class="edge">
<title>Node13&#45;&gt;Node11</title>
<path fill="none" stroke="midnightblue" d="M536.15,-171.19C565.23,-164.87 608.38,-152.78 641,-132 660.89,-119.33 678.71,-98.71 689.88,-84.1"/>
<polygon fill="midnightblue" stroke="midnightblue" points="692.81,-86.03 695.94,-75.9 687.18,-81.87 692.81,-86.03"/>
</g>
<!-- Node13&#45;&gt;Node12 -->
<g id="edge22" class="edge">
<title>Node13&#45;&gt;Node12</title>
<path fill="none" stroke="midnightblue" d="M536.09,-174.99C564.96,-171.28 605.86,-160.89 626,-132 637.69,-115.22 620.69,-95.23 605.15,-81.89"/>
<polygon fill="midnightblue" stroke="midnightblue" points="607.31,-79.13 597.33,-75.58 602.91,-84.58 607.31,-79.13"/>
</g>
<!-- Node14 -->
<g id="node14" class="node">
<title>Node14</title>
<g id="a_node14"><a xlink:title=" ">
<polygon fill="white" stroke="#bfbfbf" points="472.5,-112.5 472.5,-131.5 535.5,-131.5 535.5,-112.5 472.5,-112.5"/>
<text text-anchor="middle" x="504" y="-119.5" font-family="Helvetica,sans-Serif" font-size="10.00">ncurses.h</text>
</a>
</g>
</g>
<!-- Node13&#45;&gt;Node14 -->
<g id="edge19" class="edge">
<title>Node13&#45;&gt;Node14</title>
<path fill="none" stroke="midnightblue" d="M504,-168.08C504,-161.01 504,-150.86 504,-141.99"/>
<polygon fill="midnightblue" stroke="midnightblue" points="507.5,-141.75 504,-131.75 500.5,-141.75 507.5,-141.75"/>
</g>
<!-- Node15 -->
<g id="node15" class="node">
<title>Node15</title>
<g id="a_node15"><a xlink:href="Helpers_8h.html" target="_top" xlink:title=" ">
<polygon fill="white" stroke="black" points="553.5,-112.5 553.5,-131.5 616.5,-131.5 616.5,-112.5 553.5,-112.5"/>
<text text-anchor="middle" x="585" y="-119.5" font-family="Helvetica,sans-Serif" font-size="10.00">Helpers.h</text>
</a>
</g>
</g>
<!-- Node13&#45;&gt;Node15 -->
<g id="edge24" class="edge">
<title>Node13&#45;&gt;Node15</title>
<path fill="none" stroke="midnightblue" d="M517.01,-168.32C529.53,-159.98 548.68,-147.21 563.47,-137.35"/>
<polygon fill="midnightblue" stroke="midnightblue" points="565.64,-140.11 572.02,-131.65 561.76,-134.29 565.64,-140.11"/>
</g>
<!-- Node15&#45;&gt;Node4 -->
<g id="edge25" class="edge">
<title>Node15&#45;&gt;Node4</title>
<path fill="none" stroke="midnightblue" d="M553.16,-113.65C550.4,-113.07 547.66,-112.51 545,-112 460.62,-95.69 361.05,-80.56 306.93,-72.68"/>
<polygon fill="midnightblue" stroke="midnightblue" points="307.13,-69.18 296.73,-71.21 306.12,-76.1 307.13,-69.18"/>
</g>
<!-- Node15&#45;&gt;Node11 -->
<g id="edge26" class="edge">
<title>Node15&#45;&gt;Node11</title>
<path fill="none" stroke="midnightblue" d="M603.54,-112.44C622.62,-103.64 652.57,-89.81 674.44,-79.72"/>
<polygon fill="midnightblue" stroke="midnightblue" points="675.93,-82.88 683.55,-75.52 673,-76.53 675.93,-82.88"/>
</g>
<!-- Node15&#45;&gt;Node12 -->
<g id="edge27" class="edge">
<title>Node15&#45;&gt;Node12</title>
<path fill="none" stroke="midnightblue" d="M585,-112.08C585,-105.01 585,-94.86 585,-85.99"/>
<polygon fill="midnightblue" stroke="midnightblue" points="588.5,-85.75 585,-75.75 581.5,-85.75 588.5,-85.75"/>
</g>
<!-- Node16&#45;&gt;Node8 -->
<g id="edge30" class="edge">
<title>Node16&#45;&gt;Node8</title>
<path fill="none" stroke="midnightblue" d="M346.88,-336.32C337.47,-328.26 323.26,-316.08 311.93,-306.37"/>
<polygon fill="midnightblue" stroke="midnightblue" points="314.18,-303.68 304.31,-299.83 309.62,-309 314.18,-303.68"/>
</g>
<!-- Node16&#45;&gt;Node10 -->
<g id="edge31" class="edge">
<title>Node16&#45;&gt;Node10</title>
<path fill="none" stroke="midnightblue" d="M359.12,-336.37C363.48,-318.62 373.53,-277.67 379.44,-253.6"/>
<polygon fill="midnightblue" stroke="midnightblue" points="382.91,-254.14 381.89,-243.59 376.11,-252.47 382.91,-254.14"/>
</g>
<!-- Node16&#45;&gt;Node11 -->
<g id="edge32" class="edge">
<title>Node16&#45;&gt;Node11</title>
<path fill="none" stroke="midnightblue" d="M385.27,-343.38C476.77,-337.39 759,-312.6 759,-235 759,-235 759,-235 759,-177 759,-140.3 733.68,-103.66 716.79,-83.3"/>
<polygon fill="midnightblue" stroke="midnightblue" points="719.35,-80.9 710.17,-75.62 714.05,-85.48 719.35,-80.9"/>
</g>
</g>
</svg>
