<?xml version="1.0" encoding="UTF-8" standalone="no"?>
<!DOCTYPE svg PUBLIC "-//W3C//DTD SVG 1.1//EN"
 "http://www.w3.org/Graphics/SVG/1.1/DTD/svg11.dtd">
<!-- Generated by graphviz version 2.43.0 (0)
 -->
<!-- Title: src/Window.h Pages: 1 -->
<svg width="342pt" height="196pt"
 viewBox="0.00 0.00 341.50 196.00" xmlns="http://www.w3.org/2000/svg" xmlns:xlink="http://www.w3.org/1999/xlink">
<g id="graph0" class="graph" transform="scale(1 1) rotate(0) translate(4 192)">
<title>src/Window.h</title>
<polygon fill="white" stroke="transparent" points="-4,4 -4,-192 337.5,-192 337.5,4 -4,4"/>
<!-- Node1 -->
<g id="node1" class="node">
<title>Node1</title>
<g id="a_node1"><a xlink:title="Class for handling ncurses windows.">
<polygon fill="#bfbfbf" stroke="black" points="141,-168.5 141,-187.5 222,-187.5 222,-168.5 141,-168.5"/>
<text text-anchor="middle" x="181.5" y="-175.5" font-family="Helvetica,sans-Serif" font-size="10.00">src/Window.h</text>
</a>
</g>
</g>
<!-- Node2 -->
<g id="node2" class="node">
<title>Node2</title>
<g id="a_node2"><a xlink:title=" ">
<polygon fill="white" stroke="#bfbfbf" points="0,-112.5 0,-131.5 63,-131.5 63,-112.5 0,-112.5"/>
<text text-anchor="middle" x="31.5" y="-119.5" font-family="Helvetica,sans-Serif" font-size="10.00">ncurses.h</text>
</a>
</g>
</g>
<!-- Node1&#45;&gt;Node2 -->
<g id="edge1" class="edge">
<title>Node1&#45;&gt;Node2</title>
<path fill="none" stroke="midnightblue" d="M157.73,-168.44C132.61,-159.4 92.79,-145.06 64.6,-134.92"/>
<polygon fill="midnightblue" stroke="midnightblue" points="65.75,-131.61 55.16,-131.52 63.38,-138.2 65.75,-131.61"/>
</g>
<!-- Node3 -->
<g id="node3" class="node">
<title>Node3</title>
<g id="a_node3"><a xlink:title=" ">
<polygon fill="white" stroke="#bfbfbf" points="80.5,-56.5 80.5,-75.5 124.5,-75.5 124.5,-56.5 80.5,-56.5"/>
<text text-anchor="middle" x="102.5" y="-63.5" font-family="Helvetica,sans-Serif" font-size="10.00">string</text>
</a>
</g>
</g>
<!-- Node1&#45;&gt;Node3 -->
<g id="edge2" class="edge">
<title>Node1&#45;&gt;Node3</title>
<path fill="none" stroke="midnightblue" d="M158.05,-168.44C141.92,-161.27 121.5,-149.39 110.5,-132 101.86,-118.34 100.35,-99.8 100.71,-86.02"/>
<polygon fill="midnightblue" stroke="midnightblue" points="104.22,-85.97 101.35,-75.77 97.23,-85.54 104.22,-85.97"/>
</g>
<!-- Node4 -->
<g id="node4" class="node">
<title>Node4</title>
<g id="a_node4"><a xlink:title=" ">
<polygon fill="white" stroke="#bfbfbf" points="277.5,-112.5 277.5,-131.5 333.5,-131.5 333.5,-112.5 277.5,-112.5"/>
<text text-anchor="middle" x="305.5" y="-119.5" font-family="Helvetica,sans-Serif" font-size="10.00">optional</text>
</a>
</g>
</g>
<!-- Node1&#45;&gt;Node4 -->
<g id="edge3" class="edge">
<title>Node1&#45;&gt;Node4</title>
<path fill="none" stroke="midnightblue" d="M201.15,-168.44C221.46,-159.6 253.4,-145.69 276.6,-135.59"/>
<polygon fill="midnightblue" stroke="midnightblue" points="278.17,-138.72 285.94,-131.52 275.38,-132.3 278.17,-138.72"/>
</g>
<!-- Node5 -->
<g id="node5" class="node">
<title>Node5</title>
<g id="a_node5"><a xlink:title=" ">
<polygon fill="white" stroke="#bfbfbf" points="149,-56.5 149,-75.5 196,-75.5 196,-56.5 149,-56.5"/>
<text text-anchor="middle" x="172.5" y="-63.5" font-family="Helvetica,sans-Serif" font-size="10.00">vector</text>
</a>
</g>
</g>
<!-- Node1&#45;&gt;Node5 -->
<g id="edge4" class="edge">
<title>Node1&#45;&gt;Node5</title>
<path fill="none" stroke="midnightblue" d="M184.84,-168.12C189.12,-155.56 195.53,-131.92 191.5,-112 189.61,-102.65 185.71,-92.83 181.93,-84.75"/>
<polygon fill="midnightblue" stroke="midnightblue" points="184.97,-83.01 177.38,-75.63 178.71,-86.14 184.97,-83.01"/>
</g>
<!-- Node6 -->
<g id="node6" class="node">
<title>Node6</title>
<g id="a_node6"><a xlink:href="Enums_8h.html" target="_top" xlink:title=" ">
<polygon fill="white" stroke="black" points="217,-56.5 217,-75.5 276,-75.5 276,-56.5 217,-56.5"/>
<text text-anchor="middle" x="246.5" y="-63.5" font-family="Helvetica,sans-Serif" font-size="10.00">Enums.h</text>
</a>
</g>
</g>
<!-- Node1&#45;&gt;Node6 -->
<g id="edge5" class="edge">
<title>Node1&#45;&gt;Node6</title>
<path fill="none" stroke="midnightblue" d="M186.6,-168.37C197.28,-150.3 222.17,-108.18 236.27,-84.31"/>
<polygon fill="midnightblue" stroke="midnightblue" points="239.35,-85.98 241.42,-75.59 233.32,-82.42 239.35,-85.98"/>
</g>
<!-- Node8 -->
<g id="node8" class="node">
<title>Node8</title>
<g id="a_node8"><a xlink:href="Helpers_8h.html" target="_top" xlink:title=" ">
<polygon fill="white" stroke="black" points="120,-112.5 120,-131.5 183,-131.5 183,-112.5 120,-112.5"/>
<text text-anchor="middle" x="151.5" y="-119.5" font-family="Helvetica,sans-Serif" font-size="10.00">Helpers.h</text>
</a>
</g>
</g>
<!-- Node1&#45;&gt;Node8 -->
<g id="edge7" class="edge">
<title>Node1&#45;&gt;Node8</title>
<path fill="none" stroke="midnightblue" d="M176.55,-168.08C172.4,-160.61 166.35,-149.72 161.23,-140.52"/>
<polygon fill="midnightblue" stroke="midnightblue" points="164.28,-138.79 156.36,-131.75 158.16,-142.19 164.28,-138.79"/>
</g>
<!-- Node7 -->
<g id="node7" class="node">
<title>Node7</title>
<g id="a_node7"><a xlink:title=" ">
<polygon fill="white" stroke="#bfbfbf" points="224,-0.5 224,-19.5 269,-19.5 269,-0.5 224,-0.5"/>
<text text-anchor="middle" x="246.5" y="-7.5" font-family="Helvetica,sans-Serif" font-size="10.00">utility</text>
</a>
</g>
</g>
<!-- Node6&#45;&gt;Node7 -->
<g id="edge6" class="edge">
<title>Node6&#45;&gt;Node7</title>
<path fill="none" stroke="midnightblue" d="M246.5,-56.08C246.5,-49.01 246.5,-38.86 246.5,-29.99"/>
<polygon fill="midnightblue" stroke="midnightblue" points="250,-29.75 246.5,-19.75 243,-29.75 250,-29.75"/>
</g>
<!-- Node8&#45;&gt;Node3 -->
<g id="edge9" class="edge">
<title>Node8&#45;&gt;Node3</title>
<path fill="none" stroke="midnightblue" d="M143.41,-112.08C136.34,-104.3 125.91,-92.8 117.35,-83.37"/>
<polygon fill="midnightblue" stroke="midnightblue" points="119.75,-80.8 110.44,-75.75 114.57,-85.51 119.75,-80.8"/>
</g>
<!-- Node8&#45;&gt;Node5 -->
<g id="edge10" class="edge">
<title>Node8&#45;&gt;Node5</title>
<path fill="none" stroke="midnightblue" d="M154.97,-112.08C157.81,-104.77 161.93,-94.18 165.46,-85.1"/>
<polygon fill="midnightblue" stroke="midnightblue" points="168.73,-86.34 169.1,-75.75 162.21,-83.8 168.73,-86.34"/>
</g>
<!-- Node8&#45;&gt;Node6 -->
<g id="edge8" class="edge">
<title>Node8&#45;&gt;Node6</title>
<path fill="none" stroke="midnightblue" d="M166.76,-112.32C181.72,-103.82 204.75,-90.73 222.23,-80.8"/>
<polygon fill="midnightblue" stroke="midnightblue" points="224.31,-83.64 231.27,-75.65 220.85,-77.55 224.31,-83.64"/>
</g>
</g>
</svg>
