<?xml version="1.0" encoding="UTF-8" standalone="no"?>
<!DOCTYPE svg PUBLIC "-//W3C//DTD SVG 1.1//EN"
 "http://www.w3.org/Graphics/SVG/1.1/DTD/svg11.dtd">
<!-- Generated by graphviz version 2.43.0 (0)
 -->
<!-- Title: src/ChaseBehavior.h Pages: 1 -->
<svg width="630pt" height="420pt"
 viewBox="0.00 0.00 629.50 420.00" xmlns="http://www.w3.org/2000/svg" xmlns:xlink="http://www.w3.org/1999/xlink">
<g id="graph0" class="graph" transform="scale(1 1) rotate(0) translate(4 416)">
<title>src/ChaseBehavior.h</title>
<polygon fill="white" stroke="transparent" points="-4,4 -4,-416 625.5,-416 625.5,4 -4,4"/>
<!-- Node1 -->
<g id="node1" class="node">
<title>Node1</title>
<g id="a_node1"><a xlink:title="Class for handling the chase behavior of ghosts.">
<polygon fill="#bfbfbf" stroke="black" points="435.5,-392.5 435.5,-411.5 551.5,-411.5 551.5,-392.5 435.5,-392.5"/>
<text text-anchor="middle" x="493.5" y="-399.5" font-family="Helvetica,sans-Serif" font-size="10.00">src/ChaseBehavior.h</text>
</a>
</g>
</g>
<!-- Node2 -->
<g id="node2" class="node">
<title>Node2</title>
<g id="a_node2"><a xlink:href="EnemyBehavior_8h.html" target="_top" xlink:title="Base class for all enemy behaviors.">
<polygon fill="white" stroke="black" points="442.5,-336.5 442.5,-355.5 544.5,-355.5 544.5,-336.5 442.5,-336.5"/>
<text text-anchor="middle" x="493.5" y="-343.5" font-family="Helvetica,sans-Serif" font-size="10.00">EnemyBehavior.h</text>
</a>
</g>
</g>
<!-- Node1&#45;&gt;Node2 -->
<g id="edge1" class="edge">
<title>Node1&#45;&gt;Node2</title>
<path fill="none" stroke="midnightblue" d="M493.5,-392.08C493.5,-385.01 493.5,-374.86 493.5,-365.99"/>
<polygon fill="midnightblue" stroke="midnightblue" points="497,-365.75 493.5,-355.75 490,-365.75 497,-365.75"/>
</g>
<!-- Node3 -->
<g id="node3" class="node">
<title>Node3</title>
<g id="a_node3"><a xlink:href="Map_8h.html" target="_top" xlink:title="Class for handling the game map.">
<polygon fill="white" stroke="black" points="152,-224.5 152,-243.5 199,-243.5 199,-224.5 152,-224.5"/>
<text text-anchor="middle" x="175.5" y="-231.5" font-family="Helvetica,sans-Serif" font-size="10.00">Map.h</text>
</a>
</g>
</g>
<!-- Node2&#45;&gt;Node3 -->
<g id="edge2" class="edge">
<title>Node2&#45;&gt;Node3</title>
<path fill="none" stroke="midnightblue" d="M464.18,-336.45C434.77,-327.74 388.27,-313.63 348.5,-300 298.36,-282.82 240.89,-260.74 206.43,-247.25"/>
<polygon fill="midnightblue" stroke="midnightblue" points="207.52,-243.91 196.93,-243.51 204.96,-250.43 207.52,-243.91"/>
</g>
<!-- Node9 -->
<g id="node9" class="node">
<title>Node9</title>
<g id="a_node9"><a xlink:href="Enums_8h.html" target="_top" xlink:title=" ">
<polygon fill="white" stroke="black" points="380,-56.5 380,-75.5 439,-75.5 439,-56.5 380,-56.5"/>
<text text-anchor="middle" x="409.5" y="-63.5" font-family="Helvetica,sans-Serif" font-size="10.00">Enums.h</text>
</a>
</g>
</g>
<!-- Node2&#45;&gt;Node9 -->
<g id="edge16" class="edge">
<title>Node2&#45;&gt;Node9</title>
<path fill="none" stroke="midnightblue" d="M518.48,-336.47C555.73,-321.97 621.5,-288.77 621.5,-235 621.5,-235 621.5,-235 621.5,-177 621.5,-100.37 511.02,-77.05 449.57,-70.01"/>
<polygon fill="midnightblue" stroke="midnightblue" points="449.74,-66.51 439.42,-68.94 449,-73.47 449.74,-66.51"/>
</g>
<!-- Node12 -->
<g id="node12" class="node">
<title>Node12</title>
<g id="a_node12"><a xlink:title=" ">
<polygon fill="white" stroke="#bfbfbf" points="533.5,-168.5 533.5,-187.5 591.5,-187.5 591.5,-168.5 533.5,-168.5"/>
<text text-anchor="middle" x="562.5" y="-175.5" font-family="Helvetica,sans-Serif" font-size="10.00">memory</text>
</a>
</g>
</g>
<!-- Node2&#45;&gt;Node12 -->
<g id="edge17" class="edge">
<title>Node2&#45;&gt;Node12</title>
<path fill="none" stroke="midnightblue" d="M499.08,-336.45C509.93,-319.5 533.95,-280.12 547.5,-244 553.16,-228.9 557.1,-211 559.52,-197.81"/>
<polygon fill="midnightblue" stroke="midnightblue" points="563.03,-198.07 561.25,-187.62 556.13,-196.89 563.03,-198.07"/>
</g>
<!-- Node13 -->
<g id="node13" class="node">
<title>Node13</title>
<g id="a_node13"><a xlink:href="MovingObject_8h.html" target="_top" xlink:title="Base class for all moving objects.">
<polygon fill="white" stroke="black" points="357,-280.5 357,-299.5 450,-299.5 450,-280.5 357,-280.5"/>
<text text-anchor="middle" x="403.5" y="-287.5" font-family="Helvetica,sans-Serif" font-size="10.00">MovingObject.h</text>
</a>
</g>
</g>
<!-- Node2&#45;&gt;Node13 -->
<g id="edge18" class="edge">
<title>Node2&#45;&gt;Node13</title>
<path fill="none" stroke="midnightblue" d="M479.04,-336.32C465,-327.9 443.45,-314.97 426.96,-305.07"/>
<polygon fill="midnightblue" stroke="midnightblue" points="428.3,-301.8 417.92,-299.65 424.7,-307.8 428.3,-301.8"/>
</g>
<!-- Node4 -->
<g id="node4" class="node">
<title>Node4</title>
<g id="a_node4"><a xlink:title=" ">
<polygon fill="white" stroke="#bfbfbf" points="65.5,-56.5 65.5,-75.5 109.5,-75.5 109.5,-56.5 65.5,-56.5"/>
<text text-anchor="middle" x="87.5" y="-63.5" font-family="Helvetica,sans-Serif" font-size="10.00">string</text>
</a>
</g>
</g>
<!-- Node3&#45;&gt;Node4 -->
<g id="edge3" class="edge">
<title>Node3&#45;&gt;Node4</title>
<path fill="none" stroke="midnightblue" d="M163.09,-224.49C141.76,-209.02 98.88,-173.97 82.5,-132 76.71,-117.17 78.79,-99.02 81.84,-85.67"/>
<polygon fill="midnightblue" stroke="midnightblue" points="85.29,-86.33 84.48,-75.77 78.53,-84.53 85.29,-86.33"/>
</g>
<!-- Node5 -->
<g id="node5" class="node">
<title>Node5</title>
<g id="a_node5"><a xlink:title=" ">
<polygon fill="white" stroke="#bfbfbf" points="0,-56.5 0,-75.5 47,-75.5 47,-56.5 0,-56.5"/>
<text text-anchor="middle" x="23.5" y="-63.5" font-family="Helvetica,sans-Serif" font-size="10.00">vector</text>
</a>
</g>
</g>
<!-- Node3&#45;&gt;Node5 -->
<g id="edge4" class="edge">
<title>Node3&#45;&gt;Node5</title>
<path fill="none" stroke="midnightblue" d="M155.96,-224.42C139.76,-216.61 116.82,-203.89 100.5,-188 68.52,-156.85 43.56,-109.98 31.48,-84.69"/>
<polygon fill="midnightblue" stroke="midnightblue" points="34.63,-83.15 27.24,-75.56 28.28,-86.11 34.63,-83.15"/>
</g>
<!-- Node6 -->
<g id="node6" class="node">
<title>Node6</title>
<g id="a_node6"><a xlink:href="Window_8h.html" target="_top" xlink:title="Class for handling ncurses windows.">
<polygon fill="white" stroke="black" points="143.5,-168.5 143.5,-187.5 207.5,-187.5 207.5,-168.5 143.5,-168.5"/>
<text text-anchor="middle" x="175.5" y="-175.5" font-family="Helvetica,sans-Serif" font-size="10.00">Window.h</text>
</a>
</g>
</g>
<!-- Node3&#45;&gt;Node6 -->
<g id="edge5" class="edge">
<title>Node3&#45;&gt;Node6</title>
<path fill="none" stroke="midnightblue" d="M175.5,-224.08C175.5,-217.01 175.5,-206.86 175.5,-197.99"/>
<polygon fill="midnightblue" stroke="midnightblue" points="179,-197.75 175.5,-187.75 172,-197.75 179,-197.75"/>
</g>
<!-- Node6&#45;&gt;Node4 -->
<g id="edge7" class="edge">
<title>Node6&#45;&gt;Node4</title>
<path fill="none" stroke="midnightblue" d="M145.51,-168.48C127.34,-161.67 105.43,-150.2 93.5,-132 84.66,-118.53 83.79,-99.97 84.76,-86.13"/>
<polygon fill="midnightblue" stroke="midnightblue" points="88.28,-86.15 85.88,-75.83 81.32,-85.4 88.28,-86.15"/>
</g>
<!-- Node6&#45;&gt;Node5 -->
<g id="edge9" class="edge">
<title>Node6&#45;&gt;Node5</title>
<path fill="none" stroke="midnightblue" d="M151.56,-168.38C131.89,-160.63 103.9,-148.01 82.5,-132 64.08,-118.22 46.87,-98.1 35.85,-83.9"/>
<polygon fill="midnightblue" stroke="midnightblue" points="38.36,-81.42 29.55,-75.55 32.78,-85.64 38.36,-81.42"/>
</g>
<!-- Node7 -->
<g id="node7" class="node">
<title>Node7</title>
<g id="a_node7"><a xlink:title=" ">
<polygon fill="white" stroke="#bfbfbf" points="184,-112.5 184,-131.5 247,-131.5 247,-112.5 184,-112.5"/>
<text text-anchor="middle" x="215.5" y="-119.5" font-family="Helvetica,sans-Serif" font-size="10.00">ncurses.h</text>
</a>
</g>
</g>
<!-- Node6&#45;&gt;Node7 -->
<g id="edge6" class="edge">
<title>Node6&#45;&gt;Node7</title>
<path fill="none" stroke="midnightblue" d="M182.11,-168.08C187.76,-160.46 196.04,-149.26 202.95,-139.94"/>
<polygon fill="midnightblue" stroke="midnightblue" points="205.88,-141.87 209.02,-131.75 200.25,-137.7 205.88,-141.87"/>
</g>
<!-- Node8 -->
<g id="node8" class="node">
<title>Node8</title>
<g id="a_node8"><a xlink:title=" ">
<polygon fill="white" stroke="#bfbfbf" points="303.5,-112.5 303.5,-131.5 359.5,-131.5 359.5,-112.5 303.5,-112.5"/>
<text text-anchor="middle" x="331.5" y="-119.5" font-family="Helvetica,sans-Serif" font-size="10.00">optional</text>
</a>
</g>
</g>
<!-- Node6&#45;&gt;Node8 -->
<g id="edge8" class="edge">
<title>Node6&#45;&gt;Node8</title>
<path fill="none" stroke="midnightblue" d="M200.22,-168.44C226.35,-159.4 267.76,-145.06 297.08,-134.92"/>
<polygon fill="midnightblue" stroke="midnightblue" points="298.59,-138.1 306.9,-131.52 296.3,-131.48 298.59,-138.1"/>
</g>
<!-- Node6&#45;&gt;Node9 -->
<g id="edge10" class="edge">
<title>Node6&#45;&gt;Node9</title>
<path fill="none" stroke="midnightblue" d="M190.68,-168.39C217.91,-153.01 274.13,-121.5 294.5,-112 321.07,-99.61 352.07,-87.61 375.19,-79.13"/>
<polygon fill="midnightblue" stroke="midnightblue" points="376.69,-82.31 384.89,-75.6 374.3,-75.73 376.69,-82.31"/>
</g>
<!-- Node11 -->
<g id="node11" class="node">
<title>Node11</title>
<g id="a_node11"><a xlink:href="Helpers_8h.html" target="_top" xlink:title=" ">
<polygon fill="white" stroke="black" points="103,-112.5 103,-131.5 166,-131.5 166,-112.5 103,-112.5"/>
<text text-anchor="middle" x="134.5" y="-119.5" font-family="Helvetica,sans-Serif" font-size="10.00">Helpers.h</text>
</a>
</g>
</g>
<!-- Node6&#45;&gt;Node11 -->
<g id="edge12" class="edge">
<title>Node6&#45;&gt;Node11</title>
<path fill="none" stroke="midnightblue" d="M168.73,-168.08C162.94,-160.46 154.44,-149.26 147.36,-139.94"/>
<polygon fill="midnightblue" stroke="midnightblue" points="149.98,-137.6 141.14,-131.75 144.4,-141.83 149.98,-137.6"/>
</g>
<!-- Node10 -->
<g id="node10" class="node">
<title>Node10</title>
<g id="a_node10"><a xlink:title=" ">
<polygon fill="white" stroke="#bfbfbf" points="387,-0.5 387,-19.5 432,-19.5 432,-0.5 387,-0.5"/>
<text text-anchor="middle" x="409.5" y="-7.5" font-family="Helvetica,sans-Serif" font-size="10.00">utility</text>
</a>
</g>
</g>
<!-- Node9&#45;&gt;Node10 -->
<g id="edge11" class="edge">
<title>Node9&#45;&gt;Node10</title>
<path fill="none" stroke="midnightblue" d="M409.5,-56.08C409.5,-49.01 409.5,-38.86 409.5,-29.99"/>
<polygon fill="midnightblue" stroke="midnightblue" points="413,-29.75 409.5,-19.75 406,-29.75 413,-29.75"/>
</g>
<!-- Node11&#45;&gt;Node4 -->
<g id="edge14" class="edge">
<title>Node11&#45;&gt;Node4</title>
<path fill="none" stroke="midnightblue" d="M126.74,-112.08C119.96,-104.3 109.96,-92.8 101.74,-83.37"/>
<polygon fill="midnightblue" stroke="midnightblue" points="104.32,-81 95.12,-75.75 99.04,-85.59 104.32,-81"/>
</g>
<!-- Node11&#45;&gt;Node5 -->
<g id="edge15" class="edge">
<title>Node11&#45;&gt;Node5</title>
<path fill="none" stroke="midnightblue" d="M116.67,-112.32C98.78,-103.62 71.02,-90.12 50.45,-80.11"/>
<polygon fill="midnightblue" stroke="midnightblue" points="51.81,-76.88 41.29,-75.65 48.75,-83.18 51.81,-76.88"/>
</g>
<!-- Node11&#45;&gt;Node9 -->
<g id="edge13" class="edge">
<title>Node11&#45;&gt;Node9</title>
<path fill="none" stroke="midnightblue" d="M166.36,-113.74C169.11,-113.14 171.85,-112.55 174.5,-112 242.93,-97.75 322.94,-82.79 369.73,-74.21"/>
<polygon fill="midnightblue" stroke="midnightblue" points="370.55,-77.62 379.76,-72.38 369.29,-70.73 370.55,-77.62"/>
</g>
<!-- Node13&#45;&gt;Node3 -->
<g id="edge27" class="edge">
<title>Node13&#45;&gt;Node3</title>
<path fill="none" stroke="midnightblue" d="M367.37,-280.44C323.87,-270.14 251.39,-252.97 209.07,-242.95"/>
<polygon fill="midnightblue" stroke="midnightblue" points="209.78,-239.52 199.25,-240.62 208.17,-246.33 209.78,-239.52"/>
</g>
<!-- Node13&#45;&gt;Node8 -->
<g id="edge26" class="edge">
<title>Node13&#45;&gt;Node8</title>
<path fill="none" stroke="midnightblue" d="M388.64,-280.28C376.6,-272.39 360.25,-259.62 351.5,-244 333.26,-211.45 330.62,-166.76 330.77,-141.81"/>
<polygon fill="midnightblue" stroke="midnightblue" points="334.28,-141.64 331,-131.56 327.28,-141.48 334.28,-141.64"/>
</g>
<!-- Node13&#45;&gt;Node9 -->
<g id="edge24" class="edge">
<title>Node13&#45;&gt;Node9</title>
<path fill="none" stroke="midnightblue" d="M400.43,-280.22C393.84,-260.32 379.35,-210.22 384.5,-168 388.1,-138.5 397.4,-105.2 403.58,-85.17"/>
<polygon fill="midnightblue" stroke="midnightblue" points="406.96,-86.11 406.64,-75.51 400.29,-83.99 406.96,-86.11"/>
</g>
<!-- Node13&#45;&gt;Node12 -->
<g id="edge25" class="edge">
<title>Node13&#45;&gt;Node12</title>
<path fill="none" stroke="midnightblue" d="M449.3,-280.46C474.36,-273.91 504.65,-262.7 526.5,-244 541.01,-231.58 550.78,-211.78 556.44,-197.3"/>
<polygon fill="midnightblue" stroke="midnightblue" points="559.74,-198.46 559.84,-187.87 553.15,-196.09 559.74,-198.46"/>
</g>
<!-- Node14 -->
<g id="node14" class="node">
<title>Node14</title>
<g id="a_node14"><a xlink:href="GameObject_8h.html" target="_top" xlink:title="Base class for all game objects.">
<polygon fill="white" stroke="black" points="431.5,-224.5 431.5,-243.5 517.5,-243.5 517.5,-224.5 431.5,-224.5"/>
<text text-anchor="middle" x="474.5" y="-231.5" font-family="Helvetica,sans-Serif" font-size="10.00">GameObject.h</text>
</a>
</g>
</g>
<!-- Node13&#45;&gt;Node14 -->
<g id="edge19" class="edge">
<title>Node13&#45;&gt;Node14</title>
<path fill="none" stroke="midnightblue" d="M414.91,-280.32C425.61,-272.18 441.84,-259.84 454.66,-250.09"/>
<polygon fill="midnightblue" stroke="midnightblue" points="457.04,-252.67 462.89,-243.83 452.81,-247.1 457.04,-252.67"/>
</g>
<!-- Node15 -->
<g id="node15" class="node">
<title>Node15</title>
<g id="a_node15"><a xlink:href="GamePhase_8h.html" target="_top" xlink:title="Handles the game phase and level.">
<polygon fill="white" stroke="black" points="393.5,-168.5 393.5,-187.5 477.5,-187.5 477.5,-168.5 393.5,-168.5"/>
<text text-anchor="middle" x="435.5" y="-175.5" font-family="Helvetica,sans-Serif" font-size="10.00">GamePhase.h</text>
</a>
</g>
</g>
<!-- Node13&#45;&gt;Node15 -->
<g id="edge28" class="edge">
<title>Node13&#45;&gt;Node15</title>
<path fill="none" stroke="midnightblue" d="M406.01,-280.37C411.2,-262.54 423.2,-221.3 430.18,-197.27"/>
<polygon fill="midnightblue" stroke="midnightblue" points="433.57,-198.17 433,-187.59 426.85,-196.22 433.57,-198.17"/>
</g>
<!-- Node14&#45;&gt;Node9 -->
<g id="edge20" class="edge">
<title>Node14&#45;&gt;Node9</title>
<path fill="none" stroke="midnightblue" d="M478.79,-224.39C484.49,-211.75 493.11,-187.57 486.5,-168 474.71,-133.09 445.5,-100.71 426.63,-82.44"/>
<polygon fill="midnightblue" stroke="midnightblue" points="428.95,-79.81 419.27,-75.51 424.15,-84.91 428.95,-79.81"/>
</g>
<!-- Node14&#45;&gt;Node12 -->
<g id="edge23" class="edge">
<title>Node14&#45;&gt;Node12</title>
<path fill="none" stroke="midnightblue" d="M488.64,-224.32C502.37,-215.9 523.44,-202.97 539.56,-193.07"/>
<polygon fill="midnightblue" stroke="midnightblue" points="541.7,-195.87 548.4,-187.65 538.04,-189.9 541.7,-195.87"/>
</g>
<!-- Node14&#45;&gt;Node15 -->
<g id="edge21" class="edge">
<title>Node14&#45;&gt;Node15</title>
<path fill="none" stroke="midnightblue" d="M468.06,-224.08C462.55,-216.46 454.47,-205.26 447.74,-195.94"/>
<polygon fill="midnightblue" stroke="midnightblue" points="450.51,-193.81 441.82,-187.75 444.84,-197.91 450.51,-193.81"/>
</g>
<!-- Node15&#45;&gt;Node9 -->
<g id="edge22" class="edge">
<title>Node15&#45;&gt;Node9</title>
<path fill="none" stroke="midnightblue" d="M433.46,-168.37C429.26,-150.62 419.58,-109.67 413.9,-85.6"/>
<polygon fill="midnightblue" stroke="midnightblue" points="417.24,-84.52 411.53,-75.59 410.42,-86.13 417.24,-84.52"/>
</g>
</g>
</svg>
