<?xml version="1.0" encoding="UTF-8" standalone="no"?>
<!DOCTYPE svg PUBLIC "-//W3C//DTD SVG 1.1//EN"
 "http://www.w3.org/Graphics/SVG/1.1/DTD/svg11.dtd">
<!-- Generated by graphviz version 2.43.0 (0)
 -->
<!-- Title: Window::printCharAt Pages: 1 -->
<svg width="532pt" height="137pt"
 viewBox="0.00 0.00 532.00 136.69" xmlns="http://www.w3.org/2000/svg" xmlns:xlink="http://www.w3.org/1999/xlink">
<g id="graph0" class="graph" transform="scale(1 1) rotate(0) translate(4 132.69)">
<title>Window::printCharAt</title>
<polygon fill="white" stroke="transparent" points="-4,4 -4,-132.69 528,-132.69 528,4 -4,4"/>
<!-- Node1 -->
<g id="node1" class="node">
<title>Node1</title>
<g id="a_node1"><a xlink:title="Prints character at given position, default color.">
<polygon fill="#bfbfbf" stroke="black" points="408,-14.19 408,-33.19 524,-33.19 524,-14.19 408,-14.19"/>
<text text-anchor="middle" x="466" y="-21.19" font-family="Helvetica,sans-Serif" font-size="10.00">Window::printCharAt</text>
</a>
</g>
</g>
<!-- Node2 -->
<g id="node2" class="node">
<title>Node2</title>
<g id="a_node2"><a xlink:href="classGame.html#a6d54497ce3a66f6dd45eacfdccc8d0bd" target="_top" xlink:title="Draws the game.">
<polygon fill="white" stroke="black" points="296,-52.19 296,-71.19 372,-71.19 372,-52.19 296,-52.19"/>
<text text-anchor="middle" x="334" y="-59.19" font-family="Helvetica,sans-Serif" font-size="10.00">Game::draw</text>
</a>
</g>
</g>
<!-- Node1&#45;&gt;Node2 -->
<g id="edge1" class="edge">
<title>Node1&#45;&gt;Node2</title>
<path fill="none" stroke="midnightblue" d="M422.12,-36.23C404.43,-41.4 384.27,-47.29 367.79,-52.11"/>
<polygon fill="midnightblue" stroke="midnightblue" points="423.58,-39.45 432.2,-33.28 421.62,-32.73 423.58,-39.45"/>
</g>
<!-- Node6 -->
<g id="node6" class="node">
<title>Node6</title>
<g id="a_node6"><a xlink:href="classGame.html#a127294d56e1c963bf1a12d2b95a7a0c3" target="_top" xlink:title="Returns all moving objects to their starting positions.">
<polygon fill="white" stroke="black" points="132,-14.19 132,-33.19 260,-33.19 260,-14.19 132,-14.19"/>
<text text-anchor="middle" x="196" y="-21.19" font-family="Helvetica,sans-Serif" font-size="10.00">Game::returnAllToStart</text>
</a>
</g>
</g>
<!-- Node1&#45;&gt;Node6 -->
<g id="edge8" class="edge">
<title>Node1&#45;&gt;Node6</title>
<path fill="none" stroke="midnightblue" d="M397.66,-23.69C355.5,-23.69 301.52,-23.69 260.17,-23.69"/>
<polygon fill="midnightblue" stroke="midnightblue" points="397.84,-27.19 407.84,-23.69 397.84,-20.19 397.84,-27.19"/>
</g>
<!-- Node7 -->
<g id="node7" class="node">
<title>Node7</title>
<g id="a_node7"><a xlink:href="classGame.html#aef7682b8bf084aac3c8f929a6fd2f673" target="_top" xlink:title="Updates the game state.">
<polygon fill="white" stroke="black" points="5,-14.19 5,-33.19 91,-33.19 91,-14.19 5,-14.19"/>
<text text-anchor="middle" x="48" y="-21.19" font-family="Helvetica,sans-Serif" font-size="10.00">Game::update</text>
</a>
</g>
</g>
<!-- Node1&#45;&gt;Node7 -->
<g id="edge9" class="edge">
<title>Node1&#45;&gt;Node7</title>
<path fill="none" stroke="midnightblue" d="M397.92,-13.22C330.54,-4.26 223.81,5.68 132,-4.69 115.55,-6.55 97.61,-10.42 82.62,-14.18"/>
<polygon fill="midnightblue" stroke="midnightblue" points="397.6,-16.71 407.98,-14.59 398.54,-9.77 397.6,-16.71"/>
</g>
<!-- Node3 -->
<g id="node3" class="node">
<title>Node3</title>
<g id="a_node3"><a xlink:href="classGame.html#a4c2a7ead717a4c13f1ffddafd11e17c8" target="_top" xlink:title="Initializes the game, loading config, and the map.">
<polygon fill="white" stroke="black" points="134.5,-90.19 134.5,-109.19 257.5,-109.19 257.5,-90.19 134.5,-90.19"/>
<text text-anchor="middle" x="196" y="-97.19" font-family="Helvetica,sans-Serif" font-size="10.00">Game::initializeGame</text>
</a>
</g>
</g>
<!-- Node2&#45;&gt;Node3 -->
<g id="edge2" class="edge">
<title>Node2&#45;&gt;Node3</title>
<path fill="none" stroke="midnightblue" d="M288.91,-74.01C270.23,-79.23 248.78,-85.22 231.31,-90.11"/>
<polygon fill="midnightblue" stroke="midnightblue" points="289.99,-77.34 298.68,-71.28 288.11,-70.6 289.99,-77.34"/>
</g>
<!-- Node2&#45;&gt;Node6 -->
<g id="edge5" class="edge">
<title>Node2&#45;&gt;Node6</title>
<path fill="none" stroke="midnightblue" d="M288.91,-49.37C270.23,-44.15 248.78,-38.16 231.31,-33.28"/>
<polygon fill="midnightblue" stroke="midnightblue" points="288.11,-52.78 298.68,-52.1 289.99,-46.04 288.11,-52.78"/>
</g>
<!-- Node2&#45;&gt;Node7 -->
<g id="edge7" class="edge">
<title>Node2&#45;&gt;Node7</title>
<path fill="none" stroke="midnightblue" d="M285.56,-58.96C244.69,-56.2 184.21,-51.1 132,-42.69 116.82,-40.25 100.28,-36.65 85.98,-33.25"/>
<polygon fill="midnightblue" stroke="midnightblue" points="285.56,-62.47 295.77,-59.63 286.02,-55.49 285.56,-62.47"/>
</g>
<!-- Node4 -->
<g id="node4" class="node">
<title>Node4</title>
<g id="a_node4"><a xlink:href="classGame.html#a2a30c89761624ee64cd7acb147aaf89c" target="_top" xlink:title="Starts the game.">
<polygon fill="white" stroke="black" points="11,-109.19 11,-128.19 85,-128.19 85,-109.19 11,-109.19"/>
<text text-anchor="middle" x="48" y="-116.19" font-family="Helvetica,sans-Serif" font-size="10.00">Game::start</text>
</a>
</g>
</g>
<!-- Node3&#45;&gt;Node4 -->
<g id="edge3" class="edge">
<title>Node3&#45;&gt;Node4</title>
<path fill="none" stroke="midnightblue" d="M124.05,-108.92C110.52,-110.69 96.9,-112.46 85.04,-114"/>
<polygon fill="midnightblue" stroke="midnightblue" points="124.89,-112.35 134.35,-107.58 123.98,-105.4 124.89,-112.35"/>
</g>
<!-- Node5 -->
<g id="node5" class="node">
<title>Node5</title>
<g id="a_node5"><a xlink:href="classGame.html#a1118c369ae5b2fe433aac540cb32d187" target="_top" xlink:title="Starts the game with a new map.">
<polygon fill="white" stroke="black" points="0,-71.19 0,-90.19 96,-90.19 96,-71.19 0,-71.19"/>
<text text-anchor="middle" x="48" y="-78.19" font-family="Helvetica,sans-Serif" font-size="10.00">Game::startNew</text>
</a>
</g>
</g>
<!-- Node3&#45;&gt;Node5 -->
<g id="edge4" class="edge">
<title>Node3&#45;&gt;Node5</title>
<path fill="none" stroke="midnightblue" d="M124.16,-90.47C114.72,-89.24 105.23,-88.01 96.33,-86.85"/>
<polygon fill="midnightblue" stroke="midnightblue" points="123.98,-93.98 134.35,-91.8 124.89,-87.04 123.98,-93.98"/>
</g>
<!-- Node6&#45;&gt;Node7 -->
<g id="edge6" class="edge">
<title>Node6&#45;&gt;Node7</title>
<path fill="none" stroke="midnightblue" d="M121.79,-23.69C111.31,-23.69 100.84,-23.69 91.23,-23.69"/>
<polygon fill="midnightblue" stroke="midnightblue" points="121.81,-27.19 131.81,-23.69 121.81,-20.19 121.81,-27.19"/>
</g>
</g>
</svg>
