<?xml version="1.0" encoding="UTF-8" standalone="no"?>
<!DOCTYPE svg PUBLIC "-//W3C//DTD SVG 1.1//EN"
 "http://www.w3.org/Graphics/SVG/1.1/DTD/svg11.dtd">
<!-- Generated by graphviz version 10.0.1 (0)
 -->
<!-- Title: MovingObject::setSpeed Pages: 1 -->
<svg width="326pt" height="154pt"
 viewBox="0.00 0.00 325.75 154.00" xmlns="http://www.w3.org/2000/svg" xmlns:xlink="http://www.w3.org/1999/xlink">
<g id="graph0" class="graph" transform="scale(1 1) rotate(0) translate(4 150)">
<title>MovingObject::setSpeed</title>
<!-- Node1 -->
<g id="Node000001" class="node">
<title>Node1</title>
<g id="a_Node000001"><a xlink:title="Sets the speed of the object.">
<polygon fill="#999999" stroke="#666666" points="317.75,-80 194.5,-80 194.5,-60 317.75,-60 317.75,-80"/>
<text text-anchor="middle" x="256.12" y="-66.5" font-family="Helvetica,sans-Serif" font-size="10.00">MovingObject::setSpeed</text>
</a>
</g>
</g>
<!-- Node2 -->
<g id="Node000002" class="node">
<title>Node2</title>
<g id="a_Node000002"><a xlink:href="structChaseBehavior.html#a8d61f5095bcec808c915637ece4a1f31" target="_top" xlink:title="Handles the behavior of the enemy when changing the game phase.">
<polygon fill="white" stroke="#666666" points="157,-146 1.5,-146 1.5,-126 157,-126 157,-146"/>
<text text-anchor="middle" x="79.25" y="-132.5" font-family="Helvetica,sans-Serif" font-size="10.00">ChaseBehavior::handleBehavior</text>
</a>
</g>
</g>
<!-- Node1&#45;&gt;Node2 -->
<g id="edge1_Node000001_Node000002" class="edge">
<title>Node1&#45;&gt;Node2</title>
<g id="a_edge1_Node000001_Node000002"><a xlink:title=" ">
<path fill="none" stroke="#63b8ff" d="M226.74,-85.81C207.85,-95.83 182.23,-108.46 158.5,-117 149.56,-120.22 139.84,-123.07 130.4,-125.52"/>
<polygon fill="#63b8ff" stroke="#63b8ff" points="228.28,-88.96 235.42,-81.13 224.96,-82.8 228.28,-88.96"/>
</a>
</g>
</g>
<!-- Node3 -->
<g id="Node000003" class="node">
<title>Node3</title>
<g id="a_Node000003"><a xlink:href="structFrightenedBehavior.html#ab92da9144a40747698da6f7c8476aabd" target="_top" xlink:title="Handles the behavior of the enemy when changing the game phase.">
<polygon fill="white" stroke="#666666" points="129.25,-108 29.25,-108 29.25,-76 129.25,-76 129.25,-108"/>
<text text-anchor="start" x="37.25" y="-94.5" font-family="Helvetica,sans-Serif" font-size="10.00">FrightenedBehavior</text>
<text text-anchor="middle" x="79.25" y="-82.5" font-family="Helvetica,sans-Serif" font-size="10.00">::handleBehavior</text>
</a>
</g>
</g>
<!-- Node1&#45;&gt;Node3 -->
<g id="edge2_Node000001_Node000003" class="edge">
<title>Node1&#45;&gt;Node3</title>
<g id="a_edge2_Node000001_Node000003"><a xlink:title=" ">
<path fill="none" stroke="#63b8ff" d="M183.08,-79.06C165.07,-81.33 146.16,-83.71 129.54,-85.8"/>
<polygon fill="#63b8ff" stroke="#63b8ff" points="183.47,-82.54 192.95,-77.82 182.59,-75.6 183.47,-82.54"/>
</a>
</g>
</g>
<!-- Node4 -->
<g id="Node000004" class="node">
<title>Node4</title>
<g id="a_Node000004"><a xlink:href="structScatterBehavior.html#a71bec433e6f46246abc648cc14a0a9af" target="_top" xlink:title="Handles the behavior of the enemy when changing the game phase.">
<polygon fill="white" stroke="#666666" points="158.5,-58 0,-58 0,-38 158.5,-38 158.5,-58"/>
<text text-anchor="middle" x="79.25" y="-44.5" font-family="Helvetica,sans-Serif" font-size="10.00">ScatterBehavior::handleBehavior</text>
</a>
</g>
</g>
<!-- Node1&#45;&gt;Node4 -->
<g id="edge3_Node000001_Node000004" class="edge">
<title>Node1&#45;&gt;Node4</title>
<g id="a_edge3_Node000001_Node000004"><a xlink:title=" ">
<path fill="none" stroke="#63b8ff" d="M183.28,-60.96C175.27,-59.95 167.08,-58.92 158.99,-57.91"/>
<polygon fill="#63b8ff" stroke="#63b8ff" points="182.59,-64.4 192.95,-62.18 183.47,-57.46 182.59,-64.4"/>
</a>
</g>
</g>
<!-- Node5 -->
<g id="Node000005" class="node">
<title>Node5</title>
<g id="a_Node000005"><a xlink:href="classPlayer.html#abc005b0707ae63f395b33d79a876a453" target="_top" xlink:title="Updates the object.">
<polygon fill="white" stroke="#666666" points="118.75,-20 39.75,-20 39.75,0 118.75,0 118.75,-20"/>
<text text-anchor="middle" x="79.25" y="-6.5" font-family="Helvetica,sans-Serif" font-size="10.00">Player::update</text>
</a>
</g>
</g>
<!-- Node1&#45;&gt;Node5 -->
<g id="edge4_Node000001_Node000005" class="edge">
<title>Node1&#45;&gt;Node5</title>
<g id="a_edge4_Node000001_Node000005"><a xlink:title=" ">
<path fill="none" stroke="#63b8ff" d="M223.01,-54.81C204.45,-46.43 180.48,-36.28 158.5,-29 145.89,-24.83 131.87,-21.13 119.21,-18.14"/>
<polygon fill="#63b8ff" stroke="#63b8ff" points="221.33,-57.9 231.88,-58.88 224.25,-51.53 221.33,-57.9"/>
</a>
</g>
</g>
</g>
</svg>
