<?xml version="1.0" encoding="UTF-8" standalone="no"?>
<!DOCTYPE svg PUBLIC "-//W3C//DTD SVG 1.1//EN"
 "http://www.w3.org/Graphics/SVG/1.1/DTD/svg11.dtd">
<!-- Generated by graphviz version 10.0.1 (0)
 -->
<!-- Title: Map::getNearestGhostCageExit Pages: 1 -->
<svg width="426pt" height="47pt"
 viewBox="0.00 0.00 425.75 47.00" xmlns="http://www.w3.org/2000/svg" xmlns:xlink="http://www.w3.org/1999/xlink">
<g id="graph0" class="graph" transform="scale(1 1) rotate(0) translate(4 43)">
<title>Map::getNearestGhostCageExit</title>
<!-- Node1 -->
<g id="Node000001" class="node">
<title>Node1</title>
<g id="a_Node000001"><a xlink:title="Gets the nearest ghost cage exit.">
<polygon fill="#999999" stroke="#666666" points="417.75,-39 262.25,-39 262.25,-19 417.75,-19 417.75,-39"/>
<text text-anchor="middle" x="340" y="-25.5" font-family="Helvetica,sans-Serif" font-size="10.00">Map::getNearestGhostCageExit</text>
</a>
</g>
</g>
<!-- Node2 -->
<g id="Node000002" class="node">
<title>Node2</title>
<g id="a_Node000002"><a xlink:href="classGhost.html#a8f00182b9e19aec6cab0f795ee8dd5ae" target="_top" xlink:title="Returns the calculated next move of the object.">
<polygon fill="white" stroke="#666666" points="106.75,-39 0,-39 0,-19 106.75,-19 106.75,-39"/>
<text text-anchor="middle" x="53.38" y="-25.5" font-family="Helvetica,sans-Serif" font-size="10.00">Ghost::getNextMove</text>
</a>
</g>
</g>
<!-- Node1&#45;&gt;Node2 -->
<g id="edge1_Node000001_Node000002" class="edge">
<title>Node1&#45;&gt;Node2</title>
<g id="a_edge1_Node000001_Node000002"><a xlink:title=" ">
<path fill="none" stroke="#63b8ff" d="M250.55,-29C203.54,-29 147.32,-29 107.15,-29"/>
<polygon fill="#63b8ff" stroke="#63b8ff" points="250.46,-32.5 260.46,-29 250.46,-25.5 250.46,-32.5"/>
</a>
</g>
</g>
<!-- Node3 -->
<g id="Node000003" class="node">
<title>Node3</title>
<g id="a_Node000003"><a xlink:href="classGhost.html#a148ba3ee3c09025057a85025e2b74f81" target="_top" xlink:title=" ">
<polygon fill="white" stroke="#666666" points="226.25,-20 142.75,-20 142.75,0 226.25,0 226.25,-20"/>
<text text-anchor="middle" x="184.5" y="-6.5" font-family="Helvetica,sans-Serif" font-size="10.00">Ghost::tryMove</text>
</a>
</g>
</g>
<!-- Node1&#45;&gt;Node3 -->
<g id="edge2_Node000001_Node000003" class="edge">
<title>Node1&#45;&gt;Node3</title>
<g id="a_edge2_Node000001_Node000003"><a xlink:title=" ">
<path fill="none" stroke="#63b8ff" d="M250.65,-18.06C242.22,-17.02 233.99,-16 226.36,-15.06"/>
<polygon fill="#63b8ff" stroke="#63b8ff" points="249.94,-21.5 260.3,-19.26 250.8,-14.56 249.94,-21.5"/>
</a>
</g>
</g>
<!-- Node3&#45;&gt;Node2 -->
<g id="edge3_Node000003_Node000002" class="edge">
<title>Node3&#45;&gt;Node2</title>
<g id="a_edge3_Node000003_Node000002"><a xlink:title=" ">
<path fill="none" stroke="#63b8ff" d="M130.95,-17.73C123.05,-18.89 114.91,-20.09 107.01,-21.26"/>
<polygon fill="#63b8ff" stroke="#63b8ff" points="131.41,-21.2 140.79,-16.28 130.39,-14.28 131.41,-21.2"/>
</a>
</g>
</g>
</g>
</svg>
