<?xml version="1.0" encoding="UTF-8" standalone="no"?>
<!DOCTYPE svg PUBLIC "-//W3C//DTD SVG 1.1//EN"
 "http://www.w3.org/Graphics/SVG/1.1/DTD/svg11.dtd">
<!-- Generated by graphviz version 10.0.1 (0)
 -->
<!-- Title: Player::getNextMove Pages: 1 -->
<svg width="280pt" height="142pt"
 viewBox="0.00 0.00 280.00 142.00" xmlns="http://www.w3.org/2000/svg" xmlns:xlink="http://www.w3.org/1999/xlink">
<g id="graph0" class="graph" transform="scale(1 1) rotate(0) translate(4 138)">
<title>Player::getNextMove</title>
<!-- Node1 -->
<g id="Node000001" class="node">
<title>Node1</title>
<g id="a_Node000001"><a xlink:title="Returns the calculated next move of the object.">
<polygon fill="#999999" stroke="#666666" points="108.25,-77 0,-77 0,-57 108.25,-57 108.25,-77"/>
<text text-anchor="middle" x="54.12" y="-63.5" font-family="Helvetica,sans-Serif" font-size="10.00">Player::getNextMove</text>
</a>
</g>
</g>
<!-- Node2 -->
<g id="Node000002" class="node">
<title>Node2</title>
<g id="a_Node000002"><a xlink:href="Helpers_8cpp.html#a842dd6c8fbe34f8e1a96bc820d1d955d" target="_top" xlink:title=" ">
<polygon fill="white" stroke="#666666" points="272,-134 144.25,-134 144.25,-114 272,-114 272,-134"/>
<text text-anchor="middle" x="208.12" y="-120.5" font-family="Helvetica,sans-Serif" font-size="10.00">calculateNewCoordinates</text>
</a>
</g>
</g>
<!-- Node1&#45;&gt;Node2 -->
<g id="edge1_Node000001_Node000002" class="edge">
<title>Node1&#45;&gt;Node2</title>
<g id="a_edge1_Node000001_Node000002"><a xlink:title=" ">
<path fill="none" stroke="#63b8ff" d="M77.56,-77.38C95.42,-85.44 121.17,-96.62 144.25,-105 149.02,-106.73 154.03,-108.44 159.06,-110.07"/>
<polygon fill="#63b8ff" stroke="#63b8ff" points="157.97,-113.39 168.55,-113.06 160.07,-106.72 157.97,-113.39"/>
</a>
</g>
</g>
<!-- Node3 -->
<g id="Node000003" class="node">
<title>Node3</title>
<g id="a_Node000003"><a xlink:href="classMap.html#a3fa542ef9ff897893adc5a290b224114" target="_top" xlink:title="Gets the map size.">
<polygon fill="white" stroke="#666666" points="245,-96 171.25,-96 171.25,-76 245,-76 245,-96"/>
<text text-anchor="middle" x="208.12" y="-82.5" font-family="Helvetica,sans-Serif" font-size="10.00">Map::getSize</text>
</a>
</g>
</g>
<!-- Node1&#45;&gt;Node3 -->
<g id="edge2_Node000001_Node000003" class="edge">
<title>Node1&#45;&gt;Node3</title>
<g id="a_edge2_Node000001_Node000003"><a xlink:title=" ">
<path fill="none" stroke="#63b8ff" d="M108.71,-73.7C125.36,-75.78 143.58,-78.06 159.77,-80.08"/>
<polygon fill="#63b8ff" stroke="#63b8ff" points="159.28,-83.55 169.64,-81.31 160.15,-76.6 159.28,-83.55"/>
</a>
</g>
</g>
<!-- Node4 -->
<g id="Node000004" class="node">
<title>Node4</title>
<g id="a_Node000004"><a xlink:href="classMap.html#a9daf0b81095fe118f2e52fd783ea1bf8" target="_top" xlink:title="Checks if there is a wall at the given coordinates.">
<polygon fill="white" stroke="#666666" points="246.5,-58 169.75,-58 169.75,-38 246.5,-38 246.5,-58"/>
<text text-anchor="middle" x="208.12" y="-44.5" font-family="Helvetica,sans-Serif" font-size="10.00">Map::isWallAt</text>
</a>
</g>
</g>
<!-- Node1&#45;&gt;Node4 -->
<g id="edge3_Node000001_Node000004" class="edge">
<title>Node1&#45;&gt;Node4</title>
<g id="a_edge3_Node000001_Node000004"><a xlink:title=" ">
<path fill="none" stroke="#63b8ff" d="M108.71,-60.3C124.81,-58.29 142.38,-56.09 158.15,-54.12"/>
<polygon fill="#63b8ff" stroke="#63b8ff" points="158.29,-57.63 167.78,-52.92 157.42,-50.69 158.29,-57.63"/>
</a>
</g>
</g>
<!-- Node5 -->
<g id="Node000005" class="node">
<title>Node5</title>
<g id="a_Node000005"><a xlink:href="classPlayer.html#adc34e719171cf292e1910982f0ed7c1e" target="_top" xlink:title="Moves the object in the given direction.">
<polygon fill="white" stroke="#666666" points="245,-20 171.25,-20 171.25,0 245,0 245,-20"/>
<text text-anchor="middle" x="208.12" y="-6.5" font-family="Helvetica,sans-Serif" font-size="10.00">Player::move</text>
</a>
</g>
</g>
<!-- Node1&#45;&gt;Node5 -->
<g id="edge4_Node000001_Node000005" class="edge">
<title>Node1&#45;&gt;Node5</title>
<g id="a_edge4_Node000001_Node000005"><a xlink:title=" ">
<path fill="none" stroke="#63b8ff" d="M77.56,-56.62C95.42,-48.56 121.17,-37.38 144.25,-29 149.34,-27.15 154.71,-25.34 160.07,-23.6"/>
<polygon fill="#63b8ff" stroke="#63b8ff" points="161.05,-26.96 169.55,-20.63 158.96,-20.28 161.05,-26.96"/>
</a>
</g>
</g>
</g>
</svg>
