<?xml version="1.0" encoding="UTF-8" standalone="no"?>
<!DOCTYPE svg PUBLIC "-//W3C//DTD SVG 1.1//EN"
 "http://www.w3.org/Graphics/SVG/1.1/DTD/svg11.dtd">
<!-- Generated by graphviz version 2.43.0 (0)
 -->
<!-- Title: Ghost::getNextMove Pages: 1 -->
<svg width="518pt" height="313pt"
 viewBox="0.00 0.00 518.00 313.00" xmlns="http://www.w3.org/2000/svg" xmlns:xlink="http://www.w3.org/1999/xlink">
<g id="graph0" class="graph" transform="scale(1 1) rotate(0) translate(4 309)">
<title>Ghost::getNextMove</title>
<polygon fill="white" stroke="transparent" points="-4,4 -4,-309 514,-309 514,4 -4,4"/>
<!-- Node1 -->
<g id="node1" class="node">
<title>Node1</title>
<g id="a_node1"><a xlink:title="Returns the calculated next move of the object.">
<polygon fill="#bfbfbf" stroke="black" points="0,-171.5 0,-190.5 117,-190.5 117,-171.5 0,-171.5"/>
<text text-anchor="middle" x="58.5" y="-178.5" font-family="Helvetica,sans-Serif" font-size="10.00">Ghost::getNextMove</text>
</a>
</g>
</g>
<!-- Node2 -->
<g id="node2" class="node">
<title>Node2</title>
<g id="a_node2"><a xlink:href="classMovingObject.html#aeffcdeb60f4838b3c2c2529146ab05cc" target="_top" xlink:title="Returns the direction of the object.">
<polygon fill="white" stroke="black" points="153.5,-285.5 153.5,-304.5 303.5,-304.5 303.5,-285.5 153.5,-285.5"/>
<text text-anchor="middle" x="228.5" y="-292.5" font-family="Helvetica,sans-Serif" font-size="10.00">MovingObject::getDirection</text>
</a>
</g>
</g>
<!-- Node1&#45;&gt;Node2 -->
<g id="edge1" class="edge">
<title>Node1&#45;&gt;Node2</title>
<path fill="none" stroke="midnightblue" d="M66.23,-190.78C80.1,-210.17 113.87,-253.52 153,-276 156.88,-278.23 161.02,-280.2 165.29,-281.94"/>
<polygon fill="midnightblue" stroke="midnightblue" points="164.19,-285.27 174.79,-285.41 166.59,-278.69 164.19,-285.27"/>
</g>
<!-- Node3 -->
<g id="node3" class="node">
<title>Node3</title>
<g id="a_node3"><a xlink:href="classGhost.html#ac3ac2d664d53be9c655968bef168fb4d" target="_top" xlink:title=" ">
<polygon fill="white" stroke="black" points="153,-247.5 153,-266.5 304,-266.5 304,-247.5 153,-247.5"/>
<text text-anchor="middle" x="228.5" y="-254.5" font-family="Helvetica,sans-Serif" font-size="10.00">Ghost::getDirectionTowards</text>
</a>
</g>
</g>
<!-- Node1&#45;&gt;Node3 -->
<g id="edge2" class="edge">
<title>Node1&#45;&gt;Node3</title>
<path fill="none" stroke="midnightblue" d="M74.58,-190.6C92.68,-201.84 124.21,-220.5 153,-233 162.54,-237.14 173.02,-240.95 183.05,-244.25"/>
<polygon fill="midnightblue" stroke="midnightblue" points="182.27,-247.68 192.86,-247.39 184.4,-241.01 182.27,-247.68"/>
</g>
<!-- Node4 -->
<g id="node4" class="node">
<title>Node4</title>
<g id="a_node4"><a xlink:href="classMap.html#a3b01db567592d31b0f862e84bf687c75" target="_top" xlink:title="Gets the nearest ghost cage exit.">
<polygon fill="white" stroke="black" points="340,-180.5 340,-199.5 510,-199.5 510,-180.5 340,-180.5"/>
<text text-anchor="middle" x="425" y="-187.5" font-family="Helvetica,sans-Serif" font-size="10.00">Map::getNearestGhostCageExit</text>
</a>
</g>
</g>
<!-- Node1&#45;&gt;Node4 -->
<g id="edge3" class="edge">
<title>Node1&#45;&gt;Node4</title>
<path fill="none" stroke="midnightblue" d="M97.45,-190.51C114.34,-194.27 134.54,-198.14 153,-200 211.52,-205.89 277.46,-203.65 329.64,-199.81"/>
<polygon fill="midnightblue" stroke="midnightblue" points="330.18,-203.28 339.89,-199.02 329.65,-196.3 330.18,-203.28"/>
</g>
<!-- Node5 -->
<g id="node5" class="node">
<title>Node5</title>
<g id="a_node5"><a xlink:href="classMap.html#a46b5bb95de19053da1bc8ff114a0c267" target="_top" xlink:title="Checks if there is a crossroad at the given coordinates.">
<polygon fill="white" stroke="black" points="173,-171.5 173,-190.5 284,-190.5 284,-171.5 173,-171.5"/>
<text text-anchor="middle" x="228.5" y="-178.5" font-family="Helvetica,sans-Serif" font-size="10.00">Map::isCrossroadAt</text>
</a>
</g>
</g>
<!-- Node1&#45;&gt;Node5 -->
<g id="edge4" class="edge">
<title>Node1&#45;&gt;Node5</title>
<path fill="none" stroke="midnightblue" d="M117.32,-181C131.97,-181 147.8,-181 162.77,-181"/>
<polygon fill="midnightblue" stroke="midnightblue" points="162.97,-184.5 172.97,-181 162.97,-177.5 162.97,-184.5"/>
</g>
<!-- Node6 -->
<g id="node6" class="node">
<title>Node6</title>
<g id="a_node6"><a xlink:href="classMap.html#a83e780cb2abc7b2c5ce61910d7d667d1" target="_top" xlink:title="Checks if given position is in ghost cage.">
<polygon fill="white" stroke="black" points="171.5,-133.5 171.5,-152.5 285.5,-152.5 285.5,-133.5 171.5,-133.5"/>
<text text-anchor="middle" x="228.5" y="-140.5" font-family="Helvetica,sans-Serif" font-size="10.00">Map::isInGhostCage</text>
</a>
</g>
</g>
<!-- Node1&#45;&gt;Node6 -->
<g id="edge5" class="edge">
<title>Node1&#45;&gt;Node6</title>
<path fill="none" stroke="midnightblue" d="M101.89,-171.41C124.26,-166.35 151.9,-160.1 175.55,-154.75"/>
<polygon fill="midnightblue" stroke="midnightblue" points="176.43,-158.14 185.41,-152.52 174.89,-151.31 176.43,-158.14"/>
</g>
<!-- Node7 -->
<g id="node7" class="node">
<title>Node7</title>
<g id="a_node7"><a xlink:href="Helpers_8cpp.html#a8f135720b7459904552189a30f57fc34" target="_top" xlink:title=" ">
<polygon fill="white" stroke="black" points="177,-95.5 177,-114.5 280,-114.5 280,-95.5 177,-95.5"/>
<text text-anchor="middle" x="228.5" y="-102.5" font-family="Helvetica,sans-Serif" font-size="10.00">oppositeDirection</text>
</a>
</g>
</g>
<!-- Node1&#45;&gt;Node7 -->
<g id="edge6" class="edge">
<title>Node1&#45;&gt;Node7</title>
<path fill="none" stroke="midnightblue" d="M72.45,-171.37C89.9,-158.81 122.34,-136.91 153,-124 158.81,-121.55 165.02,-119.36 171.27,-117.41"/>
<polygon fill="midnightblue" stroke="midnightblue" points="172.47,-120.71 181.09,-114.56 170.51,-113.99 172.47,-120.71"/>
</g>
<!-- Node8 -->
<g id="node8" class="node">
<title>Node8</title>
<g id="a_node8"><a xlink:href="classGhost.html#a148ba3ee3c09025057a85025e2b74f81" target="_top" xlink:title=" ">
<polygon fill="white" stroke="black" points="182.5,-57.5 182.5,-76.5 274.5,-76.5 274.5,-57.5 182.5,-57.5"/>
<text text-anchor="middle" x="228.5" y="-64.5" font-family="Helvetica,sans-Serif" font-size="10.00">Ghost::tryMove</text>
</a>
</g>
</g>
<!-- Node1&#45;&gt;Node8 -->
<g id="edge7" class="edge">
<title>Node1&#45;&gt;Node8</title>
<path fill="none" stroke="midnightblue" d="M66.23,-171.22C80.1,-151.83 113.87,-108.48 153,-86 158.99,-82.56 165.6,-79.73 172.33,-77.41"/>
<polygon fill="midnightblue" stroke="midnightblue" points="173.71,-80.65 182.24,-74.37 171.65,-73.96 173.71,-80.65"/>
</g>
<!-- Node8&#45;&gt;Node4 -->
<g id="edge9" class="edge">
<title>Node8&#45;&gt;Node4</title>
<path fill="none" stroke="midnightblue" d="M274.86,-72.8C285.11,-75.62 295.47,-79.8 304,-86 328.24,-103.62 318.26,-122.38 340,-143 354.6,-156.84 374.04,-168.06 390.54,-176.06"/>
<polygon fill="midnightblue" stroke="midnightblue" points="389.32,-179.35 399.86,-180.39 392.27,-173 389.32,-179.35"/>
</g>
<!-- Node9 -->
<g id="node9" class="node">
<title>Node9</title>
<g id="a_node9"><a xlink:href="Helpers_8cpp.html#a98742d5d9d01be6137fb4e7005f89248" target="_top" xlink:title=" ">
<polygon fill="white" stroke="black" points="354.5,-114.5 354.5,-133.5 495.5,-133.5 495.5,-114.5 354.5,-114.5"/>
<text text-anchor="middle" x="425" y="-121.5" font-family="Helvetica,sans-Serif" font-size="10.00">calculateNewCoordinates</text>
</a>
</g>
</g>
<!-- Node8&#45;&gt;Node9 -->
<g id="edge8" class="edge">
<title>Node8&#45;&gt;Node9</title>
<path fill="none" stroke="midnightblue" d="M274.16,-76.56C284.12,-79.2 294.53,-82.35 304,-86 320.88,-92.5 323.03,-98.73 340,-105 347.02,-107.6 354.51,-109.9 362.01,-111.93"/>
<polygon fill="midnightblue" stroke="midnightblue" points="361.29,-115.36 371.85,-114.45 363.02,-108.58 361.29,-115.36"/>
</g>
<!-- Node10 -->
<g id="node10" class="node">
<title>Node10</title>
<g id="a_node10"><a xlink:href="classMap.html#a3fa542ef9ff897893adc5a290b224114" target="_top" xlink:title="Gets the map size.">
<polygon fill="white" stroke="black" points="385,-76.5 385,-95.5 465,-95.5 465,-76.5 385,-76.5"/>
<text text-anchor="middle" x="425" y="-83.5" font-family="Helvetica,sans-Serif" font-size="10.00">Map::getSize</text>
</a>
</g>
</g>
<!-- Node8&#45;&gt;Node10 -->
<g id="edge10" class="edge">
<title>Node8&#45;&gt;Node10</title>
<path fill="none" stroke="midnightblue" d="M274.61,-71.41C304.56,-74.33 343.86,-78.17 374.64,-81.18"/>
<polygon fill="midnightblue" stroke="midnightblue" points="374.43,-84.67 384.73,-82.16 375.12,-77.71 374.43,-84.67"/>
</g>
<!-- Node11 -->
<g id="node11" class="node">
<title>Node11</title>
<g id="a_node11"><a xlink:href="classMap.html#a9daf0b81095fe118f2e52fd783ea1bf8" target="_top" xlink:title="Checks if there is a wall at the given coordinates.">
<polygon fill="white" stroke="black" points="383.5,-38.5 383.5,-57.5 466.5,-57.5 466.5,-38.5 383.5,-38.5"/>
<text text-anchor="middle" x="425" y="-45.5" font-family="Helvetica,sans-Serif" font-size="10.00">Map::isWallAt</text>
</a>
</g>
</g>
<!-- Node8&#45;&gt;Node11 -->
<g id="edge11" class="edge">
<title>Node8&#45;&gt;Node11</title>
<path fill="none" stroke="midnightblue" d="M274.61,-62.59C304.15,-59.71 342.81,-55.93 373.39,-52.94"/>
<polygon fill="midnightblue" stroke="midnightblue" points="373.82,-56.42 383.43,-51.96 373.14,-49.45 373.82,-56.42"/>
</g>
<!-- Node12 -->
<g id="node12" class="node">
<title>Node12</title>
<g id="a_node12"><a xlink:href="classGhost.html#aa6cee6d5199e728031a07f703b116a67" target="_top" xlink:title="Moves the object in the given direction.">
<polygon fill="white" stroke="black" points="385.5,-0.5 385.5,-19.5 464.5,-19.5 464.5,-0.5 385.5,-0.5"/>
<text text-anchor="middle" x="425" y="-7.5" font-family="Helvetica,sans-Serif" font-size="10.00">Ghost::move</text>
</a>
</g>
</g>
<!-- Node8&#45;&gt;Node12 -->
<g id="edge12" class="edge">
<title>Node8&#45;&gt;Node12</title>
<path fill="none" stroke="midnightblue" d="M254.71,-57.45C276.94,-49.24 310.34,-37.43 340,-29 351.35,-25.78 363.68,-22.73 375.31,-20.07"/>
<polygon fill="midnightblue" stroke="midnightblue" points="376.31,-23.43 385.31,-17.83 374.78,-16.6 376.31,-23.43"/>
</g>
</g>
</svg>
