<?xml version="1.0" encoding="UTF-8" standalone="no"?>
<!DOCTYPE svg PUBLIC "-//W3C//DTD SVG 1.1//EN"
 "http://www.w3.org/Graphics/SVG/1.1/DTD/svg11.dtd">
<!-- Generated by graphviz version 10.0.1 (0)
 -->
<!-- Title: Window::createMenuWindow Pages: 1 -->
<svg width="642pt" height="66pt"
 viewBox="0.00 0.00 641.50 66.00" xmlns="http://www.w3.org/2000/svg" xmlns:xlink="http://www.w3.org/1999/xlink">
<g id="graph0" class="graph" transform="scale(1 1) rotate(0) translate(4 62)">
<title>Window::createMenuWindow</title>
<!-- Node1 -->
<g id="Node000001" class="node">
<title>Node1</title>
<g id="a_Node000001"><a xlink:title="Creates the main menu window.">
<polygon fill="#999999" stroke="#666666" points="633.5,-39 490,-39 490,-19 633.5,-19 633.5,-39"/>
<text text-anchor="middle" x="561.75" y="-25.5" font-family="Helvetica,sans-Serif" font-size="10.00">Window::createMenuWindow</text>
</a>
</g>
</g>
<!-- Node2 -->
<g id="Node000002" class="node">
<title>Node2</title>
<g id="a_Node000002"><a xlink:href="classWindow.html#a4fbacbbec283653b5500f881c1f7cd7f" target="_top" xlink:title="Draws the main menu.">
<polygon fill="white" stroke="#666666" points="454,-58 351.75,-58 351.75,-38 454,-38 454,-58"/>
<text text-anchor="middle" x="402.88" y="-44.5" font-family="Helvetica,sans-Serif" font-size="10.00">Window::drawMenu</text>
</a>
</g>
</g>
<!-- Node1&#45;&gt;Node2 -->
<g id="edge1_Node000001_Node000002" class="edge">
<title>Node1&#45;&gt;Node2</title>
<g id="a_edge1_Node000001_Node000002"><a xlink:title=" ">
<path fill="none" stroke="#63b8ff" d="M478.38,-38.98C470.1,-39.98 461.89,-40.97 454.1,-41.92"/>
<polygon fill="#63b8ff" stroke="#63b8ff" points="478.65,-42.47 488.15,-37.79 477.81,-35.52 478.65,-42.47"/>
</a>
</g>
</g>
<!-- Node6 -->
<g id="Node000006" class="node">
<title>Node6</title>
<g id="a_Node000006"><a xlink:href="classWindow.html#a56e7061bfcf6df5725b61e3f0399e865" target="_top" xlink:title="Gets the user choice from the main menu.">
<polygon fill="white" stroke="#666666" points="315.75,-20 214.25,-20 214.25,0 315.75,0 315.75,-20"/>
<text text-anchor="middle" x="265" y="-6.5" font-family="Helvetica,sans-Serif" font-size="10.00">Window::getChoice</text>
</a>
</g>
</g>
<!-- Node1&#45;&gt;Node6 -->
<g id="edge5_Node000001_Node000006" class="edge">
<title>Node1&#45;&gt;Node6</title>
<g id="a_edge5_Node000001_Node000006"><a xlink:title=" ">
<path fill="none" stroke="#63b8ff" d="M478.52,-23.7C426.34,-20.34 360.52,-16.09 316.06,-13.23"/>
<polygon fill="#63b8ff" stroke="#63b8ff" points="478.06,-27.18 488.26,-24.33 478.51,-20.19 478.06,-27.18"/>
</a>
</g>
</g>
<!-- Node3 -->
<g id="Node000003" class="node">
<title>Node3</title>
<g id="a_Node000003"><a xlink:href="classWindow.html#a4d8c7f316ef9e8a4488d00c430957c16" target="_top" xlink:title="Initializes ncurses window.">
<polygon fill="white" stroke="#666666" points="300,-58 230,-58 230,-38 300,-38 300,-58"/>
<text text-anchor="middle" x="265" y="-44.5" font-family="Helvetica,sans-Serif" font-size="10.00">Window::init</text>
</a>
</g>
</g>
<!-- Node2&#45;&gt;Node3 -->
<g id="edge2_Node000002_Node000003" class="edge">
<title>Node2&#45;&gt;Node3</title>
<g id="a_edge2_Node000002_Node000003"><a xlink:title=" ">
<path fill="none" stroke="#63b8ff" d="M339.91,-48C326.23,-48 312.23,-48 300.14,-48"/>
<polygon fill="#63b8ff" stroke="#63b8ff" points="339.77,-51.5 349.77,-48 339.77,-44.5 339.77,-51.5"/>
</a>
</g>
</g>
<!-- Node4 -->
<g id="Node000004" class="node">
<title>Node4</title>
<g id="a_Node000004"><a xlink:href="classGameManager.html#a8460b2f4f44c19dd405e4163fe6cb5cf" target="_top" xlink:title=" ">
<polygon fill="white" stroke="#666666" points="178.25,-39 73,-39 73,-19 178.25,-19 178.25,-39"/>
<text text-anchor="middle" x="125.62" y="-25.5" font-family="Helvetica,sans-Serif" font-size="10.00">GameManager::start</text>
</a>
</g>
</g>
<!-- Node3&#45;&gt;Node4 -->
<g id="edge3_Node000003_Node000004" class="edge">
<title>Node3&#45;&gt;Node4</title>
<g id="a_edge3_Node000003_Node000004"><a xlink:title=" ">
<path fill="none" stroke="#63b8ff" d="M218.39,-41.69C205.67,-39.93 191.74,-38.01 178.67,-36.2"/>
<polygon fill="#63b8ff" stroke="#63b8ff" points="217.8,-45.14 228.19,-43.05 218.76,-38.21 217.8,-45.14"/>
</a>
</g>
</g>
<!-- Node5 -->
<g id="Node000005" class="node">
<title>Node5</title>
<g id="a_Node000005"><a xlink:href="main_8cpp.html#ae66f6b31b5ad750f1fe042a706a4e3d4" target="_top" xlink:title=" ">
<polygon fill="white" stroke="#666666" points="37,-39 0,-39 0,-19 37,-19 37,-39"/>
<text text-anchor="middle" x="18.5" y="-25.5" font-family="Helvetica,sans-Serif" font-size="10.00">main</text>
</a>
</g>
</g>
<!-- Node4&#45;&gt;Node5 -->
<g id="edge4_Node000004_Node000005" class="edge">
<title>Node4&#45;&gt;Node5</title>
<g id="a_edge4_Node000004_Node000005"><a xlink:title=" ">
<path fill="none" stroke="#63b8ff" d="M61.32,-29C52.47,-29 44.04,-29 37.1,-29"/>
<polygon fill="#63b8ff" stroke="#63b8ff" points="61.16,-32.5 71.16,-29 61.16,-25.5 61.16,-32.5"/>
</a>
</g>
</g>
<!-- Node6&#45;&gt;Node4 -->
<g id="edge6_Node000006_Node000004" class="edge">
<title>Node6&#45;&gt;Node4</title>
<g id="a_edge6_Node000006_Node000004"><a xlink:title=" ">
<path fill="none" stroke="#63b8ff" d="M202.77,-18.47C194.72,-19.58 186.53,-20.71 178.65,-21.8"/>
<polygon fill="#63b8ff" stroke="#63b8ff" points="203.09,-21.96 212.52,-17.12 202.13,-15.02 203.09,-21.96"/>
</a>
</g>
</g>
</g>
</svg>
