<?xml version="1.0" encoding="UTF-8" standalone="no"?>
<!DOCTYPE svg PUBLIC "-//W3C//DTD SVG 1.1//EN"
 "http://www.w3.org/Graphics/SVG/1.1/DTD/svg11.dtd">
<!-- Generated by graphviz version 2.43.0 (0)
 -->
<!-- Title: MovingObject::setSpeed Pages: 1 -->
<svg width="356pt" height="154pt"
 viewBox="0.00 0.00 356.00 154.00" xmlns="http://www.w3.org/2000/svg" xmlns:xlink="http://www.w3.org/1999/xlink">
<g id="graph0" class="graph" transform="scale(1 1) rotate(0) translate(4 150)">
<title>MovingObject::setSpeed</title>
<polygon fill="white" stroke="transparent" points="-4,4 -4,-150 352,-150 352,4 -4,4"/>
<!-- Node1 -->
<g id="node1" class="node">
<title>Node1</title>
<g id="a_node1"><a xlink:title="Sets the speed of the object.">
<polygon fill="#bfbfbf" stroke="black" points="213,-60.5 213,-79.5 348,-79.5 348,-60.5 213,-60.5"/>
<text text-anchor="middle" x="280.5" y="-67.5" font-family="Helvetica,sans-Serif" font-size="10.00">MovingObject::setSpeed</text>
</a>
</g>
</g>
<!-- Node2 -->
<g id="node2" class="node">
<title>Node2</title>
<g id="a_node2"><a xlink:href="structChaseBehavior.html#a8d61f5095bcec808c915637ece4a1f31" target="_top" xlink:title="Handles the behavior of the enemy when changing the game phase.">
<polygon fill="white" stroke="black" points="2,-126.5 2,-145.5 175,-145.5 175,-126.5 2,-126.5"/>
<text text-anchor="middle" x="88.5" y="-133.5" font-family="Helvetica,sans-Serif" font-size="10.00">ChaseBehavior::handleBehavior</text>
</a>
</g>
</g>
<!-- Node1&#45;&gt;Node2 -->
<g id="edge1" class="edge">
<title>Node1&#45;&gt;Node2</title>
<path fill="none" stroke="midnightblue" d="M252.87,-84.15C232.55,-94.46 203.61,-108.13 177,-117 165.94,-120.69 153.85,-123.85 142.28,-126.47"/>
<polygon fill="midnightblue" stroke="midnightblue" points="254.54,-87.22 261.83,-79.53 251.34,-81 254.54,-87.22"/>
</g>
<!-- Node3 -->
<g id="node3" class="node">
<title>Node3</title>
<g id="a_node3"><a xlink:href="structFrightenedBehavior.html#ab92da9144a40747698da6f7c8476aabd" target="_top" xlink:title="Handles the behavior of the enemy when changing the game phase.">
<polygon fill="white" stroke="black" points="32.5,-77 32.5,-107 144.5,-107 144.5,-77 32.5,-77"/>
<text text-anchor="start" x="40.5" y="-95" font-family="Helvetica,sans-Serif" font-size="10.00">FrightenedBehavior</text>
<text text-anchor="middle" x="88.5" y="-84" font-family="Helvetica,sans-Serif" font-size="10.00">::handleBehavior</text>
</a>
</g>
</g>
<!-- Node1&#45;&gt;Node3 -->
<g id="edge2" class="edge">
<title>Node1&#45;&gt;Node3</title>
<path fill="none" stroke="midnightblue" d="M202.74,-78.89C183.33,-81.14 162.87,-83.51 144.75,-85.6"/>
<polygon fill="midnightblue" stroke="midnightblue" points="203.25,-82.35 212.78,-77.73 202.44,-75.4 203.25,-82.35"/>
</g>
<!-- Node4 -->
<g id="node4" class="node">
<title>Node4</title>
<g id="a_node4"><a xlink:href="structScatterBehavior.html#a71bec433e6f46246abc648cc14a0a9af" target="_top" xlink:title="Handles the behavior of the enemy when changing the game phase.">
<polygon fill="white" stroke="black" points="0,-38.5 0,-57.5 177,-57.5 177,-38.5 0,-38.5"/>
<text text-anchor="middle" x="88.5" y="-45.5" font-family="Helvetica,sans-Serif" font-size="10.00">ScatterBehavior::handleBehavior</text>
</a>
</g>
</g>
<!-- Node1&#45;&gt;Node4 -->
<g id="edge3" class="edge">
<title>Node1&#45;&gt;Node4</title>
<path fill="none" stroke="midnightblue" d="M202.7,-61.11C192.51,-59.93 182.03,-58.71 171.75,-57.52"/>
<polygon fill="midnightblue" stroke="midnightblue" points="202.44,-64.6 212.78,-62.27 203.25,-57.65 202.44,-64.6"/>
</g>
<!-- Node5 -->
<g id="node5" class="node">
<title>Node5</title>
<g id="a_node5"><a xlink:href="classPlayer.html#abc005b0707ae63f395b33d79a876a453" target="_top" xlink:title="Updates the object.">
<polygon fill="white" stroke="black" points="45,-0.5 45,-19.5 132,-19.5 132,-0.5 45,-0.5"/>
<text text-anchor="middle" x="88.5" y="-7.5" font-family="Helvetica,sans-Serif" font-size="10.00">Player::update</text>
</a>
</g>
</g>
<!-- Node1&#45;&gt;Node5 -->
<g id="edge4" class="edge">
<title>Node1&#45;&gt;Node5</title>
<path fill="none" stroke="midnightblue" d="M249.38,-56.41C229.21,-47.69 201.88,-36.62 177,-29 162.58,-24.58 146.53,-20.79 132.15,-17.77"/>
<polygon fill="midnightblue" stroke="midnightblue" points="248.1,-59.67 258.67,-60.47 250.91,-53.26 248.1,-59.67"/>
</g>
</g>
</svg>
