<?xml version="1.0" encoding="UTF-8" standalone="no"?>
<!DOCTYPE svg PUBLIC "-//W3C//DTD SVG 1.1//EN"
 "http://www.w3.org/Graphics/SVG/1.1/DTD/svg11.dtd">
<!-- Generated by graphviz version 10.0.1 (0)
 -->
<!-- Title: Game::initializeGame Pages: 1 -->
<svg width="748pt" height="484pt"
 viewBox="0.00 0.00 748.00 484.00" xmlns="http://www.w3.org/2000/svg" xmlns:xlink="http://www.w3.org/1999/xlink">
<g id="graph0" class="graph" transform="scale(1 1) rotate(0) translate(4 480)">
<title>Game::initializeGame</title>
<!-- Node1 -->
<g id="Node000001" class="node">
<title>Node1</title>
<g id="a_Node000001"><a xlink:title="Initializes the game, loading config, and the map.">
<polygon fill="#999999" stroke="#666666" points="109.75,-300 0,-300 0,-280 109.75,-280 109.75,-300"/>
<text text-anchor="middle" x="54.88" y="-286.5" font-family="Helvetica,sans-Serif" font-size="10.00">Game::initializeGame</text>
</a>
</g>
</g>
<!-- Node2 -->
<g id="Node000002" class="node">
<title>Node2</title>
<g id="a_Node000002"><a xlink:href="classWindow.html#a07c2b4d065cbcb397eafc1a27a337bb7" target="_top" xlink:title="Clears the current window.">
<polygon fill="white" stroke="#666666" points="450,-476 322.25,-476 322.25,-456 450,-456 450,-476"/>
<text text-anchor="middle" x="386.12" y="-462.5" font-family="Helvetica,sans-Serif" font-size="10.00">Window::clearCurrentWin</text>
</a>
</g>
</g>
<!-- Node1&#45;&gt;Node2 -->
<g id="edge1_Node000001_Node000002" class="edge">
<title>Node1&#45;&gt;Node2</title>
<g id="a_edge1_Node000001_Node000002"><a xlink:title=" ">
<path fill="none" stroke="#63b8ff" d="M60.51,-300.18C71.63,-323.41 102.19,-380.53 145.75,-409 172.71,-426.62 250.95,-443.26 310.72,-453.96"/>
<polygon fill="#63b8ff" stroke="#63b8ff" points="310.08,-457.4 320.53,-455.69 311.29,-450.51 310.08,-457.4"/>
</a>
</g>
</g>
<!-- Node3 -->
<g id="Node000003" class="node">
<title>Node3</title>
<g id="a_Node000003"><a xlink:href="classGame.html#a6d54497ce3a66f6dd45eacfdccc8d0bd" target="_top" xlink:title="Draws the game.">
<polygon fill="white" stroke="#666666" points="242.38,-324 173.12,-324 173.12,-304 242.38,-304 242.38,-324"/>
<text text-anchor="middle" x="207.75" y="-310.5" font-family="Helvetica,sans-Serif" font-size="10.00">Game::draw</text>
</a>
</g>
</g>
<!-- Node1&#45;&gt;Node3 -->
<g id="edge2_Node000001_Node000003" class="edge">
<title>Node1&#45;&gt;Node3</title>
<g id="a_edge2_Node000001_Node000003"><a xlink:title=" ">
<path fill="none" stroke="#63b8ff" d="M109.92,-298.6C126.79,-301.28 145.22,-304.21 161.43,-306.79"/>
<polygon fill="#63b8ff" stroke="#63b8ff" points="160.87,-310.25 171.3,-308.36 161.97,-303.33 160.87,-310.25"/>
</a>
</g>
</g>
<!-- Node10 -->
<g id="Node000010" class="node">
<title>Node10</title>
<g id="a_Node000010"><a xlink:href="classWindow.html#a2238e5489102fe2a77e7898a07dc37b5" target="_top" xlink:title="Gets text input from the user.">
<polygon fill="white" stroke="#666666" points="254,-400 161.5,-400 161.5,-380 254,-380 254,-400"/>
<text text-anchor="middle" x="207.75" y="-386.5" font-family="Helvetica,sans-Serif" font-size="10.00">Window::getInput</text>
</a>
</g>
</g>
<!-- Node1&#45;&gt;Node10 -->
<g id="edge10_Node000001_Node000010" class="edge">
<title>Node1&#45;&gt;Node10</title>
<g id="a_edge10_Node000001_Node000010"><a xlink:title=" ">
<path fill="none" stroke="#63b8ff" d="M64.5,-300.24C79.39,-317.3 111.62,-351.56 145.75,-371 148.41,-372.52 151.21,-373.93 154.09,-375.24"/>
<polygon fill="#63b8ff" stroke="#63b8ff" points="152.74,-378.47 163.32,-378.98 155.37,-371.98 152.74,-378.47"/>
</a>
</g>
</g>
<!-- Node11 -->
<g id="Node000011" class="node">
<title>Node11</title>
<g id="a_Node000011"><a xlink:href="classConfig.html#a683f3adeacbde8622e8c46cc2f9dee25" target="_top" xlink:title="Gets the map file path.">
<polygon fill="white" stroke="#666666" points="249.88,-362 165.62,-362 165.62,-342 249.88,-342 249.88,-362"/>
<text text-anchor="middle" x="207.75" y="-348.5" font-family="Helvetica,sans-Serif" font-size="10.00">Config::getPath</text>
</a>
</g>
</g>
<!-- Node1&#45;&gt;Node11 -->
<g id="edge12_Node000001_Node000011" class="edge">
<title>Node1&#45;&gt;Node11</title>
<g id="a_edge12_Node000001_Node000011"><a xlink:title=" ">
<path fill="none" stroke="#63b8ff" d="M75.5,-300.4C93.47,-309.68 120.95,-323.27 145.75,-333 150.16,-334.73 154.8,-336.42 159.47,-338.02"/>
<polygon fill="#63b8ff" stroke="#63b8ff" points="158.29,-341.32 168.89,-341.12 160.49,-334.67 158.29,-341.32"/>
</a>
</g>
</g>
<!-- Node12 -->
<g id="Node000012" class="node">
<title>Node12</title>
<g id="a_Node000012"><a xlink:href="classConfig.html#a62c7c2d485cb30374271dba0eafe63c8" target="_top" xlink:title="Gets any value from the config map.">
<polygon fill="white" stroke="#666666" points="430.12,-210 342.12,-210 342.12,-190 430.12,-190 430.12,-210"/>
<text text-anchor="middle" x="386.12" y="-196.5" font-family="Helvetica,sans-Serif" font-size="10.00">Config::getValue</text>
</a>
</g>
</g>
<!-- Node1&#45;&gt;Node12 -->
<g id="edge13_Node000001_Node000012" class="edge">
<title>Node1&#45;&gt;Node12</title>
<g id="a_edge13_Node000001_Node000012"><a xlink:title=" ">
<path fill="none" stroke="#63b8ff" d="M77.24,-279.63C95.19,-271.25 121.69,-259.63 145.75,-252 207.86,-232.31 281.37,-217.56 330.39,-208.89"/>
<polygon fill="#63b8ff" stroke="#63b8ff" points="330.94,-212.35 340.19,-207.19 329.74,-205.45 330.94,-212.35"/>
</a>
</g>
</g>
<!-- Node13 -->
<g id="Node000013" class="node">
<title>Node13</title>
<g id="a_Node000013"><a xlink:href="classMap.html#a2657d897204aaedba0e8e4f01b2e1efc" target="_top" xlink:title="Loads the map from a file.">
<polygon fill="white" stroke="#666666" points="246.5,-281 169,-281 169,-261 246.5,-261 246.5,-281"/>
<text text-anchor="middle" x="207.75" y="-267.5" font-family="Helvetica,sans-Serif" font-size="10.00">Map::loadMap</text>
</a>
</g>
</g>
<!-- Node1&#45;&gt;Node13 -->
<g id="edge14_Node000001_Node000013" class="edge">
<title>Node1&#45;&gt;Node13</title>
<g id="a_edge14_Node000001_Node000013"><a xlink:title=" ">
<path fill="none" stroke="#63b8ff" d="M109.92,-283.19C125.42,-281.24 142.23,-279.13 157.42,-277.21"/>
<polygon fill="#63b8ff" stroke="#63b8ff" points="157.7,-280.71 167.18,-275.98 156.82,-273.76 157.7,-280.71"/>
</a>
</g>
</g>
<!-- Node19 -->
<g id="Node000019" class="node">
<title>Node19</title>
<g id="a_Node000019"><a xlink:href="classGame.html#a1290bdc979d75815efe4d21e83a806cb" target="_top" xlink:title="Loads the object from the map.">
<polygon fill="white" stroke="#666666" points="257.75,-191 157.75,-191 157.75,-171 257.75,-171 257.75,-191"/>
<text text-anchor="middle" x="207.75" y="-177.5" font-family="Helvetica,sans-Serif" font-size="10.00">Game::loadObjects</text>
</a>
</g>
</g>
<!-- Node1&#45;&gt;Node19 -->
<g id="edge20_Node000001_Node000019" class="edge">
<title>Node1&#45;&gt;Node19</title>
<g id="a_edge20_Node000001_Node000019"><a xlink:title=" ">
<path fill="none" stroke="#63b8ff" d="M65.6,-279.62C81.3,-263.28 113.72,-231.24 145.75,-210 153.38,-204.94 162.02,-200.27 170.36,-196.23"/>
<polygon fill="#63b8ff" stroke="#63b8ff" points="171.68,-199.47 179.28,-192.09 168.73,-193.12 171.68,-199.47"/>
</a>
</g>
</g>
<!-- Node22 -->
<g id="Node000022" class="node">
<title>Node22</title>
<g id="a_Node000022"><a xlink:href="classLeaderboard.html#a43ac1b937341b8e5b3bd8b33200034d1" target="_top" xlink:title="Loads the scores from a file.">
<polygon fill="white" stroke="#666666" points="269.75,-96 145.75,-96 145.75,-76 269.75,-76 269.75,-96"/>
<text text-anchor="middle" x="207.75" y="-82.5" font-family="Helvetica,sans-Serif" font-size="10.00">Leaderboard::loadScores</text>
</a>
</g>
</g>
<!-- Node1&#45;&gt;Node22 -->
<g id="edge24_Node000001_Node000022" class="edge">
<title>Node1&#45;&gt;Node22</title>
<g id="a_edge24_Node000001_Node000022"><a xlink:title=" ">
<path fill="none" stroke="#63b8ff" d="M62.88,-279.55C77.72,-257.51 113.62,-204.77 145.75,-162 160.73,-142.06 178.68,-119.88 191.22,-104.66"/>
<polygon fill="#63b8ff" stroke="#63b8ff" points="193.61,-107.26 197.28,-97.33 188.21,-102.8 193.61,-107.26"/>
</a>
</g>
</g>
<!-- Node25 -->
<g id="Node000025" class="node">
<title>Node25</title>
<g id="a_Node000025"><a xlink:href="classWindow.html#aba37c5e32e43d21a46968fd8ada1d327" target="_top" xlink:title="Prints the message to the current window.">
<polygon fill="white" stroke="#666666" points="265.62,-476 149.88,-476 149.88,-456 265.62,-456 265.62,-476"/>
<text text-anchor="middle" x="207.75" y="-462.5" font-family="Helvetica,sans-Serif" font-size="10.00">Window::printMessage</text>
</a>
</g>
</g>
<!-- Node1&#45;&gt;Node25 -->
<g id="edge27_Node000001_Node000025" class="edge">
<title>Node1&#45;&gt;Node25</title>
<g id="a_edge27_Node000001_Node000025"><a xlink:title=" ">
<path fill="none" stroke="#63b8ff" d="M59.32,-300.44C68.78,-327.57 97.69,-401.04 145.75,-442 149.61,-445.29 153.96,-448.16 158.54,-450.65"/>
<polygon fill="#63b8ff" stroke="#63b8ff" points="156.87,-453.74 167.4,-454.89 159.89,-447.42 156.87,-453.74"/>
</a>
</g>
</g>
<!-- Node26 -->
<g id="Node000026" class="node">
<title>Node26</title>
<g id="a_Node000026"><a xlink:href="classGamePhase.html#af152a5e182080af728f34e66b29079c5" target="_top" xlink:title="Sets the current game phase.">
<polygon fill="white" stroke="#666666" points="266.38,-39 149.12,-39 149.12,-19 266.38,-19 266.38,-39"/>
<text text-anchor="middle" x="207.75" y="-25.5" font-family="Helvetica,sans-Serif" font-size="10.00">GamePhase::setPhase</text>
</a>
</g>
</g>
<!-- Node1&#45;&gt;Node26 -->
<g id="edge29_Node000001_Node000026" class="edge">
<title>Node1&#45;&gt;Node26</title>
<g id="a_edge29_Node000001_Node000026"><a xlink:title=" ">
<path fill="none" stroke="#63b8ff" d="M57.61,-279.96C63.87,-246.31 88.05,-135.73 145.75,-67 153.13,-58.21 163.09,-50.82 172.82,-44.97"/>
<polygon fill="#63b8ff" stroke="#63b8ff" points="174.4,-48.1 181.43,-40.18 170.99,-41.98 174.4,-48.1"/>
</a>
</g>
</g>
<!-- Node4 -->
<g id="Node000004" class="node">
<title>Node4</title>
<g id="a_Node000004"><a xlink:href="classGamePhase.html#a337c0a04d2c1d159ff9a98e99e11116a" target="_top" xlink:title="Returns the current level.">
<polygon fill="white" stroke="#666666" points="442.5,-324 329.75,-324 329.75,-304 442.5,-304 442.5,-324"/>
<text text-anchor="middle" x="386.12" y="-310.5" font-family="Helvetica,sans-Serif" font-size="10.00">GamePhase::getLevel</text>
</a>
</g>
</g>
<!-- Node3&#45;&gt;Node4 -->
<g id="edge3_Node000003_Node000004" class="edge">
<title>Node3&#45;&gt;Node4</title>
<g id="a_edge3_Node000003_Node000004"><a xlink:title=" ">
<path fill="none" stroke="#63b8ff" d="M242.76,-314C264.12,-314 292.41,-314 318.14,-314"/>
<polygon fill="#63b8ff" stroke="#63b8ff" points="317.85,-317.5 327.85,-314 317.85,-310.5 317.85,-317.5"/>
</a>
</g>
</g>
<!-- Node5 -->
<g id="Node000005" class="node">
<title>Node5</title>
<g id="a_Node000005"><a xlink:href="classGamePhase.html#a1e01dd9cbefce12ad832102c3a9ed3a2" target="_top" xlink:title="Returns the number of remaining items.">
<polygon fill="white" stroke="#666666" points="466.5,-286 305.75,-286 305.75,-266 466.5,-266 466.5,-286"/>
<text text-anchor="middle" x="386.12" y="-272.5" font-family="Helvetica,sans-Serif" font-size="10.00">GamePhase::getRemainingItems</text>
</a>
</g>
</g>
<!-- Node3&#45;&gt;Node5 -->
<g id="edge4_Node000003_Node000005" class="edge">
<title>Node3&#45;&gt;Node5</title>
<g id="a_edge4_Node000003_Node000005"><a xlink:title=" ">
<path fill="none" stroke="#63b8ff" d="M242.76,-306.67C266.16,-301.63 297.87,-294.8 325.43,-288.86"/>
<polygon fill="#63b8ff" stroke="#63b8ff" points="326.03,-292.31 335.07,-286.78 324.56,-285.47 326.03,-292.31"/>
</a>
</g>
</g>
<!-- Node6 -->
<g id="Node000006" class="node">
<title>Node6</title>
<g id="a_Node000006"><a xlink:href="classWindow.html#aaa279ff498c917ba2535b26e5f396c7c" target="_top" xlink:title="Prints character at given position, default color.">
<polygon fill="white" stroke="#666666" points="439.5,-438 332.75,-438 332.75,-418 439.5,-418 439.5,-438"/>
<text text-anchor="middle" x="386.12" y="-424.5" font-family="Helvetica,sans-Serif" font-size="10.00">Window::printCharAt</text>
</a>
</g>
</g>
<!-- Node3&#45;&gt;Node6 -->
<g id="edge5_Node000003_Node000006" class="edge">
<title>Node3&#45;&gt;Node6</title>
<g id="a_edge5_Node000003_Node000006"><a xlink:title=" ">
<path fill="none" stroke="#63b8ff" d="M242.61,-319.26C252.22,-322.07 262.13,-326.38 269.75,-333 297.97,-357.51 276.73,-385.45 305.75,-409 310.56,-412.91 316.05,-416.03 321.84,-418.53"/>
<polygon fill="#63b8ff" stroke="#63b8ff" points="320.49,-421.76 331.08,-421.87 322.87,-415.18 320.49,-421.76"/>
</a>
</g>
</g>
<!-- Node7 -->
<g id="Node000007" class="node">
<title>Node7</title>
<g id="a_Node000007"><a xlink:href="classWindow.html#a7f8803b32163553cf314fa01b703c9a8" target="_top" xlink:title="Prints the game UI.">
<polygon fill="white" stroke="#666666" points="429.38,-400 342.88,-400 342.88,-380 429.38,-380 429.38,-400"/>
<text text-anchor="middle" x="386.12" y="-386.5" font-family="Helvetica,sans-Serif" font-size="10.00">Window::printUI</text>
</a>
</g>
</g>
<!-- Node3&#45;&gt;Node7 -->
<g id="edge6_Node000003_Node000007" class="edge">
<title>Node3&#45;&gt;Node7</title>
<g id="a_edge6_Node000003_Node000007"><a xlink:title=" ">
<path fill="none" stroke="#63b8ff" d="M242.78,-321.72C251.88,-324.54 261.48,-328.24 269.75,-333 288.57,-343.82 286.89,-355.26 305.75,-366 313.75,-370.56 322.72,-374.34 331.66,-377.44"/>
<polygon fill="#63b8ff" stroke="#63b8ff" points="330.45,-380.73 341.04,-380.44 332.58,-374.07 330.45,-380.73"/>
</a>
</g>
</g>
<!-- Node9 -->
<g id="Node000009" class="node">
<title>Node9</title>
<g id="a_Node000009"><a xlink:href="classWindow.html#a3c38bfdaf7cb6ebcfdbcb40916a72bf7" target="_top" xlink:title="Refreshes the current window.">
<polygon fill="white" stroke="#666666" points="608.88,-362 504.38,-362 504.38,-342 608.88,-342 608.88,-362"/>
<text text-anchor="middle" x="556.62" y="-348.5" font-family="Helvetica,sans-Serif" font-size="10.00">Window::refreshWin</text>
</a>
</g>
</g>
<!-- Node3&#45;&gt;Node9 -->
<g id="edge9_Node000003_Node000009" class="edge">
<title>Node3&#45;&gt;Node9</title>
<g id="a_edge9_Node000003_Node000009"><a xlink:title=" ">
<path fill="none" stroke="#63b8ff" d="M242.7,-321.67C261.25,-325.6 284.66,-330.14 305.75,-333 369.15,-341.59 442.15,-346.58 492.82,-349.27"/>
<polygon fill="#63b8ff" stroke="#63b8ff" points="492.56,-352.76 502.72,-349.78 492.92,-345.77 492.56,-352.76"/>
</a>
</g>
</g>
<!-- Node8 -->
<g id="Node000008" class="node">
<title>Node8</title>
<g id="a_Node000008"><a xlink:href="classWindow.html#aad6d9b11314512a7fbc775a3fef9ca1c" target="_top" xlink:title="Helper function for printing lives.">
<polygon fill="white" stroke="#666666" points="606.25,-400 507,-400 507,-380 606.25,-380 606.25,-400"/>
<text text-anchor="middle" x="556.62" y="-386.5" font-family="Helvetica,sans-Serif" font-size="10.00">Window::printLives</text>
</a>
</g>
</g>
<!-- Node7&#45;&gt;Node8 -->
<g id="edge7_Node000007_Node000008" class="edge">
<title>Node7&#45;&gt;Node8</title>
<g id="a_edge7_Node000007_Node000008"><a xlink:title=" ">
<path fill="none" stroke="#63b8ff" d="M429.64,-390C449.48,-390 473.44,-390 495.12,-390"/>
<polygon fill="#63b8ff" stroke="#63b8ff" points="495.03,-393.5 505.03,-390 495.03,-386.5 495.03,-393.5"/>
</a>
</g>
</g>
<!-- Node7&#45;&gt;Node9 -->
<g id="edge8_Node000007_Node000009" class="edge">
<title>Node7&#45;&gt;Node9</title>
<g id="a_edge8_Node000007_Node000009"><a xlink:title=" ">
<path fill="none" stroke="#63b8ff" d="M429.64,-380.41C450.41,-375.73 475.7,-370.02 498.16,-364.96"/>
<polygon fill="#63b8ff" stroke="#63b8ff" points="498.81,-368.4 507.79,-362.79 497.27,-361.57 498.81,-368.4"/>
</a>
</g>
</g>
<!-- Node10&#45;&gt;Node2 -->
<g id="edge11_Node000010_Node000002" class="edge">
<title>Node10&#45;&gt;Node2</title>
<g id="a_edge11_Node000010_Node000002"><a xlink:title=" ">
<path fill="none" stroke="#63b8ff" d="M241.79,-400.46C251.17,-404.1 261.16,-408.63 269.75,-414 288.16,-425.5 286.58,-436.81 305.75,-447 309,-448.73 312.41,-450.3 315.92,-451.73"/>
<polygon fill="#63b8ff" stroke="#63b8ff" points="314.62,-454.99 325.22,-455.1 317.01,-448.41 314.62,-454.99"/>
</a>
</g>
</g>
<!-- Node14 -->
<g id="Node000014" class="node">
<title>Node14</title>
<g id="a_Node000014"><a xlink:href="classMap.html#ab1c2595a555457c0a764a0530b57c0f9" target="_top" xlink:title="Helper function for validating map string.">
<polygon fill="white" stroke="#666666" points="433.12,-248 339.12,-248 339.12,-228 433.12,-228 433.12,-248"/>
<text text-anchor="middle" x="386.12" y="-234.5" font-family="Helvetica,sans-Serif" font-size="10.00">Map::processMap</text>
</a>
</g>
</g>
<!-- Node13&#45;&gt;Node14 -->
<g id="edge15_Node000013_Node000014" class="edge">
<title>Node13&#45;&gt;Node14</title>
<g id="a_edge15_Node000013_Node000014"><a xlink:title=" ">
<path fill="none" stroke="#63b8ff" d="M246.59,-263.92C270.23,-259.5 301.15,-253.71 327.77,-248.73"/>
<polygon fill="#63b8ff" stroke="#63b8ff" points="328.21,-252.21 337.39,-246.93 326.92,-245.33 328.21,-252.21"/>
</a>
</g>
</g>
<!-- Node15 -->
<g id="Node000015" class="node">
<title>Node15</title>
<g id="a_Node000015"><a xlink:href="classMap.html#a41b623a0d503b94bf8412ca06296ae1f" target="_top" xlink:title="Helper function for finding crossroads.">
<polygon fill="white" stroke="#666666" points="610,-210 503.25,-210 503.25,-190 610,-190 610,-210"/>
<text text-anchor="middle" x="556.62" y="-196.5" font-family="Helvetica,sans-Serif" font-size="10.00">Map::findCrossroads</text>
</a>
</g>
</g>
<!-- Node14&#45;&gt;Node15 -->
<g id="edge16_Node000014_Node000015" class="edge">
<title>Node14&#45;&gt;Node15</title>
<g id="a_edge16_Node000014_Node000015"><a xlink:title=" ">
<path fill="none" stroke="#63b8ff" d="M433.61,-227.52C453.6,-223.01 477.15,-217.7 498.21,-212.95"/>
<polygon fill="#63b8ff" stroke="#63b8ff" points="498.83,-216.4 507.81,-210.78 497.29,-209.57 498.83,-216.4"/>
</a>
</g>
</g>
<!-- Node17 -->
<g id="Node000017" class="node">
<title>Node17</title>
<g id="a_Node000017"><a xlink:href="classMap.html#ae96ad32d3b1600cd41e4a1c3b6a30906" target="_top" xlink:title="Checks if the map is traversable from the given position.">
<polygon fill="white" stroke="#666666" points="610.75,-286 502.5,-286 502.5,-266 610.75,-266 610.75,-286"/>
<text text-anchor="middle" x="556.62" y="-272.5" font-family="Helvetica,sans-Serif" font-size="10.00">Map::traversableBFS</text>
</a>
</g>
</g>
<!-- Node14&#45;&gt;Node17 -->
<g id="edge18_Node000014_Node000017" class="edge">
<title>Node14&#45;&gt;Node17</title>
<g id="a_edge18_Node000014_Node000017"><a xlink:title=" ">
<path fill="none" stroke="#63b8ff" d="M433.61,-248.48C453.6,-252.99 477.15,-258.3 498.21,-263.05"/>
<polygon fill="#63b8ff" stroke="#63b8ff" points="497.29,-266.43 507.81,-265.22 498.83,-259.6 497.29,-266.43"/>
</a>
</g>
</g>
<!-- Node18 -->
<g id="Node000018" class="node">
<title>Node18</title>
<g id="a_Node000018"><a xlink:href="classMap.html#ad35b3432f383ea258d0ed06fe937c3b9" target="_top" xlink:title="Helper function for validating the map borders.">
<polygon fill="white" stroke="#666666" points="608.12,-248 505.12,-248 505.12,-228 608.12,-228 608.12,-248"/>
<text text-anchor="middle" x="556.62" y="-234.5" font-family="Helvetica,sans-Serif" font-size="10.00">Map::validateBorder</text>
</a>
</g>
</g>
<!-- Node14&#45;&gt;Node18 -->
<g id="edge19_Node000014_Node000018" class="edge">
<title>Node14&#45;&gt;Node18</title>
<g id="a_edge19_Node000014_Node000018"><a xlink:title=" ">
<path fill="none" stroke="#63b8ff" d="M433.61,-238C452.1,-238 473.64,-238 493.44,-238"/>
<polygon fill="#63b8ff" stroke="#63b8ff" points="493.34,-241.5 503.34,-238 493.34,-234.5 493.34,-241.5"/>
</a>
</g>
</g>
<!-- Node16 -->
<g id="Node000016" class="node">
<title>Node16</title>
<g id="a_Node000016"><a xlink:href="classMap.html#a7d8219ae1c1ff2f45f7e11c5d03dcdb7" target="_top" xlink:title="Checks if given coordinates are a crossroad.">
<polygon fill="white" stroke="#666666" points="740,-210 646.75,-210 646.75,-190 740,-190 740,-210"/>
<text text-anchor="middle" x="693.38" y="-196.5" font-family="Helvetica,sans-Serif" font-size="10.00">Map::isCrossroad</text>
</a>
</g>
</g>
<!-- Node15&#45;&gt;Node16 -->
<g id="edge17_Node000015_Node000016" class="edge">
<title>Node15&#45;&gt;Node16</title>
<g id="a_edge17_Node000015_Node000016"><a xlink:title=" ">
<path fill="none" stroke="#63b8ff" d="M610.5,-200C618.61,-200 627.03,-200 635.23,-200"/>
<polygon fill="#63b8ff" stroke="#63b8ff" points="635.13,-203.5 645.13,-200 635.13,-196.5 635.13,-203.5"/>
</a>
</g>
</g>
<!-- Node19&#45;&gt;Node12 -->
<g id="edge23_Node000019_Node000012" class="edge">
<title>Node19&#45;&gt;Node12</title>
<g id="a_edge23_Node000019_Node000012"><a xlink:title=" ">
<path fill="none" stroke="#63b8ff" d="M257.88,-186.29C280.38,-188.72 307.12,-191.6 330.28,-194.09"/>
<polygon fill="#63b8ff" stroke="#63b8ff" points="329.84,-197.56 340.16,-195.16 330.59,-190.61 329.84,-197.56"/>
</a>
</g>
</g>
<!-- Node20 -->
<g id="Node000020" class="node">
<title>Node20</title>
<g id="a_Node000020"><a xlink:href="classGamePhase.html#a2597fc4aa3837ecc9146f29b18840855" target="_top" xlink:title="Adds an item to the remaining items.">
<polygon fill="white" stroke="#666666" points="441.75,-134 330.5,-134 330.5,-114 441.75,-114 441.75,-134"/>
<text text-anchor="middle" x="386.12" y="-120.5" font-family="Helvetica,sans-Serif" font-size="10.00">GamePhase::addItem</text>
</a>
</g>
</g>
<!-- Node19&#45;&gt;Node20 -->
<g id="edge21_Node000019_Node000020" class="edge">
<title>Node19&#45;&gt;Node20</title>
<g id="a_edge21_Node000019_Node000020"><a xlink:title=" ">
<path fill="none" stroke="#63b8ff" d="M232.73,-170.53C252.17,-162.31 280.38,-150.96 305.75,-143 312.23,-140.97 319.06,-139.03 325.89,-137.22"/>
<polygon fill="#63b8ff" stroke="#63b8ff" points="326.27,-140.74 335.09,-134.87 324.54,-133.95 326.27,-140.74"/>
</a>
</g>
</g>
<!-- Node21 -->
<g id="Node000021" class="node">
<title>Node21</title>
<g id="a_Node000021"><a xlink:href="classMap.html#a44f2313ac9b9ba0b93a664e87c440613" target="_top" xlink:title="Gets the map.">
<polygon fill="white" stroke="#666666" points="422.62,-172 349.62,-172 349.62,-152 422.62,-152 422.62,-172"/>
<text text-anchor="middle" x="386.12" y="-158.5" font-family="Helvetica,sans-Serif" font-size="10.00">Map::getMap</text>
</a>
</g>
</g>
<!-- Node19&#45;&gt;Node21 -->
<g id="edge22_Node000019_Node000021" class="edge">
<title>Node19&#45;&gt;Node21</title>
<g id="a_edge22_Node000019_Node000021"><a xlink:title=" ">
<path fill="none" stroke="#63b8ff" d="M257.88,-175.71C282.96,-173.01 313.32,-169.74 338.09,-167.07"/>
<polygon fill="#63b8ff" stroke="#63b8ff" points="338.33,-170.56 347.89,-166.01 337.58,-163.6 338.33,-170.56"/>
</a>
</g>
</g>
<!-- Node23 -->
<g id="Node000023" class="node">
<title>Node23</title>
<g id="a_Node000023"><a xlink:href="classLeaderboard.html#aaf22ea54d8b0e7e5d2bf5c3b9dcbdee2" target="_top" xlink:title="Creates a save file.">
<polygon fill="white" stroke="#666666" points="448.5,-58 323.75,-58 323.75,-38 448.5,-38 448.5,-58"/>
<text text-anchor="middle" x="386.12" y="-44.5" font-family="Helvetica,sans-Serif" font-size="10.00">Leaderboard::createSave</text>
</a>
</g>
</g>
<!-- Node22&#45;&gt;Node23 -->
<g id="edge25_Node000022_Node000023" class="edge">
<title>Node22&#45;&gt;Node23</title>
<g id="a_edge25_Node000022_Node000023"><a xlink:title=" ">
<path fill="none" stroke="#63b8ff" d="M257.41,-75.52C278.52,-70.97 303.44,-65.6 325.64,-60.82"/>
<polygon fill="#63b8ff" stroke="#63b8ff" points="326.1,-64.3 335.14,-58.77 324.63,-57.45 326.1,-64.3"/>
</a>
</g>
</g>
<!-- Node24 -->
<g id="Node000024" class="node">
<title>Node24</title>
<g id="a_Node000024"><a xlink:href="classLeaderboard.html#a9d9d83737bf8412fa71cb1c238c059f6" target="_top" xlink:title="Reads a value from binary save file.">
<polygon fill="white" stroke="#666666" points="433.12,-96 339.12,-96 339.12,-76 433.12,-76 433.12,-96"/>
<text text-anchor="middle" x="386.12" y="-82.5" font-family="Helvetica,sans-Serif" font-size="10.00">Leaderboard::read</text>
</a>
</g>
</g>
<!-- Node22&#45;&gt;Node24 -->
<g id="edge26_Node000022_Node000024" class="edge">
<title>Node22&#45;&gt;Node24</title>
<g id="a_edge26_Node000022_Node000024"><a xlink:title=" ">
<path fill="none" stroke="#63b8ff" d="M269.94,-86C288.56,-86 308.95,-86 327.33,-86"/>
<polygon fill="#63b8ff" stroke="#63b8ff" points="327.27,-89.5 337.27,-86 327.27,-82.5 327.27,-89.5"/>
</a>
</g>
</g>
<!-- Node25&#45;&gt;Node2 -->
<g id="edge28_Node000025_Node000002" class="edge">
<title>Node25&#45;&gt;Node2</title>
<g id="a_edge28_Node000025_Node000002"><a xlink:title=" ">
<path fill="none" stroke="#63b8ff" d="M266.01,-466C280.28,-466 295.79,-466 310.75,-466"/>
<polygon fill="#63b8ff" stroke="#63b8ff" points="310.54,-469.5 320.54,-466 310.54,-462.5 310.54,-469.5"/>
</a>
</g>
</g>
<!-- Node27 -->
<g id="Node000027" class="node">
<title>Node27</title>
<g id="a_Node000027"><a xlink:href="classGamePhase.html#a097fcd119e1cce98533b731f7e6ae53d" target="_top" xlink:title="Sets the time of the current phase.">
<polygon fill="white" stroke="#666666" points="455.62,-20 316.62,-20 316.62,0 455.62,0 455.62,-20"/>
<text text-anchor="middle" x="386.12" y="-6.5" font-family="Helvetica,sans-Serif" font-size="10.00">GamePhase::setPhaseTime</text>
</a>
</g>
</g>
<!-- Node26&#45;&gt;Node27 -->
<g id="edge30_Node000026_Node000027" class="edge">
<title>Node26&#45;&gt;Node27</title>
<g id="a_edge30_Node000026_Node000027"><a xlink:title=" ">
<path fill="none" stroke="#63b8ff" d="M266.5,-22.78C278.78,-21.46 291.95,-20.04 304.9,-18.64"/>
<polygon fill="#63b8ff" stroke="#63b8ff" points="305.11,-22.14 314.68,-17.59 304.36,-15.18 305.11,-22.14"/>
</a>
</g>
</g>
</g>
</svg>
