<?xml version="1.0" encoding="UTF-8" standalone="no"?>
<!DOCTYPE svg PUBLIC "-//W3C//DTD SVG 1.1//EN"
 "http://www.w3.org/Graphics/SVG/1.1/DTD/svg11.dtd">
<!-- Generated by graphviz version 10.0.1 (0)
 -->
<!-- Title: Game::end Pages: 1 -->
<svg width="584pt" height="370pt"
 viewBox="0.00 0.00 584.25 370.00" xmlns="http://www.w3.org/2000/svg" xmlns:xlink="http://www.w3.org/1999/xlink">
<g id="graph0" class="graph" transform="scale(1 1) rotate(0) translate(4 366)">
<title>Game::end</title>
<!-- Node1 -->
<g id="Node000001" class="node">
<title>Node1</title>
<g id="a_Node000001"><a xlink:title="Ends the game.">
<polygon fill="#999999" stroke="#666666" points="64,-191 0,-191 0,-171 64,-171 64,-191"/>
<text text-anchor="middle" x="32" y="-177.5" font-family="Helvetica,sans-Serif" font-size="10.00">Game::end</text>
</a>
</g>
</g>
<!-- Node2 -->
<g id="Node000002" class="node">
<title>Node2</title>
<g id="a_Node000002"><a xlink:href="classLeaderboard.html#a24c17b1bdb86b112887b0ecdd3c61fa3" target="_top" xlink:title="Adds a score to the leaderboard.">
<polygon fill="white" stroke="#666666" points="225.88,-362 109.38,-362 109.38,-342 225.88,-342 225.88,-362"/>
<text text-anchor="middle" x="167.62" y="-348.5" font-family="Helvetica,sans-Serif" font-size="10.00">Leaderboard::addScore</text>
</a>
</g>
</g>
<!-- Node1&#45;&gt;Node2 -->
<g id="edge1_Node000001_Node000002" class="edge">
<title>Node1&#45;&gt;Node2</title>
<g id="a_edge1_Node000001_Node000002"><a xlink:title=" ">
<path fill="none" stroke="#63b8ff" d="M34.81,-191.15C40.02,-217.52 57.51,-288.85 100,-328 103.66,-331.37 107.83,-334.28 112.25,-336.78"/>
<polygon fill="#63b8ff" stroke="#63b8ff" points="110.36,-339.75 120.88,-340.98 113.42,-333.46 110.36,-339.75"/>
</a>
</g>
</g>
<!-- Node3 -->
<g id="Node000003" class="node">
<title>Node3</title>
<g id="a_Node000003"><a xlink:href="classWindow.html#a07c2b4d065cbcb397eafc1a27a337bb7" target="_top" xlink:title="Clears the current window.">
<polygon fill="white" stroke="#666666" points="576.25,-229 448.5,-229 448.5,-209 576.25,-209 576.25,-229"/>
<text text-anchor="middle" x="512.38" y="-215.5" font-family="Helvetica,sans-Serif" font-size="10.00">Window::clearCurrentWin</text>
</a>
</g>
</g>
<!-- Node1&#45;&gt;Node3 -->
<g id="edge2_Node000001_Node000003" class="edge">
<title>Node1&#45;&gt;Node3</title>
<g id="a_edge2_Node000001_Node000003"><a xlink:title=" ">
<path fill="none" stroke="#63b8ff" d="M64.39,-183.49C139.4,-189.45 330.7,-204.65 437.12,-213.1"/>
<polygon fill="#63b8ff" stroke="#63b8ff" points="436.65,-216.58 446.9,-213.88 437.21,-209.6 436.65,-216.58"/>
</a>
</g>
</g>
<!-- Node4 -->
<g id="Node000004" class="node">
<title>Node4</title>
<g id="a_Node000004"><a xlink:href="classMap.html#a7ded655c7db0e9d72816430b4f2c83a5" target="_top" xlink:title="Clears the map.">
<polygon fill="white" stroke="#666666" points="382.12,-324 301.62,-324 301.62,-304 382.12,-304 382.12,-324"/>
<text text-anchor="middle" x="341.88" y="-310.5" font-family="Helvetica,sans-Serif" font-size="10.00">Map::clearMap</text>
</a>
</g>
</g>
<!-- Node1&#45;&gt;Node4 -->
<g id="edge3_Node000001_Node000004" class="edge">
<title>Node1&#45;&gt;Node4</title>
<g id="a_edge3_Node000001_Node000004"><a xlink:title=" ">
<path fill="none" stroke="#63b8ff" d="M35.63,-191.48C42.08,-214.77 61.08,-270.65 100,-295 157.36,-330.89 238.07,-329.1 289.92,-322.86"/>
<polygon fill="#63b8ff" stroke="#63b8ff" points="290.21,-326.35 299.67,-321.58 289.3,-319.41 290.21,-326.35"/>
</a>
</g>
</g>
<!-- Node5 -->
<g id="Node000005" class="node">
<title>Node5</title>
<g id="a_Node000005"><a xlink:href="classWindow.html#a0f0537c35d89e120e904ba38a230a6d6" target="_top" xlink:title="Displays the leaderboard.">
<polygon fill="white" stroke="#666666" points="412.5,-172 271.25,-172 271.25,-152 412.5,-152 412.5,-172"/>
<text text-anchor="middle" x="341.88" y="-158.5" font-family="Helvetica,sans-Serif" font-size="10.00">Window::displayLeaderboard</text>
</a>
</g>
</g>
<!-- Node1&#45;&gt;Node5 -->
<g id="edge4_Node000001_Node000005" class="edge">
<title>Node1&#45;&gt;Node5</title>
<g id="a_edge4_Node000001_Node000005"><a xlink:title=" ">
<path fill="none" stroke="#63b8ff" d="M64.21,-179.07C109.64,-176.27 195.53,-170.97 259.61,-167.01"/>
<polygon fill="#63b8ff" stroke="#63b8ff" points="259.63,-170.52 269.4,-166.41 259.2,-163.53 259.63,-170.52"/>
</a>
</g>
</g>
<!-- Node6 -->
<g id="Node000006" class="node">
<title>Node6</title>
<g id="a_Node000006"><a xlink:href="classGame.html#a66e2ecb02f046b0c17922a4255720e5a" target="_top" xlink:title="Ends the game on error.">
<polygon fill="white" stroke="#666666" points="212.38,-286 122.88,-286 122.88,-266 212.38,-266 212.38,-286"/>
<text text-anchor="middle" x="167.62" y="-272.5" font-family="Helvetica,sans-Serif" font-size="10.00">Game::endOnErr</text>
</a>
</g>
</g>
<!-- Node1&#45;&gt;Node6 -->
<g id="edge6_Node000001_Node000006" class="edge">
<title>Node1&#45;&gt;Node6</title>
<g id="a_edge6_Node000001_Node000006"><a xlink:title=" ">
<path fill="none" stroke="#63b8ff" d="M40.28,-191.38C51.47,-206.66 74.34,-235.19 100,-252 105.47,-255.58 111.54,-258.71 117.73,-261.42"/>
<polygon fill="#63b8ff" stroke="#63b8ff" points="116.17,-264.57 126.76,-265.03 118.77,-258.07 116.17,-264.57"/>
</a>
</g>
</g>
<!-- Node7 -->
<g id="Node000007" class="node">
<title>Node7</title>
<g id="a_Node000007"><a xlink:href="classWindow.html#aba37c5e32e43d21a46968fd8ada1d327" target="_top" xlink:title="Prints the message to the current window.">
<polygon fill="white" stroke="#666666" points="399.75,-248 284,-248 284,-228 399.75,-228 399.75,-248"/>
<text text-anchor="middle" x="341.88" y="-234.5" font-family="Helvetica,sans-Serif" font-size="10.00">Window::printMessage</text>
</a>
</g>
</g>
<!-- Node1&#45;&gt;Node7 -->
<g id="edge14_Node000001_Node000007" class="edge">
<title>Node1&#45;&gt;Node7</title>
<g id="a_edge14_Node000001_Node000007"><a xlink:title=" ">
<path fill="none" stroke="#63b8ff" d="M49.94,-191.48C63.09,-199.07 82.05,-208.87 100,-214 156.67,-230.2 223.55,-235.86 272.44,-237.66"/>
<polygon fill="#63b8ff" stroke="#63b8ff" points="272.21,-241.15 282.32,-237.97 272.44,-234.15 272.21,-241.15"/>
</a>
</g>
</g>
<!-- Node8 -->
<g id="Node000008" class="node">
<title>Node8</title>
<g id="a_Node000008"><a xlink:href="classConfig.html#a683f3adeacbde8622e8c46cc2f9dee25" target="_top" xlink:title="Gets the map file path.">
<polygon fill="white" stroke="#666666" points="209.75,-134 125.5,-134 125.5,-114 209.75,-114 209.75,-134"/>
<text text-anchor="middle" x="167.62" y="-120.5" font-family="Helvetica,sans-Serif" font-size="10.00">Config::getPath</text>
</a>
</g>
</g>
<!-- Node1&#45;&gt;Node8 -->
<g id="edge11_Node000001_Node000008" class="edge">
<title>Node1&#45;&gt;Node8</title>
<g id="a_edge11_Node000001_Node000008"><a xlink:title=" ">
<path fill="none" stroke="#63b8ff" d="M52.66,-170.59C65.87,-163.78 83.77,-154.89 100,-148 107.95,-144.62 116.55,-141.29 124.84,-138.24"/>
<polygon fill="#63b8ff" stroke="#63b8ff" points="125.85,-141.6 134.07,-134.91 123.48,-135.01 125.85,-141.6"/>
</a>
</g>
</g>
<!-- Node9 -->
<g id="Node000009" class="node">
<title>Node9</title>
<g id="a_Node000009"><a xlink:href="classLeaderboard.html#a03943d489323ac2134118a5a56910e76" target="_top" xlink:title="Gets the top scores.">
<polygon fill="white" stroke="#666666" points="235.25,-96 100,-96 100,-76 235.25,-76 235.25,-96"/>
<text text-anchor="middle" x="167.62" y="-82.5" font-family="Helvetica,sans-Serif" font-size="10.00">Leaderboard::getTopScores</text>
</a>
</g>
</g>
<!-- Node1&#45;&gt;Node9 -->
<g id="edge12_Node000001_Node000009" class="edge">
<title>Node1&#45;&gt;Node9</title>
<g id="a_edge12_Node000001_Node000009"><a xlink:title=" ">
<path fill="none" stroke="#63b8ff" d="M39.25,-170.71C49.75,-154.32 72.48,-122.37 100,-105 102.27,-103.56 104.66,-102.23 107.12,-101"/>
<polygon fill="#63b8ff" stroke="#63b8ff" points="108.39,-104.27 116.17,-97.08 105.6,-97.85 108.39,-104.27"/>
</a>
</g>
</g>
<!-- Node10 -->
<g id="Node000010" class="node">
<title>Node10</title>
<g id="a_Node000010"><a xlink:href="classConfig.html#a62c7c2d485cb30374271dba0eafe63c8" target="_top" xlink:title="Gets any value from the config map.">
<polygon fill="white" stroke="#666666" points="211.62,-58 123.62,-58 123.62,-38 211.62,-38 211.62,-58"/>
<text text-anchor="middle" x="167.62" y="-44.5" font-family="Helvetica,sans-Serif" font-size="10.00">Config::getValue</text>
</a>
</g>
</g>
<!-- Node1&#45;&gt;Node10 -->
<g id="edge13_Node000001_Node000010" class="edge">
<title>Node1&#45;&gt;Node10</title>
<g id="a_edge13_Node000001_Node000010"><a xlink:title=" ">
<path fill="none" stroke="#63b8ff" d="M36.11,-170.72C43.43,-148.34 63.87,-94.96 100,-67 103.96,-63.94 108.39,-61.37 113.04,-59.21"/>
<polygon fill="#63b8ff" stroke="#63b8ff" points="114.02,-62.59 122.05,-55.67 111.46,-56.07 114.02,-62.59"/>
</a>
</g>
</g>
<!-- Node11 -->
<g id="Node000011" class="node">
<title>Node11</title>
<g id="a_Node000011"><a xlink:href="classLeaderboard.html#aa277b90da39dbbfe9088a8bffb9ddb59" target="_top" xlink:title="Saves the scores to a file.">
<polygon fill="white" stroke="#666666" points="231.12,-20 104.12,-20 104.12,0 231.12,0 231.12,-20"/>
<text text-anchor="middle" x="167.62" y="-6.5" font-family="Helvetica,sans-Serif" font-size="10.00">Leaderboard::saveScores</text>
</a>
</g>
</g>
<!-- Node1&#45;&gt;Node11 -->
<g id="edge15_Node000001_Node000011" class="edge">
<title>Node1&#45;&gt;Node11</title>
<g id="a_edge15_Node000001_Node000011"><a xlink:title=" ">
<path fill="none" stroke="#63b8ff" d="M34.48,-170.74C38.96,-143.39 54.99,-68.22 100,-29 101.25,-27.91 102.55,-26.89 103.91,-25.92"/>
<polygon fill="#63b8ff" stroke="#63b8ff" points="105.26,-29.19 112.13,-21.12 101.73,-23.14 105.26,-29.19"/>
</a>
</g>
</g>
<!-- Node5&#45;&gt;Node3 -->
<g id="edge5_Node000005_Node000003" class="edge">
<title>Node5&#45;&gt;Node3</title>
<g id="a_edge5_Node000005_Node000003"><a xlink:title=" ">
<path fill="none" stroke="#63b8ff" d="M373.78,-172.45C400.66,-181.55 439.83,-194.8 469.51,-204.84"/>
<polygon fill="#63b8ff" stroke="#63b8ff" points="468.35,-208.14 478.95,-208.03 470.6,-201.51 468.35,-208.14"/>
</a>
</g>
</g>
<!-- Node6&#45;&gt;Node3 -->
<g id="edge7_Node000006_Node000003" class="edge">
<title>Node6&#45;&gt;Node3</title>
<g id="a_edge7_Node000006_Node000003"><a xlink:title=" ">
<path fill="none" stroke="#63b8ff" d="M212.81,-276.37C262.1,-275.9 343.95,-272.5 412.5,-257 435.44,-251.81 460.14,-242.32 479.11,-234.13"/>
<polygon fill="#63b8ff" stroke="#63b8ff" points="480.46,-237.36 488.18,-230.1 477.62,-230.96 480.46,-237.36"/>
</a>
</g>
</g>
<!-- Node6&#45;&gt;Node4 -->
<g id="edge8_Node000006_Node000004" class="edge">
<title>Node6&#45;&gt;Node4</title>
<g id="a_edge8_Node000006_Node000004"><a xlink:title=" ">
<path fill="none" stroke="#63b8ff" d="M212.54,-285.69C236.22,-290.91 265.56,-297.39 290.21,-302.82"/>
<polygon fill="#63b8ff" stroke="#63b8ff" points="289.17,-306.18 299.69,-304.91 290.68,-299.34 289.17,-306.18"/>
</a>
</g>
</g>
<!-- Node6&#45;&gt;Node7 -->
<g id="edge9_Node000006_Node000007" class="edge">
<title>Node6&#45;&gt;Node7</title>
<g id="a_edge9_Node000006_Node000007"><a xlink:title=" ">
<path fill="none" stroke="#63b8ff" d="M212.54,-266.31C233.78,-261.63 259.58,-255.94 282.45,-250.89"/>
<polygon fill="#63b8ff" stroke="#63b8ff" points="282.93,-254.37 291.94,-248.8 281.42,-247.53 282.93,-254.37"/>
</a>
</g>
</g>
<!-- Node7&#45;&gt;Node3 -->
<g id="edge10_Node000007_Node000003" class="edge">
<title>Node7&#45;&gt;Node3</title>
<g id="a_edge10_Node000007_Node000003"><a xlink:title=" ">
<path fill="none" stroke="#63b8ff" d="M399.92,-231.57C411.76,-230.23 424.41,-228.81 436.77,-227.41"/>
<polygon fill="#63b8ff" stroke="#63b8ff" points="436.97,-230.91 446.51,-226.31 436.18,-223.96 436.97,-230.91"/>
</a>
</g>
</g>
<!-- Node12 -->
<g id="Node000012" class="node">
<title>Node12</title>
<g id="a_Node000012"><a xlink:href="classLeaderboard.html#a0535aae610bd8dc1e82e44a996190221" target="_top" xlink:title="Writes a value to binary save file.">
<polygon fill="white" stroke="#666666" points="390,-20 293.75,-20 293.75,0 390,0 390,-20"/>
<text text-anchor="middle" x="341.88" y="-6.5" font-family="Helvetica,sans-Serif" font-size="10.00">Leaderboard::write</text>
</a>
</g>
</g>
<!-- Node11&#45;&gt;Node12 -->
<g id="edge16_Node000011_Node000012" class="edge">
<title>Node11&#45;&gt;Node12</title>
<g id="a_edge16_Node000011_Node000012"><a xlink:title=" ">
<path fill="none" stroke="#63b8ff" d="M231.3,-10C247.95,-10 265.86,-10 282.28,-10"/>
<polygon fill="#63b8ff" stroke="#63b8ff" points="281.86,-13.5 291.86,-10 281.86,-6.5 281.86,-13.5"/>
</a>
</g>
</g>
</g>
</svg>
