<?xml version="1.0" encoding="UTF-8" standalone="no"?>
<!DOCTYPE svg PUBLIC "-//W3C//DTD SVG 1.1//EN"
 "http://www.w3.org/Graphics/SVG/1.1/DTD/svg11.dtd">
<!-- Generated by graphviz version 10.0.1 (0)
 -->
<!-- Title: Game Pages: 1 -->
<svg width="402pt" height="164pt"
 viewBox="0.00 0.00 402.00 164.00" xmlns="http://www.w3.org/2000/svg" xmlns:xlink="http://www.w3.org/1999/xlink">
<g id="graph0" class="graph" transform="scale(1 1) rotate(0) translate(4 160)">
<title>Game</title>
<!-- Node1 -->
<g id="Node000001" class="node">
<title>Node1</title>
<g id="a_Node000001"><a xlink:title=" ">
<polygon fill="#999999" stroke="#666666" points="207.38,-20 165.12,-20 165.12,0 207.38,0 207.38,-20"/>
<text text-anchor="middle" x="186.25" y="-6.5" font-family="Helvetica,sans-Serif" font-size="10.00">Game</text>
</a>
</g>
</g>
<!-- Node2 -->
<g id="Node000002" class="node">
<title>Node2</title>
<g id="a_Node000002"><a xlink:href="classConfig.html" target="_top" xlink:title=" ">
<polygon fill="white" stroke="#666666" points="44.5,-88 0,-88 0,-68 44.5,-68 44.5,-88"/>
<text text-anchor="middle" x="22.25" y="-74.5" font-family="Helvetica,sans-Serif" font-size="10.00">Config</text>
</a>
</g>
</g>
<!-- Node2&#45;&gt;Node1 -->
<g id="edge1_Node000001_Node000002" class="edge">
<title>Node2&#45;&gt;Node1</title>
<g id="a_edge1_Node000001_Node000002"><a xlink:title=" ">
<path fill="none" stroke="#9a32cd" stroke-dasharray="5,2" d="M33.02,-58.01C38.1,-50.69 44.8,-42.91 52.75,-38 87.76,-16.38 136.85,-11.67 164.71,-10.88"/>
<polygon fill="#9a32cd" stroke="#9a32cd" points="30.09,-56.09 27.77,-66.43 36.03,-59.8 30.09,-56.09"/>
</a>
</g>
<text text-anchor="middle" x="81" y="-40.5" font-family="Helvetica,sans-Serif" font-size="10.00" fill="grey"> gameConfig</text>
</g>
<!-- Node3 -->
<g id="Node000003" class="node">
<title>Node3</title>
<g id="a_Node000003"><a xlink:href="classWindow.html" target="_top" xlink:title=" ">
<polygon fill="white" stroke="#666666" points="126.88,-88 75.62,-88 75.62,-68 126.88,-68 126.88,-88"/>
<text text-anchor="middle" x="101.25" y="-74.5" font-family="Helvetica,sans-Serif" font-size="10.00">Window</text>
</a>
</g>
</g>
<!-- Node3&#45;&gt;Node1 -->
<g id="edge2_Node000001_Node000003" class="edge">
<title>Node3&#45;&gt;Node1</title>
<g id="a_edge2_Node000001_Node000003"><a xlink:title=" ">
<path fill="none" stroke="#9a32cd" stroke-dasharray="5,2" d="M107.45,-57.18C110.37,-50.4 114.46,-43.21 120,-38 132.39,-26.34 150.5,-19.43 164.65,-15.52"/>
<polygon fill="#9a32cd" stroke="#9a32cd" points="104.23,-55.79 104.11,-66.38 110.81,-58.18 104.23,-55.79"/>
</a>
</g>
<text text-anchor="middle" x="151.38" y="-40.5" font-family="Helvetica,sans-Serif" font-size="10.00" fill="grey"> gameWindow</text>
</g>
<!-- Node4 -->
<g id="Node000004" class="node">
<title>Node4</title>
<g id="a_Node000004"><a xlink:href="classMap.html" target="_top" xlink:title=" ">
<polygon fill="white" stroke="#666666" points="202.62,-88 167.88,-88 167.88,-68 202.62,-68 202.62,-88"/>
<text text-anchor="middle" x="185.25" y="-74.5" font-family="Helvetica,sans-Serif" font-size="10.00">Map</text>
</a>
</g>
</g>
<!-- Node4&#45;&gt;Node1 -->
<g id="edge3_Node000001_Node000004" class="edge">
<title>Node4&#45;&gt;Node1</title>
<g id="a_edge3_Node000001_Node000004"><a xlink:title=" ">
<path fill="none" stroke="#9a32cd" stroke-dasharray="5,2" d="M185.56,-56.28C185.75,-44.27 185.97,-29.74 186.11,-20.44"/>
<polygon fill="#9a32cd" stroke="#9a32cd" points="182.07,-55.98 185.42,-66.03 189.07,-56.08 182.07,-55.98"/>
</a>
</g>
<text text-anchor="middle" x="209.12" y="-40.5" font-family="Helvetica,sans-Serif" font-size="10.00" fill="grey"> gameMap</text>
</g>
<!-- Node5 -->
<g id="Node000005" class="node">
<title>Node5</title>
<g id="a_Node000005"><a xlink:href="structMap_1_1Bounds.html" target="_top" xlink:title=" ">
<polygon fill="white" stroke="#666666" points="222.12,-156 148.38,-156 148.38,-136 222.12,-136 222.12,-156"/>
<text text-anchor="middle" x="185.25" y="-142.5" font-family="Helvetica,sans-Serif" font-size="10.00">Map::Bounds</text>
</a>
</g>
</g>
<!-- Node5&#45;&gt;Node4 -->
<g id="edge4_Node000004_Node000005" class="edge">
<title>Node5&#45;&gt;Node4</title>
<g id="a_edge4_Node000004_Node000005"><a xlink:title=" ">
<path fill="none" stroke="#9a32cd" stroke-dasharray="5,2" d="M185.25,-124.28C185.25,-112.27 185.25,-97.74 185.25,-88.44"/>
<polygon fill="#9a32cd" stroke="#9a32cd" points="181.75,-124.03 185.25,-134.03 188.75,-124.03 181.75,-124.03"/>
</a>
</g>
<text text-anchor="middle" x="226.88" y="-108.5" font-family="Helvetica,sans-Serif" font-size="10.00" fill="grey"> ghostCageBounds</text>
</g>
<!-- Node6 -->
<g id="Node000006" class="node">
<title>Node6</title>
<g id="a_Node000006"><a xlink:href="classLeaderboard.html" target="_top" xlink:title=" ">
<polygon fill="white" stroke="#666666" points="289.88,-88 220.62,-88 220.62,-68 289.88,-68 289.88,-88"/>
<text text-anchor="middle" x="255.25" y="-74.5" font-family="Helvetica,sans-Serif" font-size="10.00">Leaderboard</text>
</a>
</g>
</g>
<!-- Node6&#45;&gt;Node1 -->
<g id="edge5_Node000001_Node000006" class="edge">
<title>Node6&#45;&gt;Node1</title>
<g id="a_edge5_Node000001_Node000006"><a xlink:title=" ">
<path fill="none" stroke="#9a32cd" stroke-dasharray="5,2" d="M246.79,-57.34C243.27,-50.67 238.72,-43.51 233.25,-38 225.96,-30.65 216.26,-24.63 207.56,-20.16"/>
<polygon fill="#9a32cd" stroke="#9a32cd" points="243.62,-58.83 251.06,-66.37 249.95,-55.83 243.62,-58.83"/>
</a>
</g>
<text text-anchor="middle" x="282.38" y="-40.5" font-family="Helvetica,sans-Serif" font-size="10.00" fill="grey"> gameLeaderboard</text>
</g>
<!-- Node7 -->
<g id="Node000007" class="node">
<title>Node7</title>
<g id="a_Node000007"><a xlink:href="classGamePhase.html" target="_top" xlink:title=" ">
<polygon fill="white" stroke="#666666" points="393.25,-88 323.25,-88 323.25,-68 393.25,-68 393.25,-88"/>
<text text-anchor="middle" x="358.25" y="-74.5" font-family="Helvetica,sans-Serif" font-size="10.00">GamePhase</text>
</a>
</g>
</g>
<!-- Node7&#45;&gt;Node1 -->
<g id="edge6_Node000001_Node000007" class="edge">
<title>Node7&#45;&gt;Node1</title>
<g id="a_edge6_Node000001_Node000007"><a xlink:title=" ">
<path fill="none" stroke="#9a32cd" stroke-dasharray="5,2" d="M346.97,-58.22C341.6,-50.82 334.53,-42.93 326.25,-38 288.82,-15.71 236.68,-11.31 207.75,-10.73"/>
<polygon fill="#9a32cd" stroke="#9a32cd" points="343.95,-59.99 352.37,-66.42 349.8,-56.14 343.95,-59.99"/>
</a>
</g>
<text text-anchor="middle" x="366.62" y="-40.5" font-family="Helvetica,sans-Serif" font-size="10.00" fill="grey"> gamePhase</text>
</g>
</g>
</svg>
