<?xml version="1.0" encoding="UTF-8" standalone="no"?>
<!DOCTYPE svg PUBLIC "-//W3C//DTD SVG 1.1//EN"
 "http://www.w3.org/Graphics/SVG/1.1/DTD/svg11.dtd">
<!-- Generated by graphviz version 10.0.1 (0)
 -->
<!-- Title: Ghost::update Pages: 1 -->
<svg width="259pt" height="104pt"
 viewBox="0.00 0.00 259.00 104.00" xmlns="http://www.w3.org/2000/svg" xmlns:xlink="http://www.w3.org/1999/xlink">
<g id="graph0" class="graph" transform="scale(1 1) rotate(0) translate(4 100)">
<title>Ghost::update</title>
<!-- Node1 -->
<g id="Node000001" class="node">
<title>Node1</title>
<g id="a_Node000001"><a xlink:title="Updates the object.">
<polygon fill="#999999" stroke="#666666" points="77.5,-58 0,-58 0,-38 77.5,-38 77.5,-58"/>
<text text-anchor="middle" x="38.75" y="-44.5" font-family="Helvetica,sans-Serif" font-size="10.00">Ghost::update</text>
</a>
</g>
</g>
<!-- Node2 -->
<g id="Node000002" class="node">
<title>Node2</title>
<g id="a_Node000002"><a xlink:href="classGamePhase.html#a4e546a7d0a52cbd70612880d61e5f55c" target="_top" xlink:title="Returns the current game phase.">
<polygon fill="white" stroke="#666666" points="240.88,-96 123.62,-96 123.62,-76 240.88,-76 240.88,-96"/>
<text text-anchor="middle" x="182.25" y="-82.5" font-family="Helvetica,sans-Serif" font-size="10.00">GamePhase::getPhase</text>
</a>
</g>
</g>
<!-- Node1&#45;&gt;Node2 -->
<g id="edge1_Node000001_Node000002" class="edge">
<title>Node1&#45;&gt;Node2</title>
<g id="a_edge1_Node000001_Node000002"><a xlink:title=" ">
<path fill="none" stroke="#63b8ff" d="M77.67,-58.18C94.13,-62.6 113.64,-67.84 131.27,-72.58"/>
<polygon fill="#63b8ff" stroke="#63b8ff" points="130.21,-75.92 140.78,-75.13 132.03,-69.16 130.21,-75.92"/>
</a>
</g>
</g>
<!-- Node3 -->
<g id="Node000003" class="node">
<title>Node3</title>
<g id="a_Node000003"><a xlink:href="classGamePhase.html#a704dda3508f76202edc8364d76fa6d22" target="_top" xlink:title="Returns the previous game phase.">
<polygon fill="white" stroke="#666666" points="251,-58 113.5,-58 113.5,-38 251,-38 251,-58"/>
<text text-anchor="middle" x="182.25" y="-44.5" font-family="Helvetica,sans-Serif" font-size="10.00">GamePhase::getPrevPhase</text>
</a>
</g>
</g>
<!-- Node1&#45;&gt;Node3 -->
<g id="edge2_Node000001_Node000003" class="edge">
<title>Node1&#45;&gt;Node3</title>
<g id="a_edge2_Node000001_Node000003"><a xlink:title=" ">
<path fill="none" stroke="#63b8ff" d="M77.67,-48C85.21,-48 93.39,-48 101.74,-48"/>
<polygon fill="#63b8ff" stroke="#63b8ff" points="101.66,-51.5 111.66,-48 101.66,-44.5 101.66,-51.5"/>
</a>
</g>
</g>
<!-- Node4 -->
<g id="Node000004" class="node">
<title>Node4</title>
<g id="a_Node000004"><a xlink:href="classGhost.html#aab141ab164930973d98258e7f671dc5a" target="_top" xlink:title=" ">
<polygon fill="white" stroke="#666666" points="232.25,-20 132.25,-20 132.25,0 232.25,0 232.25,-20"/>
<text text-anchor="middle" x="182.25" y="-6.5" font-family="Helvetica,sans-Serif" font-size="10.00">Ghost::setBehavior</text>
</a>
</g>
</g>
<!-- Node1&#45;&gt;Node4 -->
<g id="edge3_Node000001_Node000004" class="edge">
<title>Node1&#45;&gt;Node4</title>
<g id="a_edge3_Node000001_Node000004"><a xlink:title=" ">
<path fill="none" stroke="#63b8ff" d="M77.67,-37.82C94.13,-33.4 113.64,-28.16 131.27,-23.42"/>
<polygon fill="#63b8ff" stroke="#63b8ff" points="132.03,-26.84 140.78,-20.87 130.21,-20.08 132.03,-26.84"/>
</a>
</g>
</g>
</g>
</svg>
