<?xml version="1.0" encoding="UTF-8" standalone="no"?>
<!DOCTYPE svg PUBLIC "-//W3C//DTD SVG 1.1//EN"
 "http://www.w3.org/Graphics/SVG/1.1/DTD/svg11.dtd">
<!-- Generated by graphviz version 2.43.0 (0)
 -->
<!-- Title: Window::createMenuWindow Pages: 1 -->
<svg width="690pt" height="66pt"
 viewBox="0.00 0.00 690.00 66.00" xmlns="http://www.w3.org/2000/svg" xmlns:xlink="http://www.w3.org/1999/xlink">
<g id="graph0" class="graph" transform="scale(1 1) rotate(0) translate(4 62)">
<title>Window::createMenuWindow</title>
<polygon fill="white" stroke="transparent" points="-4,4 -4,-62 686,-62 686,4 -4,4"/>
<!-- Node1 -->
<g id="node1" class="node">
<title>Node1</title>
<g id="a_node1"><a xlink:title="Creates the main menu window.">
<polygon fill="#bfbfbf" stroke="black" points="524,-19.5 524,-38.5 682,-38.5 682,-19.5 524,-19.5"/>
<text text-anchor="middle" x="603" y="-26.5" font-family="Helvetica,sans-Serif" font-size="10.00">Window::createMenuWindow</text>
</a>
</g>
</g>
<!-- Node2 -->
<g id="node2" class="node">
<title>Node2</title>
<g id="a_node2"><a xlink:href="classWindow.html#a4fbacbbec283653b5500f881c1f7cd7f" target="_top" xlink:title="Draws the main menu.">
<polygon fill="white" stroke="black" points="376,-38.5 376,-57.5 488,-57.5 488,-38.5 376,-38.5"/>
<text text-anchor="middle" x="432" y="-45.5" font-family="Helvetica,sans-Serif" font-size="10.00">Window::drawMenu</text>
</a>
</g>
</g>
<!-- Node1&#45;&gt;Node2 -->
<g id="edge1" class="edge">
<title>Node1&#45;&gt;Node2</title>
<path fill="none" stroke="midnightblue" d="M513.98,-38.9C505.17,-39.89 496.4,-40.87 488.08,-41.81"/>
<polygon fill="midnightblue" stroke="midnightblue" points="514.38,-42.37 523.93,-37.78 513.6,-35.42 514.38,-42.37"/>
</g>
<!-- Node6 -->
<g id="node6" class="node">
<title>Node6</title>
<g id="a_node6"><a xlink:href="classWindow.html#a56e7061bfcf6df5725b61e3f0399e865" target="_top" xlink:title="Gets the user choice from the main menu.">
<polygon fill="white" stroke="black" points="230,-0.5 230,-19.5 340,-19.5 340,-0.5 230,-0.5"/>
<text text-anchor="middle" x="285" y="-7.5" font-family="Helvetica,sans-Serif" font-size="10.00">Window::getChoice</text>
</a>
</g>
</g>
<!-- Node1&#45;&gt;Node6 -->
<g id="edge5" class="edge">
<title>Node1&#45;&gt;Node6</title>
<path fill="none" stroke="midnightblue" d="M513.68,-23.69C458.06,-20.35 388.04,-16.14 340.43,-13.27"/>
<polygon fill="midnightblue" stroke="midnightblue" points="513.7,-27.2 523.89,-24.3 514.12,-20.21 513.7,-27.2"/>
</g>
<!-- Node3 -->
<g id="node3" class="node">
<title>Node3</title>
<g id="a_node3"><a xlink:href="classWindow.html#a4d8c7f316ef9e8a4488d00c430957c16" target="_top" xlink:title="Initializes ncurses window.">
<polygon fill="white" stroke="black" points="246.5,-38.5 246.5,-57.5 323.5,-57.5 323.5,-38.5 246.5,-38.5"/>
<text text-anchor="middle" x="285" y="-45.5" font-family="Helvetica,sans-Serif" font-size="10.00">Window::init</text>
</a>
</g>
</g>
<!-- Node2&#45;&gt;Node3 -->
<g id="edge2" class="edge">
<title>Node2&#45;&gt;Node3</title>
<path fill="none" stroke="midnightblue" d="M365.42,-48C351.06,-48 336.35,-48 323.55,-48"/>
<polygon fill="midnightblue" stroke="midnightblue" points="365.77,-51.5 375.77,-48 365.77,-44.5 365.77,-51.5"/>
</g>
<!-- Node4 -->
<g id="node4" class="node">
<title>Node4</title>
<g id="a_node4"><a xlink:href="classGameManager.html#a8460b2f4f44c19dd405e4163fe6cb5cf" target="_top" xlink:title=" ">
<polygon fill="white" stroke="black" points="77,-19.5 77,-38.5 194,-38.5 194,-19.5 77,-19.5"/>
<text text-anchor="middle" x="135.5" y="-26.5" font-family="Helvetica,sans-Serif" font-size="10.00">GameManager::start</text>
</a>
</g>
</g>
<!-- Node3&#45;&gt;Node4 -->
<g id="edge3" class="edge">
<title>Node3&#45;&gt;Node4</title>
<path fill="none" stroke="midnightblue" d="M236.39,-41.87C222.92,-40.13 208.11,-38.22 194.12,-36.42"/>
<polygon fill="midnightblue" stroke="midnightblue" points="236.03,-45.35 246.4,-43.16 236.93,-38.41 236.03,-45.35"/>
</g>
<!-- Node5 -->
<g id="node5" class="node">
<title>Node5</title>
<g id="a_node5"><a xlink:href="main_8cpp.html#ae66f6b31b5ad750f1fe042a706a4e3d4" target="_top" xlink:title=" ">
<polygon fill="white" stroke="black" points="0,-19.5 0,-38.5 41,-38.5 41,-19.5 0,-19.5"/>
<text text-anchor="middle" x="20.5" y="-26.5" font-family="Helvetica,sans-Serif" font-size="10.00">main</text>
</a>
</g>
</g>
<!-- Node4&#45;&gt;Node5 -->
<g id="edge4" class="edge">
<title>Node4&#45;&gt;Node5</title>
<path fill="none" stroke="midnightblue" d="M66.53,-29C57.29,-29 48.48,-29 41.14,-29"/>
<polygon fill="midnightblue" stroke="midnightblue" points="66.68,-32.5 76.68,-29 66.68,-25.5 66.68,-32.5"/>
</g>
<!-- Node6&#45;&gt;Node4 -->
<g id="edge6" class="edge">
<title>Node6&#45;&gt;Node4</title>
<path fill="none" stroke="midnightblue" d="M219.92,-18.25C211.32,-19.36 202.53,-20.49 194.05,-21.59"/>
<polygon fill="midnightblue" stroke="midnightblue" points="220.44,-21.72 229.91,-16.97 219.55,-14.77 220.44,-21.72"/>
</g>
</g>
</svg>
