<?xml version="1.0" encoding="UTF-8" standalone="no"?>
<!DOCTYPE svg PUBLIC "-//W3C//DTD SVG 1.1//EN"
 "http://www.w3.org/Graphics/SVG/1.1/DTD/svg11.dtd">
<!-- Generated by graphviz version 2.43.0 (0)
 -->
<!-- Title: GamePhase::addItem Pages: 1 -->
<svg width="567pt" height="85pt"
 viewBox="0.00 0.00 567.00 85.00" xmlns="http://www.w3.org/2000/svg" xmlns:xlink="http://www.w3.org/1999/xlink">
<g id="graph0" class="graph" transform="scale(1 1) rotate(0) translate(4 81)">
<title>GamePhase::addItem</title>
<polygon fill="white" stroke="transparent" points="-4,4 -4,-81 563,-81 563,4 -4,4"/>
<!-- Node1 -->
<g id="node1" class="node">
<title>Node1</title>
<g id="a_node1"><a xlink:title="Adds an item to the remaining items.">
<polygon fill="#bfbfbf" stroke="black" points="437,-19.5 437,-38.5 559,-38.5 559,-19.5 437,-19.5"/>
<text text-anchor="middle" x="498" y="-26.5" font-family="Helvetica,sans-Serif" font-size="10.00">GamePhase::addItem</text>
</a>
</g>
</g>
<!-- Node2 -->
<g id="node2" class="node">
<title>Node2</title>
<g id="a_node2"><a xlink:href="classGame.html#a1290bdc979d75815efe4d21e83a806cb" target="_top" xlink:title="Loads the object from the map.">
<polygon fill="white" stroke="black" points="291,-38.5 291,-57.5 401,-57.5 401,-38.5 291,-38.5"/>
<text text-anchor="middle" x="346" y="-45.5" font-family="Helvetica,sans-Serif" font-size="10.00">Game::loadObjects</text>
</a>
</g>
</g>
<!-- Node1&#45;&gt;Node2 -->
<g id="edge1" class="edge">
<title>Node1&#45;&gt;Node2</title>
<path fill="none" stroke="midnightblue" d="M426.86,-37.88C418.29,-38.97 409.63,-40.07 401.34,-41.12"/>
<polygon fill="midnightblue" stroke="midnightblue" points="427.37,-41.35 436.85,-36.62 426.49,-34.4 427.37,-41.35"/>
</g>
<!-- Node6 -->
<g id="node6" class="node">
<title>Node6</title>
<g id="a_node6"><a xlink:href="classGame.html#aef7682b8bf084aac3c8f929a6fd2f673" target="_top" xlink:title="Updates the game state.">
<polygon fill="white" stroke="black" points="303,-0.5 303,-19.5 389,-19.5 389,-0.5 303,-0.5"/>
<text text-anchor="middle" x="346" y="-7.5" font-family="Helvetica,sans-Serif" font-size="10.00">Game::update</text>
</a>
</g>
</g>
<!-- Node1&#45;&gt;Node6 -->
<g id="edge5" class="edge">
<title>Node1&#45;&gt;Node6</title>
<path fill="none" stroke="midnightblue" d="M426.65,-20.09C413.84,-18.47 400.85,-16.82 389.18,-15.34"/>
<polygon fill="midnightblue" stroke="midnightblue" points="426.49,-23.6 436.85,-21.38 427.37,-16.65 426.49,-23.6"/>
</g>
<!-- Node3 -->
<g id="node3" class="node">
<title>Node3</title>
<g id="a_node3"><a xlink:href="classGame.html#a4c2a7ead717a4c13f1ffddafd11e17c8" target="_top" xlink:title="Initializes the game, loading config, and the map.">
<polygon fill="white" stroke="black" points="132,-38.5 132,-57.5 255,-57.5 255,-38.5 132,-38.5"/>
<text text-anchor="middle" x="193.5" y="-45.5" font-family="Helvetica,sans-Serif" font-size="10.00">Game::initializeGame</text>
</a>
</g>
</g>
<!-- Node2&#45;&gt;Node3 -->
<g id="edge2" class="edge">
<title>Node2&#45;&gt;Node3</title>
<path fill="none" stroke="midnightblue" d="M280.51,-48C272.09,-48 263.49,-48 255.13,-48"/>
<polygon fill="midnightblue" stroke="midnightblue" points="280.67,-51.5 290.67,-48 280.67,-44.5 280.67,-51.5"/>
</g>
<!-- Node4 -->
<g id="node4" class="node">
<title>Node4</title>
<g id="a_node4"><a xlink:href="classGame.html#a2a30c89761624ee64cd7acb147aaf89c" target="_top" xlink:title="Starts the game.">
<polygon fill="white" stroke="black" points="11,-57.5 11,-76.5 85,-76.5 85,-57.5 11,-57.5"/>
<text text-anchor="middle" x="48" y="-64.5" font-family="Helvetica,sans-Serif" font-size="10.00">Game::start</text>
</a>
</g>
</g>
<!-- Node3&#45;&gt;Node4 -->
<g id="edge3" class="edge">
<title>Node3&#45;&gt;Node4</title>
<path fill="none" stroke="midnightblue" d="M121.52,-57.4C108.85,-59.08 96.15,-60.76 85,-62.23"/>
<polygon fill="midnightblue" stroke="midnightblue" points="122.19,-60.84 131.64,-56.06 121.27,-53.9 122.19,-60.84"/>
</g>
<!-- Node5 -->
<g id="node5" class="node">
<title>Node5</title>
<g id="a_node5"><a xlink:href="classGame.html#a1118c369ae5b2fe433aac540cb32d187" target="_top" xlink:title="Starts the game with a new map.">
<polygon fill="white" stroke="black" points="0,-19.5 0,-38.5 96,-38.5 96,-19.5 0,-19.5"/>
<text text-anchor="middle" x="48" y="-26.5" font-family="Helvetica,sans-Serif" font-size="10.00">Game::startNew</text>
</a>
</g>
</g>
<!-- Node3&#45;&gt;Node5 -->
<g id="edge4" class="edge">
<title>Node3&#45;&gt;Node5</title>
<path fill="none" stroke="midnightblue" d="M121.52,-38.6C112.87,-37.46 104.2,-36.31 96.02,-35.23"/>
<polygon fill="midnightblue" stroke="midnightblue" points="121.27,-42.1 131.64,-39.94 122.19,-35.16 121.27,-42.1"/>
</g>
</g>
</svg>
