<?xml version="1.0" encoding="UTF-8" standalone="no"?>
<!DOCTYPE svg PUBLIC "-//W3C//DTD SVG 1.1//EN"
 "http://www.w3.org/Graphics/SVG/1.1/DTD/svg11.dtd">
<!-- Generated by graphviz version 10.0.1 (0)
 -->
<!-- Title: Map::getSize Pages: 1 -->
<svg width="376pt" height="104pt"
 viewBox="0.00 0.00 376.25 104.00" xmlns="http://www.w3.org/2000/svg" xmlns:xlink="http://www.w3.org/1999/xlink">
<g id="graph0" class="graph" transform="scale(1 1) rotate(0) translate(4 100)">
<title>Map::getSize</title>
<!-- Node1 -->
<g id="Node000001" class="node">
<title>Node1</title>
<g id="a_Node000001"><a xlink:title="Gets the map size.">
<polygon fill="#999999" stroke="#666666" points="368.25,-58 294.5,-58 294.5,-38 368.25,-38 368.25,-58"/>
<text text-anchor="middle" x="331.38" y="-44.5" font-family="Helvetica,sans-Serif" font-size="10.00">Map::getSize</text>
</a>
</g>
</g>
<!-- Node2 -->
<g id="Node000002" class="node">
<title>Node2</title>
<g id="a_Node000002"><a xlink:href="classPlayer.html#aa4002becf320cc56377ecda8622a1ba3" target="_top" xlink:title="Returns the calculated next move of the object.">
<polygon fill="white" stroke="#666666" points="254.75,-96 146.5,-96 146.5,-76 254.75,-76 254.75,-96"/>
<text text-anchor="middle" x="200.62" y="-82.5" font-family="Helvetica,sans-Serif" font-size="10.00">Player::getNextMove</text>
</a>
</g>
</g>
<!-- Node1&#45;&gt;Node2 -->
<g id="edge1_Node000001_Node000002" class="edge">
<title>Node1&#45;&gt;Node2</title>
<g id="a_edge1_Node000001_Node000002"><a xlink:title=" ">
<path fill="none" stroke="#63b8ff" d="M283.92,-61.71C268.47,-66.27 251.51,-71.28 237.03,-75.55"/>
<polygon fill="#63b8ff" stroke="#63b8ff" points="284.8,-65.1 293.4,-58.91 282.82,-58.39 284.8,-65.1"/>
</a>
</g>
</g>
<!-- Node3 -->
<g id="Node000003" class="node">
<title>Node3</title>
<g id="a_Node000003"><a xlink:href="structScatterBehavior.html#abf893e24e51acddd4c3e1cd57e262762" target="_top" xlink:title="Gets the ideal direction to move the enemy.">
<polygon fill="white" stroke="#666666" points="258.5,-58 142.75,-58 142.75,-38 258.5,-38 258.5,-58"/>
<text text-anchor="middle" x="200.62" y="-44.5" font-family="Helvetica,sans-Serif" font-size="10.00">ScatterBehavior::move</text>
</a>
</g>
</g>
<!-- Node1&#45;&gt;Node3 -->
<g id="edge2_Node000001_Node000003" class="edge">
<title>Node1&#45;&gt;Node3</title>
<g id="a_edge2_Node000001_Node000003"><a xlink:title=" ">
<path fill="none" stroke="#63b8ff" d="M282.68,-48C274.88,-48 266.74,-48 258.75,-48"/>
<polygon fill="#63b8ff" stroke="#63b8ff" points="282.65,-51.5 292.65,-48 282.65,-44.5 282.65,-51.5"/>
</a>
</g>
</g>
<!-- Node4 -->
<g id="Node000004" class="node">
<title>Node4</title>
<g id="a_Node000004"><a xlink:href="classGhost.html#a148ba3ee3c09025057a85025e2b74f81" target="_top" xlink:title=" ">
<polygon fill="white" stroke="#666666" points="242.38,-20 158.88,-20 158.88,0 242.38,0 242.38,-20"/>
<text text-anchor="middle" x="200.62" y="-6.5" font-family="Helvetica,sans-Serif" font-size="10.00">Ghost::tryMove</text>
</a>
</g>
</g>
<!-- Node1&#45;&gt;Node4 -->
<g id="edge3_Node000001_Node000004" class="edge">
<title>Node1&#45;&gt;Node4</title>
<g id="a_edge3_Node000001_Node000004"><a xlink:title=" ">
<path fill="none" stroke="#63b8ff" d="M283.92,-34.29C268.47,-29.73 251.51,-24.72 237.03,-20.45"/>
<polygon fill="#63b8ff" stroke="#63b8ff" points="282.82,-37.61 293.4,-37.09 284.8,-30.9 282.82,-37.61"/>
</a>
</g>
</g>
<!-- Node5 -->
<g id="Node000005" class="node">
<title>Node5</title>
<g id="a_Node000005"><a xlink:href="classGhost.html#a8f00182b9e19aec6cab0f795ee8dd5ae" target="_top" xlink:title="Returns the calculated next move of the object.">
<polygon fill="white" stroke="#666666" points="106.75,-20 0,-20 0,0 106.75,0 106.75,-20"/>
<text text-anchor="middle" x="53.38" y="-6.5" font-family="Helvetica,sans-Serif" font-size="10.00">Ghost::getNextMove</text>
</a>
</g>
</g>
<!-- Node4&#45;&gt;Node5 -->
<g id="edge4_Node000004_Node000005" class="edge">
<title>Node4&#45;&gt;Node5</title>
<g id="a_edge4_Node000004_Node000005"><a xlink:title=" ">
<path fill="none" stroke="#63b8ff" d="M147.22,-10C134.18,-10 120.2,-10 107.14,-10"/>
<polygon fill="#63b8ff" stroke="#63b8ff" points="146.88,-13.5 156.88,-10 146.88,-6.5 146.88,-13.5"/>
</a>
</g>
</g>
</g>
</svg>
