<?xml version="1.0" encoding="UTF-8" standalone="no"?>
<!DOCTYPE svg PUBLIC "-//W3C//DTD SVG 1.1//EN"
 "http://www.w3.org/Graphics/SVG/1.1/DTD/svg11.dtd">
<!-- Generated by graphviz version 2.43.0 (0)
 -->
<!-- Title: Ghost::move Pages: 1 -->
<svg width="368pt" height="28pt"
 viewBox="0.00 0.00 368.00 28.00" xmlns="http://www.w3.org/2000/svg" xmlns:xlink="http://www.w3.org/1999/xlink">
<g id="graph0" class="graph" transform="scale(1 1) rotate(0) translate(4 24)">
<title>Ghost::move</title>
<polygon fill="white" stroke="transparent" points="-4,4 -4,-24 364,-24 364,4 -4,4"/>
<!-- Node1 -->
<g id="node1" class="node">
<title>Node1</title>
<g id="a_node1"><a xlink:title="Moves the object in the given direction.">
<polygon fill="#bfbfbf" stroke="black" points="281,-0.5 281,-19.5 360,-19.5 360,-0.5 281,-0.5"/>
<text text-anchor="middle" x="320.5" y="-7.5" font-family="Helvetica,sans-Serif" font-size="10.00">Ghost::move</text>
</a>
</g>
</g>
<!-- Node2 -->
<g id="node2" class="node">
<title>Node2</title>
<g id="a_node2"><a xlink:href="classGhost.html#a148ba3ee3c09025057a85025e2b74f81" target="_top" xlink:title=" ">
<polygon fill="white" stroke="black" points="153,-0.5 153,-19.5 245,-19.5 245,-0.5 153,-0.5"/>
<text text-anchor="middle" x="199" y="-7.5" font-family="Helvetica,sans-Serif" font-size="10.00">Ghost::tryMove</text>
</a>
</g>
</g>
<!-- Node1&#45;&gt;Node2 -->
<g id="edge1" class="edge">
<title>Node1&#45;&gt;Node2</title>
<path fill="none" stroke="midnightblue" d="M270.65,-10C262.25,-10 253.55,-10 245.25,-10"/>
<polygon fill="midnightblue" stroke="midnightblue" points="270.7,-13.5 280.7,-10 270.7,-6.5 270.7,-13.5"/>
</g>
<!-- Node3 -->
<g id="node3" class="node">
<title>Node3</title>
<g id="a_node3"><a xlink:href="classGhost.html#a8f00182b9e19aec6cab0f795ee8dd5ae" target="_top" xlink:title="Returns the calculated next move of the object.">
<polygon fill="white" stroke="black" points="0,-0.5 0,-19.5 117,-19.5 117,-0.5 0,-0.5"/>
<text text-anchor="middle" x="58.5" y="-7.5" font-family="Helvetica,sans-Serif" font-size="10.00">Ghost::getNextMove</text>
</a>
</g>
</g>
<!-- Node2&#45;&gt;Node3 -->
<g id="edge2" class="edge">
<title>Node2&#45;&gt;Node3</title>
<path fill="none" stroke="midnightblue" d="M142.59,-10C134.2,-10 125.52,-10 117.08,-10"/>
<polygon fill="midnightblue" stroke="midnightblue" points="142.65,-13.5 152.65,-10 142.65,-6.5 142.65,-13.5"/>
</g>
</g>
</svg>
