<?xml version="1.0" encoding="UTF-8" standalone="no"?>
<!DOCTYPE svg PUBLIC "-//W3C//DTD SVG 1.1//EN"
 "http://www.w3.org/Graphics/SVG/1.1/DTD/svg11.dtd">
<!-- Generated by graphviz version 2.43.0 (0)
 -->
<!-- Title: Player::interactWith Pages: 1 -->
<svg width="310pt" height="66pt"
 viewBox="0.00 0.00 310.00 66.00" xmlns="http://www.w3.org/2000/svg" xmlns:xlink="http://www.w3.org/1999/xlink">
<g id="graph0" class="graph" transform="scale(1 1) rotate(0) translate(4 62)">
<title>Player::interactWith</title>
<polygon fill="white" stroke="transparent" points="-4,4 -4,-62 306,-62 306,4 -4,4"/>
<!-- Node1 -->
<g id="node1" class="node">
<title>Node1</title>
<g id="a_node1"><a xlink:title="Interacts with another object.">
<polygon fill="#bfbfbf" stroke="black" points="0,-19.5 0,-38.5 113,-38.5 113,-19.5 0,-19.5"/>
<text text-anchor="middle" x="56.5" y="-26.5" font-family="Helvetica,sans-Serif" font-size="10.00">Player::interactWith</text>
</a>
</g>
</g>
<!-- Node2 -->
<g id="node2" class="node">
<title>Node2</title>
<g id="a_node2"><a xlink:href="classMovingObject.html#a0770fcf5def6da1bfeefb3a16e356ace" target="_top" xlink:title="Returns the object to its starting position.">
<polygon fill="white" stroke="black" points="149,-38.5 149,-57.5 302,-57.5 302,-38.5 149,-38.5"/>
<text text-anchor="middle" x="225.5" y="-45.5" font-family="Helvetica,sans-Serif" font-size="10.00">MovingObject::returnToStart</text>
</a>
</g>
</g>
<!-- Node1&#45;&gt;Node2 -->
<g id="edge1" class="edge">
<title>Node1&#45;&gt;Node2</title>
<path fill="none" stroke="midnightblue" d="M113.11,-35.33C121.36,-36.27 130.02,-37.25 138.72,-38.24"/>
<polygon fill="midnightblue" stroke="midnightblue" points="138.59,-41.75 148.92,-39.4 139.38,-34.79 138.59,-41.75"/>
</g>
<!-- Node3 -->
<g id="node3" class="node">
<title>Node3</title>
<g id="a_node3"><a xlink:href="classMovingObject.html#a33153c83338df2d2aedf763b90dec282" target="_top" xlink:title="Takes one life from the object.">
<polygon fill="white" stroke="black" points="160,-0.5 160,-19.5 291,-19.5 291,-0.5 160,-0.5"/>
<text text-anchor="middle" x="225.5" y="-7.5" font-family="Helvetica,sans-Serif" font-size="10.00">MovingObject::takeLive</text>
</a>
</g>
</g>
<!-- Node1&#45;&gt;Node3 -->
<g id="edge2" class="edge">
<title>Node1&#45;&gt;Node3</title>
<path fill="none" stroke="midnightblue" d="M113.11,-22.67C124.82,-21.34 137.36,-19.91 149.65,-18.52"/>
<polygon fill="midnightblue" stroke="midnightblue" points="150.34,-21.96 159.88,-17.35 149.55,-15 150.34,-21.96"/>
</g>
</g>
</svg>
