<?xml version="1.0" encoding="UTF-8" standalone="no"?>
<!DOCTYPE svg PUBLIC "-//W3C//DTD SVG 1.1//EN"
 "http://www.w3.org/Graphics/SVG/1.1/DTD/svg11.dtd">
<!-- Generated by graphviz version 10.0.1 (0)
 -->
<!-- Title: InteractiveObject Pages: 1 -->
<svg width="229pt" height="140pt"
 viewBox="0.00 0.00 229.00 140.00" xmlns="http://www.w3.org/2000/svg" xmlns:xlink="http://www.w3.org/1999/xlink">
<g id="graph0" class="graph" transform="scale(1 1) rotate(0) translate(4 136)">
<title>InteractiveObject</title>
<!-- Node1 -->
<g id="Node000001" class="node">
<title>Node1</title>
<g id="a_Node000001"><a xlink:title=" ">
<polygon fill="#999999" stroke="#666666" points="156.75,-76 66.5,-76 66.5,-56 156.75,-56 156.75,-76"/>
<text text-anchor="middle" x="111.62" y="-62.5" font-family="Helvetica,sans-Serif" font-size="10.00">InteractiveObject</text>
</a>
</g>
</g>
<!-- Node3 -->
<g id="Node000003" class="node">
<title>Node3</title>
<g id="a_Node000003"><a xlink:href="classCherry.html" target="_top" xlink:title=" ">
<polygon fill="white" stroke="#666666" points="45.25,-20 0,-20 0,0 45.25,0 45.25,-20"/>
<text text-anchor="middle" x="22.62" y="-6.5" font-family="Helvetica,sans-Serif" font-size="10.00">Cherry</text>
</a>
</g>
</g>
<!-- Node1&#45;&gt;Node3 -->
<g id="edge2_Node000001_Node000003" class="edge">
<title>Node1&#45;&gt;Node3</title>
<g id="a_edge2_Node000001_Node000003"><a xlink:title=" ">
<path fill="none" stroke="#63b8ff" d="M86.59,-49.81C71.07,-40.39 51.6,-28.58 38.25,-20.48"/>
<polygon fill="#63b8ff" stroke="#63b8ff" points="84.46,-52.61 94.83,-54.81 88.09,-46.63 84.46,-52.61"/>
</a>
</g>
</g>
<!-- Node4 -->
<g id="Node000004" class="node">
<title>Node4</title>
<g id="a_Node000004"><a xlink:href="classCoin.html" target="_top" xlink:title=" ">
<polygon fill="white" stroke="#666666" points="99.75,-20 63.5,-20 63.5,0 99.75,0 99.75,-20"/>
<text text-anchor="middle" x="81.62" y="-6.5" font-family="Helvetica,sans-Serif" font-size="10.00">Coin</text>
</a>
</g>
</g>
<!-- Node1&#45;&gt;Node4 -->
<g id="edge3_Node000001_Node000004" class="edge">
<title>Node1&#45;&gt;Node4</title>
<g id="a_edge3_Node000001_Node000004"><a xlink:title=" ">
<path fill="none" stroke="#63b8ff" d="M100.84,-45.58C96.05,-36.97 90.65,-27.24 86.79,-20.3"/>
<polygon fill="#63b8ff" stroke="#63b8ff" points="97.75,-47.23 105.66,-54.27 103.87,-43.83 97.75,-47.23"/>
</a>
</g>
</g>
<!-- Node5 -->
<g id="Node000005" class="node">
<title>Node5</title>
<g id="a_Node000005"><a xlink:href="classTeleport.html" target="_top" xlink:title=" ">
<polygon fill="white" stroke="#666666" points="167.88,-20 117.38,-20 117.38,0 167.88,0 167.88,-20"/>
<text text-anchor="middle" x="142.62" y="-6.5" font-family="Helvetica,sans-Serif" font-size="10.00">Teleport</text>
</a>
</g>
</g>
<!-- Node1&#45;&gt;Node5 -->
<g id="edge4_Node000001_Node000005" class="edge">
<title>Node1&#45;&gt;Node5</title>
<g id="a_edge4_Node000001_Node000005"><a xlink:title=" ">
<path fill="none" stroke="#63b8ff" d="M122.61,-45.87C127.59,-37.19 133.26,-27.32 137.29,-20.3"/>
<polygon fill="#63b8ff" stroke="#63b8ff" points="119.72,-43.87 117.78,-54.28 125.79,-47.35 119.72,-43.87"/>
</a>
</g>
</g>
<!-- Node6 -->
<g id="Node000006" class="node">
<title>Node6</title>
<g id="a_Node000006"><a xlink:href="classWall.html" target="_top" xlink:title=" ">
<polygon fill="white" stroke="#666666" points="221,-20 186.25,-20 186.25,0 221,0 221,-20"/>
<text text-anchor="middle" x="203.62" y="-6.5" font-family="Helvetica,sans-Serif" font-size="10.00">Wall</text>
</a>
</g>
</g>
<!-- Node1&#45;&gt;Node6 -->
<g id="edge5_Node000001_Node000006" class="edge">
<title>Node1&#45;&gt;Node6</title>
<g id="a_edge5_Node000001_Node000006"><a xlink:title=" ">
<path fill="none" stroke="#63b8ff" d="M137.5,-49.81C153.55,-40.39 173.67,-28.58 187.47,-20.48"/>
<polygon fill="#63b8ff" stroke="#63b8ff" points="135.81,-46.75 128.96,-54.83 139.35,-52.78 135.81,-46.75"/>
</a>
</g>
</g>
<!-- Node2 -->
<g id="Node000002" class="node">
<title>Node2</title>
<g id="a_Node000002"><a xlink:href="classGameObject.html" target="_top" xlink:title=" ">
<polygon fill="white" stroke="#666666" points="147,-132 76.25,-132 76.25,-112 147,-112 147,-132"/>
<text text-anchor="middle" x="111.62" y="-118.5" font-family="Helvetica,sans-Serif" font-size="10.00">GameObject</text>
</a>
</g>
</g>
<!-- Node2&#45;&gt;Node1 -->
<g id="edge1_Node000001_Node000002" class="edge">
<title>Node2&#45;&gt;Node1</title>
<g id="a_edge1_Node000001_Node000002"><a xlink:title=" ">
<path fill="none" stroke="#63b8ff" d="M111.62,-100.13C111.62,-91.9 111.62,-82.85 111.62,-76.3"/>
<polygon fill="#63b8ff" stroke="#63b8ff" points="108.13,-100.08 111.63,-110.08 115.13,-100.08 108.13,-100.08"/>
</a>
</g>
</g>
</g>
</svg>
