<?xml version="1.0" encoding="UTF-8" standalone="no"?>
<!DOCTYPE svg PUBLIC "-//W3C//DTD SVG 1.1//EN"
 "http://www.w3.org/Graphics/SVG/1.1/DTD/svg11.dtd">
<!-- Generated by graphviz version 2.43.0 (0)
 -->
<!-- Title: Leaderboard::saveScores Pages: 1 -->
<svg width="375pt" height="28pt"
 viewBox="0.00 0.00 375.00 28.00" xmlns="http://www.w3.org/2000/svg" xmlns:xlink="http://www.w3.org/1999/xlink">
<g id="graph0" class="graph" transform="scale(1 1) rotate(0) translate(4 24)">
<title>Leaderboard::saveScores</title>
<polygon fill="white" stroke="transparent" points="-4,4 -4,-24 371,-24 371,4 -4,4"/>
<!-- Node1 -->
<g id="node1" class="node">
<title>Node1</title>
<g id="a_node1"><a xlink:title="Saves the scores to a file.">
<polygon fill="#bfbfbf" stroke="black" points="228,-0.5 228,-19.5 367,-19.5 367,-0.5 228,-0.5"/>
<text text-anchor="middle" x="297.5" y="-7.5" font-family="Helvetica,sans-Serif" font-size="10.00">Leaderboard::saveScores</text>
</a>
</g>
</g>
<!-- Node2 -->
<g id="node2" class="node">
<title>Node2</title>
<g id="a_node2"><a xlink:href="classGame.html#aa2d938aa918268060e63980c7efd86f8" target="_top" xlink:title="Ends the game.">
<polygon fill="white" stroke="black" points="122,-0.5 122,-19.5 192,-19.5 192,-0.5 122,-0.5"/>
<text text-anchor="middle" x="157" y="-7.5" font-family="Helvetica,sans-Serif" font-size="10.00">Game::end</text>
</a>
</g>
</g>
<!-- Node1&#45;&gt;Node2 -->
<g id="edge1" class="edge">
<title>Node1&#45;&gt;Node2</title>
<path fill="none" stroke="midnightblue" d="M217.55,-10C208.65,-10 199.97,-10 192.11,-10"/>
<polygon fill="midnightblue" stroke="midnightblue" points="217.66,-13.5 227.66,-10 217.66,-6.5 217.66,-13.5"/>
</g>
<!-- Node3 -->
<g id="node3" class="node">
<title>Node3</title>
<g id="a_node3"><a xlink:href="classGame.html#aef7682b8bf084aac3c8f929a6fd2f673" target="_top" xlink:title="Updates the game state.">
<polygon fill="white" stroke="black" points="0,-0.5 0,-19.5 86,-19.5 86,-0.5 0,-0.5"/>
<text text-anchor="middle" x="43" y="-7.5" font-family="Helvetica,sans-Serif" font-size="10.00">Game::update</text>
</a>
</g>
</g>
<!-- Node2&#45;&gt;Node3 -->
<g id="edge2" class="edge">
<title>Node2&#45;&gt;Node3</title>
<path fill="none" stroke="midnightblue" d="M111.51,-10C103.21,-10 94.55,-10 86.31,-10"/>
<polygon fill="midnightblue" stroke="midnightblue" points="111.79,-13.5 121.79,-10 111.79,-6.5 111.79,-13.5"/>
</g>
</g>
</svg>
