<?xml version="1.0" encoding="UTF-8" standalone="no"?>
<!DOCTYPE svg PUBLIC "-//W3C//DTD SVG 1.1//EN"
 "http://www.w3.org/Graphics/SVG/1.1/DTD/svg11.dtd">
<!-- Generated by graphviz version 10.0.1 (0)
 -->
<!-- Title: Window::getInput Pages: 1 -->
<svg width="370pt" height="104pt"
 viewBox="0.00 0.00 370.25 104.00" xmlns="http://www.w3.org/2000/svg" xmlns:xlink="http://www.w3.org/1999/xlink">
<g id="graph0" class="graph" transform="scale(1 1) rotate(0) translate(4 100)">
<title>Window::getInput</title>
<!-- Node1 -->
<g id="Node000001" class="node">
<title>Node1</title>
<g id="a_Node000001"><a xlink:title="Gets text input from the user.">
<polygon fill="#999999" stroke="#666666" points="362.25,-39 269.75,-39 269.75,-19 362.25,-19 362.25,-39"/>
<text text-anchor="middle" x="316" y="-25.5" font-family="Helvetica,sans-Serif" font-size="10.00">Window::getInput</text>
</a>
</g>
</g>
<!-- Node2 -->
<g id="Node000002" class="node">
<title>Node2</title>
<g id="a_Node000002"><a xlink:href="classGame.html#a4c2a7ead717a4c13f1ffddafd11e17c8" target="_top" xlink:title="Initializes the game, loading config, and the map.">
<polygon fill="white" stroke="#666666" points="233.75,-58 124,-58 124,-38 233.75,-38 233.75,-58"/>
<text text-anchor="middle" x="178.88" y="-44.5" font-family="Helvetica,sans-Serif" font-size="10.00">Game::initializeGame</text>
</a>
</g>
</g>
<!-- Node1&#45;&gt;Node2 -->
<g id="edge1_Node000001_Node000002" class="edge">
<title>Node1&#45;&gt;Node2</title>
<g id="a_edge1_Node000001_Node000002"><a xlink:title=" ">
<path fill="none" stroke="#63b8ff" d="M257.85,-37.04C249.94,-38.15 241.84,-39.29 233.98,-40.39"/>
<polygon fill="#63b8ff" stroke="#63b8ff" points="258.34,-40.5 267.75,-35.64 257.36,-33.57 258.34,-40.5"/>
</a>
</g>
</g>
<!-- Node5 -->
<g id="Node000005" class="node">
<title>Node5</title>
<g id="a_Node000005"><a xlink:href="classGameManager.html#a8460b2f4f44c19dd405e4163fe6cb5cf" target="_top" xlink:title=" ">
<polygon fill="white" stroke="#666666" points="231.5,-20 126.25,-20 126.25,0 231.5,0 231.5,-20"/>
<text text-anchor="middle" x="178.88" y="-6.5" font-family="Helvetica,sans-Serif" font-size="10.00">GameManager::start</text>
</a>
</g>
</g>
<!-- Node1&#45;&gt;Node5 -->
<g id="edge4_Node000001_Node000005" class="edge">
<title>Node1&#45;&gt;Node5</title>
<g id="a_edge4_Node000001_Node000005"><a xlink:title=" ">
<path fill="none" stroke="#63b8ff" d="M257.96,-20.98C249.22,-19.75 240.24,-18.49 231.62,-17.28"/>
<polygon fill="#63b8ff" stroke="#63b8ff" points="257.36,-24.43 267.75,-22.36 258.34,-17.5 257.36,-24.43"/>
</a>
</g>
</g>
<!-- Node3 -->
<g id="Node000003" class="node">
<title>Node3</title>
<g id="a_Node000003"><a xlink:href="classGame.html#a2a30c89761624ee64cd7acb147aaf89c" target="_top" xlink:title="Starts the game.">
<polygon fill="white" stroke="#666666" points="77.88,-96 10.12,-96 10.12,-76 77.88,-76 77.88,-96"/>
<text text-anchor="middle" x="44" y="-82.5" font-family="Helvetica,sans-Serif" font-size="10.00">Game::start</text>
</a>
</g>
</g>
<!-- Node2&#45;&gt;Node3 -->
<g id="edge2_Node000002_Node000003" class="edge">
<title>Node2&#45;&gt;Node3</title>
<g id="a_edge2_Node000002_Node000003"><a xlink:title=" ">
<path fill="none" stroke="#63b8ff" d="M130.24,-61.62C113.06,-66.53 94.06,-71.97 78.36,-76.46"/>
<polygon fill="#63b8ff" stroke="#63b8ff" points="131.11,-65.02 139.76,-58.9 129.18,-58.28 131.11,-65.02"/>
</a>
</g>
</g>
<!-- Node4 -->
<g id="Node000004" class="node">
<title>Node4</title>
<g id="a_Node000004"><a xlink:href="classGame.html#a1118c369ae5b2fe433aac540cb32d187" target="_top" xlink:title="Starts the game with a new map.">
<polygon fill="white" stroke="#666666" points="88,-58 0,-58 0,-38 88,-38 88,-58"/>
<text text-anchor="middle" x="44" y="-44.5" font-family="Helvetica,sans-Serif" font-size="10.00">Game::startNew</text>
</a>
</g>
</g>
<!-- Node2&#45;&gt;Node4 -->
<g id="edge3_Node000002_Node000004" class="edge">
<title>Node2&#45;&gt;Node4</title>
<g id="a_edge3_Node000002_Node000004"><a xlink:title=" ">
<path fill="none" stroke="#63b8ff" d="M112.39,-48C104.26,-48 96.1,-48 88.42,-48"/>
<polygon fill="#63b8ff" stroke="#63b8ff" points="112.32,-51.5 122.32,-48 112.32,-44.5 112.32,-51.5"/>
</a>
</g>
</g>
<!-- Node6 -->
<g id="Node000006" class="node">
<title>Node6</title>
<g id="a_Node000006"><a xlink:href="main_8cpp.html#ae66f6b31b5ad750f1fe042a706a4e3d4" target="_top" xlink:title=" ">
<polygon fill="white" stroke="#666666" points="62.5,-20 25.5,-20 25.5,0 62.5,0 62.5,-20"/>
<text text-anchor="middle" x="44" y="-6.5" font-family="Helvetica,sans-Serif" font-size="10.00">main</text>
</a>
</g>
</g>
<!-- Node5&#45;&gt;Node6 -->
<g id="edge5_Node000005_Node000006" class="edge">
<title>Node5&#45;&gt;Node6</title>
<g id="a_edge5_Node000005_Node000006"><a xlink:title=" ">
<path fill="none" stroke="#63b8ff" d="M114.66,-10C95.59,-10 76.16,-10 62.68,-10"/>
<polygon fill="#63b8ff" stroke="#63b8ff" points="114.61,-13.5 124.61,-10 114.61,-6.5 114.61,-13.5"/>
</a>
</g>
</g>
</g>
</svg>
