<?xml version="1.0" encoding="UTF-8" standalone="no"?>
<!DOCTYPE svg PUBLIC "-//W3C//DTD SVG 1.1//EN"
 "http://www.w3.org/Graphics/SVG/1.1/DTD/svg11.dtd">
<!-- Generated by graphviz version 2.43.0 (0)
 -->
<!-- Title: Game::end Pages: 1 -->
<svg width="631pt" height="370pt"
 viewBox="0.00 0.00 631.00 370.00" xmlns="http://www.w3.org/2000/svg" xmlns:xlink="http://www.w3.org/1999/xlink">
<g id="graph0" class="graph" transform="scale(1 1) rotate(0) translate(4 366)">
<title>Game::end</title>
<polygon fill="white" stroke="transparent" points="-4,4 -4,-366 627,-366 627,4 -4,4"/>
<!-- Node1 -->
<g id="node1" class="node">
<title>Node1</title>
<g id="a_node1"><a xlink:title="Ends the game.">
<polygon fill="#bfbfbf" stroke="black" points="0,-171.5 0,-190.5 70,-190.5 70,-171.5 0,-171.5"/>
<text text-anchor="middle" x="35" y="-178.5" font-family="Helvetica,sans-Serif" font-size="10.00">Game::end</text>
</a>
</g>
</g>
<!-- Node2 -->
<g id="node2" class="node">
<title>Node2</title>
<g id="a_node2"><a xlink:href="classLeaderboard.html#a24c17b1bdb86b112887b0ecdd3c61fa3" target="_top" xlink:title="Adds a score to the leaderboard.">
<polygon fill="white" stroke="black" points="116,-342.5 116,-361.5 244,-361.5 244,-342.5 116,-342.5"/>
<text text-anchor="middle" x="180" y="-349.5" font-family="Helvetica,sans-Serif" font-size="10.00">Leaderboard::addScore</text>
</a>
</g>
</g>
<!-- Node1&#45;&gt;Node2 -->
<g id="edge1" class="edge">
<title>Node1&#45;&gt;Node2</title>
<path fill="none" stroke="midnightblue" d="M37.89,-190.84C43.42,-217.08 62.09,-289.33 106,-328 110.73,-332.17 116.2,-335.61 121.98,-338.46"/>
<polygon fill="midnightblue" stroke="midnightblue" points="120.68,-341.71 131.25,-342.47 123.46,-335.29 120.68,-341.71"/>
</g>
<!-- Node3 -->
<g id="node3" class="node">
<title>Node3</title>
<g id="a_node3"><a xlink:href="classWindow.html#a07c2b4d065cbcb397eafc1a27a337bb7" target="_top" xlink:title="Clears the current window.">
<polygon fill="white" stroke="black" points="483,-209.5 483,-228.5 623,-228.5 623,-209.5 483,-209.5"/>
<text text-anchor="middle" x="553" y="-216.5" font-family="Helvetica,sans-Serif" font-size="10.00">Window::clearCurrentWin</text>
</a>
</g>
</g>
<!-- Node1&#45;&gt;Node3 -->
<g id="edge2" class="edge">
<title>Node1&#45;&gt;Node3</title>
<path fill="none" stroke="midnightblue" d="M70.26,-183.52C151.65,-189.52 358.35,-204.74 472.77,-213.17"/>
<polygon fill="midnightblue" stroke="midnightblue" points="472.64,-216.67 482.87,-213.91 473.16,-209.68 472.64,-216.67"/>
</g>
<!-- Node4 -->
<g id="node4" class="node">
<title>Node4</title>
<g id="a_node4"><a xlink:href="classMap.html#a7ded655c7db0e9d72816430b4f2c83a5" target="_top" xlink:title="Clears the map.">
<polygon fill="white" stroke="black" points="324,-304.5 324,-323.5 413,-323.5 413,-304.5 324,-304.5"/>
<text text-anchor="middle" x="368.5" y="-311.5" font-family="Helvetica,sans-Serif" font-size="10.00">Map::clearMap</text>
</a>
</g>
</g>
<!-- Node1&#45;&gt;Node4 -->
<g id="edge3" class="edge">
<title>Node1&#45;&gt;Node4</title>
<path fill="none" stroke="midnightblue" d="M38.68,-190.82C45.51,-213.74 65.91,-270.63 106,-295 169.16,-333.4 257.42,-330.73 313.51,-323.64"/>
<polygon fill="midnightblue" stroke="midnightblue" points="314.16,-327.09 323.6,-322.27 313.22,-320.15 314.16,-327.09"/>
</g>
<!-- Node5 -->
<g id="node5" class="node">
<title>Node5</title>
<g id="a_node5"><a xlink:href="classWindow.html#a2a15428125d31769c0c68ddcd7874d1d" target="_top" xlink:title="Displays the leaderboard.">
<polygon fill="white" stroke="black" points="290,-152.5 290,-171.5 447,-171.5 447,-152.5 290,-152.5"/>
<text text-anchor="middle" x="368.5" y="-159.5" font-family="Helvetica,sans-Serif" font-size="10.00">Window::displayLeaderboard</text>
</a>
</g>
</g>
<!-- Node1&#45;&gt;Node5 -->
<g id="edge4" class="edge">
<title>Node1&#45;&gt;Node5</title>
<path fill="none" stroke="midnightblue" d="M70.23,-179.04C119.16,-176.23 210.78,-170.98 279.43,-167.05"/>
<polygon fill="midnightblue" stroke="midnightblue" points="280.03,-170.52 289.81,-166.45 279.63,-163.53 280.03,-170.52"/>
</g>
<!-- Node6 -->
<g id="node6" class="node">
<title>Node6</title>
<g id="a_node6"><a xlink:href="classGame.html#a66e2ecb02f046b0c17922a4255720e5a" target="_top" xlink:title="Ends the game on error.">
<polygon fill="white" stroke="black" points="131.5,-266.5 131.5,-285.5 228.5,-285.5 228.5,-266.5 131.5,-266.5"/>
<text text-anchor="middle" x="180" y="-273.5" font-family="Helvetica,sans-Serif" font-size="10.00">Game::endOnErr</text>
</a>
</g>
</g>
<!-- Node1&#45;&gt;Node6 -->
<g id="edge6" class="edge">
<title>Node1&#45;&gt;Node6</title>
<path fill="none" stroke="midnightblue" d="M43.07,-190.71C54.61,-205.88 78.93,-235.22 106,-252 113.01,-256.35 120.9,-260 128.83,-263.03"/>
<polygon fill="midnightblue" stroke="midnightblue" points="127.86,-266.4 138.46,-266.43 130.19,-259.8 127.86,-266.4"/>
</g>
<!-- Node7 -->
<g id="node7" class="node">
<title>Node7</title>
<g id="a_node7"><a xlink:href="classWindow.html#aba37c5e32e43d21a46968fd8ada1d327" target="_top" xlink:title="Prints the message to the current window.">
<polygon fill="white" stroke="black" points="305,-228.5 305,-247.5 432,-247.5 432,-228.5 305,-228.5"/>
<text text-anchor="middle" x="368.5" y="-235.5" font-family="Helvetica,sans-Serif" font-size="10.00">Window::printMessage</text>
</a>
</g>
</g>
<!-- Node1&#45;&gt;Node7 -->
<g id="edge14" class="edge">
<title>Node1&#45;&gt;Node7</title>
<path fill="none" stroke="midnightblue" d="M52.06,-190.56C65.87,-198.28 86.56,-208.7 106,-214 168.29,-230.97 241.7,-236.51 294.85,-238.07"/>
<polygon fill="midnightblue" stroke="midnightblue" points="294.78,-241.57 304.87,-238.33 294.96,-234.58 294.78,-241.57"/>
</g>
<!-- Node8 -->
<g id="node8" class="node">
<title>Node8</title>
<g id="a_node8"><a xlink:href="classConfig.html#a683f3adeacbde8622e8c46cc2f9dee25" target="_top" xlink:title="Gets the map file path.">
<polygon fill="white" stroke="black" points="135,-114.5 135,-133.5 225,-133.5 225,-114.5 135,-114.5"/>
<text text-anchor="middle" x="180" y="-121.5" font-family="Helvetica,sans-Serif" font-size="10.00">Config::getPath</text>
</a>
</g>
</g>
<!-- Node1&#45;&gt;Node8 -->
<g id="edge11" class="edge">
<title>Node1&#45;&gt;Node8</title>
<path fill="none" stroke="midnightblue" d="M54.74,-171.4C68.68,-164.44 88.28,-155.06 106,-148 116.05,-144 127.06,-140.12 137.41,-136.7"/>
<polygon fill="midnightblue" stroke="midnightblue" points="138.64,-139.97 147.08,-133.56 136.48,-133.32 138.64,-139.97"/>
</g>
<!-- Node9 -->
<g id="node9" class="node">
<title>Node9</title>
<g id="a_node9"><a xlink:href="classLeaderboard.html#a03943d489323ac2134118a5a56910e76" target="_top" xlink:title="Gets the top scores.">
<polygon fill="white" stroke="black" points="106,-76.5 106,-95.5 254,-95.5 254,-76.5 106,-76.5"/>
<text text-anchor="middle" x="180" y="-83.5" font-family="Helvetica,sans-Serif" font-size="10.00">Leaderboard::getTopScores</text>
</a>
</g>
</g>
<!-- Node1&#45;&gt;Node9 -->
<g id="edge12" class="edge">
<title>Node1&#45;&gt;Node9</title>
<path fill="none" stroke="midnightblue" d="M42.07,-171.44C52.89,-155.21 77.08,-122.35 106,-105 109.66,-102.8 113.58,-100.85 117.62,-99.13"/>
<polygon fill="midnightblue" stroke="midnightblue" points="119.11,-102.31 127.23,-95.5 116.64,-95.76 119.11,-102.31"/>
</g>
<!-- Node10 -->
<g id="node10" class="node">
<title>Node10</title>
<g id="a_node10"><a xlink:href="classConfig.html#a62c7c2d485cb30374271dba0eafe63c8" target="_top" xlink:title="Gets any value from the config map.">
<polygon fill="white" stroke="black" points="132,-38.5 132,-57.5 228,-57.5 228,-38.5 132,-38.5"/>
<text text-anchor="middle" x="180" y="-45.5" font-family="Helvetica,sans-Serif" font-size="10.00">Config::getValue</text>
</a>
</g>
</g>
<!-- Node1&#45;&gt;Node10 -->
<g id="edge13" class="edge">
<title>Node1&#45;&gt;Node10</title>
<path fill="none" stroke="midnightblue" d="M39.11,-171.32C46.73,-149.21 68.48,-94.78 106,-67 110.85,-63.41 116.33,-60.49 122.04,-58.12"/>
<polygon fill="midnightblue" stroke="midnightblue" points="123.57,-61.29 131.82,-54.64 121.22,-54.7 123.57,-61.29"/>
</g>
<!-- Node11 -->
<g id="node11" class="node">
<title>Node11</title>
<g id="a_node11"><a xlink:href="classLeaderboard.html#aa277b90da39dbbfe9088a8bffb9ddb59" target="_top" xlink:title="Saves the scores to a file.">
<polygon fill="white" stroke="black" points="110.5,-0.5 110.5,-19.5 249.5,-19.5 249.5,-0.5 110.5,-0.5"/>
<text text-anchor="middle" x="180" y="-7.5" font-family="Helvetica,sans-Serif" font-size="10.00">Leaderboard::saveScores</text>
</a>
</g>
</g>
<!-- Node1&#45;&gt;Node11 -->
<g id="edge15" class="edge">
<title>Node1&#45;&gt;Node11</title>
<path fill="none" stroke="midnightblue" d="M37.5,-171.45C42.25,-144.62 59.44,-67.97 106,-29 108.02,-27.31 110.18,-25.77 112.43,-24.36"/>
<polygon fill="midnightblue" stroke="midnightblue" points="114.32,-27.32 121.55,-19.57 111.07,-21.12 114.32,-27.32"/>
</g>
<!-- Node5&#45;&gt;Node3 -->
<g id="edge5" class="edge">
<title>Node5&#45;&gt;Node3</title>
<path fill="none" stroke="midnightblue" d="M400.43,-171.55C414.63,-175.94 431.67,-181.22 447,-186 468.44,-192.69 492.32,-200.19 511.88,-206.35"/>
<polygon fill="midnightblue" stroke="midnightblue" points="511.1,-209.77 521.68,-209.44 513.2,-203.09 511.1,-209.77"/>
</g>
<!-- Node6&#45;&gt;Node3 -->
<g id="edge7" class="edge">
<title>Node6&#45;&gt;Node3</title>
<path fill="none" stroke="midnightblue" d="M228.64,-276.53C282.29,-276.22 371.82,-272.97 447,-257 472.75,-251.53 500.72,-241.17 521.32,-232.65"/>
<polygon fill="midnightblue" stroke="midnightblue" points="522.94,-235.76 530.79,-228.65 520.22,-229.32 522.94,-235.76"/>
</g>
<!-- Node6&#45;&gt;Node4 -->
<g id="edge8" class="edge">
<title>Node6&#45;&gt;Node4</title>
<path fill="none" stroke="midnightblue" d="M228.06,-285.59C254.18,-290.91 286.77,-297.55 313.88,-303.07"/>
<polygon fill="midnightblue" stroke="midnightblue" points="313.48,-306.56 323.97,-305.13 314.87,-299.71 313.48,-306.56"/>
</g>
<!-- Node6&#45;&gt;Node7 -->
<g id="edge9" class="edge">
<title>Node6&#45;&gt;Node7</title>
<path fill="none" stroke="midnightblue" d="M228.06,-266.41C253.23,-261.28 284.4,-254.93 310.88,-249.54"/>
<polygon fill="midnightblue" stroke="midnightblue" points="311.68,-252.95 320.78,-247.52 310.28,-246.09 311.68,-252.95"/>
</g>
<!-- Node7&#45;&gt;Node3 -->
<g id="edge10" class="edge">
<title>Node7&#45;&gt;Node3</title>
<path fill="none" stroke="midnightblue" d="M432.05,-231.49C445.12,-230.13 459.07,-228.67 472.66,-227.26"/>
<polygon fill="midnightblue" stroke="midnightblue" points="473.38,-230.7 482.97,-226.19 472.66,-223.74 473.38,-230.7"/>
</g>
<!-- Node12 -->
<g id="node12" class="node">
<title>Node12</title>
<g id="a_node12"><a xlink:href="classLeaderboard.html#a0535aae610bd8dc1e82e44a996190221" target="_top" xlink:title="Writes a value to binary save file.">
<polygon fill="white" stroke="black" points="314.5,-0.5 314.5,-19.5 422.5,-19.5 422.5,-0.5 314.5,-0.5"/>
<text text-anchor="middle" x="368.5" y="-7.5" font-family="Helvetica,sans-Serif" font-size="10.00">Leaderboard::write</text>
</a>
</g>
</g>
<!-- Node11&#45;&gt;Node12 -->
<g id="edge16" class="edge">
<title>Node11&#45;&gt;Node12</title>
<path fill="none" stroke="midnightblue" d="M249.65,-10C267.54,-10 286.72,-10 304.31,-10"/>
<polygon fill="midnightblue" stroke="midnightblue" points="304.46,-13.5 314.46,-10 304.46,-6.5 304.46,-13.5"/>
</g>
</g>
</svg>
