<?xml version="1.0" encoding="UTF-8" standalone="no"?>
<!DOCTYPE svg PUBLIC "-//W3C//DTD SVG 1.1//EN"
 "http://www.w3.org/Graphics/SVG/1.1/DTD/svg11.dtd">
<!-- Generated by graphviz version 10.0.1 (0)
 -->
<!-- Title: Window::getChoice Pages: 1 -->
<svg width="453pt" height="66pt"
 viewBox="0.00 0.00 452.75 66.00" xmlns="http://www.w3.org/2000/svg" xmlns:xlink="http://www.w3.org/1999/xlink">
<g id="graph0" class="graph" transform="scale(1 1) rotate(0) translate(4 62)">
<title>Window::getChoice</title>
<!-- Node1 -->
<g id="Node000001" class="node">
<title>Node1</title>
<g id="a_Node000001"><a xlink:title="Gets the user choice from the main menu.">
<polygon fill="#999999" stroke="#666666" points="101.5,-39 0,-39 0,-19 101.5,-19 101.5,-39"/>
<text text-anchor="middle" x="50.75" y="-25.5" font-family="Helvetica,sans-Serif" font-size="10.00">Window::getChoice</text>
</a>
</g>
</g>
<!-- Node2 -->
<g id="Node000002" class="node">
<title>Node2</title>
<g id="a_Node000002"><a xlink:href="classWindow.html#ac9718717327b190f444c9fe3955477a7" target="_top" xlink:title="Creates the main menu window.">
<polygon fill="white" stroke="#666666" points="281,-58 137.5,-58 137.5,-38 281,-38 281,-58"/>
<text text-anchor="middle" x="209.25" y="-44.5" font-family="Helvetica,sans-Serif" font-size="10.00">Window::createMenuWindow</text>
</a>
</g>
</g>
<!-- Node1&#45;&gt;Node2 -->
<g id="edge1_Node000001_Node000002" class="edge">
<title>Node1&#45;&gt;Node2</title>
<g id="a_edge1_Node000001_Node000002"><a xlink:title=" ">
<path fill="none" stroke="#63b8ff" d="M101.7,-35.06C109.45,-36 117.62,-37 125.86,-38"/>
<polygon fill="#63b8ff" stroke="#63b8ff" points="125.25,-41.45 135.6,-39.18 126.09,-34.5 125.25,-41.45"/>
</a>
</g>
</g>
<!-- Node4 -->
<g id="Node000004" class="node">
<title>Node4</title>
<g id="a_Node000004"><a xlink:href="classWindow.html#abde910f5e4b012211f4cd0425d0bece1" target="_top" xlink:title="Draws the menu options.">
<polygon fill="white" stroke="#666666" points="277.25,-20 141.25,-20 141.25,0 277.25,0 277.25,-20"/>
<text text-anchor="middle" x="209.25" y="-6.5" font-family="Helvetica,sans-Serif" font-size="10.00">Window::drawMenuOptions</text>
</a>
</g>
</g>
<!-- Node1&#45;&gt;Node4 -->
<g id="edge3_Node000001_Node000004" class="edge">
<title>Node1&#45;&gt;Node4</title>
<g id="a_edge3_Node000001_Node000004"><a xlink:title=" ">
<path fill="none" stroke="#63b8ff" d="M101.7,-22.94C110.63,-21.85 120.14,-20.7 129.65,-19.54"/>
<polygon fill="#63b8ff" stroke="#63b8ff" points="129.78,-23.05 139.29,-18.37 128.94,-16.1 129.78,-23.05"/>
</a>
</g>
</g>
<!-- Node3 -->
<g id="Node000003" class="node">
<title>Node3</title>
<g id="a_Node000003"><a xlink:href="classWindow.html#a07c2b4d065cbcb397eafc1a27a337bb7" target="_top" xlink:title="Clears the current window.">
<polygon fill="white" stroke="#666666" points="444.75,-58 317,-58 317,-38 444.75,-38 444.75,-58"/>
<text text-anchor="middle" x="380.88" y="-44.5" font-family="Helvetica,sans-Serif" font-size="10.00">Window::clearCurrentWin</text>
</a>
</g>
</g>
<!-- Node2&#45;&gt;Node3 -->
<g id="edge2_Node000002_Node000003" class="edge">
<title>Node2&#45;&gt;Node3</title>
<g id="a_edge2_Node000002_Node000003"><a xlink:title=" ">
<path fill="none" stroke="#63b8ff" d="M281.2,-48C289.23,-48 297.42,-48 305.48,-48"/>
<polygon fill="#63b8ff" stroke="#63b8ff" points="305.25,-51.5 315.25,-48 305.25,-44.5 305.25,-51.5"/>
</a>
</g>
</g>
</g>
</svg>
