<?xml version="1.0" encoding="UTF-8" standalone="no"?>
<!DOCTYPE svg PUBLIC "-//W3C//DTD SVG 1.1//EN"
 "http://www.w3.org/Graphics/SVG/1.1/DTD/svg11.dtd">
<!-- Generated by graphviz version 10.0.1 (0)
 -->
<!-- Title: Map::validateBorder Pages: 1 -->
<svg width="744pt" height="123pt"
 viewBox="0.00 0.00 743.75 123.00" xmlns="http://www.w3.org/2000/svg" xmlns:xlink="http://www.w3.org/1999/xlink">
<g id="graph0" class="graph" transform="scale(1 1) rotate(0) translate(4 119)">
<title>Map::validateBorder</title>
<!-- Node1 -->
<g id="Node000001" class="node">
<title>Node1</title>
<g id="a_Node000001"><a xlink:title="Helper function for validating the map borders.">
<polygon fill="#999999" stroke="#666666" points="735.75,-77 632.75,-77 632.75,-57 735.75,-57 735.75,-77"/>
<text text-anchor="middle" x="684.25" y="-63.5" font-family="Helvetica,sans-Serif" font-size="10.00">Map::validateBorder</text>
</a>
</g>
</g>
<!-- Node2 -->
<g id="Node000002" class="node">
<title>Node2</title>
<g id="a_Node000002"><a xlink:href="classMap.html#ab1c2595a555457c0a764a0530b57c0f9" target="_top" xlink:title="Helper function for validating map string.">
<polygon fill="white" stroke="#666666" points="596.75,-77 502.75,-77 502.75,-57 596.75,-57 596.75,-77"/>
<text text-anchor="middle" x="549.75" y="-63.5" font-family="Helvetica,sans-Serif" font-size="10.00">Map::processMap</text>
</a>
</g>
</g>
<!-- Node1&#45;&gt;Node2 -->
<g id="edge1_Node000001_Node000002" class="edge">
<title>Node1&#45;&gt;Node2</title>
<g id="a_edge1_Node000001_Node000002"><a xlink:title=" ">
<path fill="none" stroke="#63b8ff" d="M621.02,-67C612.9,-67 604.7,-67 596.91,-67"/>
<polygon fill="#63b8ff" stroke="#63b8ff" points="620.89,-70.5 630.89,-67 620.89,-63.5 620.89,-70.5"/>
</a>
</g>
</g>
<!-- Node3 -->
<g id="Node000003" class="node">
<title>Node3</title>
<g id="a_Node000003"><a xlink:href="classMap.html#ab5b009bf7edded05f4461b62de5eff49" target="_top" xlink:title="Loads the map from a string.">
<polygon fill="white" stroke="#666666" points="466.75,-105 360,-105 360,-85 466.75,-85 466.75,-105"/>
<text text-anchor="middle" x="413.38" y="-91.5" font-family="Helvetica,sans-Serif" font-size="10.00">Map::loadFromString</text>
</a>
</g>
</g>
<!-- Node2&#45;&gt;Node3 -->
<g id="edge2_Node000002_Node000003" class="edge">
<title>Node2&#45;&gt;Node3</title>
<g id="a_edge2_Node000002_Node000003"><a xlink:title=" ">
<path fill="none" stroke="#63b8ff" d="M491.33,-78.97C482.36,-80.83 473.16,-82.75 464.38,-84.58"/>
<polygon fill="#63b8ff" stroke="#63b8ff" points="491.95,-82.41 501.02,-76.94 490.52,-75.56 491.95,-82.41"/>
</a>
</g>
</g>
<!-- Node5 -->
<g id="Node000005" class="node">
<title>Node5</title>
<g id="a_Node000005"><a xlink:href="classMap.html#a2657d897204aaedba0e8e4f01b2e1efc" target="_top" xlink:title="Loads the map from a file.">
<polygon fill="white" stroke="#666666" points="452.12,-58 374.62,-58 374.62,-38 452.12,-38 452.12,-58"/>
<text text-anchor="middle" x="413.38" y="-44.5" font-family="Helvetica,sans-Serif" font-size="10.00">Map::loadMap</text>
</a>
</g>
</g>
<!-- Node2&#45;&gt;Node5 -->
<g id="edge4_Node000002_Node000005" class="edge">
<title>Node2&#45;&gt;Node5</title>
<g id="a_edge4_Node000002_Node000005"><a xlink:title=" ">
<path fill="none" stroke="#63b8ff" d="M491.13,-58.85C477.97,-56.99 464.32,-55.06 452.24,-53.35"/>
<polygon fill="#63b8ff" stroke="#63b8ff" points="490.62,-62.31 501.01,-60.25 491.6,-55.38 490.62,-62.31"/>
</a>
</g>
</g>
<!-- Node4 -->
<g id="Node000004" class="node">
<title>Node4</title>
<g id="a_Node000004"><a xlink:href="classGame.html#a1118c369ae5b2fe433aac540cb32d187" target="_top" xlink:title="Starts the game with a new map.">
<polygon fill="white" stroke="#666666" points="169.62,-115 81.62,-115 81.62,-95 169.62,-95 169.62,-115"/>
<text text-anchor="middle" x="125.62" y="-101.5" font-family="Helvetica,sans-Serif" font-size="10.00">Game::startNew</text>
</a>
</g>
</g>
<!-- Node3&#45;&gt;Node4 -->
<g id="edge3_Node000003_Node000004" class="edge">
<title>Node3&#45;&gt;Node4</title>
<g id="a_edge3_Node000003_Node000004"><a xlink:title=" ">
<path fill="none" stroke="#63b8ff" d="M348.37,-97.24C293.9,-99.15 217.17,-101.83 169.73,-103.49"/>
<polygon fill="#63b8ff" stroke="#63b8ff" points="348.25,-100.75 358.12,-96.9 348,-93.75 348.25,-100.75"/>
</a>
</g>
</g>
<!-- Node6 -->
<g id="Node000006" class="node">
<title>Node6</title>
<g id="a_Node000006"><a xlink:href="classGame.html#a4c2a7ead717a4c13f1ffddafd11e17c8" target="_top" xlink:title="Initializes the game, loading config, and the map.">
<polygon fill="white" stroke="#666666" points="324,-77 214.25,-77 214.25,-57 324,-57 324,-77"/>
<text text-anchor="middle" x="269.12" y="-63.5" font-family="Helvetica,sans-Serif" font-size="10.00">Game::initializeGame</text>
</a>
</g>
</g>
<!-- Node5&#45;&gt;Node6 -->
<g id="edge5_Node000005_Node000006" class="edge">
<title>Node5&#45;&gt;Node6</title>
<g id="a_edge5_Node000005_Node000006"><a xlink:title=" ">
<path fill="none" stroke="#63b8ff" d="M363.11,-54.58C350.62,-56.25 337.12,-58.05 324.4,-59.75"/>
<polygon fill="#63b8ff" stroke="#63b8ff" points="363.31,-58.09 372.75,-53.29 362.38,-51.15 363.31,-58.09"/>
</a>
</g>
</g>
<!-- Node8 -->
<g id="Node000008" class="node">
<title>Node8</title>
<g id="a_Node000008"><a xlink:href="classConfig.html#ab8b24da021cd9ad9ca092749292ca6ed" target="_top" xlink:title="Loads the config from a file.">
<polygon fill="white" stroke="#666666" points="317.62,-39 220.62,-39 220.62,-19 317.62,-19 317.62,-39"/>
<text text-anchor="middle" x="269.12" y="-25.5" font-family="Helvetica,sans-Serif" font-size="10.00">Config::loadConfig</text>
</a>
</g>
</g>
<!-- Node5&#45;&gt;Node8 -->
<g id="edge8_Node000005_Node000008" class="edge">
<title>Node5&#45;&gt;Node8</title>
<g id="a_edge8_Node000005_Node000008"><a xlink:title=" ">
<path fill="none" stroke="#63b8ff" d="M362.93,-41.4C348.37,-39.45 332.49,-37.33 318.03,-35.4"/>
<polygon fill="#63b8ff" stroke="#63b8ff" points="362.38,-44.85 372.75,-42.71 363.31,-37.91 362.38,-44.85"/>
</a>
</g>
</g>
<!-- Node9 -->
<g id="Node000009" class="node">
<title>Node9</title>
<g id="a_Node000009"><a xlink:href="classGameManager.html#a8460b2f4f44c19dd405e4163fe6cb5cf" target="_top" xlink:title=" ">
<polygon fill="white" stroke="#666666" points="178.25,-20 73,-20 73,0 178.25,0 178.25,-20"/>
<text text-anchor="middle" x="125.62" y="-6.5" font-family="Helvetica,sans-Serif" font-size="10.00">GameManager::start</text>
</a>
</g>
</g>
<!-- Node5&#45;&gt;Node9 -->
<g id="edge11_Node000005_Node000009" class="edge">
<title>Node5&#45;&gt;Node9</title>
<g id="a_edge11_Node000005_Node000009"><a xlink:title=" ">
<path fill="none" stroke="#63b8ff" d="M384.36,-32.47C367.44,-23.99 345.13,-14.35 324,-10 275.5,-0.02 218.87,-1.3 178.74,-4.32"/>
<polygon fill="#63b8ff" stroke="#63b8ff" points="382.3,-35.34 392.79,-36.84 385.53,-29.13 382.3,-35.34"/>
</a>
</g>
</g>
<!-- Node6&#45;&gt;Node4 -->
<g id="edge7_Node000006_Node000004" class="edge">
<title>Node6&#45;&gt;Node4</title>
<g id="a_edge7_Node000006_Node000004"><a xlink:title=" ">
<path fill="none" stroke="#63b8ff" d="M218.06,-80.45C200.81,-85.08 181.76,-90.19 165.54,-94.55"/>
<polygon fill="#63b8ff" stroke="#63b8ff" points="218.87,-83.85 227.62,-77.88 217.06,-77.09 218.87,-83.85"/>
</a>
</g>
</g>
<!-- Node7 -->
<g id="Node000007" class="node">
<title>Node7</title>
<g id="a_Node000007"><a xlink:href="classGame.html#a2a30c89761624ee64cd7acb147aaf89c" target="_top" xlink:title="Starts the game.">
<polygon fill="white" stroke="#666666" points="159.5,-77 91.75,-77 91.75,-57 159.5,-57 159.5,-77"/>
<text text-anchor="middle" x="125.62" y="-63.5" font-family="Helvetica,sans-Serif" font-size="10.00">Game::start</text>
</a>
</g>
</g>
<!-- Node6&#45;&gt;Node7 -->
<g id="edge6_Node000006_Node000007" class="edge">
<title>Node6&#45;&gt;Node7</title>
<g id="a_edge6_Node000006_Node000007"><a xlink:title=" ">
<path fill="none" stroke="#63b8ff" d="M202.56,-67C187.7,-67 172.53,-67 159.7,-67"/>
<polygon fill="#63b8ff" stroke="#63b8ff" points="202.31,-70.5 212.31,-67 202.31,-63.5 202.31,-70.5"/>
</a>
</g>
</g>
<!-- Node8&#45;&gt;Node9 -->
<g id="edge9_Node000008_Node000009" class="edge">
<title>Node8&#45;&gt;Node9</title>
<g id="a_edge9_Node000008_Node000009"><a xlink:title=" ">
<path fill="none" stroke="#63b8ff" d="M208.94,-21.05C198.78,-19.69 188.3,-18.28 178.36,-16.95"/>
<polygon fill="#63b8ff" stroke="#63b8ff" points="208.34,-24.5 218.72,-22.37 209.27,-17.57 208.34,-24.5"/>
</a>
</g>
</g>
<!-- Node10 -->
<g id="Node000010" class="node">
<title>Node10</title>
<g id="a_Node000010"><a xlink:href="main_8cpp.html#ae66f6b31b5ad750f1fe042a706a4e3d4" target="_top" xlink:title=" ">
<polygon fill="white" stroke="#666666" points="37,-20 0,-20 0,0 37,0 37,-20"/>
<text text-anchor="middle" x="18.5" y="-6.5" font-family="Helvetica,sans-Serif" font-size="10.00">main</text>
</a>
</g>
</g>
<!-- Node9&#45;&gt;Node10 -->
<g id="edge10_Node000009_Node000010" class="edge">
<title>Node9&#45;&gt;Node10</title>
<g id="a_edge10_Node000009_Node000010"><a xlink:title=" ">
<path fill="none" stroke="#63b8ff" d="M61.32,-10C52.47,-10 44.04,-10 37.1,-10"/>
<polygon fill="#63b8ff" stroke="#63b8ff" points="61.16,-13.5 71.16,-10 61.16,-6.5 61.16,-13.5"/>
</a>
</g>
</g>
</g>
</svg>
