<?xml version="1.0" encoding="UTF-8" standalone="no"?>
<!DOCTYPE svg PUBLIC "-//W3C//DTD SVG 1.1//EN"
 "http://www.w3.org/Graphics/SVG/1.1/DTD/svg11.dtd">
<!-- Generated by graphviz version 10.0.1 (0)
 -->
<!-- Title: MovingObject Pages: 1 -->
<svg width="112pt" height="140pt"
 viewBox="0.00 0.00 112.00 140.00" xmlns="http://www.w3.org/2000/svg" xmlns:xlink="http://www.w3.org/1999/xlink">
<g id="graph0" class="graph" transform="scale(1 1) rotate(0) translate(4 136)">
<title>MovingObject</title>
<!-- Node1 -->
<g id="Node000001" class="node">
<title>Node1</title>
<g id="a_Node000001"><a xlink:title=" ">
<polygon fill="#999999" stroke="#666666" points="89.12,-76 13.12,-76 13.12,-56 89.12,-56 89.12,-76"/>
<text text-anchor="middle" x="51.12" y="-62.5" font-family="Helvetica,sans-Serif" font-size="10.00">MovingObject</text>
</a>
</g>
</g>
<!-- Node3 -->
<g id="Node000003" class="node">
<title>Node3</title>
<g id="a_Node000003"><a xlink:href="classGhost.html" target="_top" xlink:title=" ">
<polygon fill="white" stroke="#666666" points="42.25,-20 0,-20 0,0 42.25,0 42.25,-20"/>
<text text-anchor="middle" x="21.12" y="-6.5" font-family="Helvetica,sans-Serif" font-size="10.00">Ghost</text>
</a>
</g>
</g>
<!-- Node1&#45;&gt;Node3 -->
<g id="edge2_Node000001_Node000003" class="edge">
<title>Node1&#45;&gt;Node3</title>
<g id="a_edge2_Node000001_Node000003"><a xlink:title=" ">
<path fill="none" stroke="#63b8ff" d="M40.34,-45.58C35.55,-36.97 30.15,-27.24 26.29,-20.3"/>
<polygon fill="#63b8ff" stroke="#63b8ff" points="37.25,-47.23 45.16,-54.27 43.37,-43.83 37.25,-47.23"/>
</a>
</g>
</g>
<!-- Node4 -->
<g id="Node000004" class="node">
<title>Node4</title>
<g id="a_Node000004"><a xlink:href="classPlayer.html" target="_top" xlink:title=" ">
<polygon fill="white" stroke="#666666" points="104,-20 60.25,-20 60.25,0 104,0 104,-20"/>
<text text-anchor="middle" x="82.12" y="-6.5" font-family="Helvetica,sans-Serif" font-size="10.00">Player</text>
</a>
</g>
</g>
<!-- Node1&#45;&gt;Node4 -->
<g id="edge3_Node000001_Node000004" class="edge">
<title>Node1&#45;&gt;Node4</title>
<g id="a_edge3_Node000001_Node000004"><a xlink:title=" ">
<path fill="none" stroke="#63b8ff" d="M62.11,-45.87C67.09,-37.19 72.76,-27.32 76.79,-20.3"/>
<polygon fill="#63b8ff" stroke="#63b8ff" points="59.22,-43.87 57.28,-54.28 65.29,-47.35 59.22,-43.87"/>
</a>
</g>
</g>
<!-- Node2 -->
<g id="Node000002" class="node">
<title>Node2</title>
<g id="a_Node000002"><a xlink:href="classGameObject.html" target="_top" xlink:title=" ">
<polygon fill="white" stroke="#666666" points="86.5,-132 15.75,-132 15.75,-112 86.5,-112 86.5,-132"/>
<text text-anchor="middle" x="51.12" y="-118.5" font-family="Helvetica,sans-Serif" font-size="10.00">GameObject</text>
</a>
</g>
</g>
<!-- Node2&#45;&gt;Node1 -->
<g id="edge1_Node000001_Node000002" class="edge">
<title>Node2&#45;&gt;Node1</title>
<g id="a_edge1_Node000001_Node000002"><a xlink:title=" ">
<path fill="none" stroke="#63b8ff" d="M51.12,-100.13C51.12,-91.9 51.12,-82.85 51.12,-76.3"/>
<polygon fill="#63b8ff" stroke="#63b8ff" points="47.63,-100.08 51.13,-110.08 54.63,-100.08 47.63,-100.08"/>
</a>
</g>
</g>
</g>
</svg>
