<?xml version="1.0" encoding="UTF-8" standalone="no"?>
<!DOCTYPE svg PUBLIC "-//W3C//DTD SVG 1.1//EN"
 "http://www.w3.org/Graphics/SVG/1.1/DTD/svg11.dtd">
<!-- Generated by graphviz version 10.0.1 (0)
 -->
<!-- Title: GamePhase::getLevel Pages: 1 -->
<svg width="551pt" height="282pt"
 viewBox="0.00 0.00 550.50 282.16" xmlns="http://www.w3.org/2000/svg" xmlns:xlink="http://www.w3.org/1999/xlink">
<g id="graph0" class="graph" transform="scale(1 1) rotate(0) translate(4 278.16)">
<title>GamePhase::getLevel</title>
<!-- Node1 -->
<g id="Node000001" class="node">
<title>Node1</title>
<g id="a_Node000001"><a xlink:title="Returns the current level.">
<polygon fill="#999999" stroke="#666666" points="542.5,-94.16 429.75,-94.16 429.75,-74.16 542.5,-74.16 542.5,-94.16"/>
<text text-anchor="middle" x="486.12" y="-80.66" font-family="Helvetica,sans-Serif" font-size="10.00">GamePhase::getLevel</text>
</a>
</g>
</g>
<!-- Node2 -->
<g id="Node000002" class="node">
<title>Node2</title>
<g id="a_Node000002"><a xlink:href="classGame.html#a6d54497ce3a66f6dd45eacfdccc8d0bd" target="_top" xlink:title="Draws the game.">
<polygon fill="white" stroke="#666666" points="376.5,-208.16 307.25,-208.16 307.25,-188.16 376.5,-188.16 376.5,-208.16"/>
<text text-anchor="middle" x="341.88" y="-194.66" font-family="Helvetica,sans-Serif" font-size="10.00">Game::draw</text>
</a>
</g>
</g>
<!-- Node1&#45;&gt;Node2 -->
<g id="edge1_Node000001_Node000002" class="edge">
<title>Node1&#45;&gt;Node2</title>
<g id="a_edge1_Node000001_Node000002"><a xlink:title=" ">
<path fill="none" stroke="#63b8ff" d="M463.65,-101.37C433.65,-125.41 380.11,-168.32 355.67,-187.9"/>
<polygon fill="#63b8ff" stroke="#63b8ff" points="465.71,-104.21 471.32,-95.22 461.33,-98.74 465.71,-104.21"/>
</a>
</g>
</g>
<!-- Node7 -->
<g id="Node000007" class="node">
<title>Node7</title>
<g id="a_Node000007"><a xlink:href="classGame.html#aef7682b8bf084aac3c8f929a6fd2f673" target="_top" xlink:title="Updates the game state.">
<polygon fill="white" stroke="#666666" points="82.75,-179.16 5.25,-179.16 5.25,-159.16 82.75,-159.16 82.75,-179.16"/>
<text text-anchor="middle" x="44" y="-165.66" font-family="Helvetica,sans-Serif" font-size="10.00">Game::update</text>
</a>
</g>
</g>
<!-- Node1&#45;&gt;Node7 -->
<g id="edge11_Node000001_Node000007" class="edge">
<title>Node1&#45;&gt;Node7</title>
<g id="a_edge11_Node000001_Node000007"><a xlink:title=" ">
<path fill="none" stroke="#63b8ff" d="M454.48,-99.26C437.07,-107.23 414.63,-116.51 393.75,-122.16 283.32,-152.01 147.85,-163.34 83.05,-167.27"/>
<polygon fill="#63b8ff" stroke="#63b8ff" points="455.68,-102.56 463.25,-95.15 452.71,-96.22 455.68,-102.56"/>
</a>
</g>
</g>
<!-- Node8 -->
<g id="Node000008" class="node">
<title>Node8</title>
<g id="a_Node000008"><a xlink:href="classCherry.html#aaf41373bb1fe88172648ce26bb54c5ec" target="_top" xlink:title="Interacts with another object.">
<polygon fill="white" stroke="#666666" points="393.75,-113.16 290,-113.16 290,-93.16 393.75,-93.16 393.75,-113.16"/>
<text text-anchor="middle" x="341.88" y="-99.66" font-family="Helvetica,sans-Serif" font-size="10.00">Cherry::interactWith</text>
</a>
</g>
</g>
<!-- Node1&#45;&gt;Node8 -->
<g id="edge8_Node000001_Node000008" class="edge">
<title>Node1&#45;&gt;Node8</title>
<g id="a_edge8_Node000001_Node000008"><a xlink:title=" ">
<path fill="none" stroke="#63b8ff" d="M417.96,-93.13C409.87,-94.21 401.7,-95.3 393.89,-96.34"/>
<polygon fill="#63b8ff" stroke="#63b8ff" points="418.36,-96.61 427.81,-91.81 417.44,-89.67 418.36,-96.61"/>
</a>
</g>
</g>
<!-- Node9 -->
<g id="Node000009" class="node">
<title>Node9</title>
<g id="a_Node000009"><a xlink:href="classCoin.html#a9472e2fbcaf6af886dd1be6a99a912c5" target="_top" xlink:title="Interacts with another object.">
<polygon fill="white" stroke="#666666" points="389.25,-75.16 294.5,-75.16 294.5,-55.16 389.25,-55.16 389.25,-75.16"/>
<text text-anchor="middle" x="341.88" y="-61.66" font-family="Helvetica,sans-Serif" font-size="10.00">Coin::interactWith</text>
</a>
</g>
</g>
<!-- Node1&#45;&gt;Node9 -->
<g id="edge9_Node000001_Node000009" class="edge">
<title>Node1&#45;&gt;Node9</title>
<g id="a_edge9_Node000001_Node000009"><a xlink:title=" ">
<path fill="none" stroke="#63b8ff" d="M418.01,-75.2C408.32,-73.9 398.52,-72.59 389.34,-71.37"/>
<polygon fill="#63b8ff" stroke="#63b8ff" points="417.44,-78.65 427.81,-76.5 418.36,-71.71 417.44,-78.65"/>
</a>
</g>
</g>
<!-- Node10 -->
<g id="Node000010" class="node">
<title>Node10</title>
<g id="a_Node000010"><a xlink:href="classGhost.html#a835ab7beec9ae0515085e479fcd2b1c6" target="_top" xlink:title="Interacts with another object.">
<polygon fill="white" stroke="#666666" points="392.25,-37.16 291.5,-37.16 291.5,-17.16 392.25,-17.16 392.25,-37.16"/>
<text text-anchor="middle" x="341.88" y="-23.66" font-family="Helvetica,sans-Serif" font-size="10.00">Ghost::interactWith</text>
</a>
</g>
</g>
<!-- Node1&#45;&gt;Node10 -->
<g id="edge10_Node000001_Node000010" class="edge">
<title>Node1&#45;&gt;Node10</title>
<g id="a_edge10_Node000001_Node000010"><a xlink:title=" ">
<path fill="none" stroke="#63b8ff" d="M450.23,-69.3C433.25,-62.15 412.5,-53.55 393.75,-46.16 386.56,-43.32 378.75,-40.35 371.47,-37.63"/>
<polygon fill="#63b8ff" stroke="#63b8ff" points="448.82,-72.5 459.4,-73.16 451.55,-66.05 448.82,-72.5"/>
</a>
</g>
</g>
<!-- Node11 -->
<g id="Node000011" class="node">
<title>Node11</title>
<g id="a_Node000011"><a xlink:href="classGame.html#a9f8150e56d9f2c53d172ef0443630de7" target="_top" xlink:title="Updates the game phase timer.">
<polygon fill="white" stroke="#666666" points="254,-56.16 124,-56.16 124,-36.16 254,-36.16 254,-56.16"/>
<text text-anchor="middle" x="189" y="-42.66" font-family="Helvetica,sans-Serif" font-size="10.00">Game::updatePhaseTimer</text>
</a>
</g>
</g>
<!-- Node1&#45;&gt;Node11 -->
<g id="edge12_Node000001_Node000011" class="edge">
<title>Node1&#45;&gt;Node11</title>
<g id="a_edge12_Node000001_Node000011"><a xlink:title=" ">
<path fill="none" stroke="#63b8ff" d="M469.57,-65.13C453.02,-46.54 424.96,-19.44 393.75,-8.16 328.95,15.27 247.08,-17.62 209.94,-35.68"/>
<polygon fill="#63b8ff" stroke="#63b8ff" points="466.78,-67.26 475.94,-72.56 472.09,-62.7 466.78,-67.26"/>
</a>
</g>
</g>
<!-- Node3 -->
<g id="Node000003" class="node">
<title>Node3</title>
<g id="a_Node000003"><a xlink:href="classGame.html#a4c2a7ead717a4c13f1ffddafd11e17c8" target="_top" xlink:title="Initializes the game, loading config, and the map.">
<polygon fill="white" stroke="#666666" points="243.88,-265.16 134.12,-265.16 134.12,-245.16 243.88,-245.16 243.88,-265.16"/>
<text text-anchor="middle" x="189" y="-251.66" font-family="Helvetica,sans-Serif" font-size="10.00">Game::initializeGame</text>
</a>
</g>
</g>
<!-- Node2&#45;&gt;Node3 -->
<g id="edge2_Node000002_Node000003" class="edge">
<title>Node2&#45;&gt;Node3</title>
<g id="a_edge2_Node000002_Node000003"><a xlink:title=" ">
<path fill="none" stroke="#63b8ff" d="M308.98,-213.24C292.72,-220.64 272.52,-229.39 254,-236.16 245.73,-239.18 236.73,-242.09 228.16,-244.67"/>
<polygon fill="#63b8ff" stroke="#63b8ff" points="310.05,-216.6 317.67,-209.24 307.12,-210.24 310.05,-216.6"/>
</a>
</g>
</g>
<!-- Node6 -->
<g id="Node000006" class="node">
<title>Node6</title>
<g id="a_Node000006"><a xlink:href="classGame.html#a127294d56e1c963bf1a12d2b95a7a0c3" target="_top" xlink:title="Returns all moving objects to their starting positions.">
<polygon fill="white" stroke="#666666" points="246.88,-227.16 131.12,-227.16 131.12,-207.16 246.88,-207.16 246.88,-227.16"/>
<text text-anchor="middle" x="189" y="-213.66" font-family="Helvetica,sans-Serif" font-size="10.00">Game::returnAllToStart</text>
</a>
</g>
</g>
<!-- Node2&#45;&gt;Node6 -->
<g id="edge5_Node000002_Node000006" class="edge">
<title>Node2&#45;&gt;Node6</title>
<g id="a_edge5_Node000002_Node000006"><a xlink:title=" ">
<path fill="none" stroke="#63b8ff" d="M295.78,-203.84C280.5,-205.76 263.23,-207.94 247.15,-209.96"/>
<polygon fill="#63b8ff" stroke="#63b8ff" points="296.03,-207.33 305.51,-202.61 295.16,-200.39 296.03,-207.33"/>
</a>
</g>
</g>
<!-- Node2&#45;&gt;Node7 -->
<g id="edge7_Node000002_Node000007" class="edge">
<title>Node2&#45;&gt;Node7</title>
<g id="a_edge7_Node000002_Node000007"><a xlink:title=" ">
<path fill="none" stroke="#63b8ff" d="M295.54,-193.72C237.42,-188.02 137.65,-178.24 83.2,-172.9"/>
<polygon fill="#63b8ff" stroke="#63b8ff" points="295.13,-197.19 305.43,-194.68 295.82,-190.23 295.13,-197.19"/>
</a>
</g>
</g>
<!-- Node4 -->
<g id="Node000004" class="node">
<title>Node4</title>
<g id="a_Node000004"><a xlink:href="classGame.html#a2a30c89761624ee64cd7acb147aaf89c" target="_top" xlink:title="Starts the game.">
<polygon fill="white" stroke="#666666" points="77.88,-274.16 10.12,-274.16 10.12,-254.16 77.88,-254.16 77.88,-274.16"/>
<text text-anchor="middle" x="44" y="-260.66" font-family="Helvetica,sans-Serif" font-size="10.00">Game::start</text>
</a>
</g>
</g>
<!-- Node3&#45;&gt;Node4 -->
<g id="edge3_Node000003_Node000004" class="edge">
<title>Node3&#45;&gt;Node4</title>
<g id="a_edge3_Node000003_Node000004"><a xlink:title=" ">
<path fill="none" stroke="#63b8ff" d="M122.75,-259.27C107.24,-260.24 91.33,-261.24 77.98,-262.08"/>
<polygon fill="#63b8ff" stroke="#63b8ff" points="122.67,-262.78 132.43,-258.66 122.23,-255.79 122.67,-262.78"/>
</a>
</g>
</g>
<!-- Node5 -->
<g id="Node000005" class="node">
<title>Node5</title>
<g id="a_Node000005"><a xlink:href="classGame.html#a1118c369ae5b2fe433aac540cb32d187" target="_top" xlink:title="Starts the game with a new map.">
<polygon fill="white" stroke="#666666" points="88,-236.16 0,-236.16 0,-216.16 88,-216.16 88,-236.16"/>
<text text-anchor="middle" x="44" y="-222.66" font-family="Helvetica,sans-Serif" font-size="10.00">Game::startNew</text>
</a>
</g>
</g>
<!-- Node3&#45;&gt;Node5 -->
<g id="edge4_Node000003_Node000005" class="edge">
<title>Node3&#45;&gt;Node5</title>
<g id="a_edge4_Node000003_Node000005"><a xlink:title=" ">
<path fill="none" stroke="#63b8ff" d="M125.43,-242.47C112.82,-239.91 99.83,-237.28 88.07,-234.89"/>
<polygon fill="#63b8ff" stroke="#63b8ff" points="124.39,-245.83 134.89,-244.39 125.79,-238.97 124.39,-245.83"/>
</a>
</g>
</g>
<!-- Node6&#45;&gt;Node7 -->
<g id="edge6_Node000006_Node000007" class="edge">
<title>Node6&#45;&gt;Node7</title>
<g id="a_edge6_Node000006_Node000007"><a xlink:title=" ">
<path fill="none" stroke="#63b8ff" d="M146.06,-203.08C123.62,-195.55 96.47,-186.44 75.97,-179.55"/>
<polygon fill="#63b8ff" stroke="#63b8ff" points="144.94,-206.4 155.54,-206.26 147.17,-199.76 144.94,-206.4"/>
</a>
</g>
</g>
<!-- Node11&#45;&gt;Node7 -->
<g id="edge13_Node000011_Node000007" class="edge">
<title>Node11&#45;&gt;Node7</title>
<g id="a_edge13_Node000011_Node000007"><a xlink:title=" ">
<path fill="none" stroke="#63b8ff" d="M167.28,-63.98C137,-90.02 81.62,-137.66 57.16,-158.7"/>
<polygon fill="#63b8ff" stroke="#63b8ff" points="169.36,-66.81 174.66,-57.63 164.8,-61.5 169.36,-66.81"/>
</a>
</g>
</g>
</g>
</svg>
