<?xml version="1.0" encoding="UTF-8" standalone="no"?>
<!DOCTYPE svg PUBLIC "-//W3C//DTD SVG 1.1//EN"
 "http://www.w3.org/Graphics/SVG/1.1/DTD/svg11.dtd">
<!-- Generated by graphviz version 10.0.1 (0)
 -->
<!-- Title: Game::movePlayer Pages: 1 -->
<svg width="436pt" height="66pt"
 viewBox="0.00 0.00 436.25 66.00" xmlns="http://www.w3.org/2000/svg" xmlns:xlink="http://www.w3.org/1999/xlink">
<g id="graph0" class="graph" transform="scale(1 1) rotate(0) translate(4 62)">
<title>Game::movePlayer</title>
<!-- Node1 -->
<g id="Node000001" class="node">
<title>Node1</title>
<g id="a_Node000001"><a xlink:title="Moves the player in given direction.">
<polygon fill="#999999" stroke="#666666" points="100,-39 0,-39 0,-19 100,-19 100,-39"/>
<text text-anchor="middle" x="50" y="-25.5" font-family="Helvetica,sans-Serif" font-size="10.00">Game::movePlayer</text>
</a>
</g>
</g>
<!-- Node2 -->
<g id="Node000002" class="node">
<title>Node2</title>
<g id="a_Node000002"><a xlink:href="classGamePhase.html#a4e546a7d0a52cbd70612880d61e5f55c" target="_top" xlink:title="Returns the current game phase.">
<polygon fill="white" stroke="#666666" points="253.25,-58 136,-58 136,-38 253.25,-38 253.25,-58"/>
<text text-anchor="middle" x="194.62" y="-44.5" font-family="Helvetica,sans-Serif" font-size="10.00">GamePhase::getPhase</text>
</a>
</g>
</g>
<!-- Node1&#45;&gt;Node2 -->
<g id="edge1_Node000001_Node000002" class="edge">
<title>Node1&#45;&gt;Node2</title>
<g id="a_edge1_Node000001_Node000002"><a xlink:title=" ">
<path fill="none" stroke="#63b8ff" d="M100.48,-35.59C108.25,-36.63 116.4,-37.71 124.51,-38.79"/>
<polygon fill="#63b8ff" stroke="#63b8ff" points="124.03,-42.26 134.4,-40.11 124.95,-35.32 124.03,-42.26"/>
</a>
</g>
</g>
<!-- Node3 -->
<g id="Node000003" class="node">
<title>Node3</title>
<g id="a_Node000003"><a xlink:href="classGamePhase.html#af152a5e182080af728f34e66b29079c5" target="_top" xlink:title="Sets the current game phase.">
<polygon fill="white" stroke="#666666" points="253.25,-20 136,-20 136,0 253.25,0 253.25,-20"/>
<text text-anchor="middle" x="194.62" y="-6.5" font-family="Helvetica,sans-Serif" font-size="10.00">GamePhase::setPhase</text>
</a>
</g>
</g>
<!-- Node1&#45;&gt;Node3 -->
<g id="edge2_Node000001_Node000003" class="edge">
<title>Node1&#45;&gt;Node3</title>
<g id="a_edge2_Node000001_Node000003"><a xlink:title=" ">
<path fill="none" stroke="#63b8ff" d="M100.48,-22.41C108.25,-21.37 116.4,-20.29 124.51,-19.21"/>
<polygon fill="#63b8ff" stroke="#63b8ff" points="124.95,-22.68 134.4,-17.89 124.03,-15.74 124.95,-22.68"/>
</a>
</g>
</g>
<!-- Node4 -->
<g id="Node000004" class="node">
<title>Node4</title>
<g id="a_Node000004"><a xlink:href="classGamePhase.html#a097fcd119e1cce98533b731f7e6ae53d" target="_top" xlink:title="Sets the time of the current phase.">
<polygon fill="white" stroke="#666666" points="428.25,-20 289.25,-20 289.25,0 428.25,0 428.25,-20"/>
<text text-anchor="middle" x="358.75" y="-6.5" font-family="Helvetica,sans-Serif" font-size="10.00">GamePhase::setPhaseTime</text>
</a>
</g>
</g>
<!-- Node3&#45;&gt;Node4 -->
<g id="edge3_Node000003_Node000004" class="edge">
<title>Node3&#45;&gt;Node4</title>
<g id="a_edge3_Node000003_Node000004"><a xlink:title=" ">
<path fill="none" stroke="#63b8ff" d="M253.7,-10C261.48,-10 269.57,-10 277.65,-10"/>
<polygon fill="#63b8ff" stroke="#63b8ff" points="277.51,-13.5 287.51,-10 277.51,-6.5 277.51,-13.5"/>
</a>
</g>
</g>
</g>
</svg>
