<?xml version="1.0" encoding="UTF-8" standalone="no"?>
<!DOCTYPE svg PUBLIC "-//W3C//DTD SVG 1.1//EN"
 "http://www.w3.org/Graphics/SVG/1.1/DTD/svg11.dtd">
<!-- Generated by graphviz version 10.0.1 (0)
 -->
<!-- Title: MovingObject::returnToStart Pages: 1 -->
<svg width="285pt" height="66pt"
 viewBox="0.00 0.00 284.50 66.00" xmlns="http://www.w3.org/2000/svg" xmlns:xlink="http://www.w3.org/1999/xlink">
<g id="graph0" class="graph" transform="scale(1 1) rotate(0) translate(4 62)">
<title>MovingObject::returnToStart</title>
<!-- Node1 -->
<g id="Node000001" class="node">
<title>Node1</title>
<g id="a_Node000001"><a xlink:title="Returns the object to its starting position.">
<polygon fill="#999999" stroke="#666666" points="276.5,-39 138.25,-39 138.25,-19 276.5,-19 276.5,-39"/>
<text text-anchor="middle" x="207.38" y="-25.5" font-family="Helvetica,sans-Serif" font-size="10.00">MovingObject::returnToStart</text>
</a>
</g>
</g>
<!-- Node2 -->
<g id="Node000002" class="node">
<title>Node2</title>
<g id="a_Node000002"><a xlink:href="classGhost.html#a835ab7beec9ae0515085e479fcd2b1c6" target="_top" xlink:title="Interacts with another object.">
<polygon fill="white" stroke="#666666" points="101.5,-58 0.75,-58 0.75,-38 101.5,-38 101.5,-58"/>
<text text-anchor="middle" x="51.12" y="-44.5" font-family="Helvetica,sans-Serif" font-size="10.00">Ghost::interactWith</text>
</a>
</g>
</g>
<!-- Node1&#45;&gt;Node2 -->
<g id="edge1_Node000001_Node000002" class="edge">
<title>Node1&#45;&gt;Node2</title>
<g id="a_edge1_Node000001_Node000002"><a xlink:title=" ">
<path fill="none" stroke="#63b8ff" d="M126.46,-38.84C118.12,-39.87 109.83,-40.89 101.96,-41.86"/>
<polygon fill="#63b8ff" stroke="#63b8ff" points="126.82,-42.33 136.32,-37.63 125.97,-35.38 126.82,-42.33"/>
</a>
</g>
</g>
<!-- Node3 -->
<g id="Node000003" class="node">
<title>Node3</title>
<g id="a_Node000003"><a xlink:href="classPlayer.html#a6cd163c50b10495a9d94f471b74c30ee" target="_top" xlink:title="Interacts with another object.">
<polygon fill="white" stroke="#666666" points="102.25,-20 0,-20 0,0 102.25,0 102.25,-20"/>
<text text-anchor="middle" x="51.12" y="-6.5" font-family="Helvetica,sans-Serif" font-size="10.00">Player::interactWith</text>
</a>
</g>
</g>
<!-- Node1&#45;&gt;Node3 -->
<g id="edge2_Node000001_Node000003" class="edge">
<title>Node1&#45;&gt;Node3</title>
<g id="a_edge2_Node000001_Node000003"><a xlink:title=" ">
<path fill="none" stroke="#63b8ff" d="M126.61,-19.17C118.38,-18.16 110.19,-17.15 102.42,-16.2"/>
<polygon fill="#63b8ff" stroke="#63b8ff" points="125.97,-22.62 136.32,-20.37 126.82,-15.67 125.97,-22.62"/>
</a>
</g>
</g>
</g>
</svg>
