<?xml version="1.0" encoding="UTF-8" standalone="no"?>
<!DOCTYPE svg PUBLIC "-//W3C//DTD SVG 1.1//EN"
 "http://www.w3.org/Graphics/SVG/1.1/DTD/svg11.dtd">
<!-- Generated by graphviz version 10.0.1 (0)
 -->
<!-- Title: Config::loadConfig Pages: 1 -->
<svg width="633pt" height="104pt"
 viewBox="0.00 0.00 632.50 104.00" xmlns="http://www.w3.org/2000/svg" xmlns:xlink="http://www.w3.org/1999/xlink">
<g id="graph0" class="graph" transform="scale(1 1) rotate(0) translate(4 100)">
<title>Config::loadConfig</title>
<!-- Node1 -->
<g id="Node000001" class="node">
<title>Node1</title>
<g id="a_Node000001"><a xlink:title="Loads the config from a file.">
<polygon fill="#999999" stroke="#666666" points="97,-77 0,-77 0,-57 97,-57 97,-77"/>
<text text-anchor="middle" x="48.5" y="-63.5" font-family="Helvetica,sans-Serif" font-size="10.00">Config::loadConfig</text>
</a>
</g>
</g>
<!-- Node2 -->
<g id="Node000002" class="node">
<title>Node2</title>
<g id="a_Node000002"><a xlink:href="classConfig.html#a62c7c2d485cb30374271dba0eafe63c8" target="_top" xlink:title="Gets any value from the config map.">
<polygon fill="white" stroke="#666666" points="221,-96 133,-96 133,-76 221,-76 221,-96"/>
<text text-anchor="middle" x="177" y="-82.5" font-family="Helvetica,sans-Serif" font-size="10.00">Config::getValue</text>
</a>
</g>
</g>
<!-- Node1&#45;&gt;Node2 -->
<g id="edge1_Node000001_Node000002" class="edge">
<title>Node1&#45;&gt;Node2</title>
<g id="a_edge1_Node000001_Node000002"><a xlink:title=" ">
<path fill="none" stroke="#63b8ff" d="M97.32,-74.18C105.22,-75.37 113.45,-76.61 121.5,-77.81"/>
<polygon fill="#63b8ff" stroke="#63b8ff" points="120.78,-81.25 131.19,-79.27 121.82,-74.32 120.78,-81.25"/>
</a>
</g>
</g>
<!-- Node3 -->
<g id="Node000003" class="node">
<title>Node3</title>
<g id="a_Node000003"><a xlink:href="classMap.html#a2657d897204aaedba0e8e4f01b2e1efc" target="_top" xlink:title="Loads the map from a file.">
<polygon fill="white" stroke="#666666" points="215.75,-58 138.25,-58 138.25,-38 215.75,-38 215.75,-58"/>
<text text-anchor="middle" x="177" y="-44.5" font-family="Helvetica,sans-Serif" font-size="10.00">Map::loadMap</text>
</a>
</g>
</g>
<!-- Node1&#45;&gt;Node3 -->
<g id="edge2_Node000001_Node000003" class="edge">
<title>Node1&#45;&gt;Node3</title>
<g id="a_edge2_Node000001_Node000003"><a xlink:title=" ">
<path fill="none" stroke="#63b8ff" d="M97.32,-59.82C106.98,-58.37 117.15,-56.84 126.85,-55.38"/>
<polygon fill="#63b8ff" stroke="#63b8ff" points="127.09,-58.88 136.46,-53.94 126.05,-51.96 127.09,-58.88"/>
</a>
</g>
</g>
<!-- Node4 -->
<g id="Node000004" class="node">
<title>Node4</title>
<g id="a_Node000004"><a xlink:href="classMap.html#ab1c2595a555457c0a764a0530b57c0f9" target="_top" xlink:title="Helper function for validating map string.">
<polygon fill="white" stroke="#666666" points="351,-58 257,-58 257,-38 351,-38 351,-58"/>
<text text-anchor="middle" x="304" y="-44.5" font-family="Helvetica,sans-Serif" font-size="10.00">Map::processMap</text>
</a>
</g>
</g>
<!-- Node3&#45;&gt;Node4 -->
<g id="edge3_Node000003_Node000004" class="edge">
<title>Node3&#45;&gt;Node4</title>
<g id="a_edge3_Node000003_Node000004"><a xlink:title=" ">
<path fill="none" stroke="#63b8ff" d="M216.18,-48C225.37,-48 235.38,-48 245.24,-48"/>
<polygon fill="#63b8ff" stroke="#63b8ff" points="245.17,-51.5 255.17,-48 245.17,-44.5 245.17,-51.5"/>
</a>
</g>
</g>
<!-- Node5 -->
<g id="Node000005" class="node">
<title>Node5</title>
<g id="a_Node000005"><a xlink:href="classMap.html#a41b623a0d503b94bf8412ca06296ae1f" target="_top" xlink:title="Helper function for finding crossroads.">
<polygon fill="white" stroke="#666666" points="494.5,-96 387.75,-96 387.75,-76 494.5,-76 494.5,-96"/>
<text text-anchor="middle" x="441.12" y="-82.5" font-family="Helvetica,sans-Serif" font-size="10.00">Map::findCrossroads</text>
</a>
</g>
</g>
<!-- Node4&#45;&gt;Node5 -->
<g id="edge4_Node000004_Node000005" class="edge">
<title>Node4&#45;&gt;Node5</title>
<g id="a_edge4_Node000004_Node000005"><a xlink:title=" ">
<path fill="none" stroke="#63b8ff" d="M342.28,-58.48C357.64,-62.8 375.63,-67.86 391.97,-72.46"/>
<polygon fill="#63b8ff" stroke="#63b8ff" points="390.93,-75.8 401.51,-75.14 392.83,-69.06 390.93,-75.8"/>
</a>
</g>
</g>
<!-- Node7 -->
<g id="Node000007" class="node">
<title>Node7</title>
<g id="a_Node000007"><a xlink:href="classMap.html#ae96ad32d3b1600cd41e4a1c3b6a30906" target="_top" xlink:title="Checks if the map is traversable from the given position.">
<polygon fill="white" stroke="#666666" points="495.25,-58 387,-58 387,-38 495.25,-38 495.25,-58"/>
<text text-anchor="middle" x="441.12" y="-44.5" font-family="Helvetica,sans-Serif" font-size="10.00">Map::traversableBFS</text>
</a>
</g>
</g>
<!-- Node4&#45;&gt;Node7 -->
<g id="edge6_Node000004_Node000007" class="edge">
<title>Node4&#45;&gt;Node7</title>
<g id="a_edge6_Node000004_Node000007"><a xlink:title=" ">
<path fill="none" stroke="#63b8ff" d="M351.12,-48C358.92,-48 367.14,-48 375.3,-48"/>
<polygon fill="#63b8ff" stroke="#63b8ff" points="375.25,-51.5 385.25,-48 375.25,-44.5 375.25,-51.5"/>
</a>
</g>
</g>
<!-- Node8 -->
<g id="Node000008" class="node">
<title>Node8</title>
<g id="a_Node000008"><a xlink:href="classMap.html#ad35b3432f383ea258d0ed06fe937c3b9" target="_top" xlink:title="Helper function for validating the map borders.">
<polygon fill="white" stroke="#666666" points="492.62,-20 389.62,-20 389.62,0 492.62,0 492.62,-20"/>
<text text-anchor="middle" x="441.12" y="-6.5" font-family="Helvetica,sans-Serif" font-size="10.00">Map::validateBorder</text>
</a>
</g>
</g>
<!-- Node4&#45;&gt;Node8 -->
<g id="edge7_Node000004_Node000008" class="edge">
<title>Node4&#45;&gt;Node8</title>
<g id="a_edge7_Node000004_Node000008"><a xlink:title=" ">
<path fill="none" stroke="#63b8ff" d="M342.28,-37.52C357.64,-33.2 375.63,-28.14 391.97,-23.54"/>
<polygon fill="#63b8ff" stroke="#63b8ff" points="392.83,-26.94 401.51,-20.86 390.93,-20.2 392.83,-26.94"/>
</a>
</g>
</g>
<!-- Node6 -->
<g id="Node000006" class="node">
<title>Node6</title>
<g id="a_Node000006"><a xlink:href="classMap.html#a7d8219ae1c1ff2f45f7e11c5d03dcdb7" target="_top" xlink:title="Checks if given coordinates are a crossroad.">
<polygon fill="white" stroke="#666666" points="624.5,-96 531.25,-96 531.25,-76 624.5,-76 624.5,-96"/>
<text text-anchor="middle" x="577.88" y="-82.5" font-family="Helvetica,sans-Serif" font-size="10.00">Map::isCrossroad</text>
</a>
</g>
</g>
<!-- Node5&#45;&gt;Node6 -->
<g id="edge5_Node000005_Node000006" class="edge">
<title>Node5&#45;&gt;Node6</title>
<g id="a_edge5_Node000005_Node000006"><a xlink:title=" ">
<path fill="none" stroke="#63b8ff" d="M495,-86C503.11,-86 511.53,-86 519.73,-86"/>
<polygon fill="#63b8ff" stroke="#63b8ff" points="519.63,-89.5 529.63,-86 519.63,-82.5 519.63,-89.5"/>
</a>
</g>
</g>
</g>
</svg>
