<?xml version="1.0" encoding="UTF-8" standalone="no"?>
<!DOCTYPE svg PUBLIC "-//W3C//DTD SVG 1.1//EN"
 "http://www.w3.org/Graphics/SVG/1.1/DTD/svg11.dtd">
<!-- Generated by graphviz version 10.0.1 (0)
 -->
<!-- Title: Map::isWallAt Pages: 1 -->
<svg width="379pt" height="142pt"
 viewBox="0.00 0.00 379.25 142.00" xmlns="http://www.w3.org/2000/svg" xmlns:xlink="http://www.w3.org/1999/xlink">
<g id="graph0" class="graph" transform="scale(1 1) rotate(0) translate(4 138)">
<title>Map::isWallAt</title>
<!-- Node1 -->
<g id="Node000001" class="node">
<title>Node1</title>
<g id="a_Node000001"><a xlink:title="Checks if there is a wall at the given coordinates.">
<polygon fill="#999999" stroke="#666666" points="371.25,-77 294.5,-77 294.5,-57 371.25,-57 371.25,-77"/>
<text text-anchor="middle" x="332.88" y="-63.5" font-family="Helvetica,sans-Serif" font-size="10.00">Map::isWallAt</text>
</a>
</g>
</g>
<!-- Node2 -->
<g id="Node000002" class="node">
<title>Node2</title>
<g id="a_Node000002"><a xlink:href="classPlayer.html#aa4002becf320cc56377ecda8622a1ba3" target="_top" xlink:title="Returns the calculated next move of the object.">
<polygon fill="white" stroke="#666666" points="254.75,-134 146.5,-134 146.5,-114 254.75,-114 254.75,-134"/>
<text text-anchor="middle" x="200.62" y="-120.5" font-family="Helvetica,sans-Serif" font-size="10.00">Player::getNextMove</text>
</a>
</g>
</g>
<!-- Node1&#45;&gt;Node2 -->
<g id="edge1_Node000001_Node000002" class="edge">
<title>Node1&#45;&gt;Node2</title>
<g id="a_edge1_Node000001_Node000002"><a xlink:title=" ">
<path fill="none" stroke="#63b8ff" d="M303.52,-83C290.1,-90.22 273.72,-98.56 258.5,-105 251.21,-108.08 243.24,-111.01 235.63,-113.6"/>
<polygon fill="#63b8ff" stroke="#63b8ff" points="305.14,-86.1 312.23,-78.23 301.78,-79.96 305.14,-86.1"/>
</a>
</g>
</g>
<!-- Node3 -->
<g id="Node000003" class="node">
<title>Node3</title>
<g id="a_Node000003"><a xlink:href="structChaseBehavior.html#a2352bad80fc83366546accdba99f7d33" target="_top" xlink:title="Gets the ideal direction to move the enemy.">
<polygon fill="white" stroke="#666666" points="257,-96 144.25,-96 144.25,-76 257,-76 257,-96"/>
<text text-anchor="middle" x="200.62" y="-82.5" font-family="Helvetica,sans-Serif" font-size="10.00">ChaseBehavior::move</text>
</a>
</g>
</g>
<!-- Node1&#45;&gt;Node3 -->
<g id="edge2_Node000001_Node000003" class="edge">
<title>Node1&#45;&gt;Node3</title>
<g id="a_edge2_Node000001_Node000003"><a xlink:title=" ">
<path fill="none" stroke="#63b8ff" d="M283,-74.13C274.56,-75.36 265.74,-76.65 257.14,-77.9"/>
<polygon fill="#63b8ff" stroke="#63b8ff" points="283.31,-77.62 292.7,-72.71 282.3,-70.69 283.31,-77.62"/>
</a>
</g>
</g>
<!-- Node4 -->
<g id="Node000004" class="node">
<title>Node4</title>
<g id="a_Node000004"><a xlink:href="structScatterBehavior.html#abf893e24e51acddd4c3e1cd57e262762" target="_top" xlink:title="Gets the ideal direction to move the enemy.">
<polygon fill="white" stroke="#666666" points="258.5,-58 142.75,-58 142.75,-38 258.5,-38 258.5,-58"/>
<text text-anchor="middle" x="200.62" y="-44.5" font-family="Helvetica,sans-Serif" font-size="10.00">ScatterBehavior::move</text>
</a>
</g>
</g>
<!-- Node1&#45;&gt;Node4 -->
<g id="edge3_Node000001_Node000004" class="edge">
<title>Node1&#45;&gt;Node4</title>
<g id="a_edge3_Node000001_Node000004"><a xlink:title=" ">
<path fill="none" stroke="#63b8ff" d="M282.89,-59.85C274.97,-58.7 266.7,-57.49 258.61,-56.31"/>
<polygon fill="#63b8ff" stroke="#63b8ff" points="282.3,-63.31 292.7,-61.29 283.31,-56.38 282.3,-63.31"/>
</a>
</g>
</g>
<!-- Node5 -->
<g id="Node000005" class="node">
<title>Node5</title>
<g id="a_Node000005"><a xlink:href="classGhost.html#a148ba3ee3c09025057a85025e2b74f81" target="_top" xlink:title=" ">
<polygon fill="white" stroke="#666666" points="242.38,-20 158.88,-20 158.88,0 242.38,0 242.38,-20"/>
<text text-anchor="middle" x="200.62" y="-6.5" font-family="Helvetica,sans-Serif" font-size="10.00">Ghost::tryMove</text>
</a>
</g>
</g>
<!-- Node1&#45;&gt;Node5 -->
<g id="edge4_Node000001_Node000005" class="edge">
<title>Node1&#45;&gt;Node5</title>
<g id="a_edge4_Node000001_Node000005"><a xlink:title=" ">
<path fill="none" stroke="#63b8ff" d="M303.52,-51C290.1,-43.78 273.72,-35.44 258.5,-29 251.21,-25.92 243.24,-22.99 235.63,-20.4"/>
<polygon fill="#63b8ff" stroke="#63b8ff" points="301.78,-54.04 312.23,-55.77 305.14,-47.9 301.78,-54.04"/>
</a>
</g>
</g>
<!-- Node6 -->
<g id="Node000006" class="node">
<title>Node6</title>
<g id="a_Node000006"><a xlink:href="classGhost.html#a8f00182b9e19aec6cab0f795ee8dd5ae" target="_top" xlink:title="Returns the calculated next move of the object.">
<polygon fill="white" stroke="#666666" points="106.75,-20 0,-20 0,0 106.75,0 106.75,-20"/>
<text text-anchor="middle" x="53.38" y="-6.5" font-family="Helvetica,sans-Serif" font-size="10.00">Ghost::getNextMove</text>
</a>
</g>
</g>
<!-- Node5&#45;&gt;Node6 -->
<g id="edge5_Node000005_Node000006" class="edge">
<title>Node5&#45;&gt;Node6</title>
<g id="a_edge5_Node000005_Node000006"><a xlink:title=" ">
<path fill="none" stroke="#63b8ff" d="M147.22,-10C134.18,-10 120.2,-10 107.14,-10"/>
<polygon fill="#63b8ff" stroke="#63b8ff" points="146.88,-13.5 156.88,-10 146.88,-6.5 146.88,-13.5"/>
</a>
</g>
</g>
</g>
</svg>
