<?xml version="1.0" encoding="UTF-8" standalone="no"?>
<!DOCTYPE svg PUBLIC "-//W3C//DTD SVG 1.1//EN"
 "http://www.w3.org/Graphics/SVG/1.1/DTD/svg11.dtd">
<!-- Generated by graphviz version 10.0.1 (0)
 -->
<!-- Title: Game::draw Pages: 1 -->
<svg width="415pt" height="180pt"
 viewBox="0.00 0.00 414.50 180.00" xmlns="http://www.w3.org/2000/svg" xmlns:xlink="http://www.w3.org/1999/xlink">
<g id="graph0" class="graph" transform="scale(1 1) rotate(0) translate(4 176)">
<title>Game::draw</title>
<!-- Node1 -->
<g id="Node000001" class="node">
<title>Node1</title>
<g id="a_Node000001"><a xlink:title="Draws the game.">
<polygon fill="#999999" stroke="#666666" points="69.25,-96 0,-96 0,-76 69.25,-76 69.25,-96"/>
<text text-anchor="middle" x="34.62" y="-82.5" font-family="Helvetica,sans-Serif" font-size="10.00">Game::draw</text>
</a>
</g>
</g>
<!-- Node2 -->
<g id="Node000002" class="node">
<title>Node2</title>
<g id="a_Node000002"><a xlink:href="classGamePhase.html#a337c0a04d2c1d159ff9a98e99e11116a" target="_top" xlink:title="Returns the current level.">
<polygon fill="white" stroke="#666666" points="242,-172 129.25,-172 129.25,-152 242,-152 242,-172"/>
<text text-anchor="middle" x="185.62" y="-158.5" font-family="Helvetica,sans-Serif" font-size="10.00">GamePhase::getLevel</text>
</a>
</g>
</g>
<!-- Node1&#45;&gt;Node2 -->
<g id="edge1_Node000001_Node000002" class="edge">
<title>Node1&#45;&gt;Node2</title>
<g id="a_edge1_Node000001_Node000002"><a xlink:title=" ">
<path fill="none" stroke="#63b8ff" d="M44.98,-96.08C57.49,-108.93 80.9,-130.92 105.25,-143 109.39,-145.05 113.77,-146.89 118.25,-148.54"/>
<polygon fill="#63b8ff" stroke="#63b8ff" points="116.81,-151.75 127.4,-151.56 119,-145.1 116.81,-151.75"/>
</a>
</g>
</g>
<!-- Node3 -->
<g id="Node000003" class="node">
<title>Node3</title>
<g id="a_Node000003"><a xlink:href="classGamePhase.html#a1e01dd9cbefce12ad832102c3a9ed3a2" target="_top" xlink:title="Returns the number of remaining items.">
<polygon fill="white" stroke="#666666" points="266,-134 105.25,-134 105.25,-114 266,-114 266,-134"/>
<text text-anchor="middle" x="185.62" y="-120.5" font-family="Helvetica,sans-Serif" font-size="10.00">GamePhase::getRemainingItems</text>
</a>
</g>
</g>
<!-- Node1&#45;&gt;Node3 -->
<g id="edge2_Node000001_Node000003" class="edge">
<title>Node1&#45;&gt;Node3</title>
<g id="a_edge2_Node000001_Node000003"><a xlink:title=" ">
<path fill="none" stroke="#63b8ff" d="M69.56,-95.49C80.89,-98.6 93.6,-102.02 105.25,-105 112.9,-106.96 120.98,-108.97 128.94,-110.91"/>
<polygon fill="#63b8ff" stroke="#63b8ff" points="128.05,-114.29 138.59,-113.24 129.7,-107.49 128.05,-114.29"/>
</a>
</g>
</g>
<!-- Node4 -->
<g id="Node000004" class="node">
<title>Node4</title>
<g id="a_Node000004"><a xlink:href="classWindow.html#aaa279ff498c917ba2535b26e5f396c7c" target="_top" xlink:title="Prints character at given position, default color.">
<polygon fill="white" stroke="#666666" points="239,-96 132.25,-96 132.25,-76 239,-76 239,-96"/>
<text text-anchor="middle" x="185.62" y="-82.5" font-family="Helvetica,sans-Serif" font-size="10.00">Window::printCharAt</text>
</a>
</g>
</g>
<!-- Node1&#45;&gt;Node4 -->
<g id="edge3_Node000001_Node000004" class="edge">
<title>Node1&#45;&gt;Node4</title>
<g id="a_edge3_Node000001_Node000004"><a xlink:title=" ">
<path fill="none" stroke="#63b8ff" d="M69.44,-86C84.58,-86 102.96,-86 120.55,-86"/>
<polygon fill="#63b8ff" stroke="#63b8ff" points="120.43,-89.5 130.43,-86 120.43,-82.5 120.43,-89.5"/>
</a>
</g>
</g>
<!-- Node5 -->
<g id="Node000005" class="node">
<title>Node5</title>
<g id="a_Node000005"><a xlink:href="classWindow.html#a7f8803b32163553cf314fa01b703c9a8" target="_top" xlink:title="Prints the game UI.">
<polygon fill="white" stroke="#666666" points="228.88,-58 142.38,-58 142.38,-38 228.88,-38 228.88,-58"/>
<text text-anchor="middle" x="185.62" y="-44.5" font-family="Helvetica,sans-Serif" font-size="10.00">Window::printUI</text>
</a>
</g>
</g>
<!-- Node1&#45;&gt;Node5 -->
<g id="edge4_Node000001_Node000005" class="edge">
<title>Node1&#45;&gt;Node5</title>
<g id="a_edge4_Node000001_Node000005"><a xlink:title=" ">
<path fill="none" stroke="#63b8ff" d="M69.56,-76.51C80.89,-73.4 93.6,-69.98 105.25,-67 113.55,-64.87 122.37,-62.69 130.98,-60.6"/>
<polygon fill="#63b8ff" stroke="#63b8ff" points="131.76,-64.01 140.66,-58.26 130.12,-57.21 131.76,-64.01"/>
</a>
</g>
</g>
<!-- Node7 -->
<g id="Node000007" class="node">
<title>Node7</title>
<g id="a_Node000007"><a xlink:href="classWindow.html#a3c38bfdaf7cb6ebcfdbcb40916a72bf7" target="_top" xlink:title="Refreshes the current window.">
<polygon fill="white" stroke="#666666" points="406.5,-20 302,-20 302,0 406.5,0 406.5,-20"/>
<text text-anchor="middle" x="354.25" y="-6.5" font-family="Helvetica,sans-Serif" font-size="10.00">Window::refreshWin</text>
</a>
</g>
</g>
<!-- Node1&#45;&gt;Node7 -->
<g id="edge7_Node000001_Node000007" class="edge">
<title>Node1&#45;&gt;Node7</title>
<g id="a_edge7_Node000001_Node000007"><a xlink:title=" ">
<path fill="none" stroke="#63b8ff" d="M44.3,-75.78C56.39,-62.34 79.73,-39.23 105.25,-29 164.87,-5.1 238.94,-2.56 290.53,-4.63"/>
<polygon fill="#63b8ff" stroke="#63b8ff" points="290.17,-8.11 300.32,-5.09 290.5,-1.12 290.17,-8.11"/>
</a>
</g>
</g>
<!-- Node6 -->
<g id="Node000006" class="node">
<title>Node6</title>
<g id="a_Node000006"><a xlink:href="classWindow.html#aad6d9b11314512a7fbc775a3fef9ca1c" target="_top" xlink:title="Helper function for printing lives.">
<polygon fill="white" stroke="#666666" points="403.88,-58 304.62,-58 304.62,-38 403.88,-38 403.88,-58"/>
<text text-anchor="middle" x="354.25" y="-44.5" font-family="Helvetica,sans-Serif" font-size="10.00">Window::printLives</text>
</a>
</g>
</g>
<!-- Node5&#45;&gt;Node6 -->
<g id="edge5_Node000005_Node000006" class="edge">
<title>Node5&#45;&gt;Node6</title>
<g id="a_edge5_Node000005_Node000006"><a xlink:title=" ">
<path fill="none" stroke="#63b8ff" d="M229.1,-48C248.46,-48 271.74,-48 292.87,-48"/>
<polygon fill="#63b8ff" stroke="#63b8ff" points="292.84,-51.5 302.84,-48 292.84,-44.5 292.84,-51.5"/>
</a>
</g>
</g>
<!-- Node5&#45;&gt;Node7 -->
<g id="edge6_Node000005_Node000007" class="edge">
<title>Node5&#45;&gt;Node7</title>
<g id="a_edge6_Node000005_Node000007"><a xlink:title=" ">
<path fill="none" stroke="#63b8ff" d="M229.1,-38.31C249.47,-33.67 274.15,-28.04 296.13,-23.03"/>
<polygon fill="#63b8ff" stroke="#63b8ff" points="296.89,-26.44 305.86,-20.81 295.34,-19.62 296.89,-26.44"/>
</a>
</g>
</g>
</g>
</svg>
