<?xml version="1.0" encoding="UTF-8" standalone="no"?>
<!DOCTYPE svg PUBLIC "-//W3C//DTD SVG 1.1//EN"
 "http://www.w3.org/Graphics/SVG/1.1/DTD/svg11.dtd">
<!-- Generated by graphviz version 10.0.1 (0)
 -->
<!-- Title: Map::loadMap Pages: 1 -->
<svg width="446pt" height="113pt"
 viewBox="0.00 0.00 445.50 113.00" xmlns="http://www.w3.org/2000/svg" xmlns:xlink="http://www.w3.org/1999/xlink">
<g id="graph0" class="graph" transform="scale(1 1) rotate(0) translate(4 109)">
<title>Map::loadMap</title>
<!-- Node1 -->
<g id="Node000001" class="node">
<title>Node1</title>
<g id="a_Node000001"><a xlink:title="Loads the map from a file.">
<polygon fill="#999999" stroke="#666666" points="437.5,-48 360,-48 360,-28 437.5,-28 437.5,-48"/>
<text text-anchor="middle" x="398.75" y="-34.5" font-family="Helvetica,sans-Serif" font-size="10.00">Map::loadMap</text>
</a>
</g>
</g>
<!-- Node2 -->
<g id="Node000002" class="node">
<title>Node2</title>
<g id="a_Node000002"><a xlink:href="classGame.html#a4c2a7ead717a4c13f1ffddafd11e17c8" target="_top" xlink:title="Initializes the game, loading config, and the map.">
<polygon fill="white" stroke="#666666" points="324,-86 214.25,-86 214.25,-66 324,-66 324,-86"/>
<text text-anchor="middle" x="269.12" y="-72.5" font-family="Helvetica,sans-Serif" font-size="10.00">Game::initializeGame</text>
</a>
</g>
</g>
<!-- Node1&#45;&gt;Node2 -->
<g id="edge1_Node000001_Node000002" class="edge">
<title>Node1&#45;&gt;Node2</title>
<g id="a_edge1_Node000001_Node000002"><a xlink:title=" ">
<path fill="none" stroke="#63b8ff" d="M351.7,-51.71C336.38,-56.27 319.58,-61.28 305.22,-65.55"/>
<polygon fill="#63b8ff" stroke="#63b8ff" points="352.5,-55.12 361.09,-48.92 350.5,-48.42 352.5,-55.12"/>
</a>
</g>
</g>
<!-- Node5 -->
<g id="Node000005" class="node">
<title>Node5</title>
<g id="a_Node000005"><a xlink:href="classConfig.html#ab8b24da021cd9ad9ca092749292ca6ed" target="_top" xlink:title="Loads the config from a file.">
<polygon fill="white" stroke="#666666" points="317.62,-48 220.62,-48 220.62,-28 317.62,-28 317.62,-48"/>
<text text-anchor="middle" x="269.12" y="-34.5" font-family="Helvetica,sans-Serif" font-size="10.00">Config::loadConfig</text>
</a>
</g>
</g>
<!-- Node1&#45;&gt;Node5 -->
<g id="edge4_Node000001_Node000005" class="edge">
<title>Node1&#45;&gt;Node5</title>
<g id="a_edge4_Node000001_Node000005"><a xlink:title=" ">
<path fill="none" stroke="#63b8ff" d="M348.61,-38C338.45,-38 327.77,-38 317.66,-38"/>
<polygon fill="#63b8ff" stroke="#63b8ff" points="348.29,-41.5 358.29,-38 348.29,-34.5 348.29,-41.5"/>
</a>
</g>
</g>
<!-- Node6 -->
<g id="Node000006" class="node">
<title>Node6</title>
<g id="a_Node000006"><a xlink:href="classGameManager.html#a8460b2f4f44c19dd405e4163fe6cb5cf" target="_top" xlink:title=" ">
<polygon fill="white" stroke="#666666" points="178.25,-20 73,-20 73,0 178.25,0 178.25,-20"/>
<text text-anchor="middle" x="125.62" y="-6.5" font-family="Helvetica,sans-Serif" font-size="10.00">GameManager::start</text>
</a>
</g>
</g>
<!-- Node1&#45;&gt;Node6 -->
<g id="edge7_Node000001_Node000006" class="edge">
<title>Node1&#45;&gt;Node6</title>
<g id="a_edge7_Node000001_Node000006"><a xlink:title=" ">
<path fill="none" stroke="#63b8ff" d="M352.17,-24.7C342.92,-22.44 333.2,-20.38 324,-19 274.98,-11.65 218.42,-9.73 178.44,-9.45"/>
<polygon fill="#63b8ff" stroke="#63b8ff" points="351.14,-28.04 361.7,-27.14 352.88,-21.26 351.14,-28.04"/>
</a>
</g>
</g>
<!-- Node3 -->
<g id="Node000003" class="node">
<title>Node3</title>
<g id="a_Node000003"><a xlink:href="classGame.html#a2a30c89761624ee64cd7acb147aaf89c" target="_top" xlink:title="Starts the game.">
<polygon fill="white" stroke="#666666" points="159.5,-105 91.75,-105 91.75,-85 159.5,-85 159.5,-105"/>
<text text-anchor="middle" x="125.62" y="-91.5" font-family="Helvetica,sans-Serif" font-size="10.00">Game::start</text>
</a>
</g>
</g>
<!-- Node2&#45;&gt;Node3 -->
<g id="edge2_Node000002_Node000003" class="edge">
<title>Node2&#45;&gt;Node3</title>
<g id="a_edge2_Node000002_Node000003"><a xlink:title=" ">
<path fill="none" stroke="#63b8ff" d="M202.56,-84.8C187.7,-86.8 172.53,-88.84 159.7,-90.56"/>
<polygon fill="#63b8ff" stroke="#63b8ff" points="202.88,-88.29 212.32,-83.49 201.95,-81.36 202.88,-88.29"/>
</a>
</g>
</g>
<!-- Node4 -->
<g id="Node000004" class="node">
<title>Node4</title>
<g id="a_Node000004"><a xlink:href="classGame.html#a1118c369ae5b2fe433aac540cb32d187" target="_top" xlink:title="Starts the game with a new map.">
<polygon fill="white" stroke="#666666" points="169.62,-67 81.62,-67 81.62,-47 169.62,-47 169.62,-67"/>
<text text-anchor="middle" x="125.62" y="-53.5" font-family="Helvetica,sans-Serif" font-size="10.00">Game::startNew</text>
</a>
</g>
</g>
<!-- Node2&#45;&gt;Node4 -->
<g id="edge3_Node000002_Node000004" class="edge">
<title>Node2&#45;&gt;Node4</title>
<g id="a_edge3_Node000002_Node000004"><a xlink:title=" ">
<path fill="none" stroke="#63b8ff" d="M202.46,-67.18C191.46,-65.71 180.29,-64.21 170.03,-62.83"/>
<polygon fill="#63b8ff" stroke="#63b8ff" points="201.95,-70.64 212.32,-68.51 202.88,-63.71 201.95,-70.64"/>
</a>
</g>
</g>
<!-- Node5&#45;&gt;Node6 -->
<g id="edge5_Node000005_Node000006" class="edge">
<title>Node5&#45;&gt;Node6</title>
<g id="a_edge5_Node000005_Node000006"><a xlink:title=" ">
<path fill="none" stroke="#63b8ff" d="M208.94,-26.29C198.78,-24.28 188.3,-22.2 178.36,-20.24"/>
<polygon fill="#63b8ff" stroke="#63b8ff" points="208.25,-29.72 218.73,-28.23 209.6,-22.85 208.25,-29.72"/>
</a>
</g>
</g>
<!-- Node7 -->
<g id="Node000007" class="node">
<title>Node7</title>
<g id="a_Node000007"><a xlink:href="main_8cpp.html#ae66f6b31b5ad750f1fe042a706a4e3d4" target="_top" xlink:title=" ">
<polygon fill="white" stroke="#666666" points="37,-20 0,-20 0,0 37,0 37,-20"/>
<text text-anchor="middle" x="18.5" y="-6.5" font-family="Helvetica,sans-Serif" font-size="10.00">main</text>
</a>
</g>
</g>
<!-- Node6&#45;&gt;Node7 -->
<g id="edge6_Node000006_Node000007" class="edge">
<title>Node6&#45;&gt;Node7</title>
<g id="a_edge6_Node000006_Node000007"><a xlink:title=" ">
<path fill="none" stroke="#63b8ff" d="M61.32,-10C52.47,-10 44.04,-10 37.1,-10"/>
<polygon fill="#63b8ff" stroke="#63b8ff" points="61.16,-13.5 71.16,-10 61.16,-6.5 61.16,-13.5"/>
</a>
</g>
</g>
</g>
</svg>
