<?xml version="1.0" encoding="UTF-8" standalone="no"?>
<!DOCTYPE svg PUBLIC "-//W3C//DTD SVG 1.1//EN"
 "http://www.w3.org/Graphics/SVG/1.1/DTD/svg11.dtd">
<!-- Generated by graphviz version 10.0.1 (0)
 -->
<!-- Title: GamePhase::getRemainingItems Pages: 1 -->
<svg width="550pt" height="142pt"
 viewBox="0.00 0.00 549.75 142.00" xmlns="http://www.w3.org/2000/svg" xmlns:xlink="http://www.w3.org/1999/xlink">
<g id="graph0" class="graph" transform="scale(1 1) rotate(0) translate(4 138)">
<title>GamePhase::getRemainingItems</title>
<!-- Node1 -->
<g id="Node000001" class="node">
<title>Node1</title>
<g id="a_Node000001"><a xlink:title="Returns the number of remaining items.">
<polygon fill="#999999" stroke="#666666" points="541.75,-20 381,-20 381,0 541.75,0 541.75,-20"/>
<text text-anchor="middle" x="461.38" y="-6.5" font-family="Helvetica,sans-Serif" font-size="10.00">GamePhase::getRemainingItems</text>
</a>
</g>
</g>
<!-- Node2 -->
<g id="Node000002" class="node">
<title>Node2</title>
<g id="a_Node000002"><a xlink:href="classGame.html#a6d54497ce3a66f6dd45eacfdccc8d0bd" target="_top" xlink:title="Draws the game.">
<polygon fill="white" stroke="#666666" points="345,-58 275.75,-58 275.75,-38 345,-38 345,-58"/>
<text text-anchor="middle" x="310.38" y="-44.5" font-family="Helvetica,sans-Serif" font-size="10.00">Game::draw</text>
</a>
</g>
</g>
<!-- Node1&#45;&gt;Node2 -->
<g id="edge1_Node000001_Node000002" class="edge">
<title>Node1&#45;&gt;Node2</title>
<g id="a_edge1_Node000001_Node000002"><a xlink:title=" ">
<path fill="none" stroke="#63b8ff" d="M408.3,-23.28C387.41,-28.61 363.93,-34.6 345.31,-39.34"/>
<polygon fill="#63b8ff" stroke="#63b8ff" points="408.97,-26.72 417.8,-20.86 407.24,-19.94 408.97,-26.72"/>
</a>
</g>
</g>
<!-- Node7 -->
<g id="Node000007" class="node">
<title>Node7</title>
<g id="a_Node000007"><a xlink:href="classGame.html#aef7682b8bf084aac3c8f929a6fd2f673" target="_top" xlink:title="Updates the game state.">
<polygon fill="white" stroke="#666666" points="82.75,-39 5.25,-39 5.25,-19 82.75,-19 82.75,-39"/>
<text text-anchor="middle" x="44" y="-25.5" font-family="Helvetica,sans-Serif" font-size="10.00">Game::update</text>
</a>
</g>
</g>
<!-- Node1&#45;&gt;Node7 -->
<g id="edge8_Node000001_Node000007" class="edge">
<title>Node1&#45;&gt;Node7</title>
<g id="a_edge8_Node000001_Node000007"><a xlink:title=" ">
<path fill="none" stroke="#63b8ff" d="M369.54,-14.15C280.05,-18.25 147.65,-24.3 83.13,-27.26"/>
<polygon fill="#63b8ff" stroke="#63b8ff" points="369.44,-17.66 379.27,-13.71 369.12,-10.67 369.44,-17.66"/>
</a>
</g>
</g>
<!-- Node3 -->
<g id="Node000003" class="node">
<title>Node3</title>
<g id="a_Node000003"><a xlink:href="classGame.html#a4c2a7ead717a4c13f1ffddafd11e17c8" target="_top" xlink:title="Initializes the game, loading config, and the map.">
<polygon fill="white" stroke="#666666" points="236.75,-115 127,-115 127,-95 236.75,-95 236.75,-115"/>
<text text-anchor="middle" x="181.88" y="-101.5" font-family="Helvetica,sans-Serif" font-size="10.00">Game::initializeGame</text>
</a>
</g>
</g>
<!-- Node2&#45;&gt;Node3 -->
<g id="edge2_Node000002_Node000003" class="edge">
<title>Node2&#45;&gt;Node3</title>
<g id="a_edge2_Node000002_Node000003"><a xlink:title=" ">
<path fill="none" stroke="#63b8ff" d="M282.44,-64.16C269.75,-71.38 254.25,-79.68 239.75,-86 232.69,-89.08 224.96,-91.96 217.53,-94.51"/>
<polygon fill="#63b8ff" stroke="#63b8ff" points="284.15,-67.21 291.04,-59.16 280.63,-61.16 284.15,-67.21"/>
</a>
</g>
</g>
<!-- Node6 -->
<g id="Node000006" class="node">
<title>Node6</title>
<g id="a_Node000006"><a xlink:href="classGame.html#a127294d56e1c963bf1a12d2b95a7a0c3" target="_top" xlink:title="Returns all moving objects to their starting positions.">
<polygon fill="white" stroke="#666666" points="239.75,-77 124,-77 124,-57 239.75,-57 239.75,-77"/>
<text text-anchor="middle" x="181.88" y="-63.5" font-family="Helvetica,sans-Serif" font-size="10.00">Game::returnAllToStart</text>
</a>
</g>
</g>
<!-- Node2&#45;&gt;Node6 -->
<g id="edge5_Node000002_Node000006" class="edge">
<title>Node2&#45;&gt;Node6</title>
<g id="a_edge5_Node000002_Node000006"><a xlink:title=" ">
<path fill="none" stroke="#63b8ff" d="M264.24,-54.78C256.33,-55.97 248.01,-57.22 239.83,-58.45"/>
<polygon fill="#63b8ff" stroke="#63b8ff" points="264.61,-58.26 273.98,-53.32 263.57,-51.34 264.61,-58.26"/>
</a>
</g>
</g>
<!-- Node2&#45;&gt;Node7 -->
<g id="edge7_Node000002_Node000007" class="edge">
<title>Node2&#45;&gt;Node7</title>
<g id="a_edge7_Node000002_Node000007"><a xlink:title=" ">
<path fill="none" stroke="#63b8ff" d="M264.03,-44.74C213.01,-41.07 131.04,-35.18 83.17,-31.74"/>
<polygon fill="#63b8ff" stroke="#63b8ff" points="263.62,-48.22 273.84,-45.45 264.12,-41.24 263.62,-48.22"/>
</a>
</g>
</g>
<!-- Node4 -->
<g id="Node000004" class="node">
<title>Node4</title>
<g id="a_Node000004"><a xlink:href="classGame.html#a2a30c89761624ee64cd7acb147aaf89c" target="_top" xlink:title="Starts the game.">
<polygon fill="white" stroke="#666666" points="77.88,-134 10.12,-134 10.12,-114 77.88,-114 77.88,-134"/>
<text text-anchor="middle" x="44" y="-120.5" font-family="Helvetica,sans-Serif" font-size="10.00">Game::start</text>
</a>
</g>
</g>
<!-- Node3&#45;&gt;Node4 -->
<g id="edge3_Node000003_Node000004" class="edge">
<title>Node3&#45;&gt;Node4</title>
<g id="a_edge3_Node000003_Node000004"><a xlink:title=" ">
<path fill="none" stroke="#63b8ff" d="M115.49,-114.14C102.55,-115.95 89.48,-117.78 78.18,-119.36"/>
<polygon fill="#63b8ff" stroke="#63b8ff" points="115.87,-117.62 125.28,-112.77 114.9,-110.69 115.87,-117.62"/>
</a>
</g>
</g>
<!-- Node5 -->
<g id="Node000005" class="node">
<title>Node5</title>
<g id="a_Node000005"><a xlink:href="classGame.html#a1118c369ae5b2fe433aac540cb32d187" target="_top" xlink:title="Starts the game with a new map.">
<polygon fill="white" stroke="#666666" points="88,-96 0,-96 0,-76 88,-76 88,-96"/>
<text text-anchor="middle" x="44" y="-82.5" font-family="Helvetica,sans-Serif" font-size="10.00">Game::startNew</text>
</a>
</g>
</g>
<!-- Node3&#45;&gt;Node5 -->
<g id="edge4_Node000003_Node000005" class="edge">
<title>Node3&#45;&gt;Node5</title>
<g id="a_edge4_Node000003_Node000005"><a xlink:title=" ">
<path fill="none" stroke="#63b8ff" d="M115.62,-95.88C106.41,-94.59 97.12,-93.29 88.46,-92.08"/>
<polygon fill="#63b8ff" stroke="#63b8ff" points="114.9,-99.31 125.28,-97.23 115.87,-92.38 114.9,-99.31"/>
</a>
</g>
</g>
<!-- Node6&#45;&gt;Node7 -->
<g id="edge6_Node000006_Node000007" class="edge">
<title>Node6&#45;&gt;Node7</title>
<g id="a_edge6_Node000006_Node000007"><a xlink:title=" ">
<path fill="none" stroke="#63b8ff" d="M132.32,-53.42C115.89,-48.82 97.8,-43.77 82.37,-39.45"/>
<polygon fill="#63b8ff" stroke="#63b8ff" points="131.36,-56.79 141.93,-56.11 133.24,-50.04 131.36,-56.79"/>
</a>
</g>
</g>
</g>
</svg>
