<?xml version="1.0" encoding="UTF-8" standalone="no"?>
<!DOCTYPE svg PUBLIC "-//W3C//DTD SVG 1.1//EN"
 "http://www.w3.org/Graphics/SVG/1.1/DTD/svg11.dtd">
<!-- Generated by graphviz version 2.43.0 (0)
 -->
<!-- Title: Map::isCrossroad Pages: 1 -->
<svg width="942pt" height="123pt"
 viewBox="0.00 0.00 942.00 123.00" xmlns="http://www.w3.org/2000/svg" xmlns:xlink="http://www.w3.org/1999/xlink">
<g id="graph0" class="graph" transform="scale(1 1) rotate(0) translate(4 119)">
<title>Map::isCrossroad</title>
<polygon fill="white" stroke="transparent" points="-4,4 -4,-119 938,-119 938,4 -4,4"/>
<!-- Node1 -->
<g id="node1" class="node">
<title>Node1</title>
<g id="a_node1"><a xlink:title="Checks if given coordinates are a crossroad.">
<polygon fill="#bfbfbf" stroke="black" points="833,-57.5 833,-76.5 934,-76.5 934,-57.5 833,-57.5"/>
<text text-anchor="middle" x="883.5" y="-64.5" font-family="Helvetica,sans-Serif" font-size="10.00">Map::isCrossroad</text>
</a>
</g>
</g>
<!-- Node2 -->
<g id="node2" class="node">
<title>Node2</title>
<g id="a_node2"><a xlink:href="classMap.html#a41b623a0d503b94bf8412ca06296ae1f" target="_top" xlink:title="Helper function for finding crossroads.">
<polygon fill="white" stroke="black" points="681,-57.5 681,-76.5 797,-76.5 797,-57.5 681,-57.5"/>
<text text-anchor="middle" x="739" y="-64.5" font-family="Helvetica,sans-Serif" font-size="10.00">Map::findCrossroads</text>
</a>
</g>
</g>
<!-- Node1&#45;&gt;Node2 -->
<g id="edge1" class="edge">
<title>Node1&#45;&gt;Node2</title>
<path fill="none" stroke="midnightblue" d="M822.61,-67C814.25,-67 805.68,-67 797.38,-67"/>
<polygon fill="midnightblue" stroke="midnightblue" points="822.66,-70.5 832.66,-67 822.66,-63.5 822.66,-70.5"/>
</g>
<!-- Node3 -->
<g id="node3" class="node">
<title>Node3</title>
<g id="a_node3"><a xlink:href="classMap.html#ab1c2595a555457c0a764a0530b57c0f9" target="_top" xlink:title="Helper function for validating map string.">
<polygon fill="white" stroke="black" points="543,-57.5 543,-76.5 645,-76.5 645,-57.5 543,-57.5"/>
<text text-anchor="middle" x="594" y="-64.5" font-family="Helvetica,sans-Serif" font-size="10.00">Map::processMap</text>
</a>
</g>
</g>
<!-- Node2&#45;&gt;Node3 -->
<g id="edge2" class="edge">
<title>Node2&#45;&gt;Node3</title>
<path fill="none" stroke="midnightblue" d="M670.45,-67C662.03,-67 653.53,-67 645.43,-67"/>
<polygon fill="midnightblue" stroke="midnightblue" points="670.66,-70.5 680.66,-67 670.66,-63.5 670.66,-70.5"/>
</g>
<!-- Node4 -->
<g id="node4" class="node">
<title>Node4</title>
<g id="a_node4"><a xlink:href="classMap.html#ab5b009bf7edded05f4461b62de5eff49" target="_top" xlink:title="Loads the map from a string.">
<polygon fill="white" stroke="black" points="389,-85.5 389,-104.5 507,-104.5 507,-85.5 389,-85.5"/>
<text text-anchor="middle" x="448" y="-92.5" font-family="Helvetica,sans-Serif" font-size="10.00">Map::loadFromString</text>
</a>
</g>
</g>
<!-- Node3&#45;&gt;Node4 -->
<g id="edge3" class="edge">
<title>Node3&#45;&gt;Node4</title>
<path fill="none" stroke="midnightblue" d="M533.94,-78.48C521.97,-80.81 509.51,-83.23 497.93,-85.49"/>
<polygon fill="midnightblue" stroke="midnightblue" points="534.7,-81.9 543.85,-76.56 533.36,-75.03 534.7,-81.9"/>
</g>
<!-- Node6 -->
<g id="node6" class="node">
<title>Node6</title>
<g id="a_node6"><a xlink:href="classMap.html#a2657d897204aaedba0e8e4f01b2e1efc" target="_top" xlink:title="Loads the map from a file.">
<polygon fill="white" stroke="black" points="405,-38.5 405,-57.5 491,-57.5 491,-38.5 405,-38.5"/>
<text text-anchor="middle" x="448" y="-45.5" font-family="Helvetica,sans-Serif" font-size="10.00">Map::loadMap</text>
</a>
</g>
</g>
<!-- Node3&#45;&gt;Node6 -->
<g id="edge5" class="edge">
<title>Node3&#45;&gt;Node6</title>
<path fill="none" stroke="midnightblue" d="M532.68,-59.04C518.82,-57.21 504.37,-55.31 491.46,-53.6"/>
<polygon fill="midnightblue" stroke="midnightblue" points="532.26,-62.52 542.64,-60.35 533.18,-55.58 532.26,-62.52"/>
</g>
<!-- Node5 -->
<g id="node5" class="node">
<title>Node5</title>
<g id="a_node5"><a xlink:href="classGame.html#a1118c369ae5b2fe433aac540cb32d187" target="_top" xlink:title="Starts the game with a new map.">
<polygon fill="white" stroke="black" points="87.5,-95.5 87.5,-114.5 183.5,-114.5 183.5,-95.5 87.5,-95.5"/>
<text text-anchor="middle" x="135.5" y="-102.5" font-family="Helvetica,sans-Serif" font-size="10.00">Game::startNew</text>
</a>
</g>
</g>
<!-- Node4&#45;&gt;Node5 -->
<g id="edge4" class="edge">
<title>Node4&#45;&gt;Node5</title>
<path fill="none" stroke="midnightblue" d="M378.95,-97.19C319.79,-99.1 235.6,-101.81 183.6,-103.48"/>
<polygon fill="midnightblue" stroke="midnightblue" points="379.08,-100.69 388.96,-96.87 378.85,-93.69 379.08,-100.69"/>
</g>
<!-- Node7 -->
<g id="node7" class="node">
<title>Node7</title>
<g id="a_node7"><a xlink:href="classGame.html#a4c2a7ead717a4c13f1ffddafd11e17c8" target="_top" xlink:title="Initializes the game, loading config, and the map.">
<polygon fill="white" stroke="black" points="230,-57.5 230,-76.5 353,-76.5 353,-57.5 230,-57.5"/>
<text text-anchor="middle" x="291.5" y="-64.5" font-family="Helvetica,sans-Serif" font-size="10.00">Game::initializeGame</text>
</a>
</g>
</g>
<!-- Node6&#45;&gt;Node7 -->
<g id="edge6" class="edge">
<title>Node6&#45;&gt;Node7</title>
<path fill="none" stroke="midnightblue" d="M394.81,-54.42C381.44,-56.06 366.96,-57.84 353.2,-59.54"/>
<polygon fill="midnightblue" stroke="midnightblue" points="395.28,-57.89 404.78,-53.19 394.43,-50.94 395.28,-57.89"/>
</g>
<!-- Node9 -->
<g id="node9" class="node">
<title>Node9</title>
<g id="a_node9"><a xlink:href="classConfig.html#ab8b24da021cd9ad9ca092749292ca6ed" target="_top" xlink:title="Loads the config from a file.">
<polygon fill="white" stroke="black" points="239,-19.5 239,-38.5 344,-38.5 344,-19.5 239,-19.5"/>
<text text-anchor="middle" x="291.5" y="-26.5" font-family="Helvetica,sans-Serif" font-size="10.00">Config::loadConfig</text>
</a>
</g>
</g>
<!-- Node6&#45;&gt;Node9 -->
<g id="edge9" class="edge">
<title>Node6&#45;&gt;Node9</title>
<path fill="none" stroke="midnightblue" d="M394.83,-41.58C378.44,-39.57 360.37,-37.35 344.03,-35.34"/>
<polygon fill="midnightblue" stroke="midnightblue" points="394.43,-45.06 404.78,-42.81 395.28,-38.11 394.43,-45.06"/>
</g>
<!-- Node10 -->
<g id="node10" class="node">
<title>Node10</title>
<g id="a_node10"><a xlink:href="classGameManager.html#a8460b2f4f44c19dd405e4163fe6cb5cf" target="_top" xlink:title=" ">
<polygon fill="white" stroke="black" points="77,-0.5 77,-19.5 194,-19.5 194,-0.5 77,-0.5"/>
<text text-anchor="middle" x="135.5" y="-7.5" font-family="Helvetica,sans-Serif" font-size="10.00">GameManager::start</text>
</a>
</g>
</g>
<!-- Node6&#45;&gt;Node10 -->
<g id="edge12" class="edge">
<title>Node6&#45;&gt;Node10</title>
<path fill="none" stroke="midnightblue" d="M420.08,-33.88C401.73,-25.08 376.58,-14.59 353,-10 299.87,0.33 238.01,-0.96 194.05,-4.07"/>
<polygon fill="midnightblue" stroke="midnightblue" points="418.75,-37.13 429.27,-38.42 421.85,-30.85 418.75,-37.13"/>
</g>
<!-- Node7&#45;&gt;Node5 -->
<g id="edge8" class="edge">
<title>Node7&#45;&gt;Node5</title>
<path fill="none" stroke="midnightblue" d="M241.71,-79.04C220.19,-84.35 195.27,-90.5 175.08,-95.48"/>
<polygon fill="midnightblue" stroke="midnightblue" points="242.77,-82.38 251.64,-76.59 241.09,-75.59 242.77,-82.38"/>
</g>
<!-- Node8 -->
<g id="node8" class="node">
<title>Node8</title>
<g id="a_node8"><a xlink:href="classGame.html#a2a30c89761624ee64cd7acb147aaf89c" target="_top" xlink:title="Starts the game.">
<polygon fill="white" stroke="black" points="98.5,-57.5 98.5,-76.5 172.5,-76.5 172.5,-57.5 98.5,-57.5"/>
<text text-anchor="middle" x="135.5" y="-64.5" font-family="Helvetica,sans-Serif" font-size="10.00">Game::start</text>
</a>
</g>
</g>
<!-- Node7&#45;&gt;Node8 -->
<g id="edge7" class="edge">
<title>Node7&#45;&gt;Node8</title>
<path fill="none" stroke="midnightblue" d="M219.56,-67C203.27,-67 186.62,-67 172.54,-67"/>
<polygon fill="midnightblue" stroke="midnightblue" points="219.64,-70.5 229.64,-67 219.64,-63.5 219.64,-70.5"/>
</g>
<!-- Node9&#45;&gt;Node10 -->
<g id="edge10" class="edge">
<title>Node9&#45;&gt;Node10</title>
<path fill="none" stroke="midnightblue" d="M228.53,-21.35C217.18,-19.95 205.38,-18.5 194.17,-17.12"/>
<polygon fill="midnightblue" stroke="midnightblue" points="228.44,-24.87 238.79,-22.62 229.3,-17.92 228.44,-24.87"/>
</g>
<!-- Node11 -->
<g id="node11" class="node">
<title>Node11</title>
<g id="a_node11"><a xlink:href="main_8cpp.html#ae66f6b31b5ad750f1fe042a706a4e3d4" target="_top" xlink:title=" ">
<polygon fill="white" stroke="black" points="0,-0.5 0,-19.5 41,-19.5 41,-0.5 0,-0.5"/>
<text text-anchor="middle" x="20.5" y="-7.5" font-family="Helvetica,sans-Serif" font-size="10.00">main</text>
</a>
</g>
</g>
<!-- Node10&#45;&gt;Node11 -->
<g id="edge11" class="edge">
<title>Node10&#45;&gt;Node11</title>
<path fill="none" stroke="midnightblue" d="M66.53,-10C57.29,-10 48.48,-10 41.14,-10"/>
<polygon fill="midnightblue" stroke="midnightblue" points="66.68,-13.5 76.68,-10 66.68,-6.5 66.68,-13.5"/>
</g>
</g>
</svg>
