<?xml version="1.0" encoding="UTF-8" standalone="no"?>
<!DOCTYPE svg PUBLIC "-//W3C//DTD SVG 1.1//EN"
 "http://www.w3.org/Graphics/SVG/1.1/DTD/svg11.dtd">
<!-- Generated by graphviz version 10.0.1 (0)
 -->
<!-- Title: GamePhase::getPrevPhase Pages: 1 -->
<svg width="261pt" height="66pt"
 viewBox="0.00 0.00 260.50 66.00" xmlns="http://www.w3.org/2000/svg" xmlns:xlink="http://www.w3.org/1999/xlink">
<g id="graph0" class="graph" transform="scale(1 1) rotate(0) translate(4 62)">
<title>GamePhase::getPrevPhase</title>
<!-- Node1 -->
<g id="Node000001" class="node">
<title>Node1</title>
<g id="a_Node000001"><a xlink:title="Returns the previous game phase.">
<polygon fill="#999999" stroke="#666666" points="252.5,-39 115,-39 115,-19 252.5,-19 252.5,-39"/>
<text text-anchor="middle" x="183.75" y="-25.5" font-family="Helvetica,sans-Serif" font-size="10.00">GamePhase::getPrevPhase</text>
</a>
</g>
</g>
<!-- Node2 -->
<g id="Node000002" class="node">
<title>Node2</title>
<g id="a_Node000002"><a xlink:href="classGhost.html#a16b4f0601026b19a1f4b06e68059372a" target="_top" xlink:title="Updates the object.">
<polygon fill="white" stroke="#666666" points="78.25,-58 0.75,-58 0.75,-38 78.25,-38 78.25,-58"/>
<text text-anchor="middle" x="39.5" y="-44.5" font-family="Helvetica,sans-Serif" font-size="10.00">Ghost::update</text>
</a>
</g>
</g>
<!-- Node1&#45;&gt;Node2 -->
<g id="edge1_Node000001_Node000002" class="edge">
<title>Node1&#45;&gt;Node2</title>
<g id="a_edge1_Node000001_Node000002"><a xlink:title=" ">
<path fill="none" stroke="#63b8ff" d="M103.21,-39.62C94.63,-40.77 86.22,-41.89 78.48,-42.93"/>
<polygon fill="#63b8ff" stroke="#63b8ff" points="103.59,-43.1 113.04,-38.31 102.67,-36.17 103.59,-43.1"/>
</a>
</g>
</g>
<!-- Node3 -->
<g id="Node000003" class="node">
<title>Node3</title>
<g id="a_Node000003"><a xlink:href="classPlayer.html#abc005b0707ae63f395b33d79a876a453" target="_top" xlink:title="Updates the object.">
<polygon fill="white" stroke="#666666" points="79,-20 0,-20 0,0 79,0 79,-20"/>
<text text-anchor="middle" x="39.5" y="-6.5" font-family="Helvetica,sans-Serif" font-size="10.00">Player::update</text>
</a>
</g>
</g>
<!-- Node1&#45;&gt;Node3 -->
<g id="edge2_Node000001_Node000003" class="edge">
<title>Node1&#45;&gt;Node3</title>
<g id="a_edge2_Node000001_Node000003"><a xlink:title=" ">
<path fill="none" stroke="#63b8ff" d="M103.19,-18.37C94.9,-17.27 86.77,-16.18 79.25,-15.18"/>
<polygon fill="#63b8ff" stroke="#63b8ff" points="102.67,-21.83 113.04,-19.69 103.59,-14.9 102.67,-21.83"/>
</a>
</g>
</g>
</g>
</svg>
