<?xml version="1.0" encoding="UTF-8" standalone="no"?>
<!DOCTYPE svg PUBLIC "-//W3C//DTD SVG 1.1//EN"
 "http://www.w3.org/Graphics/SVG/1.1/DTD/svg11.dtd">
<!-- Generated by graphviz version 10.0.1 (0)
 -->
<!-- Title: Ghost::interactWith Pages: 1 -->
<svg width="458pt" height="104pt"
 viewBox="0.00 0.00 458.00 104.00" xmlns="http://www.w3.org/2000/svg" xmlns:xlink="http://www.w3.org/1999/xlink">
<g id="graph0" class="graph" transform="scale(1 1) rotate(0) translate(4 100)">
<title>Ghost::interactWith</title>
<!-- Node1 -->
<g id="Node000001" class="node">
<title>Node1</title>
<g id="a_Node000001"><a xlink:title="Interacts with another object.">
<polygon fill="#999999" stroke="#666666" points="100.75,-58 0,-58 0,-38 100.75,-38 100.75,-58"/>
<text text-anchor="middle" x="50.38" y="-44.5" font-family="Helvetica,sans-Serif" font-size="10.00">Ghost::interactWith</text>
</a>
</g>
</g>
<!-- Node2 -->
<g id="Node000002" class="node">
<title>Node2</title>
<g id="a_Node000002"><a xlink:href="classGamePhase.html#a337c0a04d2c1d159ff9a98e99e11116a" target="_top" xlink:title="Returns the current level.">
<polygon fill="white" stroke="#666666" points="262.25,-96 149.5,-96 149.5,-76 262.25,-76 262.25,-96"/>
<text text-anchor="middle" x="205.88" y="-82.5" font-family="Helvetica,sans-Serif" font-size="10.00">GamePhase::getLevel</text>
</a>
</g>
</g>
<!-- Node1&#45;&gt;Node2 -->
<g id="edge1_Node000001_Node000002" class="edge">
<title>Node1&#45;&gt;Node2</title>
<g id="a_edge1_Node000001_Node000002"><a xlink:title=" ">
<path fill="none" stroke="#63b8ff" d="M93.73,-58.48C111.59,-62.91 132.6,-68.11 151.51,-72.79"/>
<polygon fill="#63b8ff" stroke="#63b8ff" points="150.65,-76.18 161.19,-75.19 152.33,-69.39 150.65,-76.18"/>
</a>
</g>
</g>
<!-- Node3 -->
<g id="Node000003" class="node">
<title>Node3</title>
<g id="a_Node000003"><a xlink:href="classMovingObject.html#a0770fcf5def6da1bfeefb3a16e356ace" target="_top" xlink:title="Returns the object to its starting position.">
<polygon fill="white" stroke="#666666" points="275,-58 136.75,-58 136.75,-38 275,-38 275,-58"/>
<text text-anchor="middle" x="205.88" y="-44.5" font-family="Helvetica,sans-Serif" font-size="10.00">MovingObject::returnToStart</text>
</a>
</g>
</g>
<!-- Node1&#45;&gt;Node3 -->
<g id="edge2_Node000001_Node000003" class="edge">
<title>Node1&#45;&gt;Node3</title>
<g id="a_edge2_Node000001_Node000003"><a xlink:title=" ">
<path fill="none" stroke="#63b8ff" d="M101.21,-48C108.83,-48 116.85,-48 124.92,-48"/>
<polygon fill="#63b8ff" stroke="#63b8ff" points="124.8,-51.5 134.8,-48 124.8,-44.5 124.8,-51.5"/>
</a>
</g>
</g>
<!-- Node4 -->
<g id="Node000004" class="node">
<title>Node4</title>
<g id="a_Node000004"><a xlink:href="classGamePhase.html#af152a5e182080af728f34e66b29079c5" target="_top" xlink:title="Sets the current game phase.">
<polygon fill="white" stroke="#666666" points="264.5,-20 147.25,-20 147.25,0 264.5,0 264.5,-20"/>
<text text-anchor="middle" x="205.88" y="-6.5" font-family="Helvetica,sans-Serif" font-size="10.00">GamePhase::setPhase</text>
</a>
</g>
</g>
<!-- Node1&#45;&gt;Node4 -->
<g id="edge3_Node000001_Node000004" class="edge">
<title>Node1&#45;&gt;Node4</title>
<g id="a_edge3_Node000001_Node000004"><a xlink:title=" ">
<path fill="none" stroke="#63b8ff" d="M93.73,-37.52C111.59,-33.09 132.6,-27.89 151.51,-23.21"/>
<polygon fill="#63b8ff" stroke="#63b8ff" points="152.33,-26.61 161.19,-20.81 150.65,-19.82 152.33,-26.61"/>
</a>
</g>
</g>
<!-- Node5 -->
<g id="Node000005" class="node">
<title>Node5</title>
<g id="a_Node000005"><a xlink:href="classGamePhase.html#a097fcd119e1cce98533b731f7e6ae53d" target="_top" xlink:title="Sets the time of the current phase.">
<polygon fill="white" stroke="#666666" points="450,-20 311,-20 311,0 450,0 450,-20"/>
<text text-anchor="middle" x="380.5" y="-6.5" font-family="Helvetica,sans-Serif" font-size="10.00">GamePhase::setPhaseTime</text>
</a>
</g>
</g>
<!-- Node4&#45;&gt;Node5 -->
<g id="edge4_Node000004_Node000005" class="edge">
<title>Node4&#45;&gt;Node5</title>
<g id="a_edge4_Node000004_Node000005"><a xlink:title=" ">
<path fill="none" stroke="#63b8ff" d="M264.84,-10C275.86,-10 287.57,-10 299.14,-10"/>
<polygon fill="#63b8ff" stroke="#63b8ff" points="299.12,-13.5 309.12,-10 299.12,-6.5 299.12,-13.5"/>
</a>
</g>
</g>
</g>
</svg>
