<?xml version="1.0" encoding="UTF-8" standalone="no"?>
<!DOCTYPE svg PUBLIC "-//W3C//DTD SVG 1.1//EN"
 "http://www.w3.org/Graphics/SVG/1.1/DTD/svg11.dtd">
<!-- Generated by graphviz version 2.43.0 (0)
 -->
<!-- Title: Leaderboard::loadScores Pages: 1 -->
<svg width="319pt" height="66pt"
 viewBox="0.00 0.00 319.00 66.00" xmlns="http://www.w3.org/2000/svg" xmlns:xlink="http://www.w3.org/1999/xlink">
<g id="graph0" class="graph" transform="scale(1 1) rotate(0) translate(4 62)">
<title>Leaderboard::loadScores</title>
<polygon fill="white" stroke="transparent" points="-4,4 -4,-62 315,-62 315,4 -4,4"/>
<!-- Node1 -->
<g id="node1" class="node">
<title>Node1</title>
<g id="a_node1"><a xlink:title="Loads the scores from a file.">
<polygon fill="#bfbfbf" stroke="black" points="0,-19.5 0,-38.5 137,-38.5 137,-19.5 0,-19.5"/>
<text text-anchor="middle" x="68.5" y="-26.5" font-family="Helvetica,sans-Serif" font-size="10.00">Leaderboard::loadScores</text>
</a>
</g>
</g>
<!-- Node2 -->
<g id="node2" class="node">
<title>Node2</title>
<g id="a_node2"><a xlink:href="classLeaderboard.html#aaf22ea54d8b0e7e5d2bf5c3b9dcbdee2" target="_top" xlink:title="Creates a save file.">
<polygon fill="white" stroke="black" points="173,-38.5 173,-57.5 311,-57.5 311,-38.5 173,-38.5"/>
<text text-anchor="middle" x="242" y="-45.5" font-family="Helvetica,sans-Serif" font-size="10.00">Leaderboard::createSave</text>
</a>
</g>
</g>
<!-- Node1&#45;&gt;Node2 -->
<g id="edge1" class="edge">
<title>Node1&#45;&gt;Node2</title>
<path fill="none" stroke="midnightblue" d="M137.28,-36.51C145.69,-37.44 154.35,-38.4 162.9,-39.35"/>
<polygon fill="midnightblue" stroke="midnightblue" points="162.54,-42.83 172.87,-40.45 163.31,-35.87 162.54,-42.83"/>
</g>
<!-- Node3 -->
<g id="node3" class="node">
<title>Node3</title>
<g id="a_node3"><a xlink:href="classLeaderboard.html#a9d9d83737bf8412fa71cb1c238c059f6" target="_top" xlink:title="Reads a value from binary save file.">
<polygon fill="white" stroke="black" points="189.5,-0.5 189.5,-19.5 294.5,-19.5 294.5,-0.5 189.5,-0.5"/>
<text text-anchor="middle" x="242" y="-7.5" font-family="Helvetica,sans-Serif" font-size="10.00">Leaderboard::read</text>
</a>
</g>
</g>
<!-- Node1&#45;&gt;Node3 -->
<g id="edge2" class="edge">
<title>Node1&#45;&gt;Node3</title>
<path fill="none" stroke="midnightblue" d="M137.28,-21.49C151.08,-19.96 165.54,-18.36 179.12,-16.86"/>
<polygon fill="midnightblue" stroke="midnightblue" points="179.76,-20.31 189.32,-15.73 178.99,-13.35 179.76,-20.31"/>
</g>
</g>
</svg>
