<?xml version="1.0" encoding="UTF-8" standalone="no"?>
<!DOCTYPE svg PUBLIC "-//W3C//DTD SVG 1.1//EN"
 "http://www.w3.org/Graphics/SVG/1.1/DTD/svg11.dtd">
<!-- Generated by graphviz version 2.43.0 (0)
 -->
<!-- Title: Game::initializeGame Pages: 1 -->
<svg width="807pt" height="484pt"
 viewBox="0.00 0.00 807.00 484.00" xmlns="http://www.w3.org/2000/svg" xmlns:xlink="http://www.w3.org/1999/xlink">
<g id="graph0" class="graph" transform="scale(1 1) rotate(0) translate(4 480)">
<title>Game::initializeGame</title>
<polygon fill="white" stroke="transparent" points="-4,4 -4,-480 803,-480 803,4 -4,4"/>
<!-- Node1 -->
<g id="node1" class="node">
<title>Node1</title>
<g id="a_node1"><a xlink:title="Initializes the game, loading config, and the map.">
<polygon fill="#bfbfbf" stroke="black" points="0,-280.5 0,-299.5 123,-299.5 123,-280.5 0,-280.5"/>
<text text-anchor="middle" x="61.5" y="-287.5" font-family="Helvetica,sans-Serif" font-size="10.00">Game::initializeGame</text>
</a>
</g>
</g>
<!-- Node2 -->
<g id="node2" class="node">
<title>Node2</title>
<g id="a_node2"><a xlink:href="classWindow.html#a07c2b4d065cbcb397eafc1a27a337bb7" target="_top" xlink:title="Clears the current window.">
<polygon fill="white" stroke="black" points="350.5,-456.5 350.5,-475.5 490.5,-475.5 490.5,-456.5 350.5,-456.5"/>
<text text-anchor="middle" x="420.5" y="-463.5" font-family="Helvetica,sans-Serif" font-size="10.00">Window::clearCurrentWin</text>
</a>
</g>
</g>
<!-- Node1&#45;&gt;Node2 -->
<g id="edge1" class="edge">
<title>Node1&#45;&gt;Node2</title>
<path fill="none" stroke="midnightblue" d="M67.29,-299.54C79.29,-322.43 113.05,-380.65 159,-409 189.2,-427.63 276.64,-444.39 341.94,-454.84"/>
<polygon fill="midnightblue" stroke="midnightblue" points="341.8,-458.36 352.22,-456.46 342.89,-451.44 341.8,-458.36"/>
</g>
<!-- Node3 -->
<g id="node3" class="node">
<title>Node3</title>
<g id="a_node3"><a xlink:href="classGame.html#a6d54497ce3a66f6dd45eacfdccc8d0bd" target="_top" xlink:title="Draws the game.">
<polygon fill="white" stroke="black" points="189.5,-304.5 189.5,-323.5 265.5,-323.5 265.5,-304.5 189.5,-304.5"/>
<text text-anchor="middle" x="227.5" y="-311.5" font-family="Helvetica,sans-Serif" font-size="10.00">Game::draw</text>
</a>
</g>
</g>
<!-- Node1&#45;&gt;Node3 -->
<g id="edge2" class="edge">
<title>Node1&#45;&gt;Node3</title>
<path fill="none" stroke="midnightblue" d="M123.1,-298.87C141.71,-301.59 161.91,-304.55 179.47,-307.12"/>
<polygon fill="midnightblue" stroke="midnightblue" points="179.07,-310.6 189.47,-308.58 180.08,-303.67 179.07,-310.6"/>
</g>
<!-- Node10 -->
<g id="node10" class="node">
<title>Node10</title>
<g id="a_node10"><a xlink:href="classWindow.html#a2238e5489102fe2a77e7898a07dc37b5" target="_top" xlink:title="Gets text input from the user.">
<polygon fill="white" stroke="black" points="177,-380.5 177,-399.5 278,-399.5 278,-380.5 177,-380.5"/>
<text text-anchor="middle" x="227.5" y="-387.5" font-family="Helvetica,sans-Serif" font-size="10.00">Window::getInput</text>
</a>
</g>
</g>
<!-- Node1&#45;&gt;Node10 -->
<g id="edge10" class="edge">
<title>Node1&#45;&gt;Node10</title>
<path fill="none" stroke="midnightblue" d="M71.11,-299.5C86.9,-316.37 122.26,-351.58 159,-371 163.28,-373.26 167.86,-375.28 172.55,-377.08"/>
<polygon fill="midnightblue" stroke="midnightblue" points="171.65,-380.47 182.24,-380.46 173.95,-373.86 171.65,-380.47"/>
</g>
<!-- Node11 -->
<g id="node11" class="node">
<title>Node11</title>
<g id="a_node11"><a xlink:href="classConfig.html#a683f3adeacbde8622e8c46cc2f9dee25" target="_top" xlink:title="Gets the map file path.">
<polygon fill="white" stroke="black" points="182.5,-342.5 182.5,-361.5 272.5,-361.5 272.5,-342.5 182.5,-342.5"/>
<text text-anchor="middle" x="227.5" y="-349.5" font-family="Helvetica,sans-Serif" font-size="10.00">Config::getPath</text>
</a>
</g>
</g>
<!-- Node1&#45;&gt;Node11 -->
<g id="edge12" class="edge">
<title>Node1&#45;&gt;Node11</title>
<path fill="none" stroke="midnightblue" d="M81.75,-299.57C100.99,-308.9 131.57,-323.09 159,-333 165.38,-335.31 172.19,-337.51 178.93,-339.55"/>
<polygon fill="midnightblue" stroke="midnightblue" points="178.12,-342.96 188.7,-342.4 180.09,-336.24 178.12,-342.96"/>
</g>
<!-- Node12 -->
<g id="node12" class="node">
<title>Node12</title>
<g id="a_node12"><a xlink:href="classConfig.html#a62c7c2d485cb30374271dba0eafe63c8" target="_top" xlink:title="Gets any value from the config map.">
<polygon fill="white" stroke="black" points="372.5,-190.5 372.5,-209.5 468.5,-209.5 468.5,-190.5 372.5,-190.5"/>
<text text-anchor="middle" x="420.5" y="-197.5" font-family="Helvetica,sans-Serif" font-size="10.00">Config::getValue</text>
</a>
</g>
</g>
<!-- Node1&#45;&gt;Node12 -->
<g id="edge13" class="edge">
<title>Node1&#45;&gt;Node12</title>
<path fill="none" stroke="midnightblue" d="M83.58,-280.44C102.88,-271.99 132.4,-259.82 159,-252 227.79,-231.77 309.11,-216.93 362.37,-208.4"/>
<polygon fill="midnightblue" stroke="midnightblue" points="362.97,-211.84 372.3,-206.83 361.88,-204.93 362.97,-211.84"/>
</g>
<!-- Node13 -->
<g id="node13" class="node">
<title>Node13</title>
<g id="a_node13"><a xlink:href="classMap.html#a2657d897204aaedba0e8e4f01b2e1efc" target="_top" xlink:title="Loads the map from a file.">
<polygon fill="white" stroke="black" points="184.5,-261.5 184.5,-280.5 270.5,-280.5 270.5,-261.5 184.5,-261.5"/>
<text text-anchor="middle" x="227.5" y="-268.5" font-family="Helvetica,sans-Serif" font-size="10.00">Map::loadMap</text>
</a>
</g>
</g>
<!-- Node1&#45;&gt;Node13 -->
<g id="edge14" class="edge">
<title>Node1&#45;&gt;Node13</title>
<path fill="none" stroke="midnightblue" d="M123.1,-282.98C139.79,-281.05 157.76,-278.96 173.95,-277.09"/>
<polygon fill="midnightblue" stroke="midnightblue" points="174.78,-280.52 184.31,-275.89 173.97,-273.56 174.78,-280.52"/>
</g>
<!-- Node19 -->
<g id="node19" class="node">
<title>Node19</title>
<g id="a_node19"><a xlink:href="classGame.html#a1290bdc979d75815efe4d21e83a806cb" target="_top" xlink:title="Loads the object from the map.">
<polygon fill="white" stroke="black" points="172.5,-171.5 172.5,-190.5 282.5,-190.5 282.5,-171.5 172.5,-171.5"/>
<text text-anchor="middle" x="227.5" y="-178.5" font-family="Helvetica,sans-Serif" font-size="10.00">Game::loadObjects</text>
</a>
</g>
</g>
<!-- Node1&#45;&gt;Node19 -->
<g id="edge20" class="edge">
<title>Node1&#45;&gt;Node19</title>
<path fill="none" stroke="midnightblue" d="M72.19,-280.33C88.8,-264.13 124.29,-231.24 159,-210 168.56,-204.15 179.52,-198.9 189.78,-194.52"/>
<polygon fill="midnightblue" stroke="midnightblue" points="191.42,-197.64 199.34,-190.61 188.76,-191.16 191.42,-197.64"/>
</g>
<!-- Node22 -->
<g id="node22" class="node">
<title>Node22</title>
<g id="a_node22"><a xlink:href="classLeaderboard.html#a43ac1b937341b8e5b3bd8b33200034d1" target="_top" xlink:title="Loads the scores from a file.">
<polygon fill="white" stroke="black" points="159,-76.5 159,-95.5 296,-95.5 296,-76.5 159,-76.5"/>
<text text-anchor="middle" x="227.5" y="-83.5" font-family="Helvetica,sans-Serif" font-size="10.00">Leaderboard::loadScores</text>
</a>
</g>
</g>
<!-- Node1&#45;&gt;Node22 -->
<g id="edge24" class="edge">
<title>Node1&#45;&gt;Node22</title>
<path fill="none" stroke="midnightblue" d="M69.27,-280.49C84.67,-258.97 123.74,-205.06 159,-162 175.98,-141.26 196.57,-118.38 210.51,-103.2"/>
<polygon fill="midnightblue" stroke="midnightblue" points="213.3,-105.34 217.51,-95.62 208.15,-100.59 213.3,-105.34"/>
</g>
<!-- Node25 -->
<g id="node25" class="node">
<title>Node25</title>
<g id="a_node25"><a xlink:href="classWindow.html#aba37c5e32e43d21a46968fd8ada1d327" target="_top" xlink:title="Prints the message to the current window.">
<polygon fill="white" stroke="black" points="164,-456.5 164,-475.5 291,-475.5 291,-456.5 164,-456.5"/>
<text text-anchor="middle" x="227.5" y="-463.5" font-family="Helvetica,sans-Serif" font-size="10.00">Window::printMessage</text>
</a>
</g>
</g>
<!-- Node1&#45;&gt;Node25 -->
<g id="edge27" class="edge">
<title>Node1&#45;&gt;Node25</title>
<path fill="none" stroke="midnightblue" d="M66.05,-299.75C76.24,-326.45 108.18,-401.45 159,-442 164.29,-446.22 170.38,-449.73 176.7,-452.64"/>
<polygon fill="midnightblue" stroke="midnightblue" points="175.46,-455.92 186.04,-456.5 178.13,-449.45 175.46,-455.92"/>
</g>
<!-- Node26 -->
<g id="node26" class="node">
<title>Node26</title>
<g id="a_node26"><a xlink:href="classGamePhase.html#af152a5e182080af728f34e66b29079c5" target="_top" xlink:title="Sets the current game phase.">
<polygon fill="white" stroke="black" points="165,-19.5 165,-38.5 290,-38.5 290,-19.5 165,-19.5"/>
<text text-anchor="middle" x="227.5" y="-26.5" font-family="Helvetica,sans-Serif" font-size="10.00">GamePhase::setPhase</text>
</a>
</g>
</g>
<!-- Node1&#45;&gt;Node26 -->
<g id="edge29" class="edge">
<title>Node1&#45;&gt;Node26</title>
<path fill="none" stroke="midnightblue" d="M64.37,-280.33C71.24,-246.91 98.02,-134.7 159,-67 168.02,-56.99 180.32,-48.99 191.95,-42.97"/>
<polygon fill="midnightblue" stroke="midnightblue" points="193.59,-46.06 201.06,-38.56 190.54,-39.76 193.59,-46.06"/>
</g>
<!-- Node4 -->
<g id="node4" class="node">
<title>Node4</title>
<g id="a_node4"><a xlink:href="classGamePhase.html#a337c0a04d2c1d159ff9a98e99e11116a" target="_top" xlink:title="Returns the current level.">
<polygon fill="white" stroke="black" points="359,-304.5 359,-323.5 482,-323.5 482,-304.5 359,-304.5"/>
<text text-anchor="middle" x="420.5" y="-311.5" font-family="Helvetica,sans-Serif" font-size="10.00">GamePhase::getLevel</text>
</a>
</g>
</g>
<!-- Node3&#45;&gt;Node4 -->
<g id="edge3" class="edge">
<title>Node3&#45;&gt;Node4</title>
<path fill="none" stroke="midnightblue" d="M265.78,-314C289.28,-314 320.37,-314 348.45,-314"/>
<polygon fill="midnightblue" stroke="midnightblue" points="348.64,-317.5 358.64,-314 348.64,-310.5 348.64,-317.5"/>
</g>
<!-- Node5 -->
<g id="node5" class="node">
<title>Node5</title>
<g id="a_node5"><a xlink:href="classGamePhase.html#a1e01dd9cbefce12ad832102c3a9ed3a2" target="_top" xlink:title="Returns the number of remaining items.">
<polygon fill="white" stroke="black" points="332,-266.5 332,-285.5 509,-285.5 509,-266.5 332,-266.5"/>
<text text-anchor="middle" x="420.5" y="-273.5" font-family="Helvetica,sans-Serif" font-size="10.00">GamePhase::getRemainingItems</text>
</a>
</g>
</g>
<!-- Node3&#45;&gt;Node5 -->
<g id="edge4" class="edge">
<title>Node3&#45;&gt;Node5</title>
<path fill="none" stroke="midnightblue" d="M265.78,-306.58C293.01,-301.16 330.46,-293.71 361.58,-287.52"/>
<polygon fill="midnightblue" stroke="midnightblue" points="362.31,-290.95 371.44,-285.56 360.94,-284.08 362.31,-290.95"/>
</g>
<!-- Node6 -->
<g id="node6" class="node">
<title>Node6</title>
<g id="a_node6"><a xlink:href="classWindow.html#aaa279ff498c917ba2535b26e5f396c7c" target="_top" xlink:title="Prints character at given position, default color.">
<polygon fill="white" stroke="black" points="362.5,-418.5 362.5,-437.5 478.5,-437.5 478.5,-418.5 362.5,-418.5"/>
<text text-anchor="middle" x="420.5" y="-425.5" font-family="Helvetica,sans-Serif" font-size="10.00">Window::printCharAt</text>
</a>
</g>
</g>
<!-- Node3&#45;&gt;Node6 -->
<g id="edge5" class="edge">
<title>Node3&#45;&gt;Node6</title>
<path fill="none" stroke="midnightblue" d="M265.58,-318.5C276.32,-321.29 287.44,-325.77 296,-333 324.55,-357.12 302.73,-385.76 332,-409 338.16,-413.89 345.31,-417.6 352.81,-420.38"/>
<polygon fill="midnightblue" stroke="midnightblue" points="351.86,-423.76 362.45,-423.45 353.99,-417.08 351.86,-423.76"/>
</g>
<!-- Node7 -->
<g id="node7" class="node">
<title>Node7</title>
<g id="a_node7"><a xlink:href="classWindow.html#a7f8803b32163553cf314fa01b703c9a8" target="_top" xlink:title="Prints the game UI.">
<polygon fill="white" stroke="black" points="373.5,-380.5 373.5,-399.5 467.5,-399.5 467.5,-380.5 373.5,-380.5"/>
<text text-anchor="middle" x="420.5" y="-387.5" font-family="Helvetica,sans-Serif" font-size="10.00">Window::printUI</text>
</a>
</g>
</g>
<!-- Node3&#45;&gt;Node7 -->
<g id="edge6" class="edge">
<title>Node3&#45;&gt;Node7</title>
<path fill="none" stroke="midnightblue" d="M265.81,-321.17C275.99,-324 286.75,-327.85 296,-333 314.96,-343.56 313,-355.5 332,-366 341.71,-371.37 352.7,-375.6 363.53,-378.91"/>
<polygon fill="midnightblue" stroke="midnightblue" points="362.82,-382.34 373.4,-381.7 364.73,-375.61 362.82,-382.34"/>
</g>
<!-- Node9 -->
<g id="node9" class="node">
<title>Node9</title>
<g id="a_node9"><a xlink:href="classWindow.html#a3c38bfdaf7cb6ebcfdbcb40916a72bf7" target="_top" xlink:title="Refreshes the current window.">
<polygon fill="white" stroke="black" points="546.5,-342.5 546.5,-361.5 660.5,-361.5 660.5,-342.5 546.5,-342.5"/>
<text text-anchor="middle" x="603.5" y="-349.5" font-family="Helvetica,sans-Serif" font-size="10.00">Window::refreshWin</text>
</a>
</g>
</g>
<!-- Node3&#45;&gt;Node9 -->
<g id="edge9" class="edge">
<title>Node3&#45;&gt;Node9</title>
<path fill="none" stroke="midnightblue" d="M265.71,-321.87C285.35,-325.76 309.89,-330.2 332,-333 401.33,-341.77 481.2,-346.76 536.08,-349.4"/>
<polygon fill="midnightblue" stroke="midnightblue" points="536.22,-352.91 546.37,-349.88 536.55,-345.92 536.22,-352.91"/>
</g>
<!-- Node8 -->
<g id="node8" class="node">
<title>Node8</title>
<g id="a_node8"><a xlink:href="classWindow.html#aad6d9b11314512a7fbc775a3fef9ca1c" target="_top" xlink:title="Helper function for printing lives.">
<polygon fill="white" stroke="black" points="549,-380.5 549,-399.5 658,-399.5 658,-380.5 549,-380.5"/>
<text text-anchor="middle" x="603.5" y="-387.5" font-family="Helvetica,sans-Serif" font-size="10.00">Window::printLives</text>
</a>
</g>
</g>
<!-- Node7&#45;&gt;Node8 -->
<g id="edge7" class="edge">
<title>Node7&#45;&gt;Node8</title>
<path fill="none" stroke="midnightblue" d="M467.64,-390C489.17,-390 515.16,-390 538.54,-390"/>
<polygon fill="midnightblue" stroke="midnightblue" points="538.73,-393.5 548.73,-390 538.73,-386.5 538.73,-393.5"/>
</g>
<!-- Node7&#45;&gt;Node9 -->
<g id="edge8" class="edge">
<title>Node7&#45;&gt;Node9</title>
<path fill="none" stroke="midnightblue" d="M467.17,-380.41C491.49,-375.31 521.58,-368.99 547.21,-363.61"/>
<polygon fill="midnightblue" stroke="midnightblue" points="548.09,-367 557.15,-361.52 546.65,-360.15 548.09,-367"/>
</g>
<!-- Node10&#45;&gt;Node2 -->
<g id="edge11" class="edge">
<title>Node10&#45;&gt;Node2</title>
<path fill="none" stroke="midnightblue" d="M263.69,-399.54C274.47,-403.24 286.09,-408.04 296,-414 314.6,-425.19 312.73,-437.02 332,-447 336.54,-449.35 341.36,-451.41 346.31,-453.22"/>
<polygon fill="midnightblue" stroke="midnightblue" points="345.37,-456.59 355.96,-456.39 347.55,-449.94 345.37,-456.59"/>
</g>
<!-- Node14 -->
<g id="node14" class="node">
<title>Node14</title>
<g id="a_node14"><a xlink:href="classMap.html#ab1c2595a555457c0a764a0530b57c0f9" target="_top" xlink:title="Helper function for validating map string.">
<polygon fill="white" stroke="black" points="369.5,-228.5 369.5,-247.5 471.5,-247.5 471.5,-228.5 369.5,-228.5"/>
<text text-anchor="middle" x="420.5" y="-235.5" font-family="Helvetica,sans-Serif" font-size="10.00">Map::processMap</text>
</a>
</g>
</g>
<!-- Node13&#45;&gt;Node14 -->
<g id="edge15" class="edge">
<title>Node13&#45;&gt;Node14</title>
<path fill="none" stroke="midnightblue" d="M270.89,-263.68C296.94,-259.18 330.73,-253.34 359.5,-248.37"/>
<polygon fill="midnightblue" stroke="midnightblue" points="360.19,-251.8 369.45,-246.65 359,-244.9 360.19,-251.8"/>
</g>
<!-- Node15 -->
<g id="node15" class="node">
<title>Node15</title>
<g id="a_node15"><a xlink:href="classMap.html#a41b623a0d503b94bf8412ca06296ae1f" target="_top" xlink:title="Helper function for finding crossroads.">
<polygon fill="white" stroke="black" points="545.5,-190.5 545.5,-209.5 661.5,-209.5 661.5,-190.5 545.5,-190.5"/>
<text text-anchor="middle" x="603.5" y="-197.5" font-family="Helvetica,sans-Serif" font-size="10.00">Map::findCrossroads</text>
</a>
</g>
</g>
<!-- Node14&#45;&gt;Node15 -->
<g id="edge16" class="edge">
<title>Node14&#45;&gt;Node15</title>
<path fill="none" stroke="midnightblue" d="M467.17,-228.41C491.49,-223.31 521.58,-216.99 547.21,-211.61"/>
<polygon fill="midnightblue" stroke="midnightblue" points="548.09,-215 557.15,-209.52 546.65,-208.15 548.09,-215"/>
</g>
<!-- Node17 -->
<g id="node17" class="node">
<title>Node17</title>
<g id="a_node17"><a xlink:href="classMap.html#ae96ad32d3b1600cd41e4a1c3b6a30906" target="_top" xlink:title="Checks if the map is traversable from the given position.">
<polygon fill="white" stroke="black" points="545,-266.5 545,-285.5 662,-285.5 662,-266.5 545,-266.5"/>
<text text-anchor="middle" x="603.5" y="-273.5" font-family="Helvetica,sans-Serif" font-size="10.00">Map::traversableBFS</text>
</a>
</g>
</g>
<!-- Node14&#45;&gt;Node17 -->
<g id="edge18" class="edge">
<title>Node14&#45;&gt;Node17</title>
<path fill="none" stroke="midnightblue" d="M467.17,-247.59C491.49,-252.69 521.58,-259.01 547.21,-264.39"/>
<polygon fill="midnightblue" stroke="midnightblue" points="546.65,-267.85 557.15,-266.48 548.09,-261 546.65,-267.85"/>
</g>
<!-- Node18 -->
<g id="node18" class="node">
<title>Node18</title>
<g id="a_node18"><a xlink:href="classMap.html#ad35b3432f383ea258d0ed06fe937c3b9" target="_top" xlink:title="Helper function for validating the map borders.">
<polygon fill="white" stroke="black" points="545.5,-228.5 545.5,-247.5 661.5,-247.5 661.5,-228.5 545.5,-228.5"/>
<text text-anchor="middle" x="603.5" y="-235.5" font-family="Helvetica,sans-Serif" font-size="10.00">Map::validateBorder</text>
</a>
</g>
</g>
<!-- Node14&#45;&gt;Node18 -->
<g id="edge19" class="edge">
<title>Node14&#45;&gt;Node18</title>
<path fill="none" stroke="midnightblue" d="M471.92,-238C491.52,-238 514.25,-238 535.21,-238"/>
<polygon fill="midnightblue" stroke="midnightblue" points="535.34,-241.5 545.34,-238 535.34,-234.5 535.34,-241.5"/>
</g>
<!-- Node16 -->
<g id="node16" class="node">
<title>Node16</title>
<g id="a_node16"><a xlink:href="classMap.html#a7d8219ae1c1ff2f45f7e11c5d03dcdb7" target="_top" xlink:title="Checks if given coordinates are a crossroad.">
<polygon fill="white" stroke="black" points="698,-190.5 698,-209.5 799,-209.5 799,-190.5 698,-190.5"/>
<text text-anchor="middle" x="748.5" y="-197.5" font-family="Helvetica,sans-Serif" font-size="10.00">Map::isCrossroad</text>
</a>
</g>
</g>
<!-- Node15&#45;&gt;Node16 -->
<g id="edge17" class="edge">
<title>Node15&#45;&gt;Node16</title>
<path fill="none" stroke="midnightblue" d="M661.84,-200C670.44,-200 679.33,-200 687.97,-200"/>
<polygon fill="midnightblue" stroke="midnightblue" points="687.98,-203.5 697.98,-200 687.98,-196.5 687.98,-203.5"/>
</g>
<!-- Node19&#45;&gt;Node12 -->
<g id="edge23" class="edge">
<title>Node19&#45;&gt;Node12</title>
<path fill="none" stroke="midnightblue" d="M282.72,-186.39C307.54,-188.86 336.96,-191.79 362.14,-194.29"/>
<polygon fill="midnightblue" stroke="midnightblue" points="361.99,-197.8 372.29,-195.3 362.68,-190.83 361.99,-197.8"/>
</g>
<!-- Node20 -->
<g id="node20" class="node">
<title>Node20</title>
<g id="a_node20"><a xlink:href="classGamePhase.html#a2597fc4aa3837ecc9146f29b18840855" target="_top" xlink:title="Adds an item to the remaining items.">
<polygon fill="white" stroke="black" points="359.5,-114.5 359.5,-133.5 481.5,-133.5 481.5,-114.5 359.5,-114.5"/>
<text text-anchor="middle" x="420.5" y="-121.5" font-family="Helvetica,sans-Serif" font-size="10.00">GamePhase::addItem</text>
</a>
</g>
</g>
<!-- Node19&#45;&gt;Node20 -->
<g id="edge21" class="edge">
<title>Node19&#45;&gt;Node20</title>
<path fill="none" stroke="midnightblue" d="M251.62,-171.47C272.4,-163.15 303.88,-151.17 332,-143 340.88,-140.42 350.36,-138.01 359.67,-135.84"/>
<polygon fill="midnightblue" stroke="midnightblue" points="360.71,-139.19 369.69,-133.57 359.16,-132.36 360.71,-139.19"/>
</g>
<!-- Node21 -->
<g id="node21" class="node">
<title>Node21</title>
<g id="a_node21"><a xlink:href="classMap.html#ad1c83970b8e220d3ba55b755e84453d7" target="_top" xlink:title="Gets the map.">
<polygon fill="white" stroke="black" points="380.5,-152.5 380.5,-171.5 460.5,-171.5 460.5,-152.5 380.5,-152.5"/>
<text text-anchor="middle" x="420.5" y="-159.5" font-family="Helvetica,sans-Serif" font-size="10.00">Map::getMap</text>
</a>
</g>
</g>
<!-- Node19&#45;&gt;Node21 -->
<g id="edge22" class="edge">
<title>Node19&#45;&gt;Node21</title>
<path fill="none" stroke="midnightblue" d="M282.72,-175.61C310.18,-172.87 343.27,-169.58 370.03,-166.92"/>
<polygon fill="midnightblue" stroke="midnightblue" points="370.72,-170.37 380.32,-165.9 370.03,-163.4 370.72,-170.37"/>
</g>
<!-- Node23 -->
<g id="node23" class="node">
<title>Node23</title>
<g id="a_node23"><a xlink:href="classLeaderboard.html#aaf22ea54d8b0e7e5d2bf5c3b9dcbdee2" target="_top" xlink:title="Creates a save file.">
<polygon fill="white" stroke="black" points="351.5,-38.5 351.5,-57.5 489.5,-57.5 489.5,-38.5 351.5,-38.5"/>
<text text-anchor="middle" x="420.5" y="-45.5" font-family="Helvetica,sans-Serif" font-size="10.00">Leaderboard::createSave</text>
</a>
</g>
</g>
<!-- Node22&#45;&gt;Node23 -->
<g id="edge25" class="edge">
<title>Node22&#45;&gt;Node23</title>
<path fill="none" stroke="midnightblue" d="M276.7,-76.41C302.47,-71.28 334.39,-64.93 361.51,-59.54"/>
<polygon fill="midnightblue" stroke="midnightblue" points="362.52,-62.9 371.65,-57.52 361.16,-56.04 362.52,-62.9"/>
</g>
<!-- Node24 -->
<g id="node24" class="node">
<title>Node24</title>
<g id="a_node24"><a xlink:href="classLeaderboard.html#a9d9d83737bf8412fa71cb1c238c059f6" target="_top" xlink:title="Reads a value from binary save file.">
<polygon fill="white" stroke="black" points="368,-76.5 368,-95.5 473,-95.5 473,-76.5 368,-76.5"/>
<text text-anchor="middle" x="420.5" y="-83.5" font-family="Helvetica,sans-Serif" font-size="10.00">Leaderboard::read</text>
</a>
</g>
</g>
<!-- Node22&#45;&gt;Node24 -->
<g id="edge26" class="edge">
<title>Node22&#45;&gt;Node24</title>
<path fill="none" stroke="midnightblue" d="M296.11,-86C316.21,-86 338.13,-86 357.83,-86"/>
<polygon fill="midnightblue" stroke="midnightblue" points="357.91,-89.5 367.91,-86 357.91,-82.5 357.91,-89.5"/>
</g>
<!-- Node25&#45;&gt;Node2 -->
<g id="edge28" class="edge">
<title>Node25&#45;&gt;Node2</title>
<path fill="none" stroke="midnightblue" d="M291.04,-466C306.72,-466 323.74,-466 340.12,-466"/>
<polygon fill="midnightblue" stroke="midnightblue" points="340.22,-469.5 350.22,-466 340.22,-462.5 340.22,-469.5"/>
</g>
<!-- Node27 -->
<g id="node27" class="node">
<title>Node27</title>
<g id="a_node27"><a xlink:href="classGamePhase.html#a097fcd119e1cce98533b731f7e6ae53d" target="_top" xlink:title="Sets the time of the current phase.">
<polygon fill="white" stroke="black" points="345.5,-0.5 345.5,-19.5 495.5,-19.5 495.5,-0.5 345.5,-0.5"/>
<text text-anchor="middle" x="420.5" y="-7.5" font-family="Helvetica,sans-Serif" font-size="10.00">GamePhase::setPhaseTime</text>
</a>
</g>
</g>
<!-- Node26&#45;&gt;Node27 -->
<g id="edge30" class="edge">
<title>Node26&#45;&gt;Node27</title>
<path fill="none" stroke="midnightblue" d="M290.25,-22.86C304.51,-21.44 319.92,-19.91 334.96,-18.41"/>
<polygon fill="midnightblue" stroke="midnightblue" points="335.69,-21.85 345.29,-17.38 335,-14.89 335.69,-21.85"/>
</g>
</g>
</svg>
