<?xml version="1.0" encoding="UTF-8" standalone="no"?>
<!DOCTYPE svg PUBLIC "-//W3C//DTD SVG 1.1//EN"
 "http://www.w3.org/Graphics/SVG/1.1/DTD/svg11.dtd">
<!-- Generated by graphviz version 10.0.1 (0)
 -->
<!-- Title: Window::printMessage Pages: 1 -->
<svg width="507pt" height="202pt"
 viewBox="0.00 0.00 507.00 201.54" xmlns="http://www.w3.org/2000/svg" xmlns:xlink="http://www.w3.org/1999/xlink">
<g id="graph0" class="graph" transform="scale(1 1) rotate(0) translate(4 197.54)">
<title>Window::printMessage</title>
<!-- Node1 -->
<g id="Node000001" class="node">
<title>Node1</title>
<g id="a_Node000001"><a xlink:title="Prints the message to the current window.">
<polygon fill="#999999" stroke="#666666" points="499,-115 383.25,-115 383.25,-95 499,-95 499,-115"/>
<text text-anchor="middle" x="441.12" y="-101.5" font-family="Helvetica,sans-Serif" font-size="10.00">Window::printMessage</text>
</a>
</g>
</g>
<!-- Node2 -->
<g id="Node000002" class="node">
<title>Node2</title>
<g id="a_Node000002"><a xlink:href="classGame.html#aa2d938aa918268060e63980c7efd86f8" target="_top" xlink:title="Ends the game.">
<polygon fill="white" stroke="#666666" points="189.5,-191 125.5,-191 125.5,-171 189.5,-171 189.5,-191"/>
<text text-anchor="middle" x="157.5" y="-177.5" font-family="Helvetica,sans-Serif" font-size="10.00">Game::end</text>
</a>
</g>
</g>
<!-- Node1&#45;&gt;Node2 -->
<g id="edge1_Node000001_Node000002" class="edge">
<title>Node1&#45;&gt;Node2</title>
<g id="a_edge1_Node000001_Node000002"><a xlink:title=" ">
<path fill="none" stroke="#63b8ff" d="M424.25,-124.03C407.37,-142.63 378.81,-169.73 347.25,-181 294.63,-199.79 228.38,-193.55 189.99,-187.29"/>
<polygon fill="#63b8ff" stroke="#63b8ff" points="426.81,-126.42 430.76,-116.59 421.54,-121.81 426.81,-126.42"/>
</a>
</g>
</g>
<!-- Node4 -->
<g id="Node000004" class="node">
<title>Node4</title>
<g id="a_Node000004"><a xlink:href="classGame.html#a66e2ecb02f046b0c17922a4255720e5a" target="_top" xlink:title="Ends the game on error.">
<polygon fill="white" stroke="#666666" points="337.12,-172 247.62,-172 247.62,-152 337.12,-152 337.12,-172"/>
<text text-anchor="middle" x="292.38" y="-158.5" font-family="Helvetica,sans-Serif" font-size="10.00">Game::endOnErr</text>
</a>
</g>
</g>
<!-- Node1&#45;&gt;Node4 -->
<g id="edge3_Node000001_Node000004" class="edge">
<title>Node1&#45;&gt;Node4</title>
<g id="a_edge3_Node000001_Node000004"><a xlink:title=" ">
<path fill="none" stroke="#63b8ff" d="M402.72,-119.53C377.02,-129.51 343.49,-142.54 320.37,-151.52"/>
<polygon fill="#63b8ff" stroke="#63b8ff" points="403.74,-122.89 411.8,-116 401.21,-116.36 403.74,-122.89"/>
</a>
</g>
</g>
<!-- Node5 -->
<g id="Node000005" class="node">
<title>Node5</title>
<g id="a_Node000005"><a xlink:href="classGame.html#a2a30c89761624ee64cd7acb147aaf89c" target="_top" xlink:title="Starts the game.">
<polygon fill="white" stroke="#666666" points="191.38,-134 123.62,-134 123.62,-114 191.38,-114 191.38,-134"/>
<text text-anchor="middle" x="157.5" y="-120.5" font-family="Helvetica,sans-Serif" font-size="10.00">Game::start</text>
</a>
</g>
</g>
<!-- Node1&#45;&gt;Node5 -->
<g id="edge12_Node000001_Node000005" class="edge">
<title>Node1&#45;&gt;Node5</title>
<g id="a_edge12_Node000001_Node000005"><a xlink:title=" ">
<path fill="none" stroke="#63b8ff" d="M371.32,-109.64C314.21,-113.5 235.47,-118.81 191.54,-121.77"/>
<polygon fill="#63b8ff" stroke="#63b8ff" points="371.54,-113.13 381.28,-108.97 371.07,-106.15 371.54,-113.13"/>
</a>
</g>
</g>
<!-- Node6 -->
<g id="Node000006" class="node">
<title>Node6</title>
<g id="a_Node000006"><a xlink:href="classGame.html#a1118c369ae5b2fe433aac540cb32d187" target="_top" xlink:title="Starts the game with a new map.">
<polygon fill="white" stroke="#666666" points="201.5,-96 113.5,-96 113.5,-76 201.5,-76 201.5,-96"/>
<text text-anchor="middle" x="157.5" y="-82.5" font-family="Helvetica,sans-Serif" font-size="10.00">Game::startNew</text>
</a>
</g>
</g>
<!-- Node1&#45;&gt;Node6 -->
<g id="edge13_Node000001_Node000006" class="edge">
<title>Node1&#45;&gt;Node6</title>
<g id="a_edge13_Node000001_Node000006"><a xlink:title=" ">
<path fill="none" stroke="#63b8ff" d="M410.59,-89.46C392.78,-80.98 369.33,-71.34 347.25,-67 299.39,-57.59 285.94,-61.26 237.5,-67 223.07,-68.71 207.46,-72.12 193.96,-75.59"/>
<polygon fill="#63b8ff" stroke="#63b8ff" points="409.01,-92.59 419.53,-93.87 412.11,-86.31 409.01,-92.59"/>
</a>
</g>
</g>
<!-- Node7 -->
<g id="Node000007" class="node">
<title>Node7</title>
<g id="a_Node000007"><a xlink:href="classGame.html#a4c2a7ead717a4c13f1ffddafd11e17c8" target="_top" xlink:title="Initializes the game, loading config, and the map.">
<polygon fill="white" stroke="#666666" points="347.25,-96 237.5,-96 237.5,-76 347.25,-76 347.25,-96"/>
<text text-anchor="middle" x="292.38" y="-82.5" font-family="Helvetica,sans-Serif" font-size="10.00">Game::initializeGame</text>
</a>
</g>
</g>
<!-- Node1&#45;&gt;Node7 -->
<g id="edge7_Node000001_Node000007" class="edge">
<title>Node1&#45;&gt;Node7</title>
<g id="a_edge7_Node000001_Node000007"><a xlink:title=" ">
<path fill="none" stroke="#63b8ff" d="M371.7,-96.14C363.66,-95.1 355.54,-94.05 347.73,-93.04"/>
<polygon fill="#63b8ff" stroke="#63b8ff" points="371.1,-99.59 381.47,-97.41 372,-92.65 371.1,-99.59"/>
</a>
</g>
</g>
<!-- Node8 -->
<g id="Node000008" class="node">
<title>Node8</title>
<g id="a_Node000008"><a xlink:href="classGameManager.html#a8460b2f4f44c19dd405e4163fe6cb5cf" target="_top" xlink:title=" ">
<polygon fill="white" stroke="#666666" points="345,-20 239.75,-20 239.75,0 345,0 345,-20"/>
<text text-anchor="middle" x="292.38" y="-6.5" font-family="Helvetica,sans-Serif" font-size="10.00">GameManager::start</text>
</a>
</g>
</g>
<!-- Node1&#45;&gt;Node8 -->
<g id="edge10_Node000001_Node000008" class="edge">
<title>Node1&#45;&gt;Node8</title>
<g id="a_edge10_Node000001_Node000008"><a xlink:title=" ">
<path fill="none" stroke="#63b8ff" d="M419.88,-87.3C401.7,-71.95 373.85,-49.8 347.25,-34 338.71,-28.93 328.91,-24.25 320.02,-20.41"/>
<polygon fill="#63b8ff" stroke="#63b8ff" points="417.43,-89.8 427.3,-93.64 421.98,-84.48 417.43,-89.8"/>
</a>
</g>
</g>
<!-- Node3 -->
<g id="Node000003" class="node">
<title>Node3</title>
<g id="a_Node000003"><a xlink:href="classGame.html#aef7682b8bf084aac3c8f929a6fd2f673" target="_top" xlink:title="Updates the game state.">
<polygon fill="white" stroke="#666666" points="77.5,-191 0,-191 0,-171 77.5,-171 77.5,-191"/>
<text text-anchor="middle" x="38.75" y="-177.5" font-family="Helvetica,sans-Serif" font-size="10.00">Game::update</text>
</a>
</g>
</g>
<!-- Node2&#45;&gt;Node3 -->
<g id="edge2_Node000002_Node000003" class="edge">
<title>Node2&#45;&gt;Node3</title>
<g id="a_edge2_Node000002_Node000003"><a xlink:title=" ">
<path fill="none" stroke="#63b8ff" d="M113.81,-181C102.01,-181 89.3,-181 77.79,-181"/>
<polygon fill="#63b8ff" stroke="#63b8ff" points="113.7,-184.5 123.7,-181 113.7,-177.5 113.7,-184.5"/>
</a>
</g>
</g>
<!-- Node4&#45;&gt;Node2 -->
<g id="edge4_Node000004_Node000002" class="edge">
<title>Node4&#45;&gt;Node2</title>
<g id="a_edge4_Node000004_Node000002"><a xlink:title=" ">
<path fill="none" stroke="#63b8ff" d="M235.91,-169.93C220.22,-172.17 203.69,-174.54 189.96,-176.5"/>
<polygon fill="#63b8ff" stroke="#63b8ff" points="236.23,-173.42 245.63,-168.54 235.24,-166.49 236.23,-173.42"/>
</a>
</g>
</g>
<!-- Node4&#45;&gt;Node5 -->
<g id="edge5_Node000004_Node000005" class="edge">
<title>Node4&#45;&gt;Node5</title>
<g id="a_edge5_Node000004_Node000005"><a xlink:title=" ">
<path fill="none" stroke="#63b8ff" d="M243.74,-148.38C226.56,-143.47 207.56,-138.03 191.86,-133.54"/>
<polygon fill="#63b8ff" stroke="#63b8ff" points="242.68,-151.72 253.26,-151.1 244.61,-144.98 242.68,-151.72"/>
</a>
</g>
</g>
<!-- Node4&#45;&gt;Node6 -->
<g id="edge6_Node000004_Node000006" class="edge">
<title>Node4&#45;&gt;Node6</title>
<g id="a_edge6_Node000004_Node000006"><a xlink:title=" ">
<path fill="none" stroke="#63b8ff" d="M267.45,-145.45C249.67,-133.49 224.6,-117.34 201.5,-105 195.88,-102 189.7,-99.06 183.81,-96.43"/>
<polygon fill="#63b8ff" stroke="#63b8ff" points="265.03,-148.03 275.27,-150.76 268.97,-142.24 265.03,-148.03"/>
</a>
</g>
</g>
<!-- Node7&#45;&gt;Node5 -->
<g id="edge8_Node000007_Node000005" class="edge">
<title>Node7&#45;&gt;Node5</title>
<g id="a_edge8_Node000007_Node000005"><a xlink:title=" ">
<path fill="none" stroke="#63b8ff" d="M243.74,-99.62C226.56,-104.53 207.56,-109.97 191.86,-114.46"/>
<polygon fill="#63b8ff" stroke="#63b8ff" points="244.61,-103.02 253.26,-96.9 242.68,-96.28 244.61,-103.02"/>
</a>
</g>
</g>
<!-- Node7&#45;&gt;Node6 -->
<g id="edge9_Node000007_Node000006" class="edge">
<title>Node7&#45;&gt;Node6</title>
<g id="a_edge9_Node000007_Node000006"><a xlink:title=" ">
<path fill="none" stroke="#63b8ff" d="M225.89,-86C217.76,-86 209.6,-86 201.92,-86"/>
<polygon fill="#63b8ff" stroke="#63b8ff" points="225.82,-89.5 235.82,-86 225.82,-82.5 225.82,-89.5"/>
</a>
</g>
</g>
<!-- Node9 -->
<g id="Node000009" class="node">
<title>Node9</title>
<g id="a_Node000009"><a xlink:href="main_8cpp.html#ae66f6b31b5ad750f1fe042a706a4e3d4" target="_top" xlink:title=" ">
<polygon fill="white" stroke="#666666" points="176,-20 139,-20 139,0 176,0 176,-20"/>
<text text-anchor="middle" x="157.5" y="-6.5" font-family="Helvetica,sans-Serif" font-size="10.00">main</text>
</a>
</g>
</g>
<!-- Node8&#45;&gt;Node9 -->
<g id="edge11_Node000008_Node000009" class="edge">
<title>Node8&#45;&gt;Node9</title>
<g id="a_edge11_Node000008_Node000009"><a xlink:title=" ">
<path fill="none" stroke="#63b8ff" d="M228.16,-10C209.09,-10 189.66,-10 176.18,-10"/>
<polygon fill="#63b8ff" stroke="#63b8ff" points="228.11,-13.5 238.11,-10 228.11,-6.5 228.11,-13.5"/>
</a>
</g>
</g>
</g>
</svg>
