<?xml version="1.0" encoding="UTF-8" standalone="no"?>
<!DOCTYPE svg PUBLIC "-//W3C//DTD SVG 1.1//EN"
 "http://www.w3.org/Graphics/SVG/1.1/DTD/svg11.dtd">
<!-- Generated by graphviz version 2.43.0 (0)
 -->
<!-- Title: Game::start Pages: 1 -->
<svg width="917pt" height="598pt"
 viewBox="0.00 0.00 917.00 598.00" xmlns="http://www.w3.org/2000/svg" xmlns:xlink="http://www.w3.org/1999/xlink">
<g id="graph0" class="graph" transform="scale(1 1) rotate(0) translate(4 594)">
<title>Game::start</title>
<polygon fill="white" stroke="transparent" points="-4,4 -4,-594 913,-594 913,4 -4,4"/>
<!-- Node1 -->
<g id="node1" class="node">
<title>Node1</title>
<g id="a_node1"><a xlink:title="Starts the game.">
<polygon fill="#bfbfbf" stroke="black" points="0,-399.5 0,-418.5 74,-418.5 74,-399.5 0,-399.5"/>
<text text-anchor="middle" x="37" y="-406.5" font-family="Helvetica,sans-Serif" font-size="10.00">Game::start</text>
</a>
</g>
</g>
<!-- Node2 -->
<g id="node2" class="node">
<title>Node2</title>
<g id="a_node2"><a xlink:href="classGame.html#a66e2ecb02f046b0c17922a4255720e5a" target="_top" xlink:title="Ends the game on error.">
<polygon fill="white" stroke="black" points="123,-513.5 123,-532.5 220,-532.5 220,-513.5 123,-513.5"/>
<text text-anchor="middle" x="171.5" y="-520.5" font-family="Helvetica,sans-Serif" font-size="10.00">Game::endOnErr</text>
</a>
</g>
</g>
<!-- Node1&#45;&gt;Node2 -->
<g id="edge1" class="edge">
<title>Node1&#45;&gt;Node2</title>
<path fill="none" stroke="midnightblue" d="M49.22,-418.67C63.38,-430.87 88.49,-452.5 110,-471 123.99,-483.04 139.81,-496.63 151.76,-506.9"/>
<polygon fill="midnightblue" stroke="midnightblue" points="149.48,-509.56 159.35,-513.42 154.04,-504.25 149.48,-509.56"/>
</g>
<!-- Node5 -->
<g id="node5" class="node">
<title>Node5</title>
<g id="a_node5"><a xlink:href="classWindow.html#aba37c5e32e43d21a46968fd8ada1d327" target="_top" xlink:title="Prints the message to the current window.">
<polygon fill="white" stroke="black" points="274,-494.5 274,-513.5 401,-513.5 401,-494.5 274,-494.5"/>
<text text-anchor="middle" x="337.5" y="-501.5" font-family="Helvetica,sans-Serif" font-size="10.00">Window::printMessage</text>
</a>
</g>
</g>
<!-- Node1&#45;&gt;Node5 -->
<g id="edge36" class="edge">
<title>Node1&#45;&gt;Node5</title>
<path fill="none" stroke="midnightblue" d="M67.99,-418.54C122.19,-435.79 236.43,-472.15 296.94,-491.41"/>
<polygon fill="midnightblue" stroke="midnightblue" points="295.94,-494.76 306.53,-494.46 298.06,-488.09 295.94,-494.76"/>
</g>
<!-- Node6 -->
<g id="node6" class="node">
<title>Node6</title>
<g id="a_node6"><a xlink:href="classGame.html#a4c2a7ead717a4c13f1ffddafd11e17c8" target="_top" xlink:title="Initializes the game, loading config, and the map.">
<polygon fill="white" stroke="black" points="110,-342.5 110,-361.5 233,-361.5 233,-342.5 110,-342.5"/>
<text text-anchor="middle" x="171.5" y="-349.5" font-family="Helvetica,sans-Serif" font-size="10.00">Game::initializeGame</text>
</a>
</g>
</g>
<!-- Node1&#45;&gt;Node6 -->
<g id="edge6" class="edge">
<title>Node1&#45;&gt;Node6</title>
<path fill="none" stroke="midnightblue" d="M60.18,-399.46C81.67,-390.21 114.5,-376.09 138.76,-365.65"/>
<polygon fill="midnightblue" stroke="midnightblue" points="140.45,-368.74 148.25,-361.57 137.68,-362.31 140.45,-368.74"/>
</g>
<!-- Node29 -->
<g id="node29" class="node">
<title>Node29</title>
<g id="a_node29"><a xlink:href="classGamePhase.html#af152a5e182080af728f34e66b29079c5" target="_top" xlink:title="Sets the current game phase.">
<polygon fill="white" stroke="black" points="275,-95.5 275,-114.5 400,-114.5 400,-95.5 275,-95.5"/>
<text text-anchor="middle" x="337.5" y="-102.5" font-family="Helvetica,sans-Serif" font-size="10.00">GamePhase::setPhase</text>
</a>
</g>
</g>
<!-- Node1&#45;&gt;Node29 -->
<g id="edge37" class="edge">
<title>Node1&#45;&gt;Node29</title>
<path fill="none" stroke="midnightblue" d="M42.89,-399.37C63.91,-358.97 150.89,-201.73 269,-124 272.13,-121.94 275.49,-120.1 278.97,-118.45"/>
<polygon fill="midnightblue" stroke="midnightblue" points="280.51,-121.61 288.41,-114.55 277.83,-115.14 280.51,-121.61"/>
</g>
<!-- Node3 -->
<g id="node3" class="node">
<title>Node3</title>
<g id="a_node3"><a xlink:href="classWindow.html#a07c2b4d065cbcb397eafc1a27a337bb7" target="_top" xlink:title="Clears the current window.">
<polygon fill="white" stroke="black" points="460.5,-475.5 460.5,-494.5 600.5,-494.5 600.5,-475.5 460.5,-475.5"/>
<text text-anchor="middle" x="530.5" y="-482.5" font-family="Helvetica,sans-Serif" font-size="10.00">Window::clearCurrentWin</text>
</a>
</g>
</g>
<!-- Node2&#45;&gt;Node3 -->
<g id="edge2" class="edge">
<title>Node2&#45;&gt;Node3</title>
<path fill="none" stroke="midnightblue" d="M220.21,-527.13C267.62,-530.26 342.26,-532.58 406,-523 437.39,-518.28 471.81,-507.17 496.32,-498.17"/>
<polygon fill="midnightblue" stroke="midnightblue" points="497.72,-501.39 505.86,-494.6 495.26,-494.83 497.72,-501.39"/>
</g>
<!-- Node4 -->
<g id="node4" class="node">
<title>Node4</title>
<g id="a_node4"><a xlink:href="classMap.html#a7ded655c7db0e9d72816430b4f2c83a5" target="_top" xlink:title="Clears the map.">
<polygon fill="white" stroke="black" points="293,-570.5 293,-589.5 382,-589.5 382,-570.5 293,-570.5"/>
<text text-anchor="middle" x="337.5" y="-577.5" font-family="Helvetica,sans-Serif" font-size="10.00">Map::clearMap</text>
</a>
</g>
</g>
<!-- Node2&#45;&gt;Node4 -->
<g id="edge3" class="edge">
<title>Node2&#45;&gt;Node4</title>
<path fill="none" stroke="midnightblue" d="M199.95,-532.54C227.15,-541.99 269,-556.54 299.2,-567.04"/>
<polygon fill="midnightblue" stroke="midnightblue" points="298.37,-570.45 308.96,-570.43 300.66,-563.84 298.37,-570.45"/>
</g>
<!-- Node2&#45;&gt;Node5 -->
<g id="edge4" class="edge">
<title>Node2&#45;&gt;Node5</title>
<path fill="none" stroke="midnightblue" d="M220.38,-517.45C233.97,-515.88 249.09,-514.13 263.81,-512.42"/>
<polygon fill="midnightblue" stroke="midnightblue" points="264.38,-515.88 273.91,-511.25 263.57,-508.93 264.38,-515.88"/>
</g>
<!-- Node5&#45;&gt;Node3 -->
<g id="edge5" class="edge">
<title>Node5&#45;&gt;Node3</title>
<path fill="none" stroke="midnightblue" d="M401.04,-497.78C416.72,-496.22 433.74,-494.53 450.12,-492.9"/>
<polygon fill="midnightblue" stroke="midnightblue" points="450.61,-496.36 460.22,-491.89 449.92,-489.4 450.61,-496.36"/>
</g>
<!-- Node6&#45;&gt;Node3 -->
<g id="edge7" class="edge">
<title>Node6&#45;&gt;Node3</title>
<path fill="none" stroke="midnightblue" d="M178.91,-361.53C192.74,-381.24 227.53,-426.39 269,-447 325.43,-475.04 396.63,-483.9 450.33,-486.11"/>
<polygon fill="midnightblue" stroke="midnightblue" points="450.37,-489.61 460.48,-486.45 450.61,-482.61 450.37,-489.61"/>
</g>
<!-- Node6&#45;&gt;Node5 -->
<g id="edge33" class="edge">
<title>Node6&#45;&gt;Node5</title>
<path fill="none" stroke="midnightblue" d="M178.69,-361.62C196.07,-388.37 245.56,-462.79 269,-480 274.66,-484.15 281.1,-487.64 287.71,-490.56"/>
<polygon fill="midnightblue" stroke="midnightblue" points="286.85,-493.98 297.44,-494.43 289.44,-487.48 286.85,-493.98"/>
</g>
<!-- Node7 -->
<g id="node7" class="node">
<title>Node7</title>
<g id="a_node7"><a xlink:href="classGame.html#a6d54497ce3a66f6dd45eacfdccc8d0bd" target="_top" xlink:title="Draws the game.">
<polygon fill="white" stroke="black" points="299.5,-171.5 299.5,-190.5 375.5,-190.5 375.5,-171.5 299.5,-171.5"/>
<text text-anchor="middle" x="337.5" y="-178.5" font-family="Helvetica,sans-Serif" font-size="10.00">Game::draw</text>
</a>
</g>
</g>
<!-- Node6&#45;&gt;Node7 -->
<g id="edge8" class="edge">
<title>Node6&#45;&gt;Node7</title>
<path fill="none" stroke="midnightblue" d="M181.79,-342.32C208.51,-314.45 285.86,-233.8 319.99,-198.22"/>
<polygon fill="midnightblue" stroke="midnightblue" points="322.92,-200.22 327.31,-190.58 317.87,-195.37 322.92,-200.22"/>
</g>
<!-- Node14 -->
<g id="node14" class="node">
<title>Node14</title>
<g id="a_node14"><a xlink:href="classWindow.html#a2238e5489102fe2a77e7898a07dc37b5" target="_top" xlink:title="Gets text input from the user.">
<polygon fill="white" stroke="black" points="287,-418.5 287,-437.5 388,-437.5 388,-418.5 287,-418.5"/>
<text text-anchor="middle" x="337.5" y="-425.5" font-family="Helvetica,sans-Serif" font-size="10.00">Window::getInput</text>
</a>
</g>
</g>
<!-- Node6&#45;&gt;Node14 -->
<g id="edge16" class="edge">
<title>Node6&#45;&gt;Node14</title>
<path fill="none" stroke="midnightblue" d="M186.28,-361.7C204.48,-374.14 237.87,-395.69 269,-409 274.45,-411.33 280.27,-413.46 286.12,-415.38"/>
<polygon fill="midnightblue" stroke="midnightblue" points="285.35,-418.81 295.93,-418.42 287.42,-412.12 285.35,-418.81"/>
</g>
<!-- Node15 -->
<g id="node15" class="node">
<title>Node15</title>
<g id="a_node15"><a xlink:href="classConfig.html#a683f3adeacbde8622e8c46cc2f9dee25" target="_top" xlink:title="Gets the map file path.">
<polygon fill="white" stroke="black" points="292.5,-133.5 292.5,-152.5 382.5,-152.5 382.5,-133.5 292.5,-133.5"/>
<text text-anchor="middle" x="337.5" y="-140.5" font-family="Helvetica,sans-Serif" font-size="10.00">Config::getPath</text>
</a>
</g>
</g>
<!-- Node6&#45;&gt;Node15 -->
<g id="edge18" class="edge">
<title>Node6&#45;&gt;Node15</title>
<path fill="none" stroke="midnightblue" d="M177.37,-342.44C187.65,-322.23 212.33,-273.71 233,-233 249.02,-201.45 241.67,-184.46 269,-162 273.07,-158.66 277.69,-155.9 282.56,-153.63"/>
<polygon fill="midnightblue" stroke="midnightblue" points="284.15,-156.76 292.16,-149.83 281.57,-150.25 284.15,-156.76"/>
</g>
<!-- Node16 -->
<g id="node16" class="node">
<title>Node16</title>
<g id="a_node16"><a xlink:href="classConfig.html#a62c7c2d485cb30374271dba0eafe63c8" target="_top" xlink:title="Gets any value from the config map.">
<polygon fill="white" stroke="black" points="482.5,-380.5 482.5,-399.5 578.5,-399.5 578.5,-380.5 482.5,-380.5"/>
<text text-anchor="middle" x="530.5" y="-387.5" font-family="Helvetica,sans-Serif" font-size="10.00">Config::getValue</text>
</a>
</g>
</g>
<!-- Node6&#45;&gt;Node16 -->
<g id="edge19" class="edge">
<title>Node6&#45;&gt;Node16</title>
<path fill="none" stroke="midnightblue" d="M233.09,-355.74C280.3,-358.94 347.43,-364.12 406,-371 427.76,-373.56 451.56,-377.05 472.42,-380.35"/>
<polygon fill="midnightblue" stroke="midnightblue" points="471.97,-383.82 482.4,-381.94 473.08,-376.91 471.97,-383.82"/>
</g>
<!-- Node17 -->
<g id="node17" class="node">
<title>Node17</title>
<g id="a_node17"><a xlink:href="classMap.html#a2657d897204aaedba0e8e4f01b2e1efc" target="_top" xlink:title="Loads the map from a file.">
<polygon fill="white" stroke="black" points="294.5,-380.5 294.5,-399.5 380.5,-399.5 380.5,-380.5 294.5,-380.5"/>
<text text-anchor="middle" x="337.5" y="-387.5" font-family="Helvetica,sans-Serif" font-size="10.00">Map::loadMap</text>
</a>
</g>
</g>
<!-- Node6&#45;&gt;Node17 -->
<g id="edge20" class="edge">
<title>Node6&#45;&gt;Node17</title>
<path fill="none" stroke="midnightblue" d="M213.88,-361.59C235.62,-366.63 262.46,-372.84 285.47,-378.18"/>
<polygon fill="midnightblue" stroke="midnightblue" points="284.88,-381.63 295.41,-380.48 286.46,-374.81 284.88,-381.63"/>
</g>
<!-- Node23 -->
<g id="node23" class="node">
<title>Node23</title>
<g id="a_node23"><a xlink:href="classGame.html#a1290bdc979d75815efe4d21e83a806cb" target="_top" xlink:title="Loads the object from the map.">
<polygon fill="white" stroke="black" points="282.5,-304.5 282.5,-323.5 392.5,-323.5 392.5,-304.5 282.5,-304.5"/>
<text text-anchor="middle" x="337.5" y="-311.5" font-family="Helvetica,sans-Serif" font-size="10.00">Game::loadObjects</text>
</a>
</g>
</g>
<!-- Node6&#45;&gt;Node23 -->
<g id="edge26" class="edge">
<title>Node6&#45;&gt;Node23</title>
<path fill="none" stroke="midnightblue" d="M213.88,-342.41C235.62,-337.37 262.46,-331.16 285.47,-325.82"/>
<polygon fill="midnightblue" stroke="midnightblue" points="286.46,-329.19 295.41,-323.52 284.88,-322.37 286.46,-329.19"/>
</g>
<!-- Node26 -->
<g id="node26" class="node">
<title>Node26</title>
<g id="a_node26"><a xlink:href="classLeaderboard.html#a43ac1b937341b8e5b3bd8b33200034d1" target="_top" xlink:title="Loads the scores from a file.">
<polygon fill="white" stroke="black" points="269,-266.5 269,-285.5 406,-285.5 406,-266.5 269,-266.5"/>
<text text-anchor="middle" x="337.5" y="-273.5" font-family="Helvetica,sans-Serif" font-size="10.00">Leaderboard::loadScores</text>
</a>
</g>
</g>
<!-- Node6&#45;&gt;Node26 -->
<g id="edge30" class="edge">
<title>Node6&#45;&gt;Node26</title>
<path fill="none" stroke="midnightblue" d="M186.28,-342.3C204.48,-329.86 237.87,-308.31 269,-295 274.45,-292.67 280.27,-290.54 286.12,-288.62"/>
<polygon fill="midnightblue" stroke="midnightblue" points="287.42,-291.88 295.93,-285.58 285.35,-285.19 287.42,-291.88"/>
</g>
<!-- Node6&#45;&gt;Node29 -->
<g id="edge34" class="edge">
<title>Node6&#45;&gt;Node29</title>
<path fill="none" stroke="midnightblue" d="M178.03,-342.36C189.35,-322.41 215.53,-274.93 233,-233 252.62,-185.9 232.13,-159.26 269,-124 270.64,-122.43 272.41,-120.98 274.27,-119.66"/>
<polygon fill="midnightblue" stroke="midnightblue" points="276.08,-122.65 282.93,-114.57 272.53,-116.62 276.08,-122.65"/>
</g>
<!-- Node8 -->
<g id="node8" class="node">
<title>Node8</title>
<g id="a_node8"><a xlink:href="classGamePhase.html#a337c0a04d2c1d159ff9a98e99e11116a" target="_top" xlink:title="Returns the current level.">
<polygon fill="white" stroke="black" points="469,-114.5 469,-133.5 592,-133.5 592,-114.5 469,-114.5"/>
<text text-anchor="middle" x="530.5" y="-121.5" font-family="Helvetica,sans-Serif" font-size="10.00">GamePhase::getLevel</text>
</a>
</g>
</g>
<!-- Node7&#45;&gt;Node8 -->
<g id="edge9" class="edge">
<title>Node7&#45;&gt;Node8</title>
<path fill="none" stroke="midnightblue" d="M374.78,-171.48C384.94,-168.63 395.95,-165.36 406,-162 422.28,-156.56 425.7,-153.39 442,-148 454.75,-143.78 468.72,-139.71 481.67,-136.16"/>
<polygon fill="midnightblue" stroke="midnightblue" points="482.6,-139.53 491.34,-133.55 480.78,-132.78 482.6,-139.53"/>
</g>
<!-- Node9 -->
<g id="node9" class="node">
<title>Node9</title>
<g id="a_node9"><a xlink:href="classGamePhase.html#a1e01dd9cbefce12ad832102c3a9ed3a2" target="_top" xlink:title="Returns the number of remaining items.">
<polygon fill="white" stroke="black" points="442,-76.5 442,-95.5 619,-95.5 619,-76.5 442,-76.5"/>
<text text-anchor="middle" x="530.5" y="-83.5" font-family="Helvetica,sans-Serif" font-size="10.00">GamePhase::getRemainingItems</text>
</a>
</g>
</g>
<!-- Node7&#45;&gt;Node9 -->
<g id="edge10" class="edge">
<title>Node7&#45;&gt;Node9</title>
<path fill="none" stroke="midnightblue" d="M375.76,-175.66C386.27,-172.84 397.22,-168.55 406,-162 430.02,-144.08 417.45,-122.18 442,-105 444.74,-103.08 447.63,-101.36 450.64,-99.8"/>
<polygon fill="midnightblue" stroke="midnightblue" points="452.26,-102.9 459.95,-95.61 449.39,-96.52 452.26,-102.9"/>
</g>
<!-- Node10 -->
<g id="node10" class="node">
<title>Node10</title>
<g id="a_node10"><a xlink:href="classWindow.html#aaa279ff498c917ba2535b26e5f396c7c" target="_top" xlink:title="Prints character at given position, default color.">
<polygon fill="white" stroke="black" points="472.5,-38.5 472.5,-57.5 588.5,-57.5 588.5,-38.5 472.5,-38.5"/>
<text text-anchor="middle" x="530.5" y="-45.5" font-family="Helvetica,sans-Serif" font-size="10.00">Window::printCharAt</text>
</a>
</g>
</g>
<!-- Node7&#45;&gt;Node10 -->
<g id="edge11" class="edge">
<title>Node7&#45;&gt;Node10</title>
<path fill="none" stroke="midnightblue" d="M375.59,-177C386.46,-174.24 397.65,-169.65 406,-162 439.3,-131.51 407.79,-96.47 442,-67 448.04,-61.79 455.18,-57.91 462.73,-55.03"/>
<polygon fill="midnightblue" stroke="midnightblue" points="464.02,-58.29 472.47,-51.89 461.87,-51.63 464.02,-58.29"/>
</g>
<!-- Node11 -->
<g id="node11" class="node">
<title>Node11</title>
<g id="a_node11"><a xlink:href="classWindow.html#a7f8803b32163553cf314fa01b703c9a8" target="_top" xlink:title="Prints the game UI.">
<polygon fill="white" stroke="black" points="483.5,-190.5 483.5,-209.5 577.5,-209.5 577.5,-190.5 483.5,-190.5"/>
<text text-anchor="middle" x="530.5" y="-197.5" font-family="Helvetica,sans-Serif" font-size="10.00">Window::printUI</text>
</a>
</g>
</g>
<!-- Node7&#45;&gt;Node11 -->
<g id="edge12" class="edge">
<title>Node7&#45;&gt;Node11</title>
<path fill="none" stroke="midnightblue" d="M375.78,-184.71C403.38,-187.45 441.48,-191.24 472.84,-194.36"/>
<polygon fill="midnightblue" stroke="midnightblue" points="472.9,-197.89 483.19,-195.39 473.59,-190.92 472.9,-197.89"/>
</g>
<!-- Node13 -->
<g id="node13" class="node">
<title>Node13</title>
<g id="a_node13"><a xlink:href="classWindow.html#a3c38bfdaf7cb6ebcfdbcb40916a72bf7" target="_top" xlink:title="Refreshes the current window.">
<polygon fill="white" stroke="black" points="656.5,-152.5 656.5,-171.5 770.5,-171.5 770.5,-152.5 656.5,-152.5"/>
<text text-anchor="middle" x="713.5" y="-159.5" font-family="Helvetica,sans-Serif" font-size="10.00">Window::refreshWin</text>
</a>
</g>
</g>
<!-- Node7&#45;&gt;Node13 -->
<g id="edge15" class="edge">
<title>Node7&#45;&gt;Node13</title>
<path fill="none" stroke="midnightblue" d="M375.73,-179.11C438.77,-175.91 567.33,-169.37 646.11,-165.37"/>
<polygon fill="midnightblue" stroke="midnightblue" points="646.59,-168.85 656.4,-164.85 646.24,-161.86 646.59,-168.85"/>
</g>
<!-- Node12 -->
<g id="node12" class="node">
<title>Node12</title>
<g id="a_node12"><a xlink:href="classWindow.html#aad6d9b11314512a7fbc775a3fef9ca1c" target="_top" xlink:title="Helper function for printing lives.">
<polygon fill="white" stroke="black" points="659,-190.5 659,-209.5 768,-209.5 768,-190.5 659,-190.5"/>
<text text-anchor="middle" x="713.5" y="-197.5" font-family="Helvetica,sans-Serif" font-size="10.00">Window::printLives</text>
</a>
</g>
</g>
<!-- Node11&#45;&gt;Node12 -->
<g id="edge13" class="edge">
<title>Node11&#45;&gt;Node12</title>
<path fill="none" stroke="midnightblue" d="M577.64,-200C599.17,-200 625.16,-200 648.54,-200"/>
<polygon fill="midnightblue" stroke="midnightblue" points="648.73,-203.5 658.73,-200 648.73,-196.5 648.73,-203.5"/>
</g>
<!-- Node11&#45;&gt;Node13 -->
<g id="edge14" class="edge">
<title>Node11&#45;&gt;Node13</title>
<path fill="none" stroke="midnightblue" d="M577.17,-190.41C601.49,-185.31 631.58,-178.99 657.21,-173.61"/>
<polygon fill="midnightblue" stroke="midnightblue" points="658.09,-177 667.15,-171.52 656.65,-170.15 658.09,-177"/>
</g>
<!-- Node14&#45;&gt;Node3 -->
<g id="edge17" class="edge">
<title>Node14&#45;&gt;Node3</title>
<path fill="none" stroke="midnightblue" d="M370.47,-437.54C402.56,-447.12 452.16,-461.92 487.43,-472.45"/>
<polygon fill="midnightblue" stroke="midnightblue" points="486.84,-475.92 497.43,-475.43 488.85,-469.21 486.84,-475.92"/>
</g>
<!-- Node18 -->
<g id="node18" class="node">
<title>Node18</title>
<g id="a_node18"><a xlink:href="classMap.html#ab1c2595a555457c0a764a0530b57c0f9" target="_top" xlink:title="Helper function for validating map string.">
<polygon fill="white" stroke="black" points="479.5,-418.5 479.5,-437.5 581.5,-437.5 581.5,-418.5 479.5,-418.5"/>
<text text-anchor="middle" x="530.5" y="-425.5" font-family="Helvetica,sans-Serif" font-size="10.00">Map::processMap</text>
</a>
</g>
</g>
<!-- Node17&#45;&gt;Node18 -->
<g id="edge21" class="edge">
<title>Node17&#45;&gt;Node18</title>
<path fill="none" stroke="midnightblue" d="M380.89,-398.43C407.53,-403.73 442.26,-410.64 471.44,-416.45"/>
<polygon fill="midnightblue" stroke="midnightblue" points="471.02,-419.93 481.51,-418.45 472.39,-413.07 471.02,-419.93"/>
</g>
<!-- Node19 -->
<g id="node19" class="node">
<title>Node19</title>
<g id="a_node19"><a xlink:href="classMap.html#a41b623a0d503b94bf8412ca06296ae1f" target="_top" xlink:title="Helper function for finding crossroads.">
<polygon fill="white" stroke="black" points="655.5,-380.5 655.5,-399.5 771.5,-399.5 771.5,-380.5 655.5,-380.5"/>
<text text-anchor="middle" x="713.5" y="-387.5" font-family="Helvetica,sans-Serif" font-size="10.00">Map::findCrossroads</text>
</a>
</g>
</g>
<!-- Node18&#45;&gt;Node19 -->
<g id="edge22" class="edge">
<title>Node18&#45;&gt;Node19</title>
<path fill="none" stroke="midnightblue" d="M577.17,-418.41C601.49,-413.31 631.58,-406.99 657.21,-401.61"/>
<polygon fill="midnightblue" stroke="midnightblue" points="658.09,-405 667.15,-399.52 656.65,-398.15 658.09,-405"/>
</g>
<!-- Node21 -->
<g id="node21" class="node">
<title>Node21</title>
<g id="a_node21"><a xlink:href="classMap.html#ae96ad32d3b1600cd41e4a1c3b6a30906" target="_top" xlink:title="Checks if the map is traversable from the given position.">
<polygon fill="white" stroke="black" points="655,-456.5 655,-475.5 772,-475.5 772,-456.5 655,-456.5"/>
<text text-anchor="middle" x="713.5" y="-463.5" font-family="Helvetica,sans-Serif" font-size="10.00">Map::traversableBFS</text>
</a>
</g>
</g>
<!-- Node18&#45;&gt;Node21 -->
<g id="edge24" class="edge">
<title>Node18&#45;&gt;Node21</title>
<path fill="none" stroke="midnightblue" d="M577.17,-437.59C601.49,-442.69 631.58,-449.01 657.21,-454.39"/>
<polygon fill="midnightblue" stroke="midnightblue" points="656.65,-457.85 667.15,-456.48 658.09,-451 656.65,-457.85"/>
</g>
<!-- Node22 -->
<g id="node22" class="node">
<title>Node22</title>
<g id="a_node22"><a xlink:href="classMap.html#ad35b3432f383ea258d0ed06fe937c3b9" target="_top" xlink:title="Helper function for validating the map borders.">
<polygon fill="white" stroke="black" points="655.5,-418.5 655.5,-437.5 771.5,-437.5 771.5,-418.5 655.5,-418.5"/>
<text text-anchor="middle" x="713.5" y="-425.5" font-family="Helvetica,sans-Serif" font-size="10.00">Map::validateBorder</text>
</a>
</g>
</g>
<!-- Node18&#45;&gt;Node22 -->
<g id="edge25" class="edge">
<title>Node18&#45;&gt;Node22</title>
<path fill="none" stroke="midnightblue" d="M581.92,-428C601.52,-428 624.25,-428 645.21,-428"/>
<polygon fill="midnightblue" stroke="midnightblue" points="645.34,-431.5 655.34,-428 645.34,-424.5 645.34,-431.5"/>
</g>
<!-- Node20 -->
<g id="node20" class="node">
<title>Node20</title>
<g id="a_node20"><a xlink:href="classMap.html#a7d8219ae1c1ff2f45f7e11c5d03dcdb7" target="_top" xlink:title="Checks if given coordinates are a crossroad.">
<polygon fill="white" stroke="black" points="808,-380.5 808,-399.5 909,-399.5 909,-380.5 808,-380.5"/>
<text text-anchor="middle" x="858.5" y="-387.5" font-family="Helvetica,sans-Serif" font-size="10.00">Map::isCrossroad</text>
</a>
</g>
</g>
<!-- Node19&#45;&gt;Node20 -->
<g id="edge23" class="edge">
<title>Node19&#45;&gt;Node20</title>
<path fill="none" stroke="midnightblue" d="M771.84,-390C780.44,-390 789.33,-390 797.97,-390"/>
<polygon fill="midnightblue" stroke="midnightblue" points="797.98,-393.5 807.98,-390 797.98,-386.5 797.98,-393.5"/>
</g>
<!-- Node23&#45;&gt;Node16 -->
<g id="edge29" class="edge">
<title>Node23&#45;&gt;Node16</title>
<path fill="none" stroke="midnightblue" d="M373.69,-323.54C384.47,-327.24 396.09,-332.04 406,-338 424.6,-349.19 422.73,-361.02 442,-371 451.31,-375.82 461.79,-379.42 472.17,-382.11"/>
<polygon fill="midnightblue" stroke="midnightblue" points="471.52,-385.55 482.06,-384.42 473.11,-378.73 471.52,-385.55"/>
</g>
<!-- Node24 -->
<g id="node24" class="node">
<title>Node24</title>
<g id="a_node24"><a xlink:href="classGamePhase.html#a2597fc4aa3837ecc9146f29b18840855" target="_top" xlink:title="Adds an item to the remaining items.">
<polygon fill="white" stroke="black" points="469.5,-304.5 469.5,-323.5 591.5,-323.5 591.5,-304.5 469.5,-304.5"/>
<text text-anchor="middle" x="530.5" y="-311.5" font-family="Helvetica,sans-Serif" font-size="10.00">GamePhase::addItem</text>
</a>
</g>
</g>
<!-- Node23&#45;&gt;Node24 -->
<g id="edge27" class="edge">
<title>Node23&#45;&gt;Node24</title>
<path fill="none" stroke="midnightblue" d="M392.72,-314C413.38,-314 437.24,-314 459.18,-314"/>
<polygon fill="midnightblue" stroke="midnightblue" points="459.44,-317.5 469.44,-314 459.44,-310.5 459.44,-317.5"/>
</g>
<!-- Node25 -->
<g id="node25" class="node">
<title>Node25</title>
<g id="a_node25"><a xlink:href="classMap.html#ad1c83970b8e220d3ba55b755e84453d7" target="_top" xlink:title="Gets the map.">
<polygon fill="white" stroke="black" points="490.5,-342.5 490.5,-361.5 570.5,-361.5 570.5,-342.5 490.5,-342.5"/>
<text text-anchor="middle" x="530.5" y="-349.5" font-family="Helvetica,sans-Serif" font-size="10.00">Map::getMap</text>
</a>
</g>
</g>
<!-- Node23&#45;&gt;Node25 -->
<g id="edge28" class="edge">
<title>Node23&#45;&gt;Node25</title>
<path fill="none" stroke="midnightblue" d="M386.7,-323.59C415.37,-329.29 451.64,-336.51 480.46,-342.24"/>
<polygon fill="midnightblue" stroke="midnightblue" points="479.82,-345.69 490.32,-344.2 481.19,-338.82 479.82,-345.69"/>
</g>
<!-- Node27 -->
<g id="node27" class="node">
<title>Node27</title>
<g id="a_node27"><a xlink:href="classLeaderboard.html#aaf22ea54d8b0e7e5d2bf5c3b9dcbdee2" target="_top" xlink:title="Creates a save file.">
<polygon fill="white" stroke="black" points="461.5,-228.5 461.5,-247.5 599.5,-247.5 599.5,-228.5 461.5,-228.5"/>
<text text-anchor="middle" x="530.5" y="-235.5" font-family="Helvetica,sans-Serif" font-size="10.00">Leaderboard::createSave</text>
</a>
</g>
</g>
<!-- Node26&#45;&gt;Node27 -->
<g id="edge31" class="edge">
<title>Node26&#45;&gt;Node27</title>
<path fill="none" stroke="midnightblue" d="M386.7,-266.41C412.47,-261.28 444.39,-254.93 471.51,-249.54"/>
<polygon fill="midnightblue" stroke="midnightblue" points="472.52,-252.9 481.65,-247.52 471.16,-246.04 472.52,-252.9"/>
</g>
<!-- Node28 -->
<g id="node28" class="node">
<title>Node28</title>
<g id="a_node28"><a xlink:href="classLeaderboard.html#a9d9d83737bf8412fa71cb1c238c059f6" target="_top" xlink:title="Reads a value from binary save file.">
<polygon fill="white" stroke="black" points="478,-266.5 478,-285.5 583,-285.5 583,-266.5 478,-266.5"/>
<text text-anchor="middle" x="530.5" y="-273.5" font-family="Helvetica,sans-Serif" font-size="10.00">Leaderboard::read</text>
</a>
</g>
</g>
<!-- Node26&#45;&gt;Node28 -->
<g id="edge32" class="edge">
<title>Node26&#45;&gt;Node28</title>
<path fill="none" stroke="midnightblue" d="M406.11,-276C426.21,-276 448.13,-276 467.83,-276"/>
<polygon fill="midnightblue" stroke="midnightblue" points="467.91,-279.5 477.91,-276 467.91,-272.5 467.91,-279.5"/>
</g>
<!-- Node30 -->
<g id="node30" class="node">
<title>Node30</title>
<g id="a_node30"><a xlink:href="classGamePhase.html#a097fcd119e1cce98533b731f7e6ae53d" target="_top" xlink:title="Sets the time of the current phase.">
<polygon fill="white" stroke="black" points="455.5,-0.5 455.5,-19.5 605.5,-19.5 605.5,-0.5 455.5,-0.5"/>
<text text-anchor="middle" x="530.5" y="-7.5" font-family="Helvetica,sans-Serif" font-size="10.00">GamePhase::setPhaseTime</text>
</a>
</g>
</g>
<!-- Node29&#45;&gt;Node30 -->
<g id="edge35" class="edge">
<title>Node29&#45;&gt;Node30</title>
<path fill="none" stroke="midnightblue" d="M348.44,-95.41C365.88,-79.14 403.79,-46.23 442,-29 447.45,-26.54 453.23,-24.4 459.13,-22.52"/>
<polygon fill="midnightblue" stroke="midnightblue" points="460.49,-25.77 469.12,-19.62 458.54,-19.05 460.49,-25.77"/>
</g>
</g>
</svg>
