<?xml version="1.0" encoding="UTF-8" standalone="no"?>
<!DOCTYPE svg PUBLIC "-//W3C//DTD SVG 1.1//EN"
 "http://www.w3.org/Graphics/SVG/1.1/DTD/svg11.dtd">
<!-- Generated by graphviz version 2.43.0 (0)
 -->
<!-- Title: Map::loadMap Pages: 1 -->
<svg width="522pt" height="104pt"
 viewBox="0.00 0.00 522.00 104.00" xmlns="http://www.w3.org/2000/svg" xmlns:xlink="http://www.w3.org/1999/xlink">
<g id="graph0" class="graph" transform="scale(1 1) rotate(0) translate(4 100)">
<title>Map::loadMap</title>
<polygon fill="white" stroke="transparent" points="-4,4 -4,-100 518,-100 518,4 -4,4"/>
<!-- Node1 -->
<g id="node1" class="node">
<title>Node1</title>
<g id="a_node1"><a xlink:title="Loads the map from a file.">
<polygon fill="#bfbfbf" stroke="black" points="0,-38.5 0,-57.5 86,-57.5 86,-38.5 0,-38.5"/>
<text text-anchor="middle" x="43" y="-45.5" font-family="Helvetica,sans-Serif" font-size="10.00">Map::loadMap</text>
</a>
</g>
</g>
<!-- Node2 -->
<g id="node2" class="node">
<title>Node2</title>
<g id="a_node2"><a xlink:href="classMap.html#ab1c2595a555457c0a764a0530b57c0f9" target="_top" xlink:title="Helper function for validating map string.">
<polygon fill="white" stroke="black" points="122,-38.5 122,-57.5 224,-57.5 224,-38.5 122,-38.5"/>
<text text-anchor="middle" x="173" y="-45.5" font-family="Helvetica,sans-Serif" font-size="10.00">Map::processMap</text>
</a>
</g>
</g>
<!-- Node1&#45;&gt;Node2 -->
<g id="edge1" class="edge">
<title>Node1&#45;&gt;Node2</title>
<path fill="none" stroke="midnightblue" d="M86.27,-48C94.43,-48 103.13,-48 111.74,-48"/>
<polygon fill="midnightblue" stroke="midnightblue" points="111.77,-51.5 121.77,-48 111.77,-44.5 111.77,-51.5"/>
</g>
<!-- Node3 -->
<g id="node3" class="node">
<title>Node3</title>
<g id="a_node3"><a xlink:href="classMap.html#a41b623a0d503b94bf8412ca06296ae1f" target="_top" xlink:title="Helper function for finding crossroads.">
<polygon fill="white" stroke="black" points="260.5,-76.5 260.5,-95.5 376.5,-95.5 376.5,-76.5 260.5,-76.5"/>
<text text-anchor="middle" x="318.5" y="-83.5" font-family="Helvetica,sans-Serif" font-size="10.00">Map::findCrossroads</text>
</a>
</g>
</g>
<!-- Node2&#45;&gt;Node3 -->
<g id="edge2" class="edge">
<title>Node2&#45;&gt;Node3</title>
<path fill="none" stroke="midnightblue" d="M210.21,-57.59C228.82,-62.52 251.7,-68.57 271.54,-73.83"/>
<polygon fill="midnightblue" stroke="midnightblue" points="270.74,-77.24 281.3,-76.41 272.53,-70.47 270.74,-77.24"/>
</g>
<!-- Node5 -->
<g id="node5" class="node">
<title>Node5</title>
<g id="a_node5"><a xlink:href="classMap.html#ae96ad32d3b1600cd41e4a1c3b6a30906" target="_top" xlink:title="Checks if the map is traversable from the given position.">
<polygon fill="white" stroke="black" points="260,-38.5 260,-57.5 377,-57.5 377,-38.5 260,-38.5"/>
<text text-anchor="middle" x="318.5" y="-45.5" font-family="Helvetica,sans-Serif" font-size="10.00">Map::traversableBFS</text>
</a>
</g>
</g>
<!-- Node2&#45;&gt;Node5 -->
<g id="edge4" class="edge">
<title>Node2&#45;&gt;Node5</title>
<path fill="none" stroke="midnightblue" d="M224.19,-48C232.44,-48 241.11,-48 249.7,-48"/>
<polygon fill="midnightblue" stroke="midnightblue" points="249.72,-51.5 259.72,-48 249.72,-44.5 249.72,-51.5"/>
</g>
<!-- Node6 -->
<g id="node6" class="node">
<title>Node6</title>
<g id="a_node6"><a xlink:href="classMap.html#ad35b3432f383ea258d0ed06fe937c3b9" target="_top" xlink:title="Helper function for validating the map borders.">
<polygon fill="white" stroke="black" points="260.5,-0.5 260.5,-19.5 376.5,-19.5 376.5,-0.5 260.5,-0.5"/>
<text text-anchor="middle" x="318.5" y="-7.5" font-family="Helvetica,sans-Serif" font-size="10.00">Map::validateBorder</text>
</a>
</g>
</g>
<!-- Node2&#45;&gt;Node6 -->
<g id="edge5" class="edge">
<title>Node2&#45;&gt;Node6</title>
<path fill="none" stroke="midnightblue" d="M210.21,-38.41C228.82,-33.48 251.7,-27.43 271.54,-22.17"/>
<polygon fill="midnightblue" stroke="midnightblue" points="272.53,-25.53 281.3,-19.59 270.74,-18.76 272.53,-25.53"/>
</g>
<!-- Node4 -->
<g id="node4" class="node">
<title>Node4</title>
<g id="a_node4"><a xlink:href="classMap.html#a7d8219ae1c1ff2f45f7e11c5d03dcdb7" target="_top" xlink:title="Checks if given coordinates are a crossroad.">
<polygon fill="white" stroke="black" points="413,-76.5 413,-95.5 514,-95.5 514,-76.5 413,-76.5"/>
<text text-anchor="middle" x="463.5" y="-83.5" font-family="Helvetica,sans-Serif" font-size="10.00">Map::isCrossroad</text>
</a>
</g>
</g>
<!-- Node3&#45;&gt;Node4 -->
<g id="edge3" class="edge">
<title>Node3&#45;&gt;Node4</title>
<path fill="none" stroke="midnightblue" d="M376.84,-86C385.44,-86 394.33,-86 402.97,-86"/>
<polygon fill="midnightblue" stroke="midnightblue" points="402.98,-89.5 412.98,-86 402.98,-82.5 402.98,-89.5"/>
</g>
</g>
</svg>
