<?xml version="1.0" encoding="UTF-8" standalone="no"?>
<!DOCTYPE svg PUBLIC "-//W3C//DTD SVG 1.1//EN"
 "http://www.w3.org/Graphics/SVG/1.1/DTD/svg11.dtd">
<!-- Generated by graphviz version 10.0.1 (0)
 -->
<!-- Title: GameObject::getX Pages: 1 -->
<svg width="257pt" height="66pt"
 viewBox="0.00 0.00 256.75 66.00" xmlns="http://www.w3.org/2000/svg" xmlns:xlink="http://www.w3.org/1999/xlink">
<g id="graph0" class="graph" transform="scale(1 1) rotate(0) translate(4 62)">
<title>GameObject::getX</title>
<!-- Node1 -->
<g id="Node000001" class="node">
<title>Node1</title>
<g id="a_Node000001"><a xlink:title="Gets the x coordinate.">
<polygon fill="#999999" stroke="#666666" points="248.75,-39 151.75,-39 151.75,-19 248.75,-19 248.75,-39"/>
<text text-anchor="middle" x="200.25" y="-25.5" font-family="Helvetica,sans-Serif" font-size="10.00">GameObject::getX</text>
</a>
</g>
</g>
<!-- Node2 -->
<g id="Node000002" class="node">
<title>Node2</title>
<g id="a_Node000002"><a xlink:href="structChaseBehavior.html#a2352bad80fc83366546accdba99f7d33" target="_top" xlink:title="Gets the ideal direction to move the enemy.">
<polygon fill="white" stroke="#666666" points="114.25,-58 1.5,-58 1.5,-38 114.25,-38 114.25,-58"/>
<text text-anchor="middle" x="57.88" y="-44.5" font-family="Helvetica,sans-Serif" font-size="10.00">ChaseBehavior::move</text>
</a>
</g>
</g>
<!-- Node1&#45;&gt;Node2 -->
<g id="edge1_Node000001_Node000002" class="edge">
<title>Node1&#45;&gt;Node2</title>
<g id="a_edge1_Node000001_Node000002"><a xlink:title=" ">
<path fill="none" stroke="#63b8ff" d="M139.93,-37.03C131.44,-38.18 122.73,-39.36 114.31,-40.5"/>
<polygon fill="#63b8ff" stroke="#63b8ff" points="140.39,-40.5 149.83,-35.69 139.45,-33.56 140.39,-40.5"/>
</a>
</g>
</g>
<!-- Node3 -->
<g id="Node000003" class="node">
<title>Node3</title>
<g id="a_Node000003"><a xlink:href="structScatterBehavior.html#abf893e24e51acddd4c3e1cd57e262762" target="_top" xlink:title="Gets the ideal direction to move the enemy.">
<polygon fill="white" stroke="#666666" points="115.75,-20 0,-20 0,0 115.75,0 115.75,-20"/>
<text text-anchor="middle" x="57.88" y="-6.5" font-family="Helvetica,sans-Serif" font-size="10.00">ScatterBehavior::move</text>
</a>
</g>
</g>
<!-- Node1&#45;&gt;Node3 -->
<g id="edge2_Node000001_Node000003" class="edge">
<title>Node1&#45;&gt;Node3</title>
<g id="a_edge2_Node000001_Node000003"><a xlink:title=" ">
<path fill="none" stroke="#63b8ff" d="M140.12,-21C132.06,-19.91 123.8,-18.79 115.78,-17.7"/>
<polygon fill="#63b8ff" stroke="#63b8ff" points="139.45,-24.44 149.83,-22.31 140.39,-17.5 139.45,-24.44"/>
</a>
</g>
</g>
</g>
</svg>
