<?xml version="1.0" encoding="UTF-8" standalone="no"?>
<!DOCTYPE svg PUBLIC "-//W3C//DTD SVG 1.1//EN"
 "http://www.w3.org/Graphics/SVG/1.1/DTD/svg11.dtd">
<!-- Generated by graphviz version 10.0.1 (0)
 -->
<!-- Title: Ghost::tryMove Pages: 1 -->
<svg width="283pt" height="180pt"
 viewBox="0.00 0.00 283.00 180.00" xmlns="http://www.w3.org/2000/svg" xmlns:xlink="http://www.w3.org/1999/xlink">
<g id="graph0" class="graph" transform="scale(1 1) rotate(0) translate(4 176)">
<title>Ghost::tryMove</title>
<!-- Node1 -->
<g id="Node000001" class="node">
<title>Node1</title>
<g id="a_Node000001"><a xlink:title=" ">
<polygon fill="#999999" stroke="#666666" points="83.5,-96 0,-96 0,-76 83.5,-76 83.5,-96"/>
<text text-anchor="middle" x="41.75" y="-82.5" font-family="Helvetica,sans-Serif" font-size="10.00">Ghost::tryMove</text>
</a>
</g>
</g>
<!-- Node2 -->
<g id="Node000002" class="node">
<title>Node2</title>
<g id="a_Node000002"><a xlink:href="Helpers_8cpp.html#a842dd6c8fbe34f8e1a96bc820d1d955d" target="_top" xlink:title=" ">
<polygon fill="white" stroke="#666666" points="261.12,-172 133.38,-172 133.38,-152 261.12,-152 261.12,-172"/>
<text text-anchor="middle" x="197.25" y="-158.5" font-family="Helvetica,sans-Serif" font-size="10.00">calculateNewCoordinates</text>
</a>
</g>
</g>
<!-- Node1&#45;&gt;Node2 -->
<g id="edge1_Node000001_Node000002" class="edge">
<title>Node1&#45;&gt;Node2</title>
<g id="a_edge1_Node000001_Node000002"><a xlink:title=" ">
<path fill="none" stroke="#63b8ff" d="M53.78,-96.45C67.91,-109.28 93.68,-130.82 119.5,-143 123.44,-144.86 127.58,-146.55 131.81,-148.08"/>
<polygon fill="#63b8ff" stroke="#63b8ff" points="130.43,-151.31 141.02,-151.11 132.61,-144.66 130.43,-151.31"/>
</a>
</g>
</g>
<!-- Node3 -->
<g id="Node000003" class="node">
<title>Node3</title>
<g id="a_Node000003"><a xlink:href="classMap.html#a3b01db567592d31b0f862e84bf687c75" target="_top" xlink:title="Gets the nearest ghost cage exit.">
<polygon fill="white" stroke="#666666" points="275,-134 119.5,-134 119.5,-114 275,-114 275,-134"/>
<text text-anchor="middle" x="197.25" y="-120.5" font-family="Helvetica,sans-Serif" font-size="10.00">Map::getNearestGhostCageExit</text>
</a>
</g>
</g>
<!-- Node1&#45;&gt;Node3 -->
<g id="edge2_Node000001_Node000003" class="edge">
<title>Node1&#45;&gt;Node3</title>
<g id="a_edge2_Node000001_Node000003"><a xlink:title=" ">
<path fill="none" stroke="#63b8ff" d="M83.89,-96.18C102,-100.67 123.51,-105.99 142.84,-110.78"/>
<polygon fill="#63b8ff" stroke="#63b8ff" points="141.91,-114.15 152.46,-113.16 143.6,-107.36 141.91,-114.15"/>
</a>
</g>
</g>
<!-- Node4 -->
<g id="Node000004" class="node">
<title>Node4</title>
<g id="a_Node000004"><a xlink:href="classMap.html#a3fa542ef9ff897893adc5a290b224114" target="_top" xlink:title="Gets the map size.">
<polygon fill="white" stroke="#666666" points="234.12,-96 160.38,-96 160.38,-76 234.12,-76 234.12,-96"/>
<text text-anchor="middle" x="197.25" y="-82.5" font-family="Helvetica,sans-Serif" font-size="10.00">Map::getSize</text>
</a>
</g>
</g>
<!-- Node1&#45;&gt;Node4 -->
<g id="edge3_Node000001_Node000004" class="edge">
<title>Node1&#45;&gt;Node4</title>
<g id="a_edge3_Node000001_Node000004"><a xlink:title=" ">
<path fill="none" stroke="#63b8ff" d="M83.89,-86C103.8,-86 127.82,-86 148.54,-86"/>
<polygon fill="#63b8ff" stroke="#63b8ff" points="148.46,-89.5 158.46,-86 148.46,-82.5 148.46,-89.5"/>
</a>
</g>
</g>
<!-- Node5 -->
<g id="Node000005" class="node">
<title>Node5</title>
<g id="a_Node000005"><a xlink:href="classMap.html#a9daf0b81095fe118f2e52fd783ea1bf8" target="_top" xlink:title="Checks if there is a wall at the given coordinates.">
<polygon fill="white" stroke="#666666" points="235.62,-58 158.88,-58 158.88,-38 235.62,-38 235.62,-58"/>
<text text-anchor="middle" x="197.25" y="-44.5" font-family="Helvetica,sans-Serif" font-size="10.00">Map::isWallAt</text>
</a>
</g>
</g>
<!-- Node1&#45;&gt;Node5 -->
<g id="edge4_Node000001_Node000005" class="edge">
<title>Node1&#45;&gt;Node5</title>
<g id="a_edge4_Node000001_Node000005"><a xlink:title=" ">
<path fill="none" stroke="#63b8ff" d="M83.89,-75.82C103.44,-70.98 126.96,-65.15 147.42,-60.09"/>
<polygon fill="#63b8ff" stroke="#63b8ff" points="148.09,-63.53 156.96,-57.73 146.41,-56.73 148.09,-63.53"/>
</a>
</g>
</g>
<!-- Node6 -->
<g id="Node000006" class="node">
<title>Node6</title>
<g id="a_Node000006"><a xlink:href="classGhost.html#aa6cee6d5199e728031a07f703b116a67" target="_top" xlink:title="Moves the object in the given direction.">
<polygon fill="white" stroke="#666666" points="233.38,-20 161.12,-20 161.12,0 233.38,0 233.38,-20"/>
<text text-anchor="middle" x="197.25" y="-6.5" font-family="Helvetica,sans-Serif" font-size="10.00">Ghost::move</text>
</a>
</g>
</g>
<!-- Node1&#45;&gt;Node6 -->
<g id="edge5_Node000001_Node000006" class="edge">
<title>Node1&#45;&gt;Node6</title>
<g id="a_edge5_Node000001_Node000006"><a xlink:title=" ">
<path fill="none" stroke="#63b8ff" d="M53.78,-75.55C67.91,-62.72 93.68,-41.18 119.5,-29 128.98,-24.53 139.64,-21.03 149.92,-18.33"/>
<polygon fill="#63b8ff" stroke="#63b8ff" points="150.49,-21.79 159.39,-16.05 148.85,-14.99 150.49,-21.79"/>
</a>
</g>
</g>
</g>
</svg>
