<?xml version="1.0" encoding="UTF-8" standalone="no"?>
<!DOCTYPE svg PUBLIC "-//W3C//DTD SVG 1.1//EN"
 "http://www.w3.org/Graphics/SVG/1.1/DTD/svg11.dtd">
<!-- Generated by graphviz version 2.43.0 (0)
 -->
<!-- Title: Player::update Pages: 1 -->
<svg width="469pt" height="180pt"
 viewBox="0.00 0.00 469.00 180.00" xmlns="http://www.w3.org/2000/svg" xmlns:xlink="http://www.w3.org/1999/xlink">
<g id="graph0" class="graph" transform="scale(1 1) rotate(0) translate(4 176)">
<title>Player::update</title>
<polygon fill="white" stroke="transparent" points="-4,4 -4,-176 465,-176 465,4 -4,4"/>
<!-- Node1 -->
<g id="node1" class="node">
<title>Node1</title>
<g id="a_node1"><a xlink:title="Updates the object.">
<polygon fill="#bfbfbf" stroke="black" points="0,-76.5 0,-95.5 87,-95.5 87,-76.5 0,-76.5"/>
<text text-anchor="middle" x="43.5" y="-83.5" font-family="Helvetica,sans-Serif" font-size="10.00">Player::update</text>
</a>
</g>
</g>
<!-- Node2 -->
<g id="node2" class="node">
<title>Node2</title>
<g id="a_node2"><a xlink:href="classGamePhase.html#a4e546a7d0a52cbd70612880d61e5f55c" target="_top" xlink:title="Returns the current game phase.">
<polygon fill="white" stroke="black" points="136,-152.5 136,-171.5 262,-171.5 262,-152.5 136,-152.5"/>
<text text-anchor="middle" x="199" y="-159.5" font-family="Helvetica,sans-Serif" font-size="10.00">GamePhase::getPhase</text>
</a>
</g>
</g>
<!-- Node1&#45;&gt;Node2 -->
<g id="edge1" class="edge">
<title>Node1&#45;&gt;Node2</title>
<path fill="none" stroke="midnightblue" d="M54.84,-95.54C69.12,-108.2 96.16,-130.43 123,-143 128.22,-145.45 133.8,-147.61 139.47,-149.51"/>
<polygon fill="midnightblue" stroke="midnightblue" points="138.46,-152.86 149.05,-152.47 140.53,-146.17 138.46,-152.86"/>
</g>
<!-- Node3 -->
<g id="node3" class="node">
<title>Node3</title>
<g id="a_node3"><a xlink:href="classGamePhase.html#a704dda3508f76202edc8364d76fa6d22" target="_top" xlink:title="Returns the previous game phase.">
<polygon fill="white" stroke="black" points="125,-114.5 125,-133.5 273,-133.5 273,-114.5 125,-114.5"/>
<text text-anchor="middle" x="199" y="-121.5" font-family="Helvetica,sans-Serif" font-size="10.00">GamePhase::getPrevPhase</text>
</a>
</g>
</g>
<!-- Node1&#45;&gt;Node3 -->
<g id="edge2" class="edge">
<title>Node1&#45;&gt;Node3</title>
<path fill="none" stroke="midnightblue" d="M83.23,-95.59C103.4,-100.58 128.25,-106.73 149.66,-112.03"/>
<polygon fill="midnightblue" stroke="midnightblue" points="149,-115.47 159.54,-114.48 150.68,-108.68 149,-115.47"/>
</g>
<!-- Node4 -->
<g id="node4" class="node">
<title>Node4</title>
<g id="a_node4"><a xlink:href="classMovingObject.html#a6866cb38b81682fc594939196117e2e3" target="_top" xlink:title="Sets the invincibility of the object.">
<polygon fill="white" stroke="black" points="123,-76.5 123,-95.5 275,-95.5 275,-76.5 123,-76.5"/>
<text text-anchor="middle" x="199" y="-83.5" font-family="Helvetica,sans-Serif" font-size="10.00">MovingObject::setInvincible</text>
</a>
</g>
</g>
<!-- Node1&#45;&gt;Node4 -->
<g id="edge3" class="edge">
<title>Node1&#45;&gt;Node4</title>
<path fill="none" stroke="midnightblue" d="M87.26,-86C95.31,-86 104,-86 112.83,-86"/>
<polygon fill="midnightblue" stroke="midnightblue" points="112.84,-89.5 122.84,-86 112.84,-82.5 112.84,-89.5"/>
</g>
<!-- Node5 -->
<g id="node5" class="node">
<title>Node5</title>
<g id="a_node5"><a xlink:href="classGamePhase.html#af152a5e182080af728f34e66b29079c5" target="_top" xlink:title="Sets the current game phase.">
<polygon fill="white" stroke="black" points="136.5,-38.5 136.5,-57.5 261.5,-57.5 261.5,-38.5 136.5,-38.5"/>
<text text-anchor="middle" x="199" y="-45.5" font-family="Helvetica,sans-Serif" font-size="10.00">GamePhase::setPhase</text>
</a>
</g>
</g>
<!-- Node1&#45;&gt;Node5 -->
<g id="edge4" class="edge">
<title>Node1&#45;&gt;Node5</title>
<path fill="none" stroke="midnightblue" d="M83.23,-76.41C103.4,-71.42 128.25,-65.27 149.66,-59.97"/>
<polygon fill="midnightblue" stroke="midnightblue" points="150.68,-63.32 159.54,-57.52 149,-56.53 150.68,-63.32"/>
</g>
<!-- Node7 -->
<g id="node7" class="node">
<title>Node7</title>
<g id="a_node7"><a xlink:href="classMovingObject.html#a0fa9f24bfcb0d40d1af3ee26dedfa47d" target="_top" xlink:title="Sets the speed of the object.">
<polygon fill="white" stroke="black" points="131.5,-0.5 131.5,-19.5 266.5,-19.5 266.5,-0.5 131.5,-0.5"/>
<text text-anchor="middle" x="199" y="-7.5" font-family="Helvetica,sans-Serif" font-size="10.00">MovingObject::setSpeed</text>
</a>
</g>
</g>
<!-- Node1&#45;&gt;Node7 -->
<g id="edge6" class="edge">
<title>Node1&#45;&gt;Node7</title>
<path fill="none" stroke="midnightblue" d="M54.84,-76.46C69.12,-63.8 96.16,-41.57 123,-29 128.22,-26.55 133.8,-24.39 139.47,-22.49"/>
<polygon fill="midnightblue" stroke="midnightblue" points="140.53,-25.83 149.05,-19.53 138.46,-19.14 140.53,-25.83"/>
</g>
<!-- Node6 -->
<g id="node6" class="node">
<title>Node6</title>
<g id="a_node6"><a xlink:href="classGamePhase.html#a097fcd119e1cce98533b731f7e6ae53d" target="_top" xlink:title="Sets the time of the current phase.">
<polygon fill="white" stroke="black" points="311,-38.5 311,-57.5 461,-57.5 461,-38.5 311,-38.5"/>
<text text-anchor="middle" x="386" y="-45.5" font-family="Helvetica,sans-Serif" font-size="10.00">GamePhase::setPhaseTime</text>
</a>
</g>
</g>
<!-- Node5&#45;&gt;Node6 -->
<g id="edge5" class="edge">
<title>Node5&#45;&gt;Node6</title>
<path fill="none" stroke="midnightblue" d="M261.6,-48C274.17,-48 287.59,-48 300.79,-48"/>
<polygon fill="midnightblue" stroke="midnightblue" points="300.82,-51.5 310.82,-48 300.82,-44.5 300.82,-51.5"/>
</g>
</g>
</svg>
