<?xml version="1.0" encoding="UTF-8" standalone="no"?>
<!DOCTYPE svg PUBLIC "-//W3C//DTD SVG 1.1//EN"
 "http://www.w3.org/Graphics/SVG/1.1/DTD/svg11.dtd">
<!-- Generated by graphviz version 2.43.0 (0)
 -->
<!-- Title: Map::processMap Pages: 1 -->
<svg width="400pt" height="104pt"
 viewBox="0.00 0.00 400.00 104.00" xmlns="http://www.w3.org/2000/svg" xmlns:xlink="http://www.w3.org/1999/xlink">
<g id="graph0" class="graph" transform="scale(1 1) rotate(0) translate(4 100)">
<title>Map::processMap</title>
<polygon fill="white" stroke="transparent" points="-4,4 -4,-100 396,-100 396,4 -4,4"/>
<!-- Node1 -->
<g id="node1" class="node">
<title>Node1</title>
<g id="a_node1"><a xlink:title="Helper function for validating map string.">
<polygon fill="#bfbfbf" stroke="black" points="0,-38.5 0,-57.5 102,-57.5 102,-38.5 0,-38.5"/>
<text text-anchor="middle" x="51" y="-45.5" font-family="Helvetica,sans-Serif" font-size="10.00">Map::processMap</text>
</a>
</g>
</g>
<!-- Node2 -->
<g id="node2" class="node">
<title>Node2</title>
<g id="a_node2"><a xlink:href="classMap.html#a41b623a0d503b94bf8412ca06296ae1f" target="_top" xlink:title="Helper function for finding crossroads.">
<polygon fill="white" stroke="black" points="138.5,-76.5 138.5,-95.5 254.5,-95.5 254.5,-76.5 138.5,-76.5"/>
<text text-anchor="middle" x="196.5" y="-83.5" font-family="Helvetica,sans-Serif" font-size="10.00">Map::findCrossroads</text>
</a>
</g>
</g>
<!-- Node1&#45;&gt;Node2 -->
<g id="edge1" class="edge">
<title>Node1&#45;&gt;Node2</title>
<path fill="none" stroke="midnightblue" d="M88.21,-57.59C106.82,-62.52 129.7,-68.57 149.54,-73.83"/>
<polygon fill="midnightblue" stroke="midnightblue" points="148.74,-77.24 159.3,-76.41 150.53,-70.47 148.74,-77.24"/>
</g>
<!-- Node4 -->
<g id="node4" class="node">
<title>Node4</title>
<g id="a_node4"><a xlink:href="classMap.html#ae96ad32d3b1600cd41e4a1c3b6a30906" target="_top" xlink:title="Checks if the map is traversable from the given position.">
<polygon fill="white" stroke="black" points="138,-38.5 138,-57.5 255,-57.5 255,-38.5 138,-38.5"/>
<text text-anchor="middle" x="196.5" y="-45.5" font-family="Helvetica,sans-Serif" font-size="10.00">Map::traversableBFS</text>
</a>
</g>
</g>
<!-- Node1&#45;&gt;Node4 -->
<g id="edge3" class="edge">
<title>Node1&#45;&gt;Node4</title>
<path fill="none" stroke="midnightblue" d="M102.19,-48C110.44,-48 119.11,-48 127.7,-48"/>
<polygon fill="midnightblue" stroke="midnightblue" points="127.72,-51.5 137.72,-48 127.72,-44.5 127.72,-51.5"/>
</g>
<!-- Node5 -->
<g id="node5" class="node">
<title>Node5</title>
<g id="a_node5"><a xlink:href="classMap.html#ad35b3432f383ea258d0ed06fe937c3b9" target="_top" xlink:title="Helper function for validating the map borders.">
<polygon fill="white" stroke="black" points="138.5,-0.5 138.5,-19.5 254.5,-19.5 254.5,-0.5 138.5,-0.5"/>
<text text-anchor="middle" x="196.5" y="-7.5" font-family="Helvetica,sans-Serif" font-size="10.00">Map::validateBorder</text>
</a>
</g>
</g>
<!-- Node1&#45;&gt;Node5 -->
<g id="edge4" class="edge">
<title>Node1&#45;&gt;Node5</title>
<path fill="none" stroke="midnightblue" d="M88.21,-38.41C106.82,-33.48 129.7,-27.43 149.54,-22.17"/>
<polygon fill="midnightblue" stroke="midnightblue" points="150.53,-25.53 159.3,-19.59 148.74,-18.76 150.53,-25.53"/>
</g>
<!-- Node3 -->
<g id="node3" class="node">
<title>Node3</title>
<g id="a_node3"><a xlink:href="classMap.html#a7d8219ae1c1ff2f45f7e11c5d03dcdb7" target="_top" xlink:title="Checks if given coordinates are a crossroad.">
<polygon fill="white" stroke="black" points="291,-76.5 291,-95.5 392,-95.5 392,-76.5 291,-76.5"/>
<text text-anchor="middle" x="341.5" y="-83.5" font-family="Helvetica,sans-Serif" font-size="10.00">Map::isCrossroad</text>
</a>
</g>
</g>
<!-- Node2&#45;&gt;Node3 -->
<g id="edge2" class="edge">
<title>Node2&#45;&gt;Node3</title>
<path fill="none" stroke="midnightblue" d="M254.84,-86C263.44,-86 272.33,-86 280.97,-86"/>
<polygon fill="midnightblue" stroke="midnightblue" points="280.98,-89.5 290.98,-86 280.98,-82.5 280.98,-89.5"/>
</g>
</g>
</svg>
