<?xml version="1.0" encoding="UTF-8" standalone="no"?>
<!DOCTYPE svg PUBLIC "-//W3C//DTD SVG 1.1//EN"
 "http://www.w3.org/Graphics/SVG/1.1/DTD/svg11.dtd">
<!-- Generated by graphviz version 10.0.1 (0)
 -->
<!-- Title: EnemyBehavior Pages: 1 -->
<svg width="312pt" height="84pt"
 viewBox="0.00 0.00 312.25 84.00" xmlns="http://www.w3.org/2000/svg" xmlns:xlink="http://www.w3.org/1999/xlink">
<g id="graph0" class="graph" transform="scale(1 1) rotate(0) translate(4 80)">
<title>EnemyBehavior</title>
<!-- Node1 -->
<g id="Node000001" class="node">
<title>Node1</title>
<g id="a_Node000001"><a xlink:title=" ">
<polygon fill="#999999" stroke="#666666" points="192.88,-76 107.88,-76 107.88,-56 192.88,-56 192.88,-76"/>
<text text-anchor="middle" x="150.38" y="-62.5" font-family="Helvetica,sans-Serif" font-size="10.00">EnemyBehavior</text>
</a>
</g>
</g>
<!-- Node2 -->
<g id="Node000002" class="node">
<title>Node2</title>
<g id="a_Node000002"><a xlink:href="structChaseBehavior.html" target="_top" xlink:title=" ">
<polygon fill="white" stroke="#666666" points="82.75,-20 0,-20 0,0 82.75,0 82.75,-20"/>
<text text-anchor="middle" x="41.38" y="-6.5" font-family="Helvetica,sans-Serif" font-size="10.00">ChaseBehavior</text>
</a>
</g>
</g>
<!-- Node1&#45;&gt;Node2 -->
<g id="edge1_Node000001_Node000002" class="edge">
<title>Node1&#45;&gt;Node2</title>
<g id="a_edge1_Node000001_Node000002"><a xlink:title=" ">
<path fill="none" stroke="#63b8ff" d="M121.33,-50.61C102.07,-41.07 77.33,-28.81 60.51,-20.48"/>
<polygon fill="#63b8ff" stroke="#63b8ff" points="119.52,-53.62 130.03,-54.92 122.63,-47.35 119.52,-53.62"/>
</a>
</g>
</g>
<!-- Node3 -->
<g id="Node000003" class="node">
<title>Node3</title>
<g id="a_Node000003"><a xlink:href="structFrightenedBehavior.html" target="_top" xlink:title=" ">
<polygon fill="white" stroke="#666666" points="200.38,-20 100.38,-20 100.38,0 200.38,0 200.38,-20"/>
<text text-anchor="middle" x="150.38" y="-6.5" font-family="Helvetica,sans-Serif" font-size="10.00">FrightenedBehavior</text>
</a>
</g>
</g>
<!-- Node1&#45;&gt;Node3 -->
<g id="edge2_Node000001_Node000003" class="edge">
<title>Node1&#45;&gt;Node3</title>
<g id="a_edge2_Node000001_Node000003"><a xlink:title=" ">
<path fill="none" stroke="#63b8ff" d="M150.38,-44.13C150.38,-35.9 150.38,-26.85 150.38,-20.3"/>
<polygon fill="#63b8ff" stroke="#63b8ff" points="146.88,-44.08 150.38,-54.08 153.88,-44.08 146.88,-44.08"/>
</a>
</g>
</g>
<!-- Node4 -->
<g id="Node000004" class="node">
<title>Node4</title>
<g id="a_Node000004"><a xlink:href="structScatterBehavior.html" target="_top" xlink:title=" ">
<polygon fill="white" stroke="#666666" points="304.25,-20 218.5,-20 218.5,0 304.25,0 304.25,-20"/>
<text text-anchor="middle" x="261.38" y="-6.5" font-family="Helvetica,sans-Serif" font-size="10.00">ScatterBehavior</text>
</a>
</g>
</g>
<!-- Node1&#45;&gt;Node4 -->
<g id="edge3_Node000001_Node000004" class="edge">
<title>Node1&#45;&gt;Node4</title>
<g id="a_edge3_Node000001_Node000004"><a xlink:title=" ">
<path fill="none" stroke="#63b8ff" d="M179.95,-50.61C199.57,-41.07 224.76,-28.81 241.89,-20.48"/>
<polygon fill="#63b8ff" stroke="#63b8ff" points="178.53,-47.41 171.07,-54.93 181.59,-53.7 178.53,-47.41"/>
</a>
</g>
</g>
</g>
</svg>
