<?xml version="1.0" encoding="UTF-8" standalone="no"?>
<!DOCTYPE svg PUBLIC "-//W3C//DTD SVG 1.1//EN"
 "http://www.w3.org/Graphics/SVG/1.1/DTD/svg11.dtd">
<!-- Generated by graphviz version 10.0.1 (0)
 -->
<!-- Title: GamePhase::getPhaseTime Pages: 1 -->
<svg width="427pt" height="28pt"
 viewBox="0.00 0.00 426.50 28.00" xmlns="http://www.w3.org/2000/svg" xmlns:xlink="http://www.w3.org/1999/xlink">
<g id="graph0" class="graph" transform="scale(1 1) rotate(0) translate(4 24)">
<title>GamePhase::getPhaseTime</title>
<!-- Node1 -->
<g id="Node000001" class="node">
<title>Node1</title>
<g id="a_Node000001"><a xlink:title="Returns the time of the current phase.">
<polygon fill="#999999" stroke="#666666" points="418.5,-20 279.5,-20 279.5,0 418.5,0 418.5,-20"/>
<text text-anchor="middle" x="349" y="-6.5" font-family="Helvetica,sans-Serif" font-size="10.00">GamePhase::getPhaseTime</text>
</a>
</g>
</g>
<!-- Node2 -->
<g id="Node000002" class="node">
<title>Node2</title>
<g id="a_Node000002"><a xlink:href="classGame.html#a9f8150e56d9f2c53d172ef0443630de7" target="_top" xlink:title="Updates the game phase timer.">
<polygon fill="white" stroke="#666666" points="243.5,-20 113.5,-20 113.5,0 243.5,0 243.5,-20"/>
<text text-anchor="middle" x="178.5" y="-6.5" font-family="Helvetica,sans-Serif" font-size="10.00">Game::updatePhaseTimer</text>
</a>
</g>
</g>
<!-- Node1&#45;&gt;Node2 -->
<g id="edge1_Node000001_Node000002" class="edge">
<title>Node1&#45;&gt;Node2</title>
<g id="a_edge1_Node000001_Node000002"><a xlink:title=" ">
<path fill="none" stroke="#63b8ff" d="M268.07,-10C259.97,-10 251.81,-10 243.89,-10"/>
<polygon fill="#63b8ff" stroke="#63b8ff" points="267.95,-13.5 277.95,-10 267.95,-6.5 267.95,-13.5"/>
</a>
</g>
</g>
<!-- Node3 -->
<g id="Node000003" class="node">
<title>Node3</title>
<g id="a_Node000003"><a xlink:href="classGame.html#aef7682b8bf084aac3c8f929a6fd2f673" target="_top" xlink:title="Updates the game state.">
<polygon fill="white" stroke="#666666" points="77.5,-20 0,-20 0,0 77.5,0 77.5,-20"/>
<text text-anchor="middle" x="38.75" y="-6.5" font-family="Helvetica,sans-Serif" font-size="10.00">Game::update</text>
</a>
</g>
</g>
<!-- Node2&#45;&gt;Node3 -->
<g id="edge2_Node000002_Node000003" class="edge">
<title>Node2&#45;&gt;Node3</title>
<g id="a_edge2_Node000002_Node000003"><a xlink:title=" ">
<path fill="none" stroke="#63b8ff" d="M101.76,-10C93.5,-10 85.38,-10 77.87,-10"/>
<polygon fill="#63b8ff" stroke="#63b8ff" points="101.55,-13.5 111.55,-10 101.55,-6.5 101.55,-13.5"/>
</a>
</g>
</g>
</g>
</svg>
