<?xml version="1.0" encoding="UTF-8" standalone="no"?>
<!DOCTYPE svg PUBLIC "-//W3C//DTD SVG 1.1//EN"
 "http://www.w3.org/Graphics/SVG/1.1/DTD/svg11.dtd">
<!-- Generated by graphviz version 2.43.0 (0)
 -->
<!-- Title: Player::getNextMove Pages: 1 -->
<svg width="304pt" height="142pt"
 viewBox="0.00 0.00 304.00 142.00" xmlns="http://www.w3.org/2000/svg" xmlns:xlink="http://www.w3.org/1999/xlink">
<g id="graph0" class="graph" transform="scale(1 1) rotate(0) translate(4 138)">
<title>Player::getNextMove</title>
<polygon fill="white" stroke="transparent" points="-4,4 -4,-138 300,-138 300,4 -4,4"/>
<!-- Node1 -->
<g id="node1" class="node">
<title>Node1</title>
<g id="a_node1"><a xlink:title="Returns the calculated next move of the object.">
<polygon fill="#bfbfbf" stroke="black" points="0,-57.5 0,-76.5 119,-76.5 119,-57.5 0,-57.5"/>
<text text-anchor="middle" x="59.5" y="-64.5" font-family="Helvetica,sans-Serif" font-size="10.00">Player::getNextMove</text>
</a>
</g>
</g>
<!-- Node2 -->
<g id="node2" class="node">
<title>Node2</title>
<g id="a_node2"><a xlink:href="Helpers_8cpp.html#a98742d5d9d01be6137fb4e7005f89248" target="_top" xlink:title=" ">
<polygon fill="white" stroke="black" points="155,-114.5 155,-133.5 296,-133.5 296,-114.5 155,-114.5"/>
<text text-anchor="middle" x="225.5" y="-121.5" font-family="Helvetica,sans-Serif" font-size="10.00">calculateNewCoordinates</text>
</a>
</g>
</g>
<!-- Node1&#45;&gt;Node2 -->
<g id="edge1" class="edge">
<title>Node1&#45;&gt;Node2</title>
<path fill="none" stroke="midnightblue" d="M82.38,-76.64C101.36,-84.79 129.69,-96.48 155,-105 161.93,-107.33 169.31,-109.59 176.59,-111.68"/>
<polygon fill="midnightblue" stroke="midnightblue" points="175.81,-115.1 186.39,-114.43 177.7,-108.36 175.81,-115.1"/>
</g>
<!-- Node3 -->
<g id="node3" class="node">
<title>Node3</title>
<g id="a_node3"><a xlink:href="classMap.html#a3fa542ef9ff897893adc5a290b224114" target="_top" xlink:title="Gets the map size.">
<polygon fill="white" stroke="black" points="185.5,-76.5 185.5,-95.5 265.5,-95.5 265.5,-76.5 185.5,-76.5"/>
<text text-anchor="middle" x="225.5" y="-83.5" font-family="Helvetica,sans-Serif" font-size="10.00">Map::getSize</text>
</a>
</g>
</g>
<!-- Node1&#45;&gt;Node3 -->
<g id="edge2" class="edge">
<title>Node1&#45;&gt;Node3</title>
<path fill="none" stroke="midnightblue" d="M119.24,-73.81C137.53,-75.92 157.5,-78.24 175.08,-80.27"/>
<polygon fill="midnightblue" stroke="midnightblue" points="174.79,-83.76 185.13,-81.44 175.59,-76.81 174.79,-83.76"/>
</g>
<!-- Node4 -->
<g id="node4" class="node">
<title>Node4</title>
<g id="a_node4"><a xlink:href="classMap.html#a9daf0b81095fe118f2e52fd783ea1bf8" target="_top" xlink:title="Checks if there is a wall at the given coordinates.">
<polygon fill="white" stroke="black" points="184,-38.5 184,-57.5 267,-57.5 267,-38.5 184,-38.5"/>
<text text-anchor="middle" x="225.5" y="-45.5" font-family="Helvetica,sans-Serif" font-size="10.00">Map::isWallAt</text>
</a>
</g>
</g>
<!-- Node1&#45;&gt;Node4 -->
<g id="edge3" class="edge">
<title>Node1&#45;&gt;Node4</title>
<path fill="none" stroke="midnightblue" d="M119.24,-60.19C136.98,-58.14 156.3,-55.9 173.48,-53.91"/>
<polygon fill="midnightblue" stroke="midnightblue" points="174.35,-57.33 183.88,-52.71 173.54,-50.38 174.35,-57.33"/>
</g>
<!-- Node5 -->
<g id="node5" class="node">
<title>Node5</title>
<g id="a_node5"><a xlink:href="classPlayer.html#adc34e719171cf292e1910982f0ed7c1e" target="_top" xlink:title="Moves the object in the given direction.">
<polygon fill="white" stroke="black" points="185,-0.5 185,-19.5 266,-19.5 266,-0.5 185,-0.5"/>
<text text-anchor="middle" x="225.5" y="-7.5" font-family="Helvetica,sans-Serif" font-size="10.00">Player::move</text>
</a>
</g>
</g>
<!-- Node1&#45;&gt;Node5 -->
<g id="edge4" class="edge">
<title>Node1&#45;&gt;Node5</title>
<path fill="none" stroke="midnightblue" d="M82.38,-57.36C101.36,-49.21 129.69,-37.52 155,-29 161.93,-26.67 169.31,-24.41 176.59,-22.32"/>
<polygon fill="midnightblue" stroke="midnightblue" points="177.7,-25.64 186.39,-19.57 175.81,-18.9 177.7,-25.64"/>
</g>
</g>
</svg>
