<?xml version="1.0" encoding="UTF-8" standalone="no"?>
<!DOCTYPE svg PUBLIC "-//W3C//DTD SVG 1.1//EN"
 "http://www.w3.org/Graphics/SVG/1.1/DTD/svg11.dtd">
<!-- Generated by graphviz version 10.0.1 (0)
 -->
<!-- Title: Window::clearCurrentWin Pages: 1 -->
<svg width="844pt" height="504pt"
 viewBox="0.00 0.00 844.25 503.64" xmlns="http://www.w3.org/2000/svg" xmlns:xlink="http://www.w3.org/1999/xlink">
<g id="graph0" class="graph" transform="scale(1 1) rotate(0) translate(4 499.64)">
<title>Window::clearCurrentWin</title>
<!-- Node1 -->
<g id="Node000001" class="node">
<title>Node1</title>
<g id="a_Node000001"><a xlink:title="Clears the current window.">
<polygon fill="#999999" stroke="#666666" points="836.25,-257.64 708.5,-257.64 708.5,-237.64 836.25,-237.64 836.25,-257.64"/>
<text text-anchor="middle" x="772.38" y="-244.14" font-family="Helvetica,sans-Serif" font-size="10.00">Window::clearCurrentWin</text>
</a>
</g>
</g>
<!-- Node2 -->
<g id="Node000002" class="node">
<title>Node2</title>
<g id="a_Node000002"><a xlink:href="classWindow.html#ac9718717327b190f444c9fe3955477a7" target="_top" xlink:title="Creates the main menu window.">
<polygon fill="white" stroke="#666666" points="672.5,-457.64 529,-457.64 529,-437.64 672.5,-437.64 672.5,-457.64"/>
<text text-anchor="middle" x="600.75" y="-444.14" font-family="Helvetica,sans-Serif" font-size="10.00">Window::createMenuWindow</text>
</a>
</g>
</g>
<!-- Node1&#45;&gt;Node2 -->
<g id="edge1_Node000001_Node000002" class="edge">
<title>Node1&#45;&gt;Node2</title>
<g id="a_edge1_Node000001_Node000002"><a xlink:title=" ">
<path fill="none" stroke="#63b8ff" d="M765.01,-268.99C752.96,-305.82 723.37,-381.4 672.5,-423.64 665.51,-429.44 657.06,-433.86 648.46,-437.23"/>
<polygon fill="#63b8ff" stroke="#63b8ff" points="768.32,-270.13 767.98,-259.54 761.64,-268.03 768.32,-270.13"/>
</a>
</g>
</g>
<!-- Node8 -->
<g id="Node000008" class="node">
<title>Node8</title>
<g id="a_Node000008"><a xlink:href="classWindow.html#a0f0537c35d89e120e904ba38a230a6d6" target="_top" xlink:title="Displays the leaderboard.">
<polygon fill="white" stroke="#666666" points="493,-77.64 351.75,-77.64 351.75,-57.64 493,-57.64 493,-77.64"/>
<text text-anchor="middle" x="422.38" y="-64.14" font-family="Helvetica,sans-Serif" font-size="10.00">Window::displayLeaderboard</text>
</a>
</g>
</g>
<!-- Node1&#45;&gt;Node8 -->
<g id="edge8_Node000001_Node000008" class="edge">
<title>Node1&#45;&gt;Node8</title>
<g id="a_edge8_Node000001_Node000008"><a xlink:title=" ">
<path fill="none" stroke="#63b8ff" d="M764.82,-226.57C752.78,-191.77 723.58,-123.03 672.5,-91.64 618.91,-58.72 546.28,-55.35 493.27,-58.65"/>
<polygon fill="#63b8ff" stroke="#63b8ff" points="761.45,-227.51 767.9,-235.91 768.1,-225.31 761.45,-227.51"/>
</a>
</g>
</g>
<!-- Node9 -->
<g id="Node000009" class="node">
<title>Node9</title>
<g id="a_Node000009"><a xlink:href="classGame.html#aa2d938aa918268060e63980c7efd86f8" target="_top" xlink:title="Ends the game.">
<polygon fill="white" stroke="#666666" points="297,-115.64 233,-115.64 233,-95.64 297,-95.64 297,-115.64"/>
<text text-anchor="middle" x="265" y="-102.14" font-family="Helvetica,sans-Serif" font-size="10.00">Game::end</text>
</a>
</g>
</g>
<!-- Node1&#45;&gt;Node9 -->
<g id="edge12_Node000001_Node000009" class="edge">
<title>Node1&#45;&gt;Node9</title>
<g id="a_edge12_Node000001_Node000009"><a xlink:title=" ">
<path fill="none" stroke="#63b8ff" d="M741.76,-232.05C722.24,-221.93 696.03,-208.63 672.5,-197.64 593.84,-160.93 577.41,-140.91 493,-120.64 424.64,-104.23 341.6,-103.39 297.34,-104.4"/>
<polygon fill="#63b8ff" stroke="#63b8ff" points="740.03,-235.1 750.51,-236.61 743.26,-228.89 740.03,-235.1"/>
</a>
</g>
</g>
<!-- Node10 -->
<g id="Node000010" class="node">
<title>Node10</title>
<g id="a_Node000010"><a xlink:href="classGame.html#aef7682b8bf084aac3c8f929a6fd2f673" target="_top" xlink:title="Updates the game state.">
<polygon fill="white" stroke="#666666" points="164.38,-77.64 86.88,-77.64 86.88,-57.64 164.38,-57.64 164.38,-77.64"/>
<text text-anchor="middle" x="125.62" y="-64.14" font-family="Helvetica,sans-Serif" font-size="10.00">Game::update</text>
</a>
</g>
</g>
<!-- Node1&#45;&gt;Node10 -->
<g id="edge31_Node000001_Node000010" class="edge">
<title>Node1&#45;&gt;Node10</title>
<g id="a_edge31_Node000001_Node000010"><a xlink:title=" ">
<path fill="none" stroke="#63b8ff" d="M767.63,-226.01C759.14,-184.37 734.15,-93.76 672.5,-54.64 502.6,53.15 239.19,-26.73 154.12,-57.19"/>
<polygon fill="#63b8ff" stroke="#63b8ff" points="764.18,-226.59 769.48,-235.76 771.05,-225.28 764.18,-226.59"/>
</a>
</g>
</g>
<!-- Node11 -->
<g id="Node000011" class="node">
<title>Node11</title>
<g id="a_Node000011"><a xlink:href="classGame.html#a66e2ecb02f046b0c17922a4255720e5a" target="_top" xlink:title="Ends the game on error.">
<polygon fill="white" stroke="#666666" points="467.12,-191.64 377.62,-191.64 377.62,-171.64 467.12,-171.64 467.12,-191.64"/>
<text text-anchor="middle" x="422.38" y="-178.14" font-family="Helvetica,sans-Serif" font-size="10.00">Game::endOnErr</text>
</a>
</g>
</g>
<!-- Node1&#45;&gt;Node11 -->
<g id="edge13_Node000001_Node000011" class="edge">
<title>Node1&#45;&gt;Node11</title>
<g id="a_edge13_Node000001_Node000011"><a xlink:title=" ">
<path fill="none" stroke="#63b8ff" d="M705.96,-235.04C694.8,-232.9 683.32,-230.7 672.5,-228.64 600.73,-214.98 517.28,-199.27 467.49,-189.92"/>
<polygon fill="#63b8ff" stroke="#63b8ff" points="705.02,-238.42 715.5,-236.87 706.34,-231.55 705.02,-238.42"/>
</a>
</g>
</g>
<!-- Node13 -->
<g id="Node000013" class="node">
<title>Node13</title>
<g id="a_Node000013"><a xlink:href="classGame.html#a1118c369ae5b2fe433aac540cb32d187" target="_top" xlink:title="Starts the game with a new map.">
<polygon fill="white" stroke="#666666" points="309,-324.64 221,-324.64 221,-304.64 309,-304.64 309,-324.64"/>
<text text-anchor="middle" x="265" y="-311.14" font-family="Helvetica,sans-Serif" font-size="10.00">Game::startNew</text>
</a>
</g>
</g>
<!-- Node1&#45;&gt;Node13 -->
<g id="edge30_Node000001_Node000013" class="edge">
<title>Node1&#45;&gt;Node13</title>
<g id="a_edge30_Node000001_Node000013"><a xlink:title=" ">
<path fill="none" stroke="#63b8ff" d="M759.79,-267.69C743.85,-293.01 712.53,-335.35 672.5,-352.64 541.63,-409.17 491.22,-382.16 351.75,-352.64 326.9,-347.38 300.49,-334.42 283.65,-325.1"/>
<polygon fill="#63b8ff" stroke="#63b8ff" points="762.68,-269.66 764.87,-259.3 756.7,-266.03 762.68,-269.66"/>
</a>
</g>
</g>
<!-- Node14 -->
<g id="Node000014" class="node">
<title>Node14</title>
<g id="a_Node000014"><a xlink:href="classWindow.html#a2238e5489102fe2a77e7898a07dc37b5" target="_top" xlink:title="Gets text input from the user.">
<polygon fill="white" stroke="#666666" points="647,-343.64 554.5,-343.64 554.5,-323.64 647,-323.64 647,-343.64"/>
<text text-anchor="middle" x="600.75" y="-330.14" font-family="Helvetica,sans-Serif" font-size="10.00">Window::getInput</text>
</a>
</g>
</g>
<!-- Node1&#45;&gt;Node14 -->
<g id="edge17_Node000001_Node000014" class="edge">
<title>Node1&#45;&gt;Node14</title>
<g id="a_edge17_Node000001_Node000014"><a xlink:title=" ">
<path fill="none" stroke="#63b8ff" d="M745.21,-264.01C725.58,-275.98 697.83,-292.22 672.5,-304.64 658.67,-311.42 642.85,-318.01 629.68,-323.19"/>
<polygon fill="#63b8ff" stroke="#63b8ff" points="746.98,-267.03 753.66,-258.81 743.31,-261.07 746.98,-267.03"/>
</a>
</g>
</g>
<!-- Node15 -->
<g id="Node000015" class="node">
<title>Node15</title>
<g id="a_Node000015"><a xlink:href="classGame.html#a4c2a7ead717a4c13f1ffddafd11e17c8" target="_top" xlink:title="Initializes the game, loading config, and the map.">
<polygon fill="white" stroke="#666666" points="477.25,-343.64 367.5,-343.64 367.5,-323.64 477.25,-323.64 477.25,-343.64"/>
<text text-anchor="middle" x="422.38" y="-330.14" font-family="Helvetica,sans-Serif" font-size="10.00">Game::initializeGame</text>
</a>
</g>
</g>
<!-- Node1&#45;&gt;Node15 -->
<g id="edge22_Node000001_Node000015" class="edge">
<title>Node1&#45;&gt;Node15</title>
<g id="a_edge22_Node000001_Node000015"><a xlink:title=" ">
<path fill="none" stroke="#63b8ff" d="M717.96,-260.84C648.63,-277.97 529.06,-307.52 465.68,-323.19"/>
<polygon fill="#63b8ff" stroke="#63b8ff" points="718.71,-264.26 727.58,-258.46 717.03,-257.47 718.71,-264.26"/>
</a>
</g>
</g>
<!-- Node16 -->
<g id="Node000016" class="node">
<title>Node16</title>
<g id="a_Node000016"><a xlink:href="classWindow.html#aba37c5e32e43d21a46968fd8ada1d327" target="_top" xlink:title="Prints the message to the current window.">
<polygon fill="white" stroke="#666666" points="658.62,-257.64 542.88,-257.64 542.88,-237.64 658.62,-237.64 658.62,-257.64"/>
<text text-anchor="middle" x="600.75" y="-244.14" font-family="Helvetica,sans-Serif" font-size="10.00">Window::printMessage</text>
</a>
</g>
</g>
<!-- Node1&#45;&gt;Node16 -->
<g id="edge23_Node000001_Node000016" class="edge">
<title>Node1&#45;&gt;Node16</title>
<g id="a_edge23_Node000001_Node000016"><a xlink:title=" ">
<path fill="none" stroke="#63b8ff" d="M696.74,-247.64C684.11,-247.64 671.18,-247.64 659.08,-247.64"/>
<polygon fill="#63b8ff" stroke="#63b8ff" points="696.7,-251.14 706.7,-247.64 696.7,-244.14 696.7,-251.14"/>
</a>
</g>
</g>
<!-- Node3 -->
<g id="Node000003" class="node">
<title>Node3</title>
<g id="a_Node000003"><a xlink:href="classWindow.html#a4fbacbbec283653b5500f881c1f7cd7f" target="_top" xlink:title="Draws the main menu.">
<polygon fill="white" stroke="#666666" points="473.5,-495.64 371.25,-495.64 371.25,-475.64 473.5,-475.64 473.5,-495.64"/>
<text text-anchor="middle" x="422.38" y="-482.14" font-family="Helvetica,sans-Serif" font-size="10.00">Window::drawMenu</text>
</a>
</g>
</g>
<!-- Node2&#45;&gt;Node3 -->
<g id="edge2_Node000002_Node000003" class="edge">
<title>Node2&#45;&gt;Node3</title>
<g id="a_edge2_Node000002_Node000003"><a xlink:title=" ">
<path fill="none" stroke="#63b8ff" d="M540.09,-460.49C517.88,-465.28 492.97,-470.65 471.88,-475.19"/>
<polygon fill="#63b8ff" stroke="#63b8ff" points="540.57,-463.97 549.61,-458.44 539.1,-457.13 540.57,-463.97"/>
</a>
</g>
</g>
<!-- Node7 -->
<g id="Node000007" class="node">
<title>Node7</title>
<g id="a_Node000007"><a xlink:href="classWindow.html#a56e7061bfcf6df5725b61e3f0399e865" target="_top" xlink:title="Gets the user choice from the main menu.">
<polygon fill="white" stroke="#666666" points="315.75,-438.64 214.25,-438.64 214.25,-418.64 315.75,-418.64 315.75,-438.64"/>
<text text-anchor="middle" x="265" y="-425.14" font-family="Helvetica,sans-Serif" font-size="10.00">Window::getChoice</text>
</a>
</g>
</g>
<!-- Node2&#45;&gt;Node7 -->
<g id="edge6_Node000002_Node000007" class="edge">
<title>Node2&#45;&gt;Node7</title>
<g id="a_edge6_Node000002_Node000007"><a xlink:title=" ">
<path fill="none" stroke="#63b8ff" d="M517.45,-442.96C454.4,-439.37 369.45,-434.53 316.21,-431.5"/>
<polygon fill="#63b8ff" stroke="#63b8ff" points="516.87,-446.43 527.05,-443.5 517.27,-439.44 516.87,-446.43"/>
</a>
</g>
</g>
<!-- Node4 -->
<g id="Node000004" class="node">
<title>Node4</title>
<g id="a_Node000004"><a xlink:href="classWindow.html#a4d8c7f316ef9e8a4488d00c430957c16" target="_top" xlink:title="Initializes ncurses window.">
<polygon fill="white" stroke="#666666" points="300,-485.64 230,-485.64 230,-465.64 300,-465.64 300,-485.64"/>
<text text-anchor="middle" x="265" y="-472.14" font-family="Helvetica,sans-Serif" font-size="10.00">Window::init</text>
</a>
</g>
</g>
<!-- Node3&#45;&gt;Node4 -->
<g id="edge3_Node000003_Node000004" class="edge">
<title>Node3&#45;&gt;Node4</title>
<g id="a_edge3_Node000003_Node000004"><a xlink:title=" ">
<path fill="none" stroke="#63b8ff" d="M359.62,-481.67C339.49,-480.37 317.88,-478.98 300.49,-477.86"/>
<polygon fill="#63b8ff" stroke="#63b8ff" points="359.21,-485.15 369.42,-482.3 359.66,-478.16 359.21,-485.15"/>
</a>
</g>
</g>
<!-- Node5 -->
<g id="Node000005" class="node">
<title>Node5</title>
<g id="a_Node000005"><a xlink:href="classGameManager.html#a8460b2f4f44c19dd405e4163fe6cb5cf" target="_top" xlink:title=" ">
<polygon fill="white" stroke="#666666" points="178.25,-400.64 73,-400.64 73,-380.64 178.25,-380.64 178.25,-400.64"/>
<text text-anchor="middle" x="125.62" y="-387.14" font-family="Helvetica,sans-Serif" font-size="10.00">GameManager::start</text>
</a>
</g>
</g>
<!-- Node4&#45;&gt;Node5 -->
<g id="edge4_Node000004_Node000005" class="edge">
<title>Node4&#45;&gt;Node5</title>
<g id="a_edge4_Node000004_Node000005"><a xlink:title=" ">
<path fill="none" stroke="#63b8ff" d="M235.22,-459.86C228.3,-455.95 220.97,-451.71 214.25,-447.64 188.48,-432.03 159.29,-412.7 141.95,-401.04"/>
<polygon fill="#63b8ff" stroke="#63b8ff" points="233.18,-462.73 243.61,-464.55 236.59,-456.61 233.18,-462.73"/>
</a>
</g>
</g>
<!-- Node6 -->
<g id="Node000006" class="node">
<title>Node6</title>
<g id="a_Node000006"><a xlink:href="main_8cpp.html#ae66f6b31b5ad750f1fe042a706a4e3d4" target="_top" xlink:title=" ">
<polygon fill="white" stroke="#666666" points="37,-400.64 0,-400.64 0,-380.64 37,-380.64 37,-400.64"/>
<text text-anchor="middle" x="18.5" y="-387.14" font-family="Helvetica,sans-Serif" font-size="10.00">main</text>
</a>
</g>
</g>
<!-- Node5&#45;&gt;Node6 -->
<g id="edge5_Node000005_Node000006" class="edge">
<title>Node5&#45;&gt;Node6</title>
<g id="a_edge5_Node000005_Node000006"><a xlink:title=" ">
<path fill="none" stroke="#63b8ff" d="M61.32,-390.64C52.47,-390.64 44.04,-390.64 37.1,-390.64"/>
<polygon fill="#63b8ff" stroke="#63b8ff" points="61.16,-394.14 71.16,-390.64 61.16,-387.14 61.16,-394.14"/>
</a>
</g>
</g>
<!-- Node7&#45;&gt;Node5 -->
<g id="edge7_Node000007_Node000005" class="edge">
<title>Node7&#45;&gt;Node5</title>
<g id="a_edge7_Node000007_Node000005"><a xlink:title=" ">
<path fill="none" stroke="#63b8ff" d="M215.39,-415.2C198.65,-410.56 180.15,-405.45 164.4,-401.09"/>
<polygon fill="#63b8ff" stroke="#63b8ff" points="214.07,-418.46 224.64,-417.75 215.93,-411.71 214.07,-418.46"/>
</a>
</g>
</g>
<!-- Node8&#45;&gt;Node9 -->
<g id="edge9_Node000008_Node000009" class="edge">
<title>Node8&#45;&gt;Node9</title>
<g id="a_edge9_Node000008_Node000009"><a xlink:title=" ">
<path fill="none" stroke="#63b8ff" d="M367.33,-80.86C343.96,-86.57 317.44,-93.06 297.39,-97.96"/>
<polygon fill="#63b8ff" stroke="#63b8ff" points="368.15,-84.26 377.04,-78.49 366.49,-77.46 368.15,-84.26"/>
</a>
</g>
</g>
<!-- Node8&#45;&gt;Node10 -->
<g id="edge11_Node000008_Node000010" class="edge">
<title>Node8&#45;&gt;Node10</title>
<g id="a_edge11_Node000008_Node000010"><a xlink:title=" ">
<path fill="none" stroke="#63b8ff" d="M340.32,-67.64C283.13,-67.64 209.09,-67.64 164.87,-67.64"/>
<polygon fill="#63b8ff" stroke="#63b8ff" points="340.01,-71.14 350.01,-67.64 340.01,-64.14 340.01,-71.14"/>
</a>
</g>
</g>
<!-- Node9&#45;&gt;Node10 -->
<g id="edge10_Node000009_Node000010" class="edge">
<title>Node9&#45;&gt;Node10</title>
<g id="a_edge10_Node000009_Node000010"><a xlink:title=" ">
<path fill="none" stroke="#63b8ff" d="M221.88,-93.99C203.58,-88.93 182.32,-83.05 164.53,-78.13"/>
<polygon fill="#63b8ff" stroke="#63b8ff" points="220.8,-97.32 231.37,-96.62 222.66,-90.58 220.8,-97.32"/>
</a>
</g>
</g>
<!-- Node11&#45;&gt;Node9 -->
<g id="edge14_Node000011_Node000009" class="edge">
<title>Node11&#45;&gt;Node9</title>
<g id="a_edge14_Node000011_Node000009"><a xlink:title=" ">
<path fill="none" stroke="#63b8ff" d="M375.62,-167.43C367.55,-164.49 359.31,-161.19 351.75,-157.64 325.74,-145.44 297.64,-127.37 280.94,-116.06"/>
<polygon fill="#63b8ff" stroke="#63b8ff" points="374.42,-170.72 385.02,-170.72 376.74,-164.12 374.42,-170.72"/>
</a>
</g>
</g>
<!-- Node12 -->
<g id="Node000012" class="node">
<title>Node12</title>
<g id="a_Node000012"><a xlink:href="classGame.html#a2a30c89761624ee64cd7acb147aaf89c" target="_top" xlink:title="Starts the game.">
<polygon fill="white" stroke="#666666" points="298.88,-229.64 231.12,-229.64 231.12,-209.64 298.88,-209.64 298.88,-229.64"/>
<text text-anchor="middle" x="265" y="-216.14" font-family="Helvetica,sans-Serif" font-size="10.00">Game::start</text>
</a>
</g>
</g>
<!-- Node11&#45;&gt;Node12 -->
<g id="edge15_Node000011_Node000012" class="edge">
<title>Node11&#45;&gt;Node12</title>
<g id="a_edge15_Node000011_Node000012"><a xlink:title=" ">
<path fill="none" stroke="#63b8ff" d="M367.34,-194.86C344.73,-200.39 319.17,-206.64 299.37,-211.48"/>
<polygon fill="#63b8ff" stroke="#63b8ff" points="368.15,-198.26 377.04,-192.49 366.49,-191.46 368.15,-198.26"/>
</a>
</g>
</g>
<!-- Node11&#45;&gt;Node13 -->
<g id="edge16_Node000011_Node000013" class="edge">
<title>Node11&#45;&gt;Node13</title>
<g id="a_edge16_Node000011_Node000013"><a xlink:title=" ">
<path fill="none" stroke="#63b8ff" d="M400.78,-199.27C367.91,-227.4 304.63,-281.57 278.14,-304.25"/>
<polygon fill="#63b8ff" stroke="#63b8ff" points="402.71,-202.22 408.03,-193.06 398.16,-196.91 402.71,-202.22"/>
</a>
</g>
</g>
<!-- Node14&#45;&gt;Node5 -->
<g id="edge21_Node000014_Node000005" class="edge">
<title>Node14&#45;&gt;Node5</title>
<g id="a_edge21_Node000014_Node000005"><a xlink:title=" ">
<path fill="none" stroke="#63b8ff" d="M543.23,-344.49C527.04,-347.39 509.36,-350.34 493,-352.64 381.39,-368.34 249.8,-380.44 178.64,-386.45"/>
<polygon fill="#63b8ff" stroke="#63b8ff" points="543.45,-348.01 552.66,-342.78 542.2,-341.12 543.45,-348.01"/>
</a>
</g>
</g>
<!-- Node14&#45;&gt;Node15 -->
<g id="edge18_Node000014_Node000015" class="edge">
<title>Node14&#45;&gt;Node15</title>
<g id="a_edge18_Node000014_Node000015"><a xlink:title=" ">
<path fill="none" stroke="#63b8ff" d="M543.02,-333.64C522.1,-333.64 498.46,-333.64 477.75,-333.64"/>
<polygon fill="#63b8ff" stroke="#63b8ff" points="542.82,-337.14 552.82,-333.64 542.82,-330.14 542.82,-337.14"/>
</a>
</g>
</g>
<!-- Node15&#45;&gt;Node12 -->
<g id="edge19_Node000015_Node000012" class="edge">
<title>Node15&#45;&gt;Node12</title>
<g id="a_edge19_Node000015_Node000012"><a xlink:title=" ">
<path fill="none" stroke="#63b8ff" d="M398.03,-316.52C365.26,-292.47 306.61,-249.44 279.92,-229.85"/>
<polygon fill="#63b8ff" stroke="#63b8ff" points="395.96,-319.33 406.09,-322.43 400.1,-313.69 395.96,-319.33"/>
</a>
</g>
</g>
<!-- Node15&#45;&gt;Node13 -->
<g id="edge20_Node000015_Node000013" class="edge">
<title>Node15&#45;&gt;Node13</title>
<g id="a_edge20_Node000015_Node000013"><a xlink:title=" ">
<path fill="none" stroke="#63b8ff" d="M355.76,-325.62C340.07,-323.7 323.7,-321.7 309.31,-319.94"/>
<polygon fill="#63b8ff" stroke="#63b8ff" points="355.18,-329.07 365.53,-326.81 356.03,-322.12 355.18,-329.07"/>
</a>
</g>
</g>
<!-- Node16&#45;&gt;Node5 -->
<g id="edge27_Node000016_Node000005" class="edge">
<title>Node16&#45;&gt;Node5</title>
<g id="a_edge27_Node000016_Node000005"><a xlink:title=" ">
<path fill="none" stroke="#63b8ff" d="M531.22,-250.18C435.45,-254.73 267.38,-266.67 214.25,-295.64 176.03,-316.48 145.42,-360.29 132.83,-380.29"/>
<polygon fill="#63b8ff" stroke="#63b8ff" points="531.18,-253.68 541.01,-249.73 530.86,-246.69 531.18,-253.68"/>
</a>
</g>
</g>
<!-- Node16&#45;&gt;Node9 -->
<g id="edge24_Node000016_Node000009" class="edge">
<title>Node16&#45;&gt;Node9</title>
<g id="a_edge24_Node000016_Node000009"><a xlink:title=" ">
<path fill="none" stroke="#63b8ff" d="M581.76,-229.24C561.8,-209.87 527.81,-179.85 493,-162.64 458.58,-145.62 351.25,-122.66 297.43,-111.81"/>
<polygon fill="#63b8ff" stroke="#63b8ff" points="579.25,-231.68 588.81,-236.24 584.18,-226.71 579.25,-231.68"/>
</a>
</g>
</g>
<!-- Node16&#45;&gt;Node11 -->
<g id="edge25_Node000016_Node000011" class="edge">
<title>Node16&#45;&gt;Node11</title>
<g id="a_edge25_Node000016_Node000011"><a xlink:title=" ">
<path fill="none" stroke="#63b8ff" d="M563.48,-232.93C542.9,-224.69 516.6,-214.35 493,-205.64 480.52,-201.04 466.69,-196.22 454.67,-192.11"/>
<polygon fill="#63b8ff" stroke="#63b8ff" points="562,-236.1 572.58,-236.58 564.61,-229.61 562,-236.1"/>
</a>
</g>
</g>
<!-- Node16&#45;&gt;Node12 -->
<g id="edge28_Node000016_Node000012" class="edge">
<title>Node16&#45;&gt;Node12</title>
<g id="a_edge28_Node000016_Node000012"><a xlink:title=" ">
<path fill="none" stroke="#63b8ff" d="M530.92,-241.87C460.21,-235.93 353.1,-226.95 299.31,-222.44"/>
<polygon fill="#63b8ff" stroke="#63b8ff" points="530.61,-245.35 540.87,-242.7 531.2,-238.38 530.61,-245.35"/>
</a>
</g>
</g>
<!-- Node16&#45;&gt;Node13 -->
<g id="edge29_Node000016_Node000013" class="edge">
<title>Node16&#45;&gt;Node13</title>
<g id="a_edge29_Node000016_Node000013"><a xlink:title=" ">
<path fill="none" stroke="#63b8ff" d="M543.63,-260.63C527.32,-264.31 509.47,-268.23 493,-271.64 429.17,-284.86 354.91,-298.62 309.18,-306.91"/>
<polygon fill="#63b8ff" stroke="#63b8ff" points="544.18,-264.1 553.16,-258.48 542.63,-257.27 544.18,-264.1"/>
</a>
</g>
</g>
<!-- Node16&#45;&gt;Node15 -->
<g id="edge26_Node000016_Node000015" class="edge">
<title>Node16&#45;&gt;Node15</title>
<g id="a_edge26_Node000016_Node000015"><a xlink:title=" ">
<path fill="none" stroke="#63b8ff" d="M557.02,-262.31C547.47,-266.36 537.63,-271.16 529,-276.64 510.67,-288.27 511.65,-298.54 493,-309.64 483.66,-315.2 472.85,-319.71 462.57,-323.26"/>
<polygon fill="#63b8ff" stroke="#63b8ff" points="558.2,-265.61 566.18,-258.64 555.59,-259.11 558.2,-265.61"/>
</a>
</g>
</g>
</g>
</svg>
