<?xml version="1.0" encoding="UTF-8" standalone="no"?>
<!DOCTYPE svg PUBLIC "-//W3C//DTD SVG 1.1//EN"
 "http://www.w3.org/Graphics/SVG/1.1/DTD/svg11.dtd">
<!-- Generated by graphviz version 10.0.1 (0)
 -->
<!-- Title: Game::endOnErr Pages: 1 -->
<svg width="413pt" height="79pt"
 viewBox="0.00 0.00 413.00 79.22" xmlns="http://www.w3.org/2000/svg" xmlns:xlink="http://www.w3.org/1999/xlink">
<g id="graph0" class="graph" transform="scale(1 1) rotate(0) translate(4 75.22)">
<title>Game::endOnErr</title>
<!-- Node1 -->
<g id="Node000001" class="node">
<title>Node1</title>
<g id="a_Node000001"><a xlink:title="Ends the game on error.">
<polygon fill="#999999" stroke="#666666" points="89.5,-58 0,-58 0,-38 89.5,-38 89.5,-58"/>
<text text-anchor="middle" x="44.75" y="-44.5" font-family="Helvetica,sans-Serif" font-size="10.00">Game::endOnErr</text>
</a>
</g>
</g>
<!-- Node2 -->
<g id="Node000002" class="node">
<title>Node2</title>
<g id="a_Node000002"><a xlink:href="classWindow.html#a07c2b4d065cbcb397eafc1a27a337bb7" target="_top" xlink:title="Clears the current window.">
<polygon fill="white" stroke="#666666" points="405,-58 277.25,-58 277.25,-38 405,-38 405,-58"/>
<text text-anchor="middle" x="341.12" y="-44.5" font-family="Helvetica,sans-Serif" font-size="10.00">Window::clearCurrentWin</text>
</a>
</g>
</g>
<!-- Node1&#45;&gt;Node2 -->
<g id="edge1_Node000001_Node000002" class="edge">
<title>Node1&#45;&gt;Node2</title>
<g id="a_edge1_Node000001_Node000002"><a xlink:title=" ">
<path fill="none" stroke="#63b8ff" d="M81.56,-58.41C95.19,-61.88 110.94,-65.29 125.5,-67 176.59,-73 190.04,-71.88 241.25,-67 255.39,-65.65 270.52,-63.25 284.58,-60.59"/>
<polygon fill="#63b8ff" stroke="#63b8ff" points="284.97,-64.08 294.11,-58.71 283.62,-57.21 284.97,-64.08"/>
</a>
</g>
</g>
<!-- Node3 -->
<g id="Node000003" class="node">
<title>Node3</title>
<g id="a_Node000003"><a xlink:href="classMap.html#a7ded655c7db0e9d72816430b4f2c83a5" target="_top" xlink:title="Clears the map.">
<polygon fill="white" stroke="#666666" points="223.62,-58 143.12,-58 143.12,-38 223.62,-38 223.62,-58"/>
<text text-anchor="middle" x="183.38" y="-44.5" font-family="Helvetica,sans-Serif" font-size="10.00">Map::clearMap</text>
</a>
</g>
</g>
<!-- Node1&#45;&gt;Node3 -->
<g id="edge2_Node000001_Node000003" class="edge">
<title>Node1&#45;&gt;Node3</title>
<g id="a_edge2_Node000001_Node000003"><a xlink:title=" ">
<path fill="none" stroke="#63b8ff" d="M89.73,-48C103.02,-48 117.71,-48 131.42,-48"/>
<polygon fill="#63b8ff" stroke="#63b8ff" points="131.12,-51.5 141.12,-48 131.12,-44.5 131.12,-51.5"/>
</a>
</g>
</g>
<!-- Node4 -->
<g id="Node000004" class="node">
<title>Node4</title>
<g id="a_Node000004"><a xlink:href="classWindow.html#aba37c5e32e43d21a46968fd8ada1d327" target="_top" xlink:title="Prints the message to the current window.">
<polygon fill="white" stroke="#666666" points="241.25,-20 125.5,-20 125.5,0 241.25,0 241.25,-20"/>
<text text-anchor="middle" x="183.38" y="-6.5" font-family="Helvetica,sans-Serif" font-size="10.00">Window::printMessage</text>
</a>
</g>
</g>
<!-- Node1&#45;&gt;Node4 -->
<g id="edge3_Node000001_Node000004" class="edge">
<title>Node1&#45;&gt;Node4</title>
<g id="a_edge3_Node000001_Node000004"><a xlink:title=" ">
<path fill="none" stroke="#63b8ff" d="M83.45,-37.52C99.12,-33.15 117.52,-28.04 134.16,-23.41"/>
<polygon fill="#63b8ff" stroke="#63b8ff" points="134.65,-26.91 143.34,-20.86 132.77,-20.16 134.65,-26.91"/>
</a>
</g>
</g>
<!-- Node4&#45;&gt;Node2 -->
<g id="edge4_Node000004_Node000002" class="edge">
<title>Node4&#45;&gt;Node2</title>
<g id="a_edge4_Node000004_Node000002"><a xlink:title=" ">
<path fill="none" stroke="#63b8ff" d="M227.35,-20.48C245.56,-24.93 266.99,-30.16 286.25,-34.85"/>
<polygon fill="#63b8ff" stroke="#63b8ff" points="285.28,-38.22 295.82,-37.19 286.94,-31.42 285.28,-38.22"/>
</a>
</g>
</g>
</g>
</svg>
