<?xml version="1.0" encoding="UTF-8" standalone="no"?>
<!DOCTYPE svg PUBLIC "-//W3C//DTD SVG 1.1//EN"
 "http://www.w3.org/Graphics/SVG/1.1/DTD/svg11.dtd">
<!-- Generated by graphviz version 2.43.0 (0)
 -->
<!-- Title: Window::printUI Pages: 1 -->
<svg width="510pt" height="142pt"
 viewBox="0.00 0.00 510.00 142.00" xmlns="http://www.w3.org/2000/svg" xmlns:xlink="http://www.w3.org/1999/xlink">
<g id="graph0" class="graph" transform="scale(1 1) rotate(0) translate(4 138)">
<title>Window::printUI</title>
<polygon fill="white" stroke="transparent" points="-4,4 -4,-138 506,-138 506,4 -4,4"/>
<!-- Node1 -->
<g id="node1" class="node">
<title>Node1</title>
<g id="a_node1"><a xlink:title="Prints the game UI.">
<polygon fill="#bfbfbf" stroke="black" points="408,-0.5 408,-19.5 502,-19.5 502,-0.5 408,-0.5"/>
<text text-anchor="middle" x="455" y="-7.5" font-family="Helvetica,sans-Serif" font-size="10.00">Window::printUI</text>
</a>
</g>
</g>
<!-- Node2 -->
<g id="node2" class="node">
<title>Node2</title>
<g id="a_node2"><a xlink:href="classGame.html#a6d54497ce3a66f6dd45eacfdccc8d0bd" target="_top" xlink:title="Draws the game.">
<polygon fill="white" stroke="black" points="296,-38.5 296,-57.5 372,-57.5 372,-38.5 296,-38.5"/>
<text text-anchor="middle" x="334" y="-45.5" font-family="Helvetica,sans-Serif" font-size="10.00">Game::draw</text>
</a>
</g>
</g>
<!-- Node1&#45;&gt;Node2 -->
<g id="edge1" class="edge">
<title>Node1&#45;&gt;Node2</title>
<path fill="none" stroke="midnightblue" d="M414.29,-22.68C398.21,-27.81 379.96,-33.64 365.02,-38.41"/>
<polygon fill="midnightblue" stroke="midnightblue" points="415.51,-25.97 423.97,-19.59 413.38,-19.3 415.51,-25.97"/>
</g>
<!-- Node7 -->
<g id="node7" class="node">
<title>Node7</title>
<g id="a_node7"><a xlink:href="classGame.html#aef7682b8bf084aac3c8f929a6fd2f673" target="_top" xlink:title="Updates the game state.">
<polygon fill="white" stroke="black" points="5,-19.5 5,-38.5 91,-38.5 91,-19.5 5,-19.5"/>
<text text-anchor="middle" x="48" y="-26.5" font-family="Helvetica,sans-Serif" font-size="10.00">Game::update</text>
</a>
</g>
</g>
<!-- Node1&#45;&gt;Node7 -->
<g id="edge8" class="edge">
<title>Node1&#45;&gt;Node7</title>
<path fill="none" stroke="midnightblue" d="M397.78,-12.64C315.56,-16.49 164.36,-23.59 91.05,-27.03"/>
<polygon fill="midnightblue" stroke="midnightblue" points="398.11,-16.13 407.94,-12.16 397.78,-9.13 398.11,-16.13"/>
</g>
<!-- Node3 -->
<g id="node3" class="node">
<title>Node3</title>
<g id="a_node3"><a xlink:href="classGame.html#a4c2a7ead717a4c13f1ffddafd11e17c8" target="_top" xlink:title="Initializes the game, loading config, and the map.">
<polygon fill="white" stroke="black" points="134.5,-95.5 134.5,-114.5 257.5,-114.5 257.5,-95.5 134.5,-95.5"/>
<text text-anchor="middle" x="196" y="-102.5" font-family="Helvetica,sans-Serif" font-size="10.00">Game::initializeGame</text>
</a>
</g>
</g>
<!-- Node2&#45;&gt;Node3 -->
<g id="edge2" class="edge">
<title>Node2&#45;&gt;Node3</title>
<path fill="none" stroke="midnightblue" d="M307.98,-62.51C294.14,-70.15 276.45,-79.31 260,-86 251.32,-89.53 241.74,-92.75 232.72,-95.49"/>
<polygon fill="midnightblue" stroke="midnightblue" points="309.89,-65.45 316.89,-57.5 306.46,-59.35 309.89,-65.45"/>
</g>
<!-- Node6 -->
<g id="node6" class="node">
<title>Node6</title>
<g id="a_node6"><a xlink:href="classGame.html#a127294d56e1c963bf1a12d2b95a7a0c3" target="_top" xlink:title="Returns all moving objects to their starting positions.">
<polygon fill="white" stroke="black" points="132,-57.5 132,-76.5 260,-76.5 260,-57.5 132,-57.5"/>
<text text-anchor="middle" x="196" y="-64.5" font-family="Helvetica,sans-Serif" font-size="10.00">Game::returnAllToStart</text>
</a>
</g>
</g>
<!-- Node2&#45;&gt;Node6 -->
<g id="edge5" class="edge">
<title>Node2&#45;&gt;Node6</title>
<path fill="none" stroke="midnightblue" d="M285.91,-54.58C277.55,-55.75 268.73,-56.98 260.01,-58.2"/>
<polygon fill="midnightblue" stroke="midnightblue" points="286.42,-58.04 295.84,-53.19 285.45,-51.11 286.42,-58.04"/>
</g>
<!-- Node2&#45;&gt;Node7 -->
<g id="edge7" class="edge">
<title>Node2&#45;&gt;Node7</title>
<path fill="none" stroke="midnightblue" d="M285.82,-44.84C231.57,-41.21 143.3,-35.31 91.23,-31.82"/>
<polygon fill="midnightblue" stroke="midnightblue" points="285.66,-48.34 295.87,-45.52 286.13,-41.36 285.66,-48.34"/>
</g>
<!-- Node4 -->
<g id="node4" class="node">
<title>Node4</title>
<g id="a_node4"><a xlink:href="classGame.html#a2a30c89761624ee64cd7acb147aaf89c" target="_top" xlink:title="Starts the game.">
<polygon fill="white" stroke="black" points="11,-114.5 11,-133.5 85,-133.5 85,-114.5 11,-114.5"/>
<text text-anchor="middle" x="48" y="-121.5" font-family="Helvetica,sans-Serif" font-size="10.00">Game::start</text>
</a>
</g>
</g>
<!-- Node3&#45;&gt;Node4 -->
<g id="edge3" class="edge">
<title>Node3&#45;&gt;Node4</title>
<path fill="none" stroke="midnightblue" d="M124.05,-114.23C110.52,-115.99 96.9,-117.77 85.04,-119.31"/>
<polygon fill="midnightblue" stroke="midnightblue" points="124.89,-117.65 134.35,-112.89 123.98,-110.71 124.89,-117.65"/>
</g>
<!-- Node5 -->
<g id="node5" class="node">
<title>Node5</title>
<g id="a_node5"><a xlink:href="classGame.html#a1118c369ae5b2fe433aac540cb32d187" target="_top" xlink:title="Starts the game with a new map.">
<polygon fill="white" stroke="black" points="0,-76.5 0,-95.5 96,-95.5 96,-76.5 0,-76.5"/>
<text text-anchor="middle" x="48" y="-83.5" font-family="Helvetica,sans-Serif" font-size="10.00">Game::startNew</text>
</a>
</g>
</g>
<!-- Node3&#45;&gt;Node5 -->
<g id="edge4" class="edge">
<title>Node3&#45;&gt;Node5</title>
<path fill="none" stroke="midnightblue" d="M124.16,-95.78C114.72,-94.55 105.23,-93.32 96.33,-92.16"/>
<polygon fill="midnightblue" stroke="midnightblue" points="123.98,-99.29 134.35,-97.11 124.89,-92.35 123.98,-99.29"/>
</g>
<!-- Node6&#45;&gt;Node7 -->
<g id="edge6" class="edge">
<title>Node6&#45;&gt;Node7</title>
<path fill="none" stroke="midnightblue" d="M148.46,-54.89C128.13,-49.6 104.63,-43.48 85.58,-38.52"/>
<polygon fill="midnightblue" stroke="midnightblue" points="147.6,-58.28 158.16,-57.41 149.36,-51.5 147.6,-58.28"/>
</g>
</g>
</svg>
