<?xml version="1.0" encoding="UTF-8" standalone="no"?>
<!DOCTYPE svg PUBLIC "-//W3C//DTD SVG 1.1//EN"
 "http://www.w3.org/Graphics/SVG/1.1/DTD/svg11.dtd">
<!-- Generated by graphviz version 2.43.0 (0)
 -->
<!-- Title: Window::displayLeaderboard Pages: 1 -->
<svg width="393pt" height="47pt"
 viewBox="0.00 0.00 393.00 47.00" xmlns="http://www.w3.org/2000/svg" xmlns:xlink="http://www.w3.org/1999/xlink">
<g id="graph0" class="graph" transform="scale(1 1) rotate(0) translate(4 43)">
<title>Window::displayLeaderboard</title>
<polygon fill="white" stroke="transparent" points="-4,4 -4,-43 389,-43 389,4 -4,4"/>
<!-- Node1 -->
<g id="node1" class="node">
<title>Node1</title>
<g id="a_node1"><a xlink:title="Displays the leaderboard.">
<polygon fill="#bfbfbf" stroke="black" points="228,-0.5 228,-19.5 385,-19.5 385,-0.5 228,-0.5"/>
<text text-anchor="middle" x="306.5" y="-7.5" font-family="Helvetica,sans-Serif" font-size="10.00">Window::displayLeaderboard</text>
</a>
</g>
</g>
<!-- Node2 -->
<g id="node2" class="node">
<title>Node2</title>
<g id="a_node2"><a xlink:href="classGame.html#aa2d938aa918268060e63980c7efd86f8" target="_top" xlink:title="Ends the game.">
<polygon fill="white" stroke="black" points="122,-19.5 122,-38.5 192,-38.5 192,-19.5 122,-19.5"/>
<text text-anchor="middle" x="157" y="-26.5" font-family="Helvetica,sans-Serif" font-size="10.00">Game::end</text>
</a>
</g>
</g>
<!-- Node1&#45;&gt;Node2 -->
<g id="edge1" class="edge">
<title>Node1&#45;&gt;Node2</title>
<path fill="none" stroke="midnightblue" d="M221.13,-20.87C211,-22.17 201.14,-23.44 192.35,-24.58"/>
<polygon fill="midnightblue" stroke="midnightblue" points="221.85,-24.3 231.32,-19.56 220.95,-17.36 221.85,-24.3"/>
</g>
<!-- Node3 -->
<g id="node3" class="node">
<title>Node3</title>
<g id="a_node3"><a xlink:href="classGame.html#aef7682b8bf084aac3c8f929a6fd2f673" target="_top" xlink:title="Updates the game state.">
<polygon fill="white" stroke="black" points="0,-0.5 0,-19.5 86,-19.5 86,-0.5 0,-0.5"/>
<text text-anchor="middle" x="43" y="-7.5" font-family="Helvetica,sans-Serif" font-size="10.00">Game::update</text>
</a>
</g>
</g>
<!-- Node1&#45;&gt;Node3 -->
<g id="edge3" class="edge">
<title>Node1&#45;&gt;Node3</title>
<path fill="none" stroke="midnightblue" d="M217.54,-10C173.23,-10 121.55,-10 86.18,-10"/>
<polygon fill="midnightblue" stroke="midnightblue" points="217.75,-13.5 227.75,-10 217.75,-6.5 217.75,-13.5"/>
</g>
<!-- Node2&#45;&gt;Node3 -->
<g id="edge2" class="edge">
<title>Node2&#45;&gt;Node3</title>
<path fill="none" stroke="midnightblue" d="M111.79,-21.5C103.4,-20.08 94.64,-18.59 86.31,-17.18"/>
<polygon fill="midnightblue" stroke="midnightblue" points="111.34,-24.97 121.79,-23.2 112.51,-18.07 111.34,-24.97"/>
</g>
</g>
</svg>
