<?xml version="1.0" encoding="UTF-8" standalone="no"?>
<!DOCTYPE svg PUBLIC "-//W3C//DTD SVG 1.1//EN"
 "http://www.w3.org/Graphics/SVG/1.1/DTD/svg11.dtd">
<!-- Generated by graphviz version 10.0.1 (0)
 -->
<!-- Title: Map::processMap Pages: 1 -->
<svg width="376pt" height="104pt"
 viewBox="0.00 0.00 375.50 104.00" xmlns="http://www.w3.org/2000/svg" xmlns:xlink="http://www.w3.org/1999/xlink">
<g id="graph0" class="graph" transform="scale(1 1) rotate(0) translate(4 100)">
<title>Map::processMap</title>
<!-- Node1 -->
<g id="Node000001" class="node">
<title>Node1</title>
<g id="a_Node000001"><a xlink:title="Helper function for validating map string.">
<polygon fill="#999999" stroke="#666666" points="94,-58 0,-58 0,-38 94,-38 94,-58"/>
<text text-anchor="middle" x="47" y="-44.5" font-family="Helvetica,sans-Serif" font-size="10.00">Map::processMap</text>
</a>
</g>
</g>
<!-- Node2 -->
<g id="Node000002" class="node">
<title>Node2</title>
<g id="a_Node000002"><a xlink:href="classMap.html#a41b623a0d503b94bf8412ca06296ae1f" target="_top" xlink:title="Helper function for finding crossroads.">
<polygon fill="white" stroke="#666666" points="237.5,-96 130.75,-96 130.75,-76 237.5,-76 237.5,-96"/>
<text text-anchor="middle" x="184.12" y="-82.5" font-family="Helvetica,sans-Serif" font-size="10.00">Map::findCrossroads</text>
</a>
</g>
</g>
<!-- Node1&#45;&gt;Node2 -->
<g id="edge1_Node000001_Node000002" class="edge">
<title>Node1&#45;&gt;Node2</title>
<g id="a_edge1_Node000001_Node000002"><a xlink:title=" ">
<path fill="none" stroke="#63b8ff" d="M85.28,-58.48C100.64,-62.8 118.63,-67.86 134.97,-72.46"/>
<polygon fill="#63b8ff" stroke="#63b8ff" points="133.93,-75.8 144.51,-75.14 135.83,-69.06 133.93,-75.8"/>
</a>
</g>
</g>
<!-- Node4 -->
<g id="Node000004" class="node">
<title>Node4</title>
<g id="a_Node000004"><a xlink:href="classMap.html#ae96ad32d3b1600cd41e4a1c3b6a30906" target="_top" xlink:title="Checks if the map is traversable from the given position.">
<polygon fill="white" stroke="#666666" points="238.25,-58 130,-58 130,-38 238.25,-38 238.25,-58"/>
<text text-anchor="middle" x="184.12" y="-44.5" font-family="Helvetica,sans-Serif" font-size="10.00">Map::traversableBFS</text>
</a>
</g>
</g>
<!-- Node1&#45;&gt;Node4 -->
<g id="edge3_Node000001_Node000004" class="edge">
<title>Node1&#45;&gt;Node4</title>
<g id="a_edge3_Node000001_Node000004"><a xlink:title=" ">
<path fill="none" stroke="#63b8ff" d="M94.12,-48C101.92,-48 110.14,-48 118.3,-48"/>
<polygon fill="#63b8ff" stroke="#63b8ff" points="118.25,-51.5 128.25,-48 118.25,-44.5 118.25,-51.5"/>
</a>
</g>
</g>
<!-- Node5 -->
<g id="Node000005" class="node">
<title>Node5</title>
<g id="a_Node000005"><a xlink:href="classMap.html#ad35b3432f383ea258d0ed06fe937c3b9" target="_top" xlink:title="Helper function for validating the map borders.">
<polygon fill="white" stroke="#666666" points="235.62,-20 132.62,-20 132.62,0 235.62,0 235.62,-20"/>
<text text-anchor="middle" x="184.12" y="-6.5" font-family="Helvetica,sans-Serif" font-size="10.00">Map::validateBorder</text>
</a>
</g>
</g>
<!-- Node1&#45;&gt;Node5 -->
<g id="edge4_Node000001_Node000005" class="edge">
<title>Node1&#45;&gt;Node5</title>
<g id="a_edge4_Node000001_Node000005"><a xlink:title=" ">
<path fill="none" stroke="#63b8ff" d="M85.28,-37.52C100.64,-33.2 118.63,-28.14 134.97,-23.54"/>
<polygon fill="#63b8ff" stroke="#63b8ff" points="135.83,-26.94 144.51,-20.86 133.93,-20.2 135.83,-26.94"/>
</a>
</g>
</g>
<!-- Node3 -->
<g id="Node000003" class="node">
<title>Node3</title>
<g id="a_Node000003"><a xlink:href="classMap.html#a7d8219ae1c1ff2f45f7e11c5d03dcdb7" target="_top" xlink:title="Checks if given coordinates are a crossroad.">
<polygon fill="white" stroke="#666666" points="367.5,-96 274.25,-96 274.25,-76 367.5,-76 367.5,-96"/>
<text text-anchor="middle" x="320.88" y="-82.5" font-family="Helvetica,sans-Serif" font-size="10.00">Map::isCrossroad</text>
</a>
</g>
</g>
<!-- Node2&#45;&gt;Node3 -->
<g id="edge2_Node000002_Node000003" class="edge">
<title>Node2&#45;&gt;Node3</title>
<g id="a_edge2_Node000002_Node000003"><a xlink:title=" ">
<path fill="none" stroke="#63b8ff" d="M238,-86C246.11,-86 254.53,-86 262.73,-86"/>
<polygon fill="#63b8ff" stroke="#63b8ff" points="262.63,-89.5 272.63,-86 262.63,-82.5 262.63,-89.5"/>
</a>
</g>
</g>
</g>
</svg>
