<?xml version="1.0" encoding="UTF-8" standalone="no"?>
<!DOCTYPE svg PUBLIC "-//W3C//DTD SVG 1.1//EN"
 "http://www.w3.org/Graphics/SVG/1.1/DTD/svg11.dtd">
<!-- Generated by graphviz version 10.0.1 (0)
 -->
<!-- Title: Window::printCharAt Pages: 1 -->
<svg width="496pt" height="137pt"
 viewBox="0.00 0.00 495.75 136.52" xmlns="http://www.w3.org/2000/svg" xmlns:xlink="http://www.w3.org/1999/xlink">
<g id="graph0" class="graph" transform="scale(1 1) rotate(0) translate(4 132.52)">
<title>Window::printCharAt</title>
<!-- Node1 -->
<g id="Node000001" class="node">
<title>Node1</title>
<g id="a_Node000001"><a xlink:title="Prints character at given position, default color.">
<polygon fill="#999999" stroke="#666666" points="487.75,-33.52 381,-33.52 381,-13.52 487.75,-13.52 487.75,-33.52"/>
<text text-anchor="middle" x="434.38" y="-20.02" font-family="Helvetica,sans-Serif" font-size="10.00">Window::printCharAt</text>
</a>
</g>
</g>
<!-- Node2 -->
<g id="Node000002" class="node">
<title>Node2</title>
<g id="a_Node000002"><a xlink:href="classGame.html#a6d54497ce3a66f6dd45eacfdccc8d0bd" target="_top" xlink:title="Draws the game.">
<polygon fill="white" stroke="#666666" points="345,-71.52 275.75,-71.52 275.75,-51.52 345,-51.52 345,-71.52"/>
<text text-anchor="middle" x="310.38" y="-58.02" font-family="Helvetica,sans-Serif" font-size="10.00">Game::draw</text>
</a>
</g>
</g>
<!-- Node1&#45;&gt;Node2 -->
<g id="edge1_Node000001_Node000002" class="edge">
<title>Node1&#45;&gt;Node2</title>
<g id="a_edge1_Node000001_Node000002"><a xlink:title=" ">
<path fill="none" stroke="#63b8ff" d="M388.93,-37.37C374.4,-41.89 358.51,-46.84 344.93,-51.07"/>
<polygon fill="#63b8ff" stroke="#63b8ff" points="389.76,-40.77 398.27,-34.46 387.68,-34.09 389.76,-40.77"/>
</a>
</g>
</g>
<!-- Node6 -->
<g id="Node000006" class="node">
<title>Node6</title>
<g id="a_Node000006"><a xlink:href="classGame.html#a127294d56e1c963bf1a12d2b95a7a0c3" target="_top" xlink:title="Returns all moving objects to their starting positions.">
<polygon fill="white" stroke="#666666" points="239.75,-33.52 124,-33.52 124,-13.52 239.75,-13.52 239.75,-33.52"/>
<text text-anchor="middle" x="181.88" y="-20.02" font-family="Helvetica,sans-Serif" font-size="10.00">Game::returnAllToStart</text>
</a>
</g>
</g>
<!-- Node1&#45;&gt;Node6 -->
<g id="edge8_Node000001_Node000006" class="edge">
<title>Node1&#45;&gt;Node6</title>
<g id="a_edge8_Node000001_Node000006"><a xlink:title=" ">
<path fill="none" stroke="#63b8ff" d="M369.09,-23.52C329.22,-23.52 278.44,-23.52 239.98,-23.52"/>
<polygon fill="#63b8ff" stroke="#63b8ff" points="369.04,-27.02 379.04,-23.52 369.04,-20.02 369.04,-27.02"/>
</a>
</g>
</g>
<!-- Node7 -->
<g id="Node000007" class="node">
<title>Node7</title>
<g id="a_Node000007"><a xlink:href="classGame.html#aef7682b8bf084aac3c8f929a6fd2f673" target="_top" xlink:title="Updates the game state.">
<polygon fill="white" stroke="#666666" points="82.75,-33.52 5.25,-33.52 5.25,-13.52 82.75,-13.52 82.75,-33.52"/>
<text text-anchor="middle" x="44" y="-20.02" font-family="Helvetica,sans-Serif" font-size="10.00">Game::update</text>
</a>
</g>
</g>
<!-- Node1&#45;&gt;Node7 -->
<g id="edge9_Node000001_Node000007" class="edge">
<title>Node1&#45;&gt;Node7</title>
<g id="a_edge9_Node000001_Node000007"><a xlink:title=" ">
<path fill="none" stroke="#63b8ff" d="M369.38,-12.93C306.68,-4.12 208.52,5.5 124,-4.52 109.57,-6.23 93.96,-9.64 80.46,-13.11"/>
<polygon fill="#63b8ff" stroke="#63b8ff" points="368.77,-16.38 379.16,-14.34 369.77,-9.45 368.77,-16.38"/>
</a>
</g>
</g>
<!-- Node3 -->
<g id="Node000003" class="node">
<title>Node3</title>
<g id="a_Node000003"><a xlink:href="classGame.html#a4c2a7ead717a4c13f1ffddafd11e17c8" target="_top" xlink:title="Initializes the game, loading config, and the map.">
<polygon fill="white" stroke="#666666" points="236.75,-109.52 127,-109.52 127,-89.52 236.75,-89.52 236.75,-109.52"/>
<text text-anchor="middle" x="181.88" y="-96.02" font-family="Helvetica,sans-Serif" font-size="10.00">Game::initializeGame</text>
</a>
</g>
</g>
<!-- Node2&#45;&gt;Node3 -->
<g id="edge2_Node000002_Node000003" class="edge">
<title>Node2&#45;&gt;Node3</title>
<g id="a_edge2_Node000002_Node000003"><a xlink:title=" ">
<path fill="none" stroke="#63b8ff" d="M264.61,-74.97C249.22,-79.59 232.23,-84.7 217.75,-89.05"/>
<polygon fill="#63b8ff" stroke="#63b8ff" points="265.46,-78.37 274.03,-72.14 263.44,-71.67 265.46,-78.37"/>
</a>
</g>
</g>
<!-- Node2&#45;&gt;Node6 -->
<g id="edge5_Node000002_Node000006" class="edge">
<title>Node2&#45;&gt;Node6</title>
<g id="a_edge5_Node000002_Node000006"><a xlink:title=" ">
<path fill="none" stroke="#63b8ff" d="M264.61,-48.08C249.22,-43.45 232.23,-38.35 217.75,-34"/>
<polygon fill="#63b8ff" stroke="#63b8ff" points="263.44,-51.38 274.03,-50.9 265.46,-44.68 263.44,-51.38"/>
</a>
</g>
</g>
<!-- Node2&#45;&gt;Node7 -->
<g id="edge7_Node000002_Node000007" class="edge">
<title>Node2&#45;&gt;Node7</title>
<g id="a_edge7_Node000002_Node000007"><a xlink:title=" ">
<path fill="none" stroke="#63b8ff" d="M264.26,-58.6C226.58,-55.75 171.54,-50.64 124,-42.52 110.51,-40.22 95.9,-36.94 82.96,-33.74"/>
<polygon fill="#63b8ff" stroke="#63b8ff" points="263.63,-62.06 273.85,-59.3 264.14,-55.08 263.63,-62.06"/>
</a>
</g>
</g>
<!-- Node4 -->
<g id="Node000004" class="node">
<title>Node4</title>
<g id="a_Node000004"><a xlink:href="classGame.html#a2a30c89761624ee64cd7acb147aaf89c" target="_top" xlink:title="Starts the game.">
<polygon fill="white" stroke="#666666" points="77.88,-128.52 10.12,-128.52 10.12,-108.52 77.88,-108.52 77.88,-128.52"/>
<text text-anchor="middle" x="44" y="-115.02" font-family="Helvetica,sans-Serif" font-size="10.00">Game::start</text>
</a>
</g>
</g>
<!-- Node3&#45;&gt;Node4 -->
<g id="edge3_Node000003_Node000004" class="edge">
<title>Node3&#45;&gt;Node4</title>
<g id="a_edge3_Node000003_Node000004"><a xlink:title=" ">
<path fill="none" stroke="#63b8ff" d="M115.49,-108.67C102.55,-110.48 89.48,-112.3 78.18,-113.88"/>
<polygon fill="#63b8ff" stroke="#63b8ff" points="115.87,-112.15 125.28,-107.3 114.9,-105.22 115.87,-112.15"/>
</a>
</g>
</g>
<!-- Node5 -->
<g id="Node000005" class="node">
<title>Node5</title>
<g id="a_Node000005"><a xlink:href="classGame.html#a1118c369ae5b2fe433aac540cb32d187" target="_top" xlink:title="Starts the game with a new map.">
<polygon fill="white" stroke="#666666" points="88,-90.52 0,-90.52 0,-70.52 88,-70.52 88,-90.52"/>
<text text-anchor="middle" x="44" y="-77.02" font-family="Helvetica,sans-Serif" font-size="10.00">Game::startNew</text>
</a>
</g>
</g>
<!-- Node3&#45;&gt;Node5 -->
<g id="edge4_Node000003_Node000005" class="edge">
<title>Node3&#45;&gt;Node5</title>
<g id="a_edge4_Node000003_Node000005"><a xlink:title=" ">
<path fill="none" stroke="#63b8ff" d="M115.62,-90.4C106.41,-89.11 97.12,-87.81 88.46,-86.6"/>
<polygon fill="#63b8ff" stroke="#63b8ff" points="114.9,-93.83 125.28,-91.75 115.87,-86.9 114.9,-93.83"/>
</a>
</g>
</g>
<!-- Node6&#45;&gt;Node7 -->
<g id="edge6_Node000006_Node000007" class="edge">
<title>Node6&#45;&gt;Node7</title>
<g id="a_edge6_Node000006_Node000007"><a xlink:title=" ">
<path fill="none" stroke="#63b8ff" d="M112.37,-23.52C102.36,-23.52 92.36,-23.52 83.24,-23.52"/>
<polygon fill="#63b8ff" stroke="#63b8ff" points="112.13,-27.02 122.13,-23.52 112.13,-20.02 112.13,-27.02"/>
</a>
</g>
</g>
</g>
</svg>
