<?xml version="1.0" encoding="UTF-8" standalone="no"?>
<!DOCTYPE svg PUBLIC "-//W3C//DTD SVG 1.1//EN"
 "http://www.w3.org/Graphics/SVG/1.1/DTD/svg11.dtd">
<!-- Generated by graphviz version 10.0.1 (0)
 -->
<!-- Title: MovingObject::setInvincible Pages: 1 -->
<svg width="339pt" height="154pt"
 viewBox="0.00 0.00 339.25 154.00" xmlns="http://www.w3.org/2000/svg" xmlns:xlink="http://www.w3.org/1999/xlink">
<g id="graph0" class="graph" transform="scale(1 1) rotate(0) translate(4 150)">
<title>MovingObject::setInvincible</title>
<!-- Node1 -->
<g id="Node000001" class="node">
<title>Node1</title>
<g id="a_Node000001"><a xlink:title="Sets the invincibility of the object.">
<polygon fill="#999999" stroke="#666666" points="331.25,-80 194.5,-80 194.5,-60 331.25,-60 331.25,-80"/>
<text text-anchor="middle" x="262.88" y="-66.5" font-family="Helvetica,sans-Serif" font-size="10.00">MovingObject::setInvincible</text>
</a>
</g>
</g>
<!-- Node2 -->
<g id="Node000002" class="node">
<title>Node2</title>
<g id="a_Node000002"><a xlink:href="structChaseBehavior.html#a8d61f5095bcec808c915637ece4a1f31" target="_top" xlink:title="Handles the behavior of the enemy when changing the game phase.">
<polygon fill="white" stroke="#666666" points="157,-146 1.5,-146 1.5,-126 157,-126 157,-146"/>
<text text-anchor="middle" x="79.25" y="-132.5" font-family="Helvetica,sans-Serif" font-size="10.00">ChaseBehavior::handleBehavior</text>
</a>
</g>
</g>
<!-- Node1&#45;&gt;Node2 -->
<g id="edge1_Node000001_Node000002" class="edge">
<title>Node1&#45;&gt;Node2</title>
<g id="a_edge1_Node000001_Node000002"><a xlink:title=" ">
<path fill="none" stroke="#63b8ff" d="M231.94,-85.43C211.63,-95.44 183.93,-108.22 158.5,-117 149.25,-120.19 139.21,-123.06 129.5,-125.54"/>
<polygon fill="#63b8ff" stroke="#63b8ff" points="233.4,-88.61 240.77,-81.01 230.27,-82.35 233.4,-88.61"/>
</a>
</g>
</g>
<!-- Node3 -->
<g id="Node000003" class="node">
<title>Node3</title>
<g id="a_Node000003"><a xlink:href="structFrightenedBehavior.html#ab92da9144a40747698da6f7c8476aabd" target="_top" xlink:title="Handles the behavior of the enemy when changing the game phase.">
<polygon fill="white" stroke="#666666" points="129.25,-108 29.25,-108 29.25,-76 129.25,-76 129.25,-108"/>
<text text-anchor="start" x="37.25" y="-94.5" font-family="Helvetica,sans-Serif" font-size="10.00">FrightenedBehavior</text>
<text text-anchor="middle" x="79.25" y="-82.5" font-family="Helvetica,sans-Serif" font-size="10.00">::handleBehavior</text>
</a>
</g>
</g>
<!-- Node1&#45;&gt;Node3 -->
<g id="edge2_Node000001_Node000003" class="edge">
<title>Node1&#45;&gt;Node3</title>
<g id="a_edge2_Node000001_Node000003"><a xlink:title=" ">
<path fill="none" stroke="#63b8ff" d="M183.03,-79.55C164.84,-81.75 146,-84.04 129.49,-86.04"/>
<polygon fill="#63b8ff" stroke="#63b8ff" points="183.24,-83.05 192.74,-78.37 182.39,-76.1 183.24,-83.05"/>
</a>
</g>
</g>
<!-- Node4 -->
<g id="Node000004" class="node">
<title>Node4</title>
<g id="a_Node000004"><a xlink:href="structScatterBehavior.html#a71bec433e6f46246abc648cc14a0a9af" target="_top" xlink:title="Handles the behavior of the enemy when changing the game phase.">
<polygon fill="white" stroke="#666666" points="158.5,-58 0,-58 0,-38 158.5,-38 158.5,-58"/>
<text text-anchor="middle" x="79.25" y="-44.5" font-family="Helvetica,sans-Serif" font-size="10.00">ScatterBehavior::handleBehavior</text>
</a>
</g>
</g>
<!-- Node1&#45;&gt;Node4 -->
<g id="edge3_Node000001_Node000004" class="edge">
<title>Node1&#45;&gt;Node4</title>
<g id="a_edge3_Node000001_Node000004"><a xlink:title=" ">
<path fill="none" stroke="#63b8ff" d="M183.06,-60.45C175.07,-59.49 166.95,-58.5 158.96,-57.53"/>
<polygon fill="#63b8ff" stroke="#63b8ff" points="182.39,-63.9 192.74,-61.63 183.24,-56.95 182.39,-63.9"/>
</a>
</g>
</g>
<!-- Node5 -->
<g id="Node000005" class="node">
<title>Node5</title>
<g id="a_Node000005"><a xlink:href="classPlayer.html#abc005b0707ae63f395b33d79a876a453" target="_top" xlink:title="Updates the object.">
<polygon fill="white" stroke="#666666" points="118.75,-20 39.75,-20 39.75,0 118.75,0 118.75,-20"/>
<text text-anchor="middle" x="79.25" y="-6.5" font-family="Helvetica,sans-Serif" font-size="10.00">Player::update</text>
</a>
</g>
</g>
<!-- Node1&#45;&gt;Node5 -->
<g id="edge4_Node000001_Node000005" class="edge">
<title>Node1&#45;&gt;Node5</title>
<g id="a_edge4_Node000001_Node000005"><a xlink:title=" ">
<path fill="none" stroke="#63b8ff" d="M227.97,-55.17C208,-46.78 182.1,-36.5 158.5,-29 145.84,-24.98 131.8,-21.32 119.15,-18.32"/>
<polygon fill="#63b8ff" stroke="#63b8ff" points="226.44,-58.32 237.01,-59.01 229.17,-51.88 226.44,-58.32"/>
</a>
</g>
</g>
</g>
</svg>
