<?xml version="1.0" encoding="UTF-8" standalone="no"?>
<!DOCTYPE svg PUBLIC "-//W3C//DTD SVG 1.1//EN"
 "http://www.w3.org/Graphics/SVG/1.1/DTD/svg11.dtd">
<!-- Generated by graphviz version 2.43.0 (0)
 -->
<!-- Title: Game::updatePhaseTimer Pages: 1 -->
<svg width="526pt" height="246pt"
 viewBox="0.00 0.00 526.00 245.75" xmlns="http://www.w3.org/2000/svg" xmlns:xlink="http://www.w3.org/1999/xlink">
<g id="graph0" class="graph" transform="scale(1 1) rotate(0) translate(4 241.75)">
<title>Game::updatePhaseTimer</title>
<polygon fill="white" stroke="transparent" points="-4,4 -4,-241.75 522,-241.75 522,4 -4,4"/>
<!-- Node1 -->
<g id="node1" class="node">
<title>Node1</title>
<g id="a_node1"><a xlink:title="Updates the game phase timer.">
<polygon fill="#bfbfbf" stroke="black" points="0,-104.25 0,-123.25 143,-123.25 143,-104.25 0,-104.25"/>
<text text-anchor="middle" x="71.5" y="-111.25" font-family="Helvetica,sans-Serif" font-size="10.00">Game::updatePhaseTimer</text>
</a>
</g>
</g>
<!-- Node2 -->
<g id="node2" class="node">
<title>Node2</title>
<g id="a_node2"><a xlink:href="classGamePhase.html#a08886782a8b53a487023035c20cd725b" target="_top" xlink:title="Adds time to the current phase.">
<polygon fill="white" stroke="black" points="179,-218.25 179,-237.25 332,-237.25 332,-218.25 179,-218.25"/>
<text text-anchor="middle" x="255.5" y="-225.25" font-family="Helvetica,sans-Serif" font-size="10.00">GamePhase::addPhaseTime</text>
</a>
</g>
</g>
<!-- Node1&#45;&gt;Node2 -->
<g id="edge1" class="edge">
<title>Node1&#45;&gt;Node2</title>
<path fill="none" stroke="midnightblue" d="M80.49,-123.5C96.86,-142.84 136.31,-186.12 179,-208.75 183.33,-211.04 187.94,-213.06 192.67,-214.85"/>
<polygon fill="midnightblue" stroke="midnightblue" points="191.9,-218.29 202.5,-218.19 194.16,-211.66 191.9,-218.29"/>
</g>
<!-- Node3 -->
<g id="node3" class="node">
<title>Node3</title>
<g id="a_node3"><a xlink:href="classGamePhase.html#a337c0a04d2c1d159ff9a98e99e11116a" target="_top" xlink:title="Returns the current level.">
<polygon fill="white" stroke="black" points="194,-180.25 194,-199.25 317,-199.25 317,-180.25 194,-180.25"/>
<text text-anchor="middle" x="255.5" y="-187.25" font-family="Helvetica,sans-Serif" font-size="10.00">GamePhase::getLevel</text>
</a>
</g>
</g>
<!-- Node1&#45;&gt;Node3 -->
<g id="edge2" class="edge">
<title>Node1&#45;&gt;Node3</title>
<path fill="none" stroke="midnightblue" d="M87.46,-123.28C107.57,-135.73 144.77,-157.51 179,-170.75 185.35,-173.2 192.13,-175.43 198.92,-177.42"/>
<polygon fill="midnightblue" stroke="midnightblue" points="198.25,-180.87 208.82,-180.17 200.12,-174.12 198.25,-180.87"/>
</g>
<!-- Node4 -->
<g id="node4" class="node">
<title>Node4</title>
<g id="a_node4"><a xlink:href="classGamePhase.html#a4e546a7d0a52cbd70612880d61e5f55c" target="_top" xlink:title="Returns the current game phase.">
<polygon fill="white" stroke="black" points="192.5,-142.25 192.5,-161.25 318.5,-161.25 318.5,-142.25 192.5,-142.25"/>
<text text-anchor="middle" x="255.5" y="-149.25" font-family="Helvetica,sans-Serif" font-size="10.00">GamePhase::getPhase</text>
</a>
</g>
</g>
<!-- Node1&#45;&gt;Node4 -->
<g id="edge3" class="edge">
<title>Node1&#45;&gt;Node4</title>
<path fill="none" stroke="midnightblue" d="M118.43,-123.34C142.88,-128.44 173.13,-134.76 198.9,-140.14"/>
<polygon fill="midnightblue" stroke="midnightblue" points="198.4,-143.61 208.9,-142.23 199.83,-136.76 198.4,-143.61"/>
</g>
<!-- Node5 -->
<g id="node5" class="node">
<title>Node5</title>
<g id="a_node5"><a xlink:href="classGamePhase.html#a03d6ddc222525f8321d4d65c683eedce" target="_top" xlink:title="Returns the time of the current phase.">
<polygon fill="white" stroke="black" points="180,-104.25 180,-123.25 331,-123.25 331,-104.25 180,-104.25"/>
<text text-anchor="middle" x="255.5" y="-111.25" font-family="Helvetica,sans-Serif" font-size="10.00">GamePhase::getPhaseTime</text>
</a>
</g>
</g>
<!-- Node1&#45;&gt;Node5 -->
<g id="edge4" class="edge">
<title>Node1&#45;&gt;Node5</title>
<path fill="none" stroke="midnightblue" d="M143.13,-113.75C151.74,-113.75 160.62,-113.75 169.42,-113.75"/>
<polygon fill="midnightblue" stroke="midnightblue" points="169.7,-117.25 179.7,-113.75 169.7,-110.25 169.7,-117.25"/>
</g>
<!-- Node6 -->
<g id="node6" class="node">
<title>Node6</title>
<g id="a_node6"><a xlink:href="classConfig.html#a62c7c2d485cb30374271dba0eafe63c8" target="_top" xlink:title="Gets any value from the config map.">
<polygon fill="white" stroke="black" points="207.5,-66.25 207.5,-85.25 303.5,-85.25 303.5,-66.25 207.5,-66.25"/>
<text text-anchor="middle" x="255.5" y="-73.25" font-family="Helvetica,sans-Serif" font-size="10.00">Config::getValue</text>
</a>
</g>
</g>
<!-- Node1&#45;&gt;Node6 -->
<g id="edge5" class="edge">
<title>Node1&#45;&gt;Node6</title>
<path fill="none" stroke="midnightblue" d="M118.43,-104.16C142.88,-99.05 173.13,-92.73 198.9,-87.35"/>
<polygon fill="midnightblue" stroke="midnightblue" points="199.83,-90.74 208.9,-85.27 198.4,-83.88 199.83,-90.74"/>
</g>
<!-- Node7 -->
<g id="node7" class="node">
<title>Node7</title>
<g id="a_node7"><a xlink:href="classGamePhase.html#af152a5e182080af728f34e66b29079c5" target="_top" xlink:title="Sets the current game phase.">
<polygon fill="white" stroke="black" points="193,-28.25 193,-47.25 318,-47.25 318,-28.25 193,-28.25"/>
<text text-anchor="middle" x="255.5" y="-35.25" font-family="Helvetica,sans-Serif" font-size="10.00">GamePhase::setPhase</text>
</a>
</g>
</g>
<!-- Node1&#45;&gt;Node7 -->
<g id="edge6" class="edge">
<title>Node1&#45;&gt;Node7</title>
<path fill="none" stroke="midnightblue" d="M87.46,-104.21C107.57,-91.76 144.77,-69.98 179,-56.75 185.35,-54.29 192.13,-52.06 198.92,-50.07"/>
<polygon fill="midnightblue" stroke="midnightblue" points="200.12,-53.37 208.82,-47.33 198.25,-46.63 200.12,-53.37"/>
</g>
<!-- Node8 -->
<g id="node8" class="node">
<title>Node8</title>
<g id="a_node8"><a xlink:href="classGamePhase.html#a097fcd119e1cce98533b731f7e6ae53d" target="_top" xlink:title="Sets the time of the current phase.">
<polygon fill="white" stroke="black" points="368,-9.25 368,-28.25 518,-28.25 518,-9.25 368,-9.25"/>
<text text-anchor="middle" x="443" y="-16.25" font-family="Helvetica,sans-Serif" font-size="10.00">GamePhase::setPhaseTime</text>
</a>
</g>
</g>
<!-- Node1&#45;&gt;Node8 -->
<g id="edge8" class="edge">
<title>Node1&#45;&gt;Node8</title>
<path fill="none" stroke="midnightblue" d="M79.36,-104.02C94.52,-83.49 133.16,-36.22 179,-18.75 246.74,7.08 331.61,0.87 386.32,-7.57"/>
<polygon fill="midnightblue" stroke="midnightblue" points="386.07,-11.08 396.5,-9.22 387.19,-4.17 386.07,-11.08"/>
</g>
<!-- Node7&#45;&gt;Node8 -->
<g id="edge7" class="edge">
<title>Node7&#45;&gt;Node8</title>
<path fill="none" stroke="midnightblue" d="M318.01,-31.45C330.7,-30.15 344.28,-28.76 357.62,-27.39"/>
<polygon fill="midnightblue" stroke="midnightblue" points="358.16,-30.85 367.75,-26.35 357.45,-23.89 358.16,-30.85"/>
</g>
</g>
</svg>
