<?xml version="1.0" encoding="UTF-8" standalone="no"?>
<!DOCTYPE svg PUBLIC "-//W3C//DTD SVG 1.1//EN"
 "http://www.w3.org/Graphics/SVG/1.1/DTD/svg11.dtd">
<!-- Generated by graphviz version 10.0.1 (0)
 -->
<!-- Title: GamePhase::setPhase Pages: 1 -->
<svg width="415pt" height="365pt"
 viewBox="0.00 0.00 415.25 364.90" xmlns="http://www.w3.org/2000/svg" xmlns:xlink="http://www.w3.org/1999/xlink">
<g id="graph0" class="graph" transform="scale(1 1) rotate(0) translate(4 360.9)">
<title>GamePhase::setPhase</title>
<!-- Node1 -->
<g id="Node000001" class="node">
<title>Node1</title>
<g id="a_Node000001"><a xlink:title="Sets the current game phase.">
<polygon fill="#999999" stroke="#666666" points="407.25,-191 290,-191 290,-171 407.25,-171 407.25,-191"/>
<text text-anchor="middle" x="348.62" y="-177.5" font-family="Helvetica,sans-Serif" font-size="10.00">GamePhase::setPhase</text>
</a>
</g>
</g>
<!-- Node2 -->
<g id="Node000002" class="node">
<title>Node2</title>
<g id="a_Node000002"><a xlink:href="classGame.html#a4c2a7ead717a4c13f1ffddafd11e17c8" target="_top" xlink:title="Initializes the game, loading config, and the map.">
<polygon fill="white" stroke="#666666" points="243.88,-324 134.12,-324 134.12,-304 243.88,-304 243.88,-324"/>
<text text-anchor="middle" x="189" y="-310.5" font-family="Helvetica,sans-Serif" font-size="10.00">Game::initializeGame</text>
</a>
</g>
</g>
<!-- Node1&#45;&gt;Node2 -->
<g id="edge1_Node000001_Node000002" class="edge">
<title>Node1&#45;&gt;Node2</title>
<g id="a_edge1_Node000001_Node000002"><a xlink:title=" ">
<path fill="none" stroke="#63b8ff" d="M335.25,-200.73C319.21,-224.85 289.09,-265.48 254,-290 246.02,-295.57 236.59,-300.04 227.45,-303.53"/>
<polygon fill="#63b8ff" stroke="#63b8ff" points="338.09,-202.78 340.59,-192.48 332.22,-198.97 338.09,-202.78"/>
</a>
</g>
</g>
<!-- Node3 -->
<g id="Node000003" class="node">
<title>Node3</title>
<g id="a_Node000003"><a xlink:href="classGame.html#a2a30c89761624ee64cd7acb147aaf89c" target="_top" xlink:title="Starts the game.">
<polygon fill="white" stroke="#666666" points="77.88,-352 10.12,-352 10.12,-332 77.88,-332 77.88,-352"/>
<text text-anchor="middle" x="44" y="-338.5" font-family="Helvetica,sans-Serif" font-size="10.00">Game::start</text>
</a>
</g>
</g>
<!-- Node1&#45;&gt;Node3 -->
<g id="edge9_Node000001_Node000003" class="edge">
<title>Node1&#45;&gt;Node3</title>
<g id="a_edge9_Node000001_Node000003"><a xlink:title=" ">
<path fill="none" stroke="#63b8ff" d="M341.77,-201.8C330.89,-236.11 303.97,-303.66 254,-333 199.19,-365.18 121.65,-357.57 78.07,-349.53"/>
<polygon fill="#63b8ff" stroke="#63b8ff" points="345,-203.21 344.53,-192.62 338.3,-201.19 345,-203.21"/>
</a>
</g>
</g>
<!-- Node4 -->
<g id="Node000004" class="node">
<title>Node4</title>
<g id="a_Node000004"><a xlink:href="classGame.html#a1118c369ae5b2fe433aac540cb32d187" target="_top" xlink:title="Starts the game with a new map.">
<polygon fill="white" stroke="#666666" points="88,-305 0,-305 0,-285 88,-285 88,-305"/>
<text text-anchor="middle" x="44" y="-291.5" font-family="Helvetica,sans-Serif" font-size="10.00">Game::startNew</text>
</a>
</g>
</g>
<!-- Node1&#45;&gt;Node4 -->
<g id="edge10_Node000001_Node000004" class="edge">
<title>Node1&#45;&gt;Node4</title>
<g id="a_edge10_Node000001_Node000004"><a xlink:title=" ">
<path fill="none" stroke="#63b8ff" d="M330.79,-199.2C313.34,-216.87 284.41,-243.02 254,-257 200.22,-281.72 131.72,-290.38 88.1,-293.4"/>
<polygon fill="#63b8ff" stroke="#63b8ff" points="332.93,-202.02 337.34,-192.38 327.89,-197.17 332.93,-202.02"/>
</a>
</g>
</g>
<!-- Node5 -->
<g id="Node000005" class="node">
<title>Node5</title>
<g id="a_Node000005"><a xlink:href="classCherry.html#aaf41373bb1fe88172648ce26bb54c5ec" target="_top" xlink:title="Interacts with another object.">
<polygon fill="white" stroke="#666666" points="240.88,-248 137.12,-248 137.12,-228 240.88,-228 240.88,-248"/>
<text text-anchor="middle" x="189" y="-234.5" font-family="Helvetica,sans-Serif" font-size="10.00">Cherry::interactWith</text>
</a>
</g>
</g>
<!-- Node1&#45;&gt;Node5 -->
<g id="edge4_Node000001_Node000005" class="edge">
<title>Node1&#45;&gt;Node5</title>
<g id="a_edge4_Node000001_Node000005"><a xlink:title=" ">
<path fill="none" stroke="#63b8ff" d="M313.28,-195.87C295.71,-203.24 273.88,-212.03 254,-219 245.47,-221.99 236.19,-224.92 227.42,-227.55"/>
<polygon fill="#63b8ff" stroke="#63b8ff" points="314.38,-199.2 322.23,-192.08 311.66,-192.76 314.38,-199.2"/>
</a>
</g>
</g>
<!-- Node6 -->
<g id="Node000006" class="node">
<title>Node6</title>
<g id="a_Node000006"><a xlink:href="classGhost.html#a835ab7beec9ae0515085e479fcd2b1c6" target="_top" xlink:title="Interacts with another object.">
<polygon fill="white" stroke="#666666" points="239.38,-210 138.62,-210 138.62,-190 239.38,-190 239.38,-210"/>
<text text-anchor="middle" x="189" y="-196.5" font-family="Helvetica,sans-Serif" font-size="10.00">Ghost::interactWith</text>
</a>
</g>
</g>
<!-- Node1&#45;&gt;Node6 -->
<g id="edge5_Node000001_Node000006" class="edge">
<title>Node1&#45;&gt;Node6</title>
<g id="a_edge5_Node000001_Node000006"><a xlink:title=" ">
<path fill="none" stroke="#63b8ff" d="M278.49,-189.33C265.45,-190.91 252.05,-192.52 239.74,-194"/>
<polygon fill="#63b8ff" stroke="#63b8ff" points="278.81,-192.82 288.32,-188.15 277.98,-185.87 278.81,-192.82"/>
</a>
</g>
</g>
<!-- Node7 -->
<g id="Node000007" class="node">
<title>Node7</title>
<g id="a_Node000007"><a xlink:href="classGame.html#a58272899c822e102edfee50a5547612f" target="_top" xlink:title="Moves the player in given direction.">
<polygon fill="white" stroke="#666666" points="239,-172 139,-172 139,-152 239,-152 239,-172"/>
<text text-anchor="middle" x="189" y="-158.5" font-family="Helvetica,sans-Serif" font-size="10.00">Game::movePlayer</text>
</a>
</g>
</g>
<!-- Node1&#45;&gt;Node7 -->
<g id="edge6_Node000001_Node000007" class="edge">
<title>Node1&#45;&gt;Node7</title>
<g id="a_edge6_Node000001_Node000007"><a xlink:title=" ">
<path fill="none" stroke="#63b8ff" d="M278.43,-172.66C265.32,-171.08 251.84,-169.45 239.49,-167.97"/>
<polygon fill="#63b8ff" stroke="#63b8ff" points="277.98,-176.13 288.32,-173.85 278.81,-169.18 277.98,-176.13"/>
</a>
</g>
</g>
<!-- Node8 -->
<g id="Node000008" class="node">
<title>Node8</title>
<g id="a_Node000008"><a xlink:href="classGamePhase.html#a6ebc97f0a4514c9d0689009a0e7bd48c" target="_top" xlink:title="Removes an item from the remaining items.">
<polygon fill="white" stroke="#666666" points="252.88,-134 125.12,-134 125.12,-114 252.88,-114 252.88,-134"/>
<text text-anchor="middle" x="189" y="-120.5" font-family="Helvetica,sans-Serif" font-size="10.00">GamePhase::removeItem</text>
</a>
</g>
</g>
<!-- Node1&#45;&gt;Node8 -->
<g id="edge7_Node000001_Node000008" class="edge">
<title>Node1&#45;&gt;Node8</title>
<g id="a_edge7_Node000001_Node000008"><a xlink:title=" ">
<path fill="none" stroke="#63b8ff" d="M313.28,-166.13C295.71,-158.76 273.88,-149.97 254,-143 245.47,-140.01 236.19,-137.08 227.42,-134.45"/>
<polygon fill="#63b8ff" stroke="#63b8ff" points="311.66,-169.24 322.23,-169.92 314.38,-162.8 311.66,-169.24"/>
</a>
</g>
</g>
<!-- Node9 -->
<g id="Node000009" class="node">
<title>Node9</title>
<g id="a_Node000009"><a xlink:href="classGame.html#aef7682b8bf084aac3c8f929a6fd2f673" target="_top" xlink:title="Updates the game state.">
<polygon fill="white" stroke="#666666" points="82.75,-96 5.25,-96 5.25,-76 82.75,-76 82.75,-96"/>
<text text-anchor="middle" x="44" y="-82.5" font-family="Helvetica,sans-Serif" font-size="10.00">Game::update</text>
</a>
</g>
</g>
<!-- Node1&#45;&gt;Node9 -->
<g id="edge12_Node000001_Node000009" class="edge">
<title>Node1&#45;&gt;Node9</title>
<g id="a_edge12_Node000001_Node000009"><a xlink:title=" ">
<path fill="none" stroke="#63b8ff" d="M331.32,-162.52C314.1,-144.39 285.17,-117.67 254,-105 197.81,-82.15 126.3,-80.98 83.17,-82.96"/>
<polygon fill="#63b8ff" stroke="#63b8ff" points="328.42,-164.53 337.76,-169.51 333.56,-159.79 328.42,-164.53"/>
</a>
</g>
</g>
<!-- Node10 -->
<g id="Node000010" class="node">
<title>Node10</title>
<g id="a_Node000010"><a xlink:href="classPlayer.html#abc005b0707ae63f395b33d79a876a453" target="_top" xlink:title="Updates the object.">
<polygon fill="white" stroke="#666666" points="228.5,-58 149.5,-58 149.5,-38 228.5,-38 228.5,-58"/>
<text text-anchor="middle" x="189" y="-44.5" font-family="Helvetica,sans-Serif" font-size="10.00">Player::update</text>
</a>
</g>
</g>
<!-- Node1&#45;&gt;Node10 -->
<g id="edge11_Node000001_Node000010" class="edge">
<title>Node1&#45;&gt;Node10</title>
<g id="a_edge11_Node000001_Node000010"><a xlink:title=" ">
<path fill="none" stroke="#63b8ff" d="M335.25,-161.27C319.21,-137.15 289.09,-96.52 254,-72 246.02,-66.43 236.59,-61.96 227.45,-58.47"/>
<polygon fill="#63b8ff" stroke="#63b8ff" points="332.22,-163.03 340.59,-169.52 338.09,-159.22 332.22,-163.03"/>
</a>
</g>
</g>
<!-- Node11 -->
<g id="Node000011" class="node">
<title>Node11</title>
<g id="a_Node000011"><a xlink:href="classGame.html#a9f8150e56d9f2c53d172ef0443630de7" target="_top" xlink:title="Updates the game phase timer.">
<polygon fill="white" stroke="#666666" points="254,-20 124,-20 124,0 254,0 254,-20"/>
<text text-anchor="middle" x="189" y="-6.5" font-family="Helvetica,sans-Serif" font-size="10.00">Game::updatePhaseTimer</text>
</a>
</g>
</g>
<!-- Node1&#45;&gt;Node11 -->
<g id="edge13_Node000001_Node000011" class="edge">
<title>Node1&#45;&gt;Node11</title>
<g id="a_edge13_Node000001_Node000011"><a xlink:title=" ">
<path fill="none" stroke="#63b8ff" d="M340.39,-160.11C327.94,-127.28 299.36,-63.75 254,-29 249.49,-25.55 244.36,-22.72 239.02,-20.4"/>
<polygon fill="#63b8ff" stroke="#63b8ff" points="337.02,-161.09 343.73,-169.29 343.6,-158.7 337.02,-161.09"/>
</a>
</g>
</g>
<!-- Node2&#45;&gt;Node3 -->
<g id="edge2_Node000002_Node000003" class="edge">
<title>Node2&#45;&gt;Node3</title>
<g id="a_edge2_Node000002_Node000003"><a xlink:title=" ">
<path fill="none" stroke="#63b8ff" d="M123.51,-326.63C107.91,-329.68 91.86,-332.83 78.36,-335.47"/>
<polygon fill="#63b8ff" stroke="#63b8ff" points="124.13,-330.07 133.27,-324.72 122.78,-323.2 124.13,-330.07"/>
</a>
</g>
</g>
<!-- Node2&#45;&gt;Node4 -->
<g id="edge3_Node000002_Node000004" class="edge">
<title>Node2&#45;&gt;Node4</title>
<g id="a_edge3_Node000002_Node000004"><a xlink:title=" ">
<path fill="none" stroke="#63b8ff" d="M122.87,-305.35C111.21,-303.8 99.32,-302.22 88.45,-300.77"/>
<polygon fill="#63b8ff" stroke="#63b8ff" points="122.06,-308.77 132.44,-306.62 122.99,-301.83 122.06,-308.77"/>
</a>
</g>
</g>
<!-- Node8&#45;&gt;Node9 -->
<g id="edge8_Node000008_Node000009" class="edge">
<title>Node8&#45;&gt;Node9</title>
<g id="a_edge8_Node000008_Node000009"><a xlink:title=" ">
<path fill="none" stroke="#63b8ff" d="M137.63,-110.61C119.61,-105.83 99.63,-100.52 82.85,-96.06"/>
<polygon fill="#63b8ff" stroke="#63b8ff" points="136.52,-113.94 147.08,-113.13 138.32,-107.18 136.52,-113.94"/>
</a>
</g>
</g>
<!-- Node11&#45;&gt;Node9 -->
<g id="edge14_Node000011_Node000009" class="edge">
<title>Node11&#45;&gt;Node9</title>
<g id="a_edge14_Node000011_Node000009"><a xlink:title=" ">
<path fill="none" stroke="#63b8ff" d="M134.9,-24.23C131.16,-25.7 127.49,-27.29 124,-29 98.04,-41.76 71.52,-62.9 56.76,-75.54"/>
<polygon fill="#63b8ff" stroke="#63b8ff" points="135.92,-27.58 144.15,-20.91 133.55,-20.99 135.92,-27.58"/>
</a>
</g>
</g>
</g>
</svg>
