<?xml version="1.0" encoding="UTF-8" standalone="no"?>
<!DOCTYPE svg PUBLIC "-//W3C//DTD SVG 1.1//EN"
 "http://www.w3.org/Graphics/SVG/1.1/DTD/svg11.dtd">
<!-- Generated by graphviz version 2.43.0 (0)
 -->
<!-- Title: Game::returnAllToStart Pages: 1 -->
<svg width="611pt" height="180pt"
 viewBox="0.00 0.00 611.00 180.00" xmlns="http://www.w3.org/2000/svg" xmlns:xlink="http://www.w3.org/1999/xlink">
<g id="graph0" class="graph" transform="scale(1 1) rotate(0) translate(4 176)">
<title>Game::returnAllToStart</title>
<polygon fill="white" stroke="transparent" points="-4,4 -4,-176 607,-176 607,4 -4,4"/>
<!-- Node1 -->
<g id="node1" class="node">
<title>Node1</title>
<g id="a_node1"><a xlink:title="Returns all moving objects to their starting positions.">
<polygon fill="#bfbfbf" stroke="black" points="0,-38.5 0,-57.5 128,-57.5 128,-38.5 0,-38.5"/>
<text text-anchor="middle" x="64" y="-45.5" font-family="Helvetica,sans-Serif" font-size="10.00">Game::returnAllToStart</text>
</a>
</g>
</g>
<!-- Node2 -->
<g id="node2" class="node">
<title>Node2</title>
<g id="a_node2"><a xlink:href="classGame.html#a6d54497ce3a66f6dd45eacfdccc8d0bd" target="_top" xlink:title="Draws the game.">
<polygon fill="white" stroke="black" points="164,-66.5 164,-85.5 240,-85.5 240,-66.5 164,-66.5"/>
<text text-anchor="middle" x="202" y="-73.5" font-family="Helvetica,sans-Serif" font-size="10.00">Game::draw</text>
</a>
</g>
</g>
<!-- Node1&#45;&gt;Node2 -->
<g id="edge1" class="edge">
<title>Node1&#45;&gt;Node2</title>
<path fill="none" stroke="midnightblue" d="M111.42,-57.56C125.04,-60.36 139.94,-63.43 153.61,-66.24"/>
<polygon fill="midnightblue" stroke="midnightblue" points="153.28,-69.75 163.78,-68.34 154.69,-62.89 153.28,-69.75"/>
</g>
<!-- Node5 -->
<g id="node5" class="node">
<title>Node5</title>
<g id="a_node5"><a xlink:href="classWindow.html#aaa279ff498c917ba2535b26e5f396c7c" target="_top" xlink:title="Prints character at given position, default color.">
<polygon fill="white" stroke="black" points="306.5,-0.5 306.5,-19.5 422.5,-19.5 422.5,-0.5 306.5,-0.5"/>
<text text-anchor="middle" x="364.5" y="-7.5" font-family="Helvetica,sans-Serif" font-size="10.00">Window::printCharAt</text>
</a>
</g>
</g>
<!-- Node1&#45;&gt;Node5 -->
<g id="edge9" class="edge">
<title>Node1&#45;&gt;Node5</title>
<path fill="none" stroke="midnightblue" d="M128.3,-39.94C177.62,-33.66 245.92,-24.97 296.22,-18.57"/>
<polygon fill="midnightblue" stroke="midnightblue" points="296.87,-22.01 306.34,-17.28 295.98,-15.07 296.87,-22.01"/>
</g>
<!-- Node3 -->
<g id="node3" class="node">
<title>Node3</title>
<g id="a_node3"><a xlink:href="classGamePhase.html#a337c0a04d2c1d159ff9a98e99e11116a" target="_top" xlink:title="Returns the current level.">
<polygon fill="white" stroke="black" points="303,-152.5 303,-171.5 426,-171.5 426,-152.5 303,-152.5"/>
<text text-anchor="middle" x="364.5" y="-159.5" font-family="Helvetica,sans-Serif" font-size="10.00">GamePhase::getLevel</text>
</a>
</g>
</g>
<!-- Node2&#45;&gt;Node3 -->
<g id="edge2" class="edge">
<title>Node2&#45;&gt;Node3</title>
<path fill="none" stroke="midnightblue" d="M210.8,-85.95C223.03,-100.81 248.2,-128.59 276,-143 281.3,-145.75 286.99,-148.1 292.82,-150.11"/>
<polygon fill="midnightblue" stroke="midnightblue" points="292.14,-153.57 302.73,-153.19 294.22,-146.88 292.14,-153.57"/>
</g>
<!-- Node4 -->
<g id="node4" class="node">
<title>Node4</title>
<g id="a_node4"><a xlink:href="classGamePhase.html#a1e01dd9cbefce12ad832102c3a9ed3a2" target="_top" xlink:title="Returns the number of remaining items.">
<polygon fill="white" stroke="black" points="276,-114.5 276,-133.5 453,-133.5 453,-114.5 276,-114.5"/>
<text text-anchor="middle" x="364.5" y="-121.5" font-family="Helvetica,sans-Serif" font-size="10.00">GamePhase::getRemainingItems</text>
</a>
</g>
</g>
<!-- Node2&#45;&gt;Node4 -->
<g id="edge3" class="edge">
<title>Node2&#45;&gt;Node4</title>
<path fill="none" stroke="midnightblue" d="M224.39,-85.58C238.77,-91.74 258.26,-99.59 276,-105 284.63,-107.63 293.84,-110.04 302.92,-112.21"/>
<polygon fill="midnightblue" stroke="midnightblue" points="302.17,-115.62 312.7,-114.45 303.74,-108.8 302.17,-115.62"/>
</g>
<!-- Node2&#45;&gt;Node5 -->
<g id="edge4" class="edge">
<title>Node2&#45;&gt;Node5</title>
<path fill="none" stroke="midnightblue" d="M217.26,-66.33C231.58,-56.98 254.54,-42.94 276,-34 286.8,-29.5 298.69,-25.59 310.14,-22.31"/>
<polygon fill="midnightblue" stroke="midnightblue" points="311.33,-25.61 320.04,-19.59 309.47,-18.86 311.33,-25.61"/>
</g>
<!-- Node6 -->
<g id="node6" class="node">
<title>Node6</title>
<g id="a_node6"><a xlink:href="classWindow.html#a7f8803b32163553cf314fa01b703c9a8" target="_top" xlink:title="Prints the game UI.">
<polygon fill="white" stroke="black" points="317.5,-76.5 317.5,-95.5 411.5,-95.5 411.5,-76.5 317.5,-76.5"/>
<text text-anchor="middle" x="364.5" y="-83.5" font-family="Helvetica,sans-Serif" font-size="10.00">Window::printUI</text>
</a>
</g>
</g>
<!-- Node2&#45;&gt;Node6 -->
<g id="edge5" class="edge">
<title>Node2&#45;&gt;Node6</title>
<path fill="none" stroke="midnightblue" d="M240.23,-78.32C260.14,-79.56 285.08,-81.11 307.3,-82.5"/>
<polygon fill="midnightblue" stroke="midnightblue" points="307.09,-85.99 317.29,-83.12 307.53,-79.01 307.09,-85.99"/>
</g>
<!-- Node8 -->
<g id="node8" class="node">
<title>Node8</title>
<g id="a_node8"><a xlink:href="classWindow.html#a3c38bfdaf7cb6ebcfdbcb40916a72bf7" target="_top" xlink:title="Refreshes the current window.">
<polygon fill="white" stroke="black" points="489,-38.5 489,-57.5 603,-57.5 603,-38.5 489,-38.5"/>
<text text-anchor="middle" x="546" y="-45.5" font-family="Helvetica,sans-Serif" font-size="10.00">Window::refreshWin</text>
</a>
</g>
</g>
<!-- Node2&#45;&gt;Node8 -->
<g id="edge8" class="edge">
<title>Node2&#45;&gt;Node8</title>
<path fill="none" stroke="midnightblue" d="M240.1,-71.05C251.59,-69.61 264.31,-68.13 276,-67 344.95,-60.32 424.06,-55.01 478.55,-51.73"/>
<polygon fill="midnightblue" stroke="midnightblue" points="479,-55.21 488.77,-51.12 478.58,-48.22 479,-55.21"/>
</g>
<!-- Node7 -->
<g id="node7" class="node">
<title>Node7</title>
<g id="a_node7"><a xlink:href="classWindow.html#aad6d9b11314512a7fbc775a3fef9ca1c" target="_top" xlink:title="Helper function for printing lives.">
<polygon fill="white" stroke="black" points="491.5,-76.5 491.5,-95.5 600.5,-95.5 600.5,-76.5 491.5,-76.5"/>
<text text-anchor="middle" x="546" y="-83.5" font-family="Helvetica,sans-Serif" font-size="10.00">Window::printLives</text>
</a>
</g>
</g>
<!-- Node6&#45;&gt;Node7 -->
<g id="edge6" class="edge">
<title>Node6&#45;&gt;Node7</title>
<path fill="none" stroke="midnightblue" d="M411.73,-86C432.9,-86 458.34,-86 481.29,-86"/>
<polygon fill="midnightblue" stroke="midnightblue" points="481.29,-89.5 491.29,-86 481.29,-82.5 481.29,-89.5"/>
</g>
<!-- Node6&#45;&gt;Node8 -->
<g id="edge7" class="edge">
<title>Node6&#45;&gt;Node8</title>
<path fill="none" stroke="midnightblue" d="M410.8,-76.41C434.91,-71.31 464.75,-64.99 490.17,-59.61"/>
<polygon fill="midnightblue" stroke="midnightblue" points="490.97,-63.02 500.03,-57.52 489.52,-56.17 490.97,-63.02"/>
</g>
</g>
</svg>
