<?xml version="1.0" encoding="UTF-8" standalone="no"?>
<!DOCTYPE svg PUBLIC "-//W3C//DTD SVG 1.1//EN"
 "http://www.w3.org/Graphics/SVG/1.1/DTD/svg11.dtd">
<!-- Generated by graphviz version 2.43.0 (0)
 -->
<!-- Title: GamePhase::getLevel Pages: 1 -->
<svg width="592pt" height="283pt"
 viewBox="0.00 0.00 592.00 282.63" xmlns="http://www.w3.org/2000/svg" xmlns:xlink="http://www.w3.org/1999/xlink">
<g id="graph0" class="graph" transform="scale(1 1) rotate(0) translate(4 278.63)">
<title>GamePhase::getLevel</title>
<polygon fill="white" stroke="transparent" points="-4,4 -4,-278.63 588,-278.63 588,4 -4,4"/>
<!-- Node1 -->
<g id="node1" class="node">
<title>Node1</title>
<g id="a_node1"><a xlink:title="Returns the current level.">
<polygon fill="#bfbfbf" stroke="black" points="461,-75.13 461,-94.13 584,-94.13 584,-75.13 461,-75.13"/>
<text text-anchor="middle" x="522.5" y="-82.13" font-family="Helvetica,sans-Serif" font-size="10.00">GamePhase::getLevel</text>
</a>
</g>
</g>
<!-- Node2 -->
<g id="node2" class="node">
<title>Node2</title>
<g id="a_node2"><a xlink:href="classGame.html#a6d54497ce3a66f6dd45eacfdccc8d0bd" target="_top" xlink:title="Draws the game.">
<polygon fill="white" stroke="black" points="330,-189.13 330,-208.13 406,-208.13 406,-189.13 330,-189.13"/>
<text text-anchor="middle" x="368" y="-196.13" font-family="Helvetica,sans-Serif" font-size="10.00">Game::draw</text>
</a>
</g>
</g>
<!-- Node1&#45;&gt;Node2 -->
<g id="edge1" class="edge">
<title>Node1&#45;&gt;Node2</title>
<path fill="none" stroke="midnightblue" d="M500.53,-100.3C468.53,-124.22 408.45,-169.14 382.03,-188.89"/>
<polygon fill="midnightblue" stroke="midnightblue" points="502.85,-102.94 508.76,-94.15 498.66,-97.33 502.85,-102.94"/>
</g>
<!-- Node7 -->
<g id="node7" class="node">
<title>Node7</title>
<g id="a_node7"><a xlink:href="classGame.html#aef7682b8bf084aac3c8f929a6fd2f673" target="_top" xlink:title="Updates the game state.">
<polygon fill="white" stroke="black" points="5,-160.13 5,-179.13 91,-179.13 91,-160.13 5,-160.13"/>
<text text-anchor="middle" x="48" y="-167.13" font-family="Helvetica,sans-Serif" font-size="10.00">Game::update</text>
</a>
</g>
</g>
<!-- Node1&#45;&gt;Node7 -->
<g id="edge11" class="edge">
<title>Node1&#45;&gt;Node7</title>
<path fill="none" stroke="midnightblue" d="M492.44,-98.29C473.61,-106.58 448.33,-116.68 425,-122.63 306.28,-152.91 161.28,-164.01 91.09,-167.81"/>
<polygon fill="midnightblue" stroke="midnightblue" points="493.97,-101.44 501.66,-94.15 491.1,-95.05 493.97,-101.44"/>
</g>
<!-- Node8 -->
<g id="node8" class="node">
<title>Node8</title>
<g id="a_node8"><a xlink:href="classCherry.html#aaf41373bb1fe88172648ce26bb54c5ec" target="_top" xlink:title="Interacts with another object.">
<polygon fill="white" stroke="black" points="311,-94.13 311,-113.13 425,-113.13 425,-94.13 311,-94.13"/>
<text text-anchor="middle" x="368" y="-101.13" font-family="Helvetica,sans-Serif" font-size="10.00">Cherry::interactWith</text>
</a>
</g>
</g>
<!-- Node1&#45;&gt;Node8 -->
<g id="edge8" class="edge">
<title>Node1&#45;&gt;Node8</title>
<path fill="none" stroke="midnightblue" d="M450.74,-93.44C442.12,-94.52 433.41,-95.6 425.05,-96.64"/>
<polygon fill="midnightblue" stroke="midnightblue" points="451.3,-96.9 460.79,-92.19 450.43,-89.95 451.3,-96.9"/>
</g>
<!-- Node9 -->
<g id="node9" class="node">
<title>Node9</title>
<g id="a_node9"><a xlink:href="classCoin.html#a9472e2fbcaf6af886dd1be6a99a912c5" target="_top" xlink:title="Interacts with another object.">
<polygon fill="white" stroke="black" points="316,-56.13 316,-75.13 420,-75.13 420,-56.13 316,-56.13"/>
<text text-anchor="middle" x="368" y="-63.13" font-family="Helvetica,sans-Serif" font-size="10.00">Coin::interactWith</text>
</a>
</g>
</g>
<!-- Node1&#45;&gt;Node9 -->
<g id="edge9" class="edge">
<title>Node1&#45;&gt;Node9</title>
<path fill="none" stroke="midnightblue" d="M450.6,-75.79C440.34,-74.52 429.95,-73.22 420.17,-72"/>
<polygon fill="midnightblue" stroke="midnightblue" points="450.43,-79.3 460.79,-77.06 451.3,-72.35 450.43,-79.3"/>
</g>
<!-- Node10 -->
<g id="node10" class="node">
<title>Node10</title>
<g id="a_node10"><a xlink:href="classGhost.html#a835ab7beec9ae0515085e479fcd2b1c6" target="_top" xlink:title="Interacts with another object.">
<polygon fill="white" stroke="black" points="312.5,-18.13 312.5,-37.13 423.5,-37.13 423.5,-18.13 312.5,-18.13"/>
<text text-anchor="middle" x="368" y="-25.13" font-family="Helvetica,sans-Serif" font-size="10.00">Ghost::interactWith</text>
</a>
</g>
</g>
<!-- Node1&#45;&gt;Node10 -->
<g id="edge10" class="edge">
<title>Node1&#45;&gt;Node10</title>
<path fill="none" stroke="midnightblue" d="M488.73,-71.27C470.13,-63.8 446.35,-54.45 425,-46.63 416.32,-43.45 406.83,-40.16 398.16,-37.22"/>
<polygon fill="midnightblue" stroke="midnightblue" points="487.64,-74.6 498.22,-75.1 490.25,-68.11 487.64,-74.6"/>
</g>
<!-- Node11 -->
<g id="node11" class="node">
<title>Node11</title>
<g id="a_node11"><a xlink:href="classGame.html#a9f8150e56d9f2c53d172ef0443630de7" target="_top" xlink:title="Updates the game phase timer.">
<polygon fill="white" stroke="black" points="132,-37.13 132,-56.13 275,-56.13 275,-37.13 132,-37.13"/>
<text text-anchor="middle" x="203.5" y="-44.13" font-family="Helvetica,sans-Serif" font-size="10.00">Game::updatePhaseTimer</text>
</a>
</g>
</g>
<!-- Node1&#45;&gt;Node11 -->
<g id="edge12" class="edge">
<title>Node1&#45;&gt;Node11</title>
<path fill="none" stroke="midnightblue" d="M506.63,-67.48C489.23,-48.86 458.53,-20.24 425,-8.63 353.24,16.24 262.49,-19.04 223.6,-37.1"/>
<polygon fill="midnightblue" stroke="midnightblue" points="504.13,-69.94 513.44,-75 509.32,-65.23 504.13,-69.94"/>
</g>
<!-- Node3 -->
<g id="node3" class="node">
<title>Node3</title>
<g id="a_node3"><a xlink:href="classGame.html#a4c2a7ead717a4c13f1ffddafd11e17c8" target="_top" xlink:title="Initializes the game, loading config, and the map.">
<polygon fill="white" stroke="black" points="142,-246.13 142,-265.13 265,-265.13 265,-246.13 142,-246.13"/>
<text text-anchor="middle" x="203.5" y="-253.13" font-family="Helvetica,sans-Serif" font-size="10.00">Game::initializeGame</text>
</a>
</g>
</g>
<!-- Node2&#45;&gt;Node3 -->
<g id="edge2" class="edge">
<title>Node2&#45;&gt;Node3</title>
<path fill="none" stroke="midnightblue" d="M336.81,-212.25C319.03,-219.98 295.99,-229.5 275,-236.63 264.92,-240.05 253.86,-243.28 243.56,-246.06"/>
<polygon fill="midnightblue" stroke="midnightblue" points="338.35,-215.39 346.1,-208.16 335.54,-208.98 338.35,-215.39"/>
</g>
<!-- Node6 -->
<g id="node6" class="node">
<title>Node6</title>
<g id="a_node6"><a xlink:href="classGame.html#a127294d56e1c963bf1a12d2b95a7a0c3" target="_top" xlink:title="Returns all moving objects to their starting positions.">
<polygon fill="white" stroke="black" points="139.5,-208.13 139.5,-227.13 267.5,-227.13 267.5,-208.13 139.5,-208.13"/>
<text text-anchor="middle" x="203.5" y="-215.13" font-family="Helvetica,sans-Serif" font-size="10.00">Game::returnAllToStart</text>
</a>
</g>
</g>
<!-- Node2&#45;&gt;Node6 -->
<g id="edge5" class="edge">
<title>Node2&#45;&gt;Node6</title>
<path fill="none" stroke="midnightblue" d="M319.44,-204.19C303.27,-206.08 284.93,-208.22 267.73,-210.23"/>
<polygon fill="midnightblue" stroke="midnightblue" points="320.19,-207.62 329.72,-202.99 319.38,-200.67 320.19,-207.62"/>
</g>
<!-- Node2&#45;&gt;Node7 -->
<g id="edge7" class="edge">
<title>Node2&#45;&gt;Node7</title>
<path fill="none" stroke="midnightblue" d="M319.63,-194.31C257.75,-188.66 150.34,-178.87 91.15,-173.47"/>
<polygon fill="midnightblue" stroke="midnightblue" points="319.62,-197.82 329.9,-195.24 320.26,-190.85 319.62,-197.82"/>
</g>
<!-- Node4 -->
<g id="node4" class="node">
<title>Node4</title>
<g id="a_node4"><a xlink:href="classGame.html#a2a30c89761624ee64cd7acb147aaf89c" target="_top" xlink:title="Starts the game.">
<polygon fill="white" stroke="black" points="11,-255.13 11,-274.13 85,-274.13 85,-255.13 11,-255.13"/>
<text text-anchor="middle" x="48" y="-262.13" font-family="Helvetica,sans-Serif" font-size="10.00">Game::start</text>
</a>
</g>
</g>
<!-- Node3&#45;&gt;Node4 -->
<g id="edge3" class="edge">
<title>Node3&#45;&gt;Node4</title>
<path fill="none" stroke="midnightblue" d="M131.43,-259.79C115.48,-260.73 99.2,-261.68 85.37,-262.5"/>
<polygon fill="midnightblue" stroke="midnightblue" points="132.05,-263.26 141.83,-259.18 131.64,-256.28 132.05,-263.26"/>
</g>
<!-- Node5 -->
<g id="node5" class="node">
<title>Node5</title>
<g id="a_node5"><a xlink:href="classGame.html#a1118c369ae5b2fe433aac540cb32d187" target="_top" xlink:title="Starts the game with a new map.">
<polygon fill="white" stroke="black" points="0,-217.13 0,-236.13 96,-236.13 96,-217.13 0,-217.13"/>
<text text-anchor="middle" x="48" y="-224.13" font-family="Helvetica,sans-Serif" font-size="10.00">Game::startNew</text>
</a>
</g>
</g>
<!-- Node3&#45;&gt;Node5 -->
<g id="edge4" class="edge">
<title>Node3&#45;&gt;Node5</title>
<path fill="none" stroke="midnightblue" d="M141.98,-244.19C126.78,-241.32 110.7,-238.28 96.26,-235.56"/>
<polygon fill="midnightblue" stroke="midnightblue" points="141.34,-247.63 151.81,-246.05 142.64,-240.76 141.34,-247.63"/>
</g>
<!-- Node6&#45;&gt;Node7 -->
<g id="edge6" class="edge">
<title>Node6&#45;&gt;Node7</title>
<path fill="none" stroke="midnightblue" d="M161.94,-204.94C136.14,-196.88 103.26,-186.6 79.64,-179.21"/>
<polygon fill="midnightblue" stroke="midnightblue" points="161.22,-208.38 171.81,-208.03 163.31,-201.7 161.22,-208.38"/>
</g>
<!-- Node11&#45;&gt;Node7 -->
<g id="edge13" class="edge">
<title>Node11&#45;&gt;Node7</title>
<path fill="none" stroke="midnightblue" d="M182.56,-62.6C150.22,-88.52 87.28,-138.96 60.99,-160.02"/>
<polygon fill="midnightblue" stroke="midnightblue" points="184.84,-65.26 190.46,-56.28 180.46,-59.8 184.84,-65.26"/>
</g>
</g>
</svg>
