<?xml version="1.0" encoding="UTF-8" standalone="no"?>
<!DOCTYPE svg PUBLIC "-//W3C//DTD SVG 1.1//EN"
 "http://www.w3.org/Graphics/SVG/1.1/DTD/svg11.dtd">
<!-- Generated by graphviz version 10.0.1 (0)
 -->
<!-- Title: Ghost::move Pages: 1 -->
<svg width="343pt" height="28pt"
 viewBox="0.00 0.00 342.50 28.00" xmlns="http://www.w3.org/2000/svg" xmlns:xlink="http://www.w3.org/1999/xlink">
<g id="graph0" class="graph" transform="scale(1 1) rotate(0) translate(4 24)">
<title>Ghost::move</title>
<!-- Node1 -->
<g id="Node000001" class="node">
<title>Node1</title>
<g id="a_Node000001"><a xlink:title="Moves the object in the given direction.">
<polygon fill="#999999" stroke="#666666" points="334.5,-20 262.25,-20 262.25,0 334.5,0 334.5,-20"/>
<text text-anchor="middle" x="298.38" y="-6.5" font-family="Helvetica,sans-Serif" font-size="10.00">Ghost::move</text>
</a>
</g>
</g>
<!-- Node2 -->
<g id="Node000002" class="node">
<title>Node2</title>
<g id="a_Node000002"><a xlink:href="classGhost.html#a148ba3ee3c09025057a85025e2b74f81" target="_top" xlink:title=" ">
<polygon fill="white" stroke="#666666" points="226.25,-20 142.75,-20 142.75,0 226.25,0 226.25,-20"/>
<text text-anchor="middle" x="184.5" y="-6.5" font-family="Helvetica,sans-Serif" font-size="10.00">Ghost::tryMove</text>
</a>
</g>
</g>
<!-- Node1&#45;&gt;Node2 -->
<g id="edge1_Node000001_Node000002" class="edge">
<title>Node1&#45;&gt;Node2</title>
<g id="a_edge1_Node000001_Node000002"><a xlink:title=" ">
<path fill="none" stroke="#63b8ff" d="M250.55,-10C242.57,-10 234.34,-10 226.52,-10"/>
<polygon fill="#63b8ff" stroke="#63b8ff" points="250.46,-13.5 260.46,-10 250.46,-6.5 250.46,-13.5"/>
</a>
</g>
</g>
<!-- Node3 -->
<g id="Node000003" class="node">
<title>Node3</title>
<g id="a_Node000003"><a xlink:href="classGhost.html#a8f00182b9e19aec6cab0f795ee8dd5ae" target="_top" xlink:title="Returns the calculated next move of the object.">
<polygon fill="white" stroke="#666666" points="106.75,-20 0,-20 0,0 106.75,0 106.75,-20"/>
<text text-anchor="middle" x="53.38" y="-6.5" font-family="Helvetica,sans-Serif" font-size="10.00">Ghost::getNextMove</text>
</a>
</g>
</g>
<!-- Node2&#45;&gt;Node3 -->
<g id="edge2_Node000002_Node000003" class="edge">
<title>Node2&#45;&gt;Node3</title>
<g id="a_edge2_Node000002_Node000003"><a xlink:title=" ">
<path fill="none" stroke="#63b8ff" d="M130.95,-10C123.05,-10 114.91,-10 107.01,-10"/>
<polygon fill="#63b8ff" stroke="#63b8ff" points="130.78,-13.5 140.78,-10 130.78,-6.5 130.78,-13.5"/>
</a>
</g>
</g>
</g>
</svg>
