<?xml version="1.0" encoding="UTF-8" standalone="no"?>
<!DOCTYPE svg PUBLIC "-//W3C//DTD SVG 1.1//EN"
 "http://www.w3.org/Graphics/SVG/1.1/DTD/svg11.dtd">
<!-- Generated by graphviz version 10.0.1 (0)
 -->
<!-- Title: Game::startNew Pages: 1 -->
<svg width="887pt" height="662pt"
 viewBox="0.00 0.00 887.00 661.92" xmlns="http://www.w3.org/2000/svg" xmlns:xlink="http://www.w3.org/1999/xlink">
<g id="graph0" class="graph" transform="scale(1 1) rotate(0) translate(4 657.92)">
<title>Game::startNew</title>
<!-- Node1 -->
<g id="Node000001" class="node">
<title>Node1</title>
<g id="a_Node000001"><a xlink:title="Starts the game with a new map.">
<polygon fill="#999999" stroke="#666666" points="88,-314 0,-314 0,-294 88,-294 88,-314"/>
<text text-anchor="middle" x="44" y="-300.5" font-family="Helvetica,sans-Serif" font-size="10.00">Game::startNew</text>
</a>
</g>
</g>
<!-- Node2 -->
<g id="Node000002" class="node">
<title>Node2</title>
<g id="a_Node000002"><a xlink:href="classWindow.html#a07c2b4d065cbcb397eafc1a27a337bb7" target="_top" xlink:title="Clears the current window.">
<polygon fill="white" stroke="#666666" points="589,-533 461.25,-533 461.25,-513 589,-513 589,-533"/>
<text text-anchor="middle" x="525.12" y="-519.5" font-family="Helvetica,sans-Serif" font-size="10.00">Window::clearCurrentWin</text>
</a>
</g>
</g>
<!-- Node1&#45;&gt;Node2 -->
<g id="edge1_Node000001_Node000002" class="edge">
<title>Node1&#45;&gt;Node2</title>
<g id="a_edge1_Node000001_Node000002"><a xlink:title=" ">
<path fill="none" stroke="#63b8ff" d="M46.31,-314.32C52.47,-361.4 80.22,-555.09 124,-594 218.93,-678.37 289.2,-660.88 408.75,-618 450.82,-602.91 488.52,-565.11 508.67,-542"/>
<polygon fill="#63b8ff" stroke="#63b8ff" points="511.2,-544.43 514.99,-534.53 505.86,-539.9 511.2,-544.43"/>
</a>
</g>
</g>
<!-- Node3 -->
<g id="Node000003" class="node">
<title>Node3</title>
<g id="a_Node000003"><a xlink:href="classMap.html#a7ded655c7db0e9d72816430b4f2c83a5" target="_top" xlink:title="Clears the map.">
<polygon fill="white" stroke="#666666" points="387,-609 306.5,-609 306.5,-589 387,-589 387,-609"/>
<text text-anchor="middle" x="346.75" y="-595.5" font-family="Helvetica,sans-Serif" font-size="10.00">Map::clearMap</text>
</a>
</g>
</g>
<!-- Node1&#45;&gt;Node3 -->
<g id="edge2_Node000001_Node000003" class="edge">
<title>Node1&#45;&gt;Node3</title>
<g id="a_edge2_Node000001_Node000003"><a xlink:title=" ">
<path fill="none" stroke="#63b8ff" d="M44.71,-314.49C44.23,-353.57 48.16,-491.89 124,-559 170.65,-600.28 245.06,-605.68 294.65,-603.87"/>
<polygon fill="#63b8ff" stroke="#63b8ff" points="294.74,-607.37 304.56,-603.38 294.4,-600.38 294.74,-607.37"/>
</a>
</g>
</g>
<!-- Node4 -->
<g id="Node000004" class="node">
<title>Node4</title>
<g id="a_Node000004"><a xlink:href="classGame.html#a66e2ecb02f046b0c17922a4255720e5a" target="_top" xlink:title="Ends the game on error.">
<polygon fill="white" stroke="#666666" points="231.12,-550 141.62,-550 141.62,-530 231.12,-530 231.12,-550"/>
<text text-anchor="middle" x="186.38" y="-536.5" font-family="Helvetica,sans-Serif" font-size="10.00">Game::endOnErr</text>
</a>
</g>
</g>
<!-- Node1&#45;&gt;Node4 -->
<g id="edge3_Node000001_Node000004" class="edge">
<title>Node1&#45;&gt;Node4</title>
<g id="a_edge3_Node000001_Node000004"><a xlink:title=" ">
<path fill="none" stroke="#63b8ff" d="M47.64,-314.42C55.48,-343.91 80.8,-429.58 124,-488 133.96,-501.47 148.06,-513.73 160.23,-522.96"/>
<polygon fill="#63b8ff" stroke="#63b8ff" points="158.1,-525.73 168.24,-528.79 162.21,-520.07 158.1,-525.73"/>
</a>
</g>
</g>
<!-- Node5 -->
<g id="Node000005" class="node">
<title>Node5</title>
<g id="a_Node000005"><a xlink:href="classWindow.html#aba37c5e32e43d21a46968fd8ada1d327" target="_top" xlink:title="Prints the message to the current window.">
<polygon fill="white" stroke="#666666" points="404.62,-533 288.88,-533 288.88,-513 404.62,-513 404.62,-533"/>
<text text-anchor="middle" x="346.75" y="-519.5" font-family="Helvetica,sans-Serif" font-size="10.00">Window::printMessage</text>
</a>
</g>
</g>
<!-- Node1&#45;&gt;Node5 -->
<g id="edge44_Node000001_Node000005" class="edge">
<title>Node1&#45;&gt;Node5</title>
<g id="a_edge44_Node000001_Node000005"><a xlink:title=" ">
<path fill="none" stroke="#63b8ff" d="M50.29,-314.35C61.48,-335.46 89.42,-384.12 124,-415 184.91,-469.4 209.65,-471.91 284.75,-504 288.77,-505.72 292.99,-507.35 297.26,-508.9"/>
<polygon fill="#63b8ff" stroke="#63b8ff" points="295.87,-512.12 306.46,-512.04 298.13,-505.49 295.87,-512.12"/>
</a>
</g>
</g>
<!-- Node6 -->
<g id="Node000006" class="node">
<title>Node6</title>
<g id="a_Node000006"><a xlink:href="classConfig.html#a61ee9aeb497a96e3f7a49f8d8315b4f6" target="_top" xlink:title="Exports the config to a file.">
<polygon fill="white" stroke="#666666" points="239.38,-172 133.38,-172 133.38,-152 239.38,-152 239.38,-172"/>
<text text-anchor="middle" x="186.38" y="-158.5" font-family="Helvetica,sans-Serif" font-size="10.00">Config::exportConfig</text>
</a>
</g>
</g>
<!-- Node1&#45;&gt;Node6 -->
<g id="edge8_Node000001_Node000006" class="edge">
<title>Node1&#45;&gt;Node6</title>
<g id="a_edge8_Node000001_Node000006"><a xlink:title=" ">
<path fill="none" stroke="#63b8ff" d="M48.75,-293.68C57.85,-270.09 83.39,-211.87 124,-181 125.56,-179.82 127.19,-178.71 128.88,-177.66"/>
<polygon fill="#63b8ff" stroke="#63b8ff" points="130.42,-180.8 137.7,-173.11 127.21,-174.58 130.42,-180.8"/>
</a>
</g>
</g>
<!-- Node7 -->
<g id="Node000007" class="node">
<title>Node7</title>
<g id="a_Node000007"><a xlink:href="Helpers_8cpp.html#aff67a1d7716f148acfbd9ac7731d8237" target="_top" xlink:title=" ">
<polygon fill="white" stroke="#666666" points="248.75,-134 124,-134 124,-114 248.75,-114 248.75,-134"/>
<text text-anchor="middle" x="186.38" y="-120.5" font-family="Helvetica,sans-Serif" font-size="10.00">generateRandomNumber</text>
</a>
</g>
</g>
<!-- Node1&#45;&gt;Node7 -->
<g id="edge9_Node000001_Node000007" class="edge">
<title>Node1&#45;&gt;Node7</title>
<g id="a_edge9_Node000001_Node000007"><a xlink:title=" ">
<path fill="none" stroke="#63b8ff" d="M47.1,-293.58C53.39,-265.07 74.78,-185.09 124,-143 125.27,-141.91 126.61,-140.89 127.99,-139.92"/>
<polygon fill="#63b8ff" stroke="#63b8ff" points="129.46,-143.11 136.41,-135.11 125.99,-137.03 129.46,-143.11"/>
</a>
</g>
</g>
<!-- Node8 -->
<g id="Node000008" class="node">
<title>Node8</title>
<g id="a_Node000008"><a xlink:href="classConfig.html#a683f3adeacbde8622e8c46cc2f9dee25" target="_top" xlink:title="Gets the map file path.">
<polygon fill="white" stroke="#666666" points="388.88,-495 304.62,-495 304.62,-475 388.88,-475 388.88,-495"/>
<text text-anchor="middle" x="346.75" y="-481.5" font-family="Helvetica,sans-Serif" font-size="10.00">Config::getPath</text>
</a>
</g>
</g>
<!-- Node1&#45;&gt;Node8 -->
<g id="edge10_Node000001_Node000008" class="edge">
<title>Node1&#45;&gt;Node8</title>
<g id="a_edge10_Node000001_Node000008"><a xlink:title=" ">
<path fill="none" stroke="#63b8ff" d="M58.71,-314.43C94.43,-341.3 193.93,-414.03 284.75,-461 291.18,-464.33 298.19,-467.48 305.09,-470.35"/>
<polygon fill="#63b8ff" stroke="#63b8ff" points="303.74,-473.58 314.33,-474.03 306.34,-467.08 303.74,-473.58"/>
</a>
</g>
</g>
<!-- Node9 -->
<g id="Node000009" class="node">
<title>Node9</title>
<g id="a_Node000009"><a xlink:href="classConfig.html#a62c7c2d485cb30374271dba0eafe63c8" target="_top" xlink:title="Gets any value from the config map.">
<polygon fill="white" stroke="#666666" points="569.12,-305 481.12,-305 481.12,-285 569.12,-285 569.12,-305"/>
<text text-anchor="middle" x="525.12" y="-291.5" font-family="Helvetica,sans-Serif" font-size="10.00">Config::getValue</text>
</a>
</g>
</g>
<!-- Node1&#45;&gt;Node9 -->
<g id="edge11_Node000001_Node000009" class="edge">
<title>Node1&#45;&gt;Node9</title>
<g id="a_edge11_Node000001_Node000009"><a xlink:title=" ">
<path fill="none" stroke="#63b8ff" d="M88.3,-302.46C136.31,-300.82 216.05,-298.29 284.75,-297 348.09,-295.81 420.87,-295.33 469.39,-295.13"/>
<polygon fill="#63b8ff" stroke="#63b8ff" points="469.38,-298.63 479.36,-295.1 469.35,-291.63 469.38,-298.63"/>
</a>
</g>
</g>
<!-- Node10 -->
<g id="Node000010" class="node">
<title>Node10</title>
<g id="a_Node000010"><a xlink:href="classGame.html#a4c2a7ead717a4c13f1ffddafd11e17c8" target="_top" xlink:title="Initializes the game, loading config, and the map.">
<polygon fill="white" stroke="#666666" points="241.25,-343 131.5,-343 131.5,-323 241.25,-323 241.25,-343"/>
<text text-anchor="middle" x="186.38" y="-329.5" font-family="Helvetica,sans-Serif" font-size="10.00">Game::initializeGame</text>
</a>
</g>
</g>
<!-- Node1&#45;&gt;Node10 -->
<g id="edge12_Node000001_Node000010" class="edge">
<title>Node1&#45;&gt;Node10</title>
<g id="a_edge12_Node000001_Node000010"><a xlink:title=" ">
<path fill="none" stroke="#63b8ff" d="M88.26,-312.94C99.37,-315.23 111.54,-317.75 123.4,-320.2"/>
<polygon fill="#63b8ff" stroke="#63b8ff" points="122.64,-323.61 133.14,-322.21 124.06,-316.76 122.64,-323.61"/>
</a>
</g>
</g>
<!-- Node31 -->
<g id="Node000031" class="node">
<title>Node31</title>
<g id="a_Node000031"><a xlink:href="classGamePhase.html#af152a5e182080af728f34e66b29079c5" target="_top" xlink:title="Sets the current game phase.">
<polygon fill="white" stroke="#666666" points="405.38,-153 288.12,-153 288.12,-133 405.38,-133 405.38,-153"/>
<text text-anchor="middle" x="346.75" y="-139.5" font-family="Helvetica,sans-Serif" font-size="10.00">GamePhase::setPhase</text>
</a>
</g>
</g>
<!-- Node1&#45;&gt;Node31 -->
<g id="edge46_Node000001_Node000031" class="edge">
<title>Node1&#45;&gt;Node31</title>
<g id="a_edge46_Node000001_Node000031"><a xlink:title=" ">
<path fill="none" stroke="#63b8ff" d="M62.49,-293.68C78.25,-284.63 102.21,-271.48 124,-262 177.78,-238.61 202.77,-255.4 248.75,-219 272.24,-200.4 260.98,-180.25 284.75,-162 286.29,-160.82 287.91,-159.7 289.58,-158.66"/>
<polygon fill="#63b8ff" stroke="#63b8ff" points="291.08,-161.83 298.34,-154.11 287.85,-155.62 291.08,-161.83"/>
</a>
</g>
</g>
<!-- Node33 -->
<g id="Node000033" class="node">
<title>Node33</title>
<g id="a_Node000033"><a xlink:href="classMap.html#ab5b009bf7edded05f4461b62de5eff49" target="_top" xlink:title="Loads the map from a string.">
<polygon fill="white" stroke="#666666" points="239.75,-210 133,-210 133,-190 239.75,-190 239.75,-210"/>
<text text-anchor="middle" x="186.38" y="-196.5" font-family="Helvetica,sans-Serif" font-size="10.00">Map::loadFromString</text>
</a>
</g>
</g>
<!-- Node1&#45;&gt;Node33 -->
<g id="edge42_Node000001_Node000033" class="edge">
<title>Node1&#45;&gt;Node33</title>
<g id="a_edge42_Node000001_Node000033"><a xlink:title=" ">
<path fill="none" stroke="#63b8ff" d="M52.9,-293.53C66.01,-276.79 93.84,-243.86 124,-224 129.2,-220.58 134.95,-217.53 140.8,-214.85"/>
<polygon fill="#63b8ff" stroke="#63b8ff" points="142.07,-218.11 149.92,-211 139.35,-211.66 142.07,-218.11"/>
</a>
</g>
</g>
<!-- Node34 -->
<g id="Node000034" class="node">
<title>Node34</title>
<g id="a_Node000034"><a xlink:href="classMap.html#a273496375c910340e3d76d777052b274" target="_top" xlink:title="Saves the map to a file.">
<polygon fill="white" stroke="#666666" points="226.62,-96 146.12,-96 146.12,-76 226.62,-76 226.62,-96"/>
<text text-anchor="middle" x="186.38" y="-82.5" font-family="Helvetica,sans-Serif" font-size="10.00">Map::saveMap</text>
</a>
</g>
</g>
<!-- Node1&#45;&gt;Node34 -->
<g id="edge45_Node000001_Node000034" class="edge">
<title>Node1&#45;&gt;Node34</title>
<g id="a_edge45_Node000001_Node000034"><a xlink:title=" ">
<path fill="none" stroke="#63b8ff" d="M46.02,-293.59C49.79,-260.83 65.88,-158.77 124,-105 127.45,-101.8 131.44,-99.15 135.68,-96.93"/>
<polygon fill="#63b8ff" stroke="#63b8ff" points="136.72,-100.3 144.53,-93.14 133.96,-93.86 136.72,-100.3"/>
</a>
</g>
</g>
<!-- Node4&#45;&gt;Node2 -->
<g id="edge4_Node000004_Node000002" class="edge">
<title>Node4&#45;&gt;Node2</title>
<g id="a_edge4_Node000004_Node000002"><a xlink:title=" ">
<path fill="none" stroke="#63b8ff" d="M231.48,-541.1C248.17,-541.46 267.33,-541.82 284.75,-542 339.86,-542.57 353.82,-546.49 408.75,-542 425.6,-540.62 443.7,-538.13 460.45,-535.39"/>
<polygon fill="#63b8ff" stroke="#63b8ff" points="461.03,-538.85 470.3,-533.72 459.86,-531.94 461.03,-538.85"/>
</a>
</g>
</g>
<!-- Node4&#45;&gt;Node3 -->
<g id="edge5_Node000004_Node000003" class="edge">
<title>Node4&#45;&gt;Node3</title>
<g id="a_edge5_Node000004_Node000003"><a xlink:title=" ">
<path fill="none" stroke="#63b8ff" d="M215.32,-550.41C240.8,-559.9 278.68,-574.02 307.06,-584.59"/>
<polygon fill="#63b8ff" stroke="#63b8ff" points="305.8,-587.85 316.4,-588.06 308.25,-581.29 305.8,-587.85"/>
</a>
</g>
</g>
<!-- Node4&#45;&gt;Node5 -->
<g id="edge6_Node000004_Node000005" class="edge">
<title>Node4&#45;&gt;Node5</title>
<g id="a_edge6_Node000004_Node000005"><a xlink:title=" ">
<path fill="none" stroke="#63b8ff" d="M231.49,-535.26C245.71,-533.74 261.81,-532.01 277.35,-530.34"/>
<polygon fill="#63b8ff" stroke="#63b8ff" points="277.46,-533.85 287.02,-529.3 276.71,-526.89 277.46,-533.85"/>
</a>
</g>
</g>
<!-- Node5&#45;&gt;Node2 -->
<g id="edge7_Node000005_Node000002" class="edge">
<title>Node5&#45;&gt;Node2</title>
<g id="a_edge7_Node000005_Node000002"><a xlink:title=" ">
<path fill="none" stroke="#63b8ff" d="M405.01,-523C419.28,-523 434.79,-523 449.75,-523"/>
<polygon fill="#63b8ff" stroke="#63b8ff" points="449.54,-526.5 459.54,-523 449.54,-519.5 449.54,-526.5"/>
</a>
</g>
</g>
<!-- Node10&#45;&gt;Node2 -->
<g id="edge13_Node000010_Node000002" class="edge">
<title>Node10&#45;&gt;Node2</title>
<g id="a_edge13_Node000010_Node000002"><a xlink:title=" ">
<path fill="none" stroke="#63b8ff" d="M221.97,-343.47C231.43,-347.53 241.16,-352.94 248.75,-360 273.79,-383.29 258.39,-406.22 284.75,-428 329.18,-464.72 355.18,-444.72 408.75,-466 439.04,-478.03 472.28,-494.86 495.27,-507.12"/>
<polygon fill="#63b8ff" stroke="#63b8ff" points="493.57,-510.18 504.03,-511.84 496.89,-504.01 493.57,-510.18"/>
</a>
</g>
</g>
<!-- Node10&#45;&gt;Node5 -->
<g id="edge39_Node000010_Node000005" class="edge">
<title>Node10&#45;&gt;Node5</title>
<g id="a_edge39_Node000010_Node000005"><a xlink:title=" ">
<path fill="none" stroke="#63b8ff" d="M192.08,-343.45C207.36,-376.99 256.27,-481.08 284.75,-504 286.07,-505.06 287.46,-506.07 288.89,-507.02"/>
<polygon fill="#63b8ff" stroke="#63b8ff" points="287.13,-510.04 297.58,-511.78 290.49,-503.9 287.13,-510.04"/>
</a>
</g>
</g>
<!-- Node10&#45;&gt;Node8 -->
<g id="edge24_Node000010_Node000008" class="edge">
<title>Node10&#45;&gt;Node8</title>
<g id="a_edge24_Node000010_Node000008"><a xlink:title=" ">
<path fill="none" stroke="#63b8ff" d="M217.52,-343.4C228.56,-348.47 240.39,-355.55 248.75,-365 278.95,-399.12 252.79,-428.52 284.75,-461 287.85,-464.15 291.41,-466.9 295.23,-469.29"/>
<polygon fill="#63b8ff" stroke="#63b8ff" points="293.29,-472.23 303.77,-473.83 296.58,-466.04 293.29,-472.23"/>
</a>
</g>
</g>
<!-- Node10&#45;&gt;Node9 -->
<g id="edge25_Node000010_Node000009" class="edge">
<title>Node10&#45;&gt;Node9</title>
<g id="a_edge25_Node000010_Node000009"><a xlink:title=" ">
<path fill="none" stroke="#63b8ff" d="M235.24,-322.54C250.95,-319.41 268.54,-316.22 284.75,-314 347.84,-305.37 420.87,-300.27 469.51,-297.57"/>
<polygon fill="#63b8ff" stroke="#63b8ff" points="469.41,-301.08 479.21,-297.04 469.04,-294.09 469.41,-301.08"/>
</a>
</g>
</g>
<!-- Node11 -->
<g id="Node000011" class="node">
<title>Node11</title>
<g id="a_Node000011"><a xlink:href="classGame.html#a6d54497ce3a66f6dd45eacfdccc8d0bd" target="_top" xlink:title="Draws the game.">
<polygon fill="white" stroke="#666666" points="381.38,-229 312.12,-229 312.12,-209 381.38,-209 381.38,-229"/>
<text text-anchor="middle" x="346.75" y="-215.5" font-family="Helvetica,sans-Serif" font-size="10.00">Game::draw</text>
</a>
</g>
</g>
<!-- Node10&#45;&gt;Node11 -->
<g id="edge14_Node000010_Node000011" class="edge">
<title>Node10&#45;&gt;Node11</title>
<g id="a_edge14_Node000010_Node000011"><a xlink:title=" ">
<path fill="none" stroke="#63b8ff" d="M201.71,-322.68C229.15,-302.93 289.34,-259.61 322.57,-235.69"/>
<polygon fill="#63b8ff" stroke="#63b8ff" points="324.26,-238.78 330.33,-230.1 320.17,-233.1 324.26,-238.78"/>
</a>
</g>
</g>
<!-- Node18 -->
<g id="Node000018" class="node">
<title>Node18</title>
<g id="a_Node000018"><a xlink:href="classWindow.html#a2238e5489102fe2a77e7898a07dc37b5" target="_top" xlink:title="Gets text input from the user.">
<polygon fill="white" stroke="#666666" points="393,-419 300.5,-419 300.5,-399 393,-399 393,-419"/>
<text text-anchor="middle" x="346.75" y="-405.5" font-family="Helvetica,sans-Serif" font-size="10.00">Window::getInput</text>
</a>
</g>
</g>
<!-- Node10&#45;&gt;Node18 -->
<g id="edge22_Node000010_Node000018" class="edge">
<title>Node10&#45;&gt;Node18</title>
<g id="a_edge22_Node000010_Node000018"><a xlink:title=" ">
<path fill="none" stroke="#63b8ff" d="M209.04,-343.46C220.96,-349.42 235.9,-357.23 248.75,-365 265.42,-375.08 267.25,-381.45 284.75,-390 288.19,-391.68 291.82,-393.26 295.51,-394.72"/>
<polygon fill="#63b8ff" stroke="#63b8ff" points="294,-397.9 304.59,-398.04 296.4,-391.32 294,-397.9"/>
</a>
</g>
</g>
<!-- Node19 -->
<g id="Node000019" class="node">
<title>Node19</title>
<g id="a_Node000019"><a xlink:href="classMap.html#a2657d897204aaedba0e8e4f01b2e1efc" target="_top" xlink:title="Loads the map from a file.">
<polygon fill="white" stroke="#666666" points="385.5,-191 308,-191 308,-171 385.5,-171 385.5,-191"/>
<text text-anchor="middle" x="346.75" y="-177.5" font-family="Helvetica,sans-Serif" font-size="10.00">Map::loadMap</text>
</a>
</g>
</g>
<!-- Node10&#45;&gt;Node19 -->
<g id="edge26_Node000010_Node000019" class="edge">
<title>Node10&#45;&gt;Node19</title>
<g id="a_edge26_Node000010_Node000019"><a xlink:title=" ">
<path fill="none" stroke="#63b8ff" d="M195.46,-322.62C207.34,-307.32 230.12,-277.72 248.75,-252 265.24,-229.24 262.1,-216.64 284.75,-200 288.57,-197.19 292.82,-194.79 297.24,-192.74"/>
<polygon fill="#63b8ff" stroke="#63b8ff" points="298.35,-196.07 306.36,-189.13 295.77,-189.56 298.35,-196.07"/>
</a>
</g>
</g>
<!-- Node25 -->
<g id="Node000025" class="node">
<title>Node25</title>
<g id="a_Node000025"><a xlink:href="classGame.html#a1290bdc979d75815efe4d21e83a806cb" target="_top" xlink:title="Loads the object from the map.">
<polygon fill="white" stroke="#666666" points="396.75,-343 296.75,-343 296.75,-323 396.75,-323 396.75,-343"/>
<text text-anchor="middle" x="346.75" y="-329.5" font-family="Helvetica,sans-Serif" font-size="10.00">Game::loadObjects</text>
</a>
</g>
</g>
<!-- Node10&#45;&gt;Node25 -->
<g id="edge32_Node000010_Node000025" class="edge">
<title>Node10&#45;&gt;Node25</title>
<g id="a_edge32_Node000010_Node000025"><a xlink:title=" ">
<path fill="none" stroke="#63b8ff" d="M241.44,-333C255.51,-333 270.76,-333 285.14,-333"/>
<polygon fill="#63b8ff" stroke="#63b8ff" points="284.94,-336.5 294.94,-333 284.94,-329.5 284.94,-336.5"/>
</a>
</g>
</g>
<!-- Node28 -->
<g id="Node000028" class="node">
<title>Node28</title>
<g id="a_Node000028"><a xlink:href="classLeaderboard.html#a43ac1b937341b8e5b3bd8b33200034d1" target="_top" xlink:title="Loads the scores from a file.">
<polygon fill="white" stroke="#666666" points="408.75,-381 284.75,-381 284.75,-361 408.75,-361 408.75,-381"/>
<text text-anchor="middle" x="346.75" y="-367.5" font-family="Helvetica,sans-Serif" font-size="10.00">Leaderboard::loadScores</text>
</a>
</g>
</g>
<!-- Node10&#45;&gt;Node28 -->
<g id="edge36_Node000010_Node000028" class="edge">
<title>Node10&#45;&gt;Node28</title>
<g id="a_edge36_Node000010_Node000028"><a xlink:title=" ">
<path fill="none" stroke="#63b8ff" d="M231.07,-343.48C249.68,-347.95 271.59,-353.21 291.24,-357.92"/>
<polygon fill="#63b8ff" stroke="#63b8ff" points="290.18,-361.27 300.72,-360.2 291.82,-354.46 290.18,-361.27"/>
</a>
</g>
</g>
<!-- Node10&#45;&gt;Node31 -->
<g id="edge40_Node000010_Node000031" class="edge">
<title>Node10&#45;&gt;Node31</title>
<g id="a_edge40_Node000010_Node000031"><a xlink:title=" ">
<path fill="none" stroke="#63b8ff" d="M196.69,-322.64C209.66,-307.82 233.3,-279.34 248.75,-252 269.95,-214.5 253.11,-191.24 284.75,-162 285.8,-161.03 286.91,-160.1 288.05,-159.22"/>
<polygon fill="#63b8ff" stroke="#63b8ff" points="289.55,-162.41 296.23,-154.18 285.88,-156.45 289.55,-162.41"/>
</a>
</g>
</g>
<!-- Node12 -->
<g id="Node000012" class="node">
<title>Node12</title>
<g id="a_Node000012"><a xlink:href="classGamePhase.html#a337c0a04d2c1d159ff9a98e99e11116a" target="_top" xlink:title="Returns the current level.">
<polygon fill="white" stroke="#666666" points="581.5,-267 468.75,-267 468.75,-247 581.5,-247 581.5,-267"/>
<text text-anchor="middle" x="525.12" y="-253.5" font-family="Helvetica,sans-Serif" font-size="10.00">GamePhase::getLevel</text>
</a>
</g>
</g>
<!-- Node11&#45;&gt;Node12 -->
<g id="edge15_Node000011_Node000012" class="edge">
<title>Node11&#45;&gt;Node12</title>
<g id="a_edge15_Node000011_Node000012"><a xlink:title=" ">
<path fill="none" stroke="#63b8ff" d="M381.76,-226.33C405.16,-231.37 436.87,-238.2 464.43,-244.14"/>
<polygon fill="#63b8ff" stroke="#63b8ff" points="463.56,-247.53 474.07,-246.22 465.03,-240.69 463.56,-247.53"/>
</a>
</g>
</g>
<!-- Node13 -->
<g id="Node000013" class="node">
<title>Node13</title>
<g id="a_Node000013"><a xlink:href="classGamePhase.html#a1e01dd9cbefce12ad832102c3a9ed3a2" target="_top" xlink:title="Returns the number of remaining items.">
<polygon fill="white" stroke="#666666" points="605.5,-229 444.75,-229 444.75,-209 605.5,-209 605.5,-229"/>
<text text-anchor="middle" x="525.12" y="-215.5" font-family="Helvetica,sans-Serif" font-size="10.00">GamePhase::getRemainingItems</text>
</a>
</g>
</g>
<!-- Node11&#45;&gt;Node13 -->
<g id="edge16_Node000011_Node000013" class="edge">
<title>Node11&#45;&gt;Node13</title>
<g id="a_edge16_Node000011_Node000013"><a xlink:title=" ">
<path fill="none" stroke="#63b8ff" d="M381.76,-219C396.6,-219 414.78,-219 433.12,-219"/>
<polygon fill="#63b8ff" stroke="#63b8ff" points="433.02,-222.5 443.02,-219 433.02,-215.5 433.02,-222.5"/>
</a>
</g>
</g>
<!-- Node14 -->
<g id="Node000014" class="node">
<title>Node14</title>
<g id="a_Node000014"><a xlink:href="classWindow.html#aaa279ff498c917ba2535b26e5f396c7c" target="_top" xlink:title="Prints character at given position, default color.">
<polygon fill="white" stroke="#666666" points="578.5,-191 471.75,-191 471.75,-171 578.5,-171 578.5,-191"/>
<text text-anchor="middle" x="525.12" y="-177.5" font-family="Helvetica,sans-Serif" font-size="10.00">Window::printCharAt</text>
</a>
</g>
</g>
<!-- Node11&#45;&gt;Node14 -->
<g id="edge17_Node000011_Node000014" class="edge">
<title>Node11&#45;&gt;Node14</title>
<g id="a_edge17_Node000011_Node000014"><a xlink:title=" ">
<path fill="none" stroke="#63b8ff" d="M381.76,-211.67C405.16,-206.63 436.87,-199.8 464.43,-193.86"/>
<polygon fill="#63b8ff" stroke="#63b8ff" points="465.03,-197.31 474.07,-191.78 463.56,-190.47 465.03,-197.31"/>
</a>
</g>
</g>
<!-- Node15 -->
<g id="Node000015" class="node">
<title>Node15</title>
<g id="a_Node000015"><a xlink:href="classWindow.html#a7f8803b32163553cf314fa01b703c9a8" target="_top" xlink:title="Prints the game UI.">
<polygon fill="white" stroke="#666666" points="568.38,-153 481.88,-153 481.88,-133 568.38,-133 568.38,-153"/>
<text text-anchor="middle" x="525.12" y="-139.5" font-family="Helvetica,sans-Serif" font-size="10.00">Window::printUI</text>
</a>
</g>
</g>
<!-- Node11&#45;&gt;Node15 -->
<g id="edge18_Node000011_Node000015" class="edge">
<title>Node11&#45;&gt;Node15</title>
<g id="a_edge18_Node000011_Node000015"><a xlink:title=" ">
<path fill="none" stroke="#63b8ff" d="M381.69,-211.76C390.89,-208.93 400.56,-205.1 408.75,-200 428.5,-187.7 424.6,-173.63 444.75,-162 452.69,-157.42 461.68,-153.94 470.7,-151.29"/>
<polygon fill="#63b8ff" stroke="#63b8ff" points="471.35,-154.74 480.16,-148.85 469.6,-147.96 471.35,-154.74"/>
</a>
</g>
</g>
<!-- Node17 -->
<g id="Node000017" class="node">
<title>Node17</title>
<g id="a_Node000017"><a xlink:href="classWindow.html#a3c38bfdaf7cb6ebcfdbcb40916a72bf7" target="_top" xlink:title="Refreshes the current window.">
<polygon fill="white" stroke="#666666" points="747.88,-134 643.38,-134 643.38,-114 747.88,-114 747.88,-134"/>
<text text-anchor="middle" x="695.62" y="-120.5" font-family="Helvetica,sans-Serif" font-size="10.00">Window::refreshWin</text>
</a>
</g>
</g>
<!-- Node11&#45;&gt;Node17 -->
<g id="edge21_Node000011_Node000017" class="edge">
<title>Node11&#45;&gt;Node17</title>
<g id="a_edge21_Node000011_Node000017"><a xlink:title=" ">
<path fill="none" stroke="#63b8ff" d="M381.61,-213.74C391.22,-210.93 401.13,-206.62 408.75,-200 436.97,-175.49 413.17,-143.99 444.75,-124 507.08,-84.56 596.84,-97.51 650.09,-110.65"/>
<polygon fill="#63b8ff" stroke="#63b8ff" points="649.18,-114.03 659.74,-113.15 650.94,-107.26 649.18,-114.03"/>
</a>
</g>
</g>
<!-- Node16 -->
<g id="Node000016" class="node">
<title>Node16</title>
<g id="a_Node000016"><a xlink:href="classWindow.html#aad6d9b11314512a7fbc775a3fef9ca1c" target="_top" xlink:title="Helper function for printing lives.">
<polygon fill="white" stroke="#666666" points="745.25,-172 646,-172 646,-152 745.25,-152 745.25,-172"/>
<text text-anchor="middle" x="695.62" y="-158.5" font-family="Helvetica,sans-Serif" font-size="10.00">Window::printLives</text>
</a>
</g>
</g>
<!-- Node15&#45;&gt;Node16 -->
<g id="edge19_Node000015_Node000016" class="edge">
<title>Node15&#45;&gt;Node16</title>
<g id="a_edge19_Node000015_Node000016"><a xlink:title=" ">
<path fill="none" stroke="#63b8ff" d="M568.64,-147.79C588.48,-150.03 612.44,-152.73 634.12,-155.18"/>
<polygon fill="#63b8ff" stroke="#63b8ff" points="633.71,-158.65 644.04,-156.3 634.5,-151.7 633.71,-158.65"/>
</a>
</g>
</g>
<!-- Node15&#45;&gt;Node17 -->
<g id="edge20_Node000015_Node000017" class="edge">
<title>Node15&#45;&gt;Node17</title>
<g id="a_edge20_Node000015_Node000017"><a xlink:title=" ">
<path fill="none" stroke="#63b8ff" d="M568.64,-138.21C587.82,-136.04 610.85,-133.45 631.94,-131.07"/>
<polygon fill="#63b8ff" stroke="#63b8ff" points="632.05,-134.58 641.59,-129.98 631.26,-127.62 632.05,-134.58"/>
</a>
</g>
</g>
<!-- Node18&#45;&gt;Node2 -->
<g id="edge23_Node000018_Node000002" class="edge">
<title>Node18&#45;&gt;Node2</title>
<g id="a_edge23_Node000018_Node000002"><a xlink:title=" ">
<path fill="none" stroke="#63b8ff" d="M380.79,-419.46C390.17,-423.1 400.16,-427.63 408.75,-433 427.16,-444.5 427.9,-452.31 444.75,-466 462.41,-480.35 483.36,-495.32 499.3,-506.31"/>
<polygon fill="#63b8ff" stroke="#63b8ff" points="497.03,-508.99 507.26,-511.74 500.98,-503.21 497.03,-508.99"/>
</a>
</g>
</g>
<!-- Node20 -->
<g id="Node000020" class="node">
<title>Node20</title>
<g id="a_Node000020"><a xlink:href="classMap.html#ab1c2595a555457c0a764a0530b57c0f9" target="_top" xlink:title="Helper function for validating map string.">
<polygon fill="white" stroke="#666666" points="572.12,-77 478.12,-77 478.12,-57 572.12,-57 572.12,-77"/>
<text text-anchor="middle" x="525.12" y="-63.5" font-family="Helvetica,sans-Serif" font-size="10.00">Map::processMap</text>
</a>
</g>
</g>
<!-- Node19&#45;&gt;Node20 -->
<g id="edge27_Node000019_Node000020" class="edge">
<title>Node19&#45;&gt;Node20</title>
<g id="a_edge27_Node000019_Node000020"><a xlink:title=" ">
<path fill="none" stroke="#63b8ff" d="M385.95,-174.21C394.11,-171.43 402.23,-167.51 408.75,-162 435.77,-139.16 417.63,-113.73 444.75,-91 451.27,-85.53 459.01,-81.31 467.06,-78.05"/>
<polygon fill="#63b8ff" stroke="#63b8ff" points="468.04,-81.42 476.32,-74.8 465.72,-74.81 468.04,-81.42"/>
</a>
</g>
</g>
<!-- Node21 -->
<g id="Node000021" class="node">
<title>Node21</title>
<g id="a_Node000021"><a xlink:href="classMap.html#a41b623a0d503b94bf8412ca06296ae1f" target="_top" xlink:title="Helper function for finding crossroads.">
<polygon fill="white" stroke="#666666" points="749,-96 642.25,-96 642.25,-76 749,-76 749,-96"/>
<text text-anchor="middle" x="695.62" y="-82.5" font-family="Helvetica,sans-Serif" font-size="10.00">Map::findCrossroads</text>
</a>
</g>
</g>
<!-- Node20&#45;&gt;Node21 -->
<g id="edge28_Node000020_Node000021" class="edge">
<title>Node20&#45;&gt;Node21</title>
<g id="a_edge28_Node000020_Node000021"><a xlink:title=" ">
<path fill="none" stroke="#63b8ff" d="M572.61,-72.24C590.61,-74.27 611.5,-76.63 630.86,-78.81"/>
<polygon fill="#63b8ff" stroke="#63b8ff" points="630.22,-82.26 640.55,-79.9 631,-75.3 630.22,-82.26"/>
</a>
</g>
</g>
<!-- Node23 -->
<g id="Node000023" class="node">
<title>Node23</title>
<g id="a_Node000023"><a xlink:href="classMap.html#ae96ad32d3b1600cd41e4a1c3b6a30906" target="_top" xlink:title="Checks if the map is traversable from the given position.">
<polygon fill="white" stroke="#666666" points="749.75,-58 641.5,-58 641.5,-38 749.75,-38 749.75,-58"/>
<text text-anchor="middle" x="695.62" y="-44.5" font-family="Helvetica,sans-Serif" font-size="10.00">Map::traversableBFS</text>
</a>
</g>
</g>
<!-- Node20&#45;&gt;Node23 -->
<g id="edge30_Node000020_Node000023" class="edge">
<title>Node20&#45;&gt;Node23</title>
<g id="a_edge30_Node000020_Node000023"><a xlink:title=" ">
<path fill="none" stroke="#63b8ff" d="M572.61,-61.76C590.28,-59.77 610.75,-57.46 629.81,-55.31"/>
<polygon fill="#63b8ff" stroke="#63b8ff" points="630.09,-58.8 639.64,-54.2 629.31,-51.84 630.09,-58.8"/>
</a>
</g>
</g>
<!-- Node24 -->
<g id="Node000024" class="node">
<title>Node24</title>
<g id="a_Node000024"><a xlink:href="classMap.html#ad35b3432f383ea258d0ed06fe937c3b9" target="_top" xlink:title="Helper function for validating the map borders.">
<polygon fill="white" stroke="#666666" points="747.12,-20 644.12,-20 644.12,0 747.12,0 747.12,-20"/>
<text text-anchor="middle" x="695.62" y="-6.5" font-family="Helvetica,sans-Serif" font-size="10.00">Map::validateBorder</text>
</a>
</g>
</g>
<!-- Node20&#45;&gt;Node24 -->
<g id="edge31_Node000020_Node000024" class="edge">
<title>Node20&#45;&gt;Node24</title>
<g id="a_edge31_Node000020_Node000024"><a xlink:title=" ">
<path fill="none" stroke="#63b8ff" d="M572.47,-57.97C583.46,-55.27 595.02,-51.95 605.5,-48 622.43,-41.62 624.94,-36.29 641.5,-29 645.06,-27.43 648.79,-25.9 652.56,-24.42"/>
<polygon fill="#63b8ff" stroke="#63b8ff" points="653.61,-27.76 661.74,-20.96 651.14,-21.21 653.61,-27.76"/>
</a>
</g>
</g>
<!-- Node22 -->
<g id="Node000022" class="node">
<title>Node22</title>
<g id="a_Node000022"><a xlink:href="classMap.html#a7d8219ae1c1ff2f45f7e11c5d03dcdb7" target="_top" xlink:title="Checks if given coordinates are a crossroad.">
<polygon fill="white" stroke="#666666" points="879,-96 785.75,-96 785.75,-76 879,-76 879,-96"/>
<text text-anchor="middle" x="832.38" y="-82.5" font-family="Helvetica,sans-Serif" font-size="10.00">Map::isCrossroad</text>
</a>
</g>
</g>
<!-- Node21&#45;&gt;Node22 -->
<g id="edge29_Node000021_Node000022" class="edge">
<title>Node21&#45;&gt;Node22</title>
<g id="a_edge29_Node000021_Node000022"><a xlink:title=" ">
<path fill="none" stroke="#63b8ff" d="M749.5,-86C757.61,-86 766.03,-86 774.23,-86"/>
<polygon fill="#63b8ff" stroke="#63b8ff" points="774.13,-89.5 784.13,-86 774.13,-82.5 774.13,-89.5"/>
</a>
</g>
</g>
<!-- Node25&#45;&gt;Node9 -->
<g id="edge35_Node000025_Node000009" class="edge">
<title>Node25&#45;&gt;Node9</title>
<g id="a_edge35_Node000025_Node000009"><a xlink:title=" ">
<path fill="none" stroke="#63b8ff" d="M396.41,-322.52C419.11,-317.63 446.21,-311.79 469.59,-306.75"/>
<polygon fill="#63b8ff" stroke="#63b8ff" points="470.22,-310.19 479.26,-304.67 468.74,-303.35 470.22,-310.19"/>
</a>
</g>
</g>
<!-- Node26 -->
<g id="Node000026" class="node">
<title>Node26</title>
<g id="a_Node000026"><a xlink:href="classGamePhase.html#a2597fc4aa3837ecc9146f29b18840855" target="_top" xlink:title="Adds an item to the remaining items.">
<polygon fill="white" stroke="#666666" points="580.75,-381 469.5,-381 469.5,-361 580.75,-361 580.75,-381"/>
<text text-anchor="middle" x="525.12" y="-367.5" font-family="Helvetica,sans-Serif" font-size="10.00">GamePhase::addItem</text>
</a>
</g>
</g>
<!-- Node25&#45;&gt;Node26 -->
<g id="edge33_Node000025_Node000026" class="edge">
<title>Node25&#45;&gt;Node26</title>
<g id="a_edge33_Node000025_Node000026"><a xlink:title=" ">
<path fill="none" stroke="#63b8ff" d="M396.41,-343.48C417.52,-348.03 442.44,-353.4 464.64,-358.18"/>
<polygon fill="#63b8ff" stroke="#63b8ff" points="463.63,-361.55 474.14,-360.23 465.1,-354.7 463.63,-361.55"/>
</a>
</g>
</g>
<!-- Node27 -->
<g id="Node000027" class="node">
<title>Node27</title>
<g id="a_Node000027"><a xlink:href="classMap.html#a44f2313ac9b9ba0b93a664e87c440613" target="_top" xlink:title="Gets the map.">
<polygon fill="white" stroke="#666666" points="561.62,-343 488.62,-343 488.62,-323 561.62,-323 561.62,-343"/>
<text text-anchor="middle" x="525.12" y="-329.5" font-family="Helvetica,sans-Serif" font-size="10.00">Map::getMap</text>
</a>
</g>
</g>
<!-- Node25&#45;&gt;Node27 -->
<g id="edge34_Node000025_Node000027" class="edge">
<title>Node25&#45;&gt;Node27</title>
<g id="a_edge34_Node000025_Node000027"><a xlink:title=" ">
<path fill="none" stroke="#63b8ff" d="M396.88,-333C421.96,-333 452.32,-333 477.09,-333"/>
<polygon fill="#63b8ff" stroke="#63b8ff" points="476.88,-336.5 486.88,-333 476.88,-329.5 476.88,-336.5"/>
</a>
</g>
</g>
<!-- Node29 -->
<g id="Node000029" class="node">
<title>Node29</title>
<g id="a_Node000029"><a xlink:href="classLeaderboard.html#aaf22ea54d8b0e7e5d2bf5c3b9dcbdee2" target="_top" xlink:title="Creates a save file.">
<polygon fill="white" stroke="#666666" points="587.5,-419 462.75,-419 462.75,-399 587.5,-399 587.5,-419"/>
<text text-anchor="middle" x="525.12" y="-405.5" font-family="Helvetica,sans-Serif" font-size="10.00">Leaderboard::createSave</text>
</a>
</g>
</g>
<!-- Node28&#45;&gt;Node29 -->
<g id="edge37_Node000028_Node000029" class="edge">
<title>Node28&#45;&gt;Node29</title>
<g id="a_edge37_Node000028_Node000029"><a xlink:title=" ">
<path fill="none" stroke="#63b8ff" d="M396.41,-381.48C417.52,-386.03 442.44,-391.4 464.64,-396.18"/>
<polygon fill="#63b8ff" stroke="#63b8ff" points="463.63,-399.55 474.14,-398.23 465.1,-392.7 463.63,-399.55"/>
</a>
</g>
</g>
<!-- Node30 -->
<g id="Node000030" class="node">
<title>Node30</title>
<g id="a_Node000030"><a xlink:href="classLeaderboard.html#a9d9d83737bf8412fa71cb1c238c059f6" target="_top" xlink:title="Reads a value from binary save file.">
<polygon fill="white" stroke="#666666" points="572.12,-457 478.12,-457 478.12,-437 572.12,-437 572.12,-457"/>
<text text-anchor="middle" x="525.12" y="-443.5" font-family="Helvetica,sans-Serif" font-size="10.00">Leaderboard::read</text>
</a>
</g>
</g>
<!-- Node28&#45;&gt;Node30 -->
<g id="edge38_Node000028_Node000030" class="edge">
<title>Node28&#45;&gt;Node30</title>
<g id="a_edge38_Node000028_Node000030"><a xlink:title=" ">
<path fill="none" stroke="#63b8ff" d="M390.98,-381.41C397.17,-383.76 403.29,-386.6 408.75,-390 428.5,-402.3 424.6,-416.37 444.75,-428 451.59,-431.95 459.21,-435.08 466.95,-437.56"/>
<polygon fill="#63b8ff" stroke="#63b8ff" points="465.88,-440.89 476.45,-440.24 467.78,-434.16 465.88,-440.89"/>
</a>
</g>
</g>
<!-- Node32 -->
<g id="Node000032" class="node">
<title>Node32</title>
<g id="a_Node000032"><a xlink:href="classGamePhase.html#a097fcd119e1cce98533b731f7e6ae53d" target="_top" xlink:title="Sets the time of the current phase.">
<polygon fill="white" stroke="#666666" points="594.62,-39 455.62,-39 455.62,-19 594.62,-19 594.62,-39"/>
<text text-anchor="middle" x="525.12" y="-25.5" font-family="Helvetica,sans-Serif" font-size="10.00">GamePhase::setPhaseTime</text>
</a>
</g>
</g>
<!-- Node31&#45;&gt;Node32 -->
<g id="edge41_Node000031_Node000032" class="edge">
<title>Node31&#45;&gt;Node32</title>
<g id="a_edge41_Node000031_Node000032"><a xlink:title=" ">
<path fill="none" stroke="#63b8ff" d="M355.25,-132.57C370.02,-112.83 404.93,-70.01 444.75,-48 447.75,-46.34 450.9,-44.82 454.13,-43.44"/>
<polygon fill="#63b8ff" stroke="#63b8ff" points="455.16,-46.79 463.28,-39.99 452.69,-40.24 455.16,-46.79"/>
</a>
</g>
</g>
<!-- Node33&#45;&gt;Node20 -->
<g id="edge43_Node000033_Node000020" class="edge">
<title>Node33&#45;&gt;Node20</title>
<g id="a_edge43_Node000033_Node000020"><a xlink:title=" ">
<path fill="none" stroke="#63b8ff" d="M233.73,-189.62C239.08,-187.3 244.23,-184.46 248.75,-181 272.53,-162.78 260.37,-141.42 284.75,-124 338.55,-85.54 414.8,-72.75 466.69,-68.65"/>
<polygon fill="#63b8ff" stroke="#63b8ff" points="466.78,-72.15 476.52,-67.97 466.3,-65.17 466.78,-72.15"/>
</a>
</g>
</g>
</g>
</svg>
