<?xml version="1.0" encoding="UTF-8" standalone="no"?>
<!DOCTYPE svg PUBLIC "-//W3C//DTD SVG 1.1//EN"
 "http://www.w3.org/Graphics/SVG/1.1/DTD/svg11.dtd">
<!-- Generated by graphviz version 10.0.1 (0)
 -->
<!-- Title: Config::getValue Pages: 1 -->
<svg width="532pt" height="218pt"
 viewBox="0.00 0.00 531.75 218.00" xmlns="http://www.w3.org/2000/svg" xmlns:xlink="http://www.w3.org/1999/xlink">
<g id="graph0" class="graph" transform="scale(1 1) rotate(0) translate(4 214)">
<title>Config::getValue</title>
<!-- Node1 -->
<g id="Node000001" class="node">
<title>Node1</title>
<g id="a_Node000001"><a xlink:title="Gets any value from the config map.">
<polygon fill="#999999" stroke="#666666" points="523.75,-115 435.75,-115 435.75,-95 523.75,-95 523.75,-115"/>
<text text-anchor="middle" x="479.75" y="-101.5" font-family="Helvetica,sans-Serif" font-size="10.00">Config::getValue</text>
</a>
</g>
</g>
<!-- Node2 -->
<g id="Node000002" class="node">
<title>Node2</title>
<g id="a_Node000002"><a xlink:href="classGame.html#aa2d938aa918268060e63980c7efd86f8" target="_top" xlink:title="Ends the game.">
<polygon fill="white" stroke="#666666" points="366.75,-210 302.75,-210 302.75,-190 366.75,-190 366.75,-210"/>
<text text-anchor="middle" x="334.75" y="-196.5" font-family="Helvetica,sans-Serif" font-size="10.00">Game::end</text>
</a>
</g>
</g>
<!-- Node1&#45;&gt;Node2 -->
<g id="edge1_Node000001_Node000002" class="edge">
<title>Node1&#45;&gt;Node2</title>
<g id="a_edge1_Node000001_Node000002"><a xlink:title=" ">
<path fill="none" stroke="#63b8ff" d="M463.54,-124.14C448.9,-141.35 425.28,-166.13 399.75,-181 389.73,-186.83 377.78,-191.01 366.92,-193.93"/>
<polygon fill="#63b8ff" stroke="#63b8ff" points="466.06,-126.58 469.74,-116.64 460.67,-122.12 466.06,-126.58"/>
</a>
</g>
</g>
<!-- Node4 -->
<g id="Node000004" class="node">
<title>Node4</title>
<g id="a_Node000004"><a xlink:href="classGame.html#a4c2a7ead717a4c13f1ffddafd11e17c8" target="_top" xlink:title="Initializes the game, loading config, and the map.">
<polygon fill="white" stroke="#666666" points="233.75,-96 124,-96 124,-76 233.75,-76 233.75,-96"/>
<text text-anchor="middle" x="178.88" y="-82.5" font-family="Helvetica,sans-Serif" font-size="10.00">Game::initializeGame</text>
</a>
</g>
</g>
<!-- Node1&#45;&gt;Node4 -->
<g id="edge3_Node000001_Node000004" class="edge">
<title>Node1&#45;&gt;Node4</title>
<g id="a_edge3_Node000001_Node000004"><a xlink:title=" ">
<path fill="none" stroke="#63b8ff" d="M423.95,-108.11C381.7,-109.75 321.87,-110.45 269.75,-105 253.41,-103.29 235.67,-99.88 220.3,-96.42"/>
<polygon fill="#63b8ff" stroke="#63b8ff" points="424.03,-111.61 433.87,-107.68 423.73,-104.61 424.03,-111.61"/>
</a>
</g>
</g>
<!-- Node6 -->
<g id="Node000006" class="node">
<title>Node6</title>
<g id="a_Node000006"><a xlink:href="classGame.html#a1118c369ae5b2fe433aac540cb32d187" target="_top" xlink:title="Starts the game with a new map.">
<polygon fill="white" stroke="#666666" points="88,-58 0,-58 0,-38 88,-38 88,-58"/>
<text text-anchor="middle" x="44" y="-44.5" font-family="Helvetica,sans-Serif" font-size="10.00">Game::startNew</text>
</a>
</g>
</g>
<!-- Node1&#45;&gt;Node6 -->
<g id="edge11_Node000001_Node000006" class="edge">
<title>Node1&#45;&gt;Node6</title>
<g id="a_edge11_Node000001_Node000006"><a xlink:title=" ">
<path fill="none" stroke="#63b8ff" d="M452.24,-88.99C437.36,-80.85 418.14,-71.71 399.75,-67 290.42,-38.97 156.12,-41.31 88.42,-44.92"/>
<polygon fill="#63b8ff" stroke="#63b8ff" points="450.49,-92.02 460.92,-93.91 453.95,-85.93 450.49,-92.02"/>
</a>
</g>
</g>
<!-- Node7 -->
<g id="Node000007" class="node">
<title>Node7</title>
<g id="a_Node000007"><a xlink:href="classConfig.html#ab8b24da021cd9ad9ca092749292ca6ed" target="_top" xlink:title="Loads the config from a file.">
<polygon fill="white" stroke="#666666" points="383.25,-20 286.25,-20 286.25,0 383.25,0 383.25,-20"/>
<text text-anchor="middle" x="334.75" y="-6.5" font-family="Helvetica,sans-Serif" font-size="10.00">Config::loadConfig</text>
</a>
</g>
</g>
<!-- Node1&#45;&gt;Node7 -->
<g id="edge6_Node000001_Node000007" class="edge">
<title>Node1&#45;&gt;Node7</title>
<g id="a_edge6_Node000001_Node000007"><a xlink:title=" ">
<path fill="none" stroke="#63b8ff" d="M461.89,-86.35C446.86,-70.64 423.6,-48.48 399.75,-34 390.82,-28.58 380.47,-24.05 370.73,-20.44"/>
<polygon fill="#63b8ff" stroke="#63b8ff" points="459.31,-88.72 468.7,-93.64 464.43,-83.94 459.31,-88.72"/>
</a>
</g>
</g>
<!-- Node10 -->
<g id="Node000010" class="node">
<title>Node10</title>
<g id="a_Node000010"><a xlink:href="classGame.html#a1290bdc979d75815efe4d21e83a806cb" target="_top" xlink:title="Loads the object from the map.">
<polygon fill="white" stroke="#666666" points="384.75,-96 284.75,-96 284.75,-76 384.75,-76 384.75,-96"/>
<text text-anchor="middle" x="334.75" y="-82.5" font-family="Helvetica,sans-Serif" font-size="10.00">Game::loadObjects</text>
</a>
</g>
</g>
<!-- Node1&#45;&gt;Node10 -->
<g id="edge9_Node000001_Node000010" class="edge">
<title>Node1&#45;&gt;Node10</title>
<g id="a_edge9_Node000001_Node000010"><a xlink:title=" ">
<path fill="none" stroke="#63b8ff" d="M424.38,-97.78C411.49,-96.06 397.81,-94.25 385.16,-92.56"/>
<polygon fill="#63b8ff" stroke="#63b8ff" points="423.58,-101.2 433.96,-99.05 424.5,-94.26 423.58,-101.2"/>
</a>
</g>
</g>
<!-- Node11 -->
<g id="Node000011" class="node">
<title>Node11</title>
<g id="a_Node000011"><a xlink:href="classGame.html#a9f8150e56d9f2c53d172ef0443630de7" target="_top" xlink:title="Updates the game phase timer.">
<polygon fill="white" stroke="#666666" points="399.75,-172 269.75,-172 269.75,-152 399.75,-152 399.75,-172"/>
<text text-anchor="middle" x="334.75" y="-158.5" font-family="Helvetica,sans-Serif" font-size="10.00">Game::updatePhaseTimer</text>
</a>
</g>
</g>
<!-- Node1&#45;&gt;Node11 -->
<g id="edge12_Node000001_Node000011" class="edge">
<title>Node1&#45;&gt;Node11</title>
<g id="a_edge12_Node000001_Node000011"><a xlink:title=" ">
<path fill="none" stroke="#63b8ff" d="M443.84,-119.91C430.14,-125.67 414.25,-132.25 399.75,-138 388.17,-142.59 375.32,-147.45 364.19,-151.59"/>
<polygon fill="#63b8ff" stroke="#63b8ff" points="445.05,-123.2 452.9,-116.08 442.32,-116.75 445.05,-123.2"/>
</a>
</g>
</g>
<!-- Node3 -->
<g id="Node000003" class="node">
<title>Node3</title>
<g id="a_Node000003"><a xlink:href="classGame.html#aef7682b8bf084aac3c8f929a6fd2f673" target="_top" xlink:title="Updates the game state.">
<polygon fill="white" stroke="#666666" points="217.62,-191 140.12,-191 140.12,-171 217.62,-171 217.62,-191"/>
<text text-anchor="middle" x="178.88" y="-177.5" font-family="Helvetica,sans-Serif" font-size="10.00">Game::update</text>
</a>
</g>
</g>
<!-- Node2&#45;&gt;Node3 -->
<g id="edge2_Node000002_Node000003" class="edge">
<title>Node2&#45;&gt;Node3</title>
<g id="a_edge2_Node000002_Node000003"><a xlink:title=" ">
<path fill="none" stroke="#63b8ff" d="M291.47,-194.78C268.51,-191.94 240.35,-188.47 218.05,-185.71"/>
<polygon fill="#63b8ff" stroke="#63b8ff" points="290.76,-198.22 301.11,-195.97 291.61,-191.27 290.76,-198.22"/>
</a>
</g>
</g>
<!-- Node5 -->
<g id="Node000005" class="node">
<title>Node5</title>
<g id="a_Node000005"><a xlink:href="classGame.html#a2a30c89761624ee64cd7acb147aaf89c" target="_top" xlink:title="Starts the game.">
<polygon fill="white" stroke="#666666" points="77.88,-96 10.12,-96 10.12,-76 77.88,-76 77.88,-96"/>
<text text-anchor="middle" x="44" y="-82.5" font-family="Helvetica,sans-Serif" font-size="10.00">Game::start</text>
</a>
</g>
</g>
<!-- Node4&#45;&gt;Node5 -->
<g id="edge4_Node000004_Node000005" class="edge">
<title>Node4&#45;&gt;Node5</title>
<g id="a_edge4_Node000004_Node000005"><a xlink:title=" ">
<path fill="none" stroke="#63b8ff" d="M112.44,-86C100.49,-86 88.5,-86 78.02,-86"/>
<polygon fill="#63b8ff" stroke="#63b8ff" points="112.32,-89.5 122.32,-86 112.32,-82.5 112.32,-89.5"/>
</a>
</g>
</g>
<!-- Node4&#45;&gt;Node6 -->
<g id="edge5_Node000004_Node000006" class="edge">
<title>Node4&#45;&gt;Node6</title>
<g id="a_edge5_Node000004_Node000006"><a xlink:title=" ">
<path fill="none" stroke="#63b8ff" d="M130.4,-72.42C114.32,-67.82 96.63,-62.77 81.54,-58.45"/>
<polygon fill="#63b8ff" stroke="#63b8ff" points="129.18,-75.71 139.76,-75.1 131.11,-68.98 129.18,-75.71"/>
</a>
</g>
</g>
<!-- Node8 -->
<g id="Node000008" class="node">
<title>Node8</title>
<g id="a_Node000008"><a xlink:href="classGameManager.html#a8460b2f4f44c19dd405e4163fe6cb5cf" target="_top" xlink:title=" ">
<polygon fill="white" stroke="#666666" points="231.5,-20 126.25,-20 126.25,0 231.5,0 231.5,-20"/>
<text text-anchor="middle" x="178.88" y="-6.5" font-family="Helvetica,sans-Serif" font-size="10.00">GameManager::start</text>
</a>
</g>
</g>
<!-- Node7&#45;&gt;Node8 -->
<g id="edge7_Node000007_Node000008" class="edge">
<title>Node7&#45;&gt;Node8</title>
<g id="a_edge7_Node000007_Node000008"><a xlink:title=" ">
<path fill="none" stroke="#63b8ff" d="M274.39,-10C260.41,-10 245.6,-10 231.97,-10"/>
<polygon fill="#63b8ff" stroke="#63b8ff" points="274.39,-13.5 284.39,-10 274.39,-6.5 274.39,-13.5"/>
</a>
</g>
</g>
<!-- Node9 -->
<g id="Node000009" class="node">
<title>Node9</title>
<g id="a_Node000009"><a xlink:href="main_8cpp.html#ae66f6b31b5ad750f1fe042a706a4e3d4" target="_top" xlink:title=" ">
<polygon fill="white" stroke="#666666" points="62.5,-20 25.5,-20 25.5,0 62.5,0 62.5,-20"/>
<text text-anchor="middle" x="44" y="-6.5" font-family="Helvetica,sans-Serif" font-size="10.00">main</text>
</a>
</g>
</g>
<!-- Node8&#45;&gt;Node9 -->
<g id="edge8_Node000008_Node000009" class="edge">
<title>Node8&#45;&gt;Node9</title>
<g id="a_edge8_Node000008_Node000009"><a xlink:title=" ">
<path fill="none" stroke="#63b8ff" d="M114.66,-10C95.59,-10 76.16,-10 62.68,-10"/>
<polygon fill="#63b8ff" stroke="#63b8ff" points="114.61,-13.5 124.61,-10 114.61,-6.5 114.61,-13.5"/>
</a>
</g>
</g>
<!-- Node10&#45;&gt;Node4 -->
<g id="edge10_Node000010_Node000004" class="edge">
<title>Node10&#45;&gt;Node4</title>
<g id="a_edge10_Node000010_Node000004"><a xlink:title=" ">
<path fill="none" stroke="#63b8ff" d="M273.45,-86C260.48,-86 246.84,-86 234.12,-86"/>
<polygon fill="#63b8ff" stroke="#63b8ff" points="273.13,-89.5 283.13,-86 273.13,-82.5 273.13,-89.5"/>
</a>
</g>
</g>
<!-- Node11&#45;&gt;Node3 -->
<g id="edge13_Node000011_Node000003" class="edge">
<title>Node11&#45;&gt;Node3</title>
<g id="a_edge13_Node000011_Node000003"><a xlink:title=" ">
<path fill="none" stroke="#63b8ff" d="M258.25,-171.32C244.31,-173.04 230.31,-174.77 218.07,-176.28"/>
<polygon fill="#63b8ff" stroke="#63b8ff" points="258.39,-174.83 267.88,-170.13 257.53,-167.89 258.39,-174.83"/>
</a>
</g>
</g>
</g>
</svg>
