<?xml version="1.0" encoding="UTF-8" standalone="no"?>
<!DOCTYPE svg PUBLIC "-//W3C//DTD SVG 1.1//EN"
 "http://www.w3.org/Graphics/SVG/1.1/DTD/svg11.dtd">
<!-- Generated by graphviz version 10.0.1 (0)
 -->
<!-- Title: Game::loadObjects Pages: 1 -->
<svg width="255pt" height="104pt"
 viewBox="0.00 0.00 255.25 104.00" xmlns="http://www.w3.org/2000/svg" xmlns:xlink="http://www.w3.org/1999/xlink">
<g id="graph0" class="graph" transform="scale(1 1) rotate(0) translate(4 100)">
<title>Game::loadObjects</title>
<!-- Node1 -->
<g id="Node000001" class="node">
<title>Node1</title>
<g id="a_Node000001"><a xlink:title="Loads the object from the map.">
<polygon fill="#999999" stroke="#666666" points="100,-58 0,-58 0,-38 100,-38 100,-58"/>
<text text-anchor="middle" x="50" y="-44.5" font-family="Helvetica,sans-Serif" font-size="10.00">Game::loadObjects</text>
</a>
</g>
</g>
<!-- Node2 -->
<g id="Node000002" class="node">
<title>Node2</title>
<g id="a_Node000002"><a xlink:href="classGamePhase.html#a2597fc4aa3837ecc9146f29b18840855" target="_top" xlink:title="Adds an item to the remaining items.">
<polygon fill="white" stroke="#666666" points="247.25,-96 136,-96 136,-76 247.25,-76 247.25,-96"/>
<text text-anchor="middle" x="191.62" y="-82.5" font-family="Helvetica,sans-Serif" font-size="10.00">GamePhase::addItem</text>
</a>
</g>
</g>
<!-- Node1&#45;&gt;Node2 -->
<g id="edge1_Node000001_Node000002" class="edge">
<title>Node1&#45;&gt;Node2</title>
<g id="a_edge1_Node000001_Node000002"><a xlink:title=" ">
<path fill="none" stroke="#63b8ff" d="M89.52,-58.48C105.55,-62.85 124.34,-67.96 141.35,-72.59"/>
<polygon fill="#63b8ff" stroke="#63b8ff" points="140.2,-75.9 150.77,-75.15 142.04,-69.15 140.2,-75.9"/>
</a>
</g>
</g>
<!-- Node3 -->
<g id="Node000003" class="node">
<title>Node3</title>
<g id="a_Node000003"><a xlink:href="classMap.html#a44f2313ac9b9ba0b93a664e87c440613" target="_top" xlink:title="Gets the map.">
<polygon fill="white" stroke="#666666" points="228.12,-58 155.12,-58 155.12,-38 228.12,-38 228.12,-58"/>
<text text-anchor="middle" x="191.62" y="-44.5" font-family="Helvetica,sans-Serif" font-size="10.00">Map::getMap</text>
</a>
</g>
</g>
<!-- Node1&#45;&gt;Node3 -->
<g id="edge2_Node000001_Node000003" class="edge">
<title>Node1&#45;&gt;Node3</title>
<g id="a_edge2_Node000001_Node000003"><a xlink:title=" ">
<path fill="none" stroke="#63b8ff" d="M100.23,-48C114.33,-48 129.67,-48 143.64,-48"/>
<polygon fill="#63b8ff" stroke="#63b8ff" points="143.48,-51.5 153.48,-48 143.48,-44.5 143.48,-51.5"/>
</a>
</g>
</g>
<!-- Node4 -->
<g id="Node000004" class="node">
<title>Node4</title>
<g id="a_Node000004"><a xlink:href="classConfig.html#a62c7c2d485cb30374271dba0eafe63c8" target="_top" xlink:title="Gets any value from the config map.">
<polygon fill="white" stroke="#666666" points="235.62,-20 147.62,-20 147.62,0 235.62,0 235.62,-20"/>
<text text-anchor="middle" x="191.62" y="-6.5" font-family="Helvetica,sans-Serif" font-size="10.00">Config::getValue</text>
</a>
</g>
</g>
<!-- Node1&#45;&gt;Node4 -->
<g id="edge3_Node000001_Node000004" class="edge">
<title>Node1&#45;&gt;Node4</title>
<g id="a_edge3_Node000001_Node000004"><a xlink:title=" ">
<path fill="none" stroke="#63b8ff" d="M89.52,-37.52C105.55,-33.15 124.34,-28.04 141.35,-23.41"/>
<polygon fill="#63b8ff" stroke="#63b8ff" points="142.04,-26.85 150.77,-20.85 140.2,-20.1 142.04,-26.85"/>
</a>
</g>
</g>
</g>
</svg>
