<?xml version="1.0" encoding="UTF-8" standalone="no"?>
<!DOCTYPE svg PUBLIC "-//W3C//DTD SVG 1.1//EN"
 "http://www.w3.org/Graphics/SVG/1.1/DTD/svg11.dtd">
<!-- Generated by graphviz version 10.0.1 (0)
 -->
<!-- Title: GamePhase::getPhase Pages: 1 -->
<svg width="405pt" height="180pt"
 viewBox="0.00 0.00 404.75 180.00" xmlns="http://www.w3.org/2000/svg" xmlns:xlink="http://www.w3.org/1999/xlink">
<g id="graph0" class="graph" transform="scale(1 1) rotate(0) translate(4 176)">
<title>GamePhase::getPhase</title>
<!-- Node1 -->
<g id="Node000001" class="node">
<title>Node1</title>
<g id="a_Node000001"><a xlink:title="Returns the current game phase.">
<polygon fill="#999999" stroke="#666666" points="396.75,-96 279.5,-96 279.5,-76 396.75,-76 396.75,-96"/>
<text text-anchor="middle" x="338.12" y="-82.5" font-family="Helvetica,sans-Serif" font-size="10.00">GamePhase::getPhase</text>
</a>
</g>
</g>
<!-- Node2 -->
<g id="Node000002" class="node">
<title>Node2</title>
<g id="a_Node000002"><a xlink:href="classGame.html#a58272899c822e102edfee50a5547612f" target="_top" xlink:title="Moves the player in given direction.">
<polygon fill="white" stroke="#666666" points="228.5,-172 128.5,-172 128.5,-152 228.5,-152 228.5,-172"/>
<text text-anchor="middle" x="178.5" y="-158.5" font-family="Helvetica,sans-Serif" font-size="10.00">Game::movePlayer</text>
</a>
</g>
</g>
<!-- Node1&#45;&gt;Node2 -->
<g id="edge1_Node000001_Node000002" class="edge">
<title>Node1&#45;&gt;Node2</title>
<g id="a_edge1_Node000001_Node000002"><a xlink:title=" ">
<path fill="none" stroke="#63b8ff" d="M313.53,-102.73C295.14,-115.17 268.6,-131.86 243.5,-143 236.19,-146.24 228.17,-149.12 220.36,-151.59"/>
<polygon fill="#63b8ff" stroke="#63b8ff" points="315.35,-105.72 321.6,-97.17 311.38,-99.96 315.35,-105.72"/>
</a>
</g>
</g>
<!-- Node3 -->
<g id="Node000003" class="node">
<title>Node3</title>
<g id="a_Node000003"><a xlink:href="classGhost.html#a16b4f0601026b19a1f4b06e68059372a" target="_top" xlink:title="Updates the object.">
<polygon fill="white" stroke="#666666" points="217.25,-134 139.75,-134 139.75,-114 217.25,-114 217.25,-134"/>
<text text-anchor="middle" x="178.5" y="-120.5" font-family="Helvetica,sans-Serif" font-size="10.00">Ghost::update</text>
</a>
</g>
</g>
<!-- Node1&#45;&gt;Node3 -->
<g id="edge2_Node000001_Node000003" class="edge">
<title>Node1&#45;&gt;Node3</title>
<g id="a_edge2_Node000001_Node000003"><a xlink:title=" ">
<path fill="none" stroke="#63b8ff" d="M282.73,-99.11C261.32,-104.27 237.26,-110.08 217.75,-114.78"/>
<polygon fill="#63b8ff" stroke="#63b8ff" points="283.26,-102.59 292.16,-96.84 281.62,-95.78 283.26,-102.59"/>
</a>
</g>
</g>
<!-- Node4 -->
<g id="Node000004" class="node">
<title>Node4</title>
<g id="a_Node000004"><a xlink:href="classPlayer.html#abc005b0707ae63f395b33d79a876a453" target="_top" xlink:title="Updates the object.">
<polygon fill="white" stroke="#666666" points="218,-96 139,-96 139,-76 218,-76 218,-96"/>
<text text-anchor="middle" x="178.5" y="-82.5" font-family="Helvetica,sans-Serif" font-size="10.00">Player::update</text>
</a>
</g>
</g>
<!-- Node1&#45;&gt;Node4 -->
<g id="edge3_Node000001_Node000004" class="edge">
<title>Node1&#45;&gt;Node4</title>
<g id="a_edge3_Node000001_Node000004"><a xlink:title=" ">
<path fill="none" stroke="#63b8ff" d="M268.18,-86C251.02,-86 233.23,-86 218.12,-86"/>
<polygon fill="#63b8ff" stroke="#63b8ff" points="267.81,-89.5 277.81,-86 267.81,-82.5 267.81,-89.5"/>
</a>
</g>
</g>
<!-- Node5 -->
<g id="Node000005" class="node">
<title>Node5</title>
<g id="a_Node000005"><a xlink:href="classGame.html#aef7682b8bf084aac3c8f929a6fd2f673" target="_top" xlink:title="Updates the game state.">
<polygon fill="white" stroke="#666666" points="77.5,-39 0,-39 0,-19 77.5,-19 77.5,-39"/>
<text text-anchor="middle" x="38.75" y="-25.5" font-family="Helvetica,sans-Serif" font-size="10.00">Game::update</text>
</a>
</g>
</g>
<!-- Node1&#45;&gt;Node5 -->
<g id="edge4_Node000001_Node000005" class="edge">
<title>Node1&#45;&gt;Node5</title>
<g id="a_edge4_Node000001_Node000005"><a xlink:title=" ">
<path fill="none" stroke="#63b8ff" d="M275.62,-73.37C264.92,-71.22 253.89,-69.02 243.5,-67 185.75,-55.76 118.66,-43.37 77.71,-35.89"/>
<polygon fill="#63b8ff" stroke="#63b8ff" points="274.64,-76.75 285.14,-75.3 276.03,-69.89 274.64,-76.75"/>
</a>
</g>
</g>
<!-- Node6 -->
<g id="Node000006" class="node">
<title>Node6</title>
<g id="a_Node000006"><a xlink:href="classGame.html#a9f8150e56d9f2c53d172ef0443630de7" target="_top" xlink:title="Updates the game phase timer.">
<polygon fill="white" stroke="#666666" points="243.5,-20 113.5,-20 113.5,0 243.5,0 243.5,-20"/>
<text text-anchor="middle" x="178.5" y="-6.5" font-family="Helvetica,sans-Serif" font-size="10.00">Game::updatePhaseTimer</text>
</a>
</g>
</g>
<!-- Node1&#45;&gt;Node6 -->
<g id="edge5_Node000001_Node000006" class="edge">
<title>Node1&#45;&gt;Node6</title>
<g id="a_edge5_Node000001_Node000006"><a xlink:title=" ">
<path fill="none" stroke="#63b8ff" d="M310.53,-69.84C292.08,-58.98 266.75,-44.74 243.5,-34 232.84,-29.07 220.85,-24.37 210.16,-20.45"/>
<polygon fill="#63b8ff" stroke="#63b8ff" points="308.58,-72.75 318.96,-74.86 312.16,-66.74 308.58,-72.75"/>
</a>
</g>
</g>
<!-- Node6&#45;&gt;Node5 -->
<g id="edge6_Node000006_Node000005" class="edge">
<title>Node6&#45;&gt;Node5</title>
<g id="a_edge6_Node000006_Node000005"><a xlink:title=" ">
<path fill="none" stroke="#63b8ff" d="M101.76,-20.45C93.5,-21.59 85.38,-22.71 77.87,-23.74"/>
<polygon fill="#63b8ff" stroke="#63b8ff" points="102.13,-23.93 111.56,-19.09 101.18,-16.99 102.13,-23.93"/>
</a>
</g>
</g>
</g>
</svg>
