<?xml version="1.0" encoding="UTF-8" standalone="no"?>
<!DOCTYPE svg PUBLIC "-//W3C//DTD SVG 1.1//EN"
 "http://www.w3.org/Graphics/SVG/1.1/DTD/svg11.dtd">
<!-- Generated by graphviz version 2.43.0 (0)
 -->
<!-- Title: GameObject::getY Pages: 1 -->
<svg width="277pt" height="66pt"
 viewBox="0.00 0.00 277.00 66.00" xmlns="http://www.w3.org/2000/svg" xmlns:xlink="http://www.w3.org/1999/xlink">
<g id="graph0" class="graph" transform="scale(1 1) rotate(0) translate(4 62)">
<title>GameObject::getY</title>
<polygon fill="white" stroke="transparent" points="-4,4 -4,-62 273,-62 273,4 -4,4"/>
<!-- Node1 -->
<g id="node1" class="node">
<title>Node1</title>
<g id="a_node1"><a xlink:title="Gets the y coordinate.">
<polygon fill="#bfbfbf" stroke="black" points="164,-19.5 164,-38.5 269,-38.5 269,-19.5 164,-19.5"/>
<text text-anchor="middle" x="216.5" y="-26.5" font-family="Helvetica,sans-Serif" font-size="10.00">GameObject::getY</text>
</a>
</g>
</g>
<!-- Node2 -->
<g id="node2" class="node">
<title>Node2</title>
<g id="a_node2"><a xlink:href="structChaseBehavior.html#a2352bad80fc83366546accdba99f7d33" target="_top" xlink:title="Gets the ideal direction to move the enemy.">
<polygon fill="white" stroke="black" points="2,-38.5 2,-57.5 126,-57.5 126,-38.5 2,-38.5"/>
<text text-anchor="middle" x="64" y="-45.5" font-family="Helvetica,sans-Serif" font-size="10.00">ChaseBehavior::move</text>
</a>
</g>
</g>
<!-- Node1&#45;&gt;Node2 -->
<g id="edge1" class="edge">
<title>Node1&#45;&gt;Node2</title>
<path fill="none" stroke="midnightblue" d="M153.63,-36.81C144.58,-37.95 135.26,-39.13 126.22,-40.27"/>
<polygon fill="midnightblue" stroke="midnightblue" points="154.22,-40.26 163.71,-35.54 153.35,-33.32 154.22,-40.26"/>
</g>
<!-- Node3 -->
<g id="node3" class="node">
<title>Node3</title>
<g id="a_node3"><a xlink:href="structScatterBehavior.html#abf893e24e51acddd4c3e1cd57e262762" target="_top" xlink:title="Gets the ideal direction to move the enemy.">
<polygon fill="white" stroke="black" points="0,-0.5 0,-19.5 128,-19.5 128,-0.5 0,-0.5"/>
<text text-anchor="middle" x="64" y="-7.5" font-family="Helvetica,sans-Serif" font-size="10.00">ScatterBehavior::move</text>
</a>
</g>
</g>
<!-- Node1&#45;&gt;Node3 -->
<g id="edge2" class="edge">
<title>Node1&#45;&gt;Node3</title>
<path fill="none" stroke="midnightblue" d="M153.58,-21.18C145.16,-20.12 136.51,-19.03 128.07,-17.96"/>
<polygon fill="midnightblue" stroke="midnightblue" points="153.35,-24.68 163.71,-22.46 154.22,-17.74 153.35,-24.68"/>
</g>
</g>
</svg>
