<?xml version="1.0" encoding="UTF-8" standalone="no"?>
<!DOCTYPE svg PUBLIC "-//W3C//DTD SVG 1.1//EN"
 "http://www.w3.org/Graphics/SVG/1.1/DTD/svg11.dtd">
<!-- Generated by graphviz version 2.43.0 (0)
 -->
<!-- Title: Game::draw Pages: 1 -->
<svg width="447pt" height="180pt"
 viewBox="0.00 0.00 447.00 180.00" xmlns="http://www.w3.org/2000/svg" xmlns:xlink="http://www.w3.org/1999/xlink">
<g id="graph0" class="graph" transform="scale(1 1) rotate(0) translate(4 176)">
<title>Game::draw</title>
<polygon fill="white" stroke="transparent" points="-4,4 -4,-176 443,-176 443,4 -4,4"/>
<!-- Node1 -->
<g id="node1" class="node">
<title>Node1</title>
<g id="a_node1"><a xlink:title="Draws the game.">
<polygon fill="#bfbfbf" stroke="black" points="0,-76.5 0,-95.5 76,-95.5 76,-76.5 0,-76.5"/>
<text text-anchor="middle" x="38" y="-83.5" font-family="Helvetica,sans-Serif" font-size="10.00">Game::draw</text>
</a>
</g>
</g>
<!-- Node2 -->
<g id="node2" class="node">
<title>Node2</title>
<g id="a_node2"><a xlink:href="classGamePhase.html#a337c0a04d2c1d159ff9a98e99e11116a" target="_top" xlink:title="Returns the current level.">
<polygon fill="white" stroke="black" points="139,-152.5 139,-171.5 262,-171.5 262,-152.5 139,-152.5"/>
<text text-anchor="middle" x="200.5" y="-159.5" font-family="Helvetica,sans-Serif" font-size="10.00">GamePhase::getLevel</text>
</a>
</g>
</g>
<!-- Node1&#45;&gt;Node2 -->
<g id="edge1" class="edge">
<title>Node1&#45;&gt;Node2</title>
<path fill="none" stroke="midnightblue" d="M48.42,-95.7C61.48,-108.55 86.38,-130.99 112,-143 117.32,-145.49 122.98,-147.67 128.75,-149.56"/>
<polygon fill="midnightblue" stroke="midnightblue" points="127.97,-152.97 138.55,-152.48 129.97,-146.27 127.97,-152.97"/>
</g>
<!-- Node3 -->
<g id="node3" class="node">
<title>Node3</title>
<g id="a_node3"><a xlink:href="classGamePhase.html#a1e01dd9cbefce12ad832102c3a9ed3a2" target="_top" xlink:title="Returns the number of remaining items.">
<polygon fill="white" stroke="black" points="112,-114.5 112,-133.5 289,-133.5 289,-114.5 112,-114.5"/>
<text text-anchor="middle" x="200.5" y="-121.5" font-family="Helvetica,sans-Serif" font-size="10.00">GamePhase::getRemainingItems</text>
</a>
</g>
</g>
<!-- Node1&#45;&gt;Node3 -->
<g id="edge2" class="edge">
<title>Node1&#45;&gt;Node3</title>
<path fill="none" stroke="midnightblue" d="M74.57,-95.57C86.45,-98.68 99.77,-102.08 112,-105 122.31,-107.46 133.34,-109.96 143.97,-112.3"/>
<polygon fill="midnightblue" stroke="midnightblue" points="143.49,-115.78 154.01,-114.49 144.98,-108.94 143.49,-115.78"/>
</g>
<!-- Node4 -->
<g id="node4" class="node">
<title>Node4</title>
<g id="a_node4"><a xlink:href="classWindow.html#aaa279ff498c917ba2535b26e5f396c7c" target="_top" xlink:title="Prints character at given position, default color.">
<polygon fill="white" stroke="black" points="142.5,-76.5 142.5,-95.5 258.5,-95.5 258.5,-76.5 142.5,-76.5"/>
<text text-anchor="middle" x="200.5" y="-83.5" font-family="Helvetica,sans-Serif" font-size="10.00">Window::printCharAt</text>
</a>
</g>
</g>
<!-- Node1&#45;&gt;Node4 -->
<g id="edge3" class="edge">
<title>Node1&#45;&gt;Node4</title>
<path fill="none" stroke="midnightblue" d="M76.23,-86C92.87,-86 113.01,-86 132.15,-86"/>
<polygon fill="midnightblue" stroke="midnightblue" points="132.35,-89.5 142.35,-86 132.35,-82.5 132.35,-89.5"/>
</g>
<!-- Node5 -->
<g id="node5" class="node">
<title>Node5</title>
<g id="a_node5"><a xlink:href="classWindow.html#a7f8803b32163553cf314fa01b703c9a8" target="_top" xlink:title="Prints the game UI.">
<polygon fill="white" stroke="black" points="153.5,-38.5 153.5,-57.5 247.5,-57.5 247.5,-38.5 153.5,-38.5"/>
<text text-anchor="middle" x="200.5" y="-45.5" font-family="Helvetica,sans-Serif" font-size="10.00">Window::printUI</text>
</a>
</g>
</g>
<!-- Node1&#45;&gt;Node5 -->
<g id="edge4" class="edge">
<title>Node1&#45;&gt;Node5</title>
<path fill="none" stroke="midnightblue" d="M74.57,-76.43C86.45,-73.32 99.77,-69.92 112,-67 122.31,-64.54 133.34,-62.04 143.97,-59.7"/>
<polygon fill="midnightblue" stroke="midnightblue" points="144.98,-63.06 154.01,-57.51 143.49,-56.22 144.98,-63.06"/>
</g>
<!-- Node7 -->
<g id="node7" class="node">
<title>Node7</title>
<g id="a_node7"><a xlink:href="classWindow.html#a3c38bfdaf7cb6ebcfdbcb40916a72bf7" target="_top" xlink:title="Refreshes the current window.">
<polygon fill="white" stroke="black" points="325,-0.5 325,-19.5 439,-19.5 439,-0.5 325,-0.5"/>
<text text-anchor="middle" x="382" y="-7.5" font-family="Helvetica,sans-Serif" font-size="10.00">Window::refreshWin</text>
</a>
</g>
</g>
<!-- Node1&#45;&gt;Node7 -->
<g id="edge7" class="edge">
<title>Node1&#45;&gt;Node7</title>
<path fill="none" stroke="midnightblue" d="M47.76,-76.21C60.43,-62.81 85.28,-39.26 112,-29 177.62,-3.79 258.81,-1.62 314.73,-4.13"/>
<polygon fill="midnightblue" stroke="midnightblue" points="314.7,-7.63 324.86,-4.65 315.05,-0.64 314.7,-7.63"/>
</g>
<!-- Node6 -->
<g id="node6" class="node">
<title>Node6</title>
<g id="a_node6"><a xlink:href="classWindow.html#aad6d9b11314512a7fbc775a3fef9ca1c" target="_top" xlink:title="Helper function for printing lives.">
<polygon fill="white" stroke="black" points="327.5,-38.5 327.5,-57.5 436.5,-57.5 436.5,-38.5 327.5,-38.5"/>
<text text-anchor="middle" x="382" y="-45.5" font-family="Helvetica,sans-Serif" font-size="10.00">Window::printLives</text>
</a>
</g>
</g>
<!-- Node5&#45;&gt;Node6 -->
<g id="edge5" class="edge">
<title>Node5&#45;&gt;Node6</title>
<path fill="none" stroke="midnightblue" d="M247.73,-48C268.9,-48 294.34,-48 317.29,-48"/>
<polygon fill="midnightblue" stroke="midnightblue" points="317.29,-51.5 327.29,-48 317.29,-44.5 317.29,-51.5"/>
</g>
<!-- Node5&#45;&gt;Node7 -->
<g id="edge6" class="edge">
<title>Node5&#45;&gt;Node7</title>
<path fill="none" stroke="midnightblue" d="M246.8,-38.41C270.91,-33.31 300.75,-26.99 326.17,-21.61"/>
<polygon fill="midnightblue" stroke="midnightblue" points="326.97,-25.02 336.03,-19.52 325.52,-18.17 326.97,-25.02"/>
</g>
</g>
</svg>
