<?xml version="1.0" encoding="UTF-8" standalone="no"?>
<!DOCTYPE svg PUBLIC "-//W3C//DTD SVG 1.1//EN"
 "http://www.w3.org/Graphics/SVG/1.1/DTD/svg11.dtd">
<!-- Generated by graphviz version 10.0.1 (0)
 -->
<!-- Title: GameObject::resetColor Pages: 1 -->
<svg width="324pt" height="66pt"
 viewBox="0.00 0.00 324.25 66.00" xmlns="http://www.w3.org/2000/svg" xmlns:xlink="http://www.w3.org/1999/xlink">
<g id="graph0" class="graph" transform="scale(1 1) rotate(0) translate(4 62)">
<title>GameObject::resetColor</title>
<!-- Node1 -->
<g id="Node000001" class="node">
<title>Node1</title>
<g id="a_Node000001"><a xlink:title="Resets the object color to default.">
<polygon fill="#999999" stroke="#666666" points="316.25,-39 194.5,-39 194.5,-19 316.25,-19 316.25,-39"/>
<text text-anchor="middle" x="255.38" y="-25.5" font-family="Helvetica,sans-Serif" font-size="10.00">GameObject::resetColor</text>
</a>
</g>
</g>
<!-- Node2 -->
<g id="Node000002" class="node">
<title>Node2</title>
<g id="a_Node000002"><a xlink:href="structChaseBehavior.html#a8d61f5095bcec808c915637ece4a1f31" target="_top" xlink:title="Handles the behavior of the enemy when changing the game phase.">
<polygon fill="white" stroke="#666666" points="157,-58 1.5,-58 1.5,-38 157,-38 157,-58"/>
<text text-anchor="middle" x="79.25" y="-44.5" font-family="Helvetica,sans-Serif" font-size="10.00">ChaseBehavior::handleBehavior</text>
</a>
</g>
</g>
<!-- Node1&#45;&gt;Node2 -->
<g id="edge1_Node000001_Node000002" class="edge">
<title>Node1&#45;&gt;Node2</title>
<g id="a_edge1_Node000001_Node000002"><a xlink:title=" ">
<path fill="none" stroke="#63b8ff" d="M183.01,-36.79C174.5,-37.72 165.78,-38.67 157.2,-39.6"/>
<polygon fill="#63b8ff" stroke="#63b8ff" points="183.39,-40.27 192.95,-35.7 182.63,-33.31 183.39,-40.27"/>
</a>
</g>
</g>
<!-- Node3 -->
<g id="Node000003" class="node">
<title>Node3</title>
<g id="a_Node000003"><a xlink:href="structScatterBehavior.html#a71bec433e6f46246abc648cc14a0a9af" target="_top" xlink:title="Handles the behavior of the enemy when changing the game phase.">
<polygon fill="white" stroke="#666666" points="158.5,-20 0,-20 0,0 158.5,0 158.5,-20"/>
<text text-anchor="middle" x="79.25" y="-6.5" font-family="Helvetica,sans-Serif" font-size="10.00">ScatterBehavior::handleBehavior</text>
</a>
</g>
</g>
<!-- Node1&#45;&gt;Node3 -->
<g id="edge2_Node000001_Node000003" class="edge">
<title>Node1&#45;&gt;Node3</title>
<g id="a_edge2_Node000001_Node000003"><a xlink:title=" ">
<path fill="none" stroke="#63b8ff" d="M183.2,-21.23C175.14,-20.35 166.89,-19.45 158.73,-18.56"/>
<polygon fill="#63b8ff" stroke="#63b8ff" points="182.63,-24.69 192.95,-22.3 183.39,-17.73 182.63,-24.69"/>
</a>
</g>
</g>
</g>
</svg>
