<?xml version="1.0" encoding="UTF-8" standalone="no"?>
<!DOCTYPE svg PUBLIC "-//W3C//DTD SVG 1.1//EN"
 "http://www.w3.org/Graphics/SVG/1.1/DTD/svg11.dtd">
<!-- Generated by graphviz version 2.43.0 (0)
 -->
<!-- Title: Game::loadObjects Pages: 1 -->
<svg width="276pt" height="104pt"
 viewBox="0.00 0.00 276.00 104.00" xmlns="http://www.w3.org/2000/svg" xmlns:xlink="http://www.w3.org/1999/xlink">
<g id="graph0" class="graph" transform="scale(1 1) rotate(0) translate(4 100)">
<title>Game::loadObjects</title>
<polygon fill="white" stroke="transparent" points="-4,4 -4,-100 272,-100 272,4 -4,4"/>
<!-- Node1 -->
<g id="node1" class="node">
<title>Node1</title>
<g id="a_node1"><a xlink:title="Loads the object from the map.">
<polygon fill="#bfbfbf" stroke="black" points="0,-38.5 0,-57.5 110,-57.5 110,-38.5 0,-38.5"/>
<text text-anchor="middle" x="55" y="-45.5" font-family="Helvetica,sans-Serif" font-size="10.00">Game::loadObjects</text>
</a>
</g>
</g>
<!-- Node2 -->
<g id="node2" class="node">
<title>Node2</title>
<g id="a_node2"><a xlink:href="classGamePhase.html#a2597fc4aa3837ecc9146f29b18840855" target="_top" xlink:title="Adds an item to the remaining items.">
<polygon fill="white" stroke="black" points="146,-76.5 146,-95.5 268,-95.5 268,-76.5 146,-76.5"/>
<text text-anchor="middle" x="207" y="-83.5" font-family="Helvetica,sans-Serif" font-size="10.00">GamePhase::addItem</text>
</a>
</g>
</g>
<!-- Node1&#45;&gt;Node2 -->
<g id="edge1" class="edge">
<title>Node1&#45;&gt;Node2</title>
<path fill="none" stroke="midnightblue" d="M93.85,-57.59C113.47,-62.56 137.62,-68.68 158.48,-73.96"/>
<polygon fill="midnightblue" stroke="midnightblue" points="157.87,-77.42 168.42,-76.48 159.59,-70.63 157.87,-77.42"/>
</g>
<!-- Node3 -->
<g id="node3" class="node">
<title>Node3</title>
<g id="a_node3"><a xlink:href="classMap.html#ad1c83970b8e220d3ba55b755e84453d7" target="_top" xlink:title="Gets the map.">
<polygon fill="white" stroke="black" points="167,-38.5 167,-57.5 247,-57.5 247,-38.5 167,-38.5"/>
<text text-anchor="middle" x="207" y="-45.5" font-family="Helvetica,sans-Serif" font-size="10.00">Map::getMap</text>
</a>
</g>
</g>
<!-- Node1&#45;&gt;Node3 -->
<g id="edge2" class="edge">
<title>Node1&#45;&gt;Node3</title>
<path fill="none" stroke="midnightblue" d="M110.15,-48C125.43,-48 141.95,-48 156.91,-48"/>
<polygon fill="midnightblue" stroke="midnightblue" points="156.98,-51.5 166.98,-48 156.98,-44.5 156.98,-51.5"/>
</g>
<!-- Node4 -->
<g id="node4" class="node">
<title>Node4</title>
<g id="a_node4"><a xlink:href="classConfig.html#a62c7c2d485cb30374271dba0eafe63c8" target="_top" xlink:title="Gets any value from the config map.">
<polygon fill="white" stroke="black" points="159,-0.5 159,-19.5 255,-19.5 255,-0.5 159,-0.5"/>
<text text-anchor="middle" x="207" y="-7.5" font-family="Helvetica,sans-Serif" font-size="10.00">Config::getValue</text>
</a>
</g>
</g>
<!-- Node1&#45;&gt;Node4 -->
<g id="edge3" class="edge">
<title>Node1&#45;&gt;Node4</title>
<path fill="none" stroke="midnightblue" d="M93.85,-38.41C113.47,-33.44 137.62,-27.32 158.48,-22.04"/>
<polygon fill="midnightblue" stroke="midnightblue" points="159.59,-25.37 168.42,-19.52 157.87,-18.58 159.59,-25.37"/>
</g>
</g>
</svg>
