<?xml version="1.0" encoding="UTF-8" standalone="no"?>
<!DOCTYPE svg PUBLIC "-//W3C//DTD SVG 1.1//EN"
 "http://www.w3.org/Graphics/SVG/1.1/DTD/svg11.dtd">
<!-- Generated by graphviz version 10.0.1 (0)
 -->
<!-- Title: Game::returnAllToStart Pages: 1 -->
<svg width="566pt" height="180pt"
 viewBox="0.00 0.00 566.25 180.00" xmlns="http://www.w3.org/2000/svg" xmlns:xlink="http://www.w3.org/1999/xlink">
<g id="graph0" class="graph" transform="scale(1 1) rotate(0) translate(4 176)">
<title>Game::returnAllToStart</title>
<!-- Node1 -->
<g id="Node000001" class="node">
<title>Node1</title>
<g id="a_Node000001"><a xlink:title="Returns all moving objects to their starting positions.">
<polygon fill="#999999" stroke="#666666" points="115.75,-58 0,-58 0,-38 115.75,-38 115.75,-58"/>
<text text-anchor="middle" x="57.88" y="-44.5" font-family="Helvetica,sans-Serif" font-size="10.00">Game::returnAllToStart</text>
</a>
</g>
</g>
<!-- Node2 -->
<g id="Node000002" class="node">
<title>Node2</title>
<g id="a_Node000002"><a xlink:href="classGame.html#a6d54497ce3a66f6dd45eacfdccc8d0bd" target="_top" xlink:title="Draws the game.">
<polygon fill="white" stroke="#666666" points="221,-86 151.75,-86 151.75,-66 221,-66 221,-86"/>
<text text-anchor="middle" x="186.38" y="-72.5" font-family="Helvetica,sans-Serif" font-size="10.00">Game::draw</text>
</a>
</g>
</g>
<!-- Node1&#45;&gt;Node2 -->
<g id="edge1_Node000001_Node000002" class="edge">
<title>Node1&#45;&gt;Node2</title>
<g id="a_edge1_Node000001_Node000002"><a xlink:title=" ">
<path fill="none" stroke="#63b8ff" d="M105.98,-58.43C117.14,-60.9 129.01,-63.52 140.09,-65.98"/>
<polygon fill="#63b8ff" stroke="#63b8ff" points="139.27,-69.38 149.79,-68.12 140.79,-62.55 139.27,-69.38"/>
</a>
</g>
</g>
<!-- Node5 -->
<g id="Node000005" class="node">
<title>Node5</title>
<g id="a_Node000005"><a xlink:href="classWindow.html#aaa279ff498c917ba2535b26e5f396c7c" target="_top" xlink:title="Prints character at given position, default color.">
<polygon fill="white" stroke="#666666" points="390.75,-20 284,-20 284,0 390.75,0 390.75,-20"/>
<text text-anchor="middle" x="337.38" y="-6.5" font-family="Helvetica,sans-Serif" font-size="10.00">Window::printCharAt</text>
</a>
</g>
</g>
<!-- Node1&#45;&gt;Node5 -->
<g id="edge9_Node000001_Node000005" class="edge">
<title>Node1&#45;&gt;Node5</title>
<g id="a_edge9_Node000001_Node000005"><a xlink:title=" ">
<path fill="none" stroke="#63b8ff" d="M116.04,-40.17C161.48,-33.95 225.02,-25.25 272.2,-18.79"/>
<polygon fill="#63b8ff" stroke="#63b8ff" points="272.58,-22.27 282.02,-17.44 271.63,-15.33 272.58,-22.27"/>
</a>
</g>
</g>
<!-- Node3 -->
<g id="Node000003" class="node">
<title>Node3</title>
<g id="a_Node000003"><a xlink:href="classGamePhase.html#a337c0a04d2c1d159ff9a98e99e11116a" target="_top" xlink:title="Returns the current level.">
<polygon fill="white" stroke="#666666" points="393.75,-172 281,-172 281,-152 393.75,-152 393.75,-172"/>
<text text-anchor="middle" x="337.38" y="-158.5" font-family="Helvetica,sans-Serif" font-size="10.00">GamePhase::getLevel</text>
</a>
</g>
</g>
<!-- Node2&#45;&gt;Node3 -->
<g id="edge2_Node000002_Node000003" class="edge">
<title>Node2&#45;&gt;Node3</title>
<g id="a_edge2_Node000002_Node000003"><a xlink:title=" ">
<path fill="none" stroke="#63b8ff" d="M195.14,-86.38C206.85,-101.27 230.51,-128.51 257,-143 261.13,-145.26 265.52,-147.25 270.03,-149"/>
<polygon fill="#63b8ff" stroke="#63b8ff" points="268.71,-152.25 279.3,-152.2 270.99,-145.63 268.71,-152.25"/>
</a>
</g>
</g>
<!-- Node4 -->
<g id="Node000004" class="node">
<title>Node4</title>
<g id="a_Node000004"><a xlink:href="classGamePhase.html#a1e01dd9cbefce12ad832102c3a9ed3a2" target="_top" xlink:title="Returns the number of remaining items.">
<polygon fill="white" stroke="#666666" points="417.75,-134 257,-134 257,-114 417.75,-114 417.75,-134"/>
<text text-anchor="middle" x="337.38" y="-120.5" font-family="Helvetica,sans-Serif" font-size="10.00">GamePhase::getRemainingItems</text>
</a>
</g>
</g>
<!-- Node2&#45;&gt;Node4 -->
<g id="edge3_Node000002_Node000004" class="edge">
<title>Node2&#45;&gt;Node4</title>
<g id="a_edge3_Node000002_Node000004"><a xlink:title=" ">
<path fill="none" stroke="#63b8ff" d="M209.92,-86.47C223.38,-92.45 240.94,-99.77 257,-105 263.21,-107.02 269.77,-108.93 276.33,-110.71"/>
<polygon fill="#63b8ff" stroke="#63b8ff" points="275.32,-114.06 285.87,-113.18 277.07,-107.28 275.32,-114.06"/>
</a>
</g>
</g>
<!-- Node2&#45;&gt;Node5 -->
<g id="edge4_Node000002_Node000005" class="edge">
<title>Node2&#45;&gt;Node5</title>
<g id="a_edge4_Node000002_Node000005"><a xlink:title=" ">
<path fill="none" stroke="#63b8ff" d="M202.27,-65.52C215.97,-56.23 237.13,-42.83 257,-34 265.51,-30.22 274.79,-26.81 283.9,-23.84"/>
<polygon fill="#63b8ff" stroke="#63b8ff" points="284.92,-27.19 293.43,-20.88 282.84,-20.5 284.92,-27.19"/>
</a>
</g>
</g>
<!-- Node6 -->
<g id="Node000006" class="node">
<title>Node6</title>
<g id="a_Node000006"><a xlink:href="classWindow.html#a7f8803b32163553cf314fa01b703c9a8" target="_top" xlink:title="Prints the game UI.">
<polygon fill="white" stroke="#666666" points="380.62,-96 294.12,-96 294.12,-76 380.62,-76 380.62,-96"/>
<text text-anchor="middle" x="337.38" y="-82.5" font-family="Helvetica,sans-Serif" font-size="10.00">Window::printUI</text>
</a>
</g>
</g>
<!-- Node2&#45;&gt;Node6 -->
<g id="edge5_Node000002_Node000006" class="edge">
<title>Node2&#45;&gt;Node6</title>
<g id="a_edge5_Node000002_Node000006"><a xlink:title=" ">
<path fill="none" stroke="#63b8ff" d="M221.19,-78.27C239.29,-79.48 262.01,-81.01 282.48,-82.38"/>
<polygon fill="#63b8ff" stroke="#63b8ff" points="282.17,-85.87 292.38,-83.05 282.64,-78.89 282.17,-85.87"/>
</a>
</g>
</g>
<!-- Node8 -->
<g id="Node000008" class="node">
<title>Node8</title>
<g id="a_Node000008"><a xlink:href="classWindow.html#a3c38bfdaf7cb6ebcfdbcb40916a72bf7" target="_top" xlink:title="Refreshes the current window.">
<polygon fill="white" stroke="#666666" points="558.25,-58 453.75,-58 453.75,-38 558.25,-38 558.25,-58"/>
<text text-anchor="middle" x="506" y="-44.5" font-family="Helvetica,sans-Serif" font-size="10.00">Window::refreshWin</text>
</a>
</g>
</g>
<!-- Node2&#45;&gt;Node8 -->
<g id="edge8_Node000002_Node000008" class="edge">
<title>Node2&#45;&gt;Node8</title>
<g id="a_edge8_Node000002_Node000008"><a xlink:title=" ">
<path fill="none" stroke="#63b8ff" d="M221.33,-71.25C232.66,-69.76 245.36,-68.2 257,-67 319.96,-60.52 392.13,-55.23 442.32,-51.9"/>
<polygon fill="#63b8ff" stroke="#63b8ff" points="442.37,-55.4 452.12,-51.25 441.91,-48.42 442.37,-55.4"/>
</a>
</g>
</g>
<!-- Node7 -->
<g id="Node000007" class="node">
<title>Node7</title>
<g id="a_Node000007"><a xlink:href="classWindow.html#aad6d9b11314512a7fbc775a3fef9ca1c" target="_top" xlink:title="Helper function for printing lives.">
<polygon fill="white" stroke="#666666" points="555.62,-96 456.38,-96 456.38,-76 555.62,-76 555.62,-96"/>
<text text-anchor="middle" x="506" y="-82.5" font-family="Helvetica,sans-Serif" font-size="10.00">Window::printLives</text>
</a>
</g>
</g>
<!-- Node6&#45;&gt;Node7 -->
<g id="edge6_Node000006_Node000007" class="edge">
<title>Node6&#45;&gt;Node7</title>
<g id="a_edge6_Node000006_Node000007"><a xlink:title=" ">
<path fill="none" stroke="#63b8ff" d="M380.85,-86C400.21,-86 423.49,-86 444.62,-86"/>
<polygon fill="#63b8ff" stroke="#63b8ff" points="444.59,-89.5 454.59,-86 444.59,-82.5 444.59,-89.5"/>
</a>
</g>
</g>
<!-- Node6&#45;&gt;Node8 -->
<g id="edge7_Node000006_Node000008" class="edge">
<title>Node6&#45;&gt;Node8</title>
<g id="a_edge7_Node000006_Node000008"><a xlink:title=" ">
<path fill="none" stroke="#63b8ff" d="M380.85,-76.31C401.22,-71.67 425.9,-66.04 447.88,-61.03"/>
<polygon fill="#63b8ff" stroke="#63b8ff" points="448.64,-64.44 457.61,-58.81 447.09,-57.62 448.64,-64.44"/>
</a>
</g>
</g>
</g>
</svg>
