<?xml version="1.0" encoding="UTF-8" standalone="no"?>
<!DOCTYPE svg PUBLIC "-//W3C//DTD SVG 1.1//EN"
 "http://www.w3.org/Graphics/SVG/1.1/DTD/svg11.dtd">
<!-- Generated by graphviz version 10.0.1 (0)
 -->
<!-- Title: GamePhase::setPhaseTime Pages: 1 -->
<svg width="590pt" height="366pt"
 viewBox="0.00 0.00 590.25 365.80" xmlns="http://www.w3.org/2000/svg" xmlns:xlink="http://www.w3.org/1999/xlink">
<g id="graph0" class="graph" transform="scale(1 1) rotate(0) translate(4 361.8)">
<title>GamePhase::setPhaseTime</title>
<!-- Node1 -->
<g id="Node000001" class="node">
<title>Node1</title>
<g id="a_Node000001"><a xlink:title="Sets the time of the current phase.">
<polygon fill="#999999" stroke="#666666" points="582.25,-96 443.25,-96 443.25,-76 582.25,-76 582.25,-96"/>
<text text-anchor="middle" x="512.75" y="-82.5" font-family="Helvetica,sans-Serif" font-size="10.00">GamePhase::setPhaseTime</text>
</a>
</g>
</g>
<!-- Node2 -->
<g id="Node000002" class="node">
<title>Node2</title>
<g id="a_Node000002"><a xlink:href="classGamePhase.html#af152a5e182080af728f34e66b29079c5" target="_top" xlink:title="Sets the current game phase.">
<polygon fill="white" stroke="#666666" points="407.25,-172 290,-172 290,-152 407.25,-152 407.25,-172"/>
<text text-anchor="middle" x="348.62" y="-158.5" font-family="Helvetica,sans-Serif" font-size="10.00">GamePhase::setPhase</text>
</a>
</g>
</g>
<!-- Node1&#45;&gt;Node2 -->
<g id="edge1_Node000001_Node000002" class="edge">
<title>Node1&#45;&gt;Node2</title>
<g id="a_edge1_Node000001_Node000002"><a xlink:title=" ">
<path fill="none" stroke="#63b8ff" d="M479.4,-101.17C447.51,-116.12 399.63,-138.56 371.82,-151.6"/>
<polygon fill="#63b8ff" stroke="#63b8ff" points="480.61,-104.46 488.18,-97.05 477.64,-98.13 480.61,-104.46"/>
</a>
</g>
</g>
<!-- Node12 -->
<g id="Node000012" class="node">
<title>Node12</title>
<g id="a_Node000012"><a xlink:href="classGame.html#a9f8150e56d9f2c53d172ef0443630de7" target="_top" xlink:title="Updates the game phase timer.">
<polygon fill="white" stroke="#666666" points="254,-20 124,-20 124,0 254,0 254,-20"/>
<text text-anchor="middle" x="189" y="-6.5" font-family="Helvetica,sans-Serif" font-size="10.00">Game::updatePhaseTimer</text>
</a>
</g>
</g>
<!-- Node1&#45;&gt;Node12 -->
<g id="edge16_Node000001_Node000012" class="edge">
<title>Node1&#45;&gt;Node12</title>
<g id="a_edge16_Node000001_Node000012"><a xlink:title=" ">
<path fill="none" stroke="#63b8ff" d="M456.45,-72.94C393.55,-58.08 292.08,-34.11 234.2,-20.44"/>
<polygon fill="#63b8ff" stroke="#63b8ff" points="455.34,-76.27 465.88,-75.16 456.95,-69.46 455.34,-76.27"/>
</a>
</g>
</g>
<!-- Node3 -->
<g id="Node000003" class="node">
<title>Node3</title>
<g id="a_Node000003"><a xlink:href="classGame.html#a4c2a7ead717a4c13f1ffddafd11e17c8" target="_top" xlink:title="Initializes the game, loading config, and the map.">
<polygon fill="white" stroke="#666666" points="243.88,-324 134.12,-324 134.12,-304 243.88,-304 243.88,-324"/>
<text text-anchor="middle" x="189" y="-310.5" font-family="Helvetica,sans-Serif" font-size="10.00">Game::initializeGame</text>
</a>
</g>
</g>
<!-- Node2&#45;&gt;Node3 -->
<g id="edge2_Node000002_Node000003" class="edge">
<title>Node2&#45;&gt;Node3</title>
<g id="a_edge2_Node000002_Node000003"><a xlink:title=" ">
<path fill="none" stroke="#63b8ff" d="M337.61,-182.38C322.9,-210.33 292.94,-260.46 254,-290 246.53,-295.67 237.58,-300.12 228.77,-303.57"/>
<polygon fill="#63b8ff" stroke="#63b8ff" points="340.68,-184.04 342.11,-173.54 334.45,-180.86 340.68,-184.04"/>
</a>
</g>
</g>
<!-- Node4 -->
<g id="Node000004" class="node">
<title>Node4</title>
<g id="a_Node000004"><a xlink:href="classGame.html#a2a30c89761624ee64cd7acb147aaf89c" target="_top" xlink:title="Starts the game.">
<polygon fill="white" stroke="#666666" points="77.88,-352 10.12,-352 10.12,-332 77.88,-332 77.88,-352"/>
<text text-anchor="middle" x="44" y="-338.5" font-family="Helvetica,sans-Serif" font-size="10.00">Game::start</text>
</a>
</g>
</g>
<!-- Node2&#45;&gt;Node4 -->
<g id="edge10_Node000002_Node000004" class="edge">
<title>Node2&#45;&gt;Node4</title>
<g id="a_edge10_Node000002_Node000004"><a xlink:title=" ">
<path fill="none" stroke="#63b8ff" d="M343.11,-183.23C333.83,-220.97 308.72,-298.96 254,-333 200.03,-366.57 122.18,-358.45 78.32,-349.95"/>
<polygon fill="#63b8ff" stroke="#63b8ff" points="346.41,-184.5 345.24,-173.97 339.59,-182.93 346.41,-184.5"/>
</a>
</g>
</g>
<!-- Node5 -->
<g id="Node000005" class="node">
<title>Node5</title>
<g id="a_Node000005"><a xlink:href="classGame.html#a1118c369ae5b2fe433aac540cb32d187" target="_top" xlink:title="Starts the game with a new map.">
<polygon fill="white" stroke="#666666" points="88,-305 0,-305 0,-285 88,-285 88,-305"/>
<text text-anchor="middle" x="44" y="-291.5" font-family="Helvetica,sans-Serif" font-size="10.00">Game::startNew</text>
</a>
</g>
</g>
<!-- Node2&#45;&gt;Node5 -->
<g id="edge11_Node000002_Node000005" class="edge">
<title>Node2&#45;&gt;Node5</title>
<g id="a_edge11_Node000002_Node000005"><a xlink:title=" ">
<path fill="none" stroke="#63b8ff" d="M334.3,-181.42C318.05,-203.49 288.44,-238.79 254,-257 201.51,-284.75 132.38,-292.62 88.3,-294.65"/>
<polygon fill="#63b8ff" stroke="#63b8ff" points="336.96,-183.73 339.92,-173.56 331.26,-179.66 336.96,-183.73"/>
</a>
</g>
</g>
<!-- Node6 -->
<g id="Node000006" class="node">
<title>Node6</title>
<g id="a_Node000006"><a xlink:href="classCherry.html#aaf41373bb1fe88172648ce26bb54c5ec" target="_top" xlink:title="Interacts with another object.">
<polygon fill="white" stroke="#666666" points="240.88,-248 137.12,-248 137.12,-228 240.88,-228 240.88,-248"/>
<text text-anchor="middle" x="189" y="-234.5" font-family="Helvetica,sans-Serif" font-size="10.00">Cherry::interactWith</text>
</a>
</g>
</g>
<!-- Node2&#45;&gt;Node6 -->
<g id="edge5_Node000002_Node000006" class="edge">
<title>Node2&#45;&gt;Node6</title>
<g id="a_edge5_Node000002_Node000006"><a xlink:title=" ">
<path fill="none" stroke="#63b8ff" d="M324.03,-178.73C305.64,-191.17 279.1,-207.86 254,-219 246.69,-222.24 238.67,-225.12 230.86,-227.59"/>
<polygon fill="#63b8ff" stroke="#63b8ff" points="325.85,-181.72 332.1,-173.17 321.88,-175.96 325.85,-181.72"/>
</a>
</g>
</g>
<!-- Node7 -->
<g id="Node000007" class="node">
<title>Node7</title>
<g id="a_Node000007"><a xlink:href="classGhost.html#a835ab7beec9ae0515085e479fcd2b1c6" target="_top" xlink:title="Interacts with another object.">
<polygon fill="white" stroke="#666666" points="239.38,-210 138.62,-210 138.62,-190 239.38,-190 239.38,-210"/>
<text text-anchor="middle" x="189" y="-196.5" font-family="Helvetica,sans-Serif" font-size="10.00">Ghost::interactWith</text>
</a>
</g>
</g>
<!-- Node2&#45;&gt;Node7 -->
<g id="edge6_Node000002_Node000007" class="edge">
<title>Node2&#45;&gt;Node7</title>
<g id="a_edge6_Node000002_Node000007"><a xlink:title=" ">
<path fill="none" stroke="#63b8ff" d="M292.95,-175.18C273.45,-179.88 251.76,-185.11 233.35,-189.55"/>
<polygon fill="#63b8ff" stroke="#63b8ff" points="293.76,-178.59 302.66,-172.84 292.12,-171.78 293.76,-178.59"/>
</a>
</g>
</g>
<!-- Node8 -->
<g id="Node000008" class="node">
<title>Node8</title>
<g id="a_Node000008"><a xlink:href="classGame.html#a58272899c822e102edfee50a5547612f" target="_top" xlink:title="Moves the player in given direction.">
<polygon fill="white" stroke="#666666" points="239,-172 139,-172 139,-152 239,-152 239,-172"/>
<text text-anchor="middle" x="189" y="-158.5" font-family="Helvetica,sans-Serif" font-size="10.00">Game::movePlayer</text>
</a>
</g>
</g>
<!-- Node2&#45;&gt;Node8 -->
<g id="edge7_Node000002_Node000008" class="edge">
<title>Node2&#45;&gt;Node8</title>
<g id="a_edge7_Node000002_Node000008"><a xlink:title=" ">
<path fill="none" stroke="#63b8ff" d="M278.43,-162C265.32,-162 251.84,-162 239.49,-162"/>
<polygon fill="#63b8ff" stroke="#63b8ff" points="278.31,-165.5 288.31,-162 278.31,-158.5 278.31,-165.5"/>
</a>
</g>
</g>
<!-- Node9 -->
<g id="Node000009" class="node">
<title>Node9</title>
<g id="a_Node000009"><a xlink:href="classGamePhase.html#a6ebc97f0a4514c9d0689009a0e7bd48c" target="_top" xlink:title="Removes an item from the remaining items.">
<polygon fill="white" stroke="#666666" points="252.88,-134 125.12,-134 125.12,-114 252.88,-114 252.88,-134"/>
<text text-anchor="middle" x="189" y="-120.5" font-family="Helvetica,sans-Serif" font-size="10.00">GamePhase::removeItem</text>
</a>
</g>
</g>
<!-- Node2&#45;&gt;Node9 -->
<g id="edge8_Node000002_Node000009" class="edge">
<title>Node2&#45;&gt;Node9</title>
<g id="a_edge8_Node000002_Node000009"><a xlink:title=" ">
<path fill="none" stroke="#63b8ff" d="M292.95,-148.82C273.45,-144.12 251.76,-138.89 233.35,-134.45"/>
<polygon fill="#63b8ff" stroke="#63b8ff" points="292.12,-152.22 302.66,-151.16 293.76,-145.41 292.12,-152.22"/>
</a>
</g>
</g>
<!-- Node10 -->
<g id="Node000010" class="node">
<title>Node10</title>
<g id="a_Node000010"><a xlink:href="classGame.html#aef7682b8bf084aac3c8f929a6fd2f673" target="_top" xlink:title="Updates the game state.">
<polygon fill="white" stroke="#666666" points="82.75,-96 5.25,-96 5.25,-76 82.75,-76 82.75,-96"/>
<text text-anchor="middle" x="44" y="-82.5" font-family="Helvetica,sans-Serif" font-size="10.00">Game::update</text>
</a>
</g>
</g>
<!-- Node2&#45;&gt;Node10 -->
<g id="edge13_Node000002_Node000010" class="edge">
<title>Node2&#45;&gt;Node10</title>
<g id="a_edge13_Node000002_Node000010"><a xlink:title=" ">
<path fill="none" stroke="#63b8ff" d="M325.85,-144.75C307.73,-131.42 280.68,-113.81 254,-105 196.57,-86.05 125.74,-83.68 83.04,-84.37"/>
<polygon fill="#63b8ff" stroke="#63b8ff" points="323.64,-147.47 333.73,-150.71 327.87,-141.89 323.64,-147.47"/>
</a>
</g>
</g>
<!-- Node11 -->
<g id="Node000011" class="node">
<title>Node11</title>
<g id="a_Node000011"><a xlink:href="classPlayer.html#abc005b0707ae63f395b33d79a876a453" target="_top" xlink:title="Updates the object.">
<polygon fill="white" stroke="#666666" points="228.5,-58 149.5,-58 149.5,-38 228.5,-38 228.5,-58"/>
<text text-anchor="middle" x="189" y="-44.5" font-family="Helvetica,sans-Serif" font-size="10.00">Player::update</text>
</a>
</g>
</g>
<!-- Node2&#45;&gt;Node11 -->
<g id="edge12_Node000002_Node000011" class="edge">
<title>Node2&#45;&gt;Node11</title>
<g id="a_edge12_Node000002_Node000011"><a xlink:title=" ">
<path fill="none" stroke="#63b8ff" d="M332.17,-143.13C314.92,-123.11 285.29,-91.71 254,-72 245.37,-66.56 235.31,-62.07 225.76,-58.5"/>
<polygon fill="#63b8ff" stroke="#63b8ff" points="329.29,-145.15 338.42,-150.53 334.64,-140.63 329.29,-145.15"/>
</a>
</g>
</g>
<!-- Node2&#45;&gt;Node12 -->
<g id="edge14_Node000002_Node000012" class="edge">
<title>Node2&#45;&gt;Node12</title>
<g id="a_edge14_Node000002_Node000012"><a xlink:title=" ">
<path fill="none" stroke="#63b8ff" d="M333.6,-142.43C321.88,-126.05 304.78,-102.06 290,-81 273.85,-57.99 276.76,-45.49 254,-29 249.21,-25.53 243.79,-22.69 238.18,-20.37"/>
<polygon fill="#63b8ff" stroke="#63b8ff" points="330.57,-144.22 339.24,-150.31 336.27,-140.15 330.57,-144.22"/>
</a>
</g>
</g>
<!-- Node3&#45;&gt;Node4 -->
<g id="edge3_Node000003_Node000004" class="edge">
<title>Node3&#45;&gt;Node4</title>
<g id="a_edge3_Node000003_Node000004"><a xlink:title=" ">
<path fill="none" stroke="#63b8ff" d="M123.51,-326.63C107.91,-329.68 91.86,-332.83 78.36,-335.47"/>
<polygon fill="#63b8ff" stroke="#63b8ff" points="124.13,-330.07 133.27,-324.72 122.78,-323.2 124.13,-330.07"/>
</a>
</g>
</g>
<!-- Node3&#45;&gt;Node5 -->
<g id="edge4_Node000003_Node000005" class="edge">
<title>Node3&#45;&gt;Node5</title>
<g id="a_edge4_Node000003_Node000005"><a xlink:title=" ">
<path fill="none" stroke="#63b8ff" d="M122.87,-305.35C111.21,-303.8 99.32,-302.22 88.45,-300.77"/>
<polygon fill="#63b8ff" stroke="#63b8ff" points="122.06,-308.77 132.44,-306.62 122.99,-301.83 122.06,-308.77"/>
</a>
</g>
</g>
<!-- Node9&#45;&gt;Node10 -->
<g id="edge9_Node000009_Node000010" class="edge">
<title>Node9&#45;&gt;Node10</title>
<g id="a_edge9_Node000009_Node000010"><a xlink:title=" ">
<path fill="none" stroke="#63b8ff" d="M137.63,-110.61C119.61,-105.83 99.63,-100.52 82.85,-96.06"/>
<polygon fill="#63b8ff" stroke="#63b8ff" points="136.52,-113.94 147.08,-113.13 138.32,-107.18 136.52,-113.94"/>
</a>
</g>
</g>
<!-- Node12&#45;&gt;Node10 -->
<g id="edge15_Node000012_Node000010" class="edge">
<title>Node12&#45;&gt;Node10</title>
<g id="a_edge15_Node000012_Node000010"><a xlink:title=" ">
<path fill="none" stroke="#63b8ff" d="M134.9,-24.23C131.16,-25.7 127.49,-27.29 124,-29 98.04,-41.76 71.52,-62.9 56.76,-75.54"/>
<polygon fill="#63b8ff" stroke="#63b8ff" points="135.92,-27.58 144.15,-20.91 133.55,-20.99 135.92,-27.58"/>
</a>
</g>
</g>
</g>
</svg>
