<?xml version="1.0" encoding="UTF-8" standalone="no"?>
<!DOCTYPE svg PUBLIC "-//W3C//DTD SVG 1.1//EN"
 "http://www.w3.org/Graphics/SVG/1.1/DTD/svg11.dtd">
<!-- Generated by graphviz version 10.0.1 (0)
 -->
<!-- Title: Leaderboard::addScore Pages: 1 -->
<svg width="338pt" height="47pt"
 viewBox="0.00 0.00 338.00 47.00" xmlns="http://www.w3.org/2000/svg" xmlns:xlink="http://www.w3.org/1999/xlink">
<g id="graph0" class="graph" transform="scale(1 1) rotate(0) translate(4 43)">
<title>Leaderboard::addScore</title>
<!-- Node1 -->
<g id="Node000001" class="node">
<title>Node1</title>
<g id="a_Node000001"><a xlink:title="Adds a score to the leaderboard.">
<polygon fill="#999999" stroke="#666666" points="330,-20 213.5,-20 213.5,0 330,0 330,-20"/>
<text text-anchor="middle" x="271.75" y="-6.5" font-family="Helvetica,sans-Serif" font-size="10.00">Leaderboard::addScore</text>
</a>
</g>
</g>
<!-- Node2 -->
<g id="Node000002" class="node">
<title>Node2</title>
<g id="a_Node000002"><a xlink:href="classGame.html#aa2d938aa918268060e63980c7efd86f8" target="_top" xlink:title="Ends the game.">
<polygon fill="white" stroke="#666666" points="177.5,-39 113.5,-39 113.5,-19 177.5,-19 177.5,-39"/>
<text text-anchor="middle" x="145.5" y="-25.5" font-family="Helvetica,sans-Serif" font-size="10.00">Game::end</text>
</a>
</g>
</g>
<!-- Node1&#45;&gt;Node2 -->
<g id="edge1_Node000001_Node000002" class="edge">
<title>Node1&#45;&gt;Node2</title>
<g id="a_edge1_Node000001_Node000002"><a xlink:title=" ">
<path fill="none" stroke="#63b8ff" d="M202.18,-20.49C193.71,-21.78 185.4,-23.05 177.89,-24.2"/>
<polygon fill="#63b8ff" stroke="#63b8ff" points="202.5,-23.98 211.86,-19.01 201.44,-17.06 202.5,-23.98"/>
</a>
</g>
</g>
<!-- Node3 -->
<g id="Node000003" class="node">
<title>Node3</title>
<g id="a_Node000003"><a xlink:href="classGame.html#aef7682b8bf084aac3c8f929a6fd2f673" target="_top" xlink:title="Updates the game state.">
<polygon fill="white" stroke="#666666" points="77.5,-20 0,-20 0,0 77.5,0 77.5,-20"/>
<text text-anchor="middle" x="38.75" y="-6.5" font-family="Helvetica,sans-Serif" font-size="10.00">Game::update</text>
</a>
</g>
</g>
<!-- Node1&#45;&gt;Node3 -->
<g id="edge3_Node000001_Node000003" class="edge">
<title>Node1&#45;&gt;Node3</title>
<g id="a_edge3_Node000001_Node000003"><a xlink:title=" ">
<path fill="none" stroke="#63b8ff" d="M201.62,-10C161.11,-10 111.48,-10 77.93,-10"/>
<polygon fill="#63b8ff" stroke="#63b8ff" points="201.54,-13.5 211.54,-10 201.54,-6.5 201.54,-13.5"/>
</a>
</g>
</g>
<!-- Node2&#45;&gt;Node3 -->
<g id="edge2_Node000002_Node000003" class="edge">
<title>Node2&#45;&gt;Node3</title>
<g id="a_edge2_Node000002_Node000003"><a xlink:title=" ">
<path fill="none" stroke="#63b8ff" d="M101.76,-21.25C93.83,-19.81 85.6,-18.32 77.82,-16.9"/>
<polygon fill="#63b8ff" stroke="#63b8ff" points="101.12,-24.69 111.58,-23.03 102.37,-17.8 101.12,-24.69"/>
</a>
</g>
</g>
</g>
</svg>
