<?xml version="1.0" encoding="UTF-8" standalone="no"?>
<!DOCTYPE svg PUBLIC "-//W3C//DTD SVG 1.1//EN"
 "http://www.w3.org/Graphics/SVG/1.1/DTD/svg11.dtd">
<!-- Generated by graphviz version 10.0.1 (0)
 -->
<!-- Title: GameManager::start Pages: 1 -->
<svg width="930pt" height="332pt"
 viewBox="0.00 0.00 929.75 332.00" xmlns="http://www.w3.org/2000/svg" xmlns:xlink="http://www.w3.org/1999/xlink">
<g id="graph0" class="graph" transform="scale(1 1) rotate(0) translate(4 328)">
<title>GameManager::start</title>
<!-- Node1 -->
<g id="Node000001" class="node">
<title>Node1</title>
<g id="a_Node000001"><a xlink:title=" ">
<polygon fill="#999999" stroke="#666666" points="105.25,-191 0,-191 0,-171 105.25,-171 105.25,-191"/>
<text text-anchor="middle" x="52.62" y="-177.5" font-family="Helvetica,sans-Serif" font-size="10.00">GameManager::start</text>
</a>
</g>
</g>
<!-- Node2 -->
<g id="Node000002" class="node">
<title>Node2</title>
<g id="a_Node000002"><a xlink:href="classWindow.html#a21910d98970e829ac1aa67db65a53476" target="_top" xlink:title="Exits ncurses window.">
<polygon fill="white" stroke="#666666" points="245.75,-324 172.75,-324 172.75,-304 245.75,-304 245.75,-324"/>
<text text-anchor="middle" x="209.25" y="-310.5" font-family="Helvetica,sans-Serif" font-size="10.00">Window::exit</text>
</a>
</g>
</g>
<!-- Node1&#45;&gt;Node2 -->
<g id="edge1_Node000001_Node000002" class="edge">
<title>Node1&#45;&gt;Node2</title>
<g id="a_edge1_Node000001_Node000002"><a xlink:title=" ">
<path fill="none" stroke="#63b8ff" d="M59.23,-191.28C71.4,-212.66 102.29,-262.25 141.25,-290 147.47,-294.43 154.59,-298.12 161.82,-301.17"/>
<polygon fill="#63b8ff" stroke="#63b8ff" points="160.38,-304.37 170.98,-304.65 162.87,-297.82 160.38,-304.37"/>
</a>
</g>
</g>
<!-- Node3 -->
<g id="Node000003" class="node">
<title>Node3</title>
<g id="a_Node000003"><a xlink:href="classWindow.html#a56e7061bfcf6df5725b61e3f0399e865" target="_top" xlink:title="Gets the user choice from the main menu.">
<polygon fill="white" stroke="#666666" points="260,-248 158.5,-248 158.5,-228 260,-228 260,-248"/>
<text text-anchor="middle" x="209.25" y="-234.5" font-family="Helvetica,sans-Serif" font-size="10.00">Window::getChoice</text>
</a>
</g>
</g>
<!-- Node1&#45;&gt;Node3 -->
<g id="edge2_Node000001_Node000003" class="edge">
<title>Node1&#45;&gt;Node3</title>
<g id="a_edge2_Node000001_Node000003"><a xlink:title=" ">
<path fill="none" stroke="#63b8ff" d="M75.27,-191.35C92.81,-199.49 118.29,-210.81 141.25,-219 146.32,-220.81 151.65,-222.56 157.01,-224.23"/>
<polygon fill="#63b8ff" stroke="#63b8ff" points="155.91,-227.55 166.49,-227.07 157.92,-220.85 155.91,-227.55"/>
</a>
</g>
</g>
<!-- Node7 -->
<g id="Node000007" class="node">
<title>Node7</title>
<g id="a_Node000007"><a xlink:href="classWindow.html#a2238e5489102fe2a77e7898a07dc37b5" target="_top" xlink:title="Gets text input from the user.">
<polygon fill="white" stroke="#666666" points="603.25,-134 510.75,-134 510.75,-114 603.25,-114 603.25,-134"/>
<text text-anchor="middle" x="557" y="-120.5" font-family="Helvetica,sans-Serif" font-size="10.00">Window::getInput</text>
</a>
</g>
</g>
<!-- Node1&#45;&gt;Node7 -->
<g id="edge6_Node000001_Node000007" class="edge">
<title>Node1&#45;&gt;Node7</title>
<g id="a_edge6_Node000001_Node000007"><a xlink:title=" ">
<path fill="none" stroke="#63b8ff" d="M72.09,-170.63C89.37,-161.5 116.21,-148.8 141.25,-143 266.41,-114.03 418.34,-116.19 499.08,-120.17"/>
<polygon fill="#63b8ff" stroke="#63b8ff" points="498.79,-123.66 508.96,-120.69 499.16,-116.67 498.79,-123.66"/>
</a>
</g>
</g>
<!-- Node8 -->
<g id="Node000008" class="node">
<title>Node8</title>
<g id="a_Node000008"><a xlink:href="classGameManager.html#a53965fe19bf3351541159ce74608844e" target="_top" xlink:title=" ">
<polygon fill="white" stroke="#666666" points="277.25,-210 141.25,-210 141.25,-190 277.25,-190 277.25,-210"/>
<text text-anchor="middle" x="209.25" y="-196.5" font-family="Helvetica,sans-Serif" font-size="10.00">GameManager::handleInput</text>
</a>
</g>
</g>
<!-- Node1&#45;&gt;Node8 -->
<g id="edge8_Node000001_Node000008" class="edge">
<title>Node1&#45;&gt;Node8</title>
<g id="a_edge8_Node000001_Node000008"><a xlink:title=" ">
<path fill="none" stroke="#63b8ff" d="M105.54,-187.38C113.24,-188.32 121.31,-189.32 129.4,-190.31"/>
<polygon fill="#63b8ff" stroke="#63b8ff" points="128.96,-193.78 139.31,-191.53 129.82,-186.84 128.96,-193.78"/>
</a>
</g>
</g>
<!-- Node9 -->
<g id="Node000009" class="node">
<title>Node9</title>
<g id="a_Node000009"><a xlink:href="classWindow.html#a4d8c7f316ef9e8a4488d00c430957c16" target="_top" xlink:title="Initializes ncurses window.">
<polygon fill="white" stroke="#666666" points="244.25,-172 174.25,-172 174.25,-152 244.25,-152 244.25,-172"/>
<text text-anchor="middle" x="209.25" y="-158.5" font-family="Helvetica,sans-Serif" font-size="10.00">Window::init</text>
</a>
</g>
</g>
<!-- Node1&#45;&gt;Node9 -->
<g id="edge9_Node000001_Node000009" class="edge">
<title>Node1&#45;&gt;Node9</title>
<g id="a_edge9_Node000001_Node000009"><a xlink:title=" ">
<path fill="none" stroke="#63b8ff" d="M105.54,-174.62C124.11,-172.34 144.88,-169.79 162.85,-167.58"/>
<polygon fill="#63b8ff" stroke="#63b8ff" points="163.21,-171.06 172.71,-166.37 162.36,-164.11 163.21,-171.06"/>
</a>
</g>
</g>
<!-- Node11 -->
<g id="Node000011" class="node">
<title>Node11</title>
<g id="a_Node000011"><a xlink:href="classConfig.html#ab8b24da021cd9ad9ca092749292ca6ed" target="_top" xlink:title="Loads the config from a file.">
<polygon fill="white" stroke="#666666" points="257.75,-96 160.75,-96 160.75,-76 257.75,-76 257.75,-96"/>
<text text-anchor="middle" x="209.25" y="-82.5" font-family="Helvetica,sans-Serif" font-size="10.00">Config::loadConfig</text>
</a>
</g>
</g>
<!-- Node1&#45;&gt;Node11 -->
<g id="edge12_Node000001_Node000011" class="edge">
<title>Node1&#45;&gt;Node11</title>
<g id="a_edge12_Node000001_Node000011"><a xlink:title=" ">
<path fill="none" stroke="#63b8ff" d="M64.09,-170.51C79.69,-155.36 110.53,-127.28 141.25,-110 147.69,-106.38 154.78,-103.14 161.86,-100.3"/>
<polygon fill="#63b8ff" stroke="#63b8ff" points="162.6,-103.76 170.73,-96.96 160.14,-97.21 162.6,-103.76"/>
</a>
</g>
</g>
<!-- Node13 -->
<g id="Node000013" class="node">
<title>Node13</title>
<g id="a_Node000013"><a xlink:href="classMap.html#a2657d897204aaedba0e8e4f01b2e1efc" target="_top" xlink:title="Loads the map from a file.">
<polygon fill="white" stroke="#666666" points="420,-58 342.5,-58 342.5,-38 420,-38 420,-58"/>
<text text-anchor="middle" x="381.25" y="-44.5" font-family="Helvetica,sans-Serif" font-size="10.00">Map::loadMap</text>
</a>
</g>
</g>
<!-- Node1&#45;&gt;Node13 -->
<g id="edge20_Node000001_Node000013" class="edge">
<title>Node1&#45;&gt;Node13</title>
<g id="a_edge20_Node000001_Node000013"><a xlink:title=" ">
<path fill="none" stroke="#63b8ff" d="M57.91,-170.79C68.28,-147.56 97.15,-90.94 141.25,-67 200.47,-34.85 280.37,-35.76 331.11,-40.78"/>
<polygon fill="#63b8ff" stroke="#63b8ff" points="330.59,-44.24 340.91,-41.85 331.35,-37.28 330.59,-44.24"/>
</a>
</g>
</g>
<!-- Node19 -->
<g id="Node000019" class="node">
<title>Node19</title>
<g id="a_Node000019"><a xlink:href="classWindow.html#aba37c5e32e43d21a46968fd8ada1d327" target="_top" xlink:title="Prints the message to the current window.">
<polygon fill="white" stroke="#666666" points="614.88,-267 499.12,-267 499.12,-247 614.88,-247 614.88,-267"/>
<text text-anchor="middle" x="557" y="-253.5" font-family="Helvetica,sans-Serif" font-size="10.00">Window::printMessage</text>
</a>
</g>
</g>
<!-- Node1&#45;&gt;Node19 -->
<g id="edge21_Node000001_Node000019" class="edge">
<title>Node1&#45;&gt;Node19</title>
<g id="a_edge21_Node000001_Node000019"><a xlink:title=" ">
<path fill="none" stroke="#63b8ff" d="M61.38,-191.44C75.15,-208.98 105.78,-243.76 141.25,-257 261.25,-301.79 414.74,-284.33 497.23,-269.51"/>
<polygon fill="#63b8ff" stroke="#63b8ff" points="497.71,-272.98 506.9,-267.72 496.43,-266.1 497.71,-272.98"/>
</a>
</g>
</g>
<!-- Node4 -->
<g id="Node000004" class="node">
<title>Node4</title>
<g id="a_Node000004"><a xlink:href="classWindow.html#ac9718717327b190f444c9fe3955477a7" target="_top" xlink:title="Creates the main menu window.">
<polygon fill="white" stroke="#666666" points="628.75,-191 485.25,-191 485.25,-171 628.75,-171 628.75,-191"/>
<text text-anchor="middle" x="557" y="-177.5" font-family="Helvetica,sans-Serif" font-size="10.00">Window::createMenuWindow</text>
</a>
</g>
</g>
<!-- Node3&#45;&gt;Node4 -->
<g id="edge3_Node000003_Node000004" class="edge">
<title>Node3&#45;&gt;Node4</title>
<g id="a_edge3_Node000003_Node000004"><a xlink:title=" ">
<path fill="none" stroke="#63b8ff" d="M260.49,-228.45C277.26,-225.34 296.04,-221.93 313.25,-219 366.86,-209.86 427.28,-200.4 474.43,-193.2"/>
<polygon fill="#63b8ff" stroke="#63b8ff" points="474.95,-196.67 484.31,-191.7 473.9,-189.75 474.95,-196.67"/>
</a>
</g>
</g>
<!-- Node6 -->
<g id="Node000006" class="node">
<title>Node6</title>
<g id="a_Node000006"><a xlink:href="classWindow.html#abde910f5e4b012211f4cd0425d0bece1" target="_top" xlink:title="Draws the menu options.">
<polygon fill="white" stroke="#666666" points="449.25,-248 313.25,-248 313.25,-228 449.25,-228 449.25,-248"/>
<text text-anchor="middle" x="381.25" y="-234.5" font-family="Helvetica,sans-Serif" font-size="10.00">Window::drawMenuOptions</text>
</a>
</g>
</g>
<!-- Node3&#45;&gt;Node6 -->
<g id="edge5_Node000003_Node000006" class="edge">
<title>Node3&#45;&gt;Node6</title>
<g id="a_edge5_Node000003_Node000006"><a xlink:title=" ">
<path fill="none" stroke="#63b8ff" d="M260.34,-238C273.32,-238 287.62,-238 301.68,-238"/>
<polygon fill="#63b8ff" stroke="#63b8ff" points="301.36,-241.5 311.36,-238 301.36,-234.5 301.36,-241.5"/>
</a>
</g>
</g>
<!-- Node5 -->
<g id="Node000005" class="node">
<title>Node5</title>
<g id="a_Node000005"><a xlink:href="classWindow.html#a07c2b4d065cbcb397eafc1a27a337bb7" target="_top" xlink:title="Clears the current window.">
<polygon fill="white" stroke="#666666" points="792.5,-191 664.75,-191 664.75,-171 792.5,-171 792.5,-191"/>
<text text-anchor="middle" x="728.62" y="-177.5" font-family="Helvetica,sans-Serif" font-size="10.00">Window::clearCurrentWin</text>
</a>
</g>
</g>
<!-- Node4&#45;&gt;Node5 -->
<g id="edge4_Node000004_Node000005" class="edge">
<title>Node4&#45;&gt;Node5</title>
<g id="a_edge4_Node000004_Node000005"><a xlink:title=" ">
<path fill="none" stroke="#63b8ff" d="M628.95,-181C636.98,-181 645.17,-181 653.23,-181"/>
<polygon fill="#63b8ff" stroke="#63b8ff" points="653,-184.5 663,-181 653,-177.5 653,-184.5"/>
</a>
</g>
</g>
<!-- Node7&#45;&gt;Node5 -->
<g id="edge7_Node000007_Node000005" class="edge">
<title>Node7&#45;&gt;Node5</title>
<g id="a_edge7_Node000007_Node000005"><a xlink:title=" ">
<path fill="none" stroke="#63b8ff" d="M589.11,-134.45C616.28,-143.59 655.95,-156.92 685.88,-166.97"/>
<polygon fill="#63b8ff" stroke="#63b8ff" points="684.39,-170.17 694.99,-170.03 686.62,-163.53 684.39,-170.17"/>
</a>
</g>
</g>
<!-- Node10 -->
<g id="Node000010" class="node">
<title>Node10</title>
<g id="a_Node000010"><a xlink:href="classWindow.html#a4fbacbbec283653b5500f881c1f7cd7f" target="_top" xlink:title="Draws the main menu.">
<polygon fill="white" stroke="#666666" points="432.38,-172 330.12,-172 330.12,-152 432.38,-152 432.38,-172"/>
<text text-anchor="middle" x="381.25" y="-158.5" font-family="Helvetica,sans-Serif" font-size="10.00">Window::drawMenu</text>
</a>
</g>
</g>
<!-- Node9&#45;&gt;Node10 -->
<g id="edge10_Node000009_Node000010" class="edge">
<title>Node9&#45;&gt;Node10</title>
<g id="a_edge10_Node000009_Node000010"><a xlink:title=" ">
<path fill="none" stroke="#63b8ff" d="M244.65,-162C265.85,-162 293.66,-162 318.57,-162"/>
<polygon fill="#63b8ff" stroke="#63b8ff" points="318.26,-165.5 328.26,-162 318.26,-158.5 318.26,-165.5"/>
</a>
</g>
</g>
<!-- Node10&#45;&gt;Node4 -->
<g id="edge11_Node000010_Node000004" class="edge">
<title>Node10&#45;&gt;Node4</title>
<g id="a_edge11_Node000010_Node000004"><a xlink:title=" ">
<path fill="none" stroke="#63b8ff" d="M432.51,-167.5C445.4,-168.91 459.6,-170.46 473.65,-172"/>
<polygon fill="#63b8ff" stroke="#63b8ff" points="473.03,-175.45 483.35,-173.06 473.79,-168.49 473.03,-175.45"/>
</a>
</g>
</g>
<!-- Node12 -->
<g id="Node000012" class="node">
<title>Node12</title>
<g id="a_Node000012"><a xlink:href="classConfig.html#a62c7c2d485cb30374271dba0eafe63c8" target="_top" xlink:title="Gets any value from the config map.">
<polygon fill="white" stroke="#666666" points="425.25,-96 337.25,-96 337.25,-76 425.25,-76 425.25,-96"/>
<text text-anchor="middle" x="381.25" y="-82.5" font-family="Helvetica,sans-Serif" font-size="10.00">Config::getValue</text>
</a>
</g>
</g>
<!-- Node11&#45;&gt;Node12 -->
<g id="edge13_Node000011_Node000012" class="edge">
<title>Node11&#45;&gt;Node12</title>
<g id="a_edge13_Node000011_Node000012"><a xlink:title=" ">
<path fill="none" stroke="#63b8ff" d="M258.06,-86C279.03,-86 303.78,-86 325.49,-86"/>
<polygon fill="#63b8ff" stroke="#63b8ff" points="325.35,-89.5 335.35,-86 325.35,-82.5 325.35,-89.5"/>
</a>
</g>
</g>
<!-- Node11&#45;&gt;Node13 -->
<g id="edge14_Node000011_Node000013" class="edge">
<title>Node11&#45;&gt;Node13</title>
<g id="a_edge14_Node000011_Node000013"><a xlink:title=" ">
<path fill="none" stroke="#63b8ff" d="M257.15,-75.52C280.13,-70.38 307.78,-64.2 331.05,-59"/>
<polygon fill="#63b8ff" stroke="#63b8ff" points="331.61,-62.46 340.61,-56.86 330.09,-55.63 331.61,-62.46"/>
</a>
</g>
</g>
<!-- Node14 -->
<g id="Node000014" class="node">
<title>Node14</title>
<g id="a_Node000014"><a xlink:href="classMap.html#ab1c2595a555457c0a764a0530b57c0f9" target="_top" xlink:title="Helper function for validating map string.">
<polygon fill="white" stroke="#666666" points="604,-58 510,-58 510,-38 604,-38 604,-58"/>
<text text-anchor="middle" x="557" y="-44.5" font-family="Helvetica,sans-Serif" font-size="10.00">Map::processMap</text>
</a>
</g>
</g>
<!-- Node13&#45;&gt;Node14 -->
<g id="edge15_Node000013_Node000014" class="edge">
<title>Node13&#45;&gt;Node14</title>
<g id="a_edge15_Node000013_Node000014"><a xlink:title=" ">
<path fill="none" stroke="#63b8ff" d="M420.38,-48C443.16,-48 472.56,-48 498.16,-48"/>
<polygon fill="#63b8ff" stroke="#63b8ff" points="498.1,-51.5 508.1,-48 498.1,-44.5 498.1,-51.5"/>
</a>
</g>
</g>
<!-- Node15 -->
<g id="Node000015" class="node">
<title>Node15</title>
<g id="a_Node000015"><a xlink:href="classMap.html#a41b623a0d503b94bf8412ca06296ae1f" target="_top" xlink:title="Helper function for finding crossroads.">
<polygon fill="white" stroke="#666666" points="782,-58 675.25,-58 675.25,-38 782,-38 782,-58"/>
<text text-anchor="middle" x="728.62" y="-44.5" font-family="Helvetica,sans-Serif" font-size="10.00">Map::findCrossroads</text>
</a>
</g>
</g>
<!-- Node14&#45;&gt;Node15 -->
<g id="edge16_Node000014_Node000015" class="edge">
<title>Node14&#45;&gt;Node15</title>
<g id="a_edge16_Node000014_Node000015"><a xlink:title=" ">
<path fill="none" stroke="#63b8ff" d="M604.35,-48C622.64,-48 643.95,-48 663.66,-48"/>
<polygon fill="#63b8ff" stroke="#63b8ff" points="663.53,-51.5 673.53,-48 663.53,-44.5 663.53,-51.5"/>
</a>
</g>
</g>
<!-- Node17 -->
<g id="Node000017" class="node">
<title>Node17</title>
<g id="a_Node000017"><a xlink:href="classMap.html#ae96ad32d3b1600cd41e4a1c3b6a30906" target="_top" xlink:title="Checks if the map is traversable from the given position.">
<polygon fill="white" stroke="#666666" points="782.75,-20 674.5,-20 674.5,0 782.75,0 782.75,-20"/>
<text text-anchor="middle" x="728.62" y="-6.5" font-family="Helvetica,sans-Serif" font-size="10.00">Map::traversableBFS</text>
</a>
</g>
</g>
<!-- Node14&#45;&gt;Node17 -->
<g id="edge18_Node000014_Node000017" class="edge">
<title>Node14&#45;&gt;Node17</title>
<g id="a_edge18_Node000014_Node000017"><a xlink:title=" ">
<path fill="none" stroke="#63b8ff" d="M604.35,-37.62C624.56,-33.09 648.46,-27.74 669.81,-22.95"/>
<polygon fill="#63b8ff" stroke="#63b8ff" points="670.57,-26.37 679.56,-20.77 669.04,-19.54 670.57,-26.37"/>
</a>
</g>
</g>
<!-- Node18 -->
<g id="Node000018" class="node">
<title>Node18</title>
<g id="a_Node000018"><a xlink:href="classMap.html#ad35b3432f383ea258d0ed06fe937c3b9" target="_top" xlink:title="Helper function for validating the map borders.">
<polygon fill="white" stroke="#666666" points="780.12,-96 677.12,-96 677.12,-76 780.12,-76 780.12,-96"/>
<text text-anchor="middle" x="728.62" y="-82.5" font-family="Helvetica,sans-Serif" font-size="10.00">Map::validateBorder</text>
</a>
</g>
</g>
<!-- Node14&#45;&gt;Node18 -->
<g id="edge19_Node000014_Node000018" class="edge">
<title>Node14&#45;&gt;Node18</title>
<g id="a_edge19_Node000014_Node000018"><a xlink:title=" ">
<path fill="none" stroke="#63b8ff" d="M604.35,-58.38C624.56,-62.91 648.46,-68.26 669.81,-73.05"/>
<polygon fill="#63b8ff" stroke="#63b8ff" points="669.04,-76.46 679.56,-75.23 670.57,-69.63 669.04,-76.46"/>
</a>
</g>
</g>
<!-- Node16 -->
<g id="Node000016" class="node">
<title>Node16</title>
<g id="a_Node000016"><a xlink:href="classMap.html#a7d8219ae1c1ff2f45f7e11c5d03dcdb7" target="_top" xlink:title="Checks if given coordinates are a crossroad.">
<polygon fill="white" stroke="#666666" points="921.75,-58 828.5,-58 828.5,-38 921.75,-38 921.75,-58"/>
<text text-anchor="middle" x="875.12" y="-44.5" font-family="Helvetica,sans-Serif" font-size="10.00">Map::isCrossroad</text>
</a>
</g>
</g>
<!-- Node15&#45;&gt;Node16 -->
<g id="edge17_Node000015_Node000016" class="edge">
<title>Node15&#45;&gt;Node16</title>
<g id="a_edge17_Node000015_Node000016"><a xlink:title=" ">
<path fill="none" stroke="#63b8ff" d="M782.2,-48C793.46,-48 805.41,-48 816.83,-48"/>
<polygon fill="#63b8ff" stroke="#63b8ff" points="816.52,-51.5 826.52,-48 816.52,-44.5 816.52,-51.5"/>
</a>
</g>
</g>
<!-- Node19&#45;&gt;Node5 -->
<g id="edge22_Node000019_Node000005" class="edge">
<title>Node19&#45;&gt;Node5</title>
<g id="a_edge22_Node000019_Node000005"><a xlink:title=" ">
<path fill="none" stroke="#63b8ff" d="M581.23,-246.59C610.46,-233.5 660.86,-210.91 694.22,-195.97"/>
<polygon fill="#63b8ff" stroke="#63b8ff" points="695.33,-199.31 703.02,-192.02 692.47,-192.92 695.33,-199.31"/>
</a>
</g>
</g>
</g>
</svg>
