<?xml version="1.0" encoding="UTF-8" standalone="no"?>
<!DOCTYPE svg PUBLIC "-//W3C//DTD SVG 1.1//EN"
 "http://www.w3.org/Graphics/SVG/1.1/DTD/svg11.dtd">
<!-- Generated by graphviz version 10.0.1 (0)
 -->
<!-- Title: Ghost::getNextMove Pages: 1 -->
<svg width="480pt" height="313pt"
 viewBox="0.00 0.00 479.75 313.00" xmlns="http://www.w3.org/2000/svg" xmlns:xlink="http://www.w3.org/1999/xlink">
<g id="graph0" class="graph" transform="scale(1 1) rotate(0) translate(4 309)">
<title>Ghost::getNextMove</title>
<!-- Node1 -->
<g id="Node000001" class="node">
<title>Node1</title>
<g id="a_Node000001"><a xlink:title="Returns the calculated next move of the object.">
<polygon fill="#999999" stroke="#666666" points="106.75,-191 0,-191 0,-171 106.75,-171 106.75,-191"/>
<text text-anchor="middle" x="53.38" y="-177.5" font-family="Helvetica,sans-Serif" font-size="10.00">Ghost::getNextMove</text>
</a>
</g>
</g>
<!-- Node2 -->
<g id="Node000002" class="node">
<title>Node2</title>
<g id="a_Node000002"><a xlink:href="classMovingObject.html#aeffcdeb60f4838b3c2c2529146ab05cc" target="_top" xlink:title="Returns the direction of the object.">
<polygon fill="white" stroke="#666666" points="278.75,-305 144.25,-305 144.25,-285 278.75,-285 278.75,-305"/>
<text text-anchor="middle" x="211.5" y="-291.5" font-family="Helvetica,sans-Serif" font-size="10.00">MovingObject::getDirection</text>
</a>
</g>
</g>
<!-- Node1&#45;&gt;Node2 -->
<g id="edge1_Node000001_Node000002" class="edge">
<title>Node1&#45;&gt;Node2</title>
<g id="a_edge1_Node000001_Node000002"><a xlink:title=" ">
<path fill="none" stroke="#63b8ff" d="M61.05,-191.32C74.25,-210.87 105.63,-253.37 142.75,-276 145.21,-277.5 147.8,-278.89 150.47,-280.17"/>
<polygon fill="#63b8ff" stroke="#63b8ff" points="149.07,-283.38 159.65,-284.01 151.77,-276.92 149.07,-283.38"/>
</a>
</g>
</g>
<!-- Node3 -->
<g id="Node000003" class="node">
<title>Node3</title>
<g id="a_Node000003"><a xlink:href="classGhost.html#ac3ac2d664d53be9c655968bef168fb4d" target="_top" xlink:title=" ">
<polygon fill="white" stroke="#666666" points="280.25,-267 142.75,-267 142.75,-247 280.25,-247 280.25,-267"/>
<text text-anchor="middle" x="211.5" y="-253.5" font-family="Helvetica,sans-Serif" font-size="10.00">Ghost::getDirectionTowards</text>
</a>
</g>
</g>
<!-- Node1&#45;&gt;Node3 -->
<g id="edge2_Node000001_Node000003" class="edge">
<title>Node1&#45;&gt;Node3</title>
<g id="a_edge2_Node000001_Node000003"><a xlink:title=" ">
<path fill="none" stroke="#63b8ff" d="M69.84,-191.34C87.11,-202.58 116.13,-220.59 142.75,-233 150.21,-236.48 158.33,-239.76 166.27,-242.71"/>
<polygon fill="#63b8ff" stroke="#63b8ff" points="164.89,-245.94 175.49,-246.01 167.25,-239.35 164.89,-245.94"/>
</a>
</g>
</g>
<!-- Node4 -->
<g id="Node000004" class="node">
<title>Node4</title>
<g id="a_Node000004"><a xlink:href="classMap.html#a3b01db567592d31b0f862e84bf687c75" target="_top" xlink:title="Gets the nearest ghost cage exit.">
<polygon fill="white" stroke="#666666" points="471.75,-200 316.25,-200 316.25,-180 471.75,-180 471.75,-200"/>
<text text-anchor="middle" x="394" y="-186.5" font-family="Helvetica,sans-Serif" font-size="10.00">Map::getNearestGhostCageExit</text>
</a>
</g>
</g>
<!-- Node1&#45;&gt;Node4 -->
<g id="edge3_Node000001_Node000004" class="edge">
<title>Node1&#45;&gt;Node4</title>
<g id="a_edge3_Node000001_Node000004"><a xlink:title=" ">
<path fill="none" stroke="#63b8ff" d="M94.12,-191.42C109.23,-194.88 126.68,-198.29 142.75,-200 196.29,-205.69 256.58,-203.54 304.57,-199.8"/>
<polygon fill="#63b8ff" stroke="#63b8ff" points="304.68,-203.3 314.36,-198.99 304.1,-196.32 304.68,-203.3"/>
</a>
</g>
</g>
<!-- Node5 -->
<g id="Node000005" class="node">
<title>Node5</title>
<g id="a_Node000005"><a xlink:href="classMap.html#a46b5bb95de19053da1bc8ff114a0c267" target="_top" xlink:title="Checks if there is a crossroad at the given coordinates.">
<polygon fill="white" stroke="#666666" points="263,-191 160,-191 160,-171 263,-171 263,-191"/>
<text text-anchor="middle" x="211.5" y="-177.5" font-family="Helvetica,sans-Serif" font-size="10.00">Map::isCrossroadAt</text>
</a>
</g>
</g>
<!-- Node1&#45;&gt;Node5 -->
<g id="edge4_Node000001_Node000005" class="edge">
<title>Node1&#45;&gt;Node5</title>
<g id="a_edge4_Node000001_Node000005"><a xlink:title=" ">
<path fill="none" stroke="#63b8ff" d="M107.23,-181C120.43,-181 134.71,-181 148.32,-181"/>
<polygon fill="#63b8ff" stroke="#63b8ff" points="148.03,-184.5 158.03,-181 148.03,-177.5 148.03,-184.5"/>
</a>
</g>
</g>
<!-- Node6 -->
<g id="Node000006" class="node">
<title>Node6</title>
<g id="a_Node000006"><a xlink:href="classMap.html#a83e780cb2abc7b2c5ce61910d7d667d1" target="_top" xlink:title="Checks if given position is in ghost cage.">
<polygon fill="white" stroke="#666666" points="264.5,-153 158.5,-153 158.5,-133 264.5,-133 264.5,-153"/>
<text text-anchor="middle" x="211.5" y="-139.5" font-family="Helvetica,sans-Serif" font-size="10.00">Map::isInGhostCage</text>
</a>
</g>
</g>
<!-- Node1&#45;&gt;Node6 -->
<g id="edge5_Node000001_Node000006" class="edge">
<title>Node1&#45;&gt;Node6</title>
<g id="a_edge5_Node000001_Node000006"><a xlink:title=" ">
<path fill="none" stroke="#63b8ff" d="M97.45,-170.52C115.71,-166.07 137.19,-160.84 156.49,-156.15"/>
<polygon fill="#63b8ff" stroke="#63b8ff" points="157.21,-159.57 166.09,-153.81 155.55,-152.77 157.21,-159.57"/>
</a>
</g>
</g>
<!-- Node7 -->
<g id="Node000007" class="node">
<title>Node7</title>
<g id="a_Node000007"><a xlink:href="Helpers_8cpp.html#a8f135720b7459904552189a30f57fc34" target="_top" xlink:title=" ">
<polygon fill="white" stroke="#666666" points="257.38,-115 165.62,-115 165.62,-95 257.38,-95 257.38,-115"/>
<text text-anchor="middle" x="211.5" y="-101.5" font-family="Helvetica,sans-Serif" font-size="10.00">oppositeDirection</text>
</a>
</g>
</g>
<!-- Node1&#45;&gt;Node7 -->
<g id="edge6_Node000001_Node000007" class="edge">
<title>Node1&#45;&gt;Node7</title>
<g id="a_edge6_Node000001_Node000007"><a xlink:title=" ">
<path fill="none" stroke="#63b8ff" d="M67.72,-170.56C84.41,-157.95 114.28,-136.82 142.75,-124 146.77,-122.19 151,-120.51 155.31,-118.97"/>
<polygon fill="#63b8ff" stroke="#63b8ff" points="156.26,-122.34 164.65,-115.87 154.06,-115.69 156.26,-122.34"/>
</a>
</g>
</g>
<!-- Node8 -->
<g id="Node000008" class="node">
<title>Node8</title>
<g id="a_Node000008"><a xlink:href="classGhost.html#a148ba3ee3c09025057a85025e2b74f81" target="_top" xlink:title=" ">
<polygon fill="white" stroke="#666666" points="253.25,-77 169.75,-77 169.75,-57 253.25,-57 253.25,-77"/>
<text text-anchor="middle" x="211.5" y="-63.5" font-family="Helvetica,sans-Serif" font-size="10.00">Ghost::tryMove</text>
</a>
</g>
</g>
<!-- Node1&#45;&gt;Node8 -->
<g id="edge7_Node000001_Node000008" class="edge">
<title>Node1&#45;&gt;Node8</title>
<g id="a_edge7_Node000001_Node000008"><a xlink:title=" ">
<path fill="none" stroke="#63b8ff" d="M61.05,-170.68C74.25,-151.13 105.63,-108.63 142.75,-86 147.71,-82.98 153.16,-80.42 158.75,-78.27"/>
<polygon fill="#63b8ff" stroke="#63b8ff" points="159.81,-81.6 168.15,-75.08 157.56,-74.97 159.81,-81.6"/>
</a>
</g>
</g>
<!-- Node8&#45;&gt;Node4 -->
<g id="edge9_Node000008_Node000004" class="edge">
<title>Node8&#45;&gt;Node4</title>
<g id="a_edge9_Node000008_Node000004"><a xlink:title=" ">
<path fill="none" stroke="#63b8ff" d="M253.43,-73.31C262.86,-76.11 272.41,-80.16 280.25,-86 304.28,-103.9 294.92,-121.96 316.25,-143 328.96,-155.54 345.62,-166.25 360.16,-174.26"/>
<polygon fill="#63b8ff" stroke="#63b8ff" points="358.48,-177.33 368.95,-178.9 361.74,-171.14 358.48,-177.33"/>
</a>
</g>
</g>
<!-- Node9 -->
<g id="Node000009" class="node">
<title>Node9</title>
<g id="a_Node000009"><a xlink:href="Helpers_8cpp.html#a842dd6c8fbe34f8e1a96bc820d1d955d" target="_top" xlink:title=" ">
<polygon fill="white" stroke="#666666" points="457.88,-134 330.12,-134 330.12,-114 457.88,-114 457.88,-134"/>
<text text-anchor="middle" x="394" y="-120.5" font-family="Helvetica,sans-Serif" font-size="10.00">calculateNewCoordinates</text>
</a>
</g>
</g>
<!-- Node8&#45;&gt;Node9 -->
<g id="edge8_Node000008_Node000009" class="edge">
<title>Node8&#45;&gt;Node9</title>
<g id="a_edge8_Node000008_Node000009"><a xlink:title=" ">
<path fill="none" stroke="#63b8ff" d="M253.45,-76.97C262.4,-79.57 271.74,-82.61 280.25,-86 297.05,-92.7 299.34,-98.56 316.25,-105 321.49,-107 327.01,-108.84 332.58,-110.53"/>
<polygon fill="#63b8ff" stroke="#63b8ff" points="331.29,-113.8 341.87,-113.17 333.2,-107.06 331.29,-113.8"/>
</a>
</g>
</g>
<!-- Node10 -->
<g id="Node000010" class="node">
<title>Node10</title>
<g id="a_Node000010"><a xlink:href="classMap.html#a3fa542ef9ff897893adc5a290b224114" target="_top" xlink:title="Gets the map size.">
<polygon fill="white" stroke="#666666" points="430.88,-96 357.12,-96 357.12,-76 430.88,-76 430.88,-96"/>
<text text-anchor="middle" x="394" y="-82.5" font-family="Helvetica,sans-Serif" font-size="10.00">Map::getSize</text>
</a>
</g>
</g>
<!-- Node8&#45;&gt;Node10 -->
<g id="edge10_Node000008_Node000010" class="edge">
<title>Node8&#45;&gt;Node10</title>
<g id="a_edge10_Node000008_Node000010"><a xlink:title=" ">
<path fill="none" stroke="#63b8ff" d="M253.46,-71.31C280.79,-74.19 316.83,-77.98 345.43,-80.99"/>
<polygon fill="#63b8ff" stroke="#63b8ff" points="344.97,-84.46 355.28,-82.03 345.71,-77.5 344.97,-84.46"/>
</a>
</g>
</g>
<!-- Node11 -->
<g id="Node000011" class="node">
<title>Node11</title>
<g id="a_Node000011"><a xlink:href="classMap.html#a9daf0b81095fe118f2e52fd783ea1bf8" target="_top" xlink:title="Checks if there is a wall at the given coordinates.">
<polygon fill="white" stroke="#666666" points="432.38,-58 355.62,-58 355.62,-38 432.38,-38 432.38,-58"/>
<text text-anchor="middle" x="394" y="-44.5" font-family="Helvetica,sans-Serif" font-size="10.00">Map::isWallAt</text>
</a>
</g>
</g>
<!-- Node8&#45;&gt;Node11 -->
<g id="edge11_Node000008_Node000011" class="edge">
<title>Node8&#45;&gt;Node11</title>
<g id="a_edge11_Node000008_Node000011"><a xlink:title=" ">
<path fill="none" stroke="#63b8ff" d="M253.46,-62.69C280.34,-59.86 315.63,-56.14 343.99,-53.16"/>
<polygon fill="#63b8ff" stroke="#63b8ff" points="344.2,-56.66 353.78,-52.13 343.46,-49.69 344.2,-56.66"/>
</a>
</g>
</g>
<!-- Node12 -->
<g id="Node000012" class="node">
<title>Node12</title>
<g id="a_Node000012"><a xlink:href="classGhost.html#aa6cee6d5199e728031a07f703b116a67" target="_top" xlink:title="Moves the object in the given direction.">
<polygon fill="white" stroke="#666666" points="430.12,-20 357.88,-20 357.88,0 430.12,0 430.12,-20"/>
<text text-anchor="middle" x="394" y="-6.5" font-family="Helvetica,sans-Serif" font-size="10.00">Ghost::move</text>
</a>
</g>
</g>
<!-- Node8&#45;&gt;Node12 -->
<g id="edge12_Node000008_Node000012" class="edge">
<title>Node8&#45;&gt;Node12</title>
<g id="a_edge12_Node000008_Node000012"><a xlink:title=" ">
<path fill="none" stroke="#63b8ff" d="M238.67,-56.52C259.49,-48.4 289.47,-37.19 316.25,-29 325.98,-26.02 336.51,-23.18 346.55,-20.64"/>
<polygon fill="#63b8ff" stroke="#63b8ff" points="347.29,-24.06 356.16,-18.27 345.61,-17.27 347.29,-24.06"/>
</a>
</g>
</g>
</g>
</svg>
