<?xml version="1.0" encoding="UTF-8" standalone="no"?>
<!DOCTYPE svg PUBLIC "-//W3C//DTD SVG 1.1//EN"
 "http://www.w3.org/Graphics/SVG/1.1/DTD/svg11.dtd">
<!-- Generated by graphviz version 2.43.0 (0)
 -->
<!-- Title: Map::clearMap Pages: 1 -->
<svg width="484pt" height="104pt"
 viewBox="0.00 0.00 484.00 104.00" xmlns="http://www.w3.org/2000/svg" xmlns:xlink="http://www.w3.org/1999/xlink">
<g id="graph0" class="graph" transform="scale(1 1) rotate(0) translate(4 100)">
<title>Map::clearMap</title>
<polygon fill="white" stroke="transparent" points="-4,4 -4,-100 480,-100 480,4 -4,4"/>
<!-- Node1 -->
<g id="node1" class="node">
<title>Node1</title>
<g id="a_node1"><a xlink:title="Clears the map.">
<polygon fill="#bfbfbf" stroke="black" points="387,-38.5 387,-57.5 476,-57.5 476,-38.5 387,-38.5"/>
<text text-anchor="middle" x="431.5" y="-45.5" font-family="Helvetica,sans-Serif" font-size="10.00">Map::clearMap</text>
</a>
</g>
</g>
<!-- Node2 -->
<g id="node2" class="node">
<title>Node2</title>
<g id="a_node2"><a xlink:href="classGame.html#aa2d938aa918268060e63980c7efd86f8" target="_top" xlink:title="Ends the game.">
<polygon fill="white" stroke="black" points="135,-76.5 135,-95.5 205,-95.5 205,-76.5 135,-76.5"/>
<text text-anchor="middle" x="170" y="-83.5" font-family="Helvetica,sans-Serif" font-size="10.00">Game::end</text>
</a>
</g>
</g>
<!-- Node1&#45;&gt;Node2 -->
<g id="edge1" class="edge">
<title>Node1&#45;&gt;Node2</title>
<path fill="none" stroke="midnightblue" d="M385.15,-59.91C374.04,-62.53 362.14,-65.09 351,-67 300.52,-75.66 241.35,-80.99 205.02,-83.73"/>
<polygon fill="midnightblue" stroke="midnightblue" points="386.19,-63.26 395.09,-57.5 384.54,-56.45 386.19,-63.26"/>
</g>
<!-- Node4 -->
<g id="node4" class="node">
<title>Node4</title>
<g id="a_node4"><a xlink:href="classGame.html#a66e2ecb02f046b0c17922a4255720e5a" target="_top" xlink:title="Ends the game on error.">
<polygon fill="white" stroke="black" points="254,-38.5 254,-57.5 351,-57.5 351,-38.5 254,-38.5"/>
<text text-anchor="middle" x="302.5" y="-45.5" font-family="Helvetica,sans-Serif" font-size="10.00">Game::endOnErr</text>
</a>
</g>
</g>
<!-- Node1&#45;&gt;Node4 -->
<g id="edge3" class="edge">
<title>Node1&#45;&gt;Node4</title>
<path fill="none" stroke="midnightblue" d="M376.64,-48C368.19,-48 359.5,-48 351.2,-48"/>
<polygon fill="midnightblue" stroke="midnightblue" points="376.79,-51.5 386.79,-48 376.79,-44.5 376.79,-51.5"/>
</g>
<!-- Node6 -->
<g id="node6" class="node">
<title>Node6</title>
<g id="a_node6"><a xlink:href="classGame.html#a1118c369ae5b2fe433aac540cb32d187" target="_top" xlink:title="Starts the game with a new map.">
<polygon fill="white" stroke="black" points="122,-0.5 122,-19.5 218,-19.5 218,-0.5 122,-0.5"/>
<text text-anchor="middle" x="170" y="-7.5" font-family="Helvetica,sans-Serif" font-size="10.00">Game::startNew</text>
</a>
</g>
</g>
<!-- Node1&#45;&gt;Node6 -->
<g id="edge7" class="edge">
<title>Node1&#45;&gt;Node6</title>
<path fill="none" stroke="midnightblue" d="M385.15,-36.09C374.04,-33.47 362.14,-30.91 351,-29 306.25,-21.32 254.67,-16.26 218.22,-13.3"/>
<polygon fill="midnightblue" stroke="midnightblue" points="384.54,-39.55 395.09,-38.5 386.19,-32.74 384.54,-39.55"/>
</g>
<!-- Node3 -->
<g id="node3" class="node">
<title>Node3</title>
<g id="a_node3"><a xlink:href="classGame.html#aef7682b8bf084aac3c8f929a6fd2f673" target="_top" xlink:title="Updates the game state.">
<polygon fill="white" stroke="black" points="0,-76.5 0,-95.5 86,-95.5 86,-76.5 0,-76.5"/>
<text text-anchor="middle" x="43" y="-83.5" font-family="Helvetica,sans-Serif" font-size="10.00">Game::update</text>
</a>
</g>
</g>
<!-- Node2&#45;&gt;Node3 -->
<g id="edge2" class="edge">
<title>Node2&#45;&gt;Node3</title>
<path fill="none" stroke="midnightblue" d="M124.63,-86C112.11,-86 98.53,-86 86.15,-86"/>
<polygon fill="midnightblue" stroke="midnightblue" points="124.84,-89.5 134.84,-86 124.84,-82.5 124.84,-89.5"/>
</g>
<!-- Node4&#45;&gt;Node2 -->
<g id="edge4" class="edge">
<title>Node4&#45;&gt;Node2</title>
<path fill="none" stroke="midnightblue" d="M258.95,-60.39C241.08,-65.59 220.61,-71.55 203.92,-76.41"/>
<polygon fill="midnightblue" stroke="midnightblue" points="259.95,-63.75 268.57,-57.59 257.99,-57.02 259.95,-63.75"/>
</g>
<!-- Node5 -->
<g id="node5" class="node">
<title>Node5</title>
<g id="a_node5"><a xlink:href="classGame.html#a2a30c89761624ee64cd7acb147aaf89c" target="_top" xlink:title="Starts the game.">
<polygon fill="white" stroke="black" points="133,-38.5 133,-57.5 207,-57.5 207,-38.5 133,-38.5"/>
<text text-anchor="middle" x="170" y="-45.5" font-family="Helvetica,sans-Serif" font-size="10.00">Game::start</text>
</a>
</g>
</g>
<!-- Node4&#45;&gt;Node5 -->
<g id="edge5" class="edge">
<title>Node4&#45;&gt;Node5</title>
<path fill="none" stroke="midnightblue" d="M243.46,-48C231.2,-48 218.59,-48 207.4,-48"/>
<polygon fill="midnightblue" stroke="midnightblue" points="243.65,-51.5 253.65,-48 243.65,-44.5 243.65,-51.5"/>
</g>
<!-- Node4&#45;&gt;Node6 -->
<g id="edge6" class="edge">
<title>Node4&#45;&gt;Node6</title>
<path fill="none" stroke="midnightblue" d="M258.95,-35.61C241.08,-30.41 220.61,-24.45 203.92,-19.59"/>
<polygon fill="midnightblue" stroke="midnightblue" points="257.99,-38.98 268.57,-38.41 259.95,-32.25 257.99,-38.98"/>
</g>
</g>
</svg>
