<?xml version="1.0" encoding="UTF-8" standalone="no"?>
<!DOCTYPE svg PUBLIC "-//W3C//DTD SVG 1.1//EN"
 "http://www.w3.org/Graphics/SVG/1.1/DTD/svg11.dtd">
<!-- Generated by graphviz version 10.0.1 (0)
 -->
<!-- Title: MovingObject::getPrevDirection Pages: 1 -->
<svg width="315pt" height="66pt"
 viewBox="0.00 0.00 314.50 66.00" xmlns="http://www.w3.org/2000/svg" xmlns:xlink="http://www.w3.org/1999/xlink">
<g id="graph0" class="graph" transform="scale(1 1) rotate(0) translate(4 62)">
<title>MovingObject::getPrevDirection</title>
<!-- Node1 -->
<g id="Node000001" class="node">
<title>Node1</title>
<g id="a_Node000001"><a xlink:title="Returns the previous direction of the object.">
<polygon fill="#999999" stroke="#666666" points="306.5,-39 151.75,-39 151.75,-19 306.5,-19 306.5,-39"/>
<text text-anchor="middle" x="229.12" y="-25.5" font-family="Helvetica,sans-Serif" font-size="10.00">MovingObject::getPrevDirection</text>
</a>
</g>
</g>
<!-- Node2 -->
<g id="Node000002" class="node">
<title>Node2</title>
<g id="a_Node000002"><a xlink:href="structChaseBehavior.html#a2352bad80fc83366546accdba99f7d33" target="_top" xlink:title="Gets the ideal direction to move the enemy.">
<polygon fill="white" stroke="#666666" points="114.25,-58 1.5,-58 1.5,-38 114.25,-38 114.25,-58"/>
<text text-anchor="middle" x="57.88" y="-44.5" font-family="Helvetica,sans-Serif" font-size="10.00">ChaseBehavior::move</text>
</a>
</g>
</g>
<!-- Node1&#45;&gt;Node2 -->
<g id="edge1_Node000001_Node000002" class="edge">
<title>Node1&#45;&gt;Node2</title>
<g id="a_edge1_Node000001_Node000002"><a xlink:title=" ">
<path fill="none" stroke="#63b8ff" d="M140.04,-38.89C131.37,-39.86 122.76,-40.83 114.56,-41.75"/>
<polygon fill="#63b8ff" stroke="#63b8ff" points="140.37,-42.37 149.92,-37.78 139.59,-35.42 140.37,-42.37"/>
</a>
</g>
</g>
<!-- Node3 -->
<g id="Node000003" class="node">
<title>Node3</title>
<g id="a_Node000003"><a xlink:href="structScatterBehavior.html#abf893e24e51acddd4c3e1cd57e262762" target="_top" xlink:title="Gets the ideal direction to move the enemy.">
<polygon fill="white" stroke="#666666" points="115.75,-20 0,-20 0,0 115.75,0 115.75,-20"/>
<text text-anchor="middle" x="57.88" y="-6.5" font-family="Helvetica,sans-Serif" font-size="10.00">ScatterBehavior::move</text>
</a>
</g>
</g>
<!-- Node1&#45;&gt;Node3 -->
<g id="edge2_Node000001_Node000003" class="edge">
<title>Node1&#45;&gt;Node3</title>
<g id="a_edge2_Node000001_Node000003"><a xlink:title=" ">
<path fill="none" stroke="#63b8ff" d="M140.24,-19.13C132.03,-18.21 123.87,-17.3 116.06,-16.42"/>
<polygon fill="#63b8ff" stroke="#63b8ff" points="139.59,-22.58 149.92,-20.22 140.37,-15.63 139.59,-22.58"/>
</a>
</g>
</g>
</g>
</svg>
