<?xml version="1.0" encoding="UTF-8" standalone="no"?>
<!DOCTYPE svg PUBLIC "-//W3C//DTD SVG 1.1//EN"
 "http://www.w3.org/Graphics/SVG/1.1/DTD/svg11.dtd">
<!-- Generated by graphviz version 10.0.1 (0)
 -->
<!-- Title: Game::draw Pages: 1 -->
<svg width="353pt" height="113pt"
 viewBox="0.00 0.00 353.00 113.00" xmlns="http://www.w3.org/2000/svg" xmlns:xlink="http://www.w3.org/1999/xlink">
<g id="graph0" class="graph" transform="scale(1 1) rotate(0) translate(4 109)">
<title>Game::draw</title>
<!-- Node1 -->
<g id="Node000001" class="node">
<title>Node1</title>
<g id="a_Node000001"><a xlink:title="Draws the game.">
<polygon fill="#999999" stroke="#666666" points="345,-48 275.75,-48 275.75,-28 345,-28 345,-48"/>
<text text-anchor="middle" x="310.38" y="-34.5" font-family="Helvetica,sans-Serif" font-size="10.00">Game::draw</text>
</a>
</g>
</g>
<!-- Node2 -->
<g id="Node000002" class="node">
<title>Node2</title>
<g id="a_Node000002"><a xlink:href="classGame.html#a4c2a7ead717a4c13f1ffddafd11e17c8" target="_top" xlink:title="Initializes the game, loading config, and the map.">
<polygon fill="white" stroke="#666666" points="236.75,-86 127,-86 127,-66 236.75,-66 236.75,-86"/>
<text text-anchor="middle" x="181.88" y="-72.5" font-family="Helvetica,sans-Serif" font-size="10.00">Game::initializeGame</text>
</a>
</g>
</g>
<!-- Node1&#45;&gt;Node2 -->
<g id="edge1_Node000001_Node000002" class="edge">
<title>Node1&#45;&gt;Node2</title>
<g id="a_edge1_Node000001_Node000002"><a xlink:title=" ">
<path fill="none" stroke="#63b8ff" d="M264.61,-51.45C249.22,-56.07 232.23,-61.17 217.75,-65.52"/>
<polygon fill="#63b8ff" stroke="#63b8ff" points="265.46,-54.85 274.03,-48.62 263.44,-48.14 265.46,-54.85"/>
</a>
</g>
</g>
<!-- Node5 -->
<g id="Node000005" class="node">
<title>Node5</title>
<g id="a_Node000005"><a xlink:href="classGame.html#a127294d56e1c963bf1a12d2b95a7a0c3" target="_top" xlink:title="Returns all moving objects to their starting positions.">
<polygon fill="white" stroke="#666666" points="239.75,-48 124,-48 124,-28 239.75,-28 239.75,-48"/>
<text text-anchor="middle" x="181.88" y="-34.5" font-family="Helvetica,sans-Serif" font-size="10.00">Game::returnAllToStart</text>
</a>
</g>
</g>
<!-- Node1&#45;&gt;Node5 -->
<g id="edge4_Node000001_Node000005" class="edge">
<title>Node1&#45;&gt;Node5</title>
<g id="a_edge4_Node000001_Node000005"><a xlink:title=" ">
<path fill="none" stroke="#63b8ff" d="M263.97,-38C256.14,-38 247.91,-38 239.83,-38"/>
<polygon fill="#63b8ff" stroke="#63b8ff" points="263.96,-41.5 273.96,-38 263.96,-34.5 263.96,-41.5"/>
</a>
</g>
</g>
<!-- Node6 -->
<g id="Node000006" class="node">
<title>Node6</title>
<g id="a_Node000006"><a xlink:href="classGame.html#aef7682b8bf084aac3c8f929a6fd2f673" target="_top" xlink:title="Updates the game state.">
<polygon fill="white" stroke="#666666" points="82.75,-20 5.25,-20 5.25,0 82.75,0 82.75,-20"/>
<text text-anchor="middle" x="44" y="-6.5" font-family="Helvetica,sans-Serif" font-size="10.00">Game::update</text>
</a>
</g>
</g>
<!-- Node1&#45;&gt;Node6 -->
<g id="edge6_Node000001_Node000006" class="edge">
<title>Node1&#45;&gt;Node6</title>
<g id="a_edge6_Node000001_Node000006"><a xlink:title=" ">
<path fill="none" stroke="#63b8ff" d="M265.81,-24.54C257.24,-22.34 248.27,-20.34 239.75,-19 185.75,-10.49 122.38,-9.14 82.95,-9.3"/>
<polygon fill="#63b8ff" stroke="#63b8ff" points="264.73,-27.87 275.3,-27.11 266.56,-21.11 264.73,-27.87"/>
</a>
</g>
</g>
<!-- Node3 -->
<g id="Node000003" class="node">
<title>Node3</title>
<g id="a_Node000003"><a xlink:href="classGame.html#a2a30c89761624ee64cd7acb147aaf89c" target="_top" xlink:title="Starts the game.">
<polygon fill="white" stroke="#666666" points="77.88,-105 10.12,-105 10.12,-85 77.88,-85 77.88,-105"/>
<text text-anchor="middle" x="44" y="-91.5" font-family="Helvetica,sans-Serif" font-size="10.00">Game::start</text>
</a>
</g>
</g>
<!-- Node2&#45;&gt;Node3 -->
<g id="edge2_Node000002_Node000003" class="edge">
<title>Node2&#45;&gt;Node3</title>
<g id="a_edge2_Node000002_Node000003"><a xlink:title=" ">
<path fill="none" stroke="#63b8ff" d="M115.49,-85.14C102.55,-86.95 89.48,-88.78 78.18,-90.36"/>
<polygon fill="#63b8ff" stroke="#63b8ff" points="115.87,-88.62 125.28,-83.77 114.9,-81.69 115.87,-88.62"/>
</a>
</g>
</g>
<!-- Node4 -->
<g id="Node000004" class="node">
<title>Node4</title>
<g id="a_Node000004"><a xlink:href="classGame.html#a1118c369ae5b2fe433aac540cb32d187" target="_top" xlink:title="Starts the game with a new map.">
<polygon fill="white" stroke="#666666" points="88,-67 0,-67 0,-47 88,-47 88,-67"/>
<text text-anchor="middle" x="44" y="-53.5" font-family="Helvetica,sans-Serif" font-size="10.00">Game::startNew</text>
</a>
</g>
</g>
<!-- Node2&#45;&gt;Node4 -->
<g id="edge3_Node000002_Node000004" class="edge">
<title>Node2&#45;&gt;Node4</title>
<g id="a_edge3_Node000002_Node000004"><a xlink:title=" ">
<path fill="none" stroke="#63b8ff" d="M115.62,-66.88C106.41,-65.59 97.12,-64.29 88.46,-63.08"/>
<polygon fill="#63b8ff" stroke="#63b8ff" points="114.9,-70.31 125.28,-68.23 115.87,-63.38 114.9,-70.31"/>
</a>
</g>
</g>
<!-- Node5&#45;&gt;Node6 -->
<g id="edge5_Node000005_Node000006" class="edge">
<title>Node5&#45;&gt;Node6</title>
<g id="a_edge5_Node000005_Node000006"><a xlink:title=" ">
<path fill="none" stroke="#63b8ff" d="M119.07,-25.26C106.74,-22.72 94.13,-20.12 82.89,-17.81"/>
<polygon fill="#63b8ff" stroke="#63b8ff" points="118.3,-28.68 128.8,-27.27 119.71,-21.82 118.3,-28.68"/>
</a>
</g>
</g>
</g>
</svg>
