<?xml version="1.0" encoding="UTF-8" standalone="no"?>
<!DOCTYPE svg PUBLIC "-//W3C//DTD SVG 1.1//EN"
 "http://www.w3.org/Graphics/SVG/1.1/DTD/svg11.dtd">
<!-- Generated by graphviz version 2.43.0 (0)
 -->
<!-- Title: Window::getChoice Pages: 1 -->
<svg width="488pt" height="66pt"
 viewBox="0.00 0.00 488.00 66.00" xmlns="http://www.w3.org/2000/svg" xmlns:xlink="http://www.w3.org/1999/xlink">
<g id="graph0" class="graph" transform="scale(1 1) rotate(0) translate(4 62)">
<title>Window::getChoice</title>
<polygon fill="white" stroke="transparent" points="-4,4 -4,-62 484,-62 484,4 -4,4"/>
<!-- Node1 -->
<g id="node1" class="node">
<title>Node1</title>
<g id="a_node1"><a xlink:title="Gets the user choice from the main menu.">
<polygon fill="#bfbfbf" stroke="black" points="0,-19.5 0,-38.5 110,-38.5 110,-19.5 0,-19.5"/>
<text text-anchor="middle" x="55" y="-26.5" font-family="Helvetica,sans-Serif" font-size="10.00">Window::getChoice</text>
</a>
</g>
</g>
<!-- Node2 -->
<g id="node2" class="node">
<title>Node2</title>
<g id="a_node2"><a xlink:href="classWindow.html#ac9718717327b190f444c9fe3955477a7" target="_top" xlink:title="Creates the main menu window.">
<polygon fill="white" stroke="black" points="146,-38.5 146,-57.5 304,-57.5 304,-38.5 146,-38.5"/>
<text text-anchor="middle" x="225" y="-45.5" font-family="Helvetica,sans-Serif" font-size="10.00">Window::createMenuWindow</text>
</a>
</g>
</g>
<!-- Node1&#45;&gt;Node2 -->
<g id="edge1" class="edge">
<title>Node1&#45;&gt;Node2</title>
<path fill="none" stroke="midnightblue" d="M110.08,-35.12C118.37,-36.05 127.12,-37.04 135.92,-38.04"/>
<polygon fill="midnightblue" stroke="midnightblue" points="135.53,-41.52 145.86,-39.16 136.31,-34.56 135.53,-41.52"/>
</g>
<!-- Node4 -->
<g id="node4" class="node">
<title>Node4</title>
<g id="a_node4"><a xlink:href="classWindow.html#abde910f5e4b012211f4cd0425d0bece1" target="_top" xlink:title="Draws the menu options.">
<polygon fill="white" stroke="black" points="150.5,-0.5 150.5,-19.5 299.5,-19.5 299.5,-0.5 150.5,-0.5"/>
<text text-anchor="middle" x="225" y="-7.5" font-family="Helvetica,sans-Serif" font-size="10.00">Window::drawMenuOptions</text>
</a>
</g>
</g>
<!-- Node1&#45;&gt;Node4 -->
<g id="edge3" class="edge">
<title>Node1&#45;&gt;Node4</title>
<path fill="none" stroke="midnightblue" d="M110.08,-22.88C119.72,-21.79 129.97,-20.63 140.21,-19.48"/>
<polygon fill="midnightblue" stroke="midnightblue" points="140.88,-22.92 150.42,-18.32 140.09,-15.97 140.88,-22.92"/>
</g>
<!-- Node3 -->
<g id="node3" class="node">
<title>Node3</title>
<g id="a_node3"><a xlink:href="classWindow.html#a07c2b4d065cbcb397eafc1a27a337bb7" target="_top" xlink:title="Clears the current window.">
<polygon fill="white" stroke="black" points="340,-38.5 340,-57.5 480,-57.5 480,-38.5 340,-38.5"/>
<text text-anchor="middle" x="410" y="-45.5" font-family="Helvetica,sans-Serif" font-size="10.00">Window::clearCurrentWin</text>
</a>
</g>
</g>
<!-- Node2&#45;&gt;Node3 -->
<g id="edge2" class="edge">
<title>Node2&#45;&gt;Node3</title>
<path fill="none" stroke="midnightblue" d="M304.14,-48C312.57,-48 321.15,-48 329.59,-48"/>
<polygon fill="midnightblue" stroke="midnightblue" points="329.79,-51.5 339.79,-48 329.79,-44.5 329.79,-51.5"/>
</g>
</g>
</svg>
