<?xml version="1.0" encoding="UTF-8" standalone="no"?>
<!DOCTYPE svg PUBLIC "-//W3C//DTD SVG 1.1//EN"
 "http://www.w3.org/Graphics/SVG/1.1/DTD/svg11.dtd">
<!-- Generated by graphviz version 2.43.0 (0)
 -->
<!-- Title: Window::drawMenuOptions Pages: 1 -->
<svg width="533pt" height="28pt"
 viewBox="0.00 0.00 533.00 28.00" xmlns="http://www.w3.org/2000/svg" xmlns:xlink="http://www.w3.org/1999/xlink">
<g id="graph0" class="graph" transform="scale(1 1) rotate(0) translate(4 24)">
<title>Window::drawMenuOptions</title>
<polygon fill="white" stroke="transparent" points="-4,4 -4,-24 529,-24 529,4 -4,4"/>
<!-- Node1 -->
<g id="node1" class="node">
<title>Node1</title>
<g id="a_node1"><a xlink:title="Draws the menu options.">
<polygon fill="#bfbfbf" stroke="black" points="376,-0.5 376,-19.5 525,-19.5 525,-0.5 376,-0.5"/>
<text text-anchor="middle" x="450.5" y="-7.5" font-family="Helvetica,sans-Serif" font-size="10.00">Window::drawMenuOptions</text>
</a>
</g>
</g>
<!-- Node2 -->
<g id="node2" class="node">
<title>Node2</title>
<g id="a_node2"><a xlink:href="classWindow.html#a56e7061bfcf6df5725b61e3f0399e865" target="_top" xlink:title="Gets the user choice from the main menu.">
<polygon fill="white" stroke="black" points="230,-0.5 230,-19.5 340,-19.5 340,-0.5 230,-0.5"/>
<text text-anchor="middle" x="285" y="-7.5" font-family="Helvetica,sans-Serif" font-size="10.00">Window::getChoice</text>
</a>
</g>
</g>
<!-- Node1&#45;&gt;Node2 -->
<g id="edge1" class="edge">
<title>Node1&#45;&gt;Node2</title>
<path fill="none" stroke="midnightblue" d="M365.69,-10C357.01,-10 348.35,-10 340.12,-10"/>
<polygon fill="midnightblue" stroke="midnightblue" points="365.88,-13.5 375.88,-10 365.88,-6.5 365.88,-13.5"/>
</g>
<!-- Node3 -->
<g id="node3" class="node">
<title>Node3</title>
<g id="a_node3"><a xlink:href="classGameManager.html#a8460b2f4f44c19dd405e4163fe6cb5cf" target="_top" xlink:title=" ">
<polygon fill="white" stroke="black" points="77,-0.5 77,-19.5 194,-19.5 194,-0.5 77,-0.5"/>
<text text-anchor="middle" x="135.5" y="-7.5" font-family="Helvetica,sans-Serif" font-size="10.00">GameManager::start</text>
</a>
</g>
</g>
<!-- Node2&#45;&gt;Node3 -->
<g id="edge2" class="edge">
<title>Node2&#45;&gt;Node3</title>
<path fill="none" stroke="midnightblue" d="M219.64,-10C211.13,-10 202.44,-10 194.05,-10"/>
<polygon fill="midnightblue" stroke="midnightblue" points="219.91,-13.5 229.91,-10 219.91,-6.5 219.91,-13.5"/>
</g>
<!-- Node4 -->
<g id="node4" class="node">
<title>Node4</title>
<g id="a_node4"><a xlink:href="main_8cpp.html#ae66f6b31b5ad750f1fe042a706a4e3d4" target="_top" xlink:title=" ">
<polygon fill="white" stroke="black" points="0,-0.5 0,-19.5 41,-19.5 41,-0.5 0,-0.5"/>
<text text-anchor="middle" x="20.5" y="-7.5" font-family="Helvetica,sans-Serif" font-size="10.00">main</text>
</a>
</g>
</g>
<!-- Node3&#45;&gt;Node4 -->
<g id="edge3" class="edge">
<title>Node3&#45;&gt;Node4</title>
<path fill="none" stroke="midnightblue" d="M66.53,-10C57.29,-10 48.48,-10 41.14,-10"/>
<polygon fill="midnightblue" stroke="midnightblue" points="66.68,-13.5 76.68,-10 66.68,-6.5 66.68,-13.5"/>
</g>
</g>
</svg>
