<?xml version="1.0" encoding="UTF-8" standalone="no"?>
<!DOCTYPE svg PUBLIC "-//W3C//DTD SVG 1.1//EN"
 "http://www.w3.org/Graphics/SVG/1.1/DTD/svg11.dtd">
<!-- Generated by graphviz version 2.43.0 (0)
 -->
<!-- Title: GameManager::start Pages: 1 -->
<svg width="1005pt" height="332pt"
 viewBox="0.00 0.00 1005.00 332.00" xmlns="http://www.w3.org/2000/svg" xmlns:xlink="http://www.w3.org/1999/xlink">
<g id="graph0" class="graph" transform="scale(1 1) rotate(0) translate(4 328)">
<title>GameManager::start</title>
<polygon fill="white" stroke="transparent" points="-4,4 -4,-328 1001,-328 1001,4 -4,4"/>
<!-- Node1 -->
<g id="node1" class="node">
<title>Node1</title>
<g id="a_node1"><a xlink:title=" ">
<polygon fill="#bfbfbf" stroke="black" points="0,-171.5 0,-190.5 117,-190.5 117,-171.5 0,-171.5"/>
<text text-anchor="middle" x="58.5" y="-178.5" font-family="Helvetica,sans-Serif" font-size="10.00">GameManager::start</text>
</a>
</g>
</g>
<!-- Node2 -->
<g id="node2" class="node">
<title>Node2</title>
<g id="a_node2"><a xlink:href="classWindow.html#a21910d98970e829ac1aa67db65a53476" target="_top" xlink:title="Exits ncurses window.">
<polygon fill="white" stroke="black" points="189,-304.5 189,-323.5 269,-323.5 269,-304.5 189,-304.5"/>
<text text-anchor="middle" x="229" y="-311.5" font-family="Helvetica,sans-Serif" font-size="10.00">Window::exit</text>
</a>
</g>
</g>
<!-- Node1&#45;&gt;Node2 -->
<g id="edge1" class="edge">
<title>Node1&#45;&gt;Node2</title>
<path fill="none" stroke="midnightblue" d="M65.19,-190.73C78.09,-211.92 111.66,-262.57 153,-290 160.86,-295.22 169.94,-299.37 179,-302.64"/>
<polygon fill="midnightblue" stroke="midnightblue" points="178.18,-306.06 188.77,-305.87 180.37,-299.41 178.18,-306.06"/>
</g>
<!-- Node3 -->
<g id="node3" class="node">
<title>Node3</title>
<g id="a_node3"><a xlink:href="classWindow.html#a56e7061bfcf6df5725b61e3f0399e865" target="_top" xlink:title="Gets the user choice from the main menu.">
<polygon fill="white" stroke="black" points="174,-228.5 174,-247.5 284,-247.5 284,-228.5 174,-228.5"/>
<text text-anchor="middle" x="229" y="-235.5" font-family="Helvetica,sans-Serif" font-size="10.00">Window::getChoice</text>
</a>
</g>
</g>
<!-- Node1&#45;&gt;Node3 -->
<g id="edge2" class="edge">
<title>Node1&#45;&gt;Node3</title>
<path fill="none" stroke="midnightblue" d="M80.73,-190.61C99.48,-198.86 127.69,-210.7 153,-219 160.45,-221.44 168.4,-223.76 176.23,-225.88"/>
<polygon fill="midnightblue" stroke="midnightblue" points="175.49,-229.31 186.05,-228.46 177.27,-222.54 175.49,-229.31"/>
</g>
<!-- Node7 -->
<g id="node7" class="node">
<title>Node7</title>
<g id="a_node7"><a xlink:href="classWindow.html#a2238e5489102fe2a77e7898a07dc37b5" target="_top" xlink:title="Gets text input from the user.">
<polygon fill="white" stroke="black" points="554.5,-114.5 554.5,-133.5 655.5,-133.5 655.5,-114.5 554.5,-114.5"/>
<text text-anchor="middle" x="605" y="-121.5" font-family="Helvetica,sans-Serif" font-size="10.00">Window::getInput</text>
</a>
</g>
</g>
<!-- Node1&#45;&gt;Node7 -->
<g id="edge6" class="edge">
<title>Node1&#45;&gt;Node7</title>
<path fill="none" stroke="midnightblue" d="M77.53,-171.49C95.93,-162.31 125.6,-148.96 153,-143 290.43,-113.12 456.8,-115.8 544.01,-120.07"/>
<polygon fill="midnightblue" stroke="midnightblue" points="544.08,-123.58 554.24,-120.59 544.44,-116.58 544.08,-123.58"/>
</g>
<!-- Node8 -->
<g id="node8" class="node">
<title>Node8</title>
<g id="a_node8"><a xlink:href="classGameManager.html#a53965fe19bf3351541159ce74608844e" target="_top" xlink:title=" ">
<polygon fill="white" stroke="black" points="153,-190.5 153,-209.5 305,-209.5 305,-190.5 153,-190.5"/>
<text text-anchor="middle" x="229" y="-197.5" font-family="Helvetica,sans-Serif" font-size="10.00">GameManager::handleInput</text>
</a>
</g>
</g>
<!-- Node1&#45;&gt;Node8 -->
<g id="edge8" class="edge">
<title>Node1&#45;&gt;Node8</title>
<path fill="none" stroke="midnightblue" d="M117.02,-187.49C125.31,-188.42 133.99,-189.4 142.68,-190.38"/>
<polygon fill="midnightblue" stroke="midnightblue" points="142.54,-193.89 152.87,-191.53 143.32,-186.93 142.54,-193.89"/>
</g>
<!-- Node9 -->
<g id="node9" class="node">
<title>Node9</title>
<g id="a_node9"><a xlink:href="classWindow.html#a4d8c7f316ef9e8a4488d00c430957c16" target="_top" xlink:title="Initializes ncurses window.">
<polygon fill="white" stroke="black" points="190.5,-152.5 190.5,-171.5 267.5,-171.5 267.5,-152.5 190.5,-152.5"/>
<text text-anchor="middle" x="229" y="-159.5" font-family="Helvetica,sans-Serif" font-size="10.00">Window::init</text>
</a>
</g>
</g>
<!-- Node1&#45;&gt;Node9 -->
<g id="edge9" class="edge">
<title>Node1&#45;&gt;Node9</title>
<path fill="none" stroke="midnightblue" d="M117.02,-174.51C137.64,-172.19 160.64,-169.6 180.34,-167.37"/>
<polygon fill="midnightblue" stroke="midnightblue" points="180.76,-170.85 190.3,-166.25 179.98,-163.89 180.76,-170.85"/>
</g>
<!-- Node11 -->
<g id="node11" class="node">
<title>Node11</title>
<g id="a_node11"><a xlink:href="classConfig.html#ab8b24da021cd9ad9ca092749292ca6ed" target="_top" xlink:title="Loads the config from a file.">
<polygon fill="white" stroke="black" points="176.5,-76.5 176.5,-95.5 281.5,-95.5 281.5,-76.5 176.5,-76.5"/>
<text text-anchor="middle" x="229" y="-83.5" font-family="Helvetica,sans-Serif" font-size="10.00">Config::loadConfig</text>
</a>
</g>
</g>
<!-- Node1&#45;&gt;Node11 -->
<g id="edge12" class="edge">
<title>Node1&#45;&gt;Node11</title>
<path fill="none" stroke="midnightblue" d="M69.63,-171.42C85.98,-156.41 119.73,-127.3 153,-110 161.37,-105.65 170.68,-101.89 179.82,-98.74"/>
<polygon fill="midnightblue" stroke="midnightblue" points="181.18,-101.97 189.61,-95.55 179.01,-95.32 181.18,-101.97"/>
</g>
<!-- Node13 -->
<g id="node13" class="node">
<title>Node13</title>
<g id="a_node13"><a xlink:href="classMap.html#a2657d897204aaedba0e8e4f01b2e1efc" target="_top" xlink:title="Loads the map from a file.">
<polygon fill="white" stroke="black" points="372.5,-38.5 372.5,-57.5 458.5,-57.5 458.5,-38.5 372.5,-38.5"/>
<text text-anchor="middle" x="415.5" y="-45.5" font-family="Helvetica,sans-Serif" font-size="10.00">Map::loadMap</text>
</a>
</g>
</g>
<!-- Node1&#45;&gt;Node13 -->
<g id="edge20" class="edge">
<title>Node1&#45;&gt;Node13</title>
<path fill="none" stroke="midnightblue" d="M63.93,-171.44C75.11,-148.58 106.87,-90.91 153,-67 218.87,-32.86 306.87,-34.49 362.12,-40.18"/>
<polygon fill="midnightblue" stroke="midnightblue" points="362.05,-43.7 372.38,-41.32 362.82,-36.74 362.05,-43.7"/>
</g>
<!-- Node19 -->
<g id="node19" class="node">
<title>Node19</title>
<g id="a_node19"><a xlink:href="classWindow.html#aba37c5e32e43d21a46968fd8ada1d327" target="_top" xlink:title="Prints the message to the current window.">
<polygon fill="white" stroke="black" points="541.5,-247.5 541.5,-266.5 668.5,-266.5 668.5,-247.5 541.5,-247.5"/>
<text text-anchor="middle" x="605" y="-254.5" font-family="Helvetica,sans-Serif" font-size="10.00">Window::printMessage</text>
</a>
</g>
</g>
<!-- Node1&#45;&gt;Node19 -->
<g id="edge21" class="edge">
<title>Node1&#45;&gt;Node19</title>
<path fill="none" stroke="midnightblue" d="M67.24,-190.62C81.83,-207.9 115.35,-243.63 153,-257 288.91,-305.27 462.74,-284.07 549.55,-268.39"/>
<polygon fill="midnightblue" stroke="midnightblue" points="550.25,-271.82 559.45,-266.56 548.98,-264.94 550.25,-271.82"/>
</g>
<!-- Node4 -->
<g id="node4" class="node">
<title>Node4</title>
<g id="a_node4"><a xlink:href="classWindow.html#ac9718717327b190f444c9fe3955477a7" target="_top" xlink:title="Creates the main menu window.">
<polygon fill="white" stroke="black" points="526,-171.5 526,-190.5 684,-190.5 684,-171.5 526,-171.5"/>
<text text-anchor="middle" x="605" y="-178.5" font-family="Helvetica,sans-Serif" font-size="10.00">Window::createMenuWindow</text>
</a>
</g>
</g>
<!-- Node3&#45;&gt;Node4 -->
<g id="edge3" class="edge">
<title>Node3&#45;&gt;Node4</title>
<path fill="none" stroke="midnightblue" d="M283.87,-228.49C302.01,-225.36 322.36,-221.94 341,-219 402.52,-209.29 472.29,-199.26 524.51,-191.94"/>
<polygon fill="midnightblue" stroke="midnightblue" points="525.29,-195.36 534.71,-190.51 524.32,-188.43 525.29,-195.36"/>
</g>
<!-- Node6 -->
<g id="node6" class="node">
<title>Node6</title>
<g id="a_node6"><a xlink:href="classWindow.html#abde910f5e4b012211f4cd0425d0bece1" target="_top" xlink:title="Draws the menu options.">
<polygon fill="white" stroke="black" points="341,-228.5 341,-247.5 490,-247.5 490,-228.5 341,-228.5"/>
<text text-anchor="middle" x="415.5" y="-235.5" font-family="Helvetica,sans-Serif" font-size="10.00">Window::drawMenuOptions</text>
</a>
</g>
</g>
<!-- Node3&#45;&gt;Node6 -->
<g id="edge5" class="edge">
<title>Node3&#45;&gt;Node6</title>
<path fill="none" stroke="midnightblue" d="M284.36,-238C298.83,-238 314.81,-238 330.48,-238"/>
<polygon fill="midnightblue" stroke="midnightblue" points="330.7,-241.5 340.7,-238 330.7,-234.5 330.7,-241.5"/>
</g>
<!-- Node5 -->
<g id="node5" class="node">
<title>Node5</title>
<g id="a_node5"><a xlink:href="classWindow.html#a07c2b4d065cbcb397eafc1a27a337bb7" target="_top" xlink:title="Clears the current window.">
<polygon fill="white" stroke="black" points="720,-171.5 720,-190.5 860,-190.5 860,-171.5 720,-171.5"/>
<text text-anchor="middle" x="790" y="-178.5" font-family="Helvetica,sans-Serif" font-size="10.00">Window::clearCurrentWin</text>
</a>
</g>
</g>
<!-- Node4&#45;&gt;Node5 -->
<g id="edge4" class="edge">
<title>Node4&#45;&gt;Node5</title>
<path fill="none" stroke="midnightblue" d="M684.14,-181C692.57,-181 701.15,-181 709.59,-181"/>
<polygon fill="midnightblue" stroke="midnightblue" points="709.79,-184.5 719.79,-181 709.79,-177.5 709.79,-184.5"/>
</g>
<!-- Node7&#45;&gt;Node5 -->
<g id="edge7" class="edge">
<title>Node7&#45;&gt;Node5</title>
<path fill="none" stroke="midnightblue" d="M636.63,-133.54C667.38,-143.12 714.9,-157.92 748.69,-168.45"/>
<polygon fill="midnightblue" stroke="midnightblue" points="747.68,-171.8 758.27,-171.43 749.76,-165.11 747.68,-171.8"/>
</g>
<!-- Node10 -->
<g id="node10" class="node">
<title>Node10</title>
<g id="a_node10"><a xlink:href="classWindow.html#a4fbacbbec283653b5500f881c1f7cd7f" target="_top" xlink:title="Draws the main menu.">
<polygon fill="white" stroke="black" points="359.5,-152.5 359.5,-171.5 471.5,-171.5 471.5,-152.5 359.5,-152.5"/>
<text text-anchor="middle" x="415.5" y="-159.5" font-family="Helvetica,sans-Serif" font-size="10.00">Window::drawMenu</text>
</a>
</g>
</g>
<!-- Node9&#45;&gt;Node10 -->
<g id="edge10" class="edge">
<title>Node9&#45;&gt;Node10</title>
<path fill="none" stroke="midnightblue" d="M267.78,-162C291.15,-162 321.79,-162 349.02,-162"/>
<polygon fill="midnightblue" stroke="midnightblue" points="349.27,-165.5 359.27,-162 349.27,-158.5 349.27,-165.5"/>
</g>
<!-- Node10&#45;&gt;Node4 -->
<g id="edge11" class="edge">
<title>Node10&#45;&gt;Node4</title>
<path fill="none" stroke="midnightblue" d="M471.74,-167.6C485.52,-168.99 500.64,-170.53 515.59,-172.04"/>
<polygon fill="midnightblue" stroke="midnightblue" points="515.58,-175.56 525.88,-173.08 516.29,-168.59 515.58,-175.56"/>
</g>
<!-- Node12 -->
<g id="node12" class="node">
<title>Node12</title>
<g id="a_node12"><a xlink:href="classConfig.html#a62c7c2d485cb30374271dba0eafe63c8" target="_top" xlink:title="Gets any value from the config map.">
<polygon fill="white" stroke="black" points="367.5,-76.5 367.5,-95.5 463.5,-95.5 463.5,-76.5 367.5,-76.5"/>
<text text-anchor="middle" x="415.5" y="-83.5" font-family="Helvetica,sans-Serif" font-size="10.00">Config::getValue</text>
</a>
</g>
</g>
<!-- Node11&#45;&gt;Node12 -->
<g id="edge13" class="edge">
<title>Node11&#45;&gt;Node12</title>
<path fill="none" stroke="midnightblue" d="M281.88,-86C305.39,-86 333.24,-86 357.34,-86"/>
<polygon fill="midnightblue" stroke="midnightblue" points="357.42,-89.5 367.42,-86 357.42,-82.5 357.42,-89.5"/>
</g>
<!-- Node11&#45;&gt;Node13 -->
<g id="edge14" class="edge">
<title>Node11&#45;&gt;Node13</title>
<path fill="none" stroke="midnightblue" d="M276.56,-76.41C302.68,-71.03 335.35,-64.3 362.34,-58.74"/>
<polygon fill="midnightblue" stroke="midnightblue" points="363.29,-62.12 372.37,-56.68 361.87,-55.27 363.29,-62.12"/>
</g>
<!-- Node14 -->
<g id="node14" class="node">
<title>Node14</title>
<g id="a_node14"><a xlink:href="classMap.html#ab1c2595a555457c0a764a0530b57c0f9" target="_top" xlink:title="Helper function for validating map string.">
<polygon fill="white" stroke="black" points="554,-38.5 554,-57.5 656,-57.5 656,-38.5 554,-38.5"/>
<text text-anchor="middle" x="605" y="-45.5" font-family="Helvetica,sans-Serif" font-size="10.00">Map::processMap</text>
</a>
</g>
</g>
<!-- Node13&#45;&gt;Node14 -->
<g id="edge15" class="edge">
<title>Node13&#45;&gt;Node14</title>
<path fill="none" stroke="midnightblue" d="M458.58,-48C483.68,-48 515.96,-48 543.73,-48"/>
<polygon fill="midnightblue" stroke="midnightblue" points="543.74,-51.5 553.74,-48 543.74,-44.5 543.74,-51.5"/>
</g>
<!-- Node15 -->
<g id="node15" class="node">
<title>Node15</title>
<g id="a_node15"><a xlink:href="classMap.html#a41b623a0d503b94bf8412ca06296ae1f" target="_top" xlink:title="Helper function for finding crossroads.">
<polygon fill="white" stroke="black" points="732,-38.5 732,-57.5 848,-57.5 848,-38.5 732,-38.5"/>
<text text-anchor="middle" x="790" y="-45.5" font-family="Helvetica,sans-Serif" font-size="10.00">Map::findCrossroads</text>
</a>
</g>
</g>
<!-- Node14&#45;&gt;Node15 -->
<g id="edge16" class="edge">
<title>Node14&#45;&gt;Node15</title>
<path fill="none" stroke="midnightblue" d="M656.01,-48C676.29,-48 700.02,-48 721.78,-48"/>
<polygon fill="midnightblue" stroke="midnightblue" points="721.94,-51.5 731.94,-48 721.94,-44.5 721.94,-51.5"/>
</g>
<!-- Node17 -->
<g id="node17" class="node">
<title>Node17</title>
<g id="a_node17"><a xlink:href="classMap.html#ae96ad32d3b1600cd41e4a1c3b6a30906" target="_top" xlink:title="Checks if the map is traversable from the given position.">
<polygon fill="white" stroke="black" points="731.5,-0.5 731.5,-19.5 848.5,-19.5 848.5,-0.5 731.5,-0.5"/>
<text text-anchor="middle" x="790" y="-7.5" font-family="Helvetica,sans-Serif" font-size="10.00">Map::traversableBFS</text>
</a>
</g>
</g>
<!-- Node14&#45;&gt;Node17 -->
<g id="edge18" class="edge">
<title>Node14&#45;&gt;Node17</title>
<path fill="none" stroke="midnightblue" d="M652.18,-38.41C676.76,-33.31 707.19,-26.99 733.1,-21.61"/>
<polygon fill="midnightblue" stroke="midnightblue" points="734.07,-24.98 743.15,-19.52 732.65,-18.13 734.07,-24.98"/>
</g>
<!-- Node18 -->
<g id="node18" class="node">
<title>Node18</title>
<g id="a_node18"><a xlink:href="classMap.html#ad35b3432f383ea258d0ed06fe937c3b9" target="_top" xlink:title="Helper function for validating the map borders.">
<polygon fill="white" stroke="black" points="732,-76.5 732,-95.5 848,-95.5 848,-76.5 732,-76.5"/>
<text text-anchor="middle" x="790" y="-83.5" font-family="Helvetica,sans-Serif" font-size="10.00">Map::validateBorder</text>
</a>
</g>
</g>
<!-- Node14&#45;&gt;Node18 -->
<g id="edge19" class="edge">
<title>Node14&#45;&gt;Node18</title>
<path fill="none" stroke="midnightblue" d="M652.18,-57.59C676.76,-62.69 707.19,-69.01 733.1,-74.39"/>
<polygon fill="midnightblue" stroke="midnightblue" points="732.65,-77.87 743.15,-76.48 734.07,-71.02 732.65,-77.87"/>
</g>
<!-- Node16 -->
<g id="node16" class="node">
<title>Node16</title>
<g id="a_node16"><a xlink:href="classMap.html#a7d8219ae1c1ff2f45f7e11c5d03dcdb7" target="_top" xlink:title="Checks if given coordinates are a crossroad.">
<polygon fill="white" stroke="black" points="896,-38.5 896,-57.5 997,-57.5 997,-38.5 896,-38.5"/>
<text text-anchor="middle" x="946.5" y="-45.5" font-family="Helvetica,sans-Serif" font-size="10.00">Map::isCrossroad</text>
</a>
</g>
</g>
<!-- Node15&#45;&gt;Node16 -->
<g id="edge17" class="edge">
<title>Node15&#45;&gt;Node16</title>
<path fill="none" stroke="midnightblue" d="M848.09,-48C860.31,-48 873.26,-48 885.59,-48"/>
<polygon fill="midnightblue" stroke="midnightblue" points="885.76,-51.5 895.76,-48 885.76,-44.5 885.76,-51.5"/>
</g>
<!-- Node19&#45;&gt;Node5 -->
<g id="edge22" class="edge">
<title>Node19&#45;&gt;Node5</title>
<path fill="none" stroke="midnightblue" d="M629.18,-247.37C661.49,-233.95 720.22,-209.57 756.78,-194.38"/>
<polygon fill="midnightblue" stroke="midnightblue" points="758.12,-197.62 766.01,-190.55 755.43,-191.15 758.12,-197.62"/>
</g>
</g>
</svg>
