<?xml version="1.0" encoding="UTF-8" standalone="no"?>
<!DOCTYPE svg PUBLIC "-//W3C//DTD SVG 1.1//EN"
 "http://www.w3.org/Graphics/SVG/1.1/DTD/svg11.dtd">
<!-- Generated by graphviz version 2.43.0 (0)
 -->
<!-- Title: Game::update Pages: 1 -->
<svg width="855pt" height="864pt"
 viewBox="0.00 0.00 855.00 864.00" xmlns="http://www.w3.org/2000/svg" xmlns:xlink="http://www.w3.org/1999/xlink">
<g id="graph0" class="graph" transform="scale(1 1) rotate(0) translate(4 860)">
<title>Game::update</title>
<polygon fill="white" stroke="transparent" points="-4,4 -4,-860 851,-860 851,4 -4,4"/>
<!-- Node1 -->
<g id="node1" class="node">
<title>Node1</title>
<g id="a_node1"><a xlink:title="Updates the game state.">
<polygon fill="#bfbfbf" stroke="black" points="0,-399.5 0,-418.5 86,-418.5 86,-399.5 0,-399.5"/>
<text text-anchor="middle" x="43" y="-406.5" font-family="Helvetica,sans-Serif" font-size="10.00">Game::update</text>
</a>
</g>
</g>
<!-- Node2 -->
<g id="node2" class="node">
<title>Node2</title>
<g id="a_node2"><a xlink:href="classGamePhase.html#a2597fc4aa3837ecc9146f29b18840855" target="_top" xlink:title="Adds an item to the remaining items.">
<polygon fill="white" stroke="black" points="132.5,-760.5 132.5,-779.5 254.5,-779.5 254.5,-760.5 132.5,-760.5"/>
<text text-anchor="middle" x="193.5" y="-767.5" font-family="Helvetica,sans-Serif" font-size="10.00">GamePhase::addItem</text>
</a>
</g>
</g>
<!-- Node1&#45;&gt;Node2 -->
<g id="edge1" class="edge">
<title>Node1&#45;&gt;Node2</title>
<path fill="none" stroke="midnightblue" d="M44.98,-418.72C50.2,-468.58 76.19,-695.33 122,-746 125.49,-749.86 129.62,-753.1 134.11,-755.81"/>
<polygon fill="midnightblue" stroke="midnightblue" points="132.6,-758.98 143.1,-760.42 135.8,-752.75 132.6,-758.98"/>
</g>
<!-- Node3 -->
<g id="node3" class="node">
<title>Node3</title>
<g id="a_node3"><a xlink:href="classLeaderboard.html#a24c17b1bdb86b112887b0ecdd3c61fa3" target="_top" xlink:title="Adds a score to the leaderboard.">
<polygon fill="white" stroke="black" points="315.5,-836.5 315.5,-855.5 443.5,-855.5 443.5,-836.5 315.5,-836.5"/>
<text text-anchor="middle" x="379.5" y="-843.5" font-family="Helvetica,sans-Serif" font-size="10.00">Leaderboard::addScore</text>
</a>
</g>
</g>
<!-- Node1&#45;&gt;Node3 -->
<g id="edge2" class="edge">
<title>Node1&#45;&gt;Node3</title>
<path fill="none" stroke="midnightblue" d="M45.18,-418.74C51.05,-465.83 78.65,-669.28 122,-713 168.3,-759.7 214.45,-708.93 265,-751 293.73,-774.91 272.04,-803.37 301,-827 303.07,-828.69 305.26,-830.23 307.55,-831.63"/>
<polygon fill="midnightblue" stroke="midnightblue" points="306.31,-834.93 316.8,-836.42 309.53,-828.71 306.31,-834.93"/>
</g>
<!-- Node4 -->
<g id="node4" class="node">
<title>Node4</title>
<g id="a_node4"><a xlink:href="classGame.html#a4594c5131996a9b8dc8d475435258461" target="_top" xlink:title="Checks for collisions at given position for given object.">
<polygon fill="white" stroke="black" points="127,-684.5 127,-703.5 260,-703.5 260,-684.5 127,-684.5"/>
<text text-anchor="middle" x="193.5" y="-691.5" font-family="Helvetica,sans-Serif" font-size="10.00">Game::checkCollisionAt</text>
</a>
</g>
</g>
<!-- Node1&#45;&gt;Node4 -->
<g id="edge3" class="edge">
<title>Node1&#45;&gt;Node4</title>
<path fill="none" stroke="midnightblue" d="M43.91,-418.59C44.1,-456.17 49.83,-595.06 122,-670 125.81,-673.96 130.3,-677.26 135.14,-680.02"/>
<polygon fill="midnightblue" stroke="midnightblue" points="133.63,-683.18 144.15,-684.43 136.7,-676.89 133.63,-683.18"/>
</g>
<!-- Node5 -->
<g id="node5" class="node">
<title>Node5</title>
<g id="a_node5"><a xlink:href="classWindow.html#a07c2b4d065cbcb397eafc1a27a337bb7" target="_top" xlink:title="Clears the current window.">
<polygon fill="white" stroke="black" points="707,-608.5 707,-627.5 847,-627.5 847,-608.5 707,-608.5"/>
<text text-anchor="middle" x="777" y="-615.5" font-family="Helvetica,sans-Serif" font-size="10.00">Window::clearCurrentWin</text>
</a>
</g>
</g>
<!-- Node1&#45;&gt;Node5 -->
<g id="edge4" class="edge">
<title>Node1&#45;&gt;Node5</title>
<path fill="none" stroke="midnightblue" d="M60.22,-418.58C75.65,-427.34 99.75,-440.09 122,-448 266.17,-499.26 309.94,-484.41 458,-523 559.2,-549.38 676.75,-586.1 736.59,-605.25"/>
<polygon fill="midnightblue" stroke="midnightblue" points="735.79,-608.67 746.38,-608.39 737.93,-602 735.79,-608.67"/>
</g>
<!-- Node6 -->
<g id="node6" class="node">
<title>Node6</title>
<g id="a_node6"><a xlink:href="classWindow.html#a2a15428125d31769c0c68ddcd7874d1d" target="_top" xlink:title="Displays the leaderboard.">
<polygon fill="white" stroke="black" points="301,-798.5 301,-817.5 458,-817.5 458,-798.5 301,-798.5"/>
<text text-anchor="middle" x="379.5" y="-805.5" font-family="Helvetica,sans-Serif" font-size="10.00">Window::displayLeaderboard</text>
</a>
</g>
</g>
<!-- Node1&#45;&gt;Node6 -->
<g id="edge5" class="edge">
<title>Node1&#45;&gt;Node6</title>
<path fill="none" stroke="midnightblue" d="M44.26,-418.95C45.72,-454.31 55.6,-575.09 122,-637 170.1,-681.85 217.44,-629.58 265,-675 303.43,-711.69 262.22,-752.68 301,-789 302.52,-790.42 304.12,-791.74 305.8,-792.96"/>
<polygon fill="midnightblue" stroke="midnightblue" points="304.35,-796.18 314.72,-798.34 307.96,-790.18 304.35,-796.18"/>
</g>
<!-- Node7 -->
<g id="node7" class="node">
<title>Node7</title>
<g id="a_node7"><a xlink:href="classGame.html#a6d54497ce3a66f6dd45eacfdccc8d0bd" target="_top" xlink:title="Draws the game.">
<polygon fill="white" stroke="black" points="341.5,-342.5 341.5,-361.5 417.5,-361.5 417.5,-342.5 341.5,-342.5"/>
<text text-anchor="middle" x="379.5" y="-349.5" font-family="Helvetica,sans-Serif" font-size="10.00">Game::draw</text>
</a>
</g>
</g>
<!-- Node1&#45;&gt;Node7 -->
<g id="edge7" class="edge">
<title>Node1&#45;&gt;Node7</title>
<path fill="none" stroke="midnightblue" d="M86.03,-401.84C148.57,-391.18 265.77,-371.21 331.23,-360.06"/>
<polygon fill="midnightblue" stroke="midnightblue" points="332,-363.47 341.27,-358.34 330.82,-356.57 332,-363.47"/>
</g>
<!-- Node8 -->
<g id="node8" class="node">
<title>Node8</title>
<g id="a_node8"><a xlink:href="classGamePhase.html#a337c0a04d2c1d159ff9a98e99e11116a" target="_top" xlink:title="Returns the current level.">
<polygon fill="white" stroke="black" points="521,-228.5 521,-247.5 644,-247.5 644,-228.5 521,-228.5"/>
<text text-anchor="middle" x="582.5" y="-235.5" font-family="Helvetica,sans-Serif" font-size="10.00">GamePhase::getLevel</text>
</a>
</g>
</g>
<!-- Node1&#45;&gt;Node8 -->
<g id="edge31" class="edge">
<title>Node1&#45;&gt;Node8</title>
<path fill="none" stroke="midnightblue" d="M47.21,-399.36C55.46,-376.29 79.75,-317.9 122,-292 242.75,-217.99 415.15,-220.31 510.77,-228.93"/>
<polygon fill="midnightblue" stroke="midnightblue" points="510.62,-232.43 520.91,-229.89 511.28,-225.46 510.62,-232.43"/>
</g>
<!-- Node9 -->
<g id="node9" class="node">
<title>Node9</title>
<g id="a_node9"><a xlink:href="classGamePhase.html#a1e01dd9cbefce12ad832102c3a9ed3a2" target="_top" xlink:title="Returns the number of remaining items.">
<polygon fill="white" stroke="black" points="494,-437.5 494,-456.5 671,-456.5 671,-437.5 494,-437.5"/>
<text text-anchor="middle" x="582.5" y="-444.5" font-family="Helvetica,sans-Serif" font-size="10.00">GamePhase::getRemainingItems</text>
</a>
</g>
</g>
<!-- Node1&#45;&gt;Node9 -->
<g id="edge33" class="edge">
<title>Node1&#45;&gt;Node9</title>
<path fill="none" stroke="midnightblue" d="M76.74,-418.5C90.58,-422.12 106.96,-425.88 122,-428 245.83,-445.47 390.14,-448.67 483.52,-448.53"/>
<polygon fill="midnightblue" stroke="midnightblue" points="483.81,-452.03 493.8,-448.5 483.79,-445.03 483.81,-452.03"/>
</g>
<!-- Node10 -->
<g id="node10" class="node">
<title>Node10</title>
<g id="a_node10"><a xlink:href="classWindow.html#aaa279ff498c917ba2535b26e5f396c7c" target="_top" xlink:title="Prints character at given position, default color.">
<polygon fill="white" stroke="black" points="524.5,-304.5 524.5,-323.5 640.5,-323.5 640.5,-304.5 524.5,-304.5"/>
<text text-anchor="middle" x="582.5" y="-311.5" font-family="Helvetica,sans-Serif" font-size="10.00">Window::printCharAt</text>
</a>
</g>
</g>
<!-- Node1&#45;&gt;Node10 -->
<g id="edge36" class="edge">
<title>Node1&#45;&gt;Node10</title>
<path fill="none" stroke="midnightblue" d="M50.38,-399.46C62.23,-382.65 89.4,-348.09 122,-333 254.73,-271.56 432.79,-288.32 523.34,-302.83"/>
<polygon fill="midnightblue" stroke="midnightblue" points="522.98,-306.31 533.42,-304.49 524.12,-299.41 522.98,-306.31"/>
</g>
<!-- Node11 -->
<g id="node11" class="node">
<title>Node11</title>
<g id="a_node11"><a xlink:href="classWindow.html#a7f8803b32163553cf314fa01b703c9a8" target="_top" xlink:title="Prints the game UI.">
<polygon fill="white" stroke="black" points="535.5,-380.5 535.5,-399.5 629.5,-399.5 629.5,-380.5 535.5,-380.5"/>
<text text-anchor="middle" x="582.5" y="-387.5" font-family="Helvetica,sans-Serif" font-size="10.00">Window::printUI</text>
</a>
</g>
</g>
<!-- Node1&#45;&gt;Node11 -->
<g id="edge37" class="edge">
<title>Node1&#45;&gt;Node11</title>
<path fill="none" stroke="midnightblue" d="M86.1,-411.12C161.02,-414.41 322.37,-419.37 458,-409 480.12,-407.31 504.28,-403.94 525.31,-400.5"/>
<polygon fill="midnightblue" stroke="midnightblue" points="526.08,-403.92 535.36,-398.81 524.92,-397.01 526.08,-403.92"/>
</g>
<!-- Node14 -->
<g id="node14" class="node">
<title>Node14</title>
<g id="a_node14"><a xlink:href="classGame.html#aa2d938aa918268060e63980c7efd86f8" target="_top" xlink:title="Ends the game.">
<polygon fill="white" stroke="black" points="158.5,-608.5 158.5,-627.5 228.5,-627.5 228.5,-608.5 158.5,-608.5"/>
<text text-anchor="middle" x="193.5" y="-615.5" font-family="Helvetica,sans-Serif" font-size="10.00">Game::end</text>
</a>
</g>
</g>
<!-- Node1&#45;&gt;Node14 -->
<g id="edge15" class="edge">
<title>Node1&#45;&gt;Node14</title>
<path fill="none" stroke="midnightblue" d="M47.68,-418.64C57.35,-443.22 85.28,-509.53 122,-556 136.11,-573.85 155.79,-590.67 170.78,-602.28"/>
<polygon fill="midnightblue" stroke="midnightblue" points="168.89,-605.24 178.98,-608.47 173.11,-599.65 168.89,-605.24"/>
</g>
<!-- Node19 -->
<g id="node19" class="node">
<title>Node19</title>
<g id="a_node19"><a xlink:href="classLeaderboard.html#a03943d489323ac2134118a5a56910e76" target="_top" xlink:title="Gets the top scores.">
<polygon fill="white" stroke="black" points="305.5,-532.5 305.5,-551.5 453.5,-551.5 453.5,-532.5 305.5,-532.5"/>
<text text-anchor="middle" x="379.5" y="-539.5" font-family="Helvetica,sans-Serif" font-size="10.00">Leaderboard::getTopScores</text>
</a>
</g>
</g>
<!-- Node1&#45;&gt;Node19 -->
<g id="edge34" class="edge">
<title>Node1&#45;&gt;Node19</title>
<path fill="none" stroke="midnightblue" d="M47.64,-418.71C56.49,-440.79 81.44,-494.7 122,-518 174.19,-547.99 242.39,-553.08 295.35,-551.16"/>
<polygon fill="midnightblue" stroke="midnightblue" points="295.56,-554.66 305.39,-550.71 295.24,-547.66 295.56,-554.66"/>
</g>
<!-- Node23 -->
<g id="node23" class="node">
<title>Node23</title>
<g id="a_node23"><a xlink:href="classGamePhase.html#a4e546a7d0a52cbd70612880d61e5f55c" target="_top" xlink:title="Returns the current game phase.">
<polygon fill="white" stroke="black" points="316.5,-190.5 316.5,-209.5 442.5,-209.5 442.5,-190.5 316.5,-190.5"/>
<text text-anchor="middle" x="379.5" y="-197.5" font-family="Helvetica,sans-Serif" font-size="10.00">GamePhase::getPhase</text>
</a>
</g>
</g>
<!-- Node1&#45;&gt;Node23 -->
<g id="edge32" class="edge">
<title>Node1&#45;&gt;Node23</title>
<path fill="none" stroke="midnightblue" d="M43.75,-399.43C43.37,-363.26 47.46,-234.28 122,-181 153.55,-158.45 260.38,-175.25 325.81,-188.38"/>
<polygon fill="midnightblue" stroke="midnightblue" points="325.43,-191.88 335.93,-190.45 326.84,-185.02 325.43,-191.88"/>
</g>
<!-- Node24 -->
<g id="node24" class="node">
<title>Node24</title>
<g id="a_node24"><a xlink:href="classGamePhase.html#a1da768fefb7d680f852746663576c390" target="_top" xlink:title="Increases the level.">
<polygon fill="white" stroke="black" points="129,-190.5 129,-209.5 258,-209.5 258,-190.5 129,-190.5"/>
<text text-anchor="middle" x="193.5" y="-197.5" font-family="Helvetica,sans-Serif" font-size="10.00">GamePhase::nextLevel</text>
</a>
</g>
</g>
<!-- Node1&#45;&gt;Node24 -->
<g id="edge35" class="edge">
<title>Node1&#45;&gt;Node24</title>
<path fill="none" stroke="midnightblue" d="M45.26,-399.38C49.75,-369.07 67.67,-274.6 122,-224 126.36,-219.94 131.44,-216.56 136.84,-213.75"/>
<polygon fill="midnightblue" stroke="midnightblue" points="138.48,-216.85 146.15,-209.54 135.6,-210.47 138.48,-216.85"/>
</g>
<!-- Node25 -->
<g id="node25" class="node">
<title>Node25</title>
<g id="a_node25"><a xlink:href="classGamePhase.html#a6ebc97f0a4514c9d0689009a0e7bd48c" target="_top" xlink:title="Removes an item from the remaining items.">
<polygon fill="white" stroke="black" points="123,-67.5 123,-86.5 264,-86.5 264,-67.5 123,-67.5"/>
<text text-anchor="middle" x="193.5" y="-74.5" font-family="Helvetica,sans-Serif" font-size="10.00">GamePhase::removeItem</text>
</a>
</g>
</g>
<!-- Node1&#45;&gt;Node25 -->
<g id="edge38" class="edge">
<title>Node1&#45;&gt;Node25</title>
<path fill="none" stroke="midnightblue" d="M43.54,-399.42C42.11,-358.46 41.88,-195.99 122,-105 127.2,-99.09 133.82,-94.42 140.9,-90.72"/>
<polygon fill="midnightblue" stroke="midnightblue" points="142.41,-93.88 150.06,-86.54 139.51,-87.51 142.41,-93.88"/>
</g>
<!-- Node26 -->
<g id="node26" class="node">
<title>Node26</title>
<g id="a_node26"><a xlink:href="classGamePhase.html#af152a5e182080af728f34e66b29079c5" target="_top" xlink:title="Sets the current game phase.">
<polygon fill="white" stroke="black" points="317,-0.5 317,-19.5 442,-19.5 442,-0.5 317,-0.5"/>
<text text-anchor="middle" x="379.5" y="-7.5" font-family="Helvetica,sans-Serif" font-size="10.00">GamePhase::setPhase</text>
</a>
</g>
</g>
<!-- Node1&#45;&gt;Node26 -->
<g id="edge44" class="edge">
<title>Node1&#45;&gt;Node26</title>
<path fill="none" stroke="midnightblue" d="M44.73,-399.44C48.84,-348.29 70.73,-107.57 122,-58 170.47,-11.14 249.26,-2.54 306.75,-3.55"/>
<polygon fill="midnightblue" stroke="midnightblue" points="306.77,-7.05 316.86,-3.83 306.96,-0.06 306.77,-7.05"/>
</g>
<!-- Node28 -->
<g id="node28" class="node">
<title>Node28</title>
<g id="a_node28"><a xlink:href="classGame.html#a127294d56e1c963bf1a12d2b95a7a0c3" target="_top" xlink:title="Returns all moving objects to their starting positions.">
<polygon fill="white" stroke="black" points="129.5,-342.5 129.5,-361.5 257.5,-361.5 257.5,-342.5 129.5,-342.5"/>
<text text-anchor="middle" x="193.5" y="-349.5" font-family="Helvetica,sans-Serif" font-size="10.00">Game::returnAllToStart</text>
</a>
</g>
</g>
<!-- Node1&#45;&gt;Node28 -->
<g id="edge41" class="edge">
<title>Node1&#45;&gt;Node28</title>
<path fill="none" stroke="midnightblue" d="M65.35,-399.48C80.93,-392.65 102.63,-383.38 122,-376 132.07,-372.16 143.06,-368.28 153.3,-364.79"/>
<polygon fill="midnightblue" stroke="midnightblue" points="154.47,-368.08 162.83,-361.57 152.24,-361.45 154.47,-368.08"/>
</g>
<!-- Node29 -->
<g id="node29" class="node">
<title>Node29</title>
<g id="a_node29"><a xlink:href="classGame.html#a9f8150e56d9f2c53d172ef0443630de7" target="_top" xlink:title="Updates the game phase timer.">
<polygon fill="white" stroke="black" points="122,-114.5 122,-133.5 265,-133.5 265,-114.5 122,-114.5"/>
<text text-anchor="middle" x="193.5" y="-121.5" font-family="Helvetica,sans-Serif" font-size="10.00">Game::updatePhaseTimer</text>
</a>
</g>
</g>
<!-- Node1&#45;&gt;Node29 -->
<g id="edge45" class="edge">
<title>Node1&#45;&gt;Node29</title>
<path fill="none" stroke="midnightblue" d="M43.91,-399.41C44.1,-361.83 49.83,-222.94 122,-148 125.81,-144.04 130.3,-140.74 135.14,-137.98"/>
<polygon fill="midnightblue" stroke="midnightblue" points="136.7,-141.11 144.15,-133.57 133.63,-134.82 136.7,-141.11"/>
</g>
<!-- Node6&#45;&gt;Node5 -->
<g id="edge6" class="edge">
<title>Node6&#45;&gt;Node5</title>
<path fill="none" stroke="midnightblue" d="M458.26,-807.23C520.01,-803.36 606.41,-790.44 671,-751 717.27,-722.75 751.33,-666.26 766.79,-636.82"/>
<polygon fill="midnightblue" stroke="midnightblue" points="770.05,-638.12 771.47,-627.62 763.81,-634.95 770.05,-638.12"/>
</g>
<!-- Node7&#45;&gt;Node8 -->
<g id="edge8" class="edge">
<title>Node7&#45;&gt;Node8</title>
<path fill="none" stroke="midnightblue" d="M397.29,-342.48C432.47,-322.53 514.08,-276.24 555.86,-252.54"/>
<polygon fill="midnightblue" stroke="midnightblue" points="557.64,-255.55 564.62,-247.58 554.19,-249.47 557.64,-255.55"/>
</g>
<!-- Node7&#45;&gt;Node9 -->
<g id="edge9" class="edge">
<title>Node7&#45;&gt;Node9</title>
<path fill="none" stroke="midnightblue" d="M417.63,-356.65C431,-359.44 445.78,-363.9 458,-371 478.11,-382.69 474.95,-395.65 494,-409 508.6,-419.23 526.4,-427.58 542.12,-433.81"/>
<polygon fill="midnightblue" stroke="midnightblue" points="541,-437.13 551.59,-437.42 543.49,-430.59 541,-437.13"/>
</g>
<!-- Node7&#45;&gt;Node10 -->
<g id="edge10" class="edge">
<title>Node7&#45;&gt;Node10</title>
<path fill="none" stroke="midnightblue" d="M417.84,-344.94C446.75,-339.48 487.39,-331.79 520.94,-325.45"/>
<polygon fill="midnightblue" stroke="midnightblue" points="521.92,-328.83 531.1,-323.53 520.62,-321.95 521.92,-328.83"/>
</g>
<!-- Node7&#45;&gt;Node11 -->
<g id="edge11" class="edge">
<title>Node7&#45;&gt;Node11</title>
<path fill="none" stroke="midnightblue" d="M417.84,-359.06C448.01,-364.76 490.95,-372.88 525.28,-379.37"/>
<polygon fill="midnightblue" stroke="midnightblue" points="524.7,-382.82 535.18,-381.24 526,-375.95 524.7,-382.82"/>
</g>
<!-- Node13 -->
<g id="node13" class="node">
<title>Node13</title>
<g id="a_node13"><a xlink:href="classWindow.html#a3c38bfdaf7cb6ebcfdbcb40916a72bf7" target="_top" xlink:title="Refreshes the current window.">
<polygon fill="white" stroke="black" points="720,-342.5 720,-361.5 834,-361.5 834,-342.5 720,-342.5"/>
<text text-anchor="middle" x="777" y="-349.5" font-family="Helvetica,sans-Serif" font-size="10.00">Window::refreshWin</text>
</a>
</g>
</g>
<!-- Node7&#45;&gt;Node13 -->
<g id="edge14" class="edge">
<title>Node7&#45;&gt;Node13</title>
<path fill="none" stroke="midnightblue" d="M417.71,-352C484.53,-352 625.7,-352 709.51,-352"/>
<polygon fill="midnightblue" stroke="midnightblue" points="709.69,-355.5 719.69,-352 709.69,-348.5 709.69,-355.5"/>
</g>
<!-- Node12 -->
<g id="node12" class="node">
<title>Node12</title>
<g id="a_node12"><a xlink:href="classWindow.html#aad6d9b11314512a7fbc775a3fef9ca1c" target="_top" xlink:title="Helper function for printing lives.">
<polygon fill="white" stroke="black" points="722.5,-380.5 722.5,-399.5 831.5,-399.5 831.5,-380.5 722.5,-380.5"/>
<text text-anchor="middle" x="777" y="-387.5" font-family="Helvetica,sans-Serif" font-size="10.00">Window::printLives</text>
</a>
</g>
</g>
<!-- Node11&#45;&gt;Node12 -->
<g id="edge12" class="edge">
<title>Node11&#45;&gt;Node12</title>
<path fill="none" stroke="midnightblue" d="M629.61,-390C654.36,-390 685.26,-390 712.28,-390"/>
<polygon fill="midnightblue" stroke="midnightblue" points="712.43,-393.5 722.42,-390 712.42,-386.5 712.43,-393.5"/>
</g>
<!-- Node11&#45;&gt;Node13 -->
<g id="edge13" class="edge">
<title>Node11&#45;&gt;Node13</title>
<path fill="none" stroke="midnightblue" d="M629.61,-380.9C655.96,-375.7 689.27,-369.12 717.45,-363.56"/>
<polygon fill="midnightblue" stroke="midnightblue" points="718.45,-366.93 727.58,-361.56 717.09,-360.06 718.45,-366.93"/>
</g>
<!-- Node14&#45;&gt;Node3 -->
<g id="edge16" class="edge">
<title>Node14&#45;&gt;Node3</title>
<path fill="none" stroke="midnightblue" d="M212.07,-627.6C228.3,-637.39 251.84,-654.09 265,-675 301.98,-733.76 252.1,-777.72 301,-827 302.66,-828.68 304.45,-830.22 306.34,-831.63"/>
<polygon fill="midnightblue" stroke="midnightblue" points="304.81,-834.79 315.16,-837.03 308.46,-828.82 304.81,-834.79"/>
</g>
<!-- Node14&#45;&gt;Node5 -->
<g id="edge17" class="edge">
<title>Node14&#45;&gt;Node5</title>
<path fill="none" stroke="midnightblue" d="M228.66,-613.62C307.02,-604.22 505.67,-584.16 671,-599 688.11,-600.54 706.61,-603.45 723.24,-606.55"/>
<polygon fill="midnightblue" stroke="midnightblue" points="722.84,-610.04 733.32,-608.49 724.16,-603.16 722.84,-610.04"/>
</g>
<!-- Node14&#45;&gt;Node6 -->
<g id="edge19" class="edge">
<title>Node14&#45;&gt;Node6</title>
<path fill="none" stroke="midnightblue" d="M228.85,-622.56C241.81,-625.93 255.66,-631.8 265,-642 310.43,-691.61 253.44,-741.43 301,-789 302.43,-790.43 303.95,-791.76 305.55,-793"/>
<polygon fill="midnightblue" stroke="midnightblue" points="303.77,-796.01 314.08,-798.42 307.52,-790.11 303.77,-796.01"/>
</g>
<!-- Node15 -->
<g id="node15" class="node">
<title>Node15</title>
<g id="a_node15"><a xlink:href="classMap.html#a7ded655c7db0e9d72816430b4f2c83a5" target="_top" xlink:title="Clears the map.">
<polygon fill="white" stroke="black" points="538,-684.5 538,-703.5 627,-703.5 627,-684.5 538,-684.5"/>
<text text-anchor="middle" x="582.5" y="-691.5" font-family="Helvetica,sans-Serif" font-size="10.00">Map::clearMap</text>
</a>
</g>
</g>
<!-- Node14&#45;&gt;Node15 -->
<g id="edge18" class="edge">
<title>Node14&#45;&gt;Node15</title>
<path fill="none" stroke="midnightblue" d="M228.74,-626.53C240.69,-630.3 253.88,-635.41 265,-642 283.67,-653.07 281.05,-666.45 301,-675 374.64,-706.55 469.17,-705.45 527.52,-700.6"/>
<polygon fill="midnightblue" stroke="midnightblue" points="527.98,-704.08 537.63,-699.7 527.35,-697.1 527.98,-704.08"/>
</g>
<!-- Node16 -->
<g id="node16" class="node">
<title>Node16</title>
<g id="a_node16"><a xlink:href="classGame.html#a66e2ecb02f046b0c17922a4255720e5a" target="_top" xlink:title="Ends the game on error.">
<polygon fill="white" stroke="black" points="331,-646.5 331,-665.5 428,-665.5 428,-646.5 331,-646.5"/>
<text text-anchor="middle" x="379.5" y="-653.5" font-family="Helvetica,sans-Serif" font-size="10.00">Game::endOnErr</text>
</a>
</g>
</g>
<!-- Node14&#45;&gt;Node16 -->
<g id="edge20" class="edge">
<title>Node14&#45;&gt;Node16</title>
<path fill="none" stroke="midnightblue" d="M228.68,-625.06C254.92,-630.48 291.71,-638.08 322.26,-644.39"/>
<polygon fill="midnightblue" stroke="midnightblue" points="321.86,-647.88 332.36,-646.47 323.28,-641.02 321.86,-647.88"/>
</g>
<!-- Node17 -->
<g id="node17" class="node">
<title>Node17</title>
<g id="a_node17"><a xlink:href="classWindow.html#aba37c5e32e43d21a46968fd8ada1d327" target="_top" xlink:title="Prints the message to the current window.">
<polygon fill="white" stroke="black" points="519,-608.5 519,-627.5 646,-627.5 646,-608.5 519,-608.5"/>
<text text-anchor="middle" x="582.5" y="-615.5" font-family="Helvetica,sans-Serif" font-size="10.00">Window::printMessage</text>
</a>
</g>
</g>
<!-- Node14&#45;&gt;Node17 -->
<g id="edge28" class="edge">
<title>Node14&#45;&gt;Node17</title>
<path fill="none" stroke="midnightblue" d="M228.5,-618C290.83,-618 424.64,-618 508.43,-618"/>
<polygon fill="midnightblue" stroke="midnightblue" points="508.65,-621.5 518.65,-618 508.65,-614.5 508.65,-621.5"/>
</g>
<!-- Node18 -->
<g id="node18" class="node">
<title>Node18</title>
<g id="a_node18"><a xlink:href="classConfig.html#a683f3adeacbde8622e8c46cc2f9dee25" target="_top" xlink:title="Gets the map file path.">
<polygon fill="white" stroke="black" points="334.5,-760.5 334.5,-779.5 424.5,-779.5 424.5,-760.5 334.5,-760.5"/>
<text text-anchor="middle" x="379.5" y="-767.5" font-family="Helvetica,sans-Serif" font-size="10.00">Config::getPath</text>
</a>
</g>
</g>
<!-- Node14&#45;&gt;Node18 -->
<g id="edge25" class="edge">
<title>Node14&#45;&gt;Node18</title>
<path fill="none" stroke="midnightblue" d="M228.81,-623.04C241.61,-626.48 255.35,-632.26 265,-642 300.91,-678.24 263.54,-716.37 301,-751 307.58,-757.08 315.78,-761.3 324.36,-764.21"/>
<polygon fill="midnightblue" stroke="midnightblue" points="323.57,-767.63 334.15,-766.98 325.47,-760.89 323.57,-767.63"/>
</g>
<!-- Node14&#45;&gt;Node19 -->
<g id="edge26" class="edge">
<title>Node14&#45;&gt;Node19</title>
<path fill="none" stroke="midnightblue" d="M212.21,-608.3C233.04,-597.15 268.86,-578.73 301,-566 311.53,-561.83 323.08,-557.91 333.99,-554.5"/>
<polygon fill="midnightblue" stroke="midnightblue" points="335.23,-557.78 343.77,-551.51 333.18,-551.08 335.23,-557.78"/>
</g>
<!-- Node20 -->
<g id="node20" class="node">
<title>Node20</title>
<g id="a_node20"><a xlink:href="classConfig.html#a62c7c2d485cb30374271dba0eafe63c8" target="_top" xlink:title="Gets any value from the config map.">
<polygon fill="white" stroke="black" points="331.5,-380.5 331.5,-399.5 427.5,-399.5 427.5,-380.5 331.5,-380.5"/>
<text text-anchor="middle" x="379.5" y="-387.5" font-family="Helvetica,sans-Serif" font-size="10.00">Config::getValue</text>
</a>
</g>
</g>
<!-- Node14&#45;&gt;Node20 -->
<g id="edge27" class="edge">
<title>Node14&#45;&gt;Node20</title>
<path fill="none" stroke="midnightblue" d="M202.17,-608.49C230.23,-573.73 327.53,-453.16 364.29,-407.61"/>
<polygon fill="midnightblue" stroke="midnightblue" points="367.24,-409.53 370.8,-399.55 361.79,-405.13 367.24,-409.53"/>
</g>
<!-- Node21 -->
<g id="node21" class="node">
<title>Node21</title>
<g id="a_node21"><a xlink:href="classLeaderboard.html#aa277b90da39dbbfe9088a8bffb9ddb59" target="_top" xlink:title="Saves the scores to a file.">
<polygon fill="white" stroke="black" points="310,-722.5 310,-741.5 449,-741.5 449,-722.5 310,-722.5"/>
<text text-anchor="middle" x="379.5" y="-729.5" font-family="Helvetica,sans-Serif" font-size="10.00">Leaderboard::saveScores</text>
</a>
</g>
</g>
<!-- Node14&#45;&gt;Node21 -->
<g id="edge29" class="edge">
<title>Node14&#45;&gt;Node21</title>
<path fill="none" stroke="midnightblue" d="M228.67,-624.18C241.15,-627.75 254.71,-633.34 265,-642 290.56,-663.52 275.14,-686.84 301,-708 306.2,-712.26 312.15,-715.76 318.4,-718.64"/>
<polygon fill="midnightblue" stroke="midnightblue" points="317.12,-721.9 327.7,-722.44 319.76,-715.42 317.12,-721.9"/>
</g>
<!-- Node16&#45;&gt;Node5 -->
<g id="edge21" class="edge">
<title>Node16&#45;&gt;Node5</title>
<path fill="none" stroke="midnightblue" d="M428.21,-654.54C485.89,-652.4 585.84,-647.45 671,-637 686.91,-635.05 704.07,-632.24 719.8,-629.39"/>
<polygon fill="midnightblue" stroke="midnightblue" points="720.72,-632.78 729.91,-627.51 719.44,-625.89 720.72,-632.78"/>
</g>
<!-- Node16&#45;&gt;Node15 -->
<g id="edge22" class="edge">
<title>Node16&#45;&gt;Node15</title>
<path fill="none" stroke="midnightblue" d="M428.13,-665.01C458.07,-670.66 496.75,-677.98 527.78,-683.84"/>
<polygon fill="midnightblue" stroke="midnightblue" points="527.5,-687.35 537.98,-685.77 528.81,-680.48 527.5,-687.35"/>
</g>
<!-- Node16&#45;&gt;Node17 -->
<g id="edge23" class="edge">
<title>Node16&#45;&gt;Node17</title>
<path fill="none" stroke="midnightblue" d="M428.13,-646.99C455.98,-641.73 491.4,-635.03 521.18,-629.4"/>
<polygon fill="midnightblue" stroke="midnightblue" points="521.87,-632.83 531.05,-627.54 520.57,-625.96 521.87,-632.83"/>
</g>
<!-- Node17&#45;&gt;Node5 -->
<g id="edge24" class="edge">
<title>Node17&#45;&gt;Node5</title>
<path fill="none" stroke="midnightblue" d="M646.27,-618C662.26,-618 679.66,-618 696.37,-618"/>
<polygon fill="midnightblue" stroke="midnightblue" points="696.66,-621.5 706.66,-618 696.66,-614.5 696.66,-621.5"/>
</g>
<!-- Node22 -->
<g id="node22" class="node">
<title>Node22</title>
<g id="a_node22"><a xlink:href="classLeaderboard.html#a0535aae610bd8dc1e82e44a996190221" target="_top" xlink:title="Writes a value to binary save file.">
<polygon fill="white" stroke="black" points="528.5,-722.5 528.5,-741.5 636.5,-741.5 636.5,-722.5 528.5,-722.5"/>
<text text-anchor="middle" x="582.5" y="-729.5" font-family="Helvetica,sans-Serif" font-size="10.00">Leaderboard::write</text>
</a>
</g>
</g>
<!-- Node21&#45;&gt;Node22 -->
<g id="edge30" class="edge">
<title>Node21&#45;&gt;Node22</title>
<path fill="none" stroke="midnightblue" d="M449.11,-732C471.5,-732 496.23,-732 518.21,-732"/>
<polygon fill="midnightblue" stroke="midnightblue" points="518.42,-735.5 528.42,-732 518.42,-728.5 518.42,-735.5"/>
</g>
<!-- Node25&#45;&gt;Node26 -->
<g id="edge39" class="edge">
<title>Node25&#45;&gt;Node26</title>
<path fill="none" stroke="midnightblue" d="M212.93,-67.44C233.84,-56.9 269.17,-39.97 301,-29 308.28,-26.49 316.04,-24.18 323.74,-22.09"/>
<polygon fill="midnightblue" stroke="midnightblue" points="324.63,-25.48 333.42,-19.57 322.87,-18.7 324.63,-25.48"/>
</g>
<!-- Node27 -->
<g id="node27" class="node">
<title>Node27</title>
<g id="a_node27"><a xlink:href="classGamePhase.html#a097fcd119e1cce98533b731f7e6ae53d" target="_top" xlink:title="Sets the time of the current phase.">
<polygon fill="white" stroke="black" points="507.5,-38.5 507.5,-57.5 657.5,-57.5 657.5,-38.5 507.5,-38.5"/>
<text text-anchor="middle" x="582.5" y="-45.5" font-family="Helvetica,sans-Serif" font-size="10.00">GamePhase::setPhaseTime</text>
</a>
</g>
</g>
<!-- Node26&#45;&gt;Node27 -->
<g id="edge40" class="edge">
<title>Node26&#45;&gt;Node27</title>
<path fill="none" stroke="midnightblue" d="M430.96,-19.54C458.32,-24.71 492.32,-31.14 521.08,-36.58"/>
<polygon fill="midnightblue" stroke="midnightblue" points="520.54,-40.04 531.02,-38.46 521.84,-33.16 520.54,-40.04"/>
</g>
<!-- Node28&#45;&gt;Node7 -->
<g id="edge42" class="edge">
<title>Node28&#45;&gt;Node7</title>
<path fill="none" stroke="midnightblue" d="M257.56,-352C281.63,-352 308.64,-352 331.02,-352"/>
<polygon fill="midnightblue" stroke="midnightblue" points="331.28,-355.5 341.28,-352 331.28,-348.5 331.28,-355.5"/>
</g>
<!-- Node28&#45;&gt;Node10 -->
<g id="edge43" class="edge">
<title>Node28&#45;&gt;Node10</title>
<path fill="none" stroke="midnightblue" d="M241.52,-342.47C259.99,-339.03 281.43,-335.4 301,-333 373.52,-324.1 457.13,-319.11 514.07,-316.51"/>
<polygon fill="midnightblue" stroke="midnightblue" points="514.55,-319.99 524.38,-316.05 514.24,-312.99 514.55,-319.99"/>
</g>
<!-- Node29&#45;&gt;Node8 -->
<g id="edge47" class="edge">
<title>Node29&#45;&gt;Node8</title>
<path fill="none" stroke="midnightblue" d="M244.72,-133.5C309.67,-146.02 419.05,-167.97 458,-181 492.6,-192.57 530.42,-210.93 554.97,-223.68"/>
<polygon fill="midnightblue" stroke="midnightblue" points="553.52,-226.87 564,-228.43 556.78,-220.68 553.52,-226.87"/>
</g>
<!-- Node29&#45;&gt;Node20 -->
<g id="edge50" class="edge">
<title>Node29&#45;&gt;Node20</title>
<path fill="none" stroke="midnightblue" d="M212.6,-133.65C228.97,-143.37 252.4,-159.93 265,-181 309.12,-254.76 241.86,-308.63 301,-371 306.69,-377 313.95,-381.24 321.72,-384.21"/>
<polygon fill="midnightblue" stroke="midnightblue" points="320.81,-387.59 331.4,-387.23 322.9,-380.91 320.81,-387.59"/>
</g>
<!-- Node29&#45;&gt;Node23 -->
<g id="edge48" class="edge">
<title>Node29&#45;&gt;Node23</title>
<path fill="none" stroke="midnightblue" d="M229.89,-133.5C241.43,-137.26 254.08,-142.11 265,-148 282.84,-157.62 283.03,-166.63 301,-176 309.53,-180.45 319.02,-184.23 328.36,-187.38"/>
<polygon fill="midnightblue" stroke="midnightblue" points="327.39,-190.75 337.98,-190.45 329.51,-184.08 327.39,-190.75"/>
</g>
<!-- Node29&#45;&gt;Node26 -->
<g id="edge51" class="edge">
<title>Node29&#45;&gt;Node26</title>
<path fill="none" stroke="midnightblue" d="M232.36,-114.45C243.8,-110.2 255.76,-104.24 265,-96 290.24,-73.51 274.28,-49.7 301,-29 303.44,-27.11 306.04,-25.4 308.76,-23.87"/>
<polygon fill="midnightblue" stroke="midnightblue" points="310.3,-27.01 317.78,-19.5 307.25,-20.71 310.3,-27.01"/>
</g>
<!-- Node29&#45;&gt;Node27 -->
<g id="edge52" class="edge">
<title>Node29&#45;&gt;Node27</title>
<path fill="none" stroke="midnightblue" d="M243.12,-114.45C314.33,-100.47 446.78,-74.46 523.14,-59.46"/>
<polygon fill="midnightblue" stroke="midnightblue" points="523.94,-62.87 533.08,-57.51 522.59,-56 523.94,-62.87"/>
</g>
<!-- Node30 -->
<g id="node30" class="node">
<title>Node30</title>
<g id="a_node30"><a xlink:href="classGamePhase.html#a08886782a8b53a487023035c20cd725b" target="_top" xlink:title="Adds time to the current phase.">
<polygon fill="white" stroke="black" points="303,-114.5 303,-133.5 456,-133.5 456,-114.5 303,-114.5"/>
<text text-anchor="middle" x="379.5" y="-121.5" font-family="Helvetica,sans-Serif" font-size="10.00">GamePhase::addPhaseTime</text>
</a>
</g>
</g>
<!-- Node29&#45;&gt;Node30 -->
<g id="edge46" class="edge">
<title>Node29&#45;&gt;Node30</title>
<path fill="none" stroke="midnightblue" d="M265.11,-124C274.19,-124 283.57,-124 292.85,-124"/>
<polygon fill="midnightblue" stroke="midnightblue" points="292.88,-127.5 302.88,-124 292.88,-120.5 292.88,-127.5"/>
</g>
<!-- Node31 -->
<g id="node31" class="node">
<title>Node31</title>
<g id="a_node31"><a xlink:href="classGamePhase.html#a03d6ddc222525f8321d4d65c683eedce" target="_top" xlink:title="Returns the time of the current phase.">
<polygon fill="white" stroke="black" points="304,-38.5 304,-57.5 455,-57.5 455,-38.5 304,-38.5"/>
<text text-anchor="middle" x="379.5" y="-45.5" font-family="Helvetica,sans-Serif" font-size="10.00">GamePhase::getPhaseTime</text>
</a>
</g>
</g>
<!-- Node29&#45;&gt;Node31 -->
<g id="edge49" class="edge">
<title>Node29&#45;&gt;Node31</title>
<path fill="none" stroke="midnightblue" d="M222.55,-114.4C235.73,-109.51 251.47,-103.1 265,-96 282.03,-87.07 283.64,-80.26 301,-72 310.16,-67.64 320.29,-63.84 330.13,-60.62"/>
<polygon fill="midnightblue" stroke="midnightblue" points="331.32,-63.91 339.83,-57.6 329.24,-57.23 331.32,-63.91"/>
</g>
</g>
</svg>
