<?xml version="1.0" encoding="UTF-8" standalone="no"?>
<!DOCTYPE svg PUBLIC "-//W3C//DTD SVG 1.1//EN"
 "http://www.w3.org/Graphics/SVG/1.1/DTD/svg11.dtd">
<!-- Generated by graphviz version 10.0.1 (0)
 -->
<!-- Title: GameObject Pages: 1 -->
<svg width="352pt" height="140pt"
 viewBox="0.00 0.00 351.50 140.00" xmlns="http://www.w3.org/2000/svg" xmlns:xlink="http://www.w3.org/1999/xlink">
<g id="graph0" class="graph" transform="scale(1 1) rotate(0) translate(4 136)">
<title>GameObject</title>
<!-- Node1 -->
<g id="Node000001" class="node">
<title>Node1</title>
<g id="a_Node000001"><a xlink:title=" ">
<polygon fill="#999999" stroke="#666666" points="237,-132 166.25,-132 166.25,-112 237,-112 237,-132"/>
<text text-anchor="middle" x="201.62" y="-118.5" font-family="Helvetica,sans-Serif" font-size="10.00">GameObject</text>
</a>
</g>
</g>
<!-- Node2 -->
<g id="Node000002" class="node">
<title>Node2</title>
<g id="a_Node000002"><a xlink:href="classInteractiveObject.html" target="_top" xlink:title=" ">
<polygon fill="white" stroke="#666666" points="187.75,-76 97.5,-76 97.5,-56 187.75,-56 187.75,-76"/>
<text text-anchor="middle" x="142.62" y="-62.5" font-family="Helvetica,sans-Serif" font-size="10.00">InteractiveObject</text>
</a>
</g>
</g>
<!-- Node1&#45;&gt;Node2 -->
<g id="edge1_Node000001_Node000002" class="edge">
<title>Node1&#45;&gt;Node2</title>
<g id="a_edge1_Node000001_Node000002"><a xlink:title=" ">
<path fill="none" stroke="#63b8ff" d="M182.88,-103.85C172.91,-94.72 161.04,-83.86 152.78,-76.3"/>
<polygon fill="#63b8ff" stroke="#63b8ff" points="180.49,-106.4 190.23,-110.57 185.22,-101.24 180.49,-106.4"/>
</a>
</g>
</g>
<!-- Node7 -->
<g id="Node000007" class="node">
<title>Node7</title>
<g id="a_Node000007"><a xlink:href="classMovingObject.html" target="_top" xlink:title=" ">
<polygon fill="white" stroke="#666666" points="298.62,-76 222.62,-76 222.62,-56 298.62,-56 298.62,-76"/>
<text text-anchor="middle" x="260.62" y="-62.5" font-family="Helvetica,sans-Serif" font-size="10.00">MovingObject</text>
</a>
</g>
</g>
<!-- Node1&#45;&gt;Node7 -->
<g id="edge6_Node000001_Node000007" class="edge">
<title>Node1&#45;&gt;Node7</title>
<g id="a_edge6_Node000001_Node000007"><a xlink:title=" ">
<path fill="none" stroke="#63b8ff" d="M220.37,-103.85C230.34,-94.72 242.21,-83.86 250.47,-76.3"/>
<polygon fill="#63b8ff" stroke="#63b8ff" points="218.03,-101.24 213.02,-110.57 222.76,-106.4 218.03,-101.24"/>
</a>
</g>
</g>
<!-- Node3 -->
<g id="Node000003" class="node">
<title>Node3</title>
<g id="a_Node000003"><a xlink:href="classCherry.html" target="_top" xlink:title=" ">
<polygon fill="white" stroke="#666666" points="45.25,-20 0,-20 0,0 45.25,0 45.25,-20"/>
<text text-anchor="middle" x="22.62" y="-6.5" font-family="Helvetica,sans-Serif" font-size="10.00">Cherry</text>
</a>
</g>
</g>
<!-- Node2&#45;&gt;Node3 -->
<g id="edge2_Node000002_Node000003" class="edge">
<title>Node2&#45;&gt;Node3</title>
<g id="a_edge2_Node000002_Node000003"><a xlink:title=" ">
<path fill="none" stroke="#63b8ff" d="M111.24,-50.88C89.95,-41.3 62.38,-28.89 43.69,-20.48"/>
<polygon fill="#63b8ff" stroke="#63b8ff" points="109.79,-54.06 120.34,-54.97 112.66,-47.68 109.79,-54.06"/>
</a>
</g>
</g>
<!-- Node4 -->
<g id="Node000004" class="node">
<title>Node4</title>
<g id="a_Node000004"><a xlink:href="classCoin.html" target="_top" xlink:title=" ">
<polygon fill="white" stroke="#666666" points="99.75,-20 63.5,-20 63.5,0 99.75,0 99.75,-20"/>
<text text-anchor="middle" x="81.62" y="-6.5" font-family="Helvetica,sans-Serif" font-size="10.00">Coin</text>
</a>
</g>
</g>
<!-- Node2&#45;&gt;Node4 -->
<g id="edge3_Node000002_Node000004" class="edge">
<title>Node2&#45;&gt;Node4</title>
<g id="a_edge3_Node000002_Node000004"><a xlink:title=" ">
<path fill="none" stroke="#63b8ff" d="M123.56,-48.13C113.19,-38.94 100.75,-27.93 92.13,-20.3"/>
<polygon fill="#63b8ff" stroke="#63b8ff" points="121.06,-50.58 130.87,-54.59 125.7,-45.34 121.06,-50.58"/>
</a>
</g>
</g>
<!-- Node5 -->
<g id="Node000005" class="node">
<title>Node5</title>
<g id="a_Node000005"><a xlink:href="classTeleport.html" target="_top" xlink:title=" ">
<polygon fill="white" stroke="#666666" points="167.88,-20 117.38,-20 117.38,0 167.88,0 167.88,-20"/>
<text text-anchor="middle" x="142.62" y="-6.5" font-family="Helvetica,sans-Serif" font-size="10.00">Teleport</text>
</a>
</g>
</g>
<!-- Node2&#45;&gt;Node5 -->
<g id="edge4_Node000002_Node000005" class="edge">
<title>Node2&#45;&gt;Node5</title>
<g id="a_edge4_Node000002_Node000005"><a xlink:title=" ">
<path fill="none" stroke="#63b8ff" d="M142.62,-44.13C142.62,-35.9 142.62,-26.85 142.62,-20.3"/>
<polygon fill="#63b8ff" stroke="#63b8ff" points="139.13,-44.08 142.63,-54.08 146.13,-44.08 139.13,-44.08"/>
</a>
</g>
</g>
<!-- Node6 -->
<g id="Node000006" class="node">
<title>Node6</title>
<g id="a_Node000006"><a xlink:href="classWall.html" target="_top" xlink:title=" ">
<polygon fill="white" stroke="#666666" points="221,-20 186.25,-20 186.25,0 221,0 221,-20"/>
<text text-anchor="middle" x="203.62" y="-6.5" font-family="Helvetica,sans-Serif" font-size="10.00">Wall</text>
</a>
</g>
</g>
<!-- Node2&#45;&gt;Node6 -->
<g id="edge5_Node000002_Node000006" class="edge">
<title>Node2&#45;&gt;Node6</title>
<g id="a_edge5_Node000002_Node000006"><a xlink:title=" ">
<path fill="none" stroke="#63b8ff" d="M161.69,-48.13C172.06,-38.94 184.5,-27.93 193.12,-20.3"/>
<polygon fill="#63b8ff" stroke="#63b8ff" points="159.55,-45.34 154.38,-54.59 164.19,-50.58 159.55,-45.34"/>
</a>
</g>
</g>
<!-- Node8 -->
<g id="Node000008" class="node">
<title>Node8</title>
<g id="a_Node000008"><a xlink:href="classGhost.html" target="_top" xlink:title=" ">
<polygon fill="white" stroke="#666666" points="281.75,-20 239.5,-20 239.5,0 281.75,0 281.75,-20"/>
<text text-anchor="middle" x="260.62" y="-6.5" font-family="Helvetica,sans-Serif" font-size="10.00">Ghost</text>
</a>
</g>
</g>
<!-- Node7&#45;&gt;Node8 -->
<g id="edge7_Node000007_Node000008" class="edge">
<title>Node7&#45;&gt;Node8</title>
<g id="a_edge7_Node000007_Node000008"><a xlink:title=" ">
<path fill="none" stroke="#63b8ff" d="M260.62,-44.13C260.62,-35.9 260.62,-26.85 260.62,-20.3"/>
<polygon fill="#63b8ff" stroke="#63b8ff" points="257.13,-44.08 260.63,-54.08 264.13,-44.08 257.13,-44.08"/>
</a>
</g>
</g>
<!-- Node9 -->
<g id="Node000009" class="node">
<title>Node9</title>
<g id="a_Node000009"><a xlink:href="classPlayer.html" target="_top" xlink:title=" ">
<polygon fill="white" stroke="#666666" points="343.5,-20 299.75,-20 299.75,0 343.5,0 343.5,-20"/>
<text text-anchor="middle" x="321.62" y="-6.5" font-family="Helvetica,sans-Serif" font-size="10.00">Player</text>
</a>
</g>
</g>
<!-- Node7&#45;&gt;Node9 -->
<g id="edge8_Node000007_Node000009" class="edge">
<title>Node7&#45;&gt;Node9</title>
<g id="a_edge8_Node000007_Node000009"><a xlink:title=" ">
<path fill="none" stroke="#63b8ff" d="M279.69,-48.13C290.06,-38.94 302.5,-27.93 311.12,-20.3"/>
<polygon fill="#63b8ff" stroke="#63b8ff" points="277.55,-45.34 272.38,-54.59 282.19,-50.58 277.55,-45.34"/>
</a>
</g>
</g>
</g>
</svg>
