<?xml version="1.0" encoding="UTF-8" standalone="no"?>
<!DOCTYPE svg PUBLIC "-//W3C//DTD SVG 1.1//EN"
 "http://www.w3.org/Graphics/SVG/1.1/DTD/svg11.dtd">
<!-- Generated by graphviz version 10.0.1 (0)
 -->
<!-- Title: Game::update Pages: 1 -->
<svg width="789pt" height="864pt"
 viewBox="0.00 0.00 789.25 864.00" xmlns="http://www.w3.org/2000/svg" xmlns:xlink="http://www.w3.org/1999/xlink">
<g id="graph0" class="graph" transform="scale(1 1) rotate(0) translate(4 860)">
<title>Game::update</title>
<!-- Node1 -->
<g id="Node000001" class="node">
<title>Node1</title>
<g id="a_Node000001"><a xlink:title="Updates the game state.">
<polygon fill="#999999" stroke="#666666" points="77.5,-419 0,-419 0,-399 77.5,-399 77.5,-419"/>
<text text-anchor="middle" x="38.75" y="-405.5" font-family="Helvetica,sans-Serif" font-size="10.00">Game::update</text>
</a>
</g>
</g>
<!-- Node2 -->
<g id="Node000002" class="node">
<title>Node2</title>
<g id="a_Node000002"><a xlink:href="classGamePhase.html#a2597fc4aa3837ecc9146f29b18840855" target="_top" xlink:title="Adds an item to the remaining items.">
<polygon fill="white" stroke="#666666" points="234.12,-780 122.88,-780 122.88,-760 234.12,-760 234.12,-780"/>
<text text-anchor="middle" x="178.5" y="-766.5" font-family="Helvetica,sans-Serif" font-size="10.00">GamePhase::addItem</text>
</a>
</g>
</g>
<!-- Node1&#45;&gt;Node2 -->
<g id="edge1_Node000001_Node000002" class="edge">
<title>Node1&#45;&gt;Node2</title>
<g id="a_edge1_Node000001_Node000002"><a xlink:title=" ">
<path fill="none" stroke="#63b8ff" d="M40.69,-419.35C45.53,-470.38 69.1,-694.73 113.5,-746 116.1,-749.01 119.12,-751.64 122.4,-753.94"/>
<polygon fill="#63b8ff" stroke="#63b8ff" points="120.49,-756.88 130.9,-758.84 123.99,-750.81 120.49,-756.88"/>
</a>
</g>
</g>
<!-- Node3 -->
<g id="Node000003" class="node">
<title>Node3</title>
<g id="a_Node000003"><a xlink:href="classLeaderboard.html#a24c17b1bdb86b112887b0ecdd3c61fa3" target="_top" xlink:title="Adds a score to the leaderboard.">
<polygon fill="white" stroke="#666666" points="408.38,-856 291.88,-856 291.88,-836 408.38,-836 408.38,-856"/>
<text text-anchor="middle" x="350.12" y="-842.5" font-family="Helvetica,sans-Serif" font-size="10.00">Leaderboard::addScore</text>
</a>
</g>
</g>
<!-- Node1&#45;&gt;Node3 -->
<g id="edge2_Node000001_Node000003" class="edge">
<title>Node1&#45;&gt;Node3</title>
<g id="a_edge2_Node000001_Node000003"><a xlink:title=" ">
<path fill="none" stroke="#63b8ff" d="M40.88,-419.35C46.31,-467.46 71.31,-668.81 113.5,-713 155.07,-756.54 197.71,-711.93 243.5,-751 271.93,-775.26 250.85,-803 279.5,-827 280.79,-828.08 282.14,-829.1 283.53,-830.06"/>
<polygon fill="#63b8ff" stroke="#63b8ff" points="281.57,-832.97 291.99,-834.87 285.02,-826.89 281.57,-832.97"/>
</a>
</g>
</g>
<!-- Node4 -->
<g id="Node000004" class="node">
<title>Node4</title>
<g id="a_Node000004"><a xlink:href="classGame.html#a4594c5131996a9b8dc8d475435258461" target="_top" xlink:title="Checks for collisions at given position for given object.">
<polygon fill="white" stroke="#666666" points="239.38,-704 117.62,-704 117.62,-684 239.38,-684 239.38,-704"/>
<text text-anchor="middle" x="178.5" y="-690.5" font-family="Helvetica,sans-Serif" font-size="10.00">Game::checkCollisionAt</text>
</a>
</g>
</g>
<!-- Node1&#45;&gt;Node4 -->
<g id="edge3_Node000001_Node000004" class="edge">
<title>Node1&#45;&gt;Node4</title>
<g id="a_edge3_Node000001_Node000004"><a xlink:title=" ">
<path fill="none" stroke="#63b8ff" d="M39.55,-419.29C39.37,-457.68 43.85,-594.28 113.5,-670 116.36,-673.11 119.66,-675.82 123.23,-678.18"/>
<polygon fill="#63b8ff" stroke="#63b8ff" points="121.38,-681.16 131.83,-682.91 124.76,-675.02 121.38,-681.16"/>
</a>
</g>
</g>
<!-- Node5 -->
<g id="Node000005" class="node">
<title>Node5</title>
<g id="a_Node000005"><a xlink:href="classWindow.html#a07c2b4d065cbcb397eafc1a27a337bb7" target="_top" xlink:title="Clears the current window.">
<polygon fill="white" stroke="#666666" points="781.25,-628 653.5,-628 653.5,-608 781.25,-608 781.25,-628"/>
<text text-anchor="middle" x="717.38" y="-614.5" font-family="Helvetica,sans-Serif" font-size="10.00">Window::clearCurrentWin</text>
</a>
</g>
</g>
<!-- Node1&#45;&gt;Node5 -->
<g id="edge4_Node000001_Node000005" class="edge">
<title>Node1&#45;&gt;Node5</title>
<g id="a_edge4_Node000001_Node000005"><a xlink:title=" ">
<path fill="none" stroke="#63b8ff" d="M56.47,-419.38C71.07,-428.06 93.05,-440.24 113.5,-448 244.91,-497.9 285.47,-484.81 420.75,-523 512.68,-548.95 618.97,-584.49 675.71,-603.91"/>
<polygon fill="#63b8ff" stroke="#63b8ff" points="674.35,-607.15 684.94,-607.08 676.62,-600.52 674.35,-607.15"/>
</a>
</g>
</g>
<!-- Node6 -->
<g id="Node000006" class="node">
<title>Node6</title>
<g id="a_Node000006"><a xlink:href="classWindow.html#a0f0537c35d89e120e904ba38a230a6d6" target="_top" xlink:title="Displays the leaderboard.">
<polygon fill="white" stroke="#666666" points="420.75,-818 279.5,-818 279.5,-798 420.75,-798 420.75,-818"/>
<text text-anchor="middle" x="350.12" y="-804.5" font-family="Helvetica,sans-Serif" font-size="10.00">Window::displayLeaderboard</text>
</a>
</g>
</g>
<!-- Node1&#45;&gt;Node6 -->
<g id="edge5_Node000001_Node000006" class="edge">
<title>Node1&#45;&gt;Node6</title>
<g id="a_edge5_Node000001_Node000006"><a xlink:title=" ">
<path fill="none" stroke="#63b8ff" d="M39.87,-419.37C40.86,-455.11 49.06,-574.37 113.5,-637 156.67,-678.95 200.48,-632.9 243.5,-675 281.47,-712.16 241.2,-752.18 279.5,-789 280.4,-789.87 281.34,-790.7 282.31,-791.49"/>
<polygon fill="#63b8ff" stroke="#63b8ff" points="280.23,-794.31 290.52,-796.84 284.05,-788.45 280.23,-794.31"/>
</a>
</g>
</g>
<!-- Node7 -->
<g id="Node000007" class="node">
<title>Node7</title>
<g id="a_Node000007"><a xlink:href="classGame.html#a6d54497ce3a66f6dd45eacfdccc8d0bd" target="_top" xlink:title="Draws the game.">
<polygon fill="white" stroke="#666666" points="384.75,-362 315.5,-362 315.5,-342 384.75,-342 384.75,-362"/>
<text text-anchor="middle" x="350.12" y="-348.5" font-family="Helvetica,sans-Serif" font-size="10.00">Game::draw</text>
</a>
</g>
</g>
<!-- Node1&#45;&gt;Node7 -->
<g id="edge7_Node000001_Node000007" class="edge">
<title>Node1&#45;&gt;Node7</title>
<g id="a_edge7_Node000001_Node000007"><a xlink:title=" ">
<path fill="none" stroke="#63b8ff" d="M78,-401.95C135.25,-391.4 243.03,-371.55 304.04,-360.31"/>
<polygon fill="#63b8ff" stroke="#63b8ff" points="304.54,-363.77 313.74,-358.52 303.27,-356.89 304.54,-363.77"/>
</a>
</g>
</g>
<!-- Node8 -->
<g id="Node000008" class="node">
<title>Node8</title>
<g id="a_Node000008"><a xlink:href="classGamePhase.html#a337c0a04d2c1d159ff9a98e99e11116a" target="_top" xlink:title="Returns the current level.">
<polygon fill="white" stroke="#666666" points="593.5,-248 480.75,-248 480.75,-228 593.5,-228 593.5,-248"/>
<text text-anchor="middle" x="537.12" y="-234.5" font-family="Helvetica,sans-Serif" font-size="10.00">GamePhase::getLevel</text>
</a>
</g>
</g>
<!-- Node1&#45;&gt;Node8 -->
<g id="edge31_Node000001_Node000008" class="edge">
<title>Node1&#45;&gt;Node8</title>
<g id="a_edge31_Node000001_Node000008"><a xlink:title=" ">
<path fill="none" stroke="#63b8ff" d="M43.05,-398.55C50.97,-375.32 73.47,-319.44 113.5,-294 223.01,-224.4 380.74,-223.86 469.28,-230.44"/>
<polygon fill="#63b8ff" stroke="#63b8ff" points="468.76,-233.91 479,-231.22 469.32,-226.93 468.76,-233.91"/>
</a>
</g>
</g>
<!-- Node9 -->
<g id="Node000009" class="node">
<title>Node9</title>
<g id="a_Node000009"><a xlink:href="classGamePhase.html#a1e01dd9cbefce12ad832102c3a9ed3a2" target="_top" xlink:title="Returns the number of remaining items.">
<polygon fill="white" stroke="#666666" points="617.5,-457 456.75,-457 456.75,-437 617.5,-437 617.5,-457"/>
<text text-anchor="middle" x="537.12" y="-443.5" font-family="Helvetica,sans-Serif" font-size="10.00">GamePhase::getRemainingItems</text>
</a>
</g>
</g>
<!-- Node1&#45;&gt;Node9 -->
<g id="edge33_Node000001_Node000009" class="edge">
<title>Node1&#45;&gt;Node9</title>
<g id="a_edge33_Node000001_Node000009"><a xlink:title=" ">
<path fill="none" stroke="#63b8ff" d="M74.34,-419.49C86.59,-422.78 100.55,-426.06 113.5,-428 226.99,-444.98 359.36,-448.31 445.3,-448.33"/>
<polygon fill="#63b8ff" stroke="#63b8ff" points="445.08,-451.83 455.08,-448.31 445.07,-444.83 445.08,-451.83"/>
</a>
</g>
</g>
<!-- Node10 -->
<g id="Node000010" class="node">
<title>Node10</title>
<g id="a_Node000010"><a xlink:href="classWindow.html#aaa279ff498c917ba2535b26e5f396c7c" target="_top" xlink:title="Prints character at given position, default color.">
<polygon fill="white" stroke="#666666" points="590.5,-324 483.75,-324 483.75,-304 590.5,-304 590.5,-324"/>
<text text-anchor="middle" x="537.12" y="-310.5" font-family="Helvetica,sans-Serif" font-size="10.00">Window::printCharAt</text>
</a>
</g>
</g>
<!-- Node1&#45;&gt;Node10 -->
<g id="edge36_Node000001_Node000010" class="edge">
<title>Node1&#45;&gt;Node10</title>
<g id="a_edge36_Node000001_Node000010"><a xlink:title=" ">
<path fill="none" stroke="#63b8ff" d="M46.19,-398.68C57.47,-381.63 82.56,-347.99 113.5,-333 229.89,-276.6 386.13,-288.8 472.32,-301.91"/>
<polygon fill="#63b8ff" stroke="#63b8ff" points="471.58,-305.34 482,-303.44 472.67,-298.42 471.58,-305.34"/>
</a>
</g>
</g>
<!-- Node11 -->
<g id="Node000011" class="node">
<title>Node11</title>
<g id="a_Node000011"><a xlink:href="classWindow.html#a7f8803b32163553cf314fa01b703c9a8" target="_top" xlink:title="Prints the game UI.">
<polygon fill="white" stroke="#666666" points="580.38,-400 493.88,-400 493.88,-380 580.38,-380 580.38,-400"/>
<text text-anchor="middle" x="537.12" y="-386.5" font-family="Helvetica,sans-Serif" font-size="10.00">Window::printUI</text>
</a>
</g>
</g>
<!-- Node1&#45;&gt;Node11 -->
<g id="edge37_Node000001_Node000011" class="edge">
<title>Node1&#45;&gt;Node11</title>
<g id="a_edge37_Node000001_Node000011"><a xlink:title=" ">
<path fill="none" stroke="#63b8ff" d="M77.96,-411.06C146.69,-414.3 295.66,-419.23 420.75,-409 441.05,-407.34 463.15,-404.06 482.53,-400.69"/>
<polygon fill="#63b8ff" stroke="#63b8ff" points="482.88,-404.19 492.1,-398.98 481.64,-397.3 482.88,-404.19"/>
</a>
</g>
</g>
<!-- Node14 -->
<g id="Node000014" class="node">
<title>Node14</title>
<g id="a_Node000014"><a xlink:href="classGame.html#aa2d938aa918268060e63980c7efd86f8" target="_top" xlink:title="Ends the game.">
<polygon fill="white" stroke="#666666" points="210.5,-628 146.5,-628 146.5,-608 210.5,-608 210.5,-628"/>
<text text-anchor="middle" x="178.5" y="-614.5" font-family="Helvetica,sans-Serif" font-size="10.00">Game::end</text>
</a>
</g>
</g>
<!-- Node1&#45;&gt;Node14 -->
<g id="edge15_Node000001_Node000014" class="edge">
<title>Node1&#45;&gt;Node14</title>
<g id="a_edge15_Node000001_Node000014"><a xlink:title=" ">
<path fill="none" stroke="#63b8ff" d="M43.51,-419.28C52.93,-444.22 79.21,-509.27 113.5,-556 125.7,-572.62 142.54,-588.73 155.88,-600.37"/>
<polygon fill="#63b8ff" stroke="#63b8ff" points="153.42,-602.87 163.31,-606.68 157.95,-597.54 153.42,-602.87"/>
</a>
</g>
</g>
<!-- Node19 -->
<g id="Node000019" class="node">
<title>Node19</title>
<g id="a_Node000019"><a xlink:href="classLeaderboard.html#a03943d489323ac2134118a5a56910e76" target="_top" xlink:title="Gets the top scores.">
<polygon fill="white" stroke="#666666" points="417.75,-552 282.5,-552 282.5,-532 417.75,-532 417.75,-552"/>
<text text-anchor="middle" x="350.12" y="-538.5" font-family="Helvetica,sans-Serif" font-size="10.00">Leaderboard::getTopScores</text>
</a>
</g>
</g>
<!-- Node1&#45;&gt;Node19 -->
<g id="edge34_Node000001_Node000019" class="edge">
<title>Node1&#45;&gt;Node19</title>
<g id="a_edge34_Node000001_Node000019"><a xlink:title=" ">
<path fill="none" stroke="#63b8ff" d="M43.29,-419.34C51.56,-441.75 74.47,-494.67 113.5,-518 160.47,-546.07 222.28,-551.45 270.81,-550.13"/>
<polygon fill="#63b8ff" stroke="#63b8ff" points="270.84,-553.63 280.7,-549.75 270.57,-546.64 270.84,-553.63"/>
</a>
</g>
</g>
<!-- Node23 -->
<g id="Node000023" class="node">
<title>Node23</title>
<g id="a_Node000023"><a xlink:href="classGamePhase.html#a4e546a7d0a52cbd70612880d61e5f55c" target="_top" xlink:title="Returns the current game phase.">
<polygon fill="white" stroke="#666666" points="408.75,-210 291.5,-210 291.5,-190 408.75,-190 408.75,-210"/>
<text text-anchor="middle" x="350.12" y="-196.5" font-family="Helvetica,sans-Serif" font-size="10.00">GamePhase::getPhase</text>
</a>
</g>
</g>
<!-- Node1&#45;&gt;Node23 -->
<g id="edge32_Node000001_Node000023" class="edge">
<title>Node1&#45;&gt;Node23</title>
<g id="a_edge32_Node000001_Node000023"><a xlink:title=" ">
<path fill="none" stroke="#63b8ff" d="M39.29,-398.69C38.26,-361.59 40.33,-234.23 113.5,-181 141.11,-160.91 232.37,-174.96 292.88,-187.26"/>
<polygon fill="#63b8ff" stroke="#63b8ff" points="291.81,-190.62 302.31,-189.22 293.23,-183.76 291.81,-190.62"/>
</a>
</g>
</g>
<!-- Node24 -->
<g id="Node000024" class="node">
<title>Node24</title>
<g id="a_Node000024"><a xlink:href="classGamePhase.html#a1da768fefb7d680f852746663576c390" target="_top" xlink:title="Increases the level.">
<polygon fill="white" stroke="#666666" points="237.5,-210 119.5,-210 119.5,-190 237.5,-190 237.5,-210"/>
<text text-anchor="middle" x="178.5" y="-196.5" font-family="Helvetica,sans-Serif" font-size="10.00">GamePhase::nextLevel</text>
</a>
</g>
</g>
<!-- Node1&#45;&gt;Node24 -->
<g id="edge35_Node000001_Node000024" class="edge">
<title>Node1&#45;&gt;Node24</title>
<g id="a_edge35_Node000001_Node000024"><a xlink:title=" ">
<path fill="none" stroke="#63b8ff" d="M40.95,-398.59C45.08,-367.63 61.38,-275.05 113.5,-224 116.75,-220.82 120.45,-218.06 124.41,-215.65"/>
<polygon fill="#63b8ff" stroke="#63b8ff" points="126,-218.77 133.29,-211.08 122.8,-212.55 126,-218.77"/>
</a>
</g>
</g>
<!-- Node25 -->
<g id="Node000025" class="node">
<title>Node25</title>
<g id="a_Node000025"><a xlink:href="classGamePhase.html#a6ebc97f0a4514c9d0689009a0e7bd48c" target="_top" xlink:title="Removes an item from the remaining items.">
<polygon fill="white" stroke="#666666" points="242.38,-87 114.62,-87 114.62,-67 242.38,-67 242.38,-87"/>
<text text-anchor="middle" x="178.5" y="-73.5" font-family="Helvetica,sans-Serif" font-size="10.00">GamePhase::removeItem</text>
</a>
</g>
</g>
<!-- Node1&#45;&gt;Node25 -->
<g id="edge38_Node000001_Node000025" class="edge">
<title>Node1&#45;&gt;Node25</title>
<g id="a_edge38_Node000001_Node000025"><a xlink:title=" ">
<path fill="none" stroke="#63b8ff" d="M41,-398.77C47.02,-351.17 74.22,-151.8 113.5,-105 117.7,-100 122.95,-95.87 128.65,-92.45"/>
<polygon fill="#63b8ff" stroke="#63b8ff" points="129.89,-95.75 137.17,-88.06 126.68,-89.53 129.89,-95.75"/>
</a>
</g>
</g>
<!-- Node26 -->
<g id="Node000026" class="node">
<title>Node26</title>
<g id="a_Node000026"><a xlink:href="classGamePhase.html#af152a5e182080af728f34e66b29079c5" target="_top" xlink:title="Sets the current game phase.">
<polygon fill="white" stroke="#666666" points="408.75,-20 291.5,-20 291.5,0 408.75,0 408.75,-20"/>
<text text-anchor="middle" x="350.12" y="-6.5" font-family="Helvetica,sans-Serif" font-size="10.00">GamePhase::setPhase</text>
</a>
</g>
</g>
<!-- Node1&#45;&gt;Node26 -->
<g id="edge44_Node000001_Node000026" class="edge">
<title>Node1&#45;&gt;Node26</title>
<g id="a_edge44_Node000001_Node000026"><a xlink:title=" ">
<path fill="none" stroke="#63b8ff" d="M40.42,-398.77C44.07,-346.32 63.26,-107.93 113.5,-58 156.67,-15.09 227.1,-5.49 279.73,-5.17"/>
<polygon fill="#63b8ff" stroke="#63b8ff" points="279.48,-8.67 289.5,-5.23 279.52,-1.67 279.48,-8.67"/>
</a>
</g>
</g>
<!-- Node28 -->
<g id="Node000028" class="node">
<title>Node28</title>
<g id="a_Node000028"><a xlink:href="classGame.html#a127294d56e1c963bf1a12d2b95a7a0c3" target="_top" xlink:title="Returns all moving objects to their starting positions.">
<polygon fill="white" stroke="#666666" points="236.38,-362 120.62,-362 120.62,-342 236.38,-342 236.38,-362"/>
<text text-anchor="middle" x="178.5" y="-348.5" font-family="Helvetica,sans-Serif" font-size="10.00">Game::returnAllToStart</text>
</a>
</g>
</g>
<!-- Node1&#45;&gt;Node28 -->
<g id="edge41_Node000001_Node000028" class="edge">
<title>Node1&#45;&gt;Node28</title>
<g id="a_edge41_Node000001_Node000028"><a xlink:title=" ">
<path fill="none" stroke="#63b8ff" d="M62.19,-398.53C76.72,-391.85 96.11,-383.14 113.5,-376 121.27,-372.81 129.64,-369.54 137.68,-366.49"/>
<polygon fill="#63b8ff" stroke="#63b8ff" points="138.81,-369.81 146.94,-363.03 136.35,-363.26 138.81,-369.81"/>
</a>
</g>
</g>
<!-- Node29 -->
<g id="Node000029" class="node">
<title>Node29</title>
<g id="a_Node000029"><a xlink:href="classGame.html#a9f8150e56d9f2c53d172ef0443630de7" target="_top" xlink:title="Updates the game phase timer.">
<polygon fill="white" stroke="#666666" points="243.5,-134 113.5,-134 113.5,-114 243.5,-114 243.5,-134"/>
<text text-anchor="middle" x="178.5" y="-120.5" font-family="Helvetica,sans-Serif" font-size="10.00">Game::updatePhaseTimer</text>
</a>
</g>
</g>
<!-- Node1&#45;&gt;Node29 -->
<g id="edge45_Node000001_Node000029" class="edge">
<title>Node1&#45;&gt;Node29</title>
<g id="a_edge45_Node000001_Node000029"><a xlink:title=" ">
<path fill="none" stroke="#63b8ff" d="M39.55,-398.71C39.37,-360.32 43.85,-223.72 113.5,-148 116.36,-144.89 119.66,-142.18 123.23,-139.82"/>
<polygon fill="#63b8ff" stroke="#63b8ff" points="124.76,-142.98 131.83,-135.09 121.38,-136.84 124.76,-142.98"/>
</a>
</g>
</g>
<!-- Node6&#45;&gt;Node5 -->
<g id="edge6_Node000006_Node000005" class="edge">
<title>Node6&#45;&gt;Node5</title>
<g id="a_edge6_Node000006_Node000005"><a xlink:title=" ">
<path fill="none" stroke="#63b8ff" d="M421.05,-806.39C477.98,-802.11 558.32,-789.03 617.5,-751 661.28,-722.86 692.56,-668.08 707.14,-638.36"/>
<polygon fill="#63b8ff" stroke="#63b8ff" points="710.14,-640.21 711.26,-629.67 703.81,-637.21 710.14,-640.21"/>
</a>
</g>
</g>
<!-- Node7&#45;&gt;Node8 -->
<g id="edge8_Node000007_Node000008" class="edge">
<title>Node7&#45;&gt;Node8</title>
<g id="a_edge8_Node000007_Node000008"><a xlink:title=" ">
<path fill="none" stroke="#63b8ff" d="M367.87,-341.68C400.12,-321.81 471.08,-278.08 509.74,-254.26"/>
<polygon fill="#63b8ff" stroke="#63b8ff" points="511.32,-257.4 518,-249.17 507.65,-251.44 511.32,-257.4"/>
</a>
</g>
</g>
<!-- Node7&#45;&gt;Node9 -->
<g id="edge9_Node000007_Node000009" class="edge">
<title>Node7&#45;&gt;Node9</title>
<g id="a_edge9_Node000007_Node000009"><a xlink:title=" ">
<path fill="none" stroke="#63b8ff" d="M385.2,-357.4C397.02,-360.26 410,-364.56 420.75,-371 440.71,-382.95 437.94,-395.3 456.75,-409 469.22,-418.08 484.21,-425.92 497.78,-432.07"/>
<polygon fill="#63b8ff" stroke="#63b8ff" points="496.34,-435.26 506.91,-436.03 499.13,-428.84 496.34,-435.26"/>
</a>
</g>
</g>
<!-- Node7&#45;&gt;Node10 -->
<g id="edge10_Node000007_Node000010" class="edge">
<title>Node7&#45;&gt;Node10</title>
<g id="a_edge10_Node000007_Node000010"><a xlink:title=" ">
<path fill="none" stroke="#63b8ff" d="M385.06,-345.03C409.94,-339.92 444.42,-332.84 474.17,-326.73"/>
<polygon fill="#63b8ff" stroke="#63b8ff" points="474.73,-330.18 483.82,-324.74 473.32,-323.33 474.73,-330.18"/>
</a>
</g>
</g>
<!-- Node7&#45;&gt;Node11 -->
<g id="edge11_Node000007_Node000011" class="edge">
<title>Node7&#45;&gt;Node11</title>
<g id="a_edge11_Node000007_Node000011"><a xlink:title=" ">
<path fill="none" stroke="#63b8ff" d="M385.06,-358.97C412.28,-364.56 450.99,-372.51 482.42,-378.97"/>
<polygon fill="#63b8ff" stroke="#63b8ff" points="481.65,-382.38 492.15,-380.97 483.05,-375.53 481.65,-382.38"/>
</a>
</g>
</g>
<!-- Node13 -->
<g id="Node000013" class="node">
<title>Node13</title>
<g id="a_Node000013"><a xlink:href="classWindow.html#a3c38bfdaf7cb6ebcfdbcb40916a72bf7" target="_top" xlink:title="Refreshes the current window.">
<polygon fill="white" stroke="#666666" points="769.62,-362 665.12,-362 665.12,-342 769.62,-342 769.62,-362"/>
<text text-anchor="middle" x="717.38" y="-348.5" font-family="Helvetica,sans-Serif" font-size="10.00">Window::refreshWin</text>
</a>
</g>
</g>
<!-- Node7&#45;&gt;Node13 -->
<g id="edge14_Node000007_Node000013" class="edge">
<title>Node7&#45;&gt;Node13</title>
<g id="a_edge14_Node000007_Node000013"><a xlink:title=" ">
<path fill="none" stroke="#63b8ff" d="M385.16,-352C446.43,-352 576.14,-352 653.81,-352"/>
<polygon fill="#63b8ff" stroke="#63b8ff" points="653.37,-355.5 663.37,-352 653.37,-348.5 653.37,-355.5"/>
</a>
</g>
</g>
<!-- Node12 -->
<g id="Node000012" class="node">
<title>Node12</title>
<g id="a_Node000012"><a xlink:href="classWindow.html#aad6d9b11314512a7fbc775a3fef9ca1c" target="_top" xlink:title="Helper function for printing lives.">
<polygon fill="white" stroke="#666666" points="767,-400 667.75,-400 667.75,-380 767,-380 767,-400"/>
<text text-anchor="middle" x="717.38" y="-386.5" font-family="Helvetica,sans-Serif" font-size="10.00">Window::printLives</text>
</a>
</g>
</g>
<!-- Node11&#45;&gt;Node12 -->
<g id="edge12_Node000011_Node000012" class="edge">
<title>Node11&#45;&gt;Node12</title>
<g id="a_edge12_Node000011_Node000012"><a xlink:title=" ">
<path fill="none" stroke="#63b8ff" d="M580.82,-390C603.32,-390 631.29,-390 655.97,-390"/>
<polygon fill="#63b8ff" stroke="#63b8ff" points="655.9,-393.5 665.9,-390 655.9,-386.5 655.9,-393.5"/>
</a>
</g>
</g>
<!-- Node11&#45;&gt;Node13 -->
<g id="edge13_Node000011_Node000013" class="edge">
<title>Node11&#45;&gt;Node13</title>
<g id="a_edge13_Node000011_Node000013"><a xlink:title=" ">
<path fill="none" stroke="#63b8ff" d="M580.82,-380.9C603.42,-376.08 631.54,-370.09 656.3,-364.81"/>
<polygon fill="#63b8ff" stroke="#63b8ff" points="656.88,-368.26 665.93,-362.75 655.42,-361.42 656.88,-368.26"/>
</a>
</g>
</g>
<!-- Node14&#45;&gt;Node3 -->
<g id="edge16_Node000014_Node000003" class="edge">
<title>Node14&#45;&gt;Node3</title>
<g id="a_edge16_Node000014_Node000003"><a xlink:title=" ">
<path fill="none" stroke="#63b8ff" d="M196.01,-628.37C210.72,-638.48 231.68,-655.19 243.5,-675 279.07,-734.62 231.25,-777.09 279.5,-827 280.37,-827.9 281.28,-828.76 282.22,-829.58"/>
<polygon fill="#63b8ff" stroke="#63b8ff" points="280.03,-832.32 290.26,-835.09 283.99,-826.55 280.03,-832.32"/>
</a>
</g>
</g>
<!-- Node14&#45;&gt;Node5 -->
<g id="edge17_Node000014_Node000005" class="edge">
<title>Node14&#45;&gt;Node5</title>
<g id="a_edge17_Node000014_Node000005"><a xlink:title=" ">
<path fill="none" stroke="#63b8ff" d="M210.91,-613.67C282.96,-604.38 465.58,-584.54 617.5,-599 631.64,-600.35 646.77,-602.75 660.83,-605.41"/>
<polygon fill="#63b8ff" stroke="#63b8ff" points="659.87,-608.79 670.36,-607.29 661.22,-601.92 659.87,-608.79"/>
</a>
</g>
</g>
<!-- Node14&#45;&gt;Node6 -->
<g id="edge19_Node000014_Node000006" class="edge">
<title>Node14&#45;&gt;Node6</title>
<g id="a_edge19_Node000014_Node000006"><a xlink:title=" ">
<path fill="none" stroke="#63b8ff" d="M210.74,-623.28C222.51,-626.75 235.07,-632.51 243.5,-642 288.16,-692.3 232.57,-740.82 279.5,-789 280.23,-789.75 280.98,-790.46 281.76,-791.15"/>
<polygon fill="#63b8ff" stroke="#63b8ff" points="279.44,-793.8 289.64,-796.68 283.46,-788.07 279.44,-793.8"/>
</a>
</g>
</g>
<!-- Node15 -->
<g id="Node000015" class="node">
<title>Node15</title>
<g id="a_Node000015"><a xlink:href="classMap.html#a7ded655c7db0e9d72816430b4f2c83a5" target="_top" xlink:title="Clears the map.">
<polygon fill="white" stroke="#666666" points="577.38,-704 496.88,-704 496.88,-684 577.38,-684 577.38,-704"/>
<text text-anchor="middle" x="537.12" y="-690.5" font-family="Helvetica,sans-Serif" font-size="10.00">Map::clearMap</text>
</a>
</g>
</g>
<!-- Node14&#45;&gt;Node15 -->
<g id="edge18_Node000014_Node000015" class="edge">
<title>Node14&#45;&gt;Node15</title>
<g id="a_edge18_Node000014_Node000015"><a xlink:title=" ">
<path fill="none" stroke="#63b8ff" d="M210.89,-627.08C221.65,-630.87 233.49,-635.86 243.5,-642 262,-653.35 259.58,-666.39 279.5,-675 346.17,-703.81 431.65,-703.69 485.17,-699.77"/>
<polygon fill="#63b8ff" stroke="#63b8ff" points="485.22,-703.28 494.91,-698.98 484.66,-696.3 485.22,-703.28"/>
</a>
</g>
</g>
<!-- Node16 -->
<g id="Node000016" class="node">
<title>Node16</title>
<g id="a_Node000016"><a xlink:href="classGame.html#a66e2ecb02f046b0c17922a4255720e5a" target="_top" xlink:title="Ends the game on error.">
<polygon fill="white" stroke="#666666" points="394.88,-666 305.38,-666 305.38,-646 394.88,-646 394.88,-666"/>
<text text-anchor="middle" x="350.12" y="-652.5" font-family="Helvetica,sans-Serif" font-size="10.00">Game::endOnErr</text>
</a>
</g>
</g>
<!-- Node14&#45;&gt;Node16 -->
<g id="edge20_Node000014_Node000016" class="edge">
<title>Node14&#45;&gt;Node16</title>
<g id="a_edge20_Node000014_Node000016"><a xlink:title=" ">
<path fill="none" stroke="#63b8ff" d="M210.61,-624.97C233.9,-630.19 266.36,-637.46 294,-643.65"/>
<polygon fill="#63b8ff" stroke="#63b8ff" points="293.11,-647.04 303.64,-645.81 294.64,-640.21 293.11,-647.04"/>
</a>
</g>
</g>
<!-- Node17 -->
<g id="Node000017" class="node">
<title>Node17</title>
<g id="a_Node000017"><a xlink:href="classWindow.html#aba37c5e32e43d21a46968fd8ada1d327" target="_top" xlink:title="Prints the message to the current window.">
<polygon fill="white" stroke="#666666" points="595,-628 479.25,-628 479.25,-608 595,-608 595,-628"/>
<text text-anchor="middle" x="537.12" y="-614.5" font-family="Helvetica,sans-Serif" font-size="10.00">Window::printMessage</text>
</a>
</g>
</g>
<!-- Node14&#45;&gt;Node17 -->
<g id="edge28_Node000014_Node000017" class="edge">
<title>Node14&#45;&gt;Node17</title>
<g id="a_edge28_Node000014_Node000017"><a xlink:title=" ">
<path fill="none" stroke="#63b8ff" d="M210.84,-618C268.02,-618 390.52,-618 467.8,-618"/>
<polygon fill="#63b8ff" stroke="#63b8ff" points="467.34,-621.5 477.34,-618 467.34,-614.5 467.34,-621.5"/>
</a>
</g>
</g>
<!-- Node18 -->
<g id="Node000018" class="node">
<title>Node18</title>
<g id="a_Node000018"><a xlink:href="classConfig.html#a683f3adeacbde8622e8c46cc2f9dee25" target="_top" xlink:title="Gets the map file path.">
<polygon fill="white" stroke="#666666" points="392.25,-780 308,-780 308,-760 392.25,-760 392.25,-780"/>
<text text-anchor="middle" x="350.12" y="-766.5" font-family="Helvetica,sans-Serif" font-size="10.00">Config::getPath</text>
</a>
</g>
</g>
<!-- Node14&#45;&gt;Node18 -->
<g id="edge25_Node000014_Node000018" class="edge">
<title>Node14&#45;&gt;Node18</title>
<g id="a_edge25_Node000014_Node000018"><a xlink:title=" ">
<path fill="none" stroke="#63b8ff" d="M210.69,-623.72C222.31,-627.26 234.78,-632.93 243.5,-642 278.85,-678.79 242.49,-715.89 279.5,-751 284.57,-755.81 290.74,-759.43 297.28,-762.14"/>
<polygon fill="#63b8ff" stroke="#63b8ff" points="295.74,-765.32 306.34,-765.22 298,-758.69 295.74,-765.32"/>
</a>
</g>
</g>
<!-- Node14&#45;&gt;Node19 -->
<g id="edge26_Node000014_Node000019" class="edge">
<title>Node14&#45;&gt;Node19</title>
<g id="a_edge26_Node000014_Node000019"><a xlink:title=" ">
<path fill="none" stroke="#63b8ff" d="M197.54,-607.59C217.27,-596.44 250.01,-578.67 279.5,-566 287.5,-562.56 296.18,-559.25 304.6,-556.25"/>
<polygon fill="#63b8ff" stroke="#63b8ff" points="305.72,-559.57 314.02,-552.99 303.43,-552.95 305.72,-559.57"/>
</a>
</g>
</g>
<!-- Node20 -->
<g id="Node000020" class="node">
<title>Node20</title>
<g id="a_Node000020"><a xlink:href="classConfig.html#a62c7c2d485cb30374271dba0eafe63c8" target="_top" xlink:title="Gets any value from the config map.">
<polygon fill="white" stroke="#666666" points="394.12,-400 306.12,-400 306.12,-380 394.12,-380 394.12,-400"/>
<text text-anchor="middle" x="350.12" y="-386.5" font-family="Helvetica,sans-Serif" font-size="10.00">Config::getValue</text>
</a>
</g>
</g>
<!-- Node14&#45;&gt;Node20 -->
<g id="edge27_Node000014_Node000020" class="edge">
<title>Node14&#45;&gt;Node20</title>
<g id="a_edge27_Node000014_Node000020"><a xlink:title=" ">
<path fill="none" stroke="#63b8ff" d="M187.23,-607.61C213.56,-572.22 300.01,-456.02 334.61,-409.5"/>
<polygon fill="#63b8ff" stroke="#63b8ff" points="337.29,-411.78 340.45,-401.66 331.67,-407.6 337.29,-411.78"/>
</a>
</g>
</g>
<!-- Node21 -->
<g id="Node000021" class="node">
<title>Node21</title>
<g id="a_Node000021"><a xlink:href="classLeaderboard.html#aa277b90da39dbbfe9088a8bffb9ddb59" target="_top" xlink:title="Saves the scores to a file.">
<polygon fill="white" stroke="#666666" points="413.62,-742 286.62,-742 286.62,-722 413.62,-722 413.62,-742"/>
<text text-anchor="middle" x="350.12" y="-728.5" font-family="Helvetica,sans-Serif" font-size="10.00">Leaderboard::saveScores</text>
</a>
</g>
</g>
<!-- Node14&#45;&gt;Node21 -->
<g id="edge29_Node000014_Node000021" class="edge">
<title>Node14&#45;&gt;Node21</title>
<g id="a_edge29_Node000014_Node000021"><a xlink:title=" ">
<path fill="none" stroke="#63b8ff" d="M210.87,-624.88C222.11,-628.54 234.27,-633.99 243.5,-642 268.73,-663.91 253.98,-686.43 279.5,-708 283.56,-711.43 288.13,-714.38 292.95,-716.91"/>
<polygon fill="#63b8ff" stroke="#63b8ff" points="291.17,-719.95 301.72,-720.92 294.08,-713.58 291.17,-719.95"/>
</a>
</g>
</g>
<!-- Node16&#45;&gt;Node5 -->
<g id="edge21_Node000016_Node000005" class="edge">
<title>Node16&#45;&gt;Node5</title>
<g id="a_edge21_Node000016_Node000005"><a xlink:title=" ">
<path fill="none" stroke="#63b8ff" d="M395.12,-654.46C448.07,-652.24 539.58,-647.23 617.5,-637 630.3,-635.32 643.95,-633.03 656.88,-630.62"/>
<polygon fill="#63b8ff" stroke="#63b8ff" points="657.38,-634.08 666.54,-628.76 656.06,-627.21 657.38,-634.08"/>
</a>
</g>
</g>
<!-- Node16&#45;&gt;Node15 -->
<g id="edge22_Node000016_Node000015" class="edge">
<title>Node16&#45;&gt;Node15</title>
<g id="a_edge22_Node000016_Node000015"><a xlink:title=" ">
<path fill="none" stroke="#63b8ff" d="M394.97,-665.01C422.13,-670.59 457.13,-677.77 485.48,-683.6"/>
<polygon fill="#63b8ff" stroke="#63b8ff" points="484.4,-686.95 494.9,-685.53 485.81,-680.09 484.4,-686.95"/>
</a>
</g>
</g>
<!-- Node16&#45;&gt;Node17 -->
<g id="edge23_Node000016_Node000017" class="edge">
<title>Node16&#45;&gt;Node17</title>
<g id="a_edge23_Node000016_Node000017"><a xlink:title=" ">
<path fill="none" stroke="#63b8ff" d="M394.97,-646.99C418.52,-642.16 447.95,-636.11 473.83,-630.8"/>
<polygon fill="#63b8ff" stroke="#63b8ff" points="474.48,-634.23 483.58,-628.79 473.08,-627.38 474.48,-634.23"/>
</a>
</g>
</g>
<!-- Node17&#45;&gt;Node5 -->
<g id="edge24_Node000017_Node000005" class="edge">
<title>Node17&#45;&gt;Node5</title>
<g id="a_edge24_Node000017_Node000005"><a xlink:title=" ">
<path fill="none" stroke="#63b8ff" d="M595.01,-618C609.94,-618 626.25,-618 641.94,-618"/>
<polygon fill="#63b8ff" stroke="#63b8ff" points="641.71,-621.5 651.71,-618 641.71,-614.5 641.71,-621.5"/>
</a>
</g>
</g>
<!-- Node22 -->
<g id="Node000022" class="node">
<title>Node22</title>
<g id="a_Node000022"><a xlink:href="classLeaderboard.html#a0535aae610bd8dc1e82e44a996190221" target="_top" xlink:title="Writes a value to binary save file.">
<polygon fill="white" stroke="#666666" points="585.25,-742 489,-742 489,-722 585.25,-722 585.25,-742"/>
<text text-anchor="middle" x="537.12" y="-728.5" font-family="Helvetica,sans-Serif" font-size="10.00">Leaderboard::write</text>
</a>
</g>
</g>
<!-- Node21&#45;&gt;Node22 -->
<g id="edge30_Node000021_Node000022" class="edge">
<title>Node21&#45;&gt;Node22</title>
<g id="a_edge30_Node000021_Node000022"><a xlink:title=" ">
<path fill="none" stroke="#63b8ff" d="M414.02,-732C434.51,-732 457.18,-732 477.36,-732"/>
<polygon fill="#63b8ff" stroke="#63b8ff" points="477.09,-735.5 487.09,-732 477.09,-728.5 477.09,-735.5"/>
</a>
</g>
</g>
<!-- Node25&#45;&gt;Node26 -->
<g id="edge39_Node000025_Node000026" class="edge">
<title>Node25&#45;&gt;Node26</title>
<g id="a_edge39_Node000025_Node000026"><a xlink:title=" ">
<path fill="none" stroke="#63b8ff" d="M198.59,-66.55C218.39,-56.03 250.45,-39.83 279.5,-29 284.52,-27.13 289.8,-25.35 295.12,-23.69"/>
<polygon fill="#63b8ff" stroke="#63b8ff" points="295.99,-27.09 304.57,-20.88 293.99,-20.38 295.99,-27.09"/>
</a>
</g>
</g>
<!-- Node27 -->
<g id="Node000027" class="node">
<title>Node27</title>
<g id="a_Node000027"><a xlink:href="classGamePhase.html#a097fcd119e1cce98533b731f7e6ae53d" target="_top" xlink:title="Sets the time of the current phase.">
<polygon fill="white" stroke="#666666" points="606.62,-58 467.62,-58 467.62,-38 606.62,-38 606.62,-58"/>
<text text-anchor="middle" x="537.12" y="-44.5" font-family="Helvetica,sans-Serif" font-size="10.00">GamePhase::setPhaseTime</text>
</a>
</g>
</g>
<!-- Node26&#45;&gt;Node27 -->
<g id="edge40_Node000026_Node000027" class="edge">
<title>Node26&#45;&gt;Node27</title>
<g id="a_edge40_Node000026_Node000027"><a xlink:title=" ">
<path fill="none" stroke="#63b8ff" d="M402.17,-20.48C424.41,-25.05 450.68,-30.45 474.05,-35.25"/>
<polygon fill="#63b8ff" stroke="#63b8ff" points="473.27,-38.66 483.77,-37.25 474.68,-31.8 473.27,-38.66"/>
</a>
</g>
</g>
<!-- Node28&#45;&gt;Node7 -->
<g id="edge42_Node000028_Node000007" class="edge">
<title>Node28&#45;&gt;Node7</title>
<g id="a_edge42_Node000028_Node000007"><a xlink:title=" ">
<path fill="none" stroke="#63b8ff" d="M236.45,-352C258.36,-352 283.05,-352 303.73,-352"/>
<polygon fill="#63b8ff" stroke="#63b8ff" points="303.56,-355.5 313.56,-352 303.56,-348.5 303.56,-355.5"/>
</a>
</g>
</g>
<!-- Node28&#45;&gt;Node10 -->
<g id="edge43_Node000028_Node000010" class="edge">
<title>Node28&#45;&gt;Node10</title>
<g id="a_edge43_Node000028_Node000010"><a xlink:title=" ">
<path fill="none" stroke="#63b8ff" d="M228.66,-341.51C244.79,-338.37 262.86,-335.19 279.5,-333 344.77,-324.41 419.92,-319.42 471.96,-316.72"/>
<polygon fill="#63b8ff" stroke="#63b8ff" points="472.03,-320.22 481.84,-316.22 471.68,-313.23 472.03,-320.22"/>
</a>
</g>
</g>
<!-- Node29&#45;&gt;Node8 -->
<g id="edge47_Node000029_Node000008" class="edge">
<title>Node29&#45;&gt;Node8</title>
<g id="a_edge47_Node000029_Node000008"><a xlink:title=" ">
<path fill="none" stroke="#63b8ff" d="M229.65,-134.45C289.55,-147.17 386.03,-168.5 420.75,-181 451.78,-192.17 485.39,-209.41 508.28,-222.01"/>
<polygon fill="#63b8ff" stroke="#63b8ff" points="506.54,-225.04 516.98,-226.86 509.96,-218.93 506.54,-225.04"/>
</a>
</g>
</g>
<!-- Node29&#45;&gt;Node20 -->
<g id="edge50_Node000029_Node000020" class="edge">
<title>Node29&#45;&gt;Node20</title>
<g id="a_edge50_Node000029_Node000020"><a xlink:title=" ">
<path fill="none" stroke="#63b8ff" d="M196.51,-134.44C211.34,-144.48 232.21,-161.06 243.5,-181 285.85,-255.79 221.18,-307.87 279.5,-371 283.8,-375.66 289.13,-379.22 294.9,-381.93"/>
<polygon fill="#63b8ff" stroke="#63b8ff" points="293.64,-385.2 304.24,-385.42 296.1,-378.64 293.64,-385.2"/>
</a>
</g>
</g>
<!-- Node29&#45;&gt;Node23 -->
<g id="edge48_Node000029_Node000023" class="edge">
<title>Node29&#45;&gt;Node23</title>
<g id="a_edge48_Node000029_Node000023"><a xlink:title=" ">
<path fill="none" stroke="#63b8ff" d="M213.24,-134.49C223.26,-138.17 234.08,-142.73 243.5,-148 261.19,-157.89 261.68,-166.34 279.5,-176 286.22,-179.64 293.6,-182.89 300.97,-185.73"/>
<polygon fill="#63b8ff" stroke="#63b8ff" points="299.65,-188.98 310.24,-189.09 302.03,-182.4 299.65,-188.98"/>
</a>
</g>
</g>
<!-- Node29&#45;&gt;Node26 -->
<g id="edge51_Node000029_Node000026" class="edge">
<title>Node29&#45;&gt;Node26</title>
<g id="a_edge51_Node000029_Node000026"><a xlink:title=" ">
<path fill="none" stroke="#63b8ff" d="M214.55,-113.56C224.73,-109.31 235.3,-103.57 243.5,-96 268.35,-73.08 253.05,-50.05 279.5,-29 280.98,-27.82 282.53,-26.71 284.14,-25.68"/>
<polygon fill="#63b8ff" stroke="#63b8ff" points="285.36,-28.99 292.51,-21.17 282.04,-22.83 285.36,-28.99"/>
</a>
</g>
</g>
<!-- Node29&#45;&gt;Node27 -->
<g id="edge52_Node000029_Node000027" class="edge">
<title>Node29&#45;&gt;Node27</title>
<g id="a_edge52_Node000029_Node000027"><a xlink:title=" ">
<path fill="none" stroke="#63b8ff" d="M228.71,-113.51C293.24,-99.76 406.38,-75.65 475.94,-60.83"/>
<polygon fill="#63b8ff" stroke="#63b8ff" points="476.6,-64.26 485.65,-58.76 475.14,-57.42 476.6,-64.26"/>
</a>
</g>
</g>
<!-- Node30 -->
<g id="Node000030" class="node">
<title>Node30</title>
<g id="a_Node000030"><a xlink:href="classGamePhase.html#a08886782a8b53a487023035c20cd725b" target="_top" xlink:title="Adds time to the current phase.">
<polygon fill="white" stroke="#666666" points="420.75,-134 279.5,-134 279.5,-114 420.75,-114 420.75,-134"/>
<text text-anchor="middle" x="350.12" y="-120.5" font-family="Helvetica,sans-Serif" font-size="10.00">GamePhase::addPhaseTime</text>
</a>
</g>
</g>
<!-- Node29&#45;&gt;Node30 -->
<g id="edge46_Node000029_Node000030" class="edge">
<title>Node29&#45;&gt;Node30</title>
<g id="a_edge46_Node000029_Node000030"><a xlink:title=" ">
<path fill="none" stroke="#63b8ff" d="M243.63,-124C251.54,-124 259.7,-124 267.82,-124"/>
<polygon fill="#63b8ff" stroke="#63b8ff" points="267.72,-127.5 277.72,-124 267.72,-120.5 267.72,-127.5"/>
</a>
</g>
</g>
<!-- Node31 -->
<g id="Node000031" class="node">
<title>Node31</title>
<g id="a_Node000031"><a xlink:href="classGamePhase.html#a03d6ddc222525f8321d4d65c683eedce" target="_top" xlink:title="Returns the time of the current phase.">
<polygon fill="white" stroke="#666666" points="419.62,-58 280.62,-58 280.62,-38 419.62,-38 419.62,-58"/>
<text text-anchor="middle" x="350.12" y="-44.5" font-family="Helvetica,sans-Serif" font-size="10.00">GamePhase::getPhaseTime</text>
</a>
</g>
</g>
<!-- Node29&#45;&gt;Node31 -->
<g id="edge49_Node000029_Node000031" class="edge">
<title>Node29&#45;&gt;Node31</title>
<g id="a_edge49_Node000029_Node000031"><a xlink:title=" ">
<path fill="none" stroke="#63b8ff" d="M206.15,-113.57C217.84,-108.69 231.58,-102.51 243.5,-96 260.37,-86.78 262.27,-80.54 279.5,-72 286.66,-68.45 294.48,-65.2 302.21,-62.32"/>
<polygon fill="#63b8ff" stroke="#63b8ff" points="303.31,-65.65 311.56,-59.01 300.97,-59.05 303.31,-65.65"/>
</a>
</g>
</g>
</g>
</svg>
