<?xml version="1.0" encoding="UTF-8" standalone="no"?>
<!DOCTYPE svg PUBLIC "-//W3C//DTD SVG 1.1//EN"
 "http://www.w3.org/Graphics/SVG/1.1/DTD/svg11.dtd">
<!-- Generated by graphviz version 10.0.1 (0)
 -->
<!-- Title: Player::update Pages: 1 -->
<svg width="436pt" height="180pt"
 viewBox="0.00 0.00 435.50 180.00" xmlns="http://www.w3.org/2000/svg" xmlns:xlink="http://www.w3.org/1999/xlink">
<g id="graph0" class="graph" transform="scale(1 1) rotate(0) translate(4 176)">
<title>Player::update</title>
<!-- Node1 -->
<g id="Node000001" class="node">
<title>Node1</title>
<g id="a_Node000001"><a xlink:title="Updates the object.">
<polygon fill="#999999" stroke="#666666" points="79,-96 0,-96 0,-76 79,-76 79,-96"/>
<text text-anchor="middle" x="39.5" y="-82.5" font-family="Helvetica,sans-Serif" font-size="10.00">Player::update</text>
</a>
</g>
</g>
<!-- Node2 -->
<g id="Node000002" class="node">
<title>Node2</title>
<g id="a_Node000002"><a xlink:href="classGamePhase.html#a4e546a7d0a52cbd70612880d61e5f55c" target="_top" xlink:title="Returns the current game phase.">
<polygon fill="white" stroke="#666666" points="242.38,-172 125.12,-172 125.12,-152 242.38,-152 242.38,-172"/>
<text text-anchor="middle" x="183.75" y="-158.5" font-family="Helvetica,sans-Serif" font-size="10.00">GamePhase::getPhase</text>
</a>
</g>
</g>
<!-- Node1&#45;&gt;Node2 -->
<g id="edge1_Node000001_Node000002" class="edge">
<title>Node1&#45;&gt;Node2</title>
<g id="a_edge1_Node000001_Node000002"><a xlink:title=" ">
<path fill="none" stroke="#63b8ff" d="M51.21,-96.34C64.92,-109.05 89.94,-130.48 115,-143 118.44,-144.72 122.05,-146.3 125.75,-147.75"/>
<polygon fill="#63b8ff" stroke="#63b8ff" points="124.29,-150.95 134.89,-151.01 126.64,-144.35 124.29,-150.95"/>
</a>
</g>
</g>
<!-- Node3 -->
<g id="Node000003" class="node">
<title>Node3</title>
<g id="a_Node000003"><a xlink:href="classGamePhase.html#a704dda3508f76202edc8364d76fa6d22" target="_top" xlink:title="Returns the previous game phase.">
<polygon fill="white" stroke="#666666" points="252.5,-134 115,-134 115,-114 252.5,-114 252.5,-134"/>
<text text-anchor="middle" x="183.75" y="-120.5" font-family="Helvetica,sans-Serif" font-size="10.00">GamePhase::getPrevPhase</text>
</a>
</g>
</g>
<!-- Node1&#45;&gt;Node3 -->
<g id="edge2_Node000001_Node000003" class="edge">
<title>Node1&#45;&gt;Node3</title>
<g id="a_edge2_Node000001_Node000003"><a xlink:title=" ">
<path fill="none" stroke="#63b8ff" d="M79.37,-96.38C95.99,-100.82 115.6,-106.06 133.24,-110.77"/>
<polygon fill="#63b8ff" stroke="#63b8ff" points="131.9,-114.04 142.46,-113.24 133.71,-107.28 131.9,-114.04"/>
</a>
</g>
</g>
<!-- Node4 -->
<g id="Node000004" class="node">
<title>Node4</title>
<g id="a_Node000004"><a xlink:href="classMovingObject.html#a6866cb38b81682fc594939196117e2e3" target="_top" xlink:title="Sets the invincibility of the object.">
<polygon fill="white" stroke="#666666" points="252.12,-96 115.38,-96 115.38,-76 252.12,-76 252.12,-96"/>
<text text-anchor="middle" x="183.75" y="-82.5" font-family="Helvetica,sans-Serif" font-size="10.00">MovingObject::setInvincible</text>
</a>
</g>
</g>
<!-- Node1&#45;&gt;Node4 -->
<g id="edge3_Node000001_Node000004" class="edge">
<title>Node1&#45;&gt;Node4</title>
<g id="a_edge3_Node000001_Node000004"><a xlink:title=" ">
<path fill="none" stroke="#63b8ff" d="M79.37,-86C86.95,-86 95.15,-86 103.5,-86"/>
<polygon fill="#63b8ff" stroke="#63b8ff" points="103.42,-89.5 113.42,-86 103.42,-82.5 103.42,-89.5"/>
</a>
</g>
</g>
<!-- Node5 -->
<g id="Node000005" class="node">
<title>Node5</title>
<g id="a_Node000005"><a xlink:href="classGamePhase.html#af152a5e182080af728f34e66b29079c5" target="_top" xlink:title="Sets the current game phase.">
<polygon fill="white" stroke="#666666" points="242.38,-58 125.12,-58 125.12,-38 242.38,-38 242.38,-58"/>
<text text-anchor="middle" x="183.75" y="-44.5" font-family="Helvetica,sans-Serif" font-size="10.00">GamePhase::setPhase</text>
</a>
</g>
</g>
<!-- Node1&#45;&gt;Node5 -->
<g id="edge4_Node000001_Node000005" class="edge">
<title>Node1&#45;&gt;Node5</title>
<g id="a_edge4_Node000001_Node000005"><a xlink:title=" ">
<path fill="none" stroke="#63b8ff" d="M79.37,-75.62C95.99,-71.18 115.6,-65.94 133.24,-61.23"/>
<polygon fill="#63b8ff" stroke="#63b8ff" points="133.71,-64.72 142.46,-58.76 131.9,-57.96 133.71,-64.72"/>
</a>
</g>
</g>
<!-- Node7 -->
<g id="Node000007" class="node">
<title>Node7</title>
<g id="a_Node000007"><a xlink:href="classMovingObject.html#a0fa9f24bfcb0d40d1af3ee26dedfa47d" target="_top" xlink:title="Sets the speed of the object.">
<polygon fill="white" stroke="#666666" points="245.38,-20 122.12,-20 122.12,0 245.38,0 245.38,-20"/>
<text text-anchor="middle" x="183.75" y="-6.5" font-family="Helvetica,sans-Serif" font-size="10.00">MovingObject::setSpeed</text>
</a>
</g>
</g>
<!-- Node1&#45;&gt;Node7 -->
<g id="edge6_Node000001_Node000007" class="edge">
<title>Node1&#45;&gt;Node7</title>
<g id="a_edge6_Node000001_Node000007"><a xlink:title=" ">
<path fill="none" stroke="#63b8ff" d="M51.21,-75.66C64.92,-62.95 89.94,-41.52 115,-29 118.44,-27.28 122.05,-25.7 125.75,-24.25"/>
<polygon fill="#63b8ff" stroke="#63b8ff" points="126.64,-27.65 134.89,-20.99 124.29,-21.05 126.64,-27.65"/>
</a>
</g>
</g>
<!-- Node6 -->
<g id="Node000006" class="node">
<title>Node6</title>
<g id="a_Node000006"><a xlink:href="classGamePhase.html#a097fcd119e1cce98533b731f7e6ae53d" target="_top" xlink:title="Sets the time of the current phase.">
<polygon fill="white" stroke="#666666" points="427.5,-58 288.5,-58 288.5,-38 427.5,-38 427.5,-58"/>
<text text-anchor="middle" x="358" y="-44.5" font-family="Helvetica,sans-Serif" font-size="10.00">GamePhase::setPhaseTime</text>
</a>
</g>
</g>
<!-- Node5&#45;&gt;Node6 -->
<g id="edge5_Node000005_Node000006" class="edge">
<title>Node5&#45;&gt;Node6</title>
<g id="a_edge5_Node000005_Node000006"><a xlink:title=" ">
<path fill="none" stroke="#63b8ff" d="M242.59,-48C253.58,-48 265.27,-48 276.81,-48"/>
<polygon fill="#63b8ff" stroke="#63b8ff" points="276.76,-51.5 286.76,-48 276.76,-44.5 276.76,-51.5"/>
</a>
</g>
</g>
</g>
</svg>
