<?xml version="1.0" encoding="UTF-8" standalone="no"?>
<!DOCTYPE svg PUBLIC "-//W3C//DTD SVG 1.1//EN"
 "http://www.w3.org/Graphics/SVG/1.1/DTD/svg11.dtd">
<!-- Generated by graphviz version 10.0.1 (0)
 -->
<!-- Title: Game::updatePhaseTimer Pages: 1 -->
<svg width="490pt" height="245pt"
 viewBox="0.00 0.00 490.25 245.30" xmlns="http://www.w3.org/2000/svg" xmlns:xlink="http://www.w3.org/1999/xlink">
<g id="graph0" class="graph" transform="scale(1 1) rotate(0) translate(4 241.3)">
<title>Game::updatePhaseTimer</title>
<!-- Node1 -->
<g id="Node000001" class="node">
<title>Node1</title>
<g id="a_Node000001"><a xlink:title="Updates the game phase timer.">
<polygon fill="#999999" stroke="#666666" points="130,-123.3 0,-123.3 0,-103.3 130,-103.3 130,-123.3"/>
<text text-anchor="middle" x="65" y="-109.8" font-family="Helvetica,sans-Serif" font-size="10.00">Game::updatePhaseTimer</text>
</a>
</g>
</g>
<!-- Node2 -->
<g id="Node000002" class="node">
<title>Node2</title>
<g id="a_Node000002"><a xlink:href="classGamePhase.html#a08886782a8b53a487023035c20cd725b" target="_top" xlink:title="Adds time to the current phase.">
<polygon fill="white" stroke="#666666" points="307.25,-237.3 166,-237.3 166,-217.3 307.25,-217.3 307.25,-237.3"/>
<text text-anchor="middle" x="236.62" y="-223.8" font-family="Helvetica,sans-Serif" font-size="10.00">GamePhase::addPhaseTime</text>
</a>
</g>
</g>
<!-- Node1&#45;&gt;Node2 -->
<g id="edge1_Node000001_Node000002" class="edge">
<title>Node1&#45;&gt;Node2</title>
<g id="a_edge1_Node000001_Node000002"><a xlink:title=" ">
<path fill="none" stroke="#63b8ff" d="M73.87,-123.61C89.34,-143.14 125.73,-185.62 166,-208.3 168.81,-209.89 171.77,-211.35 174.8,-212.69"/>
<polygon fill="#63b8ff" stroke="#63b8ff" points="173.37,-215.88 183.95,-216.26 175.91,-209.36 173.37,-215.88"/>
</a>
</g>
</g>
<!-- Node3 -->
<g id="Node000003" class="node">
<title>Node3</title>
<g id="a_Node000003"><a xlink:href="classGamePhase.html#a337c0a04d2c1d159ff9a98e99e11116a" target="_top" xlink:title="Returns the current level.">
<polygon fill="white" stroke="#666666" points="293,-199.3 180.25,-199.3 180.25,-179.3 293,-179.3 293,-199.3"/>
<text text-anchor="middle" x="236.62" y="-185.8" font-family="Helvetica,sans-Serif" font-size="10.00">GamePhase::getLevel</text>
</a>
</g>
</g>
<!-- Node1&#45;&gt;Node3 -->
<g id="edge2_Node000001_Node000003" class="edge">
<title>Node1&#45;&gt;Node3</title>
<g id="a_edge2_Node000001_Node000003"><a xlink:title=" ">
<path fill="none" stroke="#63b8ff" d="M81.31,-123.66C100.41,-136.2 134.42,-157.24 166,-170.3 170.55,-172.18 175.35,-173.94 180.2,-175.56"/>
<polygon fill="#63b8ff" stroke="#63b8ff" points="178.83,-178.79 189.42,-178.43 180.92,-172.11 178.83,-178.79"/>
</a>
</g>
</g>
<!-- Node4 -->
<g id="Node000004" class="node">
<title>Node4</title>
<g id="a_Node000004"><a xlink:href="classGamePhase.html#a4e546a7d0a52cbd70612880d61e5f55c" target="_top" xlink:title="Returns the current game phase.">
<polygon fill="white" stroke="#666666" points="295.25,-161.3 178,-161.3 178,-141.3 295.25,-141.3 295.25,-161.3"/>
<text text-anchor="middle" x="236.62" y="-147.8" font-family="Helvetica,sans-Serif" font-size="10.00">GamePhase::getPhase</text>
</a>
</g>
</g>
<!-- Node1&#45;&gt;Node4 -->
<g id="edge3_Node000001_Node000004" class="edge">
<title>Node1&#45;&gt;Node4</title>
<g id="a_edge3_Node000001_Node000004"><a xlink:title=" ">
<path fill="none" stroke="#63b8ff" d="M112.8,-123.79C132.92,-128.29 156.63,-133.6 177.83,-138.35"/>
<polygon fill="#63b8ff" stroke="#63b8ff" points="176.98,-141.75 187.5,-140.52 178.51,-134.92 176.98,-141.75"/>
</a>
</g>
</g>
<!-- Node5 -->
<g id="Node000005" class="node">
<title>Node5</title>
<g id="a_Node000005"><a xlink:href="classGamePhase.html#a03d6ddc222525f8321d4d65c683eedce" target="_top" xlink:title="Returns the time of the current phase.">
<polygon fill="white" stroke="#666666" points="306.12,-123.3 167.12,-123.3 167.12,-103.3 306.12,-103.3 306.12,-123.3"/>
<text text-anchor="middle" x="236.62" y="-109.8" font-family="Helvetica,sans-Serif" font-size="10.00">GamePhase::getPhaseTime</text>
</a>
</g>
</g>
<!-- Node1&#45;&gt;Node5 -->
<g id="edge4_Node000001_Node000005" class="edge">
<title>Node1&#45;&gt;Node5</title>
<g id="a_edge4_Node000001_Node000005"><a xlink:title=" ">
<path fill="none" stroke="#63b8ff" d="M130.13,-113.3C138.38,-113.3 146.92,-113.3 155.39,-113.3"/>
<polygon fill="#63b8ff" stroke="#63b8ff" points="155.36,-116.8 165.36,-113.3 155.36,-109.8 155.36,-116.8"/>
</a>
</g>
</g>
<!-- Node6 -->
<g id="Node000006" class="node">
<title>Node6</title>
<g id="a_Node000006"><a xlink:href="classConfig.html#a62c7c2d485cb30374271dba0eafe63c8" target="_top" xlink:title="Gets any value from the config map.">
<polygon fill="white" stroke="#666666" points="280.62,-85.3 192.62,-85.3 192.62,-65.3 280.62,-65.3 280.62,-85.3"/>
<text text-anchor="middle" x="236.62" y="-71.8" font-family="Helvetica,sans-Serif" font-size="10.00">Config::getValue</text>
</a>
</g>
</g>
<!-- Node1&#45;&gt;Node6 -->
<g id="edge5_Node000001_Node000006" class="edge">
<title>Node1&#45;&gt;Node6</title>
<g id="a_edge5_Node000001_Node000006"><a xlink:title=" ">
<path fill="none" stroke="#63b8ff" d="M112.8,-102.82C133.93,-98.08 159.02,-92.46 181,-87.54"/>
<polygon fill="#63b8ff" stroke="#63b8ff" points="181.71,-90.97 190.7,-85.37 180.18,-84.14 181.71,-90.97"/>
</a>
</g>
</g>
<!-- Node7 -->
<g id="Node000007" class="node">
<title>Node7</title>
<g id="a_Node000007"><a xlink:href="classGamePhase.html#af152a5e182080af728f34e66b29079c5" target="_top" xlink:title="Sets the current game phase.">
<polygon fill="white" stroke="#666666" points="295.25,-47.3 178,-47.3 178,-27.3 295.25,-27.3 295.25,-47.3"/>
<text text-anchor="middle" x="236.62" y="-33.8" font-family="Helvetica,sans-Serif" font-size="10.00">GamePhase::setPhase</text>
</a>
</g>
</g>
<!-- Node1&#45;&gt;Node7 -->
<g id="edge6_Node000001_Node000007" class="edge">
<title>Node1&#45;&gt;Node7</title>
<g id="a_edge6_Node000001_Node000007"><a xlink:title=" ">
<path fill="none" stroke="#63b8ff" d="M81.31,-102.94C100.41,-90.41 134.42,-69.36 166,-56.3 170.55,-54.42 175.35,-52.67 180.2,-51.05"/>
<polygon fill="#63b8ff" stroke="#63b8ff" points="180.92,-54.49 189.42,-48.17 178.83,-47.81 180.92,-54.49"/>
</a>
</g>
</g>
<!-- Node8 -->
<g id="Node000008" class="node">
<title>Node8</title>
<g id="a_Node000008"><a xlink:href="classGamePhase.html#a097fcd119e1cce98533b731f7e6ae53d" target="_top" xlink:title="Sets the time of the current phase.">
<polygon fill="white" stroke="#666666" points="482.25,-28.3 343.25,-28.3 343.25,-8.3 482.25,-8.3 482.25,-28.3"/>
<text text-anchor="middle" x="412.75" y="-14.8" font-family="Helvetica,sans-Serif" font-size="10.00">GamePhase::setPhaseTime</text>
</a>
</g>
</g>
<!-- Node1&#45;&gt;Node8 -->
<g id="edge8_Node000001_Node000008" class="edge">
<title>Node1&#45;&gt;Node8</title>
<g id="a_edge8_Node000001_Node000008"><a xlink:title=" ">
<path fill="none" stroke="#63b8ff" d="M72.72,-102.96C86.95,-82.15 122.41,-35.71 166,-18.3 225.49,5.45 299.73,1.34 350.96,-6.12"/>
<polygon fill="#63b8ff" stroke="#63b8ff" points="350.26,-9.55 360.68,-7.63 351.33,-2.63 350.26,-9.55"/>
</a>
</g>
</g>
<!-- Node7&#45;&gt;Node8 -->
<g id="edge7_Node000007_Node000008" class="edge">
<title>Node7&#45;&gt;Node8</title>
<g id="a_edge7_Node000007_Node000008"><a xlink:title=" ">
<path fill="none" stroke="#63b8ff" d="M295.61,-30.98C307.2,-29.71 319.56,-28.36 331.74,-27.03"/>
<polygon fill="#63b8ff" stroke="#63b8ff" points="331.78,-30.55 341.34,-25.98 331.02,-23.59 331.78,-30.55"/>
</a>
</g>
</g>
</g>
</svg>
