<?xml version="1.0" encoding="UTF-8" standalone="no"?>
<!DOCTYPE svg PUBLIC "-//W3C//DTD SVG 1.1//EN"
 "http://www.w3.org/Graphics/SVG/1.1/DTD/svg11.dtd">
<!-- Generated by graphviz version 10.0.1 (0)
 -->
<!-- Title: Game::start Pages: 1 -->
<svg width="852pt" height="598pt"
 viewBox="0.00 0.00 851.75 598.00" xmlns="http://www.w3.org/2000/svg" xmlns:xlink="http://www.w3.org/1999/xlink">
<g id="graph0" class="graph" transform="scale(1 1) rotate(0) translate(4 594)">
<title>Game::start</title>
<!-- Node1 -->
<g id="Node000001" class="node">
<title>Node1</title>
<g id="a_Node000001"><a xlink:title="Starts the game.">
<polygon fill="#999999" stroke="#666666" points="67.75,-419 0,-419 0,-399 67.75,-399 67.75,-419"/>
<text text-anchor="middle" x="33.88" y="-405.5" font-family="Helvetica,sans-Serif" font-size="10.00">Game::start</text>
</a>
</g>
</g>
<!-- Node2 -->
<g id="Node000002" class="node">
<title>Node2</title>
<g id="a_Node000002"><a xlink:href="classGame.html#a66e2ecb02f046b0c17922a4255720e5a" target="_top" xlink:title="Ends the game on error.">
<polygon fill="white" stroke="#666666" points="203.38,-533 113.88,-533 113.88,-513 203.38,-513 203.38,-533"/>
<text text-anchor="middle" x="158.62" y="-519.5" font-family="Helvetica,sans-Serif" font-size="10.00">Game::endOnErr</text>
</a>
</g>
</g>
<!-- Node1&#45;&gt;Node2 -->
<g id="edge1_Node000001_Node000002" class="edge">
<title>Node1&#45;&gt;Node2</title>
<g id="a_edge1_Node000001_Node000002"><a xlink:title=" ">
<path fill="none" stroke="#63b8ff" d="M45.77,-419.12C66.55,-438.42 112.12,-480.74 138.23,-504.99"/>
<polygon fill="#63b8ff" stroke="#63b8ff" points="135.76,-507.47 145.47,-511.71 140.53,-502.34 135.76,-507.47"/>
</a>
</g>
</g>
<!-- Node5 -->
<g id="Node000005" class="node">
<title>Node5</title>
<g id="a_Node000005"><a xlink:href="classWindow.html#aba37c5e32e43d21a46968fd8ada1d327" target="_top" xlink:title="Prints the message to the current window.">
<polygon fill="white" stroke="#666666" points="369.38,-514 253.62,-514 253.62,-494 369.38,-494 369.38,-514"/>
<text text-anchor="middle" x="311.5" y="-500.5" font-family="Helvetica,sans-Serif" font-size="10.00">Window::printMessage</text>
</a>
</g>
</g>
<!-- Node1&#45;&gt;Node5 -->
<g id="edge36_Node000001_Node000005" class="edge">
<title>Node1&#45;&gt;Node5</title>
<g id="a_edge36_Node000001_Node000005"><a xlink:title=" ">
<path fill="none" stroke="#63b8ff" d="M65.16,-419.44C114.85,-436.56 213.73,-470.64 269.59,-489.9"/>
<polygon fill="#63b8ff" stroke="#63b8ff" points="268.14,-493.1 278.73,-493.05 270.42,-486.48 268.14,-493.1"/>
</a>
</g>
</g>
<!-- Node6 -->
<g id="Node000006" class="node">
<title>Node6</title>
<g id="a_Node000006"><a xlink:href="classGame.html#a4c2a7ead717a4c13f1ffddafd11e17c8" target="_top" xlink:title="Initializes the game, loading config, and the map.">
<polygon fill="white" stroke="#666666" points="213.5,-362 103.75,-362 103.75,-342 213.5,-342 213.5,-362"/>
<text text-anchor="middle" x="158.62" y="-348.5" font-family="Helvetica,sans-Serif" font-size="10.00">Game::initializeGame</text>
</a>
</g>
</g>
<!-- Node1&#45;&gt;Node6 -->
<g id="edge6_Node000001_Node000006" class="edge">
<title>Node1&#45;&gt;Node6</title>
<g id="a_edge6_Node000001_Node000006"><a xlink:title=" ">
<path fill="none" stroke="#63b8ff" d="M57.39,-398.55C76.34,-389.75 103.68,-377.05 125.02,-367.14"/>
<polygon fill="#63b8ff" stroke="#63b8ff" points="126.28,-370.41 133.88,-363.03 123.34,-364.06 126.28,-370.41"/>
</a>
</g>
</g>
<!-- Node29 -->
<g id="Node000029" class="node">
<title>Node29</title>
<g id="a_Node000029"><a xlink:href="classGamePhase.html#af152a5e182080af728f34e66b29079c5" target="_top" xlink:title="Sets the current game phase.">
<polygon fill="white" stroke="#666666" points="370.12,-115 252.88,-115 252.88,-95 370.12,-95 370.12,-115"/>
<text text-anchor="middle" x="311.5" y="-101.5" font-family="Helvetica,sans-Serif" font-size="10.00">GamePhase::setPhase</text>
</a>
</g>
</g>
<!-- Node1&#45;&gt;Node29 -->
<g id="edge37_Node000001_Node000029" class="edge">
<title>Node1&#45;&gt;Node29</title>
<g id="a_edge37_Node000001_Node000029"><a xlink:title=" ">
<path fill="none" stroke="#63b8ff" d="M39.67,-398.62C59.3,-357.25 137.84,-202.65 249.5,-124 251.41,-122.65 253.42,-121.4 255.51,-120.23"/>
<polygon fill="#63b8ff" stroke="#63b8ff" points="256.77,-123.51 264.28,-116.03 253.75,-117.19 256.77,-123.51"/>
</a>
</g>
</g>
<!-- Node3 -->
<g id="Node000003" class="node">
<title>Node3</title>
<g id="a_Node000003"><a xlink:href="classWindow.html#a07c2b4d065cbcb397eafc1a27a337bb7" target="_top" xlink:title="Clears the current window.">
<polygon fill="white" stroke="#666666" points="553.75,-495 426,-495 426,-475 553.75,-475 553.75,-495"/>
<text text-anchor="middle" x="489.88" y="-481.5" font-family="Helvetica,sans-Serif" font-size="10.00">Window::clearCurrentWin</text>
</a>
</g>
</g>
<!-- Node2&#45;&gt;Node3 -->
<g id="edge2_Node000002_Node000003" class="edge">
<title>Node2&#45;&gt;Node3</title>
<g id="a_edge2_Node000002_Node000003"><a xlink:title=" ">
<path fill="none" stroke="#63b8ff" d="M203.78,-527.06C247.25,-530.1 315.39,-532.32 373.5,-523 401.42,-518.52 431.73,-508.31 454.28,-499.6"/>
<polygon fill="#63b8ff" stroke="#63b8ff" points="455.27,-502.98 463.28,-496.04 452.69,-496.47 455.27,-502.98"/>
</a>
</g>
</g>
<!-- Node4 -->
<g id="Node000004" class="node">
<title>Node4</title>
<g id="a_Node000004"><a xlink:href="classMap.html#a7ded655c7db0e9d72816430b4f2c83a5" target="_top" xlink:title="Clears the map.">
<polygon fill="white" stroke="#666666" points="351.75,-590 271.25,-590 271.25,-570 351.75,-570 351.75,-590"/>
<text text-anchor="middle" x="311.5" y="-576.5" font-family="Helvetica,sans-Serif" font-size="10.00">Map::clearMap</text>
</a>
</g>
</g>
<!-- Node2&#45;&gt;Node4 -->
<g id="edge3_Node000002_Node000004" class="edge">
<title>Node2&#45;&gt;Node4</title>
<g id="a_edge3_Node000002_Node000004"><a xlink:title=" ">
<path fill="none" stroke="#63b8ff" d="M187.3,-533.45C211.15,-542.47 245.82,-555.57 272.31,-565.57"/>
<polygon fill="#63b8ff" stroke="#63b8ff" points="270.74,-568.72 281.33,-568.98 273.21,-562.17 270.74,-568.72"/>
</a>
</g>
</g>
<!-- Node2&#45;&gt;Node5 -->
<g id="edge4_Node000002_Node000005" class="edge">
<title>Node2&#45;&gt;Node5</title>
<g id="a_edge4_Node000002_Node000005"><a xlink:title=" ">
<path fill="none" stroke="#63b8ff" d="M203.67,-517.45C215.64,-515.95 228.9,-514.28 241.89,-512.64"/>
<polygon fill="#63b8ff" stroke="#63b8ff" points="242.21,-516.13 251.69,-511.41 241.33,-509.18 242.21,-516.13"/>
</a>
</g>
</g>
<!-- Node5&#45;&gt;Node3 -->
<g id="edge5_Node000005_Node000003" class="edge">
<title>Node5&#45;&gt;Node3</title>
<g id="a_edge5_Node000005_Node000003"><a xlink:title=" ">
<path fill="none" stroke="#63b8ff" d="M369.76,-497.83C384.03,-496.29 399.54,-494.62 414.5,-493.01"/>
<polygon fill="#63b8ff" stroke="#63b8ff" points="414.73,-496.51 424.3,-491.96 413.98,-489.55 414.73,-496.51"/>
</a>
</g>
</g>
<!-- Node6&#45;&gt;Node3 -->
<g id="edge7_Node000006_Node000003" class="edge">
<title>Node6&#45;&gt;Node3</title>
<g id="a_edge7_Node000006_Node000003"><a xlink:title=" ">
<path fill="none" stroke="#63b8ff" d="M166.03,-362.4C179.01,-382.49 210.54,-426.45 249.5,-447 300.35,-473.81 365.09,-482.83 414.42,-485.41"/>
<polygon fill="#63b8ff" stroke="#63b8ff" points="414,-488.89 424.14,-485.83 414.31,-481.9 414,-488.89"/>
</a>
</g>
</g>
<!-- Node6&#45;&gt;Node5 -->
<g id="edge33_Node000006_Node000005" class="edge">
<title>Node6&#45;&gt;Node5</title>
<g id="a_edge33_Node000006_Node000005"><a xlink:title=" ">
<path fill="none" stroke="#63b8ff" d="M165.82,-362.36C182.28,-389.66 227.42,-462.62 249.5,-480 253.75,-483.34 258.52,-486.27 263.47,-488.82"/>
<polygon fill="#63b8ff" stroke="#63b8ff" points="261.87,-491.94 272.42,-492.92 264.78,-485.57 261.87,-491.94"/>
</a>
</g>
</g>
<!-- Node7 -->
<g id="Node000007" class="node">
<title>Node7</title>
<g id="a_Node000007"><a xlink:href="classGame.html#a6d54497ce3a66f6dd45eacfdccc8d0bd" target="_top" xlink:title="Draws the game.">
<polygon fill="white" stroke="#666666" points="346.12,-191 276.88,-191 276.88,-171 346.12,-171 346.12,-191"/>
<text text-anchor="middle" x="311.5" y="-177.5" font-family="Helvetica,sans-Serif" font-size="10.00">Game::draw</text>
</a>
</g>
</g>
<!-- Node6&#45;&gt;Node7 -->
<g id="edge8_Node000006_Node000007" class="edge">
<title>Node6&#45;&gt;Node7</title>
<g id="a_edge8_Node000006_Node000007"><a xlink:title=" ">
<path fill="none" stroke="#63b8ff" d="M168.84,-341.56C193.62,-313.47 262,-235.97 293.81,-199.91"/>
<polygon fill="#63b8ff" stroke="#63b8ff" points="296.42,-202.25 300.41,-192.44 291.17,-197.62 296.42,-202.25"/>
</a>
</g>
</g>
<!-- Node14 -->
<g id="Node000014" class="node">
<title>Node14</title>
<g id="a_Node000014"><a xlink:href="classWindow.html#a2238e5489102fe2a77e7898a07dc37b5" target="_top" xlink:title="Gets text input from the user.">
<polygon fill="white" stroke="#666666" points="357.75,-438 265.25,-438 265.25,-418 357.75,-418 357.75,-438"/>
<text text-anchor="middle" x="311.5" y="-424.5" font-family="Helvetica,sans-Serif" font-size="10.00">Window::getInput</text>
</a>
</g>
</g>
<!-- Node6&#45;&gt;Node14 -->
<g id="edge16_Node000006_Node000014" class="edge">
<title>Node6&#45;&gt;Node14</title>
<g id="a_edge16_Node000006_Node000014"><a xlink:title=" ">
<path fill="none" stroke="#63b8ff" d="M173.29,-362.29C190.36,-374.75 220.83,-395.73 249.5,-409 253.19,-410.71 257.07,-412.32 261.02,-413.82"/>
<polygon fill="#63b8ff" stroke="#63b8ff" points="259.5,-416.99 270.1,-417.04 261.84,-410.4 259.5,-416.99"/>
</a>
</g>
</g>
<!-- Node15 -->
<g id="Node000015" class="node">
<title>Node15</title>
<g id="a_Node000015"><a xlink:href="classConfig.html#a683f3adeacbde8622e8c46cc2f9dee25" target="_top" xlink:title="Gets the map file path.">
<polygon fill="white" stroke="#666666" points="353.62,-153 269.38,-153 269.38,-133 353.62,-133 353.62,-153"/>
<text text-anchor="middle" x="311.5" y="-139.5" font-family="Helvetica,sans-Serif" font-size="10.00">Config::getPath</text>
</a>
</g>
</g>
<!-- Node6&#45;&gt;Node15 -->
<g id="edge18_Node000006_Node000015" class="edge">
<title>Node6&#45;&gt;Node15</title>
<g id="a_edge18_Node000006_Node000015"><a xlink:title=" ">
<path fill="none" stroke="#63b8ff" d="M164.24,-341.65C181.55,-302.94 241.96,-168.55 249.5,-162 252.3,-159.56 255.42,-157.44 258.72,-155.59"/>
<polygon fill="#63b8ff" stroke="#63b8ff" points="260.05,-158.83 267.65,-151.44 257.1,-152.48 260.05,-158.83"/>
</a>
</g>
</g>
<!-- Node16 -->
<g id="Node000016" class="node">
<title>Node16</title>
<g id="a_Node000016"><a xlink:href="classConfig.html#a62c7c2d485cb30374271dba0eafe63c8" target="_top" xlink:title="Gets any value from the config map.">
<polygon fill="white" stroke="#666666" points="533.88,-400 445.88,-400 445.88,-380 533.88,-380 533.88,-400"/>
<text text-anchor="middle" x="489.88" y="-386.5" font-family="Helvetica,sans-Serif" font-size="10.00">Config::getValue</text>
</a>
</g>
</g>
<!-- Node6&#45;&gt;Node16 -->
<g id="edge19_Node000006_Node000016" class="edge">
<title>Node6&#45;&gt;Node16</title>
<g id="a_edge19_Node000006_Node000016"><a xlink:title=" ">
<path fill="none" stroke="#63b8ff" d="M213.8,-355.69C257.11,-358.91 319.32,-364.14 373.5,-371 393.36,-373.51 415.03,-376.91 434.18,-380.13"/>
<polygon fill="#63b8ff" stroke="#63b8ff" points="433.49,-383.57 443.94,-381.8 434.67,-376.67 433.49,-383.57"/>
</a>
</g>
</g>
<!-- Node17 -->
<g id="Node000017" class="node">
<title>Node17</title>
<g id="a_Node000017"><a xlink:href="classMap.html#a2657d897204aaedba0e8e4f01b2e1efc" target="_top" xlink:title="Loads the map from a file.">
<polygon fill="white" stroke="#666666" points="350.25,-400 272.75,-400 272.75,-380 350.25,-380 350.25,-400"/>
<text text-anchor="middle" x="311.5" y="-386.5" font-family="Helvetica,sans-Serif" font-size="10.00">Map::loadMap</text>
</a>
</g>
</g>
<!-- Node6&#45;&gt;Node17 -->
<g id="edge20_Node000006_Node000017" class="edge">
<title>Node6&#45;&gt;Node17</title>
<g id="a_edge20_Node000006_Node000017"><a xlink:title=" ">
<path fill="none" stroke="#63b8ff" d="M201.25,-362.48C219.84,-367.17 241.89,-372.72 261.3,-377.61"/>
<polygon fill="#63b8ff" stroke="#63b8ff" points="260.35,-380.98 270.9,-380.03 262.06,-374.19 260.35,-380.98"/>
</a>
</g>
</g>
<!-- Node23 -->
<g id="Node000023" class="node">
<title>Node23</title>
<g id="a_Node000023"><a xlink:href="classGame.html#a1290bdc979d75815efe4d21e83a806cb" target="_top" xlink:title="Loads the object from the map.">
<polygon fill="white" stroke="#666666" points="361.5,-324 261.5,-324 261.5,-304 361.5,-304 361.5,-324"/>
<text text-anchor="middle" x="311.5" y="-310.5" font-family="Helvetica,sans-Serif" font-size="10.00">Game::loadObjects</text>
</a>
</g>
</g>
<!-- Node6&#45;&gt;Node23 -->
<g id="edge26_Node000006_Node000023" class="edge">
<title>Node6&#45;&gt;Node23</title>
<g id="a_edge26_Node000006_Node000023"><a xlink:title=" ">
<path fill="none" stroke="#63b8ff" d="M201.25,-341.52C218.81,-337.09 239.46,-331.89 258.05,-327.21"/>
<polygon fill="#63b8ff" stroke="#63b8ff" points="258.7,-330.66 267.54,-324.82 256.99,-323.87 258.7,-330.66"/>
</a>
</g>
</g>
<!-- Node26 -->
<g id="Node000026" class="node">
<title>Node26</title>
<g id="a_Node000026"><a xlink:href="classLeaderboard.html#a43ac1b937341b8e5b3bd8b33200034d1" target="_top" xlink:title="Loads the scores from a file.">
<polygon fill="white" stroke="#666666" points="373.5,-286 249.5,-286 249.5,-266 373.5,-266 373.5,-286"/>
<text text-anchor="middle" x="311.5" y="-272.5" font-family="Helvetica,sans-Serif" font-size="10.00">Leaderboard::loadScores</text>
</a>
</g>
</g>
<!-- Node6&#45;&gt;Node26 -->
<g id="edge30_Node000006_Node000026" class="edge">
<title>Node6&#45;&gt;Node26</title>
<g id="a_edge30_Node000006_Node000026"><a xlink:title=" ">
<path fill="none" stroke="#63b8ff" d="M173.29,-341.71C190.36,-329.25 220.83,-308.27 249.5,-295 253.19,-293.29 257.07,-291.68 261.02,-290.18"/>
<polygon fill="#63b8ff" stroke="#63b8ff" points="261.84,-293.6 270.1,-286.96 259.5,-287.01 261.84,-293.6"/>
</a>
</g>
</g>
<!-- Node6&#45;&gt;Node29 -->
<g id="edge34_Node000006_Node000029" class="edge">
<title>Node6&#45;&gt;Node29</title>
<g id="a_edge34_Node000006_Node000029"><a xlink:title=" ">
<path fill="none" stroke="#63b8ff" d="M164.76,-341.65C174.81,-321.19 197.51,-273.99 213.5,-233 232.05,-185.47 213.12,-159.77 249.5,-124 250.26,-123.25 251.05,-122.53 251.87,-121.84"/>
<polygon fill="#63b8ff" stroke="#63b8ff" points="253.8,-124.76 260.19,-116.31 249.92,-118.93 253.8,-124.76"/>
</a>
</g>
</g>
<!-- Node8 -->
<g id="Node000008" class="node">
<title>Node8</title>
<g id="a_Node000008"><a xlink:href="classGamePhase.html#a337c0a04d2c1d159ff9a98e99e11116a" target="_top" xlink:title="Returns the current level.">
<polygon fill="white" stroke="#666666" points="546.25,-134 433.5,-134 433.5,-114 546.25,-114 546.25,-134"/>
<text text-anchor="middle" x="489.88" y="-120.5" font-family="Helvetica,sans-Serif" font-size="10.00">GamePhase::getLevel</text>
</a>
</g>
</g>
<!-- Node7&#45;&gt;Node8 -->
<g id="edge9_Node000007_Node000008" class="edge">
<title>Node7&#45;&gt;Node8</title>
<g id="a_edge9_Node000007_Node000008"><a xlink:title=" ">
<path fill="none" stroke="#63b8ff" d="M346.52,-170.86C355.34,-168.1 364.81,-165.04 373.5,-162 389.7,-156.33 393.27,-153.6 409.5,-148 419.8,-144.45 430.95,-140.89 441.55,-137.66"/>
<polygon fill="#63b8ff" stroke="#63b8ff" points="442.32,-141.08 450.88,-134.84 440.3,-134.38 442.32,-141.08"/>
</a>
</g>
</g>
<!-- Node9 -->
<g id="Node000009" class="node">
<title>Node9</title>
<g id="a_Node000009"><a xlink:href="classGamePhase.html#a1e01dd9cbefce12ad832102c3a9ed3a2" target="_top" xlink:title="Returns the number of remaining items.">
<polygon fill="white" stroke="#666666" points="570.25,-96 409.5,-96 409.5,-76 570.25,-76 570.25,-96"/>
<text text-anchor="middle" x="489.88" y="-82.5" font-family="Helvetica,sans-Serif" font-size="10.00">GamePhase::getRemainingItems</text>
</a>
</g>
</g>
<!-- Node7&#45;&gt;Node9 -->
<g id="edge10_Node000007_Node000009" class="edge">
<title>Node7&#45;&gt;Node9</title>
<g id="a_edge10_Node000007_Node000009"><a xlink:title=" ">
<path fill="none" stroke="#63b8ff" d="M346.51,-174.97C355.91,-172.14 365.67,-168.01 373.5,-162 397.27,-143.75 385.13,-122.44 409.5,-105 411.31,-103.7 413.21,-102.49 415.16,-101.36"/>
<polygon fill="#63b8ff" stroke="#63b8ff" points="416.55,-104.58 423.99,-97.04 413.47,-98.29 416.55,-104.58"/>
</a>
</g>
</g>
<!-- Node10 -->
<g id="Node000010" class="node">
<title>Node10</title>
<g id="a_Node000010"><a xlink:href="classWindow.html#aaa279ff498c917ba2535b26e5f396c7c" target="_top" xlink:title="Prints character at given position, default color.">
<polygon fill="white" stroke="#666666" points="543.25,-58 436.5,-58 436.5,-38 543.25,-38 543.25,-58"/>
<text text-anchor="middle" x="489.88" y="-44.5" font-family="Helvetica,sans-Serif" font-size="10.00">Window::printCharAt</text>
</a>
</g>
</g>
<!-- Node7&#45;&gt;Node10 -->
<g id="edge11_Node000007_Node000010" class="edge">
<title>Node7&#45;&gt;Node10</title>
<g id="a_edge11_Node000007_Node000010"><a xlink:title=" ">
<path fill="none" stroke="#63b8ff" d="M346.38,-176.21C356.1,-173.42 366.07,-169 373.5,-162 406.37,-131.05 375.61,-96.83 409.5,-67 414.22,-62.85 419.69,-59.56 425.5,-56.97"/>
<polygon fill="#63b8ff" stroke="#63b8ff" points="426.66,-60.27 434.84,-53.53 424.25,-53.7 426.66,-60.27"/>
</a>
</g>
</g>
<!-- Node11 -->
<g id="Node000011" class="node">
<title>Node11</title>
<g id="a_Node000011"><a xlink:href="classWindow.html#a7f8803b32163553cf314fa01b703c9a8" target="_top" xlink:title="Prints the game UI.">
<polygon fill="white" stroke="#666666" points="533.12,-210 446.62,-210 446.62,-190 533.12,-190 533.12,-210"/>
<text text-anchor="middle" x="489.88" y="-196.5" font-family="Helvetica,sans-Serif" font-size="10.00">Window::printUI</text>
</a>
</g>
</g>
<!-- Node7&#45;&gt;Node11 -->
<g id="edge12_Node000007_Node000011" class="edge">
<title>Node7&#45;&gt;Node11</title>
<g id="a_edge12_Node000007_Node000011"><a xlink:title=" ">
<path fill="none" stroke="#63b8ff" d="M346.51,-184.66C371.6,-187.37 406.26,-191.1 435.1,-194.21"/>
<polygon fill="#63b8ff" stroke="#63b8ff" points="434.41,-197.65 444.73,-195.24 435.16,-190.69 434.41,-197.65"/>
</a>
</g>
</g>
<!-- Node13 -->
<g id="Node000013" class="node">
<title>Node13</title>
<g id="a_Node000013"><a xlink:href="classWindow.html#a3c38bfdaf7cb6ebcfdbcb40916a72bf7" target="_top" xlink:title="Refreshes the current window.">
<polygon fill="white" stroke="#666666" points="712.62,-172 608.12,-172 608.12,-152 712.62,-152 712.62,-172"/>
<text text-anchor="middle" x="660.38" y="-158.5" font-family="Helvetica,sans-Serif" font-size="10.00">Window::refreshWin</text>
</a>
</g>
</g>
<!-- Node7&#45;&gt;Node13 -->
<g id="edge15_Node000007_Node000013" class="edge">
<title>Node7&#45;&gt;Node13</title>
<g id="a_edge15_Node000007_Node000013"><a xlink:title=" ">
<path fill="none" stroke="#63b8ff" d="M346.39,-179.14C404.24,-175.97 522.9,-169.48 596.34,-165.45"/>
<polygon fill="#63b8ff" stroke="#63b8ff" points="596.42,-168.95 606.21,-164.91 596.04,-161.96 596.42,-168.95"/>
</a>
</g>
</g>
<!-- Node12 -->
<g id="Node000012" class="node">
<title>Node12</title>
<g id="a_Node000012"><a xlink:href="classWindow.html#aad6d9b11314512a7fbc775a3fef9ca1c" target="_top" xlink:title="Helper function for printing lives.">
<polygon fill="white" stroke="#666666" points="710,-210 610.75,-210 610.75,-190 710,-190 710,-210"/>
<text text-anchor="middle" x="660.38" y="-196.5" font-family="Helvetica,sans-Serif" font-size="10.00">Window::printLives</text>
</a>
</g>
</g>
<!-- Node11&#45;&gt;Node12 -->
<g id="edge13_Node000011_Node000012" class="edge">
<title>Node11&#45;&gt;Node12</title>
<g id="a_edge13_Node000011_Node000012"><a xlink:title=" ">
<path fill="none" stroke="#63b8ff" d="M533.39,-200C553.23,-200 577.19,-200 598.87,-200"/>
<polygon fill="#63b8ff" stroke="#63b8ff" points="598.78,-203.5 608.78,-200 598.78,-196.5 598.78,-203.5"/>
</a>
</g>
</g>
<!-- Node11&#45;&gt;Node13 -->
<g id="edge14_Node000011_Node000013" class="edge">
<title>Node11&#45;&gt;Node13</title>
<g id="a_edge14_Node000011_Node000013"><a xlink:title=" ">
<path fill="none" stroke="#63b8ff" d="M533.39,-190.41C554.16,-185.73 579.45,-180.02 601.91,-174.96"/>
<polygon fill="#63b8ff" stroke="#63b8ff" points="602.56,-178.4 611.54,-172.79 601.02,-171.57 602.56,-178.4"/>
</a>
</g>
</g>
<!-- Node14&#45;&gt;Node3 -->
<g id="edge17_Node000014_Node000003" class="edge">
<title>Node14&#45;&gt;Node3</title>
<g id="a_edge17_Node000014_Node000003"><a xlink:title=" ">
<path fill="none" stroke="#63b8ff" d="M344.85,-438.45C373.23,-447.63 414.71,-461.03 445.88,-471.1"/>
<polygon fill="#63b8ff" stroke="#63b8ff" points="444.4,-474.3 454.99,-474.05 446.55,-467.64 444.4,-474.3"/>
</a>
</g>
</g>
<!-- Node18 -->
<g id="Node000018" class="node">
<title>Node18</title>
<g id="a_Node000018"><a xlink:href="classMap.html#ab1c2595a555457c0a764a0530b57c0f9" target="_top" xlink:title="Helper function for validating map string.">
<polygon fill="white" stroke="#666666" points="536.88,-438 442.88,-438 442.88,-418 536.88,-418 536.88,-438"/>
<text text-anchor="middle" x="489.88" y="-424.5" font-family="Helvetica,sans-Serif" font-size="10.00">Map::processMap</text>
</a>
</g>
</g>
<!-- Node17&#45;&gt;Node18 -->
<g id="edge21_Node000017_Node000018" class="edge">
<title>Node17&#45;&gt;Node18</title>
<g id="a_edge21_Node000017_Node000018"><a xlink:title=" ">
<path fill="none" stroke="#63b8ff" d="M350.34,-398.15C373.98,-403.25 404.9,-409.91 431.52,-415.64"/>
<polygon fill="#63b8ff" stroke="#63b8ff" points="430.64,-419.03 441.15,-417.72 432.11,-412.19 430.64,-419.03"/>
</a>
</g>
</g>
<!-- Node19 -->
<g id="Node000019" class="node">
<title>Node19</title>
<g id="a_Node000019"><a xlink:href="classMap.html#a41b623a0d503b94bf8412ca06296ae1f" target="_top" xlink:title="Helper function for finding crossroads.">
<polygon fill="white" stroke="#666666" points="713.75,-400 607,-400 607,-380 713.75,-380 713.75,-400"/>
<text text-anchor="middle" x="660.38" y="-386.5" font-family="Helvetica,sans-Serif" font-size="10.00">Map::findCrossroads</text>
</a>
</g>
</g>
<!-- Node18&#45;&gt;Node19 -->
<g id="edge22_Node000018_Node000019" class="edge">
<title>Node18&#45;&gt;Node19</title>
<g id="a_edge22_Node000018_Node000019"><a xlink:title=" ">
<path fill="none" stroke="#63b8ff" d="M537.36,-417.52C557.35,-413.01 580.9,-407.7 601.96,-402.95"/>
<polygon fill="#63b8ff" stroke="#63b8ff" points="602.58,-406.4 611.56,-400.78 601.04,-399.57 602.58,-406.4"/>
</a>
</g>
</g>
<!-- Node21 -->
<g id="Node000021" class="node">
<title>Node21</title>
<g id="a_Node000021"><a xlink:href="classMap.html#ae96ad32d3b1600cd41e4a1c3b6a30906" target="_top" xlink:title="Checks if the map is traversable from the given position.">
<polygon fill="white" stroke="#666666" points="714.5,-476 606.25,-476 606.25,-456 714.5,-456 714.5,-476"/>
<text text-anchor="middle" x="660.38" y="-462.5" font-family="Helvetica,sans-Serif" font-size="10.00">Map::traversableBFS</text>
</a>
</g>
</g>
<!-- Node18&#45;&gt;Node21 -->
<g id="edge24_Node000018_Node000021" class="edge">
<title>Node18&#45;&gt;Node21</title>
<g id="a_edge24_Node000018_Node000021"><a xlink:title=" ">
<path fill="none" stroke="#63b8ff" d="M537.36,-438.48C557.35,-442.99 580.9,-448.3 601.96,-453.05"/>
<polygon fill="#63b8ff" stroke="#63b8ff" points="601.04,-456.43 611.56,-455.22 602.58,-449.6 601.04,-456.43"/>
</a>
</g>
</g>
<!-- Node22 -->
<g id="Node000022" class="node">
<title>Node22</title>
<g id="a_Node000022"><a xlink:href="classMap.html#ad35b3432f383ea258d0ed06fe937c3b9" target="_top" xlink:title="Helper function for validating the map borders.">
<polygon fill="white" stroke="#666666" points="711.88,-438 608.88,-438 608.88,-418 711.88,-418 711.88,-438"/>
<text text-anchor="middle" x="660.38" y="-424.5" font-family="Helvetica,sans-Serif" font-size="10.00">Map::validateBorder</text>
</a>
</g>
</g>
<!-- Node18&#45;&gt;Node22 -->
<g id="edge25_Node000018_Node000022" class="edge">
<title>Node18&#45;&gt;Node22</title>
<g id="a_edge25_Node000018_Node000022"><a xlink:title=" ">
<path fill="none" stroke="#63b8ff" d="M537.36,-428C555.85,-428 577.39,-428 597.19,-428"/>
<polygon fill="#63b8ff" stroke="#63b8ff" points="597.09,-431.5 607.09,-428 597.09,-424.5 597.09,-431.5"/>
</a>
</g>
</g>
<!-- Node20 -->
<g id="Node000020" class="node">
<title>Node20</title>
<g id="a_Node000020"><a xlink:href="classMap.html#a7d8219ae1c1ff2f45f7e11c5d03dcdb7" target="_top" xlink:title="Checks if given coordinates are a crossroad.">
<polygon fill="white" stroke="#666666" points="843.75,-400 750.5,-400 750.5,-380 843.75,-380 843.75,-400"/>
<text text-anchor="middle" x="797.12" y="-386.5" font-family="Helvetica,sans-Serif" font-size="10.00">Map::isCrossroad</text>
</a>
</g>
</g>
<!-- Node19&#45;&gt;Node20 -->
<g id="edge23_Node000019_Node000020" class="edge">
<title>Node19&#45;&gt;Node20</title>
<g id="a_edge23_Node000019_Node000020"><a xlink:title=" ">
<path fill="none" stroke="#63b8ff" d="M714.25,-390C722.36,-390 730.78,-390 738.98,-390"/>
<polygon fill="#63b8ff" stroke="#63b8ff" points="738.88,-393.5 748.88,-390 738.88,-386.5 738.88,-393.5"/>
</a>
</g>
</g>
<!-- Node23&#45;&gt;Node16 -->
<g id="edge29_Node000023_Node000016" class="edge">
<title>Node23&#45;&gt;Node16</title>
<g id="a_edge29_Node000023_Node000016"><a xlink:title=" ">
<path fill="none" stroke="#63b8ff" d="M345.54,-324.46C354.92,-328.1 364.91,-332.63 373.5,-338 391.91,-349.5 390.33,-360.81 409.5,-371 417.24,-375.11 425.88,-378.35 434.53,-380.89"/>
<polygon fill="#63b8ff" stroke="#63b8ff" points="433.39,-384.21 443.95,-383.37 435.17,-377.44 433.39,-384.21"/>
</a>
</g>
</g>
<!-- Node24 -->
<g id="Node000024" class="node">
<title>Node24</title>
<g id="a_Node000024"><a xlink:href="classGamePhase.html#a2597fc4aa3837ecc9146f29b18840855" target="_top" xlink:title="Adds an item to the remaining items.">
<polygon fill="white" stroke="#666666" points="545.5,-324 434.25,-324 434.25,-304 545.5,-304 545.5,-324"/>
<text text-anchor="middle" x="489.88" y="-310.5" font-family="Helvetica,sans-Serif" font-size="10.00">GamePhase::addItem</text>
</a>
</g>
</g>
<!-- Node23&#45;&gt;Node24 -->
<g id="edge27_Node000023_Node000024" class="edge">
<title>Node23&#45;&gt;Node24</title>
<g id="a_edge27_Node000023_Node000024"><a xlink:title=" ">
<path fill="none" stroke="#63b8ff" d="M361.63,-314C380.46,-314 402.27,-314 422.46,-314"/>
<polygon fill="#63b8ff" stroke="#63b8ff" points="422.29,-317.5 432.29,-314 422.29,-310.5 422.29,-317.5"/>
</a>
</g>
</g>
<!-- Node25 -->
<g id="Node000025" class="node">
<title>Node25</title>
<g id="a_Node000025"><a xlink:href="classMap.html#a44f2313ac9b9ba0b93a664e87c440613" target="_top" xlink:title="Gets the map.">
<polygon fill="white" stroke="#666666" points="526.38,-362 453.38,-362 453.38,-342 526.38,-342 526.38,-362"/>
<text text-anchor="middle" x="489.88" y="-348.5" font-family="Helvetica,sans-Serif" font-size="10.00">Map::getMap</text>
</a>
</g>
</g>
<!-- Node23&#45;&gt;Node25 -->
<g id="edge28_Node000023_Node000025" class="edge">
<title>Node23&#45;&gt;Node25</title>
<g id="a_edge28_Node000023_Node000025"><a xlink:title=" ">
<path fill="none" stroke="#63b8ff" d="M361.16,-324.48C386.36,-329.91 416.99,-336.51 441.94,-341.89"/>
<polygon fill="#63b8ff" stroke="#63b8ff" points="440.97,-345.26 451.48,-343.94 442.44,-338.42 440.97,-345.26"/>
</a>
</g>
</g>
<!-- Node27 -->
<g id="Node000027" class="node">
<title>Node27</title>
<g id="a_Node000027"><a xlink:href="classLeaderboard.html#aaf22ea54d8b0e7e5d2bf5c3b9dcbdee2" target="_top" xlink:title="Creates a save file.">
<polygon fill="white" stroke="#666666" points="552.25,-248 427.5,-248 427.5,-228 552.25,-228 552.25,-248"/>
<text text-anchor="middle" x="489.88" y="-234.5" font-family="Helvetica,sans-Serif" font-size="10.00">Leaderboard::createSave</text>
</a>
</g>
</g>
<!-- Node26&#45;&gt;Node27 -->
<g id="edge31_Node000026_Node000027" class="edge">
<title>Node26&#45;&gt;Node27</title>
<g id="a_edge31_Node000026_Node000027"><a xlink:title=" ">
<path fill="none" stroke="#63b8ff" d="M361.16,-265.52C382.27,-260.97 407.19,-255.6 429.39,-250.82"/>
<polygon fill="#63b8ff" stroke="#63b8ff" points="429.85,-254.3 438.89,-248.77 428.38,-247.45 429.85,-254.3"/>
</a>
</g>
</g>
<!-- Node28 -->
<g id="Node000028" class="node">
<title>Node28</title>
<g id="a_Node000028"><a xlink:href="classLeaderboard.html#a9d9d83737bf8412fa71cb1c238c059f6" target="_top" xlink:title="Reads a value from binary save file.">
<polygon fill="white" stroke="#666666" points="536.88,-286 442.88,-286 442.88,-266 536.88,-266 536.88,-286"/>
<text text-anchor="middle" x="489.88" y="-272.5" font-family="Helvetica,sans-Serif" font-size="10.00">Leaderboard::read</text>
</a>
</g>
</g>
<!-- Node26&#45;&gt;Node28 -->
<g id="edge32_Node000026_Node000028" class="edge">
<title>Node26&#45;&gt;Node28</title>
<g id="a_edge32_Node000026_Node000028"><a xlink:title=" ">
<path fill="none" stroke="#63b8ff" d="M373.69,-276C392.31,-276 412.7,-276 431.08,-276"/>
<polygon fill="#63b8ff" stroke="#63b8ff" points="431.02,-279.5 441.02,-276 431.02,-272.5 431.02,-279.5"/>
</a>
</g>
</g>
<!-- Node30 -->
<g id="Node000030" class="node">
<title>Node30</title>
<g id="a_Node000030"><a xlink:href="classGamePhase.html#a097fcd119e1cce98533b731f7e6ae53d" target="_top" xlink:title="Sets the time of the current phase.">
<polygon fill="white" stroke="#666666" points="559.38,-20 420.38,-20 420.38,0 559.38,0 559.38,-20"/>
<text text-anchor="middle" x="489.88" y="-6.5" font-family="Helvetica,sans-Serif" font-size="10.00">GamePhase::setPhaseTime</text>
</a>
</g>
</g>
<!-- Node29&#45;&gt;Node30 -->
<g id="edge35_Node000029_Node000030" class="edge">
<title>Node29&#45;&gt;Node30</title>
<g id="a_edge35_Node000029_Node000030"><a xlink:title=" ">
<path fill="none" stroke="#63b8ff" d="M322.52,-94.68C339.07,-78.23 373.86,-46.21 409.5,-29 413.23,-27.2 417.14,-25.56 421.14,-24.08"/>
<polygon fill="#63b8ff" stroke="#63b8ff" points="422.09,-27.45 430.46,-20.96 419.87,-20.81 422.09,-27.45"/>
</a>
</g>
</g>
</g>
</svg>
