<?xml version="1.0" encoding="UTF-8" standalone="no"?>
<!DOCTYPE svg PUBLIC "-//W3C//DTD SVG 1.1//EN"
 "http://www.w3.org/Graphics/SVG/1.1/DTD/svg11.dtd">
<!-- Generated by graphviz version 10.0.1 (0)
 -->
<!-- Title: Player::interactWith Pages: 1 -->
<svg width="285pt" height="66pt"
 viewBox="0.00 0.00 284.50 66.00" xmlns="http://www.w3.org/2000/svg" xmlns:xlink="http://www.w3.org/1999/xlink">
<g id="graph0" class="graph" transform="scale(1 1) rotate(0) translate(4 62)">
<title>Player::interactWith</title>
<!-- Node1 -->
<g id="Node000001" class="node">
<title>Node1</title>
<g id="a_Node000001"><a xlink:title="Interacts with another object.">
<polygon fill="#999999" stroke="#666666" points="102.25,-39 0,-39 0,-19 102.25,-19 102.25,-39"/>
<text text-anchor="middle" x="51.12" y="-25.5" font-family="Helvetica,sans-Serif" font-size="10.00">Player::interactWith</text>
</a>
</g>
</g>
<!-- Node2 -->
<g id="Node000002" class="node">
<title>Node2</title>
<g id="a_Node000002"><a xlink:href="classMovingObject.html#a0770fcf5def6da1bfeefb3a16e356ace" target="_top" xlink:title="Returns the object to its starting position.">
<polygon fill="white" stroke="#666666" points="276.5,-58 138.25,-58 138.25,-38 276.5,-38 276.5,-58"/>
<text text-anchor="middle" x="207.38" y="-44.5" font-family="Helvetica,sans-Serif" font-size="10.00">MovingObject::returnToStart</text>
</a>
</g>
</g>
<!-- Node1&#45;&gt;Node2 -->
<g id="edge1_Node000001_Node000002" class="edge">
<title>Node1&#45;&gt;Node2</title>
<g id="a_edge1_Node000001_Node000002"><a xlink:title=" ">
<path fill="none" stroke="#63b8ff" d="M102.63,-35.22C110.28,-36.16 118.32,-37.15 126.4,-38.15"/>
<polygon fill="#63b8ff" stroke="#63b8ff" points="125.97,-41.62 136.32,-39.37 126.82,-34.67 125.97,-41.62"/>
</a>
</g>
</g>
<!-- Node3 -->
<g id="Node000003" class="node">
<title>Node3</title>
<g id="a_Node000003"><a xlink:href="classMovingObject.html#a33153c83338df2d2aedf763b90dec282" target="_top" xlink:title="Takes one life from the object.">
<polygon fill="white" stroke="#666666" points="266.75,-20 148,-20 148,0 266.75,0 266.75,-20"/>
<text text-anchor="middle" x="207.38" y="-6.5" font-family="Helvetica,sans-Serif" font-size="10.00">MovingObject::takeLive</text>
</a>
</g>
</g>
<!-- Node1&#45;&gt;Node3 -->
<g id="edge2_Node000001_Node000003" class="edge">
<title>Node1&#45;&gt;Node3</title>
<g id="a_edge2_Node000001_Node000003"><a xlink:title=" ">
<path fill="none" stroke="#63b8ff" d="M102.63,-22.78C113.44,-21.45 125.04,-20.02 136.43,-18.62"/>
<polygon fill="#63b8ff" stroke="#63b8ff" points="136.72,-22.11 146.21,-17.41 135.86,-15.16 136.72,-22.11"/>
</a>
</g>
</g>
</g>
</svg>
