<?xml version="1.0" encoding="UTF-8" standalone="no"?>
<!DOCTYPE svg PUBLIC "-//W3C//DTD SVG 1.1//EN"
 "http://www.w3.org/Graphics/SVG/1.1/DTD/svg11.dtd">
<!-- Generated by graphviz version 10.0.1 (0)
 -->
<!-- Title: src/Coin.cpp Pages: 1 -->
<svg width="744pt" height="532pt"
 viewBox="0.00 0.00 744.00 532.00" xmlns="http://www.w3.org/2000/svg" xmlns:xlink="http://www.w3.org/1999/xlink">
<g id="graph0" class="graph" transform="scale(1 1) rotate(0) translate(4 528)">
<title>src/Coin.cpp</title>
<!-- Node1 -->
<g id="Node000001" class="node">
<title>Node1</title>
<g id="a_Node000001"><a xlink:title="Class representing a coin collectible.">
<polygon fill="#999999" stroke="#666666" points="213.75,-524 142.25,-524 142.25,-504 213.75,-504 213.75,-524"/>
<text text-anchor="middle" x="178" y="-510.5" font-family="Helvetica,sans-Serif" font-size="10.00">src/Coin.cpp</text>
</a>
</g>
</g>
<!-- Node2 -->
<g id="Node000002" class="node">
<title>Node2</title>
<g id="a_Node000002"><a xlink:href="Coin_8h.html" target="_top" xlink:title="Class representing a coin collectible.">
<polygon fill="white" stroke="#666666" points="200.25,-468 155.75,-468 155.75,-448 200.25,-448 200.25,-468"/>
<text text-anchor="middle" x="178" y="-454.5" font-family="Helvetica,sans-Serif" font-size="10.00">Coin.h</text>
</a>
</g>
</g>
<!-- Node1&#45;&gt;Node2 -->
<g id="edge1_Node000001_Node000002" class="edge">
<title>Node1&#45;&gt;Node2</title>
<g id="a_edge1_Node000001_Node000002"><a xlink:title=" ">
<path fill="none" stroke="#63b8ff" d="M178,-503.59C178,-497.01 178,-487.96 178,-479.73"/>
<polygon fill="#63b8ff" stroke="#63b8ff" points="181.5,-479.81 178,-469.81 174.5,-479.81 181.5,-479.81"/>
</a>
</g>
</g>
<!-- Node3 -->
<g id="Node000003" class="node">
<title>Node3</title>
<g id="a_Node000003"><a xlink:href="InteractiveObject_8h.html" target="_top" xlink:title="Base class for all interactive objects.">
<polygon fill="white" stroke="#666666" points="227.25,-412 128.75,-412 128.75,-392 227.25,-392 227.25,-412"/>
<text text-anchor="middle" x="178" y="-398.5" font-family="Helvetica,sans-Serif" font-size="10.00">InteractiveObject.h</text>
</a>
</g>
</g>
<!-- Node2&#45;&gt;Node3 -->
<g id="edge2_Node000002_Node000003" class="edge">
<title>Node2&#45;&gt;Node3</title>
<g id="a_edge2_Node000002_Node000003"><a xlink:title=" ">
<path fill="none" stroke="#63b8ff" d="M178,-447.59C178,-441.01 178,-431.96 178,-423.73"/>
<polygon fill="#63b8ff" stroke="#63b8ff" points="181.5,-423.81 178,-413.81 174.5,-423.81 181.5,-423.81"/>
</a>
</g>
</g>
<!-- Node4 -->
<g id="Node000004" class="node">
<title>Node4</title>
<g id="a_Node000004"><a xlink:href="GameObject_8h.html" target="_top" xlink:title="Base class for all game objects.">
<polygon fill="white" stroke="#666666" points="183.5,-244 104.5,-244 104.5,-224 183.5,-224 183.5,-244"/>
<text text-anchor="middle" x="144" y="-230.5" font-family="Helvetica,sans-Serif" font-size="10.00">GameObject.h</text>
</a>
</g>
</g>
<!-- Node3&#45;&gt;Node4 -->
<g id="edge3_Node000003_Node000004" class="edge">
<title>Node3&#45;&gt;Node4</title>
<g id="a_edge3_Node000003_Node000004"><a xlink:title=" ">
<path fill="none" stroke="#63b8ff" d="M176.07,-391.6C170.72,-365.46 155.57,-291.48 148.17,-255.36"/>
<polygon fill="#63b8ff" stroke="#63b8ff" points="151.64,-254.87 146.21,-245.78 144.79,-256.28 151.64,-254.87"/>
</a>
</g>
</g>
<!-- Node5 -->
<g id="Node000005" class="node">
<title>Node5</title>
<g id="a_Node000005"><a xlink:href="Enums_8h.html" target="_top" xlink:title=" ">
<polygon fill="white" stroke="#666666" points="289.5,-76 234.5,-76 234.5,-56 289.5,-56 289.5,-76"/>
<text text-anchor="middle" x="262" y="-62.5" font-family="Helvetica,sans-Serif" font-size="10.00">Enums.h</text>
</a>
</g>
</g>
<!-- Node3&#45;&gt;Node5 -->
<g id="edge9_Node000003_Node000005" class="edge">
<title>Node3&#45;&gt;Node5</title>
<g id="a_edge9_Node000003_Node000005"><a xlink:title=" ">
<path fill="none" stroke="#63b8ff" d="M128.42,-392.36C75.75,-379.99 0,-351.67 0,-291 0,-291 0,-291 0,-177 0,-81.44 150.02,-67.51 223.02,-66.4"/>
<polygon fill="#63b8ff" stroke="#63b8ff" points="222.97,-69.9 232.94,-66.33 222.92,-62.9 222.97,-69.9"/>
</a>
</g>
</g>
<!-- Node7 -->
<g id="Node000007" class="node">
<title>Node7</title>
<g id="a_Node000007"><a xlink:href="GamePhase_8h.html" target="_top" xlink:title="Handles the game phase and level.">
<polygon fill="white" stroke="#666666" points="255.12,-188 176.88,-188 176.88,-168 255.12,-168 255.12,-188"/>
<text text-anchor="middle" x="216" y="-174.5" font-family="Helvetica,sans-Serif" font-size="10.00">GamePhase.h</text>
</a>
</g>
</g>
<!-- Node3&#45;&gt;Node7 -->
<g id="edge34_Node000003_Node000007" class="edge">
<title>Node3&#45;&gt;Node7</title>
<g id="a_edge34_Node000003_Node000007"><a xlink:title=" ">
<path fill="none" stroke="#63b8ff" d="M179.58,-391.74C185.23,-358.74 204.48,-246.31 212.47,-199.61"/>
<polygon fill="#63b8ff" stroke="#63b8ff" points="215.92,-200.23 214.15,-189.79 209.02,-199.05 215.92,-200.23"/>
</a>
</g>
</g>
<!-- Node8 -->
<g id="Node000008" class="node">
<title>Node8</title>
<g id="a_Node000008"><a xlink:title=" ">
<polygon fill="#e0e0e0" stroke="#999999" points="101.62,-188 50.38,-188 50.38,-168 101.62,-168 101.62,-188"/>
<text text-anchor="middle" x="76" y="-174.5" font-family="Helvetica,sans-Serif" font-size="10.00">memory</text>
</a>
</g>
</g>
<!-- Node3&#45;&gt;Node8 -->
<g id="edge10_Node000003_Node000008" class="edge">
<title>Node3&#45;&gt;Node8</title>
<g id="a_edge10_Node000003_Node000008"><a xlink:title=" ">
<path fill="none" stroke="#63b8ff" d="M169.55,-391.62C149.37,-368.56 98.6,-306.41 79,-244 74.48,-229.61 73.86,-212.55 74.3,-199.52"/>
<polygon fill="#63b8ff" stroke="#63b8ff" points="77.79,-199.79 74.9,-189.59 70.8,-199.37 77.79,-199.79"/>
</a>
</g>
</g>
<!-- Node9 -->
<g id="Node000009" class="node">
<title>Node9</title>
<g id="a_Node000009"><a xlink:href="MovingObject_8h.html" target="_top" xlink:title="Base class for all moving objects.">
<polygon fill="white" stroke="#666666" points="327.12,-300 242.88,-300 242.88,-280 327.12,-280 327.12,-300"/>
<text text-anchor="middle" x="285" y="-286.5" font-family="Helvetica,sans-Serif" font-size="10.00">MovingObject.h</text>
</a>
</g>
</g>
<!-- Node3&#45;&gt;Node9 -->
<g id="edge11_Node000003_Node000009" class="edge">
<title>Node3&#45;&gt;Node9</title>
<g id="a_edge11_Node000003_Node000009"><a xlink:title=" ">
<path fill="none" stroke="#63b8ff" d="M188.53,-391.58C198.41,-382.63 213.5,-368.7 226,-356 241.14,-340.62 257.58,-322.36 269.26,-309.12"/>
<polygon fill="#63b8ff" stroke="#63b8ff" points="271.87,-311.44 275.83,-301.61 266.61,-306.83 271.87,-311.44"/>
</a>
</g>
</g>
<!-- Node17 -->
<g id="Node000017" class="node">
<title>Node17</title>
<g id="a_Node000017"><a xlink:href="Player_8h.html" target="_top" xlink:title="Represents a player.">
<polygon fill="white" stroke="#666666" points="374.62,-356 323.38,-356 323.38,-336 374.62,-336 374.62,-356"/>
<text text-anchor="middle" x="349" y="-342.5" font-family="Helvetica,sans-Serif" font-size="10.00">Player.h</text>
</a>
</g>
</g>
<!-- Node3&#45;&gt;Node17 -->
<g id="edge30_Node000003_Node000017" class="edge">
<title>Node3&#45;&gt;Node17</title>
<g id="a_edge30_Node000003_Node000017"><a xlink:title=" ">
<path fill="none" stroke="#63b8ff" d="M207.79,-391.59C236.76,-382.44 280.86,-368.52 312.05,-358.67"/>
<polygon fill="#63b8ff" stroke="#63b8ff" points="312.99,-362.04 321.47,-355.69 310.88,-355.37 312.99,-362.04"/>
</a>
</g>
</g>
<!-- Node4&#45;&gt;Node5 -->
<g id="edge4_Node000004_Node000005" class="edge">
<title>Node4&#45;&gt;Node5</title>
<g id="a_edge4_Node000004_Node000005"><a xlink:title=" ">
<path fill="none" stroke="#63b8ff" d="M146.2,-223.65C149.56,-210.54 156.78,-186.24 168,-168 188.56,-134.59 221.28,-102.59 242.19,-83.87"/>
<polygon fill="#63b8ff" stroke="#63b8ff" points="244.28,-86.7 249.48,-77.47 239.66,-81.44 244.28,-86.7"/>
</a>
</g>
</g>
<!-- Node4&#45;&gt;Node7 -->
<g id="edge6_Node000004_Node000007" class="edge">
<title>Node4&#45;&gt;Node7</title>
<g id="a_edge6_Node000004_Node000007"><a xlink:title=" ">
<path fill="none" stroke="#63b8ff" d="M156.54,-223.59C166.97,-215.77 182.05,-204.46 194.41,-195.19"/>
<polygon fill="#63b8ff" stroke="#63b8ff" points="196.49,-198.01 202.39,-189.21 192.29,-192.41 196.49,-198.01"/>
</a>
</g>
</g>
<!-- Node4&#45;&gt;Node8 -->
<g id="edge8_Node000004_Node000008" class="edge">
<title>Node4&#45;&gt;Node8</title>
<g id="a_edge8_Node000004_Node000008"><a xlink:title=" ">
<path fill="none" stroke="#63b8ff" d="M132.16,-223.59C122.31,-215.77 108.07,-204.46 96.39,-195.19"/>
<polygon fill="#63b8ff" stroke="#63b8ff" points="98.9,-192.72 88.89,-189.24 94.55,-198.2 98.9,-192.72"/>
</a>
</g>
</g>
<!-- Node6 -->
<g id="Node000006" class="node">
<title>Node6</title>
<g id="a_Node000006"><a xlink:title=" ">
<polygon fill="#e0e0e0" stroke="#999999" points="281.62,-20 242.38,-20 242.38,0 281.62,0 281.62,-20"/>
<text text-anchor="middle" x="262" y="-6.5" font-family="Helvetica,sans-Serif" font-size="10.00">utility</text>
</a>
</g>
</g>
<!-- Node5&#45;&gt;Node6 -->
<g id="edge5_Node000005_Node000006" class="edge">
<title>Node5&#45;&gt;Node6</title>
<g id="a_edge5_Node000005_Node000006"><a xlink:title=" ">
<path fill="none" stroke="#63b8ff" d="M262,-55.59C262,-49.01 262,-39.96 262,-31.73"/>
<polygon fill="#63b8ff" stroke="#63b8ff" points="265.5,-31.81 262,-21.81 258.5,-31.81 265.5,-31.81"/>
</a>
</g>
</g>
<!-- Node7&#45;&gt;Node5 -->
<g id="edge7_Node000007_Node000005" class="edge">
<title>Node7&#45;&gt;Node5</title>
<g id="a_edge7_Node000007_Node000005"><a xlink:title=" ">
<path fill="none" stroke="#63b8ff" d="M219.92,-167.62C227.39,-149.76 243.8,-110.53 253.77,-86.67"/>
<polygon fill="#63b8ff" stroke="#63b8ff" points="256.87,-88.33 257.5,-77.75 250.42,-85.63 256.87,-88.33"/>
</a>
</g>
</g>
<!-- Node9&#45;&gt;Node4 -->
<g id="edge12_Node000009_Node000004" class="edge">
<title>Node9&#45;&gt;Node4</title>
<g id="a_edge12_Node000009_Node000004"><a xlink:title=" ">
<path fill="none" stroke="#63b8ff" d="M260.44,-279.59C238.03,-271.01 204.66,-258.23 179.38,-248.55"/>
<polygon fill="#63b8ff" stroke="#63b8ff" points="180.76,-245.33 170.17,-245.02 178.25,-251.87 180.76,-245.33"/>
</a>
</g>
</g>
<!-- Node9&#45;&gt;Node5 -->
<g id="edge13_Node000009_Node000005" class="edge">
<title>Node9&#45;&gt;Node5</title>
<g id="a_edge13_Node000009_Node000005"><a xlink:title=" ">
<path fill="none" stroke="#63b8ff" d="M284.04,-279.74C280.62,-246.74 268.97,-134.31 264.13,-87.61"/>
<polygon fill="#63b8ff" stroke="#63b8ff" points="267.63,-87.39 263.12,-77.8 260.67,-88.11 267.63,-87.39"/>
</a>
</g>
</g>
<!-- Node9&#45;&gt;Node7 -->
<g id="edge29_Node000009_Node000007" class="edge">
<title>Node9&#45;&gt;Node7</title>
<g id="a_edge29_Node000009_Node000007"><a xlink:title=" ">
<path fill="none" stroke="#63b8ff" d="M279.12,-279.62C267.81,-261.6 242.86,-221.81 227.93,-198.02"/>
<polygon fill="#63b8ff" stroke="#63b8ff" points="230.95,-196.25 222.67,-189.64 225.02,-199.97 230.95,-196.25"/>
</a>
</g>
</g>
<!-- Node9&#45;&gt;Node8 -->
<g id="edge14_Node000009_Node000008" class="edge">
<title>Node9&#45;&gt;Node8</title>
<g id="a_edge14_Node000009_Node000008"><a xlink:title=" ">
<path fill="none" stroke="#63b8ff" d="M242.59,-283.95C193.28,-277.25 115.96,-263.9 95,-244 83,-232.6 78.45,-214.09 76.79,-199.73"/>
<polygon fill="#63b8ff" stroke="#63b8ff" points="80.29,-199.68 76.07,-189.97 73.31,-200.2 80.29,-199.68"/>
</a>
</g>
</g>
<!-- Node10 -->
<g id="Node000010" class="node">
<title>Node10</title>
<g id="a_Node000010"><a xlink:title=" ">
<polygon fill="#e0e0e0" stroke="#999999" points="403.88,-132 354.12,-132 354.12,-112 403.88,-112 403.88,-132"/>
<text text-anchor="middle" x="379" y="-118.5" font-family="Helvetica,sans-Serif" font-size="10.00">optional</text>
</a>
</g>
</g>
<!-- Node9&#45;&gt;Node10 -->
<g id="edge15_Node000009_Node000010" class="edge">
<title>Node9&#45;&gt;Node10</title>
<g id="a_edge15_Node000009_Node000010"><a xlink:title=" ">
<path fill="none" stroke="#63b8ff" d="M290.32,-279.6C305.32,-253.12 348.12,-177.54 368.27,-141.96"/>
<polygon fill="#63b8ff" stroke="#63b8ff" points="371.11,-144.04 372.99,-133.61 365.02,-140.59 371.11,-144.04"/>
</a>
</g>
</g>
<!-- Node11 -->
<g id="Node000011" class="node">
<title>Node11</title>
<g id="a_Node000011"><a xlink:href="Map_8h.html" target="_top" xlink:title="Class for handling the game map.">
<polygon fill="white" stroke="#666666" points="397.5,-244 354.5,-244 354.5,-224 397.5,-224 397.5,-244"/>
<text text-anchor="middle" x="376" y="-230.5" font-family="Helvetica,sans-Serif" font-size="10.00">Map.h</text>
</a>
</g>
</g>
<!-- Node9&#45;&gt;Node11 -->
<g id="edge16_Node000009_Node000011" class="edge">
<title>Node9&#45;&gt;Node11</title>
<g id="a_edge16_Node000009_Node000011"><a xlink:title=" ">
<path fill="none" stroke="#63b8ff" d="M300.85,-279.59C314.47,-271.51 334.36,-259.71 350.26,-250.27"/>
<polygon fill="#63b8ff" stroke="#63b8ff" points="351.91,-253.37 358.72,-245.25 348.34,-247.35 351.91,-253.37"/>
</a>
</g>
</g>
<!-- Node12 -->
<g id="Node000012" class="node">
<title>Node12</title>
<g id="a_Node000012"><a xlink:title=" ">
<polygon fill="#e0e0e0" stroke="#999999" points="699,-76 659,-76 659,-56 699,-56 699,-76"/>
<text text-anchor="middle" x="679" y="-62.5" font-family="Helvetica,sans-Serif" font-size="10.00">string</text>
</a>
</g>
</g>
<!-- Node11&#45;&gt;Node12 -->
<g id="edge17_Node000011_Node000012" class="edge">
<title>Node11&#45;&gt;Node12</title>
<g id="a_edge17_Node000011_Node000012"><a xlink:title=" ">
<path fill="none" stroke="#63b8ff" d="M397.65,-230.49C447.3,-223.67 570.62,-200.44 643,-132 656.33,-119.4 665.96,-100.74 671.88,-86.65"/>
<polygon fill="#63b8ff" stroke="#63b8ff" points="675.07,-88.11 675.44,-77.52 668.55,-85.57 675.07,-88.11"/>
</a>
</g>
</g>
<!-- Node13 -->
<g id="Node000013" class="node">
<title>Node13</title>
<g id="a_Node000013"><a xlink:title=" ">
<polygon fill="#e0e0e0" stroke="#999999" points="586.5,-76 543.5,-76 543.5,-56 586.5,-56 586.5,-76"/>
<text text-anchor="middle" x="565" y="-62.5" font-family="Helvetica,sans-Serif" font-size="10.00">vector</text>
</a>
</g>
</g>
<!-- Node11&#45;&gt;Node13 -->
<g id="edge18_Node000011_Node000013" class="edge">
<title>Node11&#45;&gt;Node13</title>
<g id="a_edge18_Node000011_Node000013"><a xlink:title=" ">
<path fill="none" stroke="#63b8ff" d="M368.75,-223.65C352.62,-201.65 317.3,-145.94 345,-112 368.19,-83.58 476.18,-72.63 531.75,-68.82"/>
<polygon fill="#63b8ff" stroke="#63b8ff" points="531.82,-72.32 541.58,-68.19 531.37,-65.33 531.82,-72.32"/>
</a>
</g>
</g>
<!-- Node14 -->
<g id="Node000014" class="node">
<title>Node14</title>
<g id="a_Node000014"><a xlink:href="Window_8h.html" target="_top" xlink:title="Class for handling ncurses windows.">
<polygon fill="white" stroke="#666666" points="518,-188 460,-188 460,-168 518,-168 518,-188"/>
<text text-anchor="middle" x="489" y="-174.5" font-family="Helvetica,sans-Serif" font-size="10.00">Window.h</text>
</a>
</g>
</g>
<!-- Node11&#45;&gt;Node14 -->
<g id="edge19_Node000011_Node000014" class="edge">
<title>Node11&#45;&gt;Node14</title>
<g id="a_edge19_Node000011_Node000014"><a xlink:title=" ">
<path fill="none" stroke="#63b8ff" d="M395.68,-223.59C413.16,-215.24 438.95,-202.92 459,-193.34"/>
<polygon fill="#63b8ff" stroke="#63b8ff" points="460.28,-196.6 467.8,-189.13 457.27,-190.29 460.28,-196.6"/>
</a>
</g>
</g>
<!-- Node14&#45;&gt;Node5 -->
<g id="edge24_Node000014_Node000005" class="edge">
<title>Node14&#45;&gt;Node5</title>
<g id="a_edge24_Node000014_Node000005"><a xlink:title=" ">
<path fill="none" stroke="#63b8ff" d="M480.58,-167.63C467.46,-153.59 440.75,-127.11 413,-112 377.37,-92.6 332.36,-80.58 300.78,-73.89"/>
<polygon fill="#63b8ff" stroke="#63b8ff" points="301.78,-70.52 291.28,-71.97 300.39,-77.39 301.78,-70.52"/>
</a>
</g>
</g>
<!-- Node14&#45;&gt;Node10 -->
<g id="edge22_Node000014_Node000010" class="edge">
<title>Node14&#45;&gt;Node10</title>
<g id="a_edge22_Node000014_Node000010"><a xlink:title=" ">
<path fill="none" stroke="#63b8ff" d="M469.84,-167.59C452.91,-159.28 427.95,-147.03 408.48,-137.47"/>
<polygon fill="#63b8ff" stroke="#63b8ff" points="410.19,-134.41 399.67,-133.15 407.1,-140.7 410.19,-134.41"/>
</a>
</g>
</g>
<!-- Node14&#45;&gt;Node12 -->
<g id="edge21_Node000014_Node000012" class="edge">
<title>Node14&#45;&gt;Node12</title>
<g id="a_edge21_Node000014_Node000012"><a xlink:title=" ">
<path fill="none" stroke="#63b8ff" d="M518.47,-171C545.86,-164.46 586.98,-152.17 618,-132 637.19,-119.53 654.56,-99.78 665.82,-85.32"/>
<polygon fill="#63b8ff" stroke="#63b8ff" points="668.47,-87.62 671.67,-77.52 662.87,-83.42 668.47,-87.62"/>
</a>
</g>
</g>
<!-- Node14&#45;&gt;Node13 -->
<g id="edge23_Node000014_Node000013" class="edge">
<title>Node14&#45;&gt;Node13</title>
<g id="a_edge23_Node000014_Node000013"><a xlink:title=" ">
<path fill="none" stroke="#63b8ff" d="M518.27,-174.45C545.34,-170.36 584.15,-159.71 603,-132 613.78,-116.16 599.76,-97.15 585.8,-83.79"/>
<polygon fill="#63b8ff" stroke="#63b8ff" points="588.28,-81.31 578.47,-77.29 583.63,-86.54 588.28,-81.31"/>
</a>
</g>
</g>
<!-- Node15 -->
<g id="Node000015" class="node">
<title>Node15</title>
<g id="a_Node000015"><a xlink:title=" ">
<polygon fill="#e0e0e0" stroke="#999999" points="518.38,-132 459.62,-132 459.62,-112 518.38,-112 518.38,-132"/>
<text text-anchor="middle" x="489" y="-118.5" font-family="Helvetica,sans-Serif" font-size="10.00">ncurses.h</text>
</a>
</g>
</g>
<!-- Node14&#45;&gt;Node15 -->
<g id="edge20_Node000014_Node000015" class="edge">
<title>Node14&#45;&gt;Node15</title>
<g id="a_edge20_Node000014_Node000015"><a xlink:title=" ">
<path fill="none" stroke="#63b8ff" d="M489,-167.59C489,-161.01 489,-151.96 489,-143.73"/>
<polygon fill="#63b8ff" stroke="#63b8ff" points="492.5,-143.81 489,-133.81 485.5,-143.81 492.5,-143.81"/>
</a>
</g>
</g>
<!-- Node16 -->
<g id="Node000016" class="node">
<title>Node16</title>
<g id="a_Node000016"><a xlink:href="Helpers_8h.html" target="_top" xlink:title=" ">
<polygon fill="white" stroke="#666666" points="594,-132 536,-132 536,-112 594,-112 594,-132"/>
<text text-anchor="middle" x="565" y="-118.5" font-family="Helvetica,sans-Serif" font-size="10.00">Helpers.h</text>
</a>
</g>
</g>
<!-- Node14&#45;&gt;Node16 -->
<g id="edge25_Node000014_Node000016" class="edge">
<title>Node14&#45;&gt;Node16</title>
<g id="a_edge25_Node000014_Node000016"><a xlink:title=" ">
<path fill="none" stroke="#63b8ff" d="M502.24,-167.59C513.29,-159.74 529.28,-148.38 542.36,-139.09"/>
<polygon fill="#63b8ff" stroke="#63b8ff" points="544.3,-142 550.42,-133.36 540.25,-136.3 544.3,-142"/>
</a>
</g>
</g>
<!-- Node16&#45;&gt;Node5 -->
<g id="edge26_Node000016_Node000005" class="edge">
<title>Node16&#45;&gt;Node5</title>
<g id="a_edge26_Node000016_Node000005"><a xlink:title=" ">
<path fill="none" stroke="#63b8ff" d="M535.58,-113.84C532.69,-113.19 529.79,-112.57 527,-112 447.24,-95.8 353.15,-80.79 301.29,-72.86"/>
<polygon fill="#63b8ff" stroke="#63b8ff" points="301.87,-69.41 291.46,-71.37 300.82,-76.33 301.87,-69.41"/>
</a>
</g>
</g>
<!-- Node16&#45;&gt;Node12 -->
<g id="edge27_Node000016_Node000012" class="edge">
<title>Node16&#45;&gt;Node12</title>
<g id="a_edge27_Node000016_Node000012"><a xlink:title=" ">
<path fill="none" stroke="#63b8ff" d="M584.86,-111.59C602.49,-103.24 628.51,-90.92 648.73,-81.34"/>
<polygon fill="#63b8ff" stroke="#63b8ff" points="650.08,-84.57 657.62,-77.13 647.08,-78.25 650.08,-84.57"/>
</a>
</g>
</g>
<!-- Node16&#45;&gt;Node13 -->
<g id="edge28_Node000016_Node000013" class="edge">
<title>Node16&#45;&gt;Node13</title>
<g id="a_edge28_Node000016_Node000013"><a xlink:title=" ">
<path fill="none" stroke="#63b8ff" d="M565,-111.59C565,-105.01 565,-95.96 565,-87.73"/>
<polygon fill="#63b8ff" stroke="#63b8ff" points="568.5,-87.81 565,-77.81 561.5,-87.81 568.5,-87.81"/>
</a>
</g>
</g>
<!-- Node17&#45;&gt;Node9 -->
<g id="edge31_Node000017_Node000009" class="edge">
<title>Node17&#45;&gt;Node9</title>
<g id="a_edge31_Node000017_Node000009"><a xlink:title=" ">
<path fill="none" stroke="#63b8ff" d="M337.85,-335.59C328.67,-327.85 315.45,-316.69 304.52,-307.47"/>
<polygon fill="#63b8ff" stroke="#63b8ff" points="307.08,-305.05 297.18,-301.27 302.56,-310.4 307.08,-305.05"/>
</a>
</g>
</g>
<!-- Node17&#45;&gt;Node11 -->
<g id="edge32_Node000017_Node000011" class="edge">
<title>Node17&#45;&gt;Node11</title>
<g id="a_edge32_Node000017_Node000011"><a xlink:title=" ">
<path fill="none" stroke="#63b8ff" d="M351.3,-335.62C355.65,-317.92 365.14,-279.24 371.01,-255.32"/>
<polygon fill="#63b8ff" stroke="#63b8ff" points="374.36,-256.37 373.34,-245.82 367.56,-254.7 374.36,-256.37"/>
</a>
</g>
</g>
<!-- Node17&#45;&gt;Node12 -->
<g id="edge33_Node000017_Node000012" class="edge">
<title>Node17&#45;&gt;Node12</title>
<g id="a_edge33_Node000017_Node000012"><a xlink:title=" ">
<path fill="none" stroke="#63b8ff" d="M374.99,-343.26C461.76,-336.76 736,-310.26 736,-235 736,-235 736,-235 736,-177 736,-141.35 712.11,-105.75 695.26,-85.08"/>
<polygon fill="#63b8ff" stroke="#63b8ff" points="698.03,-82.94 688.89,-77.6 692.7,-87.48 698.03,-82.94"/>
</a>
</g>
</g>
</g>
</svg>
