<?xml version="1.0" encoding="UTF-8" standalone="no"?>
<!DOCTYPE svg PUBLIC "-//W3C//DTD SVG 1.1//EN"
 "http://www.w3.org/Graphics/SVG/1.1/DTD/svg11.dtd">
<!-- Generated by graphviz version 2.43.0 (0)
 -->
<!-- Title: src/Config.h Pages: 1 -->
<svg width="174pt" height="84pt"
 viewBox="0.00 0.00 173.50 84.00" xmlns="http://www.w3.org/2000/svg" xmlns:xlink="http://www.w3.org/1999/xlink">
<g id="graph0" class="graph" transform="scale(1 1) rotate(0) translate(4 80)">
<title>src/Config.h</title>
<polygon fill="white" stroke="transparent" points="-4,4 -4,-80 169.5,-80 169.5,4 -4,4"/>
<!-- Node1 -->
<g id="node1" class="node">
<title>Node1</title>
<g id="a_node1"><a xlink:title="Class for handling the game configuration.">
<polygon fill="#bfbfbf" stroke="black" points="44,-56.5 44,-75.5 118,-75.5 118,-56.5 44,-56.5"/>
<text text-anchor="middle" x="81" y="-63.5" font-family="Helvetica,sans-Serif" font-size="10.00">src/Config.h</text>
</a>
</g>
</g>
<!-- Node2 -->
<g id="node2" class="node">
<title>Node2</title>
<g id="a_node2"><a xlink:title=" ">
<polygon fill="white" stroke="#bfbfbf" points="0,-0.5 0,-19.5 44,-19.5 44,-0.5 0,-0.5"/>
<text text-anchor="middle" x="22" y="-7.5" font-family="Helvetica,sans-Serif" font-size="10.00">string</text>
</a>
</g>
</g>
<!-- Node1&#45;&gt;Node2 -->
<g id="edge1" class="edge">
<title>Node1&#45;&gt;Node2</title>
<path fill="none" stroke="midnightblue" d="M71.52,-56.32C62.8,-48.34 49.66,-36.31 39.1,-26.65"/>
<polygon fill="midnightblue" stroke="midnightblue" points="41.39,-24 31.65,-19.83 36.67,-29.17 41.39,-24"/>
</g>
<!-- Node3 -->
<g id="node3" class="node">
<title>Node3</title>
<g id="a_node3"><a xlink:title=" ">
<polygon fill="white" stroke="#bfbfbf" points="62,-0.5 62,-19.5 100,-19.5 100,-0.5 62,-0.5"/>
<text text-anchor="middle" x="81" y="-7.5" font-family="Helvetica,sans-Serif" font-size="10.00">map</text>
</a>
</g>
</g>
<!-- Node1&#45;&gt;Node3 -->
<g id="edge2" class="edge">
<title>Node1&#45;&gt;Node3</title>
<path fill="none" stroke="midnightblue" d="M81,-56.08C81,-49.01 81,-38.86 81,-29.99"/>
<polygon fill="midnightblue" stroke="midnightblue" points="84.5,-29.75 81,-19.75 77.5,-29.75 84.5,-29.75"/>
</g>
<!-- Node4 -->
<g id="node4" class="node">
<title>Node4</title>
<g id="a_node4"><a xlink:title=" ">
<polygon fill="white" stroke="#bfbfbf" points="118.5,-0.5 118.5,-19.5 165.5,-19.5 165.5,-0.5 118.5,-0.5"/>
<text text-anchor="middle" x="142" y="-7.5" font-family="Helvetica,sans-Serif" font-size="10.00">vector</text>
</a>
</g>
</g>
<!-- Node1&#45;&gt;Node4 -->
<g id="edge3" class="edge">
<title>Node1&#45;&gt;Node4</title>
<path fill="none" stroke="midnightblue" d="M90.8,-56.32C99.82,-48.34 113.41,-36.31 124.32,-26.65"/>
<polygon fill="midnightblue" stroke="midnightblue" points="126.85,-29.08 132.02,-19.83 122.21,-23.84 126.85,-29.08"/>
</g>
</g>
</svg>
