<?xml version="1.0" encoding="UTF-8" standalone="no"?>
<!DOCTYPE svg PUBLIC "-//W3C//DTD SVG 1.1//EN"
 "http://www.w3.org/Graphics/SVG/1.1/DTD/svg11.dtd">
<!-- Generated by graphviz version 2.43.0 (0)
 -->
<!-- Title: src/Config.cpp Pages: 1 -->
<svg width="962pt" height="308pt"
 viewBox="0.00 0.00 962.00 308.00" xmlns="http://www.w3.org/2000/svg" xmlns:xlink="http://www.w3.org/1999/xlink">
<g id="graph0" class="graph" transform="scale(1 1) rotate(0) translate(4 304)">
<title>src/Config.cpp</title>
<polygon fill="white" stroke="transparent" points="-4,4 -4,-304 958,-304 958,4 -4,4"/>
<!-- Node1 -->
<g id="node1" class="node">
<title>Node1</title>
<g id="a_node1"><a xlink:title="Class for handling the game configuration.">
<polygon fill="#bfbfbf" stroke="black" points="567.5,-280.5 567.5,-299.5 652.5,-299.5 652.5,-280.5 567.5,-280.5"/>
<text text-anchor="middle" x="610" y="-287.5" font-family="Helvetica,sans-Serif" font-size="10.00">src/Config.cpp</text>
</a>
</g>
</g>
<!-- Node2 -->
<g id="node2" class="node">
<title>Node2</title>
<g id="a_node2"><a xlink:href="Config_8h.html" target="_top" xlink:title="Class for handling the game configuration.">
<polygon fill="white" stroke="black" points="0,-112.5 0,-131.5 56,-131.5 56,-112.5 0,-112.5"/>
<text text-anchor="middle" x="28" y="-119.5" font-family="Helvetica,sans-Serif" font-size="10.00">Config.h</text>
</a>
</g>
</g>
<!-- Node1&#45;&gt;Node2 -->
<g id="edge1" class="edge">
<title>Node1&#45;&gt;Node2</title>
<path fill="none" stroke="midnightblue" d="M567.31,-288.09C446.59,-285.14 108.97,-274.24 70,-244 38.18,-219.31 30.36,-168.99 28.51,-141.66"/>
<polygon fill="midnightblue" stroke="midnightblue" points="32,-141.32 28.03,-131.5 25.01,-141.65 32,-141.32"/>
</g>
<!-- Node3 -->
<g id="node3" class="node">
<title>Node3</title>
<g id="a_node3"><a xlink:title=" ">
<polygon fill="white" stroke="#bfbfbf" points="100,-56.5 100,-75.5 144,-75.5 144,-56.5 100,-56.5"/>
<text text-anchor="middle" x="122" y="-63.5" font-family="Helvetica,sans-Serif" font-size="10.00">string</text>
</a>
</g>
</g>
<!-- Node1&#45;&gt;Node3 -->
<g id="edge5" class="edge">
<title>Node1&#45;&gt;Node3</title>
<path fill="none" stroke="midnightblue" d="M567.29,-285.44C490.16,-277.53 324.3,-253.7 202,-188 167.51,-169.47 153.87,-165.74 134,-132 125.72,-117.94 122.94,-99.45 122.1,-85.78"/>
<polygon fill="midnightblue" stroke="midnightblue" points="125.59,-85.53 121.77,-75.64 118.59,-85.75 125.59,-85.53"/>
</g>
<!-- Node5 -->
<g id="node5" class="node">
<title>Node5</title>
<g id="a_node5"><a xlink:title=" ">
<polygon fill="white" stroke="#bfbfbf" points="450.5,-56.5 450.5,-75.5 497.5,-75.5 497.5,-56.5 450.5,-56.5"/>
<text text-anchor="middle" x="474" y="-63.5" font-family="Helvetica,sans-Serif" font-size="10.00">vector</text>
</a>
</g>
</g>
<!-- Node1&#45;&gt;Node5 -->
<g id="edge6" class="edge">
<title>Node1&#45;&gt;Node5</title>
<path fill="none" stroke="midnightblue" d="M600.82,-280.26C592,-271.58 578.64,-257.63 569,-244 530.47,-189.54 496.47,-117.63 481.75,-84.77"/>
<polygon fill="midnightblue" stroke="midnightblue" points="484.92,-83.27 477.67,-75.54 478.52,-86.1 484.92,-83.27"/>
</g>
<!-- Node6 -->
<g id="node6" class="node">
<title>Node6</title>
<g id="a_node6"><a xlink:title=" ">
<polygon fill="white" stroke="#bfbfbf" points="578,-224.5 578,-243.5 642,-243.5 642,-224.5 578,-224.5"/>
<text text-anchor="middle" x="610" y="-231.5" font-family="Helvetica,sans-Serif" font-size="10.00">algorithm</text>
</a>
</g>
</g>
<!-- Node1&#45;&gt;Node6 -->
<g id="edge7" class="edge">
<title>Node1&#45;&gt;Node6</title>
<path fill="none" stroke="midnightblue" d="M610,-280.08C610,-273.01 610,-262.86 610,-253.99"/>
<polygon fill="midnightblue" stroke="midnightblue" points="613.5,-253.75 610,-243.75 606.5,-253.75 613.5,-253.75"/>
</g>
<!-- Node7 -->
<g id="node7" class="node">
<title>Node7</title>
<g id="a_node7"><a xlink:title=" ">
<polygon fill="white" stroke="#bfbfbf" points="660.5,-224.5 660.5,-243.5 715.5,-243.5 715.5,-224.5 660.5,-224.5"/>
<text text-anchor="middle" x="688" y="-231.5" font-family="Helvetica,sans-Serif" font-size="10.00">fstream</text>
</a>
</g>
</g>
<!-- Node1&#45;&gt;Node7 -->
<g id="edge8" class="edge">
<title>Node1&#45;&gt;Node7</title>
<path fill="none" stroke="midnightblue" d="M622.53,-280.32C634.59,-271.98 653.03,-259.21 667.27,-249.35"/>
<polygon fill="midnightblue" stroke="midnightblue" points="669.27,-252.22 675.5,-243.65 665.28,-246.47 669.27,-252.22"/>
</g>
<!-- Node8 -->
<g id="node8" class="node">
<title>Node8</title>
<g id="a_node8"><a xlink:title=" ">
<polygon fill="white" stroke="#bfbfbf" points="734,-224.5 734,-243.5 794,-243.5 794,-224.5 734,-224.5"/>
<text text-anchor="middle" x="764" y="-231.5" font-family="Helvetica,sans-Serif" font-size="10.00">iostream</text>
</a>
</g>
</g>
<!-- Node1&#45;&gt;Node8 -->
<g id="edge9" class="edge">
<title>Node1&#45;&gt;Node8</title>
<path fill="none" stroke="midnightblue" d="M634.4,-280.44C660.2,-271.4 701.08,-257.06 730.02,-246.92"/>
<polygon fill="midnightblue" stroke="midnightblue" points="731.43,-250.13 739.71,-243.52 729.12,-243.52 731.43,-250.13"/>
</g>
<!-- Node9 -->
<g id="node9" class="node">
<title>Node9</title>
<g id="a_node9"><a xlink:title=" ">
<polygon fill="white" stroke="#bfbfbf" points="812,-224.5 812,-243.5 868,-243.5 868,-224.5 812,-224.5"/>
<text text-anchor="middle" x="840" y="-231.5" font-family="Helvetica,sans-Serif" font-size="10.00">sstream</text>
</a>
</g>
</g>
<!-- Node1&#45;&gt;Node9 -->
<g id="edge10" class="edge">
<title>Node1&#45;&gt;Node9</title>
<path fill="none" stroke="midnightblue" d="M647.02,-280.48C683.85,-271.98 742.21,-258.44 801.77,-244.28"/>
<polygon fill="midnightblue" stroke="midnightblue" points="802.81,-247.63 811.72,-241.91 801.19,-240.82 802.81,-247.63"/>
</g>
<!-- Node10 -->
<g id="node10" class="node">
<title>Node10</title>
<g id="a_node10"><a xlink:href="Map_8h.html" target="_top" xlink:title="Class for handling the game map.">
<polygon fill="white" stroke="black" points="393.5,-224.5 393.5,-243.5 440.5,-243.5 440.5,-224.5 393.5,-224.5"/>
<text text-anchor="middle" x="417" y="-231.5" font-family="Helvetica,sans-Serif" font-size="10.00">Map.h</text>
</a>
</g>
</g>
<!-- Node1&#45;&gt;Node10 -->
<g id="edge11" class="edge">
<title>Node1&#45;&gt;Node10</title>
<path fill="none" stroke="midnightblue" d="M579.42,-280.44C544.25,-270.6 486.7,-254.5 450.39,-244.34"/>
<polygon fill="midnightblue" stroke="midnightblue" points="451.32,-240.97 440.75,-241.64 449.43,-247.71 451.32,-240.97"/>
</g>
<!-- Node17 -->
<g id="node17" class="node">
<title>Node17</title>
<g id="a_node17"><a xlink:title=" ">
<polygon fill="white" stroke="#bfbfbf" points="886,-224.5 886,-243.5 954,-243.5 954,-224.5 886,-224.5"/>
<text text-anchor="middle" x="920" y="-231.5" font-family="Helvetica,sans-Serif" font-size="10.00">filesystem</text>
</a>
</g>
</g>
<!-- Node1&#45;&gt;Node17 -->
<g id="edge25" class="edge">
<title>Node1&#45;&gt;Node17</title>
<path fill="none" stroke="midnightblue" d="M652.64,-282.34C703.41,-274.3 791.02,-260.05 875.71,-244.19"/>
<polygon fill="midnightblue" stroke="midnightblue" points="876.58,-247.58 885.76,-242.29 875.28,-240.71 876.58,-247.58"/>
</g>
<!-- Node2&#45;&gt;Node3 -->
<g id="edge2" class="edge">
<title>Node2&#45;&gt;Node3</title>
<path fill="none" stroke="midnightblue" d="M43.1,-112.32C57.9,-103.82 80.69,-90.73 97.98,-80.8"/>
<polygon fill="midnightblue" stroke="midnightblue" points="100.01,-83.67 106.93,-75.65 96.52,-77.6 100.01,-83.67"/>
</g>
<!-- Node4 -->
<g id="node4" class="node">
<title>Node4</title>
<g id="a_node4"><a xlink:title=" ">
<polygon fill="white" stroke="#bfbfbf" points="9,-56.5 9,-75.5 47,-75.5 47,-56.5 9,-56.5"/>
<text text-anchor="middle" x="28" y="-63.5" font-family="Helvetica,sans-Serif" font-size="10.00">map</text>
</a>
</g>
</g>
<!-- Node2&#45;&gt;Node4 -->
<g id="edge3" class="edge">
<title>Node2&#45;&gt;Node4</title>
<path fill="none" stroke="midnightblue" d="M28,-112.08C28,-105.01 28,-94.86 28,-85.99"/>
<polygon fill="midnightblue" stroke="midnightblue" points="31.5,-85.75 28,-75.75 24.5,-85.75 31.5,-85.75"/>
</g>
<!-- Node2&#45;&gt;Node5 -->
<g id="edge4" class="edge">
<title>Node2&#45;&gt;Node5</title>
<path fill="none" stroke="midnightblue" d="M56.24,-117.58C134.74,-108.08 355.37,-81.36 440.19,-71.09"/>
<polygon fill="midnightblue" stroke="midnightblue" points="440.8,-74.55 450.31,-69.87 439.96,-67.6 440.8,-74.55"/>
</g>
<!-- Node10&#45;&gt;Node3 -->
<g id="edge12" class="edge">
<title>Node10&#45;&gt;Node3</title>
<path fill="none" stroke="midnightblue" d="M393.28,-230.09C342.67,-222.72 222.94,-198.86 152,-132 138.74,-119.5 130.83,-100 126.49,-85.61"/>
<polygon fill="midnightblue" stroke="midnightblue" points="129.83,-84.55 123.84,-75.81 123.07,-86.38 129.83,-84.55"/>
</g>
<!-- Node10&#45;&gt;Node5 -->
<g id="edge13" class="edge">
<title>Node10&#45;&gt;Node5</title>
<path fill="none" stroke="midnightblue" d="M423.86,-224.49C436.74,-207.9 464.13,-169.58 474,-132 477.99,-116.81 477.64,-98.91 476.49,-85.75"/>
<polygon fill="midnightblue" stroke="midnightblue" points="479.95,-85.14 475.36,-75.59 472.99,-85.92 479.95,-85.14"/>
</g>
<!-- Node11 -->
<g id="node11" class="node">
<title>Node11</title>
<g id="a_node11"><a xlink:href="Window_8h.html" target="_top" xlink:title="Class for handling ncurses windows.">
<polygon fill="white" stroke="black" points="304,-168.5 304,-187.5 368,-187.5 368,-168.5 304,-168.5"/>
<text text-anchor="middle" x="336" y="-175.5" font-family="Helvetica,sans-Serif" font-size="10.00">Window.h</text>
</a>
</g>
</g>
<!-- Node10&#45;&gt;Node11 -->
<g id="edge14" class="edge">
<title>Node10&#45;&gt;Node11</title>
<path fill="none" stroke="midnightblue" d="M403.99,-224.32C391.47,-215.98 372.32,-203.21 357.53,-193.35"/>
<polygon fill="midnightblue" stroke="midnightblue" points="359.24,-190.29 348.98,-187.65 355.36,-196.11 359.24,-190.29"/>
</g>
<!-- Node11&#45;&gt;Node3 -->
<g id="edge16" class="edge">
<title>Node11&#45;&gt;Node3</title>
<path fill="none" stroke="midnightblue" d="M303.73,-173.2C270.36,-168.08 217.8,-156.59 179,-132 159.66,-119.74 143.12,-99 132.92,-84.25"/>
<polygon fill="midnightblue" stroke="midnightblue" points="135.61,-81.97 127.17,-75.57 129.77,-85.84 135.61,-81.97"/>
</g>
<!-- Node11&#45;&gt;Node5 -->
<g id="edge18" class="edge">
<title>Node11&#45;&gt;Node5</title>
<path fill="none" stroke="midnightblue" d="M368.2,-172.85C395.01,-167.73 432.34,-156.48 455,-132 466.6,-119.47 471.15,-100.25 472.92,-85.95"/>
<polygon fill="midnightblue" stroke="midnightblue" points="476.43,-86.04 473.82,-75.77 469.45,-85.42 476.43,-86.04"/>
</g>
<!-- Node12 -->
<g id="node12" class="node">
<title>Node12</title>
<g id="a_node12"><a xlink:title=" ">
<polygon fill="white" stroke="#bfbfbf" points="382.5,-112.5 382.5,-131.5 445.5,-131.5 445.5,-112.5 382.5,-112.5"/>
<text text-anchor="middle" x="414" y="-119.5" font-family="Helvetica,sans-Serif" font-size="10.00">ncurses.h</text>
</a>
</g>
</g>
<!-- Node11&#45;&gt;Node12 -->
<g id="edge15" class="edge">
<title>Node11&#45;&gt;Node12</title>
<path fill="none" stroke="midnightblue" d="M348.53,-168.32C360.59,-159.98 379.03,-147.21 393.27,-137.35"/>
<polygon fill="midnightblue" stroke="midnightblue" points="395.27,-140.22 401.5,-131.65 391.28,-134.47 395.27,-140.22"/>
</g>
<!-- Node13 -->
<g id="node13" class="node">
<title>Node13</title>
<g id="a_node13"><a xlink:title=" ">
<polygon fill="white" stroke="#bfbfbf" points="308,-112.5 308,-131.5 364,-131.5 364,-112.5 308,-112.5"/>
<text text-anchor="middle" x="336" y="-119.5" font-family="Helvetica,sans-Serif" font-size="10.00">optional</text>
</a>
</g>
</g>
<!-- Node11&#45;&gt;Node13 -->
<g id="edge17" class="edge">
<title>Node11&#45;&gt;Node13</title>
<path fill="none" stroke="midnightblue" d="M336,-168.08C336,-161.01 336,-150.86 336,-141.99"/>
<polygon fill="midnightblue" stroke="midnightblue" points="339.5,-141.75 336,-131.75 332.5,-141.75 339.5,-141.75"/>
</g>
<!-- Node14 -->
<g id="node14" class="node">
<title>Node14</title>
<g id="a_node14"><a xlink:href="Enums_8h.html" target="_top" xlink:title=" ">
<polygon fill="white" stroke="black" points="220.5,-56.5 220.5,-75.5 279.5,-75.5 279.5,-56.5 220.5,-56.5"/>
<text text-anchor="middle" x="250" y="-63.5" font-family="Helvetica,sans-Serif" font-size="10.00">Enums.h</text>
</a>
</g>
</g>
<!-- Node11&#45;&gt;Node14 -->
<g id="edge19" class="edge">
<title>Node11&#45;&gt;Node14</title>
<path fill="none" stroke="midnightblue" d="M328.8,-168.46C321.26,-159.47 309.14,-144.87 299,-132 286.21,-115.76 272.04,-96.86 262.25,-83.64"/>
<polygon fill="midnightblue" stroke="midnightblue" points="264.99,-81.46 256.23,-75.5 259.36,-85.62 264.99,-81.46"/>
</g>
<!-- Node16 -->
<g id="node16" class="node">
<title>Node16</title>
<g id="a_node16"><a xlink:href="Helpers_8h.html" target="_top" xlink:title=" ">
<polygon fill="white" stroke="black" points="188.5,-112.5 188.5,-131.5 251.5,-131.5 251.5,-112.5 188.5,-112.5"/>
<text text-anchor="middle" x="220" y="-119.5" font-family="Helvetica,sans-Serif" font-size="10.00">Helpers.h</text>
</a>
</g>
</g>
<!-- Node11&#45;&gt;Node16 -->
<g id="edge21" class="edge">
<title>Node11&#45;&gt;Node16</title>
<path fill="none" stroke="midnightblue" d="M317.62,-168.44C298.78,-159.68 269.27,-145.94 247.62,-135.86"/>
<polygon fill="midnightblue" stroke="midnightblue" points="248.84,-132.56 238.29,-131.52 245.88,-138.91 248.84,-132.56"/>
</g>
<!-- Node15 -->
<g id="node15" class="node">
<title>Node15</title>
<g id="a_node15"><a xlink:title=" ">
<polygon fill="white" stroke="#bfbfbf" points="227.5,-0.5 227.5,-19.5 272.5,-19.5 272.5,-0.5 227.5,-0.5"/>
<text text-anchor="middle" x="250" y="-7.5" font-family="Helvetica,sans-Serif" font-size="10.00">utility</text>
</a>
</g>
</g>
<!-- Node14&#45;&gt;Node15 -->
<g id="edge20" class="edge">
<title>Node14&#45;&gt;Node15</title>
<path fill="none" stroke="midnightblue" d="M250,-56.08C250,-49.01 250,-38.86 250,-29.99"/>
<polygon fill="midnightblue" stroke="midnightblue" points="253.5,-29.75 250,-19.75 246.5,-29.75 253.5,-29.75"/>
</g>
<!-- Node16&#45;&gt;Node3 -->
<g id="edge23" class="edge">
<title>Node16&#45;&gt;Node3</title>
<path fill="none" stroke="midnightblue" d="M204.25,-112.32C188.68,-103.74 164.62,-90.49 146.54,-80.52"/>
<polygon fill="midnightblue" stroke="midnightblue" points="148.15,-77.42 137.71,-75.65 144.78,-83.55 148.15,-77.42"/>
</g>
<!-- Node16&#45;&gt;Node5 -->
<g id="edge24" class="edge">
<title>Node16&#45;&gt;Node5</title>
<path fill="none" stroke="midnightblue" d="M251.66,-114.27C299.83,-104.03 391.13,-84.62 440.42,-74.14"/>
<polygon fill="midnightblue" stroke="midnightblue" points="441.22,-77.55 450.27,-72.04 439.76,-70.7 441.22,-77.55"/>
</g>
<!-- Node16&#45;&gt;Node14 -->
<g id="edge22" class="edge">
<title>Node16&#45;&gt;Node14</title>
<path fill="none" stroke="midnightblue" d="M224.95,-112.08C229.1,-104.61 235.15,-93.72 240.27,-84.52"/>
<polygon fill="midnightblue" stroke="midnightblue" points="243.34,-86.19 245.14,-75.75 237.22,-82.79 243.34,-86.19"/>
</g>
</g>
</svg>
