<?xml version="1.0" encoding="UTF-8" standalone="no"?>
<!DOCTYPE svg PUBLIC "-//W3C//DTD SVG 1.1//EN"
 "http://www.w3.org/Graphics/SVG/1.1/DTD/svg11.dtd">
<!-- Generated by graphviz version 10.0.1 (0)
 -->
<!-- Title: src/Config.cpp Pages: 1 -->
<svg width="906pt" height="308pt"
 viewBox="0.00 0.00 905.88 308.00" xmlns="http://www.w3.org/2000/svg" xmlns:xlink="http://www.w3.org/1999/xlink">
<g id="graph0" class="graph" transform="scale(1 1) rotate(0) translate(4 304)">
<title>src/Config.cpp</title>
<!-- Node1 -->
<g id="Node000001" class="node">
<title>Node1</title>
<g id="a_Node000001"><a xlink:title="Class for handling the game configuration.">
<polygon fill="#999999" stroke="#666666" points="624.25,-300 544.5,-300 544.5,-280 624.25,-280 624.25,-300"/>
<text text-anchor="middle" x="584.38" y="-286.5" font-family="Helvetica,sans-Serif" font-size="10.00">src/Config.cpp</text>
</a>
</g>
</g>
<!-- Node2 -->
<g id="Node000002" class="node">
<title>Node2</title>
<g id="a_Node000002"><a xlink:href="Config_8h.html" target="_top" xlink:title="Class for handling the game configuration.">
<polygon fill="white" stroke="#666666" points="52.75,-132 0,-132 0,-112 52.75,-112 52.75,-132"/>
<text text-anchor="middle" x="26.38" y="-118.5" font-family="Helvetica,sans-Serif" font-size="10.00">Config.h</text>
</a>
</g>
</g>
<!-- Node1&#45;&gt;Node2 -->
<g id="edge1_Node000001_Node000002" class="edge">
<title>Node1&#45;&gt;Node2</title>
<g id="a_edge1_Node000001_Node000002"><a xlink:title=" ">
<path fill="none" stroke="#63b8ff" d="M544.22,-288.02C429.08,-284.87 103.59,-273.43 66.38,-244 35.81,-219.83 28.37,-171.65 26.7,-143.94"/>
<polygon fill="#63b8ff" stroke="#63b8ff" points="30.2,-143.86 26.33,-134 23.21,-144.12 30.2,-143.86"/>
</a>
</g>
</g>
<!-- Node3 -->
<g id="Node000003" class="node">
<title>Node3</title>
<g id="a_Node000003"><a xlink:title=" ">
<polygon fill="#e0e0e0" stroke="#999999" points="138.38,-76 98.38,-76 98.38,-56 138.38,-56 138.38,-76"/>
<text text-anchor="middle" x="118.38" y="-62.5" font-family="Helvetica,sans-Serif" font-size="10.00">string</text>
</a>
</g>
</g>
<!-- Node1&#45;&gt;Node3 -->
<g id="edge5_Node000001_Node000003" class="edge">
<title>Node1&#45;&gt;Node3</title>
<g id="a_edge5_Node000001_Node000003"><a xlink:title=" ">
<path fill="none" stroke="#63b8ff" d="M544.08,-285.33C470.55,-277.22 311.5,-253.02 195.38,-188 162.1,-169.37 149.36,-165.07 130.38,-132 122.67,-118.58 119.75,-101.25 118.72,-87.86"/>
<polygon fill="#63b8ff" stroke="#63b8ff" points="122.22,-87.84 118.27,-78 115.23,-88.15 122.22,-87.84"/>
</a>
</g>
</g>
<!-- Node5 -->
<g id="Node000005" class="node">
<title>Node5</title>
<g id="a_Node000005"><a xlink:title=" ">
<polygon fill="#e0e0e0" stroke="#999999" points="473.88,-76 430.88,-76 430.88,-56 473.88,-56 473.88,-76"/>
<text text-anchor="middle" x="452.38" y="-62.5" font-family="Helvetica,sans-Serif" font-size="10.00">vector</text>
</a>
</g>
</g>
<!-- Node1&#45;&gt;Node5 -->
<g id="edge6_Node000001_Node000005" class="edge">
<title>Node1&#45;&gt;Node5</title>
<g id="a_edge6_Node000001_Node000005"><a xlink:title=" ">
<path fill="none" stroke="#63b8ff" d="M575.87,-279.77C567.98,-270.95 556.16,-257.11 547.38,-244 510.91,-189.58 476.8,-119.72 461.23,-86.38"/>
<polygon fill="#63b8ff" stroke="#63b8ff" points="464.53,-85.18 457.16,-77.57 458.18,-88.12 464.53,-85.18"/>
</a>
</g>
</g>
<!-- Node6 -->
<g id="Node000006" class="node">
<title>Node6</title>
<g id="a_Node000006"><a xlink:title=" ">
<polygon fill="#e0e0e0" stroke="#999999" points="612.25,-244 556.5,-244 556.5,-224 612.25,-224 612.25,-244"/>
<text text-anchor="middle" x="584.38" y="-230.5" font-family="Helvetica,sans-Serif" font-size="10.00">algorithm</text>
</a>
</g>
</g>
<!-- Node1&#45;&gt;Node6 -->
<g id="edge7_Node000001_Node000006" class="edge">
<title>Node1&#45;&gt;Node6</title>
<g id="a_edge7_Node000001_Node000006"><a xlink:title=" ">
<path fill="none" stroke="#63b8ff" d="M584.38,-279.59C584.38,-273.01 584.38,-263.96 584.38,-255.73"/>
<polygon fill="#63b8ff" stroke="#63b8ff" points="587.88,-255.81 584.38,-245.81 580.88,-255.81 587.88,-255.81"/>
</a>
</g>
</g>
<!-- Node7 -->
<g id="Node000007" class="node">
<title>Node7</title>
<g id="a_Node000007"><a xlink:title=" ">
<polygon fill="#e0e0e0" stroke="#999999" points="678.88,-244 629.88,-244 629.88,-224 678.88,-224 678.88,-244"/>
<text text-anchor="middle" x="654.38" y="-230.5" font-family="Helvetica,sans-Serif" font-size="10.00">fstream</text>
</a>
</g>
</g>
<!-- Node1&#45;&gt;Node7 -->
<g id="edge8_Node000001_Node000007" class="edge">
<title>Node1&#45;&gt;Node7</title>
<g id="a_edge8_Node000001_Node000007"><a xlink:title=" ">
<path fill="none" stroke="#63b8ff" d="M596.57,-279.59C606.71,-271.77 621.37,-260.46 633.39,-251.19"/>
<polygon fill="#63b8ff" stroke="#63b8ff" points="635.34,-254.1 641.12,-245.22 631.07,-248.56 635.34,-254.1"/>
</a>
</g>
</g>
<!-- Node8 -->
<g id="Node000008" class="node">
<title>Node8</title>
<g id="a_Node000008"><a xlink:title=" ">
<polygon fill="#e0e0e0" stroke="#999999" points="750.12,-244 696.62,-244 696.62,-224 750.12,-224 750.12,-244"/>
<text text-anchor="middle" x="723.38" y="-230.5" font-family="Helvetica,sans-Serif" font-size="10.00">iostream</text>
</a>
</g>
</g>
<!-- Node1&#45;&gt;Node8 -->
<g id="edge9_Node000001_Node000008" class="edge">
<title>Node1&#45;&gt;Node8</title>
<g id="a_edge9_Node000001_Node000008"><a xlink:title=" ">
<path fill="none" stroke="#63b8ff" d="M608.59,-279.59C630.68,-271.01 663.57,-258.23 688.5,-248.55"/>
<polygon fill="#63b8ff" stroke="#63b8ff" points="689.51,-251.91 697.56,-245.03 686.97,-245.39 689.51,-251.91"/>
</a>
</g>
</g>
<!-- Node9 -->
<g id="Node000009" class="node">
<title>Node9</title>
<g id="a_Node000009"><a xlink:title=" ">
<polygon fill="#e0e0e0" stroke="#999999" points="819,-244 767.75,-244 767.75,-224 819,-224 819,-244"/>
<text text-anchor="middle" x="793.38" y="-230.5" font-family="Helvetica,sans-Serif" font-size="10.00">sstream</text>
</a>
</g>
</g>
<!-- Node1&#45;&gt;Node9 -->
<g id="edge10_Node000001_Node000009" class="edge">
<title>Node1&#45;&gt;Node9</title>
<g id="a_edge10_Node000001_Node000009"><a xlink:title=" ">
<path fill="none" stroke="#63b8ff" d="M621.61,-279.51C654.69,-271.05 704.67,-258.24 756.35,-244.78"/>
<polygon fill="#63b8ff" stroke="#63b8ff" points="757.13,-248.19 765.93,-242.28 755.37,-241.42 757.13,-248.19"/>
</a>
</g>
</g>
<!-- Node10 -->
<g id="Node000010" class="node">
<title>Node10</title>
<g id="a_Node000010"><a xlink:href="Map_8h.html" target="_top" xlink:title="Class for handling the game map.">
<polygon fill="white" stroke="#666666" points="421.88,-244 378.88,-244 378.88,-224 421.88,-224 421.88,-244"/>
<text text-anchor="middle" x="400.38" y="-230.5" font-family="Helvetica,sans-Serif" font-size="10.00">Map.h</text>
</a>
</g>
</g>
<!-- Node1&#45;&gt;Node10 -->
<g id="edge11_Node000001_Node000010" class="edge">
<title>Node1&#45;&gt;Node10</title>
<g id="a_edge11_Node000001_Node000010"><a xlink:title=" ">
<path fill="none" stroke="#63b8ff" d="M552.32,-279.59C518.84,-269.77 466.58,-254.43 432.91,-244.55"/>
<polygon fill="#63b8ff" stroke="#63b8ff" points="434.29,-241.31 423.71,-241.85 432.32,-248.02 434.29,-241.31"/>
</a>
</g>
</g>
<!-- Node17 -->
<g id="Node000017" class="node">
<title>Node17</title>
<g id="a_Node000017"><a xlink:title=" ">
<polygon fill="#e0e0e0" stroke="#999999" points="897.88,-244 836.88,-244 836.88,-224 897.88,-224 897.88,-244"/>
<text text-anchor="middle" x="867.38" y="-230.5" font-family="Helvetica,sans-Serif" font-size="10.00">filesystem</text>
</a>
</g>
</g>
<!-- Node1&#45;&gt;Node17 -->
<g id="edge25_Node000001_Node000017" class="edge">
<title>Node1&#45;&gt;Node17</title>
<g id="a_edge25_Node000001_Node000017"><a xlink:title=" ">
<path fill="none" stroke="#63b8ff" d="M624.64,-282.14C670.82,-274.14 749.11,-260.22 825.49,-244.53"/>
<polygon fill="#63b8ff" stroke="#63b8ff" points="826.18,-247.96 835.26,-242.51 824.76,-241.11 826.18,-247.96"/>
</a>
</g>
</g>
<!-- Node2&#45;&gt;Node3 -->
<g id="edge2_Node000002_Node000003" class="edge">
<title>Node2&#45;&gt;Node3</title>
<g id="a_edge2_Node000002_Node000003"><a xlink:title=" ">
<path fill="none" stroke="#63b8ff" d="M42.4,-111.59C56.17,-103.51 76.28,-91.71 92.35,-82.27"/>
<polygon fill="#63b8ff" stroke="#63b8ff" points="94.07,-85.33 100.92,-77.25 90.52,-79.29 94.07,-85.33"/>
</a>
</g>
</g>
<!-- Node4 -->
<g id="Node000004" class="node">
<title>Node4</title>
<g id="a_Node000004"><a xlink:title=" ">
<polygon fill="#e0e0e0" stroke="#999999" points="43.75,-76 9,-76 9,-56 43.75,-56 43.75,-76"/>
<text text-anchor="middle" x="26.38" y="-62.5" font-family="Helvetica,sans-Serif" font-size="10.00">map</text>
</a>
</g>
</g>
<!-- Node2&#45;&gt;Node4 -->
<g id="edge3_Node000002_Node000004" class="edge">
<title>Node2&#45;&gt;Node4</title>
<g id="a_edge3_Node000002_Node000004"><a xlink:title=" ">
<path fill="none" stroke="#63b8ff" d="M26.38,-111.59C26.38,-105.01 26.38,-95.96 26.38,-87.73"/>
<polygon fill="#63b8ff" stroke="#63b8ff" points="29.88,-87.81 26.38,-77.81 22.88,-87.81 29.88,-87.81"/>
</a>
</g>
</g>
<!-- Node2&#45;&gt;Node5 -->
<g id="edge4_Node000002_Node000005" class="edge">
<title>Node2&#45;&gt;Node5</title>
<g id="a_edge4_Node000002_Node000005"><a xlink:title=" ">
<path fill="none" stroke="#63b8ff" d="M53.02,-117.62C127.43,-108.19 337.29,-81.59 419.12,-71.22"/>
<polygon fill="#63b8ff" stroke="#63b8ff" points="419.47,-74.7 428.95,-69.97 418.59,-67.75 419.47,-74.7"/>
</a>
</g>
</g>
<!-- Node10&#45;&gt;Node3 -->
<g id="edge12_Node000010_Node000003" class="edge">
<title>Node10&#45;&gt;Node3</title>
<g id="a_edge12_Node000010_Node000003"><a xlink:title=" ">
<path fill="none" stroke="#63b8ff" d="M378.54,-229.85C330.83,-221.9 216.15,-196.84 148.38,-132 135.73,-119.91 127.92,-101.46 123.45,-87.3"/>
<polygon fill="#63b8ff" stroke="#63b8ff" points="126.83,-86.37 120.76,-77.69 120.09,-88.27 126.83,-86.37"/>
</a>
</g>
</g>
<!-- Node10&#45;&gt;Node5 -->
<g id="edge13_Node000010_Node000005" class="edge">
<title>Node10&#45;&gt;Node5</title>
<g id="a_edge13_Node000010_Node000005"><a xlink:title=" ">
<path fill="none" stroke="#63b8ff" d="M407.2,-223.58C419.18,-206.41 443.55,-168.42 452.38,-132 455.88,-117.52 455.77,-100.69 454.84,-87.79"/>
<polygon fill="#63b8ff" stroke="#63b8ff" points="458.34,-87.54 453.89,-77.93 451.37,-88.22 458.34,-87.54"/>
</a>
</g>
</g>
<!-- Node11 -->
<g id="Node000011" class="node">
<title>Node11</title>
<g id="a_Node000011"><a xlink:href="Window_8h.html" target="_top" xlink:title="Class for handling ncurses windows.">
<polygon fill="white" stroke="#666666" points="352.38,-188 294.38,-188 294.38,-168 352.38,-168 352.38,-188"/>
<text text-anchor="middle" x="323.38" y="-174.5" font-family="Helvetica,sans-Serif" font-size="10.00">Window.h</text>
</a>
</g>
</g>
<!-- Node10&#45;&gt;Node11 -->
<g id="edge14_Node000010_Node000011" class="edge">
<title>Node10&#45;&gt;Node11</title>
<g id="a_edge14_Node000010_Node000011"><a xlink:title=" ">
<path fill="none" stroke="#63b8ff" d="M386.96,-223.59C375.77,-215.74 359.56,-204.38 346.32,-195.09"/>
<polygon fill="#63b8ff" stroke="#63b8ff" points="348.33,-192.22 338.13,-189.35 344.31,-197.96 348.33,-192.22"/>
</a>
</g>
</g>
<!-- Node11&#45;&gt;Node3 -->
<g id="edge16_Node000011_Node000003" class="edge">
<title>Node11&#45;&gt;Node3</title>
<g id="a_edge16_Node000011_Node000003"><a xlink:title=" ">
<path fill="none" stroke="#63b8ff" d="M294.11,-172.99C262.71,-167.63 212.38,-155.88 175.38,-132 156.9,-120.08 140.91,-100.53 130.61,-85.97"/>
<polygon fill="#63b8ff" stroke="#63b8ff" points="133.51,-84.01 125,-77.69 127.71,-87.94 133.51,-84.01"/>
</a>
</g>
</g>
<!-- Node11&#45;&gt;Node5 -->
<g id="edge18_Node000011_Node000005" class="edge">
<title>Node11&#45;&gt;Node5</title>
<g id="a_edge18_Node000011_Node000005"><a xlink:title=" ">
<path fill="none" stroke="#63b8ff" d="M352.69,-172.29C377.54,-166.79 412.38,-155.3 433.38,-132 444.34,-119.83 449,-101.65 450.97,-87.61"/>
<polygon fill="#63b8ff" stroke="#63b8ff" points="454.45,-87.98 451.97,-77.67 447.48,-87.27 454.45,-87.98"/>
</a>
</g>
</g>
<!-- Node12 -->
<g id="Node000012" class="node">
<title>Node12</title>
<g id="a_Node000012"><a xlink:title=" ">
<polygon fill="#e0e0e0" stroke="#999999" points="424.75,-132 366,-132 366,-112 424.75,-112 424.75,-132"/>
<text text-anchor="middle" x="395.38" y="-118.5" font-family="Helvetica,sans-Serif" font-size="10.00">ncurses.h</text>
</a>
</g>
</g>
<!-- Node11&#45;&gt;Node12 -->
<g id="edge15_Node000011_Node000012" class="edge">
<title>Node11&#45;&gt;Node12</title>
<g id="a_edge15_Node000011_Node000012"><a xlink:title=" ">
<path fill="none" stroke="#63b8ff" d="M335.92,-167.59C346.34,-159.77 361.42,-148.46 373.79,-139.19"/>
<polygon fill="#63b8ff" stroke="#63b8ff" points="375.87,-142.01 381.77,-133.21 371.67,-136.41 375.87,-142.01"/>
</a>
</g>
</g>
<!-- Node13 -->
<g id="Node000013" class="node">
<title>Node13</title>
<g id="a_Node000013"><a xlink:title=" ">
<polygon fill="#e0e0e0" stroke="#999999" points="348.25,-132 298.5,-132 298.5,-112 348.25,-112 348.25,-132"/>
<text text-anchor="middle" x="323.38" y="-118.5" font-family="Helvetica,sans-Serif" font-size="10.00">optional</text>
</a>
</g>
</g>
<!-- Node11&#45;&gt;Node13 -->
<g id="edge17_Node000011_Node000013" class="edge">
<title>Node11&#45;&gt;Node13</title>
<g id="a_edge17_Node000011_Node000013"><a xlink:title=" ">
<path fill="none" stroke="#63b8ff" d="M323.38,-167.59C323.38,-161.01 323.38,-151.96 323.38,-143.73"/>
<polygon fill="#63b8ff" stroke="#63b8ff" points="326.88,-143.81 323.38,-133.81 319.88,-143.81 326.88,-143.81"/>
</a>
</g>
</g>
<!-- Node14 -->
<g id="Node000014" class="node">
<title>Node14</title>
<g id="a_Node000014"><a xlink:href="Enums_8h.html" target="_top" xlink:title=" ">
<polygon fill="white" stroke="#666666" points="268.88,-76 213.88,-76 213.88,-56 268.88,-56 268.88,-76"/>
<text text-anchor="middle" x="241.38" y="-62.5" font-family="Helvetica,sans-Serif" font-size="10.00">Enums.h</text>
</a>
</g>
</g>
<!-- Node11&#45;&gt;Node14 -->
<g id="edge19_Node000011_Node000014" class="edge">
<title>Node11&#45;&gt;Node14</title>
<g id="a_edge19_Node000011_Node000014"><a xlink:title=" ">
<path fill="none" stroke="#63b8ff" d="M316.31,-167.71C309.41,-158.63 298.63,-144.39 289.38,-132 277.6,-116.24 264.32,-98.24 254.72,-85.18"/>
<polygon fill="#63b8ff" stroke="#63b8ff" points="257.82,-83.49 249.08,-77.5 252.18,-87.63 257.82,-83.49"/>
</a>
</g>
</g>
<!-- Node16 -->
<g id="Node000016" class="node">
<title>Node16</title>
<g id="a_Node000016"><a xlink:href="Helpers_8h.html" target="_top" xlink:title=" ">
<polygon fill="white" stroke="#666666" points="242.38,-132 184.38,-132 184.38,-112 242.38,-112 242.38,-132"/>
<text text-anchor="middle" x="213.38" y="-118.5" font-family="Helvetica,sans-Serif" font-size="10.00">Helpers.h</text>
</a>
</g>
</g>
<!-- Node11&#45;&gt;Node16 -->
<g id="edge21_Node000011_Node000016" class="edge">
<title>Node11&#45;&gt;Node16</title>
<g id="a_edge21_Node000011_Node000016"><a xlink:title=" ">
<path fill="none" stroke="#63b8ff" d="M304.21,-167.59C287.28,-159.28 262.33,-147.03 242.85,-137.47"/>
<polygon fill="#63b8ff" stroke="#63b8ff" points="244.56,-134.41 234.04,-133.15 241.48,-140.7 244.56,-134.41"/>
</a>
</g>
</g>
<!-- Node15 -->
<g id="Node000015" class="node">
<title>Node15</title>
<g id="a_Node000015"><a xlink:title=" ">
<polygon fill="#e0e0e0" stroke="#999999" points="261,-20 221.75,-20 221.75,0 261,0 261,-20"/>
<text text-anchor="middle" x="241.38" y="-6.5" font-family="Helvetica,sans-Serif" font-size="10.00">utility</text>
</a>
</g>
</g>
<!-- Node14&#45;&gt;Node15 -->
<g id="edge20_Node000014_Node000015" class="edge">
<title>Node14&#45;&gt;Node15</title>
<g id="a_edge20_Node000014_Node000015"><a xlink:title=" ">
<path fill="none" stroke="#63b8ff" d="M241.38,-55.59C241.38,-49.01 241.38,-39.96 241.38,-31.73"/>
<polygon fill="#63b8ff" stroke="#63b8ff" points="244.88,-31.81 241.38,-21.81 237.88,-31.81 244.88,-31.81"/>
</a>
</g>
</g>
<!-- Node16&#45;&gt;Node3 -->
<g id="edge23_Node000016_Node000003" class="edge">
<title>Node16&#45;&gt;Node3</title>
<g id="a_edge23_Node000016_Node000003"><a xlink:title=" ">
<path fill="none" stroke="#63b8ff" d="M196.83,-111.59C182.48,-103.44 161.45,-91.48 144.77,-82"/>
<polygon fill="#63b8ff" stroke="#63b8ff" points="146.79,-79.13 136.37,-77.23 143.33,-85.21 146.79,-79.13"/>
</a>
</g>
</g>
<!-- Node16&#45;&gt;Node5 -->
<g id="edge24_Node000016_Node000005" class="edge">
<title>Node16&#45;&gt;Node5</title>
<g id="a_edge24_Node000016_Node000005"><a xlink:title=" ">
<path fill="none" stroke="#63b8ff" d="M242.68,-114.38C287.5,-104.25 372.77,-84.99 419.59,-74.41"/>
<polygon fill="#63b8ff" stroke="#63b8ff" points="420.15,-77.87 429.14,-72.25 418.61,-71.04 420.15,-77.87"/>
</a>
</g>
</g>
<!-- Node16&#45;&gt;Node14 -->
<g id="edge22_Node000016_Node000014" class="edge">
<title>Node16&#45;&gt;Node14</title>
<g id="a_edge22_Node000016_Node000014"><a xlink:title=" ">
<path fill="none" stroke="#63b8ff" d="M218.25,-111.59C221.87,-104.63 226.92,-94.89 231.37,-86.29"/>
<polygon fill="#63b8ff" stroke="#63b8ff" points="234.36,-88.13 235.86,-77.64 228.15,-84.91 234.36,-88.13"/>
</a>
</g>
</g>
</g>
</svg>
