<?xml version="1.0" encoding="UTF-8" standalone="no"?>
<!DOCTYPE svg PUBLIC "-//W3C//DTD SVG 1.1//EN"
 "http://www.w3.org/Graphics/SVG/1.1/DTD/svg11.dtd">
<!-- Generated by graphviz version 10.0.1 (0)
 -->
<!-- Title: src/Config.h Pages: 1 -->
<svg width="316pt" height="196pt"
 viewBox="0.00 0.00 316.00 196.00" xmlns="http://www.w3.org/2000/svg" xmlns:xlink="http://www.w3.org/1999/xlink">
<g id="graph0" class="graph" transform="scale(1 1) rotate(0) translate(4 192)">
<title>src/Config.h</title>
<!-- Node1 -->
<g id="Node000001" class="node">
<title>Node1</title>
<g id="a_Node000001"><a xlink:title="Class for handling the game configuration.">
<polygon fill="#999999" stroke="#666666" points="173.5,-188 104.25,-188 104.25,-168 173.5,-168 173.5,-188"/>
<text text-anchor="middle" x="138.88" y="-174.5" font-family="Helvetica,sans-Serif" font-size="10.00">src/Config.h</text>
</a>
</g>
</g>
<!-- Node2 -->
<g id="Node000002" class="node">
<title>Node2</title>
<g id="a_Node000002"><a xlink:href="Config_8cpp.html" target="_top" xlink:title="Class for handling the game configuration.">
<polygon fill="white" stroke="#666666" points="79.75,-132 0,-132 0,-112 79.75,-112 79.75,-132"/>
<text text-anchor="middle" x="39.88" y="-118.5" font-family="Helvetica,sans-Serif" font-size="10.00">src/Config.cpp</text>
</a>
</g>
</g>
<!-- Node1&#45;&gt;Node2 -->
<g id="edge1_Node000001_Node000002" class="edge">
<title>Node1&#45;&gt;Node2</title>
<g id="a_edge1_Node000001_Node000002"><a xlink:title=" ">
<path fill="none" stroke="#63b8ff" d="M112.01,-162.35C94.59,-152.84 72.39,-140.74 57.25,-132.48"/>
<polygon fill="#63b8ff" stroke="#63b8ff" points="109.85,-165.15 120.3,-166.87 113.2,-159.01 109.85,-165.15"/>
</a>
</g>
</g>
<!-- Node3 -->
<g id="Node000003" class="node">
<title>Node3</title>
<g id="a_Node000003"><a xlink:href="Game_8cpp.html" target="_top" xlink:title="Class for handling the game logic.">
<polygon fill="white" stroke="#666666" points="146.62,-76 69.12,-76 69.12,-56 146.62,-56 146.62,-76"/>
<text text-anchor="middle" x="107.88" y="-62.5" font-family="Helvetica,sans-Serif" font-size="10.00">src/Game.cpp</text>
</a>
</g>
</g>
<!-- Node1&#45;&gt;Node3 -->
<g id="edge2_Node000001_Node000003" class="edge">
<title>Node1&#45;&gt;Node3</title>
<g id="a_edge2_Node000001_Node000003"><a xlink:title=" ">
<path fill="none" stroke="#63b8ff" d="M133.14,-156.64C126.39,-132.72 115.49,-94.03 110.51,-76.35"/>
<polygon fill="#63b8ff" stroke="#63b8ff" points="129.74,-157.49 135.82,-166.16 136.48,-155.59 129.74,-157.49"/>
</a>
</g>
</g>
<!-- Node4 -->
<g id="Node000004" class="node">
<title>Node4</title>
<g id="a_Node000004"><a xlink:href="Game_8h.html" target="_top" xlink:title="Class for handling the game logic.">
<polygon fill="white" stroke="#666666" points="203.38,-132 136.38,-132 136.38,-112 203.38,-112 203.38,-132"/>
<text text-anchor="middle" x="169.88" y="-118.5" font-family="Helvetica,sans-Serif" font-size="10.00">src/Game.h</text>
</a>
</g>
</g>
<!-- Node1&#45;&gt;Node4 -->
<g id="edge3_Node000001_Node000004" class="edge">
<title>Node1&#45;&gt;Node4</title>
<g id="a_edge3_Node000001_Node000004"><a xlink:title=" ">
<path fill="none" stroke="#63b8ff" d="M149.86,-157.87C154.84,-149.19 160.51,-139.32 164.54,-132.3"/>
<polygon fill="#63b8ff" stroke="#63b8ff" points="146.97,-155.87 145.03,-166.28 153.04,-159.35 146.97,-155.87"/>
</a>
</g>
</g>
<!-- Node8 -->
<g id="Node000008" class="node">
<title>Node8</title>
<g id="a_Node000008"><a xlink:href="Window_8cpp.html" target="_top" xlink:title="Class for handling ncurses windows.">
<polygon fill="white" stroke="#666666" points="306.38,-132 221.38,-132 221.38,-112 306.38,-112 306.38,-132"/>
<text text-anchor="middle" x="263.88" y="-118.5" font-family="Helvetica,sans-Serif" font-size="10.00">src/Window.cpp</text>
</a>
</g>
</g>
<!-- Node1&#45;&gt;Node8 -->
<g id="edge8_Node000001_Node000008" class="edge">
<title>Node1&#45;&gt;Node8</title>
<g id="a_edge8_Node000001_Node000008"><a xlink:title=" ">
<path fill="none" stroke="#63b8ff" d="M170.96,-163.14C193.22,-153.52 222.28,-140.97 241.93,-132.48"/>
<polygon fill="#63b8ff" stroke="#63b8ff" points="169.83,-159.81 162.04,-166.99 172.61,-166.24 169.83,-159.81"/>
</a>
</g>
</g>
<!-- Node4&#45;&gt;Node3 -->
<g id="edge4_Node000004_Node000003" class="edge">
<title>Node4&#45;&gt;Node3</title>
<g id="a_edge4_Node000004_Node000003"><a xlink:title=" ">
<path fill="none" stroke="#63b8ff" d="M150.5,-104.13C139.96,-94.94 127.32,-83.93 118.55,-76.3"/>
<polygon fill="#63b8ff" stroke="#63b8ff" points="148.09,-106.67 157.93,-110.6 152.69,-101.39 148.09,-106.67"/>
</a>
</g>
</g>
<!-- Node5 -->
<g id="Node000005" class="node">
<title>Node5</title>
<g id="a_Node000005"><a xlink:href="GameManager_8h.html" target="_top" xlink:title="Handles the game loop and game states.">
<polygon fill="white" stroke="#666666" points="268.75,-76 165,-76 165,-56 268.75,-56 268.75,-76"/>
<text text-anchor="middle" x="216.88" y="-62.5" font-family="Helvetica,sans-Serif" font-size="10.00">src/GameManager.h</text>
</a>
</g>
</g>
<!-- Node4&#45;&gt;Node5 -->
<g id="edge5_Node000004_Node000005" class="edge">
<title>Node4&#45;&gt;Node5</title>
<g id="a_edge5_Node000004_Node000005"><a xlink:title=" ">
<path fill="none" stroke="#63b8ff" d="M185.54,-103C193.32,-94.06 202.41,-83.62 208.78,-76.3"/>
<polygon fill="#63b8ff" stroke="#63b8ff" points="182.98,-100.61 179.06,-110.45 188.26,-105.21 182.98,-100.61"/>
</a>
</g>
</g>
<!-- Node6 -->
<g id="Node000006" class="node">
<title>Node6</title>
<g id="a_Node000006"><a xlink:href="GameManager_8cpp.html" target="_top" xlink:title="Handles the game loop and game states.">
<polygon fill="white" stroke="#666666" points="218,-20 103.75,-20 103.75,0 218,0 218,-20"/>
<text text-anchor="middle" x="160.88" y="-6.5" font-family="Helvetica,sans-Serif" font-size="10.00">src/GameManager.cpp</text>
</a>
</g>
</g>
<!-- Node5&#45;&gt;Node6 -->
<g id="edge6_Node000005_Node000006" class="edge">
<title>Node5&#45;&gt;Node6</title>
<g id="a_edge6_Node000005_Node000006"><a xlink:title=" ">
<path fill="none" stroke="#63b8ff" d="M199.09,-47.85C189.62,-38.72 178.35,-27.86 170.52,-20.3"/>
<polygon fill="#63b8ff" stroke="#63b8ff" points="196.4,-50.12 206.03,-54.54 201.26,-45.08 196.4,-50.12"/>
</a>
</g>
</g>
<!-- Node7 -->
<g id="Node000007" class="node">
<title>Node7</title>
<g id="a_Node000007"><a xlink:href="main_8cpp.html" target="_top" xlink:title="Main function, initializes the game manager.">
<polygon fill="white" stroke="#666666" points="308,-20 235.75,-20 235.75,0 308,0 308,-20"/>
<text text-anchor="middle" x="271.88" y="-6.5" font-family="Helvetica,sans-Serif" font-size="10.00">src/main.cpp</text>
</a>
</g>
</g>
<!-- Node5&#45;&gt;Node7 -->
<g id="edge7_Node000005_Node000007" class="edge">
<title>Node5&#45;&gt;Node7</title>
<g id="a_edge7_Node000005_Node000007"><a xlink:title=" ">
<path fill="none" stroke="#63b8ff" d="M234.63,-47.57C243.87,-38.5 254.79,-27.78 262.4,-20.3"/>
<polygon fill="#63b8ff" stroke="#63b8ff" points="232.22,-45.03 227.54,-54.53 237.12,-50.03 232.22,-45.03"/>
</a>
</g>
</g>
</g>
</svg>
