<?xml version="1.0" encoding="UTF-8" standalone="no"?>
<!DOCTYPE svg PUBLIC "-//W3C//DTD SVG 1.1//EN"
 "http://www.w3.org/Graphics/SVG/1.1/DTD/svg11.dtd">
<!-- Generated by graphviz version 10.0.1 (0)
 -->
<!-- Title: src/EnemyBehavior.cpp Pages: 1 -->
<svg width="544pt" height="420pt"
 viewBox="0.00 0.00 544.00 420.00" xmlns="http://www.w3.org/2000/svg" xmlns:xlink="http://www.w3.org/1999/xlink">
<g id="graph0" class="graph" transform="scale(1 1) rotate(0) translate(4 416)">
<title>src/EnemyBehavior.cpp</title>
<!-- Node1 -->
<g id="Node000001" class="node">
<title>Node1</title>
<g id="a_Node000001"><a xlink:title="Base class for all enemy behaviors.">
<polygon fill="#999999" stroke="#666666" points="490.75,-412 371.25,-412 371.25,-392 490.75,-392 490.75,-412"/>
<text text-anchor="middle" x="431" y="-398.5" font-family="Helvetica,sans-Serif" font-size="10.00">src/EnemyBehavior.cpp</text>
</a>
</g>
</g>
<!-- Node2 -->
<g id="Node000002" class="node">
<title>Node2</title>
<g id="a_Node000002"><a xlink:href="EnemyBehavior_8h.html" target="_top" xlink:title="Base class for all enemy behaviors.">
<polygon fill="white" stroke="#666666" points="338.25,-356 245.75,-356 245.75,-336 338.25,-336 338.25,-356"/>
<text text-anchor="middle" x="292" y="-342.5" font-family="Helvetica,sans-Serif" font-size="10.00">EnemyBehavior.h</text>
</a>
</g>
</g>
<!-- Node1&#45;&gt;Node2 -->
<g id="edge1_Node000001_Node000002" class="edge">
<title>Node1&#45;&gt;Node2</title>
<g id="a_edge1_Node000001_Node000002"><a xlink:title=" ">
<path fill="none" stroke="#63b8ff" d="M406.79,-391.59C384.7,-383.01 351.8,-370.23 326.88,-360.55"/>
<polygon fill="#63b8ff" stroke="#63b8ff" points="328.4,-357.39 317.81,-357.03 325.87,-363.91 328.4,-357.39"/>
</a>
</g>
</g>
<!-- Node9 -->
<g id="Node000009" class="node">
<title>Node9</title>
<g id="a_Node000009"><a xlink:href="Enums_8h.html" target="_top" xlink:title=" ">
<polygon fill="white" stroke="#666666" points="353.5,-76 298.5,-76 298.5,-56 353.5,-56 353.5,-76"/>
<text text-anchor="middle" x="326" y="-62.5" font-family="Helvetica,sans-Serif" font-size="10.00">Enums.h</text>
</a>
</g>
</g>
<!-- Node1&#45;&gt;Node9 -->
<g id="edge29_Node000001_Node000009" class="edge">
<title>Node1&#45;&gt;Node9</title>
<g id="a_edge29_Node000001_Node000009"><a xlink:title=" ">
<path fill="none" stroke="#63b8ff" d="M450.75,-391.58C481.17,-375.54 536,-339.84 536,-291 536,-291 536,-291 536,-177 536,-100.64 425.69,-77.18 364.97,-70.06"/>
<polygon fill="#63b8ff" stroke="#63b8ff" points="365.71,-66.62 355.39,-69.03 364.96,-73.58 365.71,-66.62"/>
</a>
</g>
</g>
<!-- Node3 -->
<g id="Node000003" class="node">
<title>Node3</title>
<g id="a_Node000003"><a xlink:href="Map_8h.html" target="_top" xlink:title="Class for handling the game map.">
<polygon fill="white" stroke="#666666" points="152.5,-244 109.5,-244 109.5,-224 152.5,-224 152.5,-244"/>
<text text-anchor="middle" x="131" y="-230.5" font-family="Helvetica,sans-Serif" font-size="10.00">Map.h</text>
</a>
</g>
</g>
<!-- Node2&#45;&gt;Node3 -->
<g id="edge2_Node000002_Node000003" class="edge">
<title>Node2&#45;&gt;Node3</title>
<g id="a_edge2_Node000002_Node000003"><a xlink:title=" ">
<path fill="none" stroke="#63b8ff" d="M245.46,-336.62C220,-330.12 189.22,-318.91 167,-300 153.03,-288.11 143.48,-269.38 137.74,-255.07"/>
<polygon fill="#63b8ff" stroke="#63b8ff" points="141.05,-253.94 134.33,-245.76 134.48,-256.35 141.05,-253.94"/>
</a>
</g>
</g>
<!-- Node2&#45;&gt;Node9 -->
<g id="edge16_Node000002_Node000009" class="edge">
<title>Node2&#45;&gt;Node9</title>
<g id="a_edge16_Node000002_Node000009"><a xlink:title=" ">
<path fill="none" stroke="#63b8ff" d="M338.74,-340.54C399.52,-331.88 498,-306.76 498,-235 498,-235 498,-235 498,-177 498,-114.19 415.59,-85.63 364.86,-74"/>
<polygon fill="#63b8ff" stroke="#63b8ff" points="365.63,-70.58 355.11,-71.9 364.15,-77.43 365.63,-70.58"/>
</a>
</g>
</g>
<!-- Node12 -->
<g id="Node000012" class="node">
<title>Node12</title>
<g id="a_Node000012"><a xlink:title=" ">
<polygon fill="#e0e0e0" stroke="#999999" points="297.62,-188 246.38,-188 246.38,-168 297.62,-168 297.62,-188"/>
<text text-anchor="middle" x="272" y="-174.5" font-family="Helvetica,sans-Serif" font-size="10.00">memory</text>
</a>
</g>
</g>
<!-- Node2&#45;&gt;Node12 -->
<g id="edge17_Node000002_Node000012" class="edge">
<title>Node2&#45;&gt;Node12</title>
<g id="a_edge17_Node000002_Node000012"><a xlink:title=" ">
<path fill="none" stroke="#63b8ff" d="M275.27,-335.6C263.26,-327.8 247.99,-315.5 241,-300 225.54,-265.74 245.23,-222.39 259.56,-197.98"/>
<polygon fill="#63b8ff" stroke="#63b8ff" points="262.36,-200.11 264.64,-189.76 256.4,-196.43 262.36,-200.11"/>
</a>
</g>
</g>
<!-- Node13 -->
<g id="Node000013" class="node">
<title>Node13</title>
<g id="a_Node000013"><a xlink:href="MovingObject_8h.html" target="_top" xlink:title="Base class for all moving objects.">
<polygon fill="white" stroke="#666666" points="334.12,-300 249.88,-300 249.88,-280 334.12,-280 334.12,-300"/>
<text text-anchor="middle" x="292" y="-286.5" font-family="Helvetica,sans-Serif" font-size="10.00">MovingObject.h</text>
</a>
</g>
</g>
<!-- Node2&#45;&gt;Node13 -->
<g id="edge18_Node000002_Node000013" class="edge">
<title>Node2&#45;&gt;Node13</title>
<g id="a_edge18_Node000002_Node000013"><a xlink:title=" ">
<path fill="none" stroke="#63b8ff" d="M292,-335.59C292,-329.01 292,-319.96 292,-311.73"/>
<polygon fill="#63b8ff" stroke="#63b8ff" points="295.5,-311.81 292,-301.81 288.5,-311.81 295.5,-311.81"/>
</a>
</g>
</g>
<!-- Node4 -->
<g id="Node000004" class="node">
<title>Node4</title>
<g id="a_Node000004"><a xlink:title=" ">
<polygon fill="#e0e0e0" stroke="#999999" points="40,-76 0,-76 0,-56 40,-56 40,-76"/>
<text text-anchor="middle" x="20" y="-62.5" font-family="Helvetica,sans-Serif" font-size="10.00">string</text>
</a>
</g>
</g>
<!-- Node3&#45;&gt;Node4 -->
<g id="edge3_Node000003_Node000004" class="edge">
<title>Node3&#45;&gt;Node4</title>
<g id="a_edge3_Node000003_Node000004"><a xlink:title=" ">
<path fill="none" stroke="#63b8ff" d="M109.2,-224.14C93.13,-216.63 71.75,-204.45 58,-188 33.48,-158.68 24.74,-113.48 21.66,-87.43"/>
<polygon fill="#63b8ff" stroke="#63b8ff" points="25.17,-87.44 20.7,-77.83 18.21,-88.13 25.17,-87.44"/>
</a>
</g>
</g>
<!-- Node5 -->
<g id="Node000005" class="node">
<title>Node5</title>
<g id="a_Node000005"><a xlink:title=" ">
<polygon fill="#e0e0e0" stroke="#999999" points="101.5,-76 58.5,-76 58.5,-56 101.5,-56 101.5,-76"/>
<text text-anchor="middle" x="80" y="-62.5" font-family="Helvetica,sans-Serif" font-size="10.00">vector</text>
</a>
</g>
</g>
<!-- Node3&#45;&gt;Node5 -->
<g id="edge4_Node000003_Node000005" class="edge">
<title>Node3&#45;&gt;Node5</title>
<g id="a_edge4_Node000003_Node000005"><a xlink:title=" ">
<path fill="none" stroke="#63b8ff" d="M117.98,-223.63C97.01,-207.64 56.55,-172.82 41,-132 34.31,-114.45 47.21,-96.26 59.93,-83.6"/>
<polygon fill="#63b8ff" stroke="#63b8ff" points="61.93,-86.51 66.94,-77.17 57.2,-81.35 61.93,-86.51"/>
</a>
</g>
</g>
<!-- Node6 -->
<g id="Node000006" class="node">
<title>Node6</title>
<g id="a_Node000006"><a xlink:href="Window_8h.html" target="_top" xlink:title="Class for handling ncurses windows.">
<polygon fill="white" stroke="#666666" points="165,-188 107,-188 107,-168 165,-168 165,-188"/>
<text text-anchor="middle" x="136" y="-174.5" font-family="Helvetica,sans-Serif" font-size="10.00">Window.h</text>
</a>
</g>
</g>
<!-- Node3&#45;&gt;Node6 -->
<g id="edge5_Node000003_Node000006" class="edge">
<title>Node3&#45;&gt;Node6</title>
<g id="a_edge5_Node000003_Node000006"><a xlink:title=" ">
<path fill="none" stroke="#63b8ff" d="M131.87,-223.59C132.48,-217.01 133.32,-207.96 134.08,-199.73"/>
<polygon fill="#63b8ff" stroke="#63b8ff" points="137.56,-200.09 135,-189.81 130.59,-199.44 137.56,-200.09"/>
</a>
</g>
</g>
<!-- Node6&#45;&gt;Node4 -->
<g id="edge7_Node000006_Node000004" class="edge">
<title>Node6&#45;&gt;Node4</title>
<g id="a_edge7_Node000006_Node000004"><a xlink:title=" ">
<path fill="none" stroke="#63b8ff" d="M106.88,-169.9C85.84,-163.36 58.22,-151.61 41,-132 30.1,-119.58 24.84,-101.42 22.32,-87.45"/>
<polygon fill="#63b8ff" stroke="#63b8ff" points="25.79,-86.99 20.9,-77.59 18.86,-87.98 25.79,-86.99"/>
</a>
</g>
</g>
<!-- Node6&#45;&gt;Node5 -->
<g id="edge9_Node000006_Node000005" class="edge">
<title>Node6&#45;&gt;Node5</title>
<g id="a_edge9_Node000006_Node000005"><a xlink:title=" ">
<path fill="none" stroke="#63b8ff" d="M134.51,-167.73C132.15,-154.7 126.78,-130.5 117,-112 111.77,-102.1 104.14,-92.35 97.17,-84.47"/>
<polygon fill="#63b8ff" stroke="#63b8ff" points="99.87,-82.23 90.5,-77.29 94.75,-87 99.87,-82.23"/>
</a>
</g>
</g>
<!-- Node7 -->
<g id="Node000007" class="node">
<title>Node7</title>
<g id="a_Node000007"><a xlink:title=" ">
<polygon fill="#e0e0e0" stroke="#999999" points="222.38,-132 163.62,-132 163.62,-112 222.38,-112 222.38,-132"/>
<text text-anchor="middle" x="193" y="-118.5" font-family="Helvetica,sans-Serif" font-size="10.00">ncurses.h</text>
</a>
</g>
</g>
<!-- Node6&#45;&gt;Node7 -->
<g id="edge6_Node000006_Node000007" class="edge">
<title>Node6&#45;&gt;Node7</title>
<g id="a_edge6_Node000006_Node000007"><a xlink:title=" ">
<path fill="none" stroke="#63b8ff" d="M145.93,-167.59C153.94,-160.01 165.42,-149.13 175.03,-140.02"/>
<polygon fill="#63b8ff" stroke="#63b8ff" points="177.23,-142.76 182.09,-133.34 172.42,-137.68 177.23,-142.76"/>
</a>
</g>
</g>
<!-- Node8 -->
<g id="Node000008" class="node">
<title>Node8</title>
<g id="a_Node000008"><a xlink:title=" ">
<polygon fill="#e0e0e0" stroke="#999999" points="403.88,-132 354.12,-132 354.12,-112 403.88,-112 403.88,-132"/>
<text text-anchor="middle" x="379" y="-118.5" font-family="Helvetica,sans-Serif" font-size="10.00">optional</text>
</a>
</g>
</g>
<!-- Node6&#45;&gt;Node8 -->
<g id="edge8_Node000006_Node000008" class="edge">
<title>Node6&#45;&gt;Node8</title>
<g id="a_edge8_Node000006_Node000008"><a xlink:title=" ">
<path fill="none" stroke="#63b8ff" d="M165.31,-170.49C209.74,-160.61 294.07,-141.87 342.45,-131.12"/>
<polygon fill="#63b8ff" stroke="#63b8ff" points="343.16,-134.55 352.16,-128.96 341.64,-127.72 343.16,-134.55"/>
</a>
</g>
</g>
<!-- Node6&#45;&gt;Node9 -->
<g id="edge10_Node000006_Node000009" class="edge">
<title>Node6&#45;&gt;Node9</title>
<g id="a_edge10_Node000006_Node000009"><a xlink:title=" ">
<path fill="none" stroke="#63b8ff" d="M158.39,-167.59C177.96,-159.09 206.94,-145.81 231,-132 257.15,-116.99 285.47,-97.09 304.33,-83.28"/>
<polygon fill="#63b8ff" stroke="#63b8ff" points="306.33,-86.15 312.29,-77.39 302.17,-80.53 306.33,-86.15"/>
</a>
</g>
</g>
<!-- Node11 -->
<g id="Node000011" class="node">
<title>Node11</title>
<g id="a_Node000011"><a xlink:href="Helpers_8h.html" target="_top" xlink:title=" ">
<polygon fill="white" stroke="#666666" points="108,-132 50,-132 50,-112 108,-112 108,-132"/>
<text text-anchor="middle" x="79" y="-118.5" font-family="Helvetica,sans-Serif" font-size="10.00">Helpers.h</text>
</a>
</g>
</g>
<!-- Node6&#45;&gt;Node11 -->
<g id="edge12_Node000006_Node000011" class="edge">
<title>Node6&#45;&gt;Node11</title>
<g id="a_edge12_Node000006_Node000011"><a xlink:title=" ">
<path fill="none" stroke="#63b8ff" d="M126.07,-167.59C118.06,-160.01 106.58,-149.13 96.97,-140.02"/>
<polygon fill="#63b8ff" stroke="#63b8ff" points="99.58,-137.68 89.91,-133.34 94.77,-142.76 99.58,-137.68"/>
</a>
</g>
</g>
<!-- Node10 -->
<g id="Node000010" class="node">
<title>Node10</title>
<g id="a_Node000010"><a xlink:title=" ">
<polygon fill="#e0e0e0" stroke="#999999" points="345.62,-20 306.38,-20 306.38,0 345.62,0 345.62,-20"/>
<text text-anchor="middle" x="326" y="-6.5" font-family="Helvetica,sans-Serif" font-size="10.00">utility</text>
</a>
</g>
</g>
<!-- Node9&#45;&gt;Node10 -->
<g id="edge11_Node000009_Node000010" class="edge">
<title>Node9&#45;&gt;Node10</title>
<g id="a_edge11_Node000009_Node000010"><a xlink:title=" ">
<path fill="none" stroke="#63b8ff" d="M326,-55.59C326,-49.01 326,-39.96 326,-31.73"/>
<polygon fill="#63b8ff" stroke="#63b8ff" points="329.5,-31.81 326,-21.81 322.5,-31.81 329.5,-31.81"/>
</a>
</g>
</g>
<!-- Node11&#45;&gt;Node4 -->
<g id="edge14_Node000011_Node000004" class="edge">
<title>Node11&#45;&gt;Node4</title>
<g id="a_edge14_Node000011_Node000004"><a xlink:title=" ">
<path fill="none" stroke="#63b8ff" d="M68.72,-111.59C60.43,-104.01 48.55,-93.13 38.6,-84.02"/>
<polygon fill="#63b8ff" stroke="#63b8ff" points="41.02,-81.49 31.28,-77.32 36.29,-86.65 41.02,-81.49"/>
</a>
</g>
</g>
<!-- Node11&#45;&gt;Node5 -->
<g id="edge15_Node000011_Node000005" class="edge">
<title>Node11&#45;&gt;Node5</title>
<g id="a_edge15_Node000011_Node000005"><a xlink:title=" ">
<path fill="none" stroke="#63b8ff" d="M79.17,-111.59C79.3,-105.01 79.46,-95.96 79.62,-87.73"/>
<polygon fill="#63b8ff" stroke="#63b8ff" points="83.11,-87.87 79.8,-77.81 76.12,-87.75 83.11,-87.87"/>
</a>
</g>
</g>
<!-- Node11&#45;&gt;Node9 -->
<g id="edge13_Node000011_Node000009" class="edge">
<title>Node11&#45;&gt;Node9</title>
<g id="a_edge13_Node000011_Node000009"><a xlink:title=" ">
<path fill="none" stroke="#63b8ff" d="M108.3,-114.59C152.79,-104.87 237.41,-86.37 287.03,-75.52"/>
<polygon fill="#63b8ff" stroke="#63b8ff" points="287.75,-78.95 296.77,-73.39 286.26,-72.11 287.75,-78.95"/>
</a>
</g>
</g>
<!-- Node13&#45;&gt;Node3 -->
<g id="edge27_Node000013_Node000003" class="edge">
<title>Node13&#45;&gt;Node3</title>
<g id="a_edge27_Node000013_Node000003"><a xlink:title=" ">
<path fill="none" stroke="#63b8ff" d="M263.96,-279.59C235.84,-270.16 192.59,-255.66 163.11,-245.77"/>
<polygon fill="#63b8ff" stroke="#63b8ff" points="164.58,-242.57 153.98,-242.71 162.35,-249.21 164.58,-242.57"/>
</a>
</g>
</g>
<!-- Node13&#45;&gt;Node8 -->
<g id="edge26_Node000013_Node000008" class="edge">
<title>Node13&#45;&gt;Node8</title>
<g id="a_edge26_Node000013_Node000008"><a xlink:title=" ">
<path fill="none" stroke="#63b8ff" d="M324.33,-279.6C362.38,-266.41 422.72,-238.22 441,-188 444.04,-179.65 445.04,-175.92 441,-168 434.49,-155.23 422.46,-145.23 410.73,-137.94"/>
<polygon fill="#63b8ff" stroke="#63b8ff" points="412.8,-135.09 402.38,-133.19 409.34,-141.18 412.8,-135.09"/>
</a>
</g>
</g>
<!-- Node13&#45;&gt;Node9 -->
<g id="edge24_Node000013_Node000009" class="edge">
<title>Node13&#45;&gt;Node9</title>
<g id="a_edge24_Node000013_Node000009"><a xlink:title=" ">
<path fill="none" stroke="#63b8ff" d="M282.32,-279.76C262.59,-259.75 220.86,-210.74 237,-168 244.32,-148.61 284.21,-107.62 308.03,-84.25"/>
<polygon fill="#63b8ff" stroke="#63b8ff" points="310.45,-86.78 315.19,-77.3 305.58,-81.76 310.45,-86.78"/>
</a>
</g>
</g>
<!-- Node13&#45;&gt;Node12 -->
<g id="edge25_Node000013_Node000012" class="edge">
<title>Node13&#45;&gt;Node12</title>
<g id="a_edge25_Node000013_Node000012"><a xlink:title=" ">
<path fill="none" stroke="#63b8ff" d="M288.53,-279.84C285.27,-270.85 280.53,-256.68 278,-244 275.07,-229.33 273.57,-212.51 272.8,-199.65"/>
<polygon fill="#63b8ff" stroke="#63b8ff" points="276.31,-199.67 272.32,-189.86 269.31,-200.02 276.31,-199.67"/>
</a>
</g>
</g>
<!-- Node14 -->
<g id="Node000014" class="node">
<title>Node14</title>
<g id="a_Node000014"><a xlink:href="GameObject_8h.html" target="_top" xlink:title="Base class for all game objects.">
<polygon fill="white" stroke="#666666" points="365.5,-244 286.5,-244 286.5,-224 365.5,-224 365.5,-244"/>
<text text-anchor="middle" x="326" y="-230.5" font-family="Helvetica,sans-Serif" font-size="10.00">GameObject.h</text>
</a>
</g>
</g>
<!-- Node13&#45;&gt;Node14 -->
<g id="edge19_Node000013_Node000014" class="edge">
<title>Node13&#45;&gt;Node14</title>
<g id="a_edge19_Node000013_Node000014"><a xlink:title=" ">
<path fill="none" stroke="#63b8ff" d="M297.92,-279.59C302.36,-272.55 308.58,-262.67 314.04,-254"/>
<polygon fill="#63b8ff" stroke="#63b8ff" points="316.97,-255.91 319.34,-245.58 311.05,-252.18 316.97,-255.91"/>
</a>
</g>
</g>
<!-- Node15 -->
<g id="Node000015" class="node">
<title>Node15</title>
<g id="a_Node000015"><a xlink:href="GamePhase_8h.html" target="_top" xlink:title="Handles the game phase and level.">
<polygon fill="white" stroke="#666666" points="432.12,-188 353.88,-188 353.88,-168 432.12,-168 432.12,-188"/>
<text text-anchor="middle" x="393" y="-174.5" font-family="Helvetica,sans-Serif" font-size="10.00">GamePhase.h</text>
</a>
</g>
</g>
<!-- Node13&#45;&gt;Node15 -->
<g id="edge28_Node000013_Node000015" class="edge">
<title>Node13&#45;&gt;Node15</title>
<g id="a_edge28_Node000013_Node000015"><a xlink:title=" ">
<path fill="none" stroke="#63b8ff" d="M321.67,-279.63C339.55,-272.54 361.43,-261.06 375,-244 385.05,-231.37 389.49,-213.5 391.46,-199.7"/>
<polygon fill="#63b8ff" stroke="#63b8ff" points="394.92,-200.24 392.49,-189.93 387.96,-199.5 394.92,-200.24"/>
</a>
</g>
</g>
<!-- Node14&#45;&gt;Node9 -->
<g id="edge20_Node000014_Node000009" class="edge">
<title>Node14&#45;&gt;Node9</title>
<g id="a_edge20_Node000014_Node000009"><a xlink:title=" ">
<path fill="none" stroke="#63b8ff" d="M326,-223.6C326,-197.46 326,-123.48 326,-87.36"/>
<polygon fill="#63b8ff" stroke="#63b8ff" points="329.5,-87.81 326,-77.81 322.5,-87.81 329.5,-87.81"/>
</a>
</g>
</g>
<!-- Node14&#45;&gt;Node12 -->
<g id="edge23_Node000014_Node000012" class="edge">
<title>Node14&#45;&gt;Node12</title>
<g id="a_edge23_Node000014_Node000012"><a xlink:title=" ">
<path fill="none" stroke="#63b8ff" d="M316.59,-223.59C309.08,-216.08 298.35,-205.35 289.3,-196.3"/>
<polygon fill="#63b8ff" stroke="#63b8ff" points="291.91,-193.96 282.37,-189.37 286.96,-198.91 291.91,-193.96"/>
</a>
</g>
</g>
<!-- Node14&#45;&gt;Node15 -->
<g id="edge21_Node000014_Node000015" class="edge">
<title>Node14&#45;&gt;Node15</title>
<g id="a_edge21_Node000014_Node000015"><a xlink:title=" ">
<path fill="none" stroke="#63b8ff" d="M337.67,-223.59C347.28,-215.85 361.13,-204.69 372.57,-195.47"/>
<polygon fill="#63b8ff" stroke="#63b8ff" points="374.7,-198.25 380.28,-189.25 370.3,-192.8 374.7,-198.25"/>
</a>
</g>
</g>
<!-- Node15&#45;&gt;Node9 -->
<g id="edge22_Node000015_Node000009" class="edge">
<title>Node15&#45;&gt;Node9</title>
<g id="a_edge22_Node000015_Node000009"><a xlink:title=" ">
<path fill="none" stroke="#63b8ff" d="M400.48,-167.57C409.99,-154.36 423.93,-129.95 413,-112 402.38,-94.56 382.59,-83.58 364.56,-76.83"/>
<polygon fill="#63b8ff" stroke="#63b8ff" points="365.68,-73.52 355.09,-73.65 363.45,-80.16 365.68,-73.52"/>
</a>
</g>
</g>
</g>
</svg>
