<?xml version="1.0" encoding="UTF-8" standalone="no"?>
<!DOCTYPE svg PUBLIC "-//W3C//DTD SVG 1.1//EN"
 "http://www.w3.org/Graphics/SVG/1.1/DTD/svg11.dtd">
<!-- Generated by graphviz version 2.43.0 (0)
 -->
<!-- Title: src/EnemyBehavior.cpp Pages: 1 -->
<svg width="564pt" height="420pt"
 viewBox="0.00 0.00 564.00 420.00" xmlns="http://www.w3.org/2000/svg" xmlns:xlink="http://www.w3.org/1999/xlink">
<g id="graph0" class="graph" transform="scale(1 1) rotate(0) translate(4 416)">
<title>src/EnemyBehavior.cpp</title>
<polygon fill="white" stroke="transparent" points="-4,4 -4,-416 560,-416 560,4 -4,4"/>
<!-- Node1 -->
<g id="node1" class="node">
<title>Node1</title>
<g id="a_node1"><a xlink:title="Base class for all enemy behaviors.">
<polygon fill="#bfbfbf" stroke="black" points="381.5,-392.5 381.5,-411.5 512.5,-411.5 512.5,-392.5 381.5,-392.5"/>
<text text-anchor="middle" x="447" y="-399.5" font-family="Helvetica,sans-Serif" font-size="10.00">src/EnemyBehavior.cpp</text>
</a>
</g>
</g>
<!-- Node2 -->
<g id="node2" class="node">
<title>Node2</title>
<g id="a_node2"><a xlink:href="EnemyBehavior_8h.html" target="_top" xlink:title="Base class for all enemy behaviors.">
<polygon fill="white" stroke="black" points="253,-336.5 253,-355.5 355,-355.5 355,-336.5 253,-336.5"/>
<text text-anchor="middle" x="304" y="-343.5" font-family="Helvetica,sans-Serif" font-size="10.00">EnemyBehavior.h</text>
</a>
</g>
</g>
<!-- Node1&#45;&gt;Node2 -->
<g id="edge1" class="edge">
<title>Node1&#45;&gt;Node2</title>
<path fill="none" stroke="midnightblue" d="M424.34,-392.44C400.6,-383.48 363.09,-369.31 336.26,-359.18"/>
<polygon fill="midnightblue" stroke="midnightblue" points="337.14,-355.77 326.55,-355.52 334.67,-362.32 337.14,-355.77"/>
</g>
<!-- Node9 -->
<g id="node9" class="node">
<title>Node9</title>
<g id="a_node9"><a xlink:href="Enums_8h.html" target="_top" xlink:title=" ">
<polygon fill="white" stroke="black" points="310.5,-56.5 310.5,-75.5 369.5,-75.5 369.5,-56.5 310.5,-56.5"/>
<text text-anchor="middle" x="340" y="-63.5" font-family="Helvetica,sans-Serif" font-size="10.00">Enums.h</text>
</a>
</g>
</g>
<!-- Node1&#45;&gt;Node9 -->
<g id="edge29" class="edge">
<title>Node1&#45;&gt;Node9</title>
<path fill="none" stroke="midnightblue" d="M466.24,-392.42C497.53,-376.99 556,-341.41 556,-291 556,-291 556,-291 556,-177 556,-98.83 442.28,-76.19 379.87,-69.64"/>
<polygon fill="midnightblue" stroke="midnightblue" points="379.87,-66.13 369.58,-68.66 379.2,-73.1 379.87,-66.13"/>
</g>
<!-- Node3 -->
<g id="node3" class="node">
<title>Node3</title>
<g id="a_node3"><a xlink:href="Map_8h.html" target="_top" xlink:title="Class for handling the game map.">
<polygon fill="white" stroke="black" points="115.5,-224.5 115.5,-243.5 162.5,-243.5 162.5,-224.5 115.5,-224.5"/>
<text text-anchor="middle" x="139" y="-231.5" font-family="Helvetica,sans-Serif" font-size="10.00">Map.h</text>
</a>
</g>
</g>
<!-- Node2&#45;&gt;Node3 -->
<g id="edge2" class="edge">
<title>Node2&#45;&gt;Node3</title>
<path fill="none" stroke="midnightblue" d="M256.27,-336.43C230.58,-329.89 199.62,-318.71 177,-300 162.09,-287.66 151.71,-267.85 145.62,-253.34"/>
<polygon fill="midnightblue" stroke="midnightblue" points="148.83,-251.94 141.93,-243.89 142.3,-254.48 148.83,-251.94"/>
</g>
<!-- Node2&#45;&gt;Node9 -->
<g id="edge16" class="edge">
<title>Node2&#45;&gt;Node9</title>
<path fill="none" stroke="midnightblue" d="M355.26,-340.82C418.57,-332.52 518,-307.89 518,-235 518,-235 518,-235 518,-177 518,-112.46 432.28,-84.52 379.81,-73.47"/>
<polygon fill="midnightblue" stroke="midnightblue" points="380.28,-69.99 369.79,-71.48 378.92,-76.86 380.28,-69.99"/>
</g>
<!-- Node12 -->
<g id="node12" class="node">
<title>Node12</title>
<g id="a_node12"><a xlink:title=" ">
<polygon fill="white" stroke="#bfbfbf" points="254,-168.5 254,-187.5 312,-187.5 312,-168.5 254,-168.5"/>
<text text-anchor="middle" x="283" y="-175.5" font-family="Helvetica,sans-Serif" font-size="10.00">memory</text>
</a>
</g>
</g>
<!-- Node2&#45;&gt;Node12 -->
<g id="edge17" class="edge">
<title>Node2&#45;&gt;Node12</title>
<path fill="none" stroke="midnightblue" d="M286.8,-336.39C273.75,-328.79 256.77,-316.39 249,-300 232.34,-264.84 255.39,-219.95 270.91,-195.95"/>
<polygon fill="midnightblue" stroke="midnightblue" points="273.87,-197.81 276.58,-187.56 268.08,-193.88 273.87,-197.81"/>
</g>
<!-- Node13 -->
<g id="node13" class="node">
<title>Node13</title>
<g id="a_node13"><a xlink:href="MovingObject_8h.html" target="_top" xlink:title="Base class for all moving objects.">
<polygon fill="white" stroke="black" points="257.5,-280.5 257.5,-299.5 350.5,-299.5 350.5,-280.5 257.5,-280.5"/>
<text text-anchor="middle" x="304" y="-287.5" font-family="Helvetica,sans-Serif" font-size="10.00">MovingObject.h</text>
</a>
</g>
</g>
<!-- Node2&#45;&gt;Node13 -->
<g id="edge18" class="edge">
<title>Node2&#45;&gt;Node13</title>
<path fill="none" stroke="midnightblue" d="M304,-336.08C304,-329.01 304,-318.86 304,-309.99"/>
<polygon fill="midnightblue" stroke="midnightblue" points="307.5,-309.75 304,-299.75 300.5,-309.75 307.5,-309.75"/>
</g>
<!-- Node4 -->
<g id="node4" class="node">
<title>Node4</title>
<g id="a_node4"><a xlink:title=" ">
<polygon fill="white" stroke="#bfbfbf" points="0,-56.5 0,-75.5 44,-75.5 44,-56.5 0,-56.5"/>
<text text-anchor="middle" x="22" y="-63.5" font-family="Helvetica,sans-Serif" font-size="10.00">string</text>
</a>
</g>
</g>
<!-- Node3&#45;&gt;Node4 -->
<g id="edge3" class="edge">
<title>Node3&#45;&gt;Node4</title>
<path fill="none" stroke="midnightblue" d="M116.51,-224.45C99.59,-217.03 76.86,-204.83 62,-188 35.97,-158.53 26.81,-111.67 23.63,-85.76"/>
<polygon fill="midnightblue" stroke="midnightblue" points="27.11,-85.34 22.58,-75.76 20.15,-86.07 27.11,-85.34"/>
</g>
<!-- Node5 -->
<g id="node5" class="node">
<title>Node5</title>
<g id="a_node5"><a xlink:title=" ">
<polygon fill="white" stroke="#bfbfbf" points="62.5,-56.5 62.5,-75.5 109.5,-75.5 109.5,-56.5 62.5,-56.5"/>
<text text-anchor="middle" x="86" y="-63.5" font-family="Helvetica,sans-Serif" font-size="10.00">vector</text>
</a>
</g>
</g>
<!-- Node3&#45;&gt;Node5 -->
<g id="edge4" class="edge">
<title>Node3&#45;&gt;Node5</title>
<path fill="none" stroke="midnightblue" d="M125.85,-224.35C103.74,-208.91 59.87,-174.24 43,-132 35.62,-113.51 50.92,-94.81 65.28,-82.24"/>
<polygon fill="midnightblue" stroke="midnightblue" points="67.89,-84.62 73.44,-75.6 63.47,-79.19 67.89,-84.62"/>
</g>
<!-- Node6 -->
<g id="node6" class="node">
<title>Node6</title>
<g id="a_node6"><a xlink:href="Window_8h.html" target="_top" xlink:title="Class for handling ncurses windows.">
<polygon fill="white" stroke="black" points="112,-168.5 112,-187.5 176,-187.5 176,-168.5 112,-168.5"/>
<text text-anchor="middle" x="144" y="-175.5" font-family="Helvetica,sans-Serif" font-size="10.00">Window.h</text>
</a>
</g>
</g>
<!-- Node3&#45;&gt;Node6 -->
<g id="edge5" class="edge">
<title>Node3&#45;&gt;Node6</title>
<path fill="none" stroke="midnightblue" d="M139.83,-224.08C140.48,-217.01 141.42,-206.86 142.24,-197.99"/>
<polygon fill="midnightblue" stroke="midnightblue" points="145.75,-198.03 143.19,-187.75 138.78,-197.39 145.75,-198.03"/>
</g>
<!-- Node6&#45;&gt;Node4 -->
<g id="edge7" class="edge">
<title>Node6&#45;&gt;Node4</title>
<path fill="none" stroke="midnightblue" d="M111.65,-169.97C89.49,-163.57 60.96,-151.99 43,-132 31.49,-119.19 26.28,-100.01 23.93,-85.79"/>
<polygon fill="midnightblue" stroke="midnightblue" points="27.37,-85.13 22.59,-75.68 20.43,-86.05 27.37,-85.13"/>
</g>
<!-- Node6&#45;&gt;Node5 -->
<g id="edge9" class="edge">
<title>Node6&#45;&gt;Node5</title>
<path fill="none" stroke="midnightblue" d="M142.45,-168.15C139.94,-155.21 134.19,-130.65 124,-112 118.19,-101.37 109.62,-90.93 102.08,-82.8"/>
<polygon fill="midnightblue" stroke="midnightblue" points="104.5,-80.26 95.04,-75.5 99.47,-85.13 104.5,-80.26"/>
</g>
<!-- Node7 -->
<g id="node7" class="node">
<title>Node7</title>
<g id="a_node7"><a xlink:title=" ">
<polygon fill="white" stroke="#bfbfbf" points="172.5,-112.5 172.5,-131.5 235.5,-131.5 235.5,-112.5 172.5,-112.5"/>
<text text-anchor="middle" x="204" y="-119.5" font-family="Helvetica,sans-Serif" font-size="10.00">ncurses.h</text>
</a>
</g>
</g>
<!-- Node6&#45;&gt;Node7 -->
<g id="edge6" class="edge">
<title>Node6&#45;&gt;Node7</title>
<path fill="none" stroke="midnightblue" d="M153.64,-168.32C162.51,-160.34 175.87,-148.31 186.61,-138.65"/>
<polygon fill="midnightblue" stroke="midnightblue" points="189.09,-141.13 194.18,-131.83 184.41,-135.92 189.09,-141.13"/>
</g>
<!-- Node8 -->
<g id="node8" class="node">
<title>Node8</title>
<g id="a_node8"><a xlink:title=" ">
<polygon fill="white" stroke="#bfbfbf" points="368,-112.5 368,-131.5 424,-131.5 424,-112.5 368,-112.5"/>
<text text-anchor="middle" x="396" y="-119.5" font-family="Helvetica,sans-Serif" font-size="10.00">optional</text>
</a>
</g>
</g>
<!-- Node6&#45;&gt;Node8 -->
<g id="edge8" class="edge">
<title>Node6&#45;&gt;Node8</title>
<path fill="none" stroke="midnightblue" d="M176.17,-170.11C222.63,-160.15 308.33,-141.79 357.89,-131.17"/>
<polygon fill="midnightblue" stroke="midnightblue" points="358.85,-134.54 367.89,-129.02 357.38,-127.7 358.85,-134.54"/>
</g>
<!-- Node6&#45;&gt;Node9 -->
<g id="edge10" class="edge">
<title>Node6&#45;&gt;Node9</title>
<path fill="none" stroke="midnightblue" d="M165.98,-168.39C186.61,-160.02 218.07,-146.47 244,-132 271.61,-116.59 301.49,-95.61 320.46,-81.7"/>
<polygon fill="midnightblue" stroke="midnightblue" points="322.64,-84.44 328.59,-75.68 318.47,-78.82 322.64,-84.44"/>
</g>
<!-- Node11 -->
<g id="node11" class="node">
<title>Node11</title>
<g id="a_node11"><a xlink:href="Helpers_8h.html" target="_top" xlink:title=" ">
<polygon fill="white" stroke="black" points="52.5,-112.5 52.5,-131.5 115.5,-131.5 115.5,-112.5 52.5,-112.5"/>
<text text-anchor="middle" x="84" y="-119.5" font-family="Helvetica,sans-Serif" font-size="10.00">Helpers.h</text>
</a>
</g>
</g>
<!-- Node6&#45;&gt;Node11 -->
<g id="edge12" class="edge">
<title>Node6&#45;&gt;Node11</title>
<path fill="none" stroke="midnightblue" d="M134.36,-168.32C125.49,-160.34 112.13,-148.31 101.39,-138.65"/>
<polygon fill="midnightblue" stroke="midnightblue" points="103.59,-135.92 93.82,-131.83 98.91,-141.13 103.59,-135.92"/>
</g>
<!-- Node10 -->
<g id="node10" class="node">
<title>Node10</title>
<g id="a_node10"><a xlink:title=" ">
<polygon fill="white" stroke="#bfbfbf" points="317.5,-0.5 317.5,-19.5 362.5,-19.5 362.5,-0.5 317.5,-0.5"/>
<text text-anchor="middle" x="340" y="-7.5" font-family="Helvetica,sans-Serif" font-size="10.00">utility</text>
</a>
</g>
</g>
<!-- Node9&#45;&gt;Node10 -->
<g id="edge11" class="edge">
<title>Node9&#45;&gt;Node10</title>
<path fill="none" stroke="midnightblue" d="M340,-56.08C340,-49.01 340,-38.86 340,-29.99"/>
<polygon fill="midnightblue" stroke="midnightblue" points="343.5,-29.75 340,-19.75 336.5,-29.75 343.5,-29.75"/>
</g>
<!-- Node11&#45;&gt;Node4 -->
<g id="edge14" class="edge">
<title>Node11&#45;&gt;Node4</title>
<path fill="none" stroke="midnightblue" d="M74.04,-112.32C64.87,-104.34 51.06,-92.31 39.97,-82.65"/>
<polygon fill="midnightblue" stroke="midnightblue" points="41.98,-79.76 32.14,-75.83 37.38,-85.04 41.98,-79.76"/>
</g>
<!-- Node11&#45;&gt;Node5 -->
<g id="edge15" class="edge">
<title>Node11&#45;&gt;Node5</title>
<path fill="none" stroke="midnightblue" d="M84.33,-112.08C84.59,-105.01 84.97,-94.86 85.3,-85.99"/>
<polygon fill="midnightblue" stroke="midnightblue" points="88.8,-85.87 85.68,-75.75 81.81,-85.61 88.8,-85.87"/>
</g>
<!-- Node11&#45;&gt;Node9 -->
<g id="edge13" class="edge">
<title>Node11&#45;&gt;Node9</title>
<path fill="none" stroke="midnightblue" d="M115.65,-114.32C162.33,-104.48 249.6,-86.07 300.44,-75.34"/>
<polygon fill="midnightblue" stroke="midnightblue" points="301.34,-78.73 310.4,-73.24 299.9,-71.88 301.34,-78.73"/>
</g>
<!-- Node13&#45;&gt;Node3 -->
<g id="edge27" class="edge">
<title>Node13&#45;&gt;Node3</title>
<path fill="none" stroke="midnightblue" d="M277.86,-280.44C249.24,-271.08 203.29,-256.04 172.16,-245.85"/>
<polygon fill="midnightblue" stroke="midnightblue" points="173.21,-242.51 162.62,-242.73 171.03,-249.17 173.21,-242.51"/>
</g>
<!-- Node13&#45;&gt;Node8 -->
<g id="edge26" class="edge">
<title>Node13&#45;&gt;Node8</title>
<path fill="none" stroke="midnightblue" d="M336.85,-280.45C376.72,-267.93 441.07,-240.24 461,-188 464.17,-179.69 465.13,-175.87 461,-168 453.72,-154.11 439.99,-143.65 427.02,-136.33"/>
<polygon fill="midnightblue" stroke="midnightblue" points="428.3,-133.05 417.81,-131.55 425.07,-139.27 428.3,-133.05"/>
</g>
<!-- Node13&#45;&gt;Node9 -->
<g id="edge24" class="edge">
<title>Node13&#45;&gt;Node9</title>
<path fill="none" stroke="midnightblue" d="M294.29,-280.4C273.47,-260.86 227.78,-211.45 245,-168 249.14,-157.56 297.76,-108.63 323.79,-82.91"/>
<polygon fill="midnightblue" stroke="midnightblue" points="326.4,-85.25 331.07,-75.73 321.49,-80.26 326.4,-85.25"/>
</g>
<!-- Node13&#45;&gt;Node12 -->
<g id="edge25" class="edge">
<title>Node13&#45;&gt;Node12</title>
<path fill="none" stroke="midnightblue" d="M300.1,-280.24C296.32,-271.31 290.76,-256.98 288,-244 284.73,-228.59 283.54,-210.71 283.13,-197.62"/>
<polygon fill="midnightblue" stroke="midnightblue" points="286.63,-197.45 282.94,-187.52 279.63,-197.58 286.63,-197.45"/>
</g>
<!-- Node14 -->
<g id="node14" class="node">
<title>Node14</title>
<g id="a_node14"><a xlink:href="GameObject_8h.html" target="_top" xlink:title="Base class for all game objects.">
<polygon fill="white" stroke="black" points="297,-224.5 297,-243.5 383,-243.5 383,-224.5 297,-224.5"/>
<text text-anchor="middle" x="340" y="-231.5" font-family="Helvetica,sans-Serif" font-size="10.00">GameObject.h</text>
</a>
</g>
</g>
<!-- Node13&#45;&gt;Node14 -->
<g id="edge19" class="edge">
<title>Node13&#45;&gt;Node14</title>
<path fill="none" stroke="midnightblue" d="M309.94,-280.08C314.98,-272.53 322.34,-261.49 328.51,-252.23"/>
<polygon fill="midnightblue" stroke="midnightblue" points="331.53,-254.01 334.17,-243.75 325.71,-250.13 331.53,-254.01"/>
</g>
<!-- Node15 -->
<g id="node15" class="node">
<title>Node15</title>
<g id="a_node15"><a xlink:href="GamePhase_8h.html" target="_top" xlink:title="Handles the game phase and level.">
<polygon fill="white" stroke="black" points="368,-168.5 368,-187.5 452,-187.5 452,-168.5 368,-168.5"/>
<text text-anchor="middle" x="410" y="-175.5" font-family="Helvetica,sans-Serif" font-size="10.00">GamePhase.h</text>
</a>
</g>
</g>
<!-- Node13&#45;&gt;Node15 -->
<g id="edge28" class="edge">
<title>Node13&#45;&gt;Node15</title>
<path fill="none" stroke="midnightblue" d="M334.58,-280.38C353.69,-273.48 377.36,-261.95 392,-244 402.74,-230.83 407.09,-211.69 408.84,-197.59"/>
<polygon fill="midnightblue" stroke="midnightblue" points="412.33,-197.85 409.76,-187.57 405.36,-197.21 412.33,-197.85"/>
</g>
<!-- Node14&#45;&gt;Node9 -->
<g id="edge20" class="edge">
<title>Node14&#45;&gt;Node9</title>
<path fill="none" stroke="midnightblue" d="M340,-224.08C340,-197.95 340,-121.21 340,-85.58"/>
<polygon fill="midnightblue" stroke="midnightblue" points="343.5,-85.57 340,-75.57 336.5,-85.57 343.5,-85.57"/>
</g>
<!-- Node14&#45;&gt;Node12 -->
<g id="edge23" class="edge">
<title>Node14&#45;&gt;Node12</title>
<path fill="none" stroke="midnightblue" d="M330.84,-224.32C322.5,-216.42 309.97,-204.55 299.82,-194.94"/>
<polygon fill="midnightblue" stroke="midnightblue" points="301.99,-192.17 292.32,-187.83 297.18,-197.25 301.99,-192.17"/>
</g>
<!-- Node14&#45;&gt;Node15 -->
<g id="edge21" class="edge">
<title>Node14&#45;&gt;Node15</title>
<path fill="none" stroke="midnightblue" d="M351.25,-224.32C361.8,-216.18 377.8,-203.84 390.44,-194.09"/>
<polygon fill="midnightblue" stroke="midnightblue" points="392.77,-196.71 398.55,-187.83 388.49,-191.17 392.77,-196.71"/>
</g>
<!-- Node15&#45;&gt;Node9 -->
<g id="edge22" class="edge">
<title>Node15&#45;&gt;Node9</title>
<path fill="none" stroke="midnightblue" d="M417.56,-168.47C428.07,-155.52 444.57,-130.46 433,-112 421.26,-93.28 399.29,-82.16 379.64,-75.65"/>
<polygon fill="midnightblue" stroke="midnightblue" points="380.53,-72.27 369.95,-72.74 378.52,-78.97 380.53,-72.27"/>
</g>
</g>
</svg>
