<?xml version="1.0" encoding="UTF-8" standalone="no"?>
<!DOCTYPE svg PUBLIC "-//W3C//DTD SVG 1.1//EN"
 "http://www.w3.org/Graphics/SVG/1.1/DTD/svg11.dtd">
<!-- Generated by graphviz version 10.0.1 (0)
 -->
<!-- Title: src/EnemyBehavior.h Pages: 1 -->
<svg width="810pt" height="252pt"
 viewBox="0.00 0.00 810.38 252.00" xmlns="http://www.w3.org/2000/svg" xmlns:xlink="http://www.w3.org/1999/xlink">
<g id="graph0" class="graph" transform="scale(1 1) rotate(0) translate(4 248)">
<title>src/EnemyBehavior.h</title>
<!-- Node1 -->
<g id="Node000001" class="node">
<title>Node1</title>
<g id="a_Node000001"><a xlink:title="Base class for all enemy behaviors.">
<polygon fill="#999999" stroke="#666666" points="524.12,-244 415.12,-244 415.12,-224 524.12,-224 524.12,-244"/>
<text text-anchor="middle" x="469.62" y="-230.5" font-family="Helvetica,sans-Serif" font-size="10.00">src/EnemyBehavior.h</text>
</a>
</g>
</g>
<!-- Node2 -->
<g id="Node000002" class="node">
<title>Node2</title>
<g id="a_Node000002"><a xlink:href="ChaseBehavior_8h.html" target="_top" xlink:title="Class for handling the chase behavior of ghosts.">
<polygon fill="white" stroke="#666666" points="223,-188 116.25,-188 116.25,-168 223,-168 223,-188"/>
<text text-anchor="middle" x="169.62" y="-174.5" font-family="Helvetica,sans-Serif" font-size="10.00">src/ChaseBehavior.h</text>
</a>
</g>
</g>
<!-- Node1&#45;&gt;Node2 -->
<g id="edge1_Node000001_Node000002" class="edge">
<title>Node1&#45;&gt;Node2</title>
<g id="a_edge1_Node000001_Node000002"><a xlink:title=" ">
<path fill="none" stroke="#63b8ff" d="M405.73,-221.5C351.05,-211.66 273.29,-197.66 222.16,-188.46"/>
<polygon fill="#63b8ff" stroke="#63b8ff" points="405.07,-224.94 415.54,-223.26 406.31,-218.05 405.07,-224.94"/>
</a>
</g>
</g>
<!-- Node5 -->
<g id="Node000005" class="node">
<title>Node5</title>
<g id="a_Node000005"><a xlink:href="EnemyBehavior_8cpp.html" target="_top" xlink:title="Base class for all enemy behaviors.">
<polygon fill="white" stroke="#666666" points="802.38,-188 682.88,-188 682.88,-168 802.38,-168 802.38,-188"/>
<text text-anchor="middle" x="742.62" y="-174.5" font-family="Helvetica,sans-Serif" font-size="10.00">src/EnemyBehavior.cpp</text>
</a>
</g>
</g>
<!-- Node1&#45;&gt;Node5 -->
<g id="edge4_Node000001_Node000005" class="edge">
<title>Node1&#45;&gt;Node5</title>
<g id="a_edge4_Node000001_Node000005"><a xlink:title=" ">
<path fill="none" stroke="#63b8ff" d="M528.71,-221.31C578.42,-211.48 648.58,-197.6 694.81,-188.46"/>
<polygon fill="#63b8ff" stroke="#63b8ff" points="528.11,-217.86 518.98,-223.24 529.46,-224.73 528.11,-217.86"/>
</a>
</g>
</g>
<!-- Node6 -->
<g id="Node000006" class="node">
<title>Node6</title>
<g id="a_Node000006"><a xlink:href="FrightenedBehavior_8h.html" target="_top" xlink:title="Class representing a frightened ghost behavior.">
<polygon fill="white" stroke="#666666" points="364.62,-188 240.62,-188 240.62,-168 364.62,-168 364.62,-188"/>
<text text-anchor="middle" x="302.62" y="-174.5" font-family="Helvetica,sans-Serif" font-size="10.00">src/FrightenedBehavior.h</text>
</a>
</g>
</g>
<!-- Node1&#45;&gt;Node6 -->
<g id="edge5_Node000001_Node000006" class="edge">
<title>Node1&#45;&gt;Node6</title>
<g id="a_edge5_Node000001_Node000006"><a xlink:title=" ">
<path fill="none" stroke="#63b8ff" d="M429.97,-220.18C399.87,-210.44 359.15,-197.28 331.94,-188.48"/>
<polygon fill="#63b8ff" stroke="#63b8ff" points="428.5,-223.38 439.1,-223.13 430.66,-216.72 428.5,-223.38"/>
</a>
</g>
</g>
<!-- Node8 -->
<g id="Node000008" class="node">
<title>Node8</title>
<g id="a_Node000008"><a xlink:href="Game_8cpp.html" target="_top" xlink:title="Class for handling the game logic.">
<polygon fill="white" stroke="#666666" points="540.38,-76 462.88,-76 462.88,-56 540.38,-56 540.38,-76"/>
<text text-anchor="middle" x="501.62" y="-62.5" font-family="Helvetica,sans-Serif" font-size="10.00">src/Game.cpp</text>
</a>
</g>
</g>
<!-- Node1&#45;&gt;Node8 -->
<g id="edge8_Node000001_Node000008" class="edge">
<title>Node1&#45;&gt;Node8</title>
<g id="a_edge8_Node000001_Node000008"><a xlink:title=" ">
<path fill="none" stroke="#63b8ff" d="M521.07,-220.16C562.84,-206.42 617.65,-179.83 635.62,-132 651.27,-90.37 585.4,-75.34 540.49,-69.96"/>
<polygon fill="#63b8ff" stroke="#63b8ff" points="520.17,-216.77 511.66,-223.09 522.25,-223.45 520.17,-216.77"/>
</a>
</g>
</g>
<!-- Node9 -->
<g id="Node000009" class="node">
<title>Node9</title>
<g id="a_Node000009"><a xlink:href="Ghost_8h.html" target="_top" xlink:title="Represents a ghost enemy.">
<polygon fill="white" stroke="#666666" points="450.12,-188 383.12,-188 383.12,-168 450.12,-168 450.12,-188"/>
<text text-anchor="middle" x="416.62" y="-174.5" font-family="Helvetica,sans-Serif" font-size="10.00">src/Ghost.h</text>
</a>
</g>
</g>
<!-- Node1&#45;&gt;Node9 -->
<g id="edge9_Node000001_Node000009" class="edge">
<title>Node1&#45;&gt;Node9</title>
<g id="a_edge9_Node000001_Node000009"><a xlink:title=" ">
<path fill="none" stroke="#63b8ff" d="M452.51,-215.57C443.61,-206.5 433.09,-195.78 425.75,-188.3"/>
<polygon fill="#63b8ff" stroke="#63b8ff" points="449.83,-217.83 459.33,-222.51 454.83,-212.93 449.83,-217.83"/>
</a>
</g>
</g>
<!-- Node14 -->
<g id="Node000014" class="node">
<title>Node14</title>
<g id="a_Node000014"><a xlink:href="ScatterBehavior_8h.html" target="_top" xlink:title="Class for the scatter behavior of the ghosts.">
<polygon fill="white" stroke="#666666" points="577.5,-188 467.75,-188 467.75,-168 577.5,-168 577.5,-188"/>
<text text-anchor="middle" x="522.62" y="-174.5" font-family="Helvetica,sans-Serif" font-size="10.00">src/ScatterBehavior.h</text>
</a>
</g>
</g>
<!-- Node1&#45;&gt;Node14 -->
<g id="edge16_Node000001_Node000014" class="edge">
<title>Node1&#45;&gt;Node14</title>
<g id="a_edge16_Node000001_Node000014"><a xlink:title=" ">
<path fill="none" stroke="#63b8ff" d="M486.74,-215.57C495.64,-206.5 506.16,-195.78 513.5,-188.3"/>
<polygon fill="#63b8ff" stroke="#63b8ff" points="484.42,-212.93 479.92,-222.51 489.42,-217.83 484.42,-212.93"/>
</a>
</g>
</g>
<!-- Node3 -->
<g id="Node000003" class="node">
<title>Node3</title>
<g id="a_Node000003"><a xlink:href="ChaseBehavior_8cpp.html" target="_top" xlink:title="Class for handling the chase behavior of ghosts.">
<polygon fill="white" stroke="#666666" points="117.25,-132 0,-132 0,-112 117.25,-112 117.25,-132"/>
<text text-anchor="middle" x="58.62" y="-118.5" font-family="Helvetica,sans-Serif" font-size="10.00">src/ChaseBehavior.cpp</text>
</a>
</g>
</g>
<!-- Node2&#45;&gt;Node3 -->
<g id="edge2_Node000002_Node000003" class="edge">
<title>Node2&#45;&gt;Node3</title>
<g id="a_edge2_Node000002_Node000003"><a xlink:title=" ">
<path fill="none" stroke="#63b8ff" d="M140.05,-162.61C120.43,-153.07 95.24,-140.81 78.11,-132.48"/>
<polygon fill="#63b8ff" stroke="#63b8ff" points="138.41,-165.7 148.93,-166.93 141.47,-159.41 138.41,-165.7"/>
</a>
</g>
</g>
<!-- Node4 -->
<g id="Node000004" class="node">
<title>Node4</title>
<g id="a_Node000004"><a xlink:href="Ghost_8cpp.html" target="_top" xlink:title="Represents a ghost enemy.">
<polygon fill="white" stroke="#666666" points="365.38,-132 287.88,-132 287.88,-112 365.38,-112 365.38,-132"/>
<text text-anchor="middle" x="326.62" y="-118.5" font-family="Helvetica,sans-Serif" font-size="10.00">src/Ghost.cpp</text>
</a>
</g>
</g>
<!-- Node2&#45;&gt;Node4 -->
<g id="edge3_Node000002_Node000004" class="edge">
<title>Node2&#45;&gt;Node4</title>
<g id="a_edge3_Node000002_Node000004"><a xlink:title=" ">
<path fill="none" stroke="#63b8ff" d="M207.65,-163.92C235.88,-154.21 273.71,-141.2 299.06,-132.48"/>
<polygon fill="#63b8ff" stroke="#63b8ff" points="206.72,-160.54 198.4,-167.1 209,-167.16 206.72,-160.54"/>
</a>
</g>
</g>
<!-- Node6&#45;&gt;Node4 -->
<g id="edge7_Node000006_Node000004" class="edge">
<title>Node6&#45;&gt;Node4</title>
<g id="a_edge7_Node000006_Node000004"><a xlink:title=" ">
<path fill="none" stroke="#63b8ff" d="M311.38,-157.29C315.18,-148.75 319.44,-139.16 322.49,-132.3"/>
<polygon fill="#63b8ff" stroke="#63b8ff" points="308.28,-155.65 307.42,-166.21 314.68,-158.49 308.28,-155.65"/>
</a>
</g>
</g>
<!-- Node7 -->
<g id="Node000007" class="node">
<title>Node7</title>
<g id="a_Node000007"><a xlink:href="FrightenedBehavior_8cpp.html" target="_top" xlink:title="Class representing a frightened ghost behavior.">
<polygon fill="white" stroke="#666666" points="269.88,-132 135.38,-132 135.38,-112 269.88,-112 269.88,-132"/>
<text text-anchor="middle" x="202.62" y="-118.5" font-family="Helvetica,sans-Serif" font-size="10.00">src/FrightenedBehavior.cpp</text>
</a>
</g>
</g>
<!-- Node6&#45;&gt;Node7 -->
<g id="edge6_Node000006_Node000007" class="edge">
<title>Node6&#45;&gt;Node7</title>
<g id="a_edge6_Node000006_Node000007"><a xlink:title=" ">
<path fill="none" stroke="#63b8ff" d="M275.49,-162.35C257.89,-152.84 235.47,-140.74 220.18,-132.48"/>
<polygon fill="#63b8ff" stroke="#63b8ff" points="273.41,-165.2 283.87,-166.87 276.74,-159.04 273.41,-165.2"/>
</a>
</g>
</g>
<!-- Node9&#45;&gt;Node4 -->
<g id="edge15_Node000009_Node000004" class="edge">
<title>Node9&#45;&gt;Node4</title>
<g id="a_edge15_Node000009_Node000004"><a xlink:title=" ">
<path fill="none" stroke="#63b8ff" d="M391.31,-161.81C375.61,-152.39 355.93,-140.58 342.42,-132.48"/>
<polygon fill="#63b8ff" stroke="#63b8ff" points="389.27,-164.67 399.65,-166.82 392.88,-158.67 389.27,-164.67"/>
</a>
</g>
</g>
<!-- Node10 -->
<g id="Node000010" class="node">
<title>Node10</title>
<g id="a_Node000010"><a xlink:href="Game_8h.html" target="_top" xlink:title="Class for handling the game logic.">
<polygon fill="white" stroke="#666666" points="450.12,-132 383.12,-132 383.12,-112 450.12,-112 450.12,-132"/>
<text text-anchor="middle" x="416.62" y="-118.5" font-family="Helvetica,sans-Serif" font-size="10.00">src/Game.h</text>
</a>
</g>
</g>
<!-- Node9&#45;&gt;Node10 -->
<g id="edge10_Node000009_Node000010" class="edge">
<title>Node9&#45;&gt;Node10</title>
<g id="a_edge10_Node000009_Node000010"><a xlink:title=" ">
<path fill="none" stroke="#63b8ff" d="M416.62,-156.13C416.62,-147.9 416.62,-138.85 416.62,-132.3"/>
<polygon fill="#63b8ff" stroke="#63b8ff" points="413.13,-156.08 416.63,-166.08 420.13,-156.08 413.13,-156.08"/>
</a>
</g>
</g>
<!-- Node10&#45;&gt;Node8 -->
<g id="edge11_Node000010_Node000008" class="edge">
<title>Node10&#45;&gt;Node8</title>
<g id="a_edge11_Node000010_Node000008"><a xlink:title=" ">
<path fill="none" stroke="#63b8ff" d="M440.96,-105.54C455.71,-96.17 474.07,-84.51 486.7,-76.48"/>
<polygon fill="#63b8ff" stroke="#63b8ff" points="439.27,-102.47 432.71,-110.78 443.03,-108.37 439.27,-102.47"/>
</a>
</g>
</g>
<!-- Node11 -->
<g id="Node000011" class="node">
<title>Node11</title>
<g id="a_Node000011"><a xlink:href="GameManager_8h.html" target="_top" xlink:title="Handles the game loop and game states.">
<polygon fill="white" stroke="#666666" points="444.5,-76 340.75,-76 340.75,-56 444.5,-56 444.5,-76"/>
<text text-anchor="middle" x="392.62" y="-62.5" font-family="Helvetica,sans-Serif" font-size="10.00">src/GameManager.h</text>
</a>
</g>
</g>
<!-- Node10&#45;&gt;Node11 -->
<g id="edge12_Node000010_Node000011" class="edge">
<title>Node10&#45;&gt;Node11</title>
<g id="a_edge12_Node000010_Node000011"><a xlink:title=" ">
<path fill="none" stroke="#63b8ff" d="M407.87,-101.29C404.07,-92.75 399.81,-83.16 396.76,-76.3"/>
<polygon fill="#63b8ff" stroke="#63b8ff" points="404.57,-102.49 411.83,-110.21 410.97,-99.65 404.57,-102.49"/>
</a>
</g>
</g>
<!-- Node12 -->
<g id="Node000012" class="node">
<title>Node12</title>
<g id="a_Node000012"><a xlink:href="GameManager_8cpp.html" target="_top" xlink:title="Handles the game loop and game states.">
<polygon fill="white" stroke="#666666" points="394.75,-20 280.5,-20 280.5,0 394.75,0 394.75,-20"/>
<text text-anchor="middle" x="337.62" y="-6.5" font-family="Helvetica,sans-Serif" font-size="10.00">src/GameManager.cpp</text>
</a>
</g>
</g>
<!-- Node11&#45;&gt;Node12 -->
<g id="edge13_Node000011_Node000012" class="edge">
<title>Node11&#45;&gt;Node12</title>
<g id="a_edge13_Node000011_Node000012"><a xlink:title=" ">
<path fill="none" stroke="#63b8ff" d="M374.87,-47.57C365.63,-38.5 354.71,-27.78 347.1,-20.3"/>
<polygon fill="#63b8ff" stroke="#63b8ff" points="372.38,-50.03 381.96,-54.53 377.28,-45.03 372.38,-50.03"/>
</a>
</g>
</g>
<!-- Node13 -->
<g id="Node000013" class="node">
<title>Node13</title>
<g id="a_Node000013"><a xlink:href="main_8cpp.html" target="_top" xlink:title="Main function, initializes the game manager.">
<polygon fill="white" stroke="#666666" points="484.75,-20 412.5,-20 412.5,0 484.75,0 484.75,-20"/>
<text text-anchor="middle" x="448.62" y="-6.5" font-family="Helvetica,sans-Serif" font-size="10.00">src/main.cpp</text>
</a>
</g>
</g>
<!-- Node11&#45;&gt;Node13 -->
<g id="edge14_Node000011_Node000013" class="edge">
<title>Node11&#45;&gt;Node13</title>
<g id="a_edge14_Node000011_Node000013"><a xlink:title=" ">
<path fill="none" stroke="#63b8ff" d="M410.41,-47.85C419.88,-38.72 431.15,-27.86 438.98,-20.3"/>
<polygon fill="#63b8ff" stroke="#63b8ff" points="408.24,-45.08 403.47,-54.54 413.1,-50.12 408.24,-45.08"/>
</a>
</g>
</g>
<!-- Node14&#45;&gt;Node4 -->
<g id="edge18_Node000014_Node000004" class="edge">
<title>Node14&#45;&gt;Node4</title>
<g id="a_edge18_Node000014_Node000004"><a xlink:title=" ">
<path fill="none" stroke="#63b8ff" d="M477.47,-164.56C442.01,-154.79 393.39,-141.39 361.03,-132.48"/>
<polygon fill="#63b8ff" stroke="#63b8ff" points="476.45,-167.91 487.03,-167.19 478.31,-161.16 476.45,-167.91"/>
</a>
</g>
</g>
<!-- Node14&#45;&gt;Node8 -->
<g id="edge17_Node000014_Node000008" class="edge">
<title>Node14&#45;&gt;Node8</title>
<g id="a_edge17_Node000014_Node000008"><a xlink:title=" ">
<path fill="none" stroke="#63b8ff" d="M509.37,-158.17C504.68,-150.44 500,-141.16 497.62,-132 492.63,-112.74 496.4,-89.24 499.23,-76.43"/>
<polygon fill="#63b8ff" stroke="#63b8ff" points="506.3,-159.88 514.7,-166.34 512.16,-156.05 506.3,-159.88"/>
</a>
</g>
</g>
<!-- Node15 -->
<g id="Node000015" class="node">
<title>Node15</title>
<g id="a_Node000015"><a xlink:href="ScatterBehavior_8cpp.html" target="_top" xlink:title="Class for the scatter behavior of the ghosts.">
<polygon fill="white" stroke="#666666" points="626.75,-132 506.5,-132 506.5,-112 626.75,-112 626.75,-132"/>
<text text-anchor="middle" x="566.62" y="-118.5" font-family="Helvetica,sans-Serif" font-size="10.00">src/ScatterBehavior.cpp</text>
</a>
</g>
</g>
<!-- Node14&#45;&gt;Node15 -->
<g id="edge19_Node000014_Node000015" class="edge">
<title>Node14&#45;&gt;Node15</title>
<g id="a_edge19_Node000014_Node000015"><a xlink:title=" ">
<path fill="none" stroke="#63b8ff" d="M537.52,-158.72C544.76,-149.84 553.14,-139.55 559.05,-132.3"/>
<polygon fill="#63b8ff" stroke="#63b8ff" points="534.85,-156.46 531.25,-166.42 540.28,-160.88 534.85,-156.46"/>
</a>
</g>
</g>
</g>
</svg>
