<?xml version="1.0" encoding="UTF-8" standalone="no"?>
<!DOCTYPE svg PUBLIC "-//W3C//DTD SVG 1.1//EN"
 "http://www.w3.org/Graphics/SVG/1.1/DTD/svg11.dtd">
<!-- Generated by graphviz version 2.43.0 (0)
 -->
<!-- Title: src/Enums.h Pages: 1 -->
<svg width="1731pt" height="532pt"
 viewBox="0.00 0.00 1731.13 532.00" xmlns="http://www.w3.org/2000/svg" xmlns:xlink="http://www.w3.org/1999/xlink">
<g id="graph0" class="graph" transform="scale(1 1) rotate(0) translate(4 528)">
<title>src/Enums.h</title>
<polygon fill="white" stroke="transparent" points="-4,4 -4,-528 1727.13,-528 1727.13,4 -4,4"/>
<!-- Node1 -->
<g id="node1" class="node">
<title>Node1</title>
<g id="a_node1"><a xlink:title=" ">
<polygon fill="#bfbfbf" stroke="black" points="723.13,-504.5 723.13,-523.5 799.13,-523.5 799.13,-504.5 723.13,-504.5"/>
<text text-anchor="middle" x="761.13" y="-511.5" font-family="Helvetica,sans-Serif" font-size="10.00">src/Enums.h</text>
</a>
</g>
</g>
<!-- Node2 -->
<g id="node2" class="node">
<title>Node2</title>
<g id="a_node2"><a xlink:href="EnemyBehavior_8cpp.html" target="_top" xlink:title="Base class for all enemy behaviors.">
<polygon fill="white" stroke="black" points="260.63,-168.5 260.63,-187.5 391.63,-187.5 391.63,-168.5 260.63,-168.5"/>
<text text-anchor="middle" x="326.13" y="-175.5" font-family="Helvetica,sans-Serif" font-size="10.00">src/EnemyBehavior.cpp</text>
</a>
</g>
</g>
<!-- Node1&#45;&gt;Node2 -->
<g id="edge1" class="edge">
<title>Node1&#45;&gt;Node2</title>
<path fill="none" stroke="midnightblue" d="M712.75,-509.25C610.16,-499.95 380.13,-471.48 380.13,-403 380.13,-403 380.13,-403 380.13,-289 380.13,-247.52 348.79,-205.41 333.86,-187.69"/>
<polygon fill="midnightblue" stroke="midnightblue" points="712.58,-512.74 722.85,-510.14 713.2,-505.77 712.58,-512.74"/>
</g>
<!-- Node3 -->
<g id="node3" class="node">
<title>Node3</title>
<g id="a_node3"><a xlink:href="EnemyBehavior_8h.html" target="_top" xlink:title="Base class for all enemy behaviors.">
<polygon fill="white" stroke="black" points="687.63,-224.5 687.63,-243.5 806.63,-243.5 806.63,-224.5 687.63,-224.5"/>
<text text-anchor="middle" x="747.13" y="-231.5" font-family="Helvetica,sans-Serif" font-size="10.00">src/EnemyBehavior.h</text>
</a>
</g>
</g>
<!-- Node1&#45;&gt;Node3 -->
<g id="edge2" class="edge">
<title>Node1&#45;&gt;Node3</title>
<path fill="none" stroke="midnightblue" d="M713,-512.1C641.65,-507.92 516.13,-488.44 516.13,-403 516.13,-403 516.13,-403 516.13,-345 516.13,-269.15 618.89,-245.55 687.34,-238.24"/>
<polygon fill="midnightblue" stroke="midnightblue" points="712.95,-515.6 723.11,-512.61 713.3,-508.61 712.95,-515.6"/>
</g>
<!-- Node12 -->
<g id="node12" class="node">
<title>Node12</title>
<g id="a_node12"><a xlink:href="GameManager_8h.html" target="_top" xlink:title="Handles the game loop and game states.">
<polygon fill="white" stroke="black" points="1368.13,-56.5 1368.13,-75.5 1482.13,-75.5 1482.13,-56.5 1368.13,-56.5"/>
<text text-anchor="middle" x="1425.13" y="-63.5" font-family="Helvetica,sans-Serif" font-size="10.00">src/GameManager.h</text>
</a>
</g>
</g>
<!-- Node1&#45;&gt;Node12 -->
<g id="edge23" class="edge">
<title>Node1&#45;&gt;Node12</title>
<path fill="none" stroke="midnightblue" d="M809.35,-512.61C1004.22,-510.41 1723.13,-496 1723.13,-403 1723.13,-403 1723.13,-403 1723.13,-177 1723.13,-125.57 1564.97,-90.7 1479.09,-75.55"/>
<polygon fill="midnightblue" stroke="midnightblue" points="809.1,-509.11 799.13,-512.72 809.17,-516.11 809.1,-509.11"/>
</g>
<!-- Node13 -->
<g id="node13" class="node">
<title>Node13</title>
<g id="a_node13"><a xlink:href="GameManager_8cpp.html" target="_top" xlink:title="Handles the game loop and game states.">
<polygon fill="white" stroke="black" points="669.63,-0.5 669.63,-19.5 794.63,-19.5 794.63,-0.5 669.63,-0.5"/>
<text text-anchor="middle" x="732.13" y="-7.5" font-family="Helvetica,sans-Serif" font-size="10.00">src/GameManager.cpp</text>
</a>
</g>
</g>
<!-- Node1&#45;&gt;Node13 -->
<g id="edge22" class="edge">
<title>Node1&#45;&gt;Node13</title>
<path fill="none" stroke="midnightblue" d="M712.92,-511.13C545.76,-504 1.13,-475.23 1.13,-403 1.13,-403 1.13,-403 1.13,-121 1.13,-90.9 -3.38,-74.8 20.13,-56 70.18,-15.96 504.81,-11.25 669.36,-10.91"/>
<polygon fill="midnightblue" stroke="midnightblue" points="712.78,-514.62 722.92,-511.55 713.07,-507.63 712.78,-514.62"/>
</g>
<!-- Node17 -->
<g id="node17" class="node">
<title>Node17</title>
<g id="a_node17"><a xlink:href="GameObject_8h.html" target="_top" xlink:title="Base class for all game objects.">
<polygon fill="white" stroke="black" points="582.13,-336.5 582.13,-355.5 686.13,-355.5 686.13,-336.5 582.13,-336.5"/>
<text text-anchor="middle" x="634.13" y="-343.5" font-family="Helvetica,sans-Serif" font-size="10.00">src/GameObject.h</text>
</a>
</g>
</g>
<!-- Node1&#45;&gt;Node17 -->
<g id="edge24" class="edge">
<title>Node1&#45;&gt;Node17</title>
<path fill="none" stroke="midnightblue" d="M747.94,-495.76C721.03,-460.59 660.65,-381.68 640.68,-355.57"/>
<polygon fill="midnightblue" stroke="midnightblue" points="745.44,-498.26 754.3,-504.08 751,-494.01 745.44,-498.26"/>
</g>
<!-- Node19 -->
<g id="node19" class="node">
<title>Node19</title>
<g id="a_node19"><a xlink:href="InteractiveObject_8h.html" target="_top" xlink:title="Base class for all interactive objects.">
<polygon fill="white" stroke="black" points="409.63,-168.5 409.63,-187.5 536.63,-187.5 536.63,-168.5 409.63,-168.5"/>
<text text-anchor="middle" x="473.13" y="-175.5" font-family="Helvetica,sans-Serif" font-size="10.00">src/InteractiveObject.h</text>
</a>
</g>
</g>
<!-- Node1&#45;&gt;Node19 -->
<g id="edge77" class="edge">
<title>Node1&#45;&gt;Node19</title>
<path fill="none" stroke="midnightblue" d="M712.67,-513.09C663.03,-511.11 585.24,-502.14 528.13,-468 496.13,-448.88 475.13,-440.28 475.13,-403 475.13,-403 475.13,-403 475.13,-289 475.13,-251.18 473.93,-206.06 473.39,-187.56"/>
<polygon fill="midnightblue" stroke="midnightblue" points="712.72,-516.59 722.82,-513.41 712.94,-509.59 712.72,-516.59"/>
</g>
<!-- Node29 -->
<g id="node29" class="node">
<title>Node29</title>
<g id="a_node29"><a xlink:href="MovingObject_8h.html" target="_top" xlink:title="Base class for all moving objects.">
<polygon fill="white" stroke="black" points="860.13,-280.5 860.13,-299.5 970.13,-299.5 970.13,-280.5 860.13,-280.5"/>
<text text-anchor="middle" x="915.13" y="-287.5" font-family="Helvetica,sans-Serif" font-size="10.00">src/MovingObject.h</text>
</a>
</g>
</g>
<!-- Node1&#45;&gt;Node29 -->
<g id="edge78" class="edge">
<title>Node1&#45;&gt;Node29</title>
<path fill="none" stroke="midnightblue" d="M772.92,-496C803.72,-451.6 885.8,-333.27 908.96,-299.88"/>
<polygon fill="midnightblue" stroke="midnightblue" points="769.99,-494.09 767.16,-504.3 775.74,-498.08 769.99,-494.09"/>
</g>
<!-- Node33 -->
<g id="node33" class="node">
<title>Node33</title>
<g id="a_node33"><a xlink:href="GamePhase_8h.html" target="_top" xlink:title="Handles the game phase and level.">
<polygon fill="white" stroke="black" points="710.63,-392.5 710.63,-411.5 811.63,-411.5 811.63,-392.5 710.63,-392.5"/>
<text text-anchor="middle" x="761.13" y="-399.5" font-family="Helvetica,sans-Serif" font-size="10.00">src/GamePhase.h</text>
</a>
</g>
</g>
<!-- Node1&#45;&gt;Node33 -->
<g id="edge52" class="edge">
<title>Node1&#45;&gt;Node33</title>
<path fill="none" stroke="midnightblue" d="M761.13,-494.35C761.13,-470.25 761.13,-429.31 761.13,-411.59"/>
<polygon fill="midnightblue" stroke="midnightblue" points="757.63,-494.37 761.13,-504.37 764.63,-494.37 757.63,-494.37"/>
</g>
<!-- Node35 -->
<g id="node35" class="node">
<title>Node35</title>
<g id="a_node35"><a xlink:href="Helpers_8h.html" target="_top" xlink:title=" ">
<polygon fill="white" stroke="black" points="1323.13,-448.5 1323.13,-467.5 1403.13,-467.5 1403.13,-448.5 1323.13,-448.5"/>
<text text-anchor="middle" x="1363.13" y="-455.5" font-family="Helvetica,sans-Serif" font-size="10.00">src/Helpers.h</text>
</a>
</g>
</g>
<!-- Node1&#45;&gt;Node35 -->
<g id="edge58" class="edge">
<title>Node1&#45;&gt;Node35</title>
<path fill="none" stroke="midnightblue" d="M809.2,-508.69C924.63,-498.33 1215.78,-472.22 1322.83,-462.61"/>
<polygon fill="midnightblue" stroke="midnightblue" points="808.89,-505.2 799.24,-509.58 809.51,-512.17 808.89,-505.2"/>
</g>
<!-- Node37 -->
<g id="node37" class="node">
<title>Node37</title>
<g id="a_node37"><a xlink:href="Window_8cpp.html" target="_top" xlink:title="Class for handling ncurses windows.">
<polygon fill="white" stroke="black" points="1603.13,-336.5 1603.13,-355.5 1695.13,-355.5 1695.13,-336.5 1603.13,-336.5"/>
<text text-anchor="middle" x="1649.13" y="-343.5" font-family="Helvetica,sans-Serif" font-size="10.00">src/Window.cpp</text>
</a>
</g>
</g>
<!-- Node1&#45;&gt;Node37 -->
<g id="edge79" class="edge">
<title>Node1&#45;&gt;Node37</title>
<path fill="none" stroke="midnightblue" d="M809.41,-511.5C945.23,-507.02 1328.73,-492.51 1452.13,-468 1528.08,-452.91 1558.92,-463.08 1617.13,-412 1634.52,-396.73 1643.44,-369.83 1647.08,-355.91"/>
<polygon fill="midnightblue" stroke="midnightblue" points="809.19,-508.01 799.3,-511.83 809.41,-515 809.19,-508.01"/>
</g>
<!-- Node38 -->
<g id="node38" class="node">
<title>Node38</title>
<g id="a_node38"><a xlink:href="Window_8h.html" target="_top" xlink:title="Class for handling ncurses windows.">
<polygon fill="white" stroke="black" points="1501.63,-392.5 1501.63,-411.5 1582.63,-411.5 1582.63,-392.5 1501.63,-392.5"/>
<text text-anchor="middle" x="1542.13" y="-399.5" font-family="Helvetica,sans-Serif" font-size="10.00">src/Window.h</text>
</a>
</g>
</g>
<!-- Node1&#45;&gt;Node38 -->
<g id="edge80" class="edge">
<title>Node1&#45;&gt;Node38</title>
<path fill="none" stroke="midnightblue" d="M809.46,-512.11C940.18,-509.32 1298.53,-498.99 1412.13,-468 1457.89,-455.51 1506.55,-426.31 1529.17,-411.68"/>
<polygon fill="midnightblue" stroke="midnightblue" points="809.27,-508.62 799.35,-512.32 809.42,-515.61 809.27,-508.62"/>
</g>
<!-- Node3&#45;&gt;Node2 -->
<g id="edge6" class="edge">
<title>Node3&#45;&gt;Node2</title>
<path fill="none" stroke="midnightblue" d="M676.86,-223.99C597.42,-213.8 469.11,-197.34 391.68,-187.41"/>
<polygon fill="midnightblue" stroke="midnightblue" points="676.89,-227.52 687.25,-225.32 677.78,-220.58 676.89,-227.52"/>
</g>
<!-- Node4 -->
<g id="node4" class="node">
<title>Node4</title>
<g id="a_node4"><a xlink:href="ChaseBehavior_8h.html" target="_top" xlink:title="Class for handling the chase behavior of ghosts.">
<polygon fill="white" stroke="black" points="596.13,-168.5 596.13,-187.5 712.13,-187.5 712.13,-168.5 596.13,-168.5"/>
<text text-anchor="middle" x="654.13" y="-175.5" font-family="Helvetica,sans-Serif" font-size="10.00">src/ChaseBehavior.h</text>
</a>
</g>
</g>
<!-- Node3&#45;&gt;Node4 -->
<g id="edge3" class="edge">
<title>Node3&#45;&gt;Node4</title>
<path fill="none" stroke="midnightblue" d="M723.32,-219.18C706.21,-209.24 683.66,-196.15 669.03,-187.65"/>
<polygon fill="midnightblue" stroke="midnightblue" points="721.78,-222.33 732.18,-224.32 725.29,-216.28 721.78,-222.33"/>
</g>
<!-- Node7 -->
<g id="node7" class="node">
<title>Node7</title>
<g id="a_node7"><a xlink:href="FrightenedBehavior_8h.html" target="_top" xlink:title="Class representing a frightened ghost behavior.">
<polygon fill="white" stroke="black" points="730.63,-168.5 730.63,-187.5 867.63,-187.5 867.63,-168.5 730.63,-168.5"/>
<text text-anchor="middle" x="799.13" y="-175.5" font-family="Helvetica,sans-Serif" font-size="10.00">src/FrightenedBehavior.h</text>
</a>
</g>
</g>
<!-- Node3&#45;&gt;Node7 -->
<g id="edge7" class="edge">
<title>Node3&#45;&gt;Node7</title>
<path fill="none" stroke="midnightblue" d="M762.8,-216.72C771.97,-207.2 783.18,-195.56 790.7,-187.75"/>
<polygon fill="midnightblue" stroke="midnightblue" points="760.13,-214.45 755.71,-224.08 765.17,-219.31 760.13,-214.45"/>
</g>
<!-- Node9 -->
<g id="node9" class="node">
<title>Node9</title>
<g id="a_node9"><a xlink:href="Game_8cpp.html" target="_top" xlink:title="Class for handling the game logic.">
<polygon fill="white" stroke="black" points="479.63,-56.5 479.63,-75.5 562.63,-75.5 562.63,-56.5 479.63,-56.5"/>
<text text-anchor="middle" x="521.13" y="-63.5" font-family="Helvetica,sans-Serif" font-size="10.00">src/Game.cpp</text>
</a>
</g>
</g>
<!-- Node3&#45;&gt;Node9 -->
<g id="edge10" class="edge">
<title>Node3&#45;&gt;Node9</title>
<path fill="none" stroke="midnightblue" d="M677.16,-225.62C646.91,-219.51 612.67,-208.36 587.13,-188 584.62,-186.01 540.18,-102.79 525.67,-75.54"/>
<polygon fill="midnightblue" stroke="midnightblue" points="676.78,-229.11 687.25,-227.5 678.06,-222.22 676.78,-229.11"/>
</g>
<!-- Node10 -->
<g id="node10" class="node">
<title>Node10</title>
<g id="a_node10"><a xlink:href="Ghost_8h.html" target="_top" xlink:title="Represents a ghost enemy.">
<polygon fill="white" stroke="black" points="1138.63,-168.5 1138.63,-187.5 1209.63,-187.5 1209.63,-168.5 1138.63,-168.5"/>
<text text-anchor="middle" x="1174.13" y="-175.5" font-family="Helvetica,sans-Serif" font-size="10.00">src/Ghost.h</text>
</a>
</g>
</g>
<!-- Node3&#45;&gt;Node10 -->
<g id="edge11" class="edge">
<title>Node3&#45;&gt;Node10</title>
<path fill="none" stroke="midnightblue" d="M817.02,-224.16C909.17,-212.51 1067.86,-192.44 1138.46,-183.51"/>
<polygon fill="midnightblue" stroke="midnightblue" points="816.43,-220.71 806.95,-225.43 817.31,-227.65 816.43,-220.71"/>
</g>
<!-- Node15 -->
<g id="node15" class="node">
<title>Node15</title>
<g id="a_node15"><a xlink:href="ScatterBehavior_8h.html" target="_top" xlink:title="Class for the scatter behavior of the ghosts.">
<polygon fill="white" stroke="black" points="886.13,-168.5 886.13,-187.5 1006.13,-187.5 1006.13,-168.5 886.13,-168.5"/>
<text text-anchor="middle" x="946.13" y="-175.5" font-family="Helvetica,sans-Serif" font-size="10.00">src/ScatterBehavior.h</text>
</a>
</g>
</g>
<!-- Node3&#45;&gt;Node15 -->
<g id="edge18" class="edge">
<title>Node3&#45;&gt;Node15</title>
<path fill="none" stroke="midnightblue" d="M788.77,-221.7C826.33,-211.51 880.74,-196.74 914.74,-187.52"/>
<polygon fill="midnightblue" stroke="midnightblue" points="787.39,-218.45 778.66,-224.44 789.23,-225.2 787.39,-218.45"/>
</g>
<!-- Node5 -->
<g id="node5" class="node">
<title>Node5</title>
<g id="a_node5"><a xlink:href="ChaseBehavior_8cpp.html" target="_top" xlink:title="Class for handling the chase behavior of ghosts.">
<polygon fill="white" stroke="black" points="592.63,-112.5 592.63,-131.5 719.63,-131.5 719.63,-112.5 592.63,-112.5"/>
<text text-anchor="middle" x="656.13" y="-119.5" font-family="Helvetica,sans-Serif" font-size="10.00">src/ChaseBehavior.cpp</text>
</a>
</g>
</g>
<!-- Node4&#45;&gt;Node5 -->
<g id="edge4" class="edge">
<title>Node4&#45;&gt;Node5</title>
<path fill="none" stroke="midnightblue" d="M654.84,-157.8C655.17,-148.91 655.54,-138.78 655.8,-131.75"/>
<polygon fill="midnightblue" stroke="midnightblue" points="651.33,-157.96 654.46,-168.08 658.32,-158.22 651.33,-157.96"/>
</g>
<!-- Node6 -->
<g id="node6" class="node">
<title>Node6</title>
<g id="a_node6"><a xlink:href="Ghost_8cpp.html" target="_top" xlink:title="Represents a ghost enemy.">
<polygon fill="white" stroke="black" points="1092.63,-112.5 1092.63,-131.5 1175.63,-131.5 1175.63,-112.5 1092.63,-112.5"/>
<text text-anchor="middle" x="1134.13" y="-119.5" font-family="Helvetica,sans-Serif" font-size="10.00">src/Ghost.cpp</text>
</a>
</g>
</g>
<!-- Node4&#45;&gt;Node6 -->
<g id="edge5" class="edge">
<title>Node4&#45;&gt;Node6</title>
<path fill="none" stroke="midnightblue" d="M722.58,-167.97C864.98,-150.87 1019.95,-134.67 1092.57,-127.22"/>
<polygon fill="midnightblue" stroke="midnightblue" points="721.86,-164.53 712.35,-169.2 722.7,-171.48 721.86,-164.53"/>
</g>
<!-- Node7&#45;&gt;Node6 -->
<g id="edge9" class="edge">
<title>Node7&#45;&gt;Node6</title>
<path fill="none" stroke="midnightblue" d="M862.28,-166.82C929.7,-155.95 1034.61,-139.04 1092.41,-129.73"/>
<polygon fill="midnightblue" stroke="midnightblue" points="861.52,-163.4 852.21,-168.44 862.64,-170.31 861.52,-163.4"/>
</g>
<!-- Node8 -->
<g id="node8" class="node">
<title>Node8</title>
<g id="a_node8"><a xlink:href="FrightenedBehavior_8cpp.html" target="_top" xlink:title="Class representing a frightened ghost behavior.">
<polygon fill="white" stroke="black" points="737.63,-112.5 737.63,-131.5 886.63,-131.5 886.63,-112.5 737.63,-112.5"/>
<text text-anchor="middle" x="812.13" y="-119.5" font-family="Helvetica,sans-Serif" font-size="10.00">src/FrightenedBehavior.cpp</text>
</a>
</g>
</g>
<!-- Node7&#45;&gt;Node8 -->
<g id="edge8" class="edge">
<title>Node7&#45;&gt;Node8</title>
<path fill="none" stroke="midnightblue" d="M803.68,-158.1C805.83,-149.14 808.31,-138.86 810.02,-131.75"/>
<polygon fill="midnightblue" stroke="midnightblue" points="800.21,-157.54 801.27,-168.08 807.02,-159.18 800.21,-157.54"/>
</g>
<!-- Node10&#45;&gt;Node6 -->
<g id="edge17" class="edge">
<title>Node10&#45;&gt;Node6</title>
<path fill="none" stroke="midnightblue" d="M1161.43,-159.86C1154.5,-150.5 1146.22,-139.33 1140.61,-131.75"/>
<polygon fill="midnightblue" stroke="midnightblue" points="1158.76,-162.13 1167.52,-168.08 1164.38,-157.96 1158.76,-162.13"/>
</g>
<!-- Node11 -->
<g id="node11" class="node">
<title>Node11</title>
<g id="a_node11"><a xlink:href="Game_8h.html" target="_top" xlink:title="Class for handling the game logic.">
<polygon fill="white" stroke="black" points="1240.13,-112.5 1240.13,-131.5 1312.13,-131.5 1312.13,-112.5 1240.13,-112.5"/>
<text text-anchor="middle" x="1276.13" y="-119.5" font-family="Helvetica,sans-Serif" font-size="10.00">src/Game.h</text>
</a>
</g>
</g>
<!-- Node10&#45;&gt;Node11 -->
<g id="edge12" class="edge">
<title>Node10&#45;&gt;Node11</title>
<path fill="none" stroke="midnightblue" d="M1199.46,-163.59C1218.32,-153.61 1243.51,-140.27 1259.78,-131.65"/>
<polygon fill="midnightblue" stroke="midnightblue" points="1197.71,-160.55 1190.51,-168.32 1200.99,-166.74 1197.71,-160.55"/>
</g>
<!-- Node11&#45;&gt;Node9 -->
<g id="edge13" class="edge">
<title>Node11&#45;&gt;Node9</title>
<path fill="none" stroke="midnightblue" d="M1230.04,-113.47C1226.02,-112.92 1222,-112.43 1218.13,-112 970.42,-84.84 671.26,-72.29 562.88,-68.39"/>
<polygon fill="midnightblue" stroke="midnightblue" points="1229.6,-116.94 1239.99,-114.88 1230.59,-110.01 1229.6,-116.94"/>
</g>
<!-- Node11&#45;&gt;Node12 -->
<g id="edge14" class="edge">
<title>Node11&#45;&gt;Node12</title>
<path fill="none" stroke="midnightblue" d="M1309.5,-108.91C1337.51,-98.75 1376.82,-84.51 1401.63,-75.52"/>
<polygon fill="midnightblue" stroke="midnightblue" points="1307.94,-105.75 1299.73,-112.44 1310.33,-112.33 1307.94,-105.75"/>
</g>
<!-- Node12&#45;&gt;Node13 -->
<g id="edge15" class="edge">
<title>Node12&#45;&gt;Node13</title>
<path fill="none" stroke="midnightblue" d="M1357.99,-59.77C1223.97,-49.33 925,-26.03 794.77,-15.88"/>
<polygon fill="midnightblue" stroke="midnightblue" points="1357.88,-63.27 1368.12,-60.56 1358.42,-56.29 1357.88,-63.27"/>
</g>
<!-- Node14 -->
<g id="node14" class="node">
<title>Node14</title>
<g id="a_node14"><a xlink:href="main_8cpp.html" target="_top" xlink:title="Main function, initializes the game manager.">
<polygon fill="white" stroke="black" points="1385.63,-0.5 1385.63,-19.5 1464.63,-19.5 1464.63,-0.5 1385.63,-0.5"/>
<text text-anchor="middle" x="1425.13" y="-7.5" font-family="Helvetica,sans-Serif" font-size="10.00">src/main.cpp</text>
</a>
</g>
</g>
<!-- Node12&#45;&gt;Node14 -->
<g id="edge16" class="edge">
<title>Node12&#45;&gt;Node14</title>
<path fill="none" stroke="midnightblue" d="M1425.13,-45.8C1425.13,-36.91 1425.13,-26.78 1425.13,-19.75"/>
<polygon fill="midnightblue" stroke="midnightblue" points="1421.63,-46.08 1425.13,-56.08 1428.63,-46.08 1421.63,-46.08"/>
</g>
<!-- Node15&#45;&gt;Node6 -->
<g id="edge20" class="edge">
<title>Node15&#45;&gt;Node6</title>
<path fill="none" stroke="midnightblue" d="M985.93,-165.57C1021.39,-155.38 1072.49,-140.7 1104.48,-131.52"/>
<polygon fill="midnightblue" stroke="midnightblue" points="984.56,-162.32 975.91,-168.44 986.49,-169.05 984.56,-162.32"/>
</g>
<!-- Node15&#45;&gt;Node9 -->
<g id="edge19" class="edge">
<title>Node15&#45;&gt;Node9</title>
<path fill="none" stroke="midnightblue" d="M990.62,-165.48C1026.11,-154.23 1066.6,-135.4 1045.13,-112 1012.71,-76.68 680.87,-69.03 562.66,-67.42"/>
<polygon fill="midnightblue" stroke="midnightblue" points="989.36,-162.21 980.8,-168.45 991.38,-168.91 989.36,-162.21"/>
</g>
<!-- Node16 -->
<g id="node16" class="node">
<title>Node16</title>
<g id="a_node16"><a xlink:href="ScatterBehavior_8cpp.html" target="_top" xlink:title="Class for the scatter behavior of the ghosts.">
<polygon fill="white" stroke="black" points="904.63,-112.5 904.63,-131.5 1035.63,-131.5 1035.63,-112.5 904.63,-112.5"/>
<text text-anchor="middle" x="970.13" y="-119.5" font-family="Helvetica,sans-Serif" font-size="10.00">src/ScatterBehavior.cpp</text>
</a>
</g>
</g>
<!-- Node15&#45;&gt;Node16 -->
<g id="edge21" class="edge">
<title>Node15&#45;&gt;Node16</title>
<path fill="none" stroke="midnightblue" d="M954.26,-158.69C958.31,-149.59 963.01,-139.01 966.24,-131.75"/>
<polygon fill="midnightblue" stroke="midnightblue" points="950.95,-157.52 950.09,-168.08 957.35,-160.37 950.95,-157.52"/>
</g>
<!-- Node17&#45;&gt;Node11 -->
<g id="edge25" class="edge">
<title>Node17&#45;&gt;Node11</title>
<path fill="none" stroke="midnightblue" d="M695.82,-336.04C695.92,-336.03 696.02,-336.01 696.13,-336 821.74,-318.9 1172.11,-336.19 1259.13,-244 1288.97,-212.37 1281.92,-153.81 1277.92,-131.73"/>
<polygon fill="midnightblue" stroke="midnightblue" points="695.64,-332.53 686.21,-337.37 696.6,-339.47 695.64,-332.53"/>
</g>
<!-- Node18 -->
<g id="node18" class="node">
<title>Node18</title>
<g id="a_node18"><a xlink:href="GameObject_8cpp.html" target="_top" xlink:title="Base class for all game objects.">
<polygon fill="white" stroke="black" points="620.63,-280.5 620.63,-299.5 735.63,-299.5 735.63,-280.5 620.63,-280.5"/>
<text text-anchor="middle" x="678.13" y="-287.5" font-family="Helvetica,sans-Serif" font-size="10.00">src/GameObject.cpp</text>
</a>
</g>
</g>
<!-- Node17&#45;&gt;Node18 -->
<g id="edge26" class="edge">
<title>Node17&#45;&gt;Node18</title>
<path fill="none" stroke="midnightblue" d="M647.86,-328.14C655.53,-318.74 664.76,-307.4 670.99,-299.75"/>
<polygon fill="midnightblue" stroke="midnightblue" points="644.99,-326.12 641.39,-336.08 650.42,-330.54 644.99,-326.12"/>
</g>
<!-- Node17&#45;&gt;Node19 -->
<g id="edge27" class="edge">
<title>Node17&#45;&gt;Node19</title>
<path fill="none" stroke="midnightblue" d="M625.2,-327.22C609.18,-295.54 576.44,-231.86 568.13,-224 549.55,-206.46 522.88,-194.64 502.52,-187.54"/>
<polygon fill="midnightblue" stroke="midnightblue" points="622.14,-328.92 629.76,-336.28 628.39,-325.77 622.14,-328.92"/>
</g>
<!-- Node17&#45;&gt;Node29 -->
<g id="edge42" class="edge">
<title>Node17&#45;&gt;Node29</title>
<path fill="none" stroke="midnightblue" d="M688.57,-334.54C741.68,-324.33 821.46,-309 870.81,-299.52"/>
<polygon fill="midnightblue" stroke="midnightblue" points="687.81,-331.12 678.65,-336.44 689.13,-337.99 687.81,-331.12"/>
</g>
<!-- Node19&#45;&gt;Node11 -->
<g id="edge34" class="edge">
<title>Node19&#45;&gt;Node11</title>
<path fill="none" stroke="midnightblue" d="M546.86,-170.98C560.25,-169.94 574.11,-168.91 587.13,-168 852.74,-149.52 919.7,-153.11 1185.13,-132 1203.17,-130.57 1223.19,-128.62 1239.84,-126.91"/>
<polygon fill="midnightblue" stroke="midnightblue" points="546.42,-167.5 536.72,-171.77 546.96,-174.48 546.42,-167.5"/>
</g>
<!-- Node20 -->
<g id="node20" class="node">
<title>Node20</title>
<g id="a_node20"><a xlink:href="Cherry_8h.html" target="_top" xlink:title="Class representing a cherry collectible.">
<polygon fill="white" stroke="black" points="122.13,-112.5 122.13,-131.5 196.13,-131.5 196.13,-112.5 122.13,-112.5"/>
<text text-anchor="middle" x="159.13" y="-119.5" font-family="Helvetica,sans-Serif" font-size="10.00">src/Cherry.h</text>
</a>
</g>
</g>
<!-- Node19&#45;&gt;Node20 -->
<g id="edge28" class="edge">
<title>Node19&#45;&gt;Node20</title>
<path fill="none" stroke="midnightblue" d="M409.74,-166.85C355.38,-158.03 275.01,-144.7 205.13,-132 202.24,-131.48 199.26,-130.92 196.27,-130.36"/>
<polygon fill="midnightblue" stroke="midnightblue" points="409.48,-170.35 419.91,-168.5 410.6,-163.44 409.48,-170.35"/>
</g>
<!-- Node22 -->
<g id="node22" class="node">
<title>Node22</title>
<g id="a_node22"><a xlink:href="Coin_8h.html" target="_top" xlink:title="Class representing a coin collectible.">
<polygon fill="white" stroke="black" points="214.63,-112.5 214.63,-131.5 279.63,-131.5 279.63,-112.5 214.63,-112.5"/>
<text text-anchor="middle" x="247.13" y="-119.5" font-family="Helvetica,sans-Serif" font-size="10.00">src/Coin.h</text>
</a>
</g>
</g>
<!-- Node19&#45;&gt;Node22 -->
<g id="edge31" class="edge">
<title>Node19&#45;&gt;Node22</title>
<path fill="none" stroke="midnightblue" d="M427.49,-166.1C383.71,-155.64 318.68,-140.1 279.83,-130.82"/>
<polygon fill="midnightblue" stroke="midnightblue" points="426.78,-169.52 437.32,-168.44 428.4,-162.72 426.78,-169.52"/>
</g>
<!-- Node24 -->
<g id="node24" class="node">
<title>Node24</title>
<g id="a_node24"><a xlink:href="InteractiveObject_8cpp.html" target="_top" xlink:title="Base class for all interactive objects.">
<polygon fill="white" stroke="black" points="398.13,-112.5 398.13,-131.5 536.13,-131.5 536.13,-112.5 398.13,-112.5"/>
<text text-anchor="middle" x="467.13" y="-119.5" font-family="Helvetica,sans-Serif" font-size="10.00">src/InteractiveObject.cpp</text>
</a>
</g>
</g>
<!-- Node19&#45;&gt;Node24 -->
<g id="edge35" class="edge">
<title>Node19&#45;&gt;Node24</title>
<path fill="none" stroke="midnightblue" d="M471.03,-158.1C470.03,-149.14 468.89,-138.86 468.1,-131.75"/>
<polygon fill="midnightblue" stroke="midnightblue" points="467.55,-158.53 472.13,-168.08 474.51,-157.76 467.55,-158.53"/>
</g>
<!-- Node25 -->
<g id="node25" class="node">
<title>Node25</title>
<g id="a_node25"><a xlink:href="Teleport_8h.html" target="_top" xlink:title="Represents a teleport object.">
<polygon fill="white" stroke="black" points="298.13,-112.5 298.13,-131.5 380.13,-131.5 380.13,-112.5 298.13,-112.5"/>
<text text-anchor="middle" x="339.13" y="-119.5" font-family="Helvetica,sans-Serif" font-size="10.00">src/Teleport.h</text>
</a>
</g>
</g>
<!-- Node19&#45;&gt;Node25 -->
<g id="edge36" class="edge">
<title>Node19&#45;&gt;Node25</title>
<path fill="none" stroke="midnightblue" d="M442.45,-164.64C417.3,-154.5 382.37,-140.43 360.26,-131.52"/>
<polygon fill="midnightblue" stroke="midnightblue" points="441.31,-167.95 451.89,-168.44 443.93,-161.46 441.31,-167.95"/>
</g>
<!-- Node27 -->
<g id="node27" class="node">
<title>Node27</title>
<g id="a_node27"><a xlink:href="Wall_8h.html" target="_top" xlink:title="Represents a wall object.">
<polygon fill="white" stroke="black" points="40.13,-112.5 40.13,-131.5 104.13,-131.5 104.13,-112.5 40.13,-112.5"/>
<text text-anchor="middle" x="72.13" y="-119.5" font-family="Helvetica,sans-Serif" font-size="10.00">src/Wall.h</text>
</a>
</g>
</g>
<!-- Node19&#45;&gt;Node27 -->
<g id="edge39" class="edge">
<title>Node19&#45;&gt;Node27</title>
<path fill="none" stroke="midnightblue" d="M399.47,-167.88C296.2,-155.08 120.13,-133.2 113.13,-132 110.25,-131.51 107.28,-130.95 104.3,-130.35"/>
<polygon fill="midnightblue" stroke="midnightblue" points="399.18,-171.37 409.53,-169.13 400.04,-164.42 399.18,-171.37"/>
</g>
<!-- Node20&#45;&gt;Node9 -->
<g id="edge30" class="edge">
<title>Node20&#45;&gt;Node9</title>
<path fill="none" stroke="midnightblue" d="M206.3,-111.87C310.39,-94.47 420.99,-79.73 479.61,-72.22"/>
<polygon fill="midnightblue" stroke="midnightblue" points="205.53,-108.45 196.25,-113.56 206.69,-115.36 205.53,-108.45"/>
</g>
<!-- Node21 -->
<g id="node21" class="node">
<title>Node21</title>
<g id="a_node21"><a xlink:href="Cherry_8cpp.html" target="_top" xlink:title="Class representing a cherry collectible.">
<polygon fill="white" stroke="black" points="122.63,-56.5 122.63,-75.5 207.63,-75.5 207.63,-56.5 122.63,-56.5"/>
<text text-anchor="middle" x="165.13" y="-63.5" font-family="Helvetica,sans-Serif" font-size="10.00">src/Cherry.cpp</text>
</a>
</g>
</g>
<!-- Node20&#45;&gt;Node21 -->
<g id="edge29" class="edge">
<title>Node20&#45;&gt;Node21</title>
<path fill="none" stroke="midnightblue" d="M161.23,-102.1C162.22,-93.14 163.36,-82.86 164.15,-75.75"/>
<polygon fill="midnightblue" stroke="midnightblue" points="157.74,-101.76 160.12,-112.08 164.7,-102.53 157.74,-101.76"/>
</g>
<!-- Node22&#45;&gt;Node9 -->
<g id="edge33" class="edge">
<title>Node22&#45;&gt;Node9</title>
<path fill="none" stroke="midnightblue" d="M289.47,-111.96C362.26,-97.16 435.12,-83.21 479.59,-74.8"/>
<polygon fill="midnightblue" stroke="midnightblue" points="288.77,-108.53 279.67,-113.96 290.17,-115.39 288.77,-108.53"/>
</g>
<!-- Node23 -->
<g id="node23" class="node">
<title>Node23</title>
<g id="a_node23"><a xlink:href="Coin_8cpp.html" target="_top" xlink:title="Class representing a coin collectible.">
<polygon fill="white" stroke="black" points="226.13,-56.5 226.13,-75.5 302.13,-75.5 302.13,-56.5 226.13,-56.5"/>
<text text-anchor="middle" x="264.13" y="-63.5" font-family="Helvetica,sans-Serif" font-size="10.00">src/Coin.cpp</text>
</a>
</g>
</g>
<!-- Node22&#45;&gt;Node23 -->
<g id="edge32" class="edge">
<title>Node22&#45;&gt;Node23</title>
<path fill="none" stroke="midnightblue" d="M252.98,-102.4C255.83,-93.36 259.11,-82.94 261.37,-75.75"/>
<polygon fill="midnightblue" stroke="midnightblue" points="249.6,-101.49 249.93,-112.08 256.27,-103.6 249.6,-101.49"/>
</g>
<!-- Node25&#45;&gt;Node9 -->
<g id="edge37" class="edge">
<title>Node25&#45;&gt;Node9</title>
<path fill="none" stroke="midnightblue" d="M377.66,-109.57C411.99,-99.38 461.46,-84.7 492.42,-75.52"/>
<polygon fill="midnightblue" stroke="midnightblue" points="376.56,-106.24 367.96,-112.44 378.55,-112.95 376.56,-106.24"/>
</g>
<!-- Node26 -->
<g id="node26" class="node">
<title>Node26</title>
<g id="a_node26"><a xlink:href="Teleport_8cpp.html" target="_top" xlink:title="Represents a teleport object.">
<polygon fill="white" stroke="black" points="320.63,-56.5 320.63,-75.5 413.63,-75.5 413.63,-56.5 320.63,-56.5"/>
<text text-anchor="middle" x="367.13" y="-63.5" font-family="Helvetica,sans-Serif" font-size="10.00">src/Teleport.cpp</text>
</a>
</g>
</g>
<!-- Node25&#45;&gt;Node26 -->
<g id="edge38" class="edge">
<title>Node25&#45;&gt;Node26</title>
<path fill="none" stroke="midnightblue" d="M348.47,-102.98C353.22,-93.82 358.78,-83.09 362.59,-75.75"/>
<polygon fill="midnightblue" stroke="midnightblue" points="345.25,-101.59 343.75,-112.08 351.46,-104.82 345.25,-101.59"/>
</g>
<!-- Node27&#45;&gt;Node9 -->
<g id="edge40" class="edge">
<title>Node27&#45;&gt;Node9</title>
<path fill="none" stroke="midnightblue" d="M114.35,-111.99C199.42,-98.87 393.87,-79.39 479.52,-71.02"/>
<polygon fill="midnightblue" stroke="midnightblue" points="113.61,-108.57 104.29,-113.6 114.72,-115.48 113.61,-108.57"/>
</g>
<!-- Node28 -->
<g id="node28" class="node">
<title>Node28</title>
<g id="a_node28"><a xlink:href="Wall_8cpp.html" target="_top" xlink:title="Represents a wall object.">
<polygon fill="white" stroke="black" points="29.63,-56.5 29.63,-75.5 104.63,-75.5 104.63,-56.5 29.63,-56.5"/>
<text text-anchor="middle" x="67.13" y="-63.5" font-family="Helvetica,sans-Serif" font-size="10.00">src/Wall.cpp</text>
</a>
</g>
</g>
<!-- Node27&#45;&gt;Node28 -->
<g id="edge41" class="edge">
<title>Node27&#45;&gt;Node28</title>
<path fill="none" stroke="midnightblue" d="M70.38,-102.1C69.55,-93.14 68.59,-82.86 67.94,-75.75"/>
<polygon fill="midnightblue" stroke="midnightblue" points="66.89,-102.45 71.3,-112.08 73.86,-101.8 66.89,-102.45"/>
</g>
<!-- Node29&#45;&gt;Node3 -->
<g id="edge43" class="edge">
<title>Node29&#45;&gt;Node3</title>
<path fill="none" stroke="midnightblue" d="M878.74,-277.3C847.08,-267.13 801.96,-252.62 773.62,-243.52"/>
<polygon fill="midnightblue" stroke="midnightblue" points="877.91,-280.72 888.51,-280.44 880.06,-274.05 877.91,-280.72"/>
</g>
<!-- Node29&#45;&gt;Node10 -->
<g id="edge44" class="edge">
<title>Node29&#45;&gt;Node10</title>
<path fill="none" stroke="midnightblue" d="M944.68,-276.45C997.88,-253.86 1108.41,-206.91 1153.9,-187.59"/>
<polygon fill="midnightblue" stroke="midnightblue" points="943.28,-273.24 935.45,-280.37 946.02,-279.68 943.28,-273.24"/>
</g>
<!-- Node29&#45;&gt;Node19 -->
<g id="edge45" class="edge">
<title>Node29&#45;&gt;Node19</title>
<path fill="none" stroke="midnightblue" d="M850.48,-278.78C802.8,-270.73 736.52,-258.47 679.13,-244 612.22,-227.13 535.07,-200.93 496.97,-187.53"/>
<polygon fill="midnightblue" stroke="midnightblue" points="849.92,-282.23 860.36,-280.43 851.08,-275.33 849.92,-282.23"/>
</g>
<!-- Node30 -->
<g id="node30" class="node">
<title>Node30</title>
<g id="a_node30"><a xlink:href="MovingObject_8cpp.html" target="_top" xlink:title="Base class for all moving objects.">
<polygon fill="white" stroke="black" points="863.13,-224.5 863.13,-243.5 985.13,-243.5 985.13,-224.5 863.13,-224.5"/>
<text text-anchor="middle" x="924.13" y="-231.5" font-family="Helvetica,sans-Serif" font-size="10.00">src/MovingObject.cpp</text>
</a>
</g>
</g>
<!-- Node29&#45;&gt;Node30 -->
<g id="edge46" class="edge">
<title>Node29&#45;&gt;Node30</title>
<path fill="none" stroke="midnightblue" d="M918.28,-270.1C919.77,-261.14 921.48,-250.86 922.67,-243.75"/>
<polygon fill="midnightblue" stroke="midnightblue" points="914.8,-269.64 916.61,-280.08 921.71,-270.79 914.8,-269.64"/>
</g>
<!-- Node31 -->
<g id="node31" class="node">
<title>Node31</title>
<g id="a_node31"><a xlink:href="Player_8h.html" target="_top" xlink:title="Represents a player.">
<polygon fill="white" stroke="black" points="1176.63,-224.5 1176.63,-243.5 1249.63,-243.5 1249.63,-224.5 1176.63,-224.5"/>
<text text-anchor="middle" x="1213.13" y="-231.5" font-family="Helvetica,sans-Serif" font-size="10.00">src/Player.h</text>
</a>
</g>
</g>
<!-- Node29&#45;&gt;Node31 -->
<g id="edge47" class="edge">
<title>Node29&#45;&gt;Node31</title>
<path fill="none" stroke="midnightblue" d="M972.45,-278.61C1032.64,-267.71 1125.47,-250.88 1176.46,-241.64"/>
<polygon fill="midnightblue" stroke="midnightblue" points="971.56,-275.22 962.34,-280.44 972.81,-282.1 971.56,-275.22"/>
</g>
<!-- Node31&#45;&gt;Node10 -->
<g id="edge49" class="edge">
<title>Node31&#45;&gt;Node10</title>
<path fill="none" stroke="midnightblue" d="M1200.74,-215.86C1193.99,-206.5 1185.92,-195.33 1180.45,-187.75"/>
<polygon fill="midnightblue" stroke="midnightblue" points="1197.99,-218.03 1206.69,-224.08 1203.67,-213.93 1197.99,-218.03"/>
</g>
<!-- Node31&#45;&gt;Node11 -->
<g id="edge48" class="edge">
<title>Node31&#45;&gt;Node11</title>
<path fill="none" stroke="midnightblue" d="M1223.07,-215.64C1236.75,-191.74 1260.87,-149.63 1271.2,-131.59"/>
<polygon fill="midnightblue" stroke="midnightblue" points="1220,-213.95 1218.07,-224.37 1226.08,-217.43 1220,-213.95"/>
</g>
<!-- Node31&#45;&gt;Node19 -->
<g id="edge50" class="edge">
<title>Node31&#45;&gt;Node19</title>
<path fill="none" stroke="midnightblue" d="M1166.25,-229.74C1062.09,-222.48 803.52,-204.32 587.13,-188 570.79,-186.77 553.15,-185.4 536.73,-184.1"/>
<polygon fill="midnightblue" stroke="midnightblue" points="1166.21,-233.25 1176.43,-230.45 1166.7,-226.27 1166.21,-233.25"/>
</g>
<!-- Node32 -->
<g id="node32" class="node">
<title>Node32</title>
<g id="a_node32"><a xlink:href="Player_8cpp.html" target="_top" xlink:title="Represents a player.">
<polygon fill="white" stroke="black" points="1304.13,-168.5 1304.13,-187.5 1388.13,-187.5 1388.13,-168.5 1304.13,-168.5"/>
<text text-anchor="middle" x="1346.13" y="-175.5" font-family="Helvetica,sans-Serif" font-size="10.00">src/Player.cpp</text>
</a>
</g>
</g>
<!-- Node31&#45;&gt;Node32 -->
<g id="edge51" class="edge">
<title>Node31&#45;&gt;Node32</title>
<path fill="none" stroke="midnightblue" d="M1243.57,-220.64C1268.53,-210.5 1303.2,-196.43 1325.15,-187.52"/>
<polygon fill="midnightblue" stroke="midnightblue" points="1242.15,-217.44 1234.2,-224.44 1244.78,-223.92 1242.15,-217.44"/>
</g>
<!-- Node33&#45;&gt;Node11 -->
<g id="edge53" class="edge">
<title>Node33&#45;&gt;Node11</title>
<path fill="none" stroke="midnightblue" d="M821.79,-397.82C991.91,-388.1 1461.13,-355.46 1461.13,-291 1461.13,-291 1461.13,-291 1461.13,-233 1461.13,-164.43 1366.07,-137.64 1312.23,-127.97"/>
<polygon fill="midnightblue" stroke="midnightblue" points="821.54,-394.33 811.75,-398.39 821.93,-401.32 821.54,-394.33"/>
</g>
<!-- Node33&#45;&gt;Node17 -->
<g id="edge54" class="edge">
<title>Node33&#45;&gt;Node17</title>
<path fill="none" stroke="midnightblue" d="M731.73,-388.5C707.93,-378.38 675.02,-364.39 654.15,-355.52"/>
<polygon fill="midnightblue" stroke="midnightblue" points="730.43,-391.75 741,-392.44 733.17,-385.31 730.43,-391.75"/>
</g>
<!-- Node33&#45;&gt;Node19 -->
<g id="edge56" class="edge">
<title>Node33&#45;&gt;Node19</title>
<path fill="none" stroke="midnightblue" d="M700.49,-398.77C660.81,-394.55 609.74,-383.59 573.13,-356 542.26,-332.74 491.02,-219.74 476.85,-187.57"/>
<polygon fill="midnightblue" stroke="midnightblue" points="700.28,-402.27 710.57,-399.72 700.95,-395.3 700.28,-402.27"/>
</g>
<!-- Node33&#45;&gt;Node29 -->
<g id="edge57" class="edge">
<title>Node33&#45;&gt;Node29</title>
<path fill="none" stroke="midnightblue" d="M783.04,-386.36C795.96,-377.66 812.57,-366.34 827.13,-356 855,-336.21 887.18,-312.11 903.83,-299.55"/>
<polygon fill="midnightblue" stroke="midnightblue" points="780.73,-383.7 774.37,-392.18 784.63,-389.51 780.73,-383.7"/>
</g>
<!-- Node34 -->
<g id="node34" class="node">
<title>Node34</title>
<g id="a_node34"><a xlink:href="GamePhase_8cpp.html" target="_top" xlink:title="Handles the game phase and level.">
<polygon fill="white" stroke="black" points="704.63,-336.5 704.63,-355.5 817.63,-355.5 817.63,-336.5 704.63,-336.5"/>
<text text-anchor="middle" x="761.13" y="-343.5" font-family="Helvetica,sans-Serif" font-size="10.00">src/GamePhase.cpp</text>
</a>
</g>
</g>
<!-- Node33&#45;&gt;Node34 -->
<g id="edge55" class="edge">
<title>Node33&#45;&gt;Node34</title>
<path fill="none" stroke="midnightblue" d="M761.13,-381.8C761.13,-372.91 761.13,-362.78 761.13,-355.75"/>
<polygon fill="midnightblue" stroke="midnightblue" points="757.63,-382.08 761.13,-392.08 764.63,-382.08 757.63,-382.08"/>
</g>
<!-- Node35&#45;&gt;Node6 -->
<g id="edge60" class="edge">
<title>Node35&#45;&gt;Node6</title>
<path fill="none" stroke="midnightblue" d="M1312.7,-454.6C1223.55,-449.76 1042.02,-437.1 984.13,-412 913.22,-381.26 883.72,-370.07 851.13,-300 844.02,-284.72 838.67,-242.27 854.13,-224 901.48,-168.02 946.5,-213.83 1015.13,-188 1036.28,-180.04 1092.64,-147.46 1119.5,-131.66"/>
<polygon fill="midnightblue" stroke="midnightblue" points="1312.67,-458.1 1322.85,-455.13 1313.05,-451.11 1312.67,-458.1"/>
</g>
<!-- Node35&#45;&gt;Node9 -->
<g id="edge59" class="edge">
<title>Node35&#45;&gt;Node9</title>
<path fill="none" stroke="midnightblue" d="M1313.02,-448.31C1262.3,-436.67 1185.98,-410.76 1147.13,-356 1098.57,-287.58 1090.23,-241.8 1130.13,-168 1144.02,-142.3 1171.23,-157.7 1185.13,-132 1189.35,-124.18 1191.19,-118.49 1185.13,-112 1142.67,-66.57 702.18,-65.72 563.02,-66.6"/>
<polygon fill="midnightblue" stroke="midnightblue" points="1312.28,-451.73 1322.8,-450.45 1313.78,-444.89 1312.28,-451.73"/>
</g>
<!-- Node35&#45;&gt;Node32 -->
<g id="edge62" class="edge">
<title>Node35&#45;&gt;Node32</title>
<path fill="none" stroke="midnightblue" d="M1367.01,-438.45C1370.16,-425.15 1375.22,-407.02 1382.13,-392 1405.73,-340.7 1463.07,-332.44 1442.13,-280 1425.26,-237.76 1381.39,-203.09 1359.28,-187.65"/>
<polygon fill="midnightblue" stroke="midnightblue" points="1363.58,-437.78 1364.82,-448.3 1370.41,-439.3 1363.58,-437.78"/>
</g>
<!-- Node36 -->
<g id="node36" class="node">
<title>Node36</title>
<g id="a_node36"><a xlink:href="Helpers_8cpp.html" target="_top" xlink:title=" ">
<polygon fill="white" stroke="black" points="1391.13,-392.5 1391.13,-411.5 1483.13,-411.5 1483.13,-392.5 1391.13,-392.5"/>
<text text-anchor="middle" x="1437.13" y="-399.5" font-family="Helvetica,sans-Serif" font-size="10.00">src/Helpers.cpp</text>
</a>
</g>
</g>
<!-- Node35&#45;&gt;Node36 -->
<g id="edge61" class="edge">
<title>Node35&#45;&gt;Node36</title>
<path fill="none" stroke="midnightblue" d="M1383.16,-442.38C1396.53,-432.62 1413.68,-420.11 1425.02,-411.83"/>
<polygon fill="midnightblue" stroke="midnightblue" points="1381.03,-439.6 1375.01,-448.32 1385.16,-445.26 1381.03,-439.6"/>
</g>
<!-- Node35&#45;&gt;Node37 -->
<g id="edge63" class="edge">
<title>Node35&#45;&gt;Node37</title>
<path fill="none" stroke="midnightblue" d="M1413.8,-456.31C1462.5,-453.59 1536.68,-443.93 1592.13,-412 1616.32,-398.07 1635.45,-370.07 1644.1,-355.8"/>
<polygon fill="midnightblue" stroke="midnightblue" points="1413.33,-452.82 1403.51,-456.8 1413.66,-459.82 1413.33,-452.82"/>
</g>
<!-- Node35&#45;&gt;Node38 -->
<g id="edge64" class="edge">
<title>Node35&#45;&gt;Node38</title>
<path fill="none" stroke="midnightblue" d="M1401.46,-445.44C1435.21,-435.26 1483.57,-420.66 1513.9,-411.52"/>
<polygon fill="midnightblue" stroke="midnightblue" points="1400.05,-442.2 1391.49,-448.44 1402.07,-448.91 1400.05,-442.2"/>
</g>
<!-- Node38&#45;&gt;Node11 -->
<g id="edge65" class="edge">
<title>Node38&#45;&gt;Node11</title>
<path fill="none" stroke="midnightblue" d="M1540.75,-382.26C1539.27,-360.38 1537.13,-323.09 1537.13,-291 1537.13,-291 1537.13,-291 1537.13,-233 1537.13,-136.5 1383.74,-123.31 1312.14,-122.41"/>
<polygon fill="midnightblue" stroke="midnightblue" points="1537.28,-382.72 1541.47,-392.45 1544.26,-382.23 1537.28,-382.72"/>
</g>
<!-- Node38&#45;&gt;Node12 -->
<g id="edge66" class="edge">
<title>Node38&#45;&gt;Node12</title>
<path fill="none" stroke="midnightblue" d="M1550.92,-383.31C1560.69,-361.97 1575.13,-324.75 1575.13,-291 1575.13,-291 1575.13,-291 1575.13,-177 1575.13,-119.68 1503.01,-88.96 1458.79,-75.52"/>
<polygon fill="midnightblue" stroke="midnightblue" points="1547.72,-381.89 1546.58,-392.42 1554.04,-384.9 1547.72,-381.89"/>
</g>
<!-- Node38&#45;&gt;Node37 -->
<g id="edge76" class="edge">
<title>Node38&#45;&gt;Node37</title>
<path fill="none" stroke="midnightblue" d="M1568.43,-387.73C1588.24,-377.73 1614.83,-364.31 1631.98,-355.65"/>
<polygon fill="midnightblue" stroke="midnightblue" points="1566.67,-384.69 1559.32,-392.32 1569.82,-390.94 1566.67,-384.69"/>
</g>
<!-- Node39 -->
<g id="node39" class="node">
<title>Node39</title>
<g id="a_node39"><a xlink:href="Map_8h.html" target="_top" xlink:title="Class for handling the game map.">
<polygon fill="white" stroke="black" points="1156.13,-336.5 1156.13,-355.5 1220.13,-355.5 1220.13,-336.5 1156.13,-336.5"/>
<text text-anchor="middle" x="1188.13" y="-343.5" font-family="Helvetica,sans-Serif" font-size="10.00">src/Map.h</text>
</a>
</g>
</g>
<!-- Node38&#45;&gt;Node39 -->
<g id="edge67" class="edge">
<title>Node38&#45;&gt;Node39</title>
<path fill="none" stroke="midnightblue" d="M1491.3,-391.91C1385.86,-374.74 1273.86,-358.87 1220.13,-351.4"/>
<polygon fill="midnightblue" stroke="midnightblue" points="1491.05,-395.41 1501.48,-393.58 1492.18,-388.51 1491.05,-395.41"/>
</g>
<!-- Node39&#45;&gt;Node3 -->
<g id="edge69" class="edge">
<title>Node39&#45;&gt;Node3</title>
<path fill="none" stroke="midnightblue" d="M1154.08,-333.14C1112.98,-319.12 1041.59,-295.72 979.13,-280 918.25,-264.68 847.27,-251.6 800.01,-243.55"/>
<polygon fill="midnightblue" stroke="midnightblue" points="1153.01,-336.48 1163.6,-336.41 1155.28,-329.85 1153.01,-336.48"/>
</g>
<!-- Node39&#45;&gt;Node6 -->
<g id="edge71" class="edge">
<title>Node39&#45;&gt;Node6</title>
<path fill="none" stroke="midnightblue" d="M1179.04,-327.42C1164.97,-299.03 1138.64,-240.89 1130.13,-188 1126.93,-168.13 1130.11,-144.47 1132.35,-131.89"/>
<polygon fill="midnightblue" stroke="midnightblue" points="1175.98,-329.13 1183.61,-336.47 1182.23,-325.97 1175.98,-329.13"/>
</g>
<!-- Node39&#45;&gt;Node10 -->
<g id="edge72" class="edge">
<title>Node39&#45;&gt;Node10</title>
<path fill="none" stroke="midnightblue" d="M1182.37,-326.54C1175.64,-302.92 1165.69,-260.68 1168.13,-224 1168.97,-211.26 1171.15,-196.62 1172.63,-187.59"/>
<polygon fill="midnightblue" stroke="midnightblue" points="1179.06,-327.68 1185.27,-336.26 1185.77,-325.68 1179.06,-327.68"/>
</g>
<!-- Node39&#45;&gt;Node11 -->
<g id="edge70" class="edge">
<title>Node39&#45;&gt;Node11</title>
<path fill="none" stroke="midnightblue" d="M1200.91,-328.07C1211.94,-314.16 1228.78,-294.46 1246.13,-280 1306.5,-229.69 1358.64,-256.52 1397.13,-188 1417.33,-152.03 1354.97,-134.99 1312.41,-127.72"/>
<polygon fill="midnightblue" stroke="midnightblue" points="1197.92,-326.22 1194.56,-336.26 1203.46,-330.5 1197.92,-326.22"/>
</g>
<!-- Node39&#45;&gt;Node29 -->
<g id="edge74" class="edge">
<title>Node39&#45;&gt;Node29</title>
<path fill="none" stroke="midnightblue" d="M1145.99,-336.67C1095.04,-326.59 1009.76,-309.72 958.34,-299.55"/>
<polygon fill="midnightblue" stroke="midnightblue" points="1145.52,-340.14 1156.01,-338.65 1146.88,-333.27 1145.52,-340.14"/>
</g>
<!-- Node39&#45;&gt;Node31 -->
<g id="edge75" class="edge">
<title>Node39&#45;&gt;Node31</title>
<path fill="none" stroke="midnightblue" d="M1192.36,-326.35C1197.84,-302.25 1207.15,-261.31 1211.17,-243.59"/>
<polygon fill="midnightblue" stroke="midnightblue" points="1188.89,-325.84 1190.09,-336.37 1195.72,-327.39 1188.89,-325.84"/>
</g>
<!-- Node40 -->
<g id="node40" class="node">
<title>Node40</title>
<g id="a_node40"><a xlink:href="Config_8cpp.html" target="_top" xlink:title="Class for handling the game configuration.">
<polygon fill="white" stroke="black" points="1254.63,-280.5 1254.63,-299.5 1339.63,-299.5 1339.63,-280.5 1254.63,-280.5"/>
<text text-anchor="middle" x="1297.13" y="-287.5" font-family="Helvetica,sans-Serif" font-size="10.00">src/Config.cpp</text>
</a>
</g>
</g>
<!-- Node39&#45;&gt;Node40 -->
<g id="edge68" class="edge">
<title>Node39&#45;&gt;Node40</title>
<path fill="none" stroke="midnightblue" d="M1214.64,-331.86C1234.86,-321.85 1262.11,-308.35 1279.66,-299.65"/>
<polygon fill="midnightblue" stroke="midnightblue" points="1213.05,-328.75 1205.64,-336.32 1216.15,-335.02 1213.05,-328.75"/>
</g>
<!-- Node41 -->
<g id="node41" class="node">
<title>Node41</title>
<g id="a_node41"><a xlink:href="Map_8cpp.html" target="_top" xlink:title="Class for handling the game map.">
<polygon fill="white" stroke="black" points="1357.63,-280.5 1357.63,-299.5 1432.63,-299.5 1432.63,-280.5 1357.63,-280.5"/>
<text text-anchor="middle" x="1395.13" y="-287.5" font-family="Helvetica,sans-Serif" font-size="10.00">src/Map.cpp</text>
</a>
</g>
</g>
<!-- Node39&#45;&gt;Node41 -->
<g id="edge73" class="edge">
<title>Node39&#45;&gt;Node41</title>
<path fill="none" stroke="midnightblue" d="M1230.47,-333.95C1269.51,-323.77 1326.65,-308.86 1362.33,-299.56"/>
<polygon fill="midnightblue" stroke="midnightblue" points="1229.26,-330.65 1220.47,-336.56 1231.03,-337.42 1229.26,-330.65"/>
</g>
</g>
</svg>
