<?xml version="1.0" encoding="UTF-8" standalone="no"?>
<!DOCTYPE svg PUBLIC "-//W3C//DTD SVG 1.1//EN"
 "http://www.w3.org/Graphics/SVG/1.1/DTD/svg11.dtd">
<!-- Generated by graphviz version 10.0.1 (0)
 -->
<!-- Title: src/FrightenedBehavior.h Pages: 1 -->
<svg width="606pt" height="420pt"
 viewBox="0.00 0.00 605.50 420.00" xmlns="http://www.w3.org/2000/svg" xmlns:xlink="http://www.w3.org/1999/xlink">
<g id="graph0" class="graph" transform="scale(1 1) rotate(0) translate(4 416)">
<title>src/FrightenedBehavior.h</title>
<!-- Node1 -->
<g id="Node000001" class="node">
<title>Node1</title>
<g id="a_Node000001"><a xlink:title="Class representing a frightened ghost behavior.">
<polygon fill="#999999" stroke="#666666" points="534.5,-412 410.5,-412 410.5,-392 534.5,-392 534.5,-412"/>
<text text-anchor="middle" x="472.5" y="-398.5" font-family="Helvetica,sans-Serif" font-size="10.00">src/FrightenedBehavior.h</text>
</a>
</g>
</g>
<!-- Node2 -->
<g id="Node000002" class="node">
<title>Node2</title>
<g id="a_Node000002"><a xlink:href="EnemyBehavior_8h.html" target="_top" xlink:title="Base class for all enemy behaviors.">
<polygon fill="white" stroke="#666666" points="518.75,-356 426.25,-356 426.25,-336 518.75,-336 518.75,-356"/>
<text text-anchor="middle" x="472.5" y="-342.5" font-family="Helvetica,sans-Serif" font-size="10.00">EnemyBehavior.h</text>
</a>
</g>
</g>
<!-- Node1&#45;&gt;Node2 -->
<g id="edge1_Node000001_Node000002" class="edge">
<title>Node1&#45;&gt;Node2</title>
<g id="a_edge1_Node000001_Node000002"><a xlink:title=" ">
<path fill="none" stroke="#63b8ff" d="M472.5,-391.59C472.5,-385.01 472.5,-375.96 472.5,-367.73"/>
<polygon fill="#63b8ff" stroke="#63b8ff" points="476,-367.81 472.5,-357.81 469,-367.81 476,-367.81"/>
</a>
</g>
</g>
<!-- Node3 -->
<g id="Node000003" class="node">
<title>Node3</title>
<g id="a_Node000003"><a xlink:href="Map_8h.html" target="_top" xlink:title="Class for handling the game map.">
<polygon fill="white" stroke="#666666" points="187,-244 144,-244 144,-224 187,-224 187,-244"/>
<text text-anchor="middle" x="165.5" y="-230.5" font-family="Helvetica,sans-Serif" font-size="10.00">Map.h</text>
</a>
</g>
</g>
<!-- Node2&#45;&gt;Node3 -->
<g id="edge2_Node000002_Node000003" class="edge">
<title>Node2&#45;&gt;Node3</title>
<g id="a_edge2_Node000002_Node000003"><a xlink:title=" ">
<path fill="none" stroke="#63b8ff" d="M441.92,-335.53C413.86,-326.72 371.19,-313.03 334.5,-300 286.59,-282.99 231.77,-261.53 197.89,-248.03"/>
<polygon fill="#63b8ff" stroke="#63b8ff" points="199.23,-244.8 188.65,-244.34 196.63,-251.3 199.23,-244.8"/>
</a>
</g>
</g>
<!-- Node9 -->
<g id="Node000009" class="node">
<title>Node9</title>
<g id="a_Node000009"><a xlink:href="Enums_8h.html" target="_top" xlink:title=" ">
<polygon fill="white" stroke="#666666" points="416,-76 361,-76 361,-56 416,-56 416,-76"/>
<text text-anchor="middle" x="388.5" y="-62.5" font-family="Helvetica,sans-Serif" font-size="10.00">Enums.h</text>
</a>
</g>
</g>
<!-- Node2&#45;&gt;Node9 -->
<g id="edge16_Node000002_Node000009" class="edge">
<title>Node2&#45;&gt;Node9</title>
<g id="a_edge16_Node000002_Node000009"><a xlink:title=" ">
<path fill="none" stroke="#63b8ff" d="M498.7,-335.56C535.36,-320.46 597.5,-287.18 597.5,-235 597.5,-235 597.5,-235 597.5,-177 597.5,-101.08 488.17,-77.44 427.66,-70.17"/>
<polygon fill="#63b8ff" stroke="#63b8ff" points="428.08,-66.69 417.76,-69.09 427.32,-73.65 428.08,-66.69"/>
</a>
</g>
</g>
<!-- Node12 -->
<g id="Node000012" class="node">
<title>Node12</title>
<g id="a_Node000012"><a xlink:title=" ">
<polygon fill="#e0e0e0" stroke="#999999" points="561.12,-188 509.88,-188 509.88,-168 561.12,-168 561.12,-188"/>
<text text-anchor="middle" x="535.5" y="-174.5" font-family="Helvetica,sans-Serif" font-size="10.00">memory</text>
</a>
</g>
</g>
<!-- Node2&#45;&gt;Node12 -->
<g id="edge17_Node000002_Node000012" class="edge">
<title>Node2&#45;&gt;Node12</title>
<g id="a_edge17_Node000002_Node000012"><a xlink:title=" ">
<path fill="none" stroke="#63b8ff" d="M478.38,-335.65C489.03,-318.28 511.52,-279.55 523.5,-244 528.34,-229.65 531.38,-212.81 533.19,-199.87"/>
<polygon fill="#63b8ff" stroke="#63b8ff" points="536.66,-200.33 534.42,-189.97 529.71,-199.46 536.66,-200.33"/>
</a>
</g>
</g>
<!-- Node13 -->
<g id="Node000013" class="node">
<title>Node13</title>
<g id="a_Node000013"><a xlink:href="MovingObject_8h.html" target="_top" xlink:title="Base class for all moving objects.">
<polygon fill="white" stroke="#666666" points="427.62,-300 343.38,-300 343.38,-280 427.62,-280 427.62,-300"/>
<text text-anchor="middle" x="385.5" y="-286.5" font-family="Helvetica,sans-Serif" font-size="10.00">MovingObject.h</text>
</a>
</g>
</g>
<!-- Node2&#45;&gt;Node13 -->
<g id="edge18_Node000002_Node000013" class="edge">
<title>Node2&#45;&gt;Node13</title>
<g id="a_edge18_Node000002_Node000013"><a xlink:title=" ">
<path fill="none" stroke="#63b8ff" d="M457.35,-335.59C444.45,-327.59 425.67,-315.93 410.54,-306.54"/>
<polygon fill="#63b8ff" stroke="#63b8ff" points="412.4,-303.58 402.06,-301.28 408.71,-309.53 412.4,-303.58"/>
</a>
</g>
</g>
<!-- Node4 -->
<g id="Node000004" class="node">
<title>Node4</title>
<g id="a_Node000004"><a xlink:title=" ">
<polygon fill="#e0e0e0" stroke="#999999" points="101.5,-76 61.5,-76 61.5,-56 101.5,-56 101.5,-76"/>
<text text-anchor="middle" x="81.5" y="-62.5" font-family="Helvetica,sans-Serif" font-size="10.00">string</text>
</a>
</g>
</g>
<!-- Node3&#45;&gt;Node4 -->
<g id="edge3_Node000003_Node000004" class="edge">
<title>Node3&#45;&gt;Node4</title>
<g id="a_edge3_Node000003_Node000004"><a xlink:title=" ">
<path fill="none" stroke="#63b8ff" d="M152.9,-223.53C132.62,-207.39 93.48,-172.35 78.5,-132 73.2,-117.71 74.31,-100.44 76.56,-87.29"/>
<polygon fill="#63b8ff" stroke="#63b8ff" points="79.95,-88.16 78.57,-77.66 73.1,-86.73 79.95,-88.16"/>
</a>
</g>
</g>
<!-- Node5 -->
<g id="Node000005" class="node">
<title>Node5</title>
<g id="a_Node000005"><a xlink:title=" ">
<polygon fill="#e0e0e0" stroke="#999999" points="43,-76 0,-76 0,-56 43,-56 43,-76"/>
<text text-anchor="middle" x="21.5" y="-62.5" font-family="Helvetica,sans-Serif" font-size="10.00">vector</text>
</a>
</g>
</g>
<!-- Node3&#45;&gt;Node5 -->
<g id="edge4_Node000003_Node000005" class="edge">
<title>Node3&#45;&gt;Node5</title>
<g id="a_edge4_Node000003_Node000005"><a xlink:title=" ">
<path fill="none" stroke="#63b8ff" d="M145.69,-223.65C130.4,-215.73 109.4,-203.23 94.5,-188 64.6,-157.43 41.57,-112.39 29.92,-86.76"/>
<polygon fill="#63b8ff" stroke="#63b8ff" points="33.23,-85.6 26,-77.86 26.83,-88.42 33.23,-85.6"/>
</a>
</g>
</g>
<!-- Node6 -->
<g id="Node000006" class="node">
<title>Node6</title>
<g id="a_Node000006"><a xlink:href="Window_8h.html" target="_top" xlink:title="Class for handling ncurses windows.">
<polygon fill="white" stroke="#666666" points="194.5,-188 136.5,-188 136.5,-168 194.5,-168 194.5,-188"/>
<text text-anchor="middle" x="165.5" y="-174.5" font-family="Helvetica,sans-Serif" font-size="10.00">Window.h</text>
</a>
</g>
</g>
<!-- Node3&#45;&gt;Node6 -->
<g id="edge5_Node000003_Node000006" class="edge">
<title>Node3&#45;&gt;Node6</title>
<g id="a_edge5_Node000003_Node000006"><a xlink:title=" ">
<path fill="none" stroke="#63b8ff" d="M165.5,-223.59C165.5,-217.01 165.5,-207.96 165.5,-199.73"/>
<polygon fill="#63b8ff" stroke="#63b8ff" points="169,-199.81 165.5,-189.81 162,-199.81 169,-199.81"/>
</a>
</g>
</g>
<!-- Node6&#45;&gt;Node4 -->
<g id="edge7_Node000006_Node000004" class="edge">
<title>Node6&#45;&gt;Node4</title>
<g id="a_edge7_Node000006_Node000004"><a xlink:title=" ">
<path fill="none" stroke="#63b8ff" d="M137.46,-167.64C120.74,-160.55 100.67,-149.07 89.5,-132 80.92,-118.89 79.26,-101.06 79.56,-87.39"/>
<polygon fill="#63b8ff" stroke="#63b8ff" points="83.03,-87.96 80.14,-77.77 76.04,-87.54 83.03,-87.96"/>
</a>
</g>
</g>
<!-- Node6&#45;&gt;Node5 -->
<g id="edge9_Node000006_Node000005" class="edge">
<title>Node6&#45;&gt;Node5</title>
<g id="a_edge9_Node000006_Node000005"><a xlink:title=" ">
<path fill="none" stroke="#63b8ff" d="M141.57,-167.53C123.25,-159.62 97.92,-147.2 78.5,-132 61.38,-118.6 45.39,-99.56 34.72,-85.54"/>
<polygon fill="#63b8ff" stroke="#63b8ff" points="37.62,-83.57 28.86,-77.6 31.98,-87.72 37.62,-83.57"/>
</a>
</g>
</g>
<!-- Node7 -->
<g id="Node000007" class="node">
<title>Node7</title>
<g id="a_Node000007"><a xlink:title=" ">
<polygon fill="#e0e0e0" stroke="#999999" points="232.88,-132 174.12,-132 174.12,-112 232.88,-112 232.88,-132"/>
<text text-anchor="middle" x="203.5" y="-118.5" font-family="Helvetica,sans-Serif" font-size="10.00">ncurses.h</text>
</a>
</g>
</g>
<!-- Node6&#45;&gt;Node7 -->
<g id="edge6_Node000006_Node000007" class="edge">
<title>Node6&#45;&gt;Node7</title>
<g id="a_edge6_Node000006_Node000007"><a xlink:title=" ">
<path fill="none" stroke="#63b8ff" d="M172.12,-167.59C177.19,-160.39 184.34,-150.23 190.53,-141.43"/>
<polygon fill="#63b8ff" stroke="#63b8ff" points="193.19,-143.73 196.09,-133.54 187.47,-139.7 193.19,-143.73"/>
</a>
</g>
</g>
<!-- Node8 -->
<g id="Node000008" class="node">
<title>Node8</title>
<g id="a_Node000008"><a xlink:title=" ">
<polygon fill="#e0e0e0" stroke="#999999" points="338.38,-132 288.62,-132 288.62,-112 338.38,-112 338.38,-132"/>
<text text-anchor="middle" x="313.5" y="-118.5" font-family="Helvetica,sans-Serif" font-size="10.00">optional</text>
</a>
</g>
</g>
<!-- Node6&#45;&gt;Node8 -->
<g id="edge8_Node000006_Node000008" class="edge">
<title>Node6&#45;&gt;Node8</title>
<g id="a_edge8_Node000006_Node000008"><a xlink:title=" ">
<path fill="none" stroke="#63b8ff" d="M191.28,-167.59C215.3,-158.83 251.33,-145.68 278.05,-135.93"/>
<polygon fill="#63b8ff" stroke="#63b8ff" points="278.89,-139.35 287.09,-132.64 276.49,-132.78 278.89,-139.35"/>
</a>
</g>
</g>
<!-- Node6&#45;&gt;Node9 -->
<g id="edge10_Node000006_Node000009" class="edge">
<title>Node6&#45;&gt;Node9</title>
<g id="a_edge10_Node000006_Node000009"><a xlink:title=" ">
<path fill="none" stroke="#63b8ff" d="M181.29,-167.67C207.8,-152.05 260.26,-121.41 279.5,-112 303.31,-100.36 330.9,-88.98 352.37,-80.58"/>
<polygon fill="#63b8ff" stroke="#63b8ff" points="353.51,-83.9 361.58,-77.02 350.99,-77.37 353.51,-83.9"/>
</a>
</g>
</g>
<!-- Node11 -->
<g id="Node000011" class="node">
<title>Node11</title>
<g id="a_Node000011"><a xlink:href="Helpers_8h.html" target="_top" xlink:title=" ">
<polygon fill="white" stroke="#666666" points="156.5,-132 98.5,-132 98.5,-112 156.5,-112 156.5,-132"/>
<text text-anchor="middle" x="127.5" y="-118.5" font-family="Helvetica,sans-Serif" font-size="10.00">Helpers.h</text>
</a>
</g>
</g>
<!-- Node6&#45;&gt;Node11 -->
<g id="edge12_Node000006_Node000011" class="edge">
<title>Node6&#45;&gt;Node11</title>
<g id="a_edge12_Node000006_Node000011"><a xlink:title=" ">
<path fill="none" stroke="#63b8ff" d="M158.88,-167.59C153.81,-160.39 146.66,-150.23 140.47,-141.43"/>
<polygon fill="#63b8ff" stroke="#63b8ff" points="143.53,-139.7 134.91,-133.54 137.81,-143.73 143.53,-139.7"/>
</a>
</g>
</g>
<!-- Node10 -->
<g id="Node000010" class="node">
<title>Node10</title>
<g id="a_Node000010"><a xlink:title=" ">
<polygon fill="#e0e0e0" stroke="#999999" points="408.12,-20 368.88,-20 368.88,0 408.12,0 408.12,-20"/>
<text text-anchor="middle" x="388.5" y="-6.5" font-family="Helvetica,sans-Serif" font-size="10.00">utility</text>
</a>
</g>
</g>
<!-- Node9&#45;&gt;Node10 -->
<g id="edge11_Node000009_Node000010" class="edge">
<title>Node9&#45;&gt;Node10</title>
<g id="a_edge11_Node000009_Node000010"><a xlink:title=" ">
<path fill="none" stroke="#63b8ff" d="M388.5,-55.59C388.5,-49.01 388.5,-39.96 388.5,-31.73"/>
<polygon fill="#63b8ff" stroke="#63b8ff" points="392,-31.81 388.5,-21.81 385,-31.81 392,-31.81"/>
</a>
</g>
</g>
<!-- Node11&#45;&gt;Node4 -->
<g id="edge14_Node000011_Node000004" class="edge">
<title>Node11&#45;&gt;Node4</title>
<g id="a_edge14_Node000011_Node000004"><a xlink:title=" ">
<path fill="none" stroke="#63b8ff" d="M119.49,-111.59C113.22,-104.24 104.33,-93.8 96.72,-84.87"/>
<polygon fill="#63b8ff" stroke="#63b8ff" points="99.55,-82.79 90.4,-77.45 94.22,-87.33 99.55,-82.79"/>
</a>
</g>
</g>
<!-- Node11&#45;&gt;Node5 -->
<g id="edge15_Node000011_Node000005" class="edge">
<title>Node11&#45;&gt;Node5</title>
<g id="a_edge15_Node000011_Node000005"><a xlink:title=" ">
<path fill="none" stroke="#63b8ff" d="M109.04,-111.59C92.8,-103.32 68.89,-91.14 50.17,-81.6"/>
<polygon fill="#63b8ff" stroke="#63b8ff" points="51.96,-78.59 41.46,-77.17 48.78,-84.82 51.96,-78.59"/>
</a>
</g>
</g>
<!-- Node11&#45;&gt;Node9 -->
<g id="edge13_Node000011_Node000009" class="edge">
<title>Node11&#45;&gt;Node9</title>
<g id="a_edge13_Node000011_Node000009"><a xlink:title=" ">
<path fill="none" stroke="#63b8ff" d="M156.94,-113.93C159.83,-113.26 162.72,-112.61 165.5,-112 229.78,-97.91 304.85,-83.1 349.43,-74.47"/>
<polygon fill="#63b8ff" stroke="#63b8ff" points="349.98,-77.93 359.14,-72.6 348.66,-71.06 349.98,-77.93"/>
</a>
</g>
</g>
<!-- Node13&#45;&gt;Node3 -->
<g id="edge27_Node000013_Node000003" class="edge">
<title>Node13&#45;&gt;Node3</title>
<g id="a_edge27_Node000013_Node000003"><a xlink:title=" ">
<path fill="none" stroke="#63b8ff" d="M346.93,-279.53C304.85,-269.2 238.19,-252.84 198.46,-243.09"/>
<polygon fill="#63b8ff" stroke="#63b8ff" points="199.31,-239.7 188.76,-240.71 197.64,-246.49 199.31,-239.7"/>
</a>
</g>
</g>
<!-- Node13&#45;&gt;Node8 -->
<g id="edge26_Node000013_Node000008" class="edge">
<title>Node13&#45;&gt;Node8</title>
<g id="a_edge26_Node000013_Node000008"><a xlink:title=" ">
<path fill="none" stroke="#63b8ff" d="M369.67,-279.64C357.73,-271.71 342.02,-259.21 333.5,-244 315.69,-212.2 312.75,-168.83 312.77,-143.58"/>
<polygon fill="#63b8ff" stroke="#63b8ff" points="316.26,-143.76 312.95,-133.7 309.26,-143.63 316.26,-143.76"/>
</a>
</g>
</g>
<!-- Node13&#45;&gt;Node9 -->
<g id="edge24_Node000013_Node000009" class="edge">
<title>Node13&#45;&gt;Node9</title>
<g id="a_edge24_Node000013_Node000009"><a xlink:title=" ">
<path fill="none" stroke="#63b8ff" d="M382.32,-279.63C375.82,-259.35 361.99,-209.86 366.5,-168 369.55,-139.63 377.3,-107.54 382.73,-87.29"/>
<polygon fill="#63b8ff" stroke="#63b8ff" points="386.06,-88.39 385.35,-77.82 379.31,-86.52 386.06,-88.39"/>
</a>
</g>
</g>
<!-- Node13&#45;&gt;Node12 -->
<g id="edge25_Node000013_Node000012" class="edge">
<title>Node13&#45;&gt;Node12</title>
<g id="a_edge25_Node000013_Node000012"><a xlink:title=" ">
<path fill="none" stroke="#63b8ff" d="M427.93,-280.65C452.11,-274.09 481.66,-262.81 502.5,-244 515.86,-231.94 524.56,-213.23 529.65,-198.97"/>
<polygon fill="#63b8ff" stroke="#63b8ff" points="532.9,-200.32 532.64,-189.73 526.24,-198.16 532.9,-200.32"/>
</a>
</g>
</g>
<!-- Node14 -->
<g id="Node000014" class="node">
<title>Node14</title>
<g id="a_Node000014"><a xlink:href="GameObject_8h.html" target="_top" xlink:title="Base class for all game objects.">
<polygon fill="white" stroke="#666666" points="493,-244 414,-244 414,-224 493,-224 493,-244"/>
<text text-anchor="middle" x="453.5" y="-230.5" font-family="Helvetica,sans-Serif" font-size="10.00">GameObject.h</text>
</a>
</g>
</g>
<!-- Node13&#45;&gt;Node14 -->
<g id="edge19_Node000013_Node000014" class="edge">
<title>Node13&#45;&gt;Node14</title>
<g id="a_edge19_Node000013_Node000014"><a xlink:title=" ">
<path fill="none" stroke="#63b8ff" d="M397.34,-279.59C407.19,-271.77 421.43,-260.46 433.11,-251.19"/>
<polygon fill="#63b8ff" stroke="#63b8ff" points="434.95,-254.2 440.61,-245.24 430.6,-248.72 434.95,-254.2"/>
</a>
</g>
</g>
<!-- Node15 -->
<g id="Node000015" class="node">
<title>Node15</title>
<g id="a_Node000015"><a xlink:href="GamePhase_8h.html" target="_top" xlink:title="Handles the game phase and level.">
<polygon fill="white" stroke="#666666" points="453.62,-188 375.38,-188 375.38,-168 453.62,-168 453.62,-188"/>
<text text-anchor="middle" x="414.5" y="-174.5" font-family="Helvetica,sans-Serif" font-size="10.00">GamePhase.h</text>
</a>
</g>
</g>
<!-- Node13&#45;&gt;Node15 -->
<g id="edge28_Node000013_Node000015" class="edge">
<title>Node13&#45;&gt;Node15</title>
<g id="a_edge28_Node000013_Node000015"><a xlink:title=" ">
<path fill="none" stroke="#63b8ff" d="M387.97,-279.62C392.64,-261.92 402.84,-223.24 409.14,-199.32"/>
<polygon fill="#63b8ff" stroke="#63b8ff" points="412.48,-200.38 411.65,-189.82 405.71,-198.6 412.48,-200.38"/>
</a>
</g>
</g>
<!-- Node14&#45;&gt;Node9 -->
<g id="edge20_Node000014_Node000009" class="edge">
<title>Node14&#45;&gt;Node9</title>
<g id="a_edge20_Node000014_Node000009"><a xlink:title=" ">
<path fill="none" stroke="#63b8ff" d="M457.41,-223.51C462.14,-210.63 468.73,-187.06 462.5,-168 451.58,-134.62 424.97,-103.15 406.82,-84.47"/>
<polygon fill="#63b8ff" stroke="#63b8ff" points="409.33,-82.02 399.77,-77.44 404.39,-86.98 409.33,-82.02"/>
</a>
</g>
</g>
<!-- Node14&#45;&gt;Node12 -->
<g id="edge23_Node000014_Node000012" class="edge">
<title>Node14&#45;&gt;Node12</title>
<g id="a_edge23_Node000014_Node000012"><a xlink:title=" ">
<path fill="none" stroke="#63b8ff" d="M467.78,-223.59C479.94,-215.59 497.64,-203.93 511.9,-194.54"/>
<polygon fill="#63b8ff" stroke="#63b8ff" points="513.41,-197.73 519.84,-189.31 509.56,-191.89 513.41,-197.73"/>
</a>
</g>
</g>
<!-- Node14&#45;&gt;Node15 -->
<g id="edge21_Node000014_Node000015" class="edge">
<title>Node14&#45;&gt;Node15</title>
<g id="a_edge21_Node000014_Node000015"><a xlink:title=" ">
<path fill="none" stroke="#63b8ff" d="M446.71,-223.59C441.51,-216.39 434.17,-206.23 427.81,-197.43"/>
<polygon fill="#63b8ff" stroke="#63b8ff" points="430.79,-195.58 422.1,-189.53 425.12,-199.68 430.79,-195.58"/>
</a>
</g>
</g>
<!-- Node15&#45;&gt;Node9 -->
<g id="edge22_Node000015_Node000009" class="edge">
<title>Node15&#45;&gt;Node9</title>
<g id="a_edge22_Node000015_Node000009"><a xlink:title=" ">
<path fill="none" stroke="#63b8ff" d="M412.28,-167.62C408.1,-149.92 398.96,-111.24 393.3,-87.32"/>
<polygon fill="#63b8ff" stroke="#63b8ff" points="396.77,-86.75 391.06,-77.83 389.95,-88.36 396.77,-86.75"/>
</a>
</g>
</g>
</g>
</svg>
