<?xml version="1.0" encoding="UTF-8" standalone="no"?>
<!DOCTYPE svg PUBLIC "-//W3C//DTD SVG 1.1//EN"
 "http://www.w3.org/Graphics/SVG/1.1/DTD/svg11.dtd">
<!-- Generated by graphviz version 10.0.1 (0)
 -->
<!-- Title: src/FrightenedBehavior.cpp Pages: 1 -->
<svg width="812pt" height="476pt"
 viewBox="0.00 0.00 811.88 476.00" xmlns="http://www.w3.org/2000/svg" xmlns:xlink="http://www.w3.org/1999/xlink">
<g id="graph0" class="graph" transform="scale(1 1) rotate(0) translate(4 472)">
<title>src/FrightenedBehavior.cpp</title>
<!-- Node1 -->
<g id="Node000001" class="node">
<title>Node1</title>
<g id="a_Node000001"><a xlink:title="Class representing a frightened ghost behavior.">
<polygon fill="#999999" stroke="#666666" points="747.25,-468 612.75,-468 612.75,-448 747.25,-448 747.25,-468"/>
<text text-anchor="middle" x="680" y="-454.5" font-family="Helvetica,sans-Serif" font-size="10.00">src/FrightenedBehavior.cpp</text>
</a>
</g>
</g>
<!-- Node2 -->
<g id="Node000002" class="node">
<title>Node2</title>
<g id="a_Node000002"><a xlink:href="FrightenedBehavior_8h.html" target="_top" xlink:title="Class representing a frightened ghost behavior.">
<polygon fill="white" stroke="#666666" points="430.75,-412 323.25,-412 323.25,-392 430.75,-392 430.75,-412"/>
<text text-anchor="middle" x="377" y="-398.5" font-family="Helvetica,sans-Serif" font-size="10.00">FrightenedBehavior.h</text>
</a>
</g>
</g>
<!-- Node1&#45;&gt;Node2 -->
<g id="edge1_Node000001_Node000002" class="edge">
<title>Node1&#45;&gt;Node2</title>
<g id="a_edge1_Node000001_Node000002"><a xlink:title=" ">
<path fill="none" stroke="#63b8ff" d="M626.87,-447.53C575.11,-438.31 496.35,-424.27 441.13,-414.43"/>
<polygon fill="#63b8ff" stroke="#63b8ff" points="442.01,-411.03 431.55,-412.72 440.79,-417.92 442.01,-411.03"/>
</a>
</g>
</g>
<!-- Node6 -->
<g id="Node000006" class="node">
<title>Node6</title>
<g id="a_Node000006"><a xlink:title=" ">
<polygon fill="#e0e0e0" stroke="#999999" points="610.5,-76 567.5,-76 567.5,-56 610.5,-56 610.5,-76"/>
<text text-anchor="middle" x="589" y="-62.5" font-family="Helvetica,sans-Serif" font-size="10.00">vector</text>
</a>
</g>
</g>
<!-- Node1&#45;&gt;Node6 -->
<g id="edge32_Node000001_Node000006" class="edge">
<title>Node1&#45;&gt;Node6</title>
<g id="a_edge32_Node000001_Node000006"><a xlink:title=" ">
<path fill="none" stroke="#63b8ff" d="M676.27,-447.76C669.09,-429.06 654,-385.27 654,-347 654,-347 654,-347 654,-177 654,-140.09 626.54,-104.7 607.32,-84.44"/>
<polygon fill="#63b8ff" stroke="#63b8ff" points="610.03,-82.2 600.51,-77.55 605.06,-87.12 610.03,-82.2"/>
</a>
</g>
</g>
<!-- Node17 -->
<g id="Node000017" class="node">
<title>Node17</title>
<g id="a_Node000017"><a xlink:title=" ">
<polygon fill="#e0e0e0" stroke="#999999" points="730.12,-412 681.88,-412 681.88,-392 730.12,-392 730.12,-412"/>
<text text-anchor="middle" x="706" y="-398.5" font-family="Helvetica,sans-Serif" font-size="10.00">random</text>
</a>
</g>
</g>
<!-- Node1&#45;&gt;Node17 -->
<g id="edge30_Node000001_Node000017" class="edge">
<title>Node1&#45;&gt;Node17</title>
<g id="a_edge30_Node000001_Node000017"><a xlink:title=" ">
<path fill="none" stroke="#63b8ff" d="M684.53,-447.59C687.85,-440.7 692.47,-431.1 696.58,-422.57"/>
<polygon fill="#63b8ff" stroke="#63b8ff" points="699.68,-424.19 700.87,-413.66 693.37,-421.15 699.68,-424.19"/>
</a>
</g>
</g>
<!-- Node18 -->
<g id="Node000018" class="node">
<title>Node18</title>
<g id="a_Node000018"><a xlink:title=" ">
<polygon fill="#e0e0e0" stroke="#999999" points="803.88,-412 748.12,-412 748.12,-392 803.88,-392 803.88,-412"/>
<text text-anchor="middle" x="776" y="-398.5" font-family="Helvetica,sans-Serif" font-size="10.00">algorithm</text>
</a>
</g>
</g>
<!-- Node1&#45;&gt;Node18 -->
<g id="edge31_Node000001_Node000018" class="edge">
<title>Node1&#45;&gt;Node18</title>
<g id="a_edge31_Node000001_Node000018"><a xlink:title=" ">
<path fill="none" stroke="#63b8ff" d="M696.72,-447.59C711.22,-439.44 732.47,-427.48 749.32,-418"/>
<polygon fill="#63b8ff" stroke="#63b8ff" points="750.83,-421.17 757.83,-413.22 747.4,-415.07 750.83,-421.17"/>
</a>
</g>
</g>
<!-- Node3 -->
<g id="Node000003" class="node">
<title>Node3</title>
<g id="a_Node000003"><a xlink:href="EnemyBehavior_8h.html" target="_top" xlink:title="Base class for all enemy behaviors.">
<polygon fill="white" stroke="#666666" points="257.25,-356 164.75,-356 164.75,-336 257.25,-336 257.25,-356"/>
<text text-anchor="middle" x="211" y="-342.5" font-family="Helvetica,sans-Serif" font-size="10.00">EnemyBehavior.h</text>
</a>
</g>
</g>
<!-- Node2&#45;&gt;Node3 -->
<g id="edge2_Node000002_Node000003" class="edge">
<title>Node2&#45;&gt;Node3</title>
<g id="a_edge2_Node000002_Node000003"><a xlink:title=" ">
<path fill="none" stroke="#63b8ff" d="M348.09,-391.59C321.23,-382.86 281,-369.77 251.06,-360.03"/>
<polygon fill="#63b8ff" stroke="#63b8ff" points="252.17,-356.71 241.58,-356.95 250.01,-363.37 252.17,-356.71"/>
</a>
</g>
</g>
<!-- Node4 -->
<g id="Node000004" class="node">
<title>Node4</title>
<g id="a_Node000004"><a xlink:href="Map_8h.html" target="_top" xlink:title="Class for handling the game map.">
<polygon fill="white" stroke="#666666" points="428.5,-244 385.5,-244 385.5,-224 428.5,-224 428.5,-244"/>
<text text-anchor="middle" x="407" y="-230.5" font-family="Helvetica,sans-Serif" font-size="10.00">Map.h</text>
</a>
</g>
</g>
<!-- Node3&#45;&gt;Node4 -->
<g id="edge3_Node000003_Node000004" class="edge">
<title>Node3&#45;&gt;Node4</title>
<g id="a_edge3_Node000003_Node000004"><a xlink:title=" ">
<path fill="none" stroke="#63b8ff" d="M227.71,-335.62C261.78,-316.5 339.48,-272.89 380.51,-249.87"/>
<polygon fill="#63b8ff" stroke="#63b8ff" points="382,-253.04 389.01,-245.1 378.58,-246.94 382,-253.04"/>
</a>
</g>
</g>
<!-- Node10 -->
<g id="Node000010" class="node">
<title>Node10</title>
<g id="a_Node000010"><a xlink:href="Enums_8h.html" target="_top" xlink:title=" ">
<polygon fill="white" stroke="#666666" points="214.5,-76 159.5,-76 159.5,-56 214.5,-56 214.5,-76"/>
<text text-anchor="middle" x="187" y="-62.5" font-family="Helvetica,sans-Serif" font-size="10.00">Enums.h</text>
</a>
</g>
</g>
<!-- Node3&#45;&gt;Node10 -->
<g id="edge17_Node000003_Node000010" class="edge">
<title>Node3&#45;&gt;Node10</title>
<g id="a_edge17_Node000003_Node000010"><a xlink:title=" ">
<path fill="none" stroke="#63b8ff" d="M164.43,-341.1C102.3,-333.06 0,-308.64 0,-235 0,-235 0,-235 0,-177 0,-108.96 93.12,-82.17 147.94,-72.29"/>
<polygon fill="#63b8ff" stroke="#63b8ff" points="148.23,-75.79 157.51,-70.69 147.07,-68.89 148.23,-75.79"/>
</a>
</g>
</g>
<!-- Node13 -->
<g id="Node000013" class="node">
<title>Node13</title>
<g id="a_Node000013"><a xlink:title=" ">
<polygon fill="#e0e0e0" stroke="#999999" points="139.62,-188 88.38,-188 88.38,-168 139.62,-168 139.62,-188"/>
<text text-anchor="middle" x="114" y="-174.5" font-family="Helvetica,sans-Serif" font-size="10.00">memory</text>
</a>
</g>
</g>
<!-- Node3&#45;&gt;Node13 -->
<g id="edge18_Node000003_Node000013" class="edge">
<title>Node3&#45;&gt;Node13</title>
<g id="a_edge18_Node000003_Node000013"><a xlink:title=" ">
<path fill="none" stroke="#63b8ff" d="M197.56,-335.76C175.94,-319.94 134.31,-285.38 119,-244 113.7,-229.68 112.6,-212.41 112.74,-199.26"/>
<polygon fill="#63b8ff" stroke="#63b8ff" points="116.22,-199.8 113.11,-189.68 109.23,-199.54 116.22,-199.8"/>
</a>
</g>
</g>
<!-- Node14 -->
<g id="Node000014" class="node">
<title>Node14</title>
<g id="a_Node000014"><a xlink:href="MovingObject_8h.html" target="_top" xlink:title="Base class for all moving objects.">
<polygon fill="white" stroke="#666666" points="253.12,-300 168.88,-300 168.88,-280 253.12,-280 253.12,-300"/>
<text text-anchor="middle" x="211" y="-286.5" font-family="Helvetica,sans-Serif" font-size="10.00">MovingObject.h</text>
</a>
</g>
</g>
<!-- Node3&#45;&gt;Node14 -->
<g id="edge19_Node000003_Node000014" class="edge">
<title>Node3&#45;&gt;Node14</title>
<g id="a_edge19_Node000003_Node000014"><a xlink:title=" ">
<path fill="none" stroke="#63b8ff" d="M211,-335.59C211,-329.01 211,-319.96 211,-311.73"/>
<polygon fill="#63b8ff" stroke="#63b8ff" points="214.5,-311.81 211,-301.81 207.5,-311.81 214.5,-311.81"/>
</a>
</g>
</g>
<!-- Node5 -->
<g id="Node000005" class="node">
<title>Node5</title>
<g id="a_Node000005"><a xlink:title=" ">
<polygon fill="#e0e0e0" stroke="#999999" points="522,-76 482,-76 482,-56 522,-56 522,-76"/>
<text text-anchor="middle" x="502" y="-62.5" font-family="Helvetica,sans-Serif" font-size="10.00">string</text>
</a>
</g>
</g>
<!-- Node4&#45;&gt;Node5 -->
<g id="edge4_Node000004_Node000005" class="edge">
<title>Node4&#45;&gt;Node5</title>
<g id="a_edge4_Node000004_Node000005"><a xlink:title=" ">
<path fill="none" stroke="#63b8ff" d="M421.08,-223.56C443.28,-207.71 485.59,-173.4 502,-132 507.61,-117.85 507.31,-100.56 505.77,-87.38"/>
<polygon fill="#63b8ff" stroke="#63b8ff" points="509.26,-87.08 504.29,-77.72 502.34,-88.14 509.26,-87.08"/>
</a>
</g>
</g>
<!-- Node4&#45;&gt;Node6 -->
<g id="edge5_Node000004_Node000006" class="edge">
<title>Node4&#45;&gt;Node6</title>
<g id="a_edge5_Node000004_Node000006"><a xlink:title=" ">
<path fill="none" stroke="#63b8ff" d="M428.05,-223.52C444.73,-215.44 468.13,-202.8 486,-188 523.53,-156.91 558.32,-111.11 576.27,-85.71"/>
<polygon fill="#63b8ff" stroke="#63b8ff" points="579,-87.91 581.83,-77.7 573.25,-83.92 579,-87.91"/>
</a>
</g>
</g>
<!-- Node7 -->
<g id="Node000007" class="node">
<title>Node7</title>
<g id="a_Node000007"><a xlink:href="Window_8h.html" target="_top" xlink:title="Class for handling ncurses windows.">
<polygon fill="white" stroke="#666666" points="436,-188 378,-188 378,-168 436,-168 436,-188"/>
<text text-anchor="middle" x="407" y="-174.5" font-family="Helvetica,sans-Serif" font-size="10.00">Window.h</text>
</a>
</g>
</g>
<!-- Node4&#45;&gt;Node7 -->
<g id="edge6_Node000004_Node000007" class="edge">
<title>Node4&#45;&gt;Node7</title>
<g id="a_edge6_Node000004_Node000007"><a xlink:title=" ">
<path fill="none" stroke="#63b8ff" d="M407,-223.59C407,-217.01 407,-207.96 407,-199.73"/>
<polygon fill="#63b8ff" stroke="#63b8ff" points="410.5,-199.81 407,-189.81 403.5,-199.81 410.5,-199.81"/>
</a>
</g>
</g>
<!-- Node7&#45;&gt;Node5 -->
<g id="edge8_Node000007_Node000005" class="edge">
<title>Node7&#45;&gt;Node5</title>
<g id="a_edge8_Node000007_Node000005"><a xlink:title=" ">
<path fill="none" stroke="#63b8ff" d="M432.65,-167.62C449.26,-160.31 470.12,-148.59 483,-132 492.94,-119.2 497.68,-101.35 499.94,-87.59"/>
<polygon fill="#63b8ff" stroke="#63b8ff" points="503.39,-88.23 501.21,-77.87 496.45,-87.33 503.39,-88.23"/>
</a>
</g>
</g>
<!-- Node7&#45;&gt;Node6 -->
<g id="edge10_Node000007_Node000006" class="edge">
<title>Node7&#45;&gt;Node6</title>
<g id="a_edge10_Node000007_Node000006"><a xlink:title=" ">
<path fill="none" stroke="#63b8ff" d="M430.31,-167.51C449.96,-159.14 478.55,-146.12 502,-132 526.39,-117.31 552.29,-97.33 569.42,-83.41"/>
<polygon fill="#63b8ff" stroke="#63b8ff" points="571.3,-86.4 576.8,-77.34 566.85,-80.99 571.3,-86.4"/>
</a>
</g>
</g>
<!-- Node8 -->
<g id="Node000008" class="node">
<title>Node8</title>
<g id="a_Node000008"><a xlink:title=" ">
<polygon fill="#e0e0e0" stroke="#999999" points="398.38,-132 339.62,-132 339.62,-112 398.38,-112 398.38,-132"/>
<text text-anchor="middle" x="369" y="-118.5" font-family="Helvetica,sans-Serif" font-size="10.00">ncurses.h</text>
</a>
</g>
</g>
<!-- Node7&#45;&gt;Node8 -->
<g id="edge7_Node000007_Node000008" class="edge">
<title>Node7&#45;&gt;Node8</title>
<g id="a_edge7_Node000007_Node000008"><a xlink:title=" ">
<path fill="none" stroke="#63b8ff" d="M400.38,-167.59C395.31,-160.39 388.16,-150.23 381.97,-141.43"/>
<polygon fill="#63b8ff" stroke="#63b8ff" points="385.03,-139.7 376.41,-133.54 379.31,-143.73 385.03,-139.7"/>
</a>
</g>
</g>
<!-- Node9 -->
<g id="Node000009" class="node">
<title>Node9</title>
<g id="a_Node000009"><a xlink:title=" ">
<polygon fill="#e0e0e0" stroke="#999999" points="283.88,-132 234.12,-132 234.12,-112 283.88,-112 283.88,-132"/>
<text text-anchor="middle" x="259" y="-118.5" font-family="Helvetica,sans-Serif" font-size="10.00">optional</text>
</a>
</g>
</g>
<!-- Node7&#45;&gt;Node9 -->
<g id="edge9_Node000007_Node000009" class="edge">
<title>Node7&#45;&gt;Node9</title>
<g id="a_edge9_Node000007_Node000009"><a xlink:title=" ">
<path fill="none" stroke="#63b8ff" d="M381.22,-167.59C357.2,-158.83 321.17,-145.68 294.45,-135.93"/>
<polygon fill="#63b8ff" stroke="#63b8ff" points="296.01,-132.78 285.41,-132.64 293.61,-139.35 296.01,-132.78"/>
</a>
</g>
</g>
<!-- Node7&#45;&gt;Node10 -->
<g id="edge11_Node000007_Node000010" class="edge">
<title>Node7&#45;&gt;Node10</title>
<g id="a_edge11_Node000007_Node000010"><a xlink:title=" ">
<path fill="none" stroke="#63b8ff" d="M391.82,-167.59C370.26,-154.39 329.34,-130 293,-112 269.76,-100.49 242.87,-89.1 221.98,-80.65"/>
<polygon fill="#63b8ff" stroke="#63b8ff" points="223.35,-77.43 212.76,-76.96 220.75,-83.93 223.35,-77.43"/>
</a>
</g>
</g>
<!-- Node12 -->
<g id="Node000012" class="node">
<title>Node12</title>
<g id="a_Node000012"><a xlink:href="Helpers_8h.html" target="_top" xlink:title=" ">
<polygon fill="white" stroke="#666666" points="474,-132 416,-132 416,-112 474,-112 474,-132"/>
<text text-anchor="middle" x="445" y="-118.5" font-family="Helvetica,sans-Serif" font-size="10.00">Helpers.h</text>
</a>
</g>
</g>
<!-- Node7&#45;&gt;Node12 -->
<g id="edge13_Node000007_Node000012" class="edge">
<title>Node7&#45;&gt;Node12</title>
<g id="a_edge13_Node000007_Node000012"><a xlink:title=" ">
<path fill="none" stroke="#63b8ff" d="M413.62,-167.59C418.69,-160.39 425.84,-150.23 432.03,-141.43"/>
<polygon fill="#63b8ff" stroke="#63b8ff" points="434.69,-143.73 437.59,-133.54 428.97,-139.7 434.69,-143.73"/>
</a>
</g>
</g>
<!-- Node11 -->
<g id="Node000011" class="node">
<title>Node11</title>
<g id="a_Node000011"><a xlink:title=" ">
<polygon fill="#e0e0e0" stroke="#999999" points="206.62,-20 167.38,-20 167.38,0 206.62,0 206.62,-20"/>
<text text-anchor="middle" x="187" y="-6.5" font-family="Helvetica,sans-Serif" font-size="10.00">utility</text>
</a>
</g>
</g>
<!-- Node10&#45;&gt;Node11 -->
<g id="edge12_Node000010_Node000011" class="edge">
<title>Node10&#45;&gt;Node11</title>
<g id="a_edge12_Node000010_Node000011"><a xlink:title=" ">
<path fill="none" stroke="#63b8ff" d="M187,-55.59C187,-49.01 187,-39.96 187,-31.73"/>
<polygon fill="#63b8ff" stroke="#63b8ff" points="190.5,-31.81 187,-21.81 183.5,-31.81 190.5,-31.81"/>
</a>
</g>
</g>
<!-- Node12&#45;&gt;Node5 -->
<g id="edge15_Node000012_Node000005" class="edge">
<title>Node12&#45;&gt;Node5</title>
<g id="a_edge15_Node000012_Node000005"><a xlink:title=" ">
<path fill="none" stroke="#63b8ff" d="M454.93,-111.59C462.94,-104.01 474.42,-93.13 484.03,-84.02"/>
<polygon fill="#63b8ff" stroke="#63b8ff" points="486.23,-86.76 491.09,-77.34 481.42,-81.68 486.23,-86.76"/>
</a>
</g>
</g>
<!-- Node12&#45;&gt;Node6 -->
<g id="edge16_Node000012_Node000006" class="edge">
<title>Node12&#45;&gt;Node6</title>
<g id="a_edge16_Node000012_Node000006"><a xlink:title=" ">
<path fill="none" stroke="#63b8ff" d="M470.08,-111.59C494.06,-102.6 530.32,-89.01 556.5,-79.19"/>
<polygon fill="#63b8ff" stroke="#63b8ff" points="557.48,-82.56 565.61,-75.77 555.02,-76 557.48,-82.56"/>
</a>
</g>
</g>
<!-- Node12&#45;&gt;Node10 -->
<g id="edge14_Node000012_Node000010" class="edge">
<title>Node12&#45;&gt;Node10</title>
<g id="a_edge14_Node000012_Node000010"><a xlink:title=" ">
<path fill="none" stroke="#63b8ff" d="M415.56,-113.93C412.67,-113.27 409.78,-112.61 407,-112 343.75,-98.04 269.93,-83.25 225.9,-74.58"/>
<polygon fill="#63b8ff" stroke="#63b8ff" points="226.81,-71.19 216.33,-72.7 225.46,-78.06 226.81,-71.19"/>
</a>
</g>
</g>
<!-- Node14&#45;&gt;Node4 -->
<g id="edge28_Node000014_Node000004" class="edge">
<title>Node14&#45;&gt;Node4</title>
<g id="a_edge28_Node000014_Node000004"><a xlink:title=" ">
<path fill="none" stroke="#63b8ff" d="M245.14,-279.59C281.46,-269.59 338.51,-253.87 374.28,-244.01"/>
<polygon fill="#63b8ff" stroke="#63b8ff" points="374.92,-247.47 383.63,-241.44 373.06,-240.72 374.92,-247.47"/>
</a>
</g>
</g>
<!-- Node14&#45;&gt;Node9 -->
<g id="edge27_Node000014_Node000009" class="edge">
<title>Node14&#45;&gt;Node9</title>
<g id="a_edge27_Node000014_Node000009"><a xlink:title=" ">
<path fill="none" stroke="#63b8ff" d="M221.08,-279.61C237.98,-263.07 271.35,-226.77 283,-188 287.76,-172.16 280.48,-154.58 272.73,-141.71"/>
<polygon fill="#63b8ff" stroke="#63b8ff" points="275.65,-139.78 267.19,-133.4 269.82,-143.66 275.65,-139.78"/>
</a>
</g>
</g>
<!-- Node14&#45;&gt;Node10 -->
<g id="edge25_Node000014_Node000010" class="edge">
<title>Node14&#45;&gt;Node10</title>
<g id="a_edge25_Node000014_Node000010"><a xlink:title=" ">
<path fill="none" stroke="#63b8ff" d="M183.15,-279.56C163.73,-272.04 138,-260.09 119,-244 95.66,-224.23 88.33,-217.13 79,-188 63.96,-141.06 119.98,-101.74 156.92,-81.57"/>
<polygon fill="#63b8ff" stroke="#63b8ff" points="158.19,-84.85 165.41,-77.1 154.93,-78.66 158.19,-84.85"/>
</a>
</g>
</g>
<!-- Node14&#45;&gt;Node13 -->
<g id="edge26_Node000014_Node000013" class="edge">
<title>Node14&#45;&gt;Node13</title>
<g id="a_edge26_Node000014_Node000013"><a xlink:title=" ">
<path fill="none" stroke="#63b8ff" d="M185.1,-279.65C168.3,-272.34 147.18,-260.62 134,-244 123.89,-231.25 118.87,-213.39 116.39,-199.62"/>
<polygon fill="#63b8ff" stroke="#63b8ff" points="119.88,-199.27 114.97,-189.88 112.95,-200.28 119.88,-199.27"/>
</a>
</g>
</g>
<!-- Node15 -->
<g id="Node000015" class="node">
<title>Node15</title>
<g id="a_Node000015"><a xlink:href="GameObject_8h.html" target="_top" xlink:title="Base class for all game objects.">
<polygon fill="white" stroke="#666666" points="221.5,-244 142.5,-244 142.5,-224 221.5,-224 221.5,-244"/>
<text text-anchor="middle" x="182" y="-230.5" font-family="Helvetica,sans-Serif" font-size="10.00">GameObject.h</text>
</a>
</g>
</g>
<!-- Node14&#45;&gt;Node15 -->
<g id="edge20_Node000014_Node000015" class="edge">
<title>Node14&#45;&gt;Node15</title>
<g id="a_edge20_Node000014_Node000015"><a xlink:title=" ">
<path fill="none" stroke="#63b8ff" d="M205.95,-279.59C202.21,-272.63 196.98,-262.89 192.36,-254.29"/>
<polygon fill="#63b8ff" stroke="#63b8ff" points="195.52,-252.79 187.71,-245.63 189.36,-256.1 195.52,-252.79"/>
</a>
</g>
</g>
<!-- Node16 -->
<g id="Node000016" class="node">
<title>Node16</title>
<g id="a_Node000016"><a xlink:href="GamePhase_8h.html" target="_top" xlink:title="Handles the game phase and level.">
<polygon fill="white" stroke="#666666" points="274.12,-188 195.88,-188 195.88,-168 274.12,-168 274.12,-188"/>
<text text-anchor="middle" x="235" y="-174.5" font-family="Helvetica,sans-Serif" font-size="10.00">GamePhase.h</text>
</a>
</g>
</g>
<!-- Node14&#45;&gt;Node16 -->
<g id="edge29_Node000014_Node000016" class="edge">
<title>Node14&#45;&gt;Node16</title>
<g id="a_edge29_Node000014_Node000016"><a xlink:title=" ">
<path fill="none" stroke="#63b8ff" d="M216.32,-279.7C221.1,-270.83 227.83,-256.96 231,-244 234.55,-229.5 235.5,-212.67 235.59,-199.77"/>
<polygon fill="#63b8ff" stroke="#63b8ff" points="239.09,-199.88 235.47,-189.93 232.09,-199.97 239.09,-199.88"/>
</a>
</g>
</g>
<!-- Node15&#45;&gt;Node10 -->
<g id="edge21_Node000015_Node000010" class="edge">
<title>Node15&#45;&gt;Node10</title>
<g id="a_edge21_Node000015_Node000010"><a xlink:title=" ">
<path fill="none" stroke="#63b8ff" d="M182.28,-223.6C183.07,-197.46 185.3,-123.48 186.39,-87.36"/>
<polygon fill="#63b8ff" stroke="#63b8ff" points="189.87,-87.91 186.67,-77.81 182.87,-87.7 189.87,-87.91"/>
</a>
</g>
</g>
<!-- Node15&#45;&gt;Node13 -->
<g id="edge24_Node000015_Node000013" class="edge">
<title>Node15&#45;&gt;Node13</title>
<g id="a_edge24_Node000015_Node000013"><a xlink:title=" ">
<path fill="none" stroke="#63b8ff" d="M170.16,-223.59C160.31,-215.77 146.07,-204.46 134.39,-195.19"/>
<polygon fill="#63b8ff" stroke="#63b8ff" points="136.9,-192.72 126.89,-189.24 132.55,-198.2 136.9,-192.72"/>
</a>
</g>
</g>
<!-- Node15&#45;&gt;Node16 -->
<g id="edge22_Node000015_Node000016" class="edge">
<title>Node15&#45;&gt;Node16</title>
<g id="a_edge22_Node000015_Node000016"><a xlink:title=" ">
<path fill="none" stroke="#63b8ff" d="M191.23,-223.59C198.6,-216.08 209.13,-205.35 218.02,-196.3"/>
<polygon fill="#63b8ff" stroke="#63b8ff" points="220.31,-198.97 224.81,-189.38 215.31,-194.06 220.31,-198.97"/>
</a>
</g>
</g>
<!-- Node16&#45;&gt;Node10 -->
<g id="edge23_Node000016_Node000010" class="edge">
<title>Node16&#45;&gt;Node10</title>
<g id="a_edge23_Node000016_Node000010"><a xlink:title=" ">
<path fill="none" stroke="#63b8ff" d="M230.91,-167.62C223.11,-149.76 205.99,-110.53 195.58,-86.67"/>
<polygon fill="#63b8ff" stroke="#63b8ff" points="198.89,-85.51 191.69,-77.74 192.48,-88.31 198.89,-85.51"/>
</a>
</g>
</g>
</g>
</svg>
