<?xml version="1.0" encoding="UTF-8" standalone="no"?>
<!DOCTYPE svg PUBLIC "-//W3C//DTD SVG 1.1//EN"
 "http://www.w3.org/Graphics/SVG/1.1/DTD/svg11.dtd">
<!-- Generated by graphviz version 10.0.1 (0)
 -->
<!-- Title: src/GamePhase.cpp Pages: 1 -->
<svg width="113pt" height="196pt"
 viewBox="0.00 0.00 113.25 196.00" xmlns="http://www.w3.org/2000/svg" xmlns:xlink="http://www.w3.org/1999/xlink">
<g id="graph0" class="graph" transform="scale(1 1) rotate(0) translate(4 192)">
<title>src/GamePhase.cpp</title>
<!-- Node1 -->
<g id="Node000001" class="node">
<title>Node1</title>
<g id="a_Node000001"><a xlink:title="Handles the game phase and level.">
<polygon fill="#999999" stroke="#666666" points="105.25,-188 0,-188 0,-168 105.25,-168 105.25,-188"/>
<text text-anchor="middle" x="52.62" y="-174.5" font-family="Helvetica,sans-Serif" font-size="10.00">src/GamePhase.cpp</text>
</a>
</g>
</g>
<!-- Node2 -->
<g id="Node000002" class="node">
<title>Node2</title>
<g id="a_Node000002"><a xlink:href="GamePhase_8h.html" target="_top" xlink:title="Handles the game phase and level.">
<polygon fill="white" stroke="#666666" points="91.75,-132 13.5,-132 13.5,-112 91.75,-112 91.75,-132"/>
<text text-anchor="middle" x="52.62" y="-118.5" font-family="Helvetica,sans-Serif" font-size="10.00">GamePhase.h</text>
</a>
</g>
</g>
<!-- Node1&#45;&gt;Node2 -->
<g id="edge1_Node000001_Node000002" class="edge">
<title>Node1&#45;&gt;Node2</title>
<g id="a_edge1_Node000001_Node000002"><a xlink:title=" ">
<path fill="none" stroke="#63b8ff" d="M52.62,-167.59C52.62,-161.01 52.62,-151.96 52.62,-143.73"/>
<polygon fill="#63b8ff" stroke="#63b8ff" points="56.13,-143.81 52.63,-133.81 49.13,-143.81 56.13,-143.81"/>
</a>
</g>
</g>
<!-- Node3 -->
<g id="Node000003" class="node">
<title>Node3</title>
<g id="a_Node000003"><a xlink:href="Enums_8h.html" target="_top" xlink:title=" ">
<polygon fill="white" stroke="#666666" points="80.12,-76 25.12,-76 25.12,-56 80.12,-56 80.12,-76"/>
<text text-anchor="middle" x="52.62" y="-62.5" font-family="Helvetica,sans-Serif" font-size="10.00">Enums.h</text>
</a>
</g>
</g>
<!-- Node2&#45;&gt;Node3 -->
<g id="edge2_Node000002_Node000003" class="edge">
<title>Node2&#45;&gt;Node3</title>
<g id="a_edge2_Node000002_Node000003"><a xlink:title=" ">
<path fill="none" stroke="#63b8ff" d="M52.62,-111.59C52.62,-105.01 52.62,-95.96 52.62,-87.73"/>
<polygon fill="#63b8ff" stroke="#63b8ff" points="56.13,-87.81 52.63,-77.81 49.13,-87.81 56.13,-87.81"/>
</a>
</g>
</g>
<!-- Node4 -->
<g id="Node000004" class="node">
<title>Node4</title>
<g id="a_Node000004"><a xlink:title=" ">
<polygon fill="#e0e0e0" stroke="#999999" points="72.25,-20 33,-20 33,0 72.25,0 72.25,-20"/>
<text text-anchor="middle" x="52.62" y="-6.5" font-family="Helvetica,sans-Serif" font-size="10.00">utility</text>
</a>
</g>
</g>
<!-- Node3&#45;&gt;Node4 -->
<g id="edge3_Node000003_Node000004" class="edge">
<title>Node3&#45;&gt;Node4</title>
<g id="a_edge3_Node000003_Node000004"><a xlink:title=" ">
<path fill="none" stroke="#63b8ff" d="M52.62,-55.59C52.62,-49.01 52.62,-39.96 52.62,-31.73"/>
<polygon fill="#63b8ff" stroke="#63b8ff" points="56.13,-31.81 52.63,-21.81 49.13,-31.81 56.13,-31.81"/>
</a>
</g>
</g>
</g>
</svg>
