<?xml version="1.0" encoding="UTF-8" standalone="no"?>
<!DOCTYPE svg PUBLIC "-//W3C//DTD SVG 1.1//EN"
 "http://www.w3.org/Graphics/SVG/1.1/DTD/svg11.dtd">
<!-- Generated by graphviz version 10.0.1 (0)
 -->
<!-- Title: src/GamePhase.h Pages: 1 -->
<svg width="1237pt" height="420pt"
 viewBox="0.00 0.00 1237.49 420.00" xmlns="http://www.w3.org/2000/svg" xmlns:xlink="http://www.w3.org/1999/xlink">
<g id="graph0" class="graph" transform="scale(1 1) rotate(0) translate(4 416)">
<title>src/GamePhase.h</title>
<!-- Node1 -->
<g id="Node000001" class="node">
<title>Node1</title>
<g id="a_Node000001"><a xlink:title="Handles the game phase and level.">
<polygon fill="#999999" stroke="#666666" points="467.88,-412 373.12,-412 373.12,-392 467.88,-392 467.88,-412"/>
<text text-anchor="middle" x="420.5" y="-398.5" font-family="Helvetica,sans-Serif" font-size="10.00">src/GamePhase.h</text>
</a>
</g>
</g>
<!-- Node2 -->
<g id="Node000002" class="node">
<title>Node2</title>
<g id="a_Node000002"><a xlink:href="Game_8h.html" target="_top" xlink:title="Class for handling the game logic.">
<polygon fill="white" stroke="#666666" points="573,-132 506,-132 506,-112 573,-112 573,-132"/>
<text text-anchor="middle" x="539.5" y="-118.5" font-family="Helvetica,sans-Serif" font-size="10.00">src/Game.h</text>
</a>
</g>
</g>
<!-- Node1&#45;&gt;Node2 -->
<g id="edge1_Node000001_Node000002" class="edge">
<title>Node1&#45;&gt;Node2</title>
<g id="a_edge1_Node000001_Node000002"><a xlink:title=" ">
<path fill="none" stroke="#63b8ff" d="M380.13,-386.82C366.31,-379.8 352.37,-369.8 344.5,-356 340.1,-348.28 342.01,-344.53 344.5,-336 369.27,-251.01 386.02,-227.57 451.5,-168 469.27,-151.83 493.92,-139.89 512.61,-132.39"/>
<polygon fill="#63b8ff" stroke="#63b8ff" points="378.64,-389.99 389.19,-390.98 381.56,-383.62 378.64,-389.99"/>
</a>
</g>
</g>
<!-- Node7 -->
<g id="Node000007" class="node">
<title>Node7</title>
<g id="a_Node000007"><a xlink:href="GameObject_8h.html" target="_top" xlink:title="Base class for all game objects.">
<polygon fill="white" stroke="#666666" points="468.25,-356 372.75,-356 372.75,-336 468.25,-336 468.25,-356"/>
<text text-anchor="middle" x="420.5" y="-342.5" font-family="Helvetica,sans-Serif" font-size="10.00">src/GameObject.h</text>
</a>
</g>
</g>
<!-- Node1&#45;&gt;Node7 -->
<g id="edge6_Node000001_Node000007" class="edge">
<title>Node1&#45;&gt;Node7</title>
<g id="a_edge6_Node000001_Node000007"><a xlink:title=" ">
<path fill="none" stroke="#63b8ff" d="M420.5,-380.13C420.5,-371.9 420.5,-362.85 420.5,-356.3"/>
<polygon fill="#63b8ff" stroke="#63b8ff" points="417,-380.08 420.5,-390.08 424,-380.08 417,-380.08"/>
</a>
</g>
</g>
<!-- Node9 -->
<g id="Node000009" class="node">
<title>Node9</title>
<g id="a_Node000009"><a xlink:href="InteractiveObject_8h.html" target="_top" xlink:title="Base class for all interactive objects.">
<polygon fill="white" stroke="#666666" points="316,-188 201,-188 201,-168 316,-168 316,-188"/>
<text text-anchor="middle" x="258.5" y="-174.5" font-family="Helvetica,sans-Serif" font-size="10.00">src/InteractiveObject.h</text>
</a>
</g>
</g>
<!-- Node1&#45;&gt;Node9 -->
<g id="edge50_Node000001_Node000009" class="edge">
<title>Node1&#45;&gt;Node9</title>
<g id="a_edge50_Node000001_Node000009"><a xlink:title=" ">
<path fill="none" stroke="#63b8ff" d="M396.32,-384.98C385.49,-377.07 373.04,-366.9 363.5,-356 313.85,-299.27 274.71,-215.81 262.49,-188.23"/>
<polygon fill="#63b8ff" stroke="#63b8ff" points="394.25,-387.8 404.44,-390.69 398.28,-382.08 394.25,-387.8"/>
</a>
</g>
</g>
<!-- Node19 -->
<g id="Node000019" class="node">
<title>Node19</title>
<g id="a_Node000019"><a xlink:href="MovingObject_8h.html" target="_top" xlink:title="Base class for all moving objects.">
<polygon fill="white" stroke="#666666" points="672.88,-300 572.12,-300 572.12,-280 672.88,-280 672.88,-300"/>
<text text-anchor="middle" x="622.5" y="-286.5" font-family="Helvetica,sans-Serif" font-size="10.00">src/MovingObject.h</text>
</a>
</g>
</g>
<!-- Node1&#45;&gt;Node19 -->
<g id="edge51_Node000001_Node000019" class="edge">
<title>Node1&#45;&gt;Node19</title>
<g id="a_edge51_Node000001_Node000019"><a xlink:title=" ">
<path fill="none" stroke="#63b8ff" d="M441.69,-384.66C460.44,-370.66 488.88,-350.51 515.5,-336 541.86,-321.63 573.79,-308.74 595.87,-300.48"/>
<polygon fill="#63b8ff" stroke="#63b8ff" points="439.66,-381.81 433.8,-390.63 443.88,-387.39 439.66,-381.81"/>
</a>
</g>
</g>
<!-- Node33 -->
<g id="Node000033" class="node">
<title>Node33</title>
<g id="a_Node000033"><a xlink:href="GamePhase_8cpp.html" target="_top" xlink:title="Handles the game phase and level.">
<polygon fill="white" stroke="#666666" points="630.12,-356 524.88,-356 524.88,-336 630.12,-336 630.12,-356"/>
<text text-anchor="middle" x="577.5" y="-342.5" font-family="Helvetica,sans-Serif" font-size="10.00">src/GamePhase.cpp</text>
</a>
</g>
</g>
<!-- Node1&#45;&gt;Node33 -->
<g id="edge49_Node000001_Node000033" class="edge">
<title>Node1&#45;&gt;Node33</title>
<g id="a_edge49_Node000001_Node000033"><a xlink:title=" ">
<path fill="none" stroke="#63b8ff" d="M458.53,-387.92C486.75,-378.21 524.58,-365.2 549.94,-356.48"/>
<polygon fill="#63b8ff" stroke="#63b8ff" points="457.6,-384.54 449.28,-391.1 459.87,-391.16 457.6,-384.54"/>
</a>
</g>
</g>
<!-- Node3 -->
<g id="Node000003" class="node">
<title>Node3</title>
<g id="a_Node000003"><a xlink:href="Game_8cpp.html" target="_top" xlink:title="Class for handling the game logic.">
<polygon fill="white" stroke="#666666" points="368.25,-76 290.75,-76 290.75,-56 368.25,-56 368.25,-76"/>
<text text-anchor="middle" x="329.5" y="-62.5" font-family="Helvetica,sans-Serif" font-size="10.00">src/Game.cpp</text>
</a>
</g>
</g>
<!-- Node2&#45;&gt;Node3 -->
<g id="edge2_Node000002_Node000003" class="edge">
<title>Node2&#45;&gt;Node3</title>
<g id="a_edge2_Node000002_Node000003"><a xlink:title=" ">
<path fill="none" stroke="#63b8ff" d="M494.94,-109.54C456.67,-99.7 402.18,-85.69 366.34,-76.47"/>
<polygon fill="#63b8ff" stroke="#63b8ff" points="493.74,-112.85 504.29,-111.95 495.48,-106.07 493.74,-112.85"/>
</a>
</g>
</g>
<!-- Node4 -->
<g id="Node000004" class="node">
<title>Node4</title>
<g id="a_Node000004"><a xlink:href="GameManager_8h.html" target="_top" xlink:title="Handles the game loop and game states.">
<polygon fill="white" stroke="#666666" points="591.38,-76 487.62,-76 487.62,-56 591.38,-56 591.38,-76"/>
<text text-anchor="middle" x="539.5" y="-62.5" font-family="Helvetica,sans-Serif" font-size="10.00">src/GameManager.h</text>
</a>
</g>
</g>
<!-- Node2&#45;&gt;Node4 -->
<g id="edge3_Node000002_Node000004" class="edge">
<title>Node2&#45;&gt;Node4</title>
<g id="a_edge3_Node000002_Node000004"><a xlink:title=" ">
<path fill="none" stroke="#63b8ff" d="M539.5,-100.13C539.5,-91.9 539.5,-82.85 539.5,-76.3"/>
<polygon fill="#63b8ff" stroke="#63b8ff" points="536,-100.08 539.5,-110.08 543,-100.08 536,-100.08"/>
</a>
</g>
</g>
<!-- Node5 -->
<g id="Node000005" class="node">
<title>Node5</title>
<g id="a_Node000005"><a xlink:href="GameManager_8cpp.html" target="_top" xlink:title="Handles the game loop and game states.">
<polygon fill="white" stroke="#666666" points="540.62,-20 426.38,-20 426.38,0 540.62,0 540.62,-20"/>
<text text-anchor="middle" x="483.5" y="-6.5" font-family="Helvetica,sans-Serif" font-size="10.00">src/GameManager.cpp</text>
</a>
</g>
</g>
<!-- Node4&#45;&gt;Node5 -->
<g id="edge4_Node000004_Node000005" class="edge">
<title>Node4&#45;&gt;Node5</title>
<g id="a_edge4_Node000004_Node000005"><a xlink:title=" ">
<path fill="none" stroke="#63b8ff" d="M521.71,-47.85C512.25,-38.72 500.98,-27.86 493.14,-20.3"/>
<polygon fill="#63b8ff" stroke="#63b8ff" points="519.03,-50.12 528.66,-54.54 523.89,-45.08 519.03,-50.12"/>
</a>
</g>
</g>
<!-- Node6 -->
<g id="Node000006" class="node">
<title>Node6</title>
<g id="a_Node000006"><a xlink:href="main_8cpp.html" target="_top" xlink:title="Main function, initializes the game manager.">
<polygon fill="white" stroke="#666666" points="630.62,-20 558.38,-20 558.38,0 630.62,0 630.62,-20"/>
<text text-anchor="middle" x="594.5" y="-6.5" font-family="Helvetica,sans-Serif" font-size="10.00">src/main.cpp</text>
</a>
</g>
</g>
<!-- Node4&#45;&gt;Node6 -->
<g id="edge5_Node000004_Node000006" class="edge">
<title>Node4&#45;&gt;Node6</title>
<g id="a_edge5_Node000004_Node000006"><a xlink:title=" ">
<path fill="none" stroke="#63b8ff" d="M557.26,-47.57C566.49,-38.5 577.41,-27.78 585.03,-20.3"/>
<polygon fill="#63b8ff" stroke="#63b8ff" points="554.84,-45.03 550.16,-54.53 559.75,-50.03 554.84,-45.03"/>
</a>
</g>
</g>
<!-- Node7&#45;&gt;Node2 -->
<g id="edge7_Node000007_Node000002" class="edge">
<title>Node7&#45;&gt;Node2</title>
<g id="a_edge7_Node000007_Node000002"><a xlink:title=" ">
<path fill="none" stroke="#63b8ff" d="M421.32,-324.13C422.84,-299.51 427.18,-257.69 439.5,-224 449.5,-196.66 453.46,-189.12 473.5,-168 487.53,-153.21 507.21,-140.57 521.42,-132.48"/>
<polygon fill="#63b8ff" stroke="#63b8ff" points="417.83,-323.91 420.82,-334.07 424.82,-324.26 417.83,-323.91"/>
</a>
</g>
</g>
<!-- Node8 -->
<g id="Node000008" class="node">
<title>Node8</title>
<g id="a_Node000008"><a xlink:href="GameObject_8cpp.html" target="_top" xlink:title="Base class for all game objects.">
<polygon fill="white" stroke="#666666" points="554.5,-300 448.5,-300 448.5,-280 554.5,-280 554.5,-300"/>
<text text-anchor="middle" x="501.5" y="-286.5" font-family="Helvetica,sans-Serif" font-size="10.00">src/GameObject.cpp</text>
</a>
</g>
</g>
<!-- Node7&#45;&gt;Node8 -->
<g id="edge8_Node000007_Node000008" class="edge">
<title>Node7&#45;&gt;Node8</title>
<g id="a_edge8_Node000007_Node000008"><a xlink:title=" ">
<path fill="none" stroke="#63b8ff" d="M444.09,-329.27C458.09,-319.94 475.36,-308.43 487.28,-300.48"/>
<polygon fill="#63b8ff" stroke="#63b8ff" points="442.25,-326.3 435.87,-334.75 446.13,-332.12 442.25,-326.3"/>
</a>
</g>
</g>
<!-- Node7&#45;&gt;Node9 -->
<g id="edge9_Node000007_Node000009" class="edge">
<title>Node7&#45;&gt;Node9</title>
<g id="a_edge9_Node000007_Node000009"><a xlink:title=" ">
<path fill="none" stroke="#63b8ff" d="M414.71,-324.59C406.29,-298.23 388.33,-252.36 358.5,-224 340.42,-206.82 314.66,-195.44 293.81,-188.42"/>
<polygon fill="#63b8ff" stroke="#63b8ff" points="411.33,-325.49 417.56,-334.06 418.03,-323.47 411.33,-325.49"/>
</a>
</g>
</g>
<!-- Node7&#45;&gt;Node19 -->
<g id="edge24_Node000007_Node000019" class="edge">
<title>Node7&#45;&gt;Node19</title>
<g id="a_edge24_Node000007_Node000019"><a xlink:title=" ">
<path fill="none" stroke="#63b8ff" d="M466.56,-332.69C503.15,-322.91 553.55,-309.43 587.04,-300.48"/>
<polygon fill="#63b8ff" stroke="#63b8ff" points="465.9,-329.24 457.15,-335.2 467.71,-336 465.9,-329.24"/>
</a>
</g>
</g>
<!-- Node9&#45;&gt;Node2 -->
<g id="edge16_Node000009_Node000002" class="edge">
<title>Node9&#45;&gt;Node2</title>
<g id="a_edge16_Node000009_Node000002"><a xlink:title=" ">
<path fill="none" stroke="#63b8ff" d="M321.99,-165.49C370.2,-156.65 438.1,-143.95 497.5,-132 500.13,-131.47 502.85,-130.91 505.59,-130.34"/>
<polygon fill="#63b8ff" stroke="#63b8ff" points="321.49,-162.03 312.28,-167.27 322.75,-168.91 321.49,-162.03"/>
</a>
</g>
</g>
<!-- Node10 -->
<g id="Node000010" class="node">
<title>Node10</title>
<g id="a_Node000010"><a xlink:href="Cherry_8h.html" target="_top" xlink:title="Class representing a cherry collectible.">
<polygon fill="white" stroke="#666666" points="94.75,-132 26.25,-132 26.25,-112 94.75,-112 94.75,-132"/>
<text text-anchor="middle" x="60.5" y="-118.5" font-family="Helvetica,sans-Serif" font-size="10.00">src/Cherry.h</text>
</a>
</g>
</g>
<!-- Node9&#45;&gt;Node10 -->
<g id="edge10_Node000009_Node000010" class="edge">
<title>Node9&#45;&gt;Node10</title>
<g id="a_edge10_Node000009_Node000010"><a xlink:title=" ">
<path fill="none" stroke="#63b8ff" d="M213.32,-164.68C177.34,-154.87 127.74,-141.34 94.93,-132.39"/>
<polygon fill="#63b8ff" stroke="#63b8ff" points="211.98,-167.94 222.55,-167.2 213.82,-161.19 211.98,-167.94"/>
</a>
</g>
</g>
<!-- Node12 -->
<g id="Node000012" class="node">
<title>Node12</title>
<g id="a_Node000012"><a xlink:href="Coin_8h.html" target="_top" xlink:title="Class representing a coin collectible.">
<polygon fill="white" stroke="#666666" points="174,-132 113,-132 113,-112 174,-112 174,-132"/>
<text text-anchor="middle" x="143.5" y="-118.5" font-family="Helvetica,sans-Serif" font-size="10.00">src/Coin.h</text>
</a>
</g>
</g>
<!-- Node9&#45;&gt;Node12 -->
<g id="edge13_Node000009_Node000012" class="edge">
<title>Node9&#45;&gt;Node12</title>
<g id="a_edge13_Node000009_Node000012"><a xlink:title=" ">
<path fill="none" stroke="#63b8ff" d="M228.14,-162.75C207.78,-153.18 181.52,-140.85 163.69,-132.48"/>
<polygon fill="#63b8ff" stroke="#63b8ff" points="226.56,-165.87 237.1,-166.95 229.53,-159.53 226.56,-165.87"/>
</a>
</g>
</g>
<!-- Node14 -->
<g id="Node000014" class="node">
<title>Node14</title>
<g id="a_Node000014"><a xlink:href="InteractiveObject_8cpp.html" target="_top" xlink:title="Base class for all interactive objects.">
<polygon fill="white" stroke="#666666" points="488.25,-132 362.75,-132 362.75,-112 488.25,-112 488.25,-132"/>
<text text-anchor="middle" x="425.5" y="-118.5" font-family="Helvetica,sans-Serif" font-size="10.00">src/InteractiveObject.cpp</text>
</a>
</g>
</g>
<!-- Node9&#45;&gt;Node14 -->
<g id="edge17_Node000009_Node000014" class="edge">
<title>Node9&#45;&gt;Node14</title>
<g id="a_edge17_Node000009_Node000014"><a xlink:title=" ">
<path fill="none" stroke="#63b8ff" d="M298.16,-164.18C328.26,-154.44 368.98,-141.28 396.18,-132.48"/>
<polygon fill="#63b8ff" stroke="#63b8ff" points="297.47,-160.72 289.03,-167.13 299.62,-167.38 297.47,-160.72"/>
</a>
</g>
</g>
<!-- Node15 -->
<g id="Node000015" class="node">
<title>Node15</title>
<g id="a_Node000015"><a xlink:href="Teleport_8h.html" target="_top" xlink:title="Represents a teleport object.">
<polygon fill="white" stroke="#666666" points="267.12,-132 191.88,-132 191.88,-112 267.12,-112 267.12,-132"/>
<text text-anchor="middle" x="229.5" y="-118.5" font-family="Helvetica,sans-Serif" font-size="10.00">src/Teleport.h</text>
</a>
</g>
</g>
<!-- Node9&#45;&gt;Node15 -->
<g id="edge18_Node000009_Node000015" class="edge">
<title>Node9&#45;&gt;Node15</title>
<g id="a_edge18_Node000009_Node000015"><a xlink:title=" ">
<path fill="none" stroke="#63b8ff" d="M248.07,-157.58C243.45,-148.97 238.22,-139.24 234.49,-132.3"/>
<polygon fill="#63b8ff" stroke="#63b8ff" points="244.92,-159.11 252.73,-166.26 251.08,-155.79 244.92,-159.11"/>
</a>
</g>
</g>
<!-- Node17 -->
<g id="Node000017" class="node">
<title>Node17</title>
<g id="a_Node000017"><a xlink:href="Wall_8h.html" target="_top" xlink:title="Represents a wall object.">
<polygon fill="white" stroke="#666666" points="344.25,-132 284.75,-132 284.75,-112 344.25,-112 344.25,-132"/>
<text text-anchor="middle" x="314.5" y="-118.5" font-family="Helvetica,sans-Serif" font-size="10.00">src/Wall.h</text>
</a>
</g>
</g>
<!-- Node9&#45;&gt;Node17 -->
<g id="edge21_Node000009_Node000017" class="edge">
<title>Node9&#45;&gt;Node17</title>
<g id="a_edge21_Node000009_Node000017"><a xlink:title=" ">
<path fill="none" stroke="#63b8ff" d="M276.29,-159.85C285.75,-150.72 297.02,-139.86 304.86,-132.3"/>
<polygon fill="#63b8ff" stroke="#63b8ff" points="274.11,-157.08 269.34,-166.54 278.97,-162.12 274.11,-157.08"/>
</a>
</g>
</g>
<!-- Node10&#45;&gt;Node3 -->
<g id="edge12_Node000010_Node000003" class="edge">
<title>Node10&#45;&gt;Node3</title>
<g id="a_edge12_Node000010_Node000003"><a xlink:title=" ">
<path fill="none" stroke="#63b8ff" d="M106.48,-111.41C176.62,-97.12 247.48,-83.11 290.28,-74.69"/>
<polygon fill="#63b8ff" stroke="#63b8ff" points="105.81,-107.97 96.71,-113.4 107.21,-114.83 105.81,-107.97"/>
</a>
</g>
</g>
<!-- Node11 -->
<g id="Node000011" class="node">
<title>Node11</title>
<g id="a_Node000011"><a xlink:href="Cherry_8cpp.html" target="_top" xlink:title="Class representing a cherry collectible.">
<polygon fill="white" stroke="#666666" points="79,-76 0,-76 0,-56 79,-56 79,-76"/>
<text text-anchor="middle" x="39.5" y="-62.5" font-family="Helvetica,sans-Serif" font-size="10.00">src/Cherry.cpp</text>
</a>
</g>
</g>
<!-- Node10&#45;&gt;Node11 -->
<g id="edge11_Node000010_Node000011" class="edge">
<title>Node10&#45;&gt;Node11</title>
<g id="a_edge11_Node000010_Node000011"><a xlink:title=" ">
<path fill="none" stroke="#63b8ff" d="M52.72,-101C49.43,-92.54 45.75,-83.08 43.12,-76.3"/>
<polygon fill="#63b8ff" stroke="#63b8ff" points="49.41,-102.13 56.29,-110.18 55.93,-99.59 49.41,-102.13"/>
</a>
</g>
</g>
<!-- Node12&#45;&gt;Node3 -->
<g id="edge15_Node000012_Node000003" class="edge">
<title>Node12&#45;&gt;Node3</title>
<g id="a_edge15_Node000012_Node000003"><a xlink:title=" ">
<path fill="none" stroke="#63b8ff" d="M185.11,-108.92C218.87,-99.12 265.78,-85.5 296.86,-76.48"/>
<polygon fill="#63b8ff" stroke="#63b8ff" points="184.3,-105.51 175.67,-111.66 186.25,-112.23 184.3,-105.51"/>
</a>
</g>
</g>
<!-- Node13 -->
<g id="Node000013" class="node">
<title>Node13</title>
<g id="a_Node000013"><a xlink:href="Coin_8cpp.html" target="_top" xlink:title="Class representing a coin collectible.">
<polygon fill="white" stroke="#666666" points="168.25,-76 96.75,-76 96.75,-56 168.25,-56 168.25,-76"/>
<text text-anchor="middle" x="132.5" y="-62.5" font-family="Helvetica,sans-Serif" font-size="10.00">src/Coin.cpp</text>
</a>
</g>
</g>
<!-- Node12&#45;&gt;Node13 -->
<g id="edge14_Node000012_Node000013" class="edge">
<title>Node12&#45;&gt;Node13</title>
<g id="a_edge14_Node000012_Node000013"><a xlink:title=" ">
<path fill="none" stroke="#63b8ff" d="M139.31,-100.43C137.61,-92.11 135.75,-82.93 134.39,-76.3"/>
<polygon fill="#63b8ff" stroke="#63b8ff" points="135.86,-101.01 141.28,-110.11 142.72,-99.61 135.86,-101.01"/>
</a>
</g>
</g>
<!-- Node15&#45;&gt;Node3 -->
<g id="edge19_Node000015_Node000003" class="edge">
<title>Node15&#45;&gt;Node3</title>
<g id="a_edge19_Node000015_Node000003"><a xlink:title=" ">
<path fill="none" stroke="#63b8ff" d="M256.63,-106.35C274.24,-96.84 296.65,-84.74 311.95,-76.48"/>
<polygon fill="#63b8ff" stroke="#63b8ff" points="255.39,-103.04 248.25,-110.87 258.71,-109.2 255.39,-103.04"/>
</a>
</g>
</g>
<!-- Node16 -->
<g id="Node000016" class="node">
<title>Node16</title>
<g id="a_Node000016"><a xlink:href="Teleport_8cpp.html" target="_top" xlink:title="Represents a teleport object.">
<polygon fill="white" stroke="#666666" points="272.38,-76 186.62,-76 186.62,-56 272.38,-56 272.38,-76"/>
<text text-anchor="middle" x="229.5" y="-62.5" font-family="Helvetica,sans-Serif" font-size="10.00">src/Teleport.cpp</text>
</a>
</g>
</g>
<!-- Node15&#45;&gt;Node16 -->
<g id="edge20_Node000015_Node000016" class="edge">
<title>Node15&#45;&gt;Node16</title>
<g id="a_edge20_Node000015_Node000016"><a xlink:title=" ">
<path fill="none" stroke="#63b8ff" d="M229.5,-100.13C229.5,-91.9 229.5,-82.85 229.5,-76.3"/>
<polygon fill="#63b8ff" stroke="#63b8ff" points="226,-100.08 229.5,-110.08 233,-100.08 226,-100.08"/>
</a>
</g>
</g>
<!-- Node17&#45;&gt;Node3 -->
<g id="edge22_Node000017_Node000003" class="edge">
<title>Node17&#45;&gt;Node3</title>
<g id="a_edge22_Node000017_Node000003"><a xlink:title=" ">
<path fill="none" stroke="#63b8ff" d="M320.13,-100.71C322.47,-92.32 325.05,-83.01 326.92,-76.3"/>
<polygon fill="#63b8ff" stroke="#63b8ff" points="316.82,-99.56 317.52,-110.14 323.57,-101.44 316.82,-99.56"/>
</a>
</g>
</g>
<!-- Node18 -->
<g id="Node000018" class="node">
<title>Node18</title>
<g id="a_Node000018"><a xlink:href="Wall_8cpp.html" target="_top" xlink:title="Represents a wall object.">
<polygon fill="white" stroke="#666666" points="456.5,-76 386.5,-76 386.5,-56 456.5,-56 456.5,-76"/>
<text text-anchor="middle" x="421.5" y="-62.5" font-family="Helvetica,sans-Serif" font-size="10.00">src/Wall.cpp</text>
</a>
</g>
</g>
<!-- Node17&#45;&gt;Node18 -->
<g id="edge23_Node000017_Node000018" class="edge">
<title>Node17&#45;&gt;Node18</title>
<g id="a_edge23_Node000017_Node000018"><a xlink:title=" ">
<path fill="none" stroke="#63b8ff" d="M343.27,-106.48C362.14,-96.96 386.28,-84.78 402.72,-76.48"/>
<polygon fill="#63b8ff" stroke="#63b8ff" points="341.84,-103.28 334.49,-110.91 344.99,-109.53 341.84,-103.28"/>
</a>
</g>
</g>
<!-- Node19&#45;&gt;Node9 -->
<g id="edge42_Node000019_Node000009" class="edge">
<title>Node19&#45;&gt;Node9</title>
<g id="a_edge42_Node000019_Node000009"><a xlink:title=" ">
<path fill="none" stroke="#63b8ff" d="M612.18,-269.74C603.05,-254.7 588.26,-234.62 569.5,-224 527.37,-200.14 394.15,-187.74 316.41,-182.37"/>
<polygon fill="#63b8ff" stroke="#63b8ff" points="609.06,-271.34 617.06,-278.29 615.14,-267.87 609.06,-271.34"/>
</a>
</g>
</g>
<!-- Node20 -->
<g id="Node000020" class="node">
<title>Node20</title>
<g id="a_Node000020"><a xlink:href="EnemyBehavior_8h.html" target="_top" xlink:title="Base class for all enemy behaviors.">
<polygon fill="white" stroke="#666666" points="936,-244 827,-244 827,-224 936,-224 936,-244"/>
<text text-anchor="middle" x="881.5" y="-230.5" font-family="Helvetica,sans-Serif" font-size="10.00">src/EnemyBehavior.h</text>
</a>
</g>
</g>
<!-- Node19&#45;&gt;Node20 -->
<g id="edge25_Node000019_Node000020" class="edge">
<title>Node19&#45;&gt;Node20</title>
<g id="a_edge25_Node000019_Node000020"><a xlink:title=" ">
<path fill="none" stroke="#63b8ff" d="M679.15,-277.19C726.27,-267.36 792.47,-253.56 836.14,-244.46"/>
<polygon fill="#63b8ff" stroke="#63b8ff" points="678.47,-273.76 669.39,-279.22 679.9,-280.61 678.47,-273.76"/>
</a>
</g>
</g>
<!-- Node27 -->
<g id="Node000027" class="node">
<title>Node27</title>
<g id="a_Node000027"><a xlink:href="Ghost_8h.html" target="_top" xlink:title="Represents a ghost enemy.">
<polygon fill="white" stroke="#666666" points="684,-188 617,-188 617,-168 684,-168 684,-188"/>
<text text-anchor="middle" x="650.5" y="-174.5" font-family="Helvetica,sans-Serif" font-size="10.00">src/Ghost.h</text>
</a>
</g>
</g>
<!-- Node19&#45;&gt;Node27 -->
<g id="edge41_Node000019_Node000027" class="edge">
<title>Node19&#45;&gt;Node27</title>
<g id="a_edge41_Node000019_Node000027"><a xlink:title=" ">
<path fill="none" stroke="#63b8ff" d="M659.39,-274.71C672.59,-267.6 686.04,-257.55 693.5,-244 704.85,-223.37 680.9,-200.76 664.4,-188.39"/>
<polygon fill="#63b8ff" stroke="#63b8ff" points="658.24,-271.38 650.8,-278.93 661.32,-277.66 658.24,-271.38"/>
</a>
</g>
</g>
<!-- Node30 -->
<g id="Node000030" class="node">
<title>Node30</title>
<g id="a_Node000030"><a xlink:href="MovingObject_8cpp.html" target="_top" xlink:title="Base class for all moving objects.">
<polygon fill="white" stroke="#666666" points="560.12,-244 448.88,-244 448.88,-224 560.12,-224 560.12,-244"/>
<text text-anchor="middle" x="504.5" y="-230.5" font-family="Helvetica,sans-Serif" font-size="10.00">src/MovingObject.cpp</text>
</a>
</g>
</g>
<!-- Node19&#45;&gt;Node30 -->
<g id="edge43_Node000019_Node000030" class="edge">
<title>Node19&#45;&gt;Node30</title>
<g id="a_edge43_Node000019_Node000030"><a xlink:title=" ">
<path fill="none" stroke="#63b8ff" d="M591.64,-274.88C570.7,-265.3 543.6,-252.89 525.21,-244.48"/>
<polygon fill="#63b8ff" stroke="#63b8ff" points="590.02,-277.99 600.57,-278.96 592.93,-271.62 590.02,-277.99"/>
</a>
</g>
</g>
<!-- Node31 -->
<g id="Node000031" class="node">
<title>Node31</title>
<g id="a_Node000031"><a xlink:href="Player_8h.html" target="_top" xlink:title="Represents a player.">
<polygon fill="white" stroke="#666666" points="684.38,-244 616.62,-244 616.62,-224 684.38,-224 684.38,-244"/>
<text text-anchor="middle" x="650.5" y="-230.5" font-family="Helvetica,sans-Serif" font-size="10.00">src/Player.h</text>
</a>
</g>
</g>
<!-- Node19&#45;&gt;Node31 -->
<g id="edge44_Node000019_Node000031" class="edge">
<title>Node19&#45;&gt;Node31</title>
<g id="a_edge44_Node000019_Node000031"><a xlink:title=" ">
<path fill="none" stroke="#63b8ff" d="M632.57,-269.58C637.03,-260.97 642.08,-251.24 645.68,-244.3"/>
<polygon fill="#63b8ff" stroke="#63b8ff" points="629.57,-267.76 628.07,-278.25 635.78,-270.98 629.57,-267.76"/>
</a>
</g>
</g>
<!-- Node20&#45;&gt;Node3 -->
<g id="edge33_Node000020_Node000003" class="edge">
<title>Node20&#45;&gt;Node3</title>
<g id="a_edge33_Node000020_Node000003"><a xlink:title=" ">
<path fill="none" stroke="#63b8ff" d="M947.85,-228.97C1042.65,-222.53 1207.5,-208.51 1225.5,-188 1231.36,-181.32 1229.72,-175.83 1225.5,-168 1204.04,-128.17 1183.52,-126.01 1140.5,-112 979.1,-59.43 546.1,-95.69 377.5,-76 374.64,-75.67 371.69,-75.26 368.73,-74.81"/>
<polygon fill="#63b8ff" stroke="#63b8ff" points="947.62,-225.48 937.87,-229.64 948.08,-232.46 947.62,-225.48"/>
</a>
</g>
</g>
<!-- Node21 -->
<g id="Node000021" class="node">
<title>Node21</title>
<g id="a_Node000021"><a xlink:href="ChaseBehavior_8h.html" target="_top" xlink:title="Class for handling the chase behavior of ghosts.">
<polygon fill="white" stroke="#666666" points="808.88,-188 702.12,-188 702.12,-168 808.88,-168 808.88,-188"/>
<text text-anchor="middle" x="755.5" y="-174.5" font-family="Helvetica,sans-Serif" font-size="10.00">src/ChaseBehavior.h</text>
</a>
</g>
</g>
<!-- Node20&#45;&gt;Node21 -->
<g id="edge26_Node000020_Node000021" class="edge">
<title>Node20&#45;&gt;Node21</title>
<g id="a_edge26_Node000020_Node000021"><a xlink:title=" ">
<path fill="none" stroke="#63b8ff" d="M849.16,-219.14C826.72,-209.52 797.43,-196.97 777.62,-188.48"/>
<polygon fill="#63b8ff" stroke="#63b8ff" points="847.59,-222.28 858.16,-223 850.35,-215.84 847.59,-222.28"/>
</a>
</g>
</g>
<!-- Node24 -->
<g id="Node000024" class="node">
<title>Node24</title>
<g id="a_Node000024"><a xlink:href="EnemyBehavior_8cpp.html" target="_top" xlink:title="Base class for all enemy behaviors.">
<polygon fill="white" stroke="#666666" points="1216.25,-188 1096.75,-188 1096.75,-168 1216.25,-168 1216.25,-188"/>
<text text-anchor="middle" x="1156.5" y="-174.5" font-family="Helvetica,sans-Serif" font-size="10.00">src/EnemyBehavior.cpp</text>
</a>
</g>
</g>
<!-- Node20&#45;&gt;Node24 -->
<g id="edge29_Node000020_Node000024" class="edge">
<title>Node20&#45;&gt;Node24</title>
<g id="a_edge29_Node000020_Node000024"><a xlink:title=" ">
<path fill="none" stroke="#63b8ff" d="M940.7,-221.37C990.79,-211.54 1061.67,-197.62 1108.34,-188.46"/>
<polygon fill="#63b8ff" stroke="#63b8ff" points="940.34,-217.88 931.2,-223.24 941.69,-224.75 940.34,-217.88"/>
</a>
</g>
</g>
<!-- Node25 -->
<g id="Node000025" class="node">
<title>Node25</title>
<g id="a_Node000025"><a xlink:href="FrightenedBehavior_8h.html" target="_top" xlink:title="Class representing a frightened ghost behavior.">
<polygon fill="white" stroke="#666666" points="1078.5,-188 954.5,-188 954.5,-168 1078.5,-168 1078.5,-188"/>
<text text-anchor="middle" x="1016.5" y="-174.5" font-family="Helvetica,sans-Serif" font-size="10.00">src/FrightenedBehavior.h</text>
</a>
</g>
</g>
<!-- Node20&#45;&gt;Node25 -->
<g id="edge30_Node000020_Node000025" class="edge">
<title>Node20&#45;&gt;Node25</title>
<g id="a_edge30_Node000020_Node000025"><a xlink:title=" ">
<path fill="none" stroke="#63b8ff" d="M915.5,-219.4C939.62,-209.75 971.39,-197.05 992.8,-188.48"/>
<polygon fill="#63b8ff" stroke="#63b8ff" points="914.41,-216.07 906.42,-223.03 917.01,-222.57 914.41,-216.07"/>
</a>
</g>
</g>
<!-- Node20&#45;&gt;Node27 -->
<g id="edge34_Node000020_Node000027" class="edge">
<title>Node20&#45;&gt;Node27</title>
<g id="a_edge34_Node000020_Node000027"><a xlink:title=" ">
<path fill="none" stroke="#63b8ff" d="M829.83,-220.92C785.35,-210.52 722.46,-195.82 684.19,-186.88"/>
<polygon fill="#63b8ff" stroke="#63b8ff" points="828.99,-224.32 839.52,-223.19 830.58,-217.5 828.99,-224.32"/>
</a>
</g>
</g>
<!-- Node28 -->
<g id="Node000028" class="node">
<title>Node28</title>
<g id="a_Node000028"><a xlink:href="ScatterBehavior_8h.html" target="_top" xlink:title="Class for the scatter behavior of the ghosts.">
<polygon fill="white" stroke="#666666" points="936.38,-188 826.62,-188 826.62,-168 936.38,-168 936.38,-188"/>
<text text-anchor="middle" x="881.5" y="-174.5" font-family="Helvetica,sans-Serif" font-size="10.00">src/ScatterBehavior.h</text>
</a>
</g>
</g>
<!-- Node20&#45;&gt;Node28 -->
<g id="edge37_Node000020_Node000028" class="edge">
<title>Node20&#45;&gt;Node28</title>
<g id="a_edge37_Node000020_Node000028"><a xlink:title=" ">
<path fill="none" stroke="#63b8ff" d="M881.5,-212.13C881.5,-203.9 881.5,-194.85 881.5,-188.3"/>
<polygon fill="#63b8ff" stroke="#63b8ff" points="878,-212.08 881.5,-222.08 885,-212.08 878,-212.08"/>
</a>
</g>
</g>
<!-- Node22 -->
<g id="Node000022" class="node">
<title>Node22</title>
<g id="a_Node000022"><a xlink:href="ChaseBehavior_8cpp.html" target="_top" xlink:title="Class for handling the chase behavior of ghosts.">
<polygon fill="white" stroke="#666666" points="708.12,-132 590.88,-132 590.88,-112 708.12,-112 708.12,-132"/>
<text text-anchor="middle" x="649.5" y="-118.5" font-family="Helvetica,sans-Serif" font-size="10.00">src/ChaseBehavior.cpp</text>
</a>
</g>
</g>
<!-- Node21&#45;&gt;Node22 -->
<g id="edge27_Node000021_Node000022" class="edge">
<title>Node21&#45;&gt;Node22</title>
<g id="a_edge27_Node000021_Node000022"><a xlink:title=" ">
<path fill="none" stroke="#63b8ff" d="M727,-162.48C708.3,-152.96 684.39,-140.78 668.11,-132.48"/>
<polygon fill="#63b8ff" stroke="#63b8ff" points="725.19,-165.49 735.69,-166.91 728.37,-159.25 725.19,-165.49"/>
</a>
</g>
</g>
<!-- Node23 -->
<g id="Node000023" class="node">
<title>Node23</title>
<g id="a_Node000023"><a xlink:href="Ghost_8cpp.html" target="_top" xlink:title="Represents a ghost enemy.">
<polygon fill="white" stroke="#666666" points="803.25,-132 725.75,-132 725.75,-112 803.25,-112 803.25,-132"/>
<text text-anchor="middle" x="764.5" y="-118.5" font-family="Helvetica,sans-Serif" font-size="10.00">src/Ghost.cpp</text>
</a>
</g>
</g>
<!-- Node21&#45;&gt;Node23 -->
<g id="edge28_Node000021_Node000023" class="edge">
<title>Node21&#45;&gt;Node23</title>
<g id="a_edge28_Node000021_Node000023"><a xlink:title=" ">
<path fill="none" stroke="#63b8ff" d="M758.93,-156.43C760.32,-148.11 761.84,-138.93 762.95,-132.3"/>
<polygon fill="#63b8ff" stroke="#63b8ff" points="755.51,-155.66 757.32,-166.1 762.41,-156.81 755.51,-155.66"/>
</a>
</g>
</g>
<!-- Node25&#45;&gt;Node23 -->
<g id="edge32_Node000025_Node000023" class="edge">
<title>Node25&#45;&gt;Node23</title>
<g id="a_edge32_Node000025_Node000023"><a xlink:title=" ">
<path fill="none" stroke="#63b8ff" d="M961.26,-165.16C913.59,-154.95 845.93,-140.45 803.66,-131.39"/>
<polygon fill="#63b8ff" stroke="#63b8ff" points="960.33,-168.54 970.84,-167.21 961.79,-161.7 960.33,-168.54"/>
</a>
</g>
</g>
<!-- Node26 -->
<g id="Node000026" class="node">
<title>Node26</title>
<g id="a_Node000026"><a xlink:href="FrightenedBehavior_8cpp.html" target="_top" xlink:title="Class representing a frightened ghost behavior.">
<polygon fill="white" stroke="#666666" points="1131.75,-132 997.25,-132 997.25,-112 1131.75,-112 1131.75,-132"/>
<text text-anchor="middle" x="1064.5" y="-118.5" font-family="Helvetica,sans-Serif" font-size="10.00">src/FrightenedBehavior.cpp</text>
</a>
</g>
</g>
<!-- Node25&#45;&gt;Node26 -->
<g id="edge31_Node000025_Node000026" class="edge">
<title>Node25&#45;&gt;Node26</title>
<g id="a_edge31_Node000025_Node000026"><a xlink:title=" ">
<path fill="none" stroke="#63b8ff" d="M1032.5,-159C1040.45,-150.06 1049.72,-139.62 1056.23,-132.3"/>
<polygon fill="#63b8ff" stroke="#63b8ff" points="1029.89,-156.66 1025.87,-166.46 1035.13,-161.31 1029.89,-156.66"/>
</a>
</g>
</g>
<!-- Node27&#45;&gt;Node2 -->
<g id="edge35_Node000027_Node000002" class="edge">
<title>Node27&#45;&gt;Node2</title>
<g id="a_edge35_Node000027_Node000002"><a xlink:title=" ">
<path fill="none" stroke="#63b8ff" d="M620.93,-162.61C601.31,-153.07 576.12,-140.81 558.99,-132.48"/>
<polygon fill="#63b8ff" stroke="#63b8ff" points="619.28,-165.7 629.8,-166.93 622.34,-159.41 619.28,-165.7"/>
</a>
</g>
</g>
<!-- Node27&#45;&gt;Node23 -->
<g id="edge36_Node000027_Node000023" class="edge">
<title>Node27&#45;&gt;Node23</title>
<g id="a_edge36_Node000027_Node000023"><a xlink:title=" ">
<path fill="none" stroke="#63b8ff" d="M680.59,-162.75C700.78,-153.18 726.81,-140.85 744.49,-132.48"/>
<polygon fill="#63b8ff" stroke="#63b8ff" points="679.26,-159.5 671.73,-166.95 682.26,-165.83 679.26,-159.5"/>
</a>
</g>
</g>
<!-- Node28&#45;&gt;Node3 -->
<g id="edge38_Node000028_Node000003" class="edge">
<title>Node28&#45;&gt;Node3</title>
<g id="a_edge38_Node000028_Node000003"><a xlink:title=" ">
<path fill="none" stroke="#63b8ff" d="M914.43,-162.8C939.75,-149.97 967.73,-130.35 950.5,-112 906.83,-65.5 440.8,-83.89 377.5,-76 374.64,-75.64 371.69,-75.22 368.73,-74.76"/>
<polygon fill="#63b8ff" stroke="#63b8ff" points="913.1,-159.55 905.6,-167.04 916.13,-165.86 913.1,-159.55"/>
</a>
</g>
</g>
<!-- Node28&#45;&gt;Node23 -->
<g id="edge39_Node000028_Node000023" class="edge">
<title>Node28&#45;&gt;Node23</title>
<g id="a_edge39_Node000028_Node000023"><a xlink:title=" ">
<path fill="none" stroke="#63b8ff" d="M850.9,-162.88C830.14,-153.3 803.26,-140.89 785.04,-132.48"/>
<polygon fill="#63b8ff" stroke="#63b8ff" points="849.2,-165.95 859.75,-166.96 852.13,-159.59 849.2,-165.95"/>
</a>
</g>
</g>
<!-- Node29 -->
<g id="Node000029" class="node">
<title>Node29</title>
<g id="a_Node000029"><a xlink:href="ScatterBehavior_8cpp.html" target="_top" xlink:title="Class for the scatter behavior of the ghosts.">
<polygon fill="white" stroke="#666666" points="941.62,-132 821.38,-132 821.38,-112 941.62,-112 941.62,-132"/>
<text text-anchor="middle" x="881.5" y="-118.5" font-family="Helvetica,sans-Serif" font-size="10.00">src/ScatterBehavior.cpp</text>
</a>
</g>
</g>
<!-- Node28&#45;&gt;Node29 -->
<g id="edge40_Node000028_Node000029" class="edge">
<title>Node28&#45;&gt;Node29</title>
<g id="a_edge40_Node000028_Node000029"><a xlink:title=" ">
<path fill="none" stroke="#63b8ff" d="M881.5,-156.13C881.5,-147.9 881.5,-138.85 881.5,-132.3"/>
<polygon fill="#63b8ff" stroke="#63b8ff" points="878,-156.08 881.5,-166.08 885,-156.08 878,-156.08"/>
</a>
</g>
</g>
<!-- Node31&#45;&gt;Node2 -->
<g id="edge45_Node000031_Node000002" class="edge">
<title>Node31&#45;&gt;Node2</title>
<g id="a_edge45_Node000031_Node000002"><a xlink:title=" ">
<path fill="none" stroke="#63b8ff" d="M632.87,-215.53C609.07,-191.95 567.52,-150.76 548.94,-132.35"/>
<polygon fill="#63b8ff" stroke="#63b8ff" points="630.39,-218 639.96,-222.56 635.32,-213.03 630.39,-218"/>
</a>
</g>
</g>
<!-- Node31&#45;&gt;Node9 -->
<g id="edge47_Node000031_Node000009" class="edge">
<title>Node31&#45;&gt;Node9</title>
<g id="a_edge47_Node000031_Node000009"><a xlink:title=" ">
<path fill="none" stroke="#63b8ff" d="M605.02,-224.41C604.17,-224.27 603.33,-224.13 602.5,-224 502.27,-208.06 384.95,-193.61 316.46,-185.59"/>
<polygon fill="#63b8ff" stroke="#63b8ff" points="604.25,-227.83 614.7,-226.07 605.44,-220.93 604.25,-227.83"/>
</a>
</g>
</g>
<!-- Node31&#45;&gt;Node27 -->
<g id="edge46_Node000031_Node000027" class="edge">
<title>Node31&#45;&gt;Node27</title>
<g id="a_edge46_Node000031_Node000027"><a xlink:title=" ">
<path fill="none" stroke="#63b8ff" d="M650.5,-212.13C650.5,-203.9 650.5,-194.85 650.5,-188.3"/>
<polygon fill="#63b8ff" stroke="#63b8ff" points="647,-212.08 650.5,-222.08 654,-212.08 647,-212.08"/>
</a>
</g>
</g>
<!-- Node32 -->
<g id="Node000032" class="node">
<title>Node32</title>
<g id="a_Node000032"><a xlink:href="Player_8cpp.html" target="_top" xlink:title="Represents a player.">
<polygon fill="white" stroke="#666666" points="560.62,-188 482.38,-188 482.38,-168 560.62,-168 560.62,-188"/>
<text text-anchor="middle" x="521.5" y="-174.5" font-family="Helvetica,sans-Serif" font-size="10.00">src/Player.cpp</text>
</a>
</g>
</g>
<!-- Node31&#45;&gt;Node32 -->
<g id="edge48_Node000031_Node000032" class="edge">
<title>Node31&#45;&gt;Node32</title>
<g id="a_edge48_Node000031_Node000032"><a xlink:title=" ">
<path fill="none" stroke="#63b8ff" d="M617.7,-219.27C594.69,-209.64 564.52,-197.01 544.15,-188.48"/>
<polygon fill="#63b8ff" stroke="#63b8ff" points="616.06,-222.38 626.63,-223.01 618.76,-215.92 616.06,-222.38"/>
</a>
</g>
</g>
</g>
</svg>
