<?xml version="1.0" encoding="UTF-8" standalone="no"?>
<!DOCTYPE svg PUBLIC "-//W3C//DTD SVG 1.1//EN"
 "http://www.w3.org/Graphics/SVG/1.1/DTD/svg11.dtd">
<!-- Generated by graphviz version 10.0.1 (0)
 -->
<!-- Title: src/GameManager.cpp Pages: 1 -->
<svg width="1292pt" height="588pt"
 viewBox="0.00 0.00 1292.25 588.00" xmlns="http://www.w3.org/2000/svg" xmlns:xlink="http://www.w3.org/1999/xlink">
<g id="graph0" class="graph" transform="scale(1 1) rotate(0) translate(4 584)">
<title>src/GameManager.cpp</title>
<!-- Node1 -->
<g id="Node000001" class="node">
<title>Node1</title>
<g id="a_Node000001"><a xlink:title="Handles the game loop and game states.">
<polygon fill="#999999" stroke="#666666" points="1122.12,-580 1007.88,-580 1007.88,-560 1122.12,-560 1122.12,-580"/>
<text text-anchor="middle" x="1065" y="-566.5" font-family="Helvetica,sans-Serif" font-size="10.00">src/GameManager.cpp</text>
</a>
</g>
</g>
<!-- Node2 -->
<g id="Node000002" class="node">
<title>Node2</title>
<g id="a_Node000002"><a xlink:href="GameManager_8h.html" target="_top" xlink:title="Handles the game loop and game states.">
<polygon fill="white" stroke="#666666" points="884.62,-524 797.38,-524 797.38,-504 884.62,-504 884.62,-524"/>
<text text-anchor="middle" x="841" y="-510.5" font-family="Helvetica,sans-Serif" font-size="10.00">GameManager.h</text>
</a>
</g>
</g>
<!-- Node1&#45;&gt;Node2 -->
<g id="edge1_Node000001_Node000002" class="edge">
<title>Node1&#45;&gt;Node2</title>
<g id="a_edge1_Node000001_Node000002"><a xlink:title=" ">
<path fill="none" stroke="#63b8ff" d="M1025.73,-559.53C988.34,-550.52 931.9,-536.91 891.25,-527.11"/>
<polygon fill="#63b8ff" stroke="#63b8ff" points="892.24,-523.75 881.7,-524.81 890.6,-530.56 892.24,-523.75"/>
</a>
</g>
</g>
<!-- Node7 -->
<g id="Node000007" class="node">
<title>Node7</title>
<g id="a_Node000007"><a xlink:href="Enums_8h.html" target="_top" xlink:title=" ">
<polygon fill="white" stroke="#666666" points="285.5,-76 230.5,-76 230.5,-56 285.5,-56 285.5,-76"/>
<text text-anchor="middle" x="258" y="-62.5" font-family="Helvetica,sans-Serif" font-size="10.00">Enums.h</text>
</a>
</g>
</g>
<!-- Node1&#45;&gt;Node7 -->
<g id="edge66_Node000001_Node000007" class="edge">
<title>Node1&#45;&gt;Node7</title>
<g id="a_edge66_Node000001_Node000007"><a xlink:title=" ">
<path fill="none" stroke="#63b8ff" d="M1007.74,-569.15C786.53,-568.99 0,-561.23 0,-459 0,-459 0,-459 0,-177 0,-82.9 147.01,-68.19 219.09,-66.63"/>
<polygon fill="#63b8ff" stroke="#63b8ff" points="218.92,-70.13 228.88,-66.5 218.83,-63.13 218.92,-70.13"/>
</a>
</g>
</g>
<!-- Node14 -->
<g id="Node000014" class="node">
<title>Node14</title>
<g id="a_Node000014"><a xlink:title=" ">
<polygon fill="#e0e0e0" stroke="#999999" points="898.38,-132 839.62,-132 839.62,-112 898.38,-112 898.38,-132"/>
<text text-anchor="middle" x="869" y="-118.5" font-family="Helvetica,sans-Serif" font-size="10.00">ncurses.h</text>
</a>
</g>
</g>
<!-- Node1&#45;&gt;Node14 -->
<g id="edge64_Node000001_Node000014" class="edge">
<title>Node1&#45;&gt;Node14</title>
<g id="a_edge64_Node000001_Node000014"><a xlink:title=" ">
<path fill="none" stroke="#63b8ff" d="M1056.1,-559.6C1048.2,-550.9 1036.75,-537.32 1029,-524 949.61,-387.63 892.59,-204.36 874.84,-143.55"/>
<polygon fill="#63b8ff" stroke="#63b8ff" points="878.2,-142.59 872.07,-133.95 871.48,-144.53 878.2,-142.59"/>
</a>
</g>
</g>
<!-- Node25 -->
<g id="Node000025" class="node">
<title>Node25</title>
<g id="a_Node000025"><a xlink:title=" ">
<polygon fill="#e0e0e0" stroke="#999999" points="1091.75,-524 1038.25,-524 1038.25,-504 1091.75,-504 1091.75,-524"/>
<text text-anchor="middle" x="1065" y="-510.5" font-family="Helvetica,sans-Serif" font-size="10.00">iostream</text>
</a>
</g>
</g>
<!-- Node1&#45;&gt;Node25 -->
<g id="edge65_Node000001_Node000025" class="edge">
<title>Node1&#45;&gt;Node25</title>
<g id="a_edge65_Node000001_Node000025"><a xlink:title=" ">
<path fill="none" stroke="#63b8ff" d="M1065,-559.59C1065,-553.01 1065,-543.96 1065,-535.73"/>
<polygon fill="#63b8ff" stroke="#63b8ff" points="1068.5,-535.81 1065,-525.81 1061.5,-535.81 1068.5,-535.81"/>
</a>
</g>
</g>
<!-- Node26 -->
<g id="Node000026" class="node">
<title>Node26</title>
<g id="a_Node000026"><a xlink:title=" ">
<polygon fill="#e0e0e0" stroke="#999999" points="1154.62,-524 1109.38,-524 1109.38,-504 1154.62,-504 1154.62,-524"/>
<text text-anchor="middle" x="1132" y="-510.5" font-family="Helvetica,sans-Serif" font-size="10.00">chrono</text>
</a>
</g>
</g>
<!-- Node1&#45;&gt;Node26 -->
<g id="edge67_Node000001_Node000026" class="edge">
<title>Node1&#45;&gt;Node26</title>
<g id="a_edge67_Node000001_Node000026"><a xlink:title=" ">
<path fill="none" stroke="#63b8ff" d="M1076.67,-559.59C1086.28,-551.85 1100.13,-540.69 1111.57,-531.47"/>
<polygon fill="#63b8ff" stroke="#63b8ff" points="1113.7,-534.25 1119.28,-525.25 1109.3,-528.8 1113.7,-534.25"/>
</a>
</g>
</g>
<!-- Node27 -->
<g id="Node000027" class="node">
<title>Node27</title>
<g id="a_Node000027"><a xlink:title=" ">
<polygon fill="#e0e0e0" stroke="#999999" points="1215.5,-524 1172.5,-524 1172.5,-504 1215.5,-504 1215.5,-524"/>
<text text-anchor="middle" x="1194" y="-510.5" font-family="Helvetica,sans-Serif" font-size="10.00">thread</text>
</a>
</g>
</g>
<!-- Node1&#45;&gt;Node27 -->
<g id="edge68_Node000001_Node000027" class="edge">
<title>Node1&#45;&gt;Node27</title>
<g id="a_edge68_Node000001_Node000027"><a xlink:title=" ">
<path fill="none" stroke="#63b8ff" d="M1087.47,-559.59C1108.03,-550.99 1138.7,-538.15 1161.85,-528.46"/>
<polygon fill="#63b8ff" stroke="#63b8ff" points="1162.95,-531.79 1170.82,-524.7 1160.25,-525.34 1162.95,-531.79"/>
</a>
</g>
</g>
<!-- Node28 -->
<g id="Node000028" class="node">
<title>Node28</title>
<g id="a_Node000028"><a xlink:title=" ">
<polygon fill="#e0e0e0" stroke="#999999" points="1284.25,-524 1233.75,-524 1233.75,-504 1284.25,-504 1284.25,-524"/>
<text text-anchor="middle" x="1259" y="-510.5" font-family="Helvetica,sans-Serif" font-size="10.00">unistd.h</text>
</a>
</g>
</g>
<!-- Node1&#45;&gt;Node28 -->
<g id="edge69_Node000001_Node000028" class="edge">
<title>Node1&#45;&gt;Node28</title>
<g id="a_edge69_Node000001_Node000028"><a xlink:title=" ">
<path fill="none" stroke="#63b8ff" d="M1098.79,-559.59C1133.37,-549.97 1186.93,-535.06 1222.47,-525.17"/>
<polygon fill="#63b8ff" stroke="#63b8ff" points="1223.18,-528.6 1231.87,-522.55 1221.3,-521.86 1223.18,-528.6"/>
</a>
</g>
</g>
<!-- Node3 -->
<g id="Node000003" class="node">
<title>Node3</title>
<g id="a_Node000003"><a xlink:href="Game_8h.html" target="_top" xlink:title="Class for handling the game logic.">
<polygon fill="white" stroke="#666666" points="788.25,-468 737.75,-468 737.75,-448 788.25,-448 788.25,-468"/>
<text text-anchor="middle" x="763" y="-454.5" font-family="Helvetica,sans-Serif" font-size="10.00">Game.h</text>
</a>
</g>
</g>
<!-- Node2&#45;&gt;Node3 -->
<g id="edge2_Node000002_Node000003" class="edge">
<title>Node2&#45;&gt;Node3</title>
<g id="a_edge2_Node000002_Node000003"><a xlink:title=" ">
<path fill="none" stroke="#63b8ff" d="M827.41,-503.59C815.96,-495.67 799.34,-484.16 785.84,-474.82"/>
<polygon fill="#63b8ff" stroke="#63b8ff" points="788.15,-472.16 777.94,-469.34 784.17,-477.91 788.15,-472.16"/>
</a>
</g>
</g>
<!-- Node2&#45;&gt;Node7 -->
<g id="edge63_Node000002_Node000007" class="edge">
<title>Node2&#45;&gt;Node7</title>
<g id="a_edge63_Node000002_Node000007"><a xlink:title=" ">
<path fill="none" stroke="#63b8ff" d="M796.97,-511.65C629.02,-505.92 38,-480.26 38,-403 38,-403 38,-403 38,-177 38,-97 155.82,-75.18 219.01,-69.23"/>
<polygon fill="#63b8ff" stroke="#63b8ff" points="218.96,-72.75 228.63,-68.42 218.37,-65.77 218.96,-72.75"/>
</a>
</g>
</g>
<!-- Node13 -->
<g id="Node000013" class="node">
<title>Node13</title>
<g id="a_Node000013"><a xlink:href="Window_8h.html" target="_top" xlink:title="Class for handling ncurses windows.">
<polygon fill="white" stroke="#666666" points="803,-188 745,-188 745,-168 803,-168 803,-188"/>
<text text-anchor="middle" x="774" y="-174.5" font-family="Helvetica,sans-Serif" font-size="10.00">Window.h</text>
</a>
</g>
</g>
<!-- Node2&#45;&gt;Node13 -->
<g id="edge62_Node000002_Node000013" class="edge">
<title>Node2&#45;&gt;Node13</title>
<g id="a_edge62_Node000002_Node000013"><a xlink:title=" ">
<path fill="none" stroke="#63b8ff" d="M843.03,-503.68C850.77,-465.75 875.31,-320.44 820,-224 813.81,-213.21 804.31,-203.3 795.54,-195.53"/>
<polygon fill="#63b8ff" stroke="#63b8ff" points="797.92,-192.97 788,-189.25 793.44,-198.34 797.92,-192.97"/>
</a>
</g>
</g>
<!-- Node4 -->
<g id="Node000004" class="node">
<title>Node4</title>
<g id="a_Node000004"><a xlink:title=" ">
<polygon fill="#e0e0e0" stroke="#999999" points="492.62,-188 441.38,-188 441.38,-168 492.62,-168 492.62,-188"/>
<text text-anchor="middle" x="467" y="-174.5" font-family="Helvetica,sans-Serif" font-size="10.00">memory</text>
</a>
</g>
</g>
<!-- Node3&#45;&gt;Node4 -->
<g id="edge3_Node000003_Node000004" class="edge">
<title>Node3&#45;&gt;Node4</title>
<g id="a_edge3_Node000003_Node000004"><a xlink:title=" ">
<path fill="none" stroke="#63b8ff" d="M764.48,-447.78C769.5,-412.83 782.22,-287.37 718,-224 688.32,-194.72 566.43,-184.16 504.09,-180.63"/>
<polygon fill="#63b8ff" stroke="#63b8ff" points="504.5,-177.15 494.33,-180.11 504.13,-184.14 504.5,-177.15"/>
</a>
</g>
</g>
<!-- Node5 -->
<g id="Node000005" class="node">
<title>Node5</title>
<g id="a_Node000005"><a xlink:title=" ">
<polygon fill="#e0e0e0" stroke="#999999" points="966.5,-76 923.5,-76 923.5,-56 966.5,-56 966.5,-76"/>
<text text-anchor="middle" x="945" y="-62.5" font-family="Helvetica,sans-Serif" font-size="10.00">vector</text>
</a>
</g>
</g>
<!-- Node3&#45;&gt;Node5 -->
<g id="edge4_Node000003_Node000005" class="edge">
<title>Node3&#45;&gt;Node5</title>
<g id="a_edge4_Node000003_Node000005"><a xlink:title=" ">
<path fill="none" stroke="#63b8ff" d="M778.37,-447.61C790.54,-439.49 807.25,-426.76 818,-412 896.11,-304.8 931.09,-144.3 941.5,-87.68"/>
<polygon fill="#63b8ff" stroke="#63b8ff" points="944.93,-88.36 943.23,-77.9 938.04,-87.14 944.93,-88.36"/>
</a>
</g>
</g>
<!-- Node6 -->
<g id="Node000006" class="node">
<title>Node6</title>
<g id="a_Node000006"><a xlink:href="GameObject_8h.html" target="_top" xlink:title="Base class for all game objects.">
<polygon fill="white" stroke="#666666" points="297.5,-244 218.5,-244 218.5,-224 297.5,-224 297.5,-244"/>
<text text-anchor="middle" x="258" y="-230.5" font-family="Helvetica,sans-Serif" font-size="10.00">GameObject.h</text>
</a>
</g>
</g>
<!-- Node3&#45;&gt;Node6 -->
<g id="edge5_Node000003_Node000006" class="edge">
<title>Node3&#45;&gt;Node6</title>
<g id="a_edge5_Node000003_Node000006"><a xlink:title=" ">
<path fill="none" stroke="#63b8ff" d="M737.36,-456.59C640.52,-454.77 300.87,-446.01 268,-412 227.07,-369.65 241.74,-291.71 251.76,-255.05"/>
<polygon fill="#63b8ff" stroke="#63b8ff" points="255.03,-256.35 254.47,-245.77 248.31,-254.39 255.03,-256.35"/>
</a>
</g>
</g>
<!-- Node9 -->
<g id="Node000009" class="node">
<title>Node9</title>
<g id="a_Node000009"><a xlink:href="GamePhase_8h.html" target="_top" xlink:title="Handles the game phase and level.">
<polygon fill="white" stroke="#666666" points="229.12,-188 150.88,-188 150.88,-168 229.12,-168 229.12,-188"/>
<text text-anchor="middle" x="190" y="-174.5" font-family="Helvetica,sans-Serif" font-size="10.00">GamePhase.h</text>
</a>
</g>
</g>
<!-- Node3&#45;&gt;Node9 -->
<g id="edge61_Node000003_Node000009" class="edge">
<title>Node3&#45;&gt;Node9</title>
<g id="a_edge61_Node000003_Node000009"><a xlink:title=" ">
<path fill="none" stroke="#63b8ff" d="M737.42,-455.96C647.11,-452.12 343.58,-437.56 250,-412 185.37,-394.35 114,-413.99 114,-347 114,-347 114,-347 114,-289 114,-250.24 146.34,-215.24 168.83,-195.59"/>
<polygon fill="#63b8ff" stroke="#63b8ff" points="170.87,-198.44 176.29,-189.34 166.37,-193.08 170.87,-198.44"/>
</a>
</g>
</g>
<!-- Node10 -->
<g id="Node000010" class="node">
<title>Node10</title>
<g id="a_Node000010"><a xlink:href="Config_8h.html" target="_top" xlink:title="Class for handling the game configuration.">
<polygon fill="white" stroke="#666666" points="1044.38,-132 991.62,-132 991.62,-112 1044.38,-112 1044.38,-132"/>
<text text-anchor="middle" x="1018" y="-118.5" font-family="Helvetica,sans-Serif" font-size="10.00">Config.h</text>
</a>
</g>
</g>
<!-- Node3&#45;&gt;Node10 -->
<g id="edge11_Node000003_Node000010" class="edge">
<title>Node3&#45;&gt;Node10</title>
<g id="a_edge11_Node000003_Node000010"><a xlink:title=" ">
<path fill="none" stroke="#63b8ff" d="M788.49,-449.37C811.41,-441.85 845.47,-429.03 872,-412 938.43,-369.37 1002,-369.93 1002,-291 1002,-291 1002,-291 1002,-233 1002,-201.54 1008.49,-165.55 1013.2,-143.55"/>
<polygon fill="#63b8ff" stroke="#63b8ff" points="1016.61,-144.35 1015.38,-133.83 1009.78,-142.82 1016.61,-144.35"/>
</a>
</g>
</g>
<!-- Node3&#45;&gt;Node13 -->
<g id="edge15_Node000003_Node000013" class="edge">
<title>Node3&#45;&gt;Node13</title>
<g id="a_edge15_Node000003_Node000013"><a xlink:title=" ">
<path fill="none" stroke="#63b8ff" d="M771.91,-447.56C787.94,-429.52 820,-388.3 820,-347 820,-347 820,-347 820,-289 820,-254.82 800.87,-218.98 787.28,-197.83"/>
<polygon fill="#63b8ff" stroke="#63b8ff" points="790.31,-196.06 781.83,-189.71 784.49,-199.96 790.31,-196.06"/>
</a>
</g>
</g>
<!-- Node17 -->
<g id="Node000017" class="node">
<title>Node17</title>
<g id="a_Node000017"><a xlink:href="Player_8h.html" target="_top" xlink:title="Represents a player.">
<polygon fill="white" stroke="#666666" points="667.62,-356 616.38,-356 616.38,-336 667.62,-336 667.62,-356"/>
<text text-anchor="middle" x="642" y="-342.5" font-family="Helvetica,sans-Serif" font-size="10.00">Player.h</text>
</a>
</g>
</g>
<!-- Node3&#45;&gt;Node17 -->
<g id="edge25_Node000003_Node000017" class="edge">
<title>Node3&#45;&gt;Node17</title>
<g id="a_edge25_Node000003_Node000017"><a xlink:title=" ">
<path fill="none" stroke="#63b8ff" d="M752.68,-447.62C732.23,-429.03 686.31,-387.28 660.5,-363.82"/>
<polygon fill="#63b8ff" stroke="#63b8ff" points="663.16,-361.51 653.41,-357.37 658.46,-366.69 663.16,-361.51"/>
</a>
</g>
</g>
<!-- Node19 -->
<g id="Node000019" class="node">
<title>Node19</title>
<g id="a_Node000019"><a xlink:href="Map_8h.html" target="_top" xlink:title="Class for handling the game map.">
<polygon fill="white" stroke="#666666" points="708.5,-244 665.5,-244 665.5,-224 708.5,-224 708.5,-244"/>
<text text-anchor="middle" x="687" y="-230.5" font-family="Helvetica,sans-Serif" font-size="10.00">Map.h</text>
</a>
</g>
</g>
<!-- Node3&#45;&gt;Node19 -->
<g id="edge48_Node000003_Node000019" class="edge">
<title>Node3&#45;&gt;Node19</title>
<g id="a_edge48_Node000003_Node000019"><a xlink:title=" ">
<path fill="none" stroke="#63b8ff" d="M760.44,-447.66C753.09,-421.1 730.88,-342.99 707,-280 703.78,-271.51 699.8,-262.33 696.23,-254.48"/>
<polygon fill="#63b8ff" stroke="#63b8ff" points="699.47,-253.15 692.08,-245.55 693.12,-256.1 699.47,-253.15"/>
</a>
</g>
</g>
<!-- Node20 -->
<g id="Node000020" class="node">
<title>Node20</title>
<g id="a_Node000020"><a xlink:href="Ghost_8h.html" target="_top" xlink:title="Represents a ghost enemy.">
<polygon fill="white" stroke="#666666" points="622.25,-412 571.75,-412 571.75,-392 622.25,-392 622.25,-412"/>
<text text-anchor="middle" x="597" y="-398.5" font-family="Helvetica,sans-Serif" font-size="10.00">Ghost.h</text>
</a>
</g>
</g>
<!-- Node3&#45;&gt;Node20 -->
<g id="edge38_Node000003_Node000020" class="edge">
<title>Node3&#45;&gt;Node20</title>
<g id="a_edge38_Node000003_Node000020"><a xlink:title=" ">
<path fill="none" stroke="#63b8ff" d="M737.43,-448.68C709.64,-439.64 665.02,-425.13 633.55,-414.89"/>
<polygon fill="#63b8ff" stroke="#63b8ff" points="634.63,-411.56 624.04,-411.8 632.47,-418.22 634.63,-411.56"/>
</a>
</g>
</g>
<!-- Node22 -->
<g id="Node000022" class="node">
<title>Node22</title>
<g id="a_Node000022"><a xlink:href="Leaderboard_8h.html" target="_top" xlink:title="Class for handling the game leaderboard.">
<polygon fill="white" stroke="#666666" points="1139.75,-132 1062.25,-132 1062.25,-112 1139.75,-112 1139.75,-132"/>
<text text-anchor="middle" x="1101" y="-118.5" font-family="Helvetica,sans-Serif" font-size="10.00">Leaderboard.h</text>
</a>
</g>
</g>
<!-- Node3&#45;&gt;Node22 -->
<g id="edge49_Node000003_Node000022" class="edge">
<title>Node3&#45;&gt;Node22</title>
<g id="a_edge49_Node000003_Node000022"><a xlink:title=" ">
<path fill="none" stroke="#63b8ff" d="M788.56,-453.98C857.14,-444.32 1040,-407.61 1040,-291 1040,-291 1040,-291 1040,-233 1040,-196.64 1065.8,-161.05 1083.85,-140.6"/>
<polygon fill="#63b8ff" stroke="#63b8ff" points="1086.24,-143.17 1090.44,-133.44 1081.09,-138.42 1086.24,-143.17"/>
</a>
</g>
</g>
<!-- Node24 -->
<g id="Node000024" class="node">
<title>Node24</title>
<g id="a_Node000024"><a xlink:href="InteractiveObject_8h.html" target="_top" xlink:title="Base class for all interactive objects.">
<polygon fill="white" stroke="#666666" points="375.25,-412 276.75,-412 276.75,-392 375.25,-392 375.25,-412"/>
<text text-anchor="middle" x="326" y="-398.5" font-family="Helvetica,sans-Serif" font-size="10.00">InteractiveObject.h</text>
</a>
</g>
</g>
<!-- Node3&#45;&gt;Node24 -->
<g id="edge54_Node000003_Node000024" class="edge">
<title>Node3&#45;&gt;Node24</title>
<g id="a_edge54_Node000003_Node000024"><a xlink:title=" ">
<path fill="none" stroke="#63b8ff" d="M737.3,-453.82C669.43,-445.44 484.03,-422.53 387.02,-410.54"/>
<polygon fill="#63b8ff" stroke="#63b8ff" points="387.49,-407.07 377.14,-409.32 386.63,-414.02 387.49,-407.07"/>
</a>
</g>
</g>
<!-- Node6&#45;&gt;Node4 -->
<g id="edge10_Node000006_Node000004" class="edge">
<title>Node6&#45;&gt;Node4</title>
<g id="a_edge10_Node000006_Node000004"><a xlink:title=" ">
<path fill="none" stroke="#63b8ff" d="M294.41,-223.59C332.51,-213.75 392.02,-198.37 430.25,-188.49"/>
<polygon fill="#63b8ff" stroke="#63b8ff" points="430.64,-192.01 439.45,-186.12 428.89,-185.23 430.64,-192.01"/>
</a>
</g>
</g>
<!-- Node6&#45;&gt;Node7 -->
<g id="edge6_Node000006_Node000007" class="edge">
<title>Node6&#45;&gt;Node7</title>
<g id="a_edge6_Node000006_Node000007"><a xlink:title=" ">
<path fill="none" stroke="#63b8ff" d="M258,-223.6C258,-197.46 258,-123.48 258,-87.36"/>
<polygon fill="#63b8ff" stroke="#63b8ff" points="261.5,-87.81 258,-77.81 254.5,-87.81 261.5,-87.81"/>
</a>
</g>
</g>
<!-- Node6&#45;&gt;Node9 -->
<g id="edge8_Node000006_Node000009" class="edge">
<title>Node6&#45;&gt;Node9</title>
<g id="a_edge8_Node000006_Node000009"><a xlink:title=" ">
<path fill="none" stroke="#63b8ff" d="M246.16,-223.59C236.31,-215.77 222.07,-204.46 210.39,-195.19"/>
<polygon fill="#63b8ff" stroke="#63b8ff" points="212.9,-192.72 202.89,-189.24 208.55,-198.2 212.9,-192.72"/>
</a>
</g>
</g>
<!-- Node8 -->
<g id="Node000008" class="node">
<title>Node8</title>
<g id="a_Node000008"><a xlink:title=" ">
<polygon fill="#e0e0e0" stroke="#999999" points="277.62,-20 238.38,-20 238.38,0 277.62,0 277.62,-20"/>
<text text-anchor="middle" x="258" y="-6.5" font-family="Helvetica,sans-Serif" font-size="10.00">utility</text>
</a>
</g>
</g>
<!-- Node7&#45;&gt;Node8 -->
<g id="edge7_Node000007_Node000008" class="edge">
<title>Node7&#45;&gt;Node8</title>
<g id="a_edge7_Node000007_Node000008"><a xlink:title=" ">
<path fill="none" stroke="#63b8ff" d="M258,-55.59C258,-49.01 258,-39.96 258,-31.73"/>
<polygon fill="#63b8ff" stroke="#63b8ff" points="261.5,-31.81 258,-21.81 254.5,-31.81 261.5,-31.81"/>
</a>
</g>
</g>
<!-- Node9&#45;&gt;Node7 -->
<g id="edge9_Node000009_Node000007" class="edge">
<title>Node9&#45;&gt;Node7</title>
<g id="a_edge9_Node000009_Node000007"><a xlink:title=" ">
<path fill="none" stroke="#63b8ff" d="M195.8,-167.62C206.94,-149.6 231.53,-109.81 246.24,-86.02"/>
<polygon fill="#63b8ff" stroke="#63b8ff" points="249.14,-87.99 251.42,-77.64 243.19,-84.31 249.14,-87.99"/>
</a>
</g>
</g>
<!-- Node10&#45;&gt;Node5 -->
<g id="edge14_Node000010_Node000005" class="edge">
<title>Node10&#45;&gt;Node5</title>
<g id="a_edge14_Node000010_Node000005"><a xlink:title=" ">
<path fill="none" stroke="#63b8ff" d="M1005.28,-111.59C994.61,-103.7 979.12,-92.24 966.52,-82.92"/>
<polygon fill="#63b8ff" stroke="#63b8ff" points="968.91,-80.33 958.79,-77.2 964.74,-85.96 968.91,-80.33"/>
</a>
</g>
</g>
<!-- Node11 -->
<g id="Node000011" class="node">
<title>Node11</title>
<g id="a_Node000011"><a xlink:title=" ">
<polygon fill="#e0e0e0" stroke="#999999" points="766,-76 726,-76 726,-56 766,-56 766,-76"/>
<text text-anchor="middle" x="746" y="-62.5" font-family="Helvetica,sans-Serif" font-size="10.00">string</text>
</a>
</g>
</g>
<!-- Node10&#45;&gt;Node11 -->
<g id="edge12_Node000010_Node000011" class="edge">
<title>Node10&#45;&gt;Node11</title>
<g id="a_edge12_Node000010_Node000011"><a xlink:title=" ">
<path fill="none" stroke="#63b8ff" d="M991.42,-115.72C940.97,-105.71 831.52,-83.98 777.48,-73.25"/>
<polygon fill="#63b8ff" stroke="#63b8ff" points="778.2,-69.82 767.71,-71.31 776.84,-76.69 778.2,-69.82"/>
</a>
</g>
</g>
<!-- Node12 -->
<g id="Node000012" class="node">
<title>Node12</title>
<g id="a_Node000012"><a xlink:title=" ">
<polygon fill="#e0e0e0" stroke="#999999" points="1049.38,-76 1014.62,-76 1014.62,-56 1049.38,-56 1049.38,-76"/>
<text text-anchor="middle" x="1032" y="-62.5" font-family="Helvetica,sans-Serif" font-size="10.00">map</text>
</a>
</g>
</g>
<!-- Node10&#45;&gt;Node12 -->
<g id="edge13_Node000010_Node000012" class="edge">
<title>Node10&#45;&gt;Node12</title>
<g id="a_edge13_Node000010_Node000012"><a xlink:title=" ">
<path fill="none" stroke="#63b8ff" d="M1020.44,-111.59C1022.17,-104.93 1024.55,-95.75 1026.7,-87.44"/>
<polygon fill="#63b8ff" stroke="#63b8ff" points="1030.09,-88.32 1029.21,-77.76 1023.31,-86.56 1030.09,-88.32"/>
</a>
</g>
</g>
<!-- Node13&#45;&gt;Node5 -->
<g id="edge19_Node000013_Node000005" class="edge">
<title>Node13&#45;&gt;Node5</title>
<g id="a_edge19_Node000013_Node000005"><a xlink:title=" ">
<path fill="none" stroke="#63b8ff" d="M779.94,-167.79C789.28,-153.94 808.66,-127.73 831,-112 855.82,-94.53 888.38,-82.55 912.34,-75.38"/>
<polygon fill="#63b8ff" stroke="#63b8ff" points="913.24,-78.76 921.89,-72.65 911.31,-72.03 913.24,-78.76"/>
</a>
</g>
</g>
<!-- Node13&#45;&gt;Node7 -->
<g id="edge20_Node000013_Node000007" class="edge">
<title>Node13&#45;&gt;Node7</title>
<g id="a_edge20_Node000013_Node000007"><a xlink:title=" ">
<path fill="none" stroke="#63b8ff" d="M748.29,-167.57C709.2,-153.57 632.25,-127.29 565,-112 469.91,-90.38 355.79,-76.84 297.1,-70.76"/>
<polygon fill="#63b8ff" stroke="#63b8ff" points="297.59,-67.29 287.29,-69.76 296.89,-74.25 297.59,-67.29"/>
</a>
</g>
</g>
<!-- Node13&#45;&gt;Node11 -->
<g id="edge17_Node000013_Node000011" class="edge">
<title>Node13&#45;&gt;Node11</title>
<g id="a_edge17_Node000013_Node000011"><a xlink:title=" ">
<path fill="none" stroke="#63b8ff" d="M771.61,-167.62C767.11,-149.92 757.26,-111.24 751.17,-87.32"/>
<polygon fill="#63b8ff" stroke="#63b8ff" points="754.61,-86.65 748.75,-77.82 747.83,-88.38 754.61,-86.65"/>
</a>
</g>
</g>
<!-- Node13&#45;&gt;Node14 -->
<g id="edge16_Node000013_Node000014" class="edge">
<title>Node13&#45;&gt;Node14</title>
<g id="a_edge16_Node000013_Node000014"><a xlink:title=" ">
<path fill="none" stroke="#63b8ff" d="M790.55,-167.59C804.9,-159.44 825.93,-147.48 842.6,-138"/>
<polygon fill="#63b8ff" stroke="#63b8ff" points="844.04,-141.21 851.01,-133.23 840.58,-135.13 844.04,-141.21"/>
</a>
</g>
</g>
<!-- Node15 -->
<g id="Node000015" class="node">
<title>Node15</title>
<g id="a_Node000015"><a xlink:title=" ">
<polygon fill="#e0e0e0" stroke="#999999" points="555.88,-132 506.12,-132 506.12,-112 555.88,-112 555.88,-132"/>
<text text-anchor="middle" x="531" y="-118.5" font-family="Helvetica,sans-Serif" font-size="10.00">optional</text>
</a>
</g>
</g>
<!-- Node13&#45;&gt;Node15 -->
<g id="edge18_Node000013_Node000015" class="edge">
<title>Node13&#45;&gt;Node15</title>
<g id="a_edge18_Node000013_Node000015"><a xlink:title=" ">
<path fill="none" stroke="#63b8ff" d="M744.69,-170.49C700.26,-160.61 615.93,-141.87 567.55,-131.12"/>
<polygon fill="#63b8ff" stroke="#63b8ff" points="568.36,-127.72 557.84,-128.96 566.84,-134.55 568.36,-127.72"/>
</a>
</g>
</g>
<!-- Node16 -->
<g id="Node000016" class="node">
<title>Node16</title>
<g id="a_Node000016"><a xlink:href="Helpers_8h.html" target="_top" xlink:title=" ">
<polygon fill="white" stroke="#666666" points="746,-132 688,-132 688,-112 746,-112 746,-132"/>
<text text-anchor="middle" x="717" y="-118.5" font-family="Helvetica,sans-Serif" font-size="10.00">Helpers.h</text>
</a>
</g>
</g>
<!-- Node13&#45;&gt;Node16 -->
<g id="edge21_Node000013_Node000016" class="edge">
<title>Node13&#45;&gt;Node16</title>
<g id="a_edge21_Node000013_Node000016"><a xlink:title=" ">
<path fill="none" stroke="#63b8ff" d="M764.07,-167.59C756.06,-160.01 744.58,-149.13 734.97,-140.02"/>
<polygon fill="#63b8ff" stroke="#63b8ff" points="737.58,-137.68 727.91,-133.34 732.77,-142.76 737.58,-137.68"/>
</a>
</g>
</g>
<!-- Node16&#45;&gt;Node5 -->
<g id="edge24_Node000016_Node000005" class="edge">
<title>Node16&#45;&gt;Node5</title>
<g id="a_edge24_Node000016_Node000005"><a xlink:title=" ">
<path fill="none" stroke="#63b8ff" d="M746.34,-114.05C788.96,-103.96 867.73,-85.3 912.21,-74.77"/>
<polygon fill="#63b8ff" stroke="#63b8ff" points="912.87,-78.21 921.79,-72.5 911.25,-71.4 912.87,-78.21"/>
</a>
</g>
</g>
<!-- Node16&#45;&gt;Node7 -->
<g id="edge22_Node000016_Node000007" class="edge">
<title>Node16&#45;&gt;Node7</title>
<g id="a_edge22_Node000016_Node000007"><a xlink:title=" ">
<path fill="none" stroke="#63b8ff" d="M687.59,-117.54C607.87,-108.16 387.59,-82.25 297.34,-71.63"/>
<polygon fill="#63b8ff" stroke="#63b8ff" points="297.84,-68.16 287.5,-70.47 297.02,-75.11 297.84,-68.16"/>
</a>
</g>
</g>
<!-- Node16&#45;&gt;Node11 -->
<g id="edge23_Node000016_Node000011" class="edge">
<title>Node16&#45;&gt;Node11</title>
<g id="a_edge23_Node000016_Node000011"><a xlink:title=" ">
<path fill="none" stroke="#63b8ff" d="M722.05,-111.59C725.79,-104.63 731.02,-94.89 735.64,-86.29"/>
<polygon fill="#63b8ff" stroke="#63b8ff" points="738.64,-88.1 740.29,-77.63 732.48,-84.79 738.64,-88.1"/>
</a>
</g>
</g>
<!-- Node17&#45;&gt;Node11 -->
<g id="edge37_Node000017_Node000011" class="edge">
<title>Node17&#45;&gt;Node11</title>
<g id="a_edge37_Node000017_Node000011"><a xlink:title=" ">
<path fill="none" stroke="#63b8ff" d="M640.2,-335.57C634.3,-301.92 618.62,-185.85 667,-112 678.14,-95 698.07,-83.71 715.12,-76.7"/>
<polygon fill="#63b8ff" stroke="#63b8ff" points="716.24,-80.01 724.37,-73.22 713.78,-73.46 716.24,-80.01"/>
</a>
</g>
</g>
<!-- Node18 -->
<g id="Node000018" class="node">
<title>Node18</title>
<g id="a_Node000018"><a xlink:href="MovingObject_8h.html" target="_top" xlink:title="Base class for all moving objects.">
<polygon fill="white" stroke="#666666" points="447.12,-300 362.88,-300 362.88,-280 447.12,-280 447.12,-300"/>
<text text-anchor="middle" x="405" y="-286.5" font-family="Helvetica,sans-Serif" font-size="10.00">MovingObject.h</text>
</a>
</g>
</g>
<!-- Node17&#45;&gt;Node18 -->
<g id="edge26_Node000017_Node000018" class="edge">
<title>Node17&#45;&gt;Node18</title>
<g id="a_edge26_Node000017_Node000018"><a xlink:title=" ">
<path fill="none" stroke="#63b8ff" d="M616.03,-338.22C612.99,-337.46 609.93,-336.7 607,-336 556.7,-323.93 499.09,-311.21 458.3,-302.38"/>
<polygon fill="#63b8ff" stroke="#63b8ff" points="459.26,-299 448.74,-300.32 457.78,-305.85 459.26,-299"/>
</a>
</g>
</g>
<!-- Node17&#45;&gt;Node19 -->
<g id="edge36_Node000017_Node000019" class="edge">
<title>Node17&#45;&gt;Node19</title>
<g id="a_edge36_Node000017_Node000019"><a xlink:title=" ">
<path fill="none" stroke="#63b8ff" d="M645.84,-335.62C653.11,-317.84 669.05,-278.88 678.82,-255"/>
<polygon fill="#63b8ff" stroke="#63b8ff" points="682.05,-256.34 682.6,-245.76 675.57,-253.69 682.05,-256.34"/>
</a>
</g>
</g>
<!-- Node18&#45;&gt;Node4 -->
<g id="edge29_Node000018_Node000004" class="edge">
<title>Node18&#45;&gt;Node4</title>
<g id="a_edge29_Node000018_Node000004"><a xlink:title=" ">
<path fill="none" stroke="#63b8ff" d="M410.29,-279.62C420.4,-261.68 442.67,-222.17 456.1,-198.35"/>
<polygon fill="#63b8ff" stroke="#63b8ff" points="459.12,-200.1 460.98,-189.67 453.02,-196.67 459.12,-200.1"/>
</a>
</g>
</g>
<!-- Node18&#45;&gt;Node6 -->
<g id="edge27_Node000018_Node000006" class="edge">
<title>Node18&#45;&gt;Node6</title>
<g id="a_edge27_Node000018_Node000006"><a xlink:title=" ">
<path fill="none" stroke="#63b8ff" d="M379.39,-279.59C355.93,-270.97 320.93,-258.12 294.53,-248.42"/>
<polygon fill="#63b8ff" stroke="#63b8ff" points="295.82,-245.16 285.23,-245 293.41,-251.73 295.82,-245.16"/>
</a>
</g>
</g>
<!-- Node18&#45;&gt;Node7 -->
<g id="edge28_Node000018_Node000007" class="edge">
<title>Node18&#45;&gt;Node7</title>
<g id="a_edge28_Node000018_Node000007"><a xlink:title=" ">
<path fill="none" stroke="#63b8ff" d="M398.87,-279.74C376.74,-246.32 300.66,-131.42 270.48,-85.84"/>
<polygon fill="#63b8ff" stroke="#63b8ff" points="273.43,-83.96 264.99,-77.56 267.59,-87.83 273.43,-83.96"/>
</a>
</g>
</g>
<!-- Node18&#45;&gt;Node9 -->
<g id="edge35_Node000018_Node000009" class="edge">
<title>Node18&#45;&gt;Node9</title>
<g id="a_edge35_Node000018_Node000009"><a xlink:title=" ">
<path fill="none" stroke="#63b8ff" d="M362.42,-284.16C311.91,-277.6 231.81,-264.3 210,-244 197.83,-232.68 193,-214.15 191.11,-199.77"/>
<polygon fill="#63b8ff" stroke="#63b8ff" points="194.62,-199.64 190.24,-189.99 187.64,-200.26 194.62,-199.64"/>
</a>
</g>
</g>
<!-- Node18&#45;&gt;Node15 -->
<g id="edge30_Node000018_Node000015" class="edge">
<title>Node18&#45;&gt;Node15</title>
<g id="a_edge30_Node000018_Node000015"><a xlink:title=" ">
<path fill="none" stroke="#63b8ff" d="M404.44,-279.63C403.63,-257.58 404.6,-201.76 432,-168 447.73,-148.62 473.63,-137.25 494.99,-130.79"/>
<polygon fill="#63b8ff" stroke="#63b8ff" points="495.81,-134.2 504.52,-128.17 493.95,-127.45 495.81,-134.2"/>
</a>
</g>
</g>
<!-- Node18&#45;&gt;Node19 -->
<g id="edge31_Node000018_Node000019" class="edge">
<title>Node18&#45;&gt;Node19</title>
<g id="a_edge31_Node000018_Node000019"><a xlink:title=" ">
<path fill="none" stroke="#63b8ff" d="M447.52,-280.86C504.05,-270.03 602.76,-251.13 654.01,-241.32"/>
<polygon fill="#63b8ff" stroke="#63b8ff" points="654.43,-244.8 663.59,-239.48 653.11,-237.93 654.43,-244.8"/>
</a>
</g>
</g>
<!-- Node19&#45;&gt;Node5 -->
<g id="edge33_Node000019_Node000005" class="edge">
<title>Node19&#45;&gt;Node5</title>
<g id="a_edge33_Node000019_Node000005"><a xlink:title=" ">
<path fill="none" stroke="#63b8ff" d="M708.67,-228.42C751.79,-218.27 849.16,-190.05 907,-132 919.97,-118.98 930.16,-100.65 936.71,-86.77"/>
<polygon fill="#63b8ff" stroke="#63b8ff" points="939.85,-88.32 940.72,-77.76 933.45,-85.47 939.85,-88.32"/>
</a>
</g>
</g>
<!-- Node19&#45;&gt;Node11 -->
<g id="edge32_Node000019_Node000011" class="edge">
<title>Node19&#45;&gt;Node11</title>
<g id="a_edge32_Node000019_Node000011"><a xlink:title=" ">
<path fill="none" stroke="#63b8ff" d="M683.29,-223.82C675.38,-202.64 659.1,-149.34 679,-112 686.83,-97.32 701.8,-86.57 715.62,-79.28"/>
<polygon fill="#63b8ff" stroke="#63b8ff" points="716.97,-82.51 724.45,-75.01 713.93,-76.21 716.97,-82.51"/>
</a>
</g>
</g>
<!-- Node19&#45;&gt;Node13 -->
<g id="edge34_Node000019_Node000013" class="edge">
<title>Node19&#45;&gt;Node13</title>
<g id="a_edge34_Node000019_Node000013"><a xlink:title=" ">
<path fill="none" stroke="#63b8ff" d="M702.15,-223.59C715.05,-215.59 733.83,-203.93 748.96,-194.54"/>
<polygon fill="#63b8ff" stroke="#63b8ff" points="750.79,-197.53 757.44,-189.28 747.1,-191.58 750.79,-197.53"/>
</a>
</g>
</g>
<!-- Node20&#45;&gt;Node4 -->
<g id="edge45_Node000020_Node000004" class="edge">
<title>Node20&#45;&gt;Node4</title>
<g id="a_edge45_Node000020_Node000004"><a xlink:title=" ">
<path fill="none" stroke="#63b8ff" d="M571.46,-396.52C548.32,-391.07 515.16,-379.5 497,-356 461.02,-309.44 461.79,-235.27 464.68,-199.55"/>
<polygon fill="#63b8ff" stroke="#63b8ff" points="468.15,-200.05 465.63,-189.76 461.18,-199.38 468.15,-200.05"/>
</a>
</g>
</g>
<!-- Node20&#45;&gt;Node17 -->
<g id="edge46_Node000020_Node000017" class="edge">
<title>Node20&#45;&gt;Node17</title>
<g id="a_edge46_Node000020_Node000017"><a xlink:title=" ">
<path fill="none" stroke="#63b8ff" d="M604.84,-391.59C610.97,-384.24 619.67,-373.8 627.11,-364.87"/>
<polygon fill="#63b8ff" stroke="#63b8ff" points="629.57,-367.38 633.28,-357.46 624.19,-362.9 629.57,-367.38"/>
</a>
</g>
</g>
<!-- Node20&#45;&gt;Node18 -->
<g id="edge39_Node000020_Node000018" class="edge">
<title>Node20&#45;&gt;Node18</title>
<g id="a_edge39_Node000020_Node000018"><a xlink:title=" ">
<path fill="none" stroke="#63b8ff" d="M571.28,-396.34C543.17,-390.36 497.64,-378.04 464,-356 445.15,-343.65 428.39,-323.88 417.6,-309.38"/>
<polygon fill="#63b8ff" stroke="#63b8ff" points="420.67,-307.67 412,-301.57 414.98,-311.74 420.67,-307.67"/>
</a>
</g>
</g>
<!-- Node20&#45;&gt;Node19 -->
<g id="edge47_Node000020_Node000019" class="edge">
<title>Node20&#45;&gt;Node19</title>
<g id="a_edge47_Node000020_Node000019"><a xlink:title=" ">
<path fill="none" stroke="#63b8ff" d="M622.42,-393.79C640.85,-387.14 664.61,-375.31 677,-356 696.57,-325.49 694.36,-281.38 690.8,-255.7"/>
<polygon fill="#63b8ff" stroke="#63b8ff" points="694.27,-255.23 689.22,-245.91 687.36,-256.34 694.27,-255.23"/>
</a>
</g>
</g>
<!-- Node21 -->
<g id="Node000021" class="node">
<title>Node21</title>
<g id="a_Node000021"><a xlink:href="EnemyBehavior_8h.html" target="_top" xlink:title="Base class for all enemy behaviors.">
<polygon fill="white" stroke="#666666" points="598.25,-356 505.75,-356 505.75,-336 598.25,-336 598.25,-356"/>
<text text-anchor="middle" x="552" y="-342.5" font-family="Helvetica,sans-Serif" font-size="10.00">EnemyBehavior.h</text>
</a>
</g>
</g>
<!-- Node20&#45;&gt;Node21 -->
<g id="edge40_Node000020_Node000021" class="edge">
<title>Node20&#45;&gt;Node21</title>
<g id="a_edge40_Node000020_Node000021"><a xlink:title=" ">
<path fill="none" stroke="#63b8ff" d="M589.16,-391.59C583.03,-384.24 574.33,-373.8 566.89,-364.87"/>
<polygon fill="#63b8ff" stroke="#63b8ff" points="569.81,-362.9 560.72,-357.46 564.43,-367.38 569.81,-362.9"/>
</a>
</g>
</g>
<!-- Node21&#45;&gt;Node4 -->
<g id="edge43_Node000021_Node000004" class="edge">
<title>Node21&#45;&gt;Node4</title>
<g id="a_edge43_Node000021_Node000004"><a xlink:title=" ">
<path fill="none" stroke="#63b8ff" d="M547.48,-335.51C537.68,-315.01 513.59,-265.1 492,-224 487.49,-215.41 482.3,-206 477.83,-198.02"/>
<polygon fill="#63b8ff" stroke="#63b8ff" points="481.01,-196.54 473.04,-189.56 474.91,-199.98 481.01,-196.54"/>
</a>
</g>
</g>
<!-- Node21&#45;&gt;Node7 -->
<g id="edge42_Node000021_Node000007" class="edge">
<title>Node21&#45;&gt;Node7</title>
<g id="a_edge42_Node000021_Node000007"><a xlink:title=" ">
<path fill="none" stroke="#63b8ff" d="M552.16,-335.51C552.13,-306.43 548.08,-217.59 502,-168 446.47,-108.24 350.25,-82.76 296.73,-72.77"/>
<polygon fill="#63b8ff" stroke="#63b8ff" points="297.62,-69.38 287.17,-71.08 296.4,-76.27 297.62,-69.38"/>
</a>
</g>
</g>
<!-- Node21&#45;&gt;Node18 -->
<g id="edge44_Node000021_Node000018" class="edge">
<title>Node21&#45;&gt;Node18</title>
<g id="a_edge44_Node000021_Node000018"><a xlink:title=" ">
<path fill="none" stroke="#63b8ff" d="M526.39,-335.59C502.93,-326.97 467.93,-314.12 441.53,-304.42"/>
<polygon fill="#63b8ff" stroke="#63b8ff" points="442.82,-301.16 432.23,-301 440.41,-307.73 442.82,-301.16"/>
</a>
</g>
</g>
<!-- Node21&#45;&gt;Node19 -->
<g id="edge41_Node000021_Node000019" class="edge">
<title>Node21&#45;&gt;Node19</title>
<g id="a_edge41_Node000021_Node000019"><a xlink:title=" ">
<path fill="none" stroke="#63b8ff" d="M563.51,-335.62C586.42,-316.95 638.01,-274.92 666.73,-251.52"/>
<polygon fill="#63b8ff" stroke="#63b8ff" points="668.8,-254.34 674.35,-245.31 664.38,-248.91 668.8,-254.34"/>
</a>
</g>
</g>
<!-- Node22&#45;&gt;Node5 -->
<g id="edge50_Node000022_Node000005" class="edge">
<title>Node22&#45;&gt;Node5</title>
<g id="a_edge50_Node000022_Node000005"><a xlink:title=" ">
<path fill="none" stroke="#63b8ff" d="M1073.83,-111.59C1047.01,-102.31 1005.99,-88.11 977.47,-78.24"/>
<polygon fill="#63b8ff" stroke="#63b8ff" points="978.86,-75.02 968.27,-75.05 976.57,-81.63 978.86,-75.02"/>
</a>
</g>
</g>
<!-- Node22&#45;&gt;Node11 -->
<g id="edge51_Node000022_Node000011" class="edge">
<title>Node22&#45;&gt;Node11</title>
<g id="a_edge51_Node000022_Node000011"><a xlink:title=" ">
<path fill="none" stroke="#63b8ff" d="M1061.99,-113.55C1058.95,-113.01 1055.93,-112.49 1053,-112 952.51,-95.22 832.95,-78.67 777.33,-71.17"/>
<polygon fill="#63b8ff" stroke="#63b8ff" points="778.04,-67.74 767.66,-69.87 777.1,-74.67 778.04,-67.74"/>
</a>
</g>
</g>
<!-- Node22&#45;&gt;Node12 -->
<g id="edge52_Node000022_Node000012" class="edge">
<title>Node22&#45;&gt;Node12</title>
<g id="a_edge52_Node000022_Node000012"><a xlink:title=" ">
<path fill="none" stroke="#63b8ff" d="M1088.98,-111.59C1078.99,-103.77 1064.54,-92.46 1052.69,-83.19"/>
<polygon fill="#63b8ff" stroke="#63b8ff" points="1055.11,-80.64 1045.07,-77.23 1050.79,-86.15 1055.11,-80.64"/>
</a>
</g>
</g>
<!-- Node23 -->
<g id="Node000023" class="node">
<title>Node23</title>
<g id="a_Node000023"><a xlink:title=" ">
<polygon fill="#e0e0e0" stroke="#999999" points="1123.62,-76 1078.38,-76 1078.38,-56 1123.62,-56 1123.62,-76"/>
<text text-anchor="middle" x="1101" y="-62.5" font-family="Helvetica,sans-Serif" font-size="10.00">cstdint</text>
</a>
</g>
</g>
<!-- Node22&#45;&gt;Node23 -->
<g id="edge53_Node000022_Node000023" class="edge">
<title>Node22&#45;&gt;Node23</title>
<g id="a_edge53_Node000022_Node000023"><a xlink:title=" ">
<path fill="none" stroke="#63b8ff" d="M1101,-111.59C1101,-105.01 1101,-95.96 1101,-87.73"/>
<polygon fill="#63b8ff" stroke="#63b8ff" points="1104.5,-87.81 1101,-77.81 1097.5,-87.81 1104.5,-87.81"/>
</a>
</g>
</g>
<!-- Node24&#45;&gt;Node4 -->
<g id="edge57_Node000024_Node000004" class="edge">
<title>Node24&#45;&gt;Node4</title>
<g id="a_edge57_Node000024_Node000004"><a xlink:title=" ">
<path fill="none" stroke="#63b8ff" d="M326.27,-391.81C327.25,-370.62 331.93,-317.3 354,-280 375.89,-243.02 415.84,-212.12 441.9,-194.59"/>
<polygon fill="#63b8ff" stroke="#63b8ff" points="443.75,-197.56 450.2,-189.16 439.91,-191.7 443.75,-197.56"/>
</a>
</g>
</g>
<!-- Node24&#45;&gt;Node6 -->
<g id="edge55_Node000024_Node000006" class="edge">
<title>Node24&#45;&gt;Node6</title>
<g id="a_edge55_Node000024_Node000006"><a xlink:title=" ">
<path fill="none" stroke="#63b8ff" d="M322.15,-391.6C311.4,-365.35 280.87,-290.84 266.15,-254.89"/>
<polygon fill="#63b8ff" stroke="#63b8ff" points="269.41,-253.62 262.38,-245.7 262.93,-256.28 269.41,-253.62"/>
</a>
</g>
</g>
<!-- Node24&#45;&gt;Node7 -->
<g id="edge56_Node000024_Node000007" class="edge">
<title>Node24&#45;&gt;Node7</title>
<g id="a_edge56_Node000024_Node000007"><a xlink:title=" ">
<path fill="none" stroke="#63b8ff" d="M276.91,-391.53C204.1,-374.32 76,-330.47 76,-235 76,-235 76,-235 76,-177 76,-110.62 165.78,-83.22 219.23,-72.79"/>
<polygon fill="#63b8ff" stroke="#63b8ff" points="219.66,-76.27 228.87,-71.03 218.4,-69.38 219.66,-76.27"/>
</a>
</g>
</g>
<!-- Node24&#45;&gt;Node9 -->
<g id="edge60_Node000024_Node000009" class="edge">
<title>Node24&#45;&gt;Node9</title>
<g id="a_edge60_Node000024_Node000009"><a xlink:title=" ">
<path fill="none" stroke="#63b8ff" d="M313.86,-391.63C286.28,-369.5 219.26,-310.83 193,-244 187.43,-229.82 186.89,-212.53 187.64,-199.36"/>
<polygon fill="#63b8ff" stroke="#63b8ff" points="191.09,-199.99 188.48,-189.72 184.12,-199.38 191.09,-199.99"/>
</a>
</g>
</g>
<!-- Node24&#45;&gt;Node17 -->
<g id="edge59_Node000024_Node000017" class="edge">
<title>Node24&#45;&gt;Node17</title>
<g id="a_edge59_Node000024_Node000017"><a xlink:title=" ">
<path fill="none" stroke="#63b8ff" d="M375.75,-394.46C429.8,-387.03 518.9,-373.88 605.04,-356.24"/>
<polygon fill="#63b8ff" stroke="#63b8ff" points="605.51,-359.72 614.59,-354.26 604.08,-352.86 605.51,-359.72"/>
</a>
</g>
</g>
<!-- Node24&#45;&gt;Node18 -->
<g id="edge58_Node000024_Node000018" class="edge">
<title>Node24&#45;&gt;Node18</title>
<g id="a_edge58_Node000024_Node000018"><a xlink:title=" ">
<path fill="none" stroke="#63b8ff" d="M332.74,-391.62C345.74,-373.52 374.51,-333.45 391.57,-309.7"/>
<polygon fill="#63b8ff" stroke="#63b8ff" points="394.41,-311.75 397.4,-301.58 388.72,-307.66 394.41,-311.75"/>
</a>
</g>
</g>
</g>
</svg>
