<?xml version="1.0" encoding="UTF-8" standalone="no"?>
<!DOCTYPE svg PUBLIC "-//W3C//DTD SVG 1.1//EN"
 "http://www.w3.org/Graphics/SVG/1.1/DTD/svg11.dtd">
<!-- Generated by graphviz version 10.0.1 (0)
 -->
<!-- Title: src/GameObject.h Pages: 1 -->
<svg width="178pt" height="196pt"
 viewBox="0.00 0.00 178.12 196.00" xmlns="http://www.w3.org/2000/svg" xmlns:xlink="http://www.w3.org/1999/xlink">
<g id="graph0" class="graph" transform="scale(1 1) rotate(0) translate(4 192)">
<title>src/GameObject.h</title>
<!-- Node1 -->
<g id="Node000001" class="node">
<title>Node1</title>
<g id="a_Node000001"><a xlink:title="Base class for all game objects.">
<polygon fill="#999999" stroke="#666666" points="109.25,-188 13.75,-188 13.75,-168 109.25,-168 109.25,-188"/>
<text text-anchor="middle" x="61.5" y="-174.5" font-family="Helvetica,sans-Serif" font-size="10.00">src/GameObject.h</text>
</a>
</g>
</g>
<!-- Node2 -->
<g id="Node000002" class="node">
<title>Node2</title>
<g id="a_Node000002"><a xlink:href="Enums_8h.html" target="_top" xlink:title=" ">
<polygon fill="white" stroke="#666666" points="55,-76 0,-76 0,-56 55,-56 55,-76"/>
<text text-anchor="middle" x="27.5" y="-62.5" font-family="Helvetica,sans-Serif" font-size="10.00">Enums.h</text>
</a>
</g>
</g>
<!-- Node1&#45;&gt;Node2 -->
<g id="edge1_Node000001_Node000002" class="edge">
<title>Node1&#45;&gt;Node2</title>
<g id="a_edge1_Node000001_Node000002"><a xlink:title=" ">
<path fill="none" stroke="#63b8ff" d="M46.2,-167.69C34.81,-159.79 20.13,-147.3 13.5,-132 7.18,-117.42 11.71,-99.72 17.24,-86.48"/>
<polygon fill="#63b8ff" stroke="#63b8ff" points="20.36,-88.08 21.47,-77.54 14.03,-85.08 20.36,-88.08"/>
</a>
</g>
</g>
<!-- Node4 -->
<g id="Node000004" class="node">
<title>Node4</title>
<g id="a_Node000004"><a xlink:href="GamePhase_8h.html" target="_top" xlink:title="Handles the game phase and level.">
<polygon fill="white" stroke="#666666" points="100.62,-132 22.38,-132 22.38,-112 100.62,-112 100.62,-132"/>
<text text-anchor="middle" x="61.5" y="-118.5" font-family="Helvetica,sans-Serif" font-size="10.00">GamePhase.h</text>
</a>
</g>
</g>
<!-- Node1&#45;&gt;Node4 -->
<g id="edge3_Node000001_Node000004" class="edge">
<title>Node1&#45;&gt;Node4</title>
<g id="a_edge3_Node000001_Node000004"><a xlink:title=" ">
<path fill="none" stroke="#63b8ff" d="M61.5,-167.59C61.5,-161.01 61.5,-151.96 61.5,-143.73"/>
<polygon fill="#63b8ff" stroke="#63b8ff" points="65,-143.81 61.5,-133.81 58,-143.81 65,-143.81"/>
</a>
</g>
</g>
<!-- Node5 -->
<g id="Node000005" class="node">
<title>Node5</title>
<g id="a_Node000005"><a xlink:title=" ">
<polygon fill="#e0e0e0" stroke="#999999" points="170.12,-132 118.88,-132 118.88,-112 170.12,-112 170.12,-132"/>
<text text-anchor="middle" x="144.5" y="-118.5" font-family="Helvetica,sans-Serif" font-size="10.00">memory</text>
</a>
</g>
</g>
<!-- Node1&#45;&gt;Node5 -->
<g id="edge5_Node000001_Node000005" class="edge">
<title>Node1&#45;&gt;Node5</title>
<g id="a_edge5_Node000001_Node000005"><a xlink:title=" ">
<path fill="none" stroke="#63b8ff" d="M75.96,-167.59C88.26,-159.59 106.18,-147.93 120.61,-138.54"/>
<polygon fill="#63b8ff" stroke="#63b8ff" points="122.19,-141.69 128.66,-133.3 118.37,-135.82 122.19,-141.69"/>
</a>
</g>
</g>
<!-- Node3 -->
<g id="Node000003" class="node">
<title>Node3</title>
<g id="a_Node000003"><a xlink:title=" ">
<polygon fill="#e0e0e0" stroke="#999999" points="47.12,-20 7.88,-20 7.88,0 47.12,0 47.12,-20"/>
<text text-anchor="middle" x="27.5" y="-6.5" font-family="Helvetica,sans-Serif" font-size="10.00">utility</text>
</a>
</g>
</g>
<!-- Node2&#45;&gt;Node3 -->
<g id="edge2_Node000002_Node000003" class="edge">
<title>Node2&#45;&gt;Node3</title>
<g id="a_edge2_Node000002_Node000003"><a xlink:title=" ">
<path fill="none" stroke="#63b8ff" d="M27.5,-55.59C27.5,-49.01 27.5,-39.96 27.5,-31.73"/>
<polygon fill="#63b8ff" stroke="#63b8ff" points="31,-31.81 27.5,-21.81 24,-31.81 31,-31.81"/>
</a>
</g>
</g>
<!-- Node4&#45;&gt;Node2 -->
<g id="edge4_Node000004_Node000002" class="edge">
<title>Node4&#45;&gt;Node2</title>
<g id="a_edge4_Node000004_Node000002"><a xlink:title=" ">
<path fill="none" stroke="#63b8ff" d="M55.58,-111.59C51.14,-104.55 44.92,-94.67 39.46,-86"/>
<polygon fill="#63b8ff" stroke="#63b8ff" points="42.45,-84.18 34.16,-77.58 36.53,-87.91 42.45,-84.18"/>
</a>
</g>
</g>
</g>
</svg>
