<?xml version="1.0" encoding="UTF-8" standalone="no"?>
<!DOCTYPE svg PUBLIC "-//W3C//DTD SVG 1.1//EN"
 "http://www.w3.org/Graphics/SVG/1.1/DTD/svg11.dtd">
<!-- Generated by graphviz version 10.0.1 (0)
 -->
<!-- Title: src/GameManager.h Pages: 1 -->
<svg width="1152pt" height="532pt"
 viewBox="0.00 0.00 1151.75 532.00" xmlns="http://www.w3.org/2000/svg" xmlns:xlink="http://www.w3.org/1999/xlink">
<g id="graph0" class="graph" transform="scale(1 1) rotate(0) translate(4 528)">
<title>src/GameManager.h</title>
<!-- Node1 -->
<g id="Node000001" class="node">
<title>Node1</title>
<g id="a_Node000001"><a xlink:title="Handles the game loop and game states.">
<polygon fill="#999999" stroke="#666666" points="647.88,-524 544.12,-524 544.12,-504 647.88,-504 647.88,-524"/>
<text text-anchor="middle" x="596" y="-510.5" font-family="Helvetica,sans-Serif" font-size="10.00">src/GameManager.h</text>
</a>
</g>
</g>
<!-- Node2 -->
<g id="Node000002" class="node">
<title>Node2</title>
<g id="a_Node000002"><a xlink:href="Game_8h.html" target="_top" xlink:title="Class for handling the game logic.">
<polygon fill="white" stroke="#666666" points="621.25,-468 570.75,-468 570.75,-448 621.25,-448 621.25,-468"/>
<text text-anchor="middle" x="596" y="-454.5" font-family="Helvetica,sans-Serif" font-size="10.00">Game.h</text>
</a>
</g>
</g>
<!-- Node1&#45;&gt;Node2 -->
<g id="edge1_Node000001_Node000002" class="edge">
<title>Node1&#45;&gt;Node2</title>
<g id="a_edge1_Node000001_Node000002"><a xlink:title=" ">
<path fill="none" stroke="#63b8ff" d="M596,-503.59C596,-497.01 596,-487.96 596,-479.73"/>
<polygon fill="#63b8ff" stroke="#63b8ff" points="599.5,-479.81 596,-469.81 592.5,-479.81 599.5,-479.81"/>
</a>
</g>
</g>
<!-- Node6 -->
<g id="Node000006" class="node">
<title>Node6</title>
<g id="a_Node000006"><a xlink:href="Enums_8h.html" target="_top" xlink:title=" ">
<polygon fill="white" stroke="#666666" points="402.5,-76 347.5,-76 347.5,-56 402.5,-56 402.5,-76"/>
<text text-anchor="middle" x="375" y="-62.5" font-family="Helvetica,sans-Serif" font-size="10.00">Enums.h</text>
</a>
</g>
</g>
<!-- Node1&#45;&gt;Node6 -->
<g id="edge62_Node000001_Node000006" class="edge">
<title>Node1&#45;&gt;Node6</title>
<g id="a_edge62_Node000001_Node000006"><a xlink:title=" ">
<path fill="none" stroke="#63b8ff" d="M543.63,-508.84C398.2,-496.6 0,-458.04 0,-403 0,-403 0,-403 0,-177 0,-107.55 239.79,-78.83 335.88,-70.11"/>
<polygon fill="#63b8ff" stroke="#63b8ff" points="335.96,-73.62 345.61,-69.26 335.34,-66.65 335.96,-73.62"/>
</a>
</g>
</g>
<!-- Node12 -->
<g id="Node000012" class="node">
<title>Node12</title>
<g id="a_Node000012"><a xlink:href="Window_8h.html" target="_top" xlink:title="Class for handling ncurses windows.">
<polygon fill="white" stroke="#666666" points="807,-188 749,-188 749,-168 807,-168 807,-188"/>
<text text-anchor="middle" x="778" y="-174.5" font-family="Helvetica,sans-Serif" font-size="10.00">Window.h</text>
</a>
</g>
</g>
<!-- Node1&#45;&gt;Node12 -->
<g id="edge61_Node000001_Node000012" class="edge">
<title>Node1&#45;&gt;Node12</title>
<g id="a_edge61_Node000001_Node000012"><a xlink:title=" ">
<path fill="none" stroke="#63b8ff" d="M648.01,-512.15C773.39,-508.7 1082,-491.24 1082,-403 1082,-403 1082,-403 1082,-345 1082,-226.38 901.5,-192 818.67,-182.47"/>
<polygon fill="#63b8ff" stroke="#63b8ff" points="819.25,-179.01 808.93,-181.43 818.5,-185.97 819.25,-179.01"/>
</a>
</g>
</g>
<!-- Node3 -->
<g id="Node000003" class="node">
<title>Node3</title>
<g id="a_Node000003"><a xlink:title=" ">
<polygon fill="#e0e0e0" stroke="#999999" points="374.62,-188 323.38,-188 323.38,-168 374.62,-168 374.62,-188"/>
<text text-anchor="middle" x="349" y="-174.5" font-family="Helvetica,sans-Serif" font-size="10.00">memory</text>
</a>
</g>
</g>
<!-- Node2&#45;&gt;Node3 -->
<g id="edge2_Node000002_Node000003" class="edge">
<title>Node2&#45;&gt;Node3</title>
<g id="a_edge2_Node000002_Node000003"><a xlink:title=" ">
<path fill="none" stroke="#63b8ff" d="M570.29,-448.57C531.12,-434.66 456.03,-403.59 408,-356 368.47,-316.83 361.44,-298.85 352,-244 349.47,-229.3 348.75,-212.48 348.65,-199.63"/>
<polygon fill="#63b8ff" stroke="#63b8ff" points="352.15,-199.87 348.7,-189.85 345.15,-199.83 352.15,-199.87"/>
</a>
</g>
</g>
<!-- Node4 -->
<g id="Node000004" class="node">
<title>Node4</title>
<g id="a_Node000004"><a xlink:title=" ">
<polygon fill="#e0e0e0" stroke="#999999" points="970.5,-76 927.5,-76 927.5,-56 970.5,-56 970.5,-76"/>
<text text-anchor="middle" x="949" y="-62.5" font-family="Helvetica,sans-Serif" font-size="10.00">vector</text>
</a>
</g>
</g>
<!-- Node2&#45;&gt;Node4 -->
<g id="edge3_Node000002_Node000004" class="edge">
<title>Node2&#45;&gt;Node4</title>
<g id="a_edge3_Node000002_Node000004"><a xlink:title=" ">
<path fill="none" stroke="#63b8ff" d="M621.57,-455.01C705.61,-447.78 968,-419.4 968,-347 968,-347 968,-347 968,-177 968,-145.26 960.22,-109.11 954.62,-87.19"/>
<polygon fill="#63b8ff" stroke="#63b8ff" points="958.07,-86.54 952.11,-77.79 951.31,-88.35 958.07,-86.54"/>
</a>
</g>
</g>
<!-- Node5 -->
<g id="Node000005" class="node">
<title>Node5</title>
<g id="a_Node000005"><a xlink:href="GameObject_8h.html" target="_top" xlink:title="Base class for all game objects.">
<polygon fill="white" stroke="#666666" points="221.5,-244 142.5,-244 142.5,-224 221.5,-224 221.5,-244"/>
<text text-anchor="middle" x="182" y="-230.5" font-family="Helvetica,sans-Serif" font-size="10.00">GameObject.h</text>
</a>
</g>
</g>
<!-- Node2&#45;&gt;Node5 -->
<g id="edge4_Node000002_Node000005" class="edge">
<title>Node2&#45;&gt;Node5</title>
<g id="a_edge4_Node000002_Node000005"><a xlink:title=" ">
<path fill="none" stroke="#63b8ff" d="M570.47,-456.05C485.64,-452.64 217.1,-439.71 191,-412 150.63,-369.14 165.59,-291.45 175.71,-254.95"/>
<polygon fill="#63b8ff" stroke="#63b8ff" points="178.96,-256.3 178.44,-245.72 172.25,-254.31 178.96,-256.3"/>
</a>
</g>
</g>
<!-- Node8 -->
<g id="Node000008" class="node">
<title>Node8</title>
<g id="a_Node000008"><a xlink:href="GamePhase_8h.html" target="_top" xlink:title="Handles the game phase and level.">
<polygon fill="white" stroke="#666666" points="221.12,-188 142.88,-188 142.88,-168 221.12,-168 221.12,-188"/>
<text text-anchor="middle" x="182" y="-174.5" font-family="Helvetica,sans-Serif" font-size="10.00">GamePhase.h</text>
</a>
</g>
</g>
<!-- Node2&#45;&gt;Node8 -->
<g id="edge60_Node000002_Node000008" class="edge">
<title>Node2&#45;&gt;Node8</title>
<g id="a_edge60_Node000002_Node000008"><a xlink:title=" ">
<path fill="none" stroke="#63b8ff" d="M570.47,-455.94C483.63,-452.11 203.38,-437.84 173,-412 107.47,-356.27 90.16,-301.73 127,-224 132.74,-211.88 143.53,-201.94 154.04,-194.51"/>
<polygon fill="#63b8ff" stroke="#63b8ff" points="155.7,-197.6 162.19,-189.23 151.89,-191.73 155.7,-197.6"/>
</a>
</g>
</g>
<!-- Node9 -->
<g id="Node000009" class="node">
<title>Node9</title>
<g id="a_Node000009"><a xlink:href="Config_8h.html" target="_top" xlink:title="Class for handling the game configuration.">
<polygon fill="white" stroke="#666666" points="1048.38,-132 995.62,-132 995.62,-112 1048.38,-112 1048.38,-132"/>
<text text-anchor="middle" x="1022" y="-118.5" font-family="Helvetica,sans-Serif" font-size="10.00">Config.h</text>
</a>
</g>
</g>
<!-- Node2&#45;&gt;Node9 -->
<g id="edge10_Node000002_Node000009" class="edge">
<title>Node2&#45;&gt;Node9</title>
<g id="a_edge10_Node000002_Node000009"><a xlink:title=" ">
<path fill="none" stroke="#63b8ff" d="M621.58,-457.39C698.5,-458.06 925.86,-456.17 982,-412 1006.2,-392.96 1006,-377.8 1006,-347 1006,-347 1006,-347 1006,-233 1006,-201.54 1012.49,-165.55 1017.2,-143.55"/>
<polygon fill="#63b8ff" stroke="#63b8ff" points="1020.61,-144.35 1019.38,-133.83 1013.78,-142.82 1020.61,-144.35"/>
</a>
</g>
</g>
<!-- Node2&#45;&gt;Node12 -->
<g id="edge14_Node000002_Node000012" class="edge">
<title>Node2&#45;&gt;Node12</title>
<g id="a_edge14_Node000002_Node000012"><a xlink:title=" ">
<path fill="none" stroke="#63b8ff" d="M621.47,-453.88C672.41,-446.08 782,-420.72 782,-347 782,-347 782,-347 782,-289 782,-257.85 780.38,-221.77 779.2,-199.67"/>
<polygon fill="#63b8ff" stroke="#63b8ff" points="782.71,-199.71 778.66,-189.92 775.72,-200.1 782.71,-199.71"/>
</a>
</g>
</g>
<!-- Node16 -->
<g id="Node000016" class="node">
<title>Node16</title>
<g id="a_Node000016"><a xlink:href="Player_8h.html" target="_top" xlink:title="Represents a player.">
<polygon fill="white" stroke="#666666" points="621.62,-356 570.38,-356 570.38,-336 621.62,-336 621.62,-356"/>
<text text-anchor="middle" x="596" y="-342.5" font-family="Helvetica,sans-Serif" font-size="10.00">Player.h</text>
</a>
</g>
</g>
<!-- Node2&#45;&gt;Node16 -->
<g id="edge24_Node000002_Node000016" class="edge">
<title>Node2&#45;&gt;Node16</title>
<g id="a_edge24_Node000002_Node000016"><a xlink:title=" ">
<path fill="none" stroke="#63b8ff" d="M596,-447.62C596,-430.01 596,-391.59 596,-367.65"/>
<polygon fill="#63b8ff" stroke="#63b8ff" points="599.5,-367.87 596,-357.87 592.5,-367.87 599.5,-367.87"/>
</a>
</g>
</g>
<!-- Node18 -->
<g id="Node000018" class="node">
<title>Node18</title>
<g id="a_Node000018"><a xlink:href="Map_8h.html" target="_top" xlink:title="Class for handling the game map.">
<polygon fill="white" stroke="#666666" points="708.5,-244 665.5,-244 665.5,-224 708.5,-224 708.5,-244"/>
<text text-anchor="middle" x="687" y="-230.5" font-family="Helvetica,sans-Serif" font-size="10.00">Map.h</text>
</a>
</g>
</g>
<!-- Node2&#45;&gt;Node18 -->
<g id="edge47_Node000002_Node000018" class="edge">
<title>Node2&#45;&gt;Node18</title>
<g id="a_edge47_Node000002_Node000018"><a xlink:title=" ">
<path fill="none" stroke="#63b8ff" d="M603.8,-447.51C622.42,-424.19 669.11,-361.5 686,-300 689.94,-285.63 690.09,-268.8 689.3,-255.87"/>
<polygon fill="#63b8ff" stroke="#63b8ff" points="692.79,-255.63 688.44,-245.97 685.82,-256.24 692.79,-255.63"/>
</a>
</g>
</g>
<!-- Node19 -->
<g id="Node000019" class="node">
<title>Node19</title>
<g id="a_Node000019"><a xlink:href="Ghost_8h.html" target="_top" xlink:title="Represents a ghost enemy.">
<polygon fill="white" stroke="#666666" points="549.25,-412 498.75,-412 498.75,-392 549.25,-392 549.25,-412"/>
<text text-anchor="middle" x="524" y="-398.5" font-family="Helvetica,sans-Serif" font-size="10.00">Ghost.h</text>
</a>
</g>
</g>
<!-- Node2&#45;&gt;Node19 -->
<g id="edge37_Node000002_Node000019" class="edge">
<title>Node2&#45;&gt;Node19</title>
<g id="a_edge37_Node000002_Node000019"><a xlink:title=" ">
<path fill="none" stroke="#63b8ff" d="M583.46,-447.59C573.03,-439.77 557.95,-428.46 545.59,-419.19"/>
<polygon fill="#63b8ff" stroke="#63b8ff" points="547.71,-416.41 537.61,-413.21 543.51,-422.01 547.71,-416.41"/>
</a>
</g>
</g>
<!-- Node21 -->
<g id="Node000021" class="node">
<title>Node21</title>
<g id="a_Node000021"><a xlink:href="Leaderboard_8h.html" target="_top" xlink:title="Class for handling the game leaderboard.">
<polygon fill="white" stroke="#666666" points="1143.75,-132 1066.25,-132 1066.25,-112 1143.75,-112 1143.75,-132"/>
<text text-anchor="middle" x="1105" y="-118.5" font-family="Helvetica,sans-Serif" font-size="10.00">Leaderboard.h</text>
</a>
</g>
</g>
<!-- Node2&#45;&gt;Node21 -->
<g id="edge48_Node000002_Node000021" class="edge">
<title>Node2&#45;&gt;Node21</title>
<g id="a_edge48_Node000002_Node000021"><a xlink:title=" ">
<path fill="none" stroke="#63b8ff" d="M621.74,-455.74C706.62,-451.38 974.03,-435.85 1004,-412 1089.67,-343.82 1102.87,-198.21 1104.75,-143.95"/>
<polygon fill="#63b8ff" stroke="#63b8ff" points="1108.25,-144.08 1104.99,-134 1101.25,-143.92 1108.25,-144.08"/>
</a>
</g>
</g>
<!-- Node23 -->
<g id="Node000023" class="node">
<title>Node23</title>
<g id="a_Node000023"><a xlink:href="InteractiveObject_8h.html" target="_top" xlink:title="Base class for all interactive objects.">
<polygon fill="white" stroke="#666666" points="298.25,-412 199.75,-412 199.75,-392 298.25,-392 298.25,-412"/>
<text text-anchor="middle" x="249" y="-398.5" font-family="Helvetica,sans-Serif" font-size="10.00">InteractiveObject.h</text>
</a>
</g>
</g>
<!-- Node2&#45;&gt;Node23 -->
<g id="edge53_Node000002_Node000023" class="edge">
<title>Node2&#45;&gt;Node23</title>
<g id="a_edge53_Node000002_Node000023"><a xlink:title=" ">
<path fill="none" stroke="#63b8ff" d="M570.48,-453.03C515.89,-444.53 386.45,-424.39 309.5,-412.41"/>
<polygon fill="#63b8ff" stroke="#63b8ff" points="310.46,-409.02 300.04,-410.94 309.38,-415.94 310.46,-409.02"/>
</a>
</g>
</g>
<!-- Node5&#45;&gt;Node3 -->
<g id="edge9_Node000005_Node000003" class="edge">
<title>Node5&#45;&gt;Node3</title>
<g id="a_edge9_Node000005_Node000003"><a xlink:title=" ">
<path fill="none" stroke="#63b8ff" d="M211.09,-223.59C239.22,-214.5 281.95,-200.68 312.38,-190.84"/>
<polygon fill="#63b8ff" stroke="#63b8ff" points="313.11,-194.28 321.55,-187.88 310.95,-187.62 313.11,-194.28"/>
</a>
</g>
</g>
<!-- Node5&#45;&gt;Node6 -->
<g id="edge5_Node000005_Node000006" class="edge">
<title>Node5&#45;&gt;Node6</title>
<g id="a_edge5_Node000005_Node000006"><a xlink:title=" ">
<path fill="none" stroke="#63b8ff" d="M192.93,-223.6C224.38,-196.55 315.41,-118.26 355.57,-83.71"/>
<polygon fill="#63b8ff" stroke="#63b8ff" points="357.74,-86.46 363.04,-77.28 353.18,-81.15 357.74,-86.46"/>
</a>
</g>
</g>
<!-- Node5&#45;&gt;Node8 -->
<g id="edge7_Node000005_Node000008" class="edge">
<title>Node5&#45;&gt;Node8</title>
<g id="a_edge7_Node000005_Node000008"><a xlink:title=" ">
<path fill="none" stroke="#63b8ff" d="M182,-223.59C182,-217.01 182,-207.96 182,-199.73"/>
<polygon fill="#63b8ff" stroke="#63b8ff" points="185.5,-199.81 182,-189.81 178.5,-199.81 185.5,-199.81"/>
</a>
</g>
</g>
<!-- Node7 -->
<g id="Node000007" class="node">
<title>Node7</title>
<g id="a_Node000007"><a xlink:title=" ">
<polygon fill="#e0e0e0" stroke="#999999" points="394.62,-20 355.38,-20 355.38,0 394.62,0 394.62,-20"/>
<text text-anchor="middle" x="375" y="-6.5" font-family="Helvetica,sans-Serif" font-size="10.00">utility</text>
</a>
</g>
</g>
<!-- Node6&#45;&gt;Node7 -->
<g id="edge6_Node000006_Node000007" class="edge">
<title>Node6&#45;&gt;Node7</title>
<g id="a_edge6_Node000006_Node000007"><a xlink:title=" ">
<path fill="none" stroke="#63b8ff" d="M375,-55.59C375,-49.01 375,-39.96 375,-31.73"/>
<polygon fill="#63b8ff" stroke="#63b8ff" points="378.5,-31.81 375,-21.81 371.5,-31.81 378.5,-31.81"/>
</a>
</g>
</g>
<!-- Node8&#45;&gt;Node6 -->
<g id="edge8_Node000008_Node000006" class="edge">
<title>Node8&#45;&gt;Node6</title>
<g id="a_edge8_Node000008_Node000006"><a xlink:title=" ">
<path fill="none" stroke="#63b8ff" d="M189.57,-167.78C201.38,-153.93 225.49,-127.7 251,-112 277.55,-95.65 310.93,-83.97 336.37,-76.61"/>
<polygon fill="#63b8ff" stroke="#63b8ff" points="337.29,-79.98 345.99,-73.93 335.42,-73.24 337.29,-79.98"/>
</a>
</g>
</g>
<!-- Node9&#45;&gt;Node4 -->
<g id="edge13_Node000009_Node000004" class="edge">
<title>Node9&#45;&gt;Node4</title>
<g id="a_edge13_Node000009_Node000004"><a xlink:title=" ">
<path fill="none" stroke="#63b8ff" d="M1009.28,-111.59C998.61,-103.7 983.12,-92.24 970.52,-82.92"/>
<polygon fill="#63b8ff" stroke="#63b8ff" points="972.91,-80.33 962.79,-77.2 968.74,-85.96 972.91,-80.33"/>
</a>
</g>
</g>
<!-- Node10 -->
<g id="Node000010" class="node">
<title>Node10</title>
<g id="a_Node000010"><a xlink:title=" ">
<polygon fill="#e0e0e0" stroke="#999999" points="769,-76 729,-76 729,-56 769,-56 769,-76"/>
<text text-anchor="middle" x="749" y="-62.5" font-family="Helvetica,sans-Serif" font-size="10.00">string</text>
</a>
</g>
</g>
<!-- Node9&#45;&gt;Node10 -->
<g id="edge11_Node000009_Node000010" class="edge">
<title>Node9&#45;&gt;Node10</title>
<g id="a_edge11_Node000009_Node000010"><a xlink:title=" ">
<path fill="none" stroke="#63b8ff" d="M995.33,-115.72C944.58,-105.69 834.37,-83.89 780.26,-73.18"/>
<polygon fill="#63b8ff" stroke="#63b8ff" points="781.27,-69.82 770.78,-71.31 779.91,-76.68 781.27,-69.82"/>
</a>
</g>
</g>
<!-- Node11 -->
<g id="Node000011" class="node">
<title>Node11</title>
<g id="a_Node000011"><a xlink:title=" ">
<polygon fill="#e0e0e0" stroke="#999999" points="1051.38,-76 1016.62,-76 1016.62,-56 1051.38,-56 1051.38,-76"/>
<text text-anchor="middle" x="1034" y="-62.5" font-family="Helvetica,sans-Serif" font-size="10.00">map</text>
</a>
</g>
</g>
<!-- Node9&#45;&gt;Node11 -->
<g id="edge12_Node000009_Node000011" class="edge">
<title>Node9&#45;&gt;Node11</title>
<g id="a_edge12_Node000009_Node000011"><a xlink:title=" ">
<path fill="none" stroke="#63b8ff" d="M1024.09,-111.59C1025.57,-104.93 1027.61,-95.75 1029.46,-87.44"/>
<polygon fill="#63b8ff" stroke="#63b8ff" points="1032.85,-88.3 1031.61,-77.78 1026.02,-86.78 1032.85,-88.3"/>
</a>
</g>
</g>
<!-- Node12&#45;&gt;Node4 -->
<g id="edge18_Node000012_Node000004" class="edge">
<title>Node12&#45;&gt;Node4</title>
<g id="a_edge18_Node000012_Node000004"><a xlink:title=" ">
<path fill="none" stroke="#63b8ff" d="M802.36,-167.57C822.12,-159.43 850.33,-146.69 873,-132 894.72,-117.93 916.91,-98.2 931.66,-84.18"/>
<polygon fill="#63b8ff" stroke="#63b8ff" points="933.98,-86.81 938.73,-77.34 929.11,-81.78 933.98,-86.81"/>
</a>
</g>
</g>
<!-- Node12&#45;&gt;Node6 -->
<g id="edge19_Node000012_Node000006" class="edge">
<title>Node12&#45;&gt;Node6</title>
<g id="a_edge19_Node000012_Node000006"><a xlink:title=" ">
<path fill="none" stroke="#63b8ff" d="M757.5,-167.59C738.17,-158.65 708.47,-144.73 683,-132 665.93,-123.47 663.09,-118.09 645,-112 565.66,-85.28 467.65,-74.03 414.24,-69.6"/>
<polygon fill="#63b8ff" stroke="#63b8ff" points="414.67,-66.13 404.42,-68.83 414.12,-73.11 414.67,-66.13"/>
</a>
</g>
</g>
<!-- Node12&#45;&gt;Node10 -->
<g id="edge16_Node000012_Node000010" class="edge">
<title>Node12&#45;&gt;Node10</title>
<g id="a_edge16_Node000012_Node000010"><a xlink:title=" ">
<path fill="none" stroke="#63b8ff" d="M775.53,-167.62C770.86,-149.92 760.66,-111.24 754.36,-87.32"/>
<polygon fill="#63b8ff" stroke="#63b8ff" points="757.79,-86.6 751.85,-77.82 751.02,-88.38 757.79,-86.6"/>
</a>
</g>
</g>
<!-- Node13 -->
<g id="Node000013" class="node">
<title>Node13</title>
<g id="a_Node000013"><a xlink:title=" ">
<polygon fill="#e0e0e0" stroke="#999999" points="864.38,-132 805.62,-132 805.62,-112 864.38,-112 864.38,-132"/>
<text text-anchor="middle" x="835" y="-118.5" font-family="Helvetica,sans-Serif" font-size="10.00">ncurses.h</text>
</a>
</g>
</g>
<!-- Node12&#45;&gt;Node13 -->
<g id="edge15_Node000012_Node000013" class="edge">
<title>Node12&#45;&gt;Node13</title>
<g id="a_edge15_Node000012_Node000013"><a xlink:title=" ">
<path fill="none" stroke="#63b8ff" d="M787.93,-167.59C795.94,-160.01 807.42,-149.13 817.03,-140.02"/>
<polygon fill="#63b8ff" stroke="#63b8ff" points="819.23,-142.76 824.09,-133.34 814.42,-137.68 819.23,-142.76"/>
</a>
</g>
</g>
<!-- Node14 -->
<g id="Node000014" class="node">
<title>Node14</title>
<g id="a_Node000014"><a xlink:title=" ">
<polygon fill="#e0e0e0" stroke="#999999" points="635.88,-132 586.12,-132 586.12,-112 635.88,-112 635.88,-132"/>
<text text-anchor="middle" x="611" y="-118.5" font-family="Helvetica,sans-Serif" font-size="10.00">optional</text>
</a>
</g>
</g>
<!-- Node12&#45;&gt;Node14 -->
<g id="edge17_Node000012_Node000014" class="edge">
<title>Node12&#45;&gt;Node14</title>
<g id="a_edge17_Node000012_Node000014"><a xlink:title=" ">
<path fill="none" stroke="#63b8ff" d="M748.91,-167.59C720.53,-158.42 677.29,-144.44 646.81,-134.58"/>
<polygon fill="#63b8ff" stroke="#63b8ff" points="648.24,-131.36 637.65,-131.62 646.09,-138.02 648.24,-131.36"/>
</a>
</g>
</g>
<!-- Node15 -->
<g id="Node000015" class="node">
<title>Node15</title>
<g id="a_Node000015"><a xlink:href="Helpers_8h.html" target="_top" xlink:title=" ">
<polygon fill="white" stroke="#666666" points="750,-132 692,-132 692,-112 750,-112 750,-132"/>
<text text-anchor="middle" x="721" y="-118.5" font-family="Helvetica,sans-Serif" font-size="10.00">Helpers.h</text>
</a>
</g>
</g>
<!-- Node12&#45;&gt;Node15 -->
<g id="edge20_Node000012_Node000015" class="edge">
<title>Node12&#45;&gt;Node15</title>
<g id="a_edge20_Node000012_Node000015"><a xlink:title=" ">
<path fill="none" stroke="#63b8ff" d="M768.07,-167.59C760.06,-160.01 748.58,-149.13 738.97,-140.02"/>
<polygon fill="#63b8ff" stroke="#63b8ff" points="741.58,-137.68 731.91,-133.34 736.77,-142.76 741.58,-137.68"/>
</a>
</g>
</g>
<!-- Node15&#45;&gt;Node4 -->
<g id="edge23_Node000015_Node000004" class="edge">
<title>Node15&#45;&gt;Node4</title>
<g id="a_edge23_Node000015_Node000004"><a xlink:title=" ">
<path fill="none" stroke="#63b8ff" d="M750.34,-114.05C792.96,-103.96 871.73,-85.3 916.21,-74.77"/>
<polygon fill="#63b8ff" stroke="#63b8ff" points="916.87,-78.21 925.79,-72.5 915.25,-71.4 916.87,-78.21"/>
</a>
</g>
</g>
<!-- Node15&#45;&gt;Node6 -->
<g id="edge21_Node000015_Node000006" class="edge">
<title>Node15&#45;&gt;Node6</title>
<g id="a_edge21_Node000015_Node000006"><a xlink:title=" ">
<path fill="none" stroke="#63b8ff" d="M691.9,-114.67C687.26,-113.73 682.5,-112.81 678,-112 583.47,-95.1 471.56,-79.66 413.8,-72.02"/>
<polygon fill="#63b8ff" stroke="#63b8ff" points="414.53,-68.58 404.16,-70.75 413.62,-75.52 414.53,-68.58"/>
</a>
</g>
</g>
<!-- Node15&#45;&gt;Node10 -->
<g id="edge22_Node000015_Node000010" class="edge">
<title>Node15&#45;&gt;Node10</title>
<g id="a_edge22_Node000015_Node000010"><a xlink:title=" ">
<path fill="none" stroke="#63b8ff" d="M725.88,-111.59C729.49,-104.63 734.54,-94.89 739,-86.29"/>
<polygon fill="#63b8ff" stroke="#63b8ff" points="741.99,-88.13 743.48,-77.64 735.77,-84.91 741.99,-88.13"/>
</a>
</g>
</g>
<!-- Node16&#45;&gt;Node10 -->
<g id="edge36_Node000016_Node000010" class="edge">
<title>Node16&#45;&gt;Node10</title>
<g id="a_edge36_Node000016_Node000010"><a xlink:title=" ">
<path fill="none" stroke="#63b8ff" d="M590.52,-335.75C571.17,-301.74 510.07,-181.98 565,-112 583.62,-88.27 670.05,-75.44 717.53,-70.08"/>
<polygon fill="#63b8ff" stroke="#63b8ff" points="717.63,-73.59 727.2,-69.03 716.88,-66.63 717.63,-73.59"/>
</a>
</g>
</g>
<!-- Node17 -->
<g id="Node000017" class="node">
<title>Node17</title>
<g id="a_Node000017"><a xlink:href="MovingObject_8h.html" target="_top" xlink:title="Base class for all moving objects.">
<polygon fill="white" stroke="#666666" points="476.12,-300 391.88,-300 391.88,-280 476.12,-280 476.12,-300"/>
<text text-anchor="middle" x="434" y="-286.5" font-family="Helvetica,sans-Serif" font-size="10.00">MovingObject.h</text>
</a>
</g>
</g>
<!-- Node16&#45;&gt;Node17 -->
<g id="edge25_Node000016_Node000017" class="edge">
<title>Node16&#45;&gt;Node17</title>
<g id="a_edge25_Node000016_Node000017"><a xlink:title=" ">
<path fill="none" stroke="#63b8ff" d="M569.97,-336.32C543.76,-327.59 503.02,-314.01 472.96,-303.99"/>
<polygon fill="#63b8ff" stroke="#63b8ff" points="474.45,-300.79 463.85,-300.95 472.23,-307.43 474.45,-300.79"/>
</a>
</g>
</g>
<!-- Node16&#45;&gt;Node18 -->
<g id="edge35_Node000016_Node000018" class="edge">
<title>Node16&#45;&gt;Node18</title>
<g id="a_edge35_Node000016_Node000018"><a xlink:title=" ">
<path fill="none" stroke="#63b8ff" d="M607.38,-335.66C617.59,-327 632.65,-313.44 644,-300 656.26,-285.48 668.01,-267.32 676.12,-253.9"/>
<polygon fill="#63b8ff" stroke="#63b8ff" points="678.95,-255.99 681.01,-245.6 672.92,-252.44 678.95,-255.99"/>
</a>
</g>
</g>
<!-- Node17&#45;&gt;Node3 -->
<g id="edge28_Node000017_Node000003" class="edge">
<title>Node17&#45;&gt;Node3</title>
<g id="a_edge28_Node000017_Node000003"><a xlink:title=" ">
<path fill="none" stroke="#63b8ff" d="M426.75,-279.62C412.7,-261.44 381.53,-221.09 363.21,-197.38"/>
<polygon fill="#63b8ff" stroke="#63b8ff" points="366.04,-195.33 357.15,-189.55 360.5,-199.61 366.04,-195.33"/>
</a>
</g>
</g>
<!-- Node17&#45;&gt;Node5 -->
<g id="edge26_Node000017_Node000005" class="edge">
<title>Node17&#45;&gt;Node5</title>
<g id="a_edge26_Node000017_Node000005"><a xlink:title=" ">
<path fill="none" stroke="#63b8ff" d="M391.54,-279.9C347.74,-270.52 279.43,-255.88 232.79,-245.88"/>
<polygon fill="#63b8ff" stroke="#63b8ff" points="233.72,-242.5 223.2,-243.83 232.25,-249.35 233.72,-242.5"/>
</a>
</g>
</g>
<!-- Node17&#45;&gt;Node6 -->
<g id="edge27_Node000017_Node000006" class="edge">
<title>Node17&#45;&gt;Node6</title>
<g id="a_edge27_Node000017_Node000006"><a xlink:title=" ">
<path fill="none" stroke="#63b8ff" d="M431.54,-279.74C422.75,-246.67 392.76,-133.83 380.4,-87.31"/>
<polygon fill="#63b8ff" stroke="#63b8ff" points="383.81,-86.52 377.86,-77.76 377.05,-88.32 383.81,-86.52"/>
</a>
</g>
</g>
<!-- Node17&#45;&gt;Node8 -->
<g id="edge34_Node000017_Node000008" class="edge">
<title>Node17&#45;&gt;Node8</title>
<g id="a_edge34_Node000017_Node000008"><a xlink:title=" ">
<path fill="none" stroke="#63b8ff" d="M412.51,-279.62C368.07,-260.22 265.83,-215.59 213.74,-192.86"/>
<polygon fill="#63b8ff" stroke="#63b8ff" points="215.38,-189.75 204.82,-188.96 212.58,-196.17 215.38,-189.75"/>
</a>
</g>
</g>
<!-- Node17&#45;&gt;Node14 -->
<g id="edge29_Node000017_Node000014" class="edge">
<title>Node17&#45;&gt;Node14</title>
<g id="a_edge29_Node000017_Node000014"><a xlink:title=" ">
<path fill="none" stroke="#63b8ff" d="M444.02,-279.6C472.74,-252.66 555.64,-174.92 592.71,-140.15"/>
<polygon fill="#63b8ff" stroke="#63b8ff" points="595.08,-142.73 599.98,-133.33 590.29,-137.62 595.08,-142.73"/>
</a>
</g>
</g>
<!-- Node17&#45;&gt;Node18 -->
<g id="edge30_Node000017_Node000018" class="edge">
<title>Node17&#45;&gt;Node18</title>
<g id="a_edge30_Node000017_Node000018"><a xlink:title=" ">
<path fill="none" stroke="#63b8ff" d="M476.35,-279.96C526.43,-269.27 608.71,-251.71 654.2,-242"/>
<polygon fill="#63b8ff" stroke="#63b8ff" points="654.67,-245.48 663.72,-239.97 653.21,-238.63 654.67,-245.48"/>
</a>
</g>
</g>
<!-- Node18&#45;&gt;Node4 -->
<g id="edge32_Node000018_Node000004" class="edge">
<title>Node18&#45;&gt;Node4</title>
<g id="a_edge32_Node000018_Node000004"><a xlink:title=" ">
<path fill="none" stroke="#63b8ff" d="M708.67,-227.26C734.86,-219.92 779.9,-205.97 816,-188 856.17,-168.01 867.37,-162.79 900,-132 914.74,-118.09 928.35,-99.36 937.46,-85.58"/>
<polygon fill="#63b8ff" stroke="#63b8ff" points="940.23,-87.75 942.68,-77.44 934.34,-83.97 940.23,-87.75"/>
</a>
</g>
</g>
<!-- Node18&#45;&gt;Node10 -->
<g id="edge31_Node000018_Node000010" class="edge">
<title>Node18&#45;&gt;Node10</title>
<g id="a_edge31_Node000018_Node000010"><a xlink:title=" ">
<path fill="none" stroke="#63b8ff" d="M666.41,-223.59C625.96,-203.82 542.91,-156.16 577,-112 594.02,-89.96 672.51,-76.63 717.35,-70.68"/>
<polygon fill="#63b8ff" stroke="#63b8ff" points="717.78,-74.16 727.26,-69.42 716.9,-67.21 717.78,-74.16"/>
</a>
</g>
</g>
<!-- Node18&#45;&gt;Node12 -->
<g id="edge33_Node000018_Node000012" class="edge">
<title>Node18&#45;&gt;Node12</title>
<g id="a_edge33_Node000018_Node000012"><a xlink:title=" ">
<path fill="none" stroke="#63b8ff" d="M702.85,-223.59C716.47,-215.51 736.36,-203.71 752.26,-194.27"/>
<polygon fill="#63b8ff" stroke="#63b8ff" points="753.91,-197.37 760.72,-189.25 750.34,-191.35 753.91,-197.37"/>
</a>
</g>
</g>
<!-- Node19&#45;&gt;Node3 -->
<g id="edge44_Node000019_Node000003" class="edge">
<title>Node19&#45;&gt;Node3</title>
<g id="a_edge44_Node000019_Node000003"><a xlink:title=" ">
<path fill="none" stroke="#63b8ff" d="M500.13,-391.53C467.41,-377.16 409.66,-346.5 383,-300 364.52,-267.76 355.58,-224.86 351.66,-199.76"/>
<polygon fill="#63b8ff" stroke="#63b8ff" points="355.14,-199.31 350.27,-189.9 348.21,-200.29 355.14,-199.31"/>
</a>
</g>
</g>
<!-- Node19&#45;&gt;Node16 -->
<g id="edge45_Node000019_Node000016" class="edge">
<title>Node19&#45;&gt;Node16</title>
<g id="a_edge45_Node000019_Node000016"><a xlink:title=" ">
<path fill="none" stroke="#63b8ff" d="M536.54,-391.59C546.97,-383.77 562.05,-372.46 574.41,-363.19"/>
<polygon fill="#63b8ff" stroke="#63b8ff" points="576.49,-366.01 582.39,-357.21 572.29,-360.41 576.49,-366.01"/>
</a>
</g>
</g>
<!-- Node19&#45;&gt;Node17 -->
<g id="edge38_Node000019_Node000017" class="edge">
<title>Node19&#45;&gt;Node17</title>
<g id="a_edge38_Node000019_Node000017"><a xlink:title=" ">
<path fill="none" stroke="#63b8ff" d="M499.56,-391.66C483.48,-384.3 463.22,-372.52 451,-356 441.44,-343.08 437.24,-325.23 435.41,-311.51"/>
<polygon fill="#63b8ff" stroke="#63b8ff" points="438.92,-311.44 434.45,-301.83 431.95,-312.12 438.92,-311.44"/>
</a>
</g>
</g>
<!-- Node19&#45;&gt;Node18 -->
<g id="edge46_Node000019_Node000018" class="edge">
<title>Node19&#45;&gt;Node18</title>
<g id="a_edge46_Node000019_Node000018"><a xlink:title=" ">
<path fill="none" stroke="#63b8ff" d="M549.33,-395.16C572.67,-388.75 607.19,-376.53 631,-356 661.72,-329.51 676.62,-282.58 682.97,-255.62"/>
<polygon fill="#63b8ff" stroke="#63b8ff" points="686.37,-256.46 685.05,-245.95 679.52,-254.98 686.37,-256.46"/>
</a>
</g>
</g>
<!-- Node20 -->
<g id="Node000020" class="node">
<title>Node20</title>
<g id="a_Node000020"><a xlink:href="EnemyBehavior_8h.html" target="_top" xlink:title="Base class for all enemy behaviors.">
<polygon fill="white" stroke="#666666" points="552.25,-356 459.75,-356 459.75,-336 552.25,-336 552.25,-356"/>
<text text-anchor="middle" x="506" y="-342.5" font-family="Helvetica,sans-Serif" font-size="10.00">EnemyBehavior.h</text>
</a>
</g>
</g>
<!-- Node19&#45;&gt;Node20 -->
<g id="edge39_Node000019_Node000020" class="edge">
<title>Node19&#45;&gt;Node20</title>
<g id="a_edge39_Node000019_Node000020"><a xlink:title=" ">
<path fill="none" stroke="#63b8ff" d="M520.86,-391.59C518.62,-384.86 515.51,-375.53 512.72,-367.15"/>
<polygon fill="#63b8ff" stroke="#63b8ff" points="516.06,-366.11 509.58,-357.73 509.42,-368.33 516.06,-366.11"/>
</a>
</g>
</g>
<!-- Node20&#45;&gt;Node3 -->
<g id="edge42_Node000020_Node000003" class="edge">
<title>Node20&#45;&gt;Node3</title>
<g id="a_edge42_Node000020_Node000003"><a xlink:title=" ">
<path fill="none" stroke="#63b8ff" d="M504.84,-335.8C502.77,-322.43 497.44,-297.35 485,-280 456.94,-240.88 409.15,-210.49 378.35,-193.66"/>
<polygon fill="#63b8ff" stroke="#63b8ff" points="380.03,-190.59 369.55,-189 376.74,-196.78 380.03,-190.59"/>
</a>
</g>
</g>
<!-- Node20&#45;&gt;Node6 -->
<g id="edge41_Node000020_Node000006" class="edge">
<title>Node20&#45;&gt;Node6</title>
<g id="a_edge41_Node000020_Node000006"><a xlink:title=" ">
<path fill="none" stroke="#63b8ff" d="M507.18,-335.51C508.45,-322.64 509.61,-299.06 504,-280 480.47,-200.01 419.18,-119.65 390.37,-84.88"/>
<polygon fill="#63b8ff" stroke="#63b8ff" points="393.26,-82.87 384.15,-77.48 387.91,-87.38 393.26,-82.87"/>
</a>
</g>
</g>
<!-- Node20&#45;&gt;Node17 -->
<g id="edge43_Node000020_Node000017" class="edge">
<title>Node20&#45;&gt;Node17</title>
<g id="a_edge43_Node000020_Node000017"><a xlink:title=" ">
<path fill="none" stroke="#63b8ff" d="M493.46,-335.59C483.03,-327.77 467.95,-316.46 455.59,-307.19"/>
<polygon fill="#63b8ff" stroke="#63b8ff" points="457.71,-304.41 447.61,-301.21 453.51,-310.01 457.71,-304.41"/>
</a>
</g>
</g>
<!-- Node20&#45;&gt;Node18 -->
<g id="edge40_Node000020_Node000018" class="edge">
<title>Node20&#45;&gt;Node18</title>
<g id="a_edge40_Node000020_Node000018"><a xlink:title=" ">
<path fill="none" stroke="#63b8ff" d="M521.43,-335.62C552.69,-316.63 623.74,-273.45 661.8,-250.31"/>
<polygon fill="#63b8ff" stroke="#63b8ff" points="663.59,-253.33 670.31,-245.14 659.95,-247.34 663.59,-253.33"/>
</a>
</g>
</g>
<!-- Node21&#45;&gt;Node4 -->
<g id="edge49_Node000021_Node000004" class="edge">
<title>Node21&#45;&gt;Node4</title>
<g id="a_edge49_Node000021_Node000004"><a xlink:title=" ">
<path fill="none" stroke="#63b8ff" d="M1077.83,-111.59C1051.01,-102.31 1009.99,-88.11 981.47,-78.24"/>
<polygon fill="#63b8ff" stroke="#63b8ff" points="982.86,-75.02 972.27,-75.05 980.57,-81.63 982.86,-75.02"/>
</a>
</g>
</g>
<!-- Node21&#45;&gt;Node10 -->
<g id="edge50_Node000021_Node000010" class="edge">
<title>Node21&#45;&gt;Node10</title>
<g id="a_edge50_Node000021_Node000010"><a xlink:title=" ">
<path fill="none" stroke="#63b8ff" d="M1065.99,-113.55C1062.95,-113.01 1059.93,-112.49 1057,-112 956.19,-95.19 836.23,-78.66 780.44,-71.17"/>
<polygon fill="#63b8ff" stroke="#63b8ff" points="781.1,-67.72 770.72,-69.87 780.17,-74.66 781.1,-67.72"/>
</a>
</g>
</g>
<!-- Node21&#45;&gt;Node11 -->
<g id="edge51_Node000021_Node000011" class="edge">
<title>Node21&#45;&gt;Node11</title>
<g id="a_edge51_Node000021_Node000011"><a xlink:title=" ">
<path fill="none" stroke="#63b8ff" d="M1092.63,-111.59C1082.35,-103.77 1067.48,-92.46 1055.29,-83.19"/>
<polygon fill="#63b8ff" stroke="#63b8ff" points="1057.51,-80.48 1047.43,-77.21 1053.27,-86.05 1057.51,-80.48"/>
</a>
</g>
</g>
<!-- Node22 -->
<g id="Node000022" class="node">
<title>Node22</title>
<g id="a_Node000022"><a xlink:title=" ">
<polygon fill="#e0e0e0" stroke="#999999" points="1127.62,-76 1082.38,-76 1082.38,-56 1127.62,-56 1127.62,-76"/>
<text text-anchor="middle" x="1105" y="-62.5" font-family="Helvetica,sans-Serif" font-size="10.00">cstdint</text>
</a>
</g>
</g>
<!-- Node21&#45;&gt;Node22 -->
<g id="edge52_Node000021_Node000022" class="edge">
<title>Node21&#45;&gt;Node22</title>
<g id="a_edge52_Node000021_Node000022"><a xlink:title=" ">
<path fill="none" stroke="#63b8ff" d="M1105,-111.59C1105,-105.01 1105,-95.96 1105,-87.73"/>
<polygon fill="#63b8ff" stroke="#63b8ff" points="1108.5,-87.81 1105,-77.81 1101.5,-87.81 1108.5,-87.81"/>
</a>
</g>
</g>
<!-- Node23&#45;&gt;Node3 -->
<g id="edge56_Node000023_Node000003" class="edge">
<title>Node23&#45;&gt;Node3</title>
<g id="a_edge56_Node000023_Node000003"><a xlink:title=" ">
<path fill="none" stroke="#63b8ff" d="M247.69,-391.57C244.3,-363.43 237.82,-278.58 274,-224 283.25,-210.05 298.44,-199.77 312.74,-192.58"/>
<polygon fill="#63b8ff" stroke="#63b8ff" points="313.91,-195.9 321.53,-188.53 310.98,-189.54 313.91,-195.9"/>
</a>
</g>
</g>
<!-- Node23&#45;&gt;Node5 -->
<g id="edge54_Node000023_Node000005" class="edge">
<title>Node23&#45;&gt;Node5</title>
<g id="a_edge54_Node000023_Node000005"><a xlink:title=" ">
<path fill="none" stroke="#63b8ff" d="M245.21,-391.6C234.61,-365.35 204.54,-290.84 190.03,-254.89"/>
<polygon fill="#63b8ff" stroke="#63b8ff" points="193.31,-253.66 186.32,-245.7 186.82,-256.28 193.31,-253.66"/>
</a>
</g>
</g>
<!-- Node23&#45;&gt;Node6 -->
<g id="edge55_Node000023_Node000006" class="edge">
<title>Node23&#45;&gt;Node6</title>
<g id="a_edge55_Node000023_Node000006"><a xlink:title=" ">
<path fill="none" stroke="#63b8ff" d="M235.05,-391.55C222.97,-383.01 205.38,-369.72 192,-356 130.94,-293.41 87.24,-241.89 134,-168 177.82,-98.75 279.81,-76.94 336.05,-70.1"/>
<polygon fill="#63b8ff" stroke="#63b8ff" points="336.25,-73.6 345.81,-69.02 335.49,-66.64 336.25,-73.6"/>
</a>
</g>
</g>
<!-- Node23&#45;&gt;Node8 -->
<g id="edge59_Node000023_Node000008" class="edge">
<title>Node23&#45;&gt;Node8</title>
<g id="a_edge59_Node000023_Node000008"><a xlink:title=" ">
<path fill="none" stroke="#63b8ff" d="M240.96,-391.7C216.69,-363.37 145.13,-278.04 134,-244 131.24,-235.55 130.47,-232.16 134,-224 138.97,-212.52 148.47,-202.63 157.72,-195.07"/>
<polygon fill="#63b8ff" stroke="#63b8ff" points="159.61,-198.03 165.49,-189.22 155.4,-192.43 159.61,-198.03"/>
</a>
</g>
</g>
<!-- Node23&#45;&gt;Node16 -->
<g id="edge58_Node000023_Node000016" class="edge">
<title>Node23&#45;&gt;Node16</title>
<g id="a_edge58_Node000023_Node000016"><a xlink:title=" ">
<path fill="none" stroke="#63b8ff" d="M298.73,-395.52C358.24,-388.58 461.11,-375.41 558.81,-356.24"/>
<polygon fill="#63b8ff" stroke="#63b8ff" points="559.47,-359.68 568.59,-354.29 558.1,-352.81 559.47,-359.68"/>
</a>
</g>
</g>
<!-- Node23&#45;&gt;Node17 -->
<g id="edge57_Node000023_Node000017" class="edge">
<title>Node23&#45;&gt;Node17</title>
<g id="a_edge57_Node000023_Node000017"><a xlink:title=" ">
<path fill="none" stroke="#63b8ff" d="M264.77,-391.62C296.86,-372.54 369.96,-329.08 408.75,-306.02"/>
<polygon fill="#63b8ff" stroke="#63b8ff" points="410.16,-309.25 416.97,-301.13 406.58,-303.23 410.16,-309.25"/>
</a>
</g>
</g>
</g>
</svg>
