<?xml version="1.0" encoding="UTF-8" standalone="no"?>
<!DOCTYPE svg PUBLIC "-//W3C//DTD SVG 1.1//EN"
 "http://www.w3.org/Graphics/SVG/1.1/DTD/svg11.dtd">
<!-- Generated by graphviz version 2.43.0 (0)
 -->
<!-- Title: src/Game.h Pages: 1 -->
<svg width="1108pt" height="476pt"
 viewBox="0.00 0.00 1107.66 476.00" xmlns="http://www.w3.org/2000/svg" xmlns:xlink="http://www.w3.org/1999/xlink">
<g id="graph0" class="graph" transform="scale(1 1) rotate(0) translate(4 472)">
<title>src/Game.h</title>
<polygon fill="white" stroke="transparent" points="-4,4 -4,-472 1103.66,-472 1103.66,4 -4,4"/>
<!-- Node1 -->
<g id="node1" class="node">
<title>Node1</title>
<g id="a_node1"><a xlink:title="Class for handling the game logic.">
<polygon fill="#bfbfbf" stroke="black" points="479.66,-448.5 479.66,-467.5 551.66,-467.5 551.66,-448.5 479.66,-448.5"/>
<text text-anchor="middle" x="515.66" y="-455.5" font-family="Helvetica,sans-Serif" font-size="10.00">src/Game.h</text>
</a>
</g>
</g>
<!-- Node2 -->
<g id="node2" class="node">
<title>Node2</title>
<g id="a_node2"><a xlink:title=" ">
<polygon fill="white" stroke="#bfbfbf" points="749.66,-168.5 749.66,-187.5 807.66,-187.5 807.66,-168.5 749.66,-168.5"/>
<text text-anchor="middle" x="778.66" y="-175.5" font-family="Helvetica,sans-Serif" font-size="10.00">memory</text>
</a>
</g>
</g>
<!-- Node1&#45;&gt;Node2 -->
<g id="edge1" class="edge">
<title>Node1&#45;&gt;Node2</title>
<path fill="none" stroke="midnightblue" d="M551.81,-451.14C629.55,-437.51 805.66,-400.71 805.66,-347 805.66,-347 805.66,-347 805.66,-289 805.66,-255.86 793.96,-218.68 785.97,-197.14"/>
<polygon fill="midnightblue" stroke="midnightblue" points="789.17,-195.73 782.31,-187.66 782.64,-198.25 789.17,-195.73"/>
</g>
<!-- Node3 -->
<g id="node3" class="node">
<title>Node3</title>
<g id="a_node3"><a xlink:title=" ">
<polygon fill="white" stroke="#bfbfbf" points="173.16,-56.5 173.16,-75.5 220.16,-75.5 220.16,-56.5 173.16,-56.5"/>
<text text-anchor="middle" x="196.66" y="-63.5" font-family="Helvetica,sans-Serif" font-size="10.00">vector</text>
</a>
</g>
</g>
<!-- Node1&#45;&gt;Node3 -->
<g id="edge2" class="edge">
<title>Node1&#45;&gt;Node3</title>
<path fill="none" stroke="midnightblue" d="M479.45,-457C362.23,-456.02 0.66,-445.05 0.66,-347 0.66,-347 0.66,-347 0.66,-177 0.66,-146.9 -1.99,-132.9 19.66,-112 39.98,-92.39 117.72,-78.28 163.13,-71.51"/>
<polygon fill="midnightblue" stroke="midnightblue" points="163.72,-74.97 173.11,-70.07 162.72,-68.04 163.72,-74.97"/>
</g>
<!-- Node4 -->
<g id="node4" class="node">
<title>Node4</title>
<g id="a_node4"><a xlink:href="GameObject_8h.html" target="_top" xlink:title="Base class for all game objects.">
<polygon fill="white" stroke="black" points="947.66,-224.5 947.66,-243.5 1033.66,-243.5 1033.66,-224.5 947.66,-224.5"/>
<text text-anchor="middle" x="990.66" y="-231.5" font-family="Helvetica,sans-Serif" font-size="10.00">GameObject.h</text>
</a>
</g>
</g>
<!-- Node1&#45;&gt;Node4 -->
<g id="edge3" class="edge">
<title>Node1&#45;&gt;Node4</title>
<path fill="none" stroke="midnightblue" d="M551.74,-455.62C650.95,-451.5 922.48,-437.95 952.66,-412 998.9,-372.25 996.88,-291.1 993.19,-254.12"/>
<polygon fill="midnightblue" stroke="midnightblue" points="996.62,-253.31 992,-243.78 989.67,-254.11 996.62,-253.31"/>
</g>
<!-- Node7 -->
<g id="node7" class="node">
<title>Node7</title>
<g id="a_node7"><a xlink:href="GamePhase_8h.html" target="_top" xlink:title="Handles the game phase and level.">
<polygon fill="white" stroke="black" points="985.66,-168.5 985.66,-187.5 1069.66,-187.5 1069.66,-168.5 985.66,-168.5"/>
<text text-anchor="middle" x="1027.66" y="-175.5" font-family="Helvetica,sans-Serif" font-size="10.00">GamePhase.h</text>
</a>
</g>
</g>
<!-- Node1&#45;&gt;Node7 -->
<g id="edge58" class="edge">
<title>Node1&#45;&gt;Node7</title>
<path fill="none" stroke="midnightblue" d="M551.7,-455.26C645.66,-450.45 896.28,-435.7 975.66,-412 1035.29,-394.2 1099.66,-409.22 1099.66,-347 1099.66,-347 1099.66,-347 1099.66,-289 1099.66,-249.94 1067.49,-213.94 1046.15,-194.37"/>
<polygon fill="midnightblue" stroke="midnightblue" points="1048.41,-191.7 1038.6,-187.7 1043.78,-196.94 1048.41,-191.7"/>
</g>
<!-- Node8 -->
<g id="node8" class="node">
<title>Node8</title>
<g id="a_node8"><a xlink:href="Config_8h.html" target="_top" xlink:title="Class for handling the game configuration.">
<polygon fill="white" stroke="black" points="132.66,-112.5 132.66,-131.5 188.66,-131.5 188.66,-112.5 132.66,-112.5"/>
<text text-anchor="middle" x="160.66" y="-119.5" font-family="Helvetica,sans-Serif" font-size="10.00">Config.h</text>
</a>
</g>
</g>
<!-- Node1&#45;&gt;Node8 -->
<g id="edge9" class="edge">
<title>Node1&#45;&gt;Node8</title>
<path fill="none" stroke="midnightblue" d="M479.4,-455.99C427.88,-453.4 331.48,-444.24 256.66,-412 212.34,-392.9 169.66,-395.27 169.66,-347 169.66,-347 169.66,-347 169.66,-233 169.66,-200.84 165.8,-163.57 163.13,-141.71"/>
<polygon fill="midnightblue" stroke="midnightblue" points="166.57,-141.02 161.84,-131.54 159.63,-141.9 166.57,-141.02"/>
</g>
<!-- Node11 -->
<g id="node11" class="node">
<title>Node11</title>
<g id="a_node11"><a xlink:href="Window_8h.html" target="_top" xlink:title="Class for handling ncurses windows.">
<polygon fill="white" stroke="black" points="417.66,-168.5 417.66,-187.5 481.66,-187.5 481.66,-168.5 417.66,-168.5"/>
<text text-anchor="middle" x="449.66" y="-175.5" font-family="Helvetica,sans-Serif" font-size="10.00">Window.h</text>
</a>
</g>
</g>
<!-- Node1&#45;&gt;Node11 -->
<g id="edge13" class="edge">
<title>Node1&#45;&gt;Node11</title>
<path fill="none" stroke="midnightblue" d="M479.6,-451.55C400.07,-438.52 216.66,-402.45 216.66,-347 216.66,-347 216.66,-347 216.66,-289 216.66,-205.78 339.73,-185.42 406.98,-180.51"/>
<polygon fill="midnightblue" stroke="midnightblue" points="407.51,-183.98 417.27,-179.85 407.06,-177 407.51,-183.98"/>
</g>
<!-- Node15 -->
<g id="node15" class="node">
<title>Node15</title>
<g id="a_node15"><a xlink:href="Player_8h.html" target="_top" xlink:title="Represents a player.">
<polygon fill="white" stroke="black" points="487.66,-336.5 487.66,-355.5 543.66,-355.5 543.66,-336.5 487.66,-336.5"/>
<text text-anchor="middle" x="515.66" y="-343.5" font-family="Helvetica,sans-Serif" font-size="10.00">Player.h</text>
</a>
</g>
</g>
<!-- Node1&#45;&gt;Node15 -->
<g id="edge23" class="edge">
<title>Node1&#45;&gt;Node15</title>
<path fill="none" stroke="midnightblue" d="M515.66,-448.37C515.66,-430.62 515.66,-389.67 515.66,-365.6"/>
<polygon fill="midnightblue" stroke="midnightblue" points="519.16,-365.59 515.66,-355.59 512.16,-365.59 519.16,-365.59"/>
</g>
<!-- Node17 -->
<g id="node17" class="node">
<title>Node17</title>
<g id="a_node17"><a xlink:href="Map_8h.html" target="_top" xlink:title="Class for handling the game map.">
<polygon fill="white" stroke="black" points="442.16,-224.5 442.16,-243.5 489.16,-243.5 489.16,-224.5 442.16,-224.5"/>
<text text-anchor="middle" x="465.66" y="-231.5" font-family="Helvetica,sans-Serif" font-size="10.00">Map.h</text>
</a>
</g>
</g>
<!-- Node1&#45;&gt;Node17 -->
<g id="edge46" class="edge">
<title>Node1&#45;&gt;Node17</title>
<path fill="none" stroke="midnightblue" d="M510.15,-448.49C499.49,-431.61 476.1,-392.35 464.66,-356 457.12,-332.02 458.45,-325.08 456.66,-300 456.03,-291.13 455.79,-288.85 456.66,-280 457.54,-271.17 459.36,-261.51 461.13,-253.4"/>
<polygon fill="midnightblue" stroke="midnightblue" points="464.56,-254.08 463.43,-243.55 457.75,-252.49 464.56,-254.08"/>
</g>
<!-- Node18 -->
<g id="node18" class="node">
<title>Node18</title>
<g id="a_node18"><a xlink:href="Ghost_8h.html" target="_top" xlink:title="Represents a ghost enemy.">
<polygon fill="white" stroke="black" points="564.66,-392.5 564.66,-411.5 618.66,-411.5 618.66,-392.5 564.66,-392.5"/>
<text text-anchor="middle" x="591.66" y="-399.5" font-family="Helvetica,sans-Serif" font-size="10.00">Ghost.h</text>
</a>
</g>
</g>
<!-- Node1&#45;&gt;Node18 -->
<g id="edge36" class="edge">
<title>Node1&#45;&gt;Node18</title>
<path fill="none" stroke="midnightblue" d="M527.87,-448.32C539.44,-440.11 557.04,-427.6 570.82,-417.81"/>
<polygon fill="midnightblue" stroke="midnightblue" points="573.11,-420.48 579.23,-411.83 569.05,-414.77 573.11,-420.48"/>
</g>
<!-- Node20 -->
<g id="node20" class="node">
<title>Node20</title>
<g id="a_node20"><a xlink:href="Leaderboard_8h.html" target="_top" xlink:title="Class for handling the game leaderboard.">
<polygon fill="white" stroke="black" points="28.66,-112.5 28.66,-131.5 114.66,-131.5 114.66,-112.5 28.66,-112.5"/>
<text text-anchor="middle" x="71.66" y="-119.5" font-family="Helvetica,sans-Serif" font-size="10.00">Leaderboard.h</text>
</a>
</g>
</g>
<!-- Node1&#45;&gt;Node20 -->
<g id="edge47" class="edge">
<title>Node1&#45;&gt;Node20</title>
<path fill="none" stroke="midnightblue" d="M479.66,-455.23C378.27,-449.28 97.66,-425.7 97.66,-347 97.66,-347 97.66,-347 97.66,-233 97.66,-199.93 86.4,-162.73 78.7,-141.17"/>
<polygon fill="midnightblue" stroke="midnightblue" points="81.93,-139.83 75.17,-131.68 75.37,-142.27 81.93,-139.83"/>
</g>
<!-- Node21 -->
<g id="node21" class="node">
<title>Node21</title>
<g id="a_node21"><a xlink:href="InteractiveObject_8h.html" target="_top" xlink:title="Base class for all interactive objects.">
<polygon fill="white" stroke="black" points="833.66,-392.5 833.66,-411.5 943.66,-411.5 943.66,-392.5 833.66,-392.5"/>
<text text-anchor="middle" x="888.66" y="-399.5" font-family="Helvetica,sans-Serif" font-size="10.00">InteractiveObject.h</text>
</a>
</g>
</g>
<!-- Node1&#45;&gt;Node21 -->
<g id="edge51" class="edge">
<title>Node1&#45;&gt;Node21</title>
<path fill="none" stroke="midnightblue" d="M551.77,-451.77C614.5,-442.69 744.44,-423.88 823.34,-412.46"/>
<polygon fill="midnightblue" stroke="midnightblue" points="824.26,-415.86 833.65,-410.96 823.25,-408.93 824.26,-415.86"/>
</g>
<!-- Node4&#45;&gt;Node2 -->
<g id="edge8" class="edge">
<title>Node4&#45;&gt;Node2</title>
<path fill="none" stroke="midnightblue" d="M957.07,-224.44C919.16,-214.79 857.57,-199.1 817.59,-188.92"/>
<polygon fill="midnightblue" stroke="midnightblue" points="818.22,-185.47 807.67,-186.39 816.5,-192.25 818.22,-185.47"/>
</g>
<!-- Node5 -->
<g id="node5" class="node">
<title>Node5</title>
<g id="a_node5"><a xlink:href="Enums_8h.html" target="_top" xlink:title=" ">
<polygon fill="white" stroke="black" points="690.16,-56.5 690.16,-75.5 749.16,-75.5 749.16,-56.5 690.16,-56.5"/>
<text text-anchor="middle" x="719.66" y="-63.5" font-family="Helvetica,sans-Serif" font-size="10.00">Enums.h</text>
</a>
</g>
</g>
<!-- Node4&#45;&gt;Node5 -->
<g id="edge4" class="edge">
<title>Node4&#45;&gt;Node5</title>
<path fill="none" stroke="midnightblue" d="M987.66,-224.15C978.89,-198.86 952.79,-127.12 933.66,-112 907.08,-90.99 813.53,-77.4 759.32,-71.1"/>
<polygon fill="midnightblue" stroke="midnightblue" points="759.69,-67.62 749.36,-69.97 758.9,-74.57 759.69,-67.62"/>
</g>
<!-- Node4&#45;&gt;Node7 -->
<g id="edge6" class="edge">
<title>Node4&#45;&gt;Node7</title>
<path fill="none" stroke="midnightblue" d="M996.77,-224.08C1001.95,-216.53 1009.51,-205.49 1015.86,-196.23"/>
<polygon fill="midnightblue" stroke="midnightblue" points="1018.9,-197.98 1021.67,-187.75 1013.13,-194.02 1018.9,-197.98"/>
</g>
<!-- Node6 -->
<g id="node6" class="node">
<title>Node6</title>
<g id="a_node6"><a xlink:title=" ">
<polygon fill="white" stroke="#bfbfbf" points="697.16,-0.5 697.16,-19.5 742.16,-19.5 742.16,-0.5 697.16,-0.5"/>
<text text-anchor="middle" x="719.66" y="-7.5" font-family="Helvetica,sans-Serif" font-size="10.00">utility</text>
</a>
</g>
</g>
<!-- Node5&#45;&gt;Node6 -->
<g id="edge5" class="edge">
<title>Node5&#45;&gt;Node6</title>
<path fill="none" stroke="midnightblue" d="M719.66,-56.08C719.66,-49.01 719.66,-38.86 719.66,-29.99"/>
<polygon fill="midnightblue" stroke="midnightblue" points="723.16,-29.75 719.66,-19.75 716.16,-29.75 723.16,-29.75"/>
</g>
<!-- Node7&#45;&gt;Node5 -->
<g id="edge7" class="edge">
<title>Node7&#45;&gt;Node5</title>
<path fill="none" stroke="midnightblue" d="M1022.79,-168.16C1014.39,-153.82 995.73,-125.72 971.66,-112 904.3,-73.59 811.7,-66.64 759.56,-66.1"/>
<polygon fill="midnightblue" stroke="midnightblue" points="759.39,-62.6 749.38,-66.07 759.37,-69.6 759.39,-62.6"/>
</g>
<!-- Node8&#45;&gt;Node3 -->
<g id="edge12" class="edge">
<title>Node8&#45;&gt;Node3</title>
<path fill="none" stroke="midnightblue" d="M166.61,-112.08C171.64,-104.53 179,-93.49 185.18,-84.23"/>
<polygon fill="midnightblue" stroke="midnightblue" points="188.2,-86.01 190.83,-75.75 182.37,-82.13 188.2,-86.01"/>
</g>
<!-- Node9 -->
<g id="node9" class="node">
<title>Node9</title>
<g id="a_node9"><a xlink:title=" ">
<polygon fill="white" stroke="#bfbfbf" points="252.66,-56.5 252.66,-75.5 296.66,-75.5 296.66,-56.5 252.66,-56.5"/>
<text text-anchor="middle" x="274.66" y="-63.5" font-family="Helvetica,sans-Serif" font-size="10.00">string</text>
</a>
</g>
</g>
<!-- Node8&#45;&gt;Node9 -->
<g id="edge10" class="edge">
<title>Node8&#45;&gt;Node9</title>
<path fill="none" stroke="midnightblue" d="M178.73,-112.44C197.24,-103.68 226.24,-89.94 247.52,-79.86"/>
<polygon fill="midnightblue" stroke="midnightblue" points="249.15,-82.96 256.68,-75.52 246.15,-76.63 249.15,-82.96"/>
</g>
<!-- Node10 -->
<g id="node10" class="node">
<title>Node10</title>
<g id="a_node10"><a xlink:title=" ">
<polygon fill="white" stroke="#bfbfbf" points="87.66,-56.5 87.66,-75.5 125.66,-75.5 125.66,-56.5 87.66,-56.5"/>
<text text-anchor="middle" x="106.66" y="-63.5" font-family="Helvetica,sans-Serif" font-size="10.00">map</text>
</a>
</g>
</g>
<!-- Node8&#45;&gt;Node10 -->
<g id="edge11" class="edge">
<title>Node8&#45;&gt;Node10</title>
<path fill="none" stroke="midnightblue" d="M151.75,-112.08C143.88,-104.22 132.23,-92.57 122.75,-83.08"/>
<polygon fill="midnightblue" stroke="midnightblue" points="124.96,-80.35 115.42,-75.75 120.01,-85.3 124.96,-80.35"/>
</g>
<!-- Node11&#45;&gt;Node3 -->
<g id="edge17" class="edge">
<title>Node11&#45;&gt;Node3</title>
<path fill="none" stroke="midnightblue" d="M417.48,-168.48C389.07,-160.49 346.83,-147.49 311.66,-132 277.91,-117.13 241.17,-95.29 218.53,-81.1"/>
<polygon fill="midnightblue" stroke="midnightblue" points="220.34,-78.11 210.01,-75.72 216.59,-84.02 220.34,-78.11"/>
</g>
<!-- Node11&#45;&gt;Node5 -->
<g id="edge18" class="edge">
<title>Node11&#45;&gt;Node5</title>
<path fill="none" stroke="midnightblue" d="M466.52,-168.4C492.42,-155.36 543.71,-130.17 588.66,-112 619.8,-99.41 655.95,-87.17 682.38,-78.64"/>
<polygon fill="midnightblue" stroke="midnightblue" points="683.55,-81.94 692,-75.56 681.41,-75.27 683.55,-81.94"/>
</g>
<!-- Node11&#45;&gt;Node9 -->
<g id="edge15" class="edge">
<title>Node11&#45;&gt;Node9</title>
<path fill="none" stroke="midnightblue" d="M457.95,-168.13C469.44,-154.74 487.33,-129.1 473.66,-112 453.17,-86.36 358.07,-74.26 307.11,-69.53"/>
<polygon fill="midnightblue" stroke="midnightblue" points="307.22,-66.03 296.95,-68.63 306.6,-73 307.22,-66.03"/>
</g>
<!-- Node12 -->
<g id="node12" class="node">
<title>Node12</title>
<g id="a_node12"><a xlink:title=" ">
<polygon fill="white" stroke="#bfbfbf" points="321.16,-112.5 321.16,-131.5 384.16,-131.5 384.16,-112.5 321.16,-112.5"/>
<text text-anchor="middle" x="352.66" y="-119.5" font-family="Helvetica,sans-Serif" font-size="10.00">ncurses.h</text>
</a>
</g>
</g>
<!-- Node11&#45;&gt;Node12 -->
<g id="edge14" class="edge">
<title>Node11&#45;&gt;Node12</title>
<path fill="none" stroke="midnightblue" d="M434.08,-168.32C418.66,-159.74 394.85,-146.49 376.95,-136.52"/>
<polygon fill="midnightblue" stroke="midnightblue" points="378.65,-133.46 368.21,-131.65 375.24,-139.58 378.65,-133.46"/>
</g>
<!-- Node13 -->
<g id="node13" class="node">
<title>Node13</title>
<g id="a_node13"><a xlink:title=" ">
<polygon fill="white" stroke="#bfbfbf" points="597.66,-112.5 597.66,-131.5 653.66,-131.5 653.66,-112.5 597.66,-112.5"/>
<text text-anchor="middle" x="625.66" y="-119.5" font-family="Helvetica,sans-Serif" font-size="10.00">optional</text>
</a>
</g>
</g>
<!-- Node11&#45;&gt;Node13 -->
<g id="edge16" class="edge">
<title>Node11&#45;&gt;Node13</title>
<path fill="none" stroke="midnightblue" d="M477.55,-168.44C507.42,-159.28 554.98,-144.69 588.12,-134.52"/>
<polygon fill="midnightblue" stroke="midnightblue" points="589.37,-137.8 597.91,-131.52 587.32,-131.1 589.37,-137.8"/>
</g>
<!-- Node14 -->
<g id="node14" class="node">
<title>Node14</title>
<g id="a_node14"><a xlink:href="Helpers_8h.html" target="_top" xlink:title=" ">
<polygon fill="white" stroke="black" points="402.16,-112.5 402.16,-131.5 465.16,-131.5 465.16,-112.5 402.16,-112.5"/>
<text text-anchor="middle" x="433.66" y="-119.5" font-family="Helvetica,sans-Serif" font-size="10.00">Helpers.h</text>
</a>
</g>
</g>
<!-- Node11&#45;&gt;Node14 -->
<g id="edge19" class="edge">
<title>Node11&#45;&gt;Node14</title>
<path fill="none" stroke="midnightblue" d="M447.02,-168.08C444.88,-160.85 441.79,-150.41 439.11,-141.4"/>
<polygon fill="midnightblue" stroke="midnightblue" points="442.45,-140.34 436.26,-131.75 435.74,-142.33 442.45,-140.34"/>
</g>
<!-- Node14&#45;&gt;Node3 -->
<g id="edge22" class="edge">
<title>Node14&#45;&gt;Node3</title>
<path fill="none" stroke="midnightblue" d="M401.7,-113.72C356.92,-103.51 275.9,-85.05 230.26,-74.65"/>
<polygon fill="midnightblue" stroke="midnightblue" points="230.8,-71.19 220.27,-72.38 229.24,-78.01 230.8,-71.19"/>
</g>
<!-- Node14&#45;&gt;Node5 -->
<g id="edge20" class="edge">
<title>Node14&#45;&gt;Node5</title>
<path fill="none" stroke="midnightblue" d="M465.36,-115.01C517.8,-105.11 622.5,-85.35 679.84,-74.52"/>
<polygon fill="midnightblue" stroke="midnightblue" points="680.8,-77.9 689.98,-72.61 679.5,-71.02 680.8,-77.9"/>
</g>
<!-- Node14&#45;&gt;Node9 -->
<g id="edge21" class="edge">
<title>Node14&#45;&gt;Node9</title>
<path fill="none" stroke="midnightblue" d="M408.47,-112.44C380.78,-103.04 336.24,-87.91 306.24,-77.72"/>
<polygon fill="midnightblue" stroke="midnightblue" points="307.26,-74.37 296.67,-74.47 305.01,-81 307.26,-74.37"/>
</g>
<!-- Node15&#45;&gt;Node9 -->
<g id="edge35" class="edge">
<title>Node15&#45;&gt;Node9</title>
<path fill="none" stroke="midnightblue" d="M487.48,-345.64C420,-345.58 254.66,-335.19 254.66,-235 254.66,-235 254.66,-235 254.66,-177 254.66,-144.44 263.25,-107.32 269.17,-85.59"/>
<polygon fill="midnightblue" stroke="midnightblue" points="272.61,-86.32 271.97,-75.74 265.87,-84.41 272.61,-86.32"/>
</g>
<!-- Node16 -->
<g id="node16" class="node">
<title>Node16</title>
<g id="a_node16"><a xlink:href="MovingObject_8h.html" target="_top" xlink:title="Base class for all moving objects.">
<polygon fill="white" stroke="black" points="646.16,-280.5 646.16,-299.5 739.16,-299.5 739.16,-280.5 646.16,-280.5"/>
<text text-anchor="middle" x="692.66" y="-287.5" font-family="Helvetica,sans-Serif" font-size="10.00">MovingObject.h</text>
</a>
</g>
</g>
<!-- Node15&#45;&gt;Node16 -->
<g id="edge24" class="edge">
<title>Node15&#45;&gt;Node16</title>
<path fill="none" stroke="midnightblue" d="M543.71,-336.44C573.75,-327.28 621.58,-312.69 654.91,-302.52"/>
<polygon fill="midnightblue" stroke="midnightblue" points="656.21,-305.78 664.75,-299.52 654.16,-299.09 656.21,-305.78"/>
</g>
<!-- Node15&#45;&gt;Node17 -->
<g id="edge34" class="edge">
<title>Node15&#45;&gt;Node17</title>
<path fill="none" stroke="midnightblue" d="M511.74,-336.37C503.6,-318.46 484.72,-276.92 473.82,-252.95"/>
<polygon fill="midnightblue" stroke="midnightblue" points="476.89,-251.25 469.57,-243.59 470.52,-254.14 476.89,-251.25"/>
</g>
<!-- Node16&#45;&gt;Node2 -->
<g id="edge27" class="edge">
<title>Node16&#45;&gt;Node2</title>
<path fill="none" stroke="midnightblue" d="M699.41,-280.37C713.67,-262.14 747.06,-219.43 765.63,-195.68"/>
<polygon fill="midnightblue" stroke="midnightblue" points="768.55,-197.63 771.95,-187.59 763.03,-193.31 768.55,-197.63"/>
</g>
<!-- Node16&#45;&gt;Node4 -->
<g id="edge25" class="edge">
<title>Node16&#45;&gt;Node4</title>
<path fill="none" stroke="midnightblue" d="M739.23,-280.56C792.85,-270.84 880.8,-254.91 937.19,-244.69"/>
<polygon fill="midnightblue" stroke="midnightblue" points="938.12,-248.08 947.33,-242.85 936.87,-241.19 938.12,-248.08"/>
</g>
<!-- Node16&#45;&gt;Node5 -->
<g id="edge26" class="edge">
<title>Node16&#45;&gt;Node5</title>
<path fill="none" stroke="midnightblue" d="M693.72,-280.3C697.7,-247.63 711.77,-131.87 717.36,-85.96"/>
<polygon fill="midnightblue" stroke="midnightblue" points="720.85,-86.23 718.58,-75.88 713.9,-85.39 720.85,-86.23"/>
</g>
<!-- Node16&#45;&gt;Node7 -->
<g id="edge33" class="edge">
<title>Node16&#45;&gt;Node7</title>
<path fill="none" stroke="midnightblue" d="M718.67,-280.46C778.04,-260.97 923.63,-213.16 991.61,-190.84"/>
<polygon fill="midnightblue" stroke="midnightblue" points="993.03,-194.06 1001.44,-187.61 990.85,-187.4 993.03,-194.06"/>
</g>
<!-- Node16&#45;&gt;Node13 -->
<g id="edge28" class="edge">
<title>Node16&#45;&gt;Node13</title>
<path fill="none" stroke="midnightblue" d="M677.32,-280.46C664.93,-272.67 648.2,-259.97 639.66,-244 622.19,-211.32 622.08,-166.68 623.75,-141.77"/>
<polygon fill="midnightblue" stroke="midnightblue" points="627.26,-141.8 624.61,-131.54 620.28,-141.21 627.26,-141.8"/>
</g>
<!-- Node16&#45;&gt;Node17 -->
<g id="edge29" class="edge">
<title>Node16&#45;&gt;Node17</title>
<path fill="none" stroke="midnightblue" d="M656.7,-280.44C613.39,-270.14 541.23,-252.97 499.09,-242.95"/>
<polygon fill="midnightblue" stroke="midnightblue" points="499.85,-239.53 489.31,-240.62 498.23,-246.34 499.85,-239.53"/>
</g>
<!-- Node17&#45;&gt;Node3 -->
<g id="edge31" class="edge">
<title>Node17&#45;&gt;Node3</title>
<path fill="none" stroke="midnightblue" d="M444.83,-224.47C407.75,-208.83 328.61,-173.37 268.66,-132 247.58,-117.45 226.12,-97.23 212.19,-83.23"/>
<polygon fill="midnightblue" stroke="midnightblue" points="214.41,-80.49 204.91,-75.79 209.4,-85.39 214.41,-80.49"/>
</g>
<!-- Node17&#45;&gt;Node9 -->
<g id="edge30" class="edge">
<title>Node17&#45;&gt;Node9</title>
<path fill="none" stroke="midnightblue" d="M471.76,-224.25C486,-202.63 518.27,-145.95 490.66,-112 467.89,-84 361.61,-72.84 307.1,-68.9"/>
<polygon fill="midnightblue" stroke="midnightblue" points="307.14,-65.39 296.93,-68.2 306.67,-72.38 307.14,-65.39"/>
</g>
<!-- Node17&#45;&gt;Node11 -->
<g id="edge32" class="edge">
<title>Node17&#45;&gt;Node11</title>
<path fill="none" stroke="midnightblue" d="M463.02,-224.08C460.88,-216.85 457.79,-206.41 455.11,-197.4"/>
<polygon fill="midnightblue" stroke="midnightblue" points="458.45,-196.34 452.26,-187.75 451.74,-198.33 458.45,-196.34"/>
</g>
<!-- Node18&#45;&gt;Node2 -->
<g id="edge43" class="edge">
<title>Node18&#45;&gt;Node2</title>
<path fill="none" stroke="midnightblue" d="M617.96,-392.38C639.21,-384.71 669.32,-372.2 692.66,-356 721.32,-336.11 730.52,-330.38 747.66,-300 766.24,-267.06 773.9,-222.85 776.89,-198.01"/>
<polygon fill="midnightblue" stroke="midnightblue" points="780.4,-198.1 777.98,-187.79 773.44,-197.36 780.4,-198.1"/>
</g>
<!-- Node18&#45;&gt;Node15 -->
<g id="edge44" class="edge">
<title>Node18&#45;&gt;Node15</title>
<path fill="none" stroke="midnightblue" d="M579.45,-392.32C567.89,-384.11 550.29,-371.6 536.5,-361.81"/>
<polygon fill="midnightblue" stroke="midnightblue" points="538.28,-358.77 528.1,-355.83 534.22,-364.48 538.28,-358.77"/>
</g>
<!-- Node18&#45;&gt;Node16 -->
<g id="edge37" class="edge">
<title>Node18&#45;&gt;Node16</title>
<path fill="none" stroke="midnightblue" d="M617.75,-392.43C635.59,-385.31 658.48,-373.5 672.66,-356 683.46,-342.68 688.44,-323.56 690.73,-309.51"/>
<polygon fill="midnightblue" stroke="midnightblue" points="694.21,-309.9 692.05,-299.53 687.27,-308.98 694.21,-309.9"/>
</g>
<!-- Node18&#45;&gt;Node17 -->
<g id="edge45" class="edge">
<title>Node18&#45;&gt;Node17</title>
<path fill="none" stroke="midnightblue" d="M564.53,-398.11C538.13,-393.76 499.1,-382.91 478.66,-356 455.96,-326.1 458.51,-279.41 462.2,-253.64"/>
<polygon fill="midnightblue" stroke="midnightblue" points="465.66,-254.14 463.83,-243.7 458.75,-253 465.66,-254.14"/>
</g>
<!-- Node19 -->
<g id="node19" class="node">
<title>Node19</title>
<g id="a_node19"><a xlink:href="EnemyBehavior_8h.html" target="_top" xlink:title="Base class for all enemy behaviors.">
<polygon fill="white" stroke="black" points="561.66,-336.5 561.66,-355.5 663.66,-355.5 663.66,-336.5 561.66,-336.5"/>
<text text-anchor="middle" x="612.66" y="-343.5" font-family="Helvetica,sans-Serif" font-size="10.00">EnemyBehavior.h</text>
</a>
</g>
</g>
<!-- Node18&#45;&gt;Node19 -->
<g id="edge38" class="edge">
<title>Node18&#45;&gt;Node19</title>
<path fill="none" stroke="midnightblue" d="M595.13,-392.08C597.98,-384.77 602.09,-374.18 605.62,-365.1"/>
<polygon fill="midnightblue" stroke="midnightblue" points="608.9,-366.34 609.26,-355.75 602.37,-363.8 608.9,-366.34"/>
</g>
<!-- Node19&#45;&gt;Node2 -->
<g id="edge41" class="edge">
<title>Node19&#45;&gt;Node2</title>
<path fill="none" stroke="midnightblue" d="M614.19,-336.2C616.84,-322.91 623.36,-297.39 636.66,-280 667.65,-239.5 719.4,-208.55 751.13,-192.13"/>
<polygon fill="midnightblue" stroke="midnightblue" points="752.94,-195.13 760.29,-187.5 749.78,-188.88 752.94,-195.13"/>
</g>
<!-- Node19&#45;&gt;Node5 -->
<g id="edge40" class="edge">
<title>Node19&#45;&gt;Node5</title>
<path fill="none" stroke="midnightblue" d="M613.05,-336.42C613.8,-323.82 615.91,-299.68 621.66,-280 643.91,-203.9 689.03,-120.3 709.35,-84.66"/>
<polygon fill="midnightblue" stroke="midnightblue" points="712.63,-85.98 714.59,-75.57 706.56,-82.48 712.63,-85.98"/>
</g>
<!-- Node19&#45;&gt;Node16 -->
<g id="edge42" class="edge">
<title>Node19&#45;&gt;Node16</title>
<path fill="none" stroke="midnightblue" d="M625.52,-336.32C637.88,-327.98 656.79,-315.21 671.4,-305.35"/>
<polygon fill="midnightblue" stroke="midnightblue" points="673.51,-308.15 679.84,-299.65 669.6,-302.35 673.51,-308.15"/>
</g>
<!-- Node19&#45;&gt;Node17 -->
<g id="edge39" class="edge">
<title>Node19&#45;&gt;Node17</title>
<path fill="none" stroke="midnightblue" d="M601.13,-336.37C576.12,-317.65 516.65,-273.15 485.49,-249.83"/>
<polygon fill="midnightblue" stroke="midnightblue" points="487.25,-246.78 477.15,-243.59 483.05,-252.39 487.25,-246.78"/>
</g>
<!-- Node20&#45;&gt;Node3 -->
<g id="edge48" class="edge">
<title>Node20&#45;&gt;Node3</title>
<path fill="none" stroke="midnightblue" d="M91.47,-112.44C111.95,-103.6 144.15,-89.69 167.53,-79.59"/>
<polygon fill="midnightblue" stroke="midnightblue" points="169.16,-82.7 176.95,-75.52 166.38,-76.27 169.16,-82.7"/>
</g>
<!-- Node20&#45;&gt;Node9 -->
<g id="edge49" class="edge">
<title>Node20&#45;&gt;Node9</title>
<path fill="none" stroke="midnightblue" d="M103.83,-112.44C141.84,-102.33 204.71,-85.61 242.66,-75.51"/>
<polygon fill="midnightblue" stroke="midnightblue" points="243.89,-78.81 252.66,-72.85 242.1,-72.04 243.89,-78.81"/>
</g>
<!-- Node20&#45;&gt;Node10 -->
<g id="edge50" class="edge">
<title>Node20&#45;&gt;Node10</title>
<path fill="none" stroke="midnightblue" d="M77.44,-112.08C82.34,-104.53 89.49,-93.49 95.5,-84.23"/>
<polygon fill="midnightblue" stroke="midnightblue" points="98.49,-86.05 100.99,-75.75 92.62,-82.24 98.49,-86.05"/>
</g>
<!-- Node21&#45;&gt;Node2 -->
<g id="edge54" class="edge">
<title>Node21&#45;&gt;Node2</title>
<path fill="none" stroke="midnightblue" d="M886.52,-392.38C879.66,-365.81 856.53,-283.41 819.66,-224 813.14,-213.49 804.02,-203.19 796.03,-195.1"/>
<polygon fill="midnightblue" stroke="midnightblue" points="798.17,-192.29 788.57,-187.82 793.28,-197.31 798.17,-192.29"/>
</g>
<!-- Node21&#45;&gt;Node4 -->
<g id="edge52" class="edge">
<title>Node21&#45;&gt;Node4</title>
<path fill="none" stroke="midnightblue" d="M899.36,-392.22C909.21,-383.73 923.75,-370.1 933.66,-356 957.17,-322.58 975.29,-277.93 984.32,-253.29"/>
<polygon fill="midnightblue" stroke="midnightblue" points="987.66,-254.35 987.73,-243.76 981.07,-252 987.66,-254.35"/>
</g>
<!-- Node21&#45;&gt;Node5 -->
<g id="edge53" class="edge">
<title>Node21&#45;&gt;Node5</title>
<path fill="none" stroke="midnightblue" d="M892.84,-392.39C901.31,-374.16 919.66,-330.09 919.66,-291 919.66,-291 919.66,-291 919.66,-177 919.66,-104.48 817.45,-79.43 759.17,-71.04"/>
<polygon fill="midnightblue" stroke="midnightblue" points="759.55,-67.56 749.17,-69.7 758.62,-74.5 759.55,-67.56"/>
</g>
<!-- Node21&#45;&gt;Node7 -->
<g id="edge57" class="edge">
<title>Node21&#45;&gt;Node7</title>
<path fill="none" stroke="midnightblue" d="M903.46,-392.42C936.95,-371.95 1017.58,-316.53 1042.66,-244 1048.04,-228.45 1042.83,-210.15 1037.13,-196.93"/>
<polygon fill="midnightblue" stroke="midnightblue" points="1040.13,-195.08 1032.65,-187.58 1033.81,-198.11 1040.13,-195.08"/>
</g>
<!-- Node21&#45;&gt;Node15 -->
<g id="edge56" class="edge">
<title>Node21&#45;&gt;Node15</title>
<path fill="none" stroke="midnightblue" d="M833.38,-395.41C768.64,-388.45 658.03,-375.32 553.93,-356.07"/>
<polygon fill="midnightblue" stroke="midnightblue" points="554.35,-352.59 543.88,-354.19 553.06,-359.47 554.35,-352.59"/>
</g>
<!-- Node21&#45;&gt;Node16 -->
<g id="edge55" class="edge">
<title>Node21&#45;&gt;Node16</title>
<path fill="none" stroke="midnightblue" d="M873.28,-392.37C839.29,-373.29 757.56,-327.42 716.73,-304.51"/>
<polygon fill="midnightblue" stroke="midnightblue" points="718.41,-301.43 707.97,-299.59 714.98,-307.54 718.41,-301.43"/>
</g>
</g>
</svg>
