<?xml version="1.0" encoding="UTF-8" standalone="no"?>
<!DOCTYPE svg PUBLIC "-//W3C//DTD SVG 1.1//EN"
 "http://www.w3.org/Graphics/SVG/1.1/DTD/svg11.dtd">
<!-- Generated by graphviz version 10.0.1 (0)
 -->
<!-- Title: src/GameObject.h Pages: 1 -->
<svg width="1179pt" height="364pt"
 viewBox="0.00 0.00 1178.75 364.00" xmlns="http://www.w3.org/2000/svg" xmlns:xlink="http://www.w3.org/1999/xlink">
<g id="graph0" class="graph" transform="scale(1 1) rotate(0) translate(4 360)">
<title>src/GameObject.h</title>
<!-- Node1 -->
<g id="Node000001" class="node">
<title>Node1</title>
<g id="a_Node000001"><a xlink:title="Base class for all game objects.">
<polygon fill="#999999" stroke="#666666" points="485.25,-356 389.75,-356 389.75,-336 485.25,-336 485.25,-356"/>
<text text-anchor="middle" x="437.5" y="-342.5" font-family="Helvetica,sans-Serif" font-size="10.00">src/GameObject.h</text>
</a>
</g>
</g>
<!-- Node2 -->
<g id="Node000002" class="node">
<title>Node2</title>
<g id="a_Node000002"><a xlink:href="Game_8h.html" target="_top" xlink:title="Class for handling the game logic.">
<polygon fill="white" stroke="#666666" points="573,-132 506,-132 506,-112 573,-112 573,-132"/>
<text text-anchor="middle" x="539.5" y="-118.5" font-family="Helvetica,sans-Serif" font-size="10.00">src/Game.h</text>
</a>
</g>
</g>
<!-- Node1&#45;&gt;Node2 -->
<g id="edge1_Node000001_Node000002" class="edge">
<title>Node1&#45;&gt;Node2</title>
<g id="a_edge1_Node000001_Node000002"><a xlink:title=" ">
<path fill="none" stroke="#63b8ff" d="M424.77,-326.56C402.67,-292.05 362.84,-216.82 398.5,-168 405,-159.1 466.07,-141.93 505.68,-131.56"/>
<polygon fill="#63b8ff" stroke="#63b8ff" points="421.67,-328.22 430.12,-334.62 427.51,-324.36 421.67,-328.22"/>
</a>
</g>
</g>
<!-- Node7 -->
<g id="Node000007" class="node">
<title>Node7</title>
<g id="a_Node000007"><a xlink:href="GameObject_8cpp.html" target="_top" xlink:title="Base class for all game objects.">
<polygon fill="white" stroke="#666666" points="661.5,-300 555.5,-300 555.5,-280 661.5,-280 661.5,-300"/>
<text text-anchor="middle" x="608.5" y="-286.5" font-family="Helvetica,sans-Serif" font-size="10.00">src/GameObject.cpp</text>
</a>
</g>
</g>
<!-- Node1&#45;&gt;Node7 -->
<g id="edge6_Node000001_Node000007" class="edge">
<title>Node1&#45;&gt;Node7</title>
<g id="a_edge6_Node000001_Node000007"><a xlink:title=" ">
<path fill="none" stroke="#63b8ff" d="M478.1,-332.18C508.93,-322.44 550.62,-309.28 578.48,-300.48"/>
<polygon fill="#63b8ff" stroke="#63b8ff" points="477.21,-328.79 468.73,-335.14 479.32,-335.46 477.21,-328.79"/>
</a>
</g>
</g>
<!-- Node8 -->
<g id="Node000008" class="node">
<title>Node8</title>
<g id="a_Node000008"><a xlink:href="InteractiveObject_8h.html" target="_top" xlink:title="Base class for all interactive objects.">
<polygon fill="white" stroke="#666666" points="321,-188 206,-188 206,-168 321,-168 321,-188"/>
<text text-anchor="middle" x="263.5" y="-174.5" font-family="Helvetica,sans-Serif" font-size="10.00">src/InteractiveObject.h</text>
</a>
</g>
</g>
<!-- Node1&#45;&gt;Node8 -->
<g id="edge7_Node000001_Node000008" class="edge">
<title>Node1&#45;&gt;Node8</title>
<g id="a_edge7_Node000001_Node000008"><a xlink:title=" ">
<path fill="none" stroke="#63b8ff" d="M419.38,-327.71C382.83,-292.84 301.34,-215.1 273.25,-188.3"/>
<polygon fill="#63b8ff" stroke="#63b8ff" points="416.9,-330.18 426.55,-334.55 421.73,-325.12 416.9,-330.18"/>
</a>
</g>
</g>
<!-- Node18 -->
<g id="Node000018" class="node">
<title>Node18</title>
<g id="a_Node000018"><a xlink:href="MovingObject_8h.html" target="_top" xlink:title="Base class for all moving objects.">
<polygon fill="white" stroke="#666666" points="537.88,-300 437.12,-300 437.12,-280 537.88,-280 537.88,-300"/>
<text text-anchor="middle" x="487.5" y="-286.5" font-family="Helvetica,sans-Serif" font-size="10.00">src/MovingObject.h</text>
</a>
</g>
</g>
<!-- Node1&#45;&gt;Node18 -->
<g id="edge22_Node000001_Node000018" class="edge">
<title>Node1&#45;&gt;Node18</title>
<g id="a_edge22_Node000001_Node000018"><a xlink:title=" ">
<path fill="none" stroke="#63b8ff" d="M453.9,-327.29C462.24,-318.28 472.04,-307.7 478.89,-300.3"/>
<polygon fill="#63b8ff" stroke="#63b8ff" points="451.46,-324.77 447.24,-334.48 456.6,-329.52 451.46,-324.77"/>
</a>
</g>
</g>
<!-- Node3 -->
<g id="Node000003" class="node">
<title>Node3</title>
<g id="a_Node000003"><a xlink:href="Game_8cpp.html" target="_top" xlink:title="Class for handling the game logic.">
<polygon fill="white" stroke="#666666" points="368.25,-76 290.75,-76 290.75,-56 368.25,-56 368.25,-76"/>
<text text-anchor="middle" x="329.5" y="-62.5" font-family="Helvetica,sans-Serif" font-size="10.00">src/Game.cpp</text>
</a>
</g>
</g>
<!-- Node2&#45;&gt;Node3 -->
<g id="edge2_Node000002_Node000003" class="edge">
<title>Node2&#45;&gt;Node3</title>
<g id="a_edge2_Node000002_Node000003"><a xlink:title=" ">
<path fill="none" stroke="#63b8ff" d="M494.94,-109.54C456.67,-99.7 402.18,-85.69 366.34,-76.47"/>
<polygon fill="#63b8ff" stroke="#63b8ff" points="493.74,-112.85 504.29,-111.95 495.48,-106.07 493.74,-112.85"/>
</a>
</g>
</g>
<!-- Node4 -->
<g id="Node000004" class="node">
<title>Node4</title>
<g id="a_Node000004"><a xlink:href="GameManager_8h.html" target="_top" xlink:title="Handles the game loop and game states.">
<polygon fill="white" stroke="#666666" points="591.38,-76 487.62,-76 487.62,-56 591.38,-56 591.38,-76"/>
<text text-anchor="middle" x="539.5" y="-62.5" font-family="Helvetica,sans-Serif" font-size="10.00">src/GameManager.h</text>
</a>
</g>
</g>
<!-- Node2&#45;&gt;Node4 -->
<g id="edge3_Node000002_Node000004" class="edge">
<title>Node2&#45;&gt;Node4</title>
<g id="a_edge3_Node000002_Node000004"><a xlink:title=" ">
<path fill="none" stroke="#63b8ff" d="M539.5,-100.13C539.5,-91.9 539.5,-82.85 539.5,-76.3"/>
<polygon fill="#63b8ff" stroke="#63b8ff" points="536,-100.08 539.5,-110.08 543,-100.08 536,-100.08"/>
</a>
</g>
</g>
<!-- Node5 -->
<g id="Node000005" class="node">
<title>Node5</title>
<g id="a_Node000005"><a xlink:href="GameManager_8cpp.html" target="_top" xlink:title="Handles the game loop and game states.">
<polygon fill="white" stroke="#666666" points="540.62,-20 426.38,-20 426.38,0 540.62,0 540.62,-20"/>
<text text-anchor="middle" x="483.5" y="-6.5" font-family="Helvetica,sans-Serif" font-size="10.00">src/GameManager.cpp</text>
</a>
</g>
</g>
<!-- Node4&#45;&gt;Node5 -->
<g id="edge4_Node000004_Node000005" class="edge">
<title>Node4&#45;&gt;Node5</title>
<g id="a_edge4_Node000004_Node000005"><a xlink:title=" ">
<path fill="none" stroke="#63b8ff" d="M521.71,-47.85C512.25,-38.72 500.98,-27.86 493.14,-20.3"/>
<polygon fill="#63b8ff" stroke="#63b8ff" points="519.03,-50.12 528.66,-54.54 523.89,-45.08 519.03,-50.12"/>
</a>
</g>
</g>
<!-- Node6 -->
<g id="Node000006" class="node">
<title>Node6</title>
<g id="a_Node000006"><a xlink:href="main_8cpp.html" target="_top" xlink:title="Main function, initializes the game manager.">
<polygon fill="white" stroke="#666666" points="630.62,-20 558.38,-20 558.38,0 630.62,0 630.62,-20"/>
<text text-anchor="middle" x="594.5" y="-6.5" font-family="Helvetica,sans-Serif" font-size="10.00">src/main.cpp</text>
</a>
</g>
</g>
<!-- Node4&#45;&gt;Node6 -->
<g id="edge5_Node000004_Node000006" class="edge">
<title>Node4&#45;&gt;Node6</title>
<g id="a_edge5_Node000004_Node000006"><a xlink:title=" ">
<path fill="none" stroke="#63b8ff" d="M557.26,-47.57C566.49,-38.5 577.41,-27.78 585.03,-20.3"/>
<polygon fill="#63b8ff" stroke="#63b8ff" points="554.84,-45.03 550.16,-54.53 559.75,-50.03 554.84,-45.03"/>
</a>
</g>
</g>
<!-- Node8&#45;&gt;Node2 -->
<g id="edge14_Node000008_Node000002" class="edge">
<title>Node8&#45;&gt;Node2</title>
<g id="a_edge14_Node000008_Node000002"><a xlink:title=" ">
<path fill="none" stroke="#63b8ff" d="M325.49,-165.45C372.7,-156.56 439.26,-143.84 497.5,-132 500.13,-131.47 502.85,-130.9 505.59,-130.33"/>
<polygon fill="#63b8ff" stroke="#63b8ff" points="324.9,-162 315.72,-167.28 326.19,-168.88 324.9,-162"/>
</a>
</g>
</g>
<!-- Node9 -->
<g id="Node000009" class="node">
<title>Node9</title>
<g id="a_Node000009"><a xlink:href="Cherry_8h.html" target="_top" xlink:title="Class representing a cherry collectible.">
<polygon fill="white" stroke="#666666" points="94.75,-132 26.25,-132 26.25,-112 94.75,-112 94.75,-132"/>
<text text-anchor="middle" x="60.5" y="-118.5" font-family="Helvetica,sans-Serif" font-size="10.00">src/Cherry.h</text>
</a>
</g>
</g>
<!-- Node8&#45;&gt;Node9 -->
<g id="edge8_Node000008_Node000009" class="edge">
<title>Node8&#45;&gt;Node9</title>
<g id="a_edge8_Node000008_Node000009"><a xlink:title=" ">
<path fill="none" stroke="#63b8ff" d="M217.11,-164.66C179.98,-154.78 128.73,-141.15 95.12,-132.21"/>
<polygon fill="#63b8ff" stroke="#63b8ff" points="216.11,-168.02 226.68,-167.2 217.91,-161.25 216.11,-168.02"/>
</a>
</g>
</g>
<!-- Node11 -->
<g id="Node000011" class="node">
<title>Node11</title>
<g id="a_Node000011"><a xlink:href="Coin_8h.html" target="_top" xlink:title="Class representing a coin collectible.">
<polygon fill="white" stroke="#666666" points="174,-132 113,-132 113,-112 174,-112 174,-132"/>
<text text-anchor="middle" x="143.5" y="-118.5" font-family="Helvetica,sans-Serif" font-size="10.00">src/Coin.h</text>
</a>
</g>
</g>
<!-- Node8&#45;&gt;Node11 -->
<g id="edge11_Node000008_Node000011" class="edge">
<title>Node8&#45;&gt;Node11</title>
<g id="a_edge11_Node000008_Node000011"><a xlink:title=" ">
<path fill="none" stroke="#63b8ff" d="M232.12,-162.88C210.83,-153.3 183.26,-140.89 164.57,-132.48"/>
<polygon fill="#63b8ff" stroke="#63b8ff" points="230.66,-166.06 241.22,-166.97 233.53,-159.68 230.66,-166.06"/>
</a>
</g>
</g>
<!-- Node13 -->
<g id="Node000013" class="node">
<title>Node13</title>
<g id="a_Node000013"><a xlink:href="InteractiveObject_8cpp.html" target="_top" xlink:title="Base class for all interactive objects.">
<polygon fill="white" stroke="#666666" points="488.25,-132 362.75,-132 362.75,-112 488.25,-112 488.25,-132"/>
<text text-anchor="middle" x="425.5" y="-118.5" font-family="Helvetica,sans-Serif" font-size="10.00">src/InteractiveObject.cpp</text>
</a>
</g>
</g>
<!-- Node8&#45;&gt;Node13 -->
<g id="edge15_Node000008_Node000013" class="edge">
<title>Node8&#45;&gt;Node13</title>
<g id="a_edge15_Node000008_Node000013"><a xlink:title=" ">
<path fill="none" stroke="#63b8ff" d="M302.35,-164.05C331.52,-154.33 370.78,-141.24 397.06,-132.48"/>
<polygon fill="#63b8ff" stroke="#63b8ff" points="301.53,-160.63 293.15,-167.12 303.75,-167.27 301.53,-160.63"/>
</a>
</g>
</g>
<!-- Node14 -->
<g id="Node000014" class="node">
<title>Node14</title>
<g id="a_Node000014"><a xlink:href="Teleport_8h.html" target="_top" xlink:title="Represents a teleport object.">
<polygon fill="white" stroke="#666666" points="267.12,-132 191.88,-132 191.88,-112 267.12,-112 267.12,-132"/>
<text text-anchor="middle" x="229.5" y="-118.5" font-family="Helvetica,sans-Serif" font-size="10.00">src/Teleport.h</text>
</a>
</g>
</g>
<!-- Node8&#45;&gt;Node14 -->
<g id="edge16_Node000008_Node000014" class="edge">
<title>Node8&#45;&gt;Node14</title>
<g id="a_edge16_Node000008_Node000014"><a xlink:title=" ">
<path fill="none" stroke="#63b8ff" d="M251.45,-157.87C245.99,-149.19 239.77,-139.32 235.35,-132.3"/>
<polygon fill="#63b8ff" stroke="#63b8ff" points="248.48,-159.72 256.77,-166.31 254.4,-155.99 248.48,-159.72"/>
</a>
</g>
</g>
<!-- Node16 -->
<g id="Node000016" class="node">
<title>Node16</title>
<g id="a_Node000016"><a xlink:href="Wall_8h.html" target="_top" xlink:title="Represents a wall object.">
<polygon fill="white" stroke="#666666" points="344.25,-132 284.75,-132 284.75,-112 344.25,-112 344.25,-132"/>
<text text-anchor="middle" x="314.5" y="-118.5" font-family="Helvetica,sans-Serif" font-size="10.00">src/Wall.h</text>
</a>
</g>
</g>
<!-- Node8&#45;&gt;Node16 -->
<g id="edge19_Node000008_Node000016" class="edge">
<title>Node8&#45;&gt;Node16</title>
<g id="a_edge19_Node000008_Node000016"><a xlink:title=" ">
<path fill="none" stroke="#63b8ff" d="M280.23,-159.29C288.74,-150.28 298.73,-139.7 305.72,-132.3"/>
<polygon fill="#63b8ff" stroke="#63b8ff" points="277.74,-156.82 273.42,-166.49 282.83,-161.63 277.74,-156.82"/>
</a>
</g>
</g>
<!-- Node9&#45;&gt;Node3 -->
<g id="edge10_Node000009_Node000003" class="edge">
<title>Node9&#45;&gt;Node3</title>
<g id="a_edge10_Node000009_Node000003"><a xlink:title=" ">
<path fill="none" stroke="#63b8ff" d="M106.48,-111.41C176.62,-97.12 247.48,-83.11 290.28,-74.69"/>
<polygon fill="#63b8ff" stroke="#63b8ff" points="105.81,-107.97 96.71,-113.4 107.21,-114.83 105.81,-107.97"/>
</a>
</g>
</g>
<!-- Node10 -->
<g id="Node000010" class="node">
<title>Node10</title>
<g id="a_Node000010"><a xlink:href="Cherry_8cpp.html" target="_top" xlink:title="Class representing a cherry collectible.">
<polygon fill="white" stroke="#666666" points="79,-76 0,-76 0,-56 79,-56 79,-76"/>
<text text-anchor="middle" x="39.5" y="-62.5" font-family="Helvetica,sans-Serif" font-size="10.00">src/Cherry.cpp</text>
</a>
</g>
</g>
<!-- Node9&#45;&gt;Node10 -->
<g id="edge9_Node000009_Node000010" class="edge">
<title>Node9&#45;&gt;Node10</title>
<g id="a_edge9_Node000009_Node000010"><a xlink:title=" ">
<path fill="none" stroke="#63b8ff" d="M52.72,-101C49.43,-92.54 45.75,-83.08 43.12,-76.3"/>
<polygon fill="#63b8ff" stroke="#63b8ff" points="49.41,-102.13 56.29,-110.18 55.93,-99.59 49.41,-102.13"/>
</a>
</g>
</g>
<!-- Node11&#45;&gt;Node3 -->
<g id="edge13_Node000011_Node000003" class="edge">
<title>Node11&#45;&gt;Node3</title>
<g id="a_edge13_Node000011_Node000003"><a xlink:title=" ">
<path fill="none" stroke="#63b8ff" d="M185.11,-108.92C218.87,-99.12 265.78,-85.5 296.86,-76.48"/>
<polygon fill="#63b8ff" stroke="#63b8ff" points="184.3,-105.51 175.67,-111.66 186.25,-112.23 184.3,-105.51"/>
</a>
</g>
</g>
<!-- Node12 -->
<g id="Node000012" class="node">
<title>Node12</title>
<g id="a_Node000012"><a xlink:href="Coin_8cpp.html" target="_top" xlink:title="Class representing a coin collectible.">
<polygon fill="white" stroke="#666666" points="168.25,-76 96.75,-76 96.75,-56 168.25,-56 168.25,-76"/>
<text text-anchor="middle" x="132.5" y="-62.5" font-family="Helvetica,sans-Serif" font-size="10.00">src/Coin.cpp</text>
</a>
</g>
</g>
<!-- Node11&#45;&gt;Node12 -->
<g id="edge12_Node000011_Node000012" class="edge">
<title>Node11&#45;&gt;Node12</title>
<g id="a_edge12_Node000011_Node000012"><a xlink:title=" ">
<path fill="none" stroke="#63b8ff" d="M139.31,-100.43C137.61,-92.11 135.75,-82.93 134.39,-76.3"/>
<polygon fill="#63b8ff" stroke="#63b8ff" points="135.86,-101.01 141.28,-110.11 142.72,-99.61 135.86,-101.01"/>
</a>
</g>
</g>
<!-- Node14&#45;&gt;Node3 -->
<g id="edge17_Node000014_Node000003" class="edge">
<title>Node14&#45;&gt;Node3</title>
<g id="a_edge17_Node000014_Node000003"><a xlink:title=" ">
<path fill="none" stroke="#63b8ff" d="M256.63,-106.35C274.24,-96.84 296.65,-84.74 311.95,-76.48"/>
<polygon fill="#63b8ff" stroke="#63b8ff" points="255.39,-103.04 248.25,-110.87 258.71,-109.2 255.39,-103.04"/>
</a>
</g>
</g>
<!-- Node15 -->
<g id="Node000015" class="node">
<title>Node15</title>
<g id="a_Node000015"><a xlink:href="Teleport_8cpp.html" target="_top" xlink:title="Represents a teleport object.">
<polygon fill="white" stroke="#666666" points="272.38,-76 186.62,-76 186.62,-56 272.38,-56 272.38,-76"/>
<text text-anchor="middle" x="229.5" y="-62.5" font-family="Helvetica,sans-Serif" font-size="10.00">src/Teleport.cpp</text>
</a>
</g>
</g>
<!-- Node14&#45;&gt;Node15 -->
<g id="edge18_Node000014_Node000015" class="edge">
<title>Node14&#45;&gt;Node15</title>
<g id="a_edge18_Node000014_Node000015"><a xlink:title=" ">
<path fill="none" stroke="#63b8ff" d="M229.5,-100.13C229.5,-91.9 229.5,-82.85 229.5,-76.3"/>
<polygon fill="#63b8ff" stroke="#63b8ff" points="226,-100.08 229.5,-110.08 233,-100.08 226,-100.08"/>
</a>
</g>
</g>
<!-- Node16&#45;&gt;Node3 -->
<g id="edge20_Node000016_Node000003" class="edge">
<title>Node16&#45;&gt;Node3</title>
<g id="a_edge20_Node000016_Node000003"><a xlink:title=" ">
<path fill="none" stroke="#63b8ff" d="M320.13,-100.71C322.47,-92.32 325.05,-83.01 326.92,-76.3"/>
<polygon fill="#63b8ff" stroke="#63b8ff" points="316.82,-99.56 317.52,-110.14 323.57,-101.44 316.82,-99.56"/>
</a>
</g>
</g>
<!-- Node17 -->
<g id="Node000017" class="node">
<title>Node17</title>
<g id="a_Node000017"><a xlink:href="Wall_8cpp.html" target="_top" xlink:title="Represents a wall object.">
<polygon fill="white" stroke="#666666" points="456.5,-76 386.5,-76 386.5,-56 456.5,-56 456.5,-76"/>
<text text-anchor="middle" x="421.5" y="-62.5" font-family="Helvetica,sans-Serif" font-size="10.00">src/Wall.cpp</text>
</a>
</g>
</g>
<!-- Node16&#45;&gt;Node17 -->
<g id="edge21_Node000016_Node000017" class="edge">
<title>Node16&#45;&gt;Node17</title>
<g id="a_edge21_Node000016_Node000017"><a xlink:title=" ">
<path fill="none" stroke="#63b8ff" d="M343.27,-106.48C362.14,-96.96 386.28,-84.78 402.72,-76.48"/>
<polygon fill="#63b8ff" stroke="#63b8ff" points="341.84,-103.28 334.49,-110.91 344.99,-109.53 341.84,-103.28"/>
</a>
</g>
</g>
<!-- Node18&#45;&gt;Node8 -->
<g id="edge40_Node000018_Node000008" class="edge">
<title>Node18&#45;&gt;Node8</title>
<g id="a_edge40_Node000018_Node000008"><a xlink:title=" ">
<path fill="none" stroke="#63b8ff" d="M469.17,-272.26C452.55,-257.81 426.84,-237.23 401.5,-224 370.45,-207.79 332.43,-195.91 304.17,-188.45"/>
<polygon fill="#63b8ff" stroke="#63b8ff" points="466.48,-274.55 476.28,-278.56 471.12,-269.31 466.48,-274.55"/>
</a>
</g>
</g>
<!-- Node19 -->
<g id="Node000019" class="node">
<title>Node19</title>
<g id="a_Node000019"><a xlink:href="EnemyBehavior_8h.html" target="_top" xlink:title="Base class for all enemy behaviors.">
<polygon fill="white" stroke="#666666" points="715,-244 606,-244 606,-224 715,-224 715,-244"/>
<text text-anchor="middle" x="660.5" y="-230.5" font-family="Helvetica,sans-Serif" font-size="10.00">src/EnemyBehavior.h</text>
</a>
</g>
</g>
<!-- Node18&#45;&gt;Node19 -->
<g id="edge23_Node000018_Node000019" class="edge">
<title>Node18&#45;&gt;Node19</title>
<g id="a_edge23_Node000018_Node000019"><a xlink:title=" ">
<path fill="none" stroke="#63b8ff" d="M528.58,-276.18C559.76,-266.44 601.94,-253.28 630.13,-244.48"/>
<polygon fill="#63b8ff" stroke="#63b8ff" points="527.58,-272.82 519.08,-279.14 529.67,-279.5 527.58,-272.82"/>
</a>
</g>
</g>
<!-- Node26 -->
<g id="Node000026" class="node">
<title>Node26</title>
<g id="a_Node000026"><a xlink:href="Ghost_8h.html" target="_top" xlink:title="Represents a ghost enemy.">
<polygon fill="white" stroke="#666666" points="579,-188 512,-188 512,-168 579,-168 579,-188"/>
<text text-anchor="middle" x="545.5" y="-174.5" font-family="Helvetica,sans-Serif" font-size="10.00">src/Ghost.h</text>
</a>
</g>
</g>
<!-- Node18&#45;&gt;Node26 -->
<g id="edge39_Node000018_Node000026" class="edge">
<title>Node18&#45;&gt;Node26</title>
<g id="a_edge39_Node000018_Node000026"><a xlink:title=" ">
<path fill="none" stroke="#63b8ff" d="M507.96,-272.03C516.1,-264.27 524.85,-254.48 530.5,-244 540.29,-225.86 543.72,-201.52 544.9,-188.37"/>
<polygon fill="#63b8ff" stroke="#63b8ff" points="505.78,-269.28 500.68,-278.57 510.46,-274.49 505.78,-269.28"/>
</a>
</g>
</g>
<!-- Node29 -->
<g id="Node000029" class="node">
<title>Node29</title>
<g id="a_Node000029"><a xlink:href="MovingObject_8cpp.html" target="_top" xlink:title="Base class for all moving objects.">
<polygon fill="white" stroke="#666666" points="844.12,-244 732.88,-244 732.88,-224 844.12,-224 844.12,-244"/>
<text text-anchor="middle" x="788.5" y="-230.5" font-family="Helvetica,sans-Serif" font-size="10.00">src/MovingObject.cpp</text>
</a>
</g>
</g>
<!-- Node18&#45;&gt;Node29 -->
<g id="edge41_Node000018_Node000029" class="edge">
<title>Node18&#45;&gt;Node29</title>
<g id="a_edge41_Node000018_Node000029"><a xlink:title=" ">
<path fill="none" stroke="#63b8ff" d="M549.21,-277.93C604.19,-268.07 683.75,-253.79 735.8,-244.45"/>
<polygon fill="#63b8ff" stroke="#63b8ff" points="548.93,-274.42 539.71,-279.63 550.17,-281.31 548.93,-274.42"/>
</a>
</g>
</g>
<!-- Node30 -->
<g id="Node000030" class="node">
<title>Node30</title>
<g id="a_Node000030"><a xlink:href="Player_8h.html" target="_top" xlink:title="Represents a player.">
<polygon fill="white" stroke="#666666" points="521.38,-244 453.62,-244 453.62,-224 521.38,-224 521.38,-244"/>
<text text-anchor="middle" x="487.5" y="-230.5" font-family="Helvetica,sans-Serif" font-size="10.00">src/Player.h</text>
</a>
</g>
</g>
<!-- Node18&#45;&gt;Node30 -->
<g id="edge42_Node000018_Node000030" class="edge">
<title>Node18&#45;&gt;Node30</title>
<g id="a_edge42_Node000018_Node000030"><a xlink:title=" ">
<path fill="none" stroke="#63b8ff" d="M487.5,-268.13C487.5,-259.9 487.5,-250.85 487.5,-244.3"/>
<polygon fill="#63b8ff" stroke="#63b8ff" points="484,-268.08 487.5,-278.08 491,-268.08 484,-268.08"/>
</a>
</g>
</g>
<!-- Node19&#45;&gt;Node3 -->
<g id="edge31_Node000019_Node000003" class="edge">
<title>Node19&#45;&gt;Node3</title>
<g id="a_edge31_Node000019_Node000003"><a xlink:title=" ">
<path fill="none" stroke="#63b8ff" d="M645.9,-214.74C639.69,-206.7 632.51,-197.05 626.5,-188 604.92,-155.48 614.49,-134.36 582.5,-112 506.67,-59.01 468.52,-92.52 377.5,-76 374.58,-75.47 371.56,-74.92 368.53,-74.36"/>
<polygon fill="#63b8ff" stroke="#63b8ff" points="642.99,-216.7 651.92,-222.4 648.5,-212.38 642.99,-216.7"/>
</a>
</g>
</g>
<!-- Node20 -->
<g id="Node000020" class="node">
<title>Node20</title>
<g id="a_Node000020"><a xlink:href="ChaseBehavior_8h.html" target="_top" xlink:title="Class for handling the chase behavior of ghosts.">
<polygon fill="white" stroke="#666666" points="741.88,-188 635.12,-188 635.12,-168 741.88,-168 741.88,-188"/>
<text text-anchor="middle" x="688.5" y="-174.5" font-family="Helvetica,sans-Serif" font-size="10.00">src/ChaseBehavior.h</text>
</a>
</g>
</g>
<!-- Node19&#45;&gt;Node20 -->
<g id="edge24_Node000019_Node000020" class="edge">
<title>Node19&#45;&gt;Node20</title>
<g id="a_edge24_Node000019_Node000020"><a xlink:title=" ">
<path fill="none" stroke="#63b8ff" d="M670.57,-213.58C675.03,-204.97 680.08,-195.24 683.68,-188.3"/>
<polygon fill="#63b8ff" stroke="#63b8ff" points="667.57,-211.76 666.07,-222.25 673.78,-214.98 667.57,-211.76"/>
</a>
</g>
</g>
<!-- Node23 -->
<g id="Node000023" class="node">
<title>Node23</title>
<g id="a_Node000023"><a xlink:href="EnemyBehavior_8cpp.html" target="_top" xlink:title="Base class for all enemy behaviors.">
<polygon fill="white" stroke="#666666" points="1149.25,-188 1029.75,-188 1029.75,-168 1149.25,-168 1149.25,-188"/>
<text text-anchor="middle" x="1089.5" y="-174.5" font-family="Helvetica,sans-Serif" font-size="10.00">src/EnemyBehavior.cpp</text>
</a>
</g>
</g>
<!-- Node19&#45;&gt;Node23 -->
<g id="edge27_Node000019_Node000023" class="edge">
<title>Node19&#45;&gt;Node23</title>
<g id="a_edge27_Node000019_Node000023"><a xlink:title=" ">
<path fill="none" stroke="#63b8ff" d="M726.7,-223.6C857.21,-206.48 892.18,-204.15 1020.5,-188 1023.38,-187.64 1026.32,-187.26 1029.29,-186.89"/>
<polygon fill="#63b8ff" stroke="#63b8ff" points="726.42,-220.1 716.97,-224.88 727.34,-227.04 726.42,-220.1"/>
</a>
</g>
</g>
<!-- Node24 -->
<g id="Node000024" class="node">
<title>Node24</title>
<g id="a_Node000024"><a xlink:href="FrightenedBehavior_8h.html" target="_top" xlink:title="Class representing a frightened ghost behavior.">
<polygon fill="white" stroke="#666666" points="1011.5,-188 887.5,-188 887.5,-168 1011.5,-168 1011.5,-188"/>
<text text-anchor="middle" x="949.5" y="-174.5" font-family="Helvetica,sans-Serif" font-size="10.00">src/FrightenedBehavior.h</text>
</a>
</g>
</g>
<!-- Node19&#45;&gt;Node24 -->
<g id="edge28_Node000019_Node000024" class="edge">
<title>Node19&#45;&gt;Node24</title>
<g id="a_edge28_Node000019_Node000024"><a xlink:title=" ">
<path fill="none" stroke="#63b8ff" d="M722.39,-221.44C775.04,-211.6 849.74,-197.64 898.89,-188.46"/>
<polygon fill="#63b8ff" stroke="#63b8ff" points="721.85,-217.98 712.66,-223.25 723.13,-224.86 721.85,-217.98"/>
</a>
</g>
</g>
<!-- Node19&#45;&gt;Node26 -->
<g id="edge32_Node000019_Node000026" class="edge">
<title>Node19&#45;&gt;Node26</title>
<g id="a_edge32_Node000019_Node000026"><a xlink:title=" ">
<path fill="none" stroke="#63b8ff" d="M630.14,-218.75C609.78,-209.18 583.52,-196.85 565.69,-188.48"/>
<polygon fill="#63b8ff" stroke="#63b8ff" points="628.56,-221.87 639.1,-222.95 631.53,-215.53 628.56,-221.87"/>
</a>
</g>
</g>
<!-- Node27 -->
<g id="Node000027" class="node">
<title>Node27</title>
<g id="a_Node000027"><a xlink:href="ScatterBehavior_8h.html" target="_top" xlink:title="Class for the scatter behavior of the ghosts.">
<polygon fill="white" stroke="#666666" points="869.38,-188 759.62,-188 759.62,-168 869.38,-168 869.38,-188"/>
<text text-anchor="middle" x="814.5" y="-174.5" font-family="Helvetica,sans-Serif" font-size="10.00">src/ScatterBehavior.h</text>
</a>
</g>
</g>
<!-- Node19&#45;&gt;Node27 -->
<g id="edge35_Node000019_Node000027" class="edge">
<title>Node19&#45;&gt;Node27</title>
<g id="a_edge35_Node000019_Node000027"><a xlink:title=" ">
<path fill="none" stroke="#63b8ff" d="M698.17,-219.79C725.81,-210.1 762.71,-197.16 787.47,-188.48"/>
<polygon fill="#63b8ff" stroke="#63b8ff" points="697.03,-216.48 688.75,-223.09 699.35,-223.09 697.03,-216.48"/>
</a>
</g>
</g>
<!-- Node21 -->
<g id="Node000021" class="node">
<title>Node21</title>
<g id="a_Node000021"><a xlink:href="ChaseBehavior_8cpp.html" target="_top" xlink:title="Class for handling the chase behavior of ghosts.">
<polygon fill="white" stroke="#666666" points="747.12,-132 629.88,-132 629.88,-112 747.12,-112 747.12,-132"/>
<text text-anchor="middle" x="688.5" y="-118.5" font-family="Helvetica,sans-Serif" font-size="10.00">src/ChaseBehavior.cpp</text>
</a>
</g>
</g>
<!-- Node20&#45;&gt;Node21 -->
<g id="edge25_Node000020_Node000021" class="edge">
<title>Node20&#45;&gt;Node21</title>
<g id="a_edge25_Node000020_Node000021"><a xlink:title=" ">
<path fill="none" stroke="#63b8ff" d="M688.5,-156.13C688.5,-147.9 688.5,-138.85 688.5,-132.3"/>
<polygon fill="#63b8ff" stroke="#63b8ff" points="685,-156.08 688.5,-166.08 692,-156.08 685,-156.08"/>
</a>
</g>
</g>
<!-- Node22 -->
<g id="Node000022" class="node">
<title>Node22</title>
<g id="a_Node000022"><a xlink:href="Ghost_8cpp.html" target="_top" xlink:title="Represents a ghost enemy.">
<polygon fill="white" stroke="#666666" points="842.25,-132 764.75,-132 764.75,-112 842.25,-112 842.25,-132"/>
<text text-anchor="middle" x="803.5" y="-118.5" font-family="Helvetica,sans-Serif" font-size="10.00">src/Ghost.cpp</text>
</a>
</g>
</g>
<!-- Node20&#45;&gt;Node22 -->
<g id="edge26_Node000020_Node000022" class="edge">
<title>Node20&#45;&gt;Node22</title>
<g id="a_edge26_Node000020_Node000022"><a xlink:title=" ">
<path fill="none" stroke="#63b8ff" d="M718.86,-162.75C739.22,-153.18 765.48,-140.85 783.31,-132.48"/>
<polygon fill="#63b8ff" stroke="#63b8ff" points="717.47,-159.53 709.9,-166.95 720.44,-165.87 717.47,-159.53"/>
</a>
</g>
</g>
<!-- Node24&#45;&gt;Node22 -->
<g id="edge30_Node000024_Node000022" class="edge">
<title>Node24&#45;&gt;Node22</title>
<g id="a_edge30_Node000024_Node000022"><a xlink:title=" ">
<path fill="none" stroke="#63b8ff" d="M913.44,-163.66C887.27,-153.98 852.5,-141.12 829.13,-132.48"/>
<polygon fill="#63b8ff" stroke="#63b8ff" points="912.06,-166.88 922.65,-167.07 914.48,-160.32 912.06,-166.88"/>
</a>
</g>
</g>
<!-- Node25 -->
<g id="Node000025" class="node">
<title>Node25</title>
<g id="a_Node000025"><a xlink:href="FrightenedBehavior_8cpp.html" target="_top" xlink:title="Class representing a frightened ghost behavior.">
<polygon fill="white" stroke="#666666" points="1170.75,-132 1036.25,-132 1036.25,-112 1170.75,-112 1170.75,-132"/>
<text text-anchor="middle" x="1103.5" y="-118.5" font-family="Helvetica,sans-Serif" font-size="10.00">src/FrightenedBehavior.cpp</text>
</a>
</g>
</g>
<!-- Node24&#45;&gt;Node25 -->
<g id="edge29_Node000024_Node000025" class="edge">
<title>Node24&#45;&gt;Node25</title>
<g id="a_edge29_Node000024_Node000025"><a xlink:title=" ">
<path fill="none" stroke="#63b8ff" d="M987.17,-163.79C1014.81,-154.1 1051.71,-141.16 1076.47,-132.48"/>
<polygon fill="#63b8ff" stroke="#63b8ff" points="986.03,-160.48 977.75,-167.09 988.35,-167.09 986.03,-160.48"/>
</a>
</g>
</g>
<!-- Node26&#45;&gt;Node2 -->
<g id="edge33_Node000026_Node000002" class="edge">
<title>Node26&#45;&gt;Node2</title>
<g id="a_edge33_Node000026_Node000002"><a xlink:title=" ">
<path fill="none" stroke="#63b8ff" d="M543.21,-156.43C542.29,-148.11 541.27,-138.93 540.53,-132.3"/>
<polygon fill="#63b8ff" stroke="#63b8ff" points="539.7,-156.54 544.29,-166.09 546.66,-155.76 539.7,-156.54"/>
</a>
</g>
</g>
<!-- Node26&#45;&gt;Node22 -->
<g id="edge34_Node000026_Node000022" class="edge">
<title>Node26&#45;&gt;Node22</title>
<g id="a_edge34_Node000026_Node000022"><a xlink:title=" ">
<path fill="none" stroke="#63b8ff" d="M590.74,-167.53C639.92,-157.24 717.72,-140.95 764.37,-131.19"/>
<polygon fill="#63b8ff" stroke="#63b8ff" points="590.05,-164.1 580.98,-169.57 591.48,-170.95 590.05,-164.1"/>
</a>
</g>
</g>
<!-- Node27&#45;&gt;Node3 -->
<g id="edge36_Node000027_Node000003" class="edge">
<title>Node27&#45;&gt;Node3</title>
<g id="a_edge36_Node000027_Node000003"><a xlink:title=" ">
<path fill="none" stroke="#63b8ff" d="M835.2,-160.04C849.84,-146.05 864.71,-126.25 851.5,-112 815.59,-73.26 429.87,-82.88 377.5,-76 374.64,-75.62 371.7,-75.19 368.74,-74.72"/>
<polygon fill="#63b8ff" stroke="#63b8ff" points="833.07,-157.24 827.95,-166.51 837.74,-162.46 833.07,-157.24"/>
</a>
</g>
</g>
<!-- Node27&#45;&gt;Node22 -->
<g id="edge37_Node000027_Node000022" class="edge">
<title>Node27&#45;&gt;Node22</title>
<g id="a_edge37_Node000027_Node000022"><a xlink:title=" ">
<path fill="none" stroke="#63b8ff" d="M810.31,-156.43C808.61,-148.11 806.75,-138.93 805.39,-132.3"/>
<polygon fill="#63b8ff" stroke="#63b8ff" points="806.86,-157.01 812.28,-166.11 813.72,-155.61 806.86,-157.01"/>
</a>
</g>
</g>
<!-- Node28 -->
<g id="Node000028" class="node">
<title>Node28</title>
<g id="a_Node000028"><a xlink:href="ScatterBehavior_8cpp.html" target="_top" xlink:title="Class for the scatter behavior of the ghosts.">
<polygon fill="white" stroke="#666666" points="1018.62,-132 898.38,-132 898.38,-112 1018.62,-112 1018.62,-132"/>
<text text-anchor="middle" x="958.5" y="-118.5" font-family="Helvetica,sans-Serif" font-size="10.00">src/ScatterBehavior.cpp</text>
</a>
</g>
</g>
<!-- Node27&#45;&gt;Node28 -->
<g id="edge38_Node000027_Node000028" class="edge">
<title>Node27&#45;&gt;Node28</title>
<g id="a_edge38_Node000027_Node000028"><a xlink:title=" ">
<path fill="none" stroke="#63b8ff" d="M850.07,-163.66C875.88,-153.98 910.17,-141.12 933.22,-132.48"/>
<polygon fill="#63b8ff" stroke="#63b8ff" points="849.13,-160.27 841,-167.06 851.59,-166.83 849.13,-160.27"/>
</a>
</g>
</g>
<!-- Node30&#45;&gt;Node2 -->
<g id="edge43_Node000030_Node000002" class="edge">
<title>Node30&#45;&gt;Node2</title>
<g id="a_edge43_Node000030_Node000002"><a xlink:title=" ">
<path fill="none" stroke="#63b8ff" d="M447.66,-219.44C420.13,-207.82 391.03,-189.57 406.5,-168 412.49,-159.66 468.21,-142.8 505.61,-132.25"/>
<polygon fill="#63b8ff" stroke="#63b8ff" points="446.04,-222.57 456.63,-223.01 448.63,-216.06 446.04,-222.57"/>
</a>
</g>
</g>
<!-- Node30&#45;&gt;Node8 -->
<g id="edge45_Node000030_Node000008" class="edge">
<title>Node30&#45;&gt;Node8</title>
<g id="a_edge45_Node000030_Node000008"><a xlink:title=" ">
<path fill="none" stroke="#63b8ff" d="M442.47,-222.14C401.54,-212.28 341.77,-197.87 302.75,-188.46"/>
<polygon fill="#63b8ff" stroke="#63b8ff" points="441.47,-225.5 452.01,-224.44 443.11,-218.7 441.47,-225.5"/>
</a>
</g>
</g>
<!-- Node30&#45;&gt;Node26 -->
<g id="edge44_Node000030_Node000026" class="edge">
<title>Node30&#45;&gt;Node26</title>
<g id="a_edge44_Node000030_Node000026"><a xlink:title=" ">
<path fill="none" stroke="#63b8ff" d="M505.92,-215.85C515.73,-206.72 527.4,-195.86 535.51,-188.3"/>
<polygon fill="#63b8ff" stroke="#63b8ff" points="503.64,-213.19 498.71,-222.56 508.41,-218.31 503.64,-213.19"/>
</a>
</g>
</g>
<!-- Node31 -->
<g id="Node000031" class="node">
<title>Node31</title>
<g id="a_Node000031"><a xlink:href="Player_8cpp.html" target="_top" xlink:title="Represents a player.">
<polygon fill="white" stroke="#666666" points="493.62,-188 415.38,-188 415.38,-168 493.62,-168 493.62,-188"/>
<text text-anchor="middle" x="454.5" y="-174.5" font-family="Helvetica,sans-Serif" font-size="10.00">src/Player.cpp</text>
</a>
</g>
</g>
<!-- Node30&#45;&gt;Node31 -->
<g id="edge46_Node000030_Node000031" class="edge">
<title>Node30&#45;&gt;Node31</title>
<g id="a_edge46_Node000030_Node000031"><a xlink:title=" ">
<path fill="none" stroke="#63b8ff" d="M475.81,-213.87C470.5,-205.19 464.47,-195.32 460.18,-188.3"/>
<polygon fill="#63b8ff" stroke="#63b8ff" points="472.76,-215.59 480.96,-222.3 478.73,-211.94 472.76,-215.59"/>
</a>
</g>
</g>
</g>
</svg>
