<?xml version="1.0" encoding="UTF-8" standalone="no"?>
<!DOCTYPE svg PUBLIC "-//W3C//DTD SVG 1.1//EN"
 "http://www.w3.org/Graphics/SVG/1.1/DTD/svg11.dtd">
<!-- Generated by graphviz version 10.0.1 (0)
 -->
<!-- Title: src/Game.h Pages: 1 -->
<svg width="1110pt" height="476pt"
 viewBox="0.00 0.00 1110.34 476.00" xmlns="http://www.w3.org/2000/svg" xmlns:xlink="http://www.w3.org/1999/xlink">
<g id="graph0" class="graph" transform="scale(1 1) rotate(0) translate(4 472)">
<title>src/Game.h</title>
<!-- Node1 -->
<g id="Node000001" class="node">
<title>Node1</title>
<g id="a_Node000001"><a xlink:title="Class for handling the game logic.">
<polygon fill="#999999" stroke="#666666" points="548.09,-468 481.09,-468 481.09,-448 548.09,-448 548.09,-468"/>
<text text-anchor="middle" x="514.59" y="-454.5" font-family="Helvetica,sans-Serif" font-size="10.00">src/Game.h</text>
</a>
</g>
</g>
<!-- Node2 -->
<g id="Node000002" class="node">
<title>Node2</title>
<g id="a_Node000002"><a xlink:title=" ">
<polygon fill="#e0e0e0" stroke="#999999" points="170.22,-188 118.97,-188 118.97,-168 170.22,-168 170.22,-188"/>
<text text-anchor="middle" x="144.59" y="-174.5" font-family="Helvetica,sans-Serif" font-size="10.00">memory</text>
</a>
</g>
</g>
<!-- Node1&#45;&gt;Node2 -->
<g id="edge1_Node000001_Node000002" class="edge">
<title>Node1&#45;&gt;Node2</title>
<g id="a_edge1_Node000001_Node000002"><a xlink:title=" ">
<path fill="none" stroke="#63b8ff" d="M480.88,-455.74C382.84,-451.77 102.75,-438.23 71.59,-412 5.7,-356.54 -24.47,-294.79 24.59,-224 43.06,-197.36 79.37,-186.46 107.23,-182.02"/>
<polygon fill="#63b8ff" stroke="#63b8ff" points="107.64,-185.5 117.08,-180.69 106.7,-178.56 107.64,-185.5"/>
</a>
</g>
</g>
<!-- Node3 -->
<g id="Node000003" class="node">
<title>Node3</title>
<g id="a_Node000003"><a xlink:title=" ">
<polygon fill="#e0e0e0" stroke="#999999" points="929.09,-76 886.09,-76 886.09,-56 929.09,-56 929.09,-76"/>
<text text-anchor="middle" x="907.59" y="-62.5" font-family="Helvetica,sans-Serif" font-size="10.00">vector</text>
</a>
</g>
</g>
<!-- Node1&#45;&gt;Node3 -->
<g id="edge2_Node000001_Node000003" class="edge">
<title>Node1&#45;&gt;Node3</title>
<g id="a_edge2_Node000001_Node000003"><a xlink:title=" ">
<path fill="none" stroke="#63b8ff" d="M548.31,-455.24C646.71,-449.19 926.59,-425.11 926.59,-347 926.59,-347 926.59,-347 926.59,-177 926.59,-145.26 918.82,-109.11 913.21,-87.19"/>
<polygon fill="#63b8ff" stroke="#63b8ff" points="916.67,-86.54 910.7,-77.79 909.9,-88.35 916.67,-86.54"/>
</a>
</g>
</g>
<!-- Node4 -->
<g id="Node000004" class="node">
<title>Node4</title>
<g id="a_Node000004"><a xlink:href="GameObject_8h.html" target="_top" xlink:title="Base class for all game objects.">
<polygon fill="white" stroke="#666666" points="119.09,-244 40.09,-244 40.09,-224 119.09,-224 119.09,-244"/>
<text text-anchor="middle" x="79.59" y="-230.5" font-family="Helvetica,sans-Serif" font-size="10.00">GameObject.h</text>
</a>
</g>
</g>
<!-- Node1&#45;&gt;Node4 -->
<g id="edge3_Node000001_Node000004" class="edge">
<title>Node1&#45;&gt;Node4</title>
<g id="a_edge3_Node000001_Node000004"><a xlink:title=" ">
<path fill="none" stroke="#63b8ff" d="M480.62,-455.88C384.59,-452.39 116.42,-440.18 89.59,-412 48.98,-369.34 63.5,-291.55 73.42,-254.99"/>
<polygon fill="#63b8ff" stroke="#63b8ff" points="76.68,-256.32 76.1,-245.74 69.95,-254.37 76.68,-256.32"/>
</a>
</g>
</g>
<!-- Node7 -->
<g id="Node000007" class="node">
<title>Node7</title>
<g id="a_Node000007"><a xlink:href="GamePhase_8h.html" target="_top" xlink:title="Handles the game phase and level.">
<polygon fill="white" stroke="#666666" points="300.72,-188 222.47,-188 222.47,-168 300.72,-168 300.72,-188"/>
<text text-anchor="middle" x="261.59" y="-174.5" font-family="Helvetica,sans-Serif" font-size="10.00">GamePhase.h</text>
</a>
</g>
</g>
<!-- Node1&#45;&gt;Node7 -->
<g id="edge59_Node000001_Node000007" class="edge">
<title>Node1&#45;&gt;Node7</title>
<g id="a_edge59_Node000001_Node000007"><a xlink:title=" ">
<path fill="none" stroke="#63b8ff" d="M480.73,-457.21C411.79,-455.67 261.59,-441.47 261.59,-347 261.59,-347 261.59,-347 261.59,-289 261.59,-257.87 261.59,-221.78 261.59,-199.68"/>
<polygon fill="#63b8ff" stroke="#63b8ff" points="265.09,-199.93 261.59,-189.93 258.09,-199.93 265.09,-199.93"/>
</a>
</g>
</g>
<!-- Node8 -->
<g id="Node000008" class="node">
<title>Node8</title>
<g id="a_Node000008"><a xlink:href="Config_8h.html" target="_top" xlink:title="Class for handling the game configuration.">
<polygon fill="white" stroke="#666666" points="1006.97,-132 954.22,-132 954.22,-112 1006.97,-112 1006.97,-132"/>
<text text-anchor="middle" x="980.59" y="-118.5" font-family="Helvetica,sans-Serif" font-size="10.00">Config.h</text>
</a>
</g>
</g>
<!-- Node1&#45;&gt;Node8 -->
<g id="edge9_Node000001_Node000008" class="edge">
<title>Node1&#45;&gt;Node8</title>
<g id="a_edge9_Node000001_Node000008"><a xlink:title=" ">
<path fill="none" stroke="#63b8ff" d="M548.5,-457.53C637.9,-458.28 877.47,-456.05 940.59,-412 967,-393.57 972.59,-379.2 972.59,-347 972.59,-347 972.59,-347 972.59,-233 972.59,-201.79 975.84,-165.72 978.19,-143.64"/>
<polygon fill="#63b8ff" stroke="#63b8ff" points="981.65,-144.23 979.28,-133.9 974.69,-143.46 981.65,-144.23"/>
</a>
</g>
</g>
<!-- Node11 -->
<g id="Node000011" class="node">
<title>Node11</title>
<g id="a_Node000011"><a xlink:href="Window_8h.html" target="_top" xlink:title="Class for handling ncurses windows.">
<polygon fill="white" stroke="#666666" points="708.59,-188 650.59,-188 650.59,-168 708.59,-168 708.59,-188"/>
<text text-anchor="middle" x="679.59" y="-174.5" font-family="Helvetica,sans-Serif" font-size="10.00">Window.h</text>
</a>
</g>
</g>
<!-- Node1&#45;&gt;Node11 -->
<g id="edge13_Node000001_Node000011" class="edge">
<title>Node1&#45;&gt;Node11</title>
<g id="a_edge13_Node000001_Node000011"><a xlink:title=" ">
<path fill="none" stroke="#63b8ff" d="M548.38,-450.35C596.65,-438.66 679.59,-409.49 679.59,-347 679.59,-347 679.59,-347 679.59,-289 679.59,-257.87 679.59,-221.78 679.59,-199.68"/>
<polygon fill="#63b8ff" stroke="#63b8ff" points="683.09,-199.93 679.59,-189.93 676.09,-199.93 683.09,-199.93"/>
</a>
</g>
</g>
<!-- Node15 -->
<g id="Node000015" class="node">
<title>Node15</title>
<g id="a_Node000015"><a xlink:href="Player_8h.html" target="_top" xlink:title="Represents a player.">
<polygon fill="white" stroke="#666666" points="540.22,-356 488.97,-356 488.97,-336 540.22,-336 540.22,-356"/>
<text text-anchor="middle" x="514.59" y="-342.5" font-family="Helvetica,sans-Serif" font-size="10.00">Player.h</text>
</a>
</g>
</g>
<!-- Node1&#45;&gt;Node15 -->
<g id="edge23_Node000001_Node000015" class="edge">
<title>Node1&#45;&gt;Node15</title>
<g id="a_edge23_Node000001_Node000015"><a xlink:title=" ">
<path fill="none" stroke="#63b8ff" d="M514.59,-447.62C514.59,-430.01 514.59,-391.59 514.59,-367.65"/>
<polygon fill="#63b8ff" stroke="#63b8ff" points="518.09,-367.87 514.59,-357.87 511.09,-367.87 518.09,-367.87"/>
</a>
</g>
</g>
<!-- Node17 -->
<g id="Node000017" class="node">
<title>Node17</title>
<g id="a_Node000017"><a xlink:href="Map_8h.html" target="_top" xlink:title="Class for handling the game map.">
<polygon fill="white" stroke="#666666" points="606.09,-244 563.09,-244 563.09,-224 606.09,-224 606.09,-244"/>
<text text-anchor="middle" x="584.59" y="-230.5" font-family="Helvetica,sans-Serif" font-size="10.00">Map.h</text>
</a>
</g>
</g>
<!-- Node1&#45;&gt;Node17 -->
<g id="edge46_Node000001_Node000017" class="edge">
<title>Node1&#45;&gt;Node17</title>
<g id="a_edge46_Node000001_Node000017"><a xlink:title=" ">
<path fill="none" stroke="#63b8ff" d="M521.45,-447.74C538.18,-424.44 580.57,-360.91 592.59,-300 595.53,-285.12 593.23,-268.1 590.36,-255.21"/>
<polygon fill="#63b8ff" stroke="#63b8ff" points="593.82,-254.61 587.96,-245.79 587.04,-256.35 593.82,-254.61"/>
</a>
</g>
</g>
<!-- Node18 -->
<g id="Node000018" class="node">
<title>Node18</title>
<g id="a_Node000018"><a xlink:href="Ghost_8h.html" target="_top" xlink:title="Represents a ghost enemy.">
<polygon fill="white" stroke="#666666" points="467.84,-412 417.34,-412 417.34,-392 467.84,-392 467.84,-412"/>
<text text-anchor="middle" x="442.59" y="-398.5" font-family="Helvetica,sans-Serif" font-size="10.00">Ghost.h</text>
</a>
</g>
</g>
<!-- Node1&#45;&gt;Node18 -->
<g id="edge36_Node000001_Node000018" class="edge">
<title>Node1&#45;&gt;Node18</title>
<g id="a_edge36_Node000001_Node000018"><a xlink:title=" ">
<path fill="none" stroke="#63b8ff" d="M502.05,-447.59C491.62,-439.77 476.54,-428.46 464.18,-419.19"/>
<polygon fill="#63b8ff" stroke="#63b8ff" points="466.3,-416.41 456.2,-413.21 462.1,-422.01 466.3,-416.41"/>
</a>
</g>
</g>
<!-- Node20 -->
<g id="Node000020" class="node">
<title>Node20</title>
<g id="a_Node000020"><a xlink:href="Leaderboard_8h.html" target="_top" xlink:title="Class for handling the game leaderboard.">
<polygon fill="white" stroke="#666666" points="1102.34,-132 1024.84,-132 1024.84,-112 1102.34,-112 1102.34,-132"/>
<text text-anchor="middle" x="1063.59" y="-118.5" font-family="Helvetica,sans-Serif" font-size="10.00">Leaderboard.h</text>
</a>
</g>
</g>
<!-- Node1&#45;&gt;Node20 -->
<g id="edge47_Node000001_Node000020" class="edge">
<title>Node1&#45;&gt;Node20</title>
<g id="a_edge47_Node000001_Node000020"><a xlink:title=" ">
<path fill="none" stroke="#63b8ff" d="M548.3,-457.16C664.39,-456.84 1040.59,-447.99 1040.59,-347 1040.59,-347 1040.59,-347 1040.59,-233 1040.59,-201.05 1050,-164.96 1056.79,-143.1"/>
<polygon fill="#63b8ff" stroke="#63b8ff" points="1060.07,-144.31 1059.83,-133.72 1053.42,-142.15 1060.07,-144.31"/>
</a>
</g>
</g>
<!-- Node22 -->
<g id="Node000022" class="node">
<title>Node22</title>
<g id="a_Node000022"><a xlink:href="InteractiveObject_8h.html" target="_top" xlink:title="Base class for all interactive objects.">
<polygon fill="white" stroke="#666666" points="196.84,-412 98.34,-412 98.34,-392 196.84,-392 196.84,-412"/>
<text text-anchor="middle" x="147.59" y="-398.5" font-family="Helvetica,sans-Serif" font-size="10.00">InteractiveObject.h</text>
</a>
</g>
</g>
<!-- Node1&#45;&gt;Node22 -->
<g id="edge52_Node000001_Node000022" class="edge">
<title>Node1&#45;&gt;Node22</title>
<g id="a_edge52_Node000001_Node000022"><a xlink:title=" ">
<path fill="none" stroke="#63b8ff" d="M480.72,-452.02C418.74,-442.9 286.26,-423.4 208.34,-411.94"/>
<polygon fill="#63b8ff" stroke="#63b8ff" points="209.15,-408.52 198.75,-410.53 208.14,-415.45 209.15,-408.52"/>
</a>
</g>
</g>
<!-- Node4&#45;&gt;Node2 -->
<g id="edge8_Node000004_Node000002" class="edge">
<title>Node4&#45;&gt;Node2</title>
<g id="a_edge8_Node000004_Node000002"><a xlink:title=" ">
<path fill="none" stroke="#63b8ff" d="M90.91,-223.59C100.23,-215.85 113.67,-204.69 124.77,-195.47"/>
<polygon fill="#63b8ff" stroke="#63b8ff" points="126.78,-198.35 132.24,-189.27 122.31,-192.96 126.78,-198.35"/>
</a>
</g>
</g>
<!-- Node5 -->
<g id="Node000005" class="node">
<title>Node5</title>
<g id="a_Node000005"><a xlink:href="Enums_8h.html" target="_top" xlink:title=" ">
<polygon fill="white" stroke="#666666" points="403.09,-76 348.09,-76 348.09,-56 403.09,-56 403.09,-76"/>
<text text-anchor="middle" x="375.59" y="-62.5" font-family="Helvetica,sans-Serif" font-size="10.00">Enums.h</text>
</a>
</g>
</g>
<!-- Node4&#45;&gt;Node5 -->
<g id="edge4_Node000004_Node000005" class="edge">
<title>Node4&#45;&gt;Node5</title>
<g id="a_edge4_Node000004_Node000005"><a xlink:title=" ">
<path fill="none" stroke="#63b8ff" d="M81.52,-223.71C84.87,-209.77 93.05,-183.43 109.59,-168 174.68,-107.29 279.92,-82 336.55,-72.35"/>
<polygon fill="#63b8ff" stroke="#63b8ff" points="337.05,-75.82 346.36,-70.77 335.93,-68.91 337.05,-75.82"/>
</a>
</g>
</g>
<!-- Node4&#45;&gt;Node7 -->
<g id="edge6_Node000004_Node000007" class="edge">
<title>Node4&#45;&gt;Node7</title>
<g id="a_edge6_Node000004_Node000007"><a xlink:title=" ">
<path fill="none" stroke="#63b8ff" d="M111.29,-223.59C141.12,-214.74 186.01,-201.43 218.96,-191.65"/>
<polygon fill="#63b8ff" stroke="#63b8ff" points="219.6,-195.11 228.19,-188.91 217.61,-188.4 219.6,-195.11"/>
</a>
</g>
</g>
<!-- Node6 -->
<g id="Node000006" class="node">
<title>Node6</title>
<g id="a_Node000006"><a xlink:title=" ">
<polygon fill="#e0e0e0" stroke="#999999" points="395.22,-20 355.97,-20 355.97,0 395.22,0 395.22,-20"/>
<text text-anchor="middle" x="375.59" y="-6.5" font-family="Helvetica,sans-Serif" font-size="10.00">utility</text>
</a>
</g>
</g>
<!-- Node5&#45;&gt;Node6 -->
<g id="edge5_Node000005_Node000006" class="edge">
<title>Node5&#45;&gt;Node6</title>
<g id="a_edge5_Node000005_Node000006"><a xlink:title=" ">
<path fill="none" stroke="#63b8ff" d="M375.59,-55.59C375.59,-49.01 375.59,-39.96 375.59,-31.73"/>
<polygon fill="#63b8ff" stroke="#63b8ff" points="379.09,-31.81 375.59,-21.81 372.09,-31.81 379.09,-31.81"/>
</a>
</g>
</g>
<!-- Node7&#45;&gt;Node5 -->
<g id="edge7_Node000007_Node000005" class="edge">
<title>Node7&#45;&gt;Node5</title>
<g id="a_edge7_Node000007_Node000005"><a xlink:title=" ">
<path fill="none" stroke="#63b8ff" d="M271.31,-167.62C290.49,-149.11 333.47,-107.65 357.84,-84.13"/>
<polygon fill="#63b8ff" stroke="#63b8ff" points="360.04,-86.87 364.81,-77.41 355.18,-81.83 360.04,-86.87"/>
</a>
</g>
</g>
<!-- Node8&#45;&gt;Node3 -->
<g id="edge12_Node000008_Node000003" class="edge">
<title>Node8&#45;&gt;Node3</title>
<g id="a_edge12_Node000008_Node000003"><a xlink:title=" ">
<path fill="none" stroke="#63b8ff" d="M967.88,-111.59C957.2,-103.7 941.71,-92.24 929.11,-82.92"/>
<polygon fill="#63b8ff" stroke="#63b8ff" points="931.5,-80.33 921.38,-77.2 927.34,-85.96 931.5,-80.33"/>
</a>
</g>
</g>
<!-- Node9 -->
<g id="Node000009" class="node">
<title>Node9</title>
<g id="a_Node000009"><a xlink:title=" ">
<polygon fill="#e0e0e0" stroke="#999999" points="765.59,-76 725.59,-76 725.59,-56 765.59,-56 765.59,-76"/>
<text text-anchor="middle" x="745.59" y="-62.5" font-family="Helvetica,sans-Serif" font-size="10.00">string</text>
</a>
</g>
</g>
<!-- Node8&#45;&gt;Node9 -->
<g id="edge10_Node000008_Node000009" class="edge">
<title>Node8&#45;&gt;Node9</title>
<g id="a_edge10_Node000008_Node000009"><a xlink:title=" ">
<path fill="none" stroke="#63b8ff" d="M954.09,-114.91C910.38,-104.87 823.38,-84.88 776.78,-74.17"/>
<polygon fill="#63b8ff" stroke="#63b8ff" points="777.86,-70.82 767.33,-71.99 776.29,-77.64 777.86,-70.82"/>
</a>
</g>
</g>
<!-- Node10 -->
<g id="Node000010" class="node">
<title>Node10</title>
<g id="a_Node000010"><a xlink:title=" ">
<polygon fill="#e0e0e0" stroke="#999999" points="1009.97,-76 975.22,-76 975.22,-56 1009.97,-56 1009.97,-76"/>
<text text-anchor="middle" x="992.59" y="-62.5" font-family="Helvetica,sans-Serif" font-size="10.00">map</text>
</a>
</g>
</g>
<!-- Node8&#45;&gt;Node10 -->
<g id="edge11_Node000008_Node000010" class="edge">
<title>Node8&#45;&gt;Node10</title>
<g id="a_edge11_Node000008_Node000010"><a xlink:title=" ">
<path fill="none" stroke="#63b8ff" d="M982.68,-111.59C984.16,-104.93 986.2,-95.75 988.05,-87.44"/>
<polygon fill="#63b8ff" stroke="#63b8ff" points="991.44,-88.3 990.2,-77.78 984.61,-86.78 991.44,-88.3"/>
</a>
</g>
</g>
<!-- Node11&#45;&gt;Node3 -->
<g id="edge17_Node000011_Node000003" class="edge">
<title>Node11&#45;&gt;Node3</title>
<g id="a_edge17_Node000011_Node000003"><a xlink:title=" ">
<path fill="none" stroke="#63b8ff" d="M708.85,-169.03C735.55,-161.25 775.73,-148.21 808.59,-132 836.86,-118.06 866.77,-97.51 886.22,-83.26"/>
<polygon fill="#63b8ff" stroke="#63b8ff" points="888.22,-86.13 894.16,-77.36 884.04,-80.52 888.22,-86.13"/>
</a>
</g>
</g>
<!-- Node11&#45;&gt;Node5 -->
<g id="edge18_Node000011_Node000005" class="edge">
<title>Node11&#45;&gt;Node5</title>
<g id="a_edge18_Node000011_Node000005"><a xlink:title=" ">
<path fill="none" stroke="#63b8ff" d="M671.76,-167.77C659.03,-153.41 632.34,-125.93 603.59,-112 541.97,-82.14 461.84,-72.09 414.83,-68.71"/>
<polygon fill="#63b8ff" stroke="#63b8ff" points="415.05,-65.22 404.85,-68.07 414.6,-72.21 415.05,-65.22"/>
</a>
</g>
</g>
<!-- Node11&#45;&gt;Node9 -->
<g id="edge15_Node000011_Node000009" class="edge">
<title>Node11&#45;&gt;Node9</title>
<g id="a_edge15_Node000011_Node000009"><a xlink:title=" ">
<path fill="none" stroke="#63b8ff" d="M708.86,-174.45C735.94,-170.36 774.74,-159.71 793.59,-132 805.24,-114.87 787.49,-95.88 770.37,-82.87"/>
<polygon fill="#63b8ff" stroke="#63b8ff" points="772.53,-80.11 762.35,-77.18 768.48,-85.82 772.53,-80.11"/>
</a>
</g>
</g>
<!-- Node12 -->
<g id="Node000012" class="node">
<title>Node12</title>
<g id="a_Node000012"><a xlink:title=" ">
<polygon fill="#e0e0e0" stroke="#999999" points="784.97,-132 726.22,-132 726.22,-112 784.97,-112 784.97,-132"/>
<text text-anchor="middle" x="755.59" y="-118.5" font-family="Helvetica,sans-Serif" font-size="10.00">ncurses.h</text>
</a>
</g>
</g>
<!-- Node11&#45;&gt;Node12 -->
<g id="edge14_Node000011_Node000012" class="edge">
<title>Node11&#45;&gt;Node12</title>
<g id="a_edge14_Node000011_Node000012"><a xlink:title=" ">
<path fill="none" stroke="#63b8ff" d="M692.83,-167.59C703.88,-159.74 719.87,-148.38 732.95,-139.09"/>
<polygon fill="#63b8ff" stroke="#63b8ff" points="734.89,-142 741.02,-133.36 730.84,-136.3 734.89,-142"/>
</a>
</g>
</g>
<!-- Node13 -->
<g id="Node000013" class="node">
<title>Node13</title>
<g id="a_Node000013"><a xlink:title=" ">
<polygon fill="#e0e0e0" stroke="#999999" points="594.47,-132 544.72,-132 544.72,-112 594.47,-112 594.47,-132"/>
<text text-anchor="middle" x="569.59" y="-118.5" font-family="Helvetica,sans-Serif" font-size="10.00">optional</text>
</a>
</g>
</g>
<!-- Node11&#45;&gt;Node13 -->
<g id="edge16_Node000011_Node000013" class="edge">
<title>Node11&#45;&gt;Node13</title>
<g id="a_edge16_Node000011_Node000013"><a xlink:title=" ">
<path fill="none" stroke="#63b8ff" d="M660.43,-167.59C643.5,-159.28 618.54,-147.03 599.07,-137.47"/>
<polygon fill="#63b8ff" stroke="#63b8ff" points="600.78,-134.41 590.26,-133.15 597.7,-140.7 600.78,-134.41"/>
</a>
</g>
</g>
<!-- Node14 -->
<g id="Node000014" class="node">
<title>Node14</title>
<g id="a_Node000014"><a xlink:href="Helpers_8h.html" target="_top" xlink:title=" ">
<polygon fill="white" stroke="#666666" points="708.59,-132 650.59,-132 650.59,-112 708.59,-112 708.59,-132"/>
<text text-anchor="middle" x="679.59" y="-118.5" font-family="Helvetica,sans-Serif" font-size="10.00">Helpers.h</text>
</a>
</g>
</g>
<!-- Node11&#45;&gt;Node14 -->
<g id="edge19_Node000011_Node000014" class="edge">
<title>Node11&#45;&gt;Node14</title>
<g id="a_edge19_Node000011_Node000014"><a xlink:title=" ">
<path fill="none" stroke="#63b8ff" d="M679.59,-167.59C679.59,-161.01 679.59,-151.96 679.59,-143.73"/>
<polygon fill="#63b8ff" stroke="#63b8ff" points="683.09,-143.81 679.59,-133.81 676.09,-143.81 683.09,-143.81"/>
</a>
</g>
</g>
<!-- Node14&#45;&gt;Node3 -->
<g id="edge22_Node000014_Node000003" class="edge">
<title>Node14&#45;&gt;Node3</title>
<g id="a_edge22_Node000014_Node000003"><a xlink:title=" ">
<path fill="none" stroke="#63b8ff" d="M708.93,-114.05C751.55,-103.96 830.33,-85.3 874.8,-74.77"/>
<polygon fill="#63b8ff" stroke="#63b8ff" points="875.46,-78.21 884.38,-72.5 873.84,-71.4 875.46,-78.21"/>
</a>
</g>
</g>
<!-- Node14&#45;&gt;Node5 -->
<g id="edge20_Node000014_Node000005" class="edge">
<title>Node14&#45;&gt;Node5</title>
<g id="a_edge20_Node000014_Node000005"><a xlink:title=" ">
<path fill="none" stroke="#63b8ff" d="M650.48,-114.76C645.84,-113.81 641.09,-112.86 636.59,-112 558.03,-97.01 465.72,-81.61 414.63,-73.29"/>
<polygon fill="#63b8ff" stroke="#63b8ff" points="415.39,-69.86 404.96,-71.71 414.27,-76.77 415.39,-69.86"/>
</a>
</g>
</g>
<!-- Node14&#45;&gt;Node9 -->
<g id="edge21_Node000014_Node000009" class="edge">
<title>Node14&#45;&gt;Node9</title>
<g id="a_edge21_Node000014_Node000009"><a xlink:title=" ">
<path fill="none" stroke="#63b8ff" d="M691.09,-111.59C700.55,-103.85 714.2,-92.69 725.46,-83.47"/>
<polygon fill="#63b8ff" stroke="#63b8ff" points="727.53,-86.3 733.06,-77.26 723.1,-80.88 727.53,-86.3"/>
</a>
</g>
</g>
<!-- Node15&#45;&gt;Node9 -->
<g id="edge35_Node000015_Node000009" class="edge">
<title>Node15&#45;&gt;Node9</title>
<g id="a_edge35_Node000015_Node000009"><a xlink:title=" ">
<path fill="none" stroke="#63b8ff" d="M511.3,-335.57C499.86,-300.95 465.55,-179.32 522.59,-112 546.92,-83.3 658.55,-72.39 714.06,-68.69"/>
<polygon fill="#63b8ff" stroke="#63b8ff" points="714.05,-72.2 723.81,-68.08 713.61,-65.21 714.05,-72.2"/>
</a>
</g>
</g>
<!-- Node16 -->
<g id="Node000016" class="node">
<title>Node16</title>
<g id="a_Node000016"><a xlink:href="MovingObject_8h.html" target="_top" xlink:title="Base class for all moving objects.">
<polygon fill="white" stroke="#666666" points="398.72,-300 314.47,-300 314.47,-280 398.72,-280 398.72,-300"/>
<text text-anchor="middle" x="356.59" y="-286.5" font-family="Helvetica,sans-Serif" font-size="10.00">MovingObject.h</text>
</a>
</g>
</g>
<!-- Node15&#45;&gt;Node16 -->
<g id="edge24_Node000015_Node000016" class="edge">
<title>Node15&#45;&gt;Node16</title>
<g id="a_edge24_Node000015_Node000016"><a xlink:title=" ">
<path fill="none" stroke="#63b8ff" d="M488.5,-336.08C463.01,-327.37 423.91,-314.01 394.9,-304.09"/>
<polygon fill="#63b8ff" stroke="#63b8ff" points="396.34,-300.89 385.75,-300.97 394.08,-307.51 396.34,-300.89"/>
</a>
</g>
</g>
<!-- Node15&#45;&gt;Node17 -->
<g id="edge34_Node000015_Node000017" class="edge">
<title>Node15&#45;&gt;Node17</title>
<g id="a_edge34_Node000015_Node000017"><a xlink:title=" ">
<path fill="none" stroke="#63b8ff" d="M520.56,-335.62C532.03,-317.6 557.35,-277.81 572.49,-254.02"/>
<polygon fill="#63b8ff" stroke="#63b8ff" points="575.41,-255.95 577.83,-245.63 569.5,-252.19 575.41,-255.95"/>
</a>
</g>
</g>
<!-- Node16&#45;&gt;Node2 -->
<g id="edge27_Node000016_Node000002" class="edge">
<title>Node16&#45;&gt;Node2</title>
<g id="a_edge27_Node000016_Node000002"><a xlink:title=" ">
<path fill="none" stroke="#63b8ff" d="M340.17,-279.7C317.35,-266.84 274.64,-243.07 237.59,-224 216.89,-213.35 193.27,-201.93 175.02,-193.26"/>
<polygon fill="#63b8ff" stroke="#63b8ff" points="176.59,-190.13 166.06,-189.02 173.6,-196.46 176.59,-190.13"/>
</a>
</g>
</g>
<!-- Node16&#45;&gt;Node4 -->
<g id="edge25_Node000016_Node000004" class="edge">
<title>Node16&#45;&gt;Node4</title>
<g id="a_edge25_Node000016_Node000004"><a xlink:title=" ">
<path fill="none" stroke="#63b8ff" d="M314.22,-280.74C264.8,-271.11 183.17,-255.19 130.39,-244.9"/>
<polygon fill="#63b8ff" stroke="#63b8ff" points="131.24,-241.5 120.75,-243.02 129.9,-248.37 131.24,-241.5"/>
</a>
</g>
</g>
<!-- Node16&#45;&gt;Node5 -->
<g id="edge26_Node000016_Node000005" class="edge">
<title>Node16&#45;&gt;Node5</title>
<g id="a_edge26_Node000016_Node000005"><a xlink:title=" ">
<path fill="none" stroke="#63b8ff" d="M357.38,-279.74C360.21,-246.74 369.83,-134.31 373.83,-87.61"/>
<polygon fill="#63b8ff" stroke="#63b8ff" points="377.3,-88.07 374.67,-77.8 370.33,-87.47 377.3,-88.07"/>
</a>
</g>
</g>
<!-- Node16&#45;&gt;Node7 -->
<g id="edge33_Node000016_Node000007" class="edge">
<title>Node16&#45;&gt;Node7</title>
<g id="a_edge33_Node000016_Node000007"><a xlink:title=" ">
<path fill="none" stroke="#63b8ff" d="M351.48,-279.61C344.07,-266.45 329.49,-242.09 313.59,-224 304.51,-213.67 293.08,-203.53 283.24,-195.49"/>
<polygon fill="#63b8ff" stroke="#63b8ff" points="285.63,-192.91 275.62,-189.44 281.28,-198.4 285.63,-192.91"/>
</a>
</g>
</g>
<!-- Node16&#45;&gt;Node13 -->
<g id="edge28_Node000016_Node000013" class="edge">
<title>Node16&#45;&gt;Node13</title>
<g id="a_edge28_Node000016_Node000013"><a xlink:title=" ">
<path fill="none" stroke="#63b8ff" d="M368.65,-279.6C403.51,-252.44 504.67,-173.6 548.71,-139.28"/>
<polygon fill="#63b8ff" stroke="#63b8ff" points="550.73,-142.14 556.47,-133.23 546.43,-136.61 550.73,-142.14"/>
</a>
</g>
</g>
<!-- Node16&#45;&gt;Node17 -->
<g id="edge29_Node000016_Node000017" class="edge">
<title>Node16&#45;&gt;Node17</title>
<g id="a_edge29_Node000016_Node000017"><a xlink:title=" ">
<path fill="none" stroke="#63b8ff" d="M396.57,-279.53C440.6,-269.1 510.59,-252.53 551.61,-242.81"/>
<polygon fill="#63b8ff" stroke="#63b8ff" points="552.22,-246.26 561.14,-240.55 550.61,-239.45 552.22,-246.26"/>
</a>
</g>
</g>
<!-- Node17&#45;&gt;Node3 -->
<g id="edge31_Node000017_Node000003" class="edge">
<title>Node17&#45;&gt;Node3</title>
<g id="a_edge31_Node000017_Node000003"><a xlink:title=" ">
<path fill="none" stroke="#63b8ff" d="M606.27,-227.87C652.26,-216.26 761.79,-184.84 839.59,-132 859.54,-118.45 879.1,-98.91 892.08,-84.79"/>
<polygon fill="#63b8ff" stroke="#63b8ff" points="894.51,-87.32 898.59,-77.54 889.3,-82.65 894.51,-87.32"/>
</a>
</g>
</g>
<!-- Node17&#45;&gt;Node9 -->
<g id="edge30_Node000017_Node000009" class="edge">
<title>Node17&#45;&gt;Node9</title>
<g id="a_edge30_Node000017_Node000009"><a xlink:title=" ">
<path fill="none" stroke="#63b8ff" d="M574.81,-223.55C553.49,-201.82 506.95,-147.43 535.59,-112 557.67,-84.7 660.91,-73.21 713.96,-69.05"/>
<polygon fill="#63b8ff" stroke="#63b8ff" points="714.15,-72.54 723.87,-68.31 713.64,-65.56 714.15,-72.54"/>
</a>
</g>
</g>
<!-- Node17&#45;&gt;Node11 -->
<g id="edge32_Node000017_Node000011" class="edge">
<title>Node17&#45;&gt;Node11</title>
<g id="a_edge32_Node000017_Node000011"><a xlink:title=" ">
<path fill="none" stroke="#63b8ff" d="M601.14,-223.59C615.49,-215.44 636.52,-203.48 653.19,-194"/>
<polygon fill="#63b8ff" stroke="#63b8ff" points="654.64,-197.21 661.6,-189.23 651.18,-191.13 654.64,-197.21"/>
</a>
</g>
</g>
<!-- Node18&#45;&gt;Node2 -->
<g id="edge43_Node000018_Node000002" class="edge">
<title>Node18&#45;&gt;Node2</title>
<g id="a_edge43_Node000018_Node000002"><a xlink:title=" ">
<path fill="none" stroke="#63b8ff" d="M421.5,-391.56C375.8,-370.34 265.94,-315.11 193.59,-244 179.14,-229.79 165.5,-211.1 156.3,-197.41"/>
<polygon fill="#63b8ff" stroke="#63b8ff" points="159.42,-195.79 151.02,-189.34 153.56,-199.62 159.42,-195.79"/>
</a>
</g>
</g>
<!-- Node18&#45;&gt;Node15 -->
<g id="edge44_Node000018_Node000015" class="edge">
<title>Node18&#45;&gt;Node15</title>
<g id="a_edge44_Node000018_Node000015"><a xlink:title=" ">
<path fill="none" stroke="#63b8ff" d="M455.13,-391.59C465.56,-383.77 480.64,-372.46 493,-363.19"/>
<polygon fill="#63b8ff" stroke="#63b8ff" points="495.08,-366.01 500.98,-357.21 490.88,-360.41 495.08,-366.01"/>
</a>
</g>
</g>
<!-- Node18&#45;&gt;Node16 -->
<g id="edge37_Node000018_Node000016" class="edge">
<title>Node18&#45;&gt;Node16</title>
<g id="a_edge37_Node000018_Node000016"><a xlink:title=" ">
<path fill="none" stroke="#63b8ff" d="M417.13,-391.56C401.04,-384.28 381.16,-372.62 369.59,-356 360.53,-342.98 357.46,-325.14 356.55,-311.45"/>
<polygon fill="#63b8ff" stroke="#63b8ff" points="360.06,-311.69 356.27,-301.8 353.07,-311.9 360.06,-311.69"/>
</a>
</g>
</g>
<!-- Node18&#45;&gt;Node17 -->
<g id="edge45_Node000018_Node000017" class="edge">
<title>Node18&#45;&gt;Node17</title>
<g id="a_edge45_Node000018_Node000017"><a xlink:title=" ">
<path fill="none" stroke="#63b8ff" d="M468.32,-396.72C492.63,-391.35 528.43,-379.79 549.59,-356 574.83,-327.64 581.93,-282.1 583.89,-255.73"/>
<polygon fill="#63b8ff" stroke="#63b8ff" points="587.37,-256.16 584.42,-245.99 580.38,-255.78 587.37,-256.16"/>
</a>
</g>
</g>
<!-- Node19 -->
<g id="Node000019" class="node">
<title>Node19</title>
<g id="a_Node000019"><a xlink:href="EnemyBehavior_8h.html" target="_top" xlink:title="Base class for all enemy behaviors.">
<polygon fill="white" stroke="#666666" points="470.84,-356 378.34,-356 378.34,-336 470.84,-336 470.84,-356"/>
<text text-anchor="middle" x="424.59" y="-342.5" font-family="Helvetica,sans-Serif" font-size="10.00">EnemyBehavior.h</text>
</a>
</g>
</g>
<!-- Node18&#45;&gt;Node19 -->
<g id="edge38_Node000018_Node000019" class="edge">
<title>Node18&#45;&gt;Node19</title>
<g id="a_edge38_Node000018_Node000019"><a xlink:title=" ">
<path fill="none" stroke="#63b8ff" d="M439.46,-391.59C437.21,-384.86 434.1,-375.53 431.31,-367.15"/>
<polygon fill="#63b8ff" stroke="#63b8ff" points="434.65,-366.11 428.17,-357.73 428.01,-368.33 434.65,-366.11"/>
</a>
</g>
</g>
<!-- Node19&#45;&gt;Node2 -->
<g id="edge41_Node000019_Node000002" class="edge">
<title>Node19&#45;&gt;Node2</title>
<g id="a_edge41_Node000019_Node000002"><a xlink:title=" ">
<path fill="none" stroke="#63b8ff" d="M392.19,-335.5C367.63,-327.65 333.46,-315.33 305.59,-300 249.75,-269.28 191.81,-220.96 163.07,-195.68"/>
<polygon fill="#63b8ff" stroke="#63b8ff" points="165.73,-193.37 155.93,-189.34 161.08,-198.6 165.73,-193.37"/>
</a>
</g>
</g>
<!-- Node19&#45;&gt;Node5 -->
<g id="edge40_Node000019_Node000005" class="edge">
<title>Node19&#45;&gt;Node5</title>
<g id="a_edge40_Node000019_Node000005"><a xlink:title=" ">
<path fill="none" stroke="#63b8ff" d="M423.08,-335.66C417.97,-304.13 400.71,-198.76 384.59,-112 383.1,-103.97 381.36,-95.17 379.81,-87.49"/>
<polygon fill="#63b8ff" stroke="#63b8ff" points="383.26,-86.87 377.83,-77.78 376.4,-88.27 383.26,-86.87"/>
</a>
</g>
</g>
<!-- Node19&#45;&gt;Node16 -->
<g id="edge42_Node000019_Node000016" class="edge">
<title>Node19&#45;&gt;Node16</title>
<g id="a_edge42_Node000019_Node000016"><a xlink:title=" ">
<path fill="none" stroke="#63b8ff" d="M412.75,-335.59C402.9,-327.77 388.66,-316.46 376.98,-307.19"/>
<polygon fill="#63b8ff" stroke="#63b8ff" points="379.49,-304.72 369.49,-301.24 375.14,-310.2 379.49,-304.72"/>
</a>
</g>
</g>
<!-- Node19&#45;&gt;Node17 -->
<g id="edge39_Node000019_Node000017" class="edge">
<title>Node19&#45;&gt;Node17</title>
<g id="a_edge39_Node000019_Node000017"><a xlink:title=" ">
<path fill="none" stroke="#63b8ff" d="M438.23,-335.62C465.75,-316.71 528.13,-273.82 561.89,-250.61"/>
<polygon fill="#63b8ff" stroke="#63b8ff" points="563.48,-253.76 569.74,-245.21 559.51,-247.99 563.48,-253.76"/>
</a>
</g>
</g>
<!-- Node20&#45;&gt;Node3 -->
<g id="edge48_Node000020_Node000003" class="edge">
<title>Node20&#45;&gt;Node3</title>
<g id="a_edge48_Node000020_Node000003"><a xlink:title=" ">
<path fill="none" stroke="#63b8ff" d="M1036.42,-111.59C1009.6,-102.31 968.58,-88.11 940.06,-78.24"/>
<polygon fill="#63b8ff" stroke="#63b8ff" points="941.45,-75.02 930.86,-75.05 939.16,-81.63 941.45,-75.02"/>
</a>
</g>
</g>
<!-- Node20&#45;&gt;Node9 -->
<g id="edge49_Node000020_Node000009" class="edge">
<title>Node20&#45;&gt;Node9</title>
<g id="a_edge49_Node000020_Node000009"><a xlink:title=" ">
<path fill="none" stroke="#63b8ff" d="M1024.57,-113.62C1021.53,-113.06 1018.51,-112.52 1015.59,-112 929.38,-96.74 827.42,-80.14 777.03,-72.03"/>
<polygon fill="#63b8ff" stroke="#63b8ff" points="777.86,-68.62 767.43,-70.49 776.75,-75.53 777.86,-68.62"/>
</a>
</g>
</g>
<!-- Node20&#45;&gt;Node10 -->
<g id="edge50_Node000020_Node000010" class="edge">
<title>Node20&#45;&gt;Node10</title>
<g id="a_edge50_Node000020_Node000010"><a xlink:title=" ">
<path fill="none" stroke="#63b8ff" d="M1051.22,-111.59C1040.94,-103.77 1026.07,-92.46 1013.88,-83.19"/>
<polygon fill="#63b8ff" stroke="#63b8ff" points="1016.1,-80.48 1006.02,-77.21 1011.86,-86.05 1016.1,-80.48"/>
</a>
</g>
</g>
<!-- Node21 -->
<g id="Node000021" class="node">
<title>Node21</title>
<g id="a_Node000021"><a xlink:title=" ">
<polygon fill="#e0e0e0" stroke="#999999" points="1086.22,-76 1040.97,-76 1040.97,-56 1086.22,-56 1086.22,-76"/>
<text text-anchor="middle" x="1063.59" y="-62.5" font-family="Helvetica,sans-Serif" font-size="10.00">cstdint</text>
</a>
</g>
</g>
<!-- Node20&#45;&gt;Node21 -->
<g id="edge51_Node000020_Node000021" class="edge">
<title>Node20&#45;&gt;Node21</title>
<g id="a_edge51_Node000020_Node000021"><a xlink:title=" ">
<path fill="none" stroke="#63b8ff" d="M1063.59,-111.59C1063.59,-105.01 1063.59,-95.96 1063.59,-87.73"/>
<polygon fill="#63b8ff" stroke="#63b8ff" points="1067.09,-87.81 1063.59,-77.81 1060.09,-87.81 1067.09,-87.81"/>
</a>
</g>
</g>
<!-- Node22&#45;&gt;Node2 -->
<g id="edge55_Node000022_Node000002" class="edge">
<title>Node22&#45;&gt;Node2</title>
<g id="a_edge55_Node000022_Node000002"><a xlink:title=" ">
<path fill="none" stroke="#63b8ff" d="M139.49,-391.7C115.01,-363.4 42.83,-278.12 31.59,-244 28.81,-235.56 26.6,-231.36 31.59,-224 48.52,-199.03 81.75,-187.92 107.81,-182.97"/>
<polygon fill="#63b8ff" stroke="#63b8ff" points="108.04,-186.48 117.34,-181.4 106.9,-179.57 108.04,-186.48"/>
</a>
</g>
</g>
<!-- Node22&#45;&gt;Node4 -->
<g id="edge53_Node000022_Node000004" class="edge">
<title>Node22&#45;&gt;Node4</title>
<g id="a_edge53_Node000022_Node000004"><a xlink:title=" ">
<path fill="none" stroke="#63b8ff" d="M143.74,-391.6C132.99,-365.35 102.47,-290.84 87.74,-254.89"/>
<polygon fill="#63b8ff" stroke="#63b8ff" points="91,-253.62 83.97,-245.7 84.53,-256.28 91,-253.62"/>
</a>
</g>
</g>
<!-- Node22&#45;&gt;Node5 -->
<g id="edge54_Node000022_Node000005" class="edge">
<title>Node22&#45;&gt;Node5</title>
<g id="a_edge54_Node000022_Node000005"><a xlink:title=" ">
<path fill="none" stroke="#63b8ff" d="M131.93,-391.57C92.07,-366.29 -7.87,-294.12 24.59,-224 79.68,-105.01 256.86,-76.19 336.35,-69.22"/>
<polygon fill="#63b8ff" stroke="#63b8ff" points="336.59,-72.71 346.29,-68.43 336.04,-65.73 336.59,-72.71"/>
</a>
</g>
</g>
<!-- Node22&#45;&gt;Node7 -->
<g id="edge58_Node000022_Node000007" class="edge">
<title>Node22&#45;&gt;Node7</title>
<g id="a_edge58_Node000022_Node000007"><a xlink:title=" ">
<path fill="none" stroke="#63b8ff" d="M152.35,-391.74C169.44,-358.46 228.02,-244.39 251.62,-198.42"/>
<polygon fill="#63b8ff" stroke="#63b8ff" points="254.67,-200.14 256.13,-189.64 248.45,-196.94 254.67,-200.14"/>
</a>
</g>
</g>
<!-- Node22&#45;&gt;Node15 -->
<g id="edge57_Node000022_Node000015" class="edge">
<title>Node22&#45;&gt;Node15</title>
<g id="a_edge57_Node000022_Node000015"><a xlink:title=" ">
<path fill="none" stroke="#63b8ff" d="M197.11,-396.12C260.02,-389.51 372.13,-376.4 477.51,-356.2"/>
<polygon fill="#63b8ff" stroke="#63b8ff" points="478.04,-359.66 487.19,-354.31 476.71,-352.79 478.04,-359.66"/>
</a>
</g>
</g>
<!-- Node22&#45;&gt;Node16 -->
<g id="edge56_Node000022_Node000016" class="edge">
<title>Node22&#45;&gt;Node16</title>
<g id="a_edge56_Node000022_Node000016"><a xlink:title=" ">
<path fill="none" stroke="#63b8ff" d="M165.41,-391.62C201.89,-372.42 285.3,-328.52 328.9,-305.58"/>
<polygon fill="#63b8ff" stroke="#63b8ff" points="330.26,-308.81 337.48,-301.06 327,-302.62 330.26,-308.81"/>
</a>
</g>
</g>
</g>
</svg>
