<?xml version="1.0" encoding="UTF-8" standalone="no"?>
<!DOCTYPE svg PUBLIC "-//W3C//DTD SVG 1.1//EN"
 "http://www.w3.org/Graphics/SVG/1.1/DTD/svg11.dtd">
<!-- Generated by graphviz version 2.43.0 (0)
 -->
<!-- Title: src/GameObject.h Pages: 1 -->
<svg width="191pt" height="196pt"
 viewBox="0.00 0.00 190.50 196.00" xmlns="http://www.w3.org/2000/svg" xmlns:xlink="http://www.w3.org/1999/xlink">
<g id="graph0" class="graph" transform="scale(1 1) rotate(0) translate(4 192)">
<title>src/GameObject.h</title>
<polygon fill="white" stroke="transparent" points="-4,4 -4,-192 186.5,-192 186.5,4 -4,4"/>
<!-- Node1 -->
<g id="node1" class="node">
<title>Node1</title>
<g id="a_node1"><a xlink:title="Base class for all game objects.">
<polygon fill="#bfbfbf" stroke="black" points="12.5,-168.5 12.5,-187.5 116.5,-187.5 116.5,-168.5 12.5,-168.5"/>
<text text-anchor="middle" x="64.5" y="-175.5" font-family="Helvetica,sans-Serif" font-size="10.00">src/GameObject.h</text>
</a>
</g>
</g>
<!-- Node2 -->
<g id="node2" class="node">
<title>Node2</title>
<g id="a_node2"><a xlink:href="Enums_8h.html" target="_top" xlink:title=" ">
<polygon fill="white" stroke="black" points="0,-56.5 0,-75.5 59,-75.5 59,-56.5 0,-56.5"/>
<text text-anchor="middle" x="29.5" y="-63.5" font-family="Helvetica,sans-Serif" font-size="10.00">Enums.h</text>
</a>
</g>
</g>
<!-- Node1&#45;&gt;Node2 -->
<g id="edge1" class="edge">
<title>Node1&#45;&gt;Node2</title>
<path fill="none" stroke="midnightblue" d="M48.77,-168.24C36.61,-160.48 20.69,-147.93 13.5,-132 6.64,-116.81 12.49,-98.23 18.96,-84.84"/>
<polygon fill="midnightblue" stroke="midnightblue" points="22.2,-86.21 23.83,-75.74 16.03,-82.91 22.2,-86.21"/>
</g>
<!-- Node4 -->
<g id="node4" class="node">
<title>Node4</title>
<g id="a_node4"><a xlink:href="GamePhase_8h.html" target="_top" xlink:title="Handles the game phase and level.">
<polygon fill="white" stroke="black" points="22.5,-112.5 22.5,-131.5 106.5,-131.5 106.5,-112.5 22.5,-112.5"/>
<text text-anchor="middle" x="64.5" y="-119.5" font-family="Helvetica,sans-Serif" font-size="10.00">GamePhase.h</text>
</a>
</g>
</g>
<!-- Node1&#45;&gt;Node4 -->
<g id="edge3" class="edge">
<title>Node1&#45;&gt;Node4</title>
<path fill="none" stroke="midnightblue" d="M64.5,-168.08C64.5,-161.01 64.5,-150.86 64.5,-141.99"/>
<polygon fill="midnightblue" stroke="midnightblue" points="68,-141.75 64.5,-131.75 61,-141.75 68,-141.75"/>
</g>
<!-- Node5 -->
<g id="node5" class="node">
<title>Node5</title>
<g id="a_node5"><a xlink:title=" ">
<polygon fill="white" stroke="#bfbfbf" points="124.5,-112.5 124.5,-131.5 182.5,-131.5 182.5,-112.5 124.5,-112.5"/>
<text text-anchor="middle" x="153.5" y="-119.5" font-family="Helvetica,sans-Serif" font-size="10.00">memory</text>
</a>
</g>
</g>
<!-- Node1&#45;&gt;Node5 -->
<g id="edge5" class="edge">
<title>Node1&#45;&gt;Node5</title>
<path fill="none" stroke="midnightblue" d="M78.8,-168.32C92.68,-159.9 113.99,-146.97 130.3,-137.07"/>
<polygon fill="midnightblue" stroke="midnightblue" points="132.5,-139.83 139.24,-131.65 128.87,-133.85 132.5,-139.83"/>
</g>
<!-- Node3 -->
<g id="node3" class="node">
<title>Node3</title>
<g id="a_node3"><a xlink:title=" ">
<polygon fill="white" stroke="#bfbfbf" points="7,-0.5 7,-19.5 52,-19.5 52,-0.5 7,-0.5"/>
<text text-anchor="middle" x="29.5" y="-7.5" font-family="Helvetica,sans-Serif" font-size="10.00">utility</text>
</a>
</g>
</g>
<!-- Node2&#45;&gt;Node3 -->
<g id="edge2" class="edge">
<title>Node2&#45;&gt;Node3</title>
<path fill="none" stroke="midnightblue" d="M29.5,-56.08C29.5,-49.01 29.5,-38.86 29.5,-29.99"/>
<polygon fill="midnightblue" stroke="midnightblue" points="33,-29.75 29.5,-19.75 26,-29.75 33,-29.75"/>
</g>
<!-- Node4&#45;&gt;Node2 -->
<g id="edge4" class="edge">
<title>Node4&#45;&gt;Node2</title>
<path fill="none" stroke="midnightblue" d="M58.72,-112.08C53.83,-104.53 46.67,-93.49 40.67,-84.23"/>
<polygon fill="midnightblue" stroke="midnightblue" points="43.55,-82.24 35.17,-75.75 37.67,-86.05 43.55,-82.24"/>
</g>
</g>
</svg>
