<?xml version="1.0" encoding="UTF-8" standalone="no"?>
<!DOCTYPE svg PUBLIC "-//W3C//DTD SVG 1.1//EN"
 "http://www.w3.org/Graphics/SVG/1.1/DTD/svg11.dtd">
<!-- Generated by graphviz version 2.43.0 (0)
 -->
<!-- Title: src/Game.cpp Pages: 1 -->
<svg width="1197pt" height="532pt"
 viewBox="0.00 0.00 1197.00 532.00" xmlns="http://www.w3.org/2000/svg" xmlns:xlink="http://www.w3.org/1999/xlink">
<g id="graph0" class="graph" transform="scale(1 1) rotate(0) translate(4 528)">
<title>src/Game.cpp</title>
<polygon fill="white" stroke="transparent" points="-4,4 -4,-528 1193,-528 1193,4 -4,4"/>
<!-- Node1 -->
<g id="node1" class="node">
<title>Node1</title>
<g id="a_node1"><a xlink:title="Class for handling the game logic.">
<polygon fill="#bfbfbf" stroke="black" points="440.5,-504.5 440.5,-523.5 523.5,-523.5 523.5,-504.5 440.5,-504.5"/>
<text text-anchor="middle" x="482" y="-511.5" font-family="Helvetica,sans-Serif" font-size="10.00">src/Game.cpp</text>
</a>
</g>
</g>
<!-- Node2 -->
<g id="node2" class="node">
<title>Node2</title>
<g id="a_node2"><a xlink:href="Game_8h.html" target="_top" xlink:title="Class for handling the game logic.">
<polygon fill="white" stroke="black" points="596.5,-448.5 596.5,-467.5 651.5,-467.5 651.5,-448.5 596.5,-448.5"/>
<text text-anchor="middle" x="624" y="-455.5" font-family="Helvetica,sans-Serif" font-size="10.00">Game.h</text>
</a>
</g>
</g>
<!-- Node1&#45;&gt;Node2 -->
<g id="edge1" class="edge">
<title>Node1&#45;&gt;Node2</title>
<path fill="none" stroke="midnightblue" d="M504.5,-504.44C528.08,-495.48 565.32,-481.31 591.96,-471.18"/>
<polygon fill="midnightblue" stroke="midnightblue" points="593.5,-474.34 601.6,-467.52 591.01,-467.8 593.5,-474.34"/>
</g>
<!-- Node3 -->
<g id="node3" class="node">
<title>Node3</title>
<g id="a_node3"><a xlink:title=" ">
<polygon fill="white" stroke="#bfbfbf" points="166,-168.5 166,-187.5 224,-187.5 224,-168.5 166,-168.5"/>
<text text-anchor="middle" x="195" y="-175.5" font-family="Helvetica,sans-Serif" font-size="10.00">memory</text>
</a>
</g>
</g>
<!-- Node1&#45;&gt;Node3 -->
<g id="edge60" class="edge">
<title>Node1&#45;&gt;Node3</title>
<path fill="none" stroke="midnightblue" d="M440.27,-511.49C382.04,-508.31 273.77,-498.45 187,-468 140.03,-451.52 114.89,-455.11 90,-412 47.46,-338.32 76.06,-292.88 126,-224 135.89,-210.36 151.29,-199.74 165.03,-192.26"/>
<polygon fill="midnightblue" stroke="midnightblue" points="166.89,-195.24 174.2,-187.57 163.7,-189.01 166.89,-195.24"/>
</g>
<!-- Node9 -->
<g id="node9" class="node">
<title>Node9</title>
<g id="a_node9"><a xlink:href="Config_8h.html" target="_top" xlink:title="Class for handling the game configuration.">
<polygon fill="white" stroke="black" points="1037,-112.5 1037,-131.5 1093,-131.5 1093,-112.5 1037,-112.5"/>
<text text-anchor="middle" x="1065" y="-119.5" font-family="Helvetica,sans-Serif" font-size="10.00">Config.h</text>
</a>
</g>
</g>
<!-- Node1&#45;&gt;Node9 -->
<g id="edge63" class="edge">
<title>Node1&#45;&gt;Node9</title>
<path fill="none" stroke="midnightblue" d="M523.69,-513.31C649.86,-513.13 1019,-503.99 1019,-403 1019,-403 1019,-403 1019,-233 1019,-197.82 1039.28,-160.86 1052.91,-140"/>
<polygon fill="midnightblue" stroke="midnightblue" points="1055.88,-141.85 1058.6,-131.61 1050.09,-137.92 1055.88,-141.85"/>
</g>
<!-- Node15 -->
<g id="node15" class="node">
<title>Node15</title>
<g id="a_node15"><a xlink:href="Helpers_8h.html" target="_top" xlink:title=" ">
<polygon fill="white" stroke="black" points="737.5,-112.5 737.5,-131.5 800.5,-131.5 800.5,-112.5 737.5,-112.5"/>
<text text-anchor="middle" x="769" y="-119.5" font-family="Helvetica,sans-Serif" font-size="10.00">Helpers.h</text>
</a>
</g>
</g>
<!-- Node1&#45;&gt;Node15 -->
<g id="edge75" class="edge">
<title>Node1&#45;&gt;Node15</title>
<path fill="none" stroke="midnightblue" d="M523.51,-513C589.84,-510.46 717.87,-494.47 773,-412 830.81,-325.51 792.36,-189.57 775.65,-140.99"/>
<polygon fill="midnightblue" stroke="midnightblue" points="778.93,-139.78 772.28,-131.53 772.34,-142.13 778.93,-139.78"/>
</g>
<!-- Node20 -->
<g id="node20" class="node">
<title>Node20</title>
<g id="a_node20"><a xlink:href="EnemyBehavior_8h.html" target="_top" xlink:title="Base class for all enemy behaviors.">
<polygon fill="white" stroke="black" points="180,-336.5 180,-355.5 282,-355.5 282,-336.5 180,-336.5"/>
<text text-anchor="middle" x="231" y="-343.5" font-family="Helvetica,sans-Serif" font-size="10.00">EnemyBehavior.h</text>
</a>
</g>
</g>
<!-- Node1&#45;&gt;Node20 -->
<g id="edge64" class="edge">
<title>Node1&#45;&gt;Node20</title>
<path fill="none" stroke="midnightblue" d="M440.44,-509.77C383.72,-504.52 286.23,-492.18 261,-468 232.97,-441.12 229.49,-392.47 229.92,-365.78"/>
<polygon fill="midnightblue" stroke="midnightblue" points="233.43,-365.64 230.3,-355.51 226.44,-365.38 233.43,-365.64"/>
</g>
<!-- Node23 -->
<g id="node23" class="node">
<title>Node23</title>
<g id="a_node23"><a xlink:title=" ">
<polygon fill="white" stroke="#bfbfbf" points="1047,-448.5 1047,-467.5 1111,-467.5 1111,-448.5 1047,-448.5"/>
<text text-anchor="middle" x="1079" y="-455.5" font-family="Helvetica,sans-Serif" font-size="10.00">algorithm</text>
</a>
</g>
</g>
<!-- Node1&#45;&gt;Node23 -->
<g id="edge61" class="edge">
<title>Node1&#45;&gt;Node23</title>
<path fill="none" stroke="midnightblue" d="M523.65,-511.19C615.8,-506.84 843.8,-494.15 1033,-468 1034.27,-467.82 1035.56,-467.64 1036.86,-467.44"/>
<polygon fill="midnightblue" stroke="midnightblue" points="1037.62,-470.86 1046.91,-465.75 1036.47,-463.96 1037.62,-470.86"/>
</g>
<!-- Node24 -->
<g id="node24" class="node">
<title>Node24</title>
<g id="a_node24"><a xlink:title=" ">
<polygon fill="white" stroke="#bfbfbf" points="1129,-448.5 1129,-467.5 1189,-467.5 1189,-448.5 1129,-448.5"/>
<text text-anchor="middle" x="1159" y="-455.5" font-family="Helvetica,sans-Serif" font-size="10.00">iostream</text>
</a>
</g>
</g>
<!-- Node1&#45;&gt;Node24 -->
<g id="edge62" class="edge">
<title>Node1&#45;&gt;Node24</title>
<path fill="none" stroke="midnightblue" d="M523.67,-512.31C624.36,-510.17 888.9,-501.67 1118.63,-467.97"/>
<polygon fill="midnightblue" stroke="midnightblue" points="1119.48,-471.38 1128.86,-466.45 1118.45,-464.46 1119.48,-471.38"/>
</g>
<!-- Node25 -->
<g id="node25" class="node">
<title>Node25</title>
<g id="a_node25"><a xlink:href="ScatterBehavior_8h.html" target="_top" xlink:title="Class for the scatter behavior of the ghosts.">
<polygon fill="white" stroke="black" points="99.5,-392.5 99.5,-411.5 202.5,-411.5 202.5,-392.5 99.5,-392.5"/>
<text text-anchor="middle" x="151" y="-399.5" font-family="Helvetica,sans-Serif" font-size="10.00">ScatterBehavior.h</text>
</a>
</g>
</g>
<!-- Node1&#45;&gt;Node25 -->
<g id="edge65" class="edge">
<title>Node1&#45;&gt;Node25</title>
<path fill="none" stroke="midnightblue" d="M440.1,-513.49C385.73,-512.49 289.28,-504.99 217,-468 194.74,-456.61 175.17,-435.08 163.24,-419.92"/>
<polygon fill="midnightblue" stroke="midnightblue" points="165.96,-417.72 157.13,-411.87 160.38,-421.95 165.96,-417.72"/>
</g>
<!-- Node26 -->
<g id="node26" class="node">
<title>Node26</title>
<g id="a_node26"><a xlink:href="Cherry_8h.html" target="_top" xlink:title="Class representing a cherry collectible.">
<polygon fill="white" stroke="black" points="419,-448.5 419,-467.5 475,-467.5 475,-448.5 419,-448.5"/>
<text text-anchor="middle" x="447" y="-455.5" font-family="Helvetica,sans-Serif" font-size="10.00">Cherry.h</text>
</a>
</g>
</g>
<!-- Node1&#45;&gt;Node26 -->
<g id="edge67" class="edge">
<title>Node1&#45;&gt;Node26</title>
<path fill="none" stroke="midnightblue" d="M476.22,-504.08C471.33,-496.53 464.17,-485.49 458.17,-476.23"/>
<polygon fill="midnightblue" stroke="midnightblue" points="461.05,-474.24 452.67,-467.75 455.17,-478.05 461.05,-474.24"/>
</g>
<!-- Node27 -->
<g id="node27" class="node">
<title>Node27</title>
<g id="a_node27"><a xlink:href="Coin_8h.html" target="_top" xlink:title="Class representing a coin collectible.">
<polygon fill="white" stroke="black" points="493.5,-448.5 493.5,-467.5 540.5,-467.5 540.5,-448.5 493.5,-448.5"/>
<text text-anchor="middle" x="517" y="-455.5" font-family="Helvetica,sans-Serif" font-size="10.00">Coin.h</text>
</a>
</g>
</g>
<!-- Node1&#45;&gt;Node27 -->
<g id="edge69" class="edge">
<title>Node1&#45;&gt;Node27</title>
<path fill="none" stroke="midnightblue" d="M487.78,-504.08C492.67,-496.53 499.83,-485.49 505.83,-476.23"/>
<polygon fill="midnightblue" stroke="midnightblue" points="508.83,-478.05 511.33,-467.75 502.95,-474.24 508.83,-478.05"/>
</g>
<!-- Node28 -->
<g id="node28" class="node">
<title>Node28</title>
<g id="a_node28"><a xlink:href="Teleport_8h.html" target="_top" xlink:title="Represents a teleport object.">
<polygon fill="white" stroke="black" points="270.5,-448.5 270.5,-467.5 335.5,-467.5 335.5,-448.5 270.5,-448.5"/>
<text text-anchor="middle" x="303" y="-455.5" font-family="Helvetica,sans-Serif" font-size="10.00">Teleport.h</text>
</a>
</g>
</g>
<!-- Node1&#45;&gt;Node28 -->
<g id="edge71" class="edge">
<title>Node1&#45;&gt;Node28</title>
<path fill="none" stroke="midnightblue" d="M453.64,-504.44C423.26,-495.28 374.89,-480.69 341.18,-470.52"/>
<polygon fill="midnightblue" stroke="midnightblue" points="341.82,-467.05 331.23,-467.52 339.79,-473.76 341.82,-467.05"/>
</g>
<!-- Node29 -->
<g id="node29" class="node">
<title>Node29</title>
<g id="a_node29"><a xlink:href="Wall_8h.html" target="_top" xlink:title="Represents a wall object.">
<polygon fill="white" stroke="black" points="353.5,-448.5 353.5,-467.5 400.5,-467.5 400.5,-448.5 353.5,-448.5"/>
<text text-anchor="middle" x="377" y="-455.5" font-family="Helvetica,sans-Serif" font-size="10.00">Wall.h</text>
</a>
</g>
</g>
<!-- Node1&#45;&gt;Node29 -->
<g id="edge73" class="edge">
<title>Node1&#45;&gt;Node29</title>
<path fill="none" stroke="midnightblue" d="M465.13,-504.32C448.29,-495.66 422.19,-482.24 402.76,-472.25"/>
<polygon fill="midnightblue" stroke="midnightblue" points="404.32,-469.12 393.83,-467.65 401.12,-475.34 404.32,-469.12"/>
</g>
<!-- Node2&#45;&gt;Node3 -->
<g id="edge2" class="edge">
<title>Node2&#45;&gt;Node3</title>
<path fill="none" stroke="midnightblue" d="M596.34,-449.37C541.4,-434.27 420.18,-401.22 378,-392 332.39,-382.03 201.05,-391.73 171,-356 132.12,-309.78 166.3,-231.43 184.87,-196.6"/>
<polygon fill="midnightblue" stroke="midnightblue" points="188.05,-198.07 189.82,-187.63 181.92,-194.69 188.05,-198.07"/>
</g>
<!-- Node4 -->
<g id="node4" class="node">
<title>Node4</title>
<g id="a_node4"><a xlink:title=" ">
<polygon fill="white" stroke="#bfbfbf" points="862.5,-56.5 862.5,-75.5 909.5,-75.5 909.5,-56.5 862.5,-56.5"/>
<text text-anchor="middle" x="886" y="-63.5" font-family="Helvetica,sans-Serif" font-size="10.00">vector</text>
</a>
</g>
</g>
<!-- Node2&#45;&gt;Node4 -->
<g id="edge3" class="edge">
<title>Node2&#45;&gt;Node4</title>
<path fill="none" stroke="midnightblue" d="M651.69,-453.34C679.52,-448.36 722.19,-437 750,-412 851.68,-320.59 878.25,-143.42 884.36,-85.68"/>
<polygon fill="midnightblue" stroke="midnightblue" points="887.86,-85.81 885.34,-75.52 880.89,-85.13 887.86,-85.81"/>
</g>
<!-- Node5 -->
<g id="node5" class="node">
<title>Node5</title>
<g id="a_node5"><a xlink:href="GameObject_8h.html" target="_top" xlink:title="Base class for all game objects.">
<polygon fill="white" stroke="black" points="261,-224.5 261,-243.5 347,-243.5 347,-224.5 261,-224.5"/>
<text text-anchor="middle" x="304" y="-231.5" font-family="Helvetica,sans-Serif" font-size="10.00">GameObject.h</text>
</a>
</g>
</g>
<!-- Node2&#45;&gt;Node5 -->
<g id="edge4" class="edge">
<title>Node2&#45;&gt;Node5</title>
<path fill="none" stroke="midnightblue" d="M596.5,-451.25C568.72,-444.64 525.29,-432.04 492,-412 416.55,-366.58 346.19,-286.64 317.54,-251.91"/>
<polygon fill="midnightblue" stroke="midnightblue" points="319.91,-249.28 310.88,-243.73 314.49,-253.7 319.91,-249.28"/>
</g>
<!-- Node8 -->
<g id="node8" class="node">
<title>Node8</title>
<g id="a_node8"><a xlink:href="GamePhase_8h.html" target="_top" xlink:title="Handles the game phase and level.">
<polygon fill="white" stroke="black" points="374,-168.5 374,-187.5 458,-187.5 458,-168.5 374,-168.5"/>
<text text-anchor="middle" x="416" y="-175.5" font-family="Helvetica,sans-Serif" font-size="10.00">GamePhase.h</text>
</a>
</g>
</g>
<!-- Node2&#45;&gt;Node8 -->
<g id="edge59" class="edge">
<title>Node2&#45;&gt;Node8</title>
<path fill="none" stroke="midnightblue" d="M623.34,-448.2C621.45,-427.39 614.69,-374.06 593,-336 555.21,-269.71 479.07,-216.96 440.13,-193"/>
<polygon fill="midnightblue" stroke="midnightblue" points="441.45,-189.71 431.08,-187.54 437.83,-195.7 441.45,-189.71"/>
</g>
<!-- Node2&#45;&gt;Node9 -->
<g id="edge10" class="edge">
<title>Node2&#45;&gt;Node9</title>
<path fill="none" stroke="midnightblue" d="M651.56,-457.07C702.76,-456.24 815.07,-449.82 900,-412 942.17,-393.22 981,-393.16 981,-347 981,-347 981,-347 981,-233 981,-202.2 986.6,-192.69 1005,-168 1014.36,-155.44 1028.18,-144.74 1040.2,-136.94"/>
<polygon fill="midnightblue" stroke="midnightblue" points="1042.26,-139.78 1048.93,-131.54 1038.58,-133.82 1042.26,-139.78"/>
</g>
<!-- Node12 -->
<g id="node12" class="node">
<title>Node12</title>
<g id="a_node12"><a xlink:href="Window_8h.html" target="_top" xlink:title="Class for handling ncurses windows.">
<polygon fill="white" stroke="black" points="656,-168.5 656,-187.5 720,-187.5 720,-168.5 656,-168.5"/>
<text text-anchor="middle" x="688" y="-175.5" font-family="Helvetica,sans-Serif" font-size="10.00">Window.h</text>
</a>
</g>
</g>
<!-- Node2&#45;&gt;Node12 -->
<g id="edge14" class="edge">
<title>Node2&#45;&gt;Node12</title>
<path fill="none" stroke="midnightblue" d="M651.66,-449.07C692.46,-435.47 764,-403.57 764,-347 764,-347 764,-347 764,-289 764,-249.28 730.04,-213.5 707.52,-194.15"/>
<polygon fill="midnightblue" stroke="midnightblue" points="709.48,-191.24 699.54,-187.57 705.02,-196.63 709.48,-191.24"/>
</g>
<!-- Node16 -->
<g id="node16" class="node">
<title>Node16</title>
<g id="a_node16"><a xlink:href="Player_8h.html" target="_top" xlink:title="Represents a player.">
<polygon fill="white" stroke="black" points="528,-336.5 528,-355.5 584,-355.5 584,-336.5 528,-336.5"/>
<text text-anchor="middle" x="556" y="-343.5" font-family="Helvetica,sans-Serif" font-size="10.00">Player.h</text>
</a>
</g>
</g>
<!-- Node2&#45;&gt;Node16 -->
<g id="edge24" class="edge">
<title>Node2&#45;&gt;Node16</title>
<path fill="none" stroke="midnightblue" d="M618.66,-448.37C607.49,-430.3 581.45,-388.18 566.7,-364.31"/>
<polygon fill="midnightblue" stroke="midnightblue" points="569.55,-362.26 561.31,-355.59 563.59,-365.94 569.55,-362.26"/>
</g>
<!-- Node18 -->
<g id="node18" class="node">
<title>Node18</title>
<g id="a_node18"><a xlink:href="Map_8h.html" target="_top" xlink:title="Class for handling the game map.">
<polygon fill="white" stroke="black" points="660.5,-224.5 660.5,-243.5 707.5,-243.5 707.5,-224.5 660.5,-224.5"/>
<text text-anchor="middle" x="684" y="-231.5" font-family="Helvetica,sans-Serif" font-size="10.00">Map.h</text>
</a>
</g>
</g>
<!-- Node2&#45;&gt;Node18 -->
<g id="edge47" class="edge">
<title>Node2&#45;&gt;Node18</title>
<path fill="none" stroke="midnightblue" d="M634.87,-448.26C644.3,-440 657.44,-426.7 664,-412 687.89,-358.44 687.36,-287.1 685.48,-253.72"/>
<polygon fill="midnightblue" stroke="midnightblue" points="688.96,-253.32 684.8,-243.58 681.98,-253.8 688.96,-253.32"/>
</g>
<!-- Node19 -->
<g id="node19" class="node">
<title>Node19</title>
<g id="a_node19"><a xlink:href="Ghost_8h.html" target="_top" xlink:title="Represents a ghost enemy.">
<polygon fill="white" stroke="black" points="501,-392.5 501,-411.5 555,-411.5 555,-392.5 501,-392.5"/>
<text text-anchor="middle" x="528" y="-399.5" font-family="Helvetica,sans-Serif" font-size="10.00">Ghost.h</text>
</a>
</g>
</g>
<!-- Node2&#45;&gt;Node19 -->
<g id="edge37" class="edge">
<title>Node2&#45;&gt;Node19</title>
<path fill="none" stroke="midnightblue" d="M608.58,-448.32C593.46,-439.82 570.18,-426.73 552.53,-416.8"/>
<polygon fill="midnightblue" stroke="midnightblue" points="553.82,-413.51 543.39,-411.65 550.39,-419.61 553.82,-413.51"/>
</g>
<!-- Node21 -->
<g id="node21" class="node">
<title>Node21</title>
<g id="a_node21"><a xlink:href="Leaderboard_8h.html" target="_top" xlink:title="Class for handling the game leaderboard.">
<polygon fill="white" stroke="black" points="933,-112.5 933,-131.5 1019,-131.5 1019,-112.5 933,-112.5"/>
<text text-anchor="middle" x="976" y="-119.5" font-family="Helvetica,sans-Serif" font-size="10.00">Leaderboard.h</text>
</a>
</g>
</g>
<!-- Node2&#45;&gt;Node21 -->
<g id="edge48" class="edge">
<title>Node2&#45;&gt;Node21</title>
<path fill="none" stroke="midnightblue" d="M651.93,-455.66C711.21,-452.27 847,-441.42 881,-412 902.48,-393.42 954.94,-202.01 971.15,-141.34"/>
<polygon fill="midnightblue" stroke="midnightblue" points="974.55,-142.17 973.74,-131.6 967.78,-140.37 974.55,-142.17"/>
</g>
<!-- Node22 -->
<g id="node22" class="node">
<title>Node22</title>
<g id="a_node22"><a xlink:href="InteractiveObject_8h.html" target="_top" xlink:title="Base class for all interactive objects.">
<polygon fill="white" stroke="black" points="259,-392.5 259,-411.5 369,-411.5 369,-392.5 259,-392.5"/>
<text text-anchor="middle" x="314" y="-399.5" font-family="Helvetica,sans-Serif" font-size="10.00">InteractiveObject.h</text>
</a>
</g>
</g>
<!-- Node2&#45;&gt;Node22 -->
<g id="edge52" class="edge">
<title>Node2&#45;&gt;Node22</title>
<path fill="none" stroke="midnightblue" d="M596.49,-452.21C546.52,-443.5 439.85,-424.92 372.83,-413.25"/>
<polygon fill="midnightblue" stroke="midnightblue" points="373.29,-409.77 362.84,-411.51 372.09,-416.67 373.29,-409.77"/>
</g>
<!-- Node5&#45;&gt;Node3 -->
<g id="edge9" class="edge">
<title>Node5&#45;&gt;Node3</title>
<path fill="none" stroke="midnightblue" d="M286.49,-224.32C268.93,-215.62 241.67,-202.12 221.47,-192.11"/>
<polygon fill="midnightblue" stroke="midnightblue" points="222.98,-188.96 212.47,-187.65 219.88,-195.23 222.98,-188.96"/>
</g>
<!-- Node6 -->
<g id="node6" class="node">
<title>Node6</title>
<g id="a_node6"><a xlink:href="Enums_8h.html" target="_top" xlink:title=" ">
<polygon fill="white" stroke="black" points="316.5,-56.5 316.5,-75.5 375.5,-75.5 375.5,-56.5 316.5,-56.5"/>
<text text-anchor="middle" x="346" y="-63.5" font-family="Helvetica,sans-Serif" font-size="10.00">Enums.h</text>
</a>
</g>
</g>
<!-- Node5&#45;&gt;Node6 -->
<g id="edge5" class="edge">
<title>Node5&#45;&gt;Node6</title>
<path fill="none" stroke="midnightblue" d="M305.75,-224.44C309.87,-204.57 320.67,-153.83 332,-112 334.41,-103.1 337.41,-93.32 340.01,-85.16"/>
<polygon fill="midnightblue" stroke="midnightblue" points="343.37,-86.16 343.13,-75.57 336.71,-84 343.37,-86.16"/>
</g>
<!-- Node5&#45;&gt;Node8 -->
<g id="edge7" class="edge">
<title>Node5&#45;&gt;Node8</title>
<path fill="none" stroke="midnightblue" d="M321.99,-224.32C340.04,-215.62 368.05,-202.12 388.8,-192.11"/>
<polygon fill="midnightblue" stroke="midnightblue" points="390.56,-195.15 398.05,-187.65 387.52,-188.84 390.56,-195.15"/>
</g>
<!-- Node7 -->
<g id="node7" class="node">
<title>Node7</title>
<g id="a_node7"><a xlink:title=" ">
<polygon fill="white" stroke="#bfbfbf" points="323.5,-0.5 323.5,-19.5 368.5,-19.5 368.5,-0.5 323.5,-0.5"/>
<text text-anchor="middle" x="346" y="-7.5" font-family="Helvetica,sans-Serif" font-size="10.00">utility</text>
</a>
</g>
</g>
<!-- Node6&#45;&gt;Node7 -->
<g id="edge6" class="edge">
<title>Node6&#45;&gt;Node7</title>
<path fill="none" stroke="midnightblue" d="M346,-56.08C346,-49.01 346,-38.86 346,-29.99"/>
<polygon fill="midnightblue" stroke="midnightblue" points="349.5,-29.75 346,-19.75 342.5,-29.75 349.5,-29.75"/>
</g>
<!-- Node8&#45;&gt;Node6 -->
<g id="edge8" class="edge">
<title>Node8&#45;&gt;Node6</title>
<path fill="none" stroke="midnightblue" d="M410.51,-168.37C399.01,-150.3 372.2,-108.18 357.01,-84.31"/>
<polygon fill="midnightblue" stroke="midnightblue" points="359.79,-82.15 351.47,-75.59 353.88,-85.91 359.79,-82.15"/>
</g>
<!-- Node9&#45;&gt;Node4 -->
<g id="edge13" class="edge">
<title>Node9&#45;&gt;Node4</title>
<path fill="none" stroke="midnightblue" d="M1036.64,-112.44C1004.83,-102.85 953.3,-87.3 919.53,-77.11"/>
<polygon fill="midnightblue" stroke="midnightblue" points="920.24,-73.67 909.66,-74.14 918.22,-80.38 920.24,-73.67"/>
</g>
<!-- Node10 -->
<g id="node10" class="node">
<title>Node10</title>
<g id="a_node10"><a xlink:title=" ">
<polygon fill="white" stroke="#bfbfbf" points="677,-56.5 677,-75.5 721,-75.5 721,-56.5 677,-56.5"/>
<text text-anchor="middle" x="699" y="-63.5" font-family="Helvetica,sans-Serif" font-size="10.00">string</text>
</a>
</g>
</g>
<!-- Node9&#45;&gt;Node10 -->
<g id="edge11" class="edge">
<title>Node9&#45;&gt;Node10</title>
<path fill="none" stroke="midnightblue" d="M1036.78,-113.82C1033.83,-113.16 1030.86,-112.54 1028,-112 920.02,-91.54 790.42,-76.6 731.27,-70.3"/>
<polygon fill="midnightblue" stroke="midnightblue" points="731.38,-66.79 721.07,-69.23 730.65,-73.75 731.38,-66.79"/>
</g>
<!-- Node11 -->
<g id="node11" class="node">
<title>Node11</title>
<g id="a_node11"><a xlink:title=" ">
<polygon fill="white" stroke="#bfbfbf" points="1001,-56.5 1001,-75.5 1039,-75.5 1039,-56.5 1001,-56.5"/>
<text text-anchor="middle" x="1020" y="-63.5" font-family="Helvetica,sans-Serif" font-size="10.00">map</text>
</a>
</g>
</g>
<!-- Node9&#45;&gt;Node11 -->
<g id="edge12" class="edge">
<title>Node9&#45;&gt;Node11</title>
<path fill="none" stroke="midnightblue" d="M1057.57,-112.08C1051.15,-104.38 1041.69,-93.03 1033.88,-83.65"/>
<polygon fill="midnightblue" stroke="midnightblue" points="1036.38,-81.19 1027.29,-75.75 1031.01,-85.67 1036.38,-81.19"/>
</g>
<!-- Node12&#45;&gt;Node4 -->
<g id="edge18" class="edge">
<title>Node12&#45;&gt;Node4</title>
<path fill="none" stroke="midnightblue" d="M720.21,-168.53C745.64,-161.05 781.47,-148.73 810,-132 833.25,-118.36 856.25,-97.36 870.75,-82.94"/>
<polygon fill="midnightblue" stroke="midnightblue" points="873.37,-85.28 877.89,-75.7 868.38,-80.37 873.37,-85.28"/>
</g>
<!-- Node12&#45;&gt;Node6 -->
<g id="edge19" class="edge">
<title>Node12&#45;&gt;Node6</title>
<path fill="none" stroke="midnightblue" d="M675.64,-168.42C654.95,-154.47 611.57,-126.91 571,-112 508.39,-88.99 431.42,-76.82 385.66,-71.17"/>
<polygon fill="midnightblue" stroke="midnightblue" points="385.9,-67.67 375.56,-69.96 385.07,-74.62 385.9,-67.67"/>
</g>
<!-- Node12&#45;&gt;Node10 -->
<g id="edge16" class="edge">
<title>Node12&#45;&gt;Node10</title>
<path fill="none" stroke="midnightblue" d="M676.17,-168.36C661.17,-156.27 638.35,-133.38 648,-112 653.62,-99.56 664.56,-89.17 674.88,-81.53"/>
<polygon fill="midnightblue" stroke="midnightblue" points="677.01,-84.31 683.27,-75.76 673.04,-78.54 677.01,-84.31"/>
</g>
<!-- Node13 -->
<g id="node13" class="node">
<title>Node13</title>
<g id="a_node13"><a xlink:title=" ">
<polygon fill="white" stroke="#bfbfbf" points="656.5,-112.5 656.5,-131.5 719.5,-131.5 719.5,-112.5 656.5,-112.5"/>
<text text-anchor="middle" x="688" y="-119.5" font-family="Helvetica,sans-Serif" font-size="10.00">ncurses.h</text>
</a>
</g>
</g>
<!-- Node12&#45;&gt;Node13 -->
<g id="edge15" class="edge">
<title>Node12&#45;&gt;Node13</title>
<path fill="none" stroke="midnightblue" d="M688,-168.08C688,-161.01 688,-150.86 688,-141.99"/>
<polygon fill="midnightblue" stroke="midnightblue" points="691.5,-141.75 688,-131.75 684.5,-141.75 691.5,-141.75"/>
</g>
<!-- Node14 -->
<g id="node14" class="node">
<title>Node14</title>
<g id="a_node14"><a xlink:title=" ">
<polygon fill="white" stroke="#bfbfbf" points="506,-112.5 506,-131.5 562,-131.5 562,-112.5 506,-112.5"/>
<text text-anchor="middle" x="534" y="-119.5" font-family="Helvetica,sans-Serif" font-size="10.00">optional</text>
</a>
</g>
</g>
<!-- Node12&#45;&gt;Node14 -->
<g id="edge17" class="edge">
<title>Node12&#45;&gt;Node14</title>
<path fill="none" stroke="midnightblue" d="M663.6,-168.44C637.8,-159.4 596.92,-145.06 567.98,-134.92"/>
<polygon fill="midnightblue" stroke="midnightblue" points="568.88,-131.52 558.29,-131.52 566.57,-138.13 568.88,-131.52"/>
</g>
<!-- Node12&#45;&gt;Node15 -->
<g id="edge20" class="edge">
<title>Node12&#45;&gt;Node15</title>
<path fill="none" stroke="midnightblue" d="M701.01,-168.32C713.53,-159.98 732.68,-147.21 747.47,-137.35"/>
<polygon fill="midnightblue" stroke="midnightblue" points="749.64,-140.11 756.02,-131.65 745.76,-134.29 749.64,-140.11"/>
</g>
<!-- Node15&#45;&gt;Node4 -->
<g id="edge23" class="edge">
<title>Node15&#45;&gt;Node4</title>
<path fill="none" stroke="midnightblue" d="M787.54,-112.44C806.62,-103.64 836.57,-89.81 858.44,-79.72"/>
<polygon fill="midnightblue" stroke="midnightblue" points="859.93,-82.88 867.55,-75.52 857,-76.53 859.93,-82.88"/>
</g>
<!-- Node15&#45;&gt;Node6 -->
<g id="edge21" class="edge">
<title>Node15&#45;&gt;Node6</title>
<path fill="none" stroke="midnightblue" d="M737.18,-113.53C734.42,-112.97 731.67,-112.46 729,-112 604.71,-90.78 456.01,-76.42 386.08,-70.32"/>
<polygon fill="midnightblue" stroke="midnightblue" points="386.21,-66.82 375.95,-69.45 385.61,-73.79 386.21,-66.82"/>
</g>
<!-- Node15&#45;&gt;Node10 -->
<g id="edge22" class="edge">
<title>Node15&#45;&gt;Node10</title>
<path fill="none" stroke="midnightblue" d="M757.75,-112.32C747.2,-104.18 731.2,-91.84 718.56,-82.09"/>
<polygon fill="midnightblue" stroke="midnightblue" points="720.51,-79.17 710.45,-75.83 716.23,-84.71 720.51,-79.17"/>
</g>
<!-- Node16&#45;&gt;Node10 -->
<g id="edge36" class="edge">
<title>Node16&#45;&gt;Node10</title>
<path fill="none" stroke="midnightblue" d="M551.32,-336.46C531.05,-298.93 453.11,-148.75 483,-112 505.77,-84 612.05,-72.84 666.56,-68.9"/>
<polygon fill="midnightblue" stroke="midnightblue" points="667,-72.38 676.74,-68.2 666.52,-65.39 667,-72.38"/>
</g>
<!-- Node17 -->
<g id="node17" class="node">
<title>Node17</title>
<g id="a_node17"><a xlink:href="MovingObject_8h.html" target="_top" xlink:title="Base class for all moving objects.">
<polygon fill="white" stroke="black" points="414.5,-280.5 414.5,-299.5 507.5,-299.5 507.5,-280.5 414.5,-280.5"/>
<text text-anchor="middle" x="461" y="-287.5" font-family="Helvetica,sans-Serif" font-size="10.00">MovingObject.h</text>
</a>
</g>
</g>
<!-- Node16&#45;&gt;Node17 -->
<g id="edge25" class="edge">
<title>Node16&#45;&gt;Node17</title>
<path fill="none" stroke="midnightblue" d="M540.74,-336.32C525.78,-327.82 502.75,-314.73 485.27,-304.8"/>
<polygon fill="midnightblue" stroke="midnightblue" points="486.65,-301.55 476.23,-299.65 483.19,-307.64 486.65,-301.55"/>
</g>
<!-- Node16&#45;&gt;Node18 -->
<g id="edge35" class="edge">
<title>Node16&#45;&gt;Node18</title>
<path fill="none" stroke="midnightblue" d="M571.85,-336.46C586.62,-328.14 608.86,-314.64 626,-300 643.17,-285.34 660.04,-265.67 671.12,-251.82"/>
<polygon fill="midnightblue" stroke="midnightblue" points="674.09,-253.7 677.51,-243.67 668.58,-249.38 674.09,-253.7"/>
</g>
<!-- Node17&#45;&gt;Node3 -->
<g id="edge28" class="edge">
<title>Node17&#45;&gt;Node3</title>
<path fill="none" stroke="midnightblue" d="M449.63,-280.45C430.98,-266.78 392.32,-239.93 356,-224 315.9,-206.41 267.14,-193.92 233.85,-186.63"/>
<polygon fill="midnightblue" stroke="midnightblue" points="234.56,-183.2 224.05,-184.54 233.1,-190.05 234.56,-183.2"/>
</g>
<!-- Node17&#45;&gt;Node5 -->
<g id="edge26" class="edge">
<title>Node17&#45;&gt;Node5</title>
<path fill="none" stroke="midnightblue" d="M436.12,-280.44C409.71,-271.36 367.78,-256.94 338.26,-246.78"/>
<polygon fill="midnightblue" stroke="midnightblue" points="339.36,-243.46 328.76,-243.52 337.08,-250.08 339.36,-243.46"/>
</g>
<!-- Node17&#45;&gt;Node6 -->
<g id="edge27" class="edge">
<title>Node17&#45;&gt;Node6</title>
<path fill="none" stroke="midnightblue" d="M451.43,-280.34C429.33,-260.13 375.8,-209.92 365,-188 348.61,-154.74 345.73,-110.65 345.56,-85.91"/>
<polygon fill="midnightblue" stroke="midnightblue" points="349.07,-85.76 345.64,-75.74 342.07,-85.71 349.07,-85.76"/>
</g>
<!-- Node17&#45;&gt;Node8 -->
<g id="edge34" class="edge">
<title>Node17&#45;&gt;Node8</title>
<path fill="none" stroke="midnightblue" d="M464.01,-280.14C467.88,-267.2 473.19,-242.63 465,-224 459.61,-211.73 449.04,-201.34 439.1,-193.65"/>
<polygon fill="midnightblue" stroke="midnightblue" points="440.83,-190.58 430.66,-187.6 436.75,-196.27 440.83,-190.58"/>
</g>
<!-- Node17&#45;&gt;Node14 -->
<g id="edge29" class="edge">
<title>Node17&#45;&gt;Node14</title>
<path fill="none" stroke="midnightblue" d="M464.85,-280.38C468.89,-271.33 475.41,-256.67 481,-244 497.14,-207.43 515.87,-164.56 526.18,-140.93"/>
<polygon fill="midnightblue" stroke="midnightblue" points="529.5,-142.08 530.29,-131.52 523.08,-139.28 529.5,-142.08"/>
</g>
<!-- Node17&#45;&gt;Node18 -->
<g id="edge30" class="edge">
<title>Node17&#45;&gt;Node18</title>
<path fill="none" stroke="midnightblue" d="M496.34,-280.44C538.68,-270.19 609.09,-253.14 650.57,-243.09"/>
<polygon fill="midnightblue" stroke="midnightblue" points="651.56,-246.46 660.46,-240.7 649.92,-239.65 651.56,-246.46"/>
</g>
<!-- Node18&#45;&gt;Node4 -->
<g id="edge32" class="edge">
<title>Node18&#45;&gt;Node4</title>
<path fill="none" stroke="midnightblue" d="M700.94,-224.33C730.66,-208.61 793.16,-173.19 837,-132 852.23,-117.69 866.22,-98.23 875.31,-84.33"/>
<polygon fill="midnightblue" stroke="midnightblue" points="878.37,-86.05 880.78,-75.74 872.46,-82.3 878.37,-86.05"/>
</g>
<!-- Node18&#45;&gt;Node10 -->
<g id="edge31" class="edge">
<title>Node18&#45;&gt;Node10</title>
<path fill="none" stroke="midnightblue" d="M660.13,-228.17C599.36,-214.82 447.05,-174.3 497,-112 517.88,-85.96 614.84,-74.02 666.46,-69.42"/>
<polygon fill="midnightblue" stroke="midnightblue" points="667.07,-72.88 676.74,-68.55 666.48,-65.91 667.07,-72.88"/>
</g>
<!-- Node18&#45;&gt;Node12 -->
<g id="edge33" class="edge">
<title>Node18&#45;&gt;Node12</title>
<path fill="none" stroke="midnightblue" d="M684.66,-224.08C685.18,-217.01 685.94,-206.86 686.59,-197.99"/>
<polygon fill="midnightblue" stroke="midnightblue" points="690.1,-197.98 687.35,-187.75 683.12,-197.47 690.1,-197.98"/>
</g>
<!-- Node19&#45;&gt;Node3 -->
<g id="edge44" class="edge">
<title>Node19&#45;&gt;Node3</title>
<path fill="none" stroke="midnightblue" d="M507.86,-392.38C460.25,-371.44 338.3,-314.37 252,-244 234.63,-229.84 218.14,-210.09 207.4,-196.08"/>
<polygon fill="midnightblue" stroke="midnightblue" points="210.02,-193.74 201.23,-187.83 204.41,-197.93 210.02,-193.74"/>
</g>
<!-- Node19&#45;&gt;Node16 -->
<g id="edge45" class="edge">
<title>Node19&#45;&gt;Node16</title>
<path fill="none" stroke="midnightblue" d="M532.62,-392.08C536.46,-384.69 542.02,-373.95 546.76,-364.81"/>
<polygon fill="midnightblue" stroke="midnightblue" points="549.97,-366.24 551.46,-355.75 543.75,-363.02 549.97,-366.24"/>
</g>
<!-- Node19&#45;&gt;Node17 -->
<g id="edge38" class="edge">
<title>Node19&#45;&gt;Node17</title>
<path fill="none" stroke="midnightblue" d="M522.74,-392.37C511.73,-374.3 486.08,-332.18 471.54,-308.31"/>
<polygon fill="midnightblue" stroke="midnightblue" points="474.42,-306.31 466.23,-299.59 468.45,-309.95 474.42,-306.31"/>
</g>
<!-- Node19&#45;&gt;Node18 -->
<g id="edge46" class="edge">
<title>Node19&#45;&gt;Node18</title>
<path fill="none" stroke="midnightblue" d="M542.33,-392.44C567.3,-376.9 619.04,-341.74 650,-300 660.88,-285.33 670.24,-266.69 676.37,-253.14"/>
<polygon fill="midnightblue" stroke="midnightblue" points="679.6,-254.48 680.4,-243.92 673.19,-251.68 679.6,-254.48"/>
</g>
<!-- Node19&#45;&gt;Node20 -->
<g id="edge39" class="edge">
<title>Node19&#45;&gt;Node20</title>
<path fill="none" stroke="midnightblue" d="M500.86,-396.06C452.74,-387.32 351.55,-368.92 287.67,-357.3"/>
<polygon fill="midnightblue" stroke="midnightblue" points="288.22,-353.85 277.75,-355.5 286.96,-360.73 288.22,-353.85"/>
</g>
<!-- Node20&#45;&gt;Node3 -->
<g id="edge42" class="edge">
<title>Node20&#45;&gt;Node3</title>
<path fill="none" stroke="midnightblue" d="M229.06,-336.08C223.4,-309.95 206.76,-233.21 199.03,-197.58"/>
<polygon fill="midnightblue" stroke="midnightblue" points="202.4,-196.6 196.86,-187.57 195.56,-198.08 202.4,-196.6"/>
</g>
<!-- Node20&#45;&gt;Node6 -->
<g id="edge41" class="edge">
<title>Node20&#45;&gt;Node6</title>
<path fill="none" stroke="midnightblue" d="M179.79,-338.2C122.61,-327.4 38,-300.37 38,-235 38,-235 38,-235 38,-177 38,-120.64 223.2,-85.55 306.38,-72.62"/>
<polygon fill="midnightblue" stroke="midnightblue" points="307.11,-76.05 316.47,-71.09 306.05,-69.13 307.11,-76.05"/>
</g>
<!-- Node20&#45;&gt;Node17 -->
<g id="edge43" class="edge">
<title>Node20&#45;&gt;Node17</title>
<path fill="none" stroke="midnightblue" d="M267.44,-336.44C307.4,-327.06 371.59,-311.99 414.98,-301.8"/>
<polygon fill="midnightblue" stroke="midnightblue" points="415.79,-305.21 424.73,-299.52 414.19,-298.39 415.79,-305.21"/>
</g>
<!-- Node20&#45;&gt;Node18 -->
<g id="edge40" class="edge">
<title>Node20&#45;&gt;Node18</title>
<path fill="none" stroke="midnightblue" d="M282.06,-340.31C339.81,-334.25 436.32,-321.77 517,-300 567.63,-286.33 623.99,-262.48 656.58,-247.79"/>
<polygon fill="midnightblue" stroke="midnightblue" points="658.25,-250.87 665.9,-243.54 655.35,-244.5 658.25,-250.87"/>
</g>
<!-- Node21&#45;&gt;Node4 -->
<g id="edge49" class="edge">
<title>Node21&#45;&gt;Node4</title>
<path fill="none" stroke="midnightblue" d="M961.54,-112.32C947.5,-103.9 925.95,-90.97 909.46,-81.07"/>
<polygon fill="midnightblue" stroke="midnightblue" points="910.8,-77.8 900.42,-75.65 907.2,-83.8 910.8,-77.8"/>
</g>
<!-- Node21&#45;&gt;Node10 -->
<g id="edge50" class="edge">
<title>Node21&#45;&gt;Node10</title>
<path fill="none" stroke="midnightblue" d="M932.72,-112.56C876.89,-101.68 781.06,-83 731.22,-73.28"/>
<polygon fill="midnightblue" stroke="midnightblue" points="731.8,-69.83 721.32,-71.35 730.46,-76.7 731.8,-69.83"/>
</g>
<!-- Node21&#45;&gt;Node11 -->
<g id="edge51" class="edge">
<title>Node21&#45;&gt;Node11</title>
<path fill="none" stroke="midnightblue" d="M983.27,-112.08C989.54,-104.38 998.79,-93.03 1006.43,-83.65"/>
<polygon fill="midnightblue" stroke="midnightblue" points="1009.27,-85.71 1012.87,-75.75 1003.84,-81.29 1009.27,-85.71"/>
</g>
<!-- Node22&#45;&gt;Node3 -->
<g id="edge55" class="edge">
<title>Node22&#45;&gt;Node3</title>
<path fill="none" stroke="midnightblue" d="M258.64,-394.26C212.77,-387.41 152.8,-375.06 138,-356 102.02,-309.66 112.42,-276.79 138,-224 144.4,-210.8 156.75,-200.3 168.33,-192.78"/>
<polygon fill="midnightblue" stroke="midnightblue" points="170.16,-195.77 176.92,-187.61 166.55,-189.77 170.16,-195.77"/>
</g>
<!-- Node22&#45;&gt;Node5 -->
<g id="edge53" class="edge">
<title>Node22&#45;&gt;Node5</title>
<path fill="none" stroke="midnightblue" d="M313.46,-392.08C311.89,-365.95 307.27,-289.21 305.12,-253.58"/>
<polygon fill="midnightblue" stroke="midnightblue" points="308.61,-253.34 304.52,-243.57 301.62,-253.76 308.61,-253.34"/>
</g>
<!-- Node22&#45;&gt;Node6 -->
<g id="edge54" class="edge">
<title>Node22&#45;&gt;Node6</title>
<path fill="none" stroke="midnightblue" d="M258.95,-396.58C168.89,-386.02 0,-350.77 0,-235 0,-235 0,-235 0,-177 0,-131.53 37.63,-130.86 79,-112 154.19,-77.72 252.01,-69.3 305.93,-67.39"/>
<polygon fill="midnightblue" stroke="midnightblue" points="306.21,-70.88 316.11,-67.09 306.01,-63.89 306.21,-70.88"/>
</g>
<!-- Node22&#45;&gt;Node8 -->
<g id="edge58" class="edge">
<title>Node22&#45;&gt;Node8</title>
<path fill="none" stroke="midnightblue" d="M318,-392.3C333.1,-359.42 386.87,-242.39 407.69,-197.09"/>
<polygon fill="midnightblue" stroke="midnightblue" points="410.92,-198.43 411.92,-187.88 404.56,-195.51 410.92,-198.43"/>
</g>
<!-- Node22&#45;&gt;Node16 -->
<g id="edge57" class="edge">
<title>Node22&#45;&gt;Node16</title>
<path fill="none" stroke="midnightblue" d="M352.35,-392.44C397.6,-382.35 472.4,-365.65 517.65,-355.56"/>
<polygon fill="midnightblue" stroke="midnightblue" points="518.67,-358.92 527.66,-353.32 517.14,-352.08 518.67,-358.92"/>
</g>
<!-- Node22&#45;&gt;Node17 -->
<g id="edge56" class="edge">
<title>Node22&#45;&gt;Node17</title>
<path fill="none" stroke="midnightblue" d="M334.95,-392.42C353.11,-384.45 379.6,-371.49 400,-356 418.57,-341.89 436.42,-321.87 447.96,-307.78"/>
<polygon fill="midnightblue" stroke="midnightblue" points="450.76,-309.88 454.28,-299.88 445.3,-305.5 450.76,-309.88"/>
</g>
<!-- Node25&#45;&gt;Node20 -->
<g id="edge66" class="edge">
<title>Node25&#45;&gt;Node20</title>
<path fill="none" stroke="midnightblue" d="M163.85,-392.32C176.22,-383.98 195.13,-371.21 209.74,-361.35"/>
<polygon fill="midnightblue" stroke="midnightblue" points="211.85,-364.15 218.18,-355.65 207.93,-358.35 211.85,-364.15"/>
</g>
<!-- Node26&#45;&gt;Node22 -->
<g id="edge68" class="edge">
<title>Node26&#45;&gt;Node22</title>
<path fill="none" stroke="midnightblue" d="M425.93,-448.44C403.94,-439.52 369.27,-425.44 344.34,-415.32"/>
<polygon fill="midnightblue" stroke="midnightblue" points="345.56,-412.04 334.98,-411.52 342.92,-418.52 345.56,-412.04"/>
</g>
<!-- Node27&#45;&gt;Node22 -->
<g id="edge70" class="edge">
<title>Node27&#45;&gt;Node22</title>
<path fill="none" stroke="midnightblue" d="M493.21,-450.49C490.11,-449.65 486.98,-448.8 484,-448 440.53,-436.32 390.74,-423.17 356.33,-414.11"/>
<polygon fill="midnightblue" stroke="midnightblue" points="357.17,-410.71 346.61,-411.55 355.39,-417.48 357.17,-410.71"/>
</g>
<!-- Node28&#45;&gt;Node22 -->
<g id="edge72" class="edge">
<title>Node28&#45;&gt;Node22</title>
<path fill="none" stroke="midnightblue" d="M304.82,-448.08C306.27,-440.93 308.37,-430.64 310.19,-421.69"/>
<polygon fill="midnightblue" stroke="midnightblue" points="313.65,-422.25 312.22,-411.75 306.79,-420.85 313.65,-422.25"/>
</g>
<!-- Node29&#45;&gt;Node22 -->
<g id="edge74" class="edge">
<title>Node29&#45;&gt;Node22</title>
<path fill="none" stroke="midnightblue" d="M366.88,-448.32C357.47,-440.26 343.26,-428.08 331.93,-418.37"/>
<polygon fill="midnightblue" stroke="midnightblue" points="334.18,-415.68 324.31,-411.83 329.62,-421 334.18,-415.68"/>
</g>
</g>
</svg>
