<?xml version="1.0" encoding="UTF-8" standalone="no"?>
<!DOCTYPE svg PUBLIC "-//W3C//DTD SVG 1.1//EN"
 "http://www.w3.org/Graphics/SVG/1.1/DTD/svg11.dtd">
<!-- Generated by graphviz version 10.0.1 (0)
 -->
<!-- Title: src/Game.cpp Pages: 1 -->
<svg width="1125pt" height="532pt"
 viewBox="0.00 0.00 1124.75 532.00" xmlns="http://www.w3.org/2000/svg" xmlns:xlink="http://www.w3.org/1999/xlink">
<g id="graph0" class="graph" transform="scale(1 1) rotate(0) translate(4 528)">
<title>src/Game.cpp</title>
<!-- Node1 -->
<g id="Node000001" class="node">
<title>Node1</title>
<g id="a_Node000001"><a xlink:title="Class for handling the game logic.">
<polygon fill="#999999" stroke="#666666" points="476.75,-524 399.25,-524 399.25,-504 476.75,-504 476.75,-524"/>
<text text-anchor="middle" x="438" y="-510.5" font-family="Helvetica,sans-Serif" font-size="10.00">src/Game.cpp</text>
</a>
</g>
</g>
<!-- Node2 -->
<g id="Node000002" class="node">
<title>Node2</title>
<g id="a_Node000002"><a xlink:href="Game_8h.html" target="_top" xlink:title="Class for handling the game logic.">
<polygon fill="white" stroke="#666666" points="574.25,-468 523.75,-468 523.75,-448 574.25,-448 574.25,-468"/>
<text text-anchor="middle" x="549" y="-454.5" font-family="Helvetica,sans-Serif" font-size="10.00">Game.h</text>
</a>
</g>
</g>
<!-- Node1&#45;&gt;Node2 -->
<g id="edge1_Node000001_Node000002" class="edge">
<title>Node1&#45;&gt;Node2</title>
<g id="a_edge1_Node000001_Node000002"><a xlink:title=" ">
<path fill="none" stroke="#63b8ff" d="M457.33,-503.59C474.42,-495.28 499.6,-483.03 519.25,-473.47"/>
<polygon fill="#63b8ff" stroke="#63b8ff" points="520.69,-476.66 528.15,-469.14 517.63,-470.37 520.69,-476.66"/>
</a>
</g>
</g>
<!-- Node3 -->
<g id="Node000003" class="node">
<title>Node3</title>
<g id="a_Node000003"><a xlink:title=" ">
<polygon fill="#e0e0e0" stroke="#999999" points="215.62,-188 164.38,-188 164.38,-168 215.62,-168 215.62,-188"/>
<text text-anchor="middle" x="190" y="-174.5" font-family="Helvetica,sans-Serif" font-size="10.00">memory</text>
</a>
</g>
</g>
<!-- Node1&#45;&gt;Node3 -->
<g id="edge61_Node000001_Node000003" class="edge">
<title>Node1&#45;&gt;Node3</title>
<g id="a_edge61_Node000001_Node000003"><a xlink:title=" ">
<path fill="none" stroke="#63b8ff" d="M399.13,-511.52C291.94,-506.4 0,-484.93 0,-403 0,-403 0,-403 0,-289 0,-219.08 97.57,-192.88 152.87,-183.65"/>
<polygon fill="#63b8ff" stroke="#63b8ff" points="153.14,-187.15 162.48,-182.16 152.07,-180.23 153.14,-187.15"/>
</a>
</g>
</g>
<!-- Node9 -->
<g id="Node000009" class="node">
<title>Node9</title>
<g id="a_Node000009"><a xlink:href="Config_8h.html" target="_top" xlink:title="Class for handling the game configuration.">
<polygon fill="white" stroke="#666666" points="976.38,-132 923.62,-132 923.62,-112 976.38,-112 976.38,-132"/>
<text text-anchor="middle" x="950" y="-118.5" font-family="Helvetica,sans-Serif" font-size="10.00">Config.h</text>
</a>
</g>
</g>
<!-- Node1&#45;&gt;Node9 -->
<g id="edge64_Node000001_Node000009" class="edge">
<title>Node1&#45;&gt;Node9</title>
<g id="a_edge64_Node000001_Node000009"><a xlink:title=" ">
<path fill="none" stroke="#63b8ff" d="M476.88,-513.1C598.09,-512.37 961,-501.93 961,-403 961,-403 961,-403 961,-233 961,-201.71 956.54,-165.67 953.3,-143.61"/>
<polygon fill="#63b8ff" stroke="#63b8ff" points="956.78,-143.23 951.81,-133.88 949.86,-144.3 956.78,-143.23"/>
</a>
</g>
</g>
<!-- Node15 -->
<g id="Node000015" class="node">
<title>Node15</title>
<g id="a_Node000015"><a xlink:href="Helpers_8h.html" target="_top" xlink:title=" ">
<polygon fill="white" stroke="#666666" points="792,-132 734,-132 734,-112 792,-112 792,-132"/>
<text text-anchor="middle" x="763" y="-118.5" font-family="Helvetica,sans-Serif" font-size="10.00">Helpers.h</text>
</a>
</g>
</g>
<!-- Node1&#45;&gt;Node15 -->
<g id="edge76_Node000001_Node000015" class="edge">
<title>Node1&#45;&gt;Node15</title>
<g id="a_edge76_Node000001_Node000015"><a xlink:title=" ">
<path fill="none" stroke="#63b8ff" d="M476.87,-512.46C591.96,-509.82 923,-494.3 923,-403 923,-403 923,-403 923,-345 923,-252.47 830.38,-172.23 786.08,-139.14"/>
<polygon fill="#63b8ff" stroke="#63b8ff" points="788.28,-136.42 778.14,-133.35 784.16,-142.07 788.28,-136.42"/>
</a>
</g>
</g>
<!-- Node20 -->
<g id="Node000020" class="node">
<title>Node20</title>
<g id="a_Node000020"><a xlink:href="EnemyBehavior_8h.html" target="_top" xlink:title="Base class for all enemy behaviors.">
<polygon fill="white" stroke="#666666" points="159.25,-356 66.75,-356 66.75,-336 159.25,-336 159.25,-356"/>
<text text-anchor="middle" x="113" y="-342.5" font-family="Helvetica,sans-Serif" font-size="10.00">EnemyBehavior.h</text>
</a>
</g>
</g>
<!-- Node1&#45;&gt;Node20 -->
<g id="edge65_Node000001_Node000020" class="edge">
<title>Node1&#45;&gt;Node20</title>
<g id="a_edge65_Node000001_Node000020"><a xlink:title=" ">
<path fill="none" stroke="#63b8ff" d="M398.99,-509.73C350.92,-504.79 267.36,-493.16 200,-468 153.73,-450.72 128.6,-454.83 104,-412 96.1,-398.25 99.45,-380.23 104.16,-366.65"/>
<polygon fill="#63b8ff" stroke="#63b8ff" points="107.36,-368.07 107.83,-357.49 100.86,-365.47 107.36,-368.07"/>
</a>
</g>
</g>
<!-- Node24 -->
<g id="Node000024" class="node">
<title>Node24</title>
<g id="a_Node000024"><a xlink:title=" ">
<polygon fill="#e0e0e0" stroke="#999999" points="1044.88,-468 989.12,-468 989.12,-448 1044.88,-448 1044.88,-468"/>
<text text-anchor="middle" x="1017" y="-454.5" font-family="Helvetica,sans-Serif" font-size="10.00">algorithm</text>
</a>
</g>
</g>
<!-- Node1&#45;&gt;Node24 -->
<g id="edge62_Node000001_Node000024" class="edge">
<title>Node1&#45;&gt;Node24</title>
<g id="a_edge62_Node000001_Node000024"><a xlink:title=" ">
<path fill="none" stroke="#63b8ff" d="M476.94,-511.44C565.71,-507.51 789.68,-495.51 975,-468 976,-467.85 977.01,-467.69 978.03,-467.53"/>
<polygon fill="#63b8ff" stroke="#63b8ff" points="978.38,-471.02 987.59,-465.78 977.12,-464.14 978.38,-471.02"/>
</a>
</g>
</g>
<!-- Node25 -->
<g id="Node000025" class="node">
<title>Node25</title>
<g id="a_Node000025"><a xlink:title=" ">
<polygon fill="#e0e0e0" stroke="#999999" points="1116.75,-468 1063.25,-468 1063.25,-448 1116.75,-448 1116.75,-468"/>
<text text-anchor="middle" x="1090" y="-454.5" font-family="Helvetica,sans-Serif" font-size="10.00">iostream</text>
</a>
</g>
</g>
<!-- Node1&#45;&gt;Node25 -->
<g id="edge63_Node000001_Node000025" class="edge">
<title>Node1&#45;&gt;Node25</title>
<g id="a_edge63_Node000001_Node000025"><a xlink:title=" ">
<path fill="none" stroke="#63b8ff" d="M477.19,-512.47C573.46,-510.67 829.33,-502.89 1051.74,-468.07"/>
<polygon fill="#63b8ff" stroke="#63b8ff" points="1052.16,-471.55 1061.48,-466.52 1051.06,-464.64 1052.16,-471.55"/>
</a>
</g>
</g>
<!-- Node26 -->
<g id="Node000026" class="node">
<title>Node26</title>
<g id="a_Node000026"><a xlink:href="ScatterBehavior_8h.html" target="_top" xlink:title="Class for the scatter behavior of the ghosts.">
<polygon fill="white" stroke="#666666" points="206.62,-412 113.38,-412 113.38,-392 206.62,-392 206.62,-412"/>
<text text-anchor="middle" x="160" y="-398.5" font-family="Helvetica,sans-Serif" font-size="10.00">ScatterBehavior.h</text>
</a>
</g>
</g>
<!-- Node1&#45;&gt;Node26 -->
<g id="edge66_Node000001_Node000026" class="edge">
<title>Node1&#45;&gt;Node26</title>
<g id="a_edge66_Node000001_Node000026"><a xlink:title=" ">
<path fill="none" stroke="#63b8ff" d="M398.78,-510.45C355.77,-506.32 285.72,-495.61 232,-468 209.18,-456.27 188.01,-435.48 174.62,-420.56"/>
<polygon fill="#63b8ff" stroke="#63b8ff" points="177.53,-418.58 168.33,-413.31 172.24,-423.16 177.53,-418.58"/>
</a>
</g>
</g>
<!-- Node27 -->
<g id="Node000027" class="node">
<title>Node27</title>
<g id="a_Node000027"><a xlink:href="Cherry_8h.html" target="_top" xlink:title="Class representing a cherry collectible.">
<polygon fill="white" stroke="#666666" points="431,-468 379,-468 379,-448 431,-448 431,-468"/>
<text text-anchor="middle" x="405" y="-454.5" font-family="Helvetica,sans-Serif" font-size="10.00">Cherry.h</text>
</a>
</g>
</g>
<!-- Node1&#45;&gt;Node27 -->
<g id="edge68_Node000001_Node000027" class="edge">
<title>Node1&#45;&gt;Node27</title>
<g id="a_edge68_Node000001_Node000027"><a xlink:title=" ">
<path fill="none" stroke="#63b8ff" d="M432.25,-503.59C427.95,-496.55 421.91,-486.67 416.61,-478"/>
<polygon fill="#63b8ff" stroke="#63b8ff" points="419.67,-476.3 411.47,-469.59 413.7,-479.95 419.67,-476.3"/>
</a>
</g>
</g>
<!-- Node28 -->
<g id="Node000028" class="node">
<title>Node28</title>
<g id="a_Node000028"><a xlink:href="Coin_8h.html" target="_top" xlink:title="Class representing a coin collectible.">
<polygon fill="white" stroke="#666666" points="493.25,-468 448.75,-468 448.75,-448 493.25,-448 493.25,-468"/>
<text text-anchor="middle" x="471" y="-454.5" font-family="Helvetica,sans-Serif" font-size="10.00">Coin.h</text>
</a>
</g>
</g>
<!-- Node1&#45;&gt;Node28 -->
<g id="edge70_Node000001_Node000028" class="edge">
<title>Node1&#45;&gt;Node28</title>
<g id="a_edge70_Node000001_Node000028"><a xlink:title=" ">
<path fill="none" stroke="#63b8ff" d="M443.75,-503.59C448.05,-496.55 454.09,-486.67 459.39,-478"/>
<polygon fill="#63b8ff" stroke="#63b8ff" points="462.3,-479.95 464.53,-469.59 456.33,-476.3 462.3,-479.95"/>
</a>
</g>
</g>
<!-- Node29 -->
<g id="Node000029" class="node">
<title>Node29</title>
<g id="a_Node000029"><a xlink:href="Teleport_8h.html" target="_top" xlink:title="Represents a teleport object.">
<polygon fill="white" stroke="#666666" points="299.38,-468 240.62,-468 240.62,-448 299.38,-448 299.38,-468"/>
<text text-anchor="middle" x="270" y="-454.5" font-family="Helvetica,sans-Serif" font-size="10.00">Teleport.h</text>
</a>
</g>
</g>
<!-- Node1&#45;&gt;Node29 -->
<g id="edge72_Node000001_Node000029" class="edge">
<title>Node1&#45;&gt;Node29</title>
<g id="a_edge72_Node000001_Node000029"><a xlink:title=" ">
<path fill="none" stroke="#63b8ff" d="M408.74,-503.59C381.44,-494.82 340.49,-481.66 310.15,-471.9"/>
<polygon fill="#63b8ff" stroke="#63b8ff" points="311.52,-468.67 300.93,-468.94 309.38,-475.33 311.52,-468.67"/>
</a>
</g>
</g>
<!-- Node30 -->
<g id="Node000030" class="node">
<title>Node30</title>
<g id="a_Node000030"><a xlink:href="Wall_8h.html" target="_top" xlink:title="Represents a wall object.">
<polygon fill="white" stroke="#666666" points="360.5,-468 317.5,-468 317.5,-448 360.5,-448 360.5,-468"/>
<text text-anchor="middle" x="339" y="-454.5" font-family="Helvetica,sans-Serif" font-size="10.00">Wall.h</text>
</a>
</g>
</g>
<!-- Node1&#45;&gt;Node30 -->
<g id="edge74_Node000001_Node000030" class="edge">
<title>Node1&#45;&gt;Node30</title>
<g id="a_edge74_Node000001_Node000030"><a xlink:title=" ">
<path fill="none" stroke="#63b8ff" d="M420.76,-503.59C405.66,-495.36 383.47,-483.26 366.02,-473.74"/>
<polygon fill="#63b8ff" stroke="#63b8ff" points="368.16,-470.92 357.71,-469.2 364.81,-477.07 368.16,-470.92"/>
</a>
</g>
</g>
<!-- Node2&#45;&gt;Node3 -->
<g id="edge2_Node000002_Node000003" class="edge">
<title>Node2&#45;&gt;Node3</title>
<g id="a_edge2_Node000002_Node000003"><a xlink:title=" ">
<path fill="none" stroke="#63b8ff" d="M523.6,-450.36C498.13,-443.09 458.3,-430.02 427,-412 325.51,-353.57 297.7,-335.01 224,-244 212.84,-230.22 203.76,-212.21 197.8,-198.64"/>
<polygon fill="#63b8ff" stroke="#63b8ff" points="201.06,-197.35 193.98,-189.47 194.6,-200.05 201.06,-197.35"/>
</a>
</g>
</g>
<!-- Node4 -->
<g id="Node000004" class="node">
<title>Node4</title>
<g id="a_Node000004"><a xlink:title=" ">
<polygon fill="#e0e0e0" stroke="#999999" points="898.5,-76 855.5,-76 855.5,-56 898.5,-56 898.5,-76"/>
<text text-anchor="middle" x="877" y="-62.5" font-family="Helvetica,sans-Serif" font-size="10.00">vector</text>
</a>
</g>
</g>
<!-- Node2&#45;&gt;Node4 -->
<g id="edge3_Node000002_Node000004" class="edge">
<title>Node2&#45;&gt;Node4</title>
<g id="a_edge3_Node000002_Node000004"><a xlink:title=" ">
<path fill="none" stroke="#63b8ff" d="M574.6,-457.93C614.32,-457.99 691.08,-452.37 738,-412 840.84,-323.52 868.5,-147.92 875.11,-87.77"/>
<polygon fill="#63b8ff" stroke="#63b8ff" points="878.58,-88.29 876.1,-77.99 871.62,-87.59 878.58,-88.29"/>
</a>
</g>
</g>
<!-- Node5 -->
<g id="Node000005" class="node">
<title>Node5</title>
<g id="a_Node000005"><a xlink:href="GameObject_8h.html" target="_top" xlink:title="Base class for all game objects.">
<polygon fill="white" stroke="#666666" points="373.5,-244 294.5,-244 294.5,-224 373.5,-224 373.5,-244"/>
<text text-anchor="middle" x="334" y="-230.5" font-family="Helvetica,sans-Serif" font-size="10.00">GameObject.h</text>
</a>
</g>
</g>
<!-- Node2&#45;&gt;Node5 -->
<g id="edge4_Node000002_Node000005" class="edge">
<title>Node2&#45;&gt;Node5</title>
<g id="a_edge4_Node000002_Node000005"><a xlink:title=" ">
<path fill="none" stroke="#63b8ff" d="M523.34,-449.42C502.42,-442.29 473,-430 452,-412 398.59,-366.22 359.34,-290.58 342.74,-254.86"/>
<polygon fill="#63b8ff" stroke="#63b8ff" points="345.93,-253.42 338.62,-245.75 339.55,-256.31 345.93,-253.42"/>
</a>
</g>
</g>
<!-- Node8 -->
<g id="Node000008" class="node">
<title>Node8</title>
<g id="a_Node000008"><a xlink:href="GamePhase_8h.html" target="_top" xlink:title="Handles the game phase and level.">
<polygon fill="white" stroke="#666666" points="441.12,-188 362.88,-188 362.88,-168 441.12,-168 441.12,-188"/>
<text text-anchor="middle" x="402" y="-174.5" font-family="Helvetica,sans-Serif" font-size="10.00">GamePhase.h</text>
</a>
</g>
</g>
<!-- Node2&#45;&gt;Node8 -->
<g id="edge60_Node000002_Node000008" class="edge">
<title>Node2&#45;&gt;Node8</title>
<g id="a_edge60_Node000002_Node000008"><a xlink:title=" ">
<path fill="none" stroke="#63b8ff" d="M574.61,-451.14C618.16,-439.48 702,-408.99 702,-347 702,-347 702,-347 702,-289 702,-250.87 679.07,-242.98 646,-224 585.74,-189.42 504.55,-180.55 452.73,-178.72"/>
<polygon fill="#63b8ff" stroke="#63b8ff" points="453.1,-175.23 443.01,-178.46 452.91,-182.23 453.1,-175.23"/>
</a>
</g>
</g>
<!-- Node2&#45;&gt;Node9 -->
<g id="edge10_Node000002_Node000009" class="edge">
<title>Node2&#45;&gt;Node9</title>
<g id="a_edge10_Node000002_Node000009"><a xlink:title=" ">
<path fill="none" stroke="#63b8ff" d="M574.53,-456.03C635.11,-453.23 785.34,-443.24 823,-412 871.05,-372.15 846.26,-337.31 871,-280 892.98,-229.08 923.58,-171.31 939.47,-142.1"/>
<polygon fill="#63b8ff" stroke="#63b8ff" points="942.34,-144.15 944.07,-133.7 936.2,-140.79 942.34,-144.15"/>
</a>
</g>
</g>
<!-- Node12 -->
<g id="Node000012" class="node">
<title>Node12</title>
<g id="a_Node000012"><a xlink:href="Window_8h.html" target="_top" xlink:title="Class for handling ncurses windows.">
<polygon fill="white" stroke="#666666" points="697,-188 639,-188 639,-168 697,-168 697,-188"/>
<text text-anchor="middle" x="668" y="-174.5" font-family="Helvetica,sans-Serif" font-size="10.00">Window.h</text>
</a>
</g>
</g>
<!-- Node2&#45;&gt;Node12 -->
<g id="edge14_Node000002_Node000012" class="edge">
<title>Node2&#45;&gt;Node12</title>
<g id="a_edge14_Node000002_Node000012"><a xlink:title=" ">
<path fill="none" stroke="#63b8ff" d="M574.47,-457.07C610.48,-455.81 676.31,-448.25 716,-412 738.74,-391.23 740,-377.8 740,-347 740,-347 740,-347 740,-289 740,-258.2 733.02,-249.66 716,-224 708.9,-213.29 698.77,-203.3 689.64,-195.47"/>
<polygon fill="#63b8ff" stroke="#63b8ff" points="692.13,-192.99 682.17,-189.37 687.7,-198.41 692.13,-192.99"/>
</a>
</g>
</g>
<!-- Node16 -->
<g id="Node000016" class="node">
<title>Node16</title>
<g id="a_Node000016"><a xlink:href="Player_8h.html" target="_top" xlink:title="Represents a player.">
<polygon fill="white" stroke="#666666" points="537.62,-356 486.38,-356 486.38,-336 537.62,-336 537.62,-356"/>
<text text-anchor="middle" x="512" y="-342.5" font-family="Helvetica,sans-Serif" font-size="10.00">Player.h</text>
</a>
</g>
</g>
<!-- Node2&#45;&gt;Node16 -->
<g id="edge24_Node000002_Node000016" class="edge">
<title>Node2&#45;&gt;Node16</title>
<g id="a_edge24_Node000002_Node000016"><a xlink:title=" ">
<path fill="none" stroke="#63b8ff" d="M545.85,-447.62C539.87,-429.84 526.76,-390.88 518.73,-367"/>
<polygon fill="#63b8ff" stroke="#63b8ff" points="522.13,-366.15 515.63,-357.79 515.5,-368.38 522.13,-366.15"/>
</a>
</g>
</g>
<!-- Node18 -->
<g id="Node000018" class="node">
<title>Node18</title>
<g id="a_Node000018"><a xlink:href="Map_8h.html" target="_top" xlink:title="Class for handling the game map.">
<polygon fill="white" stroke="#666666" points="636.5,-244 593.5,-244 593.5,-224 636.5,-224 636.5,-244"/>
<text text-anchor="middle" x="615" y="-230.5" font-family="Helvetica,sans-Serif" font-size="10.00">Map.h</text>
</a>
</g>
</g>
<!-- Node2&#45;&gt;Node18 -->
<g id="edge47_Node000002_Node000018" class="edge">
<title>Node2&#45;&gt;Node18</title>
<g id="a_edge47_Node000002_Node000018"><a xlink:title=" ">
<path fill="none" stroke="#63b8ff" d="M553.05,-447.64C563.3,-423.59 590.46,-357.52 605,-300 608.69,-285.39 611.24,-268.56 612.83,-255.69"/>
<polygon fill="#63b8ff" stroke="#63b8ff" points="616.3,-256.2 613.95,-245.87 609.34,-255.41 616.3,-256.2"/>
</a>
</g>
</g>
<!-- Node19 -->
<g id="Node000019" class="node">
<title>Node19</title>
<g id="a_Node000019"><a xlink:href="Ghost_8h.html" target="_top" xlink:title="Represents a ghost enemy.">
<polygon fill="white" stroke="#666666" points="511.25,-412 460.75,-412 460.75,-392 511.25,-392 511.25,-412"/>
<text text-anchor="middle" x="486" y="-398.5" font-family="Helvetica,sans-Serif" font-size="10.00">Ghost.h</text>
</a>
</g>
</g>
<!-- Node2&#45;&gt;Node19 -->
<g id="edge37_Node000002_Node000019" class="edge">
<title>Node2&#45;&gt;Node19</title>
<g id="a_edge37_Node000002_Node000019"><a xlink:title=" ">
<path fill="none" stroke="#63b8ff" d="M538.03,-447.59C529.08,-439.93 516.23,-428.91 505.54,-419.75"/>
<polygon fill="#63b8ff" stroke="#63b8ff" points="507.87,-417.13 498,-413.28 503.31,-422.45 507.87,-417.13"/>
</a>
</g>
</g>
<!-- Node21 -->
<g id="Node000021" class="node">
<title>Node21</title>
<g id="a_Node000021"><a xlink:href="Leaderboard_8h.html" target="_top" xlink:title="Class for handling the game leaderboard.">
<polygon fill="white" stroke="#666666" points="1071.75,-132 994.25,-132 994.25,-112 1071.75,-112 1071.75,-132"/>
<text text-anchor="middle" x="1033" y="-118.5" font-family="Helvetica,sans-Serif" font-size="10.00">Leaderboard.h</text>
</a>
</g>
</g>
<!-- Node2&#45;&gt;Node21 -->
<g id="edge48_Node000002_Node000021" class="edge">
<title>Node2&#45;&gt;Node21</title>
<g id="a_edge48_Node000002_Node000021"><a xlink:title=" ">
<path fill="none" stroke="#63b8ff" d="M574.32,-455.81C637.66,-452.41 801.1,-441 846,-412 950.09,-344.77 1008.24,-196.86 1026.58,-143.06"/>
<polygon fill="#63b8ff" stroke="#63b8ff" points="1029.86,-144.32 1029.67,-133.72 1023.21,-142.12 1029.86,-144.32"/>
</a>
</g>
</g>
<!-- Node23 -->
<g id="Node000023" class="node">
<title>Node23</title>
<g id="a_Node000023"><a xlink:href="InteractiveObject_8h.html" target="_top" xlink:title="Base class for all interactive objects.">
<polygon fill="white" stroke="#666666" points="323.25,-412 224.75,-412 224.75,-392 323.25,-392 323.25,-412"/>
<text text-anchor="middle" x="274" y="-398.5" font-family="Helvetica,sans-Serif" font-size="10.00">InteractiveObject.h</text>
</a>
</g>
</g>
<!-- Node2&#45;&gt;Node23 -->
<g id="edge53_Node000002_Node000023" class="edge">
<title>Node2&#45;&gt;Node23</title>
<g id="a_edge53_Node000002_Node000023"><a xlink:title=" ">
<path fill="none" stroke="#63b8ff" d="M523.62,-452.02C480.65,-443.58 392.47,-426.26 333.28,-414.64"/>
<polygon fill="#63b8ff" stroke="#63b8ff" points="334.19,-411.25 323.7,-412.76 332.84,-418.12 334.19,-411.25"/>
</a>
</g>
</g>
<!-- Node5&#45;&gt;Node3 -->
<g id="edge9_Node000005_Node000003" class="edge">
<title>Node5&#45;&gt;Node3</title>
<g id="a_edge9_Node000005_Node000003"><a xlink:title=" ">
<path fill="none" stroke="#63b8ff" d="M308.92,-223.59C285.93,-214.97 251.65,-202.12 225.79,-192.42"/>
<polygon fill="#63b8ff" stroke="#63b8ff" points="227.29,-189.25 216.7,-189.01 224.83,-195.8 227.29,-189.25"/>
</a>
</g>
</g>
<!-- Node6 -->
<g id="Node000006" class="node">
<title>Node6</title>
<g id="a_Node000006"><a xlink:href="Enums_8h.html" target="_top" xlink:title=" ">
<polygon fill="white" stroke="#666666" points="399.5,-76 344.5,-76 344.5,-56 399.5,-56 399.5,-76"/>
<text text-anchor="middle" x="372" y="-62.5" font-family="Helvetica,sans-Serif" font-size="10.00">Enums.h</text>
</a>
</g>
</g>
<!-- Node5&#45;&gt;Node6 -->
<g id="edge5_Node000005_Node000006" class="edge">
<title>Node5&#45;&gt;Node6</title>
<g id="a_edge5_Node000005_Node000006"><a xlink:title=" ">
<path fill="none" stroke="#63b8ff" d="M336.15,-223.6C342.13,-197.46 359.07,-123.48 367.34,-87.36"/>
<polygon fill="#63b8ff" stroke="#63b8ff" points="370.71,-88.3 369.53,-77.77 363.89,-86.74 370.71,-88.3"/>
</a>
</g>
</g>
<!-- Node5&#45;&gt;Node8 -->
<g id="edge7_Node000005_Node000008" class="edge">
<title>Node5&#45;&gt;Node8</title>
<g id="a_edge7_Node000005_Node000008"><a xlink:title=" ">
<path fill="none" stroke="#63b8ff" d="M345.84,-223.59C355.69,-215.77 369.93,-204.46 381.61,-195.19"/>
<polygon fill="#63b8ff" stroke="#63b8ff" points="383.45,-198.2 389.11,-189.24 379.1,-192.72 383.45,-198.2"/>
</a>
</g>
</g>
<!-- Node7 -->
<g id="Node000007" class="node">
<title>Node7</title>
<g id="a_Node000007"><a xlink:title=" ">
<polygon fill="#e0e0e0" stroke="#999999" points="391.62,-20 352.38,-20 352.38,0 391.62,0 391.62,-20"/>
<text text-anchor="middle" x="372" y="-6.5" font-family="Helvetica,sans-Serif" font-size="10.00">utility</text>
</a>
</g>
</g>
<!-- Node6&#45;&gt;Node7 -->
<g id="edge6_Node000006_Node000007" class="edge">
<title>Node6&#45;&gt;Node7</title>
<g id="a_edge6_Node000006_Node000007"><a xlink:title=" ">
<path fill="none" stroke="#63b8ff" d="M372,-55.59C372,-49.01 372,-39.96 372,-31.73"/>
<polygon fill="#63b8ff" stroke="#63b8ff" points="375.5,-31.81 372,-21.81 368.5,-31.81 375.5,-31.81"/>
</a>
</g>
</g>
<!-- Node8&#45;&gt;Node6 -->
<g id="edge8_Node000008_Node000006" class="edge">
<title>Node8&#45;&gt;Node6</title>
<g id="a_edge8_Node000008_Node000006"><a xlink:title=" ">
<path fill="none" stroke="#63b8ff" d="M399.44,-167.62C394.62,-149.92 384.07,-111.24 377.54,-87.32"/>
<polygon fill="#63b8ff" stroke="#63b8ff" points="380.96,-86.54 374.95,-77.82 374.2,-88.38 380.96,-86.54"/>
</a>
</g>
</g>
<!-- Node9&#45;&gt;Node4 -->
<g id="edge13_Node000009_Node000004" class="edge">
<title>Node9&#45;&gt;Node4</title>
<g id="a_edge13_Node000009_Node000004"><a xlink:title=" ">
<path fill="none" stroke="#63b8ff" d="M937.28,-111.59C926.61,-103.7 911.12,-92.24 898.52,-82.92"/>
<polygon fill="#63b8ff" stroke="#63b8ff" points="900.91,-80.33 890.79,-77.2 896.74,-85.96 900.91,-80.33"/>
</a>
</g>
</g>
<!-- Node10 -->
<g id="Node000010" class="node">
<title>Node10</title>
<g id="a_Node000010"><a xlink:title=" ">
<polygon fill="#e0e0e0" stroke="#999999" points="716,-76 676,-76 676,-56 716,-56 716,-76"/>
<text text-anchor="middle" x="696" y="-62.5" font-family="Helvetica,sans-Serif" font-size="10.00">string</text>
</a>
</g>
</g>
<!-- Node9&#45;&gt;Node10 -->
<g id="edge11_Node000009_Node000010" class="edge">
<title>Node9&#45;&gt;Node10</title>
<g id="a_edge11_Node000009_Node000010"><a xlink:title=" ">
<path fill="none" stroke="#63b8ff" d="M923.3,-115.32C876.01,-105.27 777.8,-84.39 727.37,-73.67"/>
<polygon fill="#63b8ff" stroke="#63b8ff" points="728.21,-70.27 717.7,-71.61 726.75,-77.12 728.21,-70.27"/>
</a>
</g>
</g>
<!-- Node11 -->
<g id="Node000011" class="node">
<title>Node11</title>
<g id="a_Node000011"><a xlink:title=" ">
<polygon fill="#e0e0e0" stroke="#999999" points="979.38,-76 944.62,-76 944.62,-56 979.38,-56 979.38,-76"/>
<text text-anchor="middle" x="962" y="-62.5" font-family="Helvetica,sans-Serif" font-size="10.00">map</text>
</a>
</g>
</g>
<!-- Node9&#45;&gt;Node11 -->
<g id="edge12_Node000009_Node000011" class="edge">
<title>Node9&#45;&gt;Node11</title>
<g id="a_edge12_Node000009_Node000011"><a xlink:title=" ">
<path fill="none" stroke="#63b8ff" d="M952.09,-111.59C953.57,-104.93 955.61,-95.75 957.46,-87.44"/>
<polygon fill="#63b8ff" stroke="#63b8ff" points="960.85,-88.3 959.61,-77.78 954.02,-86.78 960.85,-88.3"/>
</a>
</g>
</g>
<!-- Node12&#45;&gt;Node4 -->
<g id="edge18_Node000012_Node000004" class="edge">
<title>Node12&#45;&gt;Node4</title>
<g id="a_edge18_Node000012_Node000004"><a xlink:title=" ">
<path fill="none" stroke="#63b8ff" d="M697.36,-170.5C725.24,-163.55 767.73,-150.91 801,-132 823.75,-119.07 846.05,-98.83 860.55,-84.38"/>
<polygon fill="#63b8ff" stroke="#63b8ff" points="862.96,-86.92 867.45,-77.32 857.96,-82.03 862.96,-86.92"/>
</a>
</g>
</g>
<!-- Node12&#45;&gt;Node6 -->
<g id="edge19_Node000012_Node000006" class="edge">
<title>Node12&#45;&gt;Node6</title>
<g id="a_edge19_Node000012_Node000006"><a xlink:title=" ">
<path fill="none" stroke="#63b8ff" d="M651.23,-167.55C626.44,-153.86 578.26,-128.38 535,-112 493.62,-96.33 444.46,-83.51 411.03,-75.62"/>
<polygon fill="#63b8ff" stroke="#63b8ff" points="411.9,-72.23 401.37,-73.38 410.32,-79.05 411.9,-72.23"/>
</a>
</g>
</g>
<!-- Node12&#45;&gt;Node10 -->
<g id="edge16_Node000012_Node000010" class="edge">
<title>Node12&#45;&gt;Node10</title>
<g id="a_edge16_Node000012_Node000010"><a xlink:title=" ">
<path fill="none" stroke="#63b8ff" d="M661.49,-167.93C653.18,-155.15 640.78,-131.25 649,-112 653.81,-100.74 662.97,-90.95 671.93,-83.4"/>
<polygon fill="#63b8ff" stroke="#63b8ff" points="674.04,-86.19 679.81,-77.31 669.76,-80.66 674.04,-86.19"/>
</a>
</g>
</g>
<!-- Node13 -->
<g id="Node000013" class="node">
<title>Node13</title>
<g id="a_Node000013"><a xlink:title=" ">
<polygon fill="#e0e0e0" stroke="#999999" points="716.38,-132 657.62,-132 657.62,-112 716.38,-112 716.38,-132"/>
<text text-anchor="middle" x="687" y="-118.5" font-family="Helvetica,sans-Serif" font-size="10.00">ncurses.h</text>
</a>
</g>
</g>
<!-- Node12&#45;&gt;Node13 -->
<g id="edge15_Node000012_Node000013" class="edge">
<title>Node12&#45;&gt;Node13</title>
<g id="a_edge15_Node000012_Node000013"><a xlink:title=" ">
<path fill="none" stroke="#63b8ff" d="M671.31,-167.59C673.68,-160.86 676.96,-151.53 679.91,-143.15"/>
<polygon fill="#63b8ff" stroke="#63b8ff" points="683.21,-144.32 683.23,-133.73 676.61,-142 683.21,-144.32"/>
</a>
</g>
</g>
<!-- Node14 -->
<g id="Node000014" class="node">
<title>Node14</title>
<g id="a_Node000014"><a xlink:title=" ">
<polygon fill="#e0e0e0" stroke="#999999" points="525.88,-132 476.12,-132 476.12,-112 525.88,-112 525.88,-132"/>
<text text-anchor="middle" x="501" y="-118.5" font-family="Helvetica,sans-Serif" font-size="10.00">optional</text>
</a>
</g>
</g>
<!-- Node12&#45;&gt;Node14 -->
<g id="edge17_Node000012_Node000014" class="edge">
<title>Node12&#45;&gt;Node14</title>
<g id="a_edge17_Node000012_Node000014"><a xlink:title=" ">
<path fill="none" stroke="#63b8ff" d="M638.91,-167.59C610.53,-158.42 567.29,-144.44 536.81,-134.58"/>
<polygon fill="#63b8ff" stroke="#63b8ff" points="538.24,-131.36 527.65,-131.62 536.09,-138.02 538.24,-131.36"/>
</a>
</g>
</g>
<!-- Node12&#45;&gt;Node15 -->
<g id="edge20_Node000012_Node000015" class="edge">
<title>Node12&#45;&gt;Node15</title>
<g id="a_edge20_Node000012_Node000015"><a xlink:title=" ">
<path fill="none" stroke="#63b8ff" d="M684.55,-167.59C698.9,-159.44 719.93,-147.48 736.6,-138"/>
<polygon fill="#63b8ff" stroke="#63b8ff" points="738.04,-141.21 745.01,-133.23 734.58,-135.13 738.04,-141.21"/>
</a>
</g>
</g>
<!-- Node15&#45;&gt;Node4 -->
<g id="edge23_Node000015_Node000004" class="edge">
<title>Node15&#45;&gt;Node4</title>
<g id="a_edge23_Node000015_Node000004"><a xlink:title=" ">
<path fill="none" stroke="#63b8ff" d="M782.86,-111.59C800.49,-103.24 826.51,-90.92 846.73,-81.34"/>
<polygon fill="#63b8ff" stroke="#63b8ff" points="848.08,-84.57 855.62,-77.13 845.08,-78.25 848.08,-84.57"/>
</a>
</g>
</g>
<!-- Node15&#45;&gt;Node6 -->
<g id="edge21_Node000015_Node000006" class="edge">
<title>Node15&#45;&gt;Node6</title>
<g id="a_edge21_Node000015_Node000006"><a xlink:title=" ">
<path fill="none" stroke="#63b8ff" d="M733.61,-113.71C730.71,-113.09 727.8,-112.51 725,-112 611.7,-91.42 476.24,-76.95 410.97,-70.61"/>
<polygon fill="#63b8ff" stroke="#63b8ff" points="411.41,-67.13 401.12,-69.66 410.74,-74.1 411.41,-67.13"/>
</a>
</g>
</g>
<!-- Node15&#45;&gt;Node10 -->
<g id="edge22_Node000015_Node000010" class="edge">
<title>Node15&#45;&gt;Node10</title>
<g id="a_edge22_Node000015_Node000010"><a xlink:title=" ">
<path fill="none" stroke="#63b8ff" d="M751.33,-111.59C741.72,-103.85 727.87,-92.69 716.43,-83.47"/>
<polygon fill="#63b8ff" stroke="#63b8ff" points="718.7,-80.8 708.72,-77.25 714.3,-86.25 718.7,-80.8"/>
</a>
</g>
</g>
<!-- Node16&#45;&gt;Node10 -->
<g id="edge36_Node000016_Node000010" class="edge">
<title>Node16&#45;&gt;Node10</title>
<g id="a_edge36_Node000016_Node000010"><a xlink:title=" ">
<path fill="none" stroke="#63b8ff" d="M515.66,-335.81C529.04,-302.99 577.82,-189.36 642,-112 651.07,-101.07 663.05,-90.78 673.42,-82.8"/>
<polygon fill="#63b8ff" stroke="#63b8ff" points="675.2,-85.84 681.15,-77.08 671.03,-80.22 675.2,-85.84"/>
</a>
</g>
</g>
<!-- Node17 -->
<g id="Node000017" class="node">
<title>Node17</title>
<g id="a_Node000017"><a xlink:href="MovingObject_8h.html" target="_top" xlink:title="Base class for all moving objects.">
<polygon fill="white" stroke="#666666" points="484.12,-300 399.88,-300 399.88,-280 484.12,-280 484.12,-300"/>
<text text-anchor="middle" x="442" y="-286.5" font-family="Helvetica,sans-Serif" font-size="10.00">MovingObject.h</text>
</a>
</g>
</g>
<!-- Node16&#45;&gt;Node17 -->
<g id="edge25_Node000016_Node000017" class="edge">
<title>Node16&#45;&gt;Node17</title>
<g id="a_edge25_Node000016_Node000017"><a xlink:title=" ">
<path fill="none" stroke="#63b8ff" d="M499.81,-335.59C489.67,-327.77 475.01,-316.46 462.99,-307.19"/>
<polygon fill="#63b8ff" stroke="#63b8ff" points="465.31,-304.56 455.25,-301.22 461.03,-310.1 465.31,-304.56"/>
</a>
</g>
</g>
<!-- Node16&#45;&gt;Node18 -->
<g id="edge35_Node000016_Node000018" class="edge">
<title>Node16&#45;&gt;Node18</title>
<g id="a_edge35_Node000016_Node000018"><a xlink:title=" ">
<path fill="none" stroke="#63b8ff" d="M524.15,-335.6C535.07,-326.89 551.32,-313.31 564,-300 578.04,-285.27 592.18,-266.91 601.99,-253.46"/>
<polygon fill="#63b8ff" stroke="#63b8ff" points="604.72,-255.67 607.7,-245.51 599.03,-251.59 604.72,-255.67"/>
</a>
</g>
</g>
<!-- Node17&#45;&gt;Node3 -->
<g id="edge28_Node000017_Node000003" class="edge">
<title>Node17&#45;&gt;Node3</title>
<g id="a_edge28_Node000017_Node000003"><a xlink:title=" ">
<path fill="none" stroke="#63b8ff" d="M399.7,-280.75C367.32,-273.53 322.08,-261.44 285,-244 257.1,-230.88 228.33,-209.97 209.86,-195.42"/>
<polygon fill="#63b8ff" stroke="#63b8ff" points="212.14,-192.76 202.15,-189.22 207.76,-198.21 212.14,-192.76"/>
</a>
</g>
</g>
<!-- Node17&#45;&gt;Node5 -->
<g id="edge26_Node000017_Node000005" class="edge">
<title>Node17&#45;&gt;Node5</title>
<g id="a_edge26_Node000017_Node000005"><a xlink:title=" ">
<path fill="none" stroke="#63b8ff" d="M423.19,-279.59C406.64,-271.32 382.29,-259.14 363.21,-249.6"/>
<polygon fill="#63b8ff" stroke="#63b8ff" points="364.82,-246.5 354.31,-245.16 361.69,-252.76 364.82,-246.5"/>
</a>
</g>
</g>
<!-- Node17&#45;&gt;Node6 -->
<g id="edge27_Node000017_Node000006" class="edge">
<title>Node17&#45;&gt;Node6</title>
<g id="a_edge27_Node000017_Node000006"><a xlink:title=" ">
<path fill="none" stroke="#63b8ff" d="M445.03,-279.57C451.19,-258.77 463.53,-207.65 450,-168 438.39,-133.97 410.15,-102.49 391.03,-84.01"/>
<polygon fill="#63b8ff" stroke="#63b8ff" points="393.54,-81.56 383.84,-77.28 388.75,-86.67 393.54,-81.56"/>
</a>
</g>
</g>
<!-- Node17&#45;&gt;Node8 -->
<g id="edge34_Node000017_Node000008" class="edge">
<title>Node17&#45;&gt;Node8</title>
<g id="a_edge34_Node000017_Node000008"><a xlink:title=" ">
<path fill="none" stroke="#63b8ff" d="M438.59,-279.62C432.12,-261.84 417.96,-222.88 409.27,-199"/>
<polygon fill="#63b8ff" stroke="#63b8ff" points="412.63,-197.98 405.92,-189.78 406.05,-200.37 412.63,-197.98"/>
</a>
</g>
</g>
<!-- Node17&#45;&gt;Node14 -->
<g id="edge29_Node000017_Node000014" class="edge">
<title>Node17&#45;&gt;Node14</title>
<g id="a_edge29_Node000017_Node000014"><a xlink:title=" ">
<path fill="none" stroke="#63b8ff" d="M457.6,-279.69C469.28,-271.79 484.49,-259.31 492,-244 507.8,-211.79 506.56,-168.88 503.96,-143.77"/>
<polygon fill="#63b8ff" stroke="#63b8ff" points="507.44,-143.41 502.75,-133.91 500.5,-144.26 507.44,-143.41"/>
</a>
</g>
</g>
<!-- Node17&#45;&gt;Node18 -->
<g id="edge30_Node000017_Node000018" class="edge">
<title>Node17&#45;&gt;Node18</title>
<g id="a_edge30_Node000017_Node000018"><a xlink:title=" ">
<path fill="none" stroke="#63b8ff" d="M472.13,-279.59C502.91,-269.99 550.56,-255.11 582.26,-245.22"/>
<polygon fill="#63b8ff" stroke="#63b8ff" points="583.2,-248.59 591.7,-242.27 581.12,-241.91 583.2,-248.59"/>
</a>
</g>
</g>
<!-- Node18&#45;&gt;Node4 -->
<g id="edge32_Node000018_Node000004" class="edge">
<title>Node18&#45;&gt;Node4</title>
<g id="a_edge32_Node000018_Node000004"><a xlink:title=" ">
<path fill="none" stroke="#63b8ff" d="M636.86,-226.53C677.73,-213.63 767.09,-181.64 828,-132 843.89,-119.05 857.5,-99.91 866.32,-85.75"/>
<polygon fill="#63b8ff" stroke="#63b8ff" points="869.19,-87.76 871.31,-77.38 863.18,-84.18 869.19,-87.76"/>
</a>
</g>
</g>
<!-- Node18&#45;&gt;Node10 -->
<g id="edge31_Node000018_Node000010" class="edge">
<title>Node18&#45;&gt;Node10</title>
<g id="a_edge31_Node000018_Node000010"><a xlink:title=" ">
<path fill="none" stroke="#63b8ff" d="M593.09,-225.64C558.85,-212.81 493.81,-182.75 467,-132 462.85,-124.14 461.35,-118.86 467,-112 491.69,-81.98 607.99,-71.68 664.72,-68.41"/>
<polygon fill="#63b8ff" stroke="#63b8ff" points="664.56,-71.92 674.36,-67.89 664.19,-64.93 664.56,-71.92"/>
</a>
</g>
</g>
<!-- Node18&#45;&gt;Node12 -->
<g id="edge33_Node000018_Node000012" class="edge">
<title>Node18&#45;&gt;Node12</title>
<g id="a_edge33_Node000018_Node000012"><a xlink:title=" ">
<path fill="none" stroke="#63b8ff" d="M624.23,-223.59C631.6,-216.08 642.13,-205.35 651.02,-196.3"/>
<polygon fill="#63b8ff" stroke="#63b8ff" points="653.31,-198.97 657.81,-189.38 648.31,-194.06 653.31,-198.97"/>
</a>
</g>
</g>
<!-- Node19&#45;&gt;Node3 -->
<g id="edge44_Node000019_Node000003" class="edge">
<title>Node19&#45;&gt;Node3</title>
<g id="a_edge44_Node000019_Node000003"><a xlink:title=" ">
<path fill="none" stroke="#63b8ff" d="M468.49,-391.55C427.58,-369.04 323.47,-309.22 248,-244 231.43,-229.68 215.04,-210.75 203.93,-197.02"/>
<polygon fill="#63b8ff" stroke="#63b8ff" points="206.75,-194.93 197.79,-189.26 201.26,-199.28 206.75,-194.93"/>
</a>
</g>
</g>
<!-- Node19&#45;&gt;Node16 -->
<g id="edge45_Node000019_Node000016" class="edge">
<title>Node19&#45;&gt;Node16</title>
<g id="a_edge45_Node000019_Node000016"><a xlink:title=" ">
<path fill="none" stroke="#63b8ff" d="M490.53,-391.59C493.85,-384.7 498.47,-375.1 502.58,-366.57"/>
<polygon fill="#63b8ff" stroke="#63b8ff" points="505.68,-368.19 506.87,-357.66 499.37,-365.15 505.68,-368.19"/>
</a>
</g>
</g>
<!-- Node19&#45;&gt;Node17 -->
<g id="edge38_Node000019_Node000017" class="edge">
<title>Node19&#45;&gt;Node17</title>
<g id="a_edge38_Node000019_Node000017"><a xlink:title=" ">
<path fill="none" stroke="#63b8ff" d="M482.25,-391.62C475.14,-373.84 459.55,-334.88 450,-311"/>
<polygon fill="#63b8ff" stroke="#63b8ff" points="453.27,-309.74 446.3,-301.76 446.77,-312.34 453.27,-309.74"/>
</a>
</g>
</g>
<!-- Node19&#45;&gt;Node18 -->
<g id="edge46_Node000019_Node000018" class="edge">
<title>Node19&#45;&gt;Node18</title>
<g id="a_edge46_Node000019_Node000018"><a xlink:title=" ">
<path fill="none" stroke="#63b8ff" d="M501.63,-391.52C514.66,-383.17 533.23,-370.15 547,-356 576.31,-325.88 597.24,-280.65 607.61,-254.87"/>
<polygon fill="#63b8ff" stroke="#63b8ff" points="610.84,-256.22 611.18,-245.64 604.31,-253.7 610.84,-256.22"/>
</a>
</g>
</g>
<!-- Node19&#45;&gt;Node20 -->
<g id="edge39_Node000019_Node000020" class="edge">
<title>Node19&#45;&gt;Node20</title>
<g id="a_edge39_Node000019_Node000020"><a xlink:title=" ">
<path fill="none" stroke="#63b8ff" d="M460.36,-397.29C401.02,-388.7 253.01,-367.27 170.63,-355.34"/>
<polygon fill="#63b8ff" stroke="#63b8ff" points="171.35,-351.91 160.95,-353.94 170.35,-358.84 171.35,-351.91"/>
</a>
</g>
</g>
<!-- Node20&#45;&gt;Node3 -->
<g id="edge42_Node000020_Node000003" class="edge">
<title>Node20&#45;&gt;Node3</title>
<g id="a_edge42_Node000020_Node000003"><a xlink:title=" ">
<path fill="none" stroke="#63b8ff" d="M112.94,-335.79C113.21,-314.57 116.18,-261.19 138,-224 144.68,-212.61 155.3,-202.66 165.21,-195.03"/>
<polygon fill="#63b8ff" stroke="#63b8ff" points="167.04,-198.03 173.11,-189.34 162.95,-192.35 167.04,-198.03"/>
</a>
</g>
</g>
<!-- Node20&#45;&gt;Node6 -->
<g id="edge41_Node000020_Node000006" class="edge">
<title>Node20&#45;&gt;Node6</title>
<g id="a_edge41_Node000020_Node000006"><a xlink:title=" ">
<path fill="none" stroke="#63b8ff" d="M107.54,-335.65C97.25,-317.1 76,-274.09 76,-235 76,-235 76,-235 76,-177 76,-122.79 252.66,-86.69 333.03,-73.07"/>
<polygon fill="#63b8ff" stroke="#63b8ff" points="333.37,-76.56 342.66,-71.47 332.22,-69.66 333.37,-76.56"/>
</a>
</g>
</g>
<!-- Node20&#45;&gt;Node17 -->
<g id="edge43_Node000020_Node000017" class="edge">
<title>Node20&#45;&gt;Node17</title>
<g id="a_edge43_Node000020_Node000017"><a xlink:title=" ">
<path fill="none" stroke="#63b8ff" d="M159.44,-337.38C219.76,-327.48 324.85,-310.23 388.46,-299.79"/>
<polygon fill="#63b8ff" stroke="#63b8ff" points="388.66,-303.3 397.96,-298.23 387.52,-296.39 388.66,-303.3"/>
</a>
</g>
</g>
<!-- Node20&#45;&gt;Node18 -->
<g id="edge40_Node000020_Node000018" class="edge">
<title>Node20&#45;&gt;Node18</title>
<g id="a_edge40_Node000020_Node000018"><a xlink:title=" ">
<path fill="none" stroke="#63b8ff" d="M159.48,-344.98C232.26,-343.75 376.83,-336.41 493,-300 529.71,-288.5 568.27,-265.92 591.98,-250.64"/>
<polygon fill="#63b8ff" stroke="#63b8ff" points="593.78,-253.65 600.21,-245.23 589.93,-247.8 593.78,-253.65"/>
</a>
</g>
</g>
<!-- Node21&#45;&gt;Node4 -->
<g id="edge49_Node000021_Node000004" class="edge">
<title>Node21&#45;&gt;Node4</title>
<g id="a_edge49_Node000021_Node000004"><a xlink:title=" ">
<path fill="none" stroke="#63b8ff" d="M1005.83,-111.59C979.01,-102.31 937.99,-88.11 909.47,-78.24"/>
<polygon fill="#63b8ff" stroke="#63b8ff" points="910.86,-75.02 900.27,-75.05 908.57,-81.63 910.86,-75.02"/>
</a>
</g>
</g>
<!-- Node21&#45;&gt;Node10 -->
<g id="edge50_Node000021_Node000010" class="edge">
<title>Node21&#45;&gt;Node10</title>
<g id="a_edge50_Node000021_Node000010"><a xlink:title=" ">
<path fill="none" stroke="#63b8ff" d="M993.99,-113.58C990.95,-113.03 987.92,-112.5 985,-112 891.68,-95.99 780.97,-79.43 727.72,-71.61"/>
<polygon fill="#63b8ff" stroke="#63b8ff" points="728.26,-68.15 717.85,-70.17 727.24,-75.08 728.26,-68.15"/>
</a>
</g>
</g>
<!-- Node21&#45;&gt;Node11 -->
<g id="edge51_Node000021_Node000011" class="edge">
<title>Node21&#45;&gt;Node11</title>
<g id="a_edge51_Node000021_Node000011"><a xlink:title=" ">
<path fill="none" stroke="#63b8ff" d="M1020.63,-111.59C1010.35,-103.77 995.48,-92.46 983.29,-83.19"/>
<polygon fill="#63b8ff" stroke="#63b8ff" points="985.51,-80.48 975.43,-77.21 981.27,-86.05 985.51,-80.48"/>
</a>
</g>
</g>
<!-- Node22 -->
<g id="Node000022" class="node">
<title>Node22</title>
<g id="a_Node000022"><a xlink:title=" ">
<polygon fill="#e0e0e0" stroke="#999999" points="1055.62,-76 1010.38,-76 1010.38,-56 1055.62,-56 1055.62,-76"/>
<text text-anchor="middle" x="1033" y="-62.5" font-family="Helvetica,sans-Serif" font-size="10.00">cstdint</text>
</a>
</g>
</g>
<!-- Node21&#45;&gt;Node22 -->
<g id="edge52_Node000021_Node000022" class="edge">
<title>Node21&#45;&gt;Node22</title>
<g id="a_edge52_Node000021_Node000022"><a xlink:title=" ">
<path fill="none" stroke="#63b8ff" d="M1033,-111.59C1033,-105.01 1033,-95.96 1033,-87.73"/>
<polygon fill="#63b8ff" stroke="#63b8ff" points="1036.5,-87.81 1033,-77.81 1029.5,-87.81 1036.5,-87.81"/>
</a>
</g>
</g>
<!-- Node23&#45;&gt;Node3 -->
<g id="edge56_Node000023_Node000003" class="edge">
<title>Node23&#45;&gt;Node3</title>
<g id="a_edge56_Node000023_Node000003"><a xlink:title=" ">
<path fill="none" stroke="#63b8ff" d="M259.72,-391.6C237.18,-375.81 194.16,-341.57 177,-300 163.14,-266.43 173.75,-223.4 182.22,-198.74"/>
<polygon fill="#63b8ff" stroke="#63b8ff" points="185.4,-200.24 185.57,-189.65 178.83,-197.82 185.4,-200.24"/>
</a>
</g>
</g>
<!-- Node23&#45;&gt;Node5 -->
<g id="edge54_Node000023_Node000005" class="edge">
<title>Node23&#45;&gt;Node5</title>
<g id="a_edge54_Node000023_Node000005"><a xlink:title=" ">
<path fill="none" stroke="#63b8ff" d="M267.36,-391.67C259.18,-378.99 247.17,-355.63 254,-336 265.92,-301.74 294.84,-270.36 314.44,-251.95"/>
<polygon fill="#63b8ff" stroke="#63b8ff" points="316.53,-254.78 321.57,-245.47 311.82,-249.6 316.53,-254.78"/>
</a>
</g>
</g>
<!-- Node23&#45;&gt;Node6 -->
<g id="edge55_Node000023_Node000006" class="edge">
<title>Node23&#45;&gt;Node6</title>
<g id="a_edge55_Node000023_Node000006"><a xlink:title=" ">
<path fill="none" stroke="#63b8ff" d="M224.41,-391.98C162.58,-380.55 64.19,-361.63 58,-356 35.66,-335.65 38,-321.23 38,-291 38,-291 38,-291 38,-177 38,-132.21 74.43,-130.96 115,-112 186.95,-78.37 280.91,-69.7 332.97,-67.57"/>
<polygon fill="#63b8ff" stroke="#63b8ff" points="332.95,-71.07 342.83,-67.24 332.72,-64.08 332.95,-71.07"/>
</a>
</g>
</g>
<!-- Node23&#45;&gt;Node8 -->
<g id="edge59_Node000023_Node000008" class="edge">
<title>Node23&#45;&gt;Node8</title>
<g id="a_edge59_Node000023_Node000008"><a xlink:title=" ">
<path fill="none" stroke="#63b8ff" d="M282.05,-391.76C301.93,-368.51 353.82,-305.08 383,-244 389.84,-229.69 394.74,-212.41 397.86,-199.27"/>
<polygon fill="#63b8ff" stroke="#63b8ff" points="401.24,-200.16 399.97,-189.64 394.41,-198.66 401.24,-200.16"/>
</a>
</g>
</g>
<!-- Node23&#45;&gt;Node16 -->
<g id="edge58_Node000023_Node000016" class="edge">
<title>Node23&#45;&gt;Node16</title>
<g id="a_edge58_Node000023_Node000016"><a xlink:title=" ">
<path fill="none" stroke="#63b8ff" d="M315.73,-391.53C360.79,-381.31 431.9,-365.17 475.02,-355.39"/>
<polygon fill="#63b8ff" stroke="#63b8ff" points="475.68,-358.83 484.66,-353.2 474.13,-352 475.68,-358.83"/>
</a>
</g>
</g>
<!-- Node23&#45;&gt;Node17 -->
<g id="edge57_Node000023_Node000017" class="edge">
<title>Node23&#45;&gt;Node17</title>
<g id="a_edge57_Node000023_Node000017"><a xlink:title=" ">
<path fill="none" stroke="#63b8ff" d="M288.32,-391.62C317.21,-372.71 382.72,-329.82 418.16,-306.61"/>
<polygon fill="#63b8ff" stroke="#63b8ff" points="420,-309.59 426.45,-301.18 416.16,-303.73 420,-309.59"/>
</a>
</g>
</g>
<!-- Node26&#45;&gt;Node20 -->
<g id="edge67_Node000026_Node000020" class="edge">
<title>Node26&#45;&gt;Node20</title>
<g id="a_edge67_Node000026_Node000020"><a xlink:title=" ">
<path fill="none" stroke="#63b8ff" d="M151.81,-391.59C145.41,-384.24 136.32,-373.8 128.55,-364.87"/>
<polygon fill="#63b8ff" stroke="#63b8ff" points="131.29,-362.69 122.09,-357.44 126.01,-367.28 131.29,-362.69"/>
</a>
</g>
</g>
<!-- Node27&#45;&gt;Node23 -->
<g id="edge69_Node000027_Node000023" class="edge">
<title>Node27&#45;&gt;Node23</title>
<g id="a_edge69_Node000027_Node000023"><a xlink:title=" ">
<path fill="none" stroke="#63b8ff" d="M382.18,-447.59C361.55,-439.09 330.92,-426.46 307.51,-416.81"/>
<polygon fill="#63b8ff" stroke="#63b8ff" points="308.98,-413.63 298.4,-413.06 306.31,-420.1 308.98,-413.63"/>
</a>
</g>
</g>
<!-- Node28&#45;&gt;Node23 -->
<g id="edge71_Node000028_Node000023" class="edge">
<title>Node28&#45;&gt;Node23</title>
<g id="a_edge71_Node000028_Node000023"><a xlink:title=" ">
<path fill="none" stroke="#63b8ff" d="M448.33,-450.37C445.52,-449.56 442.7,-448.76 440,-448 399.71,-436.69 353.78,-424.28 320.46,-415.36"/>
<polygon fill="#63b8ff" stroke="#63b8ff" points="321.7,-412.06 311.13,-412.86 319.89,-418.83 321.7,-412.06"/>
</a>
</g>
</g>
<!-- Node29&#45;&gt;Node23 -->
<g id="edge73_Node000029_Node000023" class="edge">
<title>Node29&#45;&gt;Node23</title>
<g id="a_edge73_Node000029_Node000023"><a xlink:title=" ">
<path fill="none" stroke="#63b8ff" d="M270.7,-447.59C271.18,-441.01 271.85,-431.96 272.46,-423.73"/>
<polygon fill="#63b8ff" stroke="#63b8ff" points="275.95,-424.04 273.2,-413.81 268.97,-423.52 275.95,-424.04"/>
</a>
</g>
</g>
<!-- Node30&#45;&gt;Node23 -->
<g id="edge75_Node000030_Node000023" class="edge">
<title>Node30&#45;&gt;Node23</title>
<g id="a_edge75_Node000030_Node000023"><a xlink:title=" ">
<path fill="none" stroke="#63b8ff" d="M327.68,-447.59C318.36,-439.85 304.92,-428.69 293.82,-419.47"/>
<polygon fill="#63b8ff" stroke="#63b8ff" points="296.29,-416.96 286.36,-413.27 291.81,-422.35 296.29,-416.96"/>
</a>
</g>
</g>
</g>
</svg>
