<?xml version="1.0" encoding="UTF-8" standalone="no"?>
<!DOCTYPE svg PUBLIC "-//W3C//DTD SVG 1.1//EN"
 "http://www.w3.org/Graphics/SVG/1.1/DTD/svg11.dtd">
<!-- Generated by graphviz version 10.0.1 (0)
 -->
<!-- Title: src/Ghost.h Pages: 1 -->
<svg width="676pt" height="420pt"
 viewBox="0.00 0.00 676.00 420.00" xmlns="http://www.w3.org/2000/svg" xmlns:xlink="http://www.w3.org/1999/xlink">
<g id="graph0" class="graph" transform="scale(1 1) rotate(0) translate(4 416)">
<title>src/Ghost.h</title>
<!-- Node1 -->
<g id="Node000001" class="node">
<title>Node1</title>
<g id="a_Node000001"><a xlink:title="Represents a ghost enemy.">
<polygon fill="#999999" stroke="#666666" points="286.5,-412 219.5,-412 219.5,-392 286.5,-392 286.5,-412"/>
<text text-anchor="middle" x="253" y="-398.5" font-family="Helvetica,sans-Serif" font-size="10.00">src/Ghost.h</text>
</a>
</g>
</g>
<!-- Node2 -->
<g id="Node000002" class="node">
<title>Node2</title>
<g id="a_Node000002"><a xlink:href="MovingObject_8h.html" target="_top" xlink:title="Base class for all moving objects.">
<polygon fill="white" stroke="#666666" points="282.12,-300 197.88,-300 197.88,-280 282.12,-280 282.12,-300"/>
<text text-anchor="middle" x="240" y="-286.5" font-family="Helvetica,sans-Serif" font-size="10.00">MovingObject.h</text>
</a>
</g>
</g>
<!-- Node1&#45;&gt;Node2 -->
<g id="edge1_Node000001_Node000002" class="edge">
<title>Node1&#45;&gt;Node2</title>
<g id="a_edge1_Node000001_Node000002"><a xlink:title=" ">
<path fill="none" stroke="#63b8ff" d="M251.89,-391.62C249.81,-374.01 245.27,-335.59 242.44,-311.65"/>
<polygon fill="#63b8ff" stroke="#63b8ff" points="245.93,-311.38 241.28,-301.86 238.98,-312.2 245.93,-311.38"/>
</a>
</g>
</g>
<!-- Node7 -->
<g id="Node000007" class="node">
<title>Node7</title>
<g id="a_Node000007"><a xlink:title=" ">
<polygon fill="#e0e0e0" stroke="#999999" points="83.62,-188 32.38,-188 32.38,-168 83.62,-168 83.62,-188"/>
<text text-anchor="middle" x="58" y="-174.5" font-family="Helvetica,sans-Serif" font-size="10.00">memory</text>
</a>
</g>
</g>
<!-- Node1&#45;&gt;Node7 -->
<g id="edge30_Node000001_Node000007" class="edge">
<title>Node1&#45;&gt;Node7</title>
<g id="a_edge30_Node000001_Node000007"><a xlink:title=" ">
<path fill="none" stroke="#63b8ff" d="M219.24,-396.09C191.08,-390.52 151.29,-379.01 124,-356 80.5,-319.33 77.92,-298.62 62,-244 57.83,-229.67 56.89,-212.84 56.97,-199.89"/>
<polygon fill="#63b8ff" stroke="#63b8ff" points="60.46,-200.09 57.25,-189.99 53.47,-199.89 60.46,-200.09"/>
</a>
</g>
</g>
<!-- Node9 -->
<g id="Node000009" class="node">
<title>Node9</title>
<g id="a_Node000009"><a xlink:href="Map_8h.html" target="_top" xlink:title="Class for handling the game map.">
<polygon fill="white" stroke="#666666" points="369.5,-244 326.5,-244 326.5,-224 369.5,-224 369.5,-244"/>
<text text-anchor="middle" x="348" y="-230.5" font-family="Helvetica,sans-Serif" font-size="10.00">Map.h</text>
</a>
</g>
</g>
<!-- Node1&#45;&gt;Node9 -->
<g id="edge35_Node000001_Node000009" class="edge">
<title>Node1&#45;&gt;Node9</title>
<g id="a_edge35_Node000001_Node000009"><a xlink:title=" ">
<path fill="none" stroke="#63b8ff" d="M286.81,-396.03C310.58,-390.58 340.77,-379.27 356,-356 376,-325.43 365.21,-280.71 356.19,-255.07"/>
<polygon fill="#63b8ff" stroke="#63b8ff" points="359.51,-253.98 352.69,-245.87 352.97,-256.46 359.51,-253.98"/>
</a>
</g>
</g>
<!-- Node15 -->
<g id="Node000015" class="node">
<title>Node15</title>
<g id="a_Node000015"><a xlink:href="EnemyBehavior_8h.html" target="_top" xlink:title="Base class for all enemy behaviors.">
<polygon fill="white" stroke="#666666" points="225.25,-356 132.75,-356 132.75,-336 225.25,-336 225.25,-356"/>
<text text-anchor="middle" x="179" y="-342.5" font-family="Helvetica,sans-Serif" font-size="10.00">EnemyBehavior.h</text>
</a>
</g>
</g>
<!-- Node1&#45;&gt;Node15 -->
<g id="edge25_Node000001_Node000015" class="edge">
<title>Node1&#45;&gt;Node15</title>
<g id="a_edge25_Node000001_Node000015"><a xlink:title=" ">
<path fill="none" stroke="#63b8ff" d="M240.11,-391.59C229.29,-383.7 213.59,-372.24 200.81,-362.92"/>
<polygon fill="#63b8ff" stroke="#63b8ff" points="203.11,-360.26 192.96,-357.19 198.98,-365.91 203.11,-360.26"/>
</a>
</g>
</g>
<!-- Node16 -->
<g id="Node000016" class="node">
<title>Node16</title>
<g id="a_Node000016"><a xlink:href="Player_8h.html" target="_top" xlink:title="Represents a player.">
<polygon fill="white" stroke="#666666" points="346.62,-356 295.38,-356 295.38,-336 346.62,-336 346.62,-356"/>
<text text-anchor="middle" x="321" y="-342.5" font-family="Helvetica,sans-Serif" font-size="10.00">Player.h</text>
</a>
</g>
</g>
<!-- Node1&#45;&gt;Node16 -->
<g id="edge31_Node000001_Node000016" class="edge">
<title>Node1&#45;&gt;Node16</title>
<g id="a_edge31_Node000001_Node000016"><a xlink:title=" ">
<path fill="none" stroke="#63b8ff" d="M264.84,-391.59C274.69,-383.77 288.93,-372.46 300.61,-363.19"/>
<polygon fill="#63b8ff" stroke="#63b8ff" points="302.45,-366.2 308.11,-357.24 298.1,-360.72 302.45,-366.2"/>
</a>
</g>
</g>
<!-- Node3 -->
<g id="Node000003" class="node">
<title>Node3</title>
<g id="a_Node000003"><a xlink:href="GameObject_8h.html" target="_top" xlink:title="Base class for all game objects.">
<polygon fill="white" stroke="#666666" points="183.5,-244 104.5,-244 104.5,-224 183.5,-224 183.5,-244"/>
<text text-anchor="middle" x="144" y="-230.5" font-family="Helvetica,sans-Serif" font-size="10.00">GameObject.h</text>
</a>
</g>
</g>
<!-- Node2&#45;&gt;Node3 -->
<g id="edge2_Node000002_Node000003" class="edge">
<title>Node2&#45;&gt;Node3</title>
<g id="a_edge2_Node000002_Node000003"><a xlink:title=" ">
<path fill="none" stroke="#63b8ff" d="M223.28,-279.59C208.78,-271.44 187.53,-259.48 170.68,-250"/>
<polygon fill="#63b8ff" stroke="#63b8ff" points="172.6,-247.07 162.17,-245.22 169.17,-253.17 172.6,-247.07"/>
</a>
</g>
</g>
<!-- Node4 -->
<g id="Node000004" class="node">
<title>Node4</title>
<g id="a_Node000004"><a xlink:href="Enums_8h.html" target="_top" xlink:title=" ">
<polygon fill="white" stroke="#666666" points="228.5,-76 173.5,-76 173.5,-56 228.5,-56 228.5,-76"/>
<text text-anchor="middle" x="201" y="-62.5" font-family="Helvetica,sans-Serif" font-size="10.00">Enums.h</text>
</a>
</g>
</g>
<!-- Node2&#45;&gt;Node4 -->
<g id="edge8_Node000002_Node000004" class="edge">
<title>Node2&#45;&gt;Node4</title>
<g id="a_edge8_Node000002_Node000004"><a xlink:title=" ">
<path fill="none" stroke="#63b8ff" d="M239.99,-279.81C239.81,-259.48 238.57,-209.23 231,-168 225.73,-139.26 215.35,-107.06 208.3,-86.91"/>
<polygon fill="#63b8ff" stroke="#63b8ff" points="211.68,-85.96 205.01,-77.73 205.09,-88.32 211.68,-85.96"/>
</a>
</g>
</g>
<!-- Node6 -->
<g id="Node000006" class="node">
<title>Node6</title>
<g id="a_Node000006"><a xlink:href="GamePhase_8h.html" target="_top" xlink:title="Handles the game phase and level.">
<polygon fill="white" stroke="#666666" points="222.12,-188 143.88,-188 143.88,-168 222.12,-168 222.12,-188"/>
<text text-anchor="middle" x="183" y="-174.5" font-family="Helvetica,sans-Serif" font-size="10.00">GamePhase.h</text>
</a>
</g>
</g>
<!-- Node2&#45;&gt;Node6 -->
<g id="edge24_Node000002_Node000006" class="edge">
<title>Node2&#45;&gt;Node6</title>
<g id="a_edge24_Node000002_Node000006"><a xlink:title=" ">
<path fill="none" stroke="#63b8ff" d="M235.14,-279.62C225.84,-261.68 205.37,-222.17 193.02,-198.35"/>
<polygon fill="#63b8ff" stroke="#63b8ff" points="196.25,-196.97 188.54,-189.7 190.04,-200.19 196.25,-196.97"/>
</a>
</g>
</g>
<!-- Node2&#45;&gt;Node7 -->
<g id="edge9_Node000002_Node000007" class="edge">
<title>Node2&#45;&gt;Node7</title>
<g id="a_edge9_Node000002_Node000007"><a xlink:title=" ">
<path fill="none" stroke="#63b8ff" d="M197.68,-284.3C166.47,-278.97 124.48,-267.7 95,-244 80.47,-232.32 70.6,-213.29 64.73,-198.83"/>
<polygon fill="#63b8ff" stroke="#63b8ff" points="68.16,-198.02 61.4,-189.86 61.6,-200.45 68.16,-198.02"/>
</a>
</g>
</g>
<!-- Node8 -->
<g id="Node000008" class="node">
<title>Node8</title>
<g id="a_Node000008"><a xlink:title=" ">
<polygon fill="#e0e0e0" stroke="#999999" points="297.88,-132 248.12,-132 248.12,-112 297.88,-112 297.88,-132"/>
<text text-anchor="middle" x="273" y="-118.5" font-family="Helvetica,sans-Serif" font-size="10.00">optional</text>
</a>
</g>
</g>
<!-- Node2&#45;&gt;Node8 -->
<g id="edge10_Node000002_Node000008" class="edge">
<title>Node2&#45;&gt;Node8</title>
<g id="a_edge10_Node000002_Node000008"><a xlink:title=" ">
<path fill="none" stroke="#63b8ff" d="M246.37,-279.84C252.08,-271.07 260.15,-257.27 264,-244 273.89,-209.87 274.66,-168.18 274.03,-143.72"/>
<polygon fill="#63b8ff" stroke="#63b8ff" points="277.53,-143.71 273.65,-133.85 270.53,-143.97 277.53,-143.71"/>
</a>
</g>
</g>
<!-- Node2&#45;&gt;Node9 -->
<g id="edge11_Node000002_Node000009" class="edge">
<title>Node2&#45;&gt;Node9</title>
<g id="a_edge11_Node000002_Node000009"><a xlink:title=" ">
<path fill="none" stroke="#63b8ff" d="M258.81,-279.59C275.36,-271.32 299.71,-259.14 318.79,-249.6"/>
<polygon fill="#63b8ff" stroke="#63b8ff" points="320.31,-252.76 327.69,-245.16 317.18,-246.5 320.31,-252.76"/>
</a>
</g>
</g>
<!-- Node3&#45;&gt;Node4 -->
<g id="edge3_Node000003_Node000004" class="edge">
<title>Node3&#45;&gt;Node4</title>
<g id="a_edge3_Node000003_Node000004"><a xlink:title=" ">
<path fill="none" stroke="#63b8ff" d="M140.24,-223.55C135.68,-210.73 129.28,-187.22 135,-168 144.67,-135.54 168.45,-103.8 184.66,-84.81"/>
<polygon fill="#63b8ff" stroke="#63b8ff" points="187.14,-87.29 191.13,-77.47 181.89,-82.66 187.14,-87.29"/>
</a>
</g>
</g>
<!-- Node3&#45;&gt;Node6 -->
<g id="edge5_Node000003_Node000006" class="edge">
<title>Node3&#45;&gt;Node6</title>
<g id="a_edge5_Node000003_Node000006"><a xlink:title=" ">
<path fill="none" stroke="#63b8ff" d="M150.79,-223.59C155.99,-216.39 163.33,-206.23 169.69,-197.43"/>
<polygon fill="#63b8ff" stroke="#63b8ff" points="172.38,-199.68 175.4,-189.53 166.71,-195.58 172.38,-199.68"/>
</a>
</g>
</g>
<!-- Node3&#45;&gt;Node7 -->
<g id="edge7_Node000003_Node000007" class="edge">
<title>Node3&#45;&gt;Node7</title>
<g id="a_edge7_Node000003_Node000007"><a xlink:title=" ">
<path fill="none" stroke="#63b8ff" d="M129.02,-223.59C116.27,-215.59 97.71,-203.93 82.76,-194.54"/>
<polygon fill="#63b8ff" stroke="#63b8ff" points="84.71,-191.64 74.38,-189.28 80.99,-197.57 84.71,-191.64"/>
</a>
</g>
</g>
<!-- Node5 -->
<g id="Node000005" class="node">
<title>Node5</title>
<g id="a_Node000005"><a xlink:title=" ">
<polygon fill="#e0e0e0" stroke="#999999" points="220.62,-20 181.38,-20 181.38,0 220.62,0 220.62,-20"/>
<text text-anchor="middle" x="201" y="-6.5" font-family="Helvetica,sans-Serif" font-size="10.00">utility</text>
</a>
</g>
</g>
<!-- Node4&#45;&gt;Node5 -->
<g id="edge4_Node000004_Node000005" class="edge">
<title>Node4&#45;&gt;Node5</title>
<g id="a_edge4_Node000004_Node000005"><a xlink:title=" ">
<path fill="none" stroke="#63b8ff" d="M201,-55.59C201,-49.01 201,-39.96 201,-31.73"/>
<polygon fill="#63b8ff" stroke="#63b8ff" points="204.5,-31.81 201,-21.81 197.5,-31.81 204.5,-31.81"/>
</a>
</g>
</g>
<!-- Node6&#45;&gt;Node4 -->
<g id="edge6_Node000006_Node000004" class="edge">
<title>Node6&#45;&gt;Node4</title>
<g id="a_edge6_Node000006_Node000004"><a xlink:title=" ">
<path fill="none" stroke="#63b8ff" d="M184.53,-167.62C187.42,-150.01 193.7,-111.59 197.62,-87.65"/>
<polygon fill="#63b8ff" stroke="#63b8ff" points="201.06,-88.28 199.22,-77.85 194.16,-87.15 201.06,-88.28"/>
</a>
</g>
</g>
<!-- Node10 -->
<g id="Node000010" class="node">
<title>Node10</title>
<g id="a_Node000010"><a xlink:title=" ">
<polygon fill="#e0e0e0" stroke="#999999" points="631,-76 591,-76 591,-56 631,-56 631,-76"/>
<text text-anchor="middle" x="611" y="-62.5" font-family="Helvetica,sans-Serif" font-size="10.00">string</text>
</a>
</g>
</g>
<!-- Node9&#45;&gt;Node10 -->
<g id="edge12_Node000009_Node000010" class="edge">
<title>Node9&#45;&gt;Node10</title>
<g id="a_edge12_Node000009_Node000010"><a xlink:title=" ">
<path fill="none" stroke="#63b8ff" d="M369.76,-230.78C418.28,-224.63 535.76,-202.83 596,-132 606.46,-119.71 609.97,-101.54 611.01,-87.53"/>
<polygon fill="#63b8ff" stroke="#63b8ff" points="614.5,-87.75 611.34,-77.64 607.51,-87.52 614.5,-87.75"/>
</a>
</g>
</g>
<!-- Node11 -->
<g id="Node000011" class="node">
<title>Node11</title>
<g id="a_Node000011"><a xlink:title=" ">
<polygon fill="#e0e0e0" stroke="#999999" points="499.5,-76 456.5,-76 456.5,-56 499.5,-56 499.5,-76"/>
<text text-anchor="middle" x="478" y="-62.5" font-family="Helvetica,sans-Serif" font-size="10.00">vector</text>
</a>
</g>
</g>
<!-- Node9&#45;&gt;Node11 -->
<g id="edge13_Node000009_Node000011" class="edge">
<title>Node9&#45;&gt;Node11</title>
<g id="a_edge13_Node000009_Node000011"><a xlink:title=" ">
<path fill="none" stroke="#63b8ff" d="M348.19,-223.61C349.13,-201.53 354.37,-145.64 383,-112 399.07,-93.12 424.83,-81.6 445.48,-74.96"/>
<polygon fill="#63b8ff" stroke="#63b8ff" points="446.28,-78.37 454.88,-72.18 444.29,-71.66 446.28,-78.37"/>
</a>
</g>
</g>
<!-- Node12 -->
<g id="Node000012" class="node">
<title>Node12</title>
<g id="a_Node000012"><a xlink:href="Window_8h.html" target="_top" xlink:title="Class for handling ncurses windows.">
<polygon fill="white" stroke="#666666" points="450,-188 392,-188 392,-168 450,-168 450,-188"/>
<text text-anchor="middle" x="421" y="-174.5" font-family="Helvetica,sans-Serif" font-size="10.00">Window.h</text>
</a>
</g>
</g>
<!-- Node9&#45;&gt;Node12 -->
<g id="edge14_Node000009_Node000012" class="edge">
<title>Node9&#45;&gt;Node12</title>
<g id="a_edge14_Node000009_Node000012"><a xlink:title=" ">
<path fill="none" stroke="#63b8ff" d="M360.72,-223.59C371.39,-215.7 386.88,-204.24 399.48,-194.92"/>
<polygon fill="#63b8ff" stroke="#63b8ff" points="401.26,-197.96 407.21,-189.2 397.09,-192.33 401.26,-197.96"/>
</a>
</g>
</g>
<!-- Node12&#45;&gt;Node4 -->
<g id="edge19_Node000012_Node000004" class="edge">
<title>Node12&#45;&gt;Node4</title>
<g id="a_edge19_Node000012_Node000004"><a xlink:title=" ">
<path fill="none" stroke="#63b8ff" d="M405.82,-167.59C384.26,-154.39 343.34,-130 307,-112 283.76,-100.49 256.87,-89.1 235.98,-80.65"/>
<polygon fill="#63b8ff" stroke="#63b8ff" points="237.35,-77.43 226.76,-76.96 234.75,-83.93 237.35,-77.43"/>
</a>
</g>
</g>
<!-- Node12&#45;&gt;Node8 -->
<g id="edge17_Node000012_Node000008" class="edge">
<title>Node12&#45;&gt;Node8</title>
<g id="a_edge17_Node000012_Node000008"><a xlink:title=" ">
<path fill="none" stroke="#63b8ff" d="M395.22,-167.59C371.2,-158.83 335.17,-145.68 308.45,-135.93"/>
<polygon fill="#63b8ff" stroke="#63b8ff" points="310.01,-132.78 299.41,-132.64 307.61,-139.35 310.01,-132.78"/>
</a>
</g>
</g>
<!-- Node12&#45;&gt;Node10 -->
<g id="edge16_Node000012_Node000010" class="edge">
<title>Node12&#45;&gt;Node10</title>
<g id="a_edge16_Node000012_Node000010"><a xlink:title=" ">
<path fill="none" stroke="#63b8ff" d="M450.22,-174.75C483.16,-170.86 536.83,-160.35 573,-132 587.77,-120.42 597.93,-101.38 604,-86.89"/>
<polygon fill="#63b8ff" stroke="#63b8ff" points="607.14,-88.48 607.46,-77.89 600.61,-85.97 607.14,-88.48"/>
</a>
</g>
</g>
<!-- Node12&#45;&gt;Node11 -->
<g id="edge18_Node000012_Node000011" class="edge">
<title>Node12&#45;&gt;Node11</title>
<g id="a_edge18_Node000012_Node000011"><a xlink:title=" ">
<path fill="none" stroke="#63b8ff" d="M431.08,-167.53C439.63,-158.99 451.65,-145.69 459,-132 466.5,-118.03 471.37,-100.73 474.3,-87.5"/>
<polygon fill="#63b8ff" stroke="#63b8ff" points="477.72,-88.27 476.24,-77.78 470.85,-86.9 477.72,-88.27"/>
</a>
</g>
</g>
<!-- Node13 -->
<g id="Node000013" class="node">
<title>Node13</title>
<g id="a_Node000013"><a xlink:title=" ">
<polygon fill="#e0e0e0" stroke="#999999" points="450.38,-132 391.62,-132 391.62,-112 450.38,-112 450.38,-132"/>
<text text-anchor="middle" x="421" y="-118.5" font-family="Helvetica,sans-Serif" font-size="10.00">ncurses.h</text>
</a>
</g>
</g>
<!-- Node12&#45;&gt;Node13 -->
<g id="edge15_Node000012_Node000013" class="edge">
<title>Node12&#45;&gt;Node13</title>
<g id="a_edge15_Node000012_Node000013"><a xlink:title=" ">
<path fill="none" stroke="#63b8ff" d="M421,-167.59C421,-161.01 421,-151.96 421,-143.73"/>
<polygon fill="#63b8ff" stroke="#63b8ff" points="424.5,-143.81 421,-133.81 417.5,-143.81 424.5,-143.81"/>
</a>
</g>
</g>
<!-- Node14 -->
<g id="Node000014" class="node">
<title>Node14</title>
<g id="a_Node000014"><a xlink:href="Helpers_8h.html" target="_top" xlink:title=" ">
<polygon fill="white" stroke="#666666" points="564,-132 506,-132 506,-112 564,-112 564,-132"/>
<text text-anchor="middle" x="535" y="-118.5" font-family="Helvetica,sans-Serif" font-size="10.00">Helpers.h</text>
</a>
</g>
</g>
<!-- Node12&#45;&gt;Node14 -->
<g id="edge20_Node000012_Node000014" class="edge">
<title>Node12&#45;&gt;Node14</title>
<g id="a_edge20_Node000012_Node000014"><a xlink:title=" ">
<path fill="none" stroke="#63b8ff" d="M440.86,-167.59C458.49,-159.24 484.51,-146.92 504.73,-137.34"/>
<polygon fill="#63b8ff" stroke="#63b8ff" points="506.08,-140.57 513.62,-133.13 503.08,-134.25 506.08,-140.57"/>
</a>
</g>
</g>
<!-- Node14&#45;&gt;Node4 -->
<g id="edge21_Node000014_Node000004" class="edge">
<title>Node14&#45;&gt;Node4</title>
<g id="a_edge21_Node000014_Node000004"><a xlink:title=" ">
<path fill="none" stroke="#63b8ff" d="M505.65,-116.26C445.31,-106.5 307.32,-84.19 239.74,-73.26"/>
<polygon fill="#63b8ff" stroke="#63b8ff" points="240.67,-69.87 230.24,-71.73 239.55,-76.78 240.67,-69.87"/>
</a>
</g>
</g>
<!-- Node14&#45;&gt;Node10 -->
<g id="edge22_Node000014_Node000010" class="edge">
<title>Node14&#45;&gt;Node10</title>
<g id="a_edge22_Node000014_Node000010"><a xlink:title=" ">
<path fill="none" stroke="#63b8ff" d="M548.24,-111.59C559.29,-103.74 575.28,-92.38 588.36,-83.09"/>
<polygon fill="#63b8ff" stroke="#63b8ff" points="590.3,-86 596.42,-77.36 586.25,-80.3 590.3,-86"/>
</a>
</g>
</g>
<!-- Node14&#45;&gt;Node11 -->
<g id="edge23_Node000014_Node000011" class="edge">
<title>Node14&#45;&gt;Node11</title>
<g id="a_edge23_Node000014_Node000011"><a xlink:title=" ">
<path fill="none" stroke="#63b8ff" d="M525.07,-111.59C517.06,-104.01 505.58,-93.13 495.97,-84.02"/>
<polygon fill="#63b8ff" stroke="#63b8ff" points="498.58,-81.68 488.91,-77.34 493.77,-86.76 498.58,-81.68"/>
</a>
</g>
</g>
<!-- Node15&#45;&gt;Node2 -->
<g id="edge29_Node000015_Node000002" class="edge">
<title>Node15&#45;&gt;Node2</title>
<g id="a_edge29_Node000015_Node000002"><a xlink:title=" ">
<path fill="none" stroke="#63b8ff" d="M189.63,-335.59C198.28,-327.93 210.73,-316.91 221.08,-307.75"/>
<polygon fill="#63b8ff" stroke="#63b8ff" points="223.2,-310.55 228.36,-301.3 218.56,-305.31 223.2,-310.55"/>
</a>
</g>
</g>
<!-- Node15&#45;&gt;Node4 -->
<g id="edge27_Node000015_Node000004" class="edge">
<title>Node15&#45;&gt;Node4</title>
<g id="a_edge27_Node000015_Node000004"><a xlink:title=" ">
<path fill="none" stroke="#63b8ff" d="M154.11,-335.6C104.93,-316.24 0,-270.75 0,-235 0,-235 0,-235 0,-177 0,-104.06 103.12,-79.17 161.64,-70.92"/>
<polygon fill="#63b8ff" stroke="#63b8ff" points="162.08,-74.4 171.55,-69.64 161.18,-67.45 162.08,-74.4"/>
</a>
</g>
</g>
<!-- Node15&#45;&gt;Node7 -->
<g id="edge28_Node000015_Node000007" class="edge">
<title>Node15&#45;&gt;Node7</title>
<g id="a_edge28_Node000015_Node000007"><a xlink:title=" ">
<path fill="none" stroke="#63b8ff" d="M165.01,-335.62C142.28,-319.61 97.5,-284.76 74,-244 66.17,-230.42 62.15,-213.1 60.1,-199.76"/>
<polygon fill="#63b8ff" stroke="#63b8ff" points="63.58,-199.42 58.86,-189.94 56.64,-200.29 63.58,-199.42"/>
</a>
</g>
</g>
<!-- Node15&#45;&gt;Node9 -->
<g id="edge26_Node000015_Node000009" class="edge">
<title>Node15&#45;&gt;Node9</title>
<g id="a_edge26_Node000015_Node000009"><a xlink:title=" ">
<path fill="none" stroke="#63b8ff" d="M214.17,-335.55C237.37,-328.23 267.66,-316.54 291,-300 308.94,-287.29 325,-267.85 335.47,-253.54"/>
<polygon fill="#63b8ff" stroke="#63b8ff" points="338.29,-255.62 341.18,-245.43 332.56,-251.59 338.29,-255.62"/>
</a>
</g>
</g>
<!-- Node16&#45;&gt;Node2 -->
<g id="edge32_Node000016_Node000002" class="edge">
<title>Node16&#45;&gt;Node2</title>
<g id="a_edge32_Node000016_Node000002"><a xlink:title=" ">
<path fill="none" stroke="#63b8ff" d="M306.89,-335.59C295,-327.67 277.73,-316.16 263.72,-306.82"/>
<polygon fill="#63b8ff" stroke="#63b8ff" points="265.74,-303.95 255.48,-301.32 261.86,-309.78 265.74,-303.95"/>
</a>
</g>
</g>
<!-- Node16&#45;&gt;Node9 -->
<g id="edge33_Node000016_Node000009" class="edge">
<title>Node16&#45;&gt;Node9</title>
<g id="a_edge33_Node000016_Node000009"><a xlink:title=" ">
<path fill="none" stroke="#63b8ff" d="M323.3,-335.62C327.65,-317.92 337.14,-279.24 343.01,-255.32"/>
<polygon fill="#63b8ff" stroke="#63b8ff" points="346.36,-256.37 345.34,-245.82 339.56,-254.7 346.36,-256.37"/>
</a>
</g>
</g>
<!-- Node16&#45;&gt;Node10 -->
<g id="edge34_Node000016_Node000010" class="edge">
<title>Node16&#45;&gt;Node10</title>
<g id="a_edge34_Node000016_Node000010"><a xlink:title=" ">
<path fill="none" stroke="#63b8ff" d="M347.08,-342.43C427.78,-333.76 668,-302.31 668,-235 668,-235 668,-235 668,-177 668,-141.35 644.11,-105.75 627.26,-85.08"/>
<polygon fill="#63b8ff" stroke="#63b8ff" points="630.03,-82.94 620.89,-77.6 624.7,-87.48 630.03,-82.94"/>
</a>
</g>
</g>
</g>
</svg>
