<?xml version="1.0" encoding="UTF-8" standalone="no"?>
<!DOCTYPE svg PUBLIC "-//W3C//DTD SVG 1.1//EN"
 "http://www.w3.org/Graphics/SVG/1.1/DTD/svg11.dtd">
<!-- Generated by graphviz version 2.43.0 (0)
 -->
<!-- Title: src/Ghost.h Pages: 1 -->
<svg width="266pt" height="196pt"
 viewBox="0.00 0.00 266.00 196.00" xmlns="http://www.w3.org/2000/svg" xmlns:xlink="http://www.w3.org/1999/xlink">
<g id="graph0" class="graph" transform="scale(1 1) rotate(0) translate(4 192)">
<title>src/Ghost.h</title>
<polygon fill="white" stroke="transparent" points="-4,4 -4,-192 262,-192 262,4 -4,4"/>
<!-- Node1 -->
<g id="node1" class="node">
<title>Node1</title>
<g id="a_node1"><a xlink:title="Represents a ghost enemy.">
<polygon fill="#bfbfbf" stroke="black" points="112,-168.5 112,-187.5 183,-187.5 183,-168.5 112,-168.5"/>
<text text-anchor="middle" x="147.5" y="-175.5" font-family="Helvetica,sans-Serif" font-size="10.00">src/Ghost.h</text>
</a>
</g>
</g>
<!-- Node2 -->
<g id="node2" class="node">
<title>Node2</title>
<g id="a_node2"><a xlink:href="Game_8h.html" target="_top" xlink:title="Class for handling the game logic.">
<polygon fill="white" stroke="black" points="63.5,-112.5 63.5,-131.5 135.5,-131.5 135.5,-112.5 63.5,-112.5"/>
<text text-anchor="middle" x="99.5" y="-119.5" font-family="Helvetica,sans-Serif" font-size="10.00">src/Game.h</text>
</a>
</g>
</g>
<!-- Node1&#45;&gt;Node2 -->
<g id="edge1" class="edge">
<title>Node1&#45;&gt;Node2</title>
<path fill="none" stroke="midnightblue" d="M132.77,-160.43C124.36,-150.97 114.15,-139.48 107.28,-131.75"/>
<polygon fill="midnightblue" stroke="midnightblue" points="130.31,-162.93 139.57,-168.08 135.55,-158.28 130.31,-162.93"/>
</g>
<!-- Node7 -->
<g id="node7" class="node">
<title>Node7</title>
<g id="a_node7"><a xlink:href="Ghost_8cpp.html" target="_top" xlink:title="Represents a ghost enemy.">
<polygon fill="white" stroke="black" points="154,-112.5 154,-131.5 237,-131.5 237,-112.5 154,-112.5"/>
<text text-anchor="middle" x="195.5" y="-119.5" font-family="Helvetica,sans-Serif" font-size="10.00">src/Ghost.cpp</text>
</a>
</g>
</g>
<!-- Node1&#45;&gt;Node7 -->
<g id="edge6" class="edge">
<title>Node1&#45;&gt;Node7</title>
<path fill="none" stroke="midnightblue" d="M162.23,-160.43C170.64,-150.97 180.85,-139.48 187.72,-131.75"/>
<polygon fill="midnightblue" stroke="midnightblue" points="159.45,-158.28 155.43,-168.08 164.69,-162.93 159.45,-158.28"/>
</g>
<!-- Node3 -->
<g id="node3" class="node">
<title>Node3</title>
<g id="a_node3"><a xlink:href="Game_8cpp.html" target="_top" xlink:title="Class for handling the game logic.">
<polygon fill="white" stroke="black" points="0,-56.5 0,-75.5 83,-75.5 83,-56.5 0,-56.5"/>
<text text-anchor="middle" x="41.5" y="-63.5" font-family="Helvetica,sans-Serif" font-size="10.00">src/Game.cpp</text>
</a>
</g>
</g>
<!-- Node2&#45;&gt;Node3 -->
<g id="edge2" class="edge">
<title>Node2&#45;&gt;Node3</title>
<path fill="none" stroke="midnightblue" d="M82.59,-105.25C72.3,-95.67 59.53,-83.79 50.99,-75.83"/>
<polygon fill="midnightblue" stroke="midnightblue" points="80.48,-108.07 90.18,-112.32 85.25,-102.95 80.48,-108.07"/>
</g>
<!-- Node4 -->
<g id="node4" class="node">
<title>Node4</title>
<g id="a_node4"><a xlink:href="GameManager_8h.html" target="_top" xlink:title="Handles the game loop and game states.">
<polygon fill="white" stroke="black" points="101.5,-56.5 101.5,-75.5 215.5,-75.5 215.5,-56.5 101.5,-56.5"/>
<text text-anchor="middle" x="158.5" y="-63.5" font-family="Helvetica,sans-Serif" font-size="10.00">src/GameManager.h</text>
</a>
</g>
</g>
<!-- Node2&#45;&gt;Node4 -->
<g id="edge3" class="edge">
<title>Node2&#45;&gt;Node4</title>
<path fill="none" stroke="midnightblue" d="M116.39,-105.54C126.91,-95.91 140.07,-83.87 148.85,-75.83"/>
<polygon fill="midnightblue" stroke="midnightblue" points="113.99,-102.99 108.98,-112.32 118.72,-108.15 113.99,-102.99"/>
</g>
<!-- Node5 -->
<g id="node5" class="node">
<title>Node5</title>
<g id="a_node5"><a xlink:href="GameManager_8cpp.html" target="_top" xlink:title="Handles the game loop and game states.">
<polygon fill="white" stroke="black" points="36,-0.5 36,-19.5 161,-19.5 161,-0.5 36,-0.5"/>
<text text-anchor="middle" x="98.5" y="-7.5" font-family="Helvetica,sans-Serif" font-size="10.00">src/GameManager.cpp</text>
</a>
</g>
</g>
<!-- Node4&#45;&gt;Node5 -->
<g id="edge4" class="edge">
<title>Node4&#45;&gt;Node5</title>
<path fill="none" stroke="midnightblue" d="M141.32,-49.54C130.62,-39.91 117.24,-27.87 108.32,-19.83"/>
<polygon fill="midnightblue" stroke="midnightblue" points="139.09,-52.24 148.86,-56.32 143.77,-47.03 139.09,-52.24"/>
</g>
<!-- Node6 -->
<g id="node6" class="node">
<title>Node6</title>
<g id="a_node6"><a xlink:href="main_8cpp.html" target="_top" xlink:title="Main function, initializes the game manager.">
<polygon fill="white" stroke="black" points="179,-0.5 179,-19.5 258,-19.5 258,-0.5 179,-0.5"/>
<text text-anchor="middle" x="218.5" y="-7.5" font-family="Helvetica,sans-Serif" font-size="10.00">src/main.cpp</text>
</a>
</g>
</g>
<!-- Node4&#45;&gt;Node6 -->
<g id="edge5" class="edge">
<title>Node4&#45;&gt;Node6</title>
<path fill="none" stroke="midnightblue" d="M175.68,-49.54C186.38,-39.91 199.76,-27.87 208.68,-19.83"/>
<polygon fill="midnightblue" stroke="midnightblue" points="173.23,-47.03 168.14,-56.32 177.91,-52.24 173.23,-47.03"/>
</g>
</g>
</svg>
