<?xml version="1.0" encoding="UTF-8" standalone="no"?>
<!DOCTYPE svg PUBLIC "-//W3C//DTD SVG 1.1//EN"
 "http://www.w3.org/Graphics/SVG/1.1/DTD/svg11.dtd">
<!-- Generated by graphviz version 2.43.0 (0)
 -->
<!-- Title: src/Ghost.h Pages: 1 -->
<svg width="696pt" height="420pt"
 viewBox="0.00 0.00 696.00 420.00" xmlns="http://www.w3.org/2000/svg" xmlns:xlink="http://www.w3.org/1999/xlink">
<g id="graph0" class="graph" transform="scale(1 1) rotate(0) translate(4 416)">
<title>src/Ghost.h</title>
<polygon fill="white" stroke="transparent" points="-4,4 -4,-416 692,-416 692,4 -4,4"/>
<!-- Node1 -->
<g id="node1" class="node">
<title>Node1</title>
<g id="a_node1"><a xlink:title="Represents a ghost enemy.">
<polygon fill="#bfbfbf" stroke="black" points="223.5,-392.5 223.5,-411.5 294.5,-411.5 294.5,-392.5 223.5,-392.5"/>
<text text-anchor="middle" x="259" y="-399.5" font-family="Helvetica,sans-Serif" font-size="10.00">src/Ghost.h</text>
</a>
</g>
</g>
<!-- Node2 -->
<g id="node2" class="node">
<title>Node2</title>
<g id="a_node2"><a xlink:href="MovingObject_8h.html" target="_top" xlink:title="Base class for all moving objects.">
<polygon fill="white" stroke="black" points="198.5,-280.5 198.5,-299.5 291.5,-299.5 291.5,-280.5 198.5,-280.5"/>
<text text-anchor="middle" x="245" y="-287.5" font-family="Helvetica,sans-Serif" font-size="10.00">MovingObject.h</text>
</a>
</g>
</g>
<!-- Node1&#45;&gt;Node2 -->
<g id="edge1" class="edge">
<title>Node1&#45;&gt;Node2</title>
<path fill="none" stroke="midnightblue" d="M257.9,-392.37C255.64,-374.62 250.43,-333.67 247.37,-309.6"/>
<polygon fill="midnightblue" stroke="midnightblue" points="250.83,-309.07 246.09,-299.59 243.88,-309.95 250.83,-309.07"/>
</g>
<!-- Node7 -->
<g id="node7" class="node">
<title>Node7</title>
<g id="a_node7"><a xlink:title=" ">
<polygon fill="white" stroke="#bfbfbf" points="29,-168.5 29,-187.5 87,-187.5 87,-168.5 29,-168.5"/>
<text text-anchor="middle" x="58" y="-175.5" font-family="Helvetica,sans-Serif" font-size="10.00">memory</text>
</a>
</g>
</g>
<!-- Node1&#45;&gt;Node7 -->
<g id="edge30" class="edge">
<title>Node1&#45;&gt;Node7</title>
<path fill="none" stroke="midnightblue" d="M223.38,-397.1C192.9,-392.12 149.41,-380.93 120,-356 77.24,-319.76 76.93,-298.03 62,-244 57.81,-228.83 56.99,-210.93 57.12,-197.77"/>
<polygon fill="midnightblue" stroke="midnightblue" points="60.62,-197.7 57.41,-187.6 53.63,-197.49 60.62,-197.7"/>
</g>
<!-- Node9 -->
<g id="node9" class="node">
<title>Node9</title>
<g id="a_node9"><a xlink:href="Map_8h.html" target="_top" xlink:title="Class for handling the game map.">
<polygon fill="white" stroke="black" points="334.5,-224.5 334.5,-243.5 381.5,-243.5 381.5,-224.5 334.5,-224.5"/>
<text text-anchor="middle" x="358" y="-231.5" font-family="Helvetica,sans-Serif" font-size="10.00">Map.h</text>
</a>
</g>
</g>
<!-- Node1&#45;&gt;Node9 -->
<g id="edge35" class="edge">
<title>Node1&#45;&gt;Node9</title>
<path fill="none" stroke="midnightblue" d="M294.66,-396.45C319.52,-391.22 351,-380 367,-356 387.86,-324.71 375.25,-278.23 365.71,-252.95"/>
<polygon fill="midnightblue" stroke="midnightblue" points="368.9,-251.49 361.91,-243.52 362.4,-254.11 368.9,-251.49"/>
</g>
<!-- Node15 -->
<g id="node15" class="node">
<title>Node15</title>
<g id="a_node15"><a xlink:href="EnemyBehavior_8h.html" target="_top" xlink:title="Base class for all enemy behaviors.">
<polygon fill="white" stroke="black" points="129,-336.5 129,-355.5 231,-355.5 231,-336.5 129,-336.5"/>
<text text-anchor="middle" x="180" y="-343.5" font-family="Helvetica,sans-Serif" font-size="10.00">EnemyBehavior.h</text>
</a>
</g>
</g>
<!-- Node1&#45;&gt;Node15 -->
<g id="edge25" class="edge">
<title>Node1&#45;&gt;Node15</title>
<path fill="none" stroke="midnightblue" d="M246.31,-392.32C234.1,-383.98 215.42,-371.21 201,-361.35"/>
<polygon fill="midnightblue" stroke="midnightblue" points="202.89,-358.41 192.66,-355.65 198.94,-364.19 202.89,-358.41"/>
</g>
<!-- Node16 -->
<g id="node16" class="node">
<title>Node16</title>
<g id="a_node16"><a xlink:href="Player_8h.html" target="_top" xlink:title="Represents a player.">
<polygon fill="white" stroke="black" points="302,-336.5 302,-355.5 358,-355.5 358,-336.5 302,-336.5"/>
<text text-anchor="middle" x="330" y="-343.5" font-family="Helvetica,sans-Serif" font-size="10.00">Player.h</text>
</a>
</g>
</g>
<!-- Node1&#45;&gt;Node16 -->
<g id="edge31" class="edge">
<title>Node1&#45;&gt;Node16</title>
<path fill="none" stroke="midnightblue" d="M270.41,-392.32C281.11,-384.18 297.34,-371.84 310.16,-362.09"/>
<polygon fill="midnightblue" stroke="midnightblue" points="312.54,-364.67 318.39,-355.83 308.31,-359.1 312.54,-364.67"/>
</g>
<!-- Node3 -->
<g id="node3" class="node">
<title>Node3</title>
<g id="a_node3"><a xlink:href="GameObject_8h.html" target="_top" xlink:title="Base class for all game objects.">
<polygon fill="white" stroke="black" points="104,-224.5 104,-243.5 190,-243.5 190,-224.5 104,-224.5"/>
<text text-anchor="middle" x="147" y="-231.5" font-family="Helvetica,sans-Serif" font-size="10.00">GameObject.h</text>
</a>
</g>
</g>
<!-- Node2&#45;&gt;Node3 -->
<g id="edge2" class="edge">
<title>Node2&#45;&gt;Node3</title>
<path fill="none" stroke="midnightblue" d="M229.25,-280.32C213.68,-271.74 189.62,-258.49 171.54,-248.52"/>
<polygon fill="midnightblue" stroke="midnightblue" points="173.15,-245.42 162.71,-243.65 169.78,-251.55 173.15,-245.42"/>
</g>
<!-- Node4 -->
<g id="node4" class="node">
<title>Node4</title>
<g id="a_node4"><a xlink:href="Enums_8h.html" target="_top" xlink:title=" ">
<polygon fill="white" stroke="black" points="173.5,-56.5 173.5,-75.5 232.5,-75.5 232.5,-56.5 173.5,-56.5"/>
<text text-anchor="middle" x="203" y="-63.5" font-family="Helvetica,sans-Serif" font-size="10.00">Enums.h</text>
</a>
</g>
</g>
<!-- Node2&#45;&gt;Node4 -->
<g id="edge8" class="edge">
<title>Node2&#45;&gt;Node4</title>
<path fill="none" stroke="midnightblue" d="M245.19,-280.39C245.46,-260.43 245.21,-209.51 237,-168 231.09,-138.15 218.75,-104.98 210.67,-85.06"/>
<polygon fill="midnightblue" stroke="midnightblue" points="213.85,-83.6 206.79,-75.71 207.39,-86.29 213.85,-83.6"/>
</g>
<!-- Node6 -->
<g id="node6" class="node">
<title>Node6</title>
<g id="a_node6"><a xlink:href="GamePhase_8h.html" target="_top" xlink:title="Handles the game phase and level.">
<polygon fill="white" stroke="black" points="144,-168.5 144,-187.5 228,-187.5 228,-168.5 144,-168.5"/>
<text text-anchor="middle" x="186" y="-175.5" font-family="Helvetica,sans-Serif" font-size="10.00">GamePhase.h</text>
</a>
</g>
</g>
<!-- Node2&#45;&gt;Node6 -->
<g id="edge24" class="edge">
<title>Node2&#45;&gt;Node6</title>
<path fill="none" stroke="midnightblue" d="M240.37,-280.37C230.72,-262.38 208.29,-220.55 195.45,-196.63"/>
<polygon fill="midnightblue" stroke="midnightblue" points="198.42,-194.75 190.61,-187.59 192.25,-198.06 198.42,-194.75"/>
</g>
<!-- Node2&#45;&gt;Node7 -->
<g id="edge9" class="edge">
<title>Node2&#45;&gt;Node7</title>
<path fill="none" stroke="midnightblue" d="M198.17,-284.14C166.25,-278.78 124.57,-267.54 95,-244 79.8,-231.9 69.72,-211.73 63.98,-197.06"/>
<polygon fill="midnightblue" stroke="midnightblue" points="67.23,-195.77 60.55,-187.55 60.65,-198.14 67.23,-195.77"/>
</g>
<!-- Node8 -->
<g id="node8" class="node">
<title>Node8</title>
<g id="a_node8"><a xlink:title=" ">
<polygon fill="white" stroke="#bfbfbf" points="250,-112.5 250,-131.5 306,-131.5 306,-112.5 250,-112.5"/>
<text text-anchor="middle" x="278" y="-119.5" font-family="Helvetica,sans-Serif" font-size="10.00">optional</text>
</a>
</g>
</g>
<!-- Node2&#45;&gt;Node8 -->
<g id="edge10" class="edge">
<title>Node2&#45;&gt;Node8</title>
<path fill="none" stroke="midnightblue" d="M251.43,-280.22C257.42,-271.51 266.01,-257.54 270,-244 280.28,-209.12 280.33,-166.22 279.27,-142"/>
<polygon fill="midnightblue" stroke="midnightblue" points="282.75,-141.53 278.71,-131.73 275.76,-141.91 282.75,-141.53"/>
</g>
<!-- Node2&#45;&gt;Node9 -->
<g id="edge11" class="edge">
<title>Node2&#45;&gt;Node9</title>
<path fill="none" stroke="midnightblue" d="M262.91,-280.44C281.25,-271.68 310.01,-257.94 331.09,-247.86"/>
<polygon fill="midnightblue" stroke="midnightblue" points="332.67,-250.99 340.18,-243.52 329.65,-244.67 332.67,-250.99"/>
</g>
<!-- Node3&#45;&gt;Node4 -->
<g id="edge3" class="edge">
<title>Node3&#45;&gt;Node4</title>
<path fill="none" stroke="midnightblue" d="M142.86,-224.44C137.35,-211.86 128.97,-187.76 135,-168 145.28,-134.34 170.95,-101.74 187.65,-83.06"/>
<polygon fill="midnightblue" stroke="midnightblue" points="190.4,-85.23 194.6,-75.5 185.25,-80.49 190.4,-85.23"/>
</g>
<!-- Node3&#45;&gt;Node6 -->
<g id="edge5" class="edge">
<title>Node3&#45;&gt;Node6</title>
<path fill="none" stroke="midnightblue" d="M153.44,-224.08C158.95,-216.46 167.03,-205.26 173.76,-195.94"/>
<polygon fill="midnightblue" stroke="midnightblue" points="176.66,-197.91 179.68,-187.75 170.99,-193.81 176.66,-197.91"/>
</g>
<!-- Node3&#45;&gt;Node7 -->
<g id="edge7" class="edge">
<title>Node3&#45;&gt;Node7</title>
<path fill="none" stroke="midnightblue" d="M132.7,-224.32C118.82,-215.9 97.51,-202.97 81.2,-193.07"/>
<polygon fill="midnightblue" stroke="midnightblue" points="82.63,-189.85 72.26,-187.65 79,-195.83 82.63,-189.85"/>
</g>
<!-- Node5 -->
<g id="node5" class="node">
<title>Node5</title>
<g id="a_node5"><a xlink:title=" ">
<polygon fill="white" stroke="#bfbfbf" points="180.5,-0.5 180.5,-19.5 225.5,-19.5 225.5,-0.5 180.5,-0.5"/>
<text text-anchor="middle" x="203" y="-7.5" font-family="Helvetica,sans-Serif" font-size="10.00">utility</text>
</a>
</g>
</g>
<!-- Node4&#45;&gt;Node5 -->
<g id="edge4" class="edge">
<title>Node4&#45;&gt;Node5</title>
<path fill="none" stroke="midnightblue" d="M203,-56.08C203,-49.01 203,-38.86 203,-29.99"/>
<polygon fill="midnightblue" stroke="midnightblue" points="206.5,-29.75 203,-19.75 199.5,-29.75 206.5,-29.75"/>
</g>
<!-- Node6&#45;&gt;Node4 -->
<g id="edge6" class="edge">
<title>Node6&#45;&gt;Node4</title>
<path fill="none" stroke="midnightblue" d="M187.33,-168.37C190.08,-150.62 196.41,-109.67 200.13,-85.6"/>
<polygon fill="midnightblue" stroke="midnightblue" points="203.6,-86.01 201.67,-75.59 196.69,-84.94 203.6,-86.01"/>
</g>
<!-- Node10 -->
<g id="node10" class="node">
<title>Node10</title>
<g id="a_node10"><a xlink:title=" ">
<polygon fill="white" stroke="#bfbfbf" points="609,-56.5 609,-75.5 653,-75.5 653,-56.5 609,-56.5"/>
<text text-anchor="middle" x="631" y="-63.5" font-family="Helvetica,sans-Serif" font-size="10.00">string</text>
</a>
</g>
</g>
<!-- Node9&#45;&gt;Node10 -->
<g id="edge12" class="edge">
<title>Node9&#45;&gt;Node10</title>
<path fill="none" stroke="midnightblue" d="M381.59,-230.85C432.35,-224.91 552.38,-203.65 615,-132 626.1,-119.3 629.76,-100.09 630.84,-85.85"/>
<polygon fill="midnightblue" stroke="midnightblue" points="634.35,-85.85 631.25,-75.71 627.35,-85.56 634.35,-85.85"/>
</g>
<!-- Node11 -->
<g id="node11" class="node">
<title>Node11</title>
<g id="a_node11"><a xlink:title=" ">
<polygon fill="white" stroke="#bfbfbf" points="468.5,-56.5 468.5,-75.5 515.5,-75.5 515.5,-56.5 468.5,-56.5"/>
<text text-anchor="middle" x="492" y="-63.5" font-family="Helvetica,sans-Serif" font-size="10.00">vector</text>
</a>
</g>
</g>
<!-- Node9&#45;&gt;Node11 -->
<g id="edge13" class="edge">
<title>Node9&#45;&gt;Node11</title>
<path fill="none" stroke="midnightblue" d="M357.95,-224.22C358.3,-202.53 362.08,-145.72 391,-112 408.34,-91.78 436.55,-80.26 458.76,-73.95"/>
<polygon fill="midnightblue" stroke="midnightblue" points="459.69,-77.32 468.48,-71.4 457.92,-70.55 459.69,-77.32"/>
</g>
<!-- Node12 -->
<g id="node12" class="node">
<title>Node12</title>
<g id="a_node12"><a xlink:href="Window_8h.html" target="_top" xlink:title="Class for handling ncurses windows.">
<polygon fill="white" stroke="black" points="400,-168.5 400,-187.5 464,-187.5 464,-168.5 400,-168.5"/>
<text text-anchor="middle" x="432" y="-175.5" font-family="Helvetica,sans-Serif" font-size="10.00">Window.h</text>
</a>
</g>
</g>
<!-- Node9&#45;&gt;Node12 -->
<g id="edge14" class="edge">
<title>Node9&#45;&gt;Node12</title>
<path fill="none" stroke="midnightblue" d="M369.89,-224.32C381.15,-216.11 398.29,-203.6 411.71,-193.81"/>
<polygon fill="midnightblue" stroke="midnightblue" points="413.88,-196.56 419.89,-187.83 409.75,-190.9 413.88,-196.56"/>
</g>
<!-- Node12&#45;&gt;Node4 -->
<g id="edge19" class="edge">
<title>Node12&#45;&gt;Node4</title>
<path fill="none" stroke="midnightblue" d="M417.89,-168.41C396.21,-155.37 353.18,-130.19 315,-112 289.13,-99.67 258.93,-87.68 236.42,-79.17"/>
<polygon fill="midnightblue" stroke="midnightblue" points="237.56,-75.86 226.97,-75.64 235.11,-82.42 237.56,-75.86"/>
</g>
<!-- Node12&#45;&gt;Node8 -->
<g id="edge17" class="edge">
<title>Node12&#45;&gt;Node8</title>
<path fill="none" stroke="midnightblue" d="M407.6,-168.44C381.8,-159.4 340.92,-145.06 311.98,-134.92"/>
<polygon fill="midnightblue" stroke="midnightblue" points="312.88,-131.52 302.29,-131.52 310.57,-138.13 312.88,-131.52"/>
</g>
<!-- Node12&#45;&gt;Node10 -->
<g id="edge16" class="edge">
<title>Node12&#45;&gt;Node10</title>
<path fill="none" stroke="midnightblue" d="M464.25,-174.91C498.97,-171.18 554.28,-160.81 592,-132 607.65,-120.04 618.33,-99.85 624.51,-85.14"/>
<polygon fill="midnightblue" stroke="midnightblue" points="627.86,-86.18 628.21,-75.59 621.33,-83.65 627.86,-86.18"/>
</g>
<!-- Node12&#45;&gt;Node11 -->
<g id="edge18" class="edge">
<title>Node12&#45;&gt;Node11</title>
<path fill="none" stroke="midnightblue" d="M441.88,-168.27C450.9,-159.81 464,-146.21 472,-132 480.14,-117.53 485.37,-99.34 488.44,-85.89"/>
<polygon fill="midnightblue" stroke="midnightblue" points="491.91,-86.39 490.51,-75.89 485.05,-84.97 491.91,-86.39"/>
</g>
<!-- Node13 -->
<g id="node13" class="node">
<title>Node13</title>
<g id="a_node13"><a xlink:title=" ">
<polygon fill="white" stroke="#bfbfbf" points="400.5,-112.5 400.5,-131.5 463.5,-131.5 463.5,-112.5 400.5,-112.5"/>
<text text-anchor="middle" x="432" y="-119.5" font-family="Helvetica,sans-Serif" font-size="10.00">ncurses.h</text>
</a>
</g>
</g>
<!-- Node12&#45;&gt;Node13 -->
<g id="edge15" class="edge">
<title>Node12&#45;&gt;Node13</title>
<path fill="none" stroke="midnightblue" d="M432,-168.08C432,-161.01 432,-150.86 432,-141.99"/>
<polygon fill="midnightblue" stroke="midnightblue" points="435.5,-141.75 432,-131.75 428.5,-141.75 435.5,-141.75"/>
</g>
<!-- Node14 -->
<g id="node14" class="node">
<title>Node14</title>
<g id="a_node14"><a xlink:href="Helpers_8h.html" target="_top" xlink:title=" ">
<polygon fill="white" stroke="black" points="520.5,-112.5 520.5,-131.5 583.5,-131.5 583.5,-112.5 520.5,-112.5"/>
<text text-anchor="middle" x="552" y="-119.5" font-family="Helvetica,sans-Serif" font-size="10.00">Helpers.h</text>
</a>
</g>
</g>
<!-- Node12&#45;&gt;Node14 -->
<g id="edge20" class="edge">
<title>Node12&#45;&gt;Node14</title>
<path fill="none" stroke="midnightblue" d="M451.01,-168.44C470.59,-159.64 501.31,-145.81 523.73,-135.72"/>
<polygon fill="midnightblue" stroke="midnightblue" points="525.39,-138.81 533.07,-131.52 522.52,-132.43 525.39,-138.81"/>
</g>
<!-- Node14&#45;&gt;Node4 -->
<g id="edge21" class="edge">
<title>Node14&#45;&gt;Node4</title>
<path fill="none" stroke="midnightblue" d="M520.41,-116.11C456.73,-106.26 313.06,-84.03 242.97,-73.18"/>
<polygon fill="midnightblue" stroke="midnightblue" points="243.19,-69.68 232.78,-71.61 242.12,-76.6 243.19,-69.68"/>
</g>
<!-- Node14&#45;&gt;Node10 -->
<g id="edge22" class="edge">
<title>Node14&#45;&gt;Node10</title>
<path fill="none" stroke="midnightblue" d="M564.69,-112.32C576.9,-103.98 595.58,-91.21 610,-81.35"/>
<polygon fill="midnightblue" stroke="midnightblue" points="612.06,-84.19 618.34,-75.65 608.11,-78.41 612.06,-84.19"/>
</g>
<!-- Node14&#45;&gt;Node11 -->
<g id="edge23" class="edge">
<title>Node14&#45;&gt;Node11</title>
<path fill="none" stroke="midnightblue" d="M542.36,-112.32C533.49,-104.34 520.13,-92.31 509.39,-82.65"/>
<polygon fill="midnightblue" stroke="midnightblue" points="511.59,-79.92 501.82,-75.83 506.91,-85.13 511.59,-79.92"/>
</g>
<!-- Node15&#45;&gt;Node2 -->
<g id="edge29" class="edge">
<title>Node15&#45;&gt;Node2</title>
<path fill="none" stroke="midnightblue" d="M190.44,-336.32C200.15,-328.26 214.82,-316.08 226.5,-306.37"/>
<polygon fill="midnightblue" stroke="midnightblue" points="228.91,-308.92 234.37,-299.83 224.44,-303.53 228.91,-308.92"/>
</g>
<!-- Node15&#45;&gt;Node4 -->
<g id="edge27" class="edge">
<title>Node15&#45;&gt;Node4</title>
<path fill="none" stroke="midnightblue" d="M129.38,-336.43C76.14,-324.17 0,-295.98 0,-235 0,-235 0,-235 0,-177 0,-103.45 104.28,-78.82 163.36,-70.77"/>
<polygon fill="midnightblue" stroke="midnightblue" points="164,-74.22 173.48,-69.5 163.12,-67.28 164,-74.22"/>
</g>
<!-- Node15&#45;&gt;Node7 -->
<g id="edge28" class="edge">
<title>Node15&#45;&gt;Node7</title>
<path fill="none" stroke="midnightblue" d="M166.97,-336.41C144.39,-320.81 98.1,-285.56 74,-244 65.71,-229.7 61.69,-211.24 59.76,-197.64"/>
<polygon fill="midnightblue" stroke="midnightblue" points="63.22,-197.09 58.58,-187.57 56.27,-197.91 63.22,-197.09"/>
</g>
<!-- Node15&#45;&gt;Node9 -->
<g id="edge26" class="edge">
<title>Node15&#45;&gt;Node9</title>
<path fill="none" stroke="midnightblue" d="M215.76,-336.5C240.82,-329.41 274.3,-317.6 300,-300 318.83,-287.1 335.62,-266.82 346.23,-252.34"/>
<polygon fill="midnightblue" stroke="midnightblue" points="349.35,-253.99 352.27,-243.8 343.63,-249.95 349.35,-253.99"/>
</g>
<!-- Node16&#45;&gt;Node2 -->
<g id="edge32" class="edge">
<title>Node16&#45;&gt;Node2</title>
<path fill="none" stroke="midnightblue" d="M316.34,-336.32C303.08,-327.9 282.73,-314.97 267.15,-305.07"/>
<polygon fill="midnightblue" stroke="midnightblue" points="268.94,-302.06 258.62,-299.65 265.19,-307.97 268.94,-302.06"/>
</g>
<!-- Node16&#45;&gt;Node9 -->
<g id="edge33" class="edge">
<title>Node16&#45;&gt;Node9</title>
<path fill="none" stroke="midnightblue" d="M332.2,-336.37C336.72,-318.62 347.14,-277.67 353.27,-253.6"/>
<polygon fill="midnightblue" stroke="midnightblue" points="356.74,-254.15 355.81,-243.59 349.95,-252.42 356.74,-254.15"/>
</g>
<!-- Node16&#45;&gt;Node10 -->
<g id="edge34" class="edge">
<title>Node16&#45;&gt;Node10</title>
<path fill="none" stroke="midnightblue" d="M358.09,-342.48C442.49,-334.13 688,-303.92 688,-235 688,-235 688,-235 688,-177 688,-140.3 662.68,-103.66 645.79,-83.3"/>
<polygon fill="midnightblue" stroke="midnightblue" points="648.35,-80.9 639.17,-75.62 643.05,-85.48 648.35,-80.9"/>
</g>
</g>
</svg>
