<?xml version="1.0" encoding="UTF-8" standalone="no"?>
<!DOCTYPE svg PUBLIC "-//W3C//DTD SVG 1.1//EN"
 "http://www.w3.org/Graphics/SVG/1.1/DTD/svg11.dtd">
<!-- Generated by graphviz version 10.0.1 (0)
 -->
<!-- Title: src/Ghost.cpp Pages: 1 -->
<svg width="798pt" height="476pt"
 viewBox="0.00 0.00 797.62 476.00" xmlns="http://www.w3.org/2000/svg" xmlns:xlink="http://www.w3.org/1999/xlink">
<g id="graph0" class="graph" transform="scale(1 1) rotate(0) translate(4 472)">
<title>src/Ghost.cpp</title>
<!-- Node1 -->
<g id="Node000001" class="node">
<title>Node1</title>
<g id="a_Node000001"><a xlink:title="Represents a ghost enemy.">
<polygon fill="#999999" stroke="#666666" points="561.38,-468 483.88,-468 483.88,-448 561.38,-448 561.38,-468"/>
<text text-anchor="middle" x="522.62" y="-454.5" font-family="Helvetica,sans-Serif" font-size="10.00">src/Ghost.cpp</text>
</a>
</g>
</g>
<!-- Node2 -->
<g id="Node000002" class="node">
<title>Node2</title>
<g id="a_Node000002"><a xlink:href="Ghost_8h.html" target="_top" xlink:title="Represents a ghost enemy.">
<polygon fill="white" stroke="#666666" points="395.88,-412 345.38,-412 345.38,-392 395.88,-392 395.88,-412"/>
<text text-anchor="middle" x="370.62" y="-398.5" font-family="Helvetica,sans-Serif" font-size="10.00">Ghost.h</text>
</a>
</g>
</g>
<!-- Node1&#45;&gt;Node2 -->
<g id="edge1_Node000001_Node000002" class="edge">
<title>Node1&#45;&gt;Node2</title>
<g id="a_edge1_Node000001_Node000002"><a xlink:title=" ">
<path fill="none" stroke="#63b8ff" d="M496.15,-447.59C471.48,-438.83 434.48,-425.68 407.03,-415.93"/>
<polygon fill="#63b8ff" stroke="#63b8ff" points="408.31,-412.67 397.72,-412.63 405.97,-419.27 408.31,-412.67"/>
</a>
</g>
</g>
<!-- Node10 -->
<g id="Node000010" class="node">
<title>Node10</title>
<g id="a_Node000010"><a xlink:href="Map_8h.html" target="_top" xlink:title="Class for handling the game map.">
<polygon fill="white" stroke="#666666" points="506.12,-244 463.12,-244 463.12,-224 506.12,-224 506.12,-244"/>
<text text-anchor="middle" x="484.62" y="-230.5" font-family="Helvetica,sans-Serif" font-size="10.00">Map.h</text>
</a>
</g>
</g>
<!-- Node1&#45;&gt;Node10 -->
<g id="edge37_Node000001_Node000010" class="edge">
<title>Node1&#45;&gt;Node10</title>
<g id="a_edge37_Node000001_Node000010"><a xlink:title=" ">
<path fill="none" stroke="#63b8ff" d="M521.04,-447.74C515.39,-414.74 496.15,-302.31 488.15,-255.61"/>
<polygon fill="#63b8ff" stroke="#63b8ff" points="491.61,-255.05 486.47,-245.79 484.71,-256.23 491.61,-255.05"/>
</a>
</g>
</g>
<!-- Node15 -->
<g id="Node000015" class="node">
<title>Node15</title>
<g id="a_Node000015"><a xlink:href="Helpers_8h.html" target="_top" xlink:title=" ">
<polygon fill="white" stroke="#666666" points="578.62,-132 520.62,-132 520.62,-112 578.62,-112 578.62,-132"/>
<text text-anchor="middle" x="549.62" y="-118.5" font-family="Helvetica,sans-Serif" font-size="10.00">Helpers.h</text>
</a>
</g>
</g>
<!-- Node1&#45;&gt;Node15 -->
<g id="edge41_Node000001_Node000015" class="edge">
<title>Node1&#45;&gt;Node15</title>
<g id="a_edge41_Node000001_Node000015"><a xlink:title=" ">
<path fill="none" stroke="#63b8ff" d="M523.48,-447.69C524.3,-438.6 525.58,-424.35 526.62,-412 535.08,-311.6 544.38,-191.51 548.03,-143.91"/>
<polygon fill="#63b8ff" stroke="#63b8ff" points="551.51,-144.23 548.79,-133.99 544.53,-143.7 551.51,-144.23"/>
</a>
</g>
</g>
<!-- Node18 -->
<g id="Node000018" class="node">
<title>Node18</title>
<g id="a_Node000018"><a xlink:title=" ">
<polygon fill="#e0e0e0" stroke="#999999" points="659.5,-412 603.75,-412 603.75,-392 659.5,-392 659.5,-412"/>
<text text-anchor="middle" x="631.62" y="-398.5" font-family="Helvetica,sans-Serif" font-size="10.00">algorithm</text>
</a>
</g>
</g>
<!-- Node1&#45;&gt;Node18 -->
<g id="edge38_Node000001_Node000018" class="edge">
<title>Node1&#45;&gt;Node18</title>
<g id="a_edge38_Node000001_Node000018"><a xlink:title=" ">
<path fill="none" stroke="#63b8ff" d="M541.61,-447.59C558.39,-439.28 583.12,-427.03 602.41,-417.47"/>
<polygon fill="#63b8ff" stroke="#63b8ff" points="603.73,-420.73 611.13,-413.15 600.62,-414.45 603.73,-420.73"/>
</a>
</g>
</g>
<!-- Node19 -->
<g id="Node000019" class="node">
<title>Node19</title>
<g id="a_Node000019"><a xlink:title=" ">
<polygon fill="#e0e0e0" stroke="#999999" points="731.38,-412 677.88,-412 677.88,-392 731.38,-392 731.38,-412"/>
<text text-anchor="middle" x="704.62" y="-398.5" font-family="Helvetica,sans-Serif" font-size="10.00">iostream</text>
</a>
</g>
</g>
<!-- Node1&#45;&gt;Node19 -->
<g id="edge39_Node000001_Node000019" class="edge">
<title>Node1&#45;&gt;Node19</title>
<g id="a_edge39_Node000001_Node000019"><a xlink:title=" ">
<path fill="none" stroke="#63b8ff" d="M554.33,-447.59C585.62,-438.31 633.48,-424.11 666.76,-414.23"/>
<polygon fill="#63b8ff" stroke="#63b8ff" points="667.4,-417.7 675.99,-411.5 665.41,-410.99 667.4,-417.7"/>
</a>
</g>
</g>
<!-- Node20 -->
<g id="Node000020" class="node">
<title>Node20</title>
<g id="a_Node000020"><a xlink:title=" ">
<polygon fill="#e0e0e0" stroke="#999999" points="789.62,-412 749.62,-412 749.62,-392 789.62,-392 789.62,-412"/>
<text text-anchor="middle" x="769.62" y="-398.5" font-family="Helvetica,sans-Serif" font-size="10.00">cfloat</text>
</a>
</g>
</g>
<!-- Node1&#45;&gt;Node20 -->
<g id="edge40_Node000001_Node000020" class="edge">
<title>Node1&#45;&gt;Node20</title>
<g id="a_edge40_Node000001_Node000020"><a xlink:title=" ">
<path fill="none" stroke="#63b8ff" d="M561.87,-450.09C603.5,-442.5 671.36,-429.38 738.63,-412.32"/>
<polygon fill="#63b8ff" stroke="#63b8ff" points="739.14,-415.8 747.95,-409.92 737.39,-409.02 739.14,-415.8"/>
</a>
</g>
</g>
<!-- Node21 -->
<g id="Node000021" class="node">
<title>Node21</title>
<g id="a_Node000021"><a xlink:href="ScatterBehavior_8h.html" target="_top" xlink:title="Class for the scatter behavior of the ghosts.">
<polygon fill="white" stroke="#666666" points="93.25,-412 0,-412 0,-392 93.25,-392 93.25,-412"/>
<text text-anchor="middle" x="46.62" y="-398.5" font-family="Helvetica,sans-Serif" font-size="10.00">ScatterBehavior.h</text>
</a>
</g>
</g>
<!-- Node1&#45;&gt;Node21 -->
<g id="edge42_Node000001_Node000021" class="edge">
<title>Node1&#45;&gt;Node21</title>
<g id="a_edge42_Node000001_Node000021"><a xlink:title=" ">
<path fill="none" stroke="#63b8ff" d="M483.46,-453.5C410.98,-446.87 250.77,-431.51 105.01,-412.25"/>
<polygon fill="#63b8ff" stroke="#63b8ff" points="105.53,-408.79 95.15,-410.94 104.6,-415.73 105.53,-408.79"/>
</a>
</g>
</g>
<!-- Node22 -->
<g id="Node000022" class="node">
<title>Node22</title>
<g id="a_Node000022"><a xlink:href="ChaseBehavior_8h.html" target="_top" xlink:title="Class for handling the chase behavior of ghosts.">
<polygon fill="white" stroke="#666666" points="201.75,-412 111.5,-412 111.5,-392 201.75,-392 201.75,-412"/>
<text text-anchor="middle" x="156.62" y="-398.5" font-family="Helvetica,sans-Serif" font-size="10.00">ChaseBehavior.h</text>
</a>
</g>
</g>
<!-- Node1&#45;&gt;Node22 -->
<g id="edge44_Node000001_Node000022" class="edge">
<title>Node1&#45;&gt;Node22</title>
<g id="a_edge44_Node000001_Node000022"><a xlink:title=" ">
<path fill="none" stroke="#63b8ff" d="M483.67,-451.66C426.66,-443.79 316.85,-428.39 213.28,-412.39"/>
<polygon fill="#63b8ff" stroke="#63b8ff" points="213.9,-408.94 203.48,-410.87 212.83,-415.86 213.9,-408.94"/>
</a>
</g>
</g>
<!-- Node23 -->
<g id="Node000023" class="node">
<title>Node23</title>
<g id="a_Node000023"><a xlink:href="FrightenedBehavior_8h.html" target="_top" xlink:title="Class representing a frightened ghost behavior.">
<polygon fill="white" stroke="#666666" points="327.38,-412 219.88,-412 219.88,-392 327.38,-392 327.38,-412"/>
<text text-anchor="middle" x="273.62" y="-398.5" font-family="Helvetica,sans-Serif" font-size="10.00">FrightenedBehavior.h</text>
</a>
</g>
</g>
<!-- Node1&#45;&gt;Node23 -->
<g id="edge46_Node000001_Node000023" class="edge">
<title>Node1&#45;&gt;Node23</title>
<g id="a_edge46_Node000001_Node000023"><a xlink:title=" ">
<path fill="none" stroke="#63b8ff" d="M483.44,-448.5C441.69,-439.45 375.27,-425.04 328.36,-414.87"/>
<polygon fill="#63b8ff" stroke="#63b8ff" points="329.17,-411.47 318.66,-412.77 327.69,-418.31 329.17,-411.47"/>
</a>
</g>
</g>
<!-- Node3 -->
<g id="Node000003" class="node">
<title>Node3</title>
<g id="a_Node000003"><a xlink:href="MovingObject_8h.html" target="_top" xlink:title="Base class for all moving objects.">
<polygon fill="white" stroke="#666666" points="336.75,-300 252.5,-300 252.5,-280 336.75,-280 336.75,-300"/>
<text text-anchor="middle" x="294.62" y="-286.5" font-family="Helvetica,sans-Serif" font-size="10.00">MovingObject.h</text>
</a>
</g>
</g>
<!-- Node2&#45;&gt;Node3 -->
<g id="edge2_Node000002_Node000003" class="edge">
<title>Node2&#45;&gt;Node3</title>
<g id="a_edge2_Node000002_Node000003"><a xlink:title=" ">
<path fill="none" stroke="#63b8ff" d="M362.84,-391.55C355.55,-382.58 344.49,-368.64 335.62,-356 325.09,-340.98 314.04,-323.35 306.07,-310.24"/>
<polygon fill="#63b8ff" stroke="#63b8ff" points="309.12,-308.51 300.96,-301.74 303.12,-312.11 309.12,-308.51"/>
</a>
</g>
</g>
<!-- Node8 -->
<g id="Node000008" class="node">
<title>Node8</title>
<g id="a_Node000008"><a xlink:title=" ">
<polygon fill="#e0e0e0" stroke="#999999" points="119.25,-188 68,-188 68,-168 119.25,-168 119.25,-188"/>
<text text-anchor="middle" x="93.62" y="-174.5" font-family="Helvetica,sans-Serif" font-size="10.00">memory</text>
</a>
</g>
</g>
<!-- Node2&#45;&gt;Node8 -->
<g id="edge31_Node000002_Node000008" class="edge">
<title>Node2&#45;&gt;Node8</title>
<g id="a_edge31_Node000002_Node000008"><a xlink:title=" ">
<path fill="none" stroke="#63b8ff" d="M345.61,-391.61C295.89,-371.74 183.9,-320.9 119.62,-244 108.77,-231.02 102.04,-212.93 98.15,-199.13"/>
<polygon fill="#63b8ff" stroke="#63b8ff" points="101.64,-198.66 95.8,-189.81 94.85,-200.37 101.64,-198.66"/>
</a>
</g>
</g>
<!-- Node2&#45;&gt;Node10 -->
<g id="edge36_Node000002_Node000010" class="edge">
<title>Node2&#45;&gt;Node10</title>
<g id="a_edge36_Node000002_Node000010"><a xlink:title=" ">
<path fill="none" stroke="#63b8ff" d="M377.94,-391.75C385.08,-382.7 396.2,-368.48 405.62,-356 424.21,-331.38 429.71,-325.79 446.62,-300 456.48,-284.97 466.71,-267.33 474.07,-254.23"/>
<polygon fill="#63b8ff" stroke="#63b8ff" points="476.98,-256.2 478.77,-245.76 470.86,-252.81 476.98,-256.2"/>
</a>
</g>
</g>
<!-- Node16 -->
<g id="Node000016" class="node">
<title>Node16</title>
<g id="a_Node000016"><a xlink:href="EnemyBehavior_8h.html" target="_top" xlink:title="Base class for all enemy behaviors.">
<polygon fill="white" stroke="#666666" points="92.88,-356 0.38,-356 0.38,-336 92.88,-336 92.88,-356"/>
<text text-anchor="middle" x="46.62" y="-342.5" font-family="Helvetica,sans-Serif" font-size="10.00">EnemyBehavior.h</text>
</a>
</g>
</g>
<!-- Node2&#45;&gt;Node16 -->
<g id="edge26_Node000002_Node000016" class="edge">
<title>Node2&#45;&gt;Node16</title>
<g id="a_edge26_Node000002_Node000016"><a xlink:title=" ">
<path fill="none" stroke="#63b8ff" d="M345.07,-393.93C342.23,-393.23 339.37,-392.58 336.62,-392 325.36,-389.64 185.43,-368.18 104.15,-355.77"/>
<polygon fill="#63b8ff" stroke="#63b8ff" points="105,-352.36 94.58,-354.31 103.94,-359.28 105,-352.36"/>
</a>
</g>
</g>
<!-- Node17 -->
<g id="Node000017" class="node">
<title>Node17</title>
<g id="a_Node000017"><a xlink:href="Player_8h.html" target="_top" xlink:title="Represents a player.">
<polygon fill="white" stroke="#666666" points="396.25,-356 345,-356 345,-336 396.25,-336 396.25,-356"/>
<text text-anchor="middle" x="370.62" y="-342.5" font-family="Helvetica,sans-Serif" font-size="10.00">Player.h</text>
</a>
</g>
</g>
<!-- Node2&#45;&gt;Node17 -->
<g id="edge32_Node000002_Node000017" class="edge">
<title>Node2&#45;&gt;Node17</title>
<g id="a_edge32_Node000002_Node000017"><a xlink:title=" ">
<path fill="none" stroke="#63b8ff" d="M370.62,-391.59C370.62,-385.01 370.62,-375.96 370.62,-367.73"/>
<polygon fill="#63b8ff" stroke="#63b8ff" points="374.13,-367.81 370.63,-357.81 367.13,-367.81 374.13,-367.81"/>
</a>
</g>
</g>
<!-- Node4 -->
<g id="Node000004" class="node">
<title>Node4</title>
<g id="a_Node000004"><a xlink:href="GameObject_8h.html" target="_top" xlink:title="Base class for all game objects.">
<polygon fill="white" stroke="#666666" points="266.12,-244 187.12,-244 187.12,-224 266.12,-224 266.12,-244"/>
<text text-anchor="middle" x="226.62" y="-230.5" font-family="Helvetica,sans-Serif" font-size="10.00">GameObject.h</text>
</a>
</g>
</g>
<!-- Node3&#45;&gt;Node4 -->
<g id="edge3_Node000003_Node000004" class="edge">
<title>Node3&#45;&gt;Node4</title>
<g id="a_edge3_Node000003_Node000004"><a xlink:title=" ">
<path fill="none" stroke="#63b8ff" d="M282.78,-279.59C272.93,-271.77 258.69,-260.46 247.02,-251.19"/>
<polygon fill="#63b8ff" stroke="#63b8ff" points="249.53,-248.72 239.52,-245.24 245.17,-254.2 249.53,-248.72"/>
</a>
</g>
</g>
<!-- Node5 -->
<g id="Node000005" class="node">
<title>Node5</title>
<g id="a_Node000005"><a xlink:href="Enums_8h.html" target="_top" xlink:title=" ">
<polygon fill="white" stroke="#666666" points="243.12,-76 188.12,-76 188.12,-56 243.12,-56 243.12,-76"/>
<text text-anchor="middle" x="215.62" y="-62.5" font-family="Helvetica,sans-Serif" font-size="10.00">Enums.h</text>
</a>
</g>
</g>
<!-- Node3&#45;&gt;Node5 -->
<g id="edge9_Node000003_Node000005" class="edge">
<title>Node3&#45;&gt;Node5</title>
<g id="a_edge9_Node000003_Node000005"><a xlink:title=" ">
<path fill="none" stroke="#63b8ff" d="M252.07,-284.58C225.89,-279.41 194.26,-268.22 177.62,-244 143.6,-194.46 181.61,-120.17 203.02,-85.75"/>
<polygon fill="#63b8ff" stroke="#63b8ff" points="205.74,-87.99 208.22,-77.69 199.86,-84.2 205.74,-87.99"/>
</a>
</g>
</g>
<!-- Node7 -->
<g id="Node000007" class="node">
<title>Node7</title>
<g id="a_Node000007"><a xlink:href="GamePhase_8h.html" target="_top" xlink:title="Handles the game phase and level.">
<polygon fill="white" stroke="#666666" points="302.75,-188 224.5,-188 224.5,-168 302.75,-168 302.75,-188"/>
<text text-anchor="middle" x="263.62" y="-174.5" font-family="Helvetica,sans-Serif" font-size="10.00">GamePhase.h</text>
</a>
</g>
</g>
<!-- Node3&#45;&gt;Node7 -->
<g id="edge25_Node000003_Node000007" class="edge">
<title>Node3&#45;&gt;Node7</title>
<g id="a_edge25_Node000003_Node000007"><a xlink:title=" ">
<path fill="none" stroke="#63b8ff" d="M291.98,-279.62C286.99,-261.92 276.09,-223.24 269.35,-199.32"/>
<polygon fill="#63b8ff" stroke="#63b8ff" points="272.75,-198.49 266.67,-189.81 266.02,-200.39 272.75,-198.49"/>
</a>
</g>
</g>
<!-- Node3&#45;&gt;Node8 -->
<g id="edge10_Node000003_Node000008" class="edge">
<title>Node3&#45;&gt;Node8</title>
<g id="a_edge10_Node000003_Node000008"><a xlink:title=" ">
<path fill="none" stroke="#63b8ff" d="M252.19,-283.36C220.39,-277.54 176.97,-266.06 144.62,-244 127.27,-232.17 113.08,-212.6 104.11,-198.02"/>
<polygon fill="#63b8ff" stroke="#63b8ff" points="107.37,-196.65 99.3,-189.77 101.32,-200.17 107.37,-196.65"/>
</a>
</g>
</g>
<!-- Node9 -->
<g id="Node000009" class="node">
<title>Node9</title>
<g id="a_Node000009"><a xlink:title=" ">
<polygon fill="#e0e0e0" stroke="#999999" points="312.5,-132 262.75,-132 262.75,-112 312.5,-112 312.5,-132"/>
<text text-anchor="middle" x="287.62" y="-118.5" font-family="Helvetica,sans-Serif" font-size="10.00">optional</text>
</a>
</g>
</g>
<!-- Node3&#45;&gt;Node9 -->
<g id="edge11_Node000003_Node000009" class="edge">
<title>Node3&#45;&gt;Node9</title>
<g id="a_edge11_Node000003_Node000009"><a xlink:title=" ">
<path fill="none" stroke="#63b8ff" d="M298.3,-279.77C305.91,-259.35 321.86,-208.95 311.62,-168 309.38,-159.01 304.96,-149.85 300.51,-142.16"/>
<polygon fill="#63b8ff" stroke="#63b8ff" points="303.51,-140.35 295.25,-133.72 297.57,-144.06 303.51,-140.35"/>
</a>
</g>
</g>
<!-- Node3&#45;&gt;Node10 -->
<g id="edge12_Node000003_Node000010" class="edge">
<title>Node3&#45;&gt;Node10</title>
<g id="a_edge12_Node000003_Node000010"><a xlink:title=" ">
<path fill="none" stroke="#63b8ff" d="M327.72,-279.59C362.59,-269.68 417.16,-254.18 451.89,-244.3"/>
<polygon fill="#63b8ff" stroke="#63b8ff" points="452.73,-247.7 461.39,-241.6 450.82,-240.97 452.73,-247.7"/>
</a>
</g>
</g>
<!-- Node4&#45;&gt;Node5 -->
<g id="edge4_Node000004_Node000005" class="edge">
<title>Node4&#45;&gt;Node5</title>
<g id="a_edge4_Node000004_Node000005"><a xlink:title=" ">
<path fill="none" stroke="#63b8ff" d="M223.69,-223.81C220.98,-214.8 217.14,-200.62 215.62,-188 211.41,-153 212.72,-111.88 214.12,-87.71"/>
<polygon fill="#63b8ff" stroke="#63b8ff" points="217.6,-88.18 214.76,-77.97 210.62,-87.72 217.6,-88.18"/>
</a>
</g>
</g>
<!-- Node4&#45;&gt;Node7 -->
<g id="edge6_Node000004_Node000007" class="edge">
<title>Node4&#45;&gt;Node7</title>
<g id="a_edge6_Node000004_Node000007"><a xlink:title=" ">
<path fill="none" stroke="#63b8ff" d="M233.07,-223.59C237.95,-216.47 244.82,-206.45 250.8,-197.72"/>
<polygon fill="#63b8ff" stroke="#63b8ff" points="253.63,-199.77 256.4,-189.55 247.86,-195.82 253.63,-199.77"/>
</a>
</g>
</g>
<!-- Node4&#45;&gt;Node8 -->
<g id="edge8_Node000004_Node000008" class="edge">
<title>Node4&#45;&gt;Node8</title>
<g id="a_edge8_Node000004_Node000008"><a xlink:title=" ">
<path fill="none" stroke="#63b8ff" d="M203.46,-223.59C182.42,-215.05 151.13,-202.35 127.32,-192.68"/>
<polygon fill="#63b8ff" stroke="#63b8ff" points="128.96,-189.57 118.37,-189.05 126.32,-196.05 128.96,-189.57"/>
</a>
</g>
</g>
<!-- Node6 -->
<g id="Node000006" class="node">
<title>Node6</title>
<g id="a_Node000006"><a xlink:title=" ">
<polygon fill="#e0e0e0" stroke="#999999" points="235.25,-20 196,-20 196,0 235.25,0 235.25,-20"/>
<text text-anchor="middle" x="215.62" y="-6.5" font-family="Helvetica,sans-Serif" font-size="10.00">utility</text>
</a>
</g>
</g>
<!-- Node5&#45;&gt;Node6 -->
<g id="edge5_Node000005_Node000006" class="edge">
<title>Node5&#45;&gt;Node6</title>
<g id="a_edge5_Node000005_Node000006"><a xlink:title=" ">
<path fill="none" stroke="#63b8ff" d="M215.62,-55.59C215.62,-49.01 215.62,-39.96 215.62,-31.73"/>
<polygon fill="#63b8ff" stroke="#63b8ff" points="219.13,-31.81 215.63,-21.81 212.13,-31.81 219.13,-31.81"/>
</a>
</g>
</g>
<!-- Node7&#45;&gt;Node5 -->
<g id="edge7_Node000007_Node000005" class="edge">
<title>Node7&#45;&gt;Node5</title>
<g id="a_edge7_Node000007_Node000005"><a xlink:title=" ">
<path fill="none" stroke="#63b8ff" d="M259.53,-167.62C251.74,-149.76 234.62,-110.53 224.21,-86.67"/>
<polygon fill="#63b8ff" stroke="#63b8ff" points="227.52,-85.51 220.31,-77.74 221.1,-88.31 227.52,-85.51"/>
</a>
</g>
</g>
<!-- Node11 -->
<g id="Node000011" class="node">
<title>Node11</title>
<g id="a_Node000011"><a xlink:title=" ">
<polygon fill="#e0e0e0" stroke="#999999" points="540.62,-76 500.62,-76 500.62,-56 540.62,-56 540.62,-76"/>
<text text-anchor="middle" x="520.62" y="-62.5" font-family="Helvetica,sans-Serif" font-size="10.00">string</text>
</a>
</g>
</g>
<!-- Node10&#45;&gt;Node11 -->
<g id="edge13_Node000010_Node000011" class="edge">
<title>Node10&#45;&gt;Node11</title>
<g id="a_edge13_Node000010_Node000011"><a xlink:title=" ">
<path fill="none" stroke="#63b8ff" d="M500.25,-223.61C524.38,-208.08 569.78,-174.49 587.62,-132 591.07,-123.8 591.81,-119.84 587.62,-112 579.8,-97.32 564.82,-86.57 551.01,-79.28"/>
<polygon fill="#63b8ff" stroke="#63b8ff" points="552.7,-76.21 542.17,-75.01 549.66,-82.51 552.7,-76.21"/>
</a>
</g>
</g>
<!-- Node12 -->
<g id="Node000012" class="node">
<title>Node12</title>
<g id="a_Node000012"><a xlink:title=" ">
<polygon fill="#e0e0e0" stroke="#999999" points="666.12,-76 623.12,-76 623.12,-56 666.12,-56 666.12,-76"/>
<text text-anchor="middle" x="644.62" y="-62.5" font-family="Helvetica,sans-Serif" font-size="10.00">vector</text>
</a>
</g>
</g>
<!-- Node10&#45;&gt;Node12 -->
<g id="edge14_Node000010_Node000012" class="edge">
<title>Node10&#45;&gt;Node12</title>
<g id="a_edge14_Node000010_Node000012"><a xlink:title=" ">
<path fill="none" stroke="#63b8ff" d="M506.53,-224.35C524.46,-216.58 549.83,-203.95 568.62,-188 601.92,-159.74 625.36,-113.13 636.76,-86.77"/>
<polygon fill="#63b8ff" stroke="#63b8ff" points="639.95,-88.2 640.56,-77.62 633.49,-85.51 639.95,-88.2"/>
</a>
</g>
</g>
<!-- Node13 -->
<g id="Node000013" class="node">
<title>Node13</title>
<g id="a_Node000013"><a xlink:href="Window_8h.html" target="_top" xlink:title="Class for handling ncurses windows.">
<polygon fill="white" stroke="#666666" points="513.62,-188 455.62,-188 455.62,-168 513.62,-168 513.62,-188"/>
<text text-anchor="middle" x="484.62" y="-174.5" font-family="Helvetica,sans-Serif" font-size="10.00">Window.h</text>
</a>
</g>
</g>
<!-- Node10&#45;&gt;Node13 -->
<g id="edge15_Node000010_Node000013" class="edge">
<title>Node10&#45;&gt;Node13</title>
<g id="a_edge15_Node000010_Node000013"><a xlink:title=" ">
<path fill="none" stroke="#63b8ff" d="M484.62,-223.59C484.62,-217.01 484.62,-207.96 484.62,-199.73"/>
<polygon fill="#63b8ff" stroke="#63b8ff" points="488.13,-199.81 484.63,-189.81 481.13,-199.81 488.13,-199.81"/>
</a>
</g>
</g>
<!-- Node13&#45;&gt;Node5 -->
<g id="edge20_Node000013_Node000005" class="edge">
<title>Node13&#45;&gt;Node5</title>
<g id="a_edge20_Node000013_Node000005"><a xlink:title=" ">
<path fill="none" stroke="#63b8ff" d="M461.69,-167.62C414.04,-148.14 304.19,-103.22 248.82,-80.57"/>
<polygon fill="#63b8ff" stroke="#63b8ff" points="250.48,-77.47 239.9,-76.93 247.83,-83.95 250.48,-77.47"/>
</a>
</g>
</g>
<!-- Node13&#45;&gt;Node9 -->
<g id="edge18_Node000013_Node000009" class="edge">
<title>Node13&#45;&gt;Node9</title>
<g id="a_edge18_Node000013_Node000009"><a xlink:title=" ">
<path fill="none" stroke="#63b8ff" d="M455.13,-168.92C420.11,-159.32 361.71,-143.31 323.94,-132.95"/>
<polygon fill="#63b8ff" stroke="#63b8ff" points="324.96,-129.61 314.39,-130.34 323.11,-136.36 324.96,-129.61"/>
</a>
</g>
</g>
<!-- Node13&#45;&gt;Node11 -->
<g id="edge17_Node000013_Node000011" class="edge">
<title>Node13&#45;&gt;Node11</title>
<g id="a_edge17_Node000013_Node000011"><a xlink:title=" ">
<path fill="none" stroke="#63b8ff" d="M487.69,-167.62C493.51,-149.84 506.26,-110.88 514.08,-87"/>
<polygon fill="#63b8ff" stroke="#63b8ff" points="517.31,-88.39 517.09,-77.79 510.66,-86.21 517.31,-88.39"/>
</a>
</g>
</g>
<!-- Node13&#45;&gt;Node12 -->
<g id="edge19_Node000013_Node000012" class="edge">
<title>Node13&#45;&gt;Node12</title>
<g id="a_edge19_Node000013_Node000012"><a xlink:title=" ">
<path fill="none" stroke="#63b8ff" d="M513.95,-168.06C535.6,-160.58 565.1,-148.47 587.62,-132 605.37,-119.03 621.47,-99.62 631.99,-85.39"/>
<polygon fill="#63b8ff" stroke="#63b8ff" points="634.78,-87.52 637.74,-77.34 629.08,-83.45 634.78,-87.52"/>
</a>
</g>
</g>
<!-- Node14 -->
<g id="Node000014" class="node">
<title>Node14</title>
<g id="a_Node000014"><a xlink:title=" ">
<polygon fill="#e0e0e0" stroke="#999999" points="465,-132 406.25,-132 406.25,-112 465,-112 465,-132"/>
<text text-anchor="middle" x="435.62" y="-118.5" font-family="Helvetica,sans-Serif" font-size="10.00">ncurses.h</text>
</a>
</g>
</g>
<!-- Node13&#45;&gt;Node14 -->
<g id="edge16_Node000013_Node000014" class="edge">
<title>Node13&#45;&gt;Node14</title>
<g id="a_edge16_Node000013_Node000014"><a xlink:title=" ">
<path fill="none" stroke="#63b8ff" d="M476.09,-167.59C469.34,-160.16 459.74,-149.58 451.58,-140.58"/>
<polygon fill="#63b8ff" stroke="#63b8ff" points="454.39,-138.47 445.08,-133.42 449.21,-143.18 454.39,-138.47"/>
</a>
</g>
</g>
<!-- Node13&#45;&gt;Node15 -->
<g id="edge21_Node000013_Node000015" class="edge">
<title>Node13&#45;&gt;Node15</title>
<g id="a_edge21_Node000013_Node000015"><a xlink:title=" ">
<path fill="none" stroke="#63b8ff" d="M495.95,-167.59C505.27,-159.85 518.7,-148.69 529.8,-139.47"/>
<polygon fill="#63b8ff" stroke="#63b8ff" points="531.81,-142.35 537.27,-133.27 527.34,-136.96 531.81,-142.35"/>
</a>
</g>
</g>
<!-- Node15&#45;&gt;Node5 -->
<g id="edge22_Node000015_Node000005" class="edge">
<title>Node15&#45;&gt;Node5</title>
<g id="a_edge22_Node000015_Node000005"><a xlink:title=" ">
<path fill="none" stroke="#63b8ff" d="M520.28,-116.26C459.94,-106.5 321.95,-84.19 254.37,-73.26"/>
<polygon fill="#63b8ff" stroke="#63b8ff" points="255.3,-69.87 244.87,-71.73 254.18,-76.78 255.3,-69.87"/>
</a>
</g>
</g>
<!-- Node15&#45;&gt;Node11 -->
<g id="edge23_Node000015_Node000011" class="edge">
<title>Node15&#45;&gt;Node11</title>
<g id="a_edge23_Node000015_Node000011"><a xlink:title=" ">
<path fill="none" stroke="#63b8ff" d="M544.57,-111.59C540.83,-104.63 535.6,-94.89 530.98,-86.29"/>
<polygon fill="#63b8ff" stroke="#63b8ff" points="534.15,-84.79 526.33,-77.63 527.98,-88.1 534.15,-84.79"/>
</a>
</g>
</g>
<!-- Node15&#45;&gt;Node12 -->
<g id="edge24_Node000015_Node000012" class="edge">
<title>Node15&#45;&gt;Node12</title>
<g id="a_edge24_Node000015_Node000012"><a xlink:title=" ">
<path fill="none" stroke="#63b8ff" d="M566.17,-111.59C580.52,-103.44 601.55,-91.48 618.23,-82"/>
<polygon fill="#63b8ff" stroke="#63b8ff" points="619.67,-85.21 626.63,-77.23 616.21,-79.13 619.67,-85.21"/>
</a>
</g>
</g>
<!-- Node16&#45;&gt;Node3 -->
<g id="edge30_Node000016_Node000003" class="edge">
<title>Node16&#45;&gt;Node3</title>
<g id="a_edge30_Node000016_Node000003"><a xlink:title=" ">
<path fill="none" stroke="#63b8ff" d="M90.11,-335.53C132.11,-326.39 195.83,-312.51 240.97,-302.68"/>
<polygon fill="#63b8ff" stroke="#63b8ff" points="241.52,-306.15 250.54,-300.6 240.03,-299.31 241.52,-306.15"/>
</a>
</g>
</g>
<!-- Node16&#45;&gt;Node5 -->
<g id="edge28_Node000016_Node000005" class="edge">
<title>Node16&#45;&gt;Node5</title>
<g id="a_edge28_Node000016_Node000005"><a xlink:title=" ">
<path fill="none" stroke="#63b8ff" d="M40.72,-335.71C29.6,-317.27 6.62,-274.42 6.62,-235 6.62,-235 6.62,-235 6.62,-177 6.62,-101.08 115.96,-77.44 176.47,-70.17"/>
<polygon fill="#63b8ff" stroke="#63b8ff" points="176.81,-73.65 186.37,-69.09 176.05,-66.69 176.81,-73.65"/>
</a>
</g>
</g>
<!-- Node16&#45;&gt;Node8 -->
<g id="edge29_Node000016_Node000008" class="edge">
<title>Node16&#45;&gt;Node8</title>
<g id="a_edge29_Node000016_Node000008"><a xlink:title=" ">
<path fill="none" stroke="#63b8ff" d="M47.28,-335.63C48.96,-314.93 54.32,-264.01 68.62,-224 71.85,-214.97 76.76,-205.61 81.38,-197.78"/>
<polygon fill="#63b8ff" stroke="#63b8ff" points="84.21,-199.85 86.51,-189.51 78.27,-196.16 84.21,-199.85"/>
</a>
</g>
</g>
<!-- Node16&#45;&gt;Node10 -->
<g id="edge27_Node000016_Node000010" class="edge">
<title>Node16&#45;&gt;Node10</title>
<g id="a_edge27_Node000016_Node000010"><a xlink:title=" ">
<path fill="none" stroke="#63b8ff" d="M93.12,-342.16C152.71,-337.58 258.69,-326.26 345.62,-300 386.82,-287.55 431.38,-264.93 458.65,-249.93"/>
<polygon fill="#63b8ff" stroke="#63b8ff" points="460.2,-253.07 467.23,-245.14 456.79,-246.96 460.2,-253.07"/>
</a>
</g>
</g>
<!-- Node17&#45;&gt;Node3 -->
<g id="edge33_Node000017_Node000003" class="edge">
<title>Node17&#45;&gt;Node3</title>
<g id="a_edge33_Node000017_Node000003"><a xlink:title=" ">
<path fill="none" stroke="#63b8ff" d="M357.39,-335.59C346.34,-327.74 330.34,-316.38 317.27,-307.09"/>
<polygon fill="#63b8ff" stroke="#63b8ff" points="319.38,-304.3 309.2,-301.36 315.32,-310 319.38,-304.3"/>
</a>
</g>
</g>
<!-- Node17&#45;&gt;Node10 -->
<g id="edge34_Node000017_Node000010" class="edge">
<title>Node17&#45;&gt;Node10</title>
<g id="a_edge34_Node000017_Node000010"><a xlink:title=" ">
<path fill="none" stroke="#63b8ff" d="M382.06,-335.65C392.78,-326.75 409.14,-312.85 422.62,-300 438.95,-284.44 456.62,-265.72 468.9,-252.37"/>
<polygon fill="#63b8ff" stroke="#63b8ff" points="471.28,-254.95 475.44,-245.21 466.11,-250.23 471.28,-254.95"/>
</a>
</g>
</g>
<!-- Node17&#45;&gt;Node11 -->
<g id="edge35_Node000017_Node000011" class="edge">
<title>Node17&#45;&gt;Node11</title>
<g id="a_edge35_Node000017_Node000011"><a xlink:title=" ">
<path fill="none" stroke="#63b8ff" d="M368.6,-335.73C361.73,-301.66 342.66,-181.71 397.62,-112 419.55,-84.19 460.33,-73.56 488.9,-69.5"/>
<polygon fill="#63b8ff" stroke="#63b8ff" points="489.29,-72.98 498.8,-68.32 488.46,-66.03 489.29,-72.98"/>
</a>
</g>
</g>
<!-- Node21&#45;&gt;Node16 -->
<g id="edge43_Node000021_Node000016" class="edge">
<title>Node21&#45;&gt;Node16</title>
<g id="a_edge43_Node000021_Node000016"><a xlink:title=" ">
<path fill="none" stroke="#63b8ff" d="M46.62,-391.59C46.62,-385.01 46.62,-375.96 46.62,-367.73"/>
<polygon fill="#63b8ff" stroke="#63b8ff" points="50.13,-367.81 46.63,-357.81 43.13,-367.81 50.13,-367.81"/>
</a>
</g>
</g>
<!-- Node22&#45;&gt;Node16 -->
<g id="edge45_Node000022_Node000016" class="edge">
<title>Node22&#45;&gt;Node16</title>
<g id="a_edge45_Node000022_Node000016"><a xlink:title=" ">
<path fill="none" stroke="#63b8ff" d="M137.46,-391.59C120.53,-383.28 95.58,-371.03 76.1,-361.47"/>
<polygon fill="#63b8ff" stroke="#63b8ff" points="77.81,-358.41 67.29,-357.15 74.73,-364.7 77.81,-358.41"/>
</a>
</g>
</g>
<!-- Node23&#45;&gt;Node16 -->
<g id="edge47_Node000023_Node000016" class="edge">
<title>Node23&#45;&gt;Node16</title>
<g id="a_edge47_Node000023_Node000016"><a xlink:title=" ">
<path fill="none" stroke="#63b8ff" d="M233.82,-391.53C195.94,-382.52 138.74,-368.91 97.54,-359.11"/>
<polygon fill="#63b8ff" stroke="#63b8ff" points="98.39,-355.72 87.85,-356.81 96.77,-362.53 98.39,-355.72"/>
</a>
</g>
</g>
</g>
</svg>
