<?xml version="1.0" encoding="UTF-8" standalone="no"?>
<!DOCTYPE svg PUBLIC "-//W3C//DTD SVG 1.1//EN"
 "http://www.w3.org/Graphics/SVG/1.1/DTD/svg11.dtd">
<!-- Generated by graphviz version 10.0.1 (0)
 -->
<!-- Title: src/Helpers.h Pages: 1 -->
<svg width="1464pt" height="476pt"
 viewBox="0.00 0.00 1463.50 476.00" xmlns="http://www.w3.org/2000/svg" xmlns:xlink="http://www.w3.org/1999/xlink">
<g id="graph0" class="graph" transform="scale(1 1) rotate(0) translate(4 472)">
<title>src/Helpers.h</title>
<!-- Node1 -->
<g id="Node000001" class="node">
<title>Node1</title>
<g id="a_Node000001"><a xlink:title=" ">
<polygon fill="#999999" stroke="#666666" points="1272.25,-468 1197.75,-468 1197.75,-448 1272.25,-448 1272.25,-468"/>
<text text-anchor="middle" x="1235" y="-454.5" font-family="Helvetica,sans-Serif" font-size="10.00">src/Helpers.h</text>
</a>
</g>
</g>
<!-- Node2 -->
<g id="Node000002" class="node">
<title>Node2</title>
<g id="a_Node000002"><a xlink:href="Game_8cpp.html" target="_top" xlink:title="Class for handling the game logic.">
<polygon fill="white" stroke="#666666" points="807.75,-76 730.25,-76 730.25,-56 807.75,-56 807.75,-76"/>
<text text-anchor="middle" x="769" y="-62.5" font-family="Helvetica,sans-Serif" font-size="10.00">src/Game.cpp</text>
</a>
</g>
</g>
<!-- Node1&#45;&gt;Node2 -->
<g id="edge1_Node000001_Node000002" class="edge">
<title>Node1&#45;&gt;Node2</title>
<g id="a_edge1_Node000001_Node000002"><a xlink:title=" ">
<path fill="none" stroke="#63b8ff" d="M1185.85,-457.36C1047.21,-457.8 641.46,-455 308,-412 169.24,-394.11 0,-486.9 0,-347 0,-347 0,-347 0,-177 0,-134.22 31.58,-128.61 71,-112 201.86,-56.85 567.74,-90.55 709,-76 715.81,-75.3 723.03,-74.37 730.01,-73.38"/>
<polygon fill="#63b8ff" stroke="#63b8ff" points="1185.78,-460.86 1195.77,-457.32 1185.75,-453.86 1185.78,-460.86"/>
</a>
</g>
</g>
<!-- Node3 -->
<g id="Node000003" class="node">
<title>Node3</title>
<g id="a_Node000003"><a xlink:href="Ghost_8cpp.html" target="_top" xlink:title="Represents a ghost enemy.">
<polygon fill="white" stroke="#666666" points="319.75,-132 242.25,-132 242.25,-112 319.75,-112 319.75,-132"/>
<text text-anchor="middle" x="281" y="-118.5" font-family="Helvetica,sans-Serif" font-size="10.00">src/Ghost.cpp</text>
</a>
</g>
</g>
<!-- Node1&#45;&gt;Node3 -->
<g id="edge2_Node000001_Node000003" class="edge">
<title>Node1&#45;&gt;Node3</title>
<g id="a_edge2_Node000001_Node000003"><a xlink:title=" ">
<path fill="none" stroke="#63b8ff" d="M1186.04,-456.77C986.22,-455.22 243,-442.99 243,-347 243,-347 243,-347 243,-233 243,-193.8 264.82,-150.84 275.39,-132.33"/>
<polygon fill="#63b8ff" stroke="#63b8ff" points="1185.79,-460.27 1195.81,-456.84 1185.84,-453.27 1185.79,-460.27"/>
</a>
</g>
</g>
<!-- Node4 -->
<g id="Node000004" class="node">
<title>Node4</title>
<g id="a_Node000004"><a xlink:href="Helpers_8cpp.html" target="_top" xlink:title=" ">
<polygon fill="white" stroke="#666666" points="1455.5,-412 1370.5,-412 1370.5,-392 1455.5,-392 1455.5,-412"/>
<text text-anchor="middle" x="1413" y="-398.5" font-family="Helvetica,sans-Serif" font-size="10.00">src/Helpers.cpp</text>
</a>
</g>
</g>
<!-- Node1&#45;&gt;Node4 -->
<g id="edge3_Node000001_Node000004" class="edge">
<title>Node1&#45;&gt;Node4</title>
<g id="a_edge3_Node000001_Node000004"><a xlink:title=" ">
<path fill="none" stroke="#63b8ff" d="M1276.85,-444.31C1308.97,-434.56 1352.63,-421.32 1381.75,-412.48"/>
<polygon fill="#63b8ff" stroke="#63b8ff" points="1276.01,-440.9 1267.45,-447.15 1278.04,-447.6 1276.01,-440.9"/>
</a>
</g>
</g>
<!-- Node5 -->
<g id="Node000005" class="node">
<title>Node5</title>
<g id="a_Node000005"><a xlink:href="Player_8cpp.html" target="_top" xlink:title="Represents a player.">
<polygon fill="white" stroke="#666666" points="1078.12,-188 999.88,-188 999.88,-168 1078.12,-168 1078.12,-188"/>
<text text-anchor="middle" x="1039" y="-174.5" font-family="Helvetica,sans-Serif" font-size="10.00">src/Player.cpp</text>
</a>
</g>
</g>
<!-- Node1&#45;&gt;Node5 -->
<g id="edge4_Node000001_Node000005" class="edge">
<title>Node1&#45;&gt;Node5</title>
<g id="a_edge4_Node000001_Node000005"><a xlink:title=" ">
<path fill="none" stroke="#63b8ff" d="M1260.34,-441.73C1294.01,-419.39 1346.66,-376.12 1323,-336 1269.55,-245.38 1142.95,-203.42 1078.37,-187.36"/>
<polygon fill="#63b8ff" stroke="#63b8ff" points="1258.81,-438.54 1252.28,-446.89 1262.59,-444.44 1258.81,-438.54"/>
</a>
</g>
</g>
<!-- Node6 -->
<g id="Node000006" class="node">
<title>Node6</title>
<g id="a_Node000006"><a xlink:href="Window_8cpp.html" target="_top" xlink:title="Class for handling ncurses windows.">
<polygon fill="white" stroke="#666666" points="1313.5,-356 1228.5,-356 1228.5,-336 1313.5,-336 1313.5,-356"/>
<text text-anchor="middle" x="1271" y="-342.5" font-family="Helvetica,sans-Serif" font-size="10.00">src/Window.cpp</text>
</a>
</g>
</g>
<!-- Node1&#45;&gt;Node6 -->
<g id="edge5_Node000001_Node000006" class="edge">
<title>Node1&#45;&gt;Node6</title>
<g id="a_edge5_Node000001_Node000006"><a xlink:title=" ">
<path fill="none" stroke="#63b8ff" d="M1241.55,-436.97C1249.38,-413.07 1262.13,-374.11 1267.94,-356.35"/>
<polygon fill="#63b8ff" stroke="#63b8ff" points="1238.32,-435.59 1238.54,-446.18 1244.98,-437.77 1238.32,-435.59"/>
</a>
</g>
</g>
<!-- Node7 -->
<g id="Node000007" class="node">
<title>Node7</title>
<g id="a_Node000007"><a xlink:href="Window_8h.html" target="_top" xlink:title="Class for handling ncurses windows.">
<polygon fill="white" stroke="#666666" points="1237.25,-412 1162.75,-412 1162.75,-392 1237.25,-392 1237.25,-412"/>
<text text-anchor="middle" x="1200" y="-398.5" font-family="Helvetica,sans-Serif" font-size="10.00">src/Window.h</text>
</a>
</g>
</g>
<!-- Node1&#45;&gt;Node7 -->
<g id="edge6_Node000001_Node000007" class="edge">
<title>Node1&#45;&gt;Node7</title>
<g id="a_edge6_Node000001_Node000007"><a xlink:title=" ">
<path fill="none" stroke="#63b8ff" d="M1222.78,-438.15C1217.11,-429.4 1210.62,-419.39 1206.03,-412.3"/>
<polygon fill="#63b8ff" stroke="#63b8ff" points="1219.7,-439.84 1228.08,-446.32 1225.58,-436.03 1219.7,-439.84"/>
</a>
</g>
</g>
<!-- Node7&#45;&gt;Node6 -->
<g id="edge60_Node000007_Node000006" class="edge">
<title>Node7&#45;&gt;Node6</title>
<g id="a_edge60_Node000007_Node000006"><a xlink:title=" ">
<path fill="none" stroke="#63b8ff" d="M1221.46,-384.68C1233.67,-375.39 1248.53,-364.09 1258.77,-356.3"/>
<polygon fill="#63b8ff" stroke="#63b8ff" points="1219.41,-381.84 1213.57,-390.68 1223.65,-387.41 1219.41,-381.84"/>
</a>
</g>
</g>
<!-- Node8 -->
<g id="Node000008" class="node">
<title>Node8</title>
<g id="a_Node000008"><a xlink:href="Game_8h.html" target="_top" xlink:title="Class for handling the game logic.">
<polygon fill="white" stroke="#666666" points="1171.5,-132 1104.5,-132 1104.5,-112 1171.5,-112 1171.5,-132"/>
<text text-anchor="middle" x="1138" y="-118.5" font-family="Helvetica,sans-Serif" font-size="10.00">src/Game.h</text>
</a>
</g>
</g>
<!-- Node7&#45;&gt;Node8 -->
<g id="edge7_Node000007_Node000008" class="edge">
<title>Node7&#45;&gt;Node8</title>
<g id="a_edge7_Node000007_Node000008"><a xlink:title=" ">
<path fill="none" stroke="#63b8ff" d="M1188.9,-381.6C1177.68,-360.15 1162,-324.23 1162,-291 1162,-291 1162,-291 1162,-233 1162,-194.88 1148.07,-151.01 1141.44,-132.27"/>
<polygon fill="#63b8ff" stroke="#63b8ff" points="1185.8,-383.24 1193.67,-390.34 1191.94,-379.88 1185.8,-383.24"/>
</a>
</g>
</g>
<!-- Node9 -->
<g id="Node000009" class="node">
<title>Node9</title>
<g id="a_Node000009"><a xlink:href="GameManager_8h.html" target="_top" xlink:title="Handles the game loop and game states.">
<polygon fill="white" stroke="#666666" points="1237.88,-76 1134.12,-76 1134.12,-56 1237.88,-56 1237.88,-76"/>
<text text-anchor="middle" x="1186" y="-62.5" font-family="Helvetica,sans-Serif" font-size="10.00">src/GameManager.h</text>
</a>
</g>
</g>
<!-- Node7&#45;&gt;Node9 -->
<g id="edge12_Node000007_Node000009" class="edge">
<title>Node7&#45;&gt;Node9</title>
<g id="a_edge12_Node000007_Node000009"><a xlink:title=" ">
<path fill="none" stroke="#63b8ff" d="M1200,-380.32C1200,-358.22 1200,-322.13 1200,-291 1200,-291 1200,-291 1200,-177 1200,-139.46 1191.88,-95.29 1188.01,-76.37"/>
<polygon fill="#63b8ff" stroke="#63b8ff" points="1196.5,-380.07 1200,-390.07 1203.5,-380.07 1196.5,-380.07"/>
</a>
</g>
</g>
<!-- Node12 -->
<g id="Node000012" class="node">
<title>Node12</title>
<g id="a_Node000012"><a xlink:href="Map_8h.html" target="_top" xlink:title="Class for handling the game map.">
<polygon fill="white" stroke="#666666" points="808.75,-356 749.25,-356 749.25,-336 808.75,-336 808.75,-356"/>
<text text-anchor="middle" x="779" y="-342.5" font-family="Helvetica,sans-Serif" font-size="10.00">src/Map.h</text>
</a>
</g>
</g>
<!-- Node7&#45;&gt;Node12 -->
<g id="edge13_Node000007_Node000012" class="edge">
<title>Node7&#45;&gt;Node12</title>
<g id="a_edge13_Node000007_Node000012"><a xlink:title=" ">
<path fill="none" stroke="#63b8ff" d="M1151.01,-394.72C1063.03,-383.43 880.78,-360.06 808.99,-350.85"/>
<polygon fill="#63b8ff" stroke="#63b8ff" points="1150.4,-398.17 1160.77,-395.97 1151.29,-391.22 1150.4,-398.17"/>
</a>
</g>
</g>
<!-- Node8&#45;&gt;Node2 -->
<g id="edge8_Node000008_Node000002" class="edge">
<title>Node8&#45;&gt;Node2</title>
<g id="a_edge8_Node000008_Node000002"><a xlink:title=" ">
<path fill="none" stroke="#63b8ff" d="M1092.96,-111.57C976.56,-91.54 944.55,-92.2 830,-76 822.9,-75 815.34,-73.9 808.04,-72.83"/>
<polygon fill="#63b8ff" stroke="#63b8ff" points="1092.17,-114.98 1102.63,-113.25 1093.37,-108.09 1092.17,-114.98"/>
</a>
</g>
</g>
<!-- Node8&#45;&gt;Node9 -->
<g id="edge9_Node000008_Node000009" class="edge">
<title>Node8&#45;&gt;Node9</title>
<g id="a_edge9_Node000008_Node000009"><a xlink:title=" ">
<path fill="none" stroke="#63b8ff" d="M1154,-103C1161.95,-94.06 1171.22,-83.62 1177.73,-76.3"/>
<polygon fill="#63b8ff" stroke="#63b8ff" points="1151.39,-100.66 1147.37,-110.46 1156.63,-105.31 1151.39,-100.66"/>
</a>
</g>
</g>
<!-- Node10 -->
<g id="Node000010" class="node">
<title>Node10</title>
<g id="a_Node000010"><a xlink:href="GameManager_8cpp.html" target="_top" xlink:title="Handles the game loop and game states.">
<polygon fill="white" stroke="#666666" points="1187.12,-20 1072.88,-20 1072.88,0 1187.12,0 1187.12,-20"/>
<text text-anchor="middle" x="1130" y="-6.5" font-family="Helvetica,sans-Serif" font-size="10.00">src/GameManager.cpp</text>
</a>
</g>
</g>
<!-- Node9&#45;&gt;Node10 -->
<g id="edge10_Node000009_Node000010" class="edge">
<title>Node9&#45;&gt;Node10</title>
<g id="a_edge10_Node000009_Node000010"><a xlink:title=" ">
<path fill="none" stroke="#63b8ff" d="M1168.21,-47.85C1158.75,-38.72 1147.48,-27.86 1139.64,-20.3"/>
<polygon fill="#63b8ff" stroke="#63b8ff" points="1165.53,-50.12 1175.16,-54.54 1170.39,-45.08 1165.53,-50.12"/>
</a>
</g>
</g>
<!-- Node11 -->
<g id="Node000011" class="node">
<title>Node11</title>
<g id="a_Node000011"><a xlink:href="main_8cpp.html" target="_top" xlink:title="Main function, initializes the game manager.">
<polygon fill="white" stroke="#666666" points="1277.12,-20 1204.88,-20 1204.88,0 1277.12,0 1277.12,-20"/>
<text text-anchor="middle" x="1241" y="-6.5" font-family="Helvetica,sans-Serif" font-size="10.00">src/main.cpp</text>
</a>
</g>
</g>
<!-- Node9&#45;&gt;Node11 -->
<g id="edge11_Node000009_Node000011" class="edge">
<title>Node9&#45;&gt;Node11</title>
<g id="a_edge11_Node000009_Node000011"><a xlink:title=" ">
<path fill="none" stroke="#63b8ff" d="M1203.76,-47.57C1212.99,-38.5 1223.91,-27.78 1231.53,-20.3"/>
<polygon fill="#63b8ff" stroke="#63b8ff" points="1201.34,-45.03 1196.66,-54.53 1206.25,-50.03 1201.34,-45.03"/>
</a>
</g>
</g>
<!-- Node12&#45;&gt;Node3 -->
<g id="edge32_Node000012_Node000003" class="edge">
<title>Node12&#45;&gt;Node3</title>
<g id="a_edge32_Node000012_Node000003"><a xlink:title=" ">
<path fill="none" stroke="#63b8ff" d="M737.88,-338.63C694.73,-331.41 625.22,-318.21 567,-300 444.18,-261.58 385.72,-283.98 300,-188 285.75,-172.04 282.16,-145.92 281.27,-132.15"/>
<polygon fill="#63b8ff" stroke="#63b8ff" points="737.12,-342.06 747.56,-340.22 738.26,-335.15 737.12,-342.06"/>
</a>
</g>
</g>
<!-- Node12&#45;&gt;Node8 -->
<g id="edge31_Node000012_Node000008" class="edge">
<title>Node12&#45;&gt;Node8</title>
<g id="a_edge31_Node000012_Node000008"><a xlink:title=" ">
<path fill="none" stroke="#63b8ff" d="M820.14,-340.58C858.41,-335.17 916.1,-323.63 961,-300 1043.3,-256.68 1111.69,-162.1 1131.92,-132.23"/>
<polygon fill="#63b8ff" stroke="#63b8ff" points="819.88,-337.08 810.43,-341.87 820.8,-344.02 819.88,-337.08"/>
</a>
</g>
</g>
<!-- Node13 -->
<g id="Node000013" class="node">
<title>Node13</title>
<g id="a_Node000013"><a xlink:href="Config_8cpp.html" target="_top" xlink:title="Class for handling the game configuration.">
<polygon fill="white" stroke="#666666" points="725.88,-300 646.12,-300 646.12,-280 725.88,-280 725.88,-300"/>
<text text-anchor="middle" x="686" y="-286.5" font-family="Helvetica,sans-Serif" font-size="10.00">src/Config.cpp</text>
</a>
</g>
</g>
<!-- Node12&#45;&gt;Node13 -->
<g id="edge14_Node000012_Node000013" class="edge">
<title>Node12&#45;&gt;Node13</title>
<g id="a_edge14_Node000012_Node000013"><a xlink:title=" ">
<path fill="none" stroke="#63b8ff" d="M753.3,-330.08C737.01,-320.62 716.41,-308.66 702.33,-300.48"/>
<polygon fill="#63b8ff" stroke="#63b8ff" points="751.09,-332.84 761.49,-334.83 754.6,-326.79 751.09,-332.84"/>
</a>
</g>
</g>
<!-- Node14 -->
<g id="Node000014" class="node">
<title>Node14</title>
<g id="a_Node000014"><a xlink:href="EnemyBehavior_8h.html" target="_top" xlink:title="Base class for all enemy behaviors.">
<polygon fill="white" stroke="#666666" points="571.5,-244 462.5,-244 462.5,-224 571.5,-224 571.5,-244"/>
<text text-anchor="middle" x="517" y="-230.5" font-family="Helvetica,sans-Serif" font-size="10.00">src/EnemyBehavior.h</text>
</a>
</g>
</g>
<!-- Node12&#45;&gt;Node14 -->
<g id="edge15_Node000012_Node000014" class="edge">
<title>Node12&#45;&gt;Node14</title>
<g id="a_edge15_Node000012_Node000014"><a xlink:title=" ">
<path fill="none" stroke="#63b8ff" d="M737.79,-339.07C701.3,-332.75 647.27,-320.73 604,-300 573.05,-285.18 542.14,-258.58 526.85,-244.44"/>
<polygon fill="#63b8ff" stroke="#63b8ff" points="737.06,-342.5 747.49,-340.68 738.2,-335.59 737.06,-342.5"/>
</a>
</g>
</g>
<!-- Node20 -->
<g id="Node000020" class="node">
<title>Node20</title>
<g id="a_Node000020"><a xlink:href="Ghost_8h.html" target="_top" xlink:title="Represents a ghost enemy.">
<polygon fill="white" stroke="#666666" points="780.5,-188 713.5,-188 713.5,-168 780.5,-168 780.5,-188"/>
<text text-anchor="middle" x="747" y="-174.5" font-family="Helvetica,sans-Serif" font-size="10.00">src/Ghost.h</text>
</a>
</g>
</g>
<!-- Node12&#45;&gt;Node20 -->
<g id="edge33_Node000012_Node000020" class="edge">
<title>Node12&#45;&gt;Node20</title>
<g id="a_edge33_Node000012_Node000020"><a xlink:title=" ">
<path fill="none" stroke="#63b8ff" d="M737.8,-344.33C704.63,-341.35 659.89,-331.27 637,-300 604.13,-255.1 686.07,-208.03 726.29,-188.43"/>
<polygon fill="#63b8ff" stroke="#63b8ff" points="737.27,-347.8 747.49,-345.01 737.75,-340.82 737.27,-347.8"/>
</a>
</g>
</g>
<!-- Node23 -->
<g id="Node000023" class="node">
<title>Node23</title>
<g id="a_Node000023"><a xlink:href="Map_8cpp.html" target="_top" xlink:title="Class for handling the game map.">
<polygon fill="white" stroke="#666666" points="814,-300 744,-300 744,-280 814,-280 814,-300"/>
<text text-anchor="middle" x="779" y="-286.5" font-family="Helvetica,sans-Serif" font-size="10.00">src/Map.cpp</text>
</a>
</g>
</g>
<!-- Node12&#45;&gt;Node23 -->
<g id="edge34_Node000012_Node000023" class="edge">
<title>Node12&#45;&gt;Node23</title>
<g id="a_edge34_Node000012_Node000023"><a xlink:title=" ">
<path fill="none" stroke="#63b8ff" d="M779,-324.13C779,-315.9 779,-306.85 779,-300.3"/>
<polygon fill="#63b8ff" stroke="#63b8ff" points="775.5,-324.08 779,-334.08 782.5,-324.08 775.5,-324.08"/>
</a>
</g>
</g>
<!-- Node24 -->
<g id="Node000024" class="node">
<title>Node24</title>
<g id="a_Node000024"><a xlink:href="MovingObject_8h.html" target="_top" xlink:title="Base class for all moving objects.">
<polygon fill="white" stroke="#666666" points="932.38,-300 831.62,-300 831.62,-280 932.38,-280 932.38,-300"/>
<text text-anchor="middle" x="882" y="-286.5" font-family="Helvetica,sans-Serif" font-size="10.00">src/MovingObject.h</text>
</a>
</g>
</g>
<!-- Node12&#45;&gt;Node24 -->
<g id="edge35_Node000012_Node000024" class="edge">
<title>Node12&#45;&gt;Node24</title>
<g id="a_edge35_Node000012_Node000024"><a xlink:title=" ">
<path fill="none" stroke="#63b8ff" d="M806.95,-330.35C825.08,-320.84 848.17,-308.74 863.92,-300.48"/>
<polygon fill="#63b8ff" stroke="#63b8ff" points="805.51,-327.15 798.28,-334.89 808.76,-333.35 805.51,-327.15"/>
</a>
</g>
</g>
<!-- Node36 -->
<g id="Node000036" class="node">
<title>Node36</title>
<g id="a_Node000036"><a xlink:href="Player_8h.html" target="_top" xlink:title="Represents a player.">
<polygon fill="white" stroke="#666666" points="993.88,-244 926.12,-244 926.12,-224 993.88,-224 993.88,-244"/>
<text text-anchor="middle" x="960" y="-230.5" font-family="Helvetica,sans-Serif" font-size="10.00">src/Player.h</text>
</a>
</g>
</g>
<!-- Node12&#45;&gt;Node36 -->
<g id="edge59_Node000012_Node000036" class="edge">
<title>Node12&#45;&gt;Node36</title>
<g id="a_edge59_Node000012_Node000036"><a xlink:title=" ">
<path fill="none" stroke="#63b8ff" d="M820.21,-344.31C856.67,-341.48 908.94,-331.63 941,-300 956.23,-284.97 959.41,-258.46 959.97,-244.39"/>
<polygon fill="#63b8ff" stroke="#63b8ff" points="820.24,-340.81 810.48,-344.91 820.67,-347.79 820.24,-340.81"/>
</a>
</g>
</g>
<!-- Node14&#45;&gt;Node2 -->
<g id="edge23_Node000014_Node000002" class="edge">
<title>Node14&#45;&gt;Node2</title>
<g id="a_edge23_Node000014_Node000002"><a xlink:title=" ">
<path fill="none" stroke="#63b8ff" d="M450.91,-230.24C338.9,-224.93 121.41,-211.69 96,-188 71.08,-164.77 62.61,-136.78 86,-112 133.59,-61.58 640.03,-83.15 709,-76 715.81,-75.29 723.03,-74.37 730.01,-73.37"/>
<polygon fill="#63b8ff" stroke="#63b8ff" points="450.73,-233.73 460.88,-230.7 451.05,-226.74 450.73,-233.73"/>
</a>
</g>
</g>
<!-- Node15 -->
<g id="Node000015" class="node">
<title>Node15</title>
<g id="a_Node000015"><a xlink:href="ChaseBehavior_8h.html" target="_top" xlink:title="Class for handling the chase behavior of ghosts.">
<polygon fill="white" stroke="#666666" points="553.38,-188 446.62,-188 446.62,-168 553.38,-168 553.38,-188"/>
<text text-anchor="middle" x="500" y="-174.5" font-family="Helvetica,sans-Serif" font-size="10.00">src/ChaseBehavior.h</text>
</a>
</g>
</g>
<!-- Node14&#45;&gt;Node15 -->
<g id="edge16_Node000014_Node000015" class="edge">
<title>Node14&#45;&gt;Node15</title>
<g id="a_edge16_Node000014_Node000015"><a xlink:title=" ">
<path fill="none" stroke="#63b8ff" d="M510.61,-212.71C507.97,-204.32 505.04,-195.01 502.93,-188.3"/>
<polygon fill="#63b8ff" stroke="#63b8ff" points="507.24,-213.66 513.58,-222.15 513.92,-211.56 507.24,-213.66"/>
</a>
</g>
</g>
<!-- Node17 -->
<g id="Node000017" class="node">
<title>Node17</title>
<g id="a_Node000017"><a xlink:href="EnemyBehavior_8cpp.html" target="_top" xlink:title="Base class for all enemy behaviors.">
<polygon fill="white" stroke="#666666" points="428.75,-188 309.25,-188 309.25,-168 428.75,-168 428.75,-188"/>
<text text-anchor="middle" x="369" y="-174.5" font-family="Helvetica,sans-Serif" font-size="10.00">src/EnemyBehavior.cpp</text>
</a>
</g>
</g>
<!-- Node14&#45;&gt;Node17 -->
<g id="edge19_Node000014_Node000017" class="edge">
<title>Node14&#45;&gt;Node17</title>
<g id="a_edge19_Node000014_Node000017"><a xlink:title=" ">
<path fill="none" stroke="#63b8ff" d="M480.44,-219.66C453.92,-209.98 418.67,-197.12 394.98,-188.48"/>
<polygon fill="#63b8ff" stroke="#63b8ff" points="479.2,-222.94 489.8,-223.08 481.6,-216.36 479.2,-222.94"/>
</a>
</g>
</g>
<!-- Node18 -->
<g id="Node000018" class="node">
<title>Node18</title>
<g id="a_Node000018"><a xlink:href="FrightenedBehavior_8h.html" target="_top" xlink:title="Class representing a frightened ghost behavior.">
<polygon fill="white" stroke="#666666" points="695,-188 571,-188 571,-168 695,-168 695,-188"/>
<text text-anchor="middle" x="633" y="-174.5" font-family="Helvetica,sans-Serif" font-size="10.00">src/FrightenedBehavior.h</text>
</a>
</g>
</g>
<!-- Node14&#45;&gt;Node18 -->
<g id="edge20_Node000014_Node000018" class="edge">
<title>Node14&#45;&gt;Node18</title>
<g id="a_edge20_Node000014_Node000018"><a xlink:title=" ">
<path fill="none" stroke="#63b8ff" d="M547.62,-218.75C568.16,-209.18 594.65,-196.85 612.64,-188.48"/>
<polygon fill="#63b8ff" stroke="#63b8ff" points="546.17,-215.56 538.58,-222.96 549.12,-221.91 546.17,-215.56"/>
</a>
</g>
</g>
<!-- Node14&#45;&gt;Node20 -->
<g id="edge24_Node000014_Node000020" class="edge">
<title>Node14&#45;&gt;Node20</title>
<g id="a_edge24_Node000014_Node000020"><a xlink:title=" ">
<path fill="none" stroke="#63b8ff" d="M568.41,-220.93C612.56,-210.56 674.94,-195.92 713.09,-186.96"/>
<polygon fill="#63b8ff" stroke="#63b8ff" points="567.73,-217.49 558.8,-223.19 569.33,-224.31 567.73,-217.49"/>
</a>
</g>
</g>
<!-- Node21 -->
<g id="Node000021" class="node">
<title>Node21</title>
<g id="a_Node000021"><a xlink:href="ScatterBehavior_8h.html" target="_top" xlink:title="Class for the scatter behavior of the ghosts.">
<polygon fill="white" stroke="#666666" points="214.88,-188 105.12,-188 105.12,-168 214.88,-168 214.88,-188"/>
<text text-anchor="middle" x="160" y="-174.5" font-family="Helvetica,sans-Serif" font-size="10.00">src/ScatterBehavior.h</text>
</a>
</g>
</g>
<!-- Node14&#45;&gt;Node21 -->
<g id="edge27_Node000014_Node000021" class="edge">
<title>Node14&#45;&gt;Node21</title>
<g id="a_edge27_Node000014_Node000021"><a xlink:title=" ">
<path fill="none" stroke="#63b8ff" d="M450.62,-222.96C382.84,-212.71 278.83,-196.97 215.36,-187.37"/>
<polygon fill="#63b8ff" stroke="#63b8ff" points="450.09,-226.42 460.5,-224.45 451.14,-219.5 450.09,-226.42"/>
</a>
</g>
</g>
<!-- Node15&#45;&gt;Node3 -->
<g id="edge18_Node000015_Node000003" class="edge">
<title>Node15&#45;&gt;Node3</title>
<g id="a_edge18_Node000015_Node000003"><a xlink:title=" ">
<path fill="none" stroke="#63b8ff" d="M450.57,-164.81C410.84,-155.01 355.81,-141.45 319.35,-132.46"/>
<polygon fill="#63b8ff" stroke="#63b8ff" points="449.59,-168.17 460.13,-167.17 451.26,-161.38 449.59,-168.17"/>
</a>
</g>
</g>
<!-- Node16 -->
<g id="Node000016" class="node">
<title>Node16</title>
<g id="a_Node000016"><a xlink:href="ChaseBehavior_8cpp.html" target="_top" xlink:title="Class for handling the chase behavior of ghosts.">
<polygon fill="white" stroke="#666666" points="454.62,-132 337.38,-132 337.38,-112 454.62,-112 454.62,-132"/>
<text text-anchor="middle" x="396" y="-118.5" font-family="Helvetica,sans-Serif" font-size="10.00">src/ChaseBehavior.cpp</text>
</a>
</g>
</g>
<!-- Node15&#45;&gt;Node16 -->
<g id="edge17_Node000015_Node000016" class="edge">
<title>Node15&#45;&gt;Node16</title>
<g id="a_edge17_Node000015_Node000016"><a xlink:title=" ">
<path fill="none" stroke="#63b8ff" d="M471.78,-162.35C453.48,-152.84 430.16,-140.74 414.26,-132.48"/>
<polygon fill="#63b8ff" stroke="#63b8ff" points="470.05,-165.39 480.54,-166.9 473.28,-159.18 470.05,-165.39"/>
</a>
</g>
</g>
<!-- Node18&#45;&gt;Node3 -->
<g id="edge22_Node000018_Node000003" class="edge">
<title>Node18&#45;&gt;Node3</title>
<g id="a_edge22_Node000018_Node000003"><a xlink:title=" ">
<path fill="none" stroke="#63b8ff" d="M559.46,-167.05C497.6,-158.46 406.87,-145.36 328,-132 325.46,-131.57 322.85,-131.11 320.21,-130.64"/>
<polygon fill="#63b8ff" stroke="#63b8ff" points="558.78,-170.49 569.17,-168.39 559.74,-163.55 558.78,-170.49"/>
</a>
</g>
</g>
<!-- Node19 -->
<g id="Node000019" class="node">
<title>Node19</title>
<g id="a_Node000019"><a xlink:href="FrightenedBehavior_8cpp.html" target="_top" xlink:title="Class representing a frightened ghost behavior.">
<polygon fill="white" stroke="#666666" points="607.25,-132 472.75,-132 472.75,-112 607.25,-112 607.25,-132"/>
<text text-anchor="middle" x="540" y="-118.5" font-family="Helvetica,sans-Serif" font-size="10.00">src/FrightenedBehavior.cpp</text>
</a>
</g>
</g>
<!-- Node18&#45;&gt;Node19 -->
<g id="edge21_Node000018_Node000019" class="edge">
<title>Node18&#45;&gt;Node19</title>
<g id="a_edge21_Node000018_Node000019"><a xlink:title=" ">
<path fill="none" stroke="#63b8ff" d="M607.3,-162.08C591.01,-152.62 570.41,-140.66 556.33,-132.48"/>
<polygon fill="#63b8ff" stroke="#63b8ff" points="605.09,-164.84 615.49,-166.83 608.6,-158.79 605.09,-164.84"/>
</a>
</g>
</g>
<!-- Node20&#45;&gt;Node3 -->
<g id="edge26_Node000020_Node000003" class="edge">
<title>Node20&#45;&gt;Node3</title>
<g id="a_edge26_Node000020_Node000003"><a xlink:title=" ">
<path fill="none" stroke="#63b8ff" d="M702.15,-167.9C536.09,-143.31 490.61,-155.3 328,-132 325.45,-131.63 322.83,-131.23 320.19,-130.79"/>
<polygon fill="#63b8ff" stroke="#63b8ff" points="701.36,-171.32 711.77,-169.34 702.4,-164.39 701.36,-171.32"/>
</a>
</g>
</g>
<!-- Node20&#45;&gt;Node8 -->
<g id="edge25_Node000020_Node000008" class="edge">
<title>Node20&#45;&gt;Node8</title>
<g id="a_edge25_Node000020_Node000008"><a xlink:title=" ">
<path fill="none" stroke="#63b8ff" d="M792.01,-171.41C879.52,-160.51 1066.65,-137.03 1096,-132 1098.65,-131.55 1101.38,-131.04 1104.12,-130.51"/>
<polygon fill="#63b8ff" stroke="#63b8ff" points="791.84,-167.9 782.35,-172.61 792.71,-174.85 791.84,-167.9"/>
</a>
</g>
</g>
<!-- Node21&#45;&gt;Node2 -->
<g id="edge28_Node000021_Node000002" class="edge">
<title>Node21&#45;&gt;Node2</title>
<g id="a_edge28_Node000021_Node000002"><a xlink:title=" ">
<path fill="none" stroke="#63b8ff" d="M128.82,-162.56C104.78,-149.54 78.23,-129.78 95,-112 141.89,-62.28 641.03,-83.08 709,-76 715.81,-75.29 723.03,-74.36 730.01,-73.37"/>
<polygon fill="#63b8ff" stroke="#63b8ff" points="127,-165.56 137.49,-167.01 130.19,-159.33 127,-165.56"/>
</a>
</g>
</g>
<!-- Node21&#45;&gt;Node3 -->
<g id="edge29_Node000021_Node000003" class="edge">
<title>Node21&#45;&gt;Node3</title>
<g id="a_edge29_Node000021_Node000003"><a xlink:title=" ">
<path fill="none" stroke="#63b8ff" d="M191.35,-163.01C212.86,-153.41 240.82,-140.93 259.76,-132.48"/>
<polygon fill="#63b8ff" stroke="#63b8ff" points="190.16,-159.71 182.46,-166.98 193.02,-166.1 190.16,-159.71"/>
</a>
</g>
</g>
<!-- Node22 -->
<g id="Node000022" class="node">
<title>Node22</title>
<g id="a_Node000022"><a xlink:href="ScatterBehavior_8cpp.html" target="_top" xlink:title="Class for the scatter behavior of the ghosts.">
<polygon fill="white" stroke="#666666" points="224.12,-132 103.88,-132 103.88,-112 224.12,-112 224.12,-132"/>
<text text-anchor="middle" x="164" y="-118.5" font-family="Helvetica,sans-Serif" font-size="10.00">src/ScatterBehavior.cpp</text>
</a>
</g>
</g>
<!-- Node21&#45;&gt;Node22 -->
<g id="edge30_Node000021_Node000022" class="edge">
<title>Node21&#45;&gt;Node22</title>
<g id="a_edge30_Node000021_Node000022"><a xlink:title=" ">
<path fill="none" stroke="#63b8ff" d="M161.55,-156.13C162.16,-147.9 162.83,-138.85 163.31,-132.3"/>
<polygon fill="#63b8ff" stroke="#63b8ff" points="158.06,-155.85 160.81,-166.08 165.04,-156.37 158.06,-155.85"/>
</a>
</g>
</g>
<!-- Node24&#45;&gt;Node14 -->
<g id="edge36_Node000024_Node000014" class="edge">
<title>Node24&#45;&gt;Node14</title>
<g id="a_edge36_Node000024_Node000014"><a xlink:title=" ">
<path fill="none" stroke="#63b8ff" d="M819.87,-279.54C727.2,-265.68 630.58,-251.54 571.74,-242.96"/>
<polygon fill="#63b8ff" stroke="#63b8ff" points="819.25,-282.98 829.66,-281 820.29,-276.06 819.25,-282.98"/>
</a>
</g>
</g>
<!-- Node24&#45;&gt;Node20 -->
<g id="edge37_Node000024_Node000020" class="edge">
<title>Node24&#45;&gt;Node20</title>
<g id="a_edge37_Node000024_Node000020"><a xlink:title=" ">
<path fill="none" stroke="#63b8ff" d="M825.96,-276.81C794.08,-268.63 758.64,-257.01 749,-244 736.9,-227.67 740.83,-202.17 744.23,-188.47"/>
<polygon fill="#63b8ff" stroke="#63b8ff" points="825.02,-280.18 835.57,-279.19 826.7,-273.39 825.02,-280.18"/>
</a>
</g>
</g>
<!-- Node25 -->
<g id="Node000025" class="node">
<title>Node25</title>
<g id="a_Node000025"><a xlink:href="InteractiveObject_8h.html" target="_top" xlink:title="Base class for all interactive objects.">
<polygon fill="white" stroke="#666666" points="943.5,-188 828.5,-188 828.5,-168 943.5,-168 943.5,-188"/>
<text text-anchor="middle" x="886" y="-174.5" font-family="Helvetica,sans-Serif" font-size="10.00">src/InteractiveObject.h</text>
</a>
</g>
</g>
<!-- Node24&#45;&gt;Node25 -->
<g id="edge38_Node000024_Node000025" class="edge">
<title>Node24&#45;&gt;Node25</title>
<g id="a_edge38_Node000024_Node000025"><a xlink:title=" ">
<path fill="none" stroke="#63b8ff" d="M882.75,-268.31C883.62,-244.36 885.02,-205.95 885.66,-188.35"/>
<polygon fill="#63b8ff" stroke="#63b8ff" points="879.26,-267.99 882.4,-278.11 886.26,-268.24 879.26,-267.99"/>
</a>
</g>
</g>
<!-- Node35 -->
<g id="Node000035" class="node">
<title>Node35</title>
<g id="a_Node000035"><a xlink:href="MovingObject_8cpp.html" target="_top" xlink:title="Base class for all moving objects.">
<polygon fill="white" stroke="#666666" points="869.62,-244 758.38,-244 758.38,-224 869.62,-224 869.62,-244"/>
<text text-anchor="middle" x="814" y="-230.5" font-family="Helvetica,sans-Serif" font-size="10.00">src/MovingObject.cpp</text>
</a>
</g>
</g>
<!-- Node24&#45;&gt;Node35 -->
<g id="edge53_Node000024_Node000035" class="edge">
<title>Node24&#45;&gt;Node35</title>
<g id="a_edge53_Node000024_Node000035"><a xlink:title=" ">
<path fill="none" stroke="#63b8ff" d="M861.45,-272.68C849.75,-263.39 835.52,-252.09 825.71,-244.3"/>
<polygon fill="#63b8ff" stroke="#63b8ff" points="858.96,-275.17 868.97,-278.65 863.32,-269.69 858.96,-275.17"/>
</a>
</g>
</g>
<!-- Node24&#45;&gt;Node36 -->
<g id="edge54_Node000024_Node000036" class="edge">
<title>Node24&#45;&gt;Node36</title>
<g id="a_edge54_Node000024_Node000036"><a xlink:title=" ">
<path fill="none" stroke="#63b8ff" d="M904.72,-273.27C918.19,-263.94 934.83,-252.43 946.31,-244.48"/>
<polygon fill="#63b8ff" stroke="#63b8ff" points="903.06,-270.16 896.83,-278.73 907.05,-275.92 903.06,-270.16"/>
</a>
</g>
</g>
<!-- Node25&#45;&gt;Node8 -->
<g id="edge45_Node000025_Node000008" class="edge">
<title>Node25&#45;&gt;Node8</title>
<g id="a_edge45_Node000025_Node000008"><a xlink:title=" ">
<path fill="none" stroke="#63b8ff" d="M941.4,-165.13C991.19,-154.46 1062.71,-139.13 1104.36,-130.21"/>
<polygon fill="#63b8ff" stroke="#63b8ff" points="940.71,-161.7 931.66,-167.21 942.17,-168.54 940.71,-161.7"/>
</a>
</g>
</g>
<!-- Node26 -->
<g id="Node000026" class="node">
<title>Node26</title>
<g id="a_Node000026"><a xlink:href="Cherry_8h.html" target="_top" xlink:title="Class representing a cherry collectible.">
<polygon fill="white" stroke="#666666" points="694.25,-132 625.75,-132 625.75,-112 694.25,-112 694.25,-132"/>
<text text-anchor="middle" x="660" y="-118.5" font-family="Helvetica,sans-Serif" font-size="10.00">src/Cherry.h</text>
</a>
</g>
</g>
<!-- Node25&#45;&gt;Node26 -->
<g id="edge39_Node000025_Node000026" class="edge">
<title>Node25&#45;&gt;Node26</title>
<g id="a_edge39_Node000025_Node000026"><a xlink:title=" ">
<path fill="none" stroke="#63b8ff" d="M835.31,-164.89C792.35,-154.62 731.92,-140.18 694.4,-131.22"/>
<polygon fill="#63b8ff" stroke="#63b8ff" points="834.36,-168.26 844.9,-167.18 835.99,-161.45 834.36,-168.26"/>
</a>
</g>
</g>
<!-- Node28 -->
<g id="Node000028" class="node">
<title>Node28</title>
<g id="a_Node000028"><a xlink:href="Coin_8h.html" target="_top" xlink:title="Class representing a coin collectible.">
<polygon fill="white" stroke="#666666" points="916.5,-132 855.5,-132 855.5,-112 916.5,-112 916.5,-132"/>
<text text-anchor="middle" x="886" y="-118.5" font-family="Helvetica,sans-Serif" font-size="10.00">src/Coin.h</text>
</a>
</g>
</g>
<!-- Node25&#45;&gt;Node28 -->
<g id="edge42_Node000025_Node000028" class="edge">
<title>Node25&#45;&gt;Node28</title>
<g id="a_edge42_Node000025_Node000028"><a xlink:title=" ">
<path fill="none" stroke="#63b8ff" d="M886,-156.13C886,-147.9 886,-138.85 886,-132.3"/>
<polygon fill="#63b8ff" stroke="#63b8ff" points="882.5,-156.08 886,-166.08 889.5,-156.08 882.5,-156.08"/>
</a>
</g>
</g>
<!-- Node30 -->
<g id="Node000030" class="node">
<title>Node30</title>
<g id="a_Node000030"><a xlink:href="InteractiveObject_8cpp.html" target="_top" xlink:title="Base class for all interactive objects.">
<polygon fill="white" stroke="#666666" points="837.75,-132 712.25,-132 712.25,-112 837.75,-112 837.75,-132"/>
<text text-anchor="middle" x="775" y="-118.5" font-family="Helvetica,sans-Serif" font-size="10.00">src/InteractiveObject.cpp</text>
</a>
</g>
</g>
<!-- Node25&#45;&gt;Node30 -->
<g id="edge46_Node000025_Node000030" class="edge">
<title>Node25&#45;&gt;Node30</title>
<g id="a_edge46_Node000025_Node000030"><a xlink:title=" ">
<path fill="none" stroke="#63b8ff" d="M856.43,-162.61C836.81,-153.07 811.62,-140.81 794.49,-132.48"/>
<polygon fill="#63b8ff" stroke="#63b8ff" points="854.78,-165.7 865.3,-166.93 857.84,-159.41 854.78,-165.7"/>
</a>
</g>
</g>
<!-- Node31 -->
<g id="Node000031" class="node">
<title>Node31</title>
<g id="a_Node000031"><a xlink:href="Teleport_8h.html" target="_top" xlink:title="Represents a teleport object.">
<polygon fill="white" stroke="#666666" points="1009.62,-132 934.38,-132 934.38,-112 1009.62,-112 1009.62,-132"/>
<text text-anchor="middle" x="972" y="-118.5" font-family="Helvetica,sans-Serif" font-size="10.00">src/Teleport.h</text>
</a>
</g>
</g>
<!-- Node25&#45;&gt;Node31 -->
<g id="edge47_Node000025_Node000031" class="edge">
<title>Node25&#45;&gt;Node31</title>
<g id="a_edge47_Node000025_Node000031"><a xlink:title=" ">
<path fill="none" stroke="#63b8ff" d="M910.62,-161.54C925.55,-152.17 944.12,-140.51 956.9,-132.48"/>
<polygon fill="#63b8ff" stroke="#63b8ff" points="908.87,-158.51 902.26,-166.79 912.59,-164.44 908.87,-158.51"/>
</a>
</g>
</g>
<!-- Node33 -->
<g id="Node000033" class="node">
<title>Node33</title>
<g id="a_Node000033"><a xlink:href="Wall_8h.html" target="_top" xlink:title="Represents a wall object.">
<polygon fill="white" stroke="#666666" points="1086.75,-132 1027.25,-132 1027.25,-112 1086.75,-112 1086.75,-132"/>
<text text-anchor="middle" x="1057" y="-118.5" font-family="Helvetica,sans-Serif" font-size="10.00">src/Wall.h</text>
</a>
</g>
</g>
<!-- Node25&#45;&gt;Node33 -->
<g id="edge50_Node000025_Node000033" class="edge">
<title>Node25&#45;&gt;Node33</title>
<g id="a_edge50_Node000025_Node000033"><a xlink:title=" ">
<path fill="none" stroke="#63b8ff" d="M926.6,-164.18C957.43,-154.44 999.12,-141.28 1026.98,-132.48"/>
<polygon fill="#63b8ff" stroke="#63b8ff" points="925.71,-160.79 917.23,-167.14 927.82,-167.46 925.71,-160.79"/>
</a>
</g>
</g>
<!-- Node26&#45;&gt;Node2 -->
<g id="edge41_Node000026_Node000002" class="edge">
<title>Node26&#45;&gt;Node2</title>
<g id="a_edge41_Node000026_Node000002"><a xlink:title=" ">
<path fill="none" stroke="#63b8ff" d="M689.04,-106.61C708.3,-97.07 733.04,-84.81 749.87,-76.48"/>
<polygon fill="#63b8ff" stroke="#63b8ff" points="687.75,-103.35 680.34,-110.92 690.86,-109.62 687.75,-103.35"/>
</a>
</g>
</g>
<!-- Node27 -->
<g id="Node000027" class="node">
<title>Node27</title>
<g id="a_Node000027"><a xlink:href="Cherry_8cpp.html" target="_top" xlink:title="Class representing a cherry collectible.">
<polygon fill="white" stroke="#666666" points="699.5,-76 620.5,-76 620.5,-56 699.5,-56 699.5,-76"/>
<text text-anchor="middle" x="660" y="-62.5" font-family="Helvetica,sans-Serif" font-size="10.00">src/Cherry.cpp</text>
</a>
</g>
</g>
<!-- Node26&#45;&gt;Node27 -->
<g id="edge40_Node000026_Node000027" class="edge">
<title>Node26&#45;&gt;Node27</title>
<g id="a_edge40_Node000026_Node000027"><a xlink:title=" ">
<path fill="none" stroke="#63b8ff" d="M660,-100.13C660,-91.9 660,-82.85 660,-76.3"/>
<polygon fill="#63b8ff" stroke="#63b8ff" points="656.5,-100.08 660,-110.08 663.5,-100.08 656.5,-100.08"/>
</a>
</g>
</g>
<!-- Node28&#45;&gt;Node2 -->
<g id="edge44_Node000028_Node000002" class="edge">
<title>Node28&#45;&gt;Node2</title>
<g id="a_edge44_Node000028_Node000002"><a xlink:title=" ">
<path fill="none" stroke="#63b8ff" d="M855.4,-106.88C834.64,-97.3 807.76,-84.89 789.54,-76.48"/>
<polygon fill="#63b8ff" stroke="#63b8ff" points="853.7,-109.95 864.25,-110.96 856.63,-103.59 853.7,-109.95"/>
</a>
</g>
</g>
<!-- Node29 -->
<g id="Node000029" class="node">
<title>Node29</title>
<g id="a_Node000029"><a xlink:href="Coin_8cpp.html" target="_top" xlink:title="Class representing a coin collectible.">
<polygon fill="white" stroke="#666666" points="910.75,-76 839.25,-76 839.25,-56 910.75,-56 910.75,-76"/>
<text text-anchor="middle" x="875" y="-62.5" font-family="Helvetica,sans-Serif" font-size="10.00">src/Coin.cpp</text>
</a>
</g>
</g>
<!-- Node28&#45;&gt;Node29 -->
<g id="edge43_Node000028_Node000029" class="edge">
<title>Node28&#45;&gt;Node29</title>
<g id="a_edge43_Node000028_Node000029"><a xlink:title=" ">
<path fill="none" stroke="#63b8ff" d="M881.81,-100.43C880.11,-92.11 878.25,-82.93 876.89,-76.3"/>
<polygon fill="#63b8ff" stroke="#63b8ff" points="878.36,-101.01 883.78,-110.11 885.22,-99.61 878.36,-101.01"/>
</a>
</g>
</g>
<!-- Node31&#45;&gt;Node2 -->
<g id="edge48_Node000031_Node000002" class="edge">
<title>Node31&#45;&gt;Node2</title>
<g id="a_edge48_Node000031_Node000002"><a xlink:title=" ">
<path fill="none" stroke="#63b8ff" d="M925.71,-108.69C888.95,-98.91 838.29,-85.43 804.64,-76.48"/>
<polygon fill="#63b8ff" stroke="#63b8ff" points="924.61,-112.02 935.18,-111.2 926.41,-105.25 924.61,-112.02"/>
</a>
</g>
</g>
<!-- Node32 -->
<g id="Node000032" class="node">
<title>Node32</title>
<g id="a_Node000032"><a xlink:href="Teleport_8cpp.html" target="_top" xlink:title="Represents a teleport object.">
<polygon fill="white" stroke="#666666" points="1014.88,-76 929.12,-76 929.12,-56 1014.88,-56 1014.88,-76"/>
<text text-anchor="middle" x="972" y="-62.5" font-family="Helvetica,sans-Serif" font-size="10.00">src/Teleport.cpp</text>
</a>
</g>
</g>
<!-- Node31&#45;&gt;Node32 -->
<g id="edge49_Node000031_Node000032" class="edge">
<title>Node31&#45;&gt;Node32</title>
<g id="a_edge49_Node000031_Node000032"><a xlink:title=" ">
<path fill="none" stroke="#63b8ff" d="M972,-100.13C972,-91.9 972,-82.85 972,-76.3"/>
<polygon fill="#63b8ff" stroke="#63b8ff" points="968.5,-100.08 972,-110.08 975.5,-100.08 968.5,-100.08"/>
</a>
</g>
</g>
<!-- Node33&#45;&gt;Node2 -->
<g id="edge51_Node000033_Node000002" class="edge">
<title>Node33&#45;&gt;Node2</title>
<g id="a_edge51_Node000033_Node000002"><a xlink:title=" ">
<path fill="none" stroke="#63b8ff" d="M1015.67,-111.38C936.97,-95.2 855.2,-81.17 808.1,-73.36"/>
<polygon fill="#63b8ff" stroke="#63b8ff" points="1014.77,-114.77 1025.27,-113.37 1016.19,-107.91 1014.77,-114.77"/>
</a>
</g>
</g>
<!-- Node34 -->
<g id="Node000034" class="node">
<title>Node34</title>
<g id="a_Node000034"><a xlink:href="Wall_8cpp.html" target="_top" xlink:title="Represents a wall object.">
<polygon fill="white" stroke="#666666" points="1103,-76 1033,-76 1033,-56 1103,-56 1103,-76"/>
<text text-anchor="middle" x="1068" y="-62.5" font-family="Helvetica,sans-Serif" font-size="10.00">src/Wall.cpp</text>
</a>
</g>
</g>
<!-- Node33&#45;&gt;Node34 -->
<g id="edge52_Node000033_Node000034" class="edge">
<title>Node33&#45;&gt;Node34</title>
<g id="a_edge52_Node000033_Node000034"><a xlink:title=" ">
<path fill="none" stroke="#63b8ff" d="M1061.19,-100.43C1062.89,-92.11 1064.75,-82.93 1066.11,-76.3"/>
<polygon fill="#63b8ff" stroke="#63b8ff" points="1057.78,-99.61 1059.22,-110.11 1064.64,-101.01 1057.78,-99.61"/>
</a>
</g>
</g>
<!-- Node36&#45;&gt;Node5 -->
<g id="edge58_Node000036_Node000005" class="edge">
<title>Node36&#45;&gt;Node5</title>
<g id="a_edge58_Node000036_Node000005"><a xlink:title=" ">
<path fill="none" stroke="#63b8ff" d="M983.01,-217.27C996.66,-207.94 1013.5,-196.43 1025.13,-188.48"/>
<polygon fill="#63b8ff" stroke="#63b8ff" points="981.29,-214.21 975.01,-222.74 985.24,-219.99 981.29,-214.21"/>
</a>
</g>
</g>
<!-- Node36&#45;&gt;Node8 -->
<g id="edge55_Node000036_Node000008" class="edge">
<title>Node36&#45;&gt;Node8</title>
<g id="a_edge55_Node000036_Node000008"><a xlink:title=" ">
<path fill="none" stroke="#63b8ff" d="M964.95,-212.76C969.46,-198.37 977.54,-179.61 991,-168 999.72,-160.48 1063.43,-142.67 1104.07,-131.84"/>
<polygon fill="#63b8ff" stroke="#63b8ff" points="961.66,-211.54 962.36,-222.11 968.4,-213.41 961.66,-211.54"/>
</a>
</g>
</g>
<!-- Node36&#45;&gt;Node20 -->
<g id="edge56_Node000036_Node000020" class="edge">
<title>Node36&#45;&gt;Node20</title>
<g id="a_edge56_Node000036_Node000020"><a xlink:title=" ">
<path fill="none" stroke="#63b8ff" d="M914.71,-221.52C874.61,-211.35 816.98,-196.74 780.79,-187.57"/>
<polygon fill="#63b8ff" stroke="#63b8ff" points="913.76,-224.89 924.31,-223.95 915.48,-218.1 913.76,-224.89"/>
</a>
</g>
</g>
<!-- Node36&#45;&gt;Node25 -->
<g id="edge57_Node000036_Node000025" class="edge">
<title>Node36&#45;&gt;Node25</title>
<g id="a_edge57_Node000036_Node000025"><a xlink:title=" ">
<path fill="none" stroke="#63b8ff" d="M938.01,-216.95C925.21,-207.61 909.52,-196.16 898.74,-188.3"/>
<polygon fill="#63b8ff" stroke="#63b8ff" points="935.75,-219.63 945.89,-222.7 939.87,-213.98 935.75,-219.63"/>
</a>
</g>
</g>
</g>
</svg>
