<?xml version="1.0" encoding="UTF-8" standalone="no"?>
<!DOCTYPE svg PUBLIC "-//W3C//DTD SVG 1.1//EN"
 "http://www.w3.org/Graphics/SVG/1.1/DTD/svg11.dtd">
<!-- Generated by graphviz version 10.0.1 (0)
 -->
<!-- Title: src/Helpers.cpp Pages: 1 -->
<svg width="383pt" height="196pt"
 viewBox="0.00 0.00 383.25 196.00" xmlns="http://www.w3.org/2000/svg" xmlns:xlink="http://www.w3.org/1999/xlink">
<g id="graph0" class="graph" transform="scale(1 1) rotate(0) translate(4 192)">
<title>src/Helpers.cpp</title>
<!-- Node1 -->
<g id="Node000001" class="node">
<title>Node1</title>
<g id="a_Node000001"><a xlink:title=" ">
<polygon fill="#999999" stroke="#666666" points="248,-188 163,-188 163,-168 248,-168 248,-188"/>
<text text-anchor="middle" x="205.5" y="-174.5" font-family="Helvetica,sans-Serif" font-size="10.00">src/Helpers.cpp</text>
</a>
</g>
</g>
<!-- Node2 -->
<g id="Node000002" class="node">
<title>Node2</title>
<g id="a_Node000002"><a xlink:href="Helpers_8h.html" target="_top" xlink:title=" ">
<polygon fill="white" stroke="#666666" points="124.5,-132 66.5,-132 66.5,-112 124.5,-112 124.5,-132"/>
<text text-anchor="middle" x="95.5" y="-118.5" font-family="Helvetica,sans-Serif" font-size="10.00">Helpers.h</text>
</a>
</g>
</g>
<!-- Node1&#45;&gt;Node2 -->
<g id="edge1_Node000001_Node000002" class="edge">
<title>Node1&#45;&gt;Node2</title>
<g id="a_edge1_Node000001_Node000002"><a xlink:title=" ">
<path fill="none" stroke="#63b8ff" d="M186.34,-167.59C169.41,-159.28 144.45,-147.03 124.98,-137.47"/>
<polygon fill="#63b8ff" stroke="#63b8ff" points="126.69,-134.41 116.17,-133.15 123.6,-140.7 126.69,-134.41"/>
</a>
</g>
</g>
<!-- Node5 -->
<g id="Node000005" class="node">
<title>Node5</title>
<g id="a_Node000005"><a xlink:title=" ">
<polygon fill="#e0e0e0" stroke="#999999" points="174.5,-76 134.5,-76 134.5,-56 174.5,-56 174.5,-76"/>
<text text-anchor="middle" x="154.5" y="-62.5" font-family="Helvetica,sans-Serif" font-size="10.00">string</text>
</a>
</g>
</g>
<!-- Node1&#45;&gt;Node5 -->
<g id="edge8_Node000001_Node000005" class="edge">
<title>Node1&#45;&gt;Node5</title>
<g id="a_edge8_Node000001_Node000005"><a xlink:title=" ">
<path fill="none" stroke="#63b8ff" d="M197.06,-167.65C189.63,-158.98 179.01,-145.42 172.5,-132 165.61,-117.79 160.98,-100.51 158.15,-87.34"/>
<polygon fill="#63b8ff" stroke="#63b8ff" points="161.61,-86.83 156.25,-77.69 154.75,-88.17 161.61,-86.83"/>
</a>
</g>
</g>
<!-- Node7 -->
<g id="Node000007" class="node">
<title>Node7</title>
<g id="a_Node000007"><a xlink:title=" ">
<polygon fill="#e0e0e0" stroke="#999999" points="229.62,-132 181.38,-132 181.38,-112 229.62,-112 229.62,-132"/>
<text text-anchor="middle" x="205.5" y="-118.5" font-family="Helvetica,sans-Serif" font-size="10.00">random</text>
</a>
</g>
</g>
<!-- Node1&#45;&gt;Node7 -->
<g id="edge6_Node000001_Node000007" class="edge">
<title>Node1&#45;&gt;Node7</title>
<g id="a_edge6_Node000001_Node000007"><a xlink:title=" ">
<path fill="none" stroke="#63b8ff" d="M205.5,-167.59C205.5,-161.01 205.5,-151.96 205.5,-143.73"/>
<polygon fill="#63b8ff" stroke="#63b8ff" points="209,-143.81 205.5,-133.81 202,-143.81 209,-143.81"/>
</a>
</g>
</g>
<!-- Node8 -->
<g id="Node000008" class="node">
<title>Node8</title>
<g id="a_Node000008"><a xlink:title=" ">
<polygon fill="#e0e0e0" stroke="#999999" points="303.38,-132 247.62,-132 247.62,-112 303.38,-112 303.38,-132"/>
<text text-anchor="middle" x="275.5" y="-118.5" font-family="Helvetica,sans-Serif" font-size="10.00">algorithm</text>
</a>
</g>
</g>
<!-- Node1&#45;&gt;Node8 -->
<g id="edge7_Node000001_Node000008" class="edge">
<title>Node1&#45;&gt;Node8</title>
<g id="a_edge7_Node000001_Node000008"><a xlink:title=" ">
<path fill="none" stroke="#63b8ff" d="M217.69,-167.59C227.83,-159.77 242.49,-148.46 254.51,-139.19"/>
<polygon fill="#63b8ff" stroke="#63b8ff" points="256.47,-142.1 262.25,-133.22 252.19,-136.56 256.47,-142.1"/>
</a>
</g>
</g>
<!-- Node9 -->
<g id="Node000009" class="node">
<title>Node9</title>
<g id="a_Node000009"><a xlink:title=" ">
<polygon fill="#e0e0e0" stroke="#999999" points="375.25,-132 321.75,-132 321.75,-112 375.25,-112 375.25,-132"/>
<text text-anchor="middle" x="348.5" y="-118.5" font-family="Helvetica,sans-Serif" font-size="10.00">iostream</text>
</a>
</g>
</g>
<!-- Node1&#45;&gt;Node9 -->
<g id="edge9_Node000001_Node000009" class="edge">
<title>Node1&#45;&gt;Node9</title>
<g id="a_edge9_Node000001_Node000009"><a xlink:title=" ">
<path fill="none" stroke="#63b8ff" d="M230.41,-167.59C253.23,-158.97 287.28,-146.12 312.96,-136.42"/>
<polygon fill="#63b8ff" stroke="#63b8ff" points="313.86,-139.82 321.98,-133.01 311.39,-133.27 313.86,-139.82"/>
</a>
</g>
</g>
<!-- Node3 -->
<g id="Node000003" class="node">
<title>Node3</title>
<g id="a_Node000003"><a xlink:href="Enums_8h.html" target="_top" xlink:title=" ">
<polygon fill="white" stroke="#666666" points="55,-76 0,-76 0,-56 55,-56 55,-76"/>
<text text-anchor="middle" x="27.5" y="-62.5" font-family="Helvetica,sans-Serif" font-size="10.00">Enums.h</text>
</a>
</g>
</g>
<!-- Node2&#45;&gt;Node3 -->
<g id="edge2_Node000002_Node000003" class="edge">
<title>Node2&#45;&gt;Node3</title>
<g id="a_edge2_Node000002_Node000003"><a xlink:title=" ">
<path fill="none" stroke="#63b8ff" d="M83.66,-111.59C73.81,-103.77 59.57,-92.46 47.89,-83.19"/>
<polygon fill="#63b8ff" stroke="#63b8ff" points="50.4,-80.72 40.39,-77.24 46.05,-86.2 50.4,-80.72"/>
</a>
</g>
</g>
<!-- Node2&#45;&gt;Node5 -->
<g id="edge4_Node000002_Node000005" class="edge">
<title>Node2&#45;&gt;Node5</title>
<g id="a_edge4_Node000002_Node000005"><a xlink:title=" ">
<path fill="none" stroke="#63b8ff" d="M105.78,-111.59C114.07,-104.01 125.95,-93.13 135.9,-84.02"/>
<polygon fill="#63b8ff" stroke="#63b8ff" points="138.21,-86.65 143.22,-77.32 133.48,-81.49 138.21,-86.65"/>
</a>
</g>
</g>
<!-- Node6 -->
<g id="Node000006" class="node">
<title>Node6</title>
<g id="a_Node000006"><a xlink:title=" ">
<polygon fill="#e0e0e0" stroke="#999999" points="116,-76 73,-76 73,-56 116,-56 116,-76"/>
<text text-anchor="middle" x="94.5" y="-62.5" font-family="Helvetica,sans-Serif" font-size="10.00">vector</text>
</a>
</g>
</g>
<!-- Node2&#45;&gt;Node6 -->
<g id="edge5_Node000002_Node000006" class="edge">
<title>Node2&#45;&gt;Node6</title>
<g id="a_edge5_Node000002_Node000006"><a xlink:title=" ">
<path fill="none" stroke="#63b8ff" d="M95.33,-111.59C95.2,-105.01 95.04,-95.96 94.88,-87.73"/>
<polygon fill="#63b8ff" stroke="#63b8ff" points="98.38,-87.75 94.7,-77.81 91.39,-87.87 98.38,-87.75"/>
</a>
</g>
</g>
<!-- Node4 -->
<g id="Node000004" class="node">
<title>Node4</title>
<g id="a_Node000004"><a xlink:title=" ">
<polygon fill="#e0e0e0" stroke="#999999" points="47.12,-20 7.88,-20 7.88,0 47.12,0 47.12,-20"/>
<text text-anchor="middle" x="27.5" y="-6.5" font-family="Helvetica,sans-Serif" font-size="10.00">utility</text>
</a>
</g>
</g>
<!-- Node3&#45;&gt;Node4 -->
<g id="edge3_Node000003_Node000004" class="edge">
<title>Node3&#45;&gt;Node4</title>
<g id="a_edge3_Node000003_Node000004"><a xlink:title=" ">
<path fill="none" stroke="#63b8ff" d="M27.5,-55.59C27.5,-49.01 27.5,-39.96 27.5,-31.73"/>
<polygon fill="#63b8ff" stroke="#63b8ff" points="31,-31.81 27.5,-21.81 24,-31.81 31,-31.81"/>
</a>
</g>
</g>
</g>
</svg>
