<?xml version="1.0" encoding="UTF-8" standalone="no"?>
<!DOCTYPE svg PUBLIC "-//W3C//DTD SVG 1.1//EN"
 "http://www.w3.org/Graphics/SVG/1.1/DTD/svg11.dtd">
<!-- Generated by graphviz version 2.43.0 (0)
 -->
<!-- Title: src/Helpers.cpp Pages: 1 -->
<svg width="414pt" height="196pt"
 viewBox="0.00 0.00 413.50 196.00" xmlns="http://www.w3.org/2000/svg" xmlns:xlink="http://www.w3.org/1999/xlink">
<g id="graph0" class="graph" transform="scale(1 1) rotate(0) translate(4 192)">
<title>src/Helpers.cpp</title>
<polygon fill="white" stroke="transparent" points="-4,4 -4,-192 409.5,-192 409.5,4 -4,4"/>
<!-- Node1 -->
<g id="node1" class="node">
<title>Node1</title>
<g id="a_node1"><a xlink:title=" ">
<polygon fill="#bfbfbf" stroke="black" points="172.5,-168.5 172.5,-187.5 264.5,-187.5 264.5,-168.5 172.5,-168.5"/>
<text text-anchor="middle" x="218.5" y="-175.5" font-family="Helvetica,sans-Serif" font-size="10.00">src/Helpers.cpp</text>
</a>
</g>
</g>
<!-- Node2 -->
<g id="node2" class="node">
<title>Node2</title>
<g id="a_node2"><a xlink:href="Helpers_8h.html" target="_top" xlink:title=" ">
<polygon fill="white" stroke="black" points="71,-112.5 71,-131.5 134,-131.5 134,-112.5 71,-112.5"/>
<text text-anchor="middle" x="102.5" y="-119.5" font-family="Helvetica,sans-Serif" font-size="10.00">Helpers.h</text>
</a>
</g>
</g>
<!-- Node1&#45;&gt;Node2 -->
<g id="edge1" class="edge">
<title>Node1&#45;&gt;Node2</title>
<path fill="none" stroke="midnightblue" d="M200.12,-168.44C181.28,-159.68 151.77,-145.94 130.12,-135.86"/>
<polygon fill="midnightblue" stroke="midnightblue" points="131.34,-132.56 120.79,-131.52 128.38,-138.91 131.34,-132.56"/>
</g>
<!-- Node5 -->
<g id="node5" class="node">
<title>Node5</title>
<g id="a_node5"><a xlink:title=" ">
<polygon fill="white" stroke="#bfbfbf" points="142.5,-56.5 142.5,-75.5 186.5,-75.5 186.5,-56.5 142.5,-56.5"/>
<text text-anchor="middle" x="164.5" y="-63.5" font-family="Helvetica,sans-Serif" font-size="10.00">string</text>
</a>
</g>
</g>
<!-- Node1&#45;&gt;Node5 -->
<g id="edge8" class="edge">
<title>Node1&#45;&gt;Node5</title>
<path fill="none" stroke="midnightblue" d="M209.87,-168.45C201.72,-159.92 189.69,-146.08 182.5,-132 175.01,-117.34 170.31,-99.17 167.61,-85.77"/>
<polygon fill="midnightblue" stroke="midnightblue" points="171.03,-85.03 165.78,-75.82 164.14,-86.29 171.03,-85.03"/>
</g>
<!-- Node7 -->
<g id="node7" class="node">
<title>Node7</title>
<g id="a_node7"><a xlink:title=" ">
<polygon fill="white" stroke="#bfbfbf" points="191.5,-112.5 191.5,-131.5 245.5,-131.5 245.5,-112.5 191.5,-112.5"/>
<text text-anchor="middle" x="218.5" y="-119.5" font-family="Helvetica,sans-Serif" font-size="10.00">random</text>
</a>
</g>
</g>
<!-- Node1&#45;&gt;Node7 -->
<g id="edge6" class="edge">
<title>Node1&#45;&gt;Node7</title>
<path fill="none" stroke="midnightblue" d="M218.5,-168.08C218.5,-161.01 218.5,-150.86 218.5,-141.99"/>
<polygon fill="midnightblue" stroke="midnightblue" points="222,-141.75 218.5,-131.75 215,-141.75 222,-141.75"/>
</g>
<!-- Node8 -->
<g id="node8" class="node">
<title>Node8</title>
<g id="a_node8"><a xlink:title=" ">
<polygon fill="white" stroke="#bfbfbf" points="263.5,-112.5 263.5,-131.5 327.5,-131.5 327.5,-112.5 263.5,-112.5"/>
<text text-anchor="middle" x="295.5" y="-119.5" font-family="Helvetica,sans-Serif" font-size="10.00">algorithm</text>
</a>
</g>
</g>
<!-- Node1&#45;&gt;Node8 -->
<g id="edge7" class="edge">
<title>Node1&#45;&gt;Node8</title>
<path fill="none" stroke="midnightblue" d="M230.87,-168.32C242.66,-160.06 260.63,-147.45 274.64,-137.63"/>
<polygon fill="midnightblue" stroke="midnightblue" points="276.98,-140.26 283.16,-131.65 272.96,-134.53 276.98,-140.26"/>
</g>
<!-- Node9 -->
<g id="node9" class="node">
<title>Node9</title>
<g id="a_node9"><a xlink:title=" ">
<polygon fill="white" stroke="#bfbfbf" points="345.5,-112.5 345.5,-131.5 405.5,-131.5 405.5,-112.5 345.5,-112.5"/>
<text text-anchor="middle" x="375.5" y="-119.5" font-family="Helvetica,sans-Serif" font-size="10.00">iostream</text>
</a>
</g>
</g>
<!-- Node1&#45;&gt;Node9 -->
<g id="edge9" class="edge">
<title>Node1&#45;&gt;Node9</title>
<path fill="none" stroke="midnightblue" d="M243.38,-168.44C269.79,-159.36 311.72,-144.94 341.24,-134.78"/>
<polygon fill="midnightblue" stroke="midnightblue" points="342.42,-138.08 350.74,-131.52 340.14,-131.46 342.42,-138.08"/>
</g>
<!-- Node3 -->
<g id="node3" class="node">
<title>Node3</title>
<g id="a_node3"><a xlink:href="Enums_8h.html" target="_top" xlink:title=" ">
<polygon fill="white" stroke="black" points="0,-56.5 0,-75.5 59,-75.5 59,-56.5 0,-56.5"/>
<text text-anchor="middle" x="29.5" y="-63.5" font-family="Helvetica,sans-Serif" font-size="10.00">Enums.h</text>
</a>
</g>
</g>
<!-- Node2&#45;&gt;Node3 -->
<g id="edge2" class="edge">
<title>Node2&#45;&gt;Node3</title>
<path fill="none" stroke="midnightblue" d="M90.77,-112.32C79.66,-104.11 62.76,-91.6 49.52,-81.81"/>
<polygon fill="midnightblue" stroke="midnightblue" points="51.56,-78.97 41.44,-75.83 47.4,-84.59 51.56,-78.97"/>
</g>
<!-- Node2&#45;&gt;Node5 -->
<g id="edge4" class="edge">
<title>Node2&#45;&gt;Node5</title>
<path fill="none" stroke="midnightblue" d="M112.46,-112.32C121.63,-104.34 135.44,-92.31 146.53,-82.65"/>
<polygon fill="midnightblue" stroke="midnightblue" points="149.12,-85.04 154.36,-75.83 144.52,-79.76 149.12,-85.04"/>
</g>
<!-- Node6 -->
<g id="node6" class="node">
<title>Node6</title>
<g id="a_node6"><a xlink:title=" ">
<polygon fill="white" stroke="#bfbfbf" points="77,-56.5 77,-75.5 124,-75.5 124,-56.5 77,-56.5"/>
<text text-anchor="middle" x="100.5" y="-63.5" font-family="Helvetica,sans-Serif" font-size="10.00">vector</text>
</a>
</g>
</g>
<!-- Node2&#45;&gt;Node6 -->
<g id="edge5" class="edge">
<title>Node2&#45;&gt;Node6</title>
<path fill="none" stroke="midnightblue" d="M102.17,-112.08C101.91,-105.01 101.53,-94.86 101.2,-85.99"/>
<polygon fill="midnightblue" stroke="midnightblue" points="104.69,-85.61 100.82,-75.75 97.7,-85.87 104.69,-85.61"/>
</g>
<!-- Node4 -->
<g id="node4" class="node">
<title>Node4</title>
<g id="a_node4"><a xlink:title=" ">
<polygon fill="white" stroke="#bfbfbf" points="7,-0.5 7,-19.5 52,-19.5 52,-0.5 7,-0.5"/>
<text text-anchor="middle" x="29.5" y="-7.5" font-family="Helvetica,sans-Serif" font-size="10.00">utility</text>
</a>
</g>
</g>
<!-- Node3&#45;&gt;Node4 -->
<g id="edge3" class="edge">
<title>Node3&#45;&gt;Node4</title>
<path fill="none" stroke="midnightblue" d="M29.5,-56.08C29.5,-49.01 29.5,-38.86 29.5,-29.99"/>
<polygon fill="midnightblue" stroke="midnightblue" points="33,-29.75 29.5,-19.75 26,-29.75 33,-29.75"/>
</g>
</g>
</svg>
