<?xml version="1.0" encoding="UTF-8" standalone="no"?>
<!DOCTYPE svg PUBLIC "-//W3C//DTD SVG 1.1//EN"
 "http://www.w3.org/Graphics/SVG/1.1/DTD/svg11.dtd">
<!-- Generated by graphviz version 2.43.0 (0)
 -->
<!-- Title: Graphical Class Hierarchy Pages: 1 -->
<svg width="314pt" height="218pt"
 viewBox="0.00 0.00 314.00 218.00" xmlns="http://www.w3.org/2000/svg" xmlns:xlink="http://www.w3.org/1999/xlink">
<g id="graph0" class="graph" transform="scale(1 1) rotate(0) translate(4 214)">
<title>Graphical Class Hierarchy</title>
<polygon fill="white" stroke="transparent" points="-4,4 -4,-214 310,-214 310,4 -4,4"/>
<!-- Node0 -->
<g id="node1" class="node">
<title>Node0</title>
<g id="a_node1"><a xlink:href="classGameObject.html" target="_top" xlink:title=" ">
<polygon fill="white" stroke="black" points="0,-76.5 0,-95.5 77,-95.5 77,-76.5 0,-76.5"/>
<text text-anchor="middle" x="38.5" y="-83.5" font-family="Helvetica,sans-Serif" font-size="10.00">GameObject</text>
</a>
</g>
</g>
<!-- Node1 -->
<g id="node2" class="node">
<title>Node1</title>
<g id="a_node2"><a xlink:href="classInteractiveObject.html" target="_top" xlink:title=" ">
<polygon fill="white" stroke="black" points="113,-114.5 113,-133.5 214,-133.5 214,-114.5 113,-114.5"/>
<text text-anchor="middle" x="163.5" y="-121.5" font-family="Helvetica,sans-Serif" font-size="10.00">InteractiveObject</text>
</a>
</g>
</g>
<!-- Node0&#45;&gt;Node1 -->
<g id="edge1" class="edge">
<title>Node0&#45;&gt;Node1</title>
<path fill="none" stroke="midnightblue" d="M80.54,-98.68C97.16,-103.81 116.03,-109.64 131.47,-114.41"/>
<polygon fill="midnightblue" stroke="midnightblue" points="81.13,-95.2 70.54,-95.59 79.06,-101.88 81.13,-95.2"/>
</g>
<!-- Node6 -->
<g id="node7" class="node">
<title>Node6</title>
<g id="a_node7"><a xlink:href="classMovingObject.html" target="_top" xlink:title=" ">
<polygon fill="white" stroke="black" points="121.5,-38.5 121.5,-57.5 205.5,-57.5 205.5,-38.5 121.5,-38.5"/>
<text text-anchor="middle" x="163.5" y="-45.5" font-family="Helvetica,sans-Serif" font-size="10.00">MovingObject</text>
</a>
</g>
</g>
<!-- Node0&#45;&gt;Node6 -->
<g id="edge6" class="edge">
<title>Node0&#45;&gt;Node6</title>
<path fill="none" stroke="midnightblue" d="M80.54,-73.32C97.16,-68.19 116.03,-62.36 131.47,-57.59"/>
<polygon fill="midnightblue" stroke="midnightblue" points="79.06,-70.12 70.54,-76.41 81.13,-76.8 79.06,-70.12"/>
</g>
<!-- Node2 -->
<g id="node3" class="node">
<title>Node2</title>
<g id="a_node3"><a xlink:href="classCherry.html" target="_top" xlink:title=" ">
<polygon fill="white" stroke="black" points="253.5,-190.5 253.5,-209.5 302.5,-209.5 302.5,-190.5 253.5,-190.5"/>
<text text-anchor="middle" x="278" y="-197.5" font-family="Helvetica,sans-Serif" font-size="10.00">Cherry</text>
</a>
</g>
</g>
<!-- Node1&#45;&gt;Node2 -->
<g id="edge2" class="edge">
<title>Node1&#45;&gt;Node2</title>
<path fill="none" stroke="midnightblue" d="M187.09,-139.26C209.71,-154.54 243.82,-177.59 262.87,-190.45"/>
<polygon fill="midnightblue" stroke="midnightblue" points="188.99,-136.32 178.75,-133.63 185.08,-142.12 188.99,-136.32"/>
</g>
<!-- Node3 -->
<g id="node4" class="node">
<title>Node3</title>
<g id="a_node4"><a xlink:href="classCoin.html" target="_top" xlink:title=" ">
<polygon fill="white" stroke="black" points="259,-152.5 259,-171.5 297,-171.5 297,-152.5 259,-152.5"/>
<text text-anchor="middle" x="278" y="-159.5" font-family="Helvetica,sans-Serif" font-size="10.00">Coin</text>
</a>
</g>
</g>
<!-- Node1&#45;&gt;Node3 -->
<g id="edge3" class="edge">
<title>Node1&#45;&gt;Node3</title>
<path fill="none" stroke="midnightblue" d="M202.5,-136.83C221.52,-143.26 243.67,-150.74 258.84,-155.87"/>
<polygon fill="midnightblue" stroke="midnightblue" points="203.48,-133.47 192.89,-133.59 201.24,-140.11 203.48,-133.47"/>
</g>
<!-- Node4 -->
<g id="node5" class="node">
<title>Node4</title>
<g id="a_node5"><a xlink:href="classTeleport.html" target="_top" xlink:title=" ">
<polygon fill="white" stroke="black" points="250,-114.5 250,-133.5 306,-133.5 306,-114.5 250,-114.5"/>
<text text-anchor="middle" x="278" y="-121.5" font-family="Helvetica,sans-Serif" font-size="10.00">Teleport</text>
</a>
</g>
</g>
<!-- Node1&#45;&gt;Node4 -->
<g id="edge4" class="edge">
<title>Node1&#45;&gt;Node4</title>
<path fill="none" stroke="midnightblue" d="M224.26,-124C233.2,-124 242.01,-124 249.8,-124"/>
<polygon fill="midnightblue" stroke="midnightblue" points="224.17,-120.5 214.17,-124 224.17,-127.5 224.17,-120.5"/>
</g>
<!-- Node5 -->
<g id="node6" class="node">
<title>Node5</title>
<g id="a_node6"><a xlink:href="classWall.html" target="_top" xlink:title=" ">
<polygon fill="white" stroke="black" points="259,-76.5 259,-95.5 297,-95.5 297,-76.5 259,-76.5"/>
<text text-anchor="middle" x="278" y="-83.5" font-family="Helvetica,sans-Serif" font-size="10.00">Wall</text>
</a>
</g>
</g>
<!-- Node1&#45;&gt;Node5 -->
<g id="edge5" class="edge">
<title>Node1&#45;&gt;Node5</title>
<path fill="none" stroke="midnightblue" d="M202.5,-111.17C221.52,-104.74 243.67,-97.26 258.84,-92.13"/>
<polygon fill="midnightblue" stroke="midnightblue" points="201.24,-107.89 192.89,-114.41 203.48,-114.53 201.24,-107.89"/>
</g>
<!-- Node7 -->
<g id="node8" class="node">
<title>Node7</title>
<g id="a_node8"><a xlink:href="classGhost.html" target="_top" xlink:title=" ">
<polygon fill="white" stroke="black" points="255.5,-38.5 255.5,-57.5 300.5,-57.5 300.5,-38.5 255.5,-38.5"/>
<text text-anchor="middle" x="278" y="-45.5" font-family="Helvetica,sans-Serif" font-size="10.00">Ghost</text>
</a>
</g>
</g>
<!-- Node6&#45;&gt;Node7 -->
<g id="edge7" class="edge">
<title>Node6&#45;&gt;Node7</title>
<path fill="none" stroke="midnightblue" d="M215.77,-48C229.7,-48 244.03,-48 255.33,-48"/>
<polygon fill="midnightblue" stroke="midnightblue" points="215.75,-44.5 205.75,-48 215.75,-51.5 215.75,-44.5"/>
</g>
<!-- Node8 -->
<g id="node9" class="node">
<title>Node8</title>
<g id="a_node9"><a xlink:href="classPlayer.html" target="_top" xlink:title=" ">
<polygon fill="white" stroke="black" points="254.5,-0.5 254.5,-19.5 301.5,-19.5 301.5,-0.5 254.5,-0.5"/>
<text text-anchor="middle" x="278" y="-7.5" font-family="Helvetica,sans-Serif" font-size="10.00">Player</text>
</a>
</g>
</g>
<!-- Node6&#45;&gt;Node8 -->
<g id="edge8" class="edge">
<title>Node6&#45;&gt;Node8</title>
<path fill="none" stroke="midnightblue" d="M202.65,-35.12C219.81,-29.32 239.48,-22.67 254.28,-17.67"/>
<polygon fill="midnightblue" stroke="midnightblue" points="201.24,-31.89 192.89,-38.41 203.48,-38.53 201.24,-31.89"/>
</g>
</g>
</svg>
