<?xml version="1.0" encoding="UTF-8" standalone="no"?>
<!DOCTYPE svg PUBLIC "-//W3C//DTD SVG 1.1//EN"
 "http://www.w3.org/Graphics/SVG/1.1/DTD/svg11.dtd">
<!-- Generated by graphviz version 10.0.1 (0)
 -->
<!-- Title: Graphical Class Hierarchy Pages: 1 -->
<svg width="292pt" height="218pt"
 viewBox="0.00 0.00 291.50 218.00" xmlns="http://www.w3.org/2000/svg" xmlns:xlink="http://www.w3.org/1999/xlink">
<g id="graph0" class="graph" transform="scale(1 1) rotate(0) translate(4 214)">
<title>Graphical Class Hierarchy</title>
<!-- Node0 -->
<g id="Node000000" class="node">
<title>Node0</title>
<g id="a_Node000000"><a xlink:href="classGameObject.html" target="_top" xlink:title=" ">
<polygon fill="white" stroke="#666666" points="70.75,-96 0,-96 0,-76 70.75,-76 70.75,-96"/>
<text text-anchor="middle" x="35.38" y="-82.5" font-family="Helvetica,sans-Serif" font-size="10.00">GameObject</text>
</a>
</g>
</g>
<!-- Node1 -->
<g id="Node000001" class="node">
<title>Node1</title>
<g id="a_Node000001"><a xlink:href="classInteractiveObject.html" target="_top" xlink:title=" ">
<polygon fill="white" stroke="#666666" points="197,-134 106.75,-134 106.75,-114 197,-114 197,-134"/>
<text text-anchor="middle" x="151.88" y="-120.5" font-family="Helvetica,sans-Serif" font-size="10.00">InteractiveObject</text>
</a>
</g>
</g>
<!-- Node0&#45;&gt;Node1 -->
<g id="edge4_Node000000_Node000001" class="edge">
<title>Node0&#45;&gt;Node1</title>
<g id="a_edge4_Node000000_Node000001"><a xlink:title=" ">
<path fill="none" stroke="#63b8ff" d="M78.89,-100.11C92.31,-104.56 106.88,-109.4 119.39,-113.55"/>
<polygon fill="#63b8ff" stroke="#63b8ff" points="80,-96.79 69.4,-96.96 77.79,-103.43 80,-96.79"/>
</a>
</g>
</g>
<!-- Node6 -->
<g id="Node000006" class="node">
<title>Node6</title>
<g id="a_Node000006"><a xlink:href="classMovingObject.html" target="_top" xlink:title=" ">
<polygon fill="white" stroke="#666666" points="189.88,-58 113.88,-58 113.88,-38 189.88,-38 189.88,-58"/>
<text text-anchor="middle" x="151.88" y="-44.5" font-family="Helvetica,sans-Serif" font-size="10.00">MovingObject</text>
</a>
</g>
</g>
<!-- Node0&#45;&gt;Node6 -->
<g id="edge9_Node000000_Node000006" class="edge">
<title>Node0&#45;&gt;Node6</title>
<g id="a_edge9_Node000000_Node000006"><a xlink:title=" ">
<path fill="none" stroke="#63b8ff" d="M78.89,-71.89C92.31,-67.44 106.88,-62.6 119.39,-58.45"/>
<polygon fill="#63b8ff" stroke="#63b8ff" points="77.79,-68.57 69.4,-75.04 80,-75.21 77.79,-68.57"/>
</a>
</g>
</g>
<!-- Node2 -->
<g id="Node000002" class="node">
<title>Node2</title>
<g id="a_Node000002"><a xlink:href="classCherry.html" target="_top" xlink:title=" ">
<polygon fill="white" stroke="#666666" points="280.88,-210 235.62,-210 235.62,-190 280.88,-190 280.88,-210"/>
<text text-anchor="middle" x="258.25" y="-196.5" font-family="Helvetica,sans-Serif" font-size="10.00">Cherry</text>
</a>
</g>
</g>
<!-- Node1&#45;&gt;Node2 -->
<g id="edge5_Node000001_Node000002" class="edge">
<title>Node1&#45;&gt;Node2</title>
<g id="a_edge5_Node000001_Node000002"><a xlink:title=" ">
<path fill="none" stroke="#63b8ff" d="M176.23,-141.01C196.74,-155.94 225.89,-177.17 243.06,-189.67"/>
<polygon fill="#63b8ff" stroke="#63b8ff" points="178.32,-138.2 168.18,-135.14 174.2,-143.86 178.32,-138.2"/>
</a>
</g>
</g>
<!-- Node3 -->
<g id="Node000003" class="node">
<title>Node3</title>
<g id="a_Node000003"><a xlink:href="classCoin.html" target="_top" xlink:title=" ">
<polygon fill="white" stroke="#666666" points="276.38,-172 240.12,-172 240.12,-152 276.38,-152 276.38,-172"/>
<text text-anchor="middle" x="258.25" y="-158.5" font-family="Helvetica,sans-Serif" font-size="10.00">Coin</text>
</a>
</g>
</g>
<!-- Node1&#45;&gt;Node3 -->
<g id="edge6_Node000001_Node000003" class="edge">
<title>Node1&#45;&gt;Node3</title>
<g id="a_edge6_Node000001_Node000003"><a xlink:title=" ">
<path fill="none" stroke="#63b8ff" d="M192.1,-138.28C208.48,-144.24 226.68,-150.87 239.67,-155.6"/>
<polygon fill="#63b8ff" stroke="#63b8ff" points="193.69,-135.13 183.09,-135 191.29,-141.71 193.69,-135.13"/>
</a>
</g>
</g>
<!-- Node4 -->
<g id="Node000004" class="node">
<title>Node4</title>
<g id="a_Node000004"><a xlink:href="classTeleport.html" target="_top" xlink:title=" ">
<polygon fill="white" stroke="#666666" points="283.5,-134 233,-134 233,-114 283.5,-114 283.5,-134"/>
<text text-anchor="middle" x="258.25" y="-120.5" font-family="Helvetica,sans-Serif" font-size="10.00">Teleport</text>
</a>
</g>
</g>
<!-- Node1&#45;&gt;Node4 -->
<g id="edge7_Node000001_Node000004" class="edge">
<title>Node1&#45;&gt;Node4</title>
<g id="a_edge7_Node000001_Node000004"><a xlink:title=" ">
<path fill="none" stroke="#63b8ff" d="M208.85,-124C217.21,-124 225.45,-124 232.68,-124"/>
<polygon fill="#63b8ff" stroke="#63b8ff" points="208.96,-120.5 198.96,-124 208.96,-127.5 208.96,-120.5"/>
</a>
</g>
</g>
<!-- Node5 -->
<g id="Node000005" class="node">
<title>Node5</title>
<g id="a_Node000005"><a xlink:href="classWall.html" target="_top" xlink:title=" ">
<polygon fill="white" stroke="#666666" points="275.62,-96 240.88,-96 240.88,-76 275.62,-76 275.62,-96"/>
<text text-anchor="middle" x="258.25" y="-82.5" font-family="Helvetica,sans-Serif" font-size="10.00">Wall</text>
</a>
</g>
</g>
<!-- Node1&#45;&gt;Node5 -->
<g id="edge8_Node000001_Node000005" class="edge">
<title>Node1&#45;&gt;Node5</title>
<g id="a_edge8_Node000001_Node000005"><a xlink:title=" ">
<path fill="none" stroke="#63b8ff" d="M192.31,-109.64C209.02,-103.56 227.6,-96.8 240.58,-92.07"/>
<polygon fill="#63b8ff" stroke="#63b8ff" points="191.29,-106.29 183.09,-113 193.69,-112.87 191.29,-106.29"/>
</a>
</g>
</g>
<!-- Node7 -->
<g id="Node000007" class="node">
<title>Node7</title>
<g id="a_Node000007"><a xlink:href="classGhost.html" target="_top" xlink:title=" ">
<polygon fill="white" stroke="#666666" points="279.38,-58 237.12,-58 237.12,-38 279.38,-38 279.38,-58"/>
<text text-anchor="middle" x="258.25" y="-44.5" font-family="Helvetica,sans-Serif" font-size="10.00">Ghost</text>
</a>
</g>
</g>
<!-- Node6&#45;&gt;Node7 -->
<g id="edge10_Node000006_Node000007" class="edge">
<title>Node6&#45;&gt;Node7</title>
<g id="a_edge10_Node000006_Node000007"><a xlink:title=" ">
<path fill="none" stroke="#63b8ff" d="M201.52,-48C213.96,-48 226.66,-48 236.79,-48"/>
<polygon fill="#63b8ff" stroke="#63b8ff" points="201.78,-44.5 191.78,-48 201.78,-51.5 201.78,-44.5"/>
</a>
</g>
</g>
<!-- Node8 -->
<g id="Node000008" class="node">
<title>Node8</title>
<g id="a_Node000008"><a xlink:href="classPlayer.html" target="_top" xlink:title=" ">
<polygon fill="white" stroke="#666666" points="280.12,-20 236.38,-20 236.38,0 280.12,0 280.12,-20"/>
<text text-anchor="middle" x="258.25" y="-6.5" font-family="Helvetica,sans-Serif" font-size="10.00">Player</text>
</a>
</g>
</g>
<!-- Node6&#45;&gt;Node8 -->
<g id="edge11_Node000006_Node000008" class="edge">
<title>Node6&#45;&gt;Node8</title>
<g id="a_edge11_Node000006_Node000008"><a xlink:title=" ">
<path fill="none" stroke="#63b8ff" d="M192.2,-33.68C207.13,-28.25 223.55,-22.27 236.16,-17.68"/>
<polygon fill="#63b8ff" stroke="#63b8ff" points="191.29,-30.29 183.09,-37 193.69,-36.87 191.29,-30.29"/>
</a>
</g>
</g>
</g>
</svg>
