<?xml version="1.0" encoding="UTF-8" standalone="no"?>
<!DOCTYPE svg PUBLIC "-//W3C//DTD SVG 1.1//EN"
 "http://www.w3.org/Graphics/SVG/1.1/DTD/svg11.dtd">
<!-- Generated by graphviz version 10.0.1 (0)
 -->
<!-- Title: Graphical Class Hierarchy Pages: 1 -->
<svg width="229pt" height="104pt"
 viewBox="0.00 0.00 229.00 104.00" xmlns="http://www.w3.org/2000/svg" xmlns:xlink="http://www.w3.org/1999/xlink">
<g id="graph0" class="graph" transform="scale(1 1) rotate(0) translate(4 100)">
<title>Graphical Class Hierarchy</title>
<!-- Node0 -->
<g id="Node000000" class="node">
<title>Node0</title>
<g id="a_Node000000"><a xlink:href="classEnemyBehavior.html" target="_top" xlink:title=" ">
<polygon fill="white" stroke="#666666" points="85,-58 0,-58 0,-38 85,-38 85,-58"/>
<text text-anchor="middle" x="42.5" y="-44.5" font-family="Helvetica,sans-Serif" font-size="10.00">EnemyBehavior</text>
</a>
</g>
</g>
<!-- Node1 -->
<g id="Node000001" class="node">
<title>Node1</title>
<g id="a_Node000001"><a xlink:href="structChaseBehavior.html" target="_top" xlink:title=" ">
<polygon fill="white" stroke="#666666" points="212.38,-96 129.62,-96 129.62,-76 212.38,-76 212.38,-96"/>
<text text-anchor="middle" x="171" y="-82.5" font-family="Helvetica,sans-Serif" font-size="10.00">ChaseBehavior</text>
</a>
</g>
</g>
<!-- Node0&#45;&gt;Node1 -->
<g id="edge1_Node000000_Node000001" class="edge">
<title>Node0&#45;&gt;Node1</title>
<g id="a_edge1_Node000000_Node000001"><a xlink:title=" ">
<path fill="none" stroke="#63b8ff" d="M89.14,-61.71C104.33,-66.27 120.98,-71.28 135.21,-75.55"/>
<polygon fill="#63b8ff" stroke="#63b8ff" points="90.44,-58.44 79.85,-58.92 88.42,-65.15 90.44,-58.44"/>
</a>
</g>
</g>
<!-- Node2 -->
<g id="Node000002" class="node">
<title>Node2</title>
<g id="a_Node000002"><a xlink:href="structFrightenedBehavior.html" target="_top" xlink:title=" ">
<polygon fill="white" stroke="#666666" points="221,-58 121,-58 121,-38 221,-38 221,-58"/>
<text text-anchor="middle" x="171" y="-44.5" font-family="Helvetica,sans-Serif" font-size="10.00">FrightenedBehavior</text>
</a>
</g>
</g>
<!-- Node0&#45;&gt;Node2 -->
<g id="edge2_Node000000_Node000002" class="edge">
<title>Node0&#45;&gt;Node2</title>
<g id="a_edge2_Node000000_Node000002"><a xlink:title=" ">
<path fill="none" stroke="#63b8ff" d="M96.74,-48C104.72,-48 112.92,-48 120.8,-48"/>
<polygon fill="#63b8ff" stroke="#63b8ff" points="96.78,-44.5 86.78,-48 96.78,-51.5 96.78,-44.5"/>
</a>
</g>
</g>
<!-- Node3 -->
<g id="Node000003" class="node">
<title>Node3</title>
<g id="a_Node000003"><a xlink:href="structScatterBehavior.html" target="_top" xlink:title=" ">
<polygon fill="white" stroke="#666666" points="213.88,-20 128.12,-20 128.12,0 213.88,0 213.88,-20"/>
<text text-anchor="middle" x="171" y="-6.5" font-family="Helvetica,sans-Serif" font-size="10.00">ScatterBehavior</text>
</a>
</g>
</g>
<!-- Node0&#45;&gt;Node3 -->
<g id="edge3_Node000000_Node000003" class="edge">
<title>Node0&#45;&gt;Node3</title>
<g id="a_edge3_Node000000_Node000003"><a xlink:title=" ">
<path fill="none" stroke="#63b8ff" d="M89.14,-34.29C104.33,-29.73 120.98,-24.72 135.21,-20.45"/>
<polygon fill="#63b8ff" stroke="#63b8ff" points="88.42,-30.85 79.85,-37.08 90.44,-37.56 88.42,-30.85"/>
</a>
</g>
</g>
</g>
</svg>
