<?xml version="1.0" encoding="UTF-8" standalone="no"?>
<!DOCTYPE svg PUBLIC "-//W3C//DTD SVG 1.1//EN"
 "http://www.w3.org/Graphics/SVG/1.1/DTD/svg11.dtd">
<!-- Generated by graphviz version 10.0.1 (0)
 -->
<!-- Title: src/InteractiveObject.h Pages: 1 -->
<svg width="622pt" height="196pt"
 viewBox="0.00 0.00 622.25 196.00" xmlns="http://www.w3.org/2000/svg" xmlns:xlink="http://www.w3.org/1999/xlink">
<g id="graph0" class="graph" transform="scale(1 1) rotate(0) translate(4 192)">
<title>src/InteractiveObject.h</title>
<!-- Node1 -->
<g id="Node000001" class="node">
<title>Node1</title>
<g id="a_Node000001"><a xlink:title="Base class for all interactive objects.">
<polygon fill="#999999" stroke="#666666" points="368,-188 253,-188 253,-168 368,-168 368,-188"/>
<text text-anchor="middle" x="310.5" y="-174.5" font-family="Helvetica,sans-Serif" font-size="10.00">src/InteractiveObject.h</text>
</a>
</g>
</g>
<!-- Node2 -->
<g id="Node000002" class="node">
<title>Node2</title>
<g id="a_Node000002"><a xlink:href="Cherry_8h.html" target="_top" xlink:title="Class representing a cherry collectible.">
<polygon fill="white" stroke="#666666" points="135.75,-132 67.25,-132 67.25,-112 135.75,-112 135.75,-132"/>
<text text-anchor="middle" x="101.5" y="-118.5" font-family="Helvetica,sans-Serif" font-size="10.00">src/Cherry.h</text>
</a>
</g>
</g>
<!-- Node1&#45;&gt;Node2 -->
<g id="edge1_Node000001_Node000002" class="edge">
<title>Node1&#45;&gt;Node2</title>
<g id="a_edge1_Node000001_Node000002"><a xlink:title=" ">
<path fill="none" stroke="#63b8ff" d="M263.12,-164.76C224.48,-154.78 170.8,-140.9 136.1,-131.94"/>
<polygon fill="#63b8ff" stroke="#63b8ff" points="262.07,-168.1 272.63,-167.22 263.82,-161.32 262.07,-168.1"/>
</a>
</g>
</g>
<!-- Node5 -->
<g id="Node000005" class="node">
<title>Node5</title>
<g id="a_Node000005"><a xlink:href="Coin_8h.html" target="_top" xlink:title="Class representing a coin collectible.">
<polygon fill="white" stroke="#666666" points="215,-132 154,-132 154,-112 215,-112 215,-132"/>
<text text-anchor="middle" x="184.5" y="-118.5" font-family="Helvetica,sans-Serif" font-size="10.00">src/Coin.h</text>
</a>
</g>
</g>
<!-- Node1&#45;&gt;Node5 -->
<g id="edge4_Node000001_Node000005" class="edge">
<title>Node1&#45;&gt;Node5</title>
<g id="a_edge4_Node000001_Node000005"><a xlink:title=" ">
<path fill="none" stroke="#63b8ff" d="M278.16,-163.14C255.72,-153.52 226.43,-140.97 206.62,-132.48"/>
<polygon fill="#63b8ff" stroke="#63b8ff" points="276.59,-166.28 287.16,-167 279.35,-159.84 276.59,-166.28"/>
</a>
</g>
</g>
<!-- Node7 -->
<g id="Node000007" class="node">
<title>Node7</title>
<g id="a_Node000007"><a xlink:href="Game_8h.html" target="_top" xlink:title="Class for handling the game logic.">
<polygon fill="white" stroke="#666666" points="300,-132 233,-132 233,-112 300,-112 300,-132"/>
<text text-anchor="middle" x="266.5" y="-118.5" font-family="Helvetica,sans-Serif" font-size="10.00">src/Game.h</text>
</a>
</g>
</g>
<!-- Node1&#45;&gt;Node7 -->
<g id="edge7_Node000001_Node000007" class="edge">
<title>Node1&#45;&gt;Node7</title>
<g id="a_edge7_Node000001_Node000007"><a xlink:title=" ">
<path fill="none" stroke="#63b8ff" d="M295.61,-158.72C288.37,-149.84 279.98,-139.55 274.08,-132.3"/>
<polygon fill="#63b8ff" stroke="#63b8ff" points="292.85,-160.88 301.88,-166.42 298.28,-156.46 292.85,-160.88"/>
</a>
</g>
</g>
<!-- Node11 -->
<g id="Node000011" class="node">
<title>Node11</title>
<g id="a_Node000011"><a xlink:href="InteractiveObject_8cpp.html" target="_top" xlink:title="Base class for all interactive objects.">
<polygon fill="white" stroke="#666666" points="614.25,-132 488.75,-132 488.75,-112 614.25,-112 614.25,-132"/>
<text text-anchor="middle" x="551.5" y="-118.5" font-family="Helvetica,sans-Serif" font-size="10.00">src/InteractiveObject.cpp</text>
</a>
</g>
</g>
<!-- Node1&#45;&gt;Node11 -->
<g id="edge12_Node000001_Node000011" class="edge">
<title>Node1&#45;&gt;Node11</title>
<g id="a_edge12_Node000001_Node000011"><a xlink:title=" ">
<path fill="none" stroke="#63b8ff" d="M363.77,-165.06C407.58,-155.25 468.83,-141.52 509.29,-132.46"/>
<polygon fill="#63b8ff" stroke="#63b8ff" points="363.22,-161.6 354.23,-167.2 364.76,-168.43 363.22,-161.6"/>
</a>
</g>
</g>
<!-- Node12 -->
<g id="Node000012" class="node">
<title>Node12</title>
<g id="a_Node000012"><a xlink:href="Teleport_8h.html" target="_top" xlink:title="Represents a teleport object.">
<polygon fill="white" stroke="#666666" points="393.12,-132 317.88,-132 317.88,-112 393.12,-112 393.12,-132"/>
<text text-anchor="middle" x="355.5" y="-118.5" font-family="Helvetica,sans-Serif" font-size="10.00">src/Teleport.h</text>
</a>
</g>
</g>
<!-- Node1&#45;&gt;Node12 -->
<g id="edge13_Node000001_Node000012" class="edge">
<title>Node1&#45;&gt;Node12</title>
<g id="a_edge13_Node000001_Node000012"><a xlink:title=" ">
<path fill="none" stroke="#63b8ff" d="M325.5,-159C332.95,-150.06 341.65,-139.62 347.75,-132.3"/>
<polygon fill="#63b8ff" stroke="#63b8ff" points="323.02,-156.51 319.31,-166.43 328.4,-160.99 323.02,-156.51"/>
</a>
</g>
</g>
<!-- Node14 -->
<g id="Node000014" class="node">
<title>Node14</title>
<g id="a_Node000014"><a xlink:href="Wall_8h.html" target="_top" xlink:title="Represents a wall object.">
<polygon fill="white" stroke="#666666" points="470.25,-132 410.75,-132 410.75,-112 470.25,-112 470.25,-132"/>
<text text-anchor="middle" x="440.5" y="-118.5" font-family="Helvetica,sans-Serif" font-size="10.00">src/Wall.h</text>
</a>
</g>
</g>
<!-- Node1&#45;&gt;Node14 -->
<g id="edge16_Node000001_Node000014" class="edge">
<title>Node1&#45;&gt;Node14</title>
<g id="a_edge16_Node000001_Node000014"><a xlink:title=" ">
<path fill="none" stroke="#63b8ff" d="M343.55,-163.27C366.74,-153.64 397.15,-141.01 417.68,-132.48"/>
<polygon fill="#63b8ff" stroke="#63b8ff" points="342.43,-159.94 334.54,-167.01 345.12,-166.41 342.43,-159.94"/>
</a>
</g>
</g>
<!-- Node3 -->
<g id="Node000003" class="node">
<title>Node3</title>
<g id="a_Node000003"><a xlink:href="Cherry_8cpp.html" target="_top" xlink:title="Class representing a cherry collectible.">
<polygon fill="white" stroke="#666666" points="79,-76 0,-76 0,-56 79,-56 79,-76"/>
<text text-anchor="middle" x="39.5" y="-62.5" font-family="Helvetica,sans-Serif" font-size="10.00">src/Cherry.cpp</text>
</a>
</g>
</g>
<!-- Node2&#45;&gt;Node3 -->
<g id="edge2_Node000002_Node000003" class="edge">
<title>Node2&#45;&gt;Node3</title>
<g id="a_edge2_Node000002_Node000003"><a xlink:title=" ">
<path fill="none" stroke="#63b8ff" d="M82.13,-104.13C71.58,-94.94 58.94,-83.93 50.18,-76.3"/>
<polygon fill="#63b8ff" stroke="#63b8ff" points="79.72,-106.67 89.56,-110.6 84.32,-101.39 79.72,-106.67"/>
</a>
</g>
</g>
<!-- Node4 -->
<g id="Node000004" class="node">
<title>Node4</title>
<g id="a_Node000004"><a xlink:href="Game_8cpp.html" target="_top" xlink:title="Class for handling the game logic.">
<polygon fill="white" stroke="#666666" points="264.25,-76 186.75,-76 186.75,-56 264.25,-56 264.25,-76"/>
<text text-anchor="middle" x="225.5" y="-62.5" font-family="Helvetica,sans-Serif" font-size="10.00">src/Game.cpp</text>
</a>
</g>
</g>
<!-- Node2&#45;&gt;Node4 -->
<g id="edge3_Node000002_Node000004" class="edge">
<title>Node2&#45;&gt;Node4</title>
<g id="a_edge3_Node000002_Node000004"><a xlink:title=" ">
<path fill="none" stroke="#63b8ff" d="M133.63,-107.01C155.67,-97.41 184.33,-84.93 203.73,-76.48"/>
<polygon fill="#63b8ff" stroke="#63b8ff" points="132.26,-103.79 124.49,-110.99 135.05,-110.21 132.26,-103.79"/>
</a>
</g>
</g>
<!-- Node5&#45;&gt;Node4 -->
<g id="edge6_Node000005_Node000004" class="edge">
<title>Node5&#45;&gt;Node4</title>
<g id="a_edge6_Node000005_Node000004"><a xlink:title=" ">
<path fill="none" stroke="#63b8ff" d="M198.59,-102.44C205.29,-93.62 213,-83.47 218.44,-76.3"/>
<polygon fill="#63b8ff" stroke="#63b8ff" points="195.82,-100.31 192.56,-110.39 201.39,-104.54 195.82,-100.31"/>
</a>
</g>
</g>
<!-- Node6 -->
<g id="Node000006" class="node">
<title>Node6</title>
<g id="a_Node000006"><a xlink:href="Coin_8cpp.html" target="_top" xlink:title="Class representing a coin collectible.">
<polygon fill="white" stroke="#666666" points="168.25,-76 96.75,-76 96.75,-56 168.25,-56 168.25,-76"/>
<text text-anchor="middle" x="132.5" y="-62.5" font-family="Helvetica,sans-Serif" font-size="10.00">src/Coin.cpp</text>
</a>
</g>
</g>
<!-- Node5&#45;&gt;Node6 -->
<g id="edge5_Node000005_Node000006" class="edge">
<title>Node5&#45;&gt;Node6</title>
<g id="a_edge5_Node000005_Node000006"><a xlink:title=" ">
<path fill="none" stroke="#63b8ff" d="M167.71,-103.57C158.98,-94.5 148.66,-83.78 141.45,-76.3"/>
<polygon fill="#63b8ff" stroke="#63b8ff" points="164.93,-105.73 174.39,-110.5 169.98,-100.87 164.93,-105.73"/>
</a>
</g>
</g>
<!-- Node7&#45;&gt;Node4 -->
<g id="edge8_Node000007_Node000004" class="edge">
<title>Node7&#45;&gt;Node4</title>
<g id="a_edge8_Node000007_Node000004"><a xlink:title=" ">
<path fill="none" stroke="#63b8ff" d="M252.41,-102.44C245.71,-93.62 238,-83.47 232.56,-76.3"/>
<polygon fill="#63b8ff" stroke="#63b8ff" points="249.61,-104.54 258.44,-110.39 255.18,-100.31 249.61,-104.54"/>
</a>
</g>
</g>
<!-- Node8 -->
<g id="Node000008" class="node">
<title>Node8</title>
<g id="a_Node000008"><a xlink:href="GameManager_8h.html" target="_top" xlink:title="Handles the game loop and game states.">
<polygon fill="white" stroke="#666666" points="386.38,-76 282.62,-76 282.62,-56 386.38,-56 386.38,-76"/>
<text text-anchor="middle" x="334.5" y="-62.5" font-family="Helvetica,sans-Serif" font-size="10.00">src/GameManager.h</text>
</a>
</g>
</g>
<!-- Node7&#45;&gt;Node8 -->
<g id="edge9_Node000007_Node000008" class="edge">
<title>Node7&#45;&gt;Node8</title>
<g id="a_edge9_Node000007_Node000008"><a xlink:title=" ">
<path fill="none" stroke="#63b8ff" d="M287.05,-104.68C298.75,-95.39 312.98,-84.09 322.79,-76.3"/>
<polygon fill="#63b8ff" stroke="#63b8ff" points="285.18,-101.69 279.53,-110.65 289.54,-107.17 285.18,-101.69"/>
</a>
</g>
</g>
<!-- Node9 -->
<g id="Node000009" class="node">
<title>Node9</title>
<g id="a_Node000009"><a xlink:href="GameManager_8cpp.html" target="_top" xlink:title="Handles the game loop and game states.">
<polygon fill="white" stroke="#666666" points="336.62,-20 222.38,-20 222.38,0 336.62,0 336.62,-20"/>
<text text-anchor="middle" x="279.5" y="-6.5" font-family="Helvetica,sans-Serif" font-size="10.00">src/GameManager.cpp</text>
</a>
</g>
</g>
<!-- Node8&#45;&gt;Node9 -->
<g id="edge10_Node000008_Node000009" class="edge">
<title>Node8&#45;&gt;Node9</title>
<g id="a_edge10_Node000008_Node000009"><a xlink:title=" ">
<path fill="none" stroke="#63b8ff" d="M316.74,-47.57C307.51,-38.5 296.59,-27.78 288.97,-20.3"/>
<polygon fill="#63b8ff" stroke="#63b8ff" points="314.25,-50.03 323.84,-54.53 319.16,-45.03 314.25,-50.03"/>
</a>
</g>
</g>
<!-- Node10 -->
<g id="Node000010" class="node">
<title>Node10</title>
<g id="a_Node000010"><a xlink:href="main_8cpp.html" target="_top" xlink:title="Main function, initializes the game manager.">
<polygon fill="white" stroke="#666666" points="426.62,-20 354.38,-20 354.38,0 426.62,0 426.62,-20"/>
<text text-anchor="middle" x="390.5" y="-6.5" font-family="Helvetica,sans-Serif" font-size="10.00">src/main.cpp</text>
</a>
</g>
</g>
<!-- Node8&#45;&gt;Node10 -->
<g id="edge11_Node000008_Node000010" class="edge">
<title>Node8&#45;&gt;Node10</title>
<g id="a_edge11_Node000008_Node000010"><a xlink:title=" ">
<path fill="none" stroke="#63b8ff" d="M352.29,-47.85C361.75,-38.72 373.02,-27.86 380.86,-20.3"/>
<polygon fill="#63b8ff" stroke="#63b8ff" points="350.11,-45.08 345.34,-54.54 354.97,-50.12 350.11,-45.08"/>
</a>
</g>
</g>
<!-- Node12&#45;&gt;Node4 -->
<g id="edge14_Node000012_Node000004" class="edge">
<title>Node12&#45;&gt;Node4</title>
<g id="a_edge14_Node000012_Node000004"><a xlink:title=" ">
<path fill="none" stroke="#63b8ff" d="M322.45,-107.27C299.26,-97.64 268.85,-85.01 248.32,-76.48"/>
<polygon fill="#63b8ff" stroke="#63b8ff" points="320.88,-110.41 331.46,-111.01 323.57,-103.94 320.88,-110.41"/>
</a>
</g>
</g>
<!-- Node13 -->
<g id="Node000013" class="node">
<title>Node13</title>
<g id="a_Node000013"><a xlink:href="Teleport_8cpp.html" target="_top" xlink:title="Represents a teleport object.">
<polygon fill="white" stroke="#666666" points="490.38,-76 404.62,-76 404.62,-56 490.38,-56 490.38,-76"/>
<text text-anchor="middle" x="447.5" y="-62.5" font-family="Helvetica,sans-Serif" font-size="10.00">src/Teleport.cpp</text>
</a>
</g>
</g>
<!-- Node12&#45;&gt;Node13 -->
<g id="edge15_Node000012_Node000013" class="edge">
<title>Node12&#45;&gt;Node13</title>
<g id="a_edge15_Node000012_Node000013"><a xlink:title=" ">
<path fill="none" stroke="#63b8ff" d="M381.38,-105.81C397.43,-96.39 417.54,-84.58 431.35,-76.48"/>
<polygon fill="#63b8ff" stroke="#63b8ff" points="379.68,-102.75 372.83,-110.83 383.23,-108.78 379.68,-102.75"/>
</a>
</g>
</g>
<!-- Node14&#45;&gt;Node4 -->
<g id="edge17_Node000014_Node000004" class="edge">
<title>Node14&#45;&gt;Node4</title>
<g id="a_edge17_Node000014_Node000004"><a xlink:title=" ">
<path fill="none" stroke="#63b8ff" d="M399.57,-110.72C360.23,-100.84 301.27,-86.03 263.09,-76.44"/>
<polygon fill="#63b8ff" stroke="#63b8ff" points="398.59,-114.08 409.14,-113.12 400.29,-107.29 398.59,-114.08"/>
</a>
</g>
</g>
<!-- Node15 -->
<g id="Node000015" class="node">
<title>Node15</title>
<g id="a_Node000015"><a xlink:href="Wall_8cpp.html" target="_top" xlink:title="Represents a wall object.">
<polygon fill="white" stroke="#666666" points="578.5,-76 508.5,-76 508.5,-56 578.5,-56 578.5,-76"/>
<text text-anchor="middle" x="543.5" y="-62.5" font-family="Helvetica,sans-Serif" font-size="10.00">src/Wall.cpp</text>
</a>
</g>
</g>
<!-- Node14&#45;&gt;Node15 -->
<g id="edge18_Node000014_Node000015" class="edge">
<title>Node14&#45;&gt;Node15</title>
<g id="a_edge18_Node000014_Node000015"><a xlink:title=" ">
<path fill="none" stroke="#63b8ff" d="M468.45,-106.35C486.58,-96.84 509.67,-84.74 525.42,-76.48"/>
<polygon fill="#63b8ff" stroke="#63b8ff" points="467.01,-103.15 459.78,-110.89 470.26,-109.35 467.01,-103.15"/>
</a>
</g>
</g>
</g>
</svg>
