<?xml version="1.0" encoding="UTF-8" standalone="no"?>
<!DOCTYPE svg PUBLIC "-//W3C//DTD SVG 1.1//EN"
 "http://www.w3.org/Graphics/SVG/1.1/DTD/svg11.dtd">
<!-- Generated by graphviz version 10.0.1 (0)
 -->
<!-- Title: src/Leaderboard.h Pages: 1 -->
<svg width="225pt" height="84pt"
 viewBox="0.00 0.00 225.12 84.00" xmlns="http://www.w3.org/2000/svg" xmlns:xlink="http://www.w3.org/1999/xlink">
<g id="graph0" class="graph" transform="scale(1 1) rotate(0) translate(4 80)">
<title>src/Leaderboard.h</title>
<!-- Node1 -->
<g id="Node000001" class="node">
<title>Node1</title>
<g id="a_Node000001"><a xlink:title="Class for handling the game leaderboard.">
<polygon fill="#999999" stroke="#666666" points="155.5,-76 61.5,-76 61.5,-56 155.5,-56 155.5,-76"/>
<text text-anchor="middle" x="108.5" y="-62.5" font-family="Helvetica,sans-Serif" font-size="10.00">src/Leaderboard.h</text>
</a>
</g>
</g>
<!-- Node2 -->
<g id="Node000002" class="node">
<title>Node2</title>
<g id="a_Node000002"><a xlink:title=" ">
<polygon fill="#e0e0e0" stroke="#999999" points="43,-20 0,-20 0,0 43,0 43,-20"/>
<text text-anchor="middle" x="21.5" y="-6.5" font-family="Helvetica,sans-Serif" font-size="10.00">vector</text>
</a>
</g>
</g>
<!-- Node1&#45;&gt;Node2 -->
<g id="edge1_Node000001_Node000002" class="edge">
<title>Node1&#45;&gt;Node2</title>
<g id="a_edge1_Node000001_Node000002"><a xlink:title=" ">
<path fill="none" stroke="#63b8ff" d="M93.35,-55.59C80.45,-47.59 61.67,-35.93 46.54,-26.54"/>
<polygon fill="#63b8ff" stroke="#63b8ff" points="48.4,-23.58 38.06,-21.28 44.71,-29.53 48.4,-23.58"/>
</a>
</g>
</g>
<!-- Node3 -->
<g id="Node000003" class="node">
<title>Node3</title>
<g id="a_Node000003"><a xlink:title=" ">
<polygon fill="#e0e0e0" stroke="#999999" points="101.5,-20 61.5,-20 61.5,0 101.5,0 101.5,-20"/>
<text text-anchor="middle" x="81.5" y="-6.5" font-family="Helvetica,sans-Serif" font-size="10.00">string</text>
</a>
</g>
</g>
<!-- Node1&#45;&gt;Node3 -->
<g id="edge2_Node000001_Node000003" class="edge">
<title>Node1&#45;&gt;Node3</title>
<g id="a_edge2_Node000001_Node000003"><a xlink:title=" ">
<path fill="none" stroke="#63b8ff" d="M103.8,-55.59C100.35,-48.7 95.55,-39.1 91.29,-30.57"/>
<polygon fill="#63b8ff" stroke="#63b8ff" points="94.43,-29.03 86.83,-21.65 88.17,-32.16 94.43,-29.03"/>
</a>
</g>
</g>
<!-- Node4 -->
<g id="Node000004" class="node">
<title>Node4</title>
<g id="a_Node000004"><a xlink:title=" ">
<polygon fill="#e0e0e0" stroke="#999999" points="153.88,-20 119.12,-20 119.12,0 153.88,0 153.88,-20"/>
<text text-anchor="middle" x="136.5" y="-6.5" font-family="Helvetica,sans-Serif" font-size="10.00">map</text>
</a>
</g>
</g>
<!-- Node1&#45;&gt;Node4 -->
<g id="edge3_Node000001_Node000004" class="edge">
<title>Node1&#45;&gt;Node4</title>
<g id="a_edge3_Node000001_Node000004"><a xlink:title=" ">
<path fill="none" stroke="#63b8ff" d="M113.38,-55.59C116.99,-48.63 122.04,-38.89 126.5,-30.29"/>
<polygon fill="#63b8ff" stroke="#63b8ff" points="129.49,-32.13 130.98,-21.64 123.27,-28.91 129.49,-32.13"/>
</a>
</g>
</g>
<!-- Node5 -->
<g id="Node000005" class="node">
<title>Node5</title>
<g id="a_Node000005"><a xlink:title=" ">
<polygon fill="#e0e0e0" stroke="#999999" points="217.12,-20 171.88,-20 171.88,0 217.12,0 217.12,-20"/>
<text text-anchor="middle" x="194.5" y="-6.5" font-family="Helvetica,sans-Serif" font-size="10.00">cstdint</text>
</a>
</g>
</g>
<!-- Node1&#45;&gt;Node5 -->
<g id="edge4_Node000001_Node000005" class="edge">
<title>Node1&#45;&gt;Node5</title>
<g id="a_edge4_Node000001_Node000005"><a xlink:title=" ">
<path fill="none" stroke="#63b8ff" d="M123.48,-55.59C136.23,-47.59 154.79,-35.93 169.74,-26.54"/>
<polygon fill="#63b8ff" stroke="#63b8ff" points="171.51,-29.57 178.12,-21.28 167.79,-23.64 171.51,-29.57"/>
</a>
</g>
</g>
</g>
</svg>
