<?xml version="1.0" encoding="UTF-8" standalone="no"?>
<!DOCTYPE svg PUBLIC "-//W3C//DTD SVG 1.1//EN"
 "http://www.w3.org/Graphics/SVG/1.1/DTD/svg11.dtd">
<!-- Generated by graphviz version 10.0.1 (0)
 -->
<!-- Title: src/Leaderboard.cpp Pages: 1 -->
<svg width="501pt" height="140pt"
 viewBox="0.00 0.00 500.88 140.00" xmlns="http://www.w3.org/2000/svg" xmlns:xlink="http://www.w3.org/1999/xlink">
<g id="graph0" class="graph" transform="scale(1 1) rotate(0) translate(4 136)">
<title>src/Leaderboard.cpp</title>
<!-- Node1 -->
<g id="Node000001" class="node">
<title>Node1</title>
<g id="a_Node000001"><a xlink:title="Class for handling the game leaderboard.">
<polygon fill="#999999" stroke="#666666" points="273.75,-132 169.25,-132 169.25,-112 273.75,-112 273.75,-132"/>
<text text-anchor="middle" x="221.5" y="-118.5" font-family="Helvetica,sans-Serif" font-size="10.00">src/Leaderboard.cpp</text>
</a>
</g>
</g>
<!-- Node2 -->
<g id="Node000002" class="node">
<title>Node2</title>
<g id="a_Node000002"><a xlink:href="Leaderboard_8h.html" target="_top" xlink:title="Class for handling the game leaderboard.">
<polygon fill="white" stroke="#666666" points="166.25,-76 88.75,-76 88.75,-56 166.25,-56 166.25,-76"/>
<text text-anchor="middle" x="127.5" y="-62.5" font-family="Helvetica,sans-Serif" font-size="10.00">Leaderboard.h</text>
</a>
</g>
</g>
<!-- Node1&#45;&gt;Node2 -->
<g id="edge1_Node000001_Node000002" class="edge">
<title>Node1&#45;&gt;Node2</title>
<g id="a_edge1_Node000001_Node000002"><a xlink:title=" ">
<path fill="none" stroke="#63b8ff" d="M205.13,-111.59C190.93,-103.44 170.12,-91.48 153.62,-82"/>
<polygon fill="#63b8ff" stroke="#63b8ff" points="155.73,-79.18 145.31,-77.23 152.24,-85.25 155.73,-79.18"/>
</a>
</g>
</g>
<!-- Node3 -->
<g id="Node000003" class="node">
<title>Node3</title>
<g id="a_Node000003"><a xlink:title=" ">
<polygon fill="#e0e0e0" stroke="#999999" points="43,-20 0,-20 0,0 43,0 43,-20"/>
<text text-anchor="middle" x="21.5" y="-6.5" font-family="Helvetica,sans-Serif" font-size="10.00">vector</text>
</a>
</g>
</g>
<!-- Node1&#45;&gt;Node3 -->
<g id="edge9_Node000001_Node000003" class="edge">
<title>Node1&#45;&gt;Node3</title>
<g id="a_edge9_Node000001_Node000003"><a xlink:title=" ">
<path fill="none" stroke="#63b8ff" d="M168.87,-114.27C137.49,-108.23 98.12,-96.94 68.5,-76 52.01,-64.34 39.12,-45.03 31.04,-30.48"/>
<polygon fill="#63b8ff" stroke="#63b8ff" points="34.25,-29.07 26.52,-21.83 28.05,-32.31 34.25,-29.07"/>
</a>
</g>
</g>
<!-- Node4 -->
<g id="Node000004" class="node">
<title>Node4</title>
<g id="a_Node000004"><a xlink:title=" ">
<polygon fill="#e0e0e0" stroke="#999999" points="101.5,-20 61.5,-20 61.5,0 101.5,0 101.5,-20"/>
<text text-anchor="middle" x="81.5" y="-6.5" font-family="Helvetica,sans-Serif" font-size="10.00">string</text>
</a>
</g>
</g>
<!-- Node1&#45;&gt;Node4 -->
<g id="edge6_Node000001_Node000004" class="edge">
<title>Node1&#45;&gt;Node4</title>
<g id="a_edge6_Node000001_Node000004"><a xlink:title=" ">
<path fill="none" stroke="#63b8ff" d="M169.08,-119.09C137.63,-114.9 99.89,-103.86 79.5,-76 70.22,-63.32 71.62,-45.21 74.83,-31.32"/>
<polygon fill="#63b8ff" stroke="#63b8ff" points="78.14,-32.48 77.49,-21.91 71.41,-30.58 78.14,-32.48"/>
</a>
</g>
</g>
<!-- Node6 -->
<g id="Node000006" class="node">
<title>Node6</title>
<g id="a_Node000006"><a xlink:title=" ">
<polygon fill="#e0e0e0" stroke="#999999" points="217.12,-20 171.88,-20 171.88,0 217.12,0 217.12,-20"/>
<text text-anchor="middle" x="194.5" y="-6.5" font-family="Helvetica,sans-Serif" font-size="10.00">cstdint</text>
</a>
</g>
</g>
<!-- Node1&#45;&gt;Node6 -->
<g id="edge12_Node000001_Node000006" class="edge">
<title>Node1&#45;&gt;Node6</title>
<g id="a_edge12_Node000001_Node000006"><a xlink:title=" ">
<path fill="none" stroke="#63b8ff" d="M219.2,-111.62C214.85,-93.92 205.36,-55.24 199.49,-31.32"/>
<polygon fill="#63b8ff" stroke="#63b8ff" points="202.94,-30.7 197.16,-21.82 196.14,-32.37 202.94,-30.7"/>
</a>
</g>
</g>
<!-- Node7 -->
<g id="Node000007" class="node">
<title>Node7</title>
<g id="a_Node000007"><a xlink:title=" ">
<polygon fill="#e0e0e0" stroke="#999999" points="276.25,-76 222.75,-76 222.75,-56 276.25,-56 276.25,-76"/>
<text text-anchor="middle" x="249.5" y="-62.5" font-family="Helvetica,sans-Serif" font-size="10.00">iostream</text>
</a>
</g>
</g>
<!-- Node1&#45;&gt;Node7 -->
<g id="edge7_Node000001_Node000007" class="edge">
<title>Node1&#45;&gt;Node7</title>
<g id="a_edge7_Node000001_Node000007"><a xlink:title=" ">
<path fill="none" stroke="#63b8ff" d="M226.38,-111.59C229.99,-104.63 235.04,-94.89 239.5,-86.29"/>
<polygon fill="#63b8ff" stroke="#63b8ff" points="242.49,-88.13 243.98,-77.64 236.27,-84.91 242.49,-88.13"/>
</a>
</g>
</g>
<!-- Node8 -->
<g id="Node000008" class="node">
<title>Node8</title>
<g id="a_Node000008"><a xlink:title=" ">
<polygon fill="#e0e0e0" stroke="#999999" points="343,-76 294,-76 294,-56 343,-56 343,-76"/>
<text text-anchor="middle" x="318.5" y="-62.5" font-family="Helvetica,sans-Serif" font-size="10.00">fstream</text>
</a>
</g>
</g>
<!-- Node1&#45;&gt;Node8 -->
<g id="edge8_Node000001_Node000008" class="edge">
<title>Node1&#45;&gt;Node8</title>
<g id="a_edge8_Node000001_Node000008"><a xlink:title=" ">
<path fill="none" stroke="#63b8ff" d="M238.4,-111.59C253.05,-103.44 274.52,-91.48 291.55,-82"/>
<polygon fill="#63b8ff" stroke="#63b8ff" points="293.11,-85.14 300.15,-77.22 289.71,-79.02 293.11,-85.14"/>
</a>
</g>
</g>
<!-- Node9 -->
<g id="Node000009" class="node">
<title>Node9</title>
<g id="a_Node000009"><a xlink:title=" ">
<polygon fill="#e0e0e0" stroke="#999999" points="416.38,-76 360.62,-76 360.62,-56 416.38,-56 416.38,-76"/>
<text text-anchor="middle" x="388.5" y="-62.5" font-family="Helvetica,sans-Serif" font-size="10.00">algorithm</text>
</a>
</g>
</g>
<!-- Node1&#45;&gt;Node9 -->
<g id="edge10_Node000001_Node000009" class="edge">
<title>Node1&#45;&gt;Node9</title>
<g id="a_edge10_Node000001_Node000009"><a xlink:title=" ">
<path fill="none" stroke="#63b8ff" d="M250.59,-111.59C278.05,-102.71 319.43,-89.33 349.7,-79.55"/>
<polygon fill="#63b8ff" stroke="#63b8ff" points="350.42,-82.99 358.86,-76.58 348.27,-76.33 350.42,-82.99"/>
</a>
</g>
</g>
<!-- Node10 -->
<g id="Node000010" class="node">
<title>Node10</title>
<g id="a_Node000010"><a xlink:title=" ">
<polygon fill="#e0e0e0" stroke="#999999" points="492.88,-76 434.12,-76 434.12,-56 492.88,-56 492.88,-76"/>
<text text-anchor="middle" x="463.5" y="-62.5" font-family="Helvetica,sans-Serif" font-size="10.00">stdexcept</text>
</a>
</g>
</g>
<!-- Node1&#45;&gt;Node10 -->
<g id="edge11_Node000001_Node000010" class="edge">
<title>Node1&#45;&gt;Node10</title>
<g id="a_edge11_Node000001_Node000010"><a xlink:title=" ">
<path fill="none" stroke="#63b8ff" d="M265.32,-111.54C304.24,-103.09 362.96,-90.23 422.51,-76.66"/>
<polygon fill="#63b8ff" stroke="#63b8ff" points="423.19,-80.09 432.16,-74.46 421.64,-73.27 423.19,-80.09"/>
</a>
</g>
</g>
<!-- Node2&#45;&gt;Node3 -->
<g id="edge2_Node000002_Node000003" class="edge">
<title>Node2&#45;&gt;Node3</title>
<g id="a_edge2_Node000002_Node000003"><a xlink:title=" ">
<path fill="none" stroke="#63b8ff" d="M109.04,-55.59C92.8,-47.32 68.89,-35.14 50.17,-25.6"/>
<polygon fill="#63b8ff" stroke="#63b8ff" points="51.96,-22.59 41.46,-21.17 48.78,-28.82 51.96,-22.59"/>
</a>
</g>
</g>
<!-- Node2&#45;&gt;Node4 -->
<g id="edge3_Node000002_Node000004" class="edge">
<title>Node2&#45;&gt;Node4</title>
<g id="a_edge3_Node000002_Node000004"><a xlink:title=" ">
<path fill="none" stroke="#63b8ff" d="M119.49,-55.59C113.22,-48.24 104.33,-37.8 96.72,-28.87"/>
<polygon fill="#63b8ff" stroke="#63b8ff" points="99.55,-26.79 90.4,-21.45 94.22,-31.33 99.55,-26.79"/>
</a>
</g>
</g>
<!-- Node5 -->
<g id="Node000005" class="node">
<title>Node5</title>
<g id="a_Node000005"><a xlink:title=" ">
<polygon fill="#e0e0e0" stroke="#999999" points="153.88,-20 119.12,-20 119.12,0 153.88,0 153.88,-20"/>
<text text-anchor="middle" x="136.5" y="-6.5" font-family="Helvetica,sans-Serif" font-size="10.00">map</text>
</a>
</g>
</g>
<!-- Node2&#45;&gt;Node5 -->
<g id="edge4_Node000002_Node000005" class="edge">
<title>Node2&#45;&gt;Node5</title>
<g id="a_edge4_Node000002_Node000005"><a xlink:title=" ">
<path fill="none" stroke="#63b8ff" d="M129.07,-55.59C130.18,-48.93 131.71,-39.75 133.09,-31.44"/>
<polygon fill="#63b8ff" stroke="#63b8ff" points="136.51,-32.23 134.7,-21.79 129.61,-31.08 136.51,-32.23"/>
</a>
</g>
</g>
<!-- Node2&#45;&gt;Node6 -->
<g id="edge5_Node000002_Node000006" class="edge">
<title>Node2&#45;&gt;Node6</title>
<g id="a_edge5_Node000002_Node000006"><a xlink:title=" ">
<path fill="none" stroke="#63b8ff" d="M139.17,-55.59C148.78,-47.85 162.63,-36.69 174.07,-27.47"/>
<polygon fill="#63b8ff" stroke="#63b8ff" points="176.2,-30.25 181.78,-21.25 171.8,-24.8 176.2,-30.25"/>
</a>
</g>
</g>
</g>
</svg>
