<?xml version="1.0" encoding="UTF-8" standalone="no"?>
<!DOCTYPE svg PUBLIC "-//W3C//DTD SVG 1.1//EN"
 "http://www.w3.org/Graphics/SVG/1.1/DTD/svg11.dtd">
<!-- Generated by graphviz version 2.43.0 (0)
 -->
<!-- Title: src/main.cpp Pages: 1 -->
<svg width="1180pt" height="588pt"
 viewBox="0.00 0.00 1179.83 588.00" xmlns="http://www.w3.org/2000/svg" xmlns:xlink="http://www.w3.org/1999/xlink">
<g id="graph0" class="graph" transform="scale(1 1) rotate(0) translate(4 584)">
<title>src/main.cpp</title>
<polygon fill="white" stroke="transparent" points="-4,4 -4,-584 1175.83,-584 1175.83,4 -4,4"/>
<!-- Node1 -->
<g id="node1" class="node">
<title>Node1</title>
<g id="a_node1"><a xlink:title="Main function, initializes the game manager.">
<polygon fill="#bfbfbf" stroke="black" points="530.5,-560.5 530.5,-579.5 609.5,-579.5 609.5,-560.5 530.5,-560.5"/>
<text text-anchor="middle" x="570" y="-567.5" font-family="Helvetica,sans-Serif" font-size="10.00">src/main.cpp</text>
</a>
</g>
</g>
<!-- Node2 -->
<g id="node2" class="node">
<title>Node2</title>
<g id="a_node2"><a xlink:title=" ">
<polygon fill="white" stroke="#bfbfbf" points="492,-504.5 492,-523.5 552,-523.5 552,-504.5 492,-504.5"/>
<text text-anchor="middle" x="522" y="-511.5" font-family="Helvetica,sans-Serif" font-size="10.00">iostream</text>
</a>
</g>
</g>
<!-- Node1&#45;&gt;Node2 -->
<g id="edge1" class="edge">
<title>Node1&#45;&gt;Node2</title>
<path fill="none" stroke="midnightblue" d="M562.07,-560.08C555.15,-552.3 544.93,-540.8 536.55,-531.37"/>
<polygon fill="midnightblue" stroke="midnightblue" points="539.04,-528.9 529.78,-523.75 533.81,-533.55 539.04,-528.9"/>
</g>
<!-- Node3 -->
<g id="node3" class="node">
<title>Node3</title>
<g id="a_node3"><a xlink:href="GameManager_8h.html" target="_top" xlink:title="Handles the game loop and game states.">
<polygon fill="white" stroke="black" points="570.5,-504.5 570.5,-523.5 667.5,-523.5 667.5,-504.5 570.5,-504.5"/>
<text text-anchor="middle" x="619" y="-511.5" font-family="Helvetica,sans-Serif" font-size="10.00">GameManager.h</text>
</a>
</g>
</g>
<!-- Node1&#45;&gt;Node3 -->
<g id="edge2" class="edge">
<title>Node1&#45;&gt;Node3</title>
<path fill="none" stroke="midnightblue" d="M578.09,-560.08C585.16,-552.3 595.59,-540.8 604.15,-531.37"/>
<polygon fill="midnightblue" stroke="midnightblue" points="606.93,-533.51 611.06,-523.75 601.75,-528.8 606.93,-533.51"/>
</g>
<!-- Node4 -->
<g id="node4" class="node">
<title>Node4</title>
<g id="a_node4"><a xlink:href="Game_8h.html" target="_top" xlink:title="Class for handling the game logic.">
<polygon fill="white" stroke="black" points="591.5,-448.5 591.5,-467.5 646.5,-467.5 646.5,-448.5 591.5,-448.5"/>
<text text-anchor="middle" x="619" y="-455.5" font-family="Helvetica,sans-Serif" font-size="10.00">Game.h</text>
</a>
</g>
</g>
<!-- Node3&#45;&gt;Node4 -->
<g id="edge3" class="edge">
<title>Node3&#45;&gt;Node4</title>
<path fill="none" stroke="midnightblue" d="M619,-504.08C619,-497.01 619,-486.86 619,-477.99"/>
<polygon fill="midnightblue" stroke="midnightblue" points="622.5,-477.75 619,-467.75 615.5,-477.75 622.5,-477.75"/>
</g>
<!-- Node8 -->
<g id="node8" class="node">
<title>Node8</title>
<g id="a_node8"><a xlink:href="Enums_8h.html" target="_top" xlink:title=" ">
<polygon fill="white" stroke="black" points="306.5,-56.5 306.5,-75.5 365.5,-75.5 365.5,-56.5 306.5,-56.5"/>
<text text-anchor="middle" x="336" y="-63.5" font-family="Helvetica,sans-Serif" font-size="10.00">Enums.h</text>
</a>
</g>
</g>
<!-- Node3&#45;&gt;Node8 -->
<g id="edge63" class="edge">
<title>Node3&#45;&gt;Node8</title>
<path fill="none" stroke="midnightblue" d="M570.43,-505.01C424.5,-480.92 0,-410.23 0,-403 0,-403 0,-403 0,-177 0,-115.23 207.71,-82.59 296.51,-71.46"/>
<polygon fill="midnightblue" stroke="midnightblue" points="296.98,-74.93 306.48,-70.24 296.13,-67.98 296.98,-74.93"/>
</g>
<!-- Node14 -->
<g id="node14" class="node">
<title>Node14</title>
<g id="a_node14"><a xlink:href="Window_8h.html" target="_top" xlink:title="Class for handling ncurses windows.">
<polygon fill="white" stroke="black" points="756,-168.5 756,-187.5 820,-187.5 820,-168.5 756,-168.5"/>
<text text-anchor="middle" x="788" y="-175.5" font-family="Helvetica,sans-Serif" font-size="10.00">Window.h</text>
</a>
</g>
</g>
<!-- Node3&#45;&gt;Node14 -->
<g id="edge62" class="edge">
<title>Node3&#45;&gt;Node14</title>
<path fill="none" stroke="midnightblue" d="M667.81,-512.74C795.2,-510.74 1128,-496.57 1128,-403 1128,-403 1128,-403 1128,-289 1128,-227.1 921.39,-194.86 830.29,-183.66"/>
<polygon fill="midnightblue" stroke="midnightblue" points="830.64,-180.17 820.29,-182.45 829.8,-187.12 830.64,-180.17"/>
</g>
<!-- Node5 -->
<g id="node5" class="node">
<title>Node5</title>
<g id="a_node5"><a xlink:title=" ">
<polygon fill="white" stroke="#bfbfbf" points="327,-168.5 327,-187.5 385,-187.5 385,-168.5 327,-168.5"/>
<text text-anchor="middle" x="356" y="-175.5" font-family="Helvetica,sans-Serif" font-size="10.00">memory</text>
</a>
</g>
</g>
<!-- Node4&#45;&gt;Node5 -->
<g id="edge4" class="edge">
<title>Node4&#45;&gt;Node5</title>
<path fill="none" stroke="midnightblue" d="M591.24,-448.72C549.35,-435.1 469.32,-404.52 417,-356 375.9,-317.88 368.51,-299.24 359,-244 356.36,-228.67 355.69,-211.03 355.64,-198"/>
<polygon fill="midnightblue" stroke="midnightblue" points="359.14,-197.93 355.72,-187.91 352.14,-197.88 359.14,-197.93"/>
</g>
<!-- Node6 -->
<g id="node6" class="node">
<title>Node6</title>
<g id="a_node6"><a xlink:title=" ">
<polygon fill="white" stroke="#bfbfbf" points="947.5,-56.5 947.5,-75.5 994.5,-75.5 994.5,-56.5 947.5,-56.5"/>
<text text-anchor="middle" x="971" y="-63.5" font-family="Helvetica,sans-Serif" font-size="10.00">vector</text>
</a>
</g>
</g>
<!-- Node4&#45;&gt;Node6 -->
<g id="edge5" class="edge">
<title>Node4&#45;&gt;Node6</title>
<path fill="none" stroke="midnightblue" d="M646.76,-455.8C722.06,-452.2 928.6,-439.98 990,-412 1023.79,-396.6 1030.47,-386.25 1052,-356 1119.49,-261.2 1218.37,-203.92 1147,-112 1129.73,-89.76 1050.9,-76.65 1004.81,-70.75"/>
<polygon fill="midnightblue" stroke="midnightblue" points="1005.03,-67.25 994.68,-69.51 1004.18,-74.2 1005.03,-67.25"/>
</g>
<!-- Node7 -->
<g id="node7" class="node">
<title>Node7</title>
<g id="a_node7"><a xlink:href="GameObject_8h.html" target="_top" xlink:title="Base class for all game objects.">
<polygon fill="white" stroke="black" points="142,-224.5 142,-243.5 228,-243.5 228,-224.5 142,-224.5"/>
<text text-anchor="middle" x="185" y="-231.5" font-family="Helvetica,sans-Serif" font-size="10.00">GameObject.h</text>
</a>
</g>
</g>
<!-- Node4&#45;&gt;Node7 -->
<g id="edge6" class="edge">
<title>Node4&#45;&gt;Node7</title>
<path fill="none" stroke="midnightblue" d="M591.27,-456.23C499.85,-453.43 212.27,-442.24 185,-412 145.09,-367.74 165.65,-288.96 177.96,-253.36"/>
<polygon fill="midnightblue" stroke="midnightblue" points="181.32,-254.38 181.44,-243.79 174.74,-251.99 181.32,-254.38"/>
</g>
<!-- Node10 -->
<g id="node10" class="node">
<title>Node10</title>
<g id="a_node10"><a xlink:href="GamePhase_8h.html" target="_top" xlink:title="Handles the game phase and level.">
<polygon fill="white" stroke="black" points="143,-168.5 143,-187.5 227,-187.5 227,-168.5 143,-168.5"/>
<text text-anchor="middle" x="185" y="-175.5" font-family="Helvetica,sans-Serif" font-size="10.00">GamePhase.h</text>
</a>
</g>
</g>
<!-- Node4&#45;&gt;Node10 -->
<g id="edge61" class="edge">
<title>Node4&#45;&gt;Node10</title>
<path fill="none" stroke="midnightblue" d="M591.44,-456.07C498.43,-452.69 200.11,-439.75 168,-412 103.22,-356.02 88.02,-300.73 126,-224 132.6,-210.66 145.26,-200.19 157.17,-192.73"/>
<polygon fill="midnightblue" stroke="midnightblue" points="159.12,-195.64 166.02,-187.6 155.61,-189.59 159.12,-195.64"/>
</g>
<!-- Node11 -->
<g id="node11" class="node">
<title>Node11</title>
<g id="a_node11"><a xlink:href="Config_8h.html" target="_top" xlink:title="Class for handling the game configuration.">
<polygon fill="white" stroke="black" points="978,-112.5 978,-131.5 1034,-131.5 1034,-112.5 978,-112.5"/>
<text text-anchor="middle" x="1006" y="-119.5" font-family="Helvetica,sans-Serif" font-size="10.00">Config.h</text>
</a>
</g>
</g>
<!-- Node4&#45;&gt;Node11 -->
<g id="edge12" class="edge">
<title>Node4&#45;&gt;Node11</title>
<path fill="none" stroke="midnightblue" d="M646.57,-454.9C733.18,-447.56 994,-419.43 994,-347 994,-347 994,-347 994,-233 994,-200.76 999.16,-163.51 1002.71,-141.68"/>
<polygon fill="midnightblue" stroke="midnightblue" points="1006.21,-141.97 1004.43,-131.52 999.31,-140.8 1006.21,-141.97"/>
</g>
<!-- Node4&#45;&gt;Node14 -->
<g id="edge16" class="edge">
<title>Node4&#45;&gt;Node14</title>
<path fill="none" stroke="midnightblue" d="M646.53,-452.18C694.42,-442.04 788,-413.69 788,-347 788,-347 788,-347 788,-289 788,-256.95 788,-219.64 788,-197.75"/>
<polygon fill="midnightblue" stroke="midnightblue" points="791.5,-197.56 788,-187.56 784.5,-197.56 791.5,-197.56"/>
</g>
<!-- Node18 -->
<g id="node18" class="node">
<title>Node18</title>
<g id="a_node18"><a xlink:href="Player_8h.html" target="_top" xlink:title="Represents a player.">
<polygon fill="white" stroke="black" points="591,-336.5 591,-355.5 647,-355.5 647,-336.5 591,-336.5"/>
<text text-anchor="middle" x="619" y="-343.5" font-family="Helvetica,sans-Serif" font-size="10.00">Player.h</text>
</a>
</g>
</g>
<!-- Node4&#45;&gt;Node18 -->
<g id="edge26" class="edge">
<title>Node4&#45;&gt;Node18</title>
<path fill="none" stroke="midnightblue" d="M619,-448.37C619,-430.62 619,-389.67 619,-365.6"/>
<polygon fill="midnightblue" stroke="midnightblue" points="622.5,-365.59 619,-355.59 615.5,-365.59 622.5,-365.59"/>
</g>
<!-- Node20 -->
<g id="node20" class="node">
<title>Node20</title>
<g id="a_node20"><a xlink:href="Map_8h.html" target="_top" xlink:title="Class for handling the game map.">
<polygon fill="white" stroke="black" points="669.5,-224.5 669.5,-243.5 716.5,-243.5 716.5,-224.5 669.5,-224.5"/>
<text text-anchor="middle" x="693" y="-231.5" font-family="Helvetica,sans-Serif" font-size="10.00">Map.h</text>
</a>
</g>
</g>
<!-- Node4&#45;&gt;Node20 -->
<g id="edge49" class="edge">
<title>Node4&#45;&gt;Node20</title>
<path fill="none" stroke="midnightblue" d="M625.66,-448.47C642.77,-425.87 687.77,-361.99 700,-300 703.03,-284.67 700.77,-267.03 698.04,-254"/>
<polygon fill="midnightblue" stroke="midnightblue" points="701.36,-252.82 695.64,-243.91 694.55,-254.44 701.36,-252.82"/>
</g>
<!-- Node21 -->
<g id="node21" class="node">
<title>Node21</title>
<g id="a_node21"><a xlink:href="Ghost_8h.html" target="_top" xlink:title="Represents a ghost enemy.">
<polygon fill="white" stroke="black" points="516,-392.5 516,-411.5 570,-411.5 570,-392.5 516,-392.5"/>
<text text-anchor="middle" x="543" y="-399.5" font-family="Helvetica,sans-Serif" font-size="10.00">Ghost.h</text>
</a>
</g>
</g>
<!-- Node4&#45;&gt;Node21 -->
<g id="edge39" class="edge">
<title>Node4&#45;&gt;Node21</title>
<path fill="none" stroke="midnightblue" d="M606.79,-448.32C595.22,-440.11 577.62,-427.6 563.84,-417.81"/>
<polygon fill="midnightblue" stroke="midnightblue" points="565.61,-414.77 555.43,-411.83 561.56,-420.48 565.61,-414.77"/>
</g>
<!-- Node23 -->
<g id="node23" class="node">
<title>Node23</title>
<g id="a_node23"><a xlink:href="Leaderboard_8h.html" target="_top" xlink:title="Class for handling the game leaderboard.">
<polygon fill="white" stroke="black" points="1052,-112.5 1052,-131.5 1138,-131.5 1138,-112.5 1052,-112.5"/>
<text text-anchor="middle" x="1095" y="-119.5" font-family="Helvetica,sans-Serif" font-size="10.00">Leaderboard.h</text>
</a>
</g>
</g>
<!-- Node4&#45;&gt;Node23 -->
<g id="edge50" class="edge">
<title>Node4&#45;&gt;Node23</title>
<path fill="none" stroke="midnightblue" d="M646.56,-455.74C740,-450.75 1039,-428.41 1039,-347 1039,-347 1039,-347 1039,-233 1039,-196.44 1063.88,-159.75 1080.47,-139.34"/>
<polygon fill="midnightblue" stroke="midnightblue" points="1083.2,-141.54 1086.98,-131.64 1077.85,-137.02 1083.2,-141.54"/>
</g>
<!-- Node24 -->
<g id="node24" class="node">
<title>Node24</title>
<g id="a_node24"><a xlink:href="InteractiveObject_8h.html" target="_top" xlink:title="Base class for all interactive objects.">
<polygon fill="white" stroke="black" points="194,-392.5 194,-411.5 304,-411.5 304,-392.5 194,-392.5"/>
<text text-anchor="middle" x="249" y="-399.5" font-family="Helvetica,sans-Serif" font-size="10.00">InteractiveObject.h</text>
</a>
</g>
</g>
<!-- Node4&#45;&gt;Node24 -->
<g id="edge54" class="edge">
<title>Node4&#45;&gt;Node24</title>
<path fill="none" stroke="midnightblue" d="M591.49,-452.99C533.21,-444.48 395.94,-424.45 313.98,-412.48"/>
<polygon fill="midnightblue" stroke="midnightblue" points="314.42,-409.01 304.02,-411.03 313.41,-415.94 314.42,-409.01"/>
</g>
<!-- Node7&#45;&gt;Node5 -->
<g id="edge11" class="edge">
<title>Node7&#45;&gt;Node5</title>
<path fill="none" stroke="midnightblue" d="M212.1,-224.44C240.99,-215.32 286.92,-200.81 319.11,-190.65"/>
<polygon fill="midnightblue" stroke="midnightblue" points="320.55,-193.87 329.03,-187.52 318.44,-187.19 320.55,-193.87"/>
</g>
<!-- Node7&#45;&gt;Node8 -->
<g id="edge7" class="edge">
<title>Node7&#45;&gt;Node8</title>
<path fill="none" stroke="midnightblue" d="M195.59,-224.49C206.22,-215.76 222.86,-201.57 236,-188 269.95,-152.93 305.35,-107.7 323.55,-83.7"/>
<polygon fill="midnightblue" stroke="midnightblue" points="326.42,-85.7 329.64,-75.6 320.83,-81.49 326.42,-85.7"/>
</g>
<!-- Node7&#45;&gt;Node10 -->
<g id="edge9" class="edge">
<title>Node7&#45;&gt;Node10</title>
<path fill="none" stroke="midnightblue" d="M185,-224.08C185,-217.01 185,-206.86 185,-197.99"/>
<polygon fill="midnightblue" stroke="midnightblue" points="188.5,-197.75 185,-187.75 181.5,-197.75 188.5,-197.75"/>
</g>
<!-- Node9 -->
<g id="node9" class="node">
<title>Node9</title>
<g id="a_node9"><a xlink:title=" ">
<polygon fill="white" stroke="#bfbfbf" points="313.5,-0.5 313.5,-19.5 358.5,-19.5 358.5,-0.5 313.5,-0.5"/>
<text text-anchor="middle" x="336" y="-7.5" font-family="Helvetica,sans-Serif" font-size="10.00">utility</text>
</a>
</g>
</g>
<!-- Node8&#45;&gt;Node9 -->
<g id="edge8" class="edge">
<title>Node8&#45;&gt;Node9</title>
<path fill="none" stroke="midnightblue" d="M336,-56.08C336,-49.01 336,-38.86 336,-29.99"/>
<polygon fill="midnightblue" stroke="midnightblue" points="339.5,-29.75 336,-19.75 332.5,-29.75 339.5,-29.75"/>
</g>
<!-- Node10&#45;&gt;Node8 -->
<g id="edge10" class="edge">
<title>Node10&#45;&gt;Node8</title>
<path fill="none" stroke="midnightblue" d="M193.19,-168.32C205.87,-155.17 231.37,-129.84 256,-112 272.67,-99.92 292.89,-88.58 308.83,-80.3"/>
<polygon fill="midnightblue" stroke="midnightblue" points="310.81,-83.22 318.13,-75.56 307.63,-76.98 310.81,-83.22"/>
</g>
<!-- Node11&#45;&gt;Node6 -->
<g id="edge15" class="edge">
<title>Node11&#45;&gt;Node6</title>
<path fill="none" stroke="midnightblue" d="M1000.22,-112.08C995.33,-104.53 988.17,-93.49 982.17,-84.23"/>
<polygon fill="midnightblue" stroke="midnightblue" points="985.05,-82.24 976.67,-75.75 979.17,-86.05 985.05,-82.24"/>
</g>
<!-- Node12 -->
<g id="node12" class="node">
<title>Node12</title>
<g id="a_node12"><a xlink:title=" ">
<polygon fill="white" stroke="#bfbfbf" points="740,-56.5 740,-75.5 784,-75.5 784,-56.5 740,-56.5"/>
<text text-anchor="middle" x="762" y="-63.5" font-family="Helvetica,sans-Serif" font-size="10.00">string</text>
</a>
</g>
</g>
<!-- Node11&#45;&gt;Node12 -->
<g id="edge13" class="edge">
<title>Node11&#45;&gt;Node12</title>
<path fill="none" stroke="midnightblue" d="M977.53,-114.7C931.74,-104.57 842.01,-84.71 794.04,-74.09"/>
<polygon fill="midnightblue" stroke="midnightblue" points="794.71,-70.65 784.19,-71.91 793.2,-77.49 794.71,-70.65"/>
</g>
<!-- Node13 -->
<g id="node13" class="node">
<title>Node13</title>
<g id="a_node13"><a xlink:title=" ">
<polygon fill="white" stroke="#bfbfbf" points="1055,-56.5 1055,-75.5 1093,-75.5 1093,-56.5 1055,-56.5"/>
<text text-anchor="middle" x="1074" y="-63.5" font-family="Helvetica,sans-Serif" font-size="10.00">map</text>
</a>
</g>
</g>
<!-- Node11&#45;&gt;Node13 -->
<g id="edge14" class="edge">
<title>Node11&#45;&gt;Node13</title>
<path fill="none" stroke="midnightblue" d="M1016.93,-112.32C1027.17,-104.18 1042.72,-91.84 1055,-82.09"/>
<polygon fill="midnightblue" stroke="midnightblue" points="1057.22,-84.79 1062.88,-75.83 1052.87,-79.31 1057.22,-84.79"/>
</g>
<!-- Node14&#45;&gt;Node6 -->
<g id="edge20" class="edge">
<title>Node14&#45;&gt;Node6</title>
<path fill="none" stroke="midnightblue" d="M813.62,-168.4C835.52,-160.49 867.47,-147.65 893,-132 916.33,-117.7 940.05,-96.84 955.11,-82.63"/>
<polygon fill="midnightblue" stroke="midnightblue" points="957.74,-84.96 962.52,-75.51 952.89,-79.91 957.74,-84.96"/>
</g>
<!-- Node14&#45;&gt;Node8 -->
<g id="edge21" class="edge">
<title>Node14&#45;&gt;Node8</title>
<path fill="none" stroke="midnightblue" d="M769.14,-168.4C749.72,-159.49 718.61,-145.05 692,-132 674.51,-123.42 671.57,-117.89 653,-112 556.54,-81.37 436.94,-71.55 375.91,-68.43"/>
<polygon fill="midnightblue" stroke="midnightblue" points="375.72,-64.92 365.57,-67.94 375.39,-71.91 375.72,-64.92"/>
</g>
<!-- Node14&#45;&gt;Node12 -->
<g id="edge18" class="edge">
<title>Node14&#45;&gt;Node12</title>
<path fill="none" stroke="midnightblue" d="M786,-168.16C783.16,-155.65 777.77,-132.06 773,-112 770.93,-103.29 768.58,-93.64 766.58,-85.51"/>
<polygon fill="midnightblue" stroke="midnightblue" points="769.94,-84.49 764.14,-75.62 763.14,-86.17 769.94,-84.49"/>
</g>
<!-- Node15 -->
<g id="node15" class="node">
<title>Node15</title>
<g id="a_node15"><a xlink:title=" ">
<polygon fill="white" stroke="#bfbfbf" points="820.5,-112.5 820.5,-131.5 883.5,-131.5 883.5,-112.5 820.5,-112.5"/>
<text text-anchor="middle" x="852" y="-119.5" font-family="Helvetica,sans-Serif" font-size="10.00">ncurses.h</text>
</a>
</g>
</g>
<!-- Node14&#45;&gt;Node15 -->
<g id="edge17" class="edge">
<title>Node14&#45;&gt;Node15</title>
<path fill="none" stroke="midnightblue" d="M798.28,-168.32C807.84,-160.26 822.28,-148.08 833.78,-138.37"/>
<polygon fill="midnightblue" stroke="midnightblue" points="836.14,-140.96 841.53,-131.83 831.63,-135.61 836.14,-140.96"/>
</g>
<!-- Node16 -->
<g id="node16" class="node">
<title>Node16</title>
<g id="a_node16"><a xlink:title=" ">
<polygon fill="white" stroke="#bfbfbf" points="588,-112.5 588,-131.5 644,-131.5 644,-112.5 588,-112.5"/>
<text text-anchor="middle" x="616" y="-119.5" font-family="Helvetica,sans-Serif" font-size="10.00">optional</text>
</a>
</g>
</g>
<!-- Node14&#45;&gt;Node16 -->
<g id="edge19" class="edge">
<title>Node14&#45;&gt;Node16</title>
<path fill="none" stroke="midnightblue" d="M760.75,-168.44C731.56,-159.28 685.08,-144.69 652.69,-134.52"/>
<polygon fill="midnightblue" stroke="midnightblue" points="653.72,-131.17 643.13,-131.52 651.62,-137.85 653.72,-131.17"/>
</g>
<!-- Node17 -->
<g id="node17" class="node">
<title>Node17</title>
<g id="a_node17"><a xlink:href="Helpers_8h.html" target="_top" xlink:title=" ">
<polygon fill="white" stroke="black" points="700.5,-112.5 700.5,-131.5 763.5,-131.5 763.5,-112.5 700.5,-112.5"/>
<text text-anchor="middle" x="732" y="-119.5" font-family="Helvetica,sans-Serif" font-size="10.00">Helpers.h</text>
</a>
</g>
</g>
<!-- Node14&#45;&gt;Node17 -->
<g id="edge22" class="edge">
<title>Node14&#45;&gt;Node17</title>
<path fill="none" stroke="midnightblue" d="M779,-168.32C770.81,-160.42 758.49,-148.55 748.53,-138.94"/>
<polygon fill="midnightblue" stroke="midnightblue" points="750.79,-136.26 741.16,-131.83 745.93,-141.29 750.79,-136.26"/>
</g>
<!-- Node17&#45;&gt;Node6 -->
<g id="edge25" class="edge">
<title>Node17&#45;&gt;Node6</title>
<path fill="none" stroke="midnightblue" d="M763.74,-113.83C808.95,-103.61 891.52,-84.96 937.62,-74.54"/>
<polygon fill="midnightblue" stroke="midnightblue" points="938.44,-77.95 947.42,-72.33 936.89,-71.12 938.44,-77.95"/>
</g>
<!-- Node17&#45;&gt;Node8 -->
<g id="edge23" class="edge">
<title>Node17&#45;&gt;Node8</title>
<path fill="none" stroke="midnightblue" d="M700.37,-114.53C695.57,-113.63 690.66,-112.75 686,-112 574,-93.86 440.89,-78.42 375.81,-71.26"/>
<polygon fill="midnightblue" stroke="midnightblue" points="375.92,-67.75 365.59,-70.14 375.15,-74.71 375.92,-67.75"/>
</g>
<!-- Node17&#45;&gt;Node12 -->
<g id="edge24" class="edge">
<title>Node17&#45;&gt;Node12</title>
<path fill="none" stroke="midnightblue" d="M736.95,-112.08C741.1,-104.61 747.15,-93.72 752.27,-84.52"/>
<polygon fill="midnightblue" stroke="midnightblue" points="755.34,-86.19 757.14,-75.75 749.22,-82.79 755.34,-86.19"/>
</g>
<!-- Node18&#45;&gt;Node12 -->
<g id="edge38" class="edge">
<title>Node18&#45;&gt;Node12</title>
<path fill="none" stroke="midnightblue" d="M615.3,-336.44C599.31,-298.8 538.17,-148.25 567,-112 586.99,-86.87 679.78,-74.57 729.82,-69.67"/>
<polygon fill="midnightblue" stroke="midnightblue" points="730.17,-73.15 739.8,-68.74 729.52,-66.18 730.17,-73.15"/>
</g>
<!-- Node19 -->
<g id="node19" class="node">
<title>Node19</title>
<g id="a_node19"><a xlink:href="MovingObject_8h.html" target="_top" xlink:title="Base class for all moving objects.">
<polygon fill="white" stroke="black" points="398.5,-280.5 398.5,-299.5 491.5,-299.5 491.5,-280.5 398.5,-280.5"/>
<text text-anchor="middle" x="445" y="-287.5" font-family="Helvetica,sans-Serif" font-size="10.00">MovingObject.h</text>
</a>
</g>
</g>
<!-- Node18&#45;&gt;Node19 -->
<g id="edge27" class="edge">
<title>Node18&#45;&gt;Node19</title>
<path fill="none" stroke="midnightblue" d="M591.43,-336.44C561.9,-327.28 514.88,-312.69 482.12,-302.52"/>
<polygon fill="midnightblue" stroke="midnightblue" points="483.03,-299.14 472.44,-299.52 480.96,-305.82 483.03,-299.14"/>
</g>
<!-- Node18&#45;&gt;Node20 -->
<g id="edge37" class="edge">
<title>Node18&#45;&gt;Node20</title>
<path fill="none" stroke="midnightblue" d="M624.99,-336.41C631.27,-327.37 641.4,-312.74 650,-300 660.84,-283.94 673.01,-265.5 681.63,-252.38"/>
<polygon fill="midnightblue" stroke="midnightblue" points="684.66,-254.15 687.21,-243.87 678.8,-250.31 684.66,-254.15"/>
</g>
<!-- Node19&#45;&gt;Node5 -->
<g id="edge30" class="edge">
<title>Node19&#45;&gt;Node5</title>
<path fill="none" stroke="midnightblue" d="M438.02,-280.37C423.26,-262.14 388.71,-219.43 369.49,-195.68"/>
<polygon fill="midnightblue" stroke="midnightblue" points="371.96,-193.16 362.95,-187.59 366.52,-197.57 371.96,-193.16"/>
</g>
<!-- Node19&#45;&gt;Node7 -->
<g id="edge28" class="edge">
<title>Node19&#45;&gt;Node7</title>
<path fill="none" stroke="midnightblue" d="M403.8,-280.44C358.35,-271 285.16,-255.8 236.09,-245.61"/>
<polygon fill="midnightblue" stroke="midnightblue" points="236.51,-242.12 226.01,-243.52 235.08,-248.98 236.51,-242.12"/>
</g>
<!-- Node19&#45;&gt;Node8 -->
<g id="edge29" class="edge">
<title>Node19&#45;&gt;Node8</title>
<path fill="none" stroke="midnightblue" d="M441.77,-280.33C434.18,-260.23 414.35,-209.06 394,-168 379.03,-137.79 358.96,-104.1 346.78,-84.26"/>
<polygon fill="midnightblue" stroke="midnightblue" points="349.73,-82.38 341.49,-75.72 343.78,-86.06 349.73,-82.38"/>
</g>
<!-- Node19&#45;&gt;Node10 -->
<g id="edge36" class="edge">
<title>Node19&#45;&gt;Node10</title>
<path fill="none" stroke="midnightblue" d="M424.6,-280.37C378.84,-261.01 267.88,-214.06 214.56,-191.51"/>
<polygon fill="midnightblue" stroke="midnightblue" points="215.88,-188.26 205.31,-187.59 213.15,-194.71 215.88,-188.26"/>
</g>
<!-- Node19&#45;&gt;Node16 -->
<g id="edge31" class="edge">
<title>Node19&#45;&gt;Node16</title>
<path fill="none" stroke="midnightblue" d="M454.19,-280.08C481.81,-253.27 564.3,-173.19 599.64,-138.89"/>
<polygon fill="midnightblue" stroke="midnightblue" points="602.44,-141.04 607.17,-131.57 597.56,-136.02 602.44,-141.04"/>
</g>
<!-- Node19&#45;&gt;Node20 -->
<g id="edge32" class="edge">
<title>Node19&#45;&gt;Node20</title>
<path fill="none" stroke="midnightblue" d="M484.3,-280.44C532.57,-269.93 613.66,-252.28 659.25,-242.35"/>
<polygon fill="midnightblue" stroke="midnightblue" points="660.2,-245.72 669.22,-240.18 658.71,-238.88 660.2,-245.72"/>
</g>
<!-- Node20&#45;&gt;Node6 -->
<g id="edge34" class="edge">
<title>Node20&#45;&gt;Node6</title>
<path fill="none" stroke="midnightblue" d="M716.54,-227.64C760.91,-216.54 858.05,-187.29 920,-132 935.83,-117.88 950.39,-98.38 959.86,-84.43"/>
<polygon fill="midnightblue" stroke="midnightblue" points="962.97,-86.07 965.56,-75.8 957.13,-82.21 962.97,-86.07"/>
</g>
<!-- Node20&#45;&gt;Node12 -->
<g id="edge33" class="edge">
<title>Node20&#45;&gt;Node12</title>
<path fill="none" stroke="midnightblue" d="M673.29,-224.4C632.11,-205.24 543.57,-157.2 579,-112 597.39,-88.54 682.32,-75.68 729.74,-70.21"/>
<polygon fill="midnightblue" stroke="midnightblue" points="730.26,-73.68 739.81,-69.1 729.49,-66.72 730.26,-73.68"/>
</g>
<!-- Node20&#45;&gt;Node14 -->
<g id="edge35" class="edge">
<title>Node20&#45;&gt;Node14</title>
<path fill="none" stroke="midnightblue" d="M708.26,-224.32C723.22,-215.82 746.25,-202.73 763.73,-192.8"/>
<polygon fill="midnightblue" stroke="midnightblue" points="765.81,-195.64 772.77,-187.65 762.35,-189.55 765.81,-195.64"/>
</g>
<!-- Node21&#45;&gt;Node5 -->
<g id="edge46" class="edge">
<title>Node21&#45;&gt;Node5</title>
<path fill="none" stroke="midnightblue" d="M517.67,-392.39C482.25,-378.88 419,-349.04 390,-300 370.53,-267.09 361.79,-222.53 358.2,-197.7"/>
<polygon fill="midnightblue" stroke="midnightblue" points="361.64,-196.97 356.87,-187.51 354.7,-197.88 361.64,-196.97"/>
</g>
<!-- Node21&#45;&gt;Node18 -->
<g id="edge47" class="edge">
<title>Node21&#45;&gt;Node18</title>
<path fill="none" stroke="midnightblue" d="M555.21,-392.32C566.78,-384.11 584.38,-371.6 598.16,-361.81"/>
<polygon fill="midnightblue" stroke="midnightblue" points="600.44,-364.48 606.57,-355.83 596.39,-358.77 600.44,-364.48"/>
</g>
<!-- Node21&#45;&gt;Node19 -->
<g id="edge40" class="edge">
<title>Node21&#45;&gt;Node19</title>
<path fill="none" stroke="midnightblue" d="M516.3,-392.46C498.41,-385.42 475.71,-373.67 462,-356 451.72,-342.75 447.63,-323.89 446.01,-309.89"/>
<polygon fill="midnightblue" stroke="midnightblue" points="449.47,-309.19 445.16,-299.51 442.49,-309.76 449.47,-309.19"/>
</g>
<!-- Node21&#45;&gt;Node20 -->
<g id="edge48" class="edge">
<title>Node21&#45;&gt;Node20</title>
<path fill="none" stroke="midnightblue" d="M570.06,-397.05C595.65,-391.93 633.4,-380.54 656,-356 682.57,-327.15 690.08,-279.67 692.19,-253.59"/>
<polygon fill="midnightblue" stroke="midnightblue" points="695.68,-253.75 692.81,-243.55 688.7,-253.31 695.68,-253.75"/>
</g>
<!-- Node22 -->
<g id="node22" class="node">
<title>Node22</title>
<g id="a_node22"><a xlink:href="EnemyBehavior_8h.html" target="_top" xlink:title="Base class for all enemy behaviors.">
<polygon fill="white" stroke="black" points="471,-336.5 471,-355.5 573,-355.5 573,-336.5 471,-336.5"/>
<text text-anchor="middle" x="522" y="-343.5" font-family="Helvetica,sans-Serif" font-size="10.00">EnemyBehavior.h</text>
</a>
</g>
</g>
<!-- Node21&#45;&gt;Node22 -->
<g id="edge41" class="edge">
<title>Node21&#45;&gt;Node22</title>
<path fill="none" stroke="midnightblue" d="M539.53,-392.08C536.69,-384.77 532.57,-374.18 529.04,-365.1"/>
<polygon fill="midnightblue" stroke="midnightblue" points="532.29,-363.8 525.4,-355.75 525.77,-366.34 532.29,-363.8"/>
</g>
<!-- Node22&#45;&gt;Node5 -->
<g id="edge44" class="edge">
<title>Node22&#45;&gt;Node5</title>
<path fill="none" stroke="midnightblue" d="M520.97,-336.19C519.04,-322.88 513.85,-297.34 501,-280 470.34,-238.6 417.51,-208.06 384.79,-191.94"/>
<polygon fill="midnightblue" stroke="midnightblue" points="386.26,-188.76 375.73,-187.59 383.23,-195.07 386.26,-188.76"/>
</g>
<!-- Node22&#45;&gt;Node8 -->
<g id="edge43" class="edge">
<title>Node22&#45;&gt;Node8</title>
<path fill="none" stroke="midnightblue" d="M523.46,-336.25C525.21,-323.44 527.11,-299.04 520,-280 486.55,-190.44 396.76,-113.37 356.28,-82"/>
<polygon fill="midnightblue" stroke="midnightblue" points="358.28,-79.13 348.21,-75.85 354.04,-84.69 358.28,-79.13"/>
</g>
<!-- Node22&#45;&gt;Node19 -->
<g id="edge45" class="edge">
<title>Node22&#45;&gt;Node19</title>
<path fill="none" stroke="midnightblue" d="M509.63,-336.32C497.84,-328.06 479.87,-315.45 465.86,-305.63"/>
<polygon fill="midnightblue" stroke="midnightblue" points="467.54,-302.53 457.34,-299.65 463.52,-308.26 467.54,-302.53"/>
</g>
<!-- Node22&#45;&gt;Node20 -->
<g id="edge42" class="edge">
<title>Node22&#45;&gt;Node20</title>
<path fill="none" stroke="midnightblue" d="M535.42,-336.37C564.76,-317.49 634.88,-272.38 670.87,-249.24"/>
<polygon fill="midnightblue" stroke="midnightblue" points="673.13,-251.95 679.64,-243.59 669.34,-246.06 673.13,-251.95"/>
</g>
<!-- Node23&#45;&gt;Node6 -->
<g id="edge51" class="edge">
<title>Node23&#45;&gt;Node6</title>
<path fill="none" stroke="midnightblue" d="M1075.35,-112.44C1055.04,-103.6 1023.1,-89.69 999.9,-79.59"/>
<polygon fill="midnightblue" stroke="midnightblue" points="1001.12,-76.3 990.56,-75.52 998.33,-82.72 1001.12,-76.3"/>
</g>
<!-- Node23&#45;&gt;Node12 -->
<g id="edge52" class="edge">
<title>Node23&#45;&gt;Node12</title>
<path fill="none" stroke="midnightblue" d="M1051.88,-113.49C1048.87,-112.98 1045.89,-112.48 1043,-112 952.95,-97 846.51,-80.21 794.24,-72.03"/>
<polygon fill="midnightblue" stroke="midnightblue" points="794.66,-68.55 784.24,-70.46 793.58,-75.47 794.66,-68.55"/>
</g>
<!-- Node23&#45;&gt;Node13 -->
<g id="edge53" class="edge">
<title>Node23&#45;&gt;Node13</title>
<path fill="none" stroke="midnightblue" d="M1091.53,-112.08C1088.69,-104.77 1084.57,-94.18 1081.04,-85.1"/>
<polygon fill="midnightblue" stroke="midnightblue" points="1084.29,-83.8 1077.4,-75.75 1077.77,-86.34 1084.29,-83.8"/>
</g>
<!-- Node24&#45;&gt;Node5 -->
<g id="edge57" class="edge">
<title>Node24&#45;&gt;Node5</title>
<path fill="none" stroke="midnightblue" d="M248.13,-392.32C245.85,-364.9 242.22,-278.66 280,-224 289.94,-209.62 306.1,-199.12 320.97,-191.9"/>
<polygon fill="midnightblue" stroke="midnightblue" points="322.8,-194.92 330.48,-187.62 319.93,-188.53 322.8,-194.92"/>
</g>
<!-- Node24&#45;&gt;Node7 -->
<g id="edge55" class="edge">
<title>Node24&#45;&gt;Node7</title>
<path fill="none" stroke="midnightblue" d="M245.56,-392.08C235.44,-365.83 205.64,-288.55 191.98,-253.12"/>
<polygon fill="midnightblue" stroke="midnightblue" points="195.17,-251.64 188.3,-243.57 188.64,-254.16 195.17,-251.64"/>
</g>
<!-- Node24&#45;&gt;Node8 -->
<g id="edge56" class="edge">
<title>Node24&#45;&gt;Node8</title>
<path fill="none" stroke="midnightblue" d="M236.61,-392.19C225.1,-383.67 207.87,-370.03 195,-356 135.63,-291.26 85.47,-241.22 134,-168 171.03,-112.13 248.69,-85.84 296.19,-74.54"/>
<polygon fill="midnightblue" stroke="midnightblue" points="297.16,-77.91 306.14,-72.28 295.61,-71.08 297.16,-77.91"/>
</g>
<!-- Node24&#45;&gt;Node10 -->
<g id="edge60" class="edge">
<title>Node24&#45;&gt;Node10</title>
<path fill="none" stroke="midnightblue" d="M242.28,-392.23C217.98,-360.45 135.89,-252.77 133,-244 130.22,-235.56 129.3,-232.08 133,-224 138.78,-211.36 150.05,-200.91 160.63,-193.27"/>
<polygon fill="midnightblue" stroke="midnightblue" points="162.85,-196 169.22,-187.53 158.96,-190.18 162.85,-196"/>
</g>
<!-- Node24&#45;&gt;Node18 -->
<g id="edge59" class="edge">
<title>Node24&#45;&gt;Node18</title>
<path fill="none" stroke="midnightblue" d="M304.08,-395.34C368.28,-388.34 477.72,-375.19 580.83,-356.05"/>
<polygon fill="midnightblue" stroke="midnightblue" points="581.6,-359.47 590.78,-354.18 580.31,-352.59 581.6,-359.47"/>
</g>
<!-- Node24&#45;&gt;Node19 -->
<g id="edge58" class="edge">
<title>Node24&#45;&gt;Node19</title>
<path fill="none" stroke="midnightblue" d="M264.38,-392.37C298.37,-373.29 380.1,-327.42 420.94,-304.51"/>
<polygon fill="midnightblue" stroke="midnightblue" points="422.68,-307.54 429.69,-299.59 419.26,-301.43 422.68,-307.54"/>
</g>
</g>
</svg>
