<?xml version="1.0" encoding="UTF-8" standalone="no"?>
<!DOCTYPE svg PUBLIC "-//W3C//DTD SVG 1.1//EN"
 "http://www.w3.org/Graphics/SVG/1.1/DTD/svg11.dtd">
<!-- Generated by graphviz version 10.0.1 (0)
 -->
<!-- Title: main Pages: 1 -->
<svg width="1003pt" height="332pt"
 viewBox="0.00 0.00 1002.75 332.00" xmlns="http://www.w3.org/2000/svg" xmlns:xlink="http://www.w3.org/1999/xlink">
<g id="graph0" class="graph" transform="scale(1 1) rotate(0) translate(4 328)">
<title>main</title>
<!-- Node1 -->
<g id="Node000001" class="node">
<title>Node1</title>
<g id="a_Node000001"><a xlink:title=" ">
<polygon fill="#999999" stroke="#666666" points="37,-191 0,-191 0,-171 37,-171 37,-191"/>
<text text-anchor="middle" x="18.5" y="-177.5" font-family="Helvetica,sans-Serif" font-size="10.00">main</text>
</a>
</g>
</g>
<!-- Node2 -->
<g id="Node000002" class="node">
<title>Node2</title>
<g id="a_Node000002"><a xlink:href="classGameManager.html#a8460b2f4f44c19dd405e4163fe6cb5cf" target="_top" xlink:title=" ">
<polygon fill="white" stroke="#666666" points="178.25,-191 73,-191 73,-171 178.25,-171 178.25,-191"/>
<text text-anchor="middle" x="125.62" y="-177.5" font-family="Helvetica,sans-Serif" font-size="10.00">GameManager::start</text>
</a>
</g>
</g>
<!-- Node1&#45;&gt;Node2 -->
<g id="edge1_Node000001_Node000002" class="edge">
<title>Node1&#45;&gt;Node2</title>
<g id="a_edge1_Node000001_Node000002"><a xlink:title=" ">
<path fill="none" stroke="#63b8ff" d="M37.33,-181C44.25,-181 52.63,-181 61.41,-181"/>
<polygon fill="#63b8ff" stroke="#63b8ff" points="61.17,-184.5 71.17,-181 61.17,-177.5 61.17,-184.5"/>
</a>
</g>
</g>
<!-- Node3 -->
<g id="Node000003" class="node">
<title>Node3</title>
<g id="a_Node000003"><a xlink:href="classWindow.html#a21910d98970e829ac1aa67db65a53476" target="_top" xlink:title="Exits ncurses window.">
<polygon fill="white" stroke="#666666" points="318.75,-324 245.75,-324 245.75,-304 318.75,-304 318.75,-324"/>
<text text-anchor="middle" x="282.25" y="-310.5" font-family="Helvetica,sans-Serif" font-size="10.00">Window::exit</text>
</a>
</g>
</g>
<!-- Node2&#45;&gt;Node3 -->
<g id="edge2_Node000002_Node000003" class="edge">
<title>Node2&#45;&gt;Node3</title>
<g id="a_edge2_Node000002_Node000003"><a xlink:title=" ">
<path fill="none" stroke="#63b8ff" d="M132.23,-191.28C144.4,-212.66 175.29,-262.25 214.25,-290 220.47,-294.43 227.59,-298.12 234.82,-301.17"/>
<polygon fill="#63b8ff" stroke="#63b8ff" points="233.38,-304.37 243.98,-304.65 235.87,-297.82 233.38,-304.37"/>
</a>
</g>
</g>
<!-- Node4 -->
<g id="Node000004" class="node">
<title>Node4</title>
<g id="a_Node000004"><a xlink:href="classWindow.html#a56e7061bfcf6df5725b61e3f0399e865" target="_top" xlink:title="Gets the user choice from the main menu.">
<polygon fill="white" stroke="#666666" points="333,-248 231.5,-248 231.5,-228 333,-228 333,-248"/>
<text text-anchor="middle" x="282.25" y="-234.5" font-family="Helvetica,sans-Serif" font-size="10.00">Window::getChoice</text>
</a>
</g>
</g>
<!-- Node2&#45;&gt;Node4 -->
<g id="edge3_Node000002_Node000004" class="edge">
<title>Node2&#45;&gt;Node4</title>
<g id="a_edge3_Node000002_Node000004"><a xlink:title=" ">
<path fill="none" stroke="#63b8ff" d="M148.27,-191.35C165.81,-199.49 191.29,-210.81 214.25,-219 219.32,-220.81 224.65,-222.56 230.01,-224.23"/>
<polygon fill="#63b8ff" stroke="#63b8ff" points="228.91,-227.55 239.49,-227.07 230.92,-220.85 228.91,-227.55"/>
</a>
</g>
</g>
<!-- Node8 -->
<g id="Node000008" class="node">
<title>Node8</title>
<g id="a_Node000008"><a xlink:href="classWindow.html#a2238e5489102fe2a77e7898a07dc37b5" target="_top" xlink:title="Gets text input from the user.">
<polygon fill="white" stroke="#666666" points="676.25,-134 583.75,-134 583.75,-114 676.25,-114 676.25,-134"/>
<text text-anchor="middle" x="630" y="-120.5" font-family="Helvetica,sans-Serif" font-size="10.00">Window::getInput</text>
</a>
</g>
</g>
<!-- Node2&#45;&gt;Node8 -->
<g id="edge7_Node000002_Node000008" class="edge">
<title>Node2&#45;&gt;Node8</title>
<g id="a_edge7_Node000002_Node000008"><a xlink:title=" ">
<path fill="none" stroke="#63b8ff" d="M145.09,-170.63C162.37,-161.5 189.21,-148.8 214.25,-143 339.41,-114.03 491.34,-116.19 572.08,-120.17"/>
<polygon fill="#63b8ff" stroke="#63b8ff" points="571.79,-123.66 581.96,-120.69 572.16,-116.67 571.79,-123.66"/>
</a>
</g>
</g>
<!-- Node9 -->
<g id="Node000009" class="node">
<title>Node9</title>
<g id="a_Node000009"><a xlink:href="classGameManager.html#a53965fe19bf3351541159ce74608844e" target="_top" xlink:title=" ">
<polygon fill="white" stroke="#666666" points="350.25,-210 214.25,-210 214.25,-190 350.25,-190 350.25,-210"/>
<text text-anchor="middle" x="282.25" y="-196.5" font-family="Helvetica,sans-Serif" font-size="10.00">GameManager::handleInput</text>
</a>
</g>
</g>
<!-- Node2&#45;&gt;Node9 -->
<g id="edge9_Node000002_Node000009" class="edge">
<title>Node2&#45;&gt;Node9</title>
<g id="a_edge9_Node000002_Node000009"><a xlink:title=" ">
<path fill="none" stroke="#63b8ff" d="M178.54,-187.38C186.24,-188.32 194.31,-189.32 202.4,-190.31"/>
<polygon fill="#63b8ff" stroke="#63b8ff" points="201.96,-193.78 212.31,-191.53 202.82,-186.84 201.96,-193.78"/>
</a>
</g>
</g>
<!-- Node10 -->
<g id="Node000010" class="node">
<title>Node10</title>
<g id="a_Node000010"><a xlink:href="classWindow.html#a4d8c7f316ef9e8a4488d00c430957c16" target="_top" xlink:title="Initializes ncurses window.">
<polygon fill="white" stroke="#666666" points="317.25,-172 247.25,-172 247.25,-152 317.25,-152 317.25,-172"/>
<text text-anchor="middle" x="282.25" y="-158.5" font-family="Helvetica,sans-Serif" font-size="10.00">Window::init</text>
</a>
</g>
</g>
<!-- Node2&#45;&gt;Node10 -->
<g id="edge10_Node000002_Node000010" class="edge">
<title>Node2&#45;&gt;Node10</title>
<g id="a_edge10_Node000002_Node000010"><a xlink:title=" ">
<path fill="none" stroke="#63b8ff" d="M178.54,-174.62C197.11,-172.34 217.88,-169.79 235.85,-167.58"/>
<polygon fill="#63b8ff" stroke="#63b8ff" points="236.21,-171.06 245.71,-166.37 235.36,-164.11 236.21,-171.06"/>
</a>
</g>
</g>
<!-- Node12 -->
<g id="Node000012" class="node">
<title>Node12</title>
<g id="a_Node000012"><a xlink:href="classConfig.html#ab8b24da021cd9ad9ca092749292ca6ed" target="_top" xlink:title="Loads the config from a file.">
<polygon fill="white" stroke="#666666" points="330.75,-96 233.75,-96 233.75,-76 330.75,-76 330.75,-96"/>
<text text-anchor="middle" x="282.25" y="-82.5" font-family="Helvetica,sans-Serif" font-size="10.00">Config::loadConfig</text>
</a>
</g>
</g>
<!-- Node2&#45;&gt;Node12 -->
<g id="edge13_Node000002_Node000012" class="edge">
<title>Node2&#45;&gt;Node12</title>
<g id="a_edge13_Node000002_Node000012"><a xlink:title=" ">
<path fill="none" stroke="#63b8ff" d="M137.09,-170.51C152.69,-155.36 183.53,-127.28 214.25,-110 220.69,-106.38 227.78,-103.14 234.86,-100.3"/>
<polygon fill="#63b8ff" stroke="#63b8ff" points="235.6,-103.76 243.73,-96.96 233.14,-97.21 235.6,-103.76"/>
</a>
</g>
</g>
<!-- Node14 -->
<g id="Node000014" class="node">
<title>Node14</title>
<g id="a_Node000014"><a xlink:href="classMap.html#a2657d897204aaedba0e8e4f01b2e1efc" target="_top" xlink:title="Loads the map from a file.">
<polygon fill="white" stroke="#666666" points="493,-58 415.5,-58 415.5,-38 493,-38 493,-58"/>
<text text-anchor="middle" x="454.25" y="-44.5" font-family="Helvetica,sans-Serif" font-size="10.00">Map::loadMap</text>
</a>
</g>
</g>
<!-- Node2&#45;&gt;Node14 -->
<g id="edge21_Node000002_Node000014" class="edge">
<title>Node2&#45;&gt;Node14</title>
<g id="a_edge21_Node000002_Node000014"><a xlink:title=" ">
<path fill="none" stroke="#63b8ff" d="M130.91,-170.79C141.28,-147.56 170.15,-90.94 214.25,-67 273.47,-34.85 353.37,-35.76 404.11,-40.78"/>
<polygon fill="#63b8ff" stroke="#63b8ff" points="403.59,-44.24 413.91,-41.85 404.35,-37.28 403.59,-44.24"/>
</a>
</g>
</g>
<!-- Node20 -->
<g id="Node000020" class="node">
<title>Node20</title>
<g id="a_Node000020"><a xlink:href="classWindow.html#aba37c5e32e43d21a46968fd8ada1d327" target="_top" xlink:title="Prints the message to the current window.">
<polygon fill="white" stroke="#666666" points="687.88,-267 572.12,-267 572.12,-247 687.88,-247 687.88,-267"/>
<text text-anchor="middle" x="630" y="-253.5" font-family="Helvetica,sans-Serif" font-size="10.00">Window::printMessage</text>
</a>
</g>
</g>
<!-- Node2&#45;&gt;Node20 -->
<g id="edge22_Node000002_Node000020" class="edge">
<title>Node2&#45;&gt;Node20</title>
<g id="a_edge22_Node000002_Node000020"><a xlink:title=" ">
<path fill="none" stroke="#63b8ff" d="M134.38,-191.44C148.15,-208.98 178.78,-243.76 214.25,-257 334.25,-301.79 487.74,-284.33 570.23,-269.51"/>
<polygon fill="#63b8ff" stroke="#63b8ff" points="570.71,-272.98 579.9,-267.72 569.43,-266.1 570.71,-272.98"/>
</a>
</g>
</g>
<!-- Node5 -->
<g id="Node000005" class="node">
<title>Node5</title>
<g id="a_Node000005"><a xlink:href="classWindow.html#ac9718717327b190f444c9fe3955477a7" target="_top" xlink:title="Creates the main menu window.">
<polygon fill="white" stroke="#666666" points="701.75,-191 558.25,-191 558.25,-171 701.75,-171 701.75,-191"/>
<text text-anchor="middle" x="630" y="-177.5" font-family="Helvetica,sans-Serif" font-size="10.00">Window::createMenuWindow</text>
</a>
</g>
</g>
<!-- Node4&#45;&gt;Node5 -->
<g id="edge4_Node000004_Node000005" class="edge">
<title>Node4&#45;&gt;Node5</title>
<g id="a_edge4_Node000004_Node000005"><a xlink:title=" ">
<path fill="none" stroke="#63b8ff" d="M333.49,-228.45C350.26,-225.34 369.04,-221.93 386.25,-219 439.86,-209.86 500.28,-200.4 547.43,-193.2"/>
<polygon fill="#63b8ff" stroke="#63b8ff" points="547.95,-196.67 557.31,-191.7 546.9,-189.75 547.95,-196.67"/>
</a>
</g>
</g>
<!-- Node7 -->
<g id="Node000007" class="node">
<title>Node7</title>
<g id="a_Node000007"><a xlink:href="classWindow.html#abde910f5e4b012211f4cd0425d0bece1" target="_top" xlink:title="Draws the menu options.">
<polygon fill="white" stroke="#666666" points="522.25,-248 386.25,-248 386.25,-228 522.25,-228 522.25,-248"/>
<text text-anchor="middle" x="454.25" y="-234.5" font-family="Helvetica,sans-Serif" font-size="10.00">Window::drawMenuOptions</text>
</a>
</g>
</g>
<!-- Node4&#45;&gt;Node7 -->
<g id="edge6_Node000004_Node000007" class="edge">
<title>Node4&#45;&gt;Node7</title>
<g id="a_edge6_Node000004_Node000007"><a xlink:title=" ">
<path fill="none" stroke="#63b8ff" d="M333.34,-238C346.32,-238 360.62,-238 374.68,-238"/>
<polygon fill="#63b8ff" stroke="#63b8ff" points="374.36,-241.5 384.36,-238 374.36,-234.5 374.36,-241.5"/>
</a>
</g>
</g>
<!-- Node6 -->
<g id="Node000006" class="node">
<title>Node6</title>
<g id="a_Node000006"><a xlink:href="classWindow.html#a07c2b4d065cbcb397eafc1a27a337bb7" target="_top" xlink:title="Clears the current window.">
<polygon fill="white" stroke="#666666" points="865.5,-191 737.75,-191 737.75,-171 865.5,-171 865.5,-191"/>
<text text-anchor="middle" x="801.62" y="-177.5" font-family="Helvetica,sans-Serif" font-size="10.00">Window::clearCurrentWin</text>
</a>
</g>
</g>
<!-- Node5&#45;&gt;Node6 -->
<g id="edge5_Node000005_Node000006" class="edge">
<title>Node5&#45;&gt;Node6</title>
<g id="a_edge5_Node000005_Node000006"><a xlink:title=" ">
<path fill="none" stroke="#63b8ff" d="M701.95,-181C709.98,-181 718.17,-181 726.23,-181"/>
<polygon fill="#63b8ff" stroke="#63b8ff" points="726,-184.5 736,-181 726,-177.5 726,-184.5"/>
</a>
</g>
</g>
<!-- Node8&#45;&gt;Node6 -->
<g id="edge8_Node000008_Node000006" class="edge">
<title>Node8&#45;&gt;Node6</title>
<g id="a_edge8_Node000008_Node000006"><a xlink:title=" ">
<path fill="none" stroke="#63b8ff" d="M662.11,-134.45C689.28,-143.59 728.95,-156.92 758.88,-166.97"/>
<polygon fill="#63b8ff" stroke="#63b8ff" points="757.39,-170.17 767.99,-170.03 759.62,-163.53 757.39,-170.17"/>
</a>
</g>
</g>
<!-- Node11 -->
<g id="Node000011" class="node">
<title>Node11</title>
<g id="a_Node000011"><a xlink:href="classWindow.html#a4fbacbbec283653b5500f881c1f7cd7f" target="_top" xlink:title="Draws the main menu.">
<polygon fill="white" stroke="#666666" points="505.38,-172 403.12,-172 403.12,-152 505.38,-152 505.38,-172"/>
<text text-anchor="middle" x="454.25" y="-158.5" font-family="Helvetica,sans-Serif" font-size="10.00">Window::drawMenu</text>
</a>
</g>
</g>
<!-- Node10&#45;&gt;Node11 -->
<g id="edge11_Node000010_Node000011" class="edge">
<title>Node10&#45;&gt;Node11</title>
<g id="a_edge11_Node000010_Node000011"><a xlink:title=" ">
<path fill="none" stroke="#63b8ff" d="M317.65,-162C338.85,-162 366.66,-162 391.57,-162"/>
<polygon fill="#63b8ff" stroke="#63b8ff" points="391.26,-165.5 401.26,-162 391.26,-158.5 391.26,-165.5"/>
</a>
</g>
</g>
<!-- Node11&#45;&gt;Node5 -->
<g id="edge12_Node000011_Node000005" class="edge">
<title>Node11&#45;&gt;Node5</title>
<g id="a_edge12_Node000011_Node000005"><a xlink:title=" ">
<path fill="none" stroke="#63b8ff" d="M505.51,-167.5C518.4,-168.91 532.6,-170.46 546.65,-172"/>
<polygon fill="#63b8ff" stroke="#63b8ff" points="546.03,-175.45 556.35,-173.06 546.79,-168.49 546.03,-175.45"/>
</a>
</g>
</g>
<!-- Node13 -->
<g id="Node000013" class="node">
<title>Node13</title>
<g id="a_Node000013"><a xlink:href="classConfig.html#a62c7c2d485cb30374271dba0eafe63c8" target="_top" xlink:title="Gets any value from the config map.">
<polygon fill="white" stroke="#666666" points="498.25,-96 410.25,-96 410.25,-76 498.25,-76 498.25,-96"/>
<text text-anchor="middle" x="454.25" y="-82.5" font-family="Helvetica,sans-Serif" font-size="10.00">Config::getValue</text>
</a>
</g>
</g>
<!-- Node12&#45;&gt;Node13 -->
<g id="edge14_Node000012_Node000013" class="edge">
<title>Node12&#45;&gt;Node13</title>
<g id="a_edge14_Node000012_Node000013"><a xlink:title=" ">
<path fill="none" stroke="#63b8ff" d="M331.06,-86C352.03,-86 376.78,-86 398.49,-86"/>
<polygon fill="#63b8ff" stroke="#63b8ff" points="398.35,-89.5 408.35,-86 398.35,-82.5 398.35,-89.5"/>
</a>
</g>
</g>
<!-- Node12&#45;&gt;Node14 -->
<g id="edge15_Node000012_Node000014" class="edge">
<title>Node12&#45;&gt;Node14</title>
<g id="a_edge15_Node000012_Node000014"><a xlink:title=" ">
<path fill="none" stroke="#63b8ff" d="M330.15,-75.52C353.13,-70.38 380.78,-64.2 404.05,-59"/>
<polygon fill="#63b8ff" stroke="#63b8ff" points="404.61,-62.46 413.61,-56.86 403.09,-55.63 404.61,-62.46"/>
</a>
</g>
</g>
<!-- Node15 -->
<g id="Node000015" class="node">
<title>Node15</title>
<g id="a_Node000015"><a xlink:href="classMap.html#ab1c2595a555457c0a764a0530b57c0f9" target="_top" xlink:title="Helper function for validating map string.">
<polygon fill="white" stroke="#666666" points="677,-58 583,-58 583,-38 677,-38 677,-58"/>
<text text-anchor="middle" x="630" y="-44.5" font-family="Helvetica,sans-Serif" font-size="10.00">Map::processMap</text>
</a>
</g>
</g>
<!-- Node14&#45;&gt;Node15 -->
<g id="edge16_Node000014_Node000015" class="edge">
<title>Node14&#45;&gt;Node15</title>
<g id="a_edge16_Node000014_Node000015"><a xlink:title=" ">
<path fill="none" stroke="#63b8ff" d="M493.38,-48C516.16,-48 545.56,-48 571.16,-48"/>
<polygon fill="#63b8ff" stroke="#63b8ff" points="571.1,-51.5 581.1,-48 571.1,-44.5 571.1,-51.5"/>
</a>
</g>
</g>
<!-- Node16 -->
<g id="Node000016" class="node">
<title>Node16</title>
<g id="a_Node000016"><a xlink:href="classMap.html#a41b623a0d503b94bf8412ca06296ae1f" target="_top" xlink:title="Helper function for finding crossroads.">
<polygon fill="white" stroke="#666666" points="855,-58 748.25,-58 748.25,-38 855,-38 855,-58"/>
<text text-anchor="middle" x="801.62" y="-44.5" font-family="Helvetica,sans-Serif" font-size="10.00">Map::findCrossroads</text>
</a>
</g>
</g>
<!-- Node15&#45;&gt;Node16 -->
<g id="edge17_Node000015_Node000016" class="edge">
<title>Node15&#45;&gt;Node16</title>
<g id="a_edge17_Node000015_Node000016"><a xlink:title=" ">
<path fill="none" stroke="#63b8ff" d="M677.35,-48C695.64,-48 716.95,-48 736.66,-48"/>
<polygon fill="#63b8ff" stroke="#63b8ff" points="736.53,-51.5 746.53,-48 736.53,-44.5 736.53,-51.5"/>
</a>
</g>
</g>
<!-- Node18 -->
<g id="Node000018" class="node">
<title>Node18</title>
<g id="a_Node000018"><a xlink:href="classMap.html#ae96ad32d3b1600cd41e4a1c3b6a30906" target="_top" xlink:title="Checks if the map is traversable from the given position.">
<polygon fill="white" stroke="#666666" points="855.75,-20 747.5,-20 747.5,0 855.75,0 855.75,-20"/>
<text text-anchor="middle" x="801.62" y="-6.5" font-family="Helvetica,sans-Serif" font-size="10.00">Map::traversableBFS</text>
</a>
</g>
</g>
<!-- Node15&#45;&gt;Node18 -->
<g id="edge19_Node000015_Node000018" class="edge">
<title>Node15&#45;&gt;Node18</title>
<g id="a_edge19_Node000015_Node000018"><a xlink:title=" ">
<path fill="none" stroke="#63b8ff" d="M677.35,-37.62C697.56,-33.09 721.46,-27.74 742.81,-22.95"/>
<polygon fill="#63b8ff" stroke="#63b8ff" points="743.57,-26.37 752.56,-20.77 742.04,-19.54 743.57,-26.37"/>
</a>
</g>
</g>
<!-- Node19 -->
<g id="Node000019" class="node">
<title>Node19</title>
<g id="a_Node000019"><a xlink:href="classMap.html#ad35b3432f383ea258d0ed06fe937c3b9" target="_top" xlink:title="Helper function for validating the map borders.">
<polygon fill="white" stroke="#666666" points="853.12,-96 750.12,-96 750.12,-76 853.12,-76 853.12,-96"/>
<text text-anchor="middle" x="801.62" y="-82.5" font-family="Helvetica,sans-Serif" font-size="10.00">Map::validateBorder</text>
</a>
</g>
</g>
<!-- Node15&#45;&gt;Node19 -->
<g id="edge20_Node000015_Node000019" class="edge">
<title>Node15&#45;&gt;Node19</title>
<g id="a_edge20_Node000015_Node000019"><a xlink:title=" ">
<path fill="none" stroke="#63b8ff" d="M677.35,-58.38C697.56,-62.91 721.46,-68.26 742.81,-73.05"/>
<polygon fill="#63b8ff" stroke="#63b8ff" points="742.04,-76.46 752.56,-75.23 743.57,-69.63 742.04,-76.46"/>
</a>
</g>
</g>
<!-- Node17 -->
<g id="Node000017" class="node">
<title>Node17</title>
<g id="a_Node000017"><a xlink:href="classMap.html#a7d8219ae1c1ff2f45f7e11c5d03dcdb7" target="_top" xlink:title="Checks if given coordinates are a crossroad.">
<polygon fill="white" stroke="#666666" points="994.75,-58 901.5,-58 901.5,-38 994.75,-38 994.75,-58"/>
<text text-anchor="middle" x="948.12" y="-44.5" font-family="Helvetica,sans-Serif" font-size="10.00">Map::isCrossroad</text>
</a>
</g>
</g>
<!-- Node16&#45;&gt;Node17 -->
<g id="edge18_Node000016_Node000017" class="edge">
<title>Node16&#45;&gt;Node17</title>
<g id="a_edge18_Node000016_Node000017"><a xlink:title=" ">
<path fill="none" stroke="#63b8ff" d="M855.2,-48C866.46,-48 878.41,-48 889.83,-48"/>
<polygon fill="#63b8ff" stroke="#63b8ff" points="889.52,-51.5 899.52,-48 889.52,-44.5 889.52,-51.5"/>
</a>
</g>
</g>
<!-- Node20&#45;&gt;Node6 -->
<g id="edge23_Node000020_Node000006" class="edge">
<title>Node20&#45;&gt;Node6</title>
<g id="a_edge23_Node000020_Node000006"><a xlink:title=" ">
<path fill="none" stroke="#63b8ff" d="M654.23,-246.59C683.46,-233.5 733.86,-210.91 767.22,-195.97"/>
<polygon fill="#63b8ff" stroke="#63b8ff" points="768.33,-199.31 776.02,-192.02 765.47,-192.92 768.33,-199.31"/>
</a>
</g>
</g>
</g>
</svg>
