<?xml version="1.0" encoding="UTF-8" standalone="no"?>
<!DOCTYPE svg PUBLIC "-//W3C//DTD SVG 1.1//EN"
 "http://www.w3.org/Graphics/SVG/1.1/DTD/svg11.dtd">
<!-- Generated by graphviz version 2.43.0 (0)
 -->
<!-- Title: main Pages: 1 -->
<svg width="1082pt" height="332pt"
 viewBox="0.00 0.00 1082.00 332.00" xmlns="http://www.w3.org/2000/svg" xmlns:xlink="http://www.w3.org/1999/xlink">
<g id="graph0" class="graph" transform="scale(1 1) rotate(0) translate(4 328)">
<title>main</title>
<polygon fill="white" stroke="transparent" points="-4,4 -4,-328 1078,-328 1078,4 -4,4"/>
<!-- Node1 -->
<g id="node1" class="node">
<title>Node1</title>
<g id="a_node1"><a xlink:title=" ">
<polygon fill="#bfbfbf" stroke="black" points="0,-171.5 0,-190.5 41,-190.5 41,-171.5 0,-171.5"/>
<text text-anchor="middle" x="20.5" y="-178.5" font-family="Helvetica,sans-Serif" font-size="10.00">main</text>
</a>
</g>
</g>
<!-- Node2 -->
<g id="node2" class="node">
<title>Node2</title>
<g id="a_node2"><a xlink:href="classGameManager.html#a8460b2f4f44c19dd405e4163fe6cb5cf" target="_top" xlink:title=" ">
<polygon fill="white" stroke="black" points="77,-171.5 77,-190.5 194,-190.5 194,-171.5 77,-171.5"/>
<text text-anchor="middle" x="135.5" y="-178.5" font-family="Helvetica,sans-Serif" font-size="10.00">GameManager::start</text>
</a>
</g>
</g>
<!-- Node1&#45;&gt;Node2 -->
<g id="edge1" class="edge">
<title>Node1&#45;&gt;Node2</title>
<path fill="none" stroke="midnightblue" d="M41.18,-181C48.52,-181 57.32,-181 66.55,-181"/>
<polygon fill="midnightblue" stroke="midnightblue" points="66.69,-184.5 76.69,-181 66.69,-177.5 66.69,-184.5"/>
</g>
<!-- Node3 -->
<g id="node3" class="node">
<title>Node3</title>
<g id="a_node3"><a xlink:href="classWindow.html#a21910d98970e829ac1aa67db65a53476" target="_top" xlink:title="Exits ncurses window.">
<polygon fill="white" stroke="black" points="266,-304.5 266,-323.5 346,-323.5 346,-304.5 266,-304.5"/>
<text text-anchor="middle" x="306" y="-311.5" font-family="Helvetica,sans-Serif" font-size="10.00">Window::exit</text>
</a>
</g>
</g>
<!-- Node2&#45;&gt;Node3 -->
<g id="edge2" class="edge">
<title>Node2&#45;&gt;Node3</title>
<path fill="none" stroke="midnightblue" d="M142.19,-190.73C155.09,-211.92 188.66,-262.57 230,-290 237.86,-295.22 246.94,-299.37 256,-302.64"/>
<polygon fill="midnightblue" stroke="midnightblue" points="255.18,-306.06 265.77,-305.87 257.37,-299.41 255.18,-306.06"/>
</g>
<!-- Node4 -->
<g id="node4" class="node">
<title>Node4</title>
<g id="a_node4"><a xlink:href="classWindow.html#a56e7061bfcf6df5725b61e3f0399e865" target="_top" xlink:title="Gets the user choice from the main menu.">
<polygon fill="white" stroke="black" points="251,-228.5 251,-247.5 361,-247.5 361,-228.5 251,-228.5"/>
<text text-anchor="middle" x="306" y="-235.5" font-family="Helvetica,sans-Serif" font-size="10.00">Window::getChoice</text>
</a>
</g>
</g>
<!-- Node2&#45;&gt;Node4 -->
<g id="edge3" class="edge">
<title>Node2&#45;&gt;Node4</title>
<path fill="none" stroke="midnightblue" d="M157.73,-190.61C176.48,-198.86 204.69,-210.7 230,-219 237.45,-221.44 245.4,-223.76 253.23,-225.88"/>
<polygon fill="midnightblue" stroke="midnightblue" points="252.49,-229.31 263.05,-228.46 254.27,-222.54 252.49,-229.31"/>
</g>
<!-- Node8 -->
<g id="node8" class="node">
<title>Node8</title>
<g id="a_node8"><a xlink:href="classWindow.html#a2238e5489102fe2a77e7898a07dc37b5" target="_top" xlink:title="Gets text input from the user.">
<polygon fill="white" stroke="black" points="631.5,-114.5 631.5,-133.5 732.5,-133.5 732.5,-114.5 631.5,-114.5"/>
<text text-anchor="middle" x="682" y="-121.5" font-family="Helvetica,sans-Serif" font-size="10.00">Window::getInput</text>
</a>
</g>
</g>
<!-- Node2&#45;&gt;Node8 -->
<g id="edge7" class="edge">
<title>Node2&#45;&gt;Node8</title>
<path fill="none" stroke="midnightblue" d="M154.53,-171.49C172.93,-162.31 202.6,-148.96 230,-143 367.43,-113.12 533.8,-115.8 621.01,-120.07"/>
<polygon fill="midnightblue" stroke="midnightblue" points="621.08,-123.58 631.24,-120.59 621.44,-116.58 621.08,-123.58"/>
</g>
<!-- Node9 -->
<g id="node9" class="node">
<title>Node9</title>
<g id="a_node9"><a xlink:href="classGameManager.html#a53965fe19bf3351541159ce74608844e" target="_top" xlink:title=" ">
<polygon fill="white" stroke="black" points="230,-190.5 230,-209.5 382,-209.5 382,-190.5 230,-190.5"/>
<text text-anchor="middle" x="306" y="-197.5" font-family="Helvetica,sans-Serif" font-size="10.00">GameManager::handleInput</text>
</a>
</g>
</g>
<!-- Node2&#45;&gt;Node9 -->
<g id="edge9" class="edge">
<title>Node2&#45;&gt;Node9</title>
<path fill="none" stroke="midnightblue" d="M194.02,-187.49C202.31,-188.42 210.99,-189.4 219.68,-190.38"/>
<polygon fill="midnightblue" stroke="midnightblue" points="219.54,-193.89 229.87,-191.53 220.32,-186.93 219.54,-193.89"/>
</g>
<!-- Node10 -->
<g id="node10" class="node">
<title>Node10</title>
<g id="a_node10"><a xlink:href="classWindow.html#a4d8c7f316ef9e8a4488d00c430957c16" target="_top" xlink:title="Initializes ncurses window.">
<polygon fill="white" stroke="black" points="267.5,-152.5 267.5,-171.5 344.5,-171.5 344.5,-152.5 267.5,-152.5"/>
<text text-anchor="middle" x="306" y="-159.5" font-family="Helvetica,sans-Serif" font-size="10.00">Window::init</text>
</a>
</g>
</g>
<!-- Node2&#45;&gt;Node10 -->
<g id="edge10" class="edge">
<title>Node2&#45;&gt;Node10</title>
<path fill="none" stroke="midnightblue" d="M194.02,-174.51C214.64,-172.19 237.64,-169.6 257.34,-167.37"/>
<polygon fill="midnightblue" stroke="midnightblue" points="257.76,-170.85 267.3,-166.25 256.98,-163.89 257.76,-170.85"/>
</g>
<!-- Node12 -->
<g id="node12" class="node">
<title>Node12</title>
<g id="a_node12"><a xlink:href="classConfig.html#ab8b24da021cd9ad9ca092749292ca6ed" target="_top" xlink:title="Loads the config from a file.">
<polygon fill="white" stroke="black" points="253.5,-76.5 253.5,-95.5 358.5,-95.5 358.5,-76.5 253.5,-76.5"/>
<text text-anchor="middle" x="306" y="-83.5" font-family="Helvetica,sans-Serif" font-size="10.00">Config::loadConfig</text>
</a>
</g>
</g>
<!-- Node2&#45;&gt;Node12 -->
<g id="edge13" class="edge">
<title>Node2&#45;&gt;Node12</title>
<path fill="none" stroke="midnightblue" d="M146.63,-171.42C162.98,-156.41 196.73,-127.3 230,-110 238.37,-105.65 247.68,-101.89 256.82,-98.74"/>
<polygon fill="midnightblue" stroke="midnightblue" points="258.18,-101.97 266.61,-95.55 256.01,-95.32 258.18,-101.97"/>
</g>
<!-- Node14 -->
<g id="node14" class="node">
<title>Node14</title>
<g id="a_node14"><a xlink:href="classMap.html#a2657d897204aaedba0e8e4f01b2e1efc" target="_top" xlink:title="Loads the map from a file.">
<polygon fill="white" stroke="black" points="449.5,-38.5 449.5,-57.5 535.5,-57.5 535.5,-38.5 449.5,-38.5"/>
<text text-anchor="middle" x="492.5" y="-45.5" font-family="Helvetica,sans-Serif" font-size="10.00">Map::loadMap</text>
</a>
</g>
</g>
<!-- Node2&#45;&gt;Node14 -->
<g id="edge21" class="edge">
<title>Node2&#45;&gt;Node14</title>
<path fill="none" stroke="midnightblue" d="M140.93,-171.44C152.11,-148.58 183.87,-90.91 230,-67 295.87,-32.86 383.87,-34.49 439.12,-40.18"/>
<polygon fill="midnightblue" stroke="midnightblue" points="439.05,-43.7 449.38,-41.32 439.82,-36.74 439.05,-43.7"/>
</g>
<!-- Node20 -->
<g id="node20" class="node">
<title>Node20</title>
<g id="a_node20"><a xlink:href="classWindow.html#aba37c5e32e43d21a46968fd8ada1d327" target="_top" xlink:title="Prints the message to the current window.">
<polygon fill="white" stroke="black" points="618.5,-247.5 618.5,-266.5 745.5,-266.5 745.5,-247.5 618.5,-247.5"/>
<text text-anchor="middle" x="682" y="-254.5" font-family="Helvetica,sans-Serif" font-size="10.00">Window::printMessage</text>
</a>
</g>
</g>
<!-- Node2&#45;&gt;Node20 -->
<g id="edge22" class="edge">
<title>Node2&#45;&gt;Node20</title>
<path fill="none" stroke="midnightblue" d="M144.24,-190.62C158.83,-207.9 192.35,-243.63 230,-257 365.91,-305.27 539.74,-284.07 626.55,-268.39"/>
<polygon fill="midnightblue" stroke="midnightblue" points="627.25,-271.82 636.45,-266.56 625.98,-264.94 627.25,-271.82"/>
</g>
<!-- Node5 -->
<g id="node5" class="node">
<title>Node5</title>
<g id="a_node5"><a xlink:href="classWindow.html#ac9718717327b190f444c9fe3955477a7" target="_top" xlink:title="Creates the main menu window.">
<polygon fill="white" stroke="black" points="603,-171.5 603,-190.5 761,-190.5 761,-171.5 603,-171.5"/>
<text text-anchor="middle" x="682" y="-178.5" font-family="Helvetica,sans-Serif" font-size="10.00">Window::createMenuWindow</text>
</a>
</g>
</g>
<!-- Node4&#45;&gt;Node5 -->
<g id="edge4" class="edge">
<title>Node4&#45;&gt;Node5</title>
<path fill="none" stroke="midnightblue" d="M360.87,-228.49C379.01,-225.36 399.36,-221.94 418,-219 479.52,-209.29 549.29,-199.26 601.51,-191.94"/>
<polygon fill="midnightblue" stroke="midnightblue" points="602.29,-195.36 611.71,-190.51 601.32,-188.43 602.29,-195.36"/>
</g>
<!-- Node7 -->
<g id="node7" class="node">
<title>Node7</title>
<g id="a_node7"><a xlink:href="classWindow.html#abde910f5e4b012211f4cd0425d0bece1" target="_top" xlink:title="Draws the menu options.">
<polygon fill="white" stroke="black" points="418,-228.5 418,-247.5 567,-247.5 567,-228.5 418,-228.5"/>
<text text-anchor="middle" x="492.5" y="-235.5" font-family="Helvetica,sans-Serif" font-size="10.00">Window::drawMenuOptions</text>
</a>
</g>
</g>
<!-- Node4&#45;&gt;Node7 -->
<g id="edge6" class="edge">
<title>Node4&#45;&gt;Node7</title>
<path fill="none" stroke="midnightblue" d="M361.36,-238C375.83,-238 391.81,-238 407.48,-238"/>
<polygon fill="midnightblue" stroke="midnightblue" points="407.7,-241.5 417.7,-238 407.7,-234.5 407.7,-241.5"/>
</g>
<!-- Node6 -->
<g id="node6" class="node">
<title>Node6</title>
<g id="a_node6"><a xlink:href="classWindow.html#a07c2b4d065cbcb397eafc1a27a337bb7" target="_top" xlink:title="Clears the current window.">
<polygon fill="white" stroke="black" points="797,-171.5 797,-190.5 937,-190.5 937,-171.5 797,-171.5"/>
<text text-anchor="middle" x="867" y="-178.5" font-family="Helvetica,sans-Serif" font-size="10.00">Window::clearCurrentWin</text>
</a>
</g>
</g>
<!-- Node5&#45;&gt;Node6 -->
<g id="edge5" class="edge">
<title>Node5&#45;&gt;Node6</title>
<path fill="none" stroke="midnightblue" d="M761.14,-181C769.57,-181 778.15,-181 786.59,-181"/>
<polygon fill="midnightblue" stroke="midnightblue" points="786.79,-184.5 796.79,-181 786.79,-177.5 786.79,-184.5"/>
</g>
<!-- Node8&#45;&gt;Node6 -->
<g id="edge8" class="edge">
<title>Node8&#45;&gt;Node6</title>
<path fill="none" stroke="midnightblue" d="M713.63,-133.54C744.38,-143.12 791.9,-157.92 825.69,-168.45"/>
<polygon fill="midnightblue" stroke="midnightblue" points="824.68,-171.8 835.27,-171.43 826.76,-165.11 824.68,-171.8"/>
</g>
<!-- Node11 -->
<g id="node11" class="node">
<title>Node11</title>
<g id="a_node11"><a xlink:href="classWindow.html#a4fbacbbec283653b5500f881c1f7cd7f" target="_top" xlink:title="Draws the main menu.">
<polygon fill="white" stroke="black" points="436.5,-152.5 436.5,-171.5 548.5,-171.5 548.5,-152.5 436.5,-152.5"/>
<text text-anchor="middle" x="492.5" y="-159.5" font-family="Helvetica,sans-Serif" font-size="10.00">Window::drawMenu</text>
</a>
</g>
</g>
<!-- Node10&#45;&gt;Node11 -->
<g id="edge11" class="edge">
<title>Node10&#45;&gt;Node11</title>
<path fill="none" stroke="midnightblue" d="M344.78,-162C368.15,-162 398.79,-162 426.02,-162"/>
<polygon fill="midnightblue" stroke="midnightblue" points="426.27,-165.5 436.27,-162 426.27,-158.5 426.27,-165.5"/>
</g>
<!-- Node11&#45;&gt;Node5 -->
<g id="edge12" class="edge">
<title>Node11&#45;&gt;Node5</title>
<path fill="none" stroke="midnightblue" d="M548.74,-167.6C562.52,-168.99 577.64,-170.53 592.59,-172.04"/>
<polygon fill="midnightblue" stroke="midnightblue" points="592.58,-175.56 602.88,-173.08 593.29,-168.59 592.58,-175.56"/>
</g>
<!-- Node13 -->
<g id="node13" class="node">
<title>Node13</title>
<g id="a_node13"><a xlink:href="classConfig.html#a62c7c2d485cb30374271dba0eafe63c8" target="_top" xlink:title="Gets any value from the config map.">
<polygon fill="white" stroke="black" points="444.5,-76.5 444.5,-95.5 540.5,-95.5 540.5,-76.5 444.5,-76.5"/>
<text text-anchor="middle" x="492.5" y="-83.5" font-family="Helvetica,sans-Serif" font-size="10.00">Config::getValue</text>
</a>
</g>
</g>
<!-- Node12&#45;&gt;Node13 -->
<g id="edge14" class="edge">
<title>Node12&#45;&gt;Node13</title>
<path fill="none" stroke="midnightblue" d="M358.88,-86C382.39,-86 410.24,-86 434.34,-86"/>
<polygon fill="midnightblue" stroke="midnightblue" points="434.42,-89.5 444.42,-86 434.42,-82.5 434.42,-89.5"/>
</g>
<!-- Node12&#45;&gt;Node14 -->
<g id="edge15" class="edge">
<title>Node12&#45;&gt;Node14</title>
<path fill="none" stroke="midnightblue" d="M353.56,-76.41C379.68,-71.03 412.35,-64.3 439.34,-58.74"/>
<polygon fill="midnightblue" stroke="midnightblue" points="440.29,-62.12 449.37,-56.68 438.87,-55.27 440.29,-62.12"/>
</g>
<!-- Node15 -->
<g id="node15" class="node">
<title>Node15</title>
<g id="a_node15"><a xlink:href="classMap.html#ab1c2595a555457c0a764a0530b57c0f9" target="_top" xlink:title="Helper function for validating map string.">
<polygon fill="white" stroke="black" points="631,-38.5 631,-57.5 733,-57.5 733,-38.5 631,-38.5"/>
<text text-anchor="middle" x="682" y="-45.5" font-family="Helvetica,sans-Serif" font-size="10.00">Map::processMap</text>
</a>
</g>
</g>
<!-- Node14&#45;&gt;Node15 -->
<g id="edge16" class="edge">
<title>Node14&#45;&gt;Node15</title>
<path fill="none" stroke="midnightblue" d="M535.58,-48C560.68,-48 592.96,-48 620.73,-48"/>
<polygon fill="midnightblue" stroke="midnightblue" points="620.74,-51.5 630.74,-48 620.74,-44.5 620.74,-51.5"/>
</g>
<!-- Node16 -->
<g id="node16" class="node">
<title>Node16</title>
<g id="a_node16"><a xlink:href="classMap.html#a41b623a0d503b94bf8412ca06296ae1f" target="_top" xlink:title="Helper function for finding crossroads.">
<polygon fill="white" stroke="black" points="809,-38.5 809,-57.5 925,-57.5 925,-38.5 809,-38.5"/>
<text text-anchor="middle" x="867" y="-45.5" font-family="Helvetica,sans-Serif" font-size="10.00">Map::findCrossroads</text>
</a>
</g>
</g>
<!-- Node15&#45;&gt;Node16 -->
<g id="edge17" class="edge">
<title>Node15&#45;&gt;Node16</title>
<path fill="none" stroke="midnightblue" d="M733.01,-48C753.29,-48 777.02,-48 798.78,-48"/>
<polygon fill="midnightblue" stroke="midnightblue" points="798.94,-51.5 808.94,-48 798.94,-44.5 798.94,-51.5"/>
</g>
<!-- Node18 -->
<g id="node18" class="node">
<title>Node18</title>
<g id="a_node18"><a xlink:href="classMap.html#ae96ad32d3b1600cd41e4a1c3b6a30906" target="_top" xlink:title="Checks if the map is traversable from the given position.">
<polygon fill="white" stroke="black" points="808.5,-0.5 808.5,-19.5 925.5,-19.5 925.5,-0.5 808.5,-0.5"/>
<text text-anchor="middle" x="867" y="-7.5" font-family="Helvetica,sans-Serif" font-size="10.00">Map::traversableBFS</text>
</a>
</g>
</g>
<!-- Node15&#45;&gt;Node18 -->
<g id="edge19" class="edge">
<title>Node15&#45;&gt;Node18</title>
<path fill="none" stroke="midnightblue" d="M729.18,-38.41C753.76,-33.31 784.19,-26.99 810.1,-21.61"/>
<polygon fill="midnightblue" stroke="midnightblue" points="811.07,-24.98 820.15,-19.52 809.65,-18.13 811.07,-24.98"/>
</g>
<!-- Node19 -->
<g id="node19" class="node">
<title>Node19</title>
<g id="a_node19"><a xlink:href="classMap.html#ad35b3432f383ea258d0ed06fe937c3b9" target="_top" xlink:title="Helper function for validating the map borders.">
<polygon fill="white" stroke="black" points="809,-76.5 809,-95.5 925,-95.5 925,-76.5 809,-76.5"/>
<text text-anchor="middle" x="867" y="-83.5" font-family="Helvetica,sans-Serif" font-size="10.00">Map::validateBorder</text>
</a>
</g>
</g>
<!-- Node15&#45;&gt;Node19 -->
<g id="edge20" class="edge">
<title>Node15&#45;&gt;Node19</title>
<path fill="none" stroke="midnightblue" d="M729.18,-57.59C753.76,-62.69 784.19,-69.01 810.1,-74.39"/>
<polygon fill="midnightblue" stroke="midnightblue" points="809.65,-77.87 820.15,-76.48 811.07,-71.02 809.65,-77.87"/>
</g>
<!-- Node17 -->
<g id="node17" class="node">
<title>Node17</title>
<g id="a_node17"><a xlink:href="classMap.html#a7d8219ae1c1ff2f45f7e11c5d03dcdb7" target="_top" xlink:title="Checks if given coordinates are a crossroad.">
<polygon fill="white" stroke="black" points="973,-38.5 973,-57.5 1074,-57.5 1074,-38.5 973,-38.5"/>
<text text-anchor="middle" x="1023.5" y="-45.5" font-family="Helvetica,sans-Serif" font-size="10.00">Map::isCrossroad</text>
</a>
</g>
</g>
<!-- Node16&#45;&gt;Node17 -->
<g id="edge18" class="edge">
<title>Node16&#45;&gt;Node17</title>
<path fill="none" stroke="midnightblue" d="M925.09,-48C937.31,-48 950.26,-48 962.59,-48"/>
<polygon fill="midnightblue" stroke="midnightblue" points="962.76,-51.5 972.76,-48 962.76,-44.5 962.76,-51.5"/>
</g>
<!-- Node20&#45;&gt;Node6 -->
<g id="edge23" class="edge">
<title>Node20&#45;&gt;Node6</title>
<path fill="none" stroke="midnightblue" d="M706.18,-247.37C738.49,-233.95 797.22,-209.57 833.78,-194.38"/>
<polygon fill="midnightblue" stroke="midnightblue" points="835.12,-197.62 843.01,-190.55 832.43,-191.15 835.12,-197.62"/>
</g>
</g>
</svg>
