<?xml version="1.0" encoding="UTF-8" standalone="no"?>
<!DOCTYPE svg PUBLIC "-//W3C//DTD SVG 1.1//EN"
 "http://www.w3.org/Graphics/SVG/1.1/DTD/svg11.dtd">
<!-- Generated by graphviz version 10.0.1 (0)
 -->
<!-- Title: src/Map.h Pages: 1 -->
<svg width="346pt" height="252pt"
 viewBox="0.00 0.00 345.50 252.00" xmlns="http://www.w3.org/2000/svg" xmlns:xlink="http://www.w3.org/1999/xlink">
<g id="graph0" class="graph" transform="scale(1 1) rotate(0) translate(4 248)">
<title>src/Map.h</title>
<!-- Node1 -->
<g id="Node000001" class="node">
<title>Node1</title>
<g id="a_Node000001"><a xlink:title="Class for handling the game map.">
<polygon fill="#999999" stroke="#666666" points="206.25,-244 146.75,-244 146.75,-224 206.25,-224 206.25,-244"/>
<text text-anchor="middle" x="176.5" y="-230.5" font-family="Helvetica,sans-Serif" font-size="10.00">src/Map.h</text>
</a>
</g>
</g>
<!-- Node2 -->
<g id="Node000002" class="node">
<title>Node2</title>
<g id="a_Node000002"><a xlink:title=" ">
<polygon fill="#e0e0e0" stroke="#999999" points="337.5,-76 297.5,-76 297.5,-56 337.5,-56 337.5,-76"/>
<text text-anchor="middle" x="317.5" y="-62.5" font-family="Helvetica,sans-Serif" font-size="10.00">string</text>
</a>
</g>
</g>
<!-- Node1&#45;&gt;Node2 -->
<g id="edge1_Node000001_Node000002" class="edge">
<title>Node1&#45;&gt;Node2</title>
<g id="a_edge1_Node000001_Node000002"><a xlink:title=" ">
<path fill="none" stroke="#63b8ff" d="M201.82,-223.51C235.39,-209.37 293.21,-179.27 317.5,-132 324.53,-118.32 324.07,-100.79 322.11,-87.38"/>
<polygon fill="#63b8ff" stroke="#63b8ff" points="325.62,-87.12 320.34,-77.94 318.74,-88.41 325.62,-87.12"/>
</a>
</g>
</g>
<!-- Node3 -->
<g id="Node000003" class="node">
<title>Node3</title>
<g id="a_Node000003"><a xlink:title=" ">
<polygon fill="#e0e0e0" stroke="#999999" points="43,-76 0,-76 0,-56 43,-56 43,-76"/>
<text text-anchor="middle" x="21.5" y="-62.5" font-family="Helvetica,sans-Serif" font-size="10.00">vector</text>
</a>
</g>
</g>
<!-- Node1&#45;&gt;Node3 -->
<g id="edge2_Node000001_Node000003" class="edge">
<title>Node1&#45;&gt;Node3</title>
<g id="a_edge2_Node000001_Node000003"><a xlink:title=" ">
<path fill="none" stroke="#63b8ff" d="M149.28,-223.56C113.8,-209.65 53.07,-180 25.5,-132 17.82,-118.63 17.19,-101.05 18.27,-87.55"/>
<polygon fill="#63b8ff" stroke="#63b8ff" points="21.75,-87.97 19.48,-77.62 14.8,-87.12 21.75,-87.97"/>
</a>
</g>
</g>
<!-- Node4 -->
<g id="Node000004" class="node">
<title>Node4</title>
<g id="a_Node000004"><a xlink:href="Window_8h.html" target="_top" xlink:title="Class for handling ncurses windows.">
<polygon fill="white" stroke="#666666" points="205.5,-188 147.5,-188 147.5,-168 205.5,-168 205.5,-188"/>
<text text-anchor="middle" x="176.5" y="-174.5" font-family="Helvetica,sans-Serif" font-size="10.00">Window.h</text>
</a>
</g>
</g>
<!-- Node1&#45;&gt;Node4 -->
<g id="edge3_Node000001_Node000004" class="edge">
<title>Node1&#45;&gt;Node4</title>
<g id="a_edge3_Node000001_Node000004"><a xlink:title=" ">
<path fill="none" stroke="#63b8ff" d="M176.5,-223.59C176.5,-217.01 176.5,-207.96 176.5,-199.73"/>
<polygon fill="#63b8ff" stroke="#63b8ff" points="180,-199.81 176.5,-189.81 173,-199.81 180,-199.81"/>
</a>
</g>
</g>
<!-- Node4&#45;&gt;Node2 -->
<g id="edge5_Node000004_Node000002" class="edge">
<title>Node4&#45;&gt;Node2</title>
<g id="a_edge5_Node000004_Node000002"><a xlink:title=" ">
<path fill="none" stroke="#63b8ff" d="M205.75,-173.73C233.39,-169.11 274.16,-158.08 298.5,-132 309.79,-119.9 314.41,-101.45 316.28,-87.3"/>
<polygon fill="#63b8ff" stroke="#63b8ff" points="319.73,-88.02 317.17,-77.74 312.76,-87.37 319.73,-88.02"/>
</a>
</g>
</g>
<!-- Node4&#45;&gt;Node3 -->
<g id="edge7_Node000004_Node000003" class="edge">
<title>Node4&#45;&gt;Node3</title>
<g id="a_edge7_Node000004_Node000003"><a xlink:title=" ">
<path fill="none" stroke="#63b8ff" d="M147.13,-175.08C116.38,-171.5 68.74,-161.25 40.5,-132 29.01,-120.09 24.41,-101.63 22.6,-87.42"/>
<polygon fill="#63b8ff" stroke="#63b8ff" points="26.11,-87.46 21.75,-77.8 19.14,-88.07 26.11,-87.46"/>
</a>
</g>
</g>
<!-- Node5 -->
<g id="Node000005" class="node">
<title>Node5</title>
<g id="a_Node000005"><a xlink:title=" ">
<polygon fill="#e0e0e0" stroke="#999999" points="107.88,-132 49.12,-132 49.12,-112 107.88,-112 107.88,-132"/>
<text text-anchor="middle" x="78.5" y="-118.5" font-family="Helvetica,sans-Serif" font-size="10.00">ncurses.h</text>
</a>
</g>
</g>
<!-- Node4&#45;&gt;Node5 -->
<g id="edge4_Node000004_Node000005" class="edge">
<title>Node4&#45;&gt;Node5</title>
<g id="a_edge4_Node000004_Node000005"><a xlink:title=" ">
<path fill="none" stroke="#63b8ff" d="M159.43,-167.59C144.62,-159.44 122.93,-147.48 105.73,-138"/>
<polygon fill="#63b8ff" stroke="#63b8ff" points="107.48,-134.97 97.03,-133.21 104.1,-141.1 107.48,-134.97"/>
</a>
</g>
</g>
<!-- Node6 -->
<g id="Node000006" class="node">
<title>Node6</title>
<g id="a_Node000006"><a xlink:title=" ">
<polygon fill="#e0e0e0" stroke="#999999" points="175.38,-132 125.62,-132 125.62,-112 175.38,-112 175.38,-132"/>
<text text-anchor="middle" x="150.5" y="-118.5" font-family="Helvetica,sans-Serif" font-size="10.00">optional</text>
</a>
</g>
</g>
<!-- Node4&#45;&gt;Node6 -->
<g id="edge6_Node000004_Node000006" class="edge">
<title>Node4&#45;&gt;Node6</title>
<g id="a_edge6_Node000004_Node000006"><a xlink:title=" ">
<path fill="none" stroke="#63b8ff" d="M171.97,-167.59C168.65,-160.7 164.03,-151.1 159.92,-142.57"/>
<polygon fill="#63b8ff" stroke="#63b8ff" points="163.13,-141.15 155.63,-133.66 156.82,-144.19 163.13,-141.15"/>
</a>
</g>
</g>
<!-- Node7 -->
<g id="Node000007" class="node">
<title>Node7</title>
<g id="a_Node000007"><a xlink:href="Enums_8h.html" target="_top" xlink:title=" ">
<polygon fill="white" stroke="#666666" points="255,-76 200,-76 200,-56 255,-56 255,-76"/>
<text text-anchor="middle" x="227.5" y="-62.5" font-family="Helvetica,sans-Serif" font-size="10.00">Enums.h</text>
</a>
</g>
</g>
<!-- Node4&#45;&gt;Node7 -->
<g id="edge8_Node000004_Node000007" class="edge">
<title>Node4&#45;&gt;Node7</title>
<g id="a_edge8_Node000004_Node000007"><a xlink:title=" ">
<path fill="none" stroke="#63b8ff" d="M180.85,-167.62C189.13,-149.76 207.32,-110.53 218.38,-86.67"/>
<polygon fill="#63b8ff" stroke="#63b8ff" points="221.5,-88.27 222.53,-77.73 215.14,-85.33 221.5,-88.27"/>
</a>
</g>
</g>
<!-- Node9 -->
<g id="Node000009" class="node">
<title>Node9</title>
<g id="a_Node000009"><a xlink:href="Helpers_8h.html" target="_top" xlink:title=" ">
<polygon fill="white" stroke="#666666" points="289.5,-132 231.5,-132 231.5,-112 289.5,-112 289.5,-132"/>
<text text-anchor="middle" x="260.5" y="-118.5" font-family="Helvetica,sans-Serif" font-size="10.00">Helpers.h</text>
</a>
</g>
</g>
<!-- Node4&#45;&gt;Node9 -->
<g id="edge10_Node000004_Node000009" class="edge">
<title>Node4&#45;&gt;Node9</title>
<g id="a_edge10_Node000004_Node000009"><a xlink:title=" ">
<path fill="none" stroke="#63b8ff" d="M191.13,-167.59C203.58,-159.59 221.72,-147.93 236.32,-138.54"/>
<polygon fill="#63b8ff" stroke="#63b8ff" points="237.96,-141.65 244.48,-133.3 234.18,-135.76 237.96,-141.65"/>
</a>
</g>
</g>
<!-- Node8 -->
<g id="Node000008" class="node">
<title>Node8</title>
<g id="a_Node000008"><a xlink:title=" ">
<polygon fill="#e0e0e0" stroke="#999999" points="247.12,-20 207.88,-20 207.88,0 247.12,0 247.12,-20"/>
<text text-anchor="middle" x="227.5" y="-6.5" font-family="Helvetica,sans-Serif" font-size="10.00">utility</text>
</a>
</g>
</g>
<!-- Node7&#45;&gt;Node8 -->
<g id="edge9_Node000007_Node000008" class="edge">
<title>Node7&#45;&gt;Node8</title>
<g id="a_edge9_Node000007_Node000008"><a xlink:title=" ">
<path fill="none" stroke="#63b8ff" d="M227.5,-55.59C227.5,-49.01 227.5,-39.96 227.5,-31.73"/>
<polygon fill="#63b8ff" stroke="#63b8ff" points="231,-31.81 227.5,-21.81 224,-31.81 231,-31.81"/>
</a>
</g>
</g>
<!-- Node9&#45;&gt;Node2 -->
<g id="edge12_Node000009_Node000002" class="edge">
<title>Node9&#45;&gt;Node2</title>
<g id="a_edge12_Node000009_Node000002"><a xlink:title=" ">
<path fill="none" stroke="#63b8ff" d="M270.43,-111.59C278.44,-104.01 289.92,-93.13 299.53,-84.02"/>
<polygon fill="#63b8ff" stroke="#63b8ff" points="301.73,-86.76 306.59,-77.34 296.92,-81.68 301.73,-86.76"/>
</a>
</g>
</g>
<!-- Node9&#45;&gt;Node3 -->
<g id="edge13_Node000009_Node000003" class="edge">
<title>Node9&#45;&gt;Node3</title>
<g id="a_edge13_Node000009_Node000003"><a xlink:title=" ">
<path fill="none" stroke="#63b8ff" d="M231.19,-114.38C186.38,-104.25 101.1,-84.99 54.29,-74.41"/>
<polygon fill="#63b8ff" stroke="#63b8ff" points="55.27,-71.04 44.74,-72.25 53.72,-77.87 55.27,-71.04"/>
</a>
</g>
</g>
<!-- Node9&#45;&gt;Node7 -->
<g id="edge11_Node000009_Node000007" class="edge">
<title>Node9&#45;&gt;Node7</title>
<g id="a_edge11_Node000009_Node000007"><a xlink:title=" ">
<path fill="none" stroke="#63b8ff" d="M254.75,-111.59C250.45,-104.55 244.41,-94.67 239.11,-86"/>
<polygon fill="#63b8ff" stroke="#63b8ff" points="242.17,-84.3 233.97,-77.59 236.2,-87.95 242.17,-84.3"/>
</a>
</g>
</g>
</g>
</svg>
