<?xml version="1.0" encoding="UTF-8" standalone="no"?>
<!DOCTYPE svg PUBLIC "-//W3C//DTD SVG 1.1//EN"
 "http://www.w3.org/Graphics/SVG/1.1/DTD/svg11.dtd">
<!-- Generated by graphviz version 10.0.1 (0)
 -->
<!-- Title: src/Map.h Pages: 1 -->
<svg width="1302pt" height="364pt"
 viewBox="0.00 0.00 1301.75 364.00" xmlns="http://www.w3.org/2000/svg" xmlns:xlink="http://www.w3.org/1999/xlink">
<g id="graph0" class="graph" transform="scale(1 1) rotate(0) translate(4 360)">
<title>src/Map.h</title>
<!-- Node1 -->
<g id="Node000001" class="node">
<title>Node1</title>
<g id="a_Node000001"><a xlink:title="Class for handling the game map.">
<polygon fill="#999999" stroke="#666666" points="733.62,-356 674.12,-356 674.12,-336 733.62,-336 733.62,-356"/>
<text text-anchor="middle" x="703.88" y="-342.5" font-family="Helvetica,sans-Serif" font-size="10.00">src/Map.h</text>
</a>
</g>
</g>
<!-- Node2 -->
<g id="Node000002" class="node">
<title>Node2</title>
<g id="a_Node000002"><a xlink:href="Config_8cpp.html" target="_top" xlink:title="Class for handling the game configuration.">
<polygon fill="white" stroke="#666666" points="79.75,-300 0,-300 0,-280 79.75,-280 79.75,-300"/>
<text text-anchor="middle" x="39.88" y="-286.5" font-family="Helvetica,sans-Serif" font-size="10.00">src/Config.cpp</text>
</a>
</g>
</g>
<!-- Node1&#45;&gt;Node2 -->
<g id="edge1_Node000001_Node000002" class="edge">
<title>Node1&#45;&gt;Node2</title>
<g id="a_edge1_Node000001_Node000002"><a xlink:title=" ">
<path fill="none" stroke="#63b8ff" d="M662.38,-343.25C563.62,-338.8 306.89,-325.55 93.88,-300 89.44,-299.47 84.81,-298.83 80.21,-298.14"/>
<polygon fill="#63b8ff" stroke="#63b8ff" points="661.97,-346.74 672.12,-343.68 662.28,-339.74 661.97,-346.74"/>
</a>
</g>
</g>
<!-- Node3 -->
<g id="Node000003" class="node">
<title>Node3</title>
<g id="a_Node000003"><a xlink:href="EnemyBehavior_8h.html" target="_top" xlink:title="Base class for all enemy behaviors.">
<polygon fill="white" stroke="#666666" points="652.38,-244 543.38,-244 543.38,-224 652.38,-224 652.38,-244"/>
<text text-anchor="middle" x="597.88" y="-230.5" font-family="Helvetica,sans-Serif" font-size="10.00">src/EnemyBehavior.h</text>
</a>
</g>
</g>
<!-- Node1&#45;&gt;Node3 -->
<g id="edge2_Node000001_Node000003" class="edge">
<title>Node1&#45;&gt;Node3</title>
<g id="a_edge2_Node000001_Node000003"><a xlink:title=" ">
<path fill="none" stroke="#63b8ff" d="M687.04,-327.53C664.31,-303.95 624.63,-262.76 606.89,-244.35"/>
<polygon fill="#63b8ff" stroke="#63b8ff" points="684.33,-329.76 693.79,-334.53 689.37,-324.9 684.33,-329.76"/>
</a>
</g>
</g>
<!-- Node6 -->
<g id="Node000006" class="node">
<title>Node6</title>
<g id="a_Node000006"><a xlink:href="Ghost_8cpp.html" target="_top" xlink:title="Represents a ghost enemy.">
<polygon fill="white" stroke="#666666" points="473.62,-132 396.12,-132 396.12,-112 473.62,-112 473.62,-132"/>
<text text-anchor="middle" x="434.88" y="-118.5" font-family="Helvetica,sans-Serif" font-size="10.00">src/Ghost.cpp</text>
</a>
</g>
</g>
<!-- Node1&#45;&gt;Node6 -->
<g id="edge23_Node000001_Node000006" class="edge">
<title>Node1&#45;&gt;Node6</title>
<g id="a_edge23_Node000001_Node000006"><a xlink:title=" ">
<path fill="none" stroke="#63b8ff" d="M662.36,-340.16C541.35,-325.12 193.3,-274.91 126.88,-188 77.94,-123.98 -77.55,-207.65 386.88,-132 389.8,-131.52 392.83,-131.01 395.87,-130.47"/>
<polygon fill="#63b8ff" stroke="#63b8ff" points="661.82,-343.62 672.17,-341.36 662.67,-336.67 661.82,-343.62"/>
</a>
</g>
</g>
<!-- Node11 -->
<g id="Node000011" class="node">
<title>Node11</title>
<g id="a_Node000011"><a xlink:href="Ghost_8h.html" target="_top" xlink:title="Represents a ghost enemy.">
<polygon fill="white" stroke="#666666" points="773.38,-188 706.38,-188 706.38,-168 773.38,-168 773.38,-188"/>
<text text-anchor="middle" x="739.88" y="-174.5" font-family="Helvetica,sans-Serif" font-size="10.00">src/Ghost.h</text>
</a>
</g>
</g>
<!-- Node1&#45;&gt;Node11 -->
<g id="edge24_Node000001_Node000011" class="edge">
<title>Node1&#45;&gt;Node11</title>
<g id="a_edge24_Node000001_Node000011"><a xlink:title=" ">
<path fill="none" stroke="#63b8ff" d="M704.3,-324.35C704.85,-311.5 706.09,-294.68 708.88,-280 715.43,-245.4 729.59,-205.89 736.26,-188.29"/>
<polygon fill="#63b8ff" stroke="#63b8ff" points="700.81,-324.04 704,-334.15 707.8,-324.26 700.81,-324.04"/>
</a>
</g>
</g>
<!-- Node12 -->
<g id="Node000012" class="node">
<title>Node12</title>
<g id="a_Node000012"><a xlink:href="Game_8h.html" target="_top" xlink:title="Class for handling the game logic.">
<polygon fill="white" stroke="#666666" points="809.38,-132 742.38,-132 742.38,-112 809.38,-112 809.38,-132"/>
<text text-anchor="middle" x="775.88" y="-118.5" font-family="Helvetica,sans-Serif" font-size="10.00">src/Game.h</text>
</a>
</g>
</g>
<!-- Node1&#45;&gt;Node12 -->
<g id="edge22_Node000001_Node000012" class="edge">
<title>Node1&#45;&gt;Node12</title>
<g id="a_edge22_Node000001_Node000012"><a xlink:title=" ">
<path fill="none" stroke="#63b8ff" d="M714.89,-325.92C734.97,-290.72 776.1,-216.53 782.88,-188 787.49,-168.56 782.45,-145.13 778.85,-132.38"/>
<polygon fill="#63b8ff" stroke="#63b8ff" points="711.87,-324.15 709.93,-334.56 717.94,-327.63 711.87,-324.15"/>
</a>
</g>
</g>
<!-- Node18 -->
<g id="Node000018" class="node">
<title>Node18</title>
<g id="a_Node000018"><a xlink:href="Map_8cpp.html" target="_top" xlink:title="Class for handling the game map.">
<polygon fill="white" stroke="#666666" points="820.88,-300 750.88,-300 750.88,-280 820.88,-280 820.88,-300"/>
<text text-anchor="middle" x="785.88" y="-286.5" font-family="Helvetica,sans-Serif" font-size="10.00">src/Map.cpp</text>
</a>
</g>
</g>
<!-- Node1&#45;&gt;Node18 -->
<g id="edge25_Node000001_Node000018" class="edge">
<title>Node1&#45;&gt;Node18</title>
<g id="a_edge25_Node000001_Node000018"><a xlink:title=" ">
<path fill="none" stroke="#63b8ff" d="M727.76,-329.27C741.92,-319.94 759.41,-308.43 771.48,-300.48"/>
<polygon fill="#63b8ff" stroke="#63b8ff" points="725.85,-326.34 719.42,-334.76 729.7,-332.18 725.85,-326.34"/>
</a>
</g>
</g>
<!-- Node19 -->
<g id="Node000019" class="node">
<title>Node19</title>
<g id="a_Node000019"><a xlink:href="MovingObject_8h.html" target="_top" xlink:title="Base class for all moving objects.">
<polygon fill="white" stroke="#666666" points="939.25,-300 838.5,-300 838.5,-280 939.25,-280 939.25,-300"/>
<text text-anchor="middle" x="888.88" y="-286.5" font-family="Helvetica,sans-Serif" font-size="10.00">src/MovingObject.h</text>
</a>
</g>
</g>
<!-- Node1&#45;&gt;Node19 -->
<g id="edge26_Node000001_Node000019" class="edge">
<title>Node1&#45;&gt;Node19</title>
<g id="a_edge26_Node000001_Node000019"><a xlink:title=" ">
<path fill="none" stroke="#63b8ff" d="M744.87,-333.03C778.53,-323.21 825.54,-309.49 856.58,-300.43"/>
<polygon fill="#63b8ff" stroke="#63b8ff" points="744.08,-329.62 735.46,-335.78 746.04,-336.34 744.08,-329.62"/>
</a>
</g>
</g>
<!-- Node31 -->
<g id="Node000031" class="node">
<title>Node31</title>
<g id="a_Node000031"><a xlink:href="Player_8h.html" target="_top" xlink:title="Represents a player.">
<polygon fill="white" stroke="#666666" points="993.75,-244 926,-244 926,-224 993.75,-224 993.75,-244"/>
<text text-anchor="middle" x="959.88" y="-230.5" font-family="Helvetica,sans-Serif" font-size="10.00">src/Player.h</text>
</a>
</g>
</g>
<!-- Node1&#45;&gt;Node31 -->
<g id="edge50_Node000001_Node000031" class="edge">
<title>Node1&#45;&gt;Node31</title>
<g id="a_edge50_Node000001_Node000031"><a xlink:title=" ">
<path fill="none" stroke="#63b8ff" d="M745.09,-342.92C807.06,-338.91 919.97,-327.9 947.88,-300 962.64,-285.23 962.48,-258.61 961.15,-244.45"/>
<polygon fill="#63b8ff" stroke="#63b8ff" points="745.05,-339.42 735.29,-343.52 745.48,-346.4 745.05,-339.42"/>
</a>
</g>
</g>
<!-- Node4 -->
<g id="Node000004" class="node">
<title>Node4</title>
<g id="a_Node000004"><a xlink:href="ChaseBehavior_8h.html" target="_top" xlink:title="Class for handling the chase behavior of ghosts.">
<polygon fill="white" stroke="#666666" points="242.25,-188 135.5,-188 135.5,-168 242.25,-168 242.25,-188"/>
<text text-anchor="middle" x="188.88" y="-174.5" font-family="Helvetica,sans-Serif" font-size="10.00">src/ChaseBehavior.h</text>
</a>
</g>
</g>
<!-- Node3&#45;&gt;Node4 -->
<g id="edge3_Node000003_Node000004" class="edge">
<title>Node3&#45;&gt;Node4</title>
<g id="a_edge3_Node000003_Node000004"><a xlink:title=" ">
<path fill="none" stroke="#63b8ff" d="M531.9,-224.75C462.07,-215.94 348.64,-201.43 250.88,-188 248.18,-187.63 245.42,-187.25 242.64,-186.86"/>
<polygon fill="#63b8ff" stroke="#63b8ff" points="531.29,-228.2 541.65,-225.97 532.16,-221.25 531.29,-228.2"/>
</a>
</g>
</g>
<!-- Node7 -->
<g id="Node000007" class="node">
<title>Node7</title>
<g id="a_Node000007"><a xlink:href="EnemyBehavior_8cpp.html" target="_top" xlink:title="Base class for all enemy behaviors.">
<polygon fill="white" stroke="#666666" points="521.62,-188 402.12,-188 402.12,-168 521.62,-168 521.62,-188"/>
<text text-anchor="middle" x="461.88" y="-174.5" font-family="Helvetica,sans-Serif" font-size="10.00">src/EnemyBehavior.cpp</text>
</a>
</g>
</g>
<!-- Node3&#45;&gt;Node7 -->
<g id="edge6_Node000003_Node000007" class="edge">
<title>Node3&#45;&gt;Node7</title>
<g id="a_edge6_Node000003_Node000007"><a xlink:title=" ">
<path fill="none" stroke="#63b8ff" d="M563.63,-219.4C539.33,-209.75 507.32,-197.05 485.75,-188.48"/>
<polygon fill="#63b8ff" stroke="#63b8ff" points="562.19,-222.6 572.78,-223.04 564.78,-216.09 562.19,-222.6"/>
</a>
</g>
</g>
<!-- Node8 -->
<g id="Node000008" class="node">
<title>Node8</title>
<g id="a_Node000008"><a xlink:href="FrightenedBehavior_8h.html" target="_top" xlink:title="Class representing a frightened ghost behavior.">
<polygon fill="white" stroke="#666666" points="383.88,-188 259.88,-188 259.88,-168 383.88,-168 383.88,-188"/>
<text text-anchor="middle" x="321.88" y="-174.5" font-family="Helvetica,sans-Serif" font-size="10.00">src/FrightenedBehavior.h</text>
</a>
</g>
</g>
<!-- Node3&#45;&gt;Node8 -->
<g id="edge7_Node000003_Node000008" class="edge">
<title>Node3&#45;&gt;Node8</title>
<g id="a_edge7_Node000003_Node000008"><a xlink:title=" ">
<path fill="none" stroke="#63b8ff" d="M538.46,-221.37C488.18,-211.54 417.05,-197.62 370.21,-188.46"/>
<polygon fill="#63b8ff" stroke="#63b8ff" points="537.51,-224.76 548,-223.24 538.86,-217.89 537.51,-224.76"/>
</a>
</g>
</g>
<!-- Node10 -->
<g id="Node000010" class="node">
<title>Node10</title>
<g id="a_Node000010"><a xlink:href="Game_8cpp.html" target="_top" xlink:title="Class for handling the game logic.">
<polygon fill="white" stroke="#666666" points="895.62,-76 818.12,-76 818.12,-56 895.62,-56 895.62,-76"/>
<text text-anchor="middle" x="856.88" y="-62.5" font-family="Helvetica,sans-Serif" font-size="10.00">src/Game.cpp</text>
</a>
</g>
</g>
<!-- Node3&#45;&gt;Node10 -->
<g id="edge10_Node000003_Node000010" class="edge">
<title>Node3&#45;&gt;Node10</title>
<g id="a_edge10_Node000003_Node000010"><a xlink:title=" ">
<path fill="none" stroke="#63b8ff" d="M621.03,-217.21C632.71,-208.93 646.91,-198.37 658.88,-188 694.75,-156.93 693.96,-137.66 733.88,-112 759.79,-95.34 792.73,-83.71 818,-76.45"/>
<polygon fill="#63b8ff" stroke="#63b8ff" points="619.35,-214.12 613.15,-222.71 623.36,-219.86 619.35,-214.12"/>
</a>
</g>
</g>
<!-- Node3&#45;&gt;Node11 -->
<g id="edge11_Node000003_Node000011" class="edge">
<title>Node3&#45;&gt;Node11</title>
<g id="a_edge11_Node000003_Node000011"><a xlink:title=" ">
<path fill="none" stroke="#63b8ff" d="M633.29,-219.53C658.7,-209.87 692.32,-197.08 714.95,-188.48"/>
<polygon fill="#63b8ff" stroke="#63b8ff" points="632.13,-216.23 624.02,-223.06 634.62,-222.77 632.13,-216.23"/>
</a>
</g>
</g>
<!-- Node16 -->
<g id="Node000016" class="node">
<title>Node16</title>
<g id="a_Node000016"><a xlink:href="ScatterBehavior_8h.html" target="_top" xlink:title="Class for the scatter behavior of the ghosts.">
<polygon fill="white" stroke="#666666" points="649.75,-188 540,-188 540,-168 649.75,-168 649.75,-188"/>
<text text-anchor="middle" x="594.88" y="-174.5" font-family="Helvetica,sans-Serif" font-size="10.00">src/ScatterBehavior.h</text>
</a>
</g>
</g>
<!-- Node3&#45;&gt;Node16 -->
<g id="edge18_Node000003_Node000016" class="edge">
<title>Node3&#45;&gt;Node16</title>
<g id="a_edge18_Node000003_Node000016"><a xlink:title=" ">
<path fill="none" stroke="#63b8ff" d="M596.72,-212.13C596.26,-203.9 595.76,-194.85 595.39,-188.3"/>
<polygon fill="#63b8ff" stroke="#63b8ff" points="593.22,-212.29 597.27,-222.08 600.21,-211.9 593.22,-212.29"/>
</a>
</g>
</g>
<!-- Node5 -->
<g id="Node000005" class="node">
<title>Node5</title>
<g id="a_Node000005"><a xlink:href="ChaseBehavior_8cpp.html" target="_top" xlink:title="Class for handling the chase behavior of ghosts.">
<polygon fill="white" stroke="#666666" points="225.5,-132 108.25,-132 108.25,-112 225.5,-112 225.5,-132"/>
<text text-anchor="middle" x="166.88" y="-118.5" font-family="Helvetica,sans-Serif" font-size="10.00">src/ChaseBehavior.cpp</text>
</a>
</g>
</g>
<!-- Node4&#45;&gt;Node5 -->
<g id="edge4_Node000004_Node000005" class="edge">
<title>Node4&#45;&gt;Node5</title>
<g id="a_edge4_Node000004_Node000005"><a xlink:title=" ">
<path fill="none" stroke="#63b8ff" d="M180.73,-157C177.28,-148.54 173.43,-139.08 170.66,-132.3"/>
<polygon fill="#63b8ff" stroke="#63b8ff" points="177.46,-158.25 184.47,-166.19 183.94,-155.61 177.46,-158.25"/>
</a>
</g>
</g>
<!-- Node4&#45;&gt;Node6 -->
<g id="edge5_Node000004_Node000006" class="edge">
<title>Node4&#45;&gt;Node6</title>
<g id="a_edge5_Node000004_Node000006"><a xlink:title=" ">
<path fill="none" stroke="#63b8ff" d="M243.03,-165.11C289.25,-154.97 354.61,-140.62 395.85,-131.57"/>
<polygon fill="#63b8ff" stroke="#63b8ff" points="242.5,-161.64 233.48,-167.21 244,-168.48 242.5,-161.64"/>
</a>
</g>
</g>
<!-- Node8&#45;&gt;Node6 -->
<g id="edge9_Node000008_Node000006" class="edge">
<title>Node8&#45;&gt;Node6</title>
<g id="a_edge9_Node000008_Node000006"><a xlink:title=" ">
<path fill="none" stroke="#63b8ff" d="M351.7,-162.75C371.71,-153.18 397.52,-140.85 415.04,-132.48"/>
<polygon fill="#63b8ff" stroke="#63b8ff" points="350.44,-159.47 342.92,-166.94 353.46,-165.79 350.44,-159.47"/>
</a>
</g>
</g>
<!-- Node9 -->
<g id="Node000009" class="node">
<title>Node9</title>
<g id="a_Node000009"><a xlink:href="FrightenedBehavior_8cpp.html" target="_top" xlink:title="Class representing a frightened ghost behavior.">
<polygon fill="white" stroke="#666666" points="378.12,-132 243.62,-132 243.62,-112 378.12,-112 378.12,-132"/>
<text text-anchor="middle" x="310.88" y="-118.5" font-family="Helvetica,sans-Serif" font-size="10.00">src/FrightenedBehavior.cpp</text>
</a>
</g>
</g>
<!-- Node8&#45;&gt;Node9 -->
<g id="edge8_Node000008_Node000009" class="edge">
<title>Node8&#45;&gt;Node9</title>
<g id="a_edge8_Node000008_Node000009"><a xlink:title=" ">
<path fill="none" stroke="#63b8ff" d="M317.68,-156.43C315.99,-148.11 314.12,-138.93 312.77,-132.3"/>
<polygon fill="#63b8ff" stroke="#63b8ff" points="314.23,-157.01 319.66,-166.11 321.09,-155.61 314.23,-157.01"/>
</a>
</g>
</g>
<!-- Node11&#45;&gt;Node6 -->
<g id="edge17_Node000011_Node000006" class="edge">
<title>Node11&#45;&gt;Node6</title>
<g id="a_edge17_Node000011_Node000006"><a xlink:title=" ">
<path fill="none" stroke="#63b8ff" d="M694.84,-169.28C643.51,-160.45 557.1,-145.46 482.88,-132 479.96,-131.47 476.94,-130.92 473.9,-130.36"/>
<polygon fill="#63b8ff" stroke="#63b8ff" points="694.23,-172.73 704.68,-170.98 695.42,-165.83 694.23,-172.73"/>
</a>
</g>
</g>
<!-- Node11&#45;&gt;Node12 -->
<g id="edge12_Node000011_Node000012" class="edge">
<title>Node11&#45;&gt;Node12</title>
<g id="a_edge12_Node000011_Node000012"><a xlink:title=" ">
<path fill="none" stroke="#63b8ff" d="M752.44,-158.15C758.27,-149.4 764.95,-139.39 769.68,-132.3"/>
<polygon fill="#63b8ff" stroke="#63b8ff" points="749.62,-156.07 746.99,-166.33 755.44,-159.96 749.62,-156.07"/>
</a>
</g>
</g>
<!-- Node12&#45;&gt;Node10 -->
<g id="edge13_Node000012_Node000010" class="edge">
<title>Node12&#45;&gt;Node10</title>
<g id="a_edge13_Node000012_Node000010"><a xlink:title=" ">
<path fill="none" stroke="#63b8ff" d="M799.47,-105.27C813.46,-95.94 830.73,-84.43 842.66,-76.48"/>
<polygon fill="#63b8ff" stroke="#63b8ff" points="797.62,-102.3 791.24,-110.75 801.51,-108.12 797.62,-102.3"/>
</a>
</g>
</g>
<!-- Node13 -->
<g id="Node000013" class="node">
<title>Node13</title>
<g id="a_Node000013"><a xlink:href="GameManager_8h.html" target="_top" xlink:title="Handles the game loop and game states.">
<polygon fill="white" stroke="#666666" points="711.75,-76 608,-76 608,-56 711.75,-56 711.75,-76"/>
<text text-anchor="middle" x="659.88" y="-62.5" font-family="Helvetica,sans-Serif" font-size="10.00">src/GameManager.h</text>
</a>
</g>
</g>
<!-- Node12&#45;&gt;Node13 -->
<g id="edge14_Node000012_Node000013" class="edge">
<title>Node12&#45;&gt;Node13</title>
<g id="a_edge14_Node000012_Node000013"><a xlink:title=" ">
<path fill="none" stroke="#63b8ff" d="M745.25,-106.75C724.71,-97.18 698.23,-84.85 680.24,-76.48"/>
<polygon fill="#63b8ff" stroke="#63b8ff" points="743.75,-109.91 754.3,-110.96 746.71,-103.56 743.75,-109.91"/>
</a>
</g>
</g>
<!-- Node14 -->
<g id="Node000014" class="node">
<title>Node14</title>
<g id="a_Node000014"><a xlink:href="GameManager_8cpp.html" target="_top" xlink:title="Handles the game loop and game states.">
<polygon fill="white" stroke="#666666" points="662,-20 547.75,-20 547.75,0 662,0 662,-20"/>
<text text-anchor="middle" x="604.88" y="-6.5" font-family="Helvetica,sans-Serif" font-size="10.00">src/GameManager.cpp</text>
</a>
</g>
</g>
<!-- Node13&#45;&gt;Node14 -->
<g id="edge15_Node000013_Node000014" class="edge">
<title>Node13&#45;&gt;Node14</title>
<g id="a_edge15_Node000013_Node000014"><a xlink:title=" ">
<path fill="none" stroke="#63b8ff" d="M642.12,-47.57C632.88,-38.5 621.96,-27.78 614.35,-20.3"/>
<polygon fill="#63b8ff" stroke="#63b8ff" points="639.63,-50.03 649.21,-54.53 644.53,-45.03 639.63,-50.03"/>
</a>
</g>
</g>
<!-- Node15 -->
<g id="Node000015" class="node">
<title>Node15</title>
<g id="a_Node000015"><a xlink:href="main_8cpp.html" target="_top" xlink:title="Main function, initializes the game manager.">
<polygon fill="white" stroke="#666666" points="752,-20 679.75,-20 679.75,0 752,0 752,-20"/>
<text text-anchor="middle" x="715.88" y="-6.5" font-family="Helvetica,sans-Serif" font-size="10.00">src/main.cpp</text>
</a>
</g>
</g>
<!-- Node13&#45;&gt;Node15 -->
<g id="edge16_Node000013_Node000015" class="edge">
<title>Node13&#45;&gt;Node15</title>
<g id="a_edge16_Node000013_Node000015"><a xlink:title=" ">
<path fill="none" stroke="#63b8ff" d="M677.66,-47.85C687.13,-38.72 698.4,-27.86 706.23,-20.3"/>
<polygon fill="#63b8ff" stroke="#63b8ff" points="675.49,-45.08 670.72,-54.54 680.35,-50.12 675.49,-45.08"/>
</a>
</g>
</g>
<!-- Node16&#45;&gt;Node6 -->
<g id="edge20_Node000016_Node000006" class="edge">
<title>Node16&#45;&gt;Node6</title>
<g id="a_edge20_Node000016_Node000006"><a xlink:title=" ">
<path fill="none" stroke="#63b8ff" d="M556.12,-163.92C527.36,-154.21 488.8,-141.2 462.96,-132.48"/>
<polygon fill="#63b8ff" stroke="#63b8ff" points="554.98,-167.23 565.57,-167.11 557.22,-160.6 554.98,-167.23"/>
</a>
</g>
</g>
<!-- Node16&#45;&gt;Node10 -->
<g id="edge19_Node000016_Node000010" class="edge">
<title>Node16&#45;&gt;Node10</title>
<g id="a_edge19_Node000016_Node000010"><a xlink:title=" ">
<path fill="none" stroke="#63b8ff" d="M609.14,-159.08C621.92,-144.23 641.98,-123.74 663.88,-112 677.37,-104.76 765.4,-85.83 817.8,-74.97"/>
<polygon fill="#63b8ff" stroke="#63b8ff" points="606.51,-156.77 602.81,-166.7 611.89,-161.24 606.51,-156.77"/>
</a>
</g>
</g>
<!-- Node17 -->
<g id="Node000017" class="node">
<title>Node17</title>
<g id="a_Node000017"><a xlink:href="ScatterBehavior_8cpp.html" target="_top" xlink:title="Class for the scatter behavior of the ghosts.">
<polygon fill="white" stroke="#666666" points="612,-132 491.75,-132 491.75,-112 612,-112 612,-132"/>
<text text-anchor="middle" x="551.88" y="-118.5" font-family="Helvetica,sans-Serif" font-size="10.00">src/ScatterBehavior.cpp</text>
</a>
</g>
</g>
<!-- Node16&#45;&gt;Node17 -->
<g id="edge21_Node000016_Node000017" class="edge">
<title>Node16&#45;&gt;Node17</title>
<g id="a_edge21_Node000016_Node000017"><a xlink:title=" ">
<path fill="none" stroke="#63b8ff" d="M580.32,-158.72C573.25,-149.84 565.05,-139.55 559.28,-132.3"/>
<polygon fill="#63b8ff" stroke="#63b8ff" points="577.47,-160.77 586.44,-166.41 582.95,-156.41 577.47,-160.77"/>
</a>
</g>
</g>
<!-- Node19&#45;&gt;Node3 -->
<g id="edge27_Node000019_Node000003" class="edge">
<title>Node19&#45;&gt;Node3</title>
<g id="a_edge27_Node000019_Node000003"><a xlink:title=" ">
<path fill="none" stroke="#63b8ff" d="M826.9,-277.5C773.9,-267.67 698.55,-253.68 648.96,-244.48"/>
<polygon fill="#63b8ff" stroke="#63b8ff" points="826.23,-280.93 836.7,-279.32 827.5,-274.05 826.23,-280.93"/>
</a>
</g>
</g>
<!-- Node19&#45;&gt;Node11 -->
<g id="edge28_Node000019_Node000011" class="edge">
<title>Node19&#45;&gt;Node11</title>
<g id="a_edge28_Node000019_Node000011"><a xlink:title=" ">
<path fill="none" stroke="#63b8ff" d="M845.49,-275.67C826.22,-268.36 804.06,-257.9 786.88,-244 767.17,-228.06 751.73,-201.93 744.45,-188.16"/>
<polygon fill="#63b8ff" stroke="#63b8ff" points="844.12,-278.9 854.72,-279 846.5,-272.32 844.12,-278.9"/>
</a>
</g>
</g>
<!-- Node20 -->
<g id="Node000020" class="node">
<title>Node20</title>
<g id="a_Node000020"><a xlink:href="InteractiveObject_8h.html" target="_top" xlink:title="Base class for all interactive objects.">
<polygon fill="white" stroke="#666666" points="1079.38,-188 964.38,-188 964.38,-168 1079.38,-168 1079.38,-188"/>
<text text-anchor="middle" x="1021.88" y="-174.5" font-family="Helvetica,sans-Serif" font-size="10.00">src/InteractiveObject.h</text>
</a>
</g>
</g>
<!-- Node19&#45;&gt;Node20 -->
<g id="edge29_Node000019_Node000020" class="edge">
<title>Node19&#45;&gt;Node20</title>
<g id="a_edge29_Node000019_Node000020"><a xlink:title=" ">
<path fill="none" stroke="#63b8ff" d="M950.33,-276.04C969.4,-269.31 989.02,-259.18 1002.88,-244 1017.3,-228.19 1020.82,-202.01 1021.65,-188.19"/>
<polygon fill="#63b8ff" stroke="#63b8ff" points="949.4,-272.66 940.96,-279.07 951.55,-279.33 949.4,-272.66"/>
</a>
</g>
</g>
<!-- Node30 -->
<g id="Node000030" class="node">
<title>Node30</title>
<g id="a_Node000030"><a xlink:href="MovingObject_8cpp.html" target="_top" xlink:title="Base class for all moving objects.">
<polygon fill="white" stroke="#666666" points="907.5,-244 796.25,-244 796.25,-224 907.5,-224 907.5,-244"/>
<text text-anchor="middle" x="851.88" y="-230.5" font-family="Helvetica,sans-Serif" font-size="10.00">src/MovingObject.cpp</text>
</a>
</g>
</g>
<!-- Node19&#45;&gt;Node30 -->
<g id="edge44_Node000019_Node000030" class="edge">
<title>Node19&#45;&gt;Node30</title>
<g id="a_edge44_Node000019_Node000030"><a xlink:title=" ">
<path fill="none" stroke="#63b8ff" d="M875.96,-270.15C869.97,-261.4 863.11,-251.39 858.25,-244.3"/>
<polygon fill="#63b8ff" stroke="#63b8ff" points="873.03,-272.07 881.57,-278.35 878.81,-268.12 873.03,-272.07"/>
</a>
</g>
</g>
<!-- Node19&#45;&gt;Node31 -->
<g id="edge45_Node000019_Node000031" class="edge">
<title>Node19&#45;&gt;Node31</title>
<g id="a_edge45_Node000019_Node000031"><a xlink:title=" ">
<path fill="none" stroke="#63b8ff" d="M910.33,-272.68C922.55,-263.39 937.41,-252.09 947.65,-244.3"/>
<polygon fill="#63b8ff" stroke="#63b8ff" points="908.29,-269.84 902.45,-278.68 912.53,-275.41 908.29,-269.84"/>
</a>
</g>
</g>
<!-- Node20&#45;&gt;Node12 -->
<g id="edge36_Node000020_Node000012" class="edge">
<title>Node20&#45;&gt;Node12</title>
<g id="a_edge36_Node000020_Node000012"><a xlink:title=" ">
<path fill="none" stroke="#63b8ff" d="M967.59,-165.08C919.43,-154.51 850.6,-139.4 809.84,-130.46"/>
<polygon fill="#63b8ff" stroke="#63b8ff" points="966.75,-168.48 977.27,-167.21 968.25,-161.64 966.75,-168.48"/>
</a>
</g>
</g>
<!-- Node21 -->
<g id="Node000021" class="node">
<title>Node21</title>
<g id="a_Node000021"><a xlink:href="Cherry_8h.html" target="_top" xlink:title="Class representing a cherry collectible.">
<polygon fill="white" stroke="#666666" points="973.12,-132 904.62,-132 904.62,-112 973.12,-112 973.12,-132"/>
<text text-anchor="middle" x="938.88" y="-118.5" font-family="Helvetica,sans-Serif" font-size="10.00">src/Cherry.h</text>
</a>
</g>
</g>
<!-- Node20&#45;&gt;Node21 -->
<g id="edge30_Node000020_Node000021" class="edge">
<title>Node20&#45;&gt;Node21</title>
<g id="a_edge30_Node000020_Node000021"><a xlink:title=" ">
<path fill="none" stroke="#63b8ff" d="M998.12,-161.54C983.71,-152.17 965.78,-140.51 953.45,-132.48"/>
<polygon fill="#63b8ff" stroke="#63b8ff" points="995.86,-164.25 1006.15,-166.77 999.68,-158.38 995.86,-164.25"/>
</a>
</g>
</g>
<!-- Node23 -->
<g id="Node000023" class="node">
<title>Node23</title>
<g id="a_Node000023"><a xlink:href="Coin_8h.html" target="_top" xlink:title="Class representing a coin collectible.">
<polygon fill="white" stroke="#666666" points="1052.38,-132 991.38,-132 991.38,-112 1052.38,-112 1052.38,-132"/>
<text text-anchor="middle" x="1021.88" y="-118.5" font-family="Helvetica,sans-Serif" font-size="10.00">src/Coin.h</text>
</a>
</g>
</g>
<!-- Node20&#45;&gt;Node23 -->
<g id="edge33_Node000020_Node000023" class="edge">
<title>Node20&#45;&gt;Node23</title>
<g id="a_edge33_Node000020_Node000023"><a xlink:title=" ">
<path fill="none" stroke="#63b8ff" d="M1021.88,-156.13C1021.88,-147.9 1021.88,-138.85 1021.88,-132.3"/>
<polygon fill="#63b8ff" stroke="#63b8ff" points="1018.38,-156.08 1021.88,-166.08 1025.38,-156.08 1018.38,-156.08"/>
</a>
</g>
</g>
<!-- Node25 -->
<g id="Node000025" class="node">
<title>Node25</title>
<g id="a_Node000025"><a xlink:href="InteractiveObject_8cpp.html" target="_top" xlink:title="Base class for all interactive objects.">
<polygon fill="white" stroke="#666666" points="1195.62,-132 1070.12,-132 1070.12,-112 1195.62,-112 1195.62,-132"/>
<text text-anchor="middle" x="1132.88" y="-118.5" font-family="Helvetica,sans-Serif" font-size="10.00">src/InteractiveObject.cpp</text>
</a>
</g>
</g>
<!-- Node20&#45;&gt;Node25 -->
<g id="edge37_Node000020_Node000025" class="edge">
<title>Node20&#45;&gt;Node25</title>
<g id="a_edge37_Node000020_Node000025"><a xlink:title=" ">
<path fill="none" stroke="#63b8ff" d="M1051.45,-162.61C1071.07,-153.07 1096.26,-140.81 1113.39,-132.48"/>
<polygon fill="#63b8ff" stroke="#63b8ff" points="1050.03,-159.41 1042.57,-166.93 1053.09,-165.7 1050.03,-159.41"/>
</a>
</g>
</g>
<!-- Node26 -->
<g id="Node000026" class="node">
<title>Node26</title>
<g id="a_Node000026"><a xlink:href="Teleport_8h.html" target="_top" xlink:title="Represents a teleport object.">
<polygon fill="white" stroke="#666666" points="1288.5,-132 1213.25,-132 1213.25,-112 1288.5,-112 1288.5,-132"/>
<text text-anchor="middle" x="1250.88" y="-118.5" font-family="Helvetica,sans-Serif" font-size="10.00">src/Teleport.h</text>
</a>
</g>
</g>
<!-- Node20&#45;&gt;Node26 -->
<g id="edge38_Node000020_Node000026" class="edge">
<title>Node20&#45;&gt;Node26</title>
<g id="a_edge38_Node000020_Node000026"><a xlink:title=" ">
<path fill="none" stroke="#63b8ff" d="M1072.97,-164.95C1115.4,-154.95 1174.79,-140.94 1213.05,-131.92"/>
<polygon fill="#63b8ff" stroke="#63b8ff" points="1072.43,-161.48 1063.5,-167.18 1074.04,-168.3 1072.43,-161.48"/>
</a>
</g>
</g>
<!-- Node28 -->
<g id="Node000028" class="node">
<title>Node28</title>
<g id="a_Node000028"><a xlink:href="Wall_8h.html" target="_top" xlink:title="Represents a wall object.">
<polygon fill="white" stroke="#666666" points="886.62,-132 827.12,-132 827.12,-112 886.62,-112 886.62,-132"/>
<text text-anchor="middle" x="856.88" y="-118.5" font-family="Helvetica,sans-Serif" font-size="10.00">src/Wall.h</text>
</a>
</g>
</g>
<!-- Node20&#45;&gt;Node28 -->
<g id="edge41_Node000020_Node000028" class="edge">
<title>Node20&#45;&gt;Node28</title>
<g id="a_edge41_Node000020_Node000028"><a xlink:title=" ">
<path fill="none" stroke="#63b8ff" d="M982.3,-164.05C952.6,-154.33 912.6,-141.24 885.84,-132.48"/>
<polygon fill="#63b8ff" stroke="#63b8ff" points="981.1,-167.34 991.7,-167.12 983.28,-160.69 981.1,-167.34"/>
</a>
</g>
</g>
<!-- Node21&#45;&gt;Node10 -->
<g id="edge32_Node000021_Node000010" class="edge">
<title>Node21&#45;&gt;Node10</title>
<g id="a_edge32_Node000021_Node000010"><a xlink:title=" ">
<path fill="none" stroke="#63b8ff" d="M914.99,-105.27C900.83,-95.94 883.34,-84.43 871.27,-76.48"/>
<polygon fill="#63b8ff" stroke="#63b8ff" points="913.05,-108.18 923.33,-110.76 916.9,-102.34 913.05,-108.18"/>
</a>
</g>
</g>
<!-- Node22 -->
<g id="Node000022" class="node">
<title>Node22</title>
<g id="a_Node000022"><a xlink:href="Cherry_8cpp.html" target="_top" xlink:title="Class representing a cherry collectible.">
<polygon fill="white" stroke="#666666" points="992.38,-76 913.38,-76 913.38,-56 992.38,-56 992.38,-76"/>
<text text-anchor="middle" x="952.88" y="-62.5" font-family="Helvetica,sans-Serif" font-size="10.00">src/Cherry.cpp</text>
</a>
</g>
</g>
<!-- Node21&#45;&gt;Node22 -->
<g id="edge31_Node000021_Node000022" class="edge">
<title>Node21&#45;&gt;Node22</title>
<g id="a_edge31_Node000021_Node000022"><a xlink:title=" ">
<path fill="none" stroke="#63b8ff" d="M944.13,-100.71C946.31,-92.32 948.73,-83.01 950.46,-76.3"/>
<polygon fill="#63b8ff" stroke="#63b8ff" points="940.82,-99.57 941.69,-110.13 947.59,-101.33 940.82,-99.57"/>
</a>
</g>
</g>
<!-- Node23&#45;&gt;Node10 -->
<g id="edge35_Node000023_Node000010" class="edge">
<title>Node23&#45;&gt;Node10</title>
<g id="a_edge35_Node000023_Node000010"><a xlink:title=" ">
<path fill="none" stroke="#63b8ff" d="M982.3,-108.05C952.6,-98.33 912.6,-85.24 885.84,-76.48"/>
<polygon fill="#63b8ff" stroke="#63b8ff" points="981.1,-111.34 991.7,-111.12 983.28,-104.69 981.1,-111.34"/>
</a>
</g>
</g>
<!-- Node24 -->
<g id="Node000024" class="node">
<title>Node24</title>
<g id="a_Node000024"><a xlink:href="Coin_8cpp.html" target="_top" xlink:title="Class representing a coin collectible.">
<polygon fill="white" stroke="#666666" points="1081.62,-76 1010.12,-76 1010.12,-56 1081.62,-56 1081.62,-76"/>
<text text-anchor="middle" x="1045.88" y="-62.5" font-family="Helvetica,sans-Serif" font-size="10.00">src/Coin.cpp</text>
</a>
</g>
</g>
<!-- Node23&#45;&gt;Node24 -->
<g id="edge34_Node000023_Node000024" class="edge">
<title>Node23&#45;&gt;Node24</title>
<g id="a_edge34_Node000023_Node000024"><a xlink:title=" ">
<path fill="none" stroke="#63b8ff" d="M1030.63,-101.29C1034.43,-92.75 1038.69,-83.16 1041.74,-76.3"/>
<polygon fill="#63b8ff" stroke="#63b8ff" points="1027.53,-99.65 1026.67,-110.21 1033.93,-102.49 1027.53,-99.65"/>
</a>
</g>
</g>
<!-- Node26&#45;&gt;Node10 -->
<g id="edge39_Node000026_Node000010" class="edge">
<title>Node26&#45;&gt;Node10</title>
<g id="a_edge39_Node000026_Node000010"><a xlink:title=" ">
<path fill="none" stroke="#63b8ff" d="M1201.46,-111.56C1070.26,-91.36 1033.98,-95.83 904.88,-76 901.94,-75.55 898.91,-75.05 895.87,-74.53"/>
<polygon fill="#63b8ff" stroke="#63b8ff" points="1200.84,-115 1211.26,-113.08 1201.92,-108.08 1200.84,-115"/>
</a>
</g>
</g>
<!-- Node27 -->
<g id="Node000027" class="node">
<title>Node27</title>
<g id="a_Node000027"><a xlink:href="Teleport_8cpp.html" target="_top" xlink:title="Represents a teleport object.">
<polygon fill="white" stroke="#666666" points="1293.75,-76 1208,-76 1208,-56 1293.75,-56 1293.75,-76"/>
<text text-anchor="middle" x="1250.88" y="-62.5" font-family="Helvetica,sans-Serif" font-size="10.00">src/Teleport.cpp</text>
</a>
</g>
</g>
<!-- Node26&#45;&gt;Node27 -->
<g id="edge40_Node000026_Node000027" class="edge">
<title>Node26&#45;&gt;Node27</title>
<g id="a_edge40_Node000026_Node000027"><a xlink:title=" ">
<path fill="none" stroke="#63b8ff" d="M1250.88,-100.13C1250.88,-91.9 1250.88,-82.85 1250.88,-76.3"/>
<polygon fill="#63b8ff" stroke="#63b8ff" points="1247.38,-100.08 1250.88,-110.08 1254.38,-100.08 1247.38,-100.08"/>
</a>
</g>
</g>
<!-- Node28&#45;&gt;Node10 -->
<g id="edge42_Node000028_Node000010" class="edge">
<title>Node28&#45;&gt;Node10</title>
<g id="a_edge42_Node000028_Node000010"><a xlink:title=" ">
<path fill="none" stroke="#63b8ff" d="M856.88,-100.13C856.88,-91.9 856.88,-82.85 856.88,-76.3"/>
<polygon fill="#63b8ff" stroke="#63b8ff" points="853.38,-100.08 856.88,-110.08 860.38,-100.08 853.38,-100.08"/>
</a>
</g>
</g>
<!-- Node29 -->
<g id="Node000029" class="node">
<title>Node29</title>
<g id="a_Node000029"><a xlink:href="Wall_8cpp.html" target="_top" xlink:title="Represents a wall object.">
<polygon fill="white" stroke="#666666" points="799.88,-76 729.88,-76 729.88,-56 799.88,-56 799.88,-76"/>
<text text-anchor="middle" x="764.88" y="-62.5" font-family="Helvetica,sans-Serif" font-size="10.00">src/Wall.cpp</text>
</a>
</g>
</g>
<!-- Node28&#45;&gt;Node29 -->
<g id="edge43_Node000028_Node000029" class="edge">
<title>Node28&#45;&gt;Node29</title>
<g id="a_edge43_Node000028_Node000029"><a xlink:title=" ">
<path fill="none" stroke="#63b8ff" d="M831,-105.81C814.95,-96.39 794.83,-84.58 781.03,-76.48"/>
<polygon fill="#63b8ff" stroke="#63b8ff" points="829.15,-108.78 839.54,-110.83 832.69,-102.75 829.15,-108.78"/>
</a>
</g>
</g>
<!-- Node31&#45;&gt;Node11 -->
<g id="edge47_Node000031_Node000011" class="edge">
<title>Node31&#45;&gt;Node11</title>
<g id="a_edge47_Node000031_Node000011"><a xlink:title=" ">
<path fill="none" stroke="#63b8ff" d="M914.5,-221.86C872.62,-211.58 811.37,-196.55 773.65,-187.29"/>
<polygon fill="#63b8ff" stroke="#63b8ff" points="913.48,-225.22 924.03,-224.2 915.15,-218.42 913.48,-225.22"/>
</a>
</g>
</g>
<!-- Node31&#45;&gt;Node12 -->
<g id="edge46_Node000031_Node000012" class="edge">
<title>Node31&#45;&gt;Node12</title>
<g id="a_edge46_Node000031_Node000012"><a xlink:title=" ">
<path fill="none" stroke="#63b8ff" d="M923.42,-219.29C903.72,-211.27 879.32,-200.3 858.88,-188 830.65,-171.01 801.08,-145.78 786.01,-132.29"/>
<polygon fill="#63b8ff" stroke="#63b8ff" points="922.12,-222.54 932.71,-222.99 924.71,-216.04 922.12,-222.54"/>
</a>
</g>
</g>
<!-- Node31&#45;&gt;Node20 -->
<g id="edge48_Node000031_Node000020" class="edge">
<title>Node31&#45;&gt;Node20</title>
<g id="a_edge48_Node000031_Node000020"><a xlink:title=" ">
<path fill="none" stroke="#63b8ff" d="M979.25,-216.13C989.79,-206.94 1002.43,-195.93 1011.2,-188.3"/>
<polygon fill="#63b8ff" stroke="#63b8ff" points="977.06,-213.39 971.82,-222.6 981.66,-218.67 977.06,-213.39"/>
</a>
</g>
</g>
<!-- Node32 -->
<g id="Node000032" class="node">
<title>Node32</title>
<g id="a_Node000032"><a xlink:href="Player_8cpp.html" target="_top" xlink:title="Represents a player.">
<polygon fill="white" stroke="#666666" points="946,-188 867.75,-188 867.75,-168 946,-168 946,-188"/>
<text text-anchor="middle" x="906.88" y="-174.5" font-family="Helvetica,sans-Serif" font-size="10.00">src/Player.cpp</text>
</a>
</g>
</g>
<!-- Node31&#45;&gt;Node32 -->
<g id="edge49_Node000031_Node000032" class="edge">
<title>Node31&#45;&gt;Node32</title>
<g id="a_edge49_Node000031_Node000032"><a xlink:title=" ">
<path fill="none" stroke="#63b8ff" d="M942.76,-215.57C933.86,-206.5 923.34,-195.78 916,-188.3"/>
<polygon fill="#63b8ff" stroke="#63b8ff" points="940.08,-217.83 949.58,-222.51 945.08,-212.93 940.08,-217.83"/>
</a>
</g>
</g>
</g>
</svg>
