<?xml version="1.0" encoding="UTF-8" standalone="no"?>
<!DOCTYPE svg PUBLIC "-//W3C//DTD SVG 1.1//EN"
 "http://www.w3.org/Graphics/SVG/1.1/DTD/svg11.dtd">
<!-- Generated by graphviz version 2.43.0 (0)
 -->
<!-- Title: src/Map.h Pages: 1 -->
<svg width="1391pt" height="364pt"
 viewBox="0.00 0.00 1391.00 364.00" xmlns="http://www.w3.org/2000/svg" xmlns:xlink="http://www.w3.org/1999/xlink">
<g id="graph0" class="graph" transform="scale(1 1) rotate(0) translate(4 360)">
<title>src/Map.h</title>
<polygon fill="white" stroke="transparent" points="-4,4 -4,-360 1387,-360 1387,4 -4,4"/>
<!-- Node1 -->
<g id="node1" class="node">
<title>Node1</title>
<g id="a_node1"><a xlink:title="Class for handling the game map.">
<polygon fill="#bfbfbf" stroke="black" points="725.5,-336.5 725.5,-355.5 789.5,-355.5 789.5,-336.5 725.5,-336.5"/>
<text text-anchor="middle" x="757.5" y="-343.5" font-family="Helvetica,sans-Serif" font-size="10.00">src/Map.h</text>
</a>
</g>
</g>
<!-- Node2 -->
<g id="node2" class="node">
<title>Node2</title>
<g id="a_node2"><a xlink:href="Config_8cpp.html" target="_top" xlink:title="Class for handling the game configuration.">
<polygon fill="white" stroke="black" points="0,-280.5 0,-299.5 85,-299.5 85,-280.5 0,-280.5"/>
<text text-anchor="middle" x="42.5" y="-287.5" font-family="Helvetica,sans-Serif" font-size="10.00">src/Config.cpp</text>
</a>
</g>
</g>
<!-- Node1&#45;&gt;Node2 -->
<g id="edge1" class="edge">
<title>Node1&#45;&gt;Node2</title>
<path fill="none" stroke="midnightblue" d="M715.06,-343.4C610.29,-339.16 331.05,-326.15 99.5,-300 94.82,-299.47 89.94,-298.83 85.09,-298.14"/>
<polygon fill="midnightblue" stroke="midnightblue" points="715.1,-346.9 725.23,-343.8 715.38,-339.91 715.1,-346.9"/>
</g>
<!-- Node3 -->
<g id="node3" class="node">
<title>Node3</title>
<g id="a_node3"><a xlink:href="EnemyBehavior_8h.html" target="_top" xlink:title="Base class for all enemy behaviors.">
<polygon fill="white" stroke="black" points="584,-224.5 584,-243.5 703,-243.5 703,-224.5 584,-224.5"/>
<text text-anchor="middle" x="643.5" y="-231.5" font-family="Helvetica,sans-Serif" font-size="10.00">src/EnemyBehavior.h</text>
</a>
</g>
</g>
<!-- Node1&#45;&gt;Node3 -->
<g id="edge2" class="edge">
<title>Node1&#45;&gt;Node3</title>
<path fill="none" stroke="midnightblue" d="M741.13,-329.21C716.7,-305.63 671.51,-262.03 652.4,-243.59"/>
<polygon fill="midnightblue" stroke="midnightblue" points="738.93,-331.94 748.55,-336.37 743.79,-326.91 738.93,-331.94"/>
</g>
<!-- Node6 -->
<g id="node6" class="node">
<title>Node6</title>
<g id="a_node6"><a xlink:href="Ghost_8cpp.html" target="_top" xlink:title="Represents a ghost enemy.">
<polygon fill="white" stroke="black" points="430,-112.5 430,-131.5 513,-131.5 513,-112.5 430,-112.5"/>
<text text-anchor="middle" x="471.5" y="-119.5" font-family="Helvetica,sans-Serif" font-size="10.00">src/Ghost.cpp</text>
</a>
</g>
</g>
<!-- Node1&#45;&gt;Node6 -->
<g id="edge23" class="edge">
<title>Node1&#45;&gt;Node6</title>
<path fill="none" stroke="midnightblue" d="M714.99,-340.98C586.33,-327.83 205.44,-281.53 132.5,-188 77.94,-118.04 -174.86,-221.68 420.5,-132 423.52,-131.54 426.64,-131.05 429.78,-130.54"/>
<polygon fill="midnightblue" stroke="midnightblue" points="714.93,-344.49 725.23,-342.01 715.63,-337.52 714.93,-344.49"/>
</g>
<!-- Node11 -->
<g id="node11" class="node">
<title>Node11</title>
<g id="a_node11"><a xlink:href="Ghost_8h.html" target="_top" xlink:title="Represents a ghost enemy.">
<polygon fill="white" stroke="black" points="757,-168.5 757,-187.5 828,-187.5 828,-168.5 757,-168.5"/>
<text text-anchor="middle" x="792.5" y="-175.5" font-family="Helvetica,sans-Serif" font-size="10.00">src/Ghost.h</text>
</a>
</g>
</g>
<!-- Node1&#45;&gt;Node11 -->
<g id="edge24" class="edge">
<title>Node1&#45;&gt;Node11</title>
<path fill="none" stroke="midnightblue" d="M757.9,-326C758.44,-312.96 759.67,-295.32 762.5,-280 768.95,-245.1 782.85,-205.1 789.21,-187.76"/>
<polygon fill="midnightblue" stroke="midnightblue" points="754.4,-325.99 757.59,-336.09 761.4,-326.2 754.4,-325.99"/>
</g>
<!-- Node12 -->
<g id="node12" class="node">
<title>Node12</title>
<g id="a_node12"><a xlink:href="Game_8h.html" target="_top" xlink:title="Class for handling the game logic.">
<polygon fill="white" stroke="black" points="791.5,-112.5 791.5,-131.5 863.5,-131.5 863.5,-112.5 791.5,-112.5"/>
<text text-anchor="middle" x="827.5" y="-119.5" font-family="Helvetica,sans-Serif" font-size="10.00">src/Game.h</text>
</a>
</g>
</g>
<!-- Node1&#45;&gt;Node12 -->
<g id="edge22" class="edge">
<title>Node1&#45;&gt;Node12</title>
<path fill="none" stroke="midnightblue" d="M767.85,-327.33C787.86,-292.74 830.54,-216.97 837.5,-188 842.3,-168.02 835.4,-144 830.89,-131.5"/>
<polygon fill="midnightblue" stroke="midnightblue" points="764.64,-325.88 762.64,-336.28 770.69,-329.4 764.64,-325.88"/>
</g>
<!-- Node18 -->
<g id="node18" class="node">
<title>Node18</title>
<g id="a_node18"><a xlink:href="Map_8cpp.html" target="_top" xlink:title="Class for handling the game map.">
<polygon fill="white" stroke="black" points="805,-280.5 805,-299.5 880,-299.5 880,-280.5 805,-280.5"/>
<text text-anchor="middle" x="842.5" y="-287.5" font-family="Helvetica,sans-Serif" font-size="10.00">src/Map.cpp</text>
</a>
</g>
</g>
<!-- Node1&#45;&gt;Node18 -->
<g id="edge25" class="edge">
<title>Node1&#45;&gt;Node18</title>
<path fill="none" stroke="midnightblue" d="M779.69,-330.9C795.28,-321 815.63,-308.07 828.88,-299.65"/>
<polygon fill="midnightblue" stroke="midnightblue" points="777.72,-328.01 771.16,-336.32 781.47,-333.92 777.72,-328.01"/>
</g>
<!-- Node19 -->
<g id="node19" class="node">
<title>Node19</title>
<g id="a_node19"><a xlink:href="MovingObject_8h.html" target="_top" xlink:title="Base class for all moving objects.">
<polygon fill="white" stroke="black" points="898.5,-280.5 898.5,-299.5 1008.5,-299.5 1008.5,-280.5 898.5,-280.5"/>
<text text-anchor="middle" x="953.5" y="-287.5" font-family="Helvetica,sans-Serif" font-size="10.00">src/MovingObject.h</text>
</a>
</g>
</g>
<!-- Node1&#45;&gt;Node19 -->
<g id="edge26" class="edge">
<title>Node1&#45;&gt;Node19</title>
<path fill="none" stroke="midnightblue" d="M798.52,-333.7C835.51,-323.51 889.1,-308.74 922.59,-299.52"/>
<polygon fill="midnightblue" stroke="midnightblue" points="797.27,-330.41 788.56,-336.44 799.13,-337.16 797.27,-330.41"/>
</g>
<!-- Node31 -->
<g id="node31" class="node">
<title>Node31</title>
<g id="a_node31"><a xlink:href="Player_8h.html" target="_top" xlink:title="Represents a player.">
<polygon fill="white" stroke="black" points="987,-224.5 987,-243.5 1060,-243.5 1060,-224.5 987,-224.5"/>
<text text-anchor="middle" x="1023.5" y="-231.5" font-family="Helvetica,sans-Serif" font-size="10.00">src/Player.h</text>
</a>
</g>
</g>
<!-- Node1&#45;&gt;Node31 -->
<g id="edge50" class="edge">
<title>Node1&#45;&gt;Node31</title>
<path fill="none" stroke="midnightblue" d="M799.66,-343.72C865.64,-340.78 988.73,-331.14 1017.5,-300 1031.65,-284.68 1028.56,-257.8 1025.7,-243.9"/>
<polygon fill="midnightblue" stroke="midnightblue" points="799.44,-340.23 789.59,-344.14 799.73,-347.22 799.44,-340.23"/>
</g>
<!-- Node4 -->
<g id="node4" class="node">
<title>Node4</title>
<g id="a_node4"><a xlink:href="ChaseBehavior_8h.html" target="_top" xlink:title="Class for handling the chase behavior of ghosts.">
<polygon fill="white" stroke="black" points="141.5,-168.5 141.5,-187.5 257.5,-187.5 257.5,-168.5 141.5,-168.5"/>
<text text-anchor="middle" x="199.5" y="-175.5" font-family="Helvetica,sans-Serif" font-size="10.00">src/ChaseBehavior.h</text>
</a>
</g>
</g>
<!-- Node3&#45;&gt;Node4 -->
<g id="edge3" class="edge">
<title>Node3&#45;&gt;Node4</title>
<path fill="none" stroke="midnightblue" d="M573.36,-224.94C497.63,-216.17 373.45,-201.57 266.5,-188 263.59,-187.63 260.61,-187.25 257.6,-186.86"/>
<polygon fill="midnightblue" stroke="midnightblue" points="573.39,-228.47 583.72,-226.14 574.19,-221.51 573.39,-228.47"/>
</g>
<!-- Node7 -->
<g id="node7" class="node">
<title>Node7</title>
<g id="a_node7"><a xlink:href="EnemyBehavior_8cpp.html" target="_top" xlink:title="Base class for all enemy behaviors.">
<polygon fill="white" stroke="black" points="431,-168.5 431,-187.5 562,-187.5 562,-168.5 431,-168.5"/>
<text text-anchor="middle" x="496.5" y="-175.5" font-family="Helvetica,sans-Serif" font-size="10.00">src/EnemyBehavior.cpp</text>
</a>
</g>
</g>
<!-- Node3&#45;&gt;Node7 -->
<g id="edge6" class="edge">
<title>Node3&#45;&gt;Node7</title>
<path fill="none" stroke="midnightblue" d="M610.58,-220.91C582.94,-210.75 544.16,-196.51 519.68,-187.52"/>
<polygon fill="midnightblue" stroke="midnightblue" points="609.61,-224.28 620.21,-224.44 612.03,-217.71 609.61,-224.28"/>
</g>
<!-- Node8 -->
<g id="node8" class="node">
<title>Node8</title>
<g id="a_node8"><a xlink:href="FrightenedBehavior_8h.html" target="_top" xlink:title="Class representing a frightened ghost behavior.">
<polygon fill="white" stroke="black" points="276,-168.5 276,-187.5 413,-187.5 413,-168.5 276,-168.5"/>
<text text-anchor="middle" x="344.5" y="-175.5" font-family="Helvetica,sans-Serif" font-size="10.00">src/FrightenedBehavior.h</text>
</a>
</g>
</g>
<!-- Node3&#45;&gt;Node8 -->
<g id="edge7" class="edge">
<title>Node3&#45;&gt;Node8</title>
<path fill="none" stroke="midnightblue" d="M586.27,-222.66C529.76,-212.46 444.38,-197.04 391.66,-187.52"/>
<polygon fill="midnightblue" stroke="midnightblue" points="585.66,-226.11 596.12,-224.44 586.9,-219.22 585.66,-226.11"/>
</g>
<!-- Node10 -->
<g id="node10" class="node">
<title>Node10</title>
<g id="a_node10"><a xlink:href="Game_8cpp.html" target="_top" xlink:title="Class for handling the game logic.">
<polygon fill="white" stroke="black" points="872,-56.5 872,-75.5 955,-75.5 955,-56.5 872,-56.5"/>
<text text-anchor="middle" x="913.5" y="-63.5" font-family="Helvetica,sans-Serif" font-size="10.00">src/Game.cpp</text>
</a>
</g>
</g>
<!-- Node3&#45;&gt;Node10 -->
<g id="edge10" class="edge">
<title>Node3&#45;&gt;Node10</title>
<path fill="none" stroke="midnightblue" d="M666.6,-218.93C679.67,-210.56 696.04,-199.39 709.5,-188 745.26,-157.76 743.02,-137.2 782.5,-112 810.37,-94.21 846.09,-82.55 873.19,-75.56"/>
<polygon fill="midnightblue" stroke="midnightblue" points="664.36,-216.2 657.76,-224.49 668.08,-222.13 664.36,-216.2"/>
</g>
<!-- Node3&#45;&gt;Node11 -->
<g id="edge11" class="edge">
<title>Node3&#45;&gt;Node11</title>
<path fill="none" stroke="midnightblue" d="M676.87,-220.91C704.88,-210.75 744.2,-196.51 769,-187.52"/>
<polygon fill="midnightblue" stroke="midnightblue" points="675.32,-217.75 667.11,-224.44 677.7,-224.33 675.32,-217.75"/>
</g>
<!-- Node16 -->
<g id="node16" class="node">
<title>Node16</title>
<g id="a_node16"><a xlink:href="ScatterBehavior_8h.html" target="_top" xlink:title="Class for the scatter behavior of the ghosts.">
<polygon fill="white" stroke="black" points="580.5,-168.5 580.5,-187.5 700.5,-187.5 700.5,-168.5 580.5,-168.5"/>
<text text-anchor="middle" x="640.5" y="-175.5" font-family="Helvetica,sans-Serif" font-size="10.00">src/ScatterBehavior.h</text>
</a>
</g>
</g>
<!-- Node3&#45;&gt;Node16 -->
<g id="edge18" class="edge">
<title>Node3&#45;&gt;Node16</title>
<path fill="none" stroke="midnightblue" d="M642.43,-213.8C641.94,-204.91 641.38,-194.78 640.99,-187.75"/>
<polygon fill="midnightblue" stroke="midnightblue" points="638.96,-214.29 643,-224.08 645.94,-213.9 638.96,-214.29"/>
</g>
<!-- Node5 -->
<g id="node5" class="node">
<title>Node5</title>
<g id="a_node5"><a xlink:href="ChaseBehavior_8cpp.html" target="_top" xlink:title="Class for handling the chase behavior of ghosts.">
<polygon fill="white" stroke="black" points="118,-112.5 118,-131.5 245,-131.5 245,-112.5 118,-112.5"/>
<text text-anchor="middle" x="181.5" y="-119.5" font-family="Helvetica,sans-Serif" font-size="10.00">src/ChaseBehavior.cpp</text>
</a>
</g>
</g>
<!-- Node4&#45;&gt;Node5 -->
<g id="edge4" class="edge">
<title>Node4&#45;&gt;Node5</title>
<path fill="none" stroke="midnightblue" d="M193.3,-158.4C190.29,-149.36 186.81,-138.94 184.42,-131.75"/>
<polygon fill="midnightblue" stroke="midnightblue" points="190.04,-159.7 196.53,-168.08 196.69,-157.49 190.04,-159.7"/>
</g>
<!-- Node4&#45;&gt;Node6 -->
<g id="edge5" class="edge">
<title>Node4&#45;&gt;Node6</title>
<path fill="none" stroke="midnightblue" d="M252.61,-166.46C304.5,-156.15 382.42,-140.69 429.94,-131.25"/>
<polygon fill="midnightblue" stroke="midnightblue" points="251.73,-163.06 242.6,-168.44 253.09,-169.93 251.73,-163.06"/>
</g>
<!-- Node8&#45;&gt;Node6 -->
<g id="edge9" class="edge">
<title>Node8&#45;&gt;Node6</title>
<path fill="none" stroke="midnightblue" d="M373.89,-164.5C397.7,-154.38 430.61,-140.39 451.47,-131.52"/>
<polygon fill="midnightblue" stroke="midnightblue" points="372.46,-161.31 364.62,-168.44 375.2,-167.75 372.46,-161.31"/>
</g>
<!-- Node9 -->
<g id="node9" class="node">
<title>Node9</title>
<g id="a_node9"><a xlink:href="FrightenedBehavior_8cpp.html" target="_top" xlink:title="Class representing a frightened ghost behavior.">
<polygon fill="white" stroke="black" points="263,-112.5 263,-131.5 412,-131.5 412,-112.5 263,-112.5"/>
<text text-anchor="middle" x="337.5" y="-119.5" font-family="Helvetica,sans-Serif" font-size="10.00">src/FrightenedBehavior.cpp</text>
</a>
</g>
</g>
<!-- Node8&#45;&gt;Node9 -->
<g id="edge8" class="edge">
<title>Node8&#45;&gt;Node9</title>
<path fill="none" stroke="midnightblue" d="M342.05,-158.1C340.89,-149.14 339.56,-138.86 338.63,-131.75"/>
<polygon fill="midnightblue" stroke="midnightblue" points="338.59,-158.62 343.34,-168.08 345.53,-157.72 338.59,-158.62"/>
</g>
<!-- Node11&#45;&gt;Node6 -->
<g id="edge17" class="edge">
<title>Node11&#45;&gt;Node6</title>
<path fill="none" stroke="midnightblue" d="M747.04,-169.64C693.18,-160.88 600.75,-145.71 521.5,-132 518.81,-131.53 516.03,-131.05 513.23,-130.56"/>
<polygon fill="midnightblue" stroke="midnightblue" points="746.53,-173.11 756.96,-171.26 747.65,-166.2 746.53,-173.11"/>
</g>
<!-- Node11&#45;&gt;Node12 -->
<g id="edge12" class="edge">
<title>Node11&#45;&gt;Node12</title>
<path fill="none" stroke="midnightblue" d="M803.8,-159.57C809.82,-150.27 816.97,-139.25 821.83,-131.75"/>
<polygon fill="midnightblue" stroke="midnightblue" points="800.78,-157.79 798.28,-168.08 806.66,-161.6 800.78,-157.79"/>
</g>
<!-- Node12&#45;&gt;Node10 -->
<g id="edge13" class="edge">
<title>Node12&#45;&gt;Node10</title>
<path fill="none" stroke="midnightblue" d="M849.95,-106.9C865.72,-97 886.31,-84.07 899.72,-75.65"/>
<polygon fill="midnightblue" stroke="midnightblue" points="847.93,-104.04 841.32,-112.32 851.65,-109.97 847.93,-104.04"/>
</g>
<!-- Node13 -->
<g id="node13" class="node">
<title>Node13</title>
<g id="a_node13"><a xlink:href="GameManager_8h.html" target="_top" xlink:title="Handles the game loop and game states.">
<polygon fill="white" stroke="black" points="646.5,-56.5 646.5,-75.5 760.5,-75.5 760.5,-56.5 646.5,-56.5"/>
<text text-anchor="middle" x="703.5" y="-63.5" font-family="Helvetica,sans-Serif" font-size="10.00">src/GameManager.h</text>
</a>
</g>
</g>
<!-- Node12&#45;&gt;Node13 -->
<g id="edge14" class="edge">
<title>Node12&#45;&gt;Node13</title>
<path fill="none" stroke="midnightblue" d="M798.49,-108.37C775.27,-98.26 743.34,-84.35 723.06,-75.52"/>
<polygon fill="midnightblue" stroke="midnightblue" points="797.29,-111.66 807.85,-112.44 800.08,-105.24 797.29,-111.66"/>
</g>
<!-- Node14 -->
<g id="node14" class="node">
<title>Node14</title>
<g id="a_node14"><a xlink:href="GameManager_8cpp.html" target="_top" xlink:title="Handles the game loop and game states.">
<polygon fill="white" stroke="black" points="581,-0.5 581,-19.5 706,-19.5 706,-0.5 581,-0.5"/>
<text text-anchor="middle" x="643.5" y="-7.5" font-family="Helvetica,sans-Serif" font-size="10.00">src/GameManager.cpp</text>
</a>
</g>
</g>
<!-- Node13&#45;&gt;Node14 -->
<g id="edge15" class="edge">
<title>Node13&#45;&gt;Node14</title>
<path fill="none" stroke="midnightblue" d="M686.32,-49.54C675.62,-39.91 662.24,-27.87 653.32,-19.83"/>
<polygon fill="midnightblue" stroke="midnightblue" points="684.09,-52.24 693.86,-56.32 688.77,-47.03 684.09,-52.24"/>
</g>
<!-- Node15 -->
<g id="node15" class="node">
<title>Node15</title>
<g id="a_node15"><a xlink:href="main_8cpp.html" target="_top" xlink:title="Main function, initializes the game manager.">
<polygon fill="white" stroke="black" points="724,-0.5 724,-19.5 803,-19.5 803,-0.5 724,-0.5"/>
<text text-anchor="middle" x="763.5" y="-7.5" font-family="Helvetica,sans-Serif" font-size="10.00">src/main.cpp</text>
</a>
</g>
</g>
<!-- Node13&#45;&gt;Node15 -->
<g id="edge16" class="edge">
<title>Node13&#45;&gt;Node15</title>
<path fill="none" stroke="midnightblue" d="M720.68,-49.54C731.38,-39.91 744.76,-27.87 753.68,-19.83"/>
<polygon fill="midnightblue" stroke="midnightblue" points="718.23,-47.03 713.14,-56.32 722.91,-52.24 718.23,-47.03"/>
</g>
<!-- Node16&#45;&gt;Node6 -->
<g id="edge20" class="edge">
<title>Node16&#45;&gt;Node6</title>
<path fill="none" stroke="midnightblue" d="M603.9,-165.3C572.05,-155.13 526.66,-140.62 498.15,-131.52"/>
<polygon fill="midnightblue" stroke="midnightblue" points="603.13,-168.73 613.72,-168.44 605.26,-162.07 603.13,-168.73"/>
</g>
<!-- Node16&#45;&gt;Node10 -->
<g id="edge19" class="edge">
<title>Node16&#45;&gt;Node10</title>
<path fill="none" stroke="midnightblue" d="M654.43,-160.81C668.19,-145.86 690.59,-124.19 714.5,-112 728.42,-104.9 817.74,-86.2 871.87,-75.27"/>
<polygon fill="midnightblue" stroke="midnightblue" points="651.77,-158.53 647.72,-168.32 656.99,-163.19 651.77,-158.53"/>
</g>
<!-- Node17 -->
<g id="node17" class="node">
<title>Node17</title>
<g id="a_node17"><a xlink:href="ScatterBehavior_8cpp.html" target="_top" xlink:title="Class for the scatter behavior of the ghosts.">
<polygon fill="white" stroke="black" points="531,-112.5 531,-131.5 662,-131.5 662,-112.5 531,-112.5"/>
<text text-anchor="middle" x="596.5" y="-119.5" font-family="Helvetica,sans-Serif" font-size="10.00">src/ScatterBehavior.cpp</text>
</a>
</g>
</g>
<!-- Node16&#45;&gt;Node17 -->
<g id="edge21" class="edge">
<title>Node16&#45;&gt;Node17</title>
<path fill="none" stroke="midnightblue" d="M626.77,-160.14C619.1,-150.74 609.87,-139.4 603.63,-131.75"/>
<polygon fill="midnightblue" stroke="midnightblue" points="624.2,-162.54 633.23,-168.08 629.63,-158.12 624.2,-162.54"/>
</g>
<!-- Node19&#45;&gt;Node3 -->
<g id="edge27" class="edge">
<title>Node19&#45;&gt;Node3</title>
<path fill="none" stroke="midnightblue" d="M894.16,-278.66C835.58,-268.46 747.05,-253.04 692.39,-243.52"/>
<polygon fill="midnightblue" stroke="midnightblue" points="893.93,-282.18 904.38,-280.44 895.13,-275.28 893.93,-282.18"/>
</g>
<!-- Node19&#45;&gt;Node11 -->
<g id="edge28" class="edge">
<title>Node19&#45;&gt;Node11</title>
<path fill="none" stroke="midnightblue" d="M905.94,-277.55C883.55,-270.5 857.45,-259.73 837.5,-244 817.67,-228.36 803.1,-201.63 796.47,-187.82"/>
<polygon fill="midnightblue" stroke="midnightblue" points="905.02,-280.93 915.6,-280.44 907.02,-274.23 905.02,-280.93"/>
</g>
<!-- Node20 -->
<g id="node20" class="node">
<title>Node20</title>
<g id="a_node20"><a xlink:href="InteractiveObject_8h.html" target="_top" xlink:title="Base class for all interactive objects.">
<polygon fill="white" stroke="black" points="1025,-168.5 1025,-187.5 1152,-187.5 1152,-168.5 1025,-168.5"/>
<text text-anchor="middle" x="1088.5" y="-175.5" font-family="Helvetica,sans-Serif" font-size="10.00">src/InteractiveObject.h</text>
</a>
</g>
</g>
<!-- Node19&#45;&gt;Node20 -->
<g id="edge29" class="edge">
<title>Node19&#45;&gt;Node20</title>
<path fill="none" stroke="midnightblue" d="M1012.06,-277.59C1032.67,-270.91 1054.43,-260.42 1069.5,-244 1084.13,-228.06 1087.54,-201.46 1088.31,-187.75"/>
<polygon fill="midnightblue" stroke="midnightblue" points="1010.96,-274.26 1002.38,-280.48 1012.97,-280.97 1010.96,-274.26"/>
</g>
<!-- Node30 -->
<g id="node30" class="node">
<title>Node30</title>
<g id="a_node30"><a xlink:href="MovingObject_8cpp.html" target="_top" xlink:title="Base class for all moving objects.">
<polygon fill="white" stroke="black" points="846.5,-224.5 846.5,-243.5 968.5,-243.5 968.5,-224.5 846.5,-224.5"/>
<text text-anchor="middle" x="907.5" y="-231.5" font-family="Helvetica,sans-Serif" font-size="10.00">src/MovingObject.cpp</text>
</a>
</g>
</g>
<!-- Node19&#45;&gt;Node30 -->
<g id="edge44" class="edge">
<title>Node19&#45;&gt;Node30</title>
<path fill="none" stroke="midnightblue" d="M939.39,-272.43C931.32,-262.97 921.54,-251.48 914.95,-243.75"/>
<polygon fill="midnightblue" stroke="midnightblue" points="936.75,-274.74 945.9,-280.08 942.08,-270.2 936.75,-274.74"/>
</g>
<!-- Node19&#45;&gt;Node31 -->
<g id="edge45" class="edge">
<title>Node19&#45;&gt;Node31</title>
<path fill="none" stroke="midnightblue" d="M972.81,-274.1C985.41,-264.38 1001.43,-252.03 1012.05,-243.83"/>
<polygon fill="midnightblue" stroke="midnightblue" points="970.53,-271.44 964.75,-280.32 974.8,-276.99 970.53,-271.44"/>
</g>
<!-- Node20&#45;&gt;Node12 -->
<g id="edge36" class="edge">
<title>Node20&#45;&gt;Node12</title>
<path fill="none" stroke="midnightblue" d="M1037.27,-166.4C986.09,-155.81 908.7,-139.8 863.62,-130.47"/>
<polygon fill="midnightblue" stroke="midnightblue" points="1036.64,-169.84 1047.14,-168.44 1038.06,-162.99 1036.64,-169.84"/>
</g>
<!-- Node21 -->
<g id="node21" class="node">
<title>Node21</title>
<g id="a_node21"><a xlink:href="Cherry_8h.html" target="_top" xlink:title="Class representing a cherry collectible.">
<polygon fill="white" stroke="black" points="963.5,-112.5 963.5,-131.5 1037.5,-131.5 1037.5,-112.5 963.5,-112.5"/>
<text text-anchor="middle" x="1000.5" y="-119.5" font-family="Helvetica,sans-Serif" font-size="10.00">src/Cherry.h</text>
</a>
</g>
</g>
<!-- Node20&#45;&gt;Node21 -->
<g id="edge30" class="edge">
<title>Node20&#45;&gt;Node21</title>
<path fill="none" stroke="midnightblue" d="M1065.52,-162.9C1049.39,-153 1028.32,-140.07 1014.6,-131.65"/>
<polygon fill="midnightblue" stroke="midnightblue" points="1064.01,-166.08 1074.36,-168.32 1067.67,-160.11 1064.01,-166.08"/>
</g>
<!-- Node23 -->
<g id="node23" class="node">
<title>Node23</title>
<g id="a_node23"><a xlink:href="Coin_8h.html" target="_top" xlink:title="Class representing a coin collectible.">
<polygon fill="white" stroke="black" points="1056,-112.5 1056,-131.5 1121,-131.5 1121,-112.5 1056,-112.5"/>
<text text-anchor="middle" x="1088.5" y="-119.5" font-family="Helvetica,sans-Serif" font-size="10.00">src/Coin.h</text>
</a>
</g>
</g>
<!-- Node20&#45;&gt;Node23 -->
<g id="edge33" class="edge">
<title>Node20&#45;&gt;Node23</title>
<path fill="none" stroke="midnightblue" d="M1088.5,-157.8C1088.5,-148.91 1088.5,-138.78 1088.5,-131.75"/>
<polygon fill="midnightblue" stroke="midnightblue" points="1085,-158.08 1088.5,-168.08 1092,-158.08 1085,-158.08"/>
</g>
<!-- Node25 -->
<g id="node25" class="node">
<title>Node25</title>
<g id="a_node25"><a xlink:href="InteractiveObject_8cpp.html" target="_top" xlink:title="Base class for all interactive objects.">
<polygon fill="white" stroke="black" points="1139.5,-112.5 1139.5,-131.5 1277.5,-131.5 1277.5,-112.5 1139.5,-112.5"/>
<text text-anchor="middle" x="1208.5" y="-119.5" font-family="Helvetica,sans-Serif" font-size="10.00">src/InteractiveObject.cpp</text>
</a>
</g>
</g>
<!-- Node20&#45;&gt;Node25 -->
<g id="edge37" class="edge">
<title>Node20&#45;&gt;Node25</title>
<path fill="none" stroke="midnightblue" d="M1116.87,-164.23C1139.32,-154.13 1170.04,-140.31 1189.57,-131.52"/>
<polygon fill="midnightblue" stroke="midnightblue" points="1115.2,-161.15 1107.51,-168.44 1118.07,-167.53 1115.2,-161.15"/>
</g>
<!-- Node26 -->
<g id="node26" class="node">
<title>Node26</title>
<g id="a_node26"><a xlink:href="Teleport_8h.html" target="_top" xlink:title="Represents a teleport object.">
<polygon fill="white" stroke="black" points="1295.5,-112.5 1295.5,-131.5 1377.5,-131.5 1377.5,-112.5 1295.5,-112.5"/>
<text text-anchor="middle" x="1336.5" y="-119.5" font-family="Helvetica,sans-Serif" font-size="10.00">src/Teleport.h</text>
</a>
</g>
</g>
<!-- Node20&#45;&gt;Node26 -->
<g id="edge38" class="edge">
<title>Node20&#45;&gt;Node26</title>
<path fill="none" stroke="midnightblue" d="M1137.73,-166.28C1184.59,-156.08 1254.2,-140.92 1297.39,-131.52"/>
<polygon fill="midnightblue" stroke="midnightblue" points="1136.82,-162.9 1127.8,-168.44 1138.31,-169.74 1136.82,-162.9"/>
</g>
<!-- Node28 -->
<g id="node28" class="node">
<title>Node28</title>
<g id="a_node28"><a xlink:href="Wall_8h.html" target="_top" xlink:title="Represents a wall object.">
<polygon fill="white" stroke="black" points="881.5,-112.5 881.5,-131.5 945.5,-131.5 945.5,-112.5 881.5,-112.5"/>
<text text-anchor="middle" x="913.5" y="-119.5" font-family="Helvetica,sans-Serif" font-size="10.00">src/Wall.h</text>
</a>
</g>
</g>
<!-- Node20&#45;&gt;Node28 -->
<g id="edge41" class="edge">
<title>Node20&#45;&gt;Node28</title>
<path fill="none" stroke="midnightblue" d="M1051.03,-165.44C1018.03,-155.26 970.74,-140.66 941.1,-131.52"/>
<polygon fill="midnightblue" stroke="midnightblue" points="1050.18,-168.84 1060.77,-168.44 1052.25,-162.15 1050.18,-168.84"/>
</g>
<!-- Node21&#45;&gt;Node10 -->
<g id="edge32" class="edge">
<title>Node21&#45;&gt;Node10</title>
<path fill="none" stroke="midnightblue" d="M977.78,-106.9C961.83,-97 941,-84.07 927.44,-75.65"/>
<polygon fill="midnightblue" stroke="midnightblue" points="976.18,-110.02 986.52,-112.32 979.87,-104.08 976.18,-110.02"/>
</g>
<!-- Node22 -->
<g id="node22" class="node">
<title>Node22</title>
<g id="a_node22"><a xlink:href="Cherry_8cpp.html" target="_top" xlink:title="Class representing a cherry collectible.">
<polygon fill="white" stroke="black" points="973,-56.5 973,-75.5 1058,-75.5 1058,-56.5 973,-56.5"/>
<text text-anchor="middle" x="1015.5" y="-63.5" font-family="Helvetica,sans-Serif" font-size="10.00">src/Cherry.cpp</text>
</a>
</g>
</g>
<!-- Node21&#45;&gt;Node22 -->
<g id="edge31" class="edge">
<title>Node21&#45;&gt;Node22</title>
<path fill="none" stroke="midnightblue" d="M1005.67,-102.4C1008.18,-93.36 1011.07,-82.94 1013.07,-75.75"/>
<polygon fill="midnightblue" stroke="midnightblue" points="1002.28,-101.51 1002.98,-112.08 1009.03,-103.38 1002.28,-101.51"/>
</g>
<!-- Node23&#45;&gt;Node10 -->
<g id="edge35" class="edge">
<title>Node23&#45;&gt;Node10</title>
<path fill="none" stroke="midnightblue" d="M1051.03,-109.44C1018.03,-99.26 970.74,-84.66 941.1,-75.52"/>
<polygon fill="midnightblue" stroke="midnightblue" points="1050.18,-112.84 1060.77,-112.44 1052.25,-106.15 1050.18,-112.84"/>
</g>
<!-- Node24 -->
<g id="node24" class="node">
<title>Node24</title>
<g id="a_node24"><a xlink:href="Coin_8cpp.html" target="_top" xlink:title="Class representing a coin collectible.">
<polygon fill="white" stroke="black" points="1076.5,-56.5 1076.5,-75.5 1152.5,-75.5 1152.5,-56.5 1076.5,-56.5"/>
<text text-anchor="middle" x="1114.5" y="-63.5" font-family="Helvetica,sans-Serif" font-size="10.00">src/Coin.cpp</text>
</a>
</g>
</g>
<!-- Node23&#45;&gt;Node24 -->
<g id="edge34" class="edge">
<title>Node23&#45;&gt;Node24</title>
<path fill="none" stroke="midnightblue" d="M1097.17,-102.98C1101.59,-93.82 1106.75,-83.09 1110.29,-75.75"/>
<polygon fill="midnightblue" stroke="midnightblue" points="1093.98,-101.55 1092.79,-112.08 1100.29,-104.59 1093.98,-101.55"/>
</g>
<!-- Node26&#45;&gt;Node10 -->
<g id="edge39" class="edge">
<title>Node26&#45;&gt;Node10</title>
<path fill="none" stroke="midnightblue" d="M1285.31,-111.92C1142.29,-91.46 1103.83,-96.06 964.5,-76 961.47,-75.56 958.35,-75.09 955.21,-74.58"/>
<polygon fill="midnightblue" stroke="midnightblue" points="1284.94,-115.4 1295.33,-113.37 1285.94,-108.47 1284.94,-115.4"/>
</g>
<!-- Node27 -->
<g id="node27" class="node">
<title>Node27</title>
<g id="a_node27"><a xlink:href="Teleport_8cpp.html" target="_top" xlink:title="Represents a teleport object.">
<polygon fill="white" stroke="black" points="1290,-56.5 1290,-75.5 1383,-75.5 1383,-56.5 1290,-56.5"/>
<text text-anchor="middle" x="1336.5" y="-63.5" font-family="Helvetica,sans-Serif" font-size="10.00">src/Teleport.cpp</text>
</a>
</g>
</g>
<!-- Node26&#45;&gt;Node27 -->
<g id="edge40" class="edge">
<title>Node26&#45;&gt;Node27</title>
<path fill="none" stroke="midnightblue" d="M1336.5,-101.8C1336.5,-92.91 1336.5,-82.78 1336.5,-75.75"/>
<polygon fill="midnightblue" stroke="midnightblue" points="1333,-102.08 1336.5,-112.08 1340,-102.08 1333,-102.08"/>
</g>
<!-- Node28&#45;&gt;Node10 -->
<g id="edge42" class="edge">
<title>Node28&#45;&gt;Node10</title>
<path fill="none" stroke="midnightblue" d="M913.5,-101.8C913.5,-92.91 913.5,-82.78 913.5,-75.75"/>
<polygon fill="midnightblue" stroke="midnightblue" points="910,-102.08 913.5,-112.08 917,-102.08 910,-102.08"/>
</g>
<!-- Node29 -->
<g id="node29" class="node">
<title>Node29</title>
<g id="a_node29"><a xlink:href="Wall_8cpp.html" target="_top" xlink:title="Represents a wall object.">
<polygon fill="white" stroke="black" points="779,-56.5 779,-75.5 854,-75.5 854,-56.5 779,-56.5"/>
<text text-anchor="middle" x="816.5" y="-63.5" font-family="Helvetica,sans-Serif" font-size="10.00">src/Wall.cpp</text>
</a>
</g>
</g>
<!-- Node28&#45;&gt;Node29 -->
<g id="edge43" class="edge">
<title>Node28&#45;&gt;Node29</title>
<path fill="none" stroke="midnightblue" d="M889.16,-107.45C871.26,-97.48 847.45,-84.23 832.05,-75.65"/>
<polygon fill="midnightblue" stroke="midnightblue" points="887.48,-110.52 897.92,-112.32 890.88,-104.4 887.48,-110.52"/>
</g>
<!-- Node31&#45;&gt;Node11 -->
<g id="edge47" class="edge">
<title>Node31&#45;&gt;Node11</title>
<path fill="none" stroke="midnightblue" d="M977.04,-222.14C933.12,-211.87 868.15,-196.69 828.17,-187.34"/>
<polygon fill="midnightblue" stroke="midnightblue" points="976.36,-225.58 986.9,-224.44 977.96,-218.76 976.36,-225.58"/>
</g>
<!-- Node31&#45;&gt;Node12 -->
<g id="edge46" class="edge">
<title>Node31&#45;&gt;Node12</title>
<path fill="none" stroke="midnightblue" d="M987.64,-221.01C965.59,-212.99 937.13,-201.46 913.5,-188 883.74,-171.05 852.58,-145.12 837.23,-131.71"/>
<polygon fill="midnightblue" stroke="midnightblue" points="986.69,-224.38 997.28,-224.44 989.03,-217.79 986.69,-224.38"/>
</g>
<!-- Node31&#45;&gt;Node20 -->
<g id="edge48" class="edge">
<title>Node31&#45;&gt;Node20</title>
<path fill="none" stroke="midnightblue" d="M1041.77,-217.82C1053.42,-208.15 1068.1,-195.95 1077.87,-187.83"/>
<polygon fill="midnightblue" stroke="midnightblue" points="1039.4,-215.24 1033.94,-224.32 1043.87,-220.63 1039.4,-215.24"/>
</g>
<!-- Node32 -->
<g id="node32" class="node">
<title>Node32</title>
<g id="a_node32"><a xlink:href="Player_8cpp.html" target="_top" xlink:title="Represents a player.">
<polygon fill="white" stroke="black" points="922.5,-168.5 922.5,-187.5 1006.5,-187.5 1006.5,-168.5 922.5,-168.5"/>
<text text-anchor="middle" x="964.5" y="-175.5" font-family="Helvetica,sans-Serif" font-size="10.00">src/Player.cpp</text>
</a>
</g>
</g>
<!-- Node31&#45;&gt;Node32 -->
<g id="edge49" class="edge">
<title>Node31&#45;&gt;Node32</title>
<path fill="none" stroke="midnightblue" d="M1006.61,-217.54C996.09,-207.91 982.93,-195.87 974.15,-187.83"/>
<polygon fill="midnightblue" stroke="midnightblue" points="1004.28,-220.15 1014.02,-224.32 1009.01,-214.99 1004.28,-220.15"/>
</g>
</g>
</svg>
