<?xml version="1.0" encoding="UTF-8" standalone="no"?>
<!DOCTYPE svg PUBLIC "-//W3C//DTD SVG 1.1//EN"
 "http://www.w3.org/Graphics/SVG/1.1/DTD/svg11.dtd">
<!-- Generated by graphviz version 2.43.0 (0)
 -->
<!-- Title: src/Map.cpp Pages: 1 -->
<svg width="866pt" height="308pt"
 viewBox="0.00 0.00 866.00 308.00" xmlns="http://www.w3.org/2000/svg" xmlns:xlink="http://www.w3.org/1999/xlink">
<g id="graph0" class="graph" transform="scale(1 1) rotate(0) translate(4 304)">
<title>src/Map.cpp</title>
<polygon fill="white" stroke="transparent" points="-4,4 -4,-304 862,-304 862,4 -4,4"/>
<!-- Node1 -->
<g id="node1" class="node">
<title>Node1</title>
<g id="a_node1"><a xlink:title="Class for handling the game map.">
<polygon fill="#bfbfbf" stroke="black" points="545,-280.5 545,-299.5 620,-299.5 620,-280.5 545,-280.5"/>
<text text-anchor="middle" x="582.5" y="-287.5" font-family="Helvetica,sans-Serif" font-size="10.00">src/Map.cpp</text>
</a>
</g>
</g>
<!-- Node2 -->
<g id="node2" class="node">
<title>Node2</title>
<g id="a_node2"><a xlink:href="Map_8h.html" target="_top" xlink:title="Class for handling the game map.">
<polygon fill="white" stroke="black" points="258,-224.5 258,-243.5 305,-243.5 305,-224.5 258,-224.5"/>
<text text-anchor="middle" x="281.5" y="-231.5" font-family="Helvetica,sans-Serif" font-size="10.00">Map.h</text>
</a>
</g>
</g>
<!-- Node1&#45;&gt;Node2 -->
<g id="edge1" class="edge">
<title>Node1&#45;&gt;Node2</title>
<path fill="none" stroke="midnightblue" d="M544.99,-282.27C485.79,-271.65 371.64,-251.17 315.02,-241.01"/>
<polygon fill="midnightblue" stroke="midnightblue" points="315.61,-237.56 305.15,-239.24 314.37,-244.45 315.61,-237.56"/>
</g>
<!-- Node3 -->
<g id="node3" class="node">
<title>Node3</title>
<g id="a_node3"><a xlink:title=" ">
<polygon fill="white" stroke="#bfbfbf" points="333.5,-56.5 333.5,-75.5 377.5,-75.5 377.5,-56.5 333.5,-56.5"/>
<text text-anchor="middle" x="355.5" y="-63.5" font-family="Helvetica,sans-Serif" font-size="10.00">string</text>
</a>
</g>
</g>
<!-- Node1&#45;&gt;Node3 -->
<g id="edge15" class="edge">
<title>Node1&#45;&gt;Node3</title>
<path fill="none" stroke="midnightblue" d="M544.95,-286.5C511.73,-282.43 463.81,-271.8 432.5,-244 384.11,-201.04 364.91,-122.18 358.4,-86.02"/>
<polygon fill="midnightblue" stroke="midnightblue" points="361.8,-85.17 356.71,-75.89 354.9,-86.32 361.8,-85.17"/>
</g>
<!-- Node11 -->
<g id="node11" class="node">
<title>Node11</title>
<g id="a_node11"><a xlink:title=" ">
<polygon fill="white" stroke="#bfbfbf" points="441,-224.5 441,-243.5 496,-243.5 496,-224.5 441,-224.5"/>
<text text-anchor="middle" x="468.5" y="-231.5" font-family="Helvetica,sans-Serif" font-size="10.00">fstream</text>
</a>
</g>
</g>
<!-- Node1&#45;&gt;Node11 -->
<g id="edge16" class="edge">
<title>Node1&#45;&gt;Node11</title>
<path fill="none" stroke="midnightblue" d="M564.44,-280.44C545.93,-271.68 516.92,-257.94 495.64,-247.86"/>
<polygon fill="midnightblue" stroke="midnightblue" points="497.01,-244.63 486.48,-243.52 494.02,-250.96 497.01,-244.63"/>
</g>
<!-- Node12 -->
<g id="node12" class="node">
<title>Node12</title>
<g id="a_node12"><a xlink:title=" ">
<polygon fill="white" stroke="#bfbfbf" points="514.5,-224.5 514.5,-243.5 574.5,-243.5 574.5,-224.5 514.5,-224.5"/>
<text text-anchor="middle" x="544.5" y="-231.5" font-family="Helvetica,sans-Serif" font-size="10.00">iostream</text>
</a>
</g>
</g>
<!-- Node1&#45;&gt;Node12 -->
<g id="edge17" class="edge">
<title>Node1&#45;&gt;Node12</title>
<path fill="none" stroke="midnightblue" d="M576.23,-280.08C570.86,-272.46 562.98,-261.26 556.42,-251.94"/>
<polygon fill="midnightblue" stroke="midnightblue" points="559.28,-249.91 550.66,-243.75 553.55,-253.94 559.28,-249.91"/>
</g>
<!-- Node13 -->
<g id="node13" class="node">
<title>Node13</title>
<g id="a_node13"><a xlink:title=" ">
<polygon fill="white" stroke="#bfbfbf" points="592.5,-224.5 592.5,-243.5 648.5,-243.5 648.5,-224.5 592.5,-224.5"/>
<text text-anchor="middle" x="620.5" y="-231.5" font-family="Helvetica,sans-Serif" font-size="10.00">sstream</text>
</a>
</g>
</g>
<!-- Node1&#45;&gt;Node13 -->
<g id="edge18" class="edge">
<title>Node1&#45;&gt;Node13</title>
<path fill="none" stroke="midnightblue" d="M588.77,-280.08C594.14,-272.46 602.02,-261.26 608.58,-251.94"/>
<polygon fill="midnightblue" stroke="midnightblue" points="611.45,-253.94 614.34,-243.75 605.72,-249.91 611.45,-253.94"/>
</g>
<!-- Node14 -->
<g id="node14" class="node">
<title>Node14</title>
<g id="a_node14"><a xlink:title=" ">
<polygon fill="white" stroke="#bfbfbf" points="666.5,-224.5 666.5,-243.5 710.5,-243.5 710.5,-224.5 666.5,-224.5"/>
<text text-anchor="middle" x="688.5" y="-231.5" font-family="Helvetica,sans-Serif" font-size="10.00">limits</text>
</a>
</g>
</g>
<!-- Node1&#45;&gt;Node14 -->
<g id="edge19" class="edge">
<title>Node1&#45;&gt;Node14</title>
<path fill="none" stroke="midnightblue" d="M599.53,-280.32C616.53,-271.66 642.88,-258.24 662.49,-248.25"/>
<polygon fill="midnightblue" stroke="midnightblue" points="664.19,-251.31 671.51,-243.65 661.01,-245.08 664.19,-251.31"/>
</g>
<!-- Node15 -->
<g id="node15" class="node">
<title>Node15</title>
<g id="a_node15"><a xlink:title=" ">
<polygon fill="white" stroke="#bfbfbf" points="728.5,-224.5 728.5,-243.5 792.5,-243.5 792.5,-224.5 728.5,-224.5"/>
<text text-anchor="middle" x="760.5" y="-231.5" font-family="Helvetica,sans-Serif" font-size="10.00">algorithm</text>
</a>
</g>
</g>
<!-- Node1&#45;&gt;Node15 -->
<g id="edge20" class="edge">
<title>Node1&#45;&gt;Node15</title>
<path fill="none" stroke="midnightblue" d="M610.7,-280.44C640.91,-271.28 689.01,-256.69 722.53,-246.52"/>
<polygon fill="midnightblue" stroke="midnightblue" points="723.87,-249.77 732.43,-243.52 721.84,-243.07 723.87,-249.77"/>
</g>
<!-- Node16 -->
<g id="node16" class="node">
<title>Node16</title>
<g id="a_node16"><a xlink:title=" ">
<polygon fill="white" stroke="#bfbfbf" points="811,-224.5 811,-243.5 858,-243.5 858,-224.5 811,-224.5"/>
<text text-anchor="middle" x="834.5" y="-231.5" font-family="Helvetica,sans-Serif" font-size="10.00">deque</text>
</a>
</g>
</g>
<!-- Node1&#45;&gt;Node16 -->
<g id="edge21" class="edge">
<title>Node1&#45;&gt;Node16</title>
<path fill="none" stroke="midnightblue" d="M620.25,-282C662.06,-274.08 731.65,-260.4 800.98,-244"/>
<polygon fill="midnightblue" stroke="midnightblue" points="801.84,-247.39 810.75,-241.67 800.21,-240.59 801.84,-247.39"/>
</g>
<!-- Node2&#45;&gt;Node3 -->
<g id="edge2" class="edge">
<title>Node2&#45;&gt;Node3</title>
<path fill="none" stroke="midnightblue" d="M287.67,-224.24C299.39,-207.23 324.98,-168.22 339.5,-132 345.52,-116.98 349.73,-99.08 352.31,-85.86"/>
<polygon fill="midnightblue" stroke="midnightblue" points="355.82,-86.12 354.17,-75.65 348.93,-84.86 355.82,-86.12"/>
</g>
<!-- Node4 -->
<g id="node4" class="node">
<title>Node4</title>
<g id="a_node4"><a xlink:title=" ">
<polygon fill="white" stroke="#bfbfbf" points="0,-56.5 0,-75.5 47,-75.5 47,-56.5 0,-56.5"/>
<text text-anchor="middle" x="23.5" y="-63.5" font-family="Helvetica,sans-Serif" font-size="10.00">vector</text>
</a>
</g>
</g>
<!-- Node2&#45;&gt;Node4 -->
<g id="edge3" class="edge">
<title>Node2&#45;&gt;Node4</title>
<path fill="none" stroke="midnightblue" d="M257.98,-229.35C211.28,-220.89 106.4,-195.55 48.5,-132 36.68,-119.02 30.22,-99.86 26.85,-85.7"/>
<polygon fill="midnightblue" stroke="midnightblue" points="30.22,-84.71 24.76,-75.63 23.37,-86.13 30.22,-84.71"/>
</g>
<!-- Node5 -->
<g id="node5" class="node">
<title>Node5</title>
<g id="a_node5"><a xlink:href="Window_8h.html" target="_top" xlink:title="Class for handling ncurses windows.">
<polygon fill="white" stroke="black" points="170.5,-168.5 170.5,-187.5 234.5,-187.5 234.5,-168.5 170.5,-168.5"/>
<text text-anchor="middle" x="202.5" y="-175.5" font-family="Helvetica,sans-Serif" font-size="10.00">Window.h</text>
</a>
</g>
</g>
<!-- Node2&#45;&gt;Node5 -->
<g id="edge4" class="edge">
<title>Node2&#45;&gt;Node5</title>
<path fill="none" stroke="midnightblue" d="M268.81,-224.32C256.6,-215.98 237.92,-203.21 223.5,-193.35"/>
<polygon fill="midnightblue" stroke="midnightblue" points="225.39,-190.41 215.16,-187.65 221.44,-196.19 225.39,-190.41"/>
</g>
<!-- Node5&#45;&gt;Node3 -->
<g id="edge6" class="edge">
<title>Node5&#45;&gt;Node3</title>
<path fill="none" stroke="midnightblue" d="M234.52,-170.55C259.42,-164.2 293.63,-152.41 317.5,-132 332.21,-119.42 342.62,-99.65 348.78,-85.21"/>
<polygon fill="midnightblue" stroke="midnightblue" points="352.07,-86.41 352.51,-75.82 345.56,-83.82 352.07,-86.41"/>
</g>
<!-- Node5&#45;&gt;Node4 -->
<g id="edge8" class="edge">
<title>Node5&#45;&gt;Node4</title>
<path fill="none" stroke="midnightblue" d="M170.38,-171.39C142.45,-165.3 101.95,-153.43 72.5,-132 55.42,-119.57 41.58,-99.49 33.02,-84.93"/>
<polygon fill="midnightblue" stroke="midnightblue" points="35.9,-82.92 27.96,-75.9 29.79,-86.34 35.9,-82.92"/>
</g>
<!-- Node6 -->
<g id="node6" class="node">
<title>Node6</title>
<g id="a_node6"><a xlink:title=" ">
<polygon fill="white" stroke="#bfbfbf" points="171,-112.5 171,-131.5 234,-131.5 234,-112.5 171,-112.5"/>
<text text-anchor="middle" x="202.5" y="-119.5" font-family="Helvetica,sans-Serif" font-size="10.00">ncurses.h</text>
</a>
</g>
</g>
<!-- Node5&#45;&gt;Node6 -->
<g id="edge5" class="edge">
<title>Node5&#45;&gt;Node6</title>
<path fill="none" stroke="midnightblue" d="M202.5,-168.08C202.5,-161.01 202.5,-150.86 202.5,-141.99"/>
<polygon fill="midnightblue" stroke="midnightblue" points="206,-141.75 202.5,-131.75 199,-141.75 206,-141.75"/>
</g>
<!-- Node7 -->
<g id="node7" class="node">
<title>Node7</title>
<g id="a_node7"><a xlink:title=" ">
<polygon fill="white" stroke="#bfbfbf" points="252.5,-112.5 252.5,-131.5 308.5,-131.5 308.5,-112.5 252.5,-112.5"/>
<text text-anchor="middle" x="280.5" y="-119.5" font-family="Helvetica,sans-Serif" font-size="10.00">optional</text>
</a>
</g>
</g>
<!-- Node5&#45;&gt;Node7 -->
<g id="edge7" class="edge">
<title>Node5&#45;&gt;Node7</title>
<path fill="none" stroke="midnightblue" d="M215.03,-168.32C227.09,-159.98 245.53,-147.21 259.77,-137.35"/>
<polygon fill="midnightblue" stroke="midnightblue" points="261.77,-140.22 268,-131.65 257.78,-134.47 261.77,-140.22"/>
</g>
<!-- Node8 -->
<g id="node8" class="node">
<title>Node8</title>
<g id="a_node8"><a xlink:href="Enums_8h.html" target="_top" xlink:title=" ">
<polygon fill="white" stroke="black" points="79,-56.5 79,-75.5 138,-75.5 138,-56.5 79,-56.5"/>
<text text-anchor="middle" x="108.5" y="-63.5" font-family="Helvetica,sans-Serif" font-size="10.00">Enums.h</text>
</a>
</g>
</g>
<!-- Node5&#45;&gt;Node8 -->
<g id="edge9" class="edge">
<title>Node5&#45;&gt;Node8</title>
<path fill="none" stroke="midnightblue" d="M170.41,-174.99C141.54,-171.28 100.64,-160.89 80.5,-132 69.91,-116.81 81.5,-96.97 92.82,-83.23"/>
<polygon fill="midnightblue" stroke="midnightblue" points="95.61,-85.36 99.63,-75.55 90.37,-80.71 95.61,-85.36"/>
</g>
<!-- Node10 -->
<g id="node10" class="node">
<title>Node10</title>
<g id="a_node10"><a xlink:href="Helpers_8h.html" target="_top" xlink:title=" ">
<polygon fill="white" stroke="black" points="90,-112.5 90,-131.5 153,-131.5 153,-112.5 90,-112.5"/>
<text text-anchor="middle" x="121.5" y="-119.5" font-family="Helvetica,sans-Serif" font-size="10.00">Helpers.h</text>
</a>
</g>
</g>
<!-- Node5&#45;&gt;Node10 -->
<g id="edge11" class="edge">
<title>Node5&#45;&gt;Node10</title>
<path fill="none" stroke="midnightblue" d="M189.49,-168.32C176.97,-159.98 157.82,-147.21 143.03,-137.35"/>
<polygon fill="midnightblue" stroke="midnightblue" points="144.74,-134.29 134.48,-131.65 140.86,-140.11 144.74,-134.29"/>
</g>
<!-- Node9 -->
<g id="node9" class="node">
<title>Node9</title>
<g id="a_node9"><a xlink:title=" ">
<polygon fill="white" stroke="#bfbfbf" points="86,-0.5 86,-19.5 131,-19.5 131,-0.5 86,-0.5"/>
<text text-anchor="middle" x="108.5" y="-7.5" font-family="Helvetica,sans-Serif" font-size="10.00">utility</text>
</a>
</g>
</g>
<!-- Node8&#45;&gt;Node9 -->
<g id="edge10" class="edge">
<title>Node8&#45;&gt;Node9</title>
<path fill="none" stroke="midnightblue" d="M108.5,-56.08C108.5,-49.01 108.5,-38.86 108.5,-29.99"/>
<polygon fill="midnightblue" stroke="midnightblue" points="112,-29.75 108.5,-19.75 105,-29.75 112,-29.75"/>
</g>
<!-- Node10&#45;&gt;Node3 -->
<g id="edge13" class="edge">
<title>Node10&#45;&gt;Node3</title>
<path fill="none" stroke="midnightblue" d="M153.06,-113.72C197.62,-103.43 278.53,-84.76 323.39,-74.41"/>
<polygon fill="midnightblue" stroke="midnightblue" points="324.22,-77.81 333.18,-72.15 322.65,-70.99 324.22,-77.81"/>
</g>
<!-- Node10&#45;&gt;Node4 -->
<g id="edge14" class="edge">
<title>Node10&#45;&gt;Node4</title>
<path fill="none" stroke="midnightblue" d="M105.75,-112.32C90.18,-103.74 66.12,-90.49 48.04,-80.52"/>
<polygon fill="midnightblue" stroke="midnightblue" points="49.65,-77.42 39.21,-75.65 46.28,-83.55 49.65,-77.42"/>
</g>
<!-- Node10&#45;&gt;Node8 -->
<g id="edge12" class="edge">
<title>Node10&#45;&gt;Node8</title>
<path fill="none" stroke="midnightblue" d="M119.35,-112.08C117.63,-104.93 115.15,-94.64 113,-85.69"/>
<polygon fill="midnightblue" stroke="midnightblue" points="116.35,-84.65 110.61,-75.75 109.54,-86.29 116.35,-84.65"/>
</g>
</g>
</svg>
