<?xml version="1.0" encoding="UTF-8" standalone="no"?>
<!DOCTYPE svg PUBLIC "-//W3C//DTD SVG 1.1//EN"
 "http://www.w3.org/Graphics/SVG/1.1/DTD/svg11.dtd">
<!-- Generated by graphviz version 10.0.1 (0)
 -->
<!-- Title: src/Map.cpp Pages: 1 -->
<svg width="811pt" height="308pt"
 viewBox="0.00 0.00 810.62 308.00" xmlns="http://www.w3.org/2000/svg" xmlns:xlink="http://www.w3.org/1999/xlink">
<g id="graph0" class="graph" transform="scale(1 1) rotate(0) translate(4 304)">
<title>src/Map.cpp</title>
<!-- Node1 -->
<g id="Node000001" class="node">
<title>Node1</title>
<g id="a_Node000001"><a xlink:title="Class for handling the game map.">
<polygon fill="#999999" stroke="#666666" points="585.5,-300 515.5,-300 515.5,-280 585.5,-280 585.5,-300"/>
<text text-anchor="middle" x="550.5" y="-286.5" font-family="Helvetica,sans-Serif" font-size="10.00">src/Map.cpp</text>
</a>
</g>
</g>
<!-- Node2 -->
<g id="Node000002" class="node">
<title>Node2</title>
<g id="a_Node000002"><a xlink:href="Map_8h.html" target="_top" xlink:title="Class for handling the game map.">
<polygon fill="white" stroke="#666666" points="290,-244 247,-244 247,-224 290,-224 290,-244"/>
<text text-anchor="middle" x="268.5" y="-230.5" font-family="Helvetica,sans-Serif" font-size="10.00">Map.h</text>
</a>
</g>
</g>
<!-- Node1&#45;&gt;Node2 -->
<g id="edge1_Node000001_Node000002" class="edge">
<title>Node1&#45;&gt;Node2</title>
<g id="a_edge1_Node000001_Node000002"><a xlink:title=" ">
<path fill="none" stroke="#63b8ff" d="M515.07,-282.22C460.06,-271.68 354.88,-251.54 301.44,-241.31"/>
<polygon fill="#63b8ff" stroke="#63b8ff" points="302.21,-237.89 291.73,-239.45 300.89,-244.77 302.21,-237.89"/>
</a>
</g>
</g>
<!-- Node3 -->
<g id="Node000003" class="node">
<title>Node3</title>
<g id="a_Node000003"><a xlink:title=" ">
<polygon fill="#e0e0e0" stroke="#999999" points="356.5,-76 316.5,-76 316.5,-56 356.5,-56 356.5,-76"/>
<text text-anchor="middle" x="336.5" y="-62.5" font-family="Helvetica,sans-Serif" font-size="10.00">string</text>
</a>
</g>
</g>
<!-- Node1&#45;&gt;Node3 -->
<g id="edge15_Node000001_Node000003" class="edge">
<title>Node1&#45;&gt;Node3</title>
<g id="a_edge15_Node000001_Node000003"><a xlink:title=" ">
<path fill="none" stroke="#63b8ff" d="M515.27,-285.49C484.94,-280.76 441.72,-269.71 413.5,-244 366.3,-201 346.71,-123.96 339.77,-87.37"/>
<polygon fill="#63b8ff" stroke="#63b8ff" points="343.26,-86.97 338.08,-77.73 336.36,-88.18 343.26,-86.97"/>
</a>
</g>
</g>
<!-- Node11 -->
<g id="Node000011" class="node">
<title>Node11</title>
<g id="a_Node000011"><a xlink:title=" ">
<polygon fill="#e0e0e0" stroke="#999999" points="471,-244 422,-244 422,-224 471,-224 471,-244"/>
<text text-anchor="middle" x="446.5" y="-230.5" font-family="Helvetica,sans-Serif" font-size="10.00">fstream</text>
</a>
</g>
</g>
<!-- Node1&#45;&gt;Node11 -->
<g id="edge16_Node000001_Node000011" class="edge">
<title>Node1&#45;&gt;Node11</title>
<g id="a_edge16_Node000001_Node000011"><a xlink:title=" ">
<path fill="none" stroke="#63b8ff" d="M532.38,-279.59C516.53,-271.36 493.22,-259.26 474.88,-249.74"/>
<polygon fill="#63b8ff" stroke="#63b8ff" points="476.59,-246.68 466.1,-245.18 473.36,-252.89 476.59,-246.68"/>
</a>
</g>
</g>
<!-- Node12 -->
<g id="Node000012" class="node">
<title>Node12</title>
<g id="a_Node000012"><a xlink:title=" ">
<polygon fill="#e0e0e0" stroke="#999999" points="542.25,-244 488.75,-244 488.75,-224 542.25,-224 542.25,-244"/>
<text text-anchor="middle" x="515.5" y="-230.5" font-family="Helvetica,sans-Serif" font-size="10.00">iostream</text>
</a>
</g>
</g>
<!-- Node1&#45;&gt;Node12 -->
<g id="edge17_Node000001_Node000012" class="edge">
<title>Node1&#45;&gt;Node12</title>
<g id="a_edge17_Node000001_Node000012"><a xlink:title=" ">
<path fill="none" stroke="#63b8ff" d="M544.4,-279.59C539.79,-272.47 533.29,-262.45 527.63,-253.72"/>
<polygon fill="#63b8ff" stroke="#63b8ff" points="530.73,-252.06 522.35,-245.57 524.85,-255.86 530.73,-252.06"/>
</a>
</g>
</g>
<!-- Node13 -->
<g id="Node000013" class="node">
<title>Node13</title>
<g id="a_Node000013"><a xlink:title=" ">
<polygon fill="#e0e0e0" stroke="#999999" points="611.12,-244 559.88,-244 559.88,-224 611.12,-224 611.12,-244"/>
<text text-anchor="middle" x="585.5" y="-230.5" font-family="Helvetica,sans-Serif" font-size="10.00">sstream</text>
</a>
</g>
</g>
<!-- Node1&#45;&gt;Node13 -->
<g id="edge18_Node000001_Node000013" class="edge">
<title>Node1&#45;&gt;Node13</title>
<g id="a_edge18_Node000001_Node000013"><a xlink:title=" ">
<path fill="none" stroke="#63b8ff" d="M556.6,-279.59C561.21,-272.47 567.71,-262.45 573.37,-253.72"/>
<polygon fill="#63b8ff" stroke="#63b8ff" points="576.15,-255.86 578.65,-245.57 570.27,-252.06 576.15,-255.86"/>
</a>
</g>
</g>
<!-- Node14 -->
<g id="Node000014" class="node">
<title>Node14</title>
<g id="a_Node000014"><a xlink:title=" ">
<polygon fill="#e0e0e0" stroke="#999999" points="668.12,-244 628.88,-244 628.88,-224 668.12,-224 668.12,-244"/>
<text text-anchor="middle" x="648.5" y="-230.5" font-family="Helvetica,sans-Serif" font-size="10.00">limits</text>
</a>
</g>
</g>
<!-- Node1&#45;&gt;Node14 -->
<g id="edge19_Node000001_Node000014" class="edge">
<title>Node1&#45;&gt;Node14</title>
<g id="a_edge19_Node000001_Node000014"><a xlink:title=" ">
<path fill="none" stroke="#63b8ff" d="M567.57,-279.59C582.38,-271.44 604.07,-259.48 621.27,-250"/>
<polygon fill="#63b8ff" stroke="#63b8ff" points="622.9,-253.1 629.97,-245.21 619.52,-246.97 622.9,-253.1"/>
</a>
</g>
</g>
<!-- Node15 -->
<g id="Node000015" class="node">
<title>Node15</title>
<g id="a_Node000015"><a xlink:title=" ">
<polygon fill="#e0e0e0" stroke="#999999" points="742.38,-244 686.62,-244 686.62,-224 742.38,-224 742.38,-244"/>
<text text-anchor="middle" x="714.5" y="-230.5" font-family="Helvetica,sans-Serif" font-size="10.00">algorithm</text>
</a>
</g>
</g>
<!-- Node1&#45;&gt;Node15 -->
<g id="edge20_Node000001_Node000015" class="edge">
<title>Node1&#45;&gt;Node15</title>
<g id="a_edge20_Node000001_Node000015"><a xlink:title=" ">
<path fill="none" stroke="#63b8ff" d="M579.07,-279.59C605.76,-270.81 645.83,-257.61 675.46,-247.85"/>
<polygon fill="#63b8ff" stroke="#63b8ff" points="676.42,-251.22 684.82,-244.77 674.23,-244.57 676.42,-251.22"/>
</a>
</g>
</g>
<!-- Node16 -->
<g id="Node000016" class="node">
<title>Node16</title>
<g id="a_Node000016"><a xlink:title=" ">
<polygon fill="#e0e0e0" stroke="#999999" points="802.62,-244 760.38,-244 760.38,-224 802.62,-224 802.62,-244"/>
<text text-anchor="middle" x="781.5" y="-230.5" font-family="Helvetica,sans-Serif" font-size="10.00">deque</text>
</a>
</g>
</g>
<!-- Node1&#45;&gt;Node16 -->
<g id="edge21_Node000001_Node000016" class="edge">
<title>Node1&#45;&gt;Node16</title>
<g id="a_edge21_Node000001_Node000016"><a xlink:title=" ">
<path fill="none" stroke="#63b8ff" d="M585.9,-281.87C624,-274.02 686.58,-260.64 749.08,-244.5"/>
<polygon fill="#63b8ff" stroke="#63b8ff" points="749.66,-247.97 758.46,-242.06 747.9,-241.19 749.66,-247.97"/>
</a>
</g>
</g>
<!-- Node2&#45;&gt;Node3 -->
<g id="edge2_Node000002_Node000003" class="edge">
<title>Node2&#45;&gt;Node3</title>
<g id="a_edge2_Node000002_Node000003"><a xlink:title=" ">
<path fill="none" stroke="#63b8ff" d="M274.13,-223.56C284.37,-206.04 306.22,-167.09 319.5,-132 325.01,-117.45 329.39,-100.42 332.32,-87.44"/>
<polygon fill="#63b8ff" stroke="#63b8ff" points="335.69,-88.44 334.37,-77.93 328.84,-86.97 335.69,-88.44"/>
</a>
</g>
</g>
<!-- Node4 -->
<g id="Node000004" class="node">
<title>Node4</title>
<g id="a_Node000004"><a xlink:title=" ">
<polygon fill="#e0e0e0" stroke="#999999" points="43,-76 0,-76 0,-56 43,-56 43,-76"/>
<text text-anchor="middle" x="21.5" y="-62.5" font-family="Helvetica,sans-Serif" font-size="10.00">vector</text>
</a>
</g>
</g>
<!-- Node2&#45;&gt;Node4 -->
<g id="edge3_Node000002_Node000004" class="edge">
<title>Node2&#45;&gt;Node4</title>
<g id="a_edge3_Node000002_Node000004"><a xlink:title=" ">
<path fill="none" stroke="#63b8ff" d="M246.57,-229C202.51,-219.83 102.78,-193.2 47.5,-132 36.16,-119.44 29.46,-101.32 25.71,-87.4"/>
<polygon fill="#63b8ff" stroke="#63b8ff" points="29.19,-86.89 23.48,-77.97 22.38,-88.5 29.19,-86.89"/>
</a>
</g>
</g>
<!-- Node5 -->
<g id="Node000005" class="node">
<title>Node5</title>
<g id="a_Node000005"><a xlink:href="Window_8h.html" target="_top" xlink:title="Class for handling ncurses windows.">
<polygon fill="white" stroke="#666666" points="221.5,-188 163.5,-188 163.5,-168 221.5,-168 221.5,-188"/>
<text text-anchor="middle" x="192.5" y="-174.5" font-family="Helvetica,sans-Serif" font-size="10.00">Window.h</text>
</a>
</g>
</g>
<!-- Node2&#45;&gt;Node5 -->
<g id="edge4_Node000002_Node000005" class="edge">
<title>Node2&#45;&gt;Node5</title>
<g id="a_edge4_Node000002_Node000005"><a xlink:title=" ">
<path fill="none" stroke="#63b8ff" d="M255.26,-223.59C244.21,-215.74 228.22,-204.38 215.14,-195.09"/>
<polygon fill="#63b8ff" stroke="#63b8ff" points="217.25,-192.3 207.08,-189.36 213.2,-198 217.25,-192.3"/>
</a>
</g>
</g>
<!-- Node5&#45;&gt;Node3 -->
<g id="edge6_Node000005_Node000003" class="edge">
<title>Node5&#45;&gt;Node3</title>
<g id="a_edge6_Node000005_Node000003"><a xlink:title=" ">
<path fill="none" stroke="#63b8ff" d="M221.79,-170.03C244.76,-163.37 276.44,-151.41 298.5,-132 312.45,-119.72 322.63,-101.03 328.92,-86.84"/>
<polygon fill="#63b8ff" stroke="#63b8ff" points="332.15,-88.19 332.71,-77.61 325.67,-85.53 332.15,-88.19"/>
</a>
</g>
</g>
<!-- Node5&#45;&gt;Node4 -->
<g id="edge8_Node000005_Node000004" class="edge">
<title>Node5&#45;&gt;Node4</title>
<g id="a_edge8_Node000005_Node000004"><a xlink:title=" ">
<path fill="none" stroke="#63b8ff" d="M163.12,-171.14C136.89,-164.81 98.4,-152.74 70.5,-132 54.05,-119.77 40.51,-100.54 31.87,-86.16"/>
<polygon fill="#63b8ff" stroke="#63b8ff" points="34.99,-84.57 26.99,-77.62 28.91,-88.04 34.99,-84.57"/>
</a>
</g>
</g>
<!-- Node6 -->
<g id="Node000006" class="node">
<title>Node6</title>
<g id="a_Node000006"><a xlink:title=" ">
<polygon fill="#e0e0e0" stroke="#999999" points="221.88,-132 163.12,-132 163.12,-112 221.88,-112 221.88,-132"/>
<text text-anchor="middle" x="192.5" y="-118.5" font-family="Helvetica,sans-Serif" font-size="10.00">ncurses.h</text>
</a>
</g>
</g>
<!-- Node5&#45;&gt;Node6 -->
<g id="edge5_Node000005_Node000006" class="edge">
<title>Node5&#45;&gt;Node6</title>
<g id="a_edge5_Node000005_Node000006"><a xlink:title=" ">
<path fill="none" stroke="#63b8ff" d="M192.5,-167.59C192.5,-161.01 192.5,-151.96 192.5,-143.73"/>
<polygon fill="#63b8ff" stroke="#63b8ff" points="196,-143.81 192.5,-133.81 189,-143.81 196,-143.81"/>
</a>
</g>
</g>
<!-- Node7 -->
<g id="Node000007" class="node">
<title>Node7</title>
<g id="a_Node000007"><a xlink:title=" ">
<polygon fill="#e0e0e0" stroke="#999999" points="289.38,-132 239.62,-132 239.62,-112 289.38,-112 289.38,-132"/>
<text text-anchor="middle" x="264.5" y="-118.5" font-family="Helvetica,sans-Serif" font-size="10.00">optional</text>
</a>
</g>
</g>
<!-- Node5&#45;&gt;Node7 -->
<g id="edge7_Node000005_Node000007" class="edge">
<title>Node5&#45;&gt;Node7</title>
<g id="a_edge7_Node000005_Node000007"><a xlink:title=" ">
<path fill="none" stroke="#63b8ff" d="M205.04,-167.59C215.47,-159.77 230.55,-148.46 242.91,-139.19"/>
<polygon fill="#63b8ff" stroke="#63b8ff" points="244.99,-142.01 250.89,-133.21 240.79,-136.41 244.99,-142.01"/>
</a>
</g>
</g>
<!-- Node8 -->
<g id="Node000008" class="node">
<title>Node8</title>
<g id="a_Node000008"><a xlink:href="Enums_8h.html" target="_top" xlink:title=" ">
<polygon fill="white" stroke="#666666" points="130,-76 75,-76 75,-56 130,-56 130,-76"/>
<text text-anchor="middle" x="102.5" y="-62.5" font-family="Helvetica,sans-Serif" font-size="10.00">Enums.h</text>
</a>
</g>
</g>
<!-- Node5&#45;&gt;Node8 -->
<g id="edge9_Node000005_Node000008" class="edge">
<title>Node5&#45;&gt;Node8</title>
<g id="a_edge9_Node000005_Node000008"><a xlink:title=" ">
<path fill="none" stroke="#63b8ff" d="M163.23,-174.45C136.16,-170.36 97.35,-159.71 78.5,-132 68.81,-117.75 77.47,-99.1 86.99,-85.43"/>
<polygon fill="#63b8ff" stroke="#63b8ff" points="89.61,-87.77 92.9,-77.7 84.05,-83.52 89.61,-87.77"/>
</a>
</g>
</g>
<!-- Node10 -->
<g id="Node000010" class="node">
<title>Node10</title>
<g id="a_Node000010"><a xlink:href="Helpers_8h.html" target="_top" xlink:title=" ">
<polygon fill="white" stroke="#666666" points="145.5,-132 87.5,-132 87.5,-112 145.5,-112 145.5,-132"/>
<text text-anchor="middle" x="116.5" y="-118.5" font-family="Helvetica,sans-Serif" font-size="10.00">Helpers.h</text>
</a>
</g>
</g>
<!-- Node5&#45;&gt;Node10 -->
<g id="edge11_Node000005_Node000010" class="edge">
<title>Node5&#45;&gt;Node10</title>
<g id="a_edge11_Node000005_Node000010"><a xlink:title=" ">
<path fill="none" stroke="#63b8ff" d="M179.26,-167.59C168.21,-159.74 152.22,-148.38 139.14,-139.09"/>
<polygon fill="#63b8ff" stroke="#63b8ff" points="141.25,-136.3 131.08,-133.36 137.2,-142 141.25,-136.3"/>
</a>
</g>
</g>
<!-- Node9 -->
<g id="Node000009" class="node">
<title>Node9</title>
<g id="a_Node000009"><a xlink:title=" ">
<polygon fill="#e0e0e0" stroke="#999999" points="122.12,-20 82.88,-20 82.88,0 122.12,0 122.12,-20"/>
<text text-anchor="middle" x="102.5" y="-6.5" font-family="Helvetica,sans-Serif" font-size="10.00">utility</text>
</a>
</g>
</g>
<!-- Node8&#45;&gt;Node9 -->
<g id="edge10_Node000008_Node000009" class="edge">
<title>Node8&#45;&gt;Node9</title>
<g id="a_edge10_Node000008_Node000009"><a xlink:title=" ">
<path fill="none" stroke="#63b8ff" d="M102.5,-55.59C102.5,-49.01 102.5,-39.96 102.5,-31.73"/>
<polygon fill="#63b8ff" stroke="#63b8ff" points="106,-31.81 102.5,-21.81 99,-31.81 106,-31.81"/>
</a>
</g>
</g>
<!-- Node10&#45;&gt;Node3 -->
<g id="edge13_Node000010_Node000003" class="edge">
<title>Node10&#45;&gt;Node3</title>
<g id="a_edge13_Node000010_Node000003"><a xlink:title=" ">
<path fill="none" stroke="#63b8ff" d="M145.71,-113.83C187.06,-103.68 262.35,-85.2 304.94,-74.75"/>
<polygon fill="#63b8ff" stroke="#63b8ff" points="305.68,-78.17 314.56,-72.39 304.01,-71.37 305.68,-78.17"/>
</a>
</g>
</g>
<!-- Node10&#45;&gt;Node4 -->
<g id="edge14_Node000010_Node000004" class="edge">
<title>Node10&#45;&gt;Node4</title>
<g id="a_edge14_Node000010_Node000004"><a xlink:title=" ">
<path fill="none" stroke="#63b8ff" d="M99.95,-111.59C85.6,-103.44 64.57,-91.48 47.9,-82"/>
<polygon fill="#63b8ff" stroke="#63b8ff" points="49.92,-79.13 39.49,-77.23 46.46,-85.21 49.92,-79.13"/>
</a>
</g>
</g>
<!-- Node10&#45;&gt;Node8 -->
<g id="edge12_Node000010_Node000008" class="edge">
<title>Node10&#45;&gt;Node8</title>
<g id="a_edge12_Node000010_Node000008"><a xlink:title=" ">
<path fill="none" stroke="#63b8ff" d="M114.06,-111.59C112.33,-104.93 109.95,-95.75 107.8,-87.44"/>
<polygon fill="#63b8ff" stroke="#63b8ff" points="111.19,-86.56 105.29,-77.76 104.41,-88.32 111.19,-86.56"/>
</a>
</g>
</g>
</g>
</svg>
