<?xml version="1.0" encoding="UTF-8" standalone="no"?>
<!DOCTYPE svg PUBLIC "-//W3C//DTD SVG 1.1//EN"
 "http://www.w3.org/Graphics/SVG/1.1/DTD/svg11.dtd">
<!-- Generated by graphviz version 10.0.1 (0)
 -->
<!-- Title: src/MovingObject.h Pages: 1 -->
<svg width="617pt" height="308pt"
 viewBox="0.00 0.00 616.54 308.00" xmlns="http://www.w3.org/2000/svg" xmlns:xlink="http://www.w3.org/1999/xlink">
<g id="graph0" class="graph" transform="scale(1 1) rotate(0) translate(4 304)">
<title>src/MovingObject.h</title>
<!-- Node1 -->
<g id="Node000001" class="node">
<title>Node1</title>
<g id="a_Node000001"><a xlink:title="Base class for all moving objects.">
<polygon fill="#999999" stroke="#666666" points="245.5,-300 144.75,-300 144.75,-280 245.5,-280 245.5,-300"/>
<text text-anchor="middle" x="195.12" y="-286.5" font-family="Helvetica,sans-Serif" font-size="10.00">src/MovingObject.h</text>
</a>
</g>
</g>
<!-- Node2 -->
<g id="Node000002" class="node">
<title>Node2</title>
<g id="a_Node000002"><a xlink:href="GameObject_8h.html" target="_top" xlink:title="Base class for all game objects.">
<polygon fill="white" stroke="#666666" points="147.62,-244 68.62,-244 68.62,-224 147.62,-224 147.62,-244"/>
<text text-anchor="middle" x="108.12" y="-230.5" font-family="Helvetica,sans-Serif" font-size="10.00">GameObject.h</text>
</a>
</g>
</g>
<!-- Node1&#45;&gt;Node2 -->
<g id="edge1_Node000001_Node000002" class="edge">
<title>Node1&#45;&gt;Node2</title>
<g id="a_edge1_Node000001_Node000002"><a xlink:title=" ">
<path fill="none" stroke="#63b8ff" d="M179.97,-279.59C167.08,-271.59 148.29,-259.93 133.17,-250.54"/>
<polygon fill="#63b8ff" stroke="#63b8ff" points="135.03,-247.58 124.68,-245.28 131.33,-253.53 135.03,-247.58"/>
</a>
</g>
</g>
<!-- Node3 -->
<g id="Node000003" class="node">
<title>Node3</title>
<g id="a_Node000003"><a xlink:href="Enums_8h.html" target="_top" xlink:title=" ">
<polygon fill="white" stroke="#666666" points="237.62,-76 182.62,-76 182.62,-56 237.62,-56 237.62,-76"/>
<text text-anchor="middle" x="210.12" y="-62.5" font-family="Helvetica,sans-Serif" font-size="10.00">Enums.h</text>
</a>
</g>
</g>
<!-- Node1&#45;&gt;Node3 -->
<g id="edge7_Node000001_Node000003" class="edge">
<title>Node1&#45;&gt;Node3</title>
<g id="a_edge7_Node000001_Node000003"><a xlink:title=" ">
<path fill="none" stroke="#63b8ff" d="M195.75,-279.74C197.98,-246.74 205.58,-134.31 208.73,-87.61"/>
<polygon fill="#63b8ff" stroke="#63b8ff" points="212.21,-88.02 209.39,-77.81 205.23,-87.55 212.21,-88.02"/>
</a>
</g>
</g>
<!-- Node5 -->
<g id="Node000005" class="node">
<title>Node5</title>
<g id="a_Node000005"><a xlink:href="GamePhase_8h.html" target="_top" xlink:title="Handles the game phase and level.">
<polygon fill="white" stroke="#666666" points="78.25,-188 0,-188 0,-168 78.25,-168 78.25,-188"/>
<text text-anchor="middle" x="39.12" y="-174.5" font-family="Helvetica,sans-Serif" font-size="10.00">GamePhase.h</text>
</a>
</g>
</g>
<!-- Node1&#45;&gt;Node5 -->
<g id="edge23_Node000001_Node000005" class="edge">
<title>Node1&#45;&gt;Node5</title>
<g id="a_edge23_Node000001_Node000005"><a xlink:title=" ">
<path fill="none" stroke="#63b8ff" d="M144.49,-283.69C115.93,-278.17 81.57,-266.92 59.12,-244 47.5,-232.12 42.61,-213.66 40.57,-199.44"/>
<polygon fill="#63b8ff" stroke="#63b8ff" points="44.08,-199.39 39.56,-189.81 37.12,-200.12 44.08,-199.39"/>
</a>
</g>
</g>
<!-- Node6 -->
<g id="Node000006" class="node">
<title>Node6</title>
<g id="a_Node000006"><a xlink:title=" ">
<polygon fill="#e0e0e0" stroke="#999999" points="185.75,-188 134.5,-188 134.5,-168 185.75,-168 185.75,-188"/>
<text text-anchor="middle" x="160.12" y="-174.5" font-family="Helvetica,sans-Serif" font-size="10.00">memory</text>
</a>
</g>
</g>
<!-- Node1&#45;&gt;Node6 -->
<g id="edge8_Node000001_Node000006" class="edge">
<title>Node1&#45;&gt;Node6</title>
<g id="a_edge8_Node000001_Node000006"><a xlink:title=" ">
<path fill="none" stroke="#63b8ff" d="M192.14,-279.62C186.51,-261.92 174.2,-223.24 166.59,-199.32"/>
<polygon fill="#63b8ff" stroke="#63b8ff" points="169.93,-198.27 163.56,-189.8 163.26,-200.39 169.93,-198.27"/>
</a>
</g>
</g>
<!-- Node7 -->
<g id="Node000007" class="node">
<title>Node7</title>
<g id="a_Node000007"><a xlink:title=" ">
<polygon fill="#e0e0e0" stroke="#999999" points="288,-132 238.25,-132 238.25,-112 288,-112 288,-132"/>
<text text-anchor="middle" x="263.12" y="-118.5" font-family="Helvetica,sans-Serif" font-size="10.00">optional</text>
</a>
</g>
</g>
<!-- Node1&#45;&gt;Node7 -->
<g id="edge9_Node000001_Node000007" class="edge">
<title>Node1&#45;&gt;Node7</title>
<g id="a_edge9_Node000001_Node000007"><a xlink:title=" ">
<path fill="none" stroke="#63b8ff" d="M203.53,-279.64C210.94,-270.95 221.54,-257.39 228.12,-244 244.56,-210.58 254.62,-168.07 259.51,-143.36"/>
<polygon fill="#63b8ff" stroke="#63b8ff" points="262.92,-144.16 261.33,-133.69 256.04,-142.87 262.92,-144.16"/>
</a>
</g>
</g>
<!-- Node8 -->
<g id="Node000008" class="node">
<title>Node8</title>
<g id="a_Node000008"><a xlink:href="Map_8h.html" target="_top" xlink:title="Class for handling the game map.">
<polygon fill="white" stroke="#666666" points="517.62,-244 474.62,-244 474.62,-224 517.62,-224 517.62,-244"/>
<text text-anchor="middle" x="496.12" y="-230.5" font-family="Helvetica,sans-Serif" font-size="10.00">Map.h</text>
</a>
</g>
</g>
<!-- Node1&#45;&gt;Node8 -->
<g id="edge10_Node000001_Node000008" class="edge">
<title>Node1&#45;&gt;Node8</title>
<g id="a_edge10_Node000001_Node000008"><a xlink:title=" ">
<path fill="none" stroke="#63b8ff" d="M245.85,-279.9C307.71,-268.8 410.51,-250.36 463.03,-240.94"/>
<polygon fill="#63b8ff" stroke="#63b8ff" points="463.63,-244.39 472.85,-239.17 462.39,-237.5 463.63,-244.39"/>
</a>
</g>
</g>
<!-- Node2&#45;&gt;Node3 -->
<g id="edge2_Node000002_Node000003" class="edge">
<title>Node2&#45;&gt;Node3</title>
<g id="a_edge2_Node000002_Node000003"><a xlink:title=" ">
<path fill="none" stroke="#63b8ff" d="M109.24,-223.71C111.09,-210.66 115.58,-186.44 125.12,-168 142.22,-134.97 171.81,-103.23 191.17,-84.41"/>
<polygon fill="#63b8ff" stroke="#63b8ff" points="193.57,-86.96 198.41,-77.54 188.75,-81.88 193.57,-86.96"/>
</a>
</g>
</g>
<!-- Node2&#45;&gt;Node5 -->
<g id="edge4_Node000002_Node000005" class="edge">
<title>Node2&#45;&gt;Node5</title>
<g id="a_edge4_Node000002_Node000005"><a xlink:title=" ">
<path fill="none" stroke="#63b8ff" d="M96.11,-223.59C86.11,-215.77 71.66,-204.46 59.82,-195.19"/>
<polygon fill="#63b8ff" stroke="#63b8ff" points="62.23,-192.64 52.2,-189.23 57.92,-198.15 62.23,-192.64"/>
</a>
</g>
</g>
<!-- Node2&#45;&gt;Node6 -->
<g id="edge6_Node000002_Node000006" class="edge">
<title>Node2&#45;&gt;Node6</title>
<g id="a_edge6_Node000002_Node000006"><a xlink:title=" ">
<path fill="none" stroke="#63b8ff" d="M117.18,-223.59C124.34,-216.16 134.53,-205.58 143.19,-196.58"/>
<polygon fill="#63b8ff" stroke="#63b8ff" points="145.71,-199.02 150.12,-189.39 140.66,-194.16 145.71,-199.02"/>
</a>
</g>
</g>
<!-- Node4 -->
<g id="Node000004" class="node">
<title>Node4</title>
<g id="a_Node000004"><a xlink:title=" ">
<polygon fill="#e0e0e0" stroke="#999999" points="229.75,-20 190.5,-20 190.5,0 229.75,0 229.75,-20"/>
<text text-anchor="middle" x="210.12" y="-6.5" font-family="Helvetica,sans-Serif" font-size="10.00">utility</text>
</a>
</g>
</g>
<!-- Node3&#45;&gt;Node4 -->
<g id="edge3_Node000003_Node000004" class="edge">
<title>Node3&#45;&gt;Node4</title>
<g id="a_edge3_Node000003_Node000004"><a xlink:title=" ">
<path fill="none" stroke="#63b8ff" d="M210.12,-55.59C210.12,-49.01 210.12,-39.96 210.12,-31.73"/>
<polygon fill="#63b8ff" stroke="#63b8ff" points="213.63,-31.81 210.13,-21.81 206.63,-31.81 213.63,-31.81"/>
</a>
</g>
</g>
<!-- Node5&#45;&gt;Node3 -->
<g id="edge5_Node000005_Node000003" class="edge">
<title>Node5&#45;&gt;Node3</title>
<g id="a_edge5_Node000005_Node000003"><a xlink:title=" ">
<path fill="none" stroke="#63b8ff" d="M44.47,-167.74C52.92,-153.82 70.64,-127.52 92.12,-112 115.91,-94.82 147.07,-83.31 171.39,-76.23"/>
<polygon fill="#63b8ff" stroke="#63b8ff" points="172.21,-79.63 180.92,-73.6 170.35,-72.89 172.21,-79.63"/>
</a>
</g>
</g>
<!-- Node9 -->
<g id="Node000009" class="node">
<title>Node9</title>
<g id="a_Node000009"><a xlink:title=" ">
<polygon fill="#e0e0e0" stroke="#999999" points="431.12,-76 391.12,-76 391.12,-56 431.12,-56 431.12,-76"/>
<text text-anchor="middle" x="411.12" y="-62.5" font-family="Helvetica,sans-Serif" font-size="10.00">string</text>
</a>
</g>
</g>
<!-- Node8&#45;&gt;Node9 -->
<g id="edge11_Node000008_Node000009" class="edge">
<title>Node8&#45;&gt;Node9</title>
<g id="a_edge11_Node000008_Node000009"><a xlink:title=" ">
<path fill="none" stroke="#63b8ff" d="M502.95,-223.62C517.74,-202.02 549.55,-147.9 525.12,-112 506.78,-85.03 469.52,-74.22 442.58,-69.89"/>
<polygon fill="#63b8ff" stroke="#63b8ff" points="443.28,-66.46 432.89,-68.57 442.33,-73.39 443.28,-66.46"/>
</a>
</g>
</g>
<!-- Node10 -->
<g id="Node000010" class="node">
<title>Node10</title>
<g id="a_Node000010"><a xlink:title=" ">
<polygon fill="#e0e0e0" stroke="#999999" points="565.62,-76 522.62,-76 522.62,-56 565.62,-56 565.62,-76"/>
<text text-anchor="middle" x="544.12" y="-62.5" font-family="Helvetica,sans-Serif" font-size="10.00">vector</text>
</a>
</g>
</g>
<!-- Node8&#45;&gt;Node10 -->
<g id="edge12_Node000008_Node000010" class="edge">
<title>Node8&#45;&gt;Node10</title>
<g id="a_edge12_Node000008_Node000010"><a xlink:title=" ">
<path fill="none" stroke="#63b8ff" d="M517.72,-230.15C541.57,-225.71 578.86,-214.7 596.12,-188 614.47,-159.64 610.17,-142.72 596.12,-112 590.75,-100.23 580.6,-90.36 570.69,-82.9"/>
<polygon fill="#63b8ff" stroke="#63b8ff" points="572.89,-80.16 562.67,-77.35 568.91,-85.91 572.89,-80.16"/>
</a>
</g>
</g>
<!-- Node11 -->
<g id="Node000011" class="node">
<title>Node11</title>
<g id="a_Node000011"><a xlink:href="Window_8h.html" target="_top" xlink:title="Class for handling ncurses windows.">
<polygon fill="white" stroke="#666666" points="440.12,-188 382.12,-188 382.12,-168 440.12,-168 440.12,-188"/>
<text text-anchor="middle" x="411.12" y="-174.5" font-family="Helvetica,sans-Serif" font-size="10.00">Window.h</text>
</a>
</g>
</g>
<!-- Node8&#45;&gt;Node11 -->
<g id="edge13_Node000008_Node000011" class="edge">
<title>Node8&#45;&gt;Node11</title>
<g id="a_edge13_Node000008_Node000011"><a xlink:title=" ">
<path fill="none" stroke="#63b8ff" d="M481.32,-223.59C468.72,-215.59 450.37,-203.93 435.59,-194.54"/>
<polygon fill="#63b8ff" stroke="#63b8ff" points="437.64,-191.7 427.32,-189.29 433.89,-197.61 437.64,-191.7"/>
</a>
</g>
</g>
<!-- Node11&#45;&gt;Node3 -->
<g id="edge18_Node000011_Node000003" class="edge">
<title>Node11&#45;&gt;Node3</title>
<g id="a_edge18_Node000011_Node000003"><a xlink:title=" ">
<path fill="none" stroke="#63b8ff" d="M395.01,-167.53C373.03,-154.69 332.36,-131.15 297.12,-112 277.82,-101.51 255.85,-90.15 238.81,-81.47"/>
<polygon fill="#63b8ff" stroke="#63b8ff" points="240.76,-78.53 230.26,-77.12 237.59,-84.77 240.76,-78.53"/>
</a>
</g>
</g>
<!-- Node11&#45;&gt;Node7 -->
<g id="edge16_Node000011_Node000007" class="edge">
<title>Node11&#45;&gt;Node7</title>
<g id="a_edge16_Node000011_Node000007"><a xlink:title=" ">
<path fill="none" stroke="#63b8ff" d="M385.35,-167.59C361.32,-158.83 325.3,-145.68 298.58,-135.93"/>
<polygon fill="#63b8ff" stroke="#63b8ff" points="300.13,-132.78 289.54,-132.64 297.73,-139.35 300.13,-132.78"/>
</a>
</g>
</g>
<!-- Node11&#45;&gt;Node9 -->
<g id="edge15_Node000011_Node000009" class="edge">
<title>Node11&#45;&gt;Node9</title>
<g id="a_edge15_Node000011_Node000009"><a xlink:title=" ">
<path fill="none" stroke="#63b8ff" d="M399.52,-167.84C385.68,-155.71 365.31,-133.36 373.12,-112 376.91,-101.65 384.25,-92.03 391.47,-84.37"/>
<polygon fill="#63b8ff" stroke="#63b8ff" points="393.9,-86.9 398.6,-77.41 389,-81.89 393.9,-86.9"/>
</a>
</g>
</g>
<!-- Node11&#45;&gt;Node10 -->
<g id="edge17_Node000011_Node000010" class="edge">
<title>Node11&#45;&gt;Node10</title>
<g id="a_edge17_Node000011_Node000010"><a xlink:title=" ">
<path fill="none" stroke="#63b8ff" d="M440.48,-172.79C466.27,-167.57 503.04,-156.21 525.12,-132 536.28,-119.77 540.91,-101.34 542.82,-87.22"/>
<polygon fill="#63b8ff" stroke="#63b8ff" points="546.26,-87.99 543.75,-77.7 539.3,-87.31 546.26,-87.99"/>
</a>
</g>
</g>
<!-- Node12 -->
<g id="Node000012" class="node">
<title>Node12</title>
<g id="a_Node000012"><a xlink:title=" ">
<polygon fill="#e0e0e0" stroke="#999999" points="516.5,-132 457.75,-132 457.75,-112 516.5,-112 516.5,-132"/>
<text text-anchor="middle" x="487.12" y="-118.5" font-family="Helvetica,sans-Serif" font-size="10.00">ncurses.h</text>
</a>
</g>
</g>
<!-- Node11&#45;&gt;Node12 -->
<g id="edge14_Node000011_Node000012" class="edge">
<title>Node11&#45;&gt;Node12</title>
<g id="a_edge14_Node000011_Node000012"><a xlink:title=" ">
<path fill="none" stroke="#63b8ff" d="M424.36,-167.59C435.41,-159.74 451.41,-148.38 464.48,-139.09"/>
<polygon fill="#63b8ff" stroke="#63b8ff" points="466.43,-142 472.55,-133.36 462.37,-136.3 466.43,-142"/>
</a>
</g>
</g>
<!-- Node13 -->
<g id="Node000013" class="node">
<title>Node13</title>
<g id="a_Node000013"><a xlink:href="Helpers_8h.html" target="_top" xlink:title=" ">
<polygon fill="white" stroke="#666666" points="440.12,-132 382.12,-132 382.12,-112 440.12,-112 440.12,-132"/>
<text text-anchor="middle" x="411.12" y="-118.5" font-family="Helvetica,sans-Serif" font-size="10.00">Helpers.h</text>
</a>
</g>
</g>
<!-- Node11&#45;&gt;Node13 -->
<g id="edge19_Node000011_Node000013" class="edge">
<title>Node11&#45;&gt;Node13</title>
<g id="a_edge19_Node000011_Node000013"><a xlink:title=" ">
<path fill="none" stroke="#63b8ff" d="M411.12,-167.59C411.12,-161.01 411.12,-151.96 411.12,-143.73"/>
<polygon fill="#63b8ff" stroke="#63b8ff" points="414.63,-143.81 411.13,-133.81 407.63,-143.81 414.63,-143.81"/>
</a>
</g>
</g>
<!-- Node13&#45;&gt;Node3 -->
<g id="edge20_Node000013_Node000003" class="edge">
<title>Node13&#45;&gt;Node3</title>
<g id="a_edge20_Node000013_Node000003"><a xlink:title=" ">
<path fill="none" stroke="#63b8ff" d="M381.9,-113.15C346.82,-103.72 287.87,-87.89 248.98,-77.44"/>
<polygon fill="#63b8ff" stroke="#63b8ff" points="250.12,-74.12 239.55,-74.91 248.3,-80.88 250.12,-74.12"/>
</a>
</g>
</g>
<!-- Node13&#45;&gt;Node9 -->
<g id="edge21_Node000013_Node000009" class="edge">
<title>Node13&#45;&gt;Node9</title>
<g id="a_edge21_Node000013_Node000009"><a xlink:title=" ">
<path fill="none" stroke="#63b8ff" d="M411.12,-111.59C411.12,-105.01 411.12,-95.96 411.12,-87.73"/>
<polygon fill="#63b8ff" stroke="#63b8ff" points="414.63,-87.81 411.13,-77.81 407.63,-87.81 414.63,-87.81"/>
</a>
</g>
</g>
<!-- Node13&#45;&gt;Node10 -->
<g id="edge22_Node000013_Node000010" class="edge">
<title>Node13&#45;&gt;Node10</title>
<g id="a_edge22_Node000013_Node000010"><a xlink:title=" ">
<path fill="none" stroke="#63b8ff" d="M434.29,-111.59C455.85,-102.84 488.16,-89.72 512.17,-79.97"/>
<polygon fill="#63b8ff" stroke="#63b8ff" points="513.19,-83.34 521.14,-76.33 510.56,-76.85 513.19,-83.34"/>
</a>
</g>
</g>
</g>
</svg>
