<?xml version="1.0" encoding="UTF-8" standalone="no"?>
<!DOCTYPE svg PUBLIC "-//W3C//DTD SVG 1.1//EN"
 "http://www.w3.org/Graphics/SVG/1.1/DTD/svg11.dtd">
<!-- Generated by graphviz version 10.0.1 (0)
 -->
<!-- Title: src/MovingObject.h Pages: 1 -->
<svg width="1149pt" height="308pt"
 viewBox="0.00 0.00 1149.33 308.00" xmlns="http://www.w3.org/2000/svg" xmlns:xlink="http://www.w3.org/1999/xlink">
<g id="graph0" class="graph" transform="scale(1 1) rotate(0) translate(4 304)">
<title>src/MovingObject.h</title>
<!-- Node1 -->
<g id="Node000001" class="node">
<title>Node1</title>
<g id="a_Node000001"><a xlink:title="Base class for all moving objects.">
<polygon fill="#999999" stroke="#666666" points="736.95,-300 636.2,-300 636.2,-280 736.95,-280 736.95,-300"/>
<text text-anchor="middle" x="686.58" y="-286.5" font-family="Helvetica,sans-Serif" font-size="10.00">src/MovingObject.h</text>
</a>
</g>
</g>
<!-- Node2 -->
<g id="Node000002" class="node">
<title>Node2</title>
<g id="a_Node000002"><a xlink:href="EnemyBehavior_8h.html" target="_top" xlink:title="Base class for all enemy behaviors.">
<polygon fill="white" stroke="#666666" points="403.08,-244 294.08,-244 294.08,-224 403.08,-224 403.08,-244"/>
<text text-anchor="middle" x="348.58" y="-230.5" font-family="Helvetica,sans-Serif" font-size="10.00">src/EnemyBehavior.h</text>
</a>
</g>
</g>
<!-- Node1&#45;&gt;Node2 -->
<g id="edge1_Node000001_Node000002" class="edge">
<title>Node1&#45;&gt;Node2</title>
<g id="a_edge1_Node000001_Node000002"><a xlink:title=" ">
<path fill="none" stroke="#63b8ff" d="M624.97,-279.16C561.7,-269.05 464.15,-253.46 403.46,-243.77"/>
<polygon fill="#63b8ff" stroke="#63b8ff" points="624.06,-282.56 634.48,-280.68 625.16,-275.64 624.06,-282.56"/>
</a>
</g>
</g>
<!-- Node10 -->
<g id="Node000010" class="node">
<title>Node10</title>
<g id="a_Node000010"><a xlink:href="Ghost_8h.html" target="_top" xlink:title="Represents a ghost enemy.">
<polygon fill="white" stroke="#666666" points="629.08,-188 562.08,-188 562.08,-168 629.08,-168 629.08,-188"/>
<text text-anchor="middle" x="595.58" y="-174.5" font-family="Helvetica,sans-Serif" font-size="10.00">src/Ghost.h</text>
</a>
</g>
</g>
<!-- Node1&#45;&gt;Node10 -->
<g id="edge21_Node000001_Node000010" class="edge">
<title>Node1&#45;&gt;Node10</title>
<g id="a_edge21_Node000001_Node000010"><a xlink:title=" ">
<path fill="none" stroke="#63b8ff" d="M669,-271.64C661,-263.48 651.55,-253.47 643.58,-244 627.5,-224.89 610.58,-200.93 601.75,-188.1"/>
<polygon fill="#63b8ff" stroke="#63b8ff" points="666.39,-273.98 675.92,-278.6 671.35,-269.04 666.39,-273.98"/>
</a>
</g>
</g>
<!-- Node17 -->
<g id="Node000017" class="node">
<title>Node17</title>
<g id="a_Node000017"><a xlink:href="InteractiveObject_8h.html" target="_top" xlink:title="Base class for all interactive objects.">
<polygon fill="white" stroke="#666666" points="897.08,-188 782.08,-188 782.08,-168 897.08,-168 897.08,-188"/>
<text text-anchor="middle" x="839.58" y="-174.5" font-family="Helvetica,sans-Serif" font-size="10.00">src/InteractiveObject.h</text>
</a>
</g>
</g>
<!-- Node1&#45;&gt;Node17 -->
<g id="edge22_Node000001_Node000017" class="edge">
<title>Node1&#45;&gt;Node17</title>
<g id="a_edge22_Node000001_Node000017"><a xlink:title=" ">
<path fill="none" stroke="#63b8ff" d="M706.06,-272.29C722.16,-258.75 745.83,-239.44 767.58,-224 786.09,-210.86 808.38,-197.24 823.21,-188.48"/>
<polygon fill="#63b8ff" stroke="#63b8ff" points="704.04,-269.41 698.68,-278.55 708.57,-274.75 704.04,-269.41"/>
</a>
</g>
</g>
<!-- Node27 -->
<g id="Node000027" class="node">
<title>Node27</title>
<g id="a_Node000027"><a xlink:href="MovingObject_8cpp.html" target="_top" xlink:title="Base class for all moving objects.">
<polygon fill="white" stroke="#666666" points="888.2,-244 776.95,-244 776.95,-224 888.2,-224 888.2,-244"/>
<text text-anchor="middle" x="832.58" y="-230.5" font-family="Helvetica,sans-Serif" font-size="10.00">src/MovingObject.cpp</text>
</a>
</g>
</g>
<!-- Node1&#45;&gt;Node27 -->
<g id="edge37_Node000001_Node000027" class="edge">
<title>Node1&#45;&gt;Node27</title>
<g id="a_edge37_Node000001_Node000027"><a xlink:title=" ">
<path fill="none" stroke="#63b8ff" d="M722.64,-275.66C748.81,-265.98 783.58,-253.12 806.95,-244.48"/>
<polygon fill="#63b8ff" stroke="#63b8ff" points="721.59,-272.32 713.43,-279.07 724.02,-278.88 721.59,-272.32"/>
</a>
</g>
</g>
<!-- Node28 -->
<g id="Node000028" class="node">
<title>Node28</title>
<g id="a_Node000028"><a xlink:href="Player_8h.html" target="_top" xlink:title="Represents a player.">
<polygon fill="white" stroke="#666666" points="720.45,-244 652.7,-244 652.7,-224 720.45,-224 720.45,-244"/>
<text text-anchor="middle" x="686.58" y="-230.5" font-family="Helvetica,sans-Serif" font-size="10.00">src/Player.h</text>
</a>
</g>
</g>
<!-- Node1&#45;&gt;Node28 -->
<g id="edge38_Node000001_Node000028" class="edge">
<title>Node1&#45;&gt;Node28</title>
<g id="a_edge38_Node000001_Node000028"><a xlink:title=" ">
<path fill="none" stroke="#63b8ff" d="M686.58,-268.13C686.58,-259.9 686.58,-250.85 686.58,-244.3"/>
<polygon fill="#63b8ff" stroke="#63b8ff" points="683.08,-268.08 686.58,-278.08 690.08,-268.08 683.08,-268.08"/>
</a>
</g>
</g>
<!-- Node3 -->
<g id="Node000003" class="node">
<title>Node3</title>
<g id="a_Node000003"><a xlink:href="ChaseBehavior_8h.html" target="_top" xlink:title="Class for handling the chase behavior of ghosts.">
<polygon fill="white" stroke="#666666" points="401.95,-188 295.2,-188 295.2,-168 401.95,-168 401.95,-188"/>
<text text-anchor="middle" x="348.58" y="-174.5" font-family="Helvetica,sans-Serif" font-size="10.00">src/ChaseBehavior.h</text>
</a>
</g>
</g>
<!-- Node2&#45;&gt;Node3 -->
<g id="edge2_Node000002_Node000003" class="edge">
<title>Node2&#45;&gt;Node3</title>
<g id="a_edge2_Node000002_Node000003"><a xlink:title=" ">
<path fill="none" stroke="#63b8ff" d="M348.58,-212.13C348.58,-203.9 348.58,-194.85 348.58,-188.3"/>
<polygon fill="#63b8ff" stroke="#63b8ff" points="345.08,-212.08 348.58,-222.08 352.08,-212.08 345.08,-212.08"/>
</a>
</g>
</g>
<!-- Node6 -->
<g id="Node000006" class="node">
<title>Node6</title>
<g id="a_Node000006"><a xlink:href="EnemyBehavior_8cpp.html" target="_top" xlink:title="Base class for all enemy behaviors.">
<polygon fill="white" stroke="#666666" points="277.33,-188 157.83,-188 157.83,-168 277.33,-168 277.33,-188"/>
<text text-anchor="middle" x="217.58" y="-174.5" font-family="Helvetica,sans-Serif" font-size="10.00">src/EnemyBehavior.cpp</text>
</a>
</g>
</g>
<!-- Node2&#45;&gt;Node6 -->
<g id="edge5_Node000002_Node000006" class="edge">
<title>Node2&#45;&gt;Node6</title>
<g id="a_edge5_Node000002_Node000006"><a xlink:title=" ">
<path fill="none" stroke="#63b8ff" d="M315.27,-219.27C291.91,-209.64 261.26,-197.01 240.58,-188.48"/>
<polygon fill="#63b8ff" stroke="#63b8ff" points="313.78,-222.44 324.36,-223.02 316.45,-215.97 313.78,-222.44"/>
</a>
</g>
</g>
<!-- Node7 -->
<g id="Node000007" class="node">
<title>Node7</title>
<g id="a_Node000007"><a xlink:href="FrightenedBehavior_8h.html" target="_top" xlink:title="Class representing a frightened ghost behavior.">
<polygon fill="white" stroke="#666666" points="543.58,-188 419.58,-188 419.58,-168 543.58,-168 543.58,-188"/>
<text text-anchor="middle" x="481.58" y="-174.5" font-family="Helvetica,sans-Serif" font-size="10.00">src/FrightenedBehavior.h</text>
</a>
</g>
</g>
<!-- Node2&#45;&gt;Node7 -->
<g id="edge6_Node000002_Node000007" class="edge">
<title>Node2&#45;&gt;Node7</title>
<g id="a_edge6_Node000002_Node000007"><a xlink:title=" ">
<path fill="none" stroke="#63b8ff" d="M382.39,-219.27C406.12,-209.64 437.23,-197.01 458.23,-188.48"/>
<polygon fill="#63b8ff" stroke="#63b8ff" points="381.1,-216.02 373.15,-223.02 383.73,-222.51 381.1,-216.02"/>
</a>
</g>
</g>
<!-- Node9 -->
<g id="Node000009" class="node">
<title>Node9</title>
<g id="a_Node000009"><a xlink:href="Game_8cpp.html" target="_top" xlink:title="Class for handling the game logic.">
<polygon fill="white" stroke="#666666" points="700.33,-76 622.83,-76 622.83,-56 700.33,-56 700.33,-76"/>
<text text-anchor="middle" x="661.58" y="-62.5" font-family="Helvetica,sans-Serif" font-size="10.00">src/Game.cpp</text>
</a>
</g>
</g>
<!-- Node2&#45;&gt;Node9 -->
<g id="edge9_Node000002_Node000009" class="edge">
<title>Node2&#45;&gt;Node9</title>
<g id="a_edge9_Node000002_Node000009"><a xlink:title=" ">
<path fill="none" stroke="#63b8ff" d="M282.26,-233.28C196.9,-232.12 55.42,-224.53 20.58,-188 -2.78,-163.5 -7.63,-136.64 15.58,-112 61.21,-63.54 547.51,-84.15 613.58,-76 616.44,-75.65 619.39,-75.23 622.35,-74.77"/>
<polygon fill="#63b8ff" stroke="#63b8ff" points="282.11,-236.78 292.14,-233.39 282.18,-229.78 282.11,-236.78"/>
</a>
</g>
</g>
<!-- Node2&#45;&gt;Node10 -->
<g id="edge10_Node000002_Node000010" class="edge">
<title>Node2&#45;&gt;Node10</title>
<g id="a_edge10_Node000002_Node000010"><a xlink:title=" ">
<path fill="none" stroke="#63b8ff" d="M403.12,-221.08C451.62,-210.47 520.99,-195.31 561.85,-186.37"/>
<polygon fill="#63b8ff" stroke="#63b8ff" points="402.39,-217.65 393.36,-223.21 403.88,-224.49 402.39,-217.65"/>
</a>
</g>
</g>
<!-- Node15 -->
<g id="Node000015" class="node">
<title>Node15</title>
<g id="a_Node000015"><a xlink:href="ScatterBehavior_8h.html" target="_top" xlink:title="Class for the scatter behavior of the ghosts.">
<polygon fill="white" stroke="#666666" points="139.45,-188 29.7,-188 29.7,-168 139.45,-168 139.45,-188"/>
<text text-anchor="middle" x="84.58" y="-174.5" font-family="Helvetica,sans-Serif" font-size="10.00">src/ScatterBehavior.h</text>
</a>
</g>
</g>
<!-- Node2&#45;&gt;Node15 -->
<g id="edge17_Node000002_Node000015" class="edge">
<title>Node2&#45;&gt;Node15</title>
<g id="a_edge17_Node000002_Node000015"><a xlink:title=" ">
<path fill="none" stroke="#63b8ff" d="M291.14,-221.25C243.09,-211.42 175.43,-197.58 130.81,-188.46"/>
<polygon fill="#63b8ff" stroke="#63b8ff" points="290.31,-224.65 300.81,-223.23 291.71,-217.8 290.31,-224.65"/>
</a>
</g>
</g>
<!-- Node4 -->
<g id="Node000004" class="node">
<title>Node4</title>
<g id="a_Node000004"><a xlink:href="ChaseBehavior_8cpp.html" target="_top" xlink:title="Class for handling the chase behavior of ghosts.">
<polygon fill="white" stroke="#666666" points="318.2,-132 200.95,-132 200.95,-112 318.2,-112 318.2,-132"/>
<text text-anchor="middle" x="259.58" y="-118.5" font-family="Helvetica,sans-Serif" font-size="10.00">src/ChaseBehavior.cpp</text>
</a>
</g>
</g>
<!-- Node3&#45;&gt;Node4 -->
<g id="edge3_Node000003_Node000004" class="edge">
<title>Node3&#45;&gt;Node4</title>
<g id="a_edge3_Node000003_Node000004"><a xlink:title=" ">
<path fill="none" stroke="#63b8ff" d="M323.55,-161.81C308.02,-152.39 288.56,-140.58 275.2,-132.48"/>
<polygon fill="#63b8ff" stroke="#63b8ff" points="321.42,-164.61 331.78,-166.81 325.05,-158.63 321.42,-164.61"/>
</a>
</g>
</g>
<!-- Node5 -->
<g id="Node000005" class="node">
<title>Node5</title>
<g id="a_Node000005"><a xlink:href="Ghost_8cpp.html" target="_top" xlink:title="Represents a ghost enemy.">
<polygon fill="white" stroke="#666666" points="413.33,-132 335.83,-132 335.83,-112 413.33,-112 413.33,-132"/>
<text text-anchor="middle" x="374.58" y="-118.5" font-family="Helvetica,sans-Serif" font-size="10.00">src/Ghost.cpp</text>
</a>
</g>
</g>
<!-- Node3&#45;&gt;Node5 -->
<g id="edge4_Node000003_Node000005" class="edge">
<title>Node3&#45;&gt;Node5</title>
<g id="a_edge4_Node000003_Node000005"><a xlink:title=" ">
<path fill="none" stroke="#63b8ff" d="M358.07,-157.29C362.18,-148.75 366.8,-139.16 370.1,-132.3"/>
<polygon fill="#63b8ff" stroke="#63b8ff" points="354.95,-155.7 353.76,-166.23 361.26,-158.74 354.95,-155.7"/>
</a>
</g>
</g>
<!-- Node7&#45;&gt;Node5 -->
<g id="edge8_Node000007_Node000005" class="edge">
<title>Node7&#45;&gt;Node5</title>
<g id="a_edge8_Node000007_Node000005"><a xlink:title=" ">
<path fill="none" stroke="#63b8ff" d="M452.81,-162.48C433.94,-152.96 409.8,-140.78 393.36,-132.48"/>
<polygon fill="#63b8ff" stroke="#63b8ff" points="451.08,-165.53 461.59,-166.91 454.24,-159.28 451.08,-165.53"/>
</a>
</g>
</g>
<!-- Node8 -->
<g id="Node000008" class="node">
<title>Node8</title>
<g id="a_Node000008"><a xlink:href="FrightenedBehavior_8cpp.html" target="_top" xlink:title="Class representing a frightened ghost behavior.">
<polygon fill="white" stroke="#666666" points="565.83,-132 431.33,-132 431.33,-112 565.83,-112 565.83,-132"/>
<text text-anchor="middle" x="498.58" y="-118.5" font-family="Helvetica,sans-Serif" font-size="10.00">src/FrightenedBehavior.cpp</text>
</a>
</g>
</g>
<!-- Node7&#45;&gt;Node8 -->
<g id="edge7_Node000007_Node000008" class="edge">
<title>Node7&#45;&gt;Node8</title>
<g id="a_edge7_Node000007_Node000008"><a xlink:title=" ">
<path fill="none" stroke="#63b8ff" d="M487.96,-156.71C490.61,-148.32 493.54,-139.01 495.65,-132.3"/>
<polygon fill="#63b8ff" stroke="#63b8ff" points="484.66,-155.56 484.99,-166.15 491.34,-157.66 484.66,-155.56"/>
</a>
</g>
</g>
<!-- Node10&#45;&gt;Node5 -->
<g id="edge16_Node000010_Node000005" class="edge">
<title>Node10&#45;&gt;Node5</title>
<g id="a_edge16_Node000010_Node000005"><a xlink:title=" ">
<path fill="none" stroke="#63b8ff" d="M550.89,-166.08C510.52,-156.22 451.72,-141.85 413.31,-132.46"/>
<polygon fill="#63b8ff" stroke="#63b8ff" points="550,-169.47 560.54,-168.44 551.66,-162.67 550,-169.47"/>
</a>
</g>
</g>
<!-- Node11 -->
<g id="Node000011" class="node">
<title>Node11</title>
<g id="a_Node000011"><a xlink:href="Game_8h.html" target="_top" xlink:title="Class for handling the game logic.">
<polygon fill="white" stroke="#666666" points="651.08,-132 584.08,-132 584.08,-112 651.08,-112 651.08,-132"/>
<text text-anchor="middle" x="617.58" y="-118.5" font-family="Helvetica,sans-Serif" font-size="10.00">src/Game.h</text>
</a>
</g>
</g>
<!-- Node10&#45;&gt;Node11 -->
<g id="edge11_Node000010_Node000011" class="edge">
<title>Node10&#45;&gt;Node11</title>
<g id="a_edge11_Node000010_Node000011"><a xlink:title=" ">
<path fill="none" stroke="#63b8ff" d="M603.73,-157C607.17,-148.54 611.03,-139.08 613.79,-132.3"/>
<polygon fill="#63b8ff" stroke="#63b8ff" points="600.51,-155.61 599.98,-166.19 607,-158.25 600.51,-155.61"/>
</a>
</g>
</g>
<!-- Node11&#45;&gt;Node9 -->
<g id="edge12_Node000011_Node000009" class="edge">
<title>Node11&#45;&gt;Node9</title>
<g id="a_edge12_Node000011_Node000009"><a xlink:title=" ">
<path fill="none" stroke="#63b8ff" d="M632.47,-102.72C639.71,-93.84 648.1,-83.55 654,-76.3"/>
<polygon fill="#63b8ff" stroke="#63b8ff" points="629.8,-100.46 626.2,-110.42 635.23,-104.88 629.8,-100.46"/>
</a>
</g>
</g>
<!-- Node12 -->
<g id="Node000012" class="node">
<title>Node12</title>
<g id="a_Node000012"><a xlink:href="GameManager_8h.html" target="_top" xlink:title="Handles the game loop and game states.">
<polygon fill="white" stroke="#666666" points="604.45,-76 500.7,-76 500.7,-56 604.45,-56 604.45,-76"/>
<text text-anchor="middle" x="552.58" y="-62.5" font-family="Helvetica,sans-Serif" font-size="10.00">src/GameManager.h</text>
</a>
</g>
</g>
<!-- Node11&#45;&gt;Node12 -->
<g id="edge13_Node000011_Node000012" class="edge">
<title>Node11&#45;&gt;Node12</title>
<g id="a_edge13_Node000011_Node000012"><a xlink:title=" ">
<path fill="none" stroke="#63b8ff" d="M597.6,-104.4C586.48,-95.17 573.05,-84.01 563.77,-76.3"/>
<polygon fill="#63b8ff" stroke="#63b8ff" points="595.16,-106.93 605.09,-110.63 599.64,-101.54 595.16,-106.93"/>
</a>
</g>
</g>
<!-- Node13 -->
<g id="Node000013" class="node">
<title>Node13</title>
<g id="a_Node000013"><a xlink:href="GameManager_8cpp.html" target="_top" xlink:title="Handles the game loop and game states.">
<polygon fill="white" stroke="#666666" points="554.7,-20 440.45,-20 440.45,0 554.7,0 554.7,-20"/>
<text text-anchor="middle" x="497.58" y="-6.5" font-family="Helvetica,sans-Serif" font-size="10.00">src/GameManager.cpp</text>
</a>
</g>
</g>
<!-- Node12&#45;&gt;Node13 -->
<g id="edge14_Node000012_Node000013" class="edge">
<title>Node12&#45;&gt;Node13</title>
<g id="a_edge14_Node000012_Node000013"><a xlink:title=" ">
<path fill="none" stroke="#63b8ff" d="M534.82,-47.57C525.59,-38.5 514.67,-27.78 507.05,-20.3"/>
<polygon fill="#63b8ff" stroke="#63b8ff" points="532.33,-50.03 541.92,-54.53 537.23,-45.03 532.33,-50.03"/>
</a>
</g>
</g>
<!-- Node14 -->
<g id="Node000014" class="node">
<title>Node14</title>
<g id="a_Node000014"><a xlink:href="main_8cpp.html" target="_top" xlink:title="Main function, initializes the game manager.">
<polygon fill="white" stroke="#666666" points="644.7,-20 572.45,-20 572.45,0 644.7,0 644.7,-20"/>
<text text-anchor="middle" x="608.58" y="-6.5" font-family="Helvetica,sans-Serif" font-size="10.00">src/main.cpp</text>
</a>
</g>
</g>
<!-- Node12&#45;&gt;Node14 -->
<g id="edge15_Node000012_Node000014" class="edge">
<title>Node12&#45;&gt;Node14</title>
<g id="a_edge15_Node000012_Node000014"><a xlink:title=" ">
<path fill="none" stroke="#63b8ff" d="M570.37,-47.85C579.83,-38.72 591.1,-27.86 598.94,-20.3"/>
<polygon fill="#63b8ff" stroke="#63b8ff" points="568.19,-45.08 563.42,-54.54 573.05,-50.12 568.19,-45.08"/>
</a>
</g>
</g>
<!-- Node15&#45;&gt;Node5 -->
<g id="edge19_Node000015_Node000005" class="edge">
<title>Node15&#45;&gt;Node5</title>
<g id="a_edge19_Node000015_Node000005"><a xlink:title=" ">
<path fill="none" stroke="#63b8ff" d="M147.34,-165.49C196.42,-156.46 266.36,-143.53 327.58,-132 330.11,-131.52 332.72,-131.03 335.34,-130.53"/>
<polygon fill="#63b8ff" stroke="#63b8ff" points="146.96,-162 137.75,-167.25 148.22,-168.88 146.96,-162"/>
</a>
</g>
</g>
<!-- Node15&#45;&gt;Node9 -->
<g id="edge18_Node000015_Node000009" class="edge">
<title>Node15&#45;&gt;Node9</title>
<g id="a_edge18_Node000015_Node000009"><a xlink:title=" ">
<path fill="none" stroke="#63b8ff" d="M108.39,-161.74C137.11,-143.46 182.66,-114.91 191.58,-112 370.52,-53.59 427.06,-101.38 613.58,-76 616.44,-75.61 619.38,-75.17 622.34,-74.69"/>
<polygon fill="#63b8ff" stroke="#63b8ff" points="106.84,-158.57 100.29,-166.9 110.61,-164.48 106.84,-158.57"/>
</a>
</g>
</g>
<!-- Node16 -->
<g id="Node000016" class="node">
<title>Node16</title>
<g id="a_Node000016"><a xlink:href="ScatterBehavior_8cpp.html" target="_top" xlink:title="Class for the scatter behavior of the ghosts.">
<polygon fill="white" stroke="#666666" points="144.7,-132 24.45,-132 24.45,-112 144.7,-112 144.7,-132"/>
<text text-anchor="middle" x="84.58" y="-118.5" font-family="Helvetica,sans-Serif" font-size="10.00">src/ScatterBehavior.cpp</text>
</a>
</g>
</g>
<!-- Node15&#45;&gt;Node16 -->
<g id="edge20_Node000015_Node000016" class="edge">
<title>Node15&#45;&gt;Node16</title>
<g id="a_edge20_Node000015_Node000016"><a xlink:title=" ">
<path fill="none" stroke="#63b8ff" d="M84.58,-156.13C84.58,-147.9 84.58,-138.85 84.58,-132.3"/>
<polygon fill="#63b8ff" stroke="#63b8ff" points="81.08,-156.08 84.58,-166.08 88.08,-156.08 81.08,-156.08"/>
</a>
</g>
</g>
<!-- Node17&#45;&gt;Node11 -->
<g id="edge29_Node000017_Node000011" class="edge">
<title>Node17&#45;&gt;Node11</title>
<g id="a_edge29_Node000017_Node000011"><a xlink:title=" ">
<path fill="none" stroke="#63b8ff" d="M789.51,-164.82C747.33,-154.56 688.14,-140.16 651.37,-131.22"/>
<polygon fill="#63b8ff" stroke="#63b8ff" points="788.64,-168.21 799.18,-167.17 790.3,-161.41 788.64,-168.21"/>
</a>
</g>
</g>
<!-- Node18 -->
<g id="Node000018" class="node">
<title>Node18</title>
<g id="a_Node000018"><a xlink:href="Cherry_8h.html" target="_top" xlink:title="Class representing a cherry collectible.">
<polygon fill="white" stroke="#666666" points="1051.83,-132 983.33,-132 983.33,-112 1051.83,-112 1051.83,-132"/>
<text text-anchor="middle" x="1017.58" y="-118.5" font-family="Helvetica,sans-Serif" font-size="10.00">src/Cherry.h</text>
</a>
</g>
</g>
<!-- Node17&#45;&gt;Node18 -->
<g id="edge23_Node000017_Node000018" class="edge">
<title>Node17&#45;&gt;Node18</title>
<g id="a_edge23_Node000017_Node000018"><a xlink:title=" ">
<path fill="none" stroke="#63b8ff" d="M881.42,-164.31C913.55,-154.56 957.2,-141.32 986.33,-132.48"/>
<polygon fill="#63b8ff" stroke="#63b8ff" points="880.59,-160.9 872.03,-167.15 882.62,-167.6 880.59,-160.9"/>
</a>
</g>
</g>
<!-- Node20 -->
<g id="Node000020" class="node">
<title>Node20</title>
<g id="a_Node000020"><a xlink:href="Coin_8h.html" target="_top" xlink:title="Class representing a coin collectible.">
<polygon fill="white" stroke="#666666" points="1131.08,-132 1070.08,-132 1070.08,-112 1131.08,-112 1131.08,-132"/>
<text text-anchor="middle" x="1100.58" y="-118.5" font-family="Helvetica,sans-Serif" font-size="10.00">src/Coin.h</text>
</a>
</g>
</g>
<!-- Node17&#45;&gt;Node20 -->
<g id="edge26_Node000017_Node000020" class="edge">
<title>Node17&#45;&gt;Node20</title>
<g id="a_edge26_Node000017_Node000020"><a xlink:title=" ">
<path fill="none" stroke="#63b8ff" d="M898.7,-165.3C943.25,-156.41 1005.81,-143.74 1060.58,-132 1063.5,-131.37 1066.54,-130.71 1069.58,-130.04"/>
<polygon fill="#63b8ff" stroke="#63b8ff" points="898.1,-161.85 888.97,-167.24 899.47,-168.72 898.1,-161.85"/>
</a>
</g>
</g>
<!-- Node22 -->
<g id="Node000022" class="node">
<title>Node22</title>
<g id="a_Node000022"><a xlink:href="InteractiveObject_8cpp.html" target="_top" xlink:title="Base class for all interactive objects.">
<polygon fill="white" stroke="#666666" points="965.33,-132 839.83,-132 839.83,-112 965.33,-112 965.33,-132"/>
<text text-anchor="middle" x="902.58" y="-118.5" font-family="Helvetica,sans-Serif" font-size="10.00">src/InteractiveObject.cpp</text>
</a>
</g>
</g>
<!-- Node17&#45;&gt;Node22 -->
<g id="edge30_Node000017_Node000022" class="edge">
<title>Node17&#45;&gt;Node22</title>
<g id="a_edge30_Node000017_Node000022"><a xlink:title=" ">
<path fill="none" stroke="#63b8ff" d="M859.27,-160.13C869.98,-150.94 882.82,-139.93 891.73,-132.3"/>
<polygon fill="#63b8ff" stroke="#63b8ff" points="857.02,-157.44 851.7,-166.61 861.57,-162.76 857.02,-157.44"/>
</a>
</g>
</g>
<!-- Node23 -->
<g id="Node000023" class="node">
<title>Node23</title>
<g id="a_Node000023"><a xlink:href="Teleport_8h.html" target="_top" xlink:title="Represents a teleport object.">
<polygon fill="white" stroke="#666666" points="744.2,-132 668.95,-132 668.95,-112 744.2,-112 744.2,-132"/>
<text text-anchor="middle" x="706.58" y="-118.5" font-family="Helvetica,sans-Serif" font-size="10.00">src/Teleport.h</text>
</a>
</g>
</g>
<!-- Node17&#45;&gt;Node23 -->
<g id="edge31_Node000017_Node000023" class="edge">
<title>Node17&#45;&gt;Node23</title>
<g id="a_edge31_Node000017_Node000023"><a xlink:title=" ">
<path fill="none" stroke="#63b8ff" d="M805.77,-163.27C782.04,-153.64 750.93,-141.01 729.93,-132.48"/>
<polygon fill="#63b8ff" stroke="#63b8ff" points="804.43,-166.51 815.01,-167.02 807.06,-160.02 804.43,-166.51"/>
</a>
</g>
</g>
<!-- Node25 -->
<g id="Node000025" class="node">
<title>Node25</title>
<g id="a_Node000025"><a xlink:href="Wall_8h.html" target="_top" xlink:title="Represents a wall object.">
<polygon fill="white" stroke="#666666" points="821.33,-132 761.83,-132 761.83,-112 821.33,-112 821.33,-132"/>
<text text-anchor="middle" x="791.58" y="-118.5" font-family="Helvetica,sans-Serif" font-size="10.00">src/Wall.h</text>
</a>
</g>
</g>
<!-- Node17&#45;&gt;Node25 -->
<g id="edge34_Node000017_Node000025" class="edge">
<title>Node17&#45;&gt;Node25</title>
<g id="a_edge34_Node000017_Node000025"><a xlink:title=" ">
<path fill="none" stroke="#63b8ff" d="M823.58,-159C815.63,-150.06 806.36,-139.62 799.84,-132.3"/>
<polygon fill="#63b8ff" stroke="#63b8ff" points="820.95,-161.31 830.21,-166.46 826.18,-156.66 820.95,-161.31"/>
</a>
</g>
</g>
<!-- Node18&#45;&gt;Node9 -->
<g id="edge25_Node000018_Node000009" class="edge">
<title>Node18&#45;&gt;Node9</title>
<g id="a_edge25_Node000018_Node000009"><a xlink:title=" ">
<path fill="none" stroke="#63b8ff" d="M971.75,-111.61C855.52,-91.98 823.36,-94.38 709.58,-76 706.65,-75.53 703.62,-75.01 700.58,-74.48"/>
<polygon fill="#63b8ff" stroke="#63b8ff" points="970.95,-115.03 981.39,-113.26 972.13,-108.13 970.95,-115.03"/>
</a>
</g>
</g>
<!-- Node19 -->
<g id="Node000019" class="node">
<title>Node19</title>
<g id="a_Node000019"><a xlink:href="Cherry_8cpp.html" target="_top" xlink:title="Class representing a cherry collectible.">
<polygon fill="white" stroke="#666666" points="1052.08,-76 973.08,-76 973.08,-56 1052.08,-56 1052.08,-76"/>
<text text-anchor="middle" x="1012.58" y="-62.5" font-family="Helvetica,sans-Serif" font-size="10.00">src/Cherry.cpp</text>
</a>
</g>
</g>
<!-- Node18&#45;&gt;Node19 -->
<g id="edge24_Node000018_Node000019" class="edge">
<title>Node18&#45;&gt;Node19</title>
<g id="a_edge24_Node000018_Node000019"><a xlink:title=" ">
<path fill="none" stroke="#63b8ff" d="M1015.65,-100.13C1014.88,-91.9 1014.05,-82.85 1013.44,-76.3"/>
<polygon fill="#63b8ff" stroke="#63b8ff" points="1012.16,-100.45 1016.57,-110.09 1019.13,-99.81 1012.16,-100.45"/>
</a>
</g>
</g>
<!-- Node20&#45;&gt;Node9 -->
<g id="edge28_Node000020_Node000009" class="edge">
<title>Node20&#45;&gt;Node9</title>
<g id="a_edge28_Node000020_Node000009"><a xlink:title=" ">
<path fill="none" stroke="#63b8ff" d="M1058.32,-111.83C903.82,-87.27 861.14,-97.94 709.58,-76 706.73,-75.59 703.78,-75.12 700.83,-74.63"/>
<polygon fill="#63b8ff" stroke="#63b8ff" points="1057.72,-115.27 1068.15,-113.42 1058.83,-108.36 1057.72,-115.27"/>
</a>
</g>
</g>
<!-- Node21 -->
<g id="Node000021" class="node">
<title>Node21</title>
<g id="a_Node000021"><a xlink:href="Coin_8cpp.html" target="_top" xlink:title="Class representing a coin collectible.">
<polygon fill="white" stroke="#666666" points="1141.33,-76 1069.83,-76 1069.83,-56 1141.33,-56 1141.33,-76"/>
<text text-anchor="middle" x="1105.58" y="-62.5" font-family="Helvetica,sans-Serif" font-size="10.00">src/Coin.cpp</text>
</a>
</g>
</g>
<!-- Node20&#45;&gt;Node21 -->
<g id="edge27_Node000020_Node000021" class="edge">
<title>Node20&#45;&gt;Node21</title>
<g id="a_edge27_Node000020_Node000021"><a xlink:title=" ">
<path fill="none" stroke="#63b8ff" d="M1102.51,-100.13C1103.27,-91.9 1104.11,-82.85 1104.72,-76.3"/>
<polygon fill="#63b8ff" stroke="#63b8ff" points="1099.03,-99.81 1101.59,-110.09 1106,-100.45 1099.03,-99.81"/>
</a>
</g>
</g>
<!-- Node23&#45;&gt;Node9 -->
<g id="edge32_Node000023_Node000009" class="edge">
<title>Node23&#45;&gt;Node9</title>
<g id="a_edge32_Node000023_Node000009"><a xlink:title=" ">
<path fill="none" stroke="#63b8ff" d="M691.58,-103C684.13,-94.06 675.43,-83.62 669.33,-76.3"/>
<polygon fill="#63b8ff" stroke="#63b8ff" points="688.68,-104.99 697.77,-110.43 694.06,-100.51 688.68,-104.99"/>
</a>
</g>
</g>
<!-- Node24 -->
<g id="Node000024" class="node">
<title>Node24</title>
<g id="a_Node000024"><a xlink:href="Teleport_8cpp.html" target="_top" xlink:title="Represents a teleport object.">
<polygon fill="white" stroke="#666666" points="804.45,-76 718.7,-76 718.7,-56 804.45,-56 804.45,-76"/>
<text text-anchor="middle" x="761.58" y="-62.5" font-family="Helvetica,sans-Serif" font-size="10.00">src/Teleport.cpp</text>
</a>
</g>
</g>
<!-- Node23&#45;&gt;Node24 -->
<g id="edge33_Node000023_Node000024" class="edge">
<title>Node23&#45;&gt;Node24</title>
<g id="a_edge33_Node000023_Node000024"><a xlink:title=" ">
<path fill="none" stroke="#63b8ff" d="M724.33,-103.57C733.57,-94.5 744.49,-83.78 752.11,-76.3"/>
<polygon fill="#63b8ff" stroke="#63b8ff" points="721.92,-101.03 717.24,-110.53 726.83,-106.03 721.92,-101.03"/>
</a>
</g>
</g>
<!-- Node25&#45;&gt;Node9 -->
<g id="edge35_Node000025_Node000009" class="edge">
<title>Node25&#45;&gt;Node9</title>
<g id="a_edge35_Node000025_Node000009"><a xlink:title=" ">
<path fill="none" stroke="#63b8ff" d="M758.53,-107.27C735.34,-97.64 704.93,-85.01 684.4,-76.48"/>
<polygon fill="#63b8ff" stroke="#63b8ff" points="756.96,-110.41 767.54,-111.01 759.64,-103.94 756.96,-110.41"/>
</a>
</g>
</g>
<!-- Node26 -->
<g id="Node000026" class="node">
<title>Node26</title>
<g id="a_Node000026"><a xlink:href="Wall_8cpp.html" target="_top" xlink:title="Represents a wall object.">
<polygon fill="white" stroke="#666666" points="892.58,-76 822.58,-76 822.58,-56 892.58,-56 892.58,-76"/>
<text text-anchor="middle" x="857.58" y="-62.5" font-family="Helvetica,sans-Serif" font-size="10.00">src/Wall.cpp</text>
</a>
</g>
</g>
<!-- Node25&#45;&gt;Node26 -->
<g id="edge36_Node000025_Node000026" class="edge">
<title>Node25&#45;&gt;Node26</title>
<g id="a_edge36_Node000025_Node000026"><a xlink:title=" ">
<path fill="none" stroke="#63b8ff" d="M811.86,-104.4C823.15,-95.17 836.79,-84.01 846.21,-76.3"/>
<polygon fill="#63b8ff" stroke="#63b8ff" points="809.77,-101.59 804.25,-110.64 814.2,-107.01 809.77,-101.59"/>
</a>
</g>
</g>
<!-- Node28&#45;&gt;Node10 -->
<g id="edge40_Node000028_Node000010" class="edge">
<title>Node28&#45;&gt;Node10</title>
<g id="a_edge40_Node000028_Node000010"><a xlink:title=" ">
<path fill="none" stroke="#63b8ff" d="M660.98,-217.81C645.11,-208.39 625.21,-196.58 611.55,-188.48"/>
<polygon fill="#63b8ff" stroke="#63b8ff" points="659.04,-220.73 669.43,-222.82 662.61,-214.71 659.04,-220.73"/>
</a>
</g>
</g>
<!-- Node28&#45;&gt;Node11 -->
<g id="edge39_Node000028_Node000011" class="edge">
<title>Node28&#45;&gt;Node11</title>
<g id="a_edge39_Node000028_Node000011"><a xlink:title=" ">
<path fill="none" stroke="#63b8ff" d="M711.39,-217.1C728.54,-204.08 746.31,-185.07 734.58,-168 724.81,-153.78 682.29,-139.92 651.32,-131.42"/>
<polygon fill="#63b8ff" stroke="#63b8ff" points="709.5,-214.16 703.36,-222.8 713.54,-219.87 709.5,-214.16"/>
</a>
</g>
</g>
<!-- Node28&#45;&gt;Node17 -->
<g id="edge41_Node000028_Node000017" class="edge">
<title>Node28&#45;&gt;Node17</title>
<g id="a_edge41_Node000028_Node000017"><a xlink:title=" ">
<path fill="none" stroke="#63b8ff" d="M724,-219.79C751.47,-210.1 788.12,-197.16 812.72,-188.48"/>
<polygon fill="#63b8ff" stroke="#63b8ff" points="722.92,-216.46 714.66,-223.09 725.25,-223.06 722.92,-216.46"/>
</a>
</g>
</g>
<!-- Node29 -->
<g id="Node000029" class="node">
<title>Node29</title>
<g id="a_Node000029"><a xlink:href="Player_8cpp.html" target="_top" xlink:title="Represents a player.">
<polygon fill="white" stroke="#666666" points="725.7,-188 647.45,-188 647.45,-168 725.7,-168 725.7,-188"/>
<text text-anchor="middle" x="686.58" y="-174.5" font-family="Helvetica,sans-Serif" font-size="10.00">src/Player.cpp</text>
</a>
</g>
</g>
<!-- Node28&#45;&gt;Node29 -->
<g id="edge42_Node000028_Node000029" class="edge">
<title>Node28&#45;&gt;Node29</title>
<g id="a_edge42_Node000028_Node000029"><a xlink:title=" ">
<path fill="none" stroke="#63b8ff" d="M686.58,-212.13C686.58,-203.9 686.58,-194.85 686.58,-188.3"/>
<polygon fill="#63b8ff" stroke="#63b8ff" points="683.08,-212.08 686.58,-222.08 690.08,-212.08 683.08,-212.08"/>
</a>
</g>
</g>
</g>
</svg>
