<?xml version="1.0" encoding="UTF-8" standalone="no"?>
<!DOCTYPE svg PUBLIC "-//W3C//DTD SVG 1.1//EN"
 "http://www.w3.org/Graphics/SVG/1.1/DTD/svg11.dtd">
<!-- Generated by graphviz version 2.43.0 (0)
 -->
<!-- Title: src/Player.h Pages: 1 -->
<svg width="749pt" height="252pt"
 viewBox="0.00 0.00 749.00 252.00" xmlns="http://www.w3.org/2000/svg" xmlns:xlink="http://www.w3.org/1999/xlink">
<g id="graph0" class="graph" transform="scale(1 1) rotate(0) translate(4 248)">
<title>src/Player.h</title>
<polygon fill="white" stroke="transparent" points="-4,4 -4,-248 745,-248 745,4 -4,4"/>
<!-- Node1 -->
<g id="node1" class="node">
<title>Node1</title>
<g id="a_node1"><a xlink:title="Represents a player.">
<polygon fill="#bfbfbf" stroke="black" points="534.5,-224.5 534.5,-243.5 607.5,-243.5 607.5,-224.5 534.5,-224.5"/>
<text text-anchor="middle" x="571" y="-231.5" font-family="Helvetica,sans-Serif" font-size="10.00">src/Player.h</text>
</a>
</g>
</g>
<!-- Node2 -->
<g id="node2" class="node">
<title>Node2</title>
<g id="a_node2"><a xlink:href="Game_8h.html" target="_top" xlink:title="Class for handling the game logic.">
<polygon fill="white" stroke="black" points="535,-112.5 535,-131.5 607,-131.5 607,-112.5 535,-112.5"/>
<text text-anchor="middle" x="571" y="-119.5" font-family="Helvetica,sans-Serif" font-size="10.00">src/Game.h</text>
</a>
</g>
</g>
<!-- Node1&#45;&gt;Node2 -->
<g id="edge1" class="edge">
<title>Node1&#45;&gt;Node2</title>
<path fill="none" stroke="midnightblue" d="M563.94,-214.62C559.79,-201.66 555.76,-183.85 558,-168 559.82,-155.12 564.45,-140.76 567.66,-131.8"/>
<polygon fill="midnightblue" stroke="midnightblue" points="560.69,-215.95 567.32,-224.22 567.3,-213.63 560.69,-215.95"/>
</g>
<!-- Node7 -->
<g id="node7" class="node">
<title>Node7</title>
<g id="a_node7"><a xlink:href="Ghost_8h.html" target="_top" xlink:title="Represents a ghost enemy.">
<polygon fill="white" stroke="black" points="567.5,-168.5 567.5,-187.5 638.5,-187.5 638.5,-168.5 567.5,-168.5"/>
<text text-anchor="middle" x="603" y="-175.5" font-family="Helvetica,sans-Serif" font-size="10.00">src/Ghost.h</text>
</a>
</g>
</g>
<!-- Node1&#45;&gt;Node7 -->
<g id="edge6" class="edge">
<title>Node1&#45;&gt;Node7</title>
<path fill="none" stroke="midnightblue" d="M581.5,-215.27C586.97,-206.05 593.42,-195.17 597.81,-187.75"/>
<polygon fill="midnightblue" stroke="midnightblue" points="578.37,-213.7 576.28,-224.08 584.39,-217.26 578.37,-213.7"/>
</g>
<!-- Node9 -->
<g id="node9" class="node">
<title>Node9</title>
<g id="a_node9"><a xlink:href="InteractiveObject_8h.html" target="_top" xlink:title="Base class for all interactive objects.">
<polygon fill="white" stroke="black" points="292.5,-168.5 292.5,-187.5 419.5,-187.5 419.5,-168.5 292.5,-168.5"/>
<text text-anchor="middle" x="356" y="-175.5" font-family="Helvetica,sans-Serif" font-size="10.00">src/InteractiveObject.h</text>
</a>
</g>
</g>
<!-- Node1&#45;&gt;Node9 -->
<g id="edge9" class="edge">
<title>Node1&#45;&gt;Node9</title>
<path fill="none" stroke="midnightblue" d="M527.04,-221.96C486.43,-211.76 426.96,-196.82 389.91,-187.52"/>
<polygon fill="midnightblue" stroke="midnightblue" points="526.38,-225.4 536.93,-224.44 528.09,-218.61 526.38,-225.4"/>
</g>
<!-- Node19 -->
<g id="node19" class="node">
<title>Node19</title>
<g id="a_node19"><a xlink:href="Player_8cpp.html" target="_top" xlink:title="Represents a player.">
<polygon fill="white" stroke="black" points="657,-168.5 657,-187.5 741,-187.5 741,-168.5 657,-168.5"/>
<text text-anchor="middle" x="699" y="-175.5" font-family="Helvetica,sans-Serif" font-size="10.00">src/Player.cpp</text>
</a>
</g>
</g>
<!-- Node1&#45;&gt;Node19 -->
<g id="edge24" class="edge">
<title>Node1&#45;&gt;Node19</title>
<path fill="none" stroke="midnightblue" d="M600.62,-220.5C624.62,-210.38 657.78,-196.39 678.81,-187.52"/>
<polygon fill="midnightblue" stroke="midnightblue" points="599.14,-217.33 591.28,-224.44 601.86,-223.78 599.14,-217.33"/>
</g>
<!-- Node3 -->
<g id="node3" class="node">
<title>Node3</title>
<g id="a_node3"><a xlink:href="Game_8cpp.html" target="_top" xlink:title="Class for handling the game logic.">
<polygon fill="white" stroke="black" points="298.5,-56.5 298.5,-75.5 381.5,-75.5 381.5,-56.5 298.5,-56.5"/>
<text text-anchor="middle" x="340" y="-63.5" font-family="Helvetica,sans-Serif" font-size="10.00">src/Game.cpp</text>
</a>
</g>
</g>
<!-- Node2&#45;&gt;Node3 -->
<g id="edge2" class="edge">
<title>Node2&#45;&gt;Node3</title>
<path fill="none" stroke="midnightblue" d="M525.13,-110.28C481.54,-100.09 416.84,-84.96 376.6,-75.56"/>
<polygon fill="midnightblue" stroke="midnightblue" points="524.37,-113.69 534.91,-112.56 525.97,-106.88 524.37,-113.69"/>
</g>
<!-- Node4 -->
<g id="node4" class="node">
<title>Node4</title>
<g id="a_node4"><a xlink:href="GameManager_8h.html" target="_top" xlink:title="Handles the game loop and game states.">
<polygon fill="white" stroke="black" points="527,-56.5 527,-75.5 641,-75.5 641,-56.5 527,-56.5"/>
<text text-anchor="middle" x="584" y="-63.5" font-family="Helvetica,sans-Serif" font-size="10.00">src/GameManager.h</text>
</a>
</g>
</g>
<!-- Node2&#45;&gt;Node4 -->
<g id="edge3" class="edge">
<title>Node2&#45;&gt;Node4</title>
<path fill="none" stroke="midnightblue" d="M575.55,-102.1C577.71,-93.14 580.18,-82.86 581.89,-75.75"/>
<polygon fill="midnightblue" stroke="midnightblue" points="572.08,-101.54 573.15,-112.08 578.89,-103.18 572.08,-101.54"/>
</g>
<!-- Node5 -->
<g id="node5" class="node">
<title>Node5</title>
<g id="a_node5"><a xlink:href="GameManager_8cpp.html" target="_top" xlink:title="Handles the game loop and game states.">
<polygon fill="white" stroke="black" points="461.5,-0.5 461.5,-19.5 586.5,-19.5 586.5,-0.5 461.5,-0.5"/>
<text text-anchor="middle" x="524" y="-7.5" font-family="Helvetica,sans-Serif" font-size="10.00">src/GameManager.cpp</text>
</a>
</g>
</g>
<!-- Node4&#45;&gt;Node5 -->
<g id="edge4" class="edge">
<title>Node4&#45;&gt;Node5</title>
<path fill="none" stroke="midnightblue" d="M566.82,-49.54C556.12,-39.91 542.74,-27.87 533.82,-19.83"/>
<polygon fill="midnightblue" stroke="midnightblue" points="564.59,-52.24 574.36,-56.32 569.27,-47.03 564.59,-52.24"/>
</g>
<!-- Node6 -->
<g id="node6" class="node">
<title>Node6</title>
<g id="a_node6"><a xlink:href="main_8cpp.html" target="_top" xlink:title="Main function, initializes the game manager.">
<polygon fill="white" stroke="black" points="604.5,-0.5 604.5,-19.5 683.5,-19.5 683.5,-0.5 604.5,-0.5"/>
<text text-anchor="middle" x="644" y="-7.5" font-family="Helvetica,sans-Serif" font-size="10.00">src/main.cpp</text>
</a>
</g>
</g>
<!-- Node4&#45;&gt;Node6 -->
<g id="edge5" class="edge">
<title>Node4&#45;&gt;Node6</title>
<path fill="none" stroke="midnightblue" d="M601.18,-49.54C611.88,-39.91 625.26,-27.87 634.18,-19.83"/>
<polygon fill="midnightblue" stroke="midnightblue" points="598.73,-47.03 593.64,-56.32 603.41,-52.24 598.73,-47.03"/>
</g>
<!-- Node7&#45;&gt;Node2 -->
<g id="edge7" class="edge">
<title>Node7&#45;&gt;Node2</title>
<path fill="none" stroke="midnightblue" d="M592.5,-159.27C587.03,-150.05 580.58,-139.17 576.19,-131.75"/>
<polygon fill="midnightblue" stroke="midnightblue" points="589.61,-161.26 597.72,-168.08 595.63,-157.7 589.61,-161.26"/>
</g>
<!-- Node8 -->
<g id="node8" class="node">
<title>Node8</title>
<g id="a_node8"><a xlink:href="Ghost_8cpp.html" target="_top" xlink:title="Represents a ghost enemy.">
<polygon fill="white" stroke="black" points="625.5,-112.5 625.5,-131.5 708.5,-131.5 708.5,-112.5 625.5,-112.5"/>
<text text-anchor="middle" x="667" y="-119.5" font-family="Helvetica,sans-Serif" font-size="10.00">src/Ghost.cpp</text>
</a>
</g>
</g>
<!-- Node7&#45;&gt;Node8 -->
<g id="edge8" class="edge">
<title>Node7&#45;&gt;Node8</title>
<path fill="none" stroke="midnightblue" d="M620.99,-161.82C632.46,-152.15 646.91,-139.95 656.53,-131.83"/>
<polygon fill="midnightblue" stroke="midnightblue" points="618.67,-159.2 613.28,-168.32 623.18,-164.55 618.67,-159.2"/>
</g>
<!-- Node9&#45;&gt;Node2 -->
<g id="edge16" class="edge">
<title>Node9&#45;&gt;Node2</title>
<path fill="none" stroke="midnightblue" d="M399.96,-165.96C440.57,-155.76 500.04,-140.82 537.09,-131.52"/>
<polygon fill="midnightblue" stroke="midnightblue" points="398.91,-162.61 390.07,-168.44 400.62,-169.4 398.91,-162.61"/>
</g>
<!-- Node10 -->
<g id="node10" class="node">
<title>Node10</title>
<g id="a_node10"><a xlink:href="Cherry_8h.html" target="_top" xlink:title="Class representing a cherry collectible.">
<polygon fill="white" stroke="black" points="443,-112.5 443,-131.5 517,-131.5 517,-112.5 443,-112.5"/>
<text text-anchor="middle" x="480" y="-119.5" font-family="Helvetica,sans-Serif" font-size="10.00">src/Cherry.h</text>
</a>
</g>
</g>
<!-- Node9&#45;&gt;Node10 -->
<g id="edge10" class="edge">
<title>Node9&#45;&gt;Node10</title>
<path fill="none" stroke="midnightblue" d="M385.01,-164.37C408.23,-154.26 440.16,-140.35 460.44,-131.52"/>
<polygon fill="midnightblue" stroke="midnightblue" points="383.42,-161.24 375.65,-168.44 386.21,-167.66 383.42,-161.24"/>
</g>
<!-- Node12 -->
<g id="node12" class="node">
<title>Node12</title>
<g id="a_node12"><a xlink:href="Coin_8h.html" target="_top" xlink:title="Class representing a coin collectible.">
<polygon fill="white" stroke="black" points="21.5,-112.5 21.5,-131.5 86.5,-131.5 86.5,-112.5 21.5,-112.5"/>
<text text-anchor="middle" x="54" y="-119.5" font-family="Helvetica,sans-Serif" font-size="10.00">src/Coin.h</text>
</a>
</g>
</g>
<!-- Node9&#45;&gt;Node12 -->
<g id="edge13" class="edge">
<title>Node9&#45;&gt;Node12</title>
<path fill="none" stroke="midnightblue" d="M293.22,-166.85C240.48,-158.16 163.18,-145.01 96,-132 92.93,-131.4 89.73,-130.76 86.53,-130.1"/>
<polygon fill="midnightblue" stroke="midnightblue" points="292.67,-170.31 303.1,-168.48 293.8,-163.4 292.67,-170.31"/>
</g>
<!-- Node14 -->
<g id="node14" class="node">
<title>Node14</title>
<g id="a_node14"><a xlink:href="InteractiveObject_8cpp.html" target="_top" xlink:title="Base class for all interactive objects.">
<polygon fill="white" stroke="black" points="287,-112.5 287,-131.5 425,-131.5 425,-112.5 287,-112.5"/>
<text text-anchor="middle" x="356" y="-119.5" font-family="Helvetica,sans-Serif" font-size="10.00">src/InteractiveObject.cpp</text>
</a>
</g>
</g>
<!-- Node9&#45;&gt;Node14 -->
<g id="edge17" class="edge">
<title>Node9&#45;&gt;Node14</title>
<path fill="none" stroke="midnightblue" d="M356,-157.8C356,-148.91 356,-138.78 356,-131.75"/>
<polygon fill="midnightblue" stroke="midnightblue" points="352.5,-158.08 356,-168.08 359.5,-158.08 352.5,-158.08"/>
</g>
<!-- Node15 -->
<g id="node15" class="node">
<title>Node15</title>
<g id="a_node15"><a xlink:href="Teleport_8h.html" target="_top" xlink:title="Represents a teleport object.">
<polygon fill="white" stroke="black" points="105,-112.5 105,-131.5 187,-131.5 187,-112.5 105,-112.5"/>
<text text-anchor="middle" x="146" y="-119.5" font-family="Helvetica,sans-Serif" font-size="10.00">src/Teleport.h</text>
</a>
</g>
</g>
<!-- Node9&#45;&gt;Node15 -->
<g id="edge18" class="edge">
<title>Node9&#45;&gt;Node15</title>
<path fill="none" stroke="midnightblue" d="M312.81,-165.89C273.15,-155.7 215.23,-140.8 179.12,-131.52"/>
<polygon fill="midnightblue" stroke="midnightblue" points="312.17,-169.34 322.72,-168.44 313.91,-162.56 312.17,-169.34"/>
</g>
<!-- Node17 -->
<g id="node17" class="node">
<title>Node17</title>
<g id="a_node17"><a xlink:href="Wall_8h.html" target="_top" xlink:title="Represents a wall object.">
<polygon fill="white" stroke="black" points="205,-112.5 205,-131.5 269,-131.5 269,-112.5 205,-112.5"/>
<text text-anchor="middle" x="237" y="-119.5" font-family="Helvetica,sans-Serif" font-size="10.00">src/Wall.h</text>
</a>
</g>
</g>
<!-- Node9&#45;&gt;Node17 -->
<g id="edge21" class="edge">
<title>Node9&#45;&gt;Node17</title>
<path fill="none" stroke="midnightblue" d="M327.86,-164.23C305.6,-154.13 275.14,-140.31 255.77,-131.52"/>
<polygon fill="midnightblue" stroke="midnightblue" points="326.59,-167.5 337.14,-168.44 329.48,-161.12 326.59,-167.5"/>
</g>
<!-- Node10&#45;&gt;Node3 -->
<g id="edge12" class="edge">
<title>Node10&#45;&gt;Node3</title>
<path fill="none" stroke="midnightblue" d="M448.3,-108.77C422,-98.63 385.28,-84.47 362.08,-75.52"/>
<polygon fill="midnightblue" stroke="midnightblue" points="447.23,-112.11 457.82,-112.44 449.75,-105.58 447.23,-112.11"/>
</g>
<!-- Node11 -->
<g id="node11" class="node">
<title>Node11</title>
<g id="a_node11"><a xlink:href="Cherry_8cpp.html" target="_top" xlink:title="Class representing a cherry collectible.">
<polygon fill="white" stroke="black" points="423.5,-56.5 423.5,-75.5 508.5,-75.5 508.5,-56.5 423.5,-56.5"/>
<text text-anchor="middle" x="466" y="-63.5" font-family="Helvetica,sans-Serif" font-size="10.00">src/Cherry.cpp</text>
</a>
</g>
</g>
<!-- Node10&#45;&gt;Node11 -->
<g id="edge11" class="edge">
<title>Node10&#45;&gt;Node11</title>
<path fill="none" stroke="midnightblue" d="M475.18,-102.4C472.83,-93.36 470.13,-82.94 468.27,-75.75"/>
<polygon fill="midnightblue" stroke="midnightblue" points="471.79,-103.28 477.69,-112.08 478.57,-101.52 471.79,-103.28"/>
</g>
<!-- Node12&#45;&gt;Node3 -->
<g id="edge15" class="edge">
<title>Node12&#45;&gt;Node3</title>
<path fill="none" stroke="midnightblue" d="M96.41,-111.98C147.39,-101.99 243.01,-84.56 298.31,-74.54"/>
<polygon fill="midnightblue" stroke="midnightblue" points="95.67,-108.56 86.54,-113.93 97.03,-115.42 95.67,-108.56"/>
</g>
<!-- Node13 -->
<g id="node13" class="node">
<title>Node13</title>
<g id="a_node13"><a xlink:href="Coin_8cpp.html" target="_top" xlink:title="Class representing a coin collectible.">
<polygon fill="white" stroke="black" points="0,-56.5 0,-75.5 76,-75.5 76,-56.5 0,-56.5"/>
<text text-anchor="middle" x="38" y="-63.5" font-family="Helvetica,sans-Serif" font-size="10.00">src/Coin.cpp</text>
</a>
</g>
</g>
<!-- Node12&#45;&gt;Node13 -->
<g id="edge14" class="edge">
<title>Node12&#45;&gt;Node13</title>
<path fill="none" stroke="midnightblue" d="M48.49,-102.4C45.81,-93.36 42.72,-82.94 40.59,-75.75"/>
<polygon fill="midnightblue" stroke="midnightblue" points="45.16,-103.49 51.36,-112.08 51.87,-101.5 45.16,-103.49"/>
</g>
<!-- Node15&#45;&gt;Node3 -->
<g id="edge19" class="edge">
<title>Node15&#45;&gt;Node3</title>
<path fill="none" stroke="midnightblue" d="M186.6,-109.7C223.22,-99.51 276.26,-84.74 309.4,-75.52"/>
<polygon fill="midnightblue" stroke="midnightblue" points="185.44,-106.39 176.74,-112.44 187.31,-113.13 185.44,-106.39"/>
</g>
<!-- Node16 -->
<g id="node16" class="node">
<title>Node16</title>
<g id="a_node16"><a xlink:href="Teleport_8cpp.html" target="_top" xlink:title="Represents a teleport object.">
<polygon fill="white" stroke="black" points="94.5,-56.5 94.5,-75.5 187.5,-75.5 187.5,-56.5 94.5,-56.5"/>
<text text-anchor="middle" x="141" y="-63.5" font-family="Helvetica,sans-Serif" font-size="10.00">src/Teleport.cpp</text>
</a>
</g>
</g>
<!-- Node15&#45;&gt;Node16 -->
<g id="edge20" class="edge">
<title>Node15&#45;&gt;Node16</title>
<path fill="none" stroke="midnightblue" d="M144.25,-102.1C143.42,-93.14 142.47,-82.86 141.81,-75.75"/>
<polygon fill="midnightblue" stroke="midnightblue" points="140.77,-102.45 145.17,-112.08 147.74,-101.8 140.77,-102.45"/>
</g>
<!-- Node17&#45;&gt;Node3 -->
<g id="edge22" class="edge">
<title>Node17&#45;&gt;Node3</title>
<path fill="none" stroke="midnightblue" d="M262.58,-107.59C281.62,-97.61 307.06,-84.27 323.49,-75.65"/>
<polygon fill="midnightblue" stroke="midnightblue" points="260.78,-104.58 253.55,-112.32 264.03,-110.78 260.78,-104.58"/>
</g>
<!-- Node18 -->
<g id="node18" class="node">
<title>Node18</title>
<g id="a_node18"><a xlink:href="Wall_8cpp.html" target="_top" xlink:title="Represents a wall object.">
<polygon fill="white" stroke="black" points="205.5,-56.5 205.5,-75.5 280.5,-75.5 280.5,-56.5 205.5,-56.5"/>
<text text-anchor="middle" x="243" y="-63.5" font-family="Helvetica,sans-Serif" font-size="10.00">src/Wall.cpp</text>
</a>
</g>
</g>
<!-- Node17&#45;&gt;Node18 -->
<g id="edge23" class="edge">
<title>Node17&#45;&gt;Node18</title>
<path fill="none" stroke="midnightblue" d="M239.1,-102.1C240.1,-93.14 241.24,-82.86 242.03,-75.75"/>
<polygon fill="midnightblue" stroke="midnightblue" points="235.62,-101.76 237.99,-112.08 242.57,-102.53 235.62,-101.76"/>
</g>
</g>
</svg>
