<?xml version="1.0" encoding="UTF-8" standalone="no"?>
<!DOCTYPE svg PUBLIC "-//W3C//DTD SVG 1.1//EN"
 "http://www.w3.org/Graphics/SVG/1.1/DTD/svg11.dtd">
<!-- Generated by graphviz version 10.0.1 (0)
 -->
<!-- Title: src/Player.cpp Pages: 1 -->
<svg width="574pt" height="420pt"
 viewBox="0.00 0.00 574.19 420.00" xmlns="http://www.w3.org/2000/svg" xmlns:xlink="http://www.w3.org/1999/xlink">
<g id="graph0" class="graph" transform="scale(1 1) rotate(0) translate(4 416)">
<title>src/Player.cpp</title>
<!-- Node1 -->
<g id="Node000001" class="node">
<title>Node1</title>
<g id="a_Node000001"><a xlink:title="Represents a player.">
<polygon fill="#999999" stroke="#666666" points="324.12,-412 245.88,-412 245.88,-392 324.12,-392 324.12,-412"/>
<text text-anchor="middle" x="285" y="-398.5" font-family="Helvetica,sans-Serif" font-size="10.00">src/Player.cpp</text>
</a>
</g>
</g>
<!-- Node2 -->
<g id="Node000002" class="node">
<title>Node2</title>
<g id="a_Node000002"><a xlink:href="Player_8h.html" target="_top" xlink:title="Represents a player.">
<polygon fill="white" stroke="#666666" points="255.62,-356 204.38,-356 204.38,-336 255.62,-336 255.62,-356"/>
<text text-anchor="middle" x="230" y="-342.5" font-family="Helvetica,sans-Serif" font-size="10.00">Player.h</text>
</a>
</g>
</g>
<!-- Node1&#45;&gt;Node2 -->
<g id="edge1_Node000001_Node000002" class="edge">
<title>Node1&#45;&gt;Node2</title>
<g id="a_edge1_Node000001_Node000002"><a xlink:title=" ">
<path fill="none" stroke="#63b8ff" d="M275.42,-391.59C267.77,-384.08 256.84,-373.35 247.62,-364.3"/>
<polygon fill="#63b8ff" stroke="#63b8ff" points="250.14,-361.87 240.55,-357.36 245.23,-366.86 250.14,-361.87"/>
</a>
</g>
</g>
<!-- Node15 -->
<g id="Node000015" class="node">
<title>Node15</title>
<g id="a_Node000015"><a xlink:href="Helpers_8h.html" target="_top" xlink:title=" ">
<polygon fill="white" stroke="#666666" points="314,-132 256,-132 256,-112 314,-112 314,-132"/>
<text text-anchor="middle" x="285" y="-118.5" font-family="Helvetica,sans-Serif" font-size="10.00">Helpers.h</text>
</a>
</g>
</g>
<!-- Node1&#45;&gt;Node15 -->
<g id="edge28_Node000001_Node000015" class="edge">
<title>Node1&#45;&gt;Node15</title>
<g id="a_edge28_Node000001_Node000015"><a xlink:title=" ">
<path fill="none" stroke="#63b8ff" d="M285,-391.58C285,-372.57 285,-328.24 285,-291 285,-291 285,-291 285,-233 285,-201.87 285,-165.78 285,-143.68"/>
<polygon fill="#63b8ff" stroke="#63b8ff" points="288.5,-143.93 285,-133.93 281.5,-143.93 288.5,-143.93"/>
</a>
</g>
</g>
<!-- Node16 -->
<g id="Node000016" class="node">
<title>Node16</title>
<g id="a_Node000016"><a xlink:title=" ">
<polygon fill="#e0e0e0" stroke="#999999" points="353,-356 313,-356 313,-336 353,-336 353,-356"/>
<text text-anchor="middle" x="333" y="-342.5" font-family="Helvetica,sans-Serif" font-size="10.00">cfloat</text>
</a>
</g>
</g>
<!-- Node1&#45;&gt;Node16 -->
<g id="edge29_Node000001_Node000016" class="edge">
<title>Node1&#45;&gt;Node16</title>
<g id="a_edge29_Node000001_Node000016"><a xlink:title=" ">
<path fill="none" stroke="#63b8ff" d="M293.36,-391.59C299.9,-384.24 309.18,-373.8 317.12,-364.87"/>
<polygon fill="#63b8ff" stroke="#63b8ff" points="319.7,-367.23 323.73,-357.43 314.47,-362.58 319.7,-367.23"/>
</a>
</g>
</g>
<!-- Node3 -->
<g id="Node000003" class="node">
<title>Node3</title>
<g id="a_Node000003"><a xlink:href="MovingObject_8h.html" target="_top" xlink:title="Base class for all moving objects.">
<polygon fill="white" stroke="#666666" points="421.12,-300 336.88,-300 336.88,-280 421.12,-280 421.12,-300"/>
<text text-anchor="middle" x="379" y="-286.5" font-family="Helvetica,sans-Serif" font-size="10.00">MovingObject.h</text>
</a>
</g>
</g>
<!-- Node2&#45;&gt;Node3 -->
<g id="edge2_Node000002_Node000003" class="edge">
<title>Node2&#45;&gt;Node3</title>
<g id="a_edge2_Node000002_Node000003"><a xlink:title=" ">
<path fill="none" stroke="#63b8ff" d="M255.95,-335.59C279.84,-326.94 315.53,-314 342.33,-304.29"/>
<polygon fill="#63b8ff" stroke="#63b8ff" points="343.21,-307.69 351.42,-301 340.83,-301.11 343.21,-307.69"/>
</a>
</g>
</g>
<!-- Node10 -->
<g id="Node000010" class="node">
<title>Node10</title>
<g id="a_Node000010"><a xlink:href="Map_8h.html" target="_top" xlink:title="Class for handling the game map.">
<polygon fill="white" stroke="#666666" points="249.5,-244 206.5,-244 206.5,-224 249.5,-224 249.5,-244"/>
<text text-anchor="middle" x="228" y="-230.5" font-family="Helvetica,sans-Serif" font-size="10.00">Map.h</text>
</a>
</g>
</g>
<!-- Node2&#45;&gt;Node10 -->
<g id="edge26_Node000002_Node000010" class="edge">
<title>Node2&#45;&gt;Node10</title>
<g id="a_edge26_Node000002_Node000010"><a xlink:title=" ">
<path fill="none" stroke="#63b8ff" d="M229.83,-335.62C229.51,-318.01 228.81,-279.59 228.38,-255.65"/>
<polygon fill="#63b8ff" stroke="#63b8ff" points="231.88,-255.8 228.2,-245.87 224.88,-255.93 231.88,-255.8"/>
</a>
</g>
</g>
<!-- Node11 -->
<g id="Node000011" class="node">
<title>Node11</title>
<g id="a_Node000011"><a xlink:title=" ">
<polygon fill="#e0e0e0" stroke="#999999" points="96,-76 56,-76 56,-56 96,-56 96,-76"/>
<text text-anchor="middle" x="76" y="-62.5" font-family="Helvetica,sans-Serif" font-size="10.00">string</text>
</a>
</g>
</g>
<!-- Node2&#45;&gt;Node11 -->
<g id="edge27_Node000002_Node000011" class="edge">
<title>Node2&#45;&gt;Node11</title>
<g id="a_edge27_Node000002_Node000011"><a xlink:title=" ">
<path fill="none" stroke="#63b8ff" d="M204.06,-344.34C143.91,-341.29 0,-324.63 0,-235 0,-235 0,-235 0,-177 0,-138.24 32.34,-103.24 54.83,-83.59"/>
<polygon fill="#63b8ff" stroke="#63b8ff" points="56.87,-86.44 62.29,-77.34 52.37,-81.08 56.87,-86.44"/>
</a>
</g>
</g>
<!-- Node4 -->
<g id="Node000004" class="node">
<title>Node4</title>
<g id="a_Node000004"><a xlink:href="GameObject_8h.html" target="_top" xlink:title="Base class for all game objects.">
<polygon fill="white" stroke="#666666" points="486.5,-244 407.5,-244 407.5,-224 486.5,-224 486.5,-244"/>
<text text-anchor="middle" x="447" y="-230.5" font-family="Helvetica,sans-Serif" font-size="10.00">GameObject.h</text>
</a>
</g>
</g>
<!-- Node3&#45;&gt;Node4 -->
<g id="edge3_Node000003_Node000004" class="edge">
<title>Node3&#45;&gt;Node4</title>
<g id="a_edge3_Node000003_Node000004"><a xlink:title=" ">
<path fill="none" stroke="#63b8ff" d="M390.84,-279.59C400.69,-271.77 414.93,-260.46 426.61,-251.19"/>
<polygon fill="#63b8ff" stroke="#63b8ff" points="428.45,-254.2 434.11,-245.24 424.1,-248.72 428.45,-254.2"/>
</a>
</g>
</g>
<!-- Node5 -->
<g id="Node000005" class="node">
<title>Node5</title>
<g id="a_Node000005"><a xlink:href="Enums_8h.html" target="_top" xlink:title=" ">
<polygon fill="white" stroke="#666666" points="475.5,-76 420.5,-76 420.5,-56 475.5,-56 475.5,-76"/>
<text text-anchor="middle" x="448" y="-62.5" font-family="Helvetica,sans-Serif" font-size="10.00">Enums.h</text>
</a>
</g>
</g>
<!-- Node3&#45;&gt;Node5 -->
<g id="edge9_Node000003_Node000005" class="edge">
<title>Node3&#45;&gt;Node5</title>
<g id="a_edge9_Node000003_Node000005"><a xlink:title=" ">
<path fill="none" stroke="#63b8ff" d="M421.33,-281.85C468.72,-271.12 541.7,-245.59 563,-188 580.63,-140.34 520.17,-101.21 480.31,-81.28"/>
<polygon fill="#63b8ff" stroke="#63b8ff" points="482.08,-78.24 471.55,-77.06 479.04,-84.55 482.08,-78.24"/>
</a>
</g>
</g>
<!-- Node7 -->
<g id="Node000007" class="node">
<title>Node7</title>
<g id="a_Node000007"><a xlink:href="GamePhase_8h.html" target="_top" xlink:title="Handles the game phase and level.">
<polygon fill="white" stroke="#666666" points="554.12,-188 475.88,-188 475.88,-168 554.12,-168 554.12,-188"/>
<text text-anchor="middle" x="515" y="-174.5" font-family="Helvetica,sans-Serif" font-size="10.00">GamePhase.h</text>
</a>
</g>
</g>
<!-- Node3&#45;&gt;Node7 -->
<g id="edge25_Node000003_Node000007" class="edge">
<title>Node3&#45;&gt;Node7</title>
<g id="a_edge25_Node000003_Node000007"><a xlink:title=" ">
<path fill="none" stroke="#63b8ff" d="M421.35,-282.36C446.28,-276.35 476.62,-265.06 496,-244 507.21,-231.82 511.84,-213.38 513.73,-199.25"/>
<polygon fill="#63b8ff" stroke="#63b8ff" points="517.17,-200 514.64,-189.71 510.21,-199.33 517.17,-200"/>
</a>
</g>
</g>
<!-- Node8 -->
<g id="Node000008" class="node">
<title>Node8</title>
<g id="a_Node000008"><a xlink:title=" ">
<polygon fill="#e0e0e0" stroke="#999999" points="419.62,-188 368.38,-188 368.38,-168 419.62,-168 419.62,-188"/>
<text text-anchor="middle" x="394" y="-174.5" font-family="Helvetica,sans-Serif" font-size="10.00">memory</text>
</a>
</g>
</g>
<!-- Node3&#45;&gt;Node8 -->
<g id="edge10_Node000003_Node000008" class="edge">
<title>Node3&#45;&gt;Node8</title>
<g id="a_edge10_Node000003_Node000008"><a xlink:title=" ">
<path fill="none" stroke="#63b8ff" d="M380.28,-279.62C382.68,-262.01 387.92,-223.59 391.18,-199.65"/>
<polygon fill="#63b8ff" stroke="#63b8ff" points="394.64,-200.24 392.52,-189.85 387.7,-199.29 394.64,-200.24"/>
</a>
</g>
</g>
<!-- Node9 -->
<g id="Node000009" class="node">
<title>Node9</title>
<g id="a_Node000009"><a xlink:title=" ">
<polygon fill="#e0e0e0" stroke="#999999" points="419.88,-132 370.12,-132 370.12,-112 419.88,-112 419.88,-132"/>
<text text-anchor="middle" x="395" y="-118.5" font-family="Helvetica,sans-Serif" font-size="10.00">optional</text>
</a>
</g>
</g>
<!-- Node3&#45;&gt;Node9 -->
<g id="edge11_Node000003_Node000009" class="edge">
<title>Node3&#45;&gt;Node9</title>
<g id="a_edge11_Node000003_Node000009"><a xlink:title=" ">
<path fill="none" stroke="#63b8ff" d="M374.38,-279.62C364.84,-258.92 344.97,-207.98 359,-168 362.57,-157.82 369.52,-148.23 376.37,-140.55"/>
<polygon fill="#63b8ff" stroke="#63b8ff" points="378.68,-143.19 383.1,-133.56 373.64,-138.33 378.68,-143.19"/>
</a>
</g>
</g>
<!-- Node3&#45;&gt;Node10 -->
<g id="edge12_Node000003_Node000010" class="edge">
<title>Node3&#45;&gt;Node10</title>
<g id="a_edge12_Node000003_Node000010"><a xlink:title=" ">
<path fill="none" stroke="#63b8ff" d="M352.7,-279.59C327,-270.4 287.84,-256.4 260.27,-246.54"/>
<polygon fill="#63b8ff" stroke="#63b8ff" points="261.62,-243.31 251.03,-243.24 259.27,-249.9 261.62,-243.31"/>
</a>
</g>
</g>
<!-- Node4&#45;&gt;Node5 -->
<g id="edge4_Node000004_Node000005" class="edge">
<title>Node4&#45;&gt;Node5</title>
<g id="a_edge4_Node000004_Node000005"><a xlink:title=" ">
<path fill="none" stroke="#63b8ff" d="M447.06,-223.6C447.21,-197.46 447.66,-123.48 447.88,-87.36"/>
<polygon fill="#63b8ff" stroke="#63b8ff" points="451.37,-87.83 447.93,-77.81 444.37,-87.79 451.37,-87.83"/>
</a>
</g>
</g>
<!-- Node4&#45;&gt;Node7 -->
<g id="edge6_Node000004_Node000007" class="edge">
<title>Node4&#45;&gt;Node7</title>
<g id="a_edge6_Node000004_Node000007"><a xlink:title=" ">
<path fill="none" stroke="#63b8ff" d="M458.84,-223.59C468.69,-215.77 482.93,-204.46 494.61,-195.19"/>
<polygon fill="#63b8ff" stroke="#63b8ff" points="496.45,-198.2 502.11,-189.24 492.1,-192.72 496.45,-198.2"/>
</a>
</g>
</g>
<!-- Node4&#45;&gt;Node8 -->
<g id="edge8_Node000004_Node000008" class="edge">
<title>Node4&#45;&gt;Node8</title>
<g id="a_edge8_Node000004_Node000008"><a xlink:title=" ">
<path fill="none" stroke="#63b8ff" d="M437.77,-223.59C430.4,-216.08 419.87,-205.35 410.98,-196.3"/>
<polygon fill="#63b8ff" stroke="#63b8ff" points="413.69,-194.06 404.19,-189.38 408.69,-198.97 413.69,-194.06"/>
</a>
</g>
</g>
<!-- Node6 -->
<g id="Node000006" class="node">
<title>Node6</title>
<g id="a_Node000006"><a xlink:title=" ">
<polygon fill="#e0e0e0" stroke="#999999" points="467.62,-20 428.38,-20 428.38,0 467.62,0 467.62,-20"/>
<text text-anchor="middle" x="448" y="-6.5" font-family="Helvetica,sans-Serif" font-size="10.00">utility</text>
</a>
</g>
</g>
<!-- Node5&#45;&gt;Node6 -->
<g id="edge5_Node000005_Node000006" class="edge">
<title>Node5&#45;&gt;Node6</title>
<g id="a_edge5_Node000005_Node000006"><a xlink:title=" ">
<path fill="none" stroke="#63b8ff" d="M448,-55.59C448,-49.01 448,-39.96 448,-31.73"/>
<polygon fill="#63b8ff" stroke="#63b8ff" points="451.5,-31.81 448,-21.81 444.5,-31.81 451.5,-31.81"/>
</a>
</g>
</g>
<!-- Node7&#45;&gt;Node5 -->
<g id="edge7_Node000007_Node000005" class="edge">
<title>Node7&#45;&gt;Node5</title>
<g id="a_edge7_Node000007_Node000005"><a xlink:title=" ">
<path fill="none" stroke="#63b8ff" d="M509.29,-167.62C498.31,-149.6 474.08,-109.81 459.59,-86.02"/>
<polygon fill="#63b8ff" stroke="#63b8ff" points="462.68,-84.37 454.49,-77.65 456.7,-88.01 462.68,-84.37"/>
</a>
</g>
</g>
<!-- Node10&#45;&gt;Node11 -->
<g id="edge13_Node000010_Node000011" class="edge">
<title>Node10&#45;&gt;Node11</title>
<g id="a_edge13_Node000010_Node000011"><a xlink:title=" ">
<path fill="none" stroke="#63b8ff" d="M206.13,-226.63C186.04,-219.84 156.52,-207.37 137,-188 107.88,-159.1 90.13,-113.43 81.77,-87.24"/>
<polygon fill="#63b8ff" stroke="#63b8ff" points="85.18,-86.42 78.93,-77.86 78.47,-88.45 85.18,-86.42"/>
</a>
</g>
</g>
<!-- Node12 -->
<g id="Node000012" class="node">
<title>Node12</title>
<g id="a_Node000012"><a xlink:title=" ">
<polygon fill="#e0e0e0" stroke="#999999" points="249.5,-76 206.5,-76 206.5,-56 249.5,-56 249.5,-76"/>
<text text-anchor="middle" x="228" y="-62.5" font-family="Helvetica,sans-Serif" font-size="10.00">vector</text>
</a>
</g>
</g>
<!-- Node10&#45;&gt;Node12 -->
<g id="edge14_Node000010_Node000012" class="edge">
<title>Node10&#45;&gt;Node12</title>
<g id="a_edge14_Node000010_Node000012"><a xlink:title=" ">
<path fill="none" stroke="#63b8ff" d="M210.44,-223.62C175.93,-203.9 104.94,-156.35 133,-112 146.57,-90.56 173.41,-79.14 195.12,-73.17"/>
<polygon fill="#63b8ff" stroke="#63b8ff" points="195.86,-76.59 204.74,-70.82 194.2,-69.79 195.86,-76.59"/>
</a>
</g>
</g>
<!-- Node13 -->
<g id="Node000013" class="node">
<title>Node13</title>
<g id="a_Node000013"><a xlink:href="Window_8h.html" target="_top" xlink:title="Class for handling ncurses windows.">
<polygon fill="white" stroke="#666666" points="257,-188 199,-188 199,-168 257,-168 257,-188"/>
<text text-anchor="middle" x="228" y="-174.5" font-family="Helvetica,sans-Serif" font-size="10.00">Window.h</text>
</a>
</g>
</g>
<!-- Node10&#45;&gt;Node13 -->
<g id="edge15_Node000010_Node000013" class="edge">
<title>Node10&#45;&gt;Node13</title>
<g id="a_edge15_Node000010_Node000013"><a xlink:title=" ">
<path fill="none" stroke="#63b8ff" d="M228,-223.59C228,-217.01 228,-207.96 228,-199.73"/>
<polygon fill="#63b8ff" stroke="#63b8ff" points="231.5,-199.81 228,-189.81 224.5,-199.81 231.5,-199.81"/>
</a>
</g>
</g>
<!-- Node13&#45;&gt;Node5 -->
<g id="edge20_Node000013_Node000005" class="edge">
<title>Node13&#45;&gt;Node5</title>
<g id="a_edge20_Node000013_Node000005"><a xlink:title=" ">
<path fill="none" stroke="#63b8ff" d="M248.5,-167.59C267.83,-158.65 297.53,-144.73 323,-132 340.07,-123.47 344.08,-120.83 361,-112 380.6,-101.77 402.73,-90.33 419.77,-81.54"/>
<polygon fill="#63b8ff" stroke="#63b8ff" points="421.02,-84.83 428.3,-77.14 417.81,-78.61 421.02,-84.83"/>
</a>
</g>
</g>
<!-- Node13&#45;&gt;Node9 -->
<g id="edge18_Node000013_Node000009" class="edge">
<title>Node13&#45;&gt;Node9</title>
<g id="a_edge18_Node000013_Node000009"><a xlink:title=" ">
<path fill="none" stroke="#63b8ff" d="M257.09,-167.59C285.47,-158.42 328.71,-144.44 359.19,-134.58"/>
<polygon fill="#63b8ff" stroke="#63b8ff" points="359.91,-138.02 368.35,-131.62 357.76,-131.36 359.91,-138.02"/>
</a>
</g>
</g>
<!-- Node13&#45;&gt;Node11 -->
<g id="edge17_Node000013_Node000011" class="edge">
<title>Node13&#45;&gt;Node11</title>
<g id="a_edge17_Node000013_Node000011"><a xlink:title=" ">
<path fill="none" stroke="#63b8ff" d="M200.99,-167.63C181.03,-159.92 153.83,-147.72 133,-132 115.65,-118.9 99.69,-99.82 89.09,-85.71"/>
<polygon fill="#63b8ff" stroke="#63b8ff" points="91.99,-83.74 83.28,-77.71 86.32,-87.85 91.99,-83.74"/>
</a>
</g>
</g>
<!-- Node13&#45;&gt;Node12 -->
<g id="edge19_Node000013_Node000012" class="edge">
<title>Node13&#45;&gt;Node12</title>
<g id="a_edge19_Node000013_Node000012"><a xlink:title=" ">
<path fill="none" stroke="#63b8ff" d="M228,-167.62C228,-150.01 228,-111.59 228,-87.65"/>
<polygon fill="#63b8ff" stroke="#63b8ff" points="231.5,-87.87 228,-77.87 224.5,-87.87 231.5,-87.87"/>
</a>
</g>
</g>
<!-- Node14 -->
<g id="Node000014" class="node">
<title>Node14</title>
<g id="a_Node000014"><a xlink:title=" ">
<polygon fill="#e0e0e0" stroke="#999999" points="200.38,-132 141.62,-132 141.62,-112 200.38,-112 200.38,-132"/>
<text text-anchor="middle" x="171" y="-118.5" font-family="Helvetica,sans-Serif" font-size="10.00">ncurses.h</text>
</a>
</g>
</g>
<!-- Node13&#45;&gt;Node14 -->
<g id="edge16_Node000013_Node000014" class="edge">
<title>Node13&#45;&gt;Node14</title>
<g id="a_edge16_Node000013_Node000014"><a xlink:title=" ">
<path fill="none" stroke="#63b8ff" d="M218.07,-167.59C210.06,-160.01 198.58,-149.13 188.97,-140.02"/>
<polygon fill="#63b8ff" stroke="#63b8ff" points="191.58,-137.68 181.91,-133.34 186.77,-142.76 191.58,-137.68"/>
</a>
</g>
</g>
<!-- Node13&#45;&gt;Node15 -->
<g id="edge21_Node000013_Node000015" class="edge">
<title>Node13&#45;&gt;Node15</title>
<g id="a_edge21_Node000013_Node000015"><a xlink:title=" ">
<path fill="none" stroke="#63b8ff" d="M237.93,-167.59C245.94,-160.01 257.42,-149.13 267.03,-140.02"/>
<polygon fill="#63b8ff" stroke="#63b8ff" points="269.23,-142.76 274.09,-133.34 264.42,-137.68 269.23,-142.76"/>
</a>
</g>
</g>
<!-- Node15&#45;&gt;Node5 -->
<g id="edge22_Node000015_Node000005" class="edge">
<title>Node15&#45;&gt;Node5</title>
<g id="a_edge22_Node000015_Node000005"><a xlink:title=" ">
<path fill="none" stroke="#63b8ff" d="M313.39,-111.59C340,-102.78 379.99,-89.53 409.47,-79.76"/>
<polygon fill="#63b8ff" stroke="#63b8ff" points="410.38,-83.15 418.77,-76.68 408.17,-76.51 410.38,-83.15"/>
</a>
</g>
</g>
<!-- Node15&#45;&gt;Node11 -->
<g id="edge23_Node000015_Node000011" class="edge">
<title>Node15&#45;&gt;Node11</title>
<g id="a_edge23_Node000015_Node000011"><a xlink:title=" ">
<path fill="none" stroke="#63b8ff" d="M255.94,-113.49C216.84,-103.39 147.57,-85.49 107.34,-75.1"/>
<polygon fill="#63b8ff" stroke="#63b8ff" points="108.35,-71.74 97.8,-72.63 106.6,-78.52 108.35,-71.74"/>
</a>
</g>
</g>
<!-- Node15&#45;&gt;Node12 -->
<g id="edge24_Node000015_Node000012" class="edge">
<title>Node15&#45;&gt;Node12</title>
<g id="a_edge24_Node000015_Node000012"><a xlink:title=" ">
<path fill="none" stroke="#63b8ff" d="M275.07,-111.59C267.06,-104.01 255.58,-93.13 245.97,-84.02"/>
<polygon fill="#63b8ff" stroke="#63b8ff" points="248.58,-81.68 238.91,-77.34 243.77,-86.76 248.58,-81.68"/>
</a>
</g>
</g>
</g>
</svg>
