<?xml version="1.0" encoding="UTF-8" standalone="no"?>
<!DOCTYPE svg PUBLIC "-//W3C//DTD SVG 1.1//EN"
 "http://www.w3.org/Graphics/SVG/1.1/DTD/svg11.dtd">
<!-- Generated by graphviz version 10.0.1 (0)
 -->
<!-- Title: src/Player.h Pages: 1 -->
<svg width="704pt" height="252pt"
 viewBox="0.00 0.00 703.88 252.00" xmlns="http://www.w3.org/2000/svg" xmlns:xlink="http://www.w3.org/1999/xlink">
<g id="graph0" class="graph" transform="scale(1 1) rotate(0) translate(4 248)">
<title>src/Player.h</title>
<!-- Node1 -->
<g id="Node000001" class="node">
<title>Node1</title>
<g id="a_Node000001"><a xlink:title="Represents a player.">
<polygon fill="#999999" stroke="#666666" points="568.62,-244 500.88,-244 500.88,-224 568.62,-224 568.62,-244"/>
<text text-anchor="middle" x="534.75" y="-230.5" font-family="Helvetica,sans-Serif" font-size="10.00">src/Player.h</text>
</a>
</g>
</g>
<!-- Node2 -->
<g id="Node000002" class="node">
<title>Node2</title>
<g id="a_Node000002"><a xlink:href="Game_8h.html" target="_top" xlink:title="Class for handling the game logic.">
<polygon fill="white" stroke="#666666" points="568.25,-132 501.25,-132 501.25,-112 568.25,-112 568.25,-132"/>
<text text-anchor="middle" x="534.75" y="-118.5" font-family="Helvetica,sans-Serif" font-size="10.00">src/Game.h</text>
</a>
</g>
</g>
<!-- Node1&#45;&gt;Node2 -->
<g id="edge1_Node000001_Node000002" class="edge">
<title>Node1&#45;&gt;Node2</title>
<g id="a_edge1_Node000001_Node000002"><a xlink:title=" ">
<path fill="none" stroke="#63b8ff" d="M528.22,-212.99C526.01,-205.27 523.84,-196.31 522.75,-188 520.13,-167.97 526.78,-144.76 531.2,-132.21"/>
<polygon fill="#63b8ff" stroke="#63b8ff" points="524.82,-213.86 531.11,-222.39 531.51,-211.8 524.82,-213.86"/>
</a>
</g>
</g>
<!-- Node7 -->
<g id="Node000007" class="node">
<title>Node7</title>
<g id="a_Node000007"><a xlink:href="Ghost_8h.html" target="_top" xlink:title="Represents a ghost enemy.">
<polygon fill="white" stroke="#666666" points="599.25,-188 532.25,-188 532.25,-168 599.25,-168 599.25,-188"/>
<text text-anchor="middle" x="565.75" y="-174.5" font-family="Helvetica,sans-Serif" font-size="10.00">src/Ghost.h</text>
</a>
</g>
</g>
<!-- Node1&#45;&gt;Node7 -->
<g id="edge6_Node000001_Node000007" class="edge">
<title>Node1&#45;&gt;Node7</title>
<g id="a_edge6_Node000001_Node000007"><a xlink:title=" ">
<path fill="none" stroke="#63b8ff" d="M545.73,-213.87C550.72,-205.19 556.38,-195.32 560.41,-188.3"/>
<polygon fill="#63b8ff" stroke="#63b8ff" points="542.85,-211.87 540.9,-222.28 548.92,-215.35 542.85,-211.87"/>
</a>
</g>
</g>
<!-- Node9 -->
<g id="Node000009" class="node">
<title>Node9</title>
<g id="a_Node000009"><a xlink:href="InteractiveObject_8h.html" target="_top" xlink:title="Base class for all interactive objects.">
<polygon fill="white" stroke="#666666" points="391.25,-188 276.25,-188 276.25,-168 391.25,-168 391.25,-188"/>
<text text-anchor="middle" x="333.75" y="-174.5" font-family="Helvetica,sans-Serif" font-size="10.00">src/InteractiveObject.h</text>
</a>
</g>
</g>
<!-- Node1&#45;&gt;Node9 -->
<g id="edge9_Node000001_Node000009" class="edge">
<title>Node1&#45;&gt;Node9</title>
<g id="a_edge9_Node000001_Node000009"><a xlink:title=" ">
<path fill="none" stroke="#63b8ff" d="M489.83,-220.93C453.35,-211.13 402.63,-197.5 369.03,-188.48"/>
<polygon fill="#63b8ff" stroke="#63b8ff" points="488.63,-224.23 499.19,-223.45 490.44,-217.47 488.63,-224.23"/>
</a>
</g>
</g>
<!-- Node19 -->
<g id="Node000019" class="node">
<title>Node19</title>
<g id="a_Node000019"><a xlink:href="Player_8cpp.html" target="_top" xlink:title="Represents a player.">
<polygon fill="white" stroke="#666666" points="695.88,-188 617.62,-188 617.62,-168 695.88,-168 695.88,-188"/>
<text text-anchor="middle" x="656.75" y="-174.5" font-family="Helvetica,sans-Serif" font-size="10.00">src/Player.cpp</text>
</a>
</g>
</g>
<!-- Node1&#45;&gt;Node19 -->
<g id="edge24_Node000001_Node000019" class="edge">
<title>Node1&#45;&gt;Node19</title>
<g id="a_edge24_Node000001_Node000019"><a xlink:title=" ">
<path fill="none" stroke="#63b8ff" d="M566.36,-219.01C588.04,-209.41 616.24,-196.93 635.33,-188.48"/>
<polygon fill="#63b8ff" stroke="#63b8ff" points="565.11,-215.73 557.38,-222.98 567.95,-222.13 565.11,-215.73"/>
</a>
</g>
</g>
<!-- Node3 -->
<g id="Node000003" class="node">
<title>Node3</title>
<g id="a_Node000003"><a xlink:href="Game_8cpp.html" target="_top" xlink:title="Class for handling the game logic.">
<polygon fill="white" stroke="#666666" points="359.5,-76 282,-76 282,-56 359.5,-56 359.5,-76"/>
<text text-anchor="middle" x="320.75" y="-62.5" font-family="Helvetica,sans-Serif" font-size="10.00">src/Game.cpp</text>
</a>
</g>
</g>
<!-- Node2&#45;&gt;Node3 -->
<g id="edge2_Node000002_Node000003" class="edge">
<title>Node2&#45;&gt;Node3</title>
<g id="a_edge2_Node000002_Node000003"><a xlink:title=" ">
<path fill="none" stroke="#63b8ff" d="M489.8,-109.66C450.71,-99.79 394.76,-85.68 358.1,-76.42"/>
<polygon fill="#63b8ff" stroke="#63b8ff" points="488.82,-113.02 499.37,-112.07 490.53,-106.23 488.82,-113.02"/>
</a>
</g>
</g>
<!-- Node4 -->
<g id="Node000004" class="node">
<title>Node4</title>
<g id="a_Node000004"><a xlink:href="GameManager_8h.html" target="_top" xlink:title="Handles the game loop and game states.">
<polygon fill="white" stroke="#666666" points="597.62,-76 493.88,-76 493.88,-56 597.62,-56 597.62,-76"/>
<text text-anchor="middle" x="545.75" y="-62.5" font-family="Helvetica,sans-Serif" font-size="10.00">src/GameManager.h</text>
</a>
</g>
</g>
<!-- Node2&#45;&gt;Node4 -->
<g id="edge3_Node000002_Node000004" class="edge">
<title>Node2&#45;&gt;Node4</title>
<g id="a_edge3_Node000002_Node000004"><a xlink:title=" ">
<path fill="none" stroke="#63b8ff" d="M538.94,-100.43C540.64,-92.11 542.5,-82.93 543.86,-76.3"/>
<polygon fill="#63b8ff" stroke="#63b8ff" points="535.53,-99.61 536.97,-110.11 542.39,-101.01 535.53,-99.61"/>
</a>
</g>
</g>
<!-- Node5 -->
<g id="Node000005" class="node">
<title>Node5</title>
<g id="a_Node000005"><a xlink:href="GameManager_8cpp.html" target="_top" xlink:title="Handles the game loop and game states.">
<polygon fill="white" stroke="#666666" points="546.88,-20 432.62,-20 432.62,0 546.88,0 546.88,-20"/>
<text text-anchor="middle" x="489.75" y="-6.5" font-family="Helvetica,sans-Serif" font-size="10.00">src/GameManager.cpp</text>
</a>
</g>
</g>
<!-- Node4&#45;&gt;Node5 -->
<g id="edge4_Node000004_Node000005" class="edge">
<title>Node4&#45;&gt;Node5</title>
<g id="a_edge4_Node000004_Node000005"><a xlink:title=" ">
<path fill="none" stroke="#63b8ff" d="M527.96,-47.85C518.5,-38.72 507.23,-27.86 499.39,-20.3"/>
<polygon fill="#63b8ff" stroke="#63b8ff" points="525.28,-50.12 534.91,-54.54 530.14,-45.08 525.28,-50.12"/>
</a>
</g>
</g>
<!-- Node6 -->
<g id="Node000006" class="node">
<title>Node6</title>
<g id="a_Node000006"><a xlink:href="main_8cpp.html" target="_top" xlink:title="Main function, initializes the game manager.">
<polygon fill="white" stroke="#666666" points="636.88,-20 564.62,-20 564.62,0 636.88,0 636.88,-20"/>
<text text-anchor="middle" x="600.75" y="-6.5" font-family="Helvetica,sans-Serif" font-size="10.00">src/main.cpp</text>
</a>
</g>
</g>
<!-- Node4&#45;&gt;Node6 -->
<g id="edge5_Node000004_Node000006" class="edge">
<title>Node4&#45;&gt;Node6</title>
<g id="a_edge5_Node000004_Node000006"><a xlink:title=" ">
<path fill="none" stroke="#63b8ff" d="M563.51,-47.57C572.74,-38.5 583.66,-27.78 591.28,-20.3"/>
<polygon fill="#63b8ff" stroke="#63b8ff" points="561.09,-45.03 556.41,-54.53 566,-50.03 561.09,-45.03"/>
</a>
</g>
</g>
<!-- Node7&#45;&gt;Node2 -->
<g id="edge7_Node000007_Node000002" class="edge">
<title>Node7&#45;&gt;Node2</title>
<g id="a_edge7_Node000007_Node000002"><a xlink:title=" ">
<path fill="none" stroke="#63b8ff" d="M554.77,-157.87C549.78,-149.19 544.12,-139.32 540.09,-132.3"/>
<polygon fill="#63b8ff" stroke="#63b8ff" points="551.58,-159.35 559.6,-166.28 557.65,-155.87 551.58,-159.35"/>
</a>
</g>
</g>
<!-- Node8 -->
<g id="Node000008" class="node">
<title>Node8</title>
<g id="a_Node000008"><a xlink:href="Ghost_8cpp.html" target="_top" xlink:title="Represents a ghost enemy.">
<polygon fill="white" stroke="#666666" points="663.5,-132 586,-132 586,-112 663.5,-112 663.5,-132"/>
<text text-anchor="middle" x="624.75" y="-118.5" font-family="Helvetica,sans-Serif" font-size="10.00">src/Ghost.cpp</text>
</a>
</g>
</g>
<!-- Node7&#45;&gt;Node8 -->
<g id="edge8_Node000007_Node000008" class="edge">
<title>Node7&#45;&gt;Node8</title>
<g id="a_edge8_Node000007_Node000008"><a xlink:title=" ">
<path fill="none" stroke="#63b8ff" d="M584.49,-159.85C594.46,-150.72 606.33,-139.86 614.59,-132.3"/>
<polygon fill="#63b8ff" stroke="#63b8ff" points="582.16,-157.24 577.14,-166.57 586.88,-162.4 582.16,-157.24"/>
</a>
</g>
</g>
<!-- Node9&#45;&gt;Node2 -->
<g id="edge16_Node000009_Node000002" class="edge">
<title>Node9&#45;&gt;Node2</title>
<g id="a_edge16_Node000009_Node000002"><a xlink:title=" ">
<path fill="none" stroke="#63b8ff" d="M379.72,-164.65C416.61,-154.74 467.55,-141.05 500.81,-132.12"/>
<polygon fill="#63b8ff" stroke="#63b8ff" points="378.97,-161.23 370.22,-167.2 380.79,-167.99 378.97,-161.23"/>
</a>
</g>
</g>
<!-- Node10 -->
<g id="Node000010" class="node">
<title>Node10</title>
<g id="a_Node000010"><a xlink:href="Cherry_8h.html" target="_top" xlink:title="Class representing a cherry collectible.">
<polygon fill="white" stroke="#666666" points="483,-132 414.5,-132 414.5,-112 483,-112 483,-132"/>
<text text-anchor="middle" x="448.75" y="-118.5" font-family="Helvetica,sans-Serif" font-size="10.00">src/Cherry.h</text>
</a>
</g>
</g>
<!-- Node9&#45;&gt;Node10 -->
<g id="edge10_Node000009_Node000010" class="edge">
<title>Node9&#45;&gt;Node10</title>
<g id="a_edge10_Node000009_Node000010"><a xlink:title=" ">
<path fill="none" stroke="#63b8ff" d="M364.11,-162.75C384.47,-153.18 410.73,-140.85 428.56,-132.48"/>
<polygon fill="#63b8ff" stroke="#63b8ff" points="362.72,-159.53 355.15,-166.95 365.69,-165.87 362.72,-159.53"/>
</a>
</g>
</g>
<!-- Node12 -->
<g id="Node000012" class="node">
<title>Node12</title>
<g id="a_Node000012"><a xlink:href="Coin_8h.html" target="_top" xlink:title="Class representing a coin collectible.">
<polygon fill="white" stroke="#666666" points="82.25,-132 21.25,-132 21.25,-112 82.25,-112 82.25,-132"/>
<text text-anchor="middle" x="51.75" y="-118.5" font-family="Helvetica,sans-Serif" font-size="10.00">src/Coin.h</text>
</a>
</g>
</g>
<!-- Node9&#45;&gt;Node12 -->
<g id="edge13_Node000009_Node000012" class="edge">
<title>Node9&#45;&gt;Node12</title>
<g id="a_edge13_Node000009_Node000012"><a xlink:title=" ">
<path fill="none" stroke="#63b8ff" d="M268.01,-165.63C219.03,-156.96 150.57,-144.44 90.75,-132 88.03,-131.43 85.21,-130.83 82.38,-130.2"/>
<polygon fill="#63b8ff" stroke="#63b8ff" points="267.14,-169.03 277.6,-167.32 268.36,-162.13 267.14,-169.03"/>
</a>
</g>
</g>
<!-- Node14 -->
<g id="Node000014" class="node">
<title>Node14</title>
<g id="a_Node000014"><a xlink:href="InteractiveObject_8cpp.html" target="_top" xlink:title="Base class for all interactive objects.">
<polygon fill="white" stroke="#666666" points="396.5,-132 271,-132 271,-112 396.5,-112 396.5,-132"/>
<text text-anchor="middle" x="333.75" y="-118.5" font-family="Helvetica,sans-Serif" font-size="10.00">src/InteractiveObject.cpp</text>
</a>
</g>
</g>
<!-- Node9&#45;&gt;Node14 -->
<g id="edge17_Node000009_Node000014" class="edge">
<title>Node9&#45;&gt;Node14</title>
<g id="a_edge17_Node000009_Node000014"><a xlink:title=" ">
<path fill="none" stroke="#63b8ff" d="M333.75,-156.13C333.75,-147.9 333.75,-138.85 333.75,-132.3"/>
<polygon fill="#63b8ff" stroke="#63b8ff" points="330.25,-156.08 333.75,-166.08 337.25,-156.08 330.25,-156.08"/>
</a>
</g>
</g>
<!-- Node15 -->
<g id="Node000015" class="node">
<title>Node15</title>
<g id="a_Node000015"><a xlink:href="Teleport_8h.html" target="_top" xlink:title="Represents a teleport object.">
<polygon fill="white" stroke="#666666" points="175.38,-132 100.12,-132 100.12,-112 175.38,-112 175.38,-132"/>
<text text-anchor="middle" x="137.75" y="-118.5" font-family="Helvetica,sans-Serif" font-size="10.00">src/Teleport.h</text>
</a>
</g>
</g>
<!-- Node9&#45;&gt;Node15 -->
<g id="edge18_Node000009_Node000015" class="edge">
<title>Node9&#45;&gt;Node15</title>
<g id="a_edge18_Node000009_Node000015"><a xlink:title=" ">
<path fill="none" stroke="#63b8ff" d="M288.6,-164.56C253.14,-154.79 204.51,-141.39 172.16,-132.48"/>
<polygon fill="#63b8ff" stroke="#63b8ff" points="287.58,-167.91 298.15,-167.19 289.44,-161.16 287.58,-167.91"/>
</a>
</g>
</g>
<!-- Node17 -->
<g id="Node000017" class="node">
<title>Node17</title>
<g id="a_Node000017"><a xlink:href="Wall_8h.html" target="_top" xlink:title="Represents a wall object.">
<polygon fill="white" stroke="#666666" points="252.5,-132 193,-132 193,-112 252.5,-112 252.5,-132"/>
<text text-anchor="middle" x="222.75" y="-118.5" font-family="Helvetica,sans-Serif" font-size="10.00">src/Wall.h</text>
</a>
</g>
</g>
<!-- Node9&#45;&gt;Node17 -->
<g id="edge21_Node000009_Node000017" class="edge">
<title>Node9&#45;&gt;Node17</title>
<g id="a_edge21_Node000009_Node000017"><a xlink:title=" ">
<path fill="none" stroke="#63b8ff" d="M304.18,-162.61C284.56,-153.07 259.37,-140.81 242.24,-132.48"/>
<polygon fill="#63b8ff" stroke="#63b8ff" points="302.53,-165.7 313.05,-166.93 305.59,-159.41 302.53,-165.7"/>
</a>
</g>
</g>
<!-- Node10&#45;&gt;Node3 -->
<g id="edge12_Node000010_Node000003" class="edge">
<title>Node10&#45;&gt;Node3</title>
<g id="a_edge12_Node000010_Node000003"><a xlink:title=" ">
<path fill="none" stroke="#63b8ff" d="M415.9,-107.14C393.11,-97.52 363.34,-84.97 343.22,-76.48"/>
<polygon fill="#63b8ff" stroke="#63b8ff" points="414.49,-110.34 425.06,-111.01 417.21,-103.89 414.49,-110.34"/>
</a>
</g>
</g>
<!-- Node11 -->
<g id="Node000011" class="node">
<title>Node11</title>
<g id="a_Node000011"><a xlink:href="Cherry_8cpp.html" target="_top" xlink:title="Class representing a cherry collectible.">
<polygon fill="white" stroke="#666666" points="476.25,-76 397.25,-76 397.25,-56 476.25,-56 476.25,-76"/>
<text text-anchor="middle" x="436.75" y="-62.5" font-family="Helvetica,sans-Serif" font-size="10.00">src/Cherry.cpp</text>
</a>
</g>
</g>
<!-- Node10&#45;&gt;Node11 -->
<g id="edge11_Node000010_Node000011" class="edge">
<title>Node10&#45;&gt;Node11</title>
<g id="a_edge11_Node000010_Node000011"><a xlink:title=" ">
<path fill="none" stroke="#63b8ff" d="M444.18,-100.43C442.33,-92.11 440.29,-82.93 438.82,-76.3"/>
<polygon fill="#63b8ff" stroke="#63b8ff" points="440.75,-101.11 446.33,-110.12 447.58,-99.6 440.75,-101.11"/>
</a>
</g>
</g>
<!-- Node12&#45;&gt;Node3 -->
<g id="edge15_Node000012_Node000003" class="edge">
<title>Node12&#45;&gt;Node3</title>
<g id="a_edge15_Node000012_Node000003"><a xlink:title=" ">
<path fill="none" stroke="#63b8ff" d="M93.42,-111.5C141.58,-101.46 230.51,-84.3 281.91,-74.44"/>
<polygon fill="#63b8ff" stroke="#63b8ff" points="92.93,-108.03 83.87,-113.52 94.37,-114.88 92.93,-108.03"/>
</a>
</g>
</g>
<!-- Node13 -->
<g id="Node000013" class="node">
<title>Node13</title>
<g id="a_Node000013"><a xlink:href="Coin_8cpp.html" target="_top" xlink:title="Class representing a coin collectible.">
<polygon fill="white" stroke="#666666" points="71.5,-76 0,-76 0,-56 71.5,-56 71.5,-76"/>
<text text-anchor="middle" x="35.75" y="-62.5" font-family="Helvetica,sans-Serif" font-size="10.00">src/Coin.cpp</text>
</a>
</g>
</g>
<!-- Node12&#45;&gt;Node13 -->
<g id="edge14_Node000012_Node000013" class="edge">
<title>Node12&#45;&gt;Node13</title>
<g id="a_edge14_Node000012_Node000013"><a xlink:title=" ">
<path fill="none" stroke="#63b8ff" d="M45.74,-100.71C43.25,-92.32 40.49,-83.01 38.51,-76.3"/>
<polygon fill="#63b8ff" stroke="#63b8ff" points="42.34,-101.55 48.53,-110.14 49.05,-99.56 42.34,-101.55"/>
</a>
</g>
</g>
<!-- Node15&#45;&gt;Node3 -->
<g id="edge19_Node000015_Node000003" class="edge">
<title>Node15&#45;&gt;Node3</title>
<g id="a_edge19_Node000015_Node000003"><a xlink:title=" ">
<path fill="none" stroke="#63b8ff" d="M180.34,-108.43C213.41,-98.67 258.55,-85.35 288.63,-76.48"/>
<polygon fill="#63b8ff" stroke="#63b8ff" points="179.68,-104.98 171.08,-111.17 181.66,-111.69 179.68,-104.98"/>
</a>
</g>
</g>
<!-- Node16 -->
<g id="Node000016" class="node">
<title>Node16</title>
<g id="a_Node000016"><a xlink:href="Teleport_8cpp.html" target="_top" xlink:title="Represents a teleport object.">
<polygon fill="white" stroke="#666666" points="175.62,-76 89.88,-76 89.88,-56 175.62,-56 175.62,-76"/>
<text text-anchor="middle" x="132.75" y="-62.5" font-family="Helvetica,sans-Serif" font-size="10.00">src/Teleport.cpp</text>
</a>
</g>
</g>
<!-- Node15&#45;&gt;Node16 -->
<g id="edge20_Node000015_Node000016" class="edge">
<title>Node15&#45;&gt;Node16</title>
<g id="a_edge20_Node000015_Node000016"><a xlink:title=" ">
<path fill="none" stroke="#63b8ff" d="M135.82,-100.13C135.06,-91.9 134.22,-82.85 133.61,-76.3"/>
<polygon fill="#63b8ff" stroke="#63b8ff" points="132.33,-100.45 136.74,-110.09 139.3,-99.81 132.33,-100.45"/>
</a>
</g>
</g>
<!-- Node17&#45;&gt;Node3 -->
<g id="edge22_Node000017_Node000003" class="edge">
<title>Node17&#45;&gt;Node3</title>
<g id="a_edge22_Node000017_Node000003"><a xlink:title=" ">
<path fill="none" stroke="#63b8ff" d="M249.83,-106.08C267,-96.62 288.7,-84.66 303.55,-76.48"/>
<polygon fill="#63b8ff" stroke="#63b8ff" points="248.22,-102.97 241.15,-110.86 251.59,-109.1 248.22,-102.97"/>
</a>
</g>
</g>
<!-- Node18 -->
<g id="Node000018" class="node">
<title>Node18</title>
<g id="a_Node000018"><a xlink:href="Wall_8cpp.html" target="_top" xlink:title="Represents a wall object.">
<polygon fill="white" stroke="#666666" points="263.75,-76 193.75,-76 193.75,-56 263.75,-56 263.75,-76"/>
<text text-anchor="middle" x="228.75" y="-62.5" font-family="Helvetica,sans-Serif" font-size="10.00">src/Wall.cpp</text>
</a>
</g>
</g>
<!-- Node17&#45;&gt;Node18 -->
<g id="edge23_Node000017_Node000018" class="edge">
<title>Node17&#45;&gt;Node18</title>
<g id="a_edge23_Node000017_Node000018"><a xlink:title=" ">
<path fill="none" stroke="#63b8ff" d="M225.04,-100.43C225.96,-92.11 226.98,-82.93 227.72,-76.3"/>
<polygon fill="#63b8ff" stroke="#63b8ff" points="221.59,-99.76 223.96,-110.09 228.55,-100.54 221.59,-99.76"/>
</a>
</g>
</g>
</g>
</svg>
