<?xml version="1.0" encoding="UTF-8" standalone="no"?>
<!DOCTYPE svg PUBLIC "-//W3C//DTD SVG 1.1//EN"
 "http://www.w3.org/Graphics/SVG/1.1/DTD/svg11.dtd">
<!-- Generated by graphviz version 2.43.0 (0)
 -->
<!-- Title: src/Player.cpp Pages: 1 -->
<svg width="598pt" height="420pt"
 viewBox="0.00 0.00 598.46 420.00" xmlns="http://www.w3.org/2000/svg" xmlns:xlink="http://www.w3.org/1999/xlink">
<g id="graph0" class="graph" transform="scale(1 1) rotate(0) translate(4 416)">
<title>src/Player.cpp</title>
<polygon fill="white" stroke="transparent" points="-4,4 -4,-416 594.46,-416 594.46,4 -4,4"/>
<!-- Node1 -->
<g id="node1" class="node">
<title>Node1</title>
<g id="a_node1"><a xlink:title="Represents a player.">
<polygon fill="#bfbfbf" stroke="black" points="252,-392.5 252,-411.5 336,-411.5 336,-392.5 252,-392.5"/>
<text text-anchor="middle" x="294" y="-399.5" font-family="Helvetica,sans-Serif" font-size="10.00">src/Player.cpp</text>
</a>
</g>
</g>
<!-- Node2 -->
<g id="node2" class="node">
<title>Node2</title>
<g id="a_node2"><a xlink:href="Player_8h.html" target="_top" xlink:title="Represents a player.">
<polygon fill="white" stroke="black" points="208,-336.5 208,-355.5 264,-355.5 264,-336.5 208,-336.5"/>
<text text-anchor="middle" x="236" y="-343.5" font-family="Helvetica,sans-Serif" font-size="10.00">Player.h</text>
</a>
</g>
</g>
<!-- Node1&#45;&gt;Node2 -->
<g id="edge1" class="edge">
<title>Node1&#45;&gt;Node2</title>
<path fill="none" stroke="midnightblue" d="M284.68,-392.32C276.11,-384.34 263.19,-372.31 252.81,-362.65"/>
<polygon fill="midnightblue" stroke="midnightblue" points="255.19,-360.09 245.49,-355.83 250.42,-365.21 255.19,-360.09"/>
</g>
<!-- Node15 -->
<g id="node15" class="node">
<title>Node15</title>
<g id="a_node15"><a xlink:href="Helpers_8h.html" target="_top" xlink:title=" ">
<polygon fill="white" stroke="black" points="262.5,-112.5 262.5,-131.5 325.5,-131.5 325.5,-112.5 262.5,-112.5"/>
<text text-anchor="middle" x="294" y="-119.5" font-family="Helvetica,sans-Serif" font-size="10.00">Helpers.h</text>
</a>
</g>
</g>
<!-- Node1&#45;&gt;Node15 -->
<g id="edge28" class="edge">
<title>Node1&#45;&gt;Node15</title>
<path fill="none" stroke="midnightblue" d="M294,-392.44C294,-373.94 294,-328.81 294,-291 294,-291 294,-291 294,-233 294,-200.95 294,-163.64 294,-141.75"/>
<polygon fill="midnightblue" stroke="midnightblue" points="297.5,-141.56 294,-131.56 290.5,-141.56 297.5,-141.56"/>
</g>
<!-- Node16 -->
<g id="node16" class="node">
<title>Node16</title>
<g id="a_node16"><a xlink:title=" ">
<polygon fill="white" stroke="#bfbfbf" points="322,-336.5 322,-355.5 366,-355.5 366,-336.5 322,-336.5"/>
<text text-anchor="middle" x="344" y="-343.5" font-family="Helvetica,sans-Serif" font-size="10.00">cfloat</text>
</a>
</g>
</g>
<!-- Node1&#45;&gt;Node16 -->
<g id="edge29" class="edge">
<title>Node1&#45;&gt;Node16</title>
<path fill="none" stroke="midnightblue" d="M302.26,-392.08C309.46,-384.3 320.11,-372.8 328.85,-363.37"/>
<polygon fill="midnightblue" stroke="midnightblue" points="331.67,-365.47 335.9,-355.75 326.53,-360.71 331.67,-365.47"/>
</g>
<!-- Node3 -->
<g id="node3" class="node">
<title>Node3</title>
<g id="a_node3"><a xlink:href="MovingObject_8h.html" target="_top" xlink:title="Base class for all moving objects.">
<polygon fill="white" stroke="black" points="347.5,-280.5 347.5,-299.5 440.5,-299.5 440.5,-280.5 347.5,-280.5"/>
<text text-anchor="middle" x="394" y="-287.5" font-family="Helvetica,sans-Serif" font-size="10.00">MovingObject.h</text>
</a>
</g>
</g>
<!-- Node2&#45;&gt;Node3 -->
<g id="edge2" class="edge">
<title>Node2&#45;&gt;Node3</title>
<path fill="none" stroke="midnightblue" d="M261.04,-336.44C287.62,-327.36 329.81,-312.94 359.52,-302.78"/>
<polygon fill="midnightblue" stroke="midnightblue" points="360.75,-306.06 369.08,-299.52 358.49,-299.44 360.75,-306.06"/>
</g>
<!-- Node10 -->
<g id="node10" class="node">
<title>Node10</title>
<g id="a_node10"><a xlink:href="Map_8h.html" target="_top" xlink:title="Class for handling the game map.">
<polygon fill="white" stroke="black" points="210.5,-224.5 210.5,-243.5 257.5,-243.5 257.5,-224.5 210.5,-224.5"/>
<text text-anchor="middle" x="234" y="-231.5" font-family="Helvetica,sans-Serif" font-size="10.00">Map.h</text>
</a>
</g>
</g>
<!-- Node2&#45;&gt;Node10 -->
<g id="edge26" class="edge">
<title>Node2&#45;&gt;Node10</title>
<path fill="none" stroke="midnightblue" d="M235.84,-336.37C235.52,-318.62 234.78,-277.67 234.34,-253.6"/>
<polygon fill="midnightblue" stroke="midnightblue" points="237.84,-253.53 234.16,-243.59 230.84,-253.65 237.84,-253.53"/>
</g>
<!-- Node11 -->
<g id="node11" class="node">
<title>Node11</title>
<g id="a_node11"><a xlink:title=" ">
<polygon fill="white" stroke="#bfbfbf" points="54,-56.5 54,-75.5 98,-75.5 98,-56.5 54,-56.5"/>
<text text-anchor="middle" x="76" y="-63.5" font-family="Helvetica,sans-Serif" font-size="10.00">string</text>
</a>
</g>
</g>
<!-- Node2&#45;&gt;Node11 -->
<g id="edge27" class="edge">
<title>Node2&#45;&gt;Node11</title>
<path fill="none" stroke="midnightblue" d="M207.53,-344.51C144.76,-341.77 0,-325.63 0,-235 0,-235 0,-235 0,-177 0,-137.28 33.96,-101.5 56.48,-82.15"/>
<polygon fill="midnightblue" stroke="midnightblue" points="58.98,-84.63 64.46,-75.57 54.52,-79.24 58.98,-84.63"/>
</g>
<!-- Node4 -->
<g id="node4" class="node">
<title>Node4</title>
<g id="a_node4"><a xlink:href="GameObject_8h.html" target="_top" xlink:title="Base class for all game objects.">
<polygon fill="white" stroke="black" points="422,-224.5 422,-243.5 508,-243.5 508,-224.5 422,-224.5"/>
<text text-anchor="middle" x="465" y="-231.5" font-family="Helvetica,sans-Serif" font-size="10.00">GameObject.h</text>
</a>
</g>
</g>
<!-- Node3&#45;&gt;Node4 -->
<g id="edge3" class="edge">
<title>Node3&#45;&gt;Node4</title>
<path fill="none" stroke="midnightblue" d="M405.41,-280.32C416.11,-272.18 432.34,-259.84 445.16,-250.09"/>
<polygon fill="midnightblue" stroke="midnightblue" points="447.54,-252.67 453.39,-243.83 443.31,-247.1 447.54,-252.67"/>
</g>
<!-- Node5 -->
<g id="node5" class="node">
<title>Node5</title>
<g id="a_node5"><a xlink:href="Enums_8h.html" target="_top" xlink:title=" ">
<polygon fill="white" stroke="black" points="436.5,-56.5 436.5,-75.5 495.5,-75.5 495.5,-56.5 436.5,-56.5"/>
<text text-anchor="middle" x="466" y="-63.5" font-family="Helvetica,sans-Serif" font-size="10.00">Enums.h</text>
</a>
</g>
</g>
<!-- Node3&#45;&gt;Node5 -->
<g id="edge9" class="edge">
<title>Node3&#45;&gt;Node5</title>
<path fill="none" stroke="midnightblue" d="M440.83,-281.94C490.36,-271.48 564.4,-246.37 587,-188 606.25,-138.27 539,-98.78 497.1,-79.63"/>
<polygon fill="midnightblue" stroke="midnightblue" points="498.39,-76.37 487.83,-75.53 495.56,-82.77 498.39,-76.37"/>
</g>
<!-- Node7 -->
<g id="node7" class="node">
<title>Node7</title>
<g id="a_node7"><a xlink:href="GamePhase_8h.html" target="_top" xlink:title="Handles the game phase and level.">
<polygon fill="white" stroke="black" points="494,-168.5 494,-187.5 578,-187.5 578,-168.5 494,-168.5"/>
<text text-anchor="middle" x="536" y="-175.5" font-family="Helvetica,sans-Serif" font-size="10.00">GamePhase.h</text>
</a>
</g>
</g>
<!-- Node3&#45;&gt;Node7 -->
<g id="edge25" class="edge">
<title>Node3&#45;&gt;Node7</title>
<path fill="none" stroke="midnightblue" d="M440.59,-282.44C466.36,-276.5 497.11,-265.25 517,-244 528.66,-231.54 533.21,-212.3 534.96,-197.99"/>
<polygon fill="midnightblue" stroke="midnightblue" points="538.47,-198.05 535.84,-187.78 531.49,-197.44 538.47,-198.05"/>
</g>
<!-- Node8 -->
<g id="node8" class="node">
<title>Node8</title>
<g id="a_node8"><a xlink:title=" ">
<polygon fill="white" stroke="#bfbfbf" points="380,-168.5 380,-187.5 438,-187.5 438,-168.5 380,-168.5"/>
<text text-anchor="middle" x="409" y="-175.5" font-family="Helvetica,sans-Serif" font-size="10.00">memory</text>
</a>
</g>
</g>
<!-- Node3&#45;&gt;Node8 -->
<g id="edge10" class="edge">
<title>Node3&#45;&gt;Node8</title>
<path fill="none" stroke="midnightblue" d="M395.18,-280.37C397.6,-262.62 403.18,-221.67 406.46,-197.6"/>
<polygon fill="midnightblue" stroke="midnightblue" points="409.95,-197.97 407.83,-187.59 403.01,-197.03 409.95,-197.97"/>
</g>
<!-- Node9 -->
<g id="node9" class="node">
<title>Node9</title>
<g id="a_node9"><a xlink:title=" ">
<polygon fill="white" stroke="#bfbfbf" points="382,-112.5 382,-131.5 438,-131.5 438,-112.5 382,-112.5"/>
<text text-anchor="middle" x="410" y="-119.5" font-family="Helvetica,sans-Serif" font-size="10.00">optional</text>
</a>
</g>
</g>
<!-- Node3&#45;&gt;Node9 -->
<g id="edge11" class="edge">
<title>Node3&#45;&gt;Node9</title>
<path fill="none" stroke="midnightblue" d="M389.19,-280.22C378.72,-259.9 355.98,-208.27 371,-168 375.17,-156.81 383.52,-146.56 391.42,-138.68"/>
<polygon fill="midnightblue" stroke="midnightblue" points="394.06,-141 399.01,-131.63 389.3,-135.87 394.06,-141"/>
</g>
<!-- Node3&#45;&gt;Node10 -->
<g id="edge12" class="edge">
<title>Node3&#45;&gt;Node10</title>
<path fill="none" stroke="midnightblue" d="M368.65,-280.44C341.26,-271.2 297.49,-256.43 267.33,-246.25"/>
<polygon fill="midnightblue" stroke="midnightblue" points="268.26,-242.87 257.67,-242.99 266.02,-249.5 268.26,-242.87"/>
</g>
<!-- Node4&#45;&gt;Node5 -->
<g id="edge4" class="edge">
<title>Node4&#45;&gt;Node5</title>
<path fill="none" stroke="midnightblue" d="M465.05,-224.08C465.21,-197.95 465.67,-121.21 465.89,-85.58"/>
<polygon fill="midnightblue" stroke="midnightblue" points="469.39,-85.59 465.95,-75.57 462.39,-85.55 469.39,-85.59"/>
</g>
<!-- Node4&#45;&gt;Node7 -->
<g id="edge6" class="edge">
<title>Node4&#45;&gt;Node7</title>
<path fill="none" stroke="midnightblue" d="M476.41,-224.32C487.11,-216.18 503.34,-203.84 516.16,-194.09"/>
<polygon fill="midnightblue" stroke="midnightblue" points="518.54,-196.67 524.39,-187.83 514.31,-191.1 518.54,-196.67"/>
</g>
<!-- Node4&#45;&gt;Node8 -->
<g id="edge8" class="edge">
<title>Node4&#45;&gt;Node8</title>
<path fill="none" stroke="midnightblue" d="M456,-224.32C447.81,-216.42 435.49,-204.55 425.53,-194.94"/>
<polygon fill="midnightblue" stroke="midnightblue" points="427.79,-192.26 418.16,-187.83 422.93,-197.29 427.79,-192.26"/>
</g>
<!-- Node6 -->
<g id="node6" class="node">
<title>Node6</title>
<g id="a_node6"><a xlink:title=" ">
<polygon fill="white" stroke="#bfbfbf" points="443.5,-0.5 443.5,-19.5 488.5,-19.5 488.5,-0.5 443.5,-0.5"/>
<text text-anchor="middle" x="466" y="-7.5" font-family="Helvetica,sans-Serif" font-size="10.00">utility</text>
</a>
</g>
</g>
<!-- Node5&#45;&gt;Node6 -->
<g id="edge5" class="edge">
<title>Node5&#45;&gt;Node6</title>
<path fill="none" stroke="midnightblue" d="M466,-56.08C466,-49.01 466,-38.86 466,-29.99"/>
<polygon fill="midnightblue" stroke="midnightblue" points="469.5,-29.75 466,-19.75 462.5,-29.75 469.5,-29.75"/>
</g>
<!-- Node7&#45;&gt;Node5 -->
<g id="edge7" class="edge">
<title>Node7&#45;&gt;Node5</title>
<path fill="none" stroke="midnightblue" d="M530.51,-168.37C519.01,-150.3 492.2,-108.18 477.01,-84.31"/>
<polygon fill="midnightblue" stroke="midnightblue" points="479.79,-82.15 471.47,-75.59 473.88,-85.91 479.79,-82.15"/>
</g>
<!-- Node10&#45;&gt;Node11 -->
<g id="edge13" class="edge">
<title>Node10&#45;&gt;Node11</title>
<path fill="none" stroke="midnightblue" d="M210.14,-226.64C188.99,-219.97 158.39,-207.69 138,-188 107.69,-158.74 89.5,-111.45 81.27,-85.51"/>
<polygon fill="midnightblue" stroke="midnightblue" points="84.59,-84.37 78.35,-75.81 77.88,-86.39 84.59,-84.37"/>
</g>
<!-- Node12 -->
<g id="node12" class="node">
<title>Node12</title>
<g id="a_node12"><a xlink:title=" ">
<polygon fill="white" stroke="#bfbfbf" points="210.5,-56.5 210.5,-75.5 257.5,-75.5 257.5,-56.5 210.5,-56.5"/>
<text text-anchor="middle" x="234" y="-63.5" font-family="Helvetica,sans-Serif" font-size="10.00">vector</text>
</a>
</g>
</g>
<!-- Node10&#45;&gt;Node12 -->
<g id="edge14" class="edge">
<title>Node10&#45;&gt;Node12</title>
<path fill="none" stroke="midnightblue" d="M216.8,-224.47C180.83,-205.45 103.35,-157.67 133,-112 147.84,-89.14 177.29,-77.79 200.58,-72.22"/>
<polygon fill="midnightblue" stroke="midnightblue" points="201.4,-75.63 210.44,-70.11 199.93,-68.78 201.4,-75.63"/>
</g>
<!-- Node13 -->
<g id="node13" class="node">
<title>Node13</title>
<g id="a_node13"><a xlink:href="Window_8h.html" target="_top" xlink:title="Class for handling ncurses windows.">
<polygon fill="white" stroke="black" points="202,-168.5 202,-187.5 266,-187.5 266,-168.5 202,-168.5"/>
<text text-anchor="middle" x="234" y="-175.5" font-family="Helvetica,sans-Serif" font-size="10.00">Window.h</text>
</a>
</g>
</g>
<!-- Node10&#45;&gt;Node13 -->
<g id="edge15" class="edge">
<title>Node10&#45;&gt;Node13</title>
<path fill="none" stroke="midnightblue" d="M234,-224.08C234,-217.01 234,-206.86 234,-197.99"/>
<polygon fill="midnightblue" stroke="midnightblue" points="237.5,-197.75 234,-187.75 230.5,-197.75 237.5,-197.75"/>
</g>
<!-- Node13&#45;&gt;Node5 -->
<g id="edge20" class="edge">
<title>Node13&#45;&gt;Node5</title>
<path fill="none" stroke="midnightblue" d="M254.3,-168.42C274.82,-159.64 307.37,-145.41 335,-132 352.17,-123.67 355.96,-120.6 373,-112 394.95,-100.92 420.06,-88.8 438.66,-79.93"/>
<polygon fill="midnightblue" stroke="midnightblue" points="440.21,-83.07 447.73,-75.61 437.2,-76.75 440.21,-83.07"/>
</g>
<!-- Node13&#45;&gt;Node9 -->
<g id="edge18" class="edge">
<title>Node13&#45;&gt;Node9</title>
<path fill="none" stroke="midnightblue" d="M261.89,-168.44C291.75,-159.28 339.31,-144.69 372.46,-134.52"/>
<polygon fill="midnightblue" stroke="midnightblue" points="373.71,-137.8 382.24,-131.52 371.66,-131.1 373.71,-137.8"/>
</g>
<!-- Node13&#45;&gt;Node11 -->
<g id="edge17" class="edge">
<title>Node13&#45;&gt;Node11</title>
<path fill="none" stroke="midnightblue" d="M206.58,-168.42C185.24,-160.92 155.56,-148.63 133,-132 114.76,-118.56 98.22,-98.37 87.71,-84.07"/>
<polygon fill="midnightblue" stroke="midnightblue" points="90.36,-81.76 81.71,-75.65 84.66,-85.82 90.36,-81.76"/>
</g>
<!-- Node13&#45;&gt;Node12 -->
<g id="edge19" class="edge">
<title>Node13&#45;&gt;Node12</title>
<path fill="none" stroke="midnightblue" d="M234,-168.37C234,-150.62 234,-109.67 234,-85.6"/>
<polygon fill="midnightblue" stroke="midnightblue" points="237.5,-85.59 234,-75.59 230.5,-85.59 237.5,-85.59"/>
</g>
<!-- Node14 -->
<g id="node14" class="node">
<title>Node14</title>
<g id="a_node14"><a xlink:title=" ">
<polygon fill="white" stroke="#bfbfbf" points="142.5,-112.5 142.5,-131.5 205.5,-131.5 205.5,-112.5 142.5,-112.5"/>
<text text-anchor="middle" x="174" y="-119.5" font-family="Helvetica,sans-Serif" font-size="10.00">ncurses.h</text>
</a>
</g>
</g>
<!-- Node13&#45;&gt;Node14 -->
<g id="edge16" class="edge">
<title>Node13&#45;&gt;Node14</title>
<path fill="none" stroke="midnightblue" d="M224.36,-168.32C215.49,-160.34 202.13,-148.31 191.39,-138.65"/>
<polygon fill="midnightblue" stroke="midnightblue" points="193.59,-135.92 183.82,-131.83 188.91,-141.13 193.59,-135.92"/>
</g>
<!-- Node13&#45;&gt;Node15 -->
<g id="edge21" class="edge">
<title>Node13&#45;&gt;Node15</title>
<path fill="none" stroke="midnightblue" d="M243.64,-168.32C252.51,-160.34 265.87,-148.31 276.61,-138.65"/>
<polygon fill="midnightblue" stroke="midnightblue" points="279.09,-141.13 284.18,-131.83 274.41,-135.92 279.09,-141.13"/>
</g>
<!-- Node15&#45;&gt;Node5 -->
<g id="edge22" class="edge">
<title>Node15&#45;&gt;Node5</title>
<path fill="none" stroke="midnightblue" d="M321.25,-112.44C350.44,-103.28 396.92,-88.69 429.31,-78.52"/>
<polygon fill="midnightblue" stroke="midnightblue" points="430.38,-81.85 438.87,-75.52 428.28,-75.17 430.38,-81.85"/>
</g>
<!-- Node15&#45;&gt;Node11 -->
<g id="edge23" class="edge">
<title>Node15&#45;&gt;Node11</title>
<path fill="none" stroke="midnightblue" d="M262.3,-113.15C221.04,-102.93 149.34,-85.17 107.95,-74.92"/>
<polygon fill="midnightblue" stroke="midnightblue" points="108.67,-71.49 98.12,-72.48 106.99,-78.28 108.67,-71.49"/>
</g>
<!-- Node15&#45;&gt;Node12 -->
<g id="edge24" class="edge">
<title>Node15&#45;&gt;Node12</title>
<path fill="none" stroke="midnightblue" d="M284.36,-112.32C275.49,-104.34 262.13,-92.31 251.39,-82.65"/>
<polygon fill="midnightblue" stroke="midnightblue" points="253.59,-79.92 243.82,-75.83 248.91,-85.13 253.59,-79.92"/>
</g>
</g>
</svg>
