<?xml version="1.0" encoding="UTF-8" standalone="no"?>
<!DOCTYPE svg PUBLIC "-//W3C//DTD SVG 1.1//EN"
 "http://www.w3.org/Graphics/SVG/1.1/DTD/svg11.dtd">
<!-- Generated by graphviz version 10.0.1 (0)
 -->
<!-- Title: src/Player.h Pages: 1 -->
<svg width="575pt" height="364pt"
 viewBox="0.00 0.00 574.56 364.00" xmlns="http://www.w3.org/2000/svg" xmlns:xlink="http://www.w3.org/1999/xlink">
<g id="graph0" class="graph" transform="scale(1 1) rotate(0) translate(4 360)">
<title>src/Player.h</title>
<!-- Node1 -->
<g id="Node000001" class="node">
<title>Node1</title>
<g id="a_Node000001"><a xlink:title="Represents a player.">
<polygon fill="#999999" stroke="#666666" points="438.44,-356 370.69,-356 370.69,-336 438.44,-336 438.44,-356"/>
<text text-anchor="middle" x="404.56" y="-342.5" font-family="Helvetica,sans-Serif" font-size="10.00">src/Player.h</text>
</a>
</g>
</g>
<!-- Node2 -->
<g id="Node000002" class="node">
<title>Node2</title>
<g id="a_Node000002"><a xlink:href="MovingObject_8h.html" target="_top" xlink:title="Base class for all moving objects.">
<polygon fill="white" stroke="#666666" points="229.69,-300 145.44,-300 145.44,-280 229.69,-280 229.69,-300"/>
<text text-anchor="middle" x="187.56" y="-286.5" font-family="Helvetica,sans-Serif" font-size="10.00">MovingObject.h</text>
</a>
</g>
</g>
<!-- Node1&#45;&gt;Node2 -->
<g id="edge1_Node000001_Node000002" class="edge">
<title>Node1&#45;&gt;Node2</title>
<g id="a_edge1_Node000001_Node000002"><a xlink:title=" ">
<path fill="none" stroke="#63b8ff" d="M370.66,-336.56C334.7,-327.61 277.56,-313.4 236.68,-303.22"/>
<polygon fill="#63b8ff" stroke="#63b8ff" points="237.63,-299.85 227.08,-300.83 235.94,-306.64 237.63,-299.85"/>
</a>
</g>
</g>
<!-- Node9 -->
<g id="Node000009" class="node">
<title>Node9</title>
<g id="a_Node000009"><a xlink:href="Map_8h.html" target="_top" xlink:title="Class for handling the game map.">
<polygon fill="white" stroke="#666666" points="426.06,-244 383.06,-244 383.06,-224 426.06,-224 426.06,-244"/>
<text text-anchor="middle" x="404.56" y="-230.5" font-family="Helvetica,sans-Serif" font-size="10.00">Map.h</text>
</a>
</g>
</g>
<!-- Node1&#45;&gt;Node9 -->
<g id="edge25_Node000001_Node000009" class="edge">
<title>Node1&#45;&gt;Node9</title>
<g id="a_edge25_Node000001_Node000009"><a xlink:title=" ">
<path fill="none" stroke="#63b8ff" d="M404.56,-335.62C404.56,-318.01 404.56,-279.59 404.56,-255.65"/>
<polygon fill="#63b8ff" stroke="#63b8ff" points="408.06,-255.87 404.56,-245.87 401.06,-255.87 408.06,-255.87"/>
</a>
</g>
</g>
<!-- Node10 -->
<g id="Node000010" class="node">
<title>Node10</title>
<g id="a_Node000010"><a xlink:title=" ">
<polygon fill="#e0e0e0" stroke="#999999" points="510.56,-76 470.56,-76 470.56,-56 510.56,-56 510.56,-76"/>
<text text-anchor="middle" x="490.56" y="-62.5" font-family="Helvetica,sans-Serif" font-size="10.00">string</text>
</a>
</g>
</g>
<!-- Node1&#45;&gt;Node10 -->
<g id="edge26_Node000001_Node000010" class="edge">
<title>Node1&#45;&gt;Node10</title>
<g id="a_edge26_Node000001_Node000010"><a xlink:title=" ">
<path fill="none" stroke="#63b8ff" d="M438.92,-337.85C486.47,-325.72 566.56,-296.19 566.56,-235 566.56,-235 566.56,-235 566.56,-177 566.56,-138.24 534.23,-103.24 511.74,-83.59"/>
<polygon fill="#63b8ff" stroke="#63b8ff" points="514.19,-81.08 504.28,-77.34 509.7,-86.44 514.19,-81.08"/>
</a>
</g>
</g>
<!-- Node3 -->
<g id="Node000003" class="node">
<title>Node3</title>
<g id="a_Node000003"><a xlink:href="GameObject_8h.html" target="_top" xlink:title="Base class for all game objects.">
<polygon fill="white" stroke="#666666" points="159.06,-244 80.06,-244 80.06,-224 159.06,-224 159.06,-244"/>
<text text-anchor="middle" x="119.56" y="-230.5" font-family="Helvetica,sans-Serif" font-size="10.00">GameObject.h</text>
</a>
</g>
</g>
<!-- Node2&#45;&gt;Node3 -->
<g id="edge2_Node000002_Node000003" class="edge">
<title>Node2&#45;&gt;Node3</title>
<g id="a_edge2_Node000002_Node000003"><a xlink:title=" ">
<path fill="none" stroke="#63b8ff" d="M175.72,-279.59C165.87,-271.77 151.63,-260.46 139.96,-251.19"/>
<polygon fill="#63b8ff" stroke="#63b8ff" points="142.47,-248.72 132.46,-245.24 138.11,-254.2 142.47,-248.72"/>
</a>
</g>
</g>
<!-- Node4 -->
<g id="Node000004" class="node">
<title>Node4</title>
<g id="a_Node000004"><a xlink:href="Enums_8h.html" target="_top" xlink:title=" ">
<polygon fill="white" stroke="#666666" points="146.06,-76 91.06,-76 91.06,-56 146.06,-56 146.06,-76"/>
<text text-anchor="middle" x="118.56" y="-62.5" font-family="Helvetica,sans-Serif" font-size="10.00">Enums.h</text>
</a>
</g>
</g>
<!-- Node2&#45;&gt;Node4 -->
<g id="edge8_Node000002_Node000004" class="edge">
<title>Node2&#45;&gt;Node4</title>
<g id="a_edge8_Node000002_Node000004"><a xlink:title=" ">
<path fill="none" stroke="#63b8ff" d="M145.31,-281.56C98.38,-270.6 26.21,-244.88 3.56,-188 -15.23,-140.79 45.66,-101.49 85.91,-81.41"/>
<polygon fill="#63b8ff" stroke="#63b8ff" points="87.27,-84.64 94.76,-77.15 84.23,-78.33 87.27,-84.64"/>
</a>
</g>
</g>
<!-- Node6 -->
<g id="Node000006" class="node">
<title>Node6</title>
<g id="a_Node000006"><a xlink:href="GamePhase_8h.html" target="_top" xlink:title="Handles the game phase and level.">
<polygon fill="white" stroke="#666666" points="90.69,-188 12.44,-188 12.44,-168 90.69,-168 90.69,-188"/>
<text text-anchor="middle" x="51.56" y="-174.5" font-family="Helvetica,sans-Serif" font-size="10.00">GamePhase.h</text>
</a>
</g>
</g>
<!-- Node2&#45;&gt;Node6 -->
<g id="edge24_Node000002_Node000006" class="edge">
<title>Node2&#45;&gt;Node6</title>
<g id="a_edge24_Node000002_Node000006"><a xlink:title=" ">
<path fill="none" stroke="#63b8ff" d="M145.11,-282.04C120.54,-275.92 90.77,-264.63 71.56,-244 60.24,-231.84 55.32,-213.4 53.19,-199.26"/>
<polygon fill="#63b8ff" stroke="#63b8ff" points="56.71,-199.26 52.11,-189.72 49.76,-200.04 56.71,-199.26"/>
</a>
</g>
</g>
<!-- Node7 -->
<g id="Node000007" class="node">
<title>Node7</title>
<g id="a_Node000007"><a xlink:title=" ">
<polygon fill="#e0e0e0" stroke="#999999" points="198.19,-188 146.94,-188 146.94,-168 198.19,-168 198.19,-188"/>
<text text-anchor="middle" x="172.56" y="-174.5" font-family="Helvetica,sans-Serif" font-size="10.00">memory</text>
</a>
</g>
</g>
<!-- Node2&#45;&gt;Node7 -->
<g id="edge9_Node000002_Node000007" class="edge">
<title>Node2&#45;&gt;Node7</title>
<g id="a_edge9_Node000002_Node000007"><a xlink:title=" ">
<path fill="none" stroke="#63b8ff" d="M186.29,-279.62C183.88,-262.01 178.65,-223.59 175.38,-199.65"/>
<polygon fill="#63b8ff" stroke="#63b8ff" points="178.86,-199.29 174.04,-189.85 171.93,-200.24 178.86,-199.29"/>
</a>
</g>
</g>
<!-- Node8 -->
<g id="Node000008" class="node">
<title>Node8</title>
<g id="a_Node000008"><a xlink:title=" ">
<polygon fill="#e0e0e0" stroke="#999999" points="196.44,-132 146.69,-132 146.69,-112 196.44,-112 196.44,-132"/>
<text text-anchor="middle" x="171.56" y="-118.5" font-family="Helvetica,sans-Serif" font-size="10.00">optional</text>
</a>
</g>
</g>
<!-- Node2&#45;&gt;Node8 -->
<g id="edge10_Node000002_Node000008" class="edge">
<title>Node2&#45;&gt;Node8</title>
<g id="a_edge10_Node000002_Node000008"><a xlink:title=" ">
<path fill="none" stroke="#63b8ff" d="M192.18,-279.62C201.73,-258.92 221.59,-207.98 207.56,-168 203.99,-157.82 197.05,-148.23 190.2,-140.55"/>
<polygon fill="#63b8ff" stroke="#63b8ff" points="192.93,-138.33 183.47,-133.56 187.89,-143.19 192.93,-138.33"/>
</a>
</g>
</g>
<!-- Node2&#45;&gt;Node9 -->
<g id="edge11_Node000002_Node000009" class="edge">
<title>Node2&#45;&gt;Node9</title>
<g id="a_edge11_Node000002_Node000009"><a xlink:title=" ">
<path fill="none" stroke="#63b8ff" d="M225.36,-279.59C266.72,-269.3 332.35,-252.97 371.66,-243.19"/>
<polygon fill="#63b8ff" stroke="#63b8ff" points="372.39,-246.61 381.25,-240.8 370.7,-239.82 372.39,-246.61"/>
</a>
</g>
</g>
<!-- Node3&#45;&gt;Node4 -->
<g id="edge3_Node000003_Node000004" class="edge">
<title>Node3&#45;&gt;Node4</title>
<g id="a_edge3_Node000003_Node000004"><a xlink:title=" ">
<path fill="none" stroke="#63b8ff" d="M119.51,-223.6C119.35,-197.46 118.91,-123.48 118.69,-87.36"/>
<polygon fill="#63b8ff" stroke="#63b8ff" points="122.19,-87.79 118.63,-77.81 115.19,-87.83 122.19,-87.79"/>
</a>
</g>
</g>
<!-- Node3&#45;&gt;Node6 -->
<g id="edge5_Node000003_Node000006" class="edge">
<title>Node3&#45;&gt;Node6</title>
<g id="a_edge5_Node000003_Node000006"><a xlink:title=" ">
<path fill="none" stroke="#63b8ff" d="M107.72,-223.59C97.87,-215.77 83.63,-204.46 71.96,-195.19"/>
<polygon fill="#63b8ff" stroke="#63b8ff" points="74.47,-192.72 64.46,-189.24 70.11,-198.2 74.47,-192.72"/>
</a>
</g>
</g>
<!-- Node3&#45;&gt;Node7 -->
<g id="edge7_Node000003_Node000007" class="edge">
<title>Node3&#45;&gt;Node7</title>
<g id="a_edge7_Node000003_Node000007"><a xlink:title=" ">
<path fill="none" stroke="#63b8ff" d="M128.8,-223.59C136.17,-216.08 146.7,-205.35 155.58,-196.3"/>
<polygon fill="#63b8ff" stroke="#63b8ff" points="157.87,-198.97 162.38,-189.38 152.88,-194.06 157.87,-198.97"/>
</a>
</g>
</g>
<!-- Node5 -->
<g id="Node000005" class="node">
<title>Node5</title>
<g id="a_Node000005"><a xlink:title=" ">
<polygon fill="#e0e0e0" stroke="#999999" points="138.19,-20 98.94,-20 98.94,0 138.19,0 138.19,-20"/>
<text text-anchor="middle" x="118.56" y="-6.5" font-family="Helvetica,sans-Serif" font-size="10.00">utility</text>
</a>
</g>
</g>
<!-- Node4&#45;&gt;Node5 -->
<g id="edge4_Node000004_Node000005" class="edge">
<title>Node4&#45;&gt;Node5</title>
<g id="a_edge4_Node000004_Node000005"><a xlink:title=" ">
<path fill="none" stroke="#63b8ff" d="M118.56,-55.59C118.56,-49.01 118.56,-39.96 118.56,-31.73"/>
<polygon fill="#63b8ff" stroke="#63b8ff" points="122.06,-31.81 118.56,-21.81 115.06,-31.81 122.06,-31.81"/>
</a>
</g>
</g>
<!-- Node6&#45;&gt;Node4 -->
<g id="edge6_Node000006_Node000004" class="edge">
<title>Node6&#45;&gt;Node4</title>
<g id="a_edge6_Node000006_Node000004"><a xlink:title=" ">
<path fill="none" stroke="#63b8ff" d="M57.28,-167.62C68.25,-149.6 92.49,-109.81 106.98,-86.02"/>
<polygon fill="#63b8ff" stroke="#63b8ff" points="109.87,-88.01 112.08,-77.65 103.89,-84.37 109.87,-88.01"/>
</a>
</g>
</g>
<!-- Node9&#45;&gt;Node10 -->
<g id="edge12_Node000009_Node000010" class="edge">
<title>Node9&#45;&gt;Node10</title>
<g id="a_edge12_Node000009_Node000010"><a xlink:title=" ">
<path fill="none" stroke="#63b8ff" d="M416.12,-223.75C425.95,-215.34 439.83,-202.12 448.56,-188 468.58,-155.65 480.6,-112.49 486.38,-87.43"/>
<polygon fill="#63b8ff" stroke="#63b8ff" points="489.74,-88.4 488.45,-77.89 482.91,-86.91 489.74,-88.4"/>
</a>
</g>
</g>
<!-- Node11 -->
<g id="Node000011" class="node">
<title>Node11</title>
<g id="a_Node000011"><a xlink:title=" ">
<polygon fill="#e0e0e0" stroke="#999999" points="341.06,-76 298.06,-76 298.06,-56 341.06,-56 341.06,-76"/>
<text text-anchor="middle" x="319.56" y="-62.5" font-family="Helvetica,sans-Serif" font-size="10.00">vector</text>
</a>
</g>
</g>
<!-- Node9&#45;&gt;Node11 -->
<g id="edge13_Node000009_Node000011" class="edge">
<title>Node9&#45;&gt;Node11</title>
<g id="a_edge13_Node000009_Node000011"><a xlink:title=" ">
<path fill="none" stroke="#63b8ff" d="M411.39,-223.62C426.18,-202.02 457.99,-147.9 433.56,-112 415.53,-85.49 379.22,-74.6 352.41,-70.12"/>
<polygon fill="#63b8ff" stroke="#63b8ff" points="353.11,-66.69 342.71,-68.74 352.12,-73.62 353.11,-66.69"/>
</a>
</g>
</g>
<!-- Node12 -->
<g id="Node000012" class="node">
<title>Node12</title>
<g id="a_Node000012"><a xlink:href="Window_8h.html" target="_top" xlink:title="Class for handling ncurses windows.">
<polygon fill="white" stroke="#666666" points="348.56,-188 290.56,-188 290.56,-168 348.56,-168 348.56,-188"/>
<text text-anchor="middle" x="319.56" y="-174.5" font-family="Helvetica,sans-Serif" font-size="10.00">Window.h</text>
</a>
</g>
</g>
<!-- Node9&#45;&gt;Node12 -->
<g id="edge14_Node000009_Node000012" class="edge">
<title>Node9&#45;&gt;Node12</title>
<g id="a_edge14_Node000009_Node000012"><a xlink:title=" ">
<path fill="none" stroke="#63b8ff" d="M389.76,-223.59C377.16,-215.59 358.81,-203.93 344.03,-194.54"/>
<polygon fill="#63b8ff" stroke="#63b8ff" points="346.08,-191.7 335.76,-189.29 342.33,-197.61 346.08,-191.7"/>
</a>
</g>
</g>
<!-- Node12&#45;&gt;Node4 -->
<g id="edge19_Node000012_Node000004" class="edge">
<title>Node12&#45;&gt;Node4</title>
<g id="a_edge19_Node000012_Node000004"><a xlink:title=" ">
<path fill="none" stroke="#63b8ff" d="M303.45,-167.53C281.47,-154.69 240.8,-131.15 205.56,-112 186.26,-101.51 164.29,-90.15 147.25,-81.47"/>
<polygon fill="#63b8ff" stroke="#63b8ff" points="149.2,-78.53 138.7,-77.12 146.03,-84.77 149.2,-78.53"/>
</a>
</g>
</g>
<!-- Node12&#45;&gt;Node8 -->
<g id="edge17_Node000012_Node000008" class="edge">
<title>Node12&#45;&gt;Node8</title>
<g id="a_edge17_Node000012_Node000008"><a xlink:title=" ">
<path fill="none" stroke="#63b8ff" d="M293.79,-167.59C269.76,-158.83 233.74,-145.68 207.02,-135.93"/>
<polygon fill="#63b8ff" stroke="#63b8ff" points="208.57,-132.78 197.98,-132.64 206.17,-139.35 208.57,-132.78"/>
</a>
</g>
</g>
<!-- Node12&#45;&gt;Node10 -->
<g id="edge16_Node000012_Node000010" class="edge">
<title>Node12&#45;&gt;Node10</title>
<g id="a_edge16_Node000012_Node000010"><a xlink:title=" ">
<path fill="none" stroke="#63b8ff" d="M348.59,-169.69C372.81,-162.66 407.47,-150.37 433.56,-132 451.54,-119.35 467.6,-99.9 478.06,-85.57"/>
<polygon fill="#63b8ff" stroke="#63b8ff" points="480.88,-87.65 483.76,-77.45 475.15,-83.62 480.88,-87.65"/>
</a>
</g>
</g>
<!-- Node12&#45;&gt;Node11 -->
<g id="edge18_Node000012_Node000011" class="edge">
<title>Node12&#45;&gt;Node11</title>
<g id="a_edge18_Node000012_Node000011"><a xlink:title=" ">
<path fill="none" stroke="#63b8ff" d="M307.96,-167.84C294.11,-155.71 273.75,-133.36 281.56,-112 285.35,-101.65 292.69,-92.03 299.91,-84.37"/>
<polygon fill="#63b8ff" stroke="#63b8ff" points="302.34,-86.9 307.04,-77.41 297.44,-81.89 302.34,-86.9"/>
</a>
</g>
</g>
<!-- Node13 -->
<g id="Node000013" class="node">
<title>Node13</title>
<g id="a_Node000013"><a xlink:title=" ">
<polygon fill="#e0e0e0" stroke="#999999" points="424.94,-132 366.19,-132 366.19,-112 424.94,-112 424.94,-132"/>
<text text-anchor="middle" x="395.56" y="-118.5" font-family="Helvetica,sans-Serif" font-size="10.00">ncurses.h</text>
</a>
</g>
</g>
<!-- Node12&#45;&gt;Node13 -->
<g id="edge15_Node000012_Node000013" class="edge">
<title>Node12&#45;&gt;Node13</title>
<g id="a_edge15_Node000012_Node000013"><a xlink:title=" ">
<path fill="none" stroke="#63b8ff" d="M332.8,-167.59C343.85,-159.74 359.85,-148.38 372.92,-139.09"/>
<polygon fill="#63b8ff" stroke="#63b8ff" points="374.86,-142 380.99,-133.36 370.81,-136.3 374.86,-142"/>
</a>
</g>
</g>
<!-- Node14 -->
<g id="Node000014" class="node">
<title>Node14</title>
<g id="a_Node000014"><a xlink:href="Helpers_8h.html" target="_top" xlink:title=" ">
<polygon fill="white" stroke="#666666" points="348.56,-132 290.56,-132 290.56,-112 348.56,-112 348.56,-132"/>
<text text-anchor="middle" x="319.56" y="-118.5" font-family="Helvetica,sans-Serif" font-size="10.00">Helpers.h</text>
</a>
</g>
</g>
<!-- Node12&#45;&gt;Node14 -->
<g id="edge20_Node000012_Node000014" class="edge">
<title>Node12&#45;&gt;Node14</title>
<g id="a_edge20_Node000012_Node000014"><a xlink:title=" ">
<path fill="none" stroke="#63b8ff" d="M319.56,-167.59C319.56,-161.01 319.56,-151.96 319.56,-143.73"/>
<polygon fill="#63b8ff" stroke="#63b8ff" points="323.06,-143.81 319.56,-133.81 316.06,-143.81 323.06,-143.81"/>
</a>
</g>
</g>
<!-- Node14&#45;&gt;Node4 -->
<g id="edge21_Node000014_Node000004" class="edge">
<title>Node14&#45;&gt;Node4</title>
<g id="a_edge21_Node000014_Node000004"><a xlink:title=" ">
<path fill="none" stroke="#63b8ff" d="M290.34,-113.15C255.26,-103.72 196.31,-87.89 157.42,-77.44"/>
<polygon fill="#63b8ff" stroke="#63b8ff" points="158.56,-74.12 147.99,-74.91 156.74,-80.88 158.56,-74.12"/>
</a>
</g>
</g>
<!-- Node14&#45;&gt;Node10 -->
<g id="edge22_Node000014_Node000010" class="edge">
<title>Node14&#45;&gt;Node10</title>
<g id="a_edge22_Node000014_Node000010"><a xlink:title=" ">
<path fill="none" stroke="#63b8ff" d="M348.96,-111.72C379.75,-101.99 427.91,-86.79 459.36,-76.85"/>
<polygon fill="#63b8ff" stroke="#63b8ff" points="460.2,-80.26 468.68,-73.91 458.09,-73.58 460.2,-80.26"/>
</a>
</g>
</g>
<!-- Node14&#45;&gt;Node11 -->
<g id="edge23_Node000014_Node000011" class="edge">
<title>Node14&#45;&gt;Node11</title>
<g id="a_edge23_Node000014_Node000011"><a xlink:title=" ">
<path fill="none" stroke="#63b8ff" d="M319.56,-111.59C319.56,-105.01 319.56,-95.96 319.56,-87.73"/>
<polygon fill="#63b8ff" stroke="#63b8ff" points="323.06,-87.81 319.56,-77.81 316.06,-87.81 323.06,-87.81"/>
</a>
</g>
</g>
</g>
</svg>
