<?xml version="1.0" encoding="UTF-8" standalone="no"?>
<!DOCTYPE svg PUBLIC "-//W3C//DTD SVG 1.1//EN"
 "http://www.w3.org/Graphics/SVG/1.1/DTD/svg11.dtd">
<!-- Generated by graphviz version 10.0.1 (0)
 -->
<!-- Title: src/ScatterBehavior.h Pages: 1 -->
<svg width="320pt" height="84pt"
 viewBox="0.00 0.00 319.88 84.00" xmlns="http://www.w3.org/2000/svg" xmlns:xlink="http://www.w3.org/1999/xlink">
<g id="graph0" class="graph" transform="scale(1 1) rotate(0) translate(4 80)">
<title>src/ScatterBehavior.h</title>
<!-- Node1 -->
<g id="Node000001" class="node">
<title>Node1</title>
<g id="a_Node000001"><a xlink:title="Class for the scatter behavior of the ghosts.">
<polygon fill="#999999" stroke="#666666" points="189.62,-76 79.88,-76 79.88,-56 189.62,-56 189.62,-76"/>
<text text-anchor="middle" x="134.75" y="-62.5" font-family="Helvetica,sans-Serif" font-size="10.00">src/ScatterBehavior.h</text>
</a>
</g>
</g>
<!-- Node2 -->
<g id="Node000002" class="node">
<title>Node2</title>
<g id="a_Node000002"><a xlink:href="Game_8cpp.html" target="_top" xlink:title="Class for handling the game logic.">
<polygon fill="white" stroke="#666666" points="77.5,-20 0,-20 0,0 77.5,0 77.5,-20"/>
<text text-anchor="middle" x="38.75" y="-6.5" font-family="Helvetica,sans-Serif" font-size="10.00">src/Game.cpp</text>
</a>
</g>
</g>
<!-- Node1&#45;&gt;Node2 -->
<g id="edge1_Node000001_Node000002" class="edge">
<title>Node1&#45;&gt;Node2</title>
<g id="a_edge1_Node000001_Node000002"><a xlink:title=" ">
<path fill="none" stroke="#63b8ff" d="M108.23,-50.08C91.4,-40.62 70.15,-28.66 55.6,-20.48"/>
<polygon fill="#63b8ff" stroke="#63b8ff" points="106.28,-53 116.71,-54.85 109.71,-46.9 106.28,-53"/>
</a>
</g>
</g>
<!-- Node3 -->
<g id="Node000003" class="node">
<title>Node3</title>
<g id="a_Node000003"><a xlink:href="Ghost_8cpp.html" target="_top" xlink:title="Represents a ghost enemy.">
<polygon fill="white" stroke="#666666" points="173.5,-20 96,-20 96,0 173.5,0 173.5,-20"/>
<text text-anchor="middle" x="134.75" y="-6.5" font-family="Helvetica,sans-Serif" font-size="10.00">src/Ghost.cpp</text>
</a>
</g>
</g>
<!-- Node1&#45;&gt;Node3 -->
<g id="edge2_Node000001_Node000003" class="edge">
<title>Node1&#45;&gt;Node3</title>
<g id="a_edge2_Node000001_Node000003"><a xlink:title=" ">
<path fill="none" stroke="#63b8ff" d="M134.75,-44.13C134.75,-35.9 134.75,-26.85 134.75,-20.3"/>
<polygon fill="#63b8ff" stroke="#63b8ff" points="131.25,-44.08 134.75,-54.08 138.25,-44.08 131.25,-44.08"/>
</a>
</g>
</g>
<!-- Node4 -->
<g id="Node000004" class="node">
<title>Node4</title>
<g id="a_Node000004"><a xlink:href="ScatterBehavior_8cpp.html" target="_top" xlink:title="Class for the scatter behavior of the ghosts.">
<polygon fill="white" stroke="#666666" points="311.88,-20 191.62,-20 191.62,0 311.88,0 311.88,-20"/>
<text text-anchor="middle" x="251.75" y="-6.5" font-family="Helvetica,sans-Serif" font-size="10.00">src/ScatterBehavior.cpp</text>
</a>
</g>
</g>
<!-- Node1&#45;&gt;Node4 -->
<g id="edge3_Node000001_Node000004" class="edge">
<title>Node1&#45;&gt;Node4</title>
<g id="a_edge3_Node000001_Node000004"><a xlink:title=" ">
<path fill="none" stroke="#63b8ff" d="M165.35,-50.88C186.11,-41.3 212.99,-28.89 231.21,-20.48"/>
<polygon fill="#63b8ff" stroke="#63b8ff" points="164.12,-47.59 156.5,-54.96 167.05,-53.95 164.12,-47.59"/>
</a>
</g>
</g>
</g>
</svg>
