<?xml version="1.0" encoding="UTF-8" standalone="no"?>
<!DOCTYPE svg PUBLIC "-//W3C//DTD SVG 1.1//EN"
 "http://www.w3.org/Graphics/SVG/1.1/DTD/svg11.dtd">
<!-- Generated by graphviz version 10.0.1 (0)
 -->
<!-- Title: FrightenedBehavior::handleBehavior Pages: 1 -->
<svg width="281pt" height="104pt"
 viewBox="0.00 0.00 280.75 104.00" xmlns="http://www.w3.org/2000/svg" xmlns:xlink="http://www.w3.org/1999/xlink">
<g id="graph0" class="graph" transform="scale(1 1) rotate(0) translate(4 100)">
<title>FrightenedBehavior::handleBehavior</title>
<!-- Node1 -->
<g id="Node000001" class="node">
<title>Node1</title>
<g id="a_Node000001"><a xlink:title="Handles the behavior of the enemy when changing the game phase.">
<polygon fill="#999999" stroke="#666666" points="100,-64 0,-64 0,-32 100,-32 100,-64"/>
<text text-anchor="start" x="8" y="-50.5" font-family="Helvetica,sans-Serif" font-size="10.00">FrightenedBehavior</text>
<text text-anchor="middle" x="50" y="-38.5" font-family="Helvetica,sans-Serif" font-size="10.00">::handleBehavior</text>
</a>
</g>
</g>
<!-- Node2 -->
<g id="Node000002" class="node">
<title>Node2</title>
<g id="a_Node000002"><a xlink:href="classGameObject.html#a5c863188a52395ff7a0d2a508c06c2fa" target="_top" xlink:title="Sets the object color.">
<polygon fill="white" stroke="#666666" points="261.12,-96 147.62,-96 147.62,-76 261.12,-76 261.12,-96"/>
<text text-anchor="middle" x="204.38" y="-82.5" font-family="Helvetica,sans-Serif" font-size="10.00">GameObject::setColor</text>
</a>
</g>
</g>
<!-- Node1&#45;&gt;Node2 -->
<g id="edge1_Node000001_Node000002" class="edge">
<title>Node1&#45;&gt;Node2</title>
<g id="a_edge1_Node000001_Node000002"><a xlink:title=" ">
<path fill="none" stroke="#63b8ff" d="M100.47,-60.34C116.43,-64.32 134.18,-68.74 150.38,-72.78"/>
<polygon fill="#63b8ff" stroke="#63b8ff" points="149.29,-76.12 159.84,-75.14 150.98,-69.33 149.29,-76.12"/>
</a>
</g>
</g>
<!-- Node3 -->
<g id="Node000003" class="node">
<title>Node3</title>
<g id="a_Node000003"><a xlink:href="classMovingObject.html#a6866cb38b81682fc594939196117e2e3" target="_top" xlink:title="Sets the invincibility of the object.">
<polygon fill="white" stroke="#666666" points="272.75,-58 136,-58 136,-38 272.75,-38 272.75,-58"/>
<text text-anchor="middle" x="204.38" y="-44.5" font-family="Helvetica,sans-Serif" font-size="10.00">MovingObject::setInvincible</text>
</a>
</g>
</g>
<!-- Node1&#45;&gt;Node3 -->
<g id="edge2_Node000001_Node000003" class="edge">
<title>Node1&#45;&gt;Node3</title>
<g id="a_edge2_Node000001_Node000003"><a xlink:title=" ">
<path fill="none" stroke="#63b8ff" d="M100.47,-48C108.09,-48 116.12,-48 124.19,-48"/>
<polygon fill="#63b8ff" stroke="#63b8ff" points="124.08,-51.5 134.08,-48 124.08,-44.5 124.08,-51.5"/>
</a>
</g>
</g>
<!-- Node4 -->
<g id="Node000004" class="node">
<title>Node4</title>
<g id="a_Node000004"><a xlink:href="classMovingObject.html#a0fa9f24bfcb0d40d1af3ee26dedfa47d" target="_top" xlink:title="Sets the speed of the object.">
<polygon fill="white" stroke="#666666" points="266,-20 142.75,-20 142.75,0 266,0 266,-20"/>
<text text-anchor="middle" x="204.38" y="-6.5" font-family="Helvetica,sans-Serif" font-size="10.00">MovingObject::setSpeed</text>
</a>
</g>
</g>
<!-- Node1&#45;&gt;Node4 -->
<g id="edge3_Node000001_Node000004" class="edge">
<title>Node1&#45;&gt;Node4</title>
<g id="a_edge3_Node000001_Node000004"><a xlink:title=" ">
<path fill="none" stroke="#63b8ff" d="M100.47,-35.66C116.43,-31.68 134.18,-27.26 150.38,-23.22"/>
<polygon fill="#63b8ff" stroke="#63b8ff" points="150.98,-26.67 159.84,-20.86 149.29,-19.88 150.98,-26.67"/>
</a>
</g>
</g>
</g>
</svg>
