<?xml version="1.0" encoding="UTF-8" standalone="no"?>
<!DOCTYPE svg PUBLIC "-//W3C//DTD SVG 1.1//EN"
 "http://www.w3.org/Graphics/SVG/1.1/DTD/svg11.dtd">
<!-- Generated by graphviz version 2.43.0 (0)
 -->
<!-- Title: ScatterBehavior::move Pages: 1 -->
<svg width="344pt" height="180pt"
 viewBox="0.00 0.00 344.00 180.00" xmlns="http://www.w3.org/2000/svg" xmlns:xlink="http://www.w3.org/1999/xlink">
<g id="graph0" class="graph" transform="scale(1 1) rotate(0) translate(4 176)">
<title>ScatterBehavior::move</title>
<polygon fill="white" stroke="transparent" points="-4,4 -4,-176 340,-176 340,4 -4,4"/>
<!-- Node1 -->
<g id="node1" class="node">
<title>Node1</title>
<g id="a_node1"><a xlink:title="Gets the ideal direction to move the enemy.">
<polygon fill="#bfbfbf" stroke="black" points="0,-76.5 0,-95.5 128,-95.5 128,-76.5 0,-76.5"/>
<text text-anchor="middle" x="64" y="-83.5" font-family="Helvetica,sans-Serif" font-size="10.00">ScatterBehavior::move</text>
</a>
</g>
</g>
<!-- Node2 -->
<g id="node2" class="node">
<title>Node2</title>
<g id="a_node2"><a xlink:href="classMovingObject.html#aa5908d2d3540224c20f0a2b0d468b38d" target="_top" xlink:title="Returns the previous direction of the object.">
<polygon fill="white" stroke="black" points="164,-152.5 164,-171.5 336,-171.5 336,-152.5 164,-152.5"/>
<text text-anchor="middle" x="250" y="-159.5" font-family="Helvetica,sans-Serif" font-size="10.00">MovingObject::getPrevDirection</text>
</a>
</g>
</g>
<!-- Node1&#45;&gt;Node2 -->
<g id="edge1" class="edge">
<title>Node1&#45;&gt;Node2</title>
<path fill="none" stroke="midnightblue" d="M78.43,-95.51C96.88,-108.15 131.47,-130.34 164,-143 170.68,-145.6 177.81,-147.89 184.98,-149.9"/>
<polygon fill="midnightblue" stroke="midnightblue" points="184.2,-153.31 194.76,-152.45 185.97,-146.54 184.2,-153.31"/>
</g>
<!-- Node3 -->
<g id="node3" class="node">
<title>Node3</title>
<g id="a_node3"><a xlink:href="classMap.html#a3fa542ef9ff897893adc5a290b224114" target="_top" xlink:title="Gets the map size.">
<polygon fill="white" stroke="black" points="210,-114.5 210,-133.5 290,-133.5 290,-114.5 210,-114.5"/>
<text text-anchor="middle" x="250" y="-121.5" font-family="Helvetica,sans-Serif" font-size="10.00">Map::getSize</text>
</a>
</g>
</g>
<!-- Node1&#45;&gt;Node3 -->
<g id="edge2" class="edge">
<title>Node1&#45;&gt;Node3</title>
<path fill="none" stroke="midnightblue" d="M111.43,-95.59C138.34,-101.15 172.2,-108.14 199.59,-113.8"/>
<polygon fill="midnightblue" stroke="midnightblue" points="199.24,-117.3 209.75,-115.89 200.66,-110.44 199.24,-117.3"/>
</g>
<!-- Node4 -->
<g id="node4" class="node">
<title>Node4</title>
<g id="a_node4"><a xlink:href="classGameObject.html#a642a2dddae915a8155ee76d8ac7770f7" target="_top" xlink:title="Gets the x coordinate.">
<polygon fill="white" stroke="black" points="197,-76.5 197,-95.5 303,-95.5 303,-76.5 197,-76.5"/>
<text text-anchor="middle" x="250" y="-83.5" font-family="Helvetica,sans-Serif" font-size="10.00">GameObject::getX</text>
</a>
</g>
</g>
<!-- Node1&#45;&gt;Node4 -->
<g id="edge3" class="edge">
<title>Node1&#45;&gt;Node4</title>
<path fill="none" stroke="midnightblue" d="M128.06,-86C146.94,-86 167.62,-86 186.46,-86"/>
<polygon fill="midnightblue" stroke="midnightblue" points="186.71,-89.5 196.71,-86 186.71,-82.5 186.71,-89.5"/>
</g>
<!-- Node5 -->
<g id="node5" class="node">
<title>Node5</title>
<g id="a_node5"><a xlink:href="classGameObject.html#a87383d4bc7d63107d8d3507249c8a4ec" target="_top" xlink:title="Gets the y coordinate.">
<polygon fill="white" stroke="black" points="197.5,-38.5 197.5,-57.5 302.5,-57.5 302.5,-38.5 197.5,-38.5"/>
<text text-anchor="middle" x="250" y="-45.5" font-family="Helvetica,sans-Serif" font-size="10.00">GameObject::getY</text>
</a>
</g>
</g>
<!-- Node1&#45;&gt;Node5 -->
<g id="edge4" class="edge">
<title>Node1&#45;&gt;Node5</title>
<path fill="none" stroke="midnightblue" d="M111.43,-76.41C136.15,-71.31 166.74,-64.99 192.79,-59.61"/>
<polygon fill="midnightblue" stroke="midnightblue" points="193.82,-62.97 202.9,-57.52 192.4,-56.11 193.82,-62.97"/>
</g>
<!-- Node6 -->
<g id="node6" class="node">
<title>Node6</title>
<g id="a_node6"><a xlink:href="classMap.html#a9daf0b81095fe118f2e52fd783ea1bf8" target="_top" xlink:title="Checks if there is a wall at the given coordinates.">
<polygon fill="white" stroke="black" points="208.5,-0.5 208.5,-19.5 291.5,-19.5 291.5,-0.5 208.5,-0.5"/>
<text text-anchor="middle" x="250" y="-7.5" font-family="Helvetica,sans-Serif" font-size="10.00">Map::isWallAt</text>
</a>
</g>
</g>
<!-- Node1&#45;&gt;Node6 -->
<g id="edge5" class="edge">
<title>Node1&#45;&gt;Node6</title>
<path fill="none" stroke="midnightblue" d="M78.43,-76.49C96.88,-63.85 131.47,-41.66 164,-29 174.9,-24.76 186.97,-21.35 198.51,-18.65"/>
<polygon fill="midnightblue" stroke="midnightblue" points="199.46,-22.02 208.48,-16.46 197.96,-15.19 199.46,-22.02"/>
</g>
</g>
</svg>
