<?xml version="1.0" encoding="UTF-8" standalone="no"?>
<!DOCTYPE svg PUBLIC "-//W3C//DTD SVG 1.1//EN"
 "http://www.w3.org/Graphics/SVG/1.1/DTD/svg11.dtd">
<!-- Generated by graphviz version 10.0.1 (0)
 -->
<!-- Title: ChaseBehavior::move Pages: 1 -->
<svg width="312pt" height="142pt"
 viewBox="0.00 0.00 311.50 142.00" xmlns="http://www.w3.org/2000/svg" xmlns:xlink="http://www.w3.org/1999/xlink">
<g id="graph0" class="graph" transform="scale(1 1) rotate(0) translate(4 138)">
<title>ChaseBehavior::move</title>
<!-- Node1 -->
<g id="Node000001" class="node">
<title>Node1</title>
<g id="a_Node000001"><a xlink:title="Gets the ideal direction to move the enemy.">
<polygon fill="#999999" stroke="#666666" points="112.75,-77 0,-77 0,-57 112.75,-57 112.75,-77"/>
<text text-anchor="middle" x="56.38" y="-63.5" font-family="Helvetica,sans-Serif" font-size="10.00">ChaseBehavior::move</text>
</a>
</g>
</g>
<!-- Node2 -->
<g id="Node000002" class="node">
<title>Node2</title>
<g id="a_Node000002"><a xlink:href="classMovingObject.html#aa5908d2d3540224c20f0a2b0d468b38d" target="_top" xlink:title="Returns the previous direction of the object.">
<polygon fill="white" stroke="#666666" points="303.5,-134 148.75,-134 148.75,-114 303.5,-114 303.5,-134"/>
<text text-anchor="middle" x="226.12" y="-120.5" font-family="Helvetica,sans-Serif" font-size="10.00">MovingObject::getPrevDirection</text>
</a>
</g>
</g>
<!-- Node1&#45;&gt;Node2 -->
<g id="edge1_Node000001_Node000002" class="edge">
<title>Node1&#45;&gt;Node2</title>
<g id="a_edge1_Node000001_Node000002"><a xlink:title=" ">
<path fill="none" stroke="#63b8ff" d="M79.92,-77.49C98.2,-85.73 124.77,-97.08 148.75,-105 154.82,-107 161.22,-108.91 167.62,-110.69"/>
<polygon fill="#63b8ff" stroke="#63b8ff" points="166.33,-113.96 176.9,-113.16 168.14,-107.2 166.33,-113.96"/>
</a>
</g>
</g>
<!-- Node3 -->
<g id="Node000003" class="node">
<title>Node3</title>
<g id="a_Node000003"><a xlink:href="classGameObject.html#a642a2dddae915a8155ee76d8ac7770f7" target="_top" xlink:title="Gets the x coordinate.">
<polygon fill="white" stroke="#666666" points="274.62,-96 177.62,-96 177.62,-76 274.62,-76 274.62,-96"/>
<text text-anchor="middle" x="226.12" y="-82.5" font-family="Helvetica,sans-Serif" font-size="10.00">GameObject::getX</text>
</a>
</g>
</g>
<!-- Node1&#45;&gt;Node3 -->
<g id="edge2_Node000001_Node000003" class="edge">
<title>Node1&#45;&gt;Node3</title>
<g id="a_edge2_Node000001_Node000003"><a xlink:title=" ">
<path fill="none" stroke="#63b8ff" d="M113.23,-73.33C130.28,-75.26 149.07,-77.39 166.3,-79.34"/>
<polygon fill="#63b8ff" stroke="#63b8ff" points="165.53,-82.77 175.86,-80.42 166.32,-75.82 165.53,-82.77"/>
</a>
</g>
</g>
<!-- Node4 -->
<g id="Node000004" class="node">
<title>Node4</title>
<g id="a_Node000004"><a xlink:href="classGameObject.html#a87383d4bc7d63107d8d3507249c8a4ec" target="_top" xlink:title="Gets the y coordinate.">
<polygon fill="white" stroke="#666666" points="274.62,-58 177.62,-58 177.62,-38 274.62,-38 274.62,-58"/>
<text text-anchor="middle" x="226.12" y="-44.5" font-family="Helvetica,sans-Serif" font-size="10.00">GameObject::getY</text>
</a>
</g>
</g>
<!-- Node1&#45;&gt;Node4 -->
<g id="edge3_Node000001_Node000004" class="edge">
<title>Node1&#45;&gt;Node4</title>
<g id="a_edge3_Node000001_Node000004"><a xlink:title=" ">
<path fill="none" stroke="#63b8ff" d="M113.23,-60.67C130.28,-58.74 149.07,-56.61 166.3,-54.66"/>
<polygon fill="#63b8ff" stroke="#63b8ff" points="166.32,-58.18 175.86,-53.58 165.53,-51.23 166.32,-58.18"/>
</a>
</g>
</g>
<!-- Node5 -->
<g id="Node000005" class="node">
<title>Node5</title>
<g id="a_Node000005"><a xlink:href="classMap.html#a9daf0b81095fe118f2e52fd783ea1bf8" target="_top" xlink:title="Checks if there is a wall at the given coordinates.">
<polygon fill="white" stroke="#666666" points="264.5,-20 187.75,-20 187.75,0 264.5,0 264.5,-20"/>
<text text-anchor="middle" x="226.12" y="-6.5" font-family="Helvetica,sans-Serif" font-size="10.00">Map::isWallAt</text>
</a>
</g>
</g>
<!-- Node1&#45;&gt;Node5 -->
<g id="edge4_Node000001_Node000005" class="edge">
<title>Node1&#45;&gt;Node5</title>
<g id="a_edge4_Node000001_Node000005"><a xlink:title=" ">
<path fill="none" stroke="#63b8ff" d="M79.92,-56.51C98.2,-48.27 124.77,-36.92 148.75,-29 157.61,-26.08 167.17,-23.36 176.43,-20.95"/>
<polygon fill="#63b8ff" stroke="#63b8ff" points="177.2,-24.37 186.04,-18.54 175.49,-17.58 177.2,-24.37"/>
</a>
</g>
</g>
</g>
</svg>
