<?xml version="1.0" encoding="UTF-8" standalone="no"?>
<!DOCTYPE svg PUBLIC "-//W3C//DTD SVG 1.1//EN"
 "http://www.w3.org/Graphics/SVG/1.1/DTD/svg11.dtd">
<!-- Generated by graphviz version 10.0.1 (0)
 -->
<!-- Title: ScatterBehavior::handleBehavior Pages: 1 -->
<svg width="339pt" height="104pt"
 viewBox="0.00 0.00 339.25 104.00" xmlns="http://www.w3.org/2000/svg" xmlns:xlink="http://www.w3.org/1999/xlink">
<g id="graph0" class="graph" transform="scale(1 1) rotate(0) translate(4 100)">
<title>ScatterBehavior::handleBehavior</title>
<!-- Node1 -->
<g id="Node000001" class="node">
<title>Node1</title>
<g id="a_Node000001"><a xlink:title="Handles the behavior of the enemy when changing the game phase.">
<polygon fill="#999999" stroke="#666666" points="158.5,-58 0,-58 0,-38 158.5,-38 158.5,-58"/>
<text text-anchor="middle" x="79.25" y="-44.5" font-family="Helvetica,sans-Serif" font-size="10.00">ScatterBehavior::handleBehavior</text>
</a>
</g>
</g>
<!-- Node2 -->
<g id="Node000002" class="node">
<title>Node2</title>
<g id="a_Node000002"><a xlink:href="classGameObject.html#a1e86160db20ef4c6ccadf5cfd05763bc" target="_top" xlink:title="Resets the object color to default.">
<polygon fill="white" stroke="#666666" points="323.75,-96 202,-96 202,-76 323.75,-76 323.75,-96"/>
<text text-anchor="middle" x="262.88" y="-82.5" font-family="Helvetica,sans-Serif" font-size="10.00">GameObject::resetColor</text>
</a>
</g>
</g>
<!-- Node1&#45;&gt;Node2 -->
<g id="edge1_Node000001_Node000002" class="edge">
<title>Node1&#45;&gt;Node2</title>
<g id="a_edge1_Node000001_Node000002"><a xlink:title=" ">
<path fill="none" stroke="#63b8ff" d="M130.36,-58.48C152.2,-63.05 177.99,-68.45 200.93,-73.25"/>
<polygon fill="#63b8ff" stroke="#63b8ff" points="199.94,-76.62 210.45,-75.24 201.38,-69.77 199.94,-76.62"/>
</a>
</g>
</g>
<!-- Node3 -->
<g id="Node000003" class="node">
<title>Node3</title>
<g id="a_Node000003"><a xlink:href="classMovingObject.html#a6866cb38b81682fc594939196117e2e3" target="_top" xlink:title="Sets the invincibility of the object.">
<polygon fill="white" stroke="#666666" points="331.25,-58 194.5,-58 194.5,-38 331.25,-38 331.25,-58"/>
<text text-anchor="middle" x="262.88" y="-44.5" font-family="Helvetica,sans-Serif" font-size="10.00">MovingObject::setInvincible</text>
</a>
</g>
</g>
<!-- Node1&#45;&gt;Node3 -->
<g id="edge2_Node000001_Node000003" class="edge">
<title>Node1&#45;&gt;Node3</title>
<g id="a_edge2_Node000001_Node000003"><a xlink:title=" ">
<path fill="none" stroke="#63b8ff" d="M158.86,-48C166.78,-48 174.83,-48 182.76,-48"/>
<polygon fill="#63b8ff" stroke="#63b8ff" points="182.74,-51.5 192.74,-48 182.74,-44.5 182.74,-51.5"/>
</a>
</g>
</g>
<!-- Node4 -->
<g id="Node000004" class="node">
<title>Node4</title>
<g id="a_Node000004"><a xlink:href="classMovingObject.html#a0fa9f24bfcb0d40d1af3ee26dedfa47d" target="_top" xlink:title="Sets the speed of the object.">
<polygon fill="white" stroke="#666666" points="324.5,-20 201.25,-20 201.25,0 324.5,0 324.5,-20"/>
<text text-anchor="middle" x="262.88" y="-6.5" font-family="Helvetica,sans-Serif" font-size="10.00">MovingObject::setSpeed</text>
</a>
</g>
</g>
<!-- Node1&#45;&gt;Node4 -->
<g id="edge3_Node000001_Node000004" class="edge">
<title>Node1&#45;&gt;Node4</title>
<g id="a_edge3_Node000001_Node000004"><a xlink:title=" ">
<path fill="none" stroke="#63b8ff" d="M130.36,-37.52C152.2,-32.95 177.99,-27.55 200.93,-22.75"/>
<polygon fill="#63b8ff" stroke="#63b8ff" points="201.38,-26.23 210.45,-20.76 199.94,-19.38 201.38,-26.23"/>
</a>
</g>
</g>
</g>
</svg>
