<?xml version="1.0" encoding="UTF-8" standalone="no"?>
<!DOCTYPE svg PUBLIC "-//W3C//DTD SVG 1.1//EN"
 "http://www.w3.org/Graphics/SVG/1.1/DTD/svg11.dtd">
<!-- Generated by graphviz version 10.0.1 (0)
 -->
<!-- Title: ScatterBehavior::move Pages: 1 -->
<svg width="315pt" height="180pt"
 viewBox="0.00 0.00 314.50 180.00" xmlns="http://www.w3.org/2000/svg" xmlns:xlink="http://www.w3.org/1999/xlink">
<g id="graph0" class="graph" transform="scale(1 1) rotate(0) translate(4 176)">
<title>ScatterBehavior::move</title>
<!-- Node1 -->
<g id="Node000001" class="node">
<title>Node1</title>
<g id="a_Node000001"><a xlink:title="Gets the ideal direction to move the enemy.">
<polygon fill="#999999" stroke="#666666" points="115.75,-96 0,-96 0,-76 115.75,-76 115.75,-96"/>
<text text-anchor="middle" x="57.88" y="-82.5" font-family="Helvetica,sans-Serif" font-size="10.00">ScatterBehavior::move</text>
</a>
</g>
</g>
<!-- Node2 -->
<g id="Node000002" class="node">
<title>Node2</title>
<g id="a_Node000002"><a xlink:href="classMovingObject.html#aa5908d2d3540224c20f0a2b0d468b38d" target="_top" xlink:title="Returns the previous direction of the object.">
<polygon fill="white" stroke="#666666" points="306.5,-172 151.75,-172 151.75,-152 306.5,-152 306.5,-172"/>
<text text-anchor="middle" x="229.12" y="-158.5" font-family="Helvetica,sans-Serif" font-size="10.00">MovingObject::getPrevDirection</text>
</a>
</g>
</g>
<!-- Node1&#45;&gt;Node2 -->
<g id="edge1_Node000001_Node000002" class="edge">
<title>Node1&#45;&gt;Node2</title>
<g id="a_edge1_Node000001_Node000002"><a xlink:title=" ">
<path fill="none" stroke="#63b8ff" d="M72.62,-96.32C90.13,-109.01 121.74,-130.41 151.75,-143 156.34,-144.92 161.17,-146.69 166.08,-148.29"/>
<polygon fill="#63b8ff" stroke="#63b8ff" points="164.85,-151.58 175.44,-151.12 166.88,-144.88 164.85,-151.58"/>
</a>
</g>
</g>
<!-- Node3 -->
<g id="Node000003" class="node">
<title>Node3</title>
<g id="a_Node000003"><a xlink:href="classMap.html#a3fa542ef9ff897893adc5a290b224114" target="_top" xlink:title="Gets the map size.">
<polygon fill="white" stroke="#666666" points="266,-134 192.25,-134 192.25,-114 266,-114 266,-134"/>
<text text-anchor="middle" x="229.12" y="-120.5" font-family="Helvetica,sans-Serif" font-size="10.00">Map::getSize</text>
</a>
</g>
</g>
<!-- Node1&#45;&gt;Node3 -->
<g id="edge2_Node000001_Node000003" class="edge">
<title>Node1&#45;&gt;Node3</title>
<g id="a_edge2_Node000001_Node000003"><a xlink:title=" ">
<path fill="none" stroke="#63b8ff" d="M105.57,-96.48C128.95,-101.73 157.19,-108.07 180.67,-113.35"/>
<polygon fill="#63b8ff" stroke="#63b8ff" points="179.77,-116.73 190.3,-115.51 181.31,-109.9 179.77,-116.73"/>
</a>
</g>
</g>
<!-- Node4 -->
<g id="Node000004" class="node">
<title>Node4</title>
<g id="a_Node000004"><a xlink:href="classGameObject.html#a642a2dddae915a8155ee76d8ac7770f7" target="_top" xlink:title="Gets the x coordinate.">
<polygon fill="white" stroke="#666666" points="277.62,-96 180.62,-96 180.62,-76 277.62,-76 277.62,-96"/>
<text text-anchor="middle" x="229.12" y="-82.5" font-family="Helvetica,sans-Serif" font-size="10.00">GameObject::getX</text>
</a>
</g>
</g>
<!-- Node1&#45;&gt;Node4 -->
<g id="edge3_Node000001_Node000004" class="edge">
<title>Node1&#45;&gt;Node4</title>
<g id="a_edge3_Node000001_Node000004"><a xlink:title=" ">
<path fill="none" stroke="#63b8ff" d="M116.18,-86C133.25,-86 151.98,-86 169.15,-86"/>
<polygon fill="#63b8ff" stroke="#63b8ff" points="168.67,-89.5 178.67,-86 168.67,-82.5 168.67,-89.5"/>
</a>
</g>
</g>
<!-- Node5 -->
<g id="Node000005" class="node">
<title>Node5</title>
<g id="a_Node000005"><a xlink:href="classGameObject.html#a87383d4bc7d63107d8d3507249c8a4ec" target="_top" xlink:title="Gets the y coordinate.">
<polygon fill="white" stroke="#666666" points="277.62,-58 180.62,-58 180.62,-38 277.62,-38 277.62,-58"/>
<text text-anchor="middle" x="229.12" y="-44.5" font-family="Helvetica,sans-Serif" font-size="10.00">GameObject::getY</text>
</a>
</g>
</g>
<!-- Node1&#45;&gt;Node5 -->
<g id="edge4_Node000001_Node000005" class="edge">
<title>Node1&#45;&gt;Node5</title>
<g id="a_edge4_Node000001_Node000005"><a xlink:title=" ">
<path fill="none" stroke="#63b8ff" d="M105.57,-75.52C125.64,-71.01 149.3,-65.7 170.46,-60.95"/>
<polygon fill="#63b8ff" stroke="#63b8ff" points="171.11,-64.39 180.1,-58.78 169.58,-57.56 171.11,-64.39"/>
</a>
</g>
</g>
<!-- Node6 -->
<g id="Node000006" class="node">
<title>Node6</title>
<g id="a_Node000006"><a xlink:href="classMap.html#a9daf0b81095fe118f2e52fd783ea1bf8" target="_top" xlink:title="Checks if there is a wall at the given coordinates.">
<polygon fill="white" stroke="#666666" points="267.5,-20 190.75,-20 190.75,0 267.5,0 267.5,-20"/>
<text text-anchor="middle" x="229.12" y="-6.5" font-family="Helvetica,sans-Serif" font-size="10.00">Map::isWallAt</text>
</a>
</g>
</g>
<!-- Node1&#45;&gt;Node6 -->
<g id="edge5_Node000001_Node000006" class="edge">
<title>Node1&#45;&gt;Node6</title>
<g id="a_edge5_Node000001_Node000006"><a xlink:title=" ">
<path fill="none" stroke="#63b8ff" d="M72.62,-75.68C90.13,-62.99 121.74,-41.59 151.75,-29 160.53,-25.32 170.2,-22.23 179.61,-19.69"/>
<polygon fill="#63b8ff" stroke="#63b8ff" points="180.17,-23.16 189.01,-17.32 178.46,-16.37 180.17,-23.16"/>
</a>
</g>
</g>
</g>
</svg>
