<?xml version="1.0" encoding="UTF-8" standalone="no"?>
<!DOCTYPE svg PUBLIC "-//W3C//DTD SVG 1.1//EN"
 "http://www.w3.org/Graphics/SVG/1.1/DTD/svg11.dtd">
<!-- Generated by graphviz version 10.0.1 (0)
 -->
<!-- Title: ChaseBehavior::handleBehavior Pages: 1 -->
<svg width="336pt" height="104pt"
 viewBox="0.00 0.00 336.25 104.00" xmlns="http://www.w3.org/2000/svg" xmlns:xlink="http://www.w3.org/1999/xlink">
<g id="graph0" class="graph" transform="scale(1 1) rotate(0) translate(4 100)">
<title>ChaseBehavior::handleBehavior</title>
<!-- Node1 -->
<g id="Node000001" class="node">
<title>Node1</title>
<g id="a_Node000001"><a xlink:title="Handles the behavior of the enemy when changing the game phase.">
<polygon fill="#999999" stroke="#666666" points="155.5,-58 0,-58 0,-38 155.5,-38 155.5,-58"/>
<text text-anchor="middle" x="77.75" y="-44.5" font-family="Helvetica,sans-Serif" font-size="10.00">ChaseBehavior::handleBehavior</text>
</a>
</g>
</g>
<!-- Node2 -->
<g id="Node000002" class="node">
<title>Node2</title>
<g id="a_Node000002"><a xlink:href="classGameObject.html#a1e86160db20ef4c6ccadf5cfd05763bc" target="_top" xlink:title="Resets the object color to default.">
<polygon fill="white" stroke="#666666" points="320.75,-96 199,-96 199,-76 320.75,-76 320.75,-96"/>
<text text-anchor="middle" x="259.88" y="-82.5" font-family="Helvetica,sans-Serif" font-size="10.00">GameObject::resetColor</text>
</a>
</g>
</g>
<!-- Node1&#45;&gt;Node2 -->
<g id="edge1_Node000001_Node000002" class="edge">
<title>Node1&#45;&gt;Node2</title>
<g id="a_edge1_Node000001_Node000002"><a xlink:title=" ">
<path fill="none" stroke="#63b8ff" d="M128.45,-58.48C150,-63.03 175.45,-68.4 198.12,-73.18"/>
<polygon fill="#63b8ff" stroke="#63b8ff" points="197.35,-76.6 207.86,-75.24 198.8,-69.75 197.35,-76.6"/>
</a>
</g>
</g>
<!-- Node3 -->
<g id="Node000003" class="node">
<title>Node3</title>
<g id="a_Node000003"><a xlink:href="classMovingObject.html#a6866cb38b81682fc594939196117e2e3" target="_top" xlink:title="Sets the invincibility of the object.">
<polygon fill="white" stroke="#666666" points="328.25,-58 191.5,-58 191.5,-38 328.25,-38 328.25,-58"/>
<text text-anchor="middle" x="259.88" y="-44.5" font-family="Helvetica,sans-Serif" font-size="10.00">MovingObject::setInvincible</text>
</a>
</g>
</g>
<!-- Node1&#45;&gt;Node3 -->
<g id="edge2_Node000001_Node000003" class="edge">
<title>Node1&#45;&gt;Node3</title>
<g id="a_edge2_Node000001_Node000003"><a xlink:title=" ">
<path fill="none" stroke="#63b8ff" d="M155.92,-48C163.81,-48 171.84,-48 179.75,-48"/>
<polygon fill="#63b8ff" stroke="#63b8ff" points="179.72,-51.5 189.72,-48 179.72,-44.5 179.72,-51.5"/>
</a>
</g>
</g>
<!-- Node4 -->
<g id="Node000004" class="node">
<title>Node4</title>
<g id="a_Node000004"><a xlink:href="classMovingObject.html#a0fa9f24bfcb0d40d1af3ee26dedfa47d" target="_top" xlink:title="Sets the speed of the object.">
<polygon fill="white" stroke="#666666" points="321.5,-20 198.25,-20 198.25,0 321.5,0 321.5,-20"/>
<text text-anchor="middle" x="259.88" y="-6.5" font-family="Helvetica,sans-Serif" font-size="10.00">MovingObject::setSpeed</text>
</a>
</g>
</g>
<!-- Node1&#45;&gt;Node4 -->
<g id="edge3_Node000001_Node000004" class="edge">
<title>Node1&#45;&gt;Node4</title>
<g id="a_edge3_Node000001_Node000004"><a xlink:title=" ">
<path fill="none" stroke="#63b8ff" d="M128.45,-37.52C150,-32.97 175.45,-27.6 198.12,-22.82"/>
<polygon fill="#63b8ff" stroke="#63b8ff" points="198.8,-26.25 207.86,-20.76 197.35,-19.4 198.8,-26.25"/>
</a>
</g>
</g>
</g>
</svg>
