<?xml version="1.0" encoding="UTF-8" standalone="no"?>
<!DOCTYPE svg PUBLIC "-//W3C//DTD SVG 1.1//EN"
 "http://www.w3.org/Graphics/SVG/1.1/DTD/svg11.dtd">
<!-- Generated by graphviz version 2.43.0 (0)
 -->
<!-- Title: src/Window.h Pages: 1 -->
<svg width="1463pt" height="420pt"
 viewBox="0.00 0.00 1463.00 420.00" xmlns="http://www.w3.org/2000/svg" xmlns:xlink="http://www.w3.org/1999/xlink">
<g id="graph0" class="graph" transform="scale(1 1) rotate(0) translate(4 416)">
<title>src/Window.h</title>
<polygon fill="white" stroke="transparent" points="-4,4 -4,-416 1459,-416 1459,4 -4,4"/>
<!-- Node1 -->
<g id="node1" class="node">
<title>Node1</title>
<g id="a_node1"><a xlink:title="Class for handling ncurses windows.">
<polygon fill="#bfbfbf" stroke="black" points="1023.5,-392.5 1023.5,-411.5 1104.5,-411.5 1104.5,-392.5 1023.5,-392.5"/>
<text text-anchor="middle" x="1064" y="-399.5" font-family="Helvetica,sans-Serif" font-size="10.00">src/Window.h</text>
</a>
</g>
</g>
<!-- Node2 -->
<g id="node2" class="node">
<title>Node2</title>
<g id="a_node2"><a xlink:href="Game_8h.html" target="_top" xlink:title="Class for handling the game logic.">
<polygon fill="white" stroke="black" points="514,-112.5 514,-131.5 586,-131.5 586,-112.5 514,-112.5"/>
<text text-anchor="middle" x="550" y="-119.5" font-family="Helvetica,sans-Serif" font-size="10.00">src/Game.h</text>
</a>
</g>
</g>
<!-- Node1&#45;&gt;Node2 -->
<g id="edge1" class="edge">
<title>Node1&#45;&gt;Node2</title>
<path fill="none" stroke="midnightblue" d="M1013.02,-397.59C869.58,-386.75 468.44,-347.5 400,-244 381.24,-215.63 370.48,-195.13 391,-168 398.53,-158.05 469.28,-140.83 513.83,-130.83"/>
<polygon fill="midnightblue" stroke="midnightblue" points="1013.07,-401.1 1023.3,-398.35 1013.59,-394.12 1013.07,-401.1"/>
</g>
<!-- Node4 -->
<g id="node4" class="node">
<title>Node4</title>
<g id="a_node4"><a xlink:href="GameManager_8h.html" target="_top" xlink:title="Handles the game loop and game states.">
<polygon fill="white" stroke="black" points="955,-56.5 955,-75.5 1069,-75.5 1069,-56.5 955,-56.5"/>
<text text-anchor="middle" x="1012" y="-63.5" font-family="Helvetica,sans-Serif" font-size="10.00">src/GameManager.h</text>
</a>
</g>
</g>
<!-- Node1&#45;&gt;Node4 -->
<g id="edge6" class="edge">
<title>Node1&#45;&gt;Node4</title>
<path fill="none" stroke="midnightblue" d="M1114.74,-391.2C1193.19,-374.57 1335,-338.02 1335,-291 1335,-291 1335,-291 1335,-177 1335,-146.77 1337.92,-131.7 1315,-112 1279.1,-81.15 1146.64,-71.45 1069.25,-68.4"/>
<polygon fill="midnightblue" stroke="midnightblue" points="1113.65,-387.85 1104.57,-393.32 1115.08,-394.7 1113.65,-387.85"/>
</g>
<!-- Node7 -->
<g id="node7" class="node">
<title>Node7</title>
<g id="a_node7"><a xlink:href="Map_8h.html" target="_top" xlink:title="Class for handling the game map.">
<polygon fill="white" stroke="black" points="766,-336.5 766,-355.5 830,-355.5 830,-336.5 766,-336.5"/>
<text text-anchor="middle" x="798" y="-343.5" font-family="Helvetica,sans-Serif" font-size="10.00">src/Map.h</text>
</a>
</g>
</g>
<!-- Node1&#45;&gt;Node7 -->
<g id="edge7" class="edge">
<title>Node1&#45;&gt;Node7</title>
<path fill="none" stroke="midnightblue" d="M1013.28,-390.7C959.41,-379.77 875.87,-362.81 830.32,-353.56"/>
<polygon fill="midnightblue" stroke="midnightblue" points="1012.81,-394.18 1023.31,-392.74 1014.21,-387.32 1012.81,-394.18"/>
</g>
<!-- Node34 -->
<g id="node34" class="node">
<title>Node34</title>
<g id="a_node34"><a xlink:href="Window_8cpp.html" target="_top" xlink:title="Class for handling ncurses windows.">
<polygon fill="white" stroke="black" points="1363,-336.5 1363,-355.5 1455,-355.5 1455,-336.5 1363,-336.5"/>
<text text-anchor="middle" x="1409" y="-343.5" font-family="Helvetica,sans-Serif" font-size="10.00">src/Window.cpp</text>
</a>
</g>
</g>
<!-- Node1&#45;&gt;Node34 -->
<g id="edge54" class="edge">
<title>Node1&#45;&gt;Node34</title>
<path fill="none" stroke="midnightblue" d="M1114.47,-393.1C1181.3,-382.64 1298.21,-364.34 1362.81,-354.23"/>
<polygon fill="midnightblue" stroke="midnightblue" points="1113.93,-389.64 1104.59,-394.65 1115.01,-396.56 1113.93,-389.64"/>
</g>
<!-- Node3 -->
<g id="node3" class="node">
<title>Node3</title>
<g id="a_node3"><a xlink:href="Game_8cpp.html" target="_top" xlink:title="Class for handling the game logic.">
<polygon fill="white" stroke="black" points="437.5,-56.5 437.5,-75.5 520.5,-75.5 520.5,-56.5 437.5,-56.5"/>
<text text-anchor="middle" x="479" y="-63.5" font-family="Helvetica,sans-Serif" font-size="10.00">src/Game.cpp</text>
</a>
</g>
</g>
<!-- Node2&#45;&gt;Node3 -->
<g id="edge2" class="edge">
<title>Node2&#45;&gt;Node3</title>
<path fill="none" stroke="midnightblue" d="M530.41,-106.1C517.63,-96.38 501.39,-84.03 490.61,-75.83"/>
<polygon fill="midnightblue" stroke="midnightblue" points="528.51,-109.06 538.59,-112.32 532.75,-103.48 528.51,-109.06"/>
</g>
<!-- Node2&#45;&gt;Node4 -->
<g id="edge3" class="edge">
<title>Node2&#45;&gt;Node4</title>
<path fill="none" stroke="midnightblue" d="M596.39,-115.58C681.47,-105.63 862.21,-84.51 954.77,-73.69"/>
<polygon fill="midnightblue" stroke="midnightblue" points="595.78,-112.13 586.25,-116.76 596.59,-119.08 595.78,-112.13"/>
</g>
<!-- Node5 -->
<g id="node5" class="node">
<title>Node5</title>
<g id="a_node5"><a xlink:href="GameManager_8cpp.html" target="_top" xlink:title="Handles the game loop and game states.">
<polygon fill="white" stroke="black" points="889.5,-0.5 889.5,-19.5 1014.5,-19.5 1014.5,-0.5 889.5,-0.5"/>
<text text-anchor="middle" x="952" y="-7.5" font-family="Helvetica,sans-Serif" font-size="10.00">src/GameManager.cpp</text>
</a>
</g>
</g>
<!-- Node4&#45;&gt;Node5 -->
<g id="edge4" class="edge">
<title>Node4&#45;&gt;Node5</title>
<path fill="none" stroke="midnightblue" d="M994.82,-49.54C984.12,-39.91 970.74,-27.87 961.82,-19.83"/>
<polygon fill="midnightblue" stroke="midnightblue" points="992.59,-52.24 1002.36,-56.32 997.27,-47.03 992.59,-52.24"/>
</g>
<!-- Node6 -->
<g id="node6" class="node">
<title>Node6</title>
<g id="a_node6"><a xlink:href="main_8cpp.html" target="_top" xlink:title="Main function, initializes the game manager.">
<polygon fill="white" stroke="black" points="1032.5,-0.5 1032.5,-19.5 1111.5,-19.5 1111.5,-0.5 1032.5,-0.5"/>
<text text-anchor="middle" x="1072" y="-7.5" font-family="Helvetica,sans-Serif" font-size="10.00">src/main.cpp</text>
</a>
</g>
</g>
<!-- Node4&#45;&gt;Node6 -->
<g id="edge5" class="edge">
<title>Node4&#45;&gt;Node6</title>
<path fill="none" stroke="midnightblue" d="M1029.18,-49.54C1039.88,-39.91 1053.26,-27.87 1062.18,-19.83"/>
<polygon fill="midnightblue" stroke="midnightblue" points="1026.73,-47.03 1021.64,-56.32 1031.41,-52.24 1026.73,-47.03"/>
</g>
<!-- Node7&#45;&gt;Node2 -->
<g id="edge25" class="edge">
<title>Node7&#45;&gt;Node2</title>
<path fill="none" stroke="midnightblue" d="M775.92,-330.98C762.47,-322.3 745.05,-310.79 730,-300 685.21,-267.88 677.82,-254.64 632,-224 605.19,-206.07 588.98,-213.32 569,-188 555.6,-171.02 551.65,-144.87 550.48,-131.5"/>
<polygon fill="midnightblue" stroke="midnightblue" points="774.2,-334.04 784.51,-336.5 777.98,-328.15 774.2,-334.04"/>
</g>
<!-- Node8 -->
<g id="node8" class="node">
<title>Node8</title>
<g id="a_node8"><a xlink:href="Config_8cpp.html" target="_top" xlink:title="Class for handling the game configuration.">
<polygon fill="white" stroke="black" points="755.5,-280.5 755.5,-299.5 840.5,-299.5 840.5,-280.5 755.5,-280.5"/>
<text text-anchor="middle" x="798" y="-287.5" font-family="Helvetica,sans-Serif" font-size="10.00">src/Config.cpp</text>
</a>
</g>
</g>
<!-- Node7&#45;&gt;Node8 -->
<g id="edge8" class="edge">
<title>Node7&#45;&gt;Node8</title>
<path fill="none" stroke="midnightblue" d="M798,-325.8C798,-316.91 798,-306.78 798,-299.75"/>
<polygon fill="midnightblue" stroke="midnightblue" points="794.5,-326.08 798,-336.08 801.5,-326.08 794.5,-326.08"/>
</g>
<!-- Node9 -->
<g id="node9" class="node">
<title>Node9</title>
<g id="a_node9"><a xlink:href="EnemyBehavior_8h.html" target="_top" xlink:title="Base class for all enemy behaviors.">
<polygon fill="white" stroke="black" points="802.5,-224.5 802.5,-243.5 921.5,-243.5 921.5,-224.5 802.5,-224.5"/>
<text text-anchor="middle" x="862" y="-231.5" font-family="Helvetica,sans-Serif" font-size="10.00">src/EnemyBehavior.h</text>
</a>
</g>
</g>
<!-- Node7&#45;&gt;Node9 -->
<g id="edge9" class="edge">
<title>Node7&#45;&gt;Node9</title>
<path fill="none" stroke="midnightblue" d="M840.27,-344.47C873.85,-341.54 918.87,-331.46 942,-300 960.13,-275.34 918.34,-254.63 888.6,-243.58"/>
<polygon fill="midnightblue" stroke="midnightblue" points="839.99,-340.98 830.26,-345.17 840.48,-347.97 839.99,-340.98"/>
</g>
<!-- Node12 -->
<g id="node12" class="node">
<title>Node12</title>
<g id="a_node12"><a xlink:href="Ghost_8cpp.html" target="_top" xlink:title="Represents a ghost enemy.">
<polygon fill="white" stroke="black" points="911.5,-112.5 911.5,-131.5 994.5,-131.5 994.5,-112.5 911.5,-112.5"/>
<text text-anchor="middle" x="953" y="-119.5" font-family="Helvetica,sans-Serif" font-size="10.00">src/Ghost.cpp</text>
</a>
</g>
</g>
<!-- Node7&#45;&gt;Node12 -->
<g id="edge26" class="edge">
<title>Node7&#45;&gt;Node12</title>
<path fill="none" stroke="midnightblue" d="M840.44,-344.65C876.97,-341.99 928.46,-332.2 959,-300 1000.09,-256.68 1001.74,-225.01 984,-168 979.6,-153.87 969.05,-140.25 961.48,-131.77"/>
<polygon fill="midnightblue" stroke="midnightblue" points="839.88,-341.18 830.1,-345.24 840.28,-348.16 839.88,-341.18"/>
</g>
<!-- Node16 -->
<g id="node16" class="node">
<title>Node16</title>
<g id="a_node16"><a xlink:href="Ghost_8h.html" target="_top" xlink:title="Represents a ghost enemy.">
<polygon fill="white" stroke="black" points="578.5,-168.5 578.5,-187.5 649.5,-187.5 649.5,-168.5 578.5,-168.5"/>
<text text-anchor="middle" x="614" y="-175.5" font-family="Helvetica,sans-Serif" font-size="10.00">src/Ghost.h</text>
</a>
</g>
</g>
<!-- Node7&#45;&gt;Node16 -->
<g id="edge27" class="edge">
<title>Node7&#45;&gt;Node16</title>
<path fill="none" stroke="midnightblue" d="M777.73,-330.16C767.45,-322 755.22,-311.26 746,-300 721.41,-269.97 731.08,-250.79 703,-224 685.09,-206.91 659.42,-194.87 640.24,-187.57"/>
<polygon fill="midnightblue" stroke="midnightblue" points="775.74,-333.04 785.8,-336.36 780,-327.49 775.74,-333.04"/>
</g>
<!-- Node19 -->
<g id="node19" class="node">
<title>Node19</title>
<g id="a_node19"><a xlink:href="Map_8cpp.html" target="_top" xlink:title="Class for handling the game map.">
<polygon fill="white" stroke="black" points="858.5,-280.5 858.5,-299.5 933.5,-299.5 933.5,-280.5 858.5,-280.5"/>
<text text-anchor="middle" x="896" y="-287.5" font-family="Helvetica,sans-Serif" font-size="10.00">src/Map.cpp</text>
</a>
</g>
</g>
<!-- Node7&#45;&gt;Node19 -->
<g id="edge28" class="edge">
<title>Node7&#45;&gt;Node19</title>
<path fill="none" stroke="midnightblue" d="M822.59,-331.45C840.68,-321.48 864.73,-308.23 880.29,-299.65"/>
<polygon fill="midnightblue" stroke="midnightblue" points="820.81,-328.43 813.75,-336.32 824.19,-334.56 820.81,-328.43"/>
</g>
<!-- Node20 -->
<g id="node20" class="node">
<title>Node20</title>
<g id="a_node20"><a xlink:href="MovingObject_8h.html" target="_top" xlink:title="Base class for all moving objects.">
<polygon fill="white" stroke="black" points="532,-280.5 532,-299.5 642,-299.5 642,-280.5 532,-280.5"/>
<text text-anchor="middle" x="587" y="-287.5" font-family="Helvetica,sans-Serif" font-size="10.00">src/MovingObject.h</text>
</a>
</g>
</g>
<!-- Node7&#45;&gt;Node20 -->
<g id="edge29" class="edge">
<title>Node7&#45;&gt;Node20</title>
<path fill="none" stroke="midnightblue" d="M756.02,-334.26C716.19,-324.06 657.12,-308.94 620.4,-299.55"/>
<polygon fill="midnightblue" stroke="midnightblue" points="755.4,-337.71 765.95,-336.8 757.13,-330.93 755.4,-337.71"/>
</g>
<!-- Node32 -->
<g id="node32" class="node">
<title>Node32</title>
<g id="a_node32"><a xlink:href="Player_8h.html" target="_top" xlink:title="Represents a player.">
<polygon fill="white" stroke="black" points="409.5,-224.5 409.5,-243.5 482.5,-243.5 482.5,-224.5 409.5,-224.5"/>
<text text-anchor="middle" x="446" y="-231.5" font-family="Helvetica,sans-Serif" font-size="10.00">src/Player.h</text>
</a>
</g>
</g>
<!-- Node7&#45;&gt;Node32 -->
<g id="edge53" class="edge">
<title>Node7&#45;&gt;Node32</title>
<path fill="none" stroke="midnightblue" d="M755.67,-344.97C699.87,-343.42 599.78,-335.37 523,-300 493.45,-286.39 466.19,-258.24 453.49,-243.87"/>
<polygon fill="midnightblue" stroke="midnightblue" points="755.82,-348.47 765.89,-345.19 755.97,-341.47 755.82,-348.47"/>
</g>
<!-- Node9&#45;&gt;Node3 -->
<g id="edge17" class="edge">
<title>Node9&#45;&gt;Node3</title>
<path fill="none" stroke="midnightblue" d="M802.09,-222.32C769.89,-215.2 730.12,-204.13 697,-188 646.18,-163.24 644.47,-139.36 595,-112 566.46,-96.21 531.23,-83.39 507.13,-75.53"/>
<polygon fill="midnightblue" stroke="midnightblue" points="801.75,-225.82 812.26,-224.49 803.21,-218.98 801.75,-225.82"/>
</g>
<!-- Node10 -->
<g id="node10" class="node">
<title>Node10</title>
<g id="a_node10"><a xlink:href="ChaseBehavior_8h.html" target="_top" xlink:title="Class for handling the chase behavior of ghosts.">
<polygon fill="white" stroke="black" points="1188,-168.5 1188,-187.5 1304,-187.5 1304,-168.5 1188,-168.5"/>
<text text-anchor="middle" x="1246" y="-175.5" font-family="Helvetica,sans-Serif" font-size="10.00">src/ChaseBehavior.h</text>
</a>
</g>
</g>
<!-- Node9&#45;&gt;Node10 -->
<g id="edge10" class="edge">
<title>Node9&#45;&gt;Node10</title>
<path fill="none" stroke="midnightblue" d="M931.65,-223.21C1004.99,-212.89 1119.17,-196.84 1187.86,-187.18"/>
<polygon fill="midnightblue" stroke="midnightblue" points="930.99,-219.76 921.58,-224.62 931.97,-226.7 930.99,-219.76"/>
</g>
<!-- Node13 -->
<g id="node13" class="node">
<title>Node13</title>
<g id="a_node13"><a xlink:href="EnemyBehavior_8cpp.html" target="_top" xlink:title="Base class for all enemy behaviors.">
<polygon fill="white" stroke="black" points="844.5,-168.5 844.5,-187.5 975.5,-187.5 975.5,-168.5 844.5,-168.5"/>
<text text-anchor="middle" x="910" y="-175.5" font-family="Helvetica,sans-Serif" font-size="10.00">src/EnemyBehavior.cpp</text>
</a>
</g>
</g>
<!-- Node9&#45;&gt;Node13 -->
<g id="edge13" class="edge">
<title>Node9&#45;&gt;Node13</title>
<path fill="none" stroke="midnightblue" d="M876.73,-216.43C885.14,-206.97 895.35,-195.48 902.22,-187.75"/>
<polygon fill="midnightblue" stroke="midnightblue" points="873.95,-214.28 869.93,-224.08 879.19,-218.93 873.95,-214.28"/>
</g>
<!-- Node14 -->
<g id="node14" class="node">
<title>Node14</title>
<g id="a_node14"><a xlink:href="FrightenedBehavior_8h.html" target="_top" xlink:title="Class representing a frightened ghost behavior.">
<polygon fill="white" stroke="black" points="1032.5,-168.5 1032.5,-187.5 1169.5,-187.5 1169.5,-168.5 1032.5,-168.5"/>
<text text-anchor="middle" x="1101" y="-175.5" font-family="Helvetica,sans-Serif" font-size="10.00">src/FrightenedBehavior.h</text>
</a>
</g>
</g>
<!-- Node9&#45;&gt;Node14 -->
<g id="edge14" class="edge">
<title>Node9&#45;&gt;Node14</title>
<path fill="none" stroke="midnightblue" d="M909.72,-222.22C954.89,-212.01 1021.77,-196.9 1063.31,-187.52"/>
<polygon fill="midnightblue" stroke="midnightblue" points="908.85,-218.83 899.87,-224.44 910.4,-225.65 908.85,-218.83"/>
</g>
<!-- Node9&#45;&gt;Node16 -->
<g id="edge18" class="edge">
<title>Node9&#45;&gt;Node16</title>
<path fill="none" stroke="midnightblue" d="M812.83,-222.29C764.78,-211.83 692.79,-196.16 649.89,-186.82"/>
<polygon fill="midnightblue" stroke="midnightblue" points="812.19,-225.74 822.7,-224.44 813.68,-218.9 812.19,-225.74"/>
</g>
<!-- Node17 -->
<g id="node17" class="node">
<title>Node17</title>
<g id="a_node17"><a xlink:href="ScatterBehavior_8h.html" target="_top" xlink:title="Class for the scatter behavior of the ghosts.">
<polygon fill="white" stroke="black" points="706,-168.5 706,-187.5 826,-187.5 826,-168.5 706,-168.5"/>
<text text-anchor="middle" x="766" y="-175.5" font-family="Helvetica,sans-Serif" font-size="10.00">src/ScatterBehavior.h</text>
</a>
</g>
</g>
<!-- Node9&#45;&gt;Node17 -->
<g id="edge21" class="edge">
<title>Node9&#45;&gt;Node17</title>
<path fill="none" stroke="midnightblue" d="M837.43,-219.18C819.76,-209.24 796.49,-196.15 781.39,-187.65"/>
<polygon fill="midnightblue" stroke="midnightblue" points="836.14,-222.47 846.58,-224.32 839.58,-216.37 836.14,-222.47"/>
</g>
<!-- Node11 -->
<g id="node11" class="node">
<title>Node11</title>
<g id="a_node11"><a xlink:href="ChaseBehavior_8cpp.html" target="_top" xlink:title="Class for handling the chase behavior of ghosts.">
<polygon fill="white" stroke="black" points="1179.5,-112.5 1179.5,-131.5 1306.5,-131.5 1306.5,-112.5 1179.5,-112.5"/>
<text text-anchor="middle" x="1243" y="-119.5" font-family="Helvetica,sans-Serif" font-size="10.00">src/ChaseBehavior.cpp</text>
</a>
</g>
</g>
<!-- Node10&#45;&gt;Node11 -->
<g id="edge11" class="edge">
<title>Node10&#45;&gt;Node11</title>
<path fill="none" stroke="midnightblue" d="M1244.93,-157.8C1244.44,-148.91 1243.88,-138.78 1243.49,-131.75"/>
<polygon fill="midnightblue" stroke="midnightblue" points="1241.46,-158.29 1245.5,-168.08 1248.44,-157.9 1241.46,-158.29"/>
</g>
<!-- Node10&#45;&gt;Node12 -->
<g id="edge12" class="edge">
<title>Node10&#45;&gt;Node12</title>
<path fill="none" stroke="midnightblue" d="M1189.65,-166.62C1132.72,-156.12 1046.08,-140.15 994.94,-130.73"/>
<polygon fill="midnightblue" stroke="midnightblue" points="1189.1,-170.07 1199.57,-168.44 1190.37,-163.19 1189.1,-170.07"/>
</g>
<!-- Node14&#45;&gt;Node12 -->
<g id="edge16" class="edge">
<title>Node14&#45;&gt;Node12</title>
<path fill="none" stroke="midnightblue" d="M1067.85,-164.91C1040.03,-154.75 1000.98,-140.51 976.34,-131.52"/>
<polygon fill="midnightblue" stroke="midnightblue" points="1066.96,-168.3 1077.55,-168.44 1069.35,-161.73 1066.96,-168.3"/>
</g>
<!-- Node15 -->
<g id="node15" class="node">
<title>Node15</title>
<g id="a_node15"><a xlink:href="FrightenedBehavior_8cpp.html" target="_top" xlink:title="Class representing a frightened ghost behavior.">
<polygon fill="white" stroke="black" points="1012.5,-112.5 1012.5,-131.5 1161.5,-131.5 1161.5,-112.5 1012.5,-112.5"/>
<text text-anchor="middle" x="1087" y="-119.5" font-family="Helvetica,sans-Serif" font-size="10.00">src/FrightenedBehavior.cpp</text>
</a>
</g>
</g>
<!-- Node14&#45;&gt;Node15 -->
<g id="edge15" class="edge">
<title>Node14&#45;&gt;Node15</title>
<path fill="none" stroke="midnightblue" d="M1096.18,-158.4C1093.83,-149.36 1091.13,-138.94 1089.27,-131.75"/>
<polygon fill="midnightblue" stroke="midnightblue" points="1092.79,-159.28 1098.69,-168.08 1099.57,-157.52 1092.79,-159.28"/>
</g>
<!-- Node16&#45;&gt;Node2 -->
<g id="edge19" class="edge">
<title>Node16&#45;&gt;Node2</title>
<path fill="none" stroke="midnightblue" d="M596.01,-161.82C584.54,-152.15 570.09,-139.95 560.47,-131.83"/>
<polygon fill="midnightblue" stroke="midnightblue" points="593.82,-164.55 603.72,-168.32 598.33,-159.2 593.82,-164.55"/>
</g>
<!-- Node16&#45;&gt;Node12 -->
<g id="edge20" class="edge">
<title>Node16&#45;&gt;Node12</title>
<path fill="none" stroke="midnightblue" d="M659.77,-169.71C725.95,-159.17 847.43,-139.82 911.27,-129.65"/>
<polygon fill="midnightblue" stroke="midnightblue" points="658.96,-166.29 649.64,-171.32 660.06,-173.21 658.96,-166.29"/>
</g>
<!-- Node17&#45;&gt;Node3 -->
<g id="edge22" class="edge">
<title>Node17&#45;&gt;Node3</title>
<path fill="none" stroke="midnightblue" d="M752.11,-160.73C738.38,-145.73 715.99,-124.02 692,-112 676.84,-104.4 578.22,-85.34 520.63,-74.62"/>
<polygon fill="midnightblue" stroke="midnightblue" points="749.55,-163.12 758.81,-168.27 754.78,-158.47 749.55,-163.12"/>
</g>
<!-- Node17&#45;&gt;Node12 -->
<g id="edge23" class="edge">
<title>Node17&#45;&gt;Node12</title>
<path fill="none" stroke="midnightblue" d="M805.59,-165.57C840.87,-155.38 891.69,-140.7 923.51,-131.52"/>
<polygon fill="midnightblue" stroke="midnightblue" points="804.27,-162.31 795.63,-168.44 806.21,-169.03 804.27,-162.31"/>
</g>
<!-- Node18 -->
<g id="node18" class="node">
<title>Node18</title>
<g id="a_node18"><a xlink:href="ScatterBehavior_8cpp.html" target="_top" xlink:title="Class for the scatter behavior of the ghosts.">
<polygon fill="white" stroke="black" points="744.5,-112.5 744.5,-131.5 875.5,-131.5 875.5,-112.5 744.5,-112.5"/>
<text text-anchor="middle" x="810" y="-119.5" font-family="Helvetica,sans-Serif" font-size="10.00">src/ScatterBehavior.cpp</text>
</a>
</g>
</g>
<!-- Node17&#45;&gt;Node18 -->
<g id="edge24" class="edge">
<title>Node17&#45;&gt;Node18</title>
<path fill="none" stroke="midnightblue" d="M779.73,-160.14C787.4,-150.74 796.63,-139.4 802.87,-131.75"/>
<polygon fill="midnightblue" stroke="midnightblue" points="776.87,-158.12 773.27,-168.08 782.3,-162.54 776.87,-158.12"/>
</g>
<!-- Node20&#45;&gt;Node9 -->
<g id="edge30" class="edge">
<title>Node20&#45;&gt;Node9</title>
<path fill="none" stroke="midnightblue" d="M640.61,-278.47C692.58,-268.27 770.44,-252.98 818.63,-243.52"/>
<polygon fill="midnightblue" stroke="midnightblue" points="639.71,-275.08 630.57,-280.44 641.06,-281.95 639.71,-275.08"/>
</g>
<!-- Node20&#45;&gt;Node16 -->
<g id="edge31" class="edge">
<title>Node20&#45;&gt;Node16</title>
<path fill="none" stroke="midnightblue" d="M608.17,-274.04C617.33,-266.26 627.08,-255.88 632,-244 640.07,-224.53 627.89,-200.3 619.95,-187.64"/>
<polygon fill="midnightblue" stroke="midnightblue" points="605.75,-271.49 600.06,-280.44 610.08,-276.99 605.75,-271.49"/>
</g>
<!-- Node21 -->
<g id="node21" class="node">
<title>Node21</title>
<g id="a_node21"><a xlink:href="InteractiveObject_8h.html" target="_top" xlink:title="Base class for all interactive objects.">
<polygon fill="white" stroke="black" points="216.5,-168.5 216.5,-187.5 343.5,-187.5 343.5,-168.5 216.5,-168.5"/>
<text text-anchor="middle" x="280" y="-175.5" font-family="Helvetica,sans-Serif" font-size="10.00">src/InteractiveObject.h</text>
</a>
</g>
</g>
<!-- Node20&#45;&gt;Node21 -->
<g id="edge32" class="edge">
<title>Node20&#45;&gt;Node21</title>
<path fill="none" stroke="midnightblue" d="M525.75,-278.45C488.64,-271.03 440.75,-259.63 400,-244 359.08,-228.3 314.63,-201.35 293.13,-187.6"/>
<polygon fill="midnightblue" stroke="midnightblue" points="525.43,-281.95 535.92,-280.43 526.78,-275.08 525.43,-281.95"/>
</g>
<!-- Node31 -->
<g id="node31" class="node">
<title>Node31</title>
<g id="a_node31"><a xlink:href="MovingObject_8cpp.html" target="_top" xlink:title="Base class for all moving objects.">
<polygon fill="white" stroke="black" points="501,-224.5 501,-243.5 623,-243.5 623,-224.5 501,-224.5"/>
<text text-anchor="middle" x="562" y="-231.5" font-family="Helvetica,sans-Serif" font-size="10.00">src/MovingObject.cpp</text>
</a>
</g>
</g>
<!-- Node20&#45;&gt;Node31 -->
<g id="edge47" class="edge">
<title>Node20&#45;&gt;Node31</title>
<path fill="none" stroke="midnightblue" d="M578.66,-270.98C574.42,-261.82 569.45,-251.09 566.05,-243.75"/>
<polygon fill="midnightblue" stroke="midnightblue" points="575.49,-272.48 582.87,-280.08 581.85,-269.54 575.49,-272.48"/>
</g>
<!-- Node20&#45;&gt;Node32 -->
<g id="edge48" class="edge">
<title>Node20&#45;&gt;Node32</title>
<path fill="none" stroke="midnightblue" d="M555.07,-276.77C528.59,-266.63 491.61,-252.47 468.24,-243.52"/>
<polygon fill="midnightblue" stroke="midnightblue" points="554.07,-280.14 564.66,-280.44 556.57,-273.6 554.07,-280.14"/>
</g>
<!-- Node21&#45;&gt;Node2 -->
<g id="edge39" class="edge">
<title>Node21&#45;&gt;Node2</title>
<path fill="none" stroke="midnightblue" d="M332.75,-166.45C386.18,-155.76 467.39,-139.52 513.9,-130.22"/>
<polygon fill="midnightblue" stroke="midnightblue" points="331.9,-163.05 322.78,-168.44 333.27,-169.91 331.9,-163.05"/>
</g>
<!-- Node22 -->
<g id="node22" class="node">
<title>Node22</title>
<g id="a_node22"><a xlink:href="Cherry_8h.html" target="_top" xlink:title="Class representing a cherry collectible.">
<polygon fill="white" stroke="black" points="156,-112.5 156,-131.5 230,-131.5 230,-112.5 156,-112.5"/>
<text text-anchor="middle" x="193" y="-119.5" font-family="Helvetica,sans-Serif" font-size="10.00">src/Cherry.h</text>
</a>
</g>
</g>
<!-- Node21&#45;&gt;Node22 -->
<g id="edge33" class="edge">
<title>Node21&#45;&gt;Node22</title>
<path fill="none" stroke="midnightblue" d="M257.28,-162.9C241.33,-153 220.5,-140.07 206.94,-131.65"/>
<polygon fill="midnightblue" stroke="midnightblue" points="255.68,-166.02 266.02,-168.32 259.37,-160.08 255.68,-166.02"/>
</g>
<!-- Node24 -->
<g id="node24" class="node">
<title>Node24</title>
<g id="a_node24"><a xlink:href="Coin_8h.html" target="_top" xlink:title="Class representing a coin collectible.">
<polygon fill="white" stroke="black" points="248.5,-112.5 248.5,-131.5 313.5,-131.5 313.5,-112.5 248.5,-112.5"/>
<text text-anchor="middle" x="281" y="-119.5" font-family="Helvetica,sans-Serif" font-size="10.00">src/Coin.h</text>
</a>
</g>
</g>
<!-- Node21&#45;&gt;Node24 -->
<g id="edge36" class="edge">
<title>Node21&#45;&gt;Node24</title>
<path fill="none" stroke="midnightblue" d="M280.36,-157.8C280.52,-148.91 280.71,-138.78 280.84,-131.75"/>
<polygon fill="midnightblue" stroke="midnightblue" points="276.85,-158.02 280.17,-168.08 283.85,-158.15 276.85,-158.02"/>
</g>
<!-- Node26 -->
<g id="node26" class="node">
<title>Node26</title>
<g id="a_node26"><a xlink:href="InteractiveObject_8cpp.html" target="_top" xlink:title="Base class for all interactive objects.">
<polygon fill="white" stroke="black" points="0,-112.5 0,-131.5 138,-131.5 138,-112.5 0,-112.5"/>
<text text-anchor="middle" x="69" y="-119.5" font-family="Helvetica,sans-Serif" font-size="10.00">src/InteractiveObject.cpp</text>
</a>
</g>
</g>
<!-- Node21&#45;&gt;Node26 -->
<g id="edge40" class="edge">
<title>Node21&#45;&gt;Node26</title>
<path fill="none" stroke="midnightblue" d="M236.86,-165.96C197.01,-155.76 138.64,-140.82 102.28,-131.52"/>
<polygon fill="midnightblue" stroke="midnightblue" points="236.01,-169.35 246.57,-168.44 237.75,-162.57 236.01,-169.35"/>
</g>
<!-- Node27 -->
<g id="node27" class="node">
<title>Node27</title>
<g id="a_node27"><a xlink:href="Teleport_8h.html" target="_top" xlink:title="Represents a teleport object.">
<polygon fill="white" stroke="black" points="332,-112.5 332,-131.5 414,-131.5 414,-112.5 332,-112.5"/>
<text text-anchor="middle" x="373" y="-119.5" font-family="Helvetica,sans-Serif" font-size="10.00">src/Teleport.h</text>
</a>
</g>
</g>
<!-- Node21&#45;&gt;Node27 -->
<g id="edge41" class="edge">
<title>Node21&#45;&gt;Node27</title>
<path fill="none" stroke="midnightblue" d="M303.81,-163.18C320.92,-153.24 343.47,-140.15 358.1,-131.65"/>
<polygon fill="midnightblue" stroke="midnightblue" points="301.83,-160.28 294.94,-168.32 305.35,-166.33 301.83,-160.28"/>
</g>
<!-- Node29 -->
<g id="node29" class="node">
<title>Node29</title>
<g id="a_node29"><a xlink:href="Wall_8h.html" target="_top" xlink:title="Represents a wall object.">
<polygon fill="white" stroke="black" points="432,-112.5 432,-131.5 496,-131.5 496,-112.5 432,-112.5"/>
<text text-anchor="middle" x="464" y="-119.5" font-family="Helvetica,sans-Serif" font-size="10.00">src/Wall.h</text>
</a>
</g>
</g>
<!-- Node21&#45;&gt;Node29 -->
<g id="edge44" class="edge">
<title>Node21&#45;&gt;Node29</title>
<path fill="none" stroke="midnightblue" d="M318.95,-165.57C353.66,-155.38 403.68,-140.7 434.98,-131.52"/>
<polygon fill="midnightblue" stroke="midnightblue" points="317.77,-162.27 309.16,-168.44 319.74,-168.99 317.77,-162.27"/>
</g>
<!-- Node22&#45;&gt;Node3 -->
<g id="edge35" class="edge">
<title>Node22&#45;&gt;Node3</title>
<path fill="none" stroke="midnightblue" d="M240.27,-111.77C315.43,-97.39 391.54,-83.21 437.36,-74.71"/>
<polygon fill="midnightblue" stroke="midnightblue" points="239.32,-108.39 230.15,-113.71 240.63,-115.26 239.32,-108.39"/>
</g>
<!-- Node23 -->
<g id="node23" class="node">
<title>Node23</title>
<g id="a_node23"><a xlink:href="Cherry_8cpp.html" target="_top" xlink:title="Class representing a cherry collectible.">
<polygon fill="white" stroke="black" points="128.5,-56.5 128.5,-75.5 213.5,-75.5 213.5,-56.5 128.5,-56.5"/>
<text text-anchor="middle" x="171" y="-63.5" font-family="Helvetica,sans-Serif" font-size="10.00">src/Cherry.cpp</text>
</a>
</g>
</g>
<!-- Node22&#45;&gt;Node23 -->
<g id="edge34" class="edge">
<title>Node22&#45;&gt;Node23</title>
<path fill="none" stroke="midnightblue" d="M185.54,-102.69C181.83,-93.59 177.52,-83.01 174.57,-75.75"/>
<polygon fill="midnightblue" stroke="midnightblue" points="182.35,-104.14 189.37,-112.08 188.84,-101.5 182.35,-104.14"/>
</g>
<!-- Node24&#45;&gt;Node3 -->
<g id="edge38" class="edge">
<title>Node24&#45;&gt;Node3</title>
<path fill="none" stroke="midnightblue" d="M322.44,-109.7C359.81,-99.51 413.94,-84.74 447.77,-75.52"/>
<polygon fill="midnightblue" stroke="midnightblue" points="321.1,-106.44 312.37,-112.44 322.94,-113.19 321.1,-106.44"/>
</g>
<!-- Node25 -->
<g id="node25" class="node">
<title>Node25</title>
<g id="a_node25"><a xlink:href="Coin_8cpp.html" target="_top" xlink:title="Class representing a coin collectible.">
<polygon fill="white" stroke="black" points="232,-56.5 232,-75.5 308,-75.5 308,-56.5 232,-56.5"/>
<text text-anchor="middle" x="270" y="-63.5" font-family="Helvetica,sans-Serif" font-size="10.00">src/Coin.cpp</text>
</a>
</g>
</g>
<!-- Node24&#45;&gt;Node25 -->
<g id="edge37" class="edge">
<title>Node24&#45;&gt;Node25</title>
<path fill="none" stroke="midnightblue" d="M277.15,-102.1C275.32,-93.14 273.23,-82.86 271.78,-75.75"/>
<polygon fill="midnightblue" stroke="midnightblue" points="273.76,-102.98 279.18,-112.08 280.62,-101.59 273.76,-102.98"/>
</g>
<!-- Node27&#45;&gt;Node3 -->
<g id="edge42" class="edge">
<title>Node27&#45;&gt;Node3</title>
<path fill="none" stroke="midnightblue" d="M399.06,-107.73C418.68,-97.73 445.03,-84.31 462.01,-75.65"/>
<polygon fill="midnightblue" stroke="midnightblue" points="397.35,-104.67 390.03,-112.32 400.53,-110.9 397.35,-104.67"/>
</g>
<!-- Node28 -->
<g id="node28" class="node">
<title>Node28</title>
<g id="a_node28"><a xlink:href="Teleport_8cpp.html" target="_top" xlink:title="Represents a teleport object.">
<polygon fill="white" stroke="black" points="326.5,-56.5 326.5,-75.5 419.5,-75.5 419.5,-56.5 326.5,-56.5"/>
<text text-anchor="middle" x="373" y="-63.5" font-family="Helvetica,sans-Serif" font-size="10.00">src/Teleport.cpp</text>
</a>
</g>
</g>
<!-- Node27&#45;&gt;Node28 -->
<g id="edge43" class="edge">
<title>Node27&#45;&gt;Node28</title>
<path fill="none" stroke="midnightblue" d="M373,-101.8C373,-92.91 373,-82.78 373,-75.75"/>
<polygon fill="midnightblue" stroke="midnightblue" points="369.5,-102.08 373,-112.08 376.5,-102.08 369.5,-102.08"/>
</g>
<!-- Node29&#45;&gt;Node3 -->
<g id="edge45" class="edge">
<title>Node29&#45;&gt;Node3</title>
<path fill="none" stroke="midnightblue" d="M469.17,-102.4C471.68,-93.36 474.57,-82.94 476.57,-75.75"/>
<polygon fill="midnightblue" stroke="midnightblue" points="465.78,-101.51 466.48,-112.08 472.53,-103.38 465.78,-101.51"/>
</g>
<!-- Node30 -->
<g id="node30" class="node">
<title>Node30</title>
<g id="a_node30"><a xlink:href="Wall_8cpp.html" target="_top" xlink:title="Represents a wall object.">
<polygon fill="white" stroke="black" points="538.5,-56.5 538.5,-75.5 613.5,-75.5 613.5,-56.5 538.5,-56.5"/>
<text text-anchor="middle" x="576" y="-63.5" font-family="Helvetica,sans-Serif" font-size="10.00">src/Wall.cpp</text>
</a>
</g>
</g>
<!-- Node29&#45;&gt;Node30 -->
<g id="edge46" class="edge">
<title>Node29&#45;&gt;Node30</title>
<path fill="none" stroke="midnightblue" d="M491.25,-107.86C512.02,-97.85 540.02,-84.35 558.05,-75.65"/>
<polygon fill="midnightblue" stroke="midnightblue" points="489.48,-104.83 481.99,-112.32 492.52,-111.13 489.48,-104.83"/>
</g>
<!-- Node32&#45;&gt;Node2 -->
<g id="edge49" class="edge">
<title>Node32&#45;&gt;Node2</title>
<path fill="none" stroke="midnightblue" d="M462.93,-217.47C472.03,-208.95 483.33,-198.1 493,-188 511.68,-168.48 532.27,-144.28 542.85,-131.62"/>
<polygon fill="midnightblue" stroke="midnightblue" points="460.55,-214.9 455.6,-224.27 465.31,-220.03 460.55,-214.9"/>
</g>
<!-- Node32&#45;&gt;Node16 -->
<g id="edge50" class="edge">
<title>Node32&#45;&gt;Node16</title>
<path fill="none" stroke="midnightblue" d="M482.39,-221.3C514.04,-211.13 559.17,-196.62 587.5,-187.52"/>
<polygon fill="midnightblue" stroke="midnightblue" points="481.07,-218.05 472.62,-224.44 483.21,-224.72 481.07,-218.05"/>
</g>
<!-- Node32&#45;&gt;Node21 -->
<g id="edge51" class="edge">
<title>Node32&#45;&gt;Node21</title>
<path fill="none" stroke="midnightblue" d="M410.05,-221.3C378.77,-211.13 334.18,-196.62 306.18,-187.52"/>
<polygon fill="midnightblue" stroke="midnightblue" points="409.1,-224.68 419.7,-224.44 411.27,-218.02 409.1,-224.68"/>
</g>
<!-- Node33 -->
<g id="node33" class="node">
<title>Node33</title>
<g id="a_node33"><a xlink:href="Player_8cpp.html" target="_top" xlink:title="Represents a player.">
<polygon fill="white" stroke="black" points="400,-168.5 400,-187.5 484,-187.5 484,-168.5 400,-168.5"/>
<text text-anchor="middle" x="442" y="-175.5" font-family="Helvetica,sans-Serif" font-size="10.00">src/Player.cpp</text>
</a>
</g>
</g>
<!-- Node32&#45;&gt;Node33 -->
<g id="edge52" class="edge">
<title>Node32&#45;&gt;Node33</title>
<path fill="none" stroke="midnightblue" d="M444.6,-214.1C443.94,-205.14 443.17,-194.86 442.65,-187.75"/>
<polygon fill="midnightblue" stroke="midnightblue" points="441.11,-214.37 445.34,-224.08 448.09,-213.85 441.11,-214.37"/>
</g>
</g>
</svg>
