<?xml version="1.0" encoding="UTF-8" standalone="no"?>
<!DOCTYPE svg PUBLIC "-//W3C//DTD SVG 1.1//EN"
 "http://www.w3.org/Graphics/SVG/1.1/DTD/svg11.dtd">
<!-- Generated by graphviz version 10.0.1 (0)
 -->
<!-- Title: src/Window.h Pages: 1 -->
<svg width="324pt" height="196pt"
 viewBox="0.00 0.00 324.25 196.00" xmlns="http://www.w3.org/2000/svg" xmlns:xlink="http://www.w3.org/1999/xlink">
<g id="graph0" class="graph" transform="scale(1 1) rotate(0) translate(4 192)">
<title>src/Window.h</title>
<!-- Node1 -->
<g id="Node000001" class="node">
<title>Node1</title>
<g id="a_Node000001"><a xlink:title="Class for handling ncurses windows.">
<polygon fill="#999999" stroke="#666666" points="208.62,-188 134.12,-188 134.12,-168 208.62,-168 208.62,-188"/>
<text text-anchor="middle" x="171.38" y="-174.5" font-family="Helvetica,sans-Serif" font-size="10.00">src/Window.h</text>
</a>
</g>
</g>
<!-- Node2 -->
<g id="Node000002" class="node">
<title>Node2</title>
<g id="a_Node000002"><a xlink:title=" ">
<polygon fill="#e0e0e0" stroke="#999999" points="58.75,-132 0,-132 0,-112 58.75,-112 58.75,-132"/>
<text text-anchor="middle" x="29.38" y="-118.5" font-family="Helvetica,sans-Serif" font-size="10.00">ncurses.h</text>
</a>
</g>
</g>
<!-- Node1&#45;&gt;Node2 -->
<g id="edge1_Node000001_Node000002" class="edge">
<title>Node1&#45;&gt;Node2</title>
<g id="a_edge1_Node000001_Node000002"><a xlink:title=" ">
<path fill="none" stroke="#63b8ff" d="M146.64,-167.59C124.08,-159.01 90.47,-146.23 65.01,-136.55"/>
<polygon fill="#63b8ff" stroke="#63b8ff" points="66.31,-133.3 55.72,-133.02 63.82,-139.84 66.31,-133.3"/>
</a>
</g>
</g>
<!-- Node3 -->
<g id="Node000003" class="node">
<title>Node3</title>
<g id="a_Node000003"><a xlink:title=" ">
<polygon fill="#e0e0e0" stroke="#999999" points="118.38,-76 78.38,-76 78.38,-56 118.38,-56 118.38,-76"/>
<text text-anchor="middle" x="98.38" y="-62.5" font-family="Helvetica,sans-Serif" font-size="10.00">string</text>
</a>
</g>
</g>
<!-- Node1&#45;&gt;Node3 -->
<g id="edge2_Node000001_Node000003" class="edge">
<title>Node1&#45;&gt;Node3</title>
<g id="a_edge2_Node000001_Node000003"><a xlink:title=" ">
<path fill="none" stroke="#63b8ff" d="M148.5,-167.6C133.62,-160.21 115.21,-148.42 105.38,-132 97.42,-118.72 95.95,-101.14 96.32,-87.61"/>
<polygon fill="#63b8ff" stroke="#63b8ff" points="99.81,-87.87 96.98,-77.66 92.83,-87.41 99.81,-87.87"/>
</a>
</g>
</g>
<!-- Node4 -->
<g id="Node000004" class="node">
<title>Node4</title>
<g id="a_Node000004"><a xlink:title=" ">
<polygon fill="#e0e0e0" stroke="#999999" points="316.25,-132 266.5,-132 266.5,-112 316.25,-112 316.25,-132"/>
<text text-anchor="middle" x="291.38" y="-118.5" font-family="Helvetica,sans-Serif" font-size="10.00">optional</text>
</a>
</g>
</g>
<!-- Node1&#45;&gt;Node4 -->
<g id="edge3_Node000001_Node000004" class="edge">
<title>Node1&#45;&gt;Node4</title>
<g id="a_edge3_Node000001_Node000004"><a xlink:title=" ">
<path fill="none" stroke="#63b8ff" d="M192.28,-167.59C211,-159.17 238.73,-146.69 260.1,-137.07"/>
<polygon fill="#63b8ff" stroke="#63b8ff" points="261.25,-140.4 268.93,-133.1 258.37,-134.01 261.25,-140.4"/>
</a>
</g>
</g>
<!-- Node5 -->
<g id="Node000005" class="node">
<title>Node5</title>
<g id="a_Node000005"><a xlink:title=" ">
<polygon fill="#e0e0e0" stroke="#999999" points="185.88,-76 142.88,-76 142.88,-56 185.88,-56 185.88,-76"/>
<text text-anchor="middle" x="164.38" y="-62.5" font-family="Helvetica,sans-Serif" font-size="10.00">vector</text>
</a>
</g>
</g>
<!-- Node1&#45;&gt;Node5 -->
<g id="edge4_Node000001_Node000005" class="edge">
<title>Node1&#45;&gt;Node5</title>
<g id="a_edge4_Node000001_Node000005"><a xlink:title=" ">
<path fill="none" stroke="#63b8ff" d="M174.75,-167.72C178.9,-155.08 184.98,-131.77 181.38,-112 179.82,-103.49 176.74,-94.5 173.62,-86.81"/>
<polygon fill="#63b8ff" stroke="#63b8ff" points="176.88,-85.51 169.67,-77.75 170.47,-88.32 176.88,-85.51"/>
</a>
</g>
</g>
<!-- Node6 -->
<g id="Node000006" class="node">
<title>Node6</title>
<g id="a_Node000006"><a xlink:href="Enums_8h.html" target="_top" xlink:title=" ">
<polygon fill="white" stroke="#666666" points="261.88,-76 206.88,-76 206.88,-56 261.88,-56 261.88,-76"/>
<text text-anchor="middle" x="234.38" y="-62.5" font-family="Helvetica,sans-Serif" font-size="10.00">Enums.h</text>
</a>
</g>
</g>
<!-- Node1&#45;&gt;Node6 -->
<g id="edge5_Node000001_Node000006" class="edge">
<title>Node1&#45;&gt;Node6</title>
<g id="a_edge5_Node000001_Node000006"><a xlink:title=" ">
<path fill="none" stroke="#63b8ff" d="M176.75,-167.62C187.07,-149.6 209.86,-109.81 223.48,-86.02"/>
<polygon fill="#63b8ff" stroke="#63b8ff" points="226.33,-88.09 228.27,-77.67 220.26,-84.61 226.33,-88.09"/>
</a>
</g>
</g>
<!-- Node8 -->
<g id="Node000008" class="node">
<title>Node8</title>
<g id="a_Node000008"><a xlink:href="Helpers_8h.html" target="_top" xlink:title=" ">
<polygon fill="white" stroke="#666666" points="172.38,-132 114.38,-132 114.38,-112 172.38,-112 172.38,-132"/>
<text text-anchor="middle" x="143.38" y="-118.5" font-family="Helvetica,sans-Serif" font-size="10.00">Helpers.h</text>
</a>
</g>
</g>
<!-- Node1&#45;&gt;Node8 -->
<g id="edge7_Node000001_Node000008" class="edge">
<title>Node1&#45;&gt;Node8</title>
<g id="a_edge7_Node000001_Node000008"><a xlink:title=" ">
<path fill="none" stroke="#63b8ff" d="M166.5,-167.59C162.88,-160.63 157.83,-150.89 153.38,-142.29"/>
<polygon fill="#63b8ff" stroke="#63b8ff" points="156.6,-140.91 148.89,-133.64 150.39,-144.13 156.6,-140.91"/>
</a>
</g>
</g>
<!-- Node7 -->
<g id="Node000007" class="node">
<title>Node7</title>
<g id="a_Node000007"><a xlink:title=" ">
<polygon fill="#e0e0e0" stroke="#999999" points="254,-20 214.75,-20 214.75,0 254,0 254,-20"/>
<text text-anchor="middle" x="234.38" y="-6.5" font-family="Helvetica,sans-Serif" font-size="10.00">utility</text>
</a>
</g>
</g>
<!-- Node6&#45;&gt;Node7 -->
<g id="edge6_Node000006_Node000007" class="edge">
<title>Node6&#45;&gt;Node7</title>
<g id="a_edge6_Node000006_Node000007"><a xlink:title=" ">
<path fill="none" stroke="#63b8ff" d="M234.38,-55.59C234.38,-49.01 234.38,-39.96 234.38,-31.73"/>
<polygon fill="#63b8ff" stroke="#63b8ff" points="237.88,-31.81 234.38,-21.81 230.88,-31.81 237.88,-31.81"/>
</a>
</g>
</g>
<!-- Node8&#45;&gt;Node3 -->
<g id="edge9_Node000008_Node000003" class="edge">
<title>Node8&#45;&gt;Node3</title>
<g id="a_edge9_Node000008_Node000003"><a xlink:title=" ">
<path fill="none" stroke="#63b8ff" d="M135.54,-111.59C129.41,-104.24 120.7,-93.8 113.26,-84.87"/>
<polygon fill="#63b8ff" stroke="#63b8ff" points="116.18,-82.9 107.09,-77.46 110.81,-87.38 116.18,-82.9"/>
</a>
</g>
</g>
<!-- Node8&#45;&gt;Node5 -->
<g id="edge10_Node000008_Node000005" class="edge">
<title>Node8&#45;&gt;Node5</title>
<g id="a_edge10_Node000008_Node000005"><a xlink:title=" ">
<path fill="none" stroke="#63b8ff" d="M147.03,-111.59C149.68,-104.78 153.36,-95.32 156.65,-86.86"/>
<polygon fill="#63b8ff" stroke="#63b8ff" points="159.85,-88.3 160.21,-77.71 153.32,-85.76 159.85,-88.3"/>
</a>
</g>
</g>
<!-- Node8&#45;&gt;Node6 -->
<g id="edge8_Node000008_Node000006" class="edge">
<title>Node8&#45;&gt;Node6</title>
<g id="a_edge8_Node000008_Node000006"><a xlink:title=" ">
<path fill="none" stroke="#63b8ff" d="M159.23,-111.59C172.84,-103.51 192.74,-91.71 208.64,-82.27"/>
<polygon fill="#63b8ff" stroke="#63b8ff" points="210.28,-85.37 217.1,-77.25 206.71,-79.35 210.28,-85.37"/>
</a>
</g>
</g>
</g>
</svg>
