<?xml version="1.0" encoding="UTF-8" standalone="no"?>
<!DOCTYPE svg PUBLIC "-//W3C//DTD SVG 1.1//EN"
 "http://www.w3.org/Graphics/SVG/1.1/DTD/svg11.dtd">
<!-- Generated by graphviz version 10.0.1 (0)
 -->
<!-- Title: src/Window.cpp Pages: 1 -->
<svg width="605pt" height="252pt"
 viewBox="0.00 0.00 605.12 252.00" xmlns="http://www.w3.org/2000/svg" xmlns:xlink="http://www.w3.org/1999/xlink">
<g id="graph0" class="graph" transform="scale(1 1) rotate(0) translate(4 248)">
<title>src/Window.cpp</title>
<!-- Node1 -->
<g id="Node000001" class="node">
<title>Node1</title>
<g id="a_Node000001"><a xlink:title="Class for handling ncurses windows.">
<polygon fill="#999999" stroke="#666666" points="349.88,-244 264.88,-244 264.88,-224 349.88,-224 349.88,-244"/>
<text text-anchor="middle" x="307.38" y="-230.5" font-family="Helvetica,sans-Serif" font-size="10.00">src/Window.cpp</text>
</a>
</g>
</g>
<!-- Node2 -->
<g id="Node000002" class="node">
<title>Node2</title>
<g id="a_Node000002"><a xlink:title=" ">
<polygon fill="#e0e0e0" stroke="#999999" points="166.75,-132 108,-132 108,-112 166.75,-112 166.75,-132"/>
<text text-anchor="middle" x="137.38" y="-118.5" font-family="Helvetica,sans-Serif" font-size="10.00">ncurses.h</text>
</a>
</g>
</g>
<!-- Node1&#45;&gt;Node2 -->
<g id="edge1_Node000001_Node000002" class="edge">
<title>Node1&#45;&gt;Node2</title>
<g id="a_edge1_Node000001_Node000002"><a xlink:title=" ">
<path fill="none" stroke="#63b8ff" d="M282.99,-223.61C263.21,-215.5 234.99,-202.76 212.38,-188 190.87,-173.96 168.98,-154.23 154.44,-140.2"/>
<polygon fill="#63b8ff" stroke="#63b8ff" points="157.08,-137.88 147.49,-133.36 152.17,-142.87 157.08,-137.88"/>
</a>
</g>
</g>
<!-- Node3 -->
<g id="Node000003" class="node">
<title>Node3</title>
<g id="a_Node000003"><a xlink:href="Window_8h.html" target="_top" xlink:title="Class for handling ncurses windows.">
<polygon fill="white" stroke="#666666" points="279.38,-188 221.38,-188 221.38,-168 279.38,-168 279.38,-188"/>
<text text-anchor="middle" x="250.38" y="-174.5" font-family="Helvetica,sans-Serif" font-size="10.00">Window.h</text>
</a>
</g>
</g>
<!-- Node1&#45;&gt;Node3 -->
<g id="edge2_Node000001_Node000003" class="edge">
<title>Node1&#45;&gt;Node3</title>
<g id="a_edge2_Node000001_Node000003"><a xlink:title=" ">
<path fill="none" stroke="#63b8ff" d="M297.45,-223.59C289.44,-216.01 277.96,-205.13 268.34,-196.02"/>
<polygon fill="#63b8ff" stroke="#63b8ff" points="270.96,-193.68 261.29,-189.34 266.14,-198.76 270.96,-193.68"/>
</a>
</g>
</g>
<!-- Node5 -->
<g id="Node000005" class="node">
<title>Node5</title>
<g id="a_Node000005"><a xlink:title=" ">
<polygon fill="#e0e0e0" stroke="#999999" points="424.25,-132 374.5,-132 374.5,-112 424.25,-112 424.25,-132"/>
<text text-anchor="middle" x="399.38" y="-118.5" font-family="Helvetica,sans-Serif" font-size="10.00">optional</text>
</a>
</g>
</g>
<!-- Node1&#45;&gt;Node5 -->
<g id="edge15_Node000001_Node000005" class="edge">
<title>Node1&#45;&gt;Node5</title>
<g id="a_edge15_Node000001_Node000005"><a xlink:title=" ">
<path fill="none" stroke="#63b8ff" d="M315.22,-223.62C330.5,-205.36 364.47,-164.73 384.26,-141.07"/>
<polygon fill="#63b8ff" stroke="#63b8ff" points="386.85,-143.43 390.58,-133.52 381.48,-138.94 386.85,-143.43"/>
</a>
</g>
</g>
<!-- Node6 -->
<g id="Node000006" class="node">
<title>Node6</title>
<g id="a_Node000006"><a xlink:title=" ">
<polygon fill="#e0e0e0" stroke="#999999" points="149.88,-76 106.88,-76 106.88,-56 149.88,-56 149.88,-76"/>
<text text-anchor="middle" x="128.38" y="-62.5" font-family="Helvetica,sans-Serif" font-size="10.00">vector</text>
</a>
</g>
</g>
<!-- Node1&#45;&gt;Node6 -->
<g id="edge22_Node000001_Node000006" class="edge">
<title>Node1&#45;&gt;Node6</title>
<g id="a_edge22_Node000001_Node000006"><a xlink:title=" ">
<path fill="none" stroke="#63b8ff" d="M264.47,-227.04C213.58,-217.31 131.6,-192.61 99.38,-132 91.16,-116.55 100.91,-98.3 111.26,-85.08"/>
<polygon fill="#63b8ff" stroke="#63b8ff" points="113.82,-87.47 117.67,-77.6 108.51,-82.91 113.82,-87.47"/>
</a>
</g>
</g>
<!-- Node7 -->
<g id="Node000007" class="node">
<title>Node7</title>
<g id="a_Node000007"><a xlink:href="Enums_8h.html" target="_top" xlink:title=" ">
<polygon fill="white" stroke="#666666" points="373.88,-76 318.88,-76 318.88,-56 373.88,-56 373.88,-76"/>
<text text-anchor="middle" x="346.38" y="-62.5" font-family="Helvetica,sans-Serif" font-size="10.00">Enums.h</text>
</a>
</g>
</g>
<!-- Node1&#45;&gt;Node7 -->
<g id="edge20_Node000001_Node000007" class="edge">
<title>Node1&#45;&gt;Node7</title>
<g id="a_edge20_Node000001_Node000007"><a xlink:title=" ">
<path fill="none" stroke="#63b8ff" d="M328.74,-223.57C358.79,-208.95 412.23,-177.67 433.38,-132 445.25,-106.36 413.41,-88.47 384.96,-78.03"/>
<polygon fill="#63b8ff" stroke="#63b8ff" points="386.35,-74.81 375.76,-74.89 384.09,-81.43 386.35,-74.81"/>
</a>
</g>
</g>
<!-- Node9 -->
<g id="Node000009" class="node">
<title>Node9</title>
<g id="a_Node000009"><a xlink:href="Helpers_8h.html" target="_top" xlink:title=" ">
<polygon fill="white" stroke="#666666" points="318.38,-132 260.38,-132 260.38,-112 318.38,-112 318.38,-132"/>
<text text-anchor="middle" x="289.38" y="-118.5" font-family="Helvetica,sans-Serif" font-size="10.00">Helpers.h</text>
</a>
</g>
</g>
<!-- Node1&#45;&gt;Node9 -->
<g id="edge21_Node000001_Node000009" class="edge">
<title>Node1&#45;&gt;Node9</title>
<g id="a_edge21_Node000001_Node000009"><a xlink:title=" ">
<path fill="none" stroke="#63b8ff" d="M305.84,-223.62C302.96,-206.01 296.67,-167.59 292.75,-143.65"/>
<polygon fill="#63b8ff" stroke="#63b8ff" points="296.22,-143.15 291.15,-133.85 289.31,-144.28 296.22,-143.15"/>
</a>
</g>
</g>
<!-- Node10 -->
<g id="Node000010" class="node">
<title>Node10</title>
<g id="a_Node000010"><a xlink:title=" ">
<polygon fill="#e0e0e0" stroke="#999999" points="526,-188 480.75,-188 480.75,-168 526,-168 526,-188"/>
<text text-anchor="middle" x="503.38" y="-174.5" font-family="Helvetica,sans-Serif" font-size="10.00">cstring</text>
</a>
</g>
</g>
<!-- Node1&#45;&gt;Node10 -->
<g id="edge13_Node000001_Node000010" class="edge">
<title>Node1&#45;&gt;Node10</title>
<g id="a_edge13_Node000001_Node000010"><a xlink:title=" ">
<path fill="none" stroke="#63b8ff" d="M341.52,-223.59C377.44,-213.7 433.65,-198.21 469.48,-188.34"/>
<polygon fill="#63b8ff" stroke="#63b8ff" points="470.17,-191.78 478.89,-185.75 468.32,-185.03 470.17,-191.78"/>
</a>
</g>
</g>
<!-- Node11 -->
<g id="Node000011" class="node">
<title>Node11</title>
<g id="a_Node000011"><a xlink:title=" ">
<polygon fill="#e0e0e0" stroke="#999999" points="597.12,-188 543.62,-188 543.62,-168 597.12,-168 597.12,-188"/>
<text text-anchor="middle" x="570.38" y="-174.5" font-family="Helvetica,sans-Serif" font-size="10.00">iostream</text>
</a>
</g>
</g>
<!-- Node1&#45;&gt;Node11 -->
<g id="edge14_Node000001_Node000011" class="edge">
<title>Node1&#45;&gt;Node11</title>
<g id="a_edge14_Node000001_Node000011"><a xlink:title=" ">
<path fill="none" stroke="#63b8ff" d="M349.97,-225.34C393.55,-217.34 463.49,-204.04 532.26,-188.62"/>
<polygon fill="#63b8ff" stroke="#63b8ff" points="532.82,-192.08 541.8,-186.46 531.28,-185.26 532.82,-192.08"/>
</a>
</g>
</g>
<!-- Node12 -->
<g id="Node000012" class="node">
<title>Node12</title>
<g id="a_Node000012"><a xlink:href="Config_8h.html" target="_top" xlink:title="Class for handling the game configuration.">
<polygon fill="white" stroke="#666666" points="52.75,-132 0,-132 0,-112 52.75,-112 52.75,-132"/>
<text text-anchor="middle" x="26.38" y="-118.5" font-family="Helvetica,sans-Serif" font-size="10.00">Config.h</text>
</a>
</g>
</g>
<!-- Node1&#45;&gt;Node12 -->
<g id="edge16_Node000001_Node000012" class="edge">
<title>Node1&#45;&gt;Node12</title>
<g id="a_edge16_Node000001_Node000012"><a xlink:title=" ">
<path fill="none" stroke="#63b8ff" d="M264.61,-229.19C204.27,-223.13 97.95,-209.69 66.38,-188 50.52,-177.11 39.78,-157.66 33.46,-142.87"/>
<polygon fill="#63b8ff" stroke="#63b8ff" points="36.76,-141.71 29.87,-133.67 30.24,-144.26 36.76,-141.71"/>
</a>
</g>
</g>
<!-- Node3&#45;&gt;Node2 -->
<g id="edge3_Node000003_Node000002" class="edge">
<title>Node3&#45;&gt;Node2</title>
<g id="a_edge3_Node000003_Node000002"><a xlink:title=" ">
<path fill="none" stroke="#63b8ff" d="M230.69,-167.59C213.22,-159.24 187.42,-146.92 167.38,-137.34"/>
<polygon fill="#63b8ff" stroke="#63b8ff" points="169.11,-134.29 158.58,-133.13 166.09,-140.6 169.11,-134.29"/>
</a>
</g>
</g>
<!-- Node4 -->
<g id="Node000004" class="node">
<title>Node4</title>
<g id="a_Node000004"><a xlink:title=" ">
<polygon fill="#e0e0e0" stroke="#999999" points="252.38,-76 212.38,-76 212.38,-56 252.38,-56 252.38,-76"/>
<text text-anchor="middle" x="232.38" y="-62.5" font-family="Helvetica,sans-Serif" font-size="10.00">string</text>
</a>
</g>
</g>
<!-- Node3&#45;&gt;Node4 -->
<g id="edge4_Node000003_Node000004" class="edge">
<title>Node3&#45;&gt;Node4</title>
<g id="a_edge4_Node000003_Node000004"><a xlink:title=" ">
<path fill="none" stroke="#63b8ff" d="M248.84,-167.62C245.96,-150.01 239.67,-111.59 235.75,-87.65"/>
<polygon fill="#63b8ff" stroke="#63b8ff" points="239.22,-87.15 234.15,-77.85 232.31,-88.28 239.22,-87.15"/>
</a>
</g>
</g>
<!-- Node3&#45;&gt;Node5 -->
<g id="edge5_Node000003_Node000005" class="edge">
<title>Node3&#45;&gt;Node5</title>
<g id="a_edge5_Node000003_Node000005"><a xlink:title=" ">
<path fill="none" stroke="#63b8ff" d="M276.33,-167.59C300.51,-158.83 336.78,-145.68 363.68,-135.93"/>
<polygon fill="#63b8ff" stroke="#63b8ff" points="364.58,-139.33 372.79,-132.63 362.2,-132.75 364.58,-139.33"/>
</a>
</g>
</g>
<!-- Node3&#45;&gt;Node6 -->
<g id="edge6_Node000003_Node000006" class="edge">
<title>Node3&#45;&gt;Node6</title>
<g id="a_edge6_Node000003_Node000006"><a xlink:title=" ">
<path fill="none" stroke="#63b8ff" d="M239.97,-167.62C219.36,-149.03 173.05,-107.28 147.03,-83.82"/>
<polygon fill="#63b8ff" stroke="#63b8ff" points="149.65,-81.47 139.87,-77.37 144.96,-86.66 149.65,-81.47"/>
</a>
</g>
</g>
<!-- Node3&#45;&gt;Node7 -->
<g id="edge7_Node000003_Node000007" class="edge">
<title>Node3&#45;&gt;Node7</title>
<g id="a_edge7_Node000003_Node000007"><a xlink:title=" ">
<path fill="none" stroke="#63b8ff" d="M276.73,-167.55C293.49,-160.26 314.41,-148.59 327.38,-132 337.35,-119.23 342.09,-101.37 344.34,-87.61"/>
<polygon fill="#63b8ff" stroke="#63b8ff" points="347.79,-88.24 345.6,-77.88 340.85,-87.35 347.79,-88.24"/>
</a>
</g>
</g>
<!-- Node3&#45;&gt;Node9 -->
<g id="edge9_Node000003_Node000009" class="edge">
<title>Node3&#45;&gt;Node9</title>
<g id="a_edge9_Node000003_Node000009"><a xlink:title=" ">
<path fill="none" stroke="#63b8ff" d="M257.17,-167.59C262.37,-160.39 269.71,-150.23 276.06,-141.43"/>
<polygon fill="#63b8ff" stroke="#63b8ff" points="278.76,-143.68 281.77,-133.53 273.08,-139.58 278.76,-143.68"/>
</a>
</g>
</g>
<!-- Node8 -->
<g id="Node000008" class="node">
<title>Node8</title>
<g id="a_Node000008"><a xlink:title=" ">
<polygon fill="#e0e0e0" stroke="#999999" points="366,-20 326.75,-20 326.75,0 366,0 366,-20"/>
<text text-anchor="middle" x="346.38" y="-6.5" font-family="Helvetica,sans-Serif" font-size="10.00">utility</text>
</a>
</g>
</g>
<!-- Node7&#45;&gt;Node8 -->
<g id="edge8_Node000007_Node000008" class="edge">
<title>Node7&#45;&gt;Node8</title>
<g id="a_edge8_Node000007_Node000008"><a xlink:title=" ">
<path fill="none" stroke="#63b8ff" d="M346.38,-55.59C346.38,-49.01 346.38,-39.96 346.38,-31.73"/>
<polygon fill="#63b8ff" stroke="#63b8ff" points="349.88,-31.81 346.38,-21.81 342.88,-31.81 349.88,-31.81"/>
</a>
</g>
</g>
<!-- Node9&#45;&gt;Node4 -->
<g id="edge11_Node000009_Node000004" class="edge">
<title>Node9&#45;&gt;Node4</title>
<g id="a_edge11_Node000009_Node000004"><a xlink:title=" ">
<path fill="none" stroke="#63b8ff" d="M279.45,-111.59C271.44,-104.01 259.96,-93.13 250.34,-84.02"/>
<polygon fill="#63b8ff" stroke="#63b8ff" points="252.96,-81.68 243.29,-77.34 248.14,-86.76 252.96,-81.68"/>
</a>
</g>
</g>
<!-- Node9&#45;&gt;Node6 -->
<g id="edge12_Node000009_Node000006" class="edge">
<title>Node9&#45;&gt;Node6</title>
<g id="a_edge12_Node000009_Node000006"><a xlink:title=" ">
<path fill="none" stroke="#63b8ff" d="M261.33,-111.59C233.21,-102.16 189.96,-87.66 160.49,-77.77"/>
<polygon fill="#63b8ff" stroke="#63b8ff" points="161.95,-74.57 151.36,-74.71 159.72,-81.21 161.95,-74.57"/>
</a>
</g>
</g>
<!-- Node9&#45;&gt;Node7 -->
<g id="edge10_Node000009_Node000007" class="edge">
<title>Node9&#45;&gt;Node7</title>
<g id="a_edge10_Node000009_Node000007"><a xlink:title=" ">
<path fill="none" stroke="#63b8ff" d="M299.3,-111.59C307.31,-104.01 318.79,-93.13 328.41,-84.02"/>
<polygon fill="#63b8ff" stroke="#63b8ff" points="330.61,-86.76 335.46,-77.34 325.79,-81.68 330.61,-86.76"/>
</a>
</g>
</g>
<!-- Node12&#45;&gt;Node4 -->
<g id="edge17_Node000012_Node000004" class="edge">
<title>Node12&#45;&gt;Node4</title>
<g id="a_edge17_Node000012_Node000004"><a xlink:title=" ">
<path fill="none" stroke="#63b8ff" d="M52.88,-114.05C90.86,-104.1 160.63,-85.81 201.09,-75.2"/>
<polygon fill="#63b8ff" stroke="#63b8ff" points="201.9,-78.61 210.69,-72.68 200.13,-71.83 201.9,-78.61"/>
</a>
</g>
</g>
<!-- Node12&#45;&gt;Node6 -->
<g id="edge19_Node000012_Node000006" class="edge">
<title>Node12&#45;&gt;Node6</title>
<g id="a_edge19_Node000012_Node000006"><a xlink:title=" ">
<path fill="none" stroke="#63b8ff" d="M44.14,-111.59C59.7,-103.36 82.56,-91.26 100.54,-81.74"/>
<polygon fill="#63b8ff" stroke="#63b8ff" points="101.93,-84.96 109.13,-77.19 98.66,-78.77 101.93,-84.96"/>
</a>
</g>
</g>
<!-- Node13 -->
<g id="Node000013" class="node">
<title>Node13</title>
<g id="a_Node000013"><a xlink:title=" ">
<polygon fill="#e0e0e0" stroke="#999999" points="43.75,-76 9,-76 9,-56 43.75,-56 43.75,-76"/>
<text text-anchor="middle" x="26.38" y="-62.5" font-family="Helvetica,sans-Serif" font-size="10.00">map</text>
</a>
</g>
</g>
<!-- Node12&#45;&gt;Node13 -->
<g id="edge18_Node000012_Node000013" class="edge">
<title>Node12&#45;&gt;Node13</title>
<g id="a_edge18_Node000012_Node000013"><a xlink:title=" ">
<path fill="none" stroke="#63b8ff" d="M26.38,-111.59C26.38,-105.01 26.38,-95.96 26.38,-87.73"/>
<polygon fill="#63b8ff" stroke="#63b8ff" points="29.88,-87.81 26.38,-77.81 22.88,-87.81 29.88,-87.81"/>
</a>
</g>
</g>
</g>
</svg>
