<?xml version="1.0" encoding="UTF-8" standalone="no"?>
<!DOCTYPE svg PUBLIC "-//W3C//DTD SVG 1.1//EN"
 "http://www.w3.org/Graphics/SVG/1.1/DTD/svg11.dtd">
<!-- Generated by graphviz version 10.0.1 (0)
 -->
<!-- Title: src/Window.h Pages: 1 -->
<svg width="1369pt" height="420pt"
 viewBox="0.00 0.00 1369.25 420.00" xmlns="http://www.w3.org/2000/svg" xmlns:xlink="http://www.w3.org/1999/xlink">
<g id="graph0" class="graph" transform="scale(1 1) rotate(0) translate(4 416)">
<title>src/Window.h</title>
<!-- Node1 -->
<g id="Node000001" class="node">
<title>Node1</title>
<g id="a_Node000001"><a xlink:title="Class for handling ncurses windows.">
<polygon fill="#999999" stroke="#666666" points="1033,-412 958.5,-412 958.5,-392 1033,-392 1033,-412"/>
<text text-anchor="middle" x="995.75" y="-398.5" font-family="Helvetica,sans-Serif" font-size="10.00">src/Window.h</text>
</a>
</g>
</g>
<!-- Node2 -->
<g id="Node000002" class="node">
<title>Node2</title>
<g id="a_Node000002"><a xlink:href="Game_8h.html" target="_top" xlink:title="Class for handling the game logic.">
<polygon fill="white" stroke="#666666" points="546.25,-132 479.25,-132 479.25,-112 546.25,-112 546.25,-132"/>
<text text-anchor="middle" x="512.75" y="-118.5" font-family="Helvetica,sans-Serif" font-size="10.00">src/Game.h</text>
</a>
</g>
</g>
<!-- Node1&#45;&gt;Node2 -->
<g id="edge1_Node000001_Node000002" class="edge">
<title>Node1&#45;&gt;Node2</title>
<g id="a_edge1_Node000001_Node000002"><a xlink:title=" ">
<path fill="none" stroke="#63b8ff" d="M946.99,-397.23C810.24,-385.48 428.98,-344.07 366.75,-244 348.84,-215.19 339.43,-195.16 359.75,-168 367.03,-158.27 436.23,-140.73 479.04,-130.67"/>
<polygon fill="#63b8ff" stroke="#63b8ff" points="946.54,-400.71 956.8,-398.06 947.13,-393.73 946.54,-400.71"/>
</a>
</g>
</g>
<!-- Node4 -->
<g id="Node000004" class="node">
<title>Node4</title>
<g id="a_Node000004"><a xlink:href="GameManager_8h.html" target="_top" xlink:title="Handles the game loop and game states.">
<polygon fill="white" stroke="#666666" points="997.62,-76 893.88,-76 893.88,-56 997.62,-56 997.62,-76"/>
<text text-anchor="middle" x="945.75" y="-62.5" font-family="Helvetica,sans-Serif" font-size="10.00">src/GameManager.h</text>
</a>
</g>
</g>
<!-- Node1&#45;&gt;Node4 -->
<g id="edge6_Node000001_Node000004" class="edge">
<title>Node1&#45;&gt;Node4</title>
<g id="a_edge6_Node000001_Node000004"><a xlink:title=" ">
<path fill="none" stroke="#63b8ff" d="M1044.73,-400.62C1118.03,-397.17 1247.75,-378.68 1247.75,-291 1247.75,-291 1247.75,-291 1247.75,-177 1247.75,-146.9 1251.34,-131.89 1228.75,-112 1195.34,-82.57 1070.29,-72.3 998.09,-68.78"/>
<polygon fill="#63b8ff" stroke="#63b8ff" points="1044.85,-397.11 1034.99,-400.99 1045.12,-404.1 1044.85,-397.11"/>
</a>
</g>
</g>
<!-- Node7 -->
<g id="Node000007" class="node">
<title>Node7</title>
<g id="a_Node000007"><a xlink:href="Map_8h.html" target="_top" xlink:title="Class for handling the game map.">
<polygon fill="white" stroke="#666666" points="775.5,-356 716,-356 716,-336 775.5,-336 775.5,-356"/>
<text text-anchor="middle" x="745.75" y="-342.5" font-family="Helvetica,sans-Serif" font-size="10.00">src/Map.h</text>
</a>
</g>
</g>
<!-- Node1&#45;&gt;Node7 -->
<g id="edge7_Node000001_Node000007" class="edge">
<title>Node1&#45;&gt;Node7</title>
<g id="a_edge7_Node000001_Node000007"><a xlink:title=" ">
<path fill="none" stroke="#63b8ff" d="M947.03,-390.48C896.27,-379.51 818.36,-362.68 775.89,-353.51"/>
<polygon fill="#63b8ff" stroke="#63b8ff" points="946.06,-393.85 956.57,-392.54 947.54,-387.01 946.06,-393.85"/>
</a>
</g>
</g>
<!-- Node34 -->
<g id="Node000034" class="node">
<title>Node34</title>
<g id="a_Node000034"><a xlink:href="Window_8cpp.html" target="_top" xlink:title="Class for handling ncurses windows.">
<polygon fill="white" stroke="#666666" points="1361.25,-356 1276.25,-356 1276.25,-336 1361.25,-336 1361.25,-356"/>
<text text-anchor="middle" x="1318.75" y="-342.5" font-family="Helvetica,sans-Serif" font-size="10.00">src/Window.cpp</text>
</a>
</g>
</g>
<!-- Node1&#45;&gt;Node34 -->
<g id="edge54_Node000001_Node000034" class="edge">
<title>Node1&#45;&gt;Node34</title>
<g id="a_edge54_Node000001_Node000034"><a xlink:title=" ">
<path fill="none" stroke="#63b8ff" d="M1044.64,-392.83C1107.61,-382.3 1216.06,-364.17 1275.93,-354.16"/>
<polygon fill="#63b8ff" stroke="#63b8ff" points="1044.21,-389.35 1034.93,-394.45 1045.37,-396.25 1044.21,-389.35"/>
</a>
</g>
</g>
<!-- Node3 -->
<g id="Node000003" class="node">
<title>Node3</title>
<g id="a_Node000003"><a xlink:href="Game_8cpp.html" target="_top" xlink:title="Class for handling the game logic.">
<polygon fill="white" stroke="#666666" points="485.5,-76 408,-76 408,-56 485.5,-56 485.5,-76"/>
<text text-anchor="middle" x="446.75" y="-62.5" font-family="Helvetica,sans-Serif" font-size="10.00">src/Game.cpp</text>
</a>
</g>
</g>
<!-- Node2&#45;&gt;Node3 -->
<g id="edge2_Node000002_Node000003" class="edge">
<title>Node2&#45;&gt;Node3</title>
<g id="a_edge2_Node000002_Node000003"><a xlink:title=" ">
<path fill="none" stroke="#63b8ff" d="M492.46,-104.4C481.17,-95.17 467.54,-84.01 458.11,-76.3"/>
<polygon fill="#63b8ff" stroke="#63b8ff" points="490.13,-107.01 500.08,-110.64 494.56,-101.59 490.13,-107.01"/>
</a>
</g>
</g>
<!-- Node2&#45;&gt;Node4 -->
<g id="edge3_Node000002_Node000004" class="edge">
<title>Node2&#45;&gt;Node4</title>
<g id="a_edge3_Node000002_Node000004"><a xlink:title=" ">
<path fill="none" stroke="#63b8ff" d="M558,-115.36C638.91,-105.27 807.88,-84.19 893.55,-73.51"/>
<polygon fill="#63b8ff" stroke="#63b8ff" points="557.72,-111.86 548.23,-116.58 558.58,-118.81 557.72,-111.86"/>
</a>
</g>
</g>
<!-- Node5 -->
<g id="Node000005" class="node">
<title>Node5</title>
<g id="a_Node000005"><a xlink:href="GameManager_8cpp.html" target="_top" xlink:title="Handles the game loop and game states.">
<polygon fill="white" stroke="#666666" points="947.88,-20 833.62,-20 833.62,0 947.88,0 947.88,-20"/>
<text text-anchor="middle" x="890.75" y="-6.5" font-family="Helvetica,sans-Serif" font-size="10.00">src/GameManager.cpp</text>
</a>
</g>
</g>
<!-- Node4&#45;&gt;Node5 -->
<g id="edge4_Node000004_Node000005" class="edge">
<title>Node4&#45;&gt;Node5</title>
<g id="a_edge4_Node000004_Node000005"><a xlink:title=" ">
<path fill="none" stroke="#63b8ff" d="M927.99,-47.57C918.76,-38.5 907.84,-27.78 900.22,-20.3"/>
<polygon fill="#63b8ff" stroke="#63b8ff" points="925.5,-50.03 935.09,-54.53 930.41,-45.03 925.5,-50.03"/>
</a>
</g>
</g>
<!-- Node6 -->
<g id="Node000006" class="node">
<title>Node6</title>
<g id="a_Node000006"><a xlink:href="main_8cpp.html" target="_top" xlink:title="Main function, initializes the game manager.">
<polygon fill="white" stroke="#666666" points="1037.88,-20 965.62,-20 965.62,0 1037.88,0 1037.88,-20"/>
<text text-anchor="middle" x="1001.75" y="-6.5" font-family="Helvetica,sans-Serif" font-size="10.00">src/main.cpp</text>
</a>
</g>
</g>
<!-- Node4&#45;&gt;Node6 -->
<g id="edge5_Node000004_Node000006" class="edge">
<title>Node4&#45;&gt;Node6</title>
<g id="a_edge5_Node000004_Node000006"><a xlink:title=" ">
<path fill="none" stroke="#63b8ff" d="M963.54,-47.85C973,-38.72 984.27,-27.86 992.11,-20.3"/>
<polygon fill="#63b8ff" stroke="#63b8ff" points="961.36,-45.08 956.59,-54.54 966.22,-50.12 961.36,-45.08"/>
</a>
</g>
</g>
<!-- Node7&#45;&gt;Node2 -->
<g id="edge25_Node000007_Node000002" class="edge">
<title>Node7&#45;&gt;Node2</title>
<g id="a_edge25_Node000007_Node000002"><a xlink:title=" ">
<path fill="none" stroke="#63b8ff" d="M722.4,-329.28C709.93,-320.78 694.38,-309.99 680.75,-300 636.3,-267.41 627.05,-256.79 582.75,-224 560.45,-207.49 547.88,-210.58 531.75,-188 519.45,-170.78 515.05,-145.64 513.53,-132.23"/>
<polygon fill="#63b8ff" stroke="#63b8ff" points="720.16,-331.99 730.4,-334.71 724.09,-326.2 720.16,-331.99"/>
</a>
</g>
</g>
<!-- Node8 -->
<g id="Node000008" class="node">
<title>Node8</title>
<g id="a_Node000008"><a xlink:href="Config_8cpp.html" target="_top" xlink:title="Class for handling the game configuration.">
<polygon fill="white" stroke="#666666" points="785.62,-300 705.88,-300 705.88,-280 785.62,-280 785.62,-300"/>
<text text-anchor="middle" x="745.75" y="-286.5" font-family="Helvetica,sans-Serif" font-size="10.00">src/Config.cpp</text>
</a>
</g>
</g>
<!-- Node7&#45;&gt;Node8 -->
<g id="edge8_Node000007_Node000008" class="edge">
<title>Node7&#45;&gt;Node8</title>
<g id="a_edge8_Node000007_Node000008"><a xlink:title=" ">
<path fill="none" stroke="#63b8ff" d="M745.75,-324.13C745.75,-315.9 745.75,-306.85 745.75,-300.3"/>
<polygon fill="#63b8ff" stroke="#63b8ff" points="742.25,-324.08 745.75,-334.08 749.25,-324.08 742.25,-324.08"/>
</a>
</g>
</g>
<!-- Node9 -->
<g id="Node000009" class="node">
<title>Node9</title>
<g id="a_Node000009"><a xlink:href="EnemyBehavior_8h.html" target="_top" xlink:title="Base class for all enemy behaviors.">
<polygon fill="white" stroke="#666666" points="861.25,-244 752.25,-244 752.25,-224 861.25,-224 861.25,-244"/>
<text text-anchor="middle" x="806.75" y="-230.5" font-family="Helvetica,sans-Serif" font-size="10.00">src/EnemyBehavior.h</text>
</a>
</g>
</g>
<!-- Node7&#45;&gt;Node9 -->
<g id="edge9_Node000007_Node000009" class="edge">
<title>Node7&#45;&gt;Node9</title>
<g id="a_edge9_Node000007_Node000009"><a xlink:title=" ">
<path fill="none" stroke="#63b8ff" d="M787.11,-343.71C818.97,-340.28 861.11,-329.89 882.75,-300 899.81,-276.45 862.01,-255.89 833.83,-244.49"/>
<polygon fill="#63b8ff" stroke="#63b8ff" points="787.07,-340.2 777.41,-344.56 787.67,-347.18 787.07,-340.2"/>
</a>
</g>
</g>
<!-- Node12 -->
<g id="Node000012" class="node">
<title>Node12</title>
<g id="a_Node000012"><a xlink:href="Ghost_8cpp.html" target="_top" xlink:title="Represents a ghost enemy.">
<polygon fill="white" stroke="#666666" points="931.5,-132 854,-132 854,-112 931.5,-112 931.5,-132"/>
<text text-anchor="middle" x="892.75" y="-118.5" font-family="Helvetica,sans-Serif" font-size="10.00">src/Ghost.cpp</text>
</a>
</g>
</g>
<!-- Node7&#45;&gt;Node12 -->
<g id="edge26_Node000007_Node000012" class="edge">
<title>Node7&#45;&gt;Node12</title>
<g id="a_edge26_Node000007_Node000012"><a xlink:title=" ">
<path fill="none" stroke="#63b8ff" d="M787.01,-344.25C822.07,-341.3 871.14,-331.32 899.75,-300 939.86,-256.09 938.54,-225.06 921.75,-168 917.71,-154.27 908.04,-140.77 900.97,-132.2"/>
<polygon fill="#63b8ff" stroke="#63b8ff" points="786.96,-340.74 777.22,-344.9 787.43,-347.73 786.96,-340.74"/>
</a>
</g>
</g>
<!-- Node16 -->
<g id="Node000016" class="node">
<title>Node16</title>
<g id="a_Node000016"><a xlink:href="Ghost_8h.html" target="_top" xlink:title="Represents a ghost enemy.">
<polygon fill="white" stroke="#666666" points="608.25,-188 541.25,-188 541.25,-168 608.25,-168 608.25,-188"/>
<text text-anchor="middle" x="574.75" y="-174.5" font-family="Helvetica,sans-Serif" font-size="10.00">src/Ghost.h</text>
</a>
</g>
</g>
<!-- Node7&#45;&gt;Node16 -->
<g id="edge27_Node000007_Node000016" class="edge">
<title>Node7&#45;&gt;Node16</title>
<g id="a_edge27_Node000007_Node000016"><a xlink:title=" ">
<path fill="none" stroke="#63b8ff" d="M724.81,-328.34C715.55,-320.36 704.94,-310.31 696.75,-300 672.61,-269.61 681.15,-251.48 653.75,-224 637.92,-208.13 615.35,-196.02 598.38,-188.38"/>
<polygon fill="#63b8ff" stroke="#63b8ff" points="722.38,-330.87 732.3,-334.59 726.87,-325.5 722.38,-330.87"/>
</a>
</g>
</g>
<!-- Node19 -->
<g id="Node000019" class="node">
<title>Node19</title>
<g id="a_Node000019"><a xlink:href="Map_8cpp.html" target="_top" xlink:title="Class for handling the game map.">
<polygon fill="white" stroke="#666666" points="873.75,-300 803.75,-300 803.75,-280 873.75,-280 873.75,-300"/>
<text text-anchor="middle" x="838.75" y="-286.5" font-family="Helvetica,sans-Serif" font-size="10.00">src/Map.cpp</text>
</a>
</g>
</g>
<!-- Node7&#45;&gt;Node19 -->
<g id="edge28_Node000007_Node000019" class="edge">
<title>Node7&#45;&gt;Node19</title>
<g id="a_edge28_Node000007_Node000019"><a xlink:title=" ">
<path fill="none" stroke="#63b8ff" d="M771.45,-330.08C787.74,-320.62 808.34,-308.66 822.42,-300.48"/>
<polygon fill="#63b8ff" stroke="#63b8ff" points="770.15,-326.79 763.26,-334.83 773.66,-332.84 770.15,-326.79"/>
</a>
</g>
</g>
<!-- Node20 -->
<g id="Node000020" class="node">
<title>Node20</title>
<g id="a_Node000020"><a xlink:href="MovingObject_8h.html" target="_top" xlink:title="Base class for all moving objects.">
<polygon fill="white" stroke="#666666" points="594.12,-300 493.38,-300 493.38,-280 594.12,-280 594.12,-300"/>
<text text-anchor="middle" x="543.75" y="-286.5" font-family="Helvetica,sans-Serif" font-size="10.00">src/MovingObject.h</text>
</a>
</g>
</g>
<!-- Node7&#45;&gt;Node20 -->
<g id="edge29_Node000007_Node000020" class="edge">
<title>Node7&#45;&gt;Node20</title>
<g id="a_edge29_Node000007_Node000020"><a xlink:title=" ">
<path fill="none" stroke="#63b8ff" d="M704.62,-334C667.66,-324.12 613.97,-309.77 578.96,-300.41"/>
<polygon fill="#63b8ff" stroke="#63b8ff" points="703.48,-337.32 714.05,-336.52 705.29,-330.56 703.48,-337.32"/>
</a>
</g>
</g>
<!-- Node32 -->
<g id="Node000032" class="node">
<title>Node32</title>
<g id="a_Node000032"><a xlink:href="Player_8h.html" target="_top" xlink:title="Represents a player.">
<polygon fill="white" stroke="#666666" points="443.62,-244 375.88,-244 375.88,-224 443.62,-224 443.62,-244"/>
<text text-anchor="middle" x="409.75" y="-230.5" font-family="Helvetica,sans-Serif" font-size="10.00">src/Player.h</text>
</a>
</g>
</g>
<!-- Node7&#45;&gt;Node32 -->
<g id="edge53_Node000007_Node000032" class="edge">
<title>Node7&#45;&gt;Node32</title>
<g id="a_edge53_Node000007_Node000032"><a xlink:title=" ">
<path fill="none" stroke="#63b8ff" d="M704.26,-344.63C650.98,-342.67 556.8,-334.13 484.75,-300 456.1,-286.43 429.89,-258.79 417.41,-244.31"/>
<polygon fill="#63b8ff" stroke="#63b8ff" points="704.01,-348.12 714.11,-344.92 704.22,-341.13 704.01,-348.12"/>
</a>
</g>
</g>
<!-- Node9&#45;&gt;Node3 -->
<g id="edge17_Node000009_Node000003" class="edge">
<title>Node9&#45;&gt;Node3</title>
<g id="a_edge17_Node000009_Node000003"><a xlink:title=" ">
<path fill="none" stroke="#63b8ff" d="M748.72,-220.85C719.84,-213.53 684.96,-202.74 655.75,-188 605.6,-162.69 603.5,-139.91 554.75,-112 528.84,-97.17 497.07,-84.53 474.72,-76.46"/>
<polygon fill="#63b8ff" stroke="#63b8ff" points="747.86,-224.24 758.4,-223.22 749.52,-217.44 747.86,-224.24"/>
</a>
</g>
</g>
<!-- Node10 -->
<g id="Node000010" class="node">
<title>Node10</title>
<g id="a_Node000010"><a xlink:href="ChaseBehavior_8h.html" target="_top" xlink:title="Class for handling the chase behavior of ghosts.">
<polygon fill="white" stroke="#666666" points="1217.12,-188 1110.38,-188 1110.38,-168 1217.12,-168 1217.12,-188"/>
<text text-anchor="middle" x="1163.75" y="-174.5" font-family="Helvetica,sans-Serif" font-size="10.00">src/ChaseBehavior.h</text>
</a>
</g>
</g>
<!-- Node9&#45;&gt;Node10 -->
<g id="edge10_Node000009_Node000010" class="edge">
<title>Node9&#45;&gt;Node10</title>
<g id="a_edge10_Node000009_Node000010"><a xlink:title=" ">
<path fill="none" stroke="#63b8ff" d="M872.81,-223.01C941.21,-212.66 1046.75,-196.7 1110.15,-187.11"/>
<polygon fill="#63b8ff" stroke="#63b8ff" points="872.61,-219.5 863.25,-224.45 873.66,-226.42 872.61,-219.5"/>
</a>
</g>
</g>
<!-- Node13 -->
<g id="Node000013" class="node">
<title>Node13</title>
<g id="a_Node000013"><a xlink:href="EnemyBehavior_8cpp.html" target="_top" xlink:title="Base class for all enemy behaviors.">
<polygon fill="white" stroke="#666666" points="912.5,-188 793,-188 793,-168 912.5,-168 912.5,-188"/>
<text text-anchor="middle" x="852.75" y="-174.5" font-family="Helvetica,sans-Serif" font-size="10.00">src/EnemyBehavior.cpp</text>
</a>
</g>
</g>
<!-- Node9&#45;&gt;Node13 -->
<g id="edge13_Node000009_Node000013" class="edge">
<title>Node9&#45;&gt;Node13</title>
<g id="a_edge13_Node000009_Node000013"><a xlink:title=" ">
<path fill="none" stroke="#63b8ff" d="M822.08,-215C829.7,-206.06 838.59,-195.62 844.83,-188.3"/>
<polygon fill="#63b8ff" stroke="#63b8ff" points="819.56,-212.56 815.74,-222.44 824.89,-217.1 819.56,-212.56"/>
</a>
</g>
</g>
<!-- Node14 -->
<g id="Node000014" class="node">
<title>Node14</title>
<g id="a_Node000014"><a xlink:href="FrightenedBehavior_8h.html" target="_top" xlink:title="Class representing a frightened ghost behavior.">
<polygon fill="white" stroke="#666666" points="1092.75,-188 968.75,-188 968.75,-168 1092.75,-168 1092.75,-188"/>
<text text-anchor="middle" x="1030.75" y="-174.5" font-family="Helvetica,sans-Serif" font-size="10.00">src/FrightenedBehavior.h</text>
</a>
</g>
</g>
<!-- Node9&#45;&gt;Node14 -->
<g id="edge14_Node000009_Node000014" class="edge">
<title>Node9&#45;&gt;Node14</title>
<g id="a_edge14_Node000009_Node000014"><a xlink:title=" ">
<path fill="none" stroke="#63b8ff" d="M857.05,-220.88C897.71,-211.07 954.15,-197.47 991.52,-188.46"/>
<polygon fill="#63b8ff" stroke="#63b8ff" points="856.4,-217.43 847.5,-223.18 858.04,-224.24 856.4,-217.43"/>
</a>
</g>
</g>
<!-- Node9&#45;&gt;Node16 -->
<g id="edge18_Node000009_Node000016" class="edge">
<title>Node9&#45;&gt;Node16</title>
<g id="a_edge18_Node000009_Node000016"><a xlink:title=" ">
<path fill="none" stroke="#63b8ff" d="M755.14,-220.99C710.45,-210.59 647.11,-195.84 608.59,-186.88"/>
<polygon fill="#63b8ff" stroke="#63b8ff" points="754.07,-224.33 764.6,-223.19 755.65,-217.51 754.07,-224.33"/>
</a>
</g>
</g>
<!-- Node17 -->
<g id="Node000017" class="node">
<title>Node17</title>
<g id="a_Node000017"><a xlink:href="ScatterBehavior_8h.html" target="_top" xlink:title="Class for the scatter behavior of the ghosts.">
<polygon fill="white" stroke="#666666" points="774.62,-188 664.88,-188 664.88,-168 774.62,-168 774.62,-188"/>
<text text-anchor="middle" x="719.75" y="-174.5" font-family="Helvetica,sans-Serif" font-size="10.00">src/ScatterBehavior.h</text>
</a>
</g>
</g>
<!-- Node9&#45;&gt;Node17 -->
<g id="edge21_Node000009_Node000017" class="edge">
<title>Node9&#45;&gt;Node17</title>
<g id="a_edge21_Node000009_Node000017"><a xlink:title=" ">
<path fill="none" stroke="#63b8ff" d="M781.85,-217.54C766.74,-208.17 747.95,-196.51 735.02,-188.48"/>
<polygon fill="#63b8ff" stroke="#63b8ff" points="779.97,-220.5 790.31,-222.8 783.66,-214.55 779.97,-220.5"/>
</a>
</g>
</g>
<!-- Node11 -->
<g id="Node000011" class="node">
<title>Node11</title>
<g id="a_Node000011"><a xlink:href="ChaseBehavior_8cpp.html" target="_top" xlink:title="Class for handling the chase behavior of ghosts.">
<polygon fill="white" stroke="#666666" points="1219.38,-132 1102.12,-132 1102.12,-112 1219.38,-112 1219.38,-132"/>
<text text-anchor="middle" x="1160.75" y="-118.5" font-family="Helvetica,sans-Serif" font-size="10.00">src/ChaseBehavior.cpp</text>
</a>
</g>
</g>
<!-- Node10&#45;&gt;Node11 -->
<g id="edge11_Node000010_Node000011" class="edge">
<title>Node10&#45;&gt;Node11</title>
<g id="a_edge11_Node000010_Node000011"><a xlink:title=" ">
<path fill="none" stroke="#63b8ff" d="M1162.59,-156.13C1162.13,-147.9 1161.63,-138.85 1161.27,-132.3"/>
<polygon fill="#63b8ff" stroke="#63b8ff" points="1159.09,-156.29 1163.14,-166.08 1166.08,-155.9 1159.09,-156.29"/>
</a>
</g>
</g>
<!-- Node10&#45;&gt;Node12 -->
<g id="edge12_Node000010_Node000012" class="edge">
<title>Node10&#45;&gt;Node12</title>
<g id="a_edge12_Node000010_Node000012"><a xlink:title=" ">
<path fill="none" stroke="#63b8ff" d="M1105.08,-165.31C1052.64,-154.86 977.27,-139.84 931.85,-130.79"/>
<polygon fill="#63b8ff" stroke="#63b8ff" points="1104.26,-168.71 1114.75,-167.24 1105.63,-161.85 1104.26,-168.71"/>
</a>
</g>
</g>
<!-- Node14&#45;&gt;Node12 -->
<g id="edge16_Node000014_Node000012" class="edge">
<title>Node14&#45;&gt;Node12</title>
<g id="a_edge16_Node000014_Node000012"><a xlink:title=" ">
<path fill="none" stroke="#63b8ff" d="M996,-163.4C971.34,-153.75 938.87,-141.05 916.98,-132.48"/>
<polygon fill="#63b8ff" stroke="#63b8ff" points="994.71,-166.66 1005.3,-167.04 997.27,-160.14 994.71,-166.66"/>
</a>
</g>
</g>
<!-- Node15 -->
<g id="Node000015" class="node">
<title>Node15</title>
<g id="a_Node000015"><a xlink:href="FrightenedBehavior_8cpp.html" target="_top" xlink:title="Class representing a frightened ghost behavior.">
<polygon fill="white" stroke="#666666" points="1084,-132 949.5,-132 949.5,-112 1084,-112 1084,-132"/>
<text text-anchor="middle" x="1016.75" y="-118.5" font-family="Helvetica,sans-Serif" font-size="10.00">src/FrightenedBehavior.cpp</text>
</a>
</g>
</g>
<!-- Node14&#45;&gt;Node15 -->
<g id="edge15_Node000014_Node000015" class="edge">
<title>Node14&#45;&gt;Node15</title>
<g id="a_edge15_Node000014_Node000015"><a xlink:title=" ">
<path fill="none" stroke="#63b8ff" d="M1025.49,-156.71C1023.32,-148.32 1020.9,-139.01 1019.16,-132.3"/>
<polygon fill="#63b8ff" stroke="#63b8ff" points="1022.03,-157.33 1027.93,-166.13 1028.81,-155.57 1022.03,-157.33"/>
</a>
</g>
</g>
<!-- Node16&#45;&gt;Node2 -->
<g id="edge19_Node000016_Node000002" class="edge">
<title>Node16&#45;&gt;Node2</title>
<g id="a_edge19_Node000016_Node000002"><a xlink:title=" ">
<path fill="none" stroke="#63b8ff" d="M555.38,-160.13C544.83,-150.94 532.19,-139.93 523.43,-132.3"/>
<polygon fill="#63b8ff" stroke="#63b8ff" points="552.97,-162.67 562.81,-166.6 557.57,-157.39 552.97,-162.67"/>
</a>
</g>
</g>
<!-- Node16&#45;&gt;Node12 -->
<g id="edge20_Node000016_Node000012" class="edge">
<title>Node16&#45;&gt;Node12</title>
<g id="a_edge20_Node000016_Node000012"><a xlink:title=" ">
<path fill="none" stroke="#63b8ff" d="M619.55,-169.39C682.06,-158.78 794.42,-139.7 853.69,-129.63"/>
<polygon fill="#63b8ff" stroke="#63b8ff" points="619.25,-165.89 609.97,-171.02 620.42,-172.8 619.25,-165.89"/>
</a>
</g>
</g>
<!-- Node17&#45;&gt;Node3 -->
<g id="edge22_Node000017_Node000003" class="edge">
<title>Node17&#45;&gt;Node3</title>
<g id="a_edge22_Node000017_Node000003"><a xlink:title=" ">
<path fill="none" stroke="#63b8ff" d="M705.52,-159.01C692.76,-144.13 672.71,-123.61 650.75,-112 636.28,-104.35 540.8,-85.12 485.74,-74.44"/>
<polygon fill="#63b8ff" stroke="#63b8ff" points="702.77,-161.17 711.84,-166.66 708.17,-156.72 702.77,-161.17"/>
</a>
</g>
</g>
<!-- Node17&#45;&gt;Node12 -->
<g id="edge23_Node000017_Node000012" class="edge">
<title>Node17&#45;&gt;Node12</title>
<g id="a_edge23_Node000017_Node000012"><a xlink:title=" ">
<path fill="none" stroke="#63b8ff" d="M760.83,-164.18C792.01,-154.44 834.19,-141.28 862.38,-132.48"/>
<polygon fill="#63b8ff" stroke="#63b8ff" points="759.83,-160.82 751.33,-167.14 761.92,-167.5 759.83,-160.82"/>
</a>
</g>
</g>
<!-- Node18 -->
<g id="Node000018" class="node">
<title>Node18</title>
<g id="a_Node000018"><a xlink:href="ScatterBehavior_8cpp.html" target="_top" xlink:title="Class for the scatter behavior of the ghosts.">
<polygon fill="white" stroke="#666666" points="822.88,-132 702.62,-132 702.62,-112 822.88,-112 822.88,-132"/>
<text text-anchor="middle" x="762.75" y="-118.5" font-family="Helvetica,sans-Serif" font-size="10.00">src/ScatterBehavior.cpp</text>
</a>
</g>
</g>
<!-- Node17&#45;&gt;Node18 -->
<g id="edge24_Node000017_Node000018" class="edge">
<title>Node17&#45;&gt;Node18</title>
<g id="a_edge24_Node000017_Node000018"><a xlink:title=" ">
<path fill="none" stroke="#63b8ff" d="M734.31,-158.72C741.38,-149.84 749.57,-139.55 755.35,-132.3"/>
<polygon fill="#63b8ff" stroke="#63b8ff" points="731.67,-156.41 728.18,-166.41 737.15,-160.77 731.67,-156.41"/>
</a>
</g>
</g>
<!-- Node20&#45;&gt;Node9 -->
<g id="edge30_Node000020_Node000009" class="edge">
<title>Node20&#45;&gt;Node9</title>
<g id="a_edge30_Node000020_Node000009"><a xlink:title=" ">
<path fill="none" stroke="#63b8ff" d="M600.98,-277.25C648.84,-267.42 716.25,-253.58 760.69,-244.46"/>
<polygon fill="#63b8ff" stroke="#63b8ff" points="600.44,-273.79 591.34,-279.23 601.84,-280.64 600.44,-273.79"/>
</a>
</g>
</g>
<!-- Node20&#45;&gt;Node16 -->
<g id="edge31_Node000020_Node000016" class="edge">
<title>Node20&#45;&gt;Node16</title>
<g id="a_edge31_Node000020_Node000016"><a xlink:title=" ">
<path fill="none" stroke="#63b8ff" d="M563.43,-272.21C570.99,-264.49 578.77,-254.67 582.75,-244 589.82,-225.04 583.19,-201.02 578.5,-188.14"/>
<polygon fill="#63b8ff" stroke="#63b8ff" points="561.45,-269.27 556.58,-278.68 566.26,-274.35 561.45,-269.27"/>
</a>
</g>
</g>
<!-- Node21 -->
<g id="Node000021" class="node">
<title>Node21</title>
<g id="a_Node000021"><a xlink:href="InteractiveObject_8h.html" target="_top" xlink:title="Base class for all interactive objects.">
<polygon fill="white" stroke="#666666" points="312.25,-188 197.25,-188 197.25,-168 312.25,-168 312.25,-188"/>
<text text-anchor="middle" x="254.75" y="-174.5" font-family="Helvetica,sans-Serif" font-size="10.00">src/InteractiveObject.h</text>
</a>
</g>
</g>
<!-- Node20&#45;&gt;Node21 -->
<g id="edge32_Node000020_Node000021" class="edge">
<title>Node20&#45;&gt;Node21</title>
<g id="a_edge32_Node000020_Node000021"><a xlink:title=" ">
<path fill="none" stroke="#63b8ff" d="M482.06,-277.71C447.42,-270.29 403.84,-259.13 366.75,-244 328.87,-228.54 288.24,-202.21 267.92,-188.28"/>
<polygon fill="#63b8ff" stroke="#63b8ff" points="480.99,-281.06 491.49,-279.68 482.42,-274.21 480.99,-281.06"/>
</a>
</g>
</g>
<!-- Node31 -->
<g id="Node000031" class="node">
<title>Node31</title>
<g id="a_Node000031"><a xlink:href="MovingObject_8cpp.html" target="_top" xlink:title="Base class for all moving objects.">
<polygon fill="white" stroke="#666666" points="573.38,-244 462.12,-244 462.12,-224 573.38,-224 573.38,-244"/>
<text text-anchor="middle" x="517.75" y="-230.5" font-family="Helvetica,sans-Serif" font-size="10.00">src/MovingObject.cpp</text>
</a>
</g>
</g>
<!-- Node20&#45;&gt;Node31 -->
<g id="edge47_Node000020_Node000031" class="edge">
<title>Node20&#45;&gt;Node31</title>
<g id="a_edge47_Node000020_Node000031"><a xlink:title=" ">
<path fill="none" stroke="#63b8ff" d="M534.26,-269.29C530.15,-260.75 525.53,-251.16 522.23,-244.3"/>
<polygon fill="#63b8ff" stroke="#63b8ff" points="531.07,-270.74 538.56,-278.23 537.38,-267.7 531.07,-270.74"/>
</a>
</g>
</g>
<!-- Node20&#45;&gt;Node32 -->
<g id="edge48_Node000020_Node000032" class="edge">
<title>Node20&#45;&gt;Node32</title>
<g id="a_edge48_Node000020_Node000032"><a xlink:title=" ">
<path fill="none" stroke="#63b8ff" d="M510.01,-275.4C486.06,-265.75 454.53,-253.05 433.27,-244.48"/>
<polygon fill="#63b8ff" stroke="#63b8ff" points="508.42,-278.54 519.01,-279.03 511.04,-272.04 508.42,-278.54"/>
</a>
</g>
</g>
<!-- Node21&#45;&gt;Node2 -->
<g id="edge39_Node000021_Node000002" class="edge">
<title>Node21&#45;&gt;Node2</title>
<g id="a_edge39_Node000021_Node000002"><a xlink:title=" ">
<path fill="none" stroke="#63b8ff" d="M311.92,-165.18C355.47,-156.16 416.91,-143.38 470.75,-132 473.38,-131.44 476.1,-130.87 478.83,-130.29"/>
<polygon fill="#63b8ff" stroke="#63b8ff" points="311.26,-161.74 302.18,-167.2 312.68,-168.6 311.26,-161.74"/>
</a>
</g>
</g>
<!-- Node22 -->
<g id="Node000022" class="node">
<title>Node22</title>
<g id="a_Node000022"><a xlink:href="Cherry_8h.html" target="_top" xlink:title="Class representing a cherry collectible.">
<polygon fill="white" stroke="#666666" points="212,-132 143.5,-132 143.5,-112 212,-112 212,-132"/>
<text text-anchor="middle" x="177.75" y="-118.5" font-family="Helvetica,sans-Serif" font-size="10.00">src/Cherry.h</text>
</a>
</g>
</g>
<!-- Node21&#45;&gt;Node22 -->
<g id="edge33_Node000021_Node000022" class="edge">
<title>Node21&#45;&gt;Node22</title>
<g id="a_edge33_Node000021_Node000022"><a xlink:title=" ">
<path fill="none" stroke="#63b8ff" d="M231.93,-161C218.7,-151.72 202.49,-140.35 191.27,-132.48"/>
<polygon fill="#63b8ff" stroke="#63b8ff" points="229.9,-163.85 240.1,-166.72 233.92,-158.12 229.9,-163.85"/>
</a>
</g>
</g>
<!-- Node24 -->
<g id="Node000024" class="node">
<title>Node24</title>
<g id="a_Node000024"><a xlink:href="Coin_8h.html" target="_top" xlink:title="Class representing a coin collectible.">
<polygon fill="white" stroke="#666666" points="291.25,-132 230.25,-132 230.25,-112 291.25,-112 291.25,-132"/>
<text text-anchor="middle" x="260.75" y="-118.5" font-family="Helvetica,sans-Serif" font-size="10.00">src/Coin.h</text>
</a>
</g>
</g>
<!-- Node21&#45;&gt;Node24 -->
<g id="edge36_Node000021_Node000024" class="edge">
<title>Node21&#45;&gt;Node24</title>
<g id="a_edge36_Node000021_Node000024"><a xlink:title=" ">
<path fill="none" stroke="#63b8ff" d="M257.04,-156.43C257.96,-148.11 258.98,-138.93 259.72,-132.3"/>
<polygon fill="#63b8ff" stroke="#63b8ff" points="253.59,-155.76 255.96,-166.09 260.55,-156.54 253.59,-155.76"/>
</a>
</g>
</g>
<!-- Node26 -->
<g id="Node000026" class="node">
<title>Node26</title>
<g id="a_Node000026"><a xlink:href="InteractiveObject_8cpp.html" target="_top" xlink:title="Base class for all interactive objects.">
<polygon fill="white" stroke="#666666" points="125.5,-132 0,-132 0,-112 125.5,-112 125.5,-132"/>
<text text-anchor="middle" x="62.75" y="-118.5" font-family="Helvetica,sans-Serif" font-size="10.00">src/InteractiveObject.cpp</text>
</a>
</g>
</g>
<!-- Node21&#45;&gt;Node26 -->
<g id="edge40_Node000021_Node000026" class="edge">
<title>Node21&#45;&gt;Node26</title>
<g id="a_edge40_Node000021_Node000026"><a xlink:title=" ">
<path fill="none" stroke="#63b8ff" d="M210.52,-164.56C175.78,-154.79 128.15,-141.39 96.45,-132.48"/>
<polygon fill="#63b8ff" stroke="#63b8ff" points="209.27,-167.85 219.85,-167.18 211.17,-161.11 209.27,-167.85"/>
</a>
</g>
</g>
<!-- Node27 -->
<g id="Node000027" class="node">
<title>Node27</title>
<g id="a_Node000027"><a xlink:href="Teleport_8h.html" target="_top" xlink:title="Represents a teleport object.">
<polygon fill="white" stroke="#666666" points="384.38,-132 309.12,-132 309.12,-112 384.38,-112 384.38,-132"/>
<text text-anchor="middle" x="346.75" y="-118.5" font-family="Helvetica,sans-Serif" font-size="10.00">src/Teleport.h</text>
</a>
</g>
</g>
<!-- Node21&#45;&gt;Node27 -->
<g id="edge41_Node000021_Node000027" class="edge">
<title>Node21&#45;&gt;Node27</title>
<g id="a_edge41_Node000021_Node000027"><a xlink:title=" ">
<path fill="none" stroke="#63b8ff" d="M280.63,-161.81C296.68,-152.39 316.79,-140.58 330.6,-132.48"/>
<polygon fill="#63b8ff" stroke="#63b8ff" points="278.93,-158.75 272.08,-166.83 282.48,-164.78 278.93,-158.75"/>
</a>
</g>
</g>
<!-- Node29 -->
<g id="Node000029" class="node">
<title>Node29</title>
<g id="a_Node000029"><a xlink:href="Wall_8h.html" target="_top" xlink:title="Represents a wall object.">
<polygon fill="white" stroke="#666666" points="461.5,-132 402,-132 402,-112 461.5,-112 461.5,-132"/>
<text text-anchor="middle" x="431.75" y="-118.5" font-family="Helvetica,sans-Serif" font-size="10.00">src/Wall.h</text>
</a>
</g>
</g>
<!-- Node21&#45;&gt;Node29 -->
<g id="edge44_Node000021_Node000029" class="edge">
<title>Node21&#45;&gt;Node29</title>
<g id="a_edge44_Node000021_Node000029"><a xlink:title=" ">
<path fill="none" stroke="#63b8ff" d="M296.46,-164.27C328.73,-154.43 372.64,-141.03 401.57,-132.21"/>
<polygon fill="#63b8ff" stroke="#63b8ff" points="295.57,-160.89 287.03,-167.15 297.61,-167.58 295.57,-160.89"/>
</a>
</g>
</g>
<!-- Node22&#45;&gt;Node3 -->
<g id="edge35_Node000022_Node000003" class="edge">
<title>Node22&#45;&gt;Node3</title>
<g id="a_edge35_Node000022_Node000003"><a xlink:title=" ">
<path fill="none" stroke="#63b8ff" d="M223.73,-111.41C293.87,-97.12 364.73,-83.11 407.53,-74.69"/>
<polygon fill="#63b8ff" stroke="#63b8ff" points="223.06,-107.97 213.96,-113.4 224.46,-114.83 223.06,-107.97"/>
</a>
</g>
</g>
<!-- Node23 -->
<g id="Node000023" class="node">
<title>Node23</title>
<g id="a_Node000023"><a xlink:href="Cherry_8cpp.html" target="_top" xlink:title="Class representing a cherry collectible.">
<polygon fill="white" stroke="#666666" points="196.25,-76 117.25,-76 117.25,-56 196.25,-56 196.25,-76"/>
<text text-anchor="middle" x="156.75" y="-62.5" font-family="Helvetica,sans-Serif" font-size="10.00">src/Cherry.cpp</text>
</a>
</g>
</g>
<!-- Node22&#45;&gt;Node23 -->
<g id="edge34_Node000022_Node000023" class="edge">
<title>Node22&#45;&gt;Node23</title>
<g id="a_edge34_Node000022_Node000023"><a xlink:title=" ">
<path fill="none" stroke="#63b8ff" d="M169.97,-101C166.68,-92.54 163,-83.08 160.37,-76.3"/>
<polygon fill="#63b8ff" stroke="#63b8ff" points="166.66,-102.13 173.54,-110.18 173.18,-99.59 166.66,-102.13"/>
</a>
</g>
</g>
<!-- Node24&#45;&gt;Node3 -->
<g id="edge38_Node000024_Node000003" class="edge">
<title>Node24&#45;&gt;Node3</title>
<g id="a_edge38_Node000024_Node000003"><a xlink:title=" ">
<path fill="none" stroke="#63b8ff" d="M302.36,-108.92C336.12,-99.12 383.03,-85.5 414.11,-76.48"/>
<polygon fill="#63b8ff" stroke="#63b8ff" points="301.55,-105.51 292.92,-111.66 303.5,-112.23 301.55,-105.51"/>
</a>
</g>
</g>
<!-- Node25 -->
<g id="Node000025" class="node">
<title>Node25</title>
<g id="a_Node000025"><a xlink:href="Coin_8cpp.html" target="_top" xlink:title="Class representing a coin collectible.">
<polygon fill="white" stroke="#666666" points="285.5,-76 214,-76 214,-56 285.5,-56 285.5,-76"/>
<text text-anchor="middle" x="249.75" y="-62.5" font-family="Helvetica,sans-Serif" font-size="10.00">src/Coin.cpp</text>
</a>
</g>
</g>
<!-- Node24&#45;&gt;Node25 -->
<g id="edge37_Node000024_Node000025" class="edge">
<title>Node24&#45;&gt;Node25</title>
<g id="a_edge37_Node000024_Node000025"><a xlink:title=" ">
<path fill="none" stroke="#63b8ff" d="M256.56,-100.43C254.86,-92.11 253,-82.93 251.64,-76.3"/>
<polygon fill="#63b8ff" stroke="#63b8ff" points="253.11,-101.01 258.53,-110.11 259.97,-99.61 253.11,-101.01"/>
</a>
</g>
</g>
<!-- Node27&#45;&gt;Node3 -->
<g id="edge42_Node000027_Node000003" class="edge">
<title>Node27&#45;&gt;Node3</title>
<g id="a_edge42_Node000027_Node000003"><a xlink:title=" ">
<path fill="none" stroke="#63b8ff" d="M373.88,-106.35C391.49,-96.84 413.9,-84.74 429.2,-76.48"/>
<polygon fill="#63b8ff" stroke="#63b8ff" points="372.64,-103.04 365.5,-110.87 375.96,-109.2 372.64,-103.04"/>
</a>
</g>
</g>
<!-- Node28 -->
<g id="Node000028" class="node">
<title>Node28</title>
<g id="a_Node000028"><a xlink:href="Teleport_8cpp.html" target="_top" xlink:title="Represents a teleport object.">
<polygon fill="white" stroke="#666666" points="389.62,-76 303.88,-76 303.88,-56 389.62,-56 389.62,-76"/>
<text text-anchor="middle" x="346.75" y="-62.5" font-family="Helvetica,sans-Serif" font-size="10.00">src/Teleport.cpp</text>
</a>
</g>
</g>
<!-- Node27&#45;&gt;Node28 -->
<g id="edge43_Node000027_Node000028" class="edge">
<title>Node27&#45;&gt;Node28</title>
<g id="a_edge43_Node000027_Node000028"><a xlink:title=" ">
<path fill="none" stroke="#63b8ff" d="M346.75,-100.13C346.75,-91.9 346.75,-82.85 346.75,-76.3"/>
<polygon fill="#63b8ff" stroke="#63b8ff" points="343.25,-100.08 346.75,-110.08 350.25,-100.08 343.25,-100.08"/>
</a>
</g>
</g>
<!-- Node29&#45;&gt;Node3 -->
<g id="edge45_Node000029_Node000003" class="edge">
<title>Node29&#45;&gt;Node3</title>
<g id="a_edge45_Node000029_Node000003"><a xlink:title=" ">
<path fill="none" stroke="#63b8ff" d="M437.38,-100.71C439.72,-92.32 442.3,-83.01 444.17,-76.3"/>
<polygon fill="#63b8ff" stroke="#63b8ff" points="434.07,-99.56 434.77,-110.14 440.82,-101.44 434.07,-99.56"/>
</a>
</g>
</g>
<!-- Node30 -->
<g id="Node000030" class="node">
<title>Node30</title>
<g id="a_Node000030"><a xlink:href="Wall_8cpp.html" target="_top" xlink:title="Represents a wall object.">
<polygon fill="white" stroke="#666666" points="573.75,-76 503.75,-76 503.75,-56 573.75,-56 573.75,-76"/>
<text text-anchor="middle" x="538.75" y="-62.5" font-family="Helvetica,sans-Serif" font-size="10.00">src/Wall.cpp</text>
</a>
</g>
</g>
<!-- Node29&#45;&gt;Node30 -->
<g id="edge46_Node000029_Node000030" class="edge">
<title>Node29&#45;&gt;Node30</title>
<g id="a_edge46_Node000029_Node000030"><a xlink:title=" ">
<path fill="none" stroke="#63b8ff" d="M460.52,-106.48C479.39,-96.96 503.53,-84.78 519.97,-76.48"/>
<polygon fill="#63b8ff" stroke="#63b8ff" points="459.09,-103.28 451.74,-110.91 462.24,-109.53 459.09,-103.28"/>
</a>
</g>
</g>
<!-- Node32&#45;&gt;Node2 -->
<g id="edge49_Node000032_Node000002" class="edge">
<title>Node32&#45;&gt;Node2</title>
<g id="a_edge49_Node000032_Node000002"><a xlink:title=" ">
<path fill="none" stroke="#63b8ff" d="M428.03,-215.74C436.6,-207.49 446.86,-197.39 455.75,-188 473.91,-168.82 494.04,-145.29 504.85,-132.46"/>
<polygon fill="#63b8ff" stroke="#63b8ff" points="425.75,-213.08 420.93,-222.51 430.58,-218.14 425.75,-213.08"/>
</a>
</g>
</g>
<!-- Node32&#45;&gt;Node16 -->
<g id="edge50_Node000032_Node000016" class="edge">
<title>Node32&#45;&gt;Node16</title>
<g id="a_edge50_Node000032_Node000016"><a xlink:title=" ">
<path fill="none" stroke="#63b8ff" d="M449.32,-220.05C479.03,-210.33 519.02,-197.24 545.78,-188.48"/>
<polygon fill="#63b8ff" stroke="#63b8ff" points="448.34,-216.69 439.93,-223.12 450.52,-223.34 448.34,-216.69"/>
</a>
</g>
</g>
<!-- Node32&#45;&gt;Node21 -->
<g id="edge51_Node000032_Node000021" class="edge">
<title>Node32&#45;&gt;Node21</title>
<g id="a_edge51_Node000032_Node000021"><a xlink:title=" ">
<path fill="none" stroke="#63b8ff" d="M372.21,-219.92C344.34,-210.21 306.99,-197.2 281.96,-188.48"/>
<polygon fill="#63b8ff" stroke="#63b8ff" points="370.73,-223.11 381.32,-223.1 373.03,-216.5 370.73,-223.11"/>
</a>
</g>
</g>
<!-- Node33 -->
<g id="Node000033" class="node">
<title>Node33</title>
<g id="a_Node000033"><a xlink:href="Player_8cpp.html" target="_top" xlink:title="Represents a player.">
<polygon fill="white" stroke="#666666" points="446.88,-188 368.62,-188 368.62,-168 446.88,-168 446.88,-188"/>
<text text-anchor="middle" x="407.75" y="-174.5" font-family="Helvetica,sans-Serif" font-size="10.00">src/Player.cpp</text>
</a>
</g>
</g>
<!-- Node32&#45;&gt;Node33 -->
<g id="edge52_Node000032_Node000033" class="edge">
<title>Node32&#45;&gt;Node33</title>
<g id="a_edge52_Node000032_Node000033"><a xlink:title=" ">
<path fill="none" stroke="#63b8ff" d="M408.98,-212.13C408.67,-203.9 408.34,-194.85 408.09,-188.3"/>
<polygon fill="#63b8ff" stroke="#63b8ff" points="405.48,-212.22 409.35,-222.08 412.47,-211.96 405.48,-212.22"/>
</a>
</g>
</g>
</g>
</svg>
