<?xml version="1.0" encoding="UTF-8" standalone="no"?>
<!DOCTYPE svg PUBLIC "-//W3C//DTD SVG 1.1//EN"
 "http://www.w3.org/Graphics/SVG/1.1/DTD/svg11.dtd">
<!-- Generated by graphviz version 2.43.0 (0)
 -->
<!-- Title: src/Window.cpp Pages: 1 -->
<svg width="638pt" height="252pt"
 viewBox="0.00 0.00 638.00 252.00" xmlns="http://www.w3.org/2000/svg" xmlns:xlink="http://www.w3.org/1999/xlink">
<g id="graph0" class="graph" transform="scale(1 1) rotate(0) translate(4 248)">
<title>src/Window.cpp</title>
<polygon fill="white" stroke="transparent" points="-4,4 -4,-248 634,-248 634,4 -4,4"/>
<!-- Node1 -->
<g id="node1" class="node">
<title>Node1</title>
<g id="a_node1"><a xlink:title="Class for handling ncurses windows.">
<polygon fill="#bfbfbf" stroke="black" points="275,-224.5 275,-243.5 367,-243.5 367,-224.5 275,-224.5"/>
<text text-anchor="middle" x="321" y="-231.5" font-family="Helvetica,sans-Serif" font-size="10.00">src/Window.cpp</text>
</a>
</g>
</g>
<!-- Node2 -->
<g id="node2" class="node">
<title>Node2</title>
<g id="a_node2"><a xlink:title=" ">
<polygon fill="white" stroke="#bfbfbf" points="112.5,-112.5 112.5,-131.5 175.5,-131.5 175.5,-112.5 112.5,-112.5"/>
<text text-anchor="middle" x="144" y="-119.5" font-family="Helvetica,sans-Serif" font-size="10.00">ncurses.h</text>
</a>
</g>
</g>
<!-- Node1&#45;&gt;Node2 -->
<g id="edge1" class="edge">
<title>Node1&#45;&gt;Node2</title>
<path fill="none" stroke="midnightblue" d="M296.75,-224.47C275.65,-216.52 244.67,-203.58 220,-188 197.46,-173.76 174.61,-153.22 159.94,-139.05"/>
<polygon fill="midnightblue" stroke="midnightblue" points="162.27,-136.44 152.68,-131.92 157.36,-141.43 162.27,-136.44"/>
</g>
<!-- Node3 -->
<g id="node3" class="node">
<title>Node3</title>
<g id="a_node3"><a xlink:href="Window_8h.html" target="_top" xlink:title="Class for handling ncurses windows.">
<polygon fill="white" stroke="black" points="229,-168.5 229,-187.5 293,-187.5 293,-168.5 229,-168.5"/>
<text text-anchor="middle" x="261" y="-175.5" font-family="Helvetica,sans-Serif" font-size="10.00">Window.h</text>
</a>
</g>
</g>
<!-- Node1&#45;&gt;Node3 -->
<g id="edge2" class="edge">
<title>Node1&#45;&gt;Node3</title>
<path fill="none" stroke="midnightblue" d="M311.36,-224.32C302.49,-216.34 289.13,-204.31 278.39,-194.65"/>
<polygon fill="midnightblue" stroke="midnightblue" points="280.59,-191.92 270.82,-187.83 275.91,-197.13 280.59,-191.92"/>
</g>
<!-- Node5 -->
<g id="node5" class="node">
<title>Node5</title>
<g id="a_node5"><a xlink:title=" ">
<polygon fill="white" stroke="#bfbfbf" points="390,-112.5 390,-131.5 446,-131.5 446,-112.5 390,-112.5"/>
<text text-anchor="middle" x="418" y="-119.5" font-family="Helvetica,sans-Serif" font-size="10.00">optional</text>
</a>
</g>
</g>
<!-- Node1&#45;&gt;Node5 -->
<g id="edge15" class="edge">
<title>Node1&#45;&gt;Node5</title>
<path fill="none" stroke="midnightblue" d="M328.61,-224.37C344.76,-206.05 382.68,-163.05 403.57,-139.36"/>
<polygon fill="midnightblue" stroke="midnightblue" points="406.44,-141.41 410.42,-131.59 401.18,-136.78 406.44,-141.41"/>
</g>
<!-- Node6 -->
<g id="node6" class="node">
<title>Node6</title>
<g id="a_node6"><a xlink:title=" ">
<polygon fill="white" stroke="#bfbfbf" points="110.5,-56.5 110.5,-75.5 157.5,-75.5 157.5,-56.5 110.5,-56.5"/>
<text text-anchor="middle" x="134" y="-63.5" font-family="Helvetica,sans-Serif" font-size="10.00">vector</text>
</a>
</g>
</g>
<!-- Node1&#45;&gt;Node6 -->
<g id="edge22" class="edge">
<title>Node1&#45;&gt;Node6</title>
<path fill="none" stroke="midnightblue" d="M274.75,-227.46C221.45,-218.22 136.86,-194.07 103,-132 94.07,-115.64 106.05,-96.29 117.62,-82.99"/>
<polygon fill="midnightblue" stroke="midnightblue" points="120.29,-85.25 124.58,-75.56 115.18,-80.47 120.29,-85.25"/>
</g>
<!-- Node7 -->
<g id="node7" class="node">
<title>Node7</title>
<g id="a_node7"><a xlink:href="Enums_8h.html" target="_top" xlink:title=" ">
<polygon fill="white" stroke="black" points="332.5,-56.5 332.5,-75.5 391.5,-75.5 391.5,-56.5 332.5,-56.5"/>
<text text-anchor="middle" x="362" y="-63.5" font-family="Helvetica,sans-Serif" font-size="10.00">Enums.h</text>
</a>
</g>
</g>
<!-- Node1&#45;&gt;Node7 -->
<g id="edge20" class="edge">
<title>Node1&#45;&gt;Node7</title>
<path fill="none" stroke="midnightblue" d="M342.54,-224.39C374.12,-210.41 431.77,-179.5 455,-132 468.24,-104.94 432.46,-87.01 401.51,-76.96"/>
<polygon fill="midnightblue" stroke="midnightblue" points="402.29,-73.54 391.7,-73.97 400.25,-80.24 402.29,-73.54"/>
</g>
<!-- Node9 -->
<g id="node9" class="node">
<title>Node9</title>
<g id="a_node9"><a xlink:href="Helpers_8h.html" target="_top" xlink:title=" ">
<polygon fill="white" stroke="black" points="270.5,-112.5 270.5,-131.5 333.5,-131.5 333.5,-112.5 270.5,-112.5"/>
<text text-anchor="middle" x="302" y="-119.5" font-family="Helvetica,sans-Serif" font-size="10.00">Helpers.h</text>
</a>
</g>
</g>
<!-- Node1&#45;&gt;Node9 -->
<g id="edge21" class="edge">
<title>Node1&#45;&gt;Node9</title>
<path fill="none" stroke="midnightblue" d="M319.51,-224.37C316.44,-206.62 309.37,-165.67 305.21,-141.6"/>
<polygon fill="midnightblue" stroke="midnightblue" points="308.64,-140.85 303.48,-131.59 301.74,-142.04 308.64,-140.85"/>
</g>
<!-- Node10 -->
<g id="node10" class="node">
<title>Node10</title>
<g id="a_node10"><a xlink:title=" ">
<polygon fill="white" stroke="#bfbfbf" points="502,-168.5 502,-187.5 552,-187.5 552,-168.5 502,-168.5"/>
<text text-anchor="middle" x="527" y="-175.5" font-family="Helvetica,sans-Serif" font-size="10.00">cstring</text>
</a>
</g>
</g>
<!-- Node1&#45;&gt;Node10 -->
<g id="edge13" class="edge">
<title>Node1&#45;&gt;Node10</title>
<path fill="none" stroke="midnightblue" d="M353.64,-224.44C391.45,-214.53 453.47,-198.27 492.18,-188.13"/>
<polygon fill="midnightblue" stroke="midnightblue" points="493.18,-191.48 501.96,-185.56 491.4,-184.71 493.18,-191.48"/>
</g>
<!-- Node11 -->
<g id="node11" class="node">
<title>Node11</title>
<g id="a_node11"><a xlink:title=" ">
<polygon fill="white" stroke="#bfbfbf" points="570,-168.5 570,-187.5 630,-187.5 630,-168.5 570,-168.5"/>
<text text-anchor="middle" x="600" y="-175.5" font-family="Helvetica,sans-Serif" font-size="10.00">iostream</text>
</a>
</g>
</g>
<!-- Node1&#45;&gt;Node11 -->
<g id="edge14" class="edge">
<title>Node1&#45;&gt;Node11</title>
<path fill="none" stroke="midnightblue" d="M367.12,-224.94C413.44,-216.71 487.11,-203.27 559.98,-188.15"/>
<polygon fill="midnightblue" stroke="midnightblue" points="560.72,-191.57 569.79,-186.1 559.29,-184.72 560.72,-191.57"/>
</g>
<!-- Node12 -->
<g id="node12" class="node">
<title>Node12</title>
<g id="a_node12"><a xlink:href="Config_8h.html" target="_top" xlink:title="Class for handling the game configuration.">
<polygon fill="white" stroke="black" points="0,-112.5 0,-131.5 56,-131.5 56,-112.5 0,-112.5"/>
<text text-anchor="middle" x="28" y="-119.5" font-family="Helvetica,sans-Serif" font-size="10.00">Config.h</text>
</a>
</g>
</g>
<!-- Node1&#45;&gt;Node12 -->
<g id="edge16" class="edge">
<title>Node1&#45;&gt;Node12</title>
<path fill="none" stroke="midnightblue" d="M274.96,-229.14C211.95,-223.13 102.89,-209.89 70,-188 53.1,-176.75 41.51,-156.13 34.86,-141.12"/>
<polygon fill="midnightblue" stroke="midnightblue" points="38.07,-139.74 31.04,-131.82 31.6,-142.4 38.07,-139.74"/>
</g>
<!-- Node3&#45;&gt;Node2 -->
<g id="edge3" class="edge">
<title>Node3&#45;&gt;Node2</title>
<path fill="none" stroke="midnightblue" d="M242.46,-168.44C223.38,-159.64 193.43,-145.81 171.56,-135.72"/>
<polygon fill="midnightblue" stroke="midnightblue" points="173,-132.53 162.45,-131.52 170.07,-138.88 173,-132.53"/>
</g>
<!-- Node4 -->
<g id="node4" class="node">
<title>Node4</title>
<g id="a_node4"><a xlink:title=" ">
<polygon fill="white" stroke="#bfbfbf" points="220,-56.5 220,-75.5 264,-75.5 264,-56.5 220,-56.5"/>
<text text-anchor="middle" x="242" y="-63.5" font-family="Helvetica,sans-Serif" font-size="10.00">string</text>
</a>
</g>
</g>
<!-- Node3&#45;&gt;Node4 -->
<g id="edge4" class="edge">
<title>Node3&#45;&gt;Node4</title>
<path fill="none" stroke="midnightblue" d="M259.51,-168.37C256.44,-150.62 249.37,-109.67 245.21,-85.6"/>
<polygon fill="midnightblue" stroke="midnightblue" points="248.64,-84.85 243.48,-75.59 241.74,-86.04 248.64,-84.85"/>
</g>
<!-- Node3&#45;&gt;Node5 -->
<g id="edge5" class="edge">
<title>Node3&#45;&gt;Node5</title>
<path fill="none" stroke="midnightblue" d="M285.88,-168.44C312.29,-159.36 354.22,-144.94 383.74,-134.78"/>
<polygon fill="midnightblue" stroke="midnightblue" points="384.92,-138.08 393.24,-131.52 382.64,-131.46 384.92,-138.08"/>
</g>
<!-- Node3&#45;&gt;Node6 -->
<g id="edge6" class="edge">
<title>Node3&#45;&gt;Node6</title>
<path fill="none" stroke="midnightblue" d="M251.03,-168.37C229.61,-149.81 178.93,-105.91 151.82,-82.44"/>
<polygon fill="midnightblue" stroke="midnightblue" points="153.77,-79.49 143.92,-75.59 149.19,-84.78 153.77,-79.49"/>
</g>
<!-- Node3&#45;&gt;Node7 -->
<g id="edge7" class="edge">
<title>Node3&#45;&gt;Node7</title>
<path fill="none" stroke="midnightblue" d="M287.87,-168.42C305.91,-161.35 328.87,-149.6 343,-132 353.69,-118.69 358.36,-99.57 360.41,-85.51"/>
<polygon fill="midnightblue" stroke="midnightblue" points="363.89,-85.86 361.55,-75.53 356.94,-85.07 363.89,-85.86"/>
</g>
<!-- Node3&#45;&gt;Node9 -->
<g id="edge9" class="edge">
<title>Node3&#45;&gt;Node9</title>
<path fill="none" stroke="midnightblue" d="M267.77,-168.08C273.56,-160.46 282.06,-149.26 289.14,-139.94"/>
<polygon fill="midnightblue" stroke="midnightblue" points="292.1,-141.83 295.36,-131.75 286.52,-137.6 292.1,-141.83"/>
</g>
<!-- Node8 -->
<g id="node8" class="node">
<title>Node8</title>
<g id="a_node8"><a xlink:title=" ">
<polygon fill="white" stroke="#bfbfbf" points="339.5,-0.5 339.5,-19.5 384.5,-19.5 384.5,-0.5 339.5,-0.5"/>
<text text-anchor="middle" x="362" y="-7.5" font-family="Helvetica,sans-Serif" font-size="10.00">utility</text>
</a>
</g>
</g>
<!-- Node7&#45;&gt;Node8 -->
<g id="edge8" class="edge">
<title>Node7&#45;&gt;Node8</title>
<path fill="none" stroke="midnightblue" d="M362,-56.08C362,-49.01 362,-38.86 362,-29.99"/>
<polygon fill="midnightblue" stroke="midnightblue" points="365.5,-29.75 362,-19.75 358.5,-29.75 365.5,-29.75"/>
</g>
<!-- Node9&#45;&gt;Node4 -->
<g id="edge11" class="edge">
<title>Node9&#45;&gt;Node4</title>
<path fill="none" stroke="midnightblue" d="M292.36,-112.32C283.49,-104.34 270.13,-92.31 259.39,-82.65"/>
<polygon fill="midnightblue" stroke="midnightblue" points="261.59,-79.92 251.82,-75.83 256.91,-85.13 261.59,-79.92"/>
</g>
<!-- Node9&#45;&gt;Node6 -->
<g id="edge12" class="edge">
<title>Node9&#45;&gt;Node6</title>
<path fill="none" stroke="midnightblue" d="M275.38,-112.44C246.08,-103.02 198.93,-87.87 167.22,-77.68"/>
<polygon fill="midnightblue" stroke="midnightblue" points="168.11,-74.29 157.51,-74.56 165.96,-80.95 168.11,-74.29"/>
</g>
<!-- Node9&#45;&gt;Node7 -->
<g id="edge10" class="edge">
<title>Node9&#45;&gt;Node7</title>
<path fill="none" stroke="midnightblue" d="M311.64,-112.32C320.51,-104.34 333.87,-92.31 344.61,-82.65"/>
<polygon fill="midnightblue" stroke="midnightblue" points="347.09,-85.13 352.18,-75.83 342.41,-79.92 347.09,-85.13"/>
</g>
<!-- Node12&#45;&gt;Node4 -->
<g id="edge17" class="edge">
<title>Node12&#45;&gt;Node4</title>
<path fill="none" stroke="midnightblue" d="M56.42,-113.83C96.25,-103.78 168.45,-85.56 210.08,-75.05"/>
<polygon fill="midnightblue" stroke="midnightblue" points="211.13,-78.4 219.97,-72.56 209.42,-71.61 211.13,-78.4"/>
</g>
<!-- Node12&#45;&gt;Node6 -->
<g id="edge19" class="edge">
<title>Node12&#45;&gt;Node6</title>
<path fill="none" stroke="midnightblue" d="M45.03,-112.32C62.03,-103.66 88.38,-90.24 107.99,-80.25"/>
<polygon fill="midnightblue" stroke="midnightblue" points="109.69,-83.31 117.01,-75.65 106.51,-77.08 109.69,-83.31"/>
</g>
<!-- Node13 -->
<g id="node13" class="node">
<title>Node13</title>
<g id="a_node13"><a xlink:title=" ">
<polygon fill="white" stroke="#bfbfbf" points="9,-56.5 9,-75.5 47,-75.5 47,-56.5 9,-56.5"/>
<text text-anchor="middle" x="28" y="-63.5" font-family="Helvetica,sans-Serif" font-size="10.00">map</text>
</a>
</g>
</g>
<!-- Node12&#45;&gt;Node13 -->
<g id="edge18" class="edge">
<title>Node12&#45;&gt;Node13</title>
<path fill="none" stroke="midnightblue" d="M28,-112.08C28,-105.01 28,-94.86 28,-85.99"/>
<polygon fill="midnightblue" stroke="midnightblue" points="31.5,-85.75 28,-75.75 24.5,-85.75 31.5,-85.75"/>
</g>
</g>
</svg>
